<svg width="130" height="130" viewBox="0 0 130 130" fill="none" xmlns="http://www.w3.org/2000/svg">
<circle cx="66.5789" cy="66.5789" r="58.4211" fill="#E6EDB7"/>
<circle cx="113.947" cy="11.3158" r="6.31579" fill="#F1BC19"/>
<circle cx="11.3158" cy="91.8421" r="6.31579" fill="#F1BC19"/>
<circle r="3.15789" transform="matrix(1 0 0 -1 14.4737 69.7369)" fill="white"/>
<circle r="2.36842" transform="matrix(1 0 0 -1 108.421 40.5263)" fill="white"/>
<circle cx="120.263" cy="101.316" r="3.15789" fill="#F1BC19"/>
<circle cx="104.474" cy="8.1579" r="1.57895" fill="#F1BC19"/>
<circle cx="119.474" cy="26.3158" r="2.36842" fill="#88AE45"/>
<circle cx="80.5" cy="58.5" r="28.5" fill="#F8FECF"/>
<path d="M90.5766 38.4315V54.3387C90.566 54.3493 90.5448 54.3705 90.5342 54.3811L83.1532 61.7621H77.8508C76.1222 61.7621 74.5739 62.5999 73.6089 63.8831H58.7621V70.246V76.6089V82.9718V89.3347H71.4879H77.8508H82.0927V93.5766H54.5202V61.7621C54.5202 55.9082 49.7692 51.1573 43.9153 51.1573V47.7955C43.9153 47.488 43.979 47.191 44.1062 46.9153H52.3992C53.5657 46.9153 54.5202 45.9609 54.5202 44.7944V36.5014C54.7959 36.3741 55.0928 36.3105 55.4004 36.3105H88.4556C89.6222 36.3105 90.5766 37.2649 90.5766 38.4315Z" fill="#E6E9ED"/>
<path d="M79.1764 81.6992C78.6674 81.2962 78.2326 80.819 77.8932 80.2887C77.5115 79.7373 77.2251 79.1328 77.0448 78.4859H77.0342L72.5484 82.9718L71.4879 83.396L67.5641 84.9655C67.352 85.0503 67.1293 85.0927 66.9066 85.0927C65.9204 85.0927 65.125 84.2974 65.125 83.3111C65.125 83.1945 65.1356 83.0778 65.1568 82.9718C65.178 82.8657 65.2098 82.7597 65.2523 82.6536L67.246 77.6693L68.3065 76.6089L74.6694 70.246C73.5028 70.246 72.5484 69.2915 72.5484 68.125V67.0645C72.5484 65.8662 72.9408 64.7633 73.6089 63.8831H58.7621V89.3347H71.4879H77.8508H82.0927V84.0322L79.1764 81.6992Z" fill="#FFEAA7"/>
<path d="M58.7621 40.5524H86.3347V44.7944H58.7621V40.5524Z" fill="#FF826E"/>
<path d="M54.5202 36.5014V44.7944C54.5202 45.9609 53.5657 46.9153 52.3992 46.9153H44.1062C44.2123 46.682 44.3607 46.4699 44.541 46.2896L53.8945 36.9362C54.0748 36.7559 54.2869 36.6074 54.5202 36.5014V36.5014Z" fill="#B4DD7F"/>
<path d="M76.7903 68.125V76.7361C76.7903 77.3406 76.8752 77.9239 77.0448 78.4859H77.0342L72.5484 82.9718L67.246 77.6694L68.3065 76.6089L74.6694 70.246C75.2526 70.246 75.7829 70.0127 76.1646 69.6203C76.557 69.2385 76.7903 68.7083 76.7903 68.125V68.125Z" fill="#FF826E"/>
<path d="M90.5766 54.3387C91.2765 53.66 92.2204 53.2782 93.1854 53.2782C94.2247 53.2782 95.1579 53.7024 95.8366 54.3811C96.5153 55.0598 96.9395 55.9931 96.9395 57.0323C96.9395 58.0186 96.5471 58.973 95.8366 59.6836L89.6434 65.8768L81.0323 74.4879V69.1855C81.0323 68.3053 80.6717 67.5099 80.099 66.9373C79.7385 66.5767 79.2825 66.301 78.7734 66.1419L83.1532 61.7621L90.5342 54.3811C90.5448 54.3705 90.566 54.3493 90.5766 54.3387V54.3387Z" fill="#FF826E"/>
<path d="M72.5484 82.9718L71.4879 83.396L67.5641 84.9655C67.352 85.0503 67.1293 85.0927 66.9066 85.0927C65.9204 85.0927 65.125 84.2974 65.125 83.3111C65.125 83.1945 65.1356 83.0778 65.1568 82.9718C65.178 82.8657 65.2098 82.7597 65.2523 82.6536L67.246 77.6693L72.5484 82.9718Z" fill="#AAB2BD"/>
<path d="M93.7581 80.8508L95.879 93.5766H82.0927V89.3347V84.0323L93.7581 80.8508Z" fill="#B4DD7F"/>
<path d="M76.1646 69.6203C75.7829 70.0126 75.2526 70.246 74.6694 70.246C73.5028 70.246 72.5484 69.2915 72.5484 68.125V67.0645C72.5484 65.8662 72.9408 64.7633 73.6089 63.8831C74.5739 62.5999 76.1222 61.7621 77.8508 61.7621H83.1532L78.7734 66.1419C78.4871 66.057 78.1689 66.004 77.8508 66.004C77.2675 66.004 76.7903 66.4812 76.7903 67.0645V68.125C76.7903 68.7083 76.557 69.2385 76.1646 69.6203Z" fill="#F0D0B4"/>
<path d="M90.2054 66.9054C92.5385 71.1898 93.7581 75.9832 93.7581 80.8508L82.0927 84.0323L79.1764 81.6992C78.6674 81.2962 78.2326 80.819 77.8932 80.2887C77.5114 79.7373 77.2251 79.1328 77.0448 78.4859C76.8752 77.9239 76.7903 77.3406 76.7903 76.7361V68.125V67.0645C76.7903 66.4812 77.2675 66.004 77.8508 66.004C78.1689 66.004 78.4871 66.0571 78.7734 66.1419C79.2824 66.301 79.7385 66.5767 80.099 66.9373C80.6717 67.5099 81.0322 68.3053 81.0322 69.1855V74.4879L89.6434 65.8768L90.2054 66.9054Z" fill="#F0D0B4"/>
<path d="M54.5202 61.7621V93.5766V95.6976C54.5202 98.0412 52.6219 99.9395 50.2782 99.9395H37.5524C35.2088 99.9395 33.3105 98.0412 33.3105 95.6976V61.7621C33.3105 65.2299 34.9754 68.3053 37.5524 70.246V77.6693C37.5524 78.2526 38.0296 78.7298 38.6129 78.7298H49.2177C49.801 78.7298 50.2782 78.2526 50.2782 77.6693V70.246C52.8552 68.3053 54.5202 65.2299 54.5202 61.7621Z" fill="#969FAA"/>
<path d="M49.3005 95.6615H38.6394C38.054 95.6615 37.5789 95.1864 37.5789 94.6011V84.0386C37.5789 83.4532 38.054 82.9781 38.6394 82.9781H49.2994C49.8848 82.9781 50.3599 83.4532 50.3599 84.0386V94.6011C50.3609 95.1875 49.8858 95.6615 49.3005 95.6615Z" fill="#FF826E"/>
<path d="M50.2782 70.246V77.6694C50.2782 78.2526 49.801 78.7298 49.2177 78.7298H38.6129C38.0296 78.7298 37.5524 78.2526 37.5524 77.6694V70.246C39.3234 71.5716 41.5292 72.3669 43.9153 72.3669C46.3014 72.3669 48.5072 71.5716 50.2782 70.246Z" fill="#69D6F4"/>
<path d="M54.5202 61.7621C54.5202 65.2299 52.8552 68.3053 50.2782 70.246C48.5072 71.5716 46.3014 72.3669 43.9153 72.3669C41.5292 72.3669 39.3234 71.5716 37.5524 70.246C34.9754 68.3053 33.3105 65.2299 33.3105 61.7621C33.3105 55.9082 38.0615 51.1573 43.9153 51.1573C49.7692 51.1573 54.5202 55.9082 54.5202 61.7621Z" fill="#FCD770"/>
<path d="M91.1344 66.4028L90.952 66.0677L96.5917 60.428C97.4994 59.5202 98 58.3123 98 57.0281C98 54.3758 95.8419 52.2177 93.1896 52.2177C92.6509 52.2177 92.1323 52.3249 91.6371 52.4935V38.4315C91.6371 36.6774 90.2097 35.25 88.4556 35.25H55.3993C54.5499 35.25 53.7502 35.5809 53.149 36.1822L43.787 45.5441C43.1857 46.1443 42.8548 46.944 42.8548 47.7945V50.1509C36.9182 50.6885 32.25 55.6876 32.25 61.7621V95.6976C32.25 98.6213 34.6287 101 37.5524 101H50.2782C53.202 101 55.5806 98.6213 55.5806 95.6976V94.6371H81.0323H82.0927H97.1315L94.8154 80.7405C94.7963 75.7446 93.5269 70.7889 91.1344 66.4028V66.4028ZM92.6721 80.048L82.3335 82.8678L79.8403 80.8731C78.5762 79.8603 77.8508 78.3512 77.8508 76.7319V68.125V67.0645C79.0205 67.0645 79.9718 68.0158 79.9718 69.1855V76.6089H82.0927V74.9269L89.3825 67.6372C91.4218 71.4549 92.547 75.7223 92.6721 80.048ZM77.8508 64.9435C76.6811 64.9435 75.7298 65.8948 75.7298 67.0645V68.125C75.7298 68.7093 75.2537 69.1855 74.6694 69.1855C74.085 69.1855 73.6089 68.7093 73.6089 68.125V67.0645C73.6089 64.7251 75.5114 62.8226 77.8508 62.8226H80.5932L78.415 65.0008C78.2283 64.9754 78.0438 64.9435 77.8508 64.9435V64.9435ZM66.2374 83.0481L67.633 79.557L70.6607 82.5847L67.1685 83.9814C66.72 84.1638 66.1855 83.8021 66.1855 83.3143C66.1855 83.222 66.2024 83.133 66.2374 83.0481ZM72.5484 81.4722L68.7455 77.6694L75.1582 71.2566C75.3565 71.2259 75.5464 71.176 75.7298 71.1103V76.7308C75.7298 77.2123 75.785 77.6831 75.8741 78.1455L72.5484 81.4722ZM71.683 69.1855H59.8226V64.9435H71.8591C71.6236 65.6085 71.4879 66.3201 71.4879 67.0645V68.125C71.4879 68.4983 71.5643 68.8525 71.683 69.1855ZM59.8226 71.3064H72.1093L67.8674 75.5484H59.8226V71.3064ZM59.8226 77.6694H66.1038L64.4071 81.9113H59.8226V77.6694ZM59.8226 84.0323H64.1684C64.4887 85.2486 65.5884 86.1532 66.9045 86.1532C67.2682 86.1532 67.6235 86.0854 67.9586 85.9507L70.4274 84.9623V88.2742H59.8226V84.0323ZM72.5484 84.1139L73.1444 83.8753L76.6758 80.3439C76.714 80.4128 76.749 80.4828 76.7903 80.5507V88.2742H72.5484V84.1139ZM78.9113 82.8445L81.0323 84.5413V88.2742H78.9113V82.8445ZM95.879 57.0281C95.879 57.746 95.5991 58.4216 95.0911 58.9295L82.0927 71.9279V69.1855C82.0927 67.8578 81.4671 66.6849 80.5084 65.9065L91.2882 55.1266C91.7962 54.6187 92.4717 54.3387 93.1896 54.3387C94.6722 54.3387 95.879 55.5455 95.879 57.0281V57.0281ZM53.4597 38.8705V44.7944C53.4597 45.3787 52.9835 45.8548 52.3992 45.8548H46.4753L53.4597 38.8705ZM43.9153 52.2177C49.1774 52.2177 53.4597 56.5 53.4597 61.7621C53.4597 67.0242 49.1774 71.3064 43.9153 71.3064C38.6532 71.3064 34.371 67.0242 34.371 61.7621C34.371 56.5 38.6532 52.2177 43.9153 52.2177ZM38.6129 72.14C40.2057 72.9566 42.0054 73.4274 43.9153 73.4274C45.8253 73.4274 47.6249 72.9566 49.2177 72.14V77.6694H38.6129V72.14ZM50.2782 98.879H37.5524C35.7984 98.879 34.371 97.4516 34.371 95.6976V68.4484C34.9744 69.3074 35.6849 70.0858 36.4919 70.7539V77.6694C36.4919 78.8391 37.4432 79.7903 38.6129 79.7903H49.2177C50.3875 79.7903 51.3387 78.8391 51.3387 77.6694V70.7539C52.1457 70.0858 52.8563 69.3074 53.4597 68.4484V95.6976C53.4597 97.4516 52.0323 98.879 50.2782 98.879ZM55.5806 92.5161V61.7621C55.5806 55.6876 50.9124 50.6885 44.9758 50.1509V47.9758H52.3992C54.1532 47.9758 55.5806 46.5484 55.5806 44.7944V37.371H88.4556C89.04 37.371 89.5161 37.8471 89.5161 38.4315V53.8997L82.7142 60.7016H77.8508C75.9727 60.7016 74.2876 61.5245 73.121 62.8226H57.7016V90.3952H81.0323V92.5161H55.5806ZM83.1532 92.5161V84.8425L92.9044 82.1828L94.6266 92.5161H83.1532Z" fill="black"/>
<path d="M42.8548 66.9107V69.1855H44.9758V66.9107C46.2007 66.5226 47.0968 65.389 47.0968 64.0379C47.0968 62.8852 46.4562 61.8469 45.4233 61.3305L43.3554 60.2976C43.0468 60.1427 42.8548 59.832 42.8548 59.4863C42.8548 58.9868 43.261 58.5806 43.7605 58.5806H44.0702C44.5696 58.5806 44.9758 58.9868 44.9758 59.4863V60.7016H47.0968V59.4863C47.0968 58.1352 46.2007 57.0016 44.9758 56.6135V54.3387H42.8548V56.6135C41.63 57.0016 40.7339 58.1352 40.7339 59.4863C40.7339 60.639 41.3744 61.6773 42.4073 62.1937L44.4753 63.2266C44.7839 63.3815 44.9758 63.6922 44.9758 64.0379C44.9758 64.5374 44.5696 64.9436 44.0702 64.9436H43.7605C43.261 64.9436 42.8548 64.5374 42.8548 64.0379V62.8226H40.7339V64.0379C40.7339 65.389 41.63 66.5226 42.8548 66.9107Z" fill="black"/>
<path d="M49.2177 81.9113H38.6129C37.4432 81.9113 36.4919 82.8625 36.4919 84.0323V94.6371C36.4919 95.8068 37.4432 96.7581 38.6129 96.7581H49.2177C50.3875 96.7581 51.3387 95.8068 51.3387 94.6371V84.0323C51.3387 82.8625 50.3875 81.9113 49.2177 81.9113ZM49.2177 86.1532H47.0968V84.0323H49.2177V86.1532ZM44.9758 94.6371H42.8548V92.5161H44.9758V94.6371ZM44.9758 90.3952H42.8548V88.2742H44.9758V90.3952ZM40.7339 90.3952H38.6129V88.2742H40.7339V90.3952ZM42.8548 86.1532V84.0323H44.9758V86.1532H42.8548ZM40.7339 84.0323V86.1532H38.6129V84.0323H40.7339ZM38.6129 92.5161H40.7339V94.6371H38.6129V92.5161ZM47.0968 94.6371V88.2742H49.2188L49.2199 94.6371H47.0968Z" fill="black"/>
<path d="M87.3952 39.4919H57.7016V45.8548H87.3952V39.4919ZM85.2742 43.7339H59.8226V41.6129H85.2742V43.7339Z" fill="black"/>
<path d="M57.7016 47.9758H87.3952V50.0968H57.7016V47.9758Z" fill="black"/>
<path d="M57.7016 52.2177H87.3952V54.3387H57.7016V52.2177Z" fill="black"/>
<path d="M57.7016 56.4597H74.6694V58.5807H57.7016V56.4597Z" fill="black"/>
</svg>
