<svg width="130" height="130" viewBox="0 0 130 130" fill="none" xmlns="http://www.w3.org/2000/svg">
<path d="M66.5788 125C98.8439 125 125 98.844 125 66.5789C125 34.3138 98.8439 8.15778 66.5788 8.15778C34.3137 8.15778 8.15771 34.3138 8.15771 66.5789C8.15771 98.844 34.3137 125 66.5788 125Z" fill="#C2EAFC"/>
<path d="M113.947 17.6316C117.435 17.6316 120.263 14.8039 120.263 11.3158C120.263 7.82768 117.435 5 113.947 5C110.459 5 107.631 7.82768 107.631 11.3158C107.631 14.8039 110.459 17.6316 113.947 17.6316Z" fill="#AAE5FF"/>
<path d="M11.3158 98.1579C14.8039 98.1579 17.6316 95.3303 17.6316 91.8422C17.6316 88.354 14.8039 85.5264 11.3158 85.5264C7.82768 85.5264 5 88.354 5 91.8422C5 95.3303 7.82768 98.1579 11.3158 98.1579Z" fill="#AAE5FF"/>
<path d="M14.4738 66.579C16.2179 66.579 17.6317 67.9928 17.6317 69.7369C17.6317 71.4809 16.2179 72.8948 14.4738 72.8948C12.7298 72.8948 11.3159 71.4809 11.3159 69.7369C11.3159 67.9928 12.7298 66.579 14.4738 66.579Z" fill="white"/>
<path d="M108.421 38.1579C109.729 38.1579 110.789 39.2183 110.789 40.5264C110.789 41.8344 109.729 42.8948 108.421 42.8948C107.113 42.8948 106.052 41.8344 106.052 40.5264C106.052 39.2183 107.113 38.1579 108.421 38.1579Z" fill="white"/>
<path d="M120.263 104.474C122.007 104.474 123.421 103.06 123.421 101.316C123.421 99.5719 122.007 98.1581 120.263 98.1581C118.519 98.1581 117.105 99.5719 117.105 101.316C117.105 103.06 118.519 104.474 120.263 104.474Z" fill="#FDD1A3"/>
<path d="M104.474 9.73688C105.346 9.73688 106.053 9.02996 106.053 8.15793C106.053 7.2859 105.346 6.57898 104.474 6.57898C103.602 6.57898 102.895 7.2859 102.895 8.15793C102.895 9.02996 103.602 9.73688 104.474 9.73688Z" fill="#AAE5FF"/>
<path d="M119.474 28.6842C120.782 28.6842 121.842 27.6238 121.842 26.3158C121.842 25.0078 120.782 23.9474 119.474 23.9474C118.166 23.9474 117.105 25.0078 117.105 26.3158C117.105 27.6238 118.166 28.6842 119.474 28.6842Z" fill="#E40C57"/>
<path d="M75.5 87C91.2401 87 104 74.2401 104 58.5C104 42.7599 91.2401 30 75.5 30C59.7599 30 47 42.7599 47 58.5C47 74.2401 59.7599 87 75.5 87Z" fill="#D8F1FD"/>
<path fill-rule="evenodd" clip-rule="evenodd" d="M98.8959 120.706C98.7662 120.603 98.6174 120.527 98.4581 120.481C98.2988 120.436 98.1321 120.423 97.9676 120.442C97.803 120.461 97.6438 120.513 97.499 120.593C97.3542 120.674 97.2267 120.782 97.1237 120.912C97.0207 121.042 96.9443 121.191 96.8988 121.351C96.8533 121.51 96.8397 121.677 96.8586 121.841C96.8776 122.006 96.9287 122.165 97.0092 122.31C97.0897 122.455 97.1979 122.582 97.3277 122.685C97.5898 122.893 97.9237 122.987 98.2561 122.949C98.5884 122.91 98.892 122.741 99.1 122.478C99.3079 122.216 99.4033 121.882 99.365 121.549C99.3267 121.217 99.158 120.913 98.8959 120.706Z" fill="#BFC7D2"/>
<path d="M22.7246 11.4067L23.383 11.9287C23.5576 12.0672 23.67 12.2694 23.6954 12.491C23.7208 12.7125 23.6572 12.9352 23.5186 13.1101C23.3799 13.285 23.1776 13.3977 22.9561 13.4235C22.7346 13.4492 22.512 13.3859 22.3374 13.2475L21.679 12.7255L21.1562 13.3849C21.0176 13.5598 20.8152 13.6725 20.5937 13.6983C20.3722 13.724 20.1497 13.6607 19.9751 13.5223C19.8005 13.3839 19.6881 13.1816 19.6627 12.9601C19.6372 12.7385 19.7009 12.5158 19.8395 12.3409L20.3623 11.6815L19.7039 11.1595C19.5293 11.0211 19.417 10.8189 19.3915 10.5973C19.3661 10.3758 19.4297 10.153 19.5684 9.97813C19.707 9.80325 19.9094 9.69053 20.1309 9.66476C20.3524 9.63899 20.5749 9.70229 20.7495 9.84073L21.4079 10.3628L21.9307 9.70334C22.0694 9.52846 22.2717 9.41573 22.4932 9.38997C22.7147 9.3642 22.9373 9.4275 23.1119 9.56594C23.2865 9.70438 23.3989 9.90662 23.4243 10.1282C23.4497 10.3498 23.3861 10.5725 23.2474 10.7473L22.7246 11.4067Z" fill="#BFC7D2"/>
<path d="M11.7245 25.4067L12.3829 25.9287C12.5575 26.0672 12.6699 26.2694 12.6953 26.491C12.7207 26.7125 12.6571 26.9352 12.5185 27.1101C12.3798 27.285 12.1775 27.3977 11.956 27.4235C11.7345 27.4492 11.5119 27.3859 11.3373 27.2475L10.6789 26.7255L10.1561 27.3849C10.0175 27.5598 9.81518 27.6725 9.59367 27.6983C9.37215 27.724 9.14963 27.6607 8.97502 27.5223C8.80041 27.3839 8.68802 27.1816 8.6626 26.9601C8.63718 26.7385 8.7008 26.5158 8.83945 26.3409C8.83945 26.3409 9.40022 26.008 9.36225 25.6815C9.32434 25.3556 8.70388 25.1595 8.70388 25.1595C8.52927 25.0211 8.4169 24.8189 8.39147 24.5973C8.36605 24.3758 8.42966 24.153 8.56831 23.9782C8.70697 23.8033 8.90931 23.6906 9.13082 23.6648C9.35233 23.639 9.57487 23.7023 9.74948 23.8408L10.4078 24.3628L10.9306 23.7034C11.0693 23.5285 11.2716 23.4158 11.4931 23.39C11.7146 23.3642 11.9372 23.4275 12.1118 23.566C12.2864 23.7044 12.3988 23.9066 12.4242 24.1282C12.4496 24.3498 12.386 24.5725 12.2473 24.7473L11.7245 25.4067Z" fill="#BFC7D2"/>
<path d="M75.3515 83.8407C75.3515 83.8407 70.5837 77.7568 70.5987 77.7718C70.2528 78.005 68.4179 79.4338 68.0193 79.2608L65.6429 78.2155C65.2744 78.0501 65.0262 77.7342 64.936 77.3808C64.7254 77.3958 60.5442 77.5989 61.3789 75.0796C60.3637 77.9147 61.6271 79.4188 61.6271 79.4188C61.6271 79.4188 68.463 84.6904 70.3355 85.6004C72.208 86.5103 74.419 93.9328 74.419 93.9328L78.4047 92.128L75.3515 83.8407Z" fill="#EBCEB1"/>
<path d="M39.495 41.998C40.6607 39.0727 43.5184 37.328 46.4964 37.4483L41.4503 50.1199C39.2168 48.1571 38.3294 44.9234 39.495 41.998Z" fill="#2E4661"/>
<path d="M71.5989 64.1601L82.4431 68.4692C83.0221 68.7023 83.6764 68.4165 83.9095 67.8375L89.4519 53.91C89.685 53.331 89.3993 52.6767 88.8202 52.4436L77.976 48.127L71.5989 64.1601Z" fill="#CBCCCE"/>
<path d="M84.4613 50.7101L77.9773 48.1294L71.5977 64.1577L78.0817 66.7384L84.4613 50.7101Z" fill="#821B2E"/>
<path d="M35.5469 64.837L52.2568 22.8516C56.9119 33.974 65.8534 43.2916 77.9384 48.112L71.5613 64.1376C59.4687 59.3397 46.5715 59.9639 35.5469 64.837Z" fill="#CBCCCE"/>
<path d="M77.9685 66.732L68.9367 84.382C68.5005 85.0363 67.6658 85.2995 66.9363 85.0062L60.7096 82.5245C59.7319 82.1335 59.3559 80.9377 59.935 80.0579L71.5913 64.1902L77.9685 66.732Z" fill="#2E4661"/>
<path d="M52.0989 23.2502L35.5469 64.8371C46.3986 60.0392 59.0702 59.3623 70.9897 63.9121C67.3424 61.4605 44.887 45.2469 52.0989 23.2502Z" fill="#BFC1C4"/>
<path d="M64.9359 77.3808H64.9434H65.0412C65.0412 77.3808 65.0336 77.3808 65.0336 77.3733C65.8834 77.3733 66.3948 76.6889 66.3948 76.6889C66.3948 76.6889 68.8314 74.2524 70.1399 72.3798C71.4484 70.5073 70.5084 69.4018 70.5084 69.4018L70.1624 69.2364L68.2673 68.349C68.2673 68.349 64.8908 69.0559 62.3414 73.1394C61.9052 73.8388 61.5969 74.4855 61.3863 75.0721C60.5365 77.5989 64.7253 77.3883 64.9359 77.3808Z" fill="#EBCEB1"/>
<path d="M79.42 80.8778C79.42 80.5393 79.3598 71.9362 79.3598 71.9362L72.6668 65.183C72.6668 65.183 71.1928 64.9574 70.5085 65.183C69.8242 65.4086 70.5085 70.2291 73.3436 71.4248C72.8924 72.3649 72.1554 73.8463 71.8546 76.1024L71.4034 79.4865L72.6743 83.4948C72.6743 83.4948 73.3737 83.4948 73.7196 83.1789L75.3891 84.7056L77.6001 92.5943L82.9094 89.8118C82.9169 89.8043 79.42 81.2162 79.42 80.8778Z" fill="#EBCEB1"/>
<path d="M85.8722 87.4579L72.614 93.4741L77.2089 110.094H97.5135L85.8722 87.4579Z" fill="#293A53"/>
</svg>
