<svg width="130" height="130" viewBox="0 0 130 130" fill="none" xmlns="http://www.w3.org/2000/svg">
<circle cx="66.5789" cy="66.5789" r="58.4211" fill="#CEECD3"/>
<circle cx="113.947" cy="11.3158" r="6.31579" fill="#76FD8C"/>
<circle cx="11.3158" cy="91.8422" r="6.31579" fill="#76FD8C"/>
<circle r="3.15789" transform="matrix(1 0 0 -1 14.4737 69.7369)" fill="white"/>
<circle r="2.36842" transform="matrix(1 0 0 -1 108.421 40.5263)" fill="white"/>
<circle cx="120.263" cy="101.316" r="3.15789" fill="#76FD8C"/>
<circle cx="104.474" cy="8.1579" r="1.57895" fill="#76FD8C"/>
<circle cx="119.474" cy="26.3158" r="2.36842" fill="#1BB934"/>
<circle cx="79.5" cy="50.5" r="28.5" fill="#DFF3E3"/>
<path fill-rule="evenodd" clip-rule="evenodd" d="M98.896 120.706C98.7663 120.603 98.6175 120.527 98.4582 120.481C98.2989 120.436 98.1322 120.423 97.9677 120.442C97.8031 120.461 97.6439 120.513 97.4991 120.593C97.3543 120.674 97.2268 120.782 97.1238 120.912C97.0208 121.042 96.9444 121.191 96.8989 121.351C96.8534 121.51 96.8398 121.677 96.8587 121.841C96.8777 122.006 96.9288 122.165 97.0093 122.31C97.0898 122.455 97.198 122.582 97.3278 122.685C97.5899 122.893 97.9238 122.987 98.2562 122.949C98.5885 122.91 98.8921 122.741 99.1001 122.478C99.308 122.216 99.4034 121.882 99.3651 121.549C99.3268 121.217 99.1581 120.913 98.896 120.706Z" fill="#BFC7D2"/>
<path d="M22.7247 11.4067L23.383 11.9287C23.5576 12.0672 23.67 12.2694 23.6954 12.491C23.7209 12.7125 23.6572 12.9352 23.5186 13.1101C23.3799 13.285 23.1776 13.3977 22.9561 13.4235C22.7346 13.4492 22.512 13.3859 22.3374 13.2475L21.6791 12.7255L21.1563 13.3849C21.0176 13.5598 20.8153 13.6725 20.5938 13.6983C20.3722 13.724 20.1497 13.6607 19.9751 13.5223C19.8005 13.3839 19.6881 13.1816 19.6627 12.9601C19.6373 12.7385 19.7009 12.5158 19.8395 12.3409L20.3623 11.6815L19.704 11.1595C19.5294 11.0211 19.417 10.8189 19.3916 10.5973C19.3661 10.3758 19.4297 10.153 19.5684 9.97816C19.7071 9.80328 19.9094 9.69056 20.1309 9.66479C20.3524 9.63902 20.575 9.70232 20.7496 9.84076L21.4079 10.3628L21.9307 9.70337C22.0694 9.52849 22.2717 9.41576 22.4932 9.39C22.7147 9.36423 22.9373 9.42753 23.1119 9.56597C23.2865 9.70441 23.3989 9.90665 23.4243 10.1282C23.4497 10.3498 23.3861 10.5725 23.2475 10.7473L22.7247 11.4067Z" fill="#BFC7D2"/>
<path d="M11.7247 25.4067L12.383 25.9287C12.5576 26.0672 12.67 26.2694 12.6954 26.491C12.7209 26.7125 12.6572 26.9352 12.5186 27.1101C12.3799 27.285 12.1776 27.3977 11.9561 27.4235C11.7346 27.4492 11.512 27.3859 11.3374 27.2475L10.6791 26.7255L10.1563 27.3849C10.0176 27.5598 9.81526 27.6725 9.59375 27.6983C9.37224 27.724 9.14972 27.6607 8.97511 27.5223C8.8005 27.3839 8.68811 27.1816 8.66269 26.9601C8.63726 26.7385 8.70088 26.5158 8.83954 26.3409C8.83954 26.3409 9.40031 26.008 9.36234 25.6815C9.32442 25.3556 8.70397 25.1595 8.70397 25.1595C8.52936 25.0211 8.41698 24.8189 8.39156 24.5973C8.36613 24.3758 8.42974 24.153 8.5684 23.9782C8.70705 23.8033 8.9094 23.6906 9.13091 23.6648C9.35242 23.639 9.57496 23.7023 9.74957 23.8408L10.4079 24.3628L10.9307 23.7034C11.0694 23.5285 11.2717 23.4158 11.4932 23.39C11.7147 23.3642 11.9373 23.4275 12.1119 23.566C12.2865 23.7044 12.3989 23.9066 12.4243 24.1282C12.4497 24.3498 12.3861 24.5725 12.2475 24.7473L11.7247 25.4067Z" fill="#BFC7D2"/>
<path fill-rule="evenodd" clip-rule="evenodd" d="M97.4037 89.0202H34.0116C33.7433 89.0202 33.486 89.1268 33.2963 89.3165C33.1066 89.5062 33 89.7635 33 90.0318C33 90.3001 33.1066 90.5574 33.2963 90.7471C33.486 90.9368 33.7433 91.0434 34.0116 91.0434H97.4037C97.672 91.0434 97.9293 90.9368 98.119 90.7471C98.3087 90.5574 98.4153 90.3001 98.4153 90.0318C98.4153 89.7635 98.3087 89.5062 98.119 89.3165C97.9293 89.1268 97.672 89.0202 97.4037 89.0202ZM100.776 89.0202C100.643 89.0202 100.511 89.0465 100.388 89.0974C100.266 89.1483 100.154 89.2228 100.06 89.3168C99.9663 89.4108 99.8918 89.5224 99.8409 89.6452C99.7901 89.768 99.764 89.8996 99.764 90.0325C99.7641 90.1653 99.7903 90.2969 99.8412 90.4197C99.8921 90.5424 99.9667 90.654 100.061 90.7479C100.155 90.8418 100.266 90.9163 100.389 90.9671C100.512 91.0179 100.643 91.0441 100.776 91.044C101.045 91.0439 101.302 90.9372 101.492 90.7474C101.681 90.5576 101.788 90.3002 101.788 90.0318C101.788 89.7634 101.681 89.5061 101.491 89.3163C101.301 89.1266 101.044 89.0201 100.776 89.0202" fill="#354052"/>
<path fill-rule="evenodd" clip-rule="evenodd" d="M80.5441 93.7409H44.1274C43.8591 93.7409 43.6018 93.8475 43.4121 94.0372C43.2224 94.2269 43.1158 94.4842 43.1158 94.7525C43.1158 95.0208 43.2224 95.2781 43.4121 95.4678C43.6018 95.6575 43.8591 95.7641 44.1274 95.7641H80.5441C80.8124 95.7641 81.0697 95.6575 81.2594 95.4678C81.4491 95.2781 81.5557 95.0208 81.5557 94.7525C81.5557 94.4842 81.4491 94.2269 81.2594 94.0372C81.0697 93.8475 80.8124 93.7409 80.5441 93.7409V93.7409ZM88.6367 93.7409H83.916C83.6477 93.7409 83.3904 93.8475 83.2007 94.0372C83.011 94.2269 82.9045 94.4842 82.9045 94.7525C82.9045 95.0208 83.011 95.2781 83.2007 95.4678C83.3904 95.6575 83.6477 95.7641 83.916 95.7641H88.6367C88.905 95.7641 89.1623 95.6575 89.352 95.4678C89.5417 95.2781 89.6483 95.0208 89.6483 94.7525C89.6483 94.4842 89.5417 94.2269 89.352 94.0372C89.1623 93.8475 88.905 93.7409 88.6367 93.7409V93.7409ZM73.8003 98.4616H50.8712C50.6029 98.4616 50.3456 98.5682 50.1559 98.7579C49.9662 98.9476 49.8596 99.2049 49.8596 99.4732C49.8596 99.7415 49.9662 99.9988 50.1559 100.188C50.3456 100.378 50.6029 100.485 50.8712 100.485H73.8003C74.0686 100.485 74.3259 100.378 74.5156 100.188C74.7053 99.9988 74.8118 99.7415 74.8118 99.4732C74.8118 99.2049 74.7053 98.9476 74.5156 98.7579C74.3259 98.5682 74.0686 98.4616 73.8003 98.4616ZM79.1953 98.4616H77.1722C76.9039 98.4616 76.6466 98.5682 76.4569 98.7579C76.2672 98.9476 76.1606 99.2049 76.1606 99.4732C76.1606 99.7415 76.2672 99.9988 76.4569 100.188C76.6466 100.378 76.9039 100.485 77.1722 100.485H79.1953C79.4636 100.485 79.7209 100.378 79.9106 100.188C80.1003 99.9988 80.2069 99.7415 80.2069 99.4732C80.2069 99.2049 80.1003 98.9476 79.9106 98.7579C79.7209 98.5682 79.4636 98.4616 79.1953 98.4616Z" fill="#1BB934"/>
<path fill-rule="evenodd" clip-rule="evenodd" d="M79.5325 42.4877C92.9406 42.4877 103.81 53.3574 103.81 66.7655C103.81 73.6409 100.952 79.8492 96.3591 84.2665L79.5325 67.4399V42.4877Z" fill="#EDF9FE"/>
<path fill-rule="evenodd" clip-rule="evenodd" d="M79.5325 42.4877C66.1244 42.4877 55.2547 53.3574 55.2547 66.7655C55.2547 73.6409 58.1127 79.8492 62.706 84.2665L79.5325 67.4399V42.4877Z" fill="#1BB934"/>
<path fill-rule="evenodd" clip-rule="evenodd" d="M62.1381 83.702C66.5486 88.2312 72.7125 91.0434 79.5325 91.0434C86.0653 91.0434 91.9951 88.4632 96.3591 84.2665L79.5325 67.4399L62.1381 83.702Z" fill="white"/>
<path d="M79.5325 90.0318C92.3821 90.0318 102.799 79.6151 102.799 66.7655C102.799 53.9159 92.3821 43.4993 79.5325 43.4993C66.6829 43.4993 56.2663 53.9159 56.2663 66.7655C56.2663 79.6151 66.6829 90.0318 79.5325 90.0318Z" stroke="#354052" stroke-width="3"/>
<path d="M80.2069 44.848C80.2069 44.2894 79.754 43.8365 79.1953 43.8365C78.6366 43.8365 78.1837 44.2894 78.1837 44.848V66.4283C78.1837 66.987 78.6366 67.4399 79.1953 67.4399C79.754 67.4399 80.2069 66.987 80.2069 66.4283V44.848Z" fill="#354052"/>
<path d="M80.3734 66.8503C79.9784 66.4552 79.3379 66.4552 78.9429 66.8503C78.5478 67.2453 78.5478 67.8858 78.9429 68.2808L94.2024 83.5404C94.5975 83.9355 95.238 83.9355 95.633 83.5404C96.0281 83.1454 96.0281 82.5049 95.633 82.1098L80.3734 66.8503Z" fill="#354052"/>
<path d="M79.4478 68.2808C79.8428 67.8858 79.8428 67.2453 79.4478 66.8502C79.0527 66.4552 78.4122 66.4552 78.0172 66.8502L62.7576 82.1098C62.3626 82.5049 62.3626 83.1454 62.7576 83.5404C63.1527 83.9355 63.7932 83.9355 64.1882 83.5404L79.4478 68.2808Z" fill="#354052"/>
<path d="M37.0463 41.812C37.046 41.3694 37.133 40.9312 37.3021 40.5222C37.4713 40.1133 37.7194 39.7417 38.0322 39.4287C38.345 39.1157 38.7165 38.8674 39.1253 38.698C39.5341 38.5286 39.9723 38.4414 40.4148 38.4414H43.1191C43.5618 38.441 44.0001 38.528 44.4091 38.6973C44.8181 38.8666 45.1897 39.1148 45.5026 39.4279C45.8155 39.741 46.0635 40.1127 46.2326 40.5218C46.4016 40.9309 46.4883 41.3693 46.4877 41.812V91.0434H37.0463V41.812Z" fill="#EDF9FE"/>
<path fill-rule="evenodd" clip-rule="evenodd" d="M45.4761 90.0318H38.0579V41.812C38.0576 41.5023 38.1184 41.1956 38.2367 40.9094C38.3551 40.6232 38.5286 40.3631 38.7475 40.144C38.9664 39.9249 39.2263 39.7511 39.5124 39.6326C39.7985 39.514 40.1052 39.453 40.4149 39.453H43.1191C43.4289 39.4526 43.7358 39.5134 44.022 39.6318C44.3083 39.7503 44.5683 39.9241 44.7873 40.1432C45.0063 40.3624 45.1798 40.6226 45.298 40.9089C45.4162 41.1953 45.4767 41.5022 45.4761 41.812V90.0318V90.0318Z" stroke="#354052" stroke-width="3"/>
<path d="M51.8828 66.0938C51.8822 65.651 51.9689 65.2125 52.138 64.8032C52.307 64.3939 52.555 64.022 52.8678 63.7086C53.1807 63.3952 53.5522 63.1465 53.9611 62.9768C54.3701 62.807 54.8085 62.7195 55.2513 62.7192H57.9556C58.8497 62.7203 59.7068 63.0764 60.3385 63.7092C60.9701 64.342 61.3247 65.1997 61.3241 66.0938V91.0434H51.8828V66.0938Z" fill="#EDF9FE"/>
<path fill-rule="evenodd" clip-rule="evenodd" d="M60.3125 90.0318H52.8943V66.0938C52.8938 65.7839 52.9543 65.4769 53.0725 65.1903C53.1907 64.9038 53.3642 64.6433 53.5831 64.4239C53.802 64.2044 54.062 64.0303 54.3482 63.9113C54.6345 63.7924 54.9413 63.7311 55.2513 63.7308H57.9556C58.5814 63.7319 59.1812 63.9814 59.6232 64.4245C60.0651 64.8676 60.3131 65.468 60.3125 66.0938V90.0318V90.0318Z" stroke="#354052" stroke-width="3"/>
<path d="M59.301 75.5366C59.3004 75.0937 59.387 74.655 59.556 74.2456C59.725 73.8362 59.973 73.4641 60.2858 73.1506C60.5986 72.8371 60.9701 72.5883 61.3792 72.4184C61.7882 72.2486 62.2267 72.1609 62.6695 72.1606H65.3738C66.2681 72.1618 67.1253 72.5182 67.757 73.1512C68.3887 73.7843 68.7431 74.6423 68.7424 75.5366V91.0434H59.301V75.5366Z" fill="#EDF9FE"/>
<path fill-rule="evenodd" clip-rule="evenodd" d="M67.7308 90.0318H60.3126V75.5366C60.3119 75.2265 60.3724 74.9194 60.4906 74.6327C60.6087 74.3461 60.7822 74.0855 61.0011 73.8659C61.22 73.6463 61.48 73.4721 61.7663 73.353C62.0526 73.234 62.3595 73.1725 62.6695 73.1722H65.3738C65.9998 73.1734 66.5997 73.4232 67.0417 73.8665C67.4837 74.3099 67.7315 74.9105 67.7308 75.5366V90.0318V90.0318Z" stroke="#354052" stroke-width="3"/>
<path d="M44.4645 32.3686C44.4645 31.9262 44.5515 31.4881 44.7208 31.0794C44.89 30.6706 45.1381 30.2992 45.451 29.9864C45.7638 29.6736 46.1352 29.4255 46.5439 29.2562C46.9526 29.087 47.3907 28.9999 47.8331 29H50.5374C50.9799 28.9996 51.4181 29.0864 51.827 29.2555C52.2359 29.4246 52.6074 29.6728 52.9203 29.9856C53.2332 30.2985 53.4813 30.67 53.6504 31.0789C53.8195 31.4878 53.9064 31.9261 53.9059 32.3686V91.0433H44.4645V32.3686Z" fill="#1BB934"/>
<path fill-rule="evenodd" clip-rule="evenodd" d="M52.8943 90.0318H45.4761V32.3686C45.476 32.059 45.5369 31.7525 45.6553 31.4665C45.7738 31.1805 45.9474 30.9206 46.1662 30.7017C46.3851 30.4828 46.645 30.3092 46.931 30.1908C47.217 30.0724 47.5235 30.0115 47.8331 30.0116H50.5374C50.847 30.0111 51.1537 30.0718 51.4399 30.1901C51.726 30.3084 51.986 30.482 52.205 30.7009C52.4239 30.9199 52.5975 31.1799 52.7158 31.4661C52.8341 31.7522 52.8948 32.0589 52.8943 32.3686V90.0318V90.0318Z" stroke="#354052" stroke-width="3"/>
<path fill-rule="evenodd" clip-rule="evenodd" d="M53.8486 56.3153C53.8866 56.2072 53.906 56.0934 53.9059 55.9787V51.9291V52.6035C53.9059 52.8717 53.7993 53.129 53.6096 53.3187C53.4199 53.5085 53.1626 53.615 52.8943 53.615C52.626 53.615 52.3687 53.5085 52.179 53.3187C51.9893 53.129 51.8828 52.8717 51.8828 52.6035V51.9291V55.9787C51.8828 56.0961 51.903 56.2094 51.9401 56.3146C51.8865 56.162 51.8703 55.9988 51.8928 55.8387C51.9154 55.6786 51.9759 55.5262 52.0695 55.3943C52.163 55.2624 52.2869 55.1549 52.4305 55.0807C52.5742 55.0065 52.7336 54.9679 52.8953 54.968C53.057 54.9681 53.2163 55.007 53.3599 55.0814C53.5034 55.1557 53.6271 55.2635 53.7205 55.3955C53.8138 55.5275 53.8742 55.68 53.8965 55.8401C53.9188 56.0003 53.9023 56.1634 53.8486 56.3159V56.3153Z" fill="#EDF9FE"/>
<path fill-rule="evenodd" clip-rule="evenodd" d="M53.8486 60.3616C53.8866 60.2535 53.906 60.1397 53.9059 60.0251V55.9754V56.6498C53.9059 56.918 53.7993 57.1753 53.6096 57.3651C53.4199 57.5548 53.1626 57.6613 52.8943 57.6613C52.626 57.6613 52.3687 57.5548 52.179 57.3651C51.9893 57.1753 51.8828 56.918 51.8828 56.6498V55.9754V60.0251C51.8828 60.1424 51.903 60.2557 51.9401 60.3609C51.8865 60.2083 51.8703 60.0451 51.8928 59.885C51.9154 59.7249 51.9759 59.5725 52.0695 59.4406C52.163 59.3087 52.2869 59.2012 52.4305 59.127C52.5742 59.0528 52.7336 59.0142 52.8953 59.0143C53.057 59.0144 53.2163 59.0533 53.3599 59.1277C53.5034 59.2021 53.6271 59.3098 53.7205 59.4418C53.8138 59.5738 53.8742 59.7263 53.8965 59.8864C53.9188 60.0466 53.9023 60.2097 53.8486 60.3622V60.3616Z" fill="#EDF9FE"/>
</svg>
