<svg width="130" height="130" viewBox="0 0 130 130" fill="none" xmlns="http://www.w3.org/2000/svg">
<circle cx="67.5789" cy="67.5789" r="58.4211" fill="#E6EDB7"/>
<circle cx="114.947" cy="12.3158" r="6.31579" fill="#F1BC19"/>
<circle cx="12.3158" cy="92.8421" r="6.31579" fill="#F1BC19"/>
<circle r="3.15789" transform="matrix(1 0 0 -1 15.4737 70.7369)" fill="white"/>
<circle r="2.36842" transform="matrix(1 0 0 -1 109.421 41.5263)" fill="white"/>
<circle cx="121.263" cy="102.316" r="3.15789" fill="#F1BC19"/>
<circle cx="105.474" cy="9.1579" r="1.57895" fill="#F1BC19"/>
<circle cx="120.474" cy="27.3158" r="2.36842" fill="#88AE45"/>
<circle cx="81.5" cy="59.5" r="28.5" fill="#F8FECF"/>
<path d="M113.735 48.9366H111.775H103.911H102.572C102.076 48.9366 101.629 49.306 101.455 49.8478L101.083 51.0544C100.91 51.5962 100.488 51.9656 99.9669 51.9656H84.016C83.371 51.9656 82.85 52.5566 82.85 53.2954V71.2479C82.85 71.9867 83.371 72.5777 84.016 72.5777H84.0904H111.75H113.71C114.405 72.5777 114.95 71.9867 114.95 71.2479V54.7237V51.9656V50.291C114.975 49.5522 114.429 48.9366 113.735 48.9366Z" fill="#3E479B"/>
<path d="M102.348 52.138L102.745 50.9313C102.919 50.3895 103.39 50.0201 103.936 50.0201H113.76C114.454 50.0201 115 50.6112 115 51.35V53.0245V55.7827V72.3314C115 73.0702 114.429 73.6612 113.76 73.6612H84.1152C83.4206 73.6612 82.8748 73.0702 82.8748 72.3314V54.379C82.8748 53.6402 83.4454 53.0492 84.1152 53.0492H101.158C101.703 53.0492 102.175 52.6798 102.348 52.138Z" fill="#6D6CD4"/>
<path opacity="0.12" d="M103.068 53.3939L103.44 52.2365C103.614 51.7193 104.06 51.3992 104.556 51.3992H113.809C114.454 51.3992 115 51.9656 115 52.6551V54.2312V56.8416V72.4053C115 73.0948 114.479 73.6612 113.809 73.6612H85.9013C85.2563 73.6612 84.7106 73.0948 84.7106 72.4053V55.4871C84.7106 54.7976 85.2315 54.2312 85.9013 54.2312H101.976C102.448 54.2312 102.894 53.8864 103.068 53.3939Z" fill="white"/>
<path d="M111.601 72.159H104.283C104.135 72.159 104.035 72.0605 104.035 71.9128C104.035 71.765 104.135 71.6665 104.283 71.6665H111.601C112.073 71.6665 112.47 71.2725 112.47 70.8046V65.0421C112.47 64.8943 112.569 64.7958 112.718 64.7958C112.867 64.7958 112.966 64.8943 112.966 65.0421V70.8046C112.941 71.568 112.346 72.159 111.601 72.159Z" fill="white"/>
<path d="M26.2651 69.3517H28.2249H36.1383H37.4779C37.9741 69.3517 38.4206 69.7703 38.5942 70.3613L38.9663 71.7404C39.14 72.356 39.5865 72.7501 40.0827 72.7501H56.1576C56.8026 72.7501 57.3484 73.415 57.3484 74.2523V94.4457C57.3484 95.283 56.8274 95.9479 56.1576 95.9479H56.0832H28.2497H26.2899C25.5953 95.9479 25.0248 95.283 25.0248 94.4457V75.8776V72.7747V70.8539C25.0248 70.0166 25.5705 69.3517 26.2651 69.3517Z" fill="#F28393"/>
<path opacity="0.12" d="M37.726 72.9471L37.3291 71.568C37.1555 70.9524 36.6841 70.5583 36.1384 70.5583H26.2652C25.5706 70.5583 25 71.2233 25 72.0605V73.9568V77.0597V95.6278C25 96.4651 25.5706 97.13 26.2652 97.13H56.0832C56.7778 97.13 57.3484 96.4651 57.3484 95.6278V75.4343C57.3484 74.597 56.7778 73.9321 56.0832 73.9321H38.9416C38.3958 73.9568 37.9245 73.5627 37.726 72.9471Z" fill="white"/>
<path opacity="0.12" d="M37.0066 74.3508L36.6345 73.0702C36.4609 72.5038 36.0143 72.1098 35.5182 72.1098H26.1907C25.5458 72.1098 25 72.75 25 73.5381V75.3112V78.2417V95.7509C25 96.5389 25.5209 97.1792 26.1907 97.1792H54.2971C54.9421 97.1792 55.4879 96.5389 55.4879 95.7509V76.7395C55.4879 75.9514 54.9669 75.3112 54.2971 75.3112H38.1229C37.6268 75.3112 37.1803 74.9172 37.0066 74.3508Z" fill="white"/>
<path d="M27.3071 78.02C27.183 78.02 27.0838 77.9215 27.0838 77.7738V74.3508C27.0838 73.8829 27.4311 73.5135 27.8528 73.5135H32.4669C32.591 73.5135 32.6902 73.612 32.6902 73.7597C32.6902 73.9075 32.591 74.006 32.4669 74.006H27.8528C27.6792 74.006 27.5303 74.1537 27.5303 74.3508V77.7738C27.5303 77.8969 27.4311 78.02 27.3071 78.02Z" fill="white"/>
<path d="M87.3897 58.7624H55.5127C50.2288 58.7624 45.9371 54.5021 45.9371 49.2567C45.9371 44.0114 50.2288 39.751 55.5127 39.751H87.3897C92.6736 39.751 96.9653 44.0114 96.9653 49.2567C96.9653 54.5021 92.6736 58.7624 87.3897 58.7624Z" fill="#C5D9FF"/>
<path d="M71.4388 54.5514C78.8782 54.5514 84.909 48.5645 84.909 41.1794C84.909 33.7942 78.8782 27.8074 71.4388 27.8074C63.9994 27.8074 57.9686 33.7942 57.9686 41.1794C57.9686 48.5645 63.9994 54.5514 71.4388 54.5514Z" fill="#599AF2"/>
<path d="M87.3897 55.955H55.5127C50.2288 55.955 45.9371 51.6947 45.9371 46.4494C45.9371 41.204 50.2288 36.9437 55.5127 36.9437H87.3897C92.6736 36.9437 96.9653 41.204 96.9653 46.4494C96.9653 51.6947 92.6736 55.955 87.3897 55.955Z" fill="#599AF2"/>
<path d="M71.4388 51.744C78.8782 51.744 84.909 45.7571 84.909 38.372C84.909 30.9868 78.8782 25 71.4388 25C63.9994 25 57.9686 30.9868 57.9686 38.372C57.9686 45.7571 63.9994 51.744 71.4388 51.744Z" fill="#599AF2"/>
<g opacity="0.35">
<path d="M87.3897 55.955H55.5127C50.2288 55.955 45.9371 51.6947 45.9371 46.4494C45.9371 41.204 50.2288 36.9437 55.5127 36.9437H87.3897C92.6736 36.9437 96.9653 41.204 96.9653 46.4494C96.9653 51.6947 92.6736 55.955 87.3897 55.955Z" fill="#ECF1F7"/>
<path d="M71.4388 51.744C78.8782 51.744 84.909 45.7571 84.909 38.372C84.909 30.9868 78.8782 25 71.4388 25C63.9994 25 57.9686 30.9868 57.9686 38.372C57.9686 45.7571 63.9994 51.744 71.4388 51.744Z" fill="#ECF1F7"/>
</g>
<path d="M68.2883 40.3667C68.1394 40.3667 67.9658 40.3175 67.8418 40.1943C67.5937 39.9481 67.5937 39.5541 67.8418 39.3324L71.4636 35.8109L75.0358 39.357C75.2839 39.6033 75.2839 39.9973 75.0358 40.219C74.7877 40.4652 74.3908 40.4652 74.1676 40.219L71.4884 37.5593L68.7596 40.2436C68.6108 40.3175 68.4619 40.3667 68.2883 40.3667Z" fill="white"/>
<path d="M71.4388 45.2673C71.0915 45.2673 70.8186 44.9964 70.8186 44.6517V36.6482C70.8186 36.3034 71.0915 36.0325 71.4388 36.0325C71.7861 36.0325 72.059 36.3034 72.059 36.6482V44.6517C72.059 44.9964 71.7861 45.2673 71.4388 45.2673Z" fill="white"/>
<path d="M77.3181 49.0597H65.5099C64.6665 49.0597 63.9719 48.3702 63.9719 47.5329V43.2726C63.9719 42.9278 64.2447 42.657 64.592 42.657C64.9393 42.657 65.2122 42.9278 65.2122 43.2726V47.5329C65.2122 47.7053 65.3363 47.8284 65.5099 47.8284H77.3181C77.5413 47.8284 77.715 47.6561 77.715 47.4344V43.2726C77.715 42.9278 77.9878 42.657 78.3351 42.657C78.6824 42.657 78.9553 42.9278 78.9553 43.2726V47.459C78.9305 48.3456 78.2111 49.0597 77.3181 49.0597Z" fill="white"/>
<path opacity="0.36" d="M90.1929 89.7914L56.3809 100.898C55.5623 101.169 54.6692 100.725 54.3964 99.9127L43.2332 66.3473C42.9603 65.5346 43.4068 64.6481 44.2255 64.3772L78.0375 53.2954C78.8561 53.0245 79.7492 53.4678 80.0221 54.2805L91.1852 87.8459C91.4829 88.6339 91.0364 89.5205 90.1929 89.7914Z" fill="#4C65BA"/>
<path d="M87.7122 88.5601L53.9002 99.6418C53.0816 99.9127 52.1885 99.4694 51.9157 98.6568L40.7525 65.0913C40.4796 64.2787 40.9261 63.3921 41.7448 63.1213L75.5568 52.0395C76.3754 51.7686 77.2685 52.2119 77.5413 53.0245L88.7045 86.59C88.9774 87.4026 88.5309 88.2892 87.7122 88.5601Z" fill="white"/>
<path d="M74.9306 55.6663L44.3807 65.6859L54.4739 96.013L85.0238 85.9934L74.9306 55.6663Z" fill="#C5D9FF"/>
<path opacity="0.47" d="M54.2227 96.268L51.9404 89.3973L55.2894 81.3938C55.7607 80.2857 56.9763 79.7193 58.1174 80.064L64.2943 81.9602C64.6664 82.0834 65.0634 81.9356 65.2618 81.5909L70.4217 73.0702C71.5132 71.2725 73.8203 70.5337 75.7552 71.371L81.436 73.7844L81.4856 73.9321L85.4796 85.9497L85.1323 86.0728L54.2227 96.268ZM52.7343 89.422L54.694 95.3322L84.5369 85.5557L80.8158 74.4L75.4575 72.1098C73.8451 71.4203 71.9597 72.0359 71.0419 73.5135L65.882 82.0341C65.5099 82.6498 64.7657 82.9453 64.0711 82.7237L57.8941 80.8274C57.1003 80.5812 56.2817 80.9752 55.9592 81.714L52.7343 89.422Z" fill="white"/>
<path opacity="0.47" d="M64.4184 72.627C62.7563 72.627 61.1935 71.568 60.6477 69.9181C59.9531 67.8495 61.0943 65.6331 63.1532 64.9436C65.237 64.2541 67.4697 65.3869 68.1643 67.4308C68.8589 69.4994 67.7177 71.7158 65.6588 72.4053C65.237 72.5531 64.8153 72.627 64.4184 72.627ZM64.4184 65.51C64.0959 65.51 63.7486 65.5593 63.4013 65.6824C61.7144 66.2242 60.7966 68.0465 61.3671 69.7211C61.9129 71.3957 63.7486 72.3068 65.4355 71.7404C67.1224 71.1986 68.0402 69.3763 67.4697 67.7017C67.0231 66.3473 65.758 65.51 64.4184 65.51Z" fill="white"/>
<path opacity="0.36" d="M100.389 95.8494H73.9691C73.1009 95.8494 72.3815 95.1599 72.3815 94.2733V68.0711C72.3815 67.2092 73.0761 66.4951 73.9691 66.4951H100.364C101.232 66.4951 101.951 67.1846 101.951 68.0711V94.2733C101.951 95.1353 101.257 95.8494 100.389 95.8494Z" fill="#4C65BA"/>
<path d="M98.8754 94.3472H72.4807C71.6125 94.3472 70.8931 93.6577 70.8931 92.7711V66.5689C70.8931 65.707 71.5877 64.9929 72.4807 64.9929H98.8754C99.7437 64.9929 100.463 65.6824 100.463 66.5689V92.7711C100.463 93.6577 99.7437 94.3472 98.8754 94.3472Z" fill="white"/>
<path opacity="0.39" d="M97.9079 67.5047H73.3986V91.8354H97.9079V67.5047Z" fill="#F7A9B4"/>
<path opacity="0.47" d="M98.3297 92.057H73.0513V86.4176L77.4173 81.3939C78.0375 80.6797 79.129 80.532 79.898 81.0984L83.9168 83.955C84.1152 84.1027 84.3881 84.0781 84.5866 83.9304L90.3666 79.0051C91.6318 77.9216 93.5171 77.9462 94.7574 79.0298L98.3049 82.1573V92.057H98.3297ZM73.7955 91.3182H97.5606V82.4774L94.2613 79.5715C93.2938 78.7096 91.8302 78.7096 90.8379 79.5469L85.0579 84.4721C84.6114 84.8662 83.9664 84.8908 83.4702 84.546L79.4515 81.6894C78.9802 81.3446 78.3352 81.4431 77.9631 81.8618L73.7707 86.6639V91.3182H73.7955Z" fill="white"/>
<path opacity="0.47" d="M87.1665 77.5276C85.4548 77.5276 84.0656 76.1485 84.0656 74.4493C84.0656 72.7501 85.4548 71.371 87.1665 71.371C88.8782 71.371 90.2674 72.7501 90.2674 74.4493C90.2674 76.1485 88.8782 77.5276 87.1665 77.5276ZM87.1665 72.1098C85.8517 72.1098 84.8098 73.1687 84.8098 74.4493C84.8098 75.7299 85.8765 76.7888 87.1665 76.7888C88.4565 76.7888 89.5232 75.7299 89.5232 74.4493C89.5232 73.1687 88.4813 72.1098 87.1665 72.1098Z" fill="white"/>
<path opacity="0.36" d="M81.5353 98.3613L66.6014 103.902C65.7828 104.198 64.8649 103.804 64.5672 102.991L58.9856 88.1661C58.688 87.3534 59.0849 86.4422 59.9035 86.1467L74.8373 80.6058C75.656 80.3103 76.5738 80.7043 76.8715 81.517L82.4531 96.3419C82.7508 97.1546 82.3539 98.0658 81.5353 98.3613Z" fill="#4C65BA"/>
<path d="M80.2949 97.7949L65.361 103.336C64.5424 103.631 63.6246 103.237 63.3269 102.425L57.7453 87.5997C57.4476 86.787 57.8445 85.8758 58.6631 85.5803L73.597 80.0394C74.4156 79.7439 75.3335 80.1379 75.6312 80.9506L81.2128 95.7755C81.5104 96.5882 81.0887 97.4994 80.2949 97.7949Z" fill="white"/>
<path d="M74.1086 81.5649L59.2651 87.0867L64.8274 101.822L79.671 96.3002L74.1086 81.5649Z" fill="#599AF2"/>
<path opacity="0.47" d="M64.5921 102.203L63.2525 98.6321L64.7657 94.5688C65.0138 93.9286 65.6836 93.5838 66.3534 93.7562L69.4295 94.5688C69.5287 94.5935 69.6279 94.5442 69.6775 94.4703L72.0342 90.1854C72.58 89.2003 73.7955 88.7571 74.8622 89.1511L77.7894 90.2593L80.1213 96.4404L64.5921 102.203ZM64.0463 98.6075L65.0386 101.243L79.1786 95.9725L77.2189 90.801L74.6141 89.816C73.8947 89.5451 73.0761 89.8406 72.704 90.5055L70.3473 94.7905C70.1241 95.1845 69.6775 95.3569 69.2558 95.2584L66.1797 94.4457C65.8821 94.3718 65.5844 94.5196 65.4851 94.8151L64.0463 98.6075Z" fill="white"/>
<path opacity="0.47" d="M69.1814 90.3085C68.3131 90.3085 67.4945 89.7914 67.172 88.9295C66.7503 87.8213 67.3208 86.6146 68.4123 86.196C69.5038 85.7773 70.7442 86.3437 71.1659 87.4273C71.5876 88.5354 71.0171 89.7421 69.9256 90.1608C69.6775 90.2593 69.4294 90.3085 69.1814 90.3085ZM69.1814 86.8116C69.0077 86.8116 68.8589 86.8362 68.6852 86.9101C67.9658 87.181 67.5937 87.969 67.8666 88.6832C68.1395 89.3974 68.9333 89.7668 69.6527 89.4959C70.3721 89.225 70.7442 88.4369 70.4713 87.7228C70.2729 87.1564 69.7519 86.8116 69.1814 86.8116Z" fill="white"/>
</svg>
