<svg width="130" height="130" viewBox="0 0 130 130" fill="none" xmlns="http://www.w3.org/2000/svg">
<circle cx="66.4211" cy="66.4211" r="58.4211" fill="#E6EDB7"/>
<circle cx="113.947" cy="11.3158" r="6.31579" fill="#F1BC19"/>
<circle cx="11.3158" cy="91.8421" r="6.31579" fill="#F1BC19"/>
<circle r="3.15789" transform="matrix(1 0 0 -1 14.4737 69.7369)" fill="white"/>
<circle r="2.36842" transform="matrix(1 0 0 -1 108.421 40.5263)" fill="white"/>
<circle cx="120.263" cy="101.316" r="3.15789" fill="#F1BC19"/>
<circle cx="104.474" cy="8.1579" r="1.57895" fill="#F1BC19"/>
<circle cx="119.474" cy="26.3158" r="2.36842" fill="#88AE45"/>
<circle cx="80.5" cy="58.5" r="28.5" fill="#F8FECF"/>
<path d="M36.9597 58.3647L65.8694 41.5278L94.7792 58.3647V68.8061H36.9597V58.3647Z" fill="#ECEAEC"/>
<path d="M36.9597 54.3839V58.3647L65.8042 41.7236L94.714 58.2994V54.4491L65.8042 37.8081L36.9597 54.3839Z" fill="#DAD8DB"/>
<path d="M32.3056 52.3528C32.3595 51.4555 32.8698 50.6287 33.6377 50.1615C63.4901 32 66 32 66 32V32C66 32 68.5197 32 97.9081 50.2685C98.5614 50.6746 99.0244 51.3573 99.1436 52.1172V52.1172C99.4881 54.3135 97.1491 55.9388 95.2212 54.8315C85.8386 49.4423 65.904 37.9992 65.8042 37.9992C65.7033 37.9992 45.5444 49.6281 36.4091 54.9009C34.5148 55.9943 32.1746 54.5361 32.3056 52.3528V52.3528Z" fill="#9FD4FE"/>
<rect x="32.3915" y="68.2841" width="66.8253" height="4.95969" rx="2.47985" fill="#9FD4FE"/>
<circle cx="65.9347" cy="47.1401" r="3.26296" fill="#FFC269"/>
<path d="M66 46.096C64.0422 46.1612 63.0416 47.4664 62.8023 48.1843C63.3766 50.0115 65.1951 50.5118 66 50.4683C67.9578 50.3625 68.8714 48.9239 69.0672 48.1843C68.2841 46.5136 66.6743 46.096 66 46.096Z" fill="#FFE07D"/>
<path d="M51.7577 63.1939H48.9026C48.4905 63.1939 48.1952 63.1025 48.0168 62.9198C47.8426 62.7329 47.7555 62.4376 47.7555 62.034V55.011C47.7555 54.5989 47.8447 54.3036 48.0232 54.1251C48.2058 53.9424 48.499 53.8511 48.9026 53.8511H51.9298C52.3759 53.8511 52.7625 53.8787 53.0897 53.9339C53.4168 53.9892 53.71 54.0954 53.9691 54.2526C54.1901 54.3843 54.3855 54.5521 54.5554 54.7561C54.7254 54.9557 54.855 55.1788 54.9442 55.4252C55.0334 55.6674 55.078 55.9244 55.078 56.1963C55.078 57.131 54.6107 57.8151 53.676 58.2484C54.9038 58.6393 55.5178 59.3998 55.5178 60.53C55.5178 61.0525 55.3839 61.5241 55.1163 61.9448C54.8486 62.3611 54.4875 62.6692 54.0329 62.8688C53.7482 62.9878 53.4211 63.0728 53.0514 63.1238C52.6818 63.1705 52.2506 63.1939 51.7577 63.1939ZM51.6175 59.0451H49.6483V61.7727H51.6812C52.9601 61.7727 53.5995 61.3117 53.5995 60.3898C53.5995 59.9182 53.4338 59.5761 53.1024 59.3637C52.771 59.1513 52.276 59.0451 51.6175 59.0451ZM49.6483 55.2723V57.6876H51.3817C51.8533 57.6876 52.2166 57.643 52.4715 57.5538C52.7307 57.4646 52.9282 57.2946 53.0642 57.044C53.1704 56.8655 53.2235 56.6658 53.2235 56.4449C53.2235 55.9733 53.0557 55.661 52.72 55.5081C52.3844 55.3509 51.8724 55.2723 51.1841 55.2723H49.6483Z" fill="#6F6571"/>
<path d="M62.6427 62.1359L62.1966 60.9633H58.3983L57.9522 62.1614C57.778 62.6288 57.6293 62.9453 57.5061 63.111C57.3829 63.2725 57.1811 63.3532 56.9007 63.3532C56.6628 63.3532 56.4525 63.2661 56.2698 63.0919C56.0871 62.9177 55.9957 62.7201 55.9957 62.4992C55.9957 62.3717 56.017 62.24 56.0595 62.1041C56.1019 61.9681 56.172 61.7791 56.2698 61.5369L58.6596 55.4698C58.7276 55.2956 58.8083 55.0875 58.9018 54.8453C58.9995 54.5989 59.1015 54.3949 59.2077 54.2335C59.3182 54.072 59.4605 53.9424 59.6347 53.8447C59.8131 53.7428 60.0319 53.6918 60.2911 53.6918C60.5545 53.6918 60.7733 53.7428 60.9475 53.8447C61.126 53.9424 61.2683 54.0699 61.3745 54.2271C61.485 54.3843 61.5763 54.5542 61.6485 54.7369C61.725 54.9154 61.8206 55.1554 61.9353 55.4571L64.3762 61.4859C64.5674 61.9448 64.663 62.2783 64.663 62.4865C64.663 62.7031 64.5716 62.9028 64.3889 63.0855C64.2105 63.264 63.9938 63.3532 63.7389 63.3532C63.5902 63.3532 63.4627 63.3256 63.3565 63.2703C63.2503 63.2194 63.1611 63.1492 63.0888 63.06C63.0166 62.9666 62.938 62.8264 62.853 62.6394C62.7723 62.4482 62.7022 62.2804 62.6427 62.1359ZM58.8954 59.5422H61.6868L60.2784 55.6865L58.8954 59.5422Z" fill="#6F6571"/>
<path d="M68.525 54.8262L72.1639 60.3324V54.7752C72.1639 54.414 72.2404 54.1443 72.3934 53.9658C72.5506 53.7831 72.7609 53.6918 73.0243 53.6918C73.2962 53.6918 73.5107 53.7831 73.6679 53.9658C73.8251 54.1443 73.9037 54.414 73.9037 54.7752V62.1232C73.9037 62.9432 73.5639 63.3532 72.8841 63.3532C72.7141 63.3532 72.5612 63.3277 72.4252 63.2767C72.2893 63.23 72.1618 63.1535 72.0428 63.0473C71.9239 62.9411 71.8134 62.8179 71.7114 62.6776C71.6095 62.5332 71.5075 62.3866 71.4055 62.2379L67.8558 56.7954V62.2698C67.8558 62.6267 67.773 62.8965 67.6073 63.0791C67.4416 63.2618 67.2291 63.3532 66.97 63.3532C66.7023 63.3532 66.4877 63.2618 66.3263 63.0791C66.1648 62.8922 66.0841 62.6224 66.0841 62.2698V55.062C66.0841 54.7561 66.1181 54.516 66.1861 54.3418C66.2668 54.1506 66.4006 53.9956 66.5876 53.8766C66.7745 53.7534 66.9763 53.6918 67.193 53.6918C67.363 53.6918 67.5074 53.7194 67.6264 53.7746C67.7496 53.8299 67.8558 53.9042 67.945 53.9977C68.0385 54.0911 68.132 54.2122 68.2254 54.3609C68.3232 54.5096 68.423 54.6647 68.525 54.8262Z" fill="#6F6571"/>
<path d="M77.8805 54.8389V58.1146L81.5959 54.2398C81.7744 54.0529 81.9252 53.9148 82.0484 53.8256C82.1758 53.7364 82.3437 53.6918 82.5519 53.6918C82.8238 53.6918 83.0426 53.7725 83.2083 53.9339C83.3782 54.0911 83.4632 54.2845 83.4632 54.5139C83.4632 54.79 83.3209 55.0641 83.0362 55.336L80.7356 57.5156L83.3867 61.3138C83.5737 61.5773 83.7139 61.8088 83.8073 62.0085C83.9008 62.2039 83.9475 62.3951 83.9475 62.5821C83.9475 62.7902 83.8647 62.9708 83.699 63.1238C83.5375 63.2767 83.3166 63.3532 83.0362 63.3532C82.7728 63.3532 82.5582 63.2979 82.3925 63.1875C82.2268 63.0728 82.0866 62.9219 81.9719 62.735C81.8572 62.5481 81.7552 62.3781 81.666 62.2252L79.4291 58.7838L77.8805 60.2687V62.1997C77.8805 62.5906 77.7913 62.8816 77.6128 63.0728C77.4344 63.2597 77.2049 63.3532 76.9245 63.3532C76.7631 63.3532 76.608 63.3107 76.4593 63.2257C76.3106 63.1408 76.1959 63.026 76.1152 62.8816C76.0557 62.7626 76.0196 62.6245 76.0068 62.4673C75.9941 62.3101 75.9877 62.0828 75.9877 61.7854V54.8389C75.9877 54.4565 76.0706 54.1697 76.2362 53.9786C76.4062 53.7874 76.6356 53.6918 76.9245 53.6918C77.2092 53.6918 77.4386 53.7874 77.6128 53.9786C77.7913 54.1655 77.8805 54.4523 77.8805 54.8389Z" fill="#6F6571"/>
<rect x="38.9175" y="75.5931" width="53.7735" height="18.2726" fill="#B6B1B7"/>
<rect x="36.1766" y="73.2438" width="59.2553" height="2.34933" fill="#DAD8DB"/>
<rect x="38.9175" y="77.5509" width="53.7735" height="3.26296" fill="#FFC269"/>
<rect x="38.9175" y="80.8138" width="53.7735" height="8.6142" fill="#FFE07D"/>
<path d="M36.1766 75.5931H50.6641V75.5931C50.6641 76.6743 49.7876 77.5509 48.7063 77.5509H38.1343C37.0531 77.5509 36.1766 76.6743 36.1766 75.5931V75.5931Z" fill="#ECEAEC"/>
<path d="M58.6257 75.5931H73.1133V75.5931C73.1133 76.6743 72.2367 77.5509 71.1555 77.5509H60.5835C59.5023 77.5509 58.6257 76.6743 58.6257 75.5931V75.5931Z" fill="#ECEAEC"/>
<path d="M80.9443 75.5931H95.4319V75.5931C95.4319 76.6743 94.5553 77.5509 93.4741 77.5509H82.9021C81.8209 77.5509 80.9443 76.6743 80.9443 75.5931V75.5931Z" fill="#ECEAEC"/>
<path d="M81 93.9578H95.4875V91C95.4875 89.8954 94.5921 89 93.4875 89H83C81.8954 89 81 89.8954 81 91V93.9578Z" fill="#ECEAEC"/>
<path d="M59 93.9578H73.4875V91C73.4875 89.8954 72.5921 89 71.4875 89H61C59.8954 89 59 89.8954 59 91V93.9578Z" fill="#ECEAEC"/>
<path d="M36 93.9578H50.4875V91C50.4875 89.8954 49.5921 89 48.4875 89H38C36.8954 89 36 89.8954 36 91V93.9578Z" fill="#ECEAEC"/>
<rect x="32.3915" y="93.9962" width="66.8253" height="4.95969" rx="2.47985" fill="#9FD4FE"/>
</svg>
