<svg width="130" height="130" viewBox="0 0 130 130" fill="none" xmlns="http://www.w3.org/2000/svg">
<circle cx="66.4211" cy="66.4211" r="58.4211" fill="#E6EDB7"/>
<circle cx="113.947" cy="11.3158" r="6.31579" fill="#F1BC19"/>
<circle cx="11.3158" cy="91.8421" r="6.31579" fill="#F1BC19"/>
<circle r="3.15789" transform="matrix(1 0 0 -1 14.4737 69.7369)" fill="white"/>
<circle r="2.36842" transform="matrix(1 0 0 -1 108.421 40.5263)" fill="white"/>
<circle cx="120.263" cy="101.316" r="3.15789" fill="#F1BC19"/>
<circle cx="104.474" cy="8.1579" r="1.57895" fill="#F1BC19"/>
<circle cx="119.474" cy="26.3158" r="2.36842" fill="#88AE45"/>
<circle cx="80.5" cy="58.5" r="28.5" fill="#F8FECF"/>
<path d="M79.624 100.02H56.5639C53.899 100.02 51.7378 97.8592 51.7378 95.1944V31.8261C51.7378 29.1612 53.899 27 56.5639 27H79.624C82.2889 27 84.4501 29.1612 84.4501 31.8261V95.1944C84.4501 97.8592 82.2889 100.02 79.624 100.02Z" fill="white" stroke="#1D1D1B" stroke-miterlimit="10"/>
<path d="M56.0148 34.2595C55.8101 34.179 55.6529 34.062 55.5432 33.9085C55.4335 33.7549 55.3786 33.5685 55.3786 33.3491C55.3786 33.1517 55.428 32.9743 55.5267 32.8171C55.6254 32.6562 55.7717 32.5301 55.9655 32.4387C56.1629 32.3436 56.4005 32.2961 56.6784 32.2961C56.9563 32.2961 57.1921 32.3436 57.3859 32.4387C57.5833 32.5301 57.7314 32.6562 57.8301 32.8171C57.9325 32.9743 57.9837 33.1517 57.9837 33.3491C57.9837 33.5611 57.927 33.7476 57.8137 33.9085C57.7003 34.0657 57.5449 34.1827 57.3475 34.2595C57.5742 34.3289 57.7533 34.4514 57.885 34.6269C58.0202 34.7988 58.0879 35.0072 58.0879 35.2521C58.0879 35.4898 58.0294 35.6982 57.9124 35.8773C57.7954 36.0528 57.629 36.1899 57.4133 36.2887C57.2012 36.3837 56.9563 36.4312 56.6784 36.4312C56.4005 36.4312 56.1556 36.3837 55.9435 36.2887C55.7351 36.1899 55.5724 36.0528 55.4554 35.8773C55.3384 35.6982 55.2799 35.4898 55.2799 35.2521C55.2799 35.0072 55.3457 34.7969 55.4774 34.6214C55.609 34.4459 55.7881 34.3253 56.0148 34.2595ZM57.5011 33.4094C57.5011 33.1864 57.4279 33.0145 57.2817 32.8939C57.1354 32.7732 56.9343 32.7129 56.6784 32.7129C56.4261 32.7129 56.2269 32.7732 56.0806 32.8939C55.9344 33.0145 55.8613 33.1882 55.8613 33.4149C55.8613 33.6196 55.9362 33.7842 56.0861 33.9085C56.2397 34.0328 56.4371 34.0949 56.6784 34.0949C56.9234 34.0949 57.1208 34.0328 57.2707 33.9085C57.4243 33.7805 57.5011 33.6142 57.5011 33.4094ZM56.6784 34.4788C56.4079 34.4788 56.1867 34.5428 56.0148 34.6708C55.843 34.7951 55.7571 34.9834 55.7571 35.2357C55.7571 35.4697 55.8393 35.658 56.0038 35.8006C56.172 35.9431 56.3969 36.0144 56.6784 36.0144C56.9599 36.0144 57.183 35.9431 57.3475 35.8006C57.512 35.658 57.5943 35.4697 57.5943 35.2357C57.5943 34.9907 57.5102 34.8042 57.342 34.6763C57.1738 34.5447 56.9526 34.4788 56.6784 34.4788ZM55.5322 44.3545C55.4371 44.3545 55.3567 44.3216 55.2909 44.2558C55.2251 44.1899 55.1922 44.1095 55.1922 44.0144C55.1922 43.9194 55.2251 43.8389 55.2909 43.7731C55.3567 43.7073 55.4371 43.6744 55.5322 43.6744C55.6236 43.6744 55.7004 43.7073 55.7625 43.7731C55.8284 43.8389 55.8613 43.9194 55.8613 44.0144C55.8613 44.1095 55.8284 44.1899 55.7625 44.2558C55.7004 44.3216 55.6236 44.3545 55.5322 44.3545ZM55.5322 42.0072C55.4371 42.0072 55.3567 41.9743 55.2909 41.9085C55.2251 41.8427 55.1922 41.7622 55.1922 41.6672C55.1922 41.5721 55.2251 41.4917 55.2909 41.4259C55.3567 41.3601 55.4371 41.3271 55.5322 41.3271C55.6236 41.3271 55.7004 41.3601 55.7625 41.4259C55.8284 41.4917 55.8613 41.5721 55.8613 41.6672C55.8613 41.7622 55.8284 41.8427 55.7625 41.9085C55.7004 41.9743 55.6236 42.0072 55.5322 42.0072ZM55.2799 49.3546C55.3055 49.0182 55.4353 48.755 55.6693 48.5648C55.9033 48.3747 56.2068 48.2797 56.5797 48.2797C56.8283 48.2797 57.0422 48.3254 57.2214 48.4168C57.4042 48.5045 57.5413 48.6252 57.6327 48.7787C57.7277 48.9323 57.7753 49.1059 57.7753 49.2997C57.7753 49.5264 57.7095 49.722 57.5778 49.8865C57.4499 50.0511 57.2817 50.1571 57.0733 50.2046V50.2321C57.3109 50.2906 57.4992 50.4057 57.6382 50.5776C57.7771 50.7494 57.8466 50.9743 57.8466 51.2521C57.8466 51.4605 57.799 51.6488 57.704 51.817C57.6089 51.9815 57.4663 52.1113 57.2762 52.2064C57.0861 52.3015 56.8576 52.349 56.5907 52.349C56.2031 52.349 55.885 52.2484 55.6364 52.0473C55.3878 51.8426 55.2488 51.5538 55.2196 51.1808H55.7022C55.7278 51.4002 55.8174 51.5794 55.9709 51.7183C56.1245 51.8572 56.3292 51.9267 56.5852 51.9267C56.8411 51.9267 57.0349 51.8609 57.1665 51.7293C57.3018 51.594 57.3694 51.4203 57.3694 51.2083C57.3694 50.934 57.278 50.7366 57.0952 50.616C56.9124 50.4953 56.6364 50.435 56.2671 50.435H56.141V50.0182H56.2726C56.6089 50.0145 56.8631 49.9597 57.0349 49.8536C57.2067 49.744 57.2927 49.5758 57.2927 49.3491C57.2927 49.1553 57.2287 48.9999 57.1007 48.8829C56.9764 48.7659 56.7972 48.7074 56.5632 48.7074C56.3366 48.7074 56.1538 48.7659 56.0148 48.8829C55.8759 48.9999 55.7936 49.1571 55.768 49.3546H55.2799ZM55.2909 58.2979C55.2909 57.669 55.3933 57.1791 55.598 56.8281C55.8028 56.4734 56.1611 56.2961 56.6729 56.2961C57.1811 56.2961 57.5376 56.4734 57.7424 56.8281C57.9471 57.1791 58.0495 57.669 58.0495 58.2979C58.0495 58.9377 57.9471 59.4349 57.7424 59.7896C57.5376 60.1442 57.1811 60.3216 56.6729 60.3216C56.1611 60.3216 55.8028 60.1442 55.598 59.7896C55.3933 59.4349 55.2909 58.9377 55.2909 58.2979ZM57.5559 58.2979C57.5559 57.9798 57.534 57.711 57.4901 57.4917C57.4499 57.2686 57.3639 57.0895 57.2323 56.9542C57.1044 56.8189 56.9179 56.7513 56.6729 56.7513C56.4243 56.7513 56.2342 56.8189 56.1026 56.9542C55.9746 57.0895 55.8887 57.2686 55.8448 57.4917C55.8046 57.711 55.7845 57.9798 55.7845 58.2979C55.7845 58.6269 55.8046 58.903 55.8448 59.126C55.8887 59.349 55.9746 59.5282 56.1026 59.6635C56.2342 59.7987 56.4243 59.8664 56.6729 59.8664C56.9179 59.8664 57.1044 59.7987 57.2323 59.6635C57.3639 59.5282 57.4499 59.349 57.4901 59.126C57.534 58.903 57.5559 58.6269 57.5559 58.2979Z" fill="#817E84"/>
<path d="M76.036 31.1127H75.7842V31.5534H76.036V31.1127Z" fill="#817E84"/>
<path d="M76.3929 30.9448H76.1411V31.5534H76.3929V30.9448Z" fill="#817E84"/>
<path d="M76.7705 30.7769H76.5187V31.5743H76.7705V30.7769Z" fill="#817E84"/>
<path d="M77.1273 30.5671H76.8755V31.5534H77.1273V30.5671Z" fill="#817E84"/>
<path d="M77.6726 31.0708C77.8195 30.9239 78.0084 30.8189 78.2392 30.8189C78.4491 30.8189 78.6589 30.9029 78.8058 31.0708L78.9737 30.8819C78.7849 30.693 78.533 30.5671 78.2392 30.5671C77.9454 30.5671 77.6936 30.693 77.5048 30.8819L77.6726 31.0708Z" fill="#817E84"/>
<path d="M77.9035 31.3226C77.9874 31.2386 78.1133 31.1757 78.2392 31.1757C78.3651 31.1757 78.4911 31.2386 78.575 31.3226L78.7429 31.1337C78.617 31.0078 78.4281 30.9239 78.2392 30.9239C78.0504 30.9239 77.8615 31.0078 77.7356 31.1337L77.9035 31.3226Z" fill="#817E84"/>
<path d="M78.1343 31.5534C78.1553 31.5324 78.1973 31.5114 78.2392 31.5114C78.2812 31.5114 78.3232 31.5324 78.3442 31.5534L78.512 31.3645C78.4491 31.2806 78.3442 31.2386 78.2392 31.2386C78.1343 31.2386 78.0294 31.2806 77.9664 31.3645L78.1343 31.5534Z" fill="#817E84"/>
<path d="M80.9041 31.4275H79.3932C79.3722 31.4275 79.3512 31.4065 79.3512 31.3855V30.735C79.3512 30.714 79.3722 30.693 79.3932 30.693H80.9041C80.9251 30.693 80.9461 30.714 80.9461 30.735V31.3855C80.9461 31.4065 80.9251 31.4275 80.9041 31.4275Z" fill="#817E84"/>
<path d="M81.051 31.2176H81.009C80.988 31.2176 80.967 31.1966 80.967 31.1756V30.9448C80.967 30.9238 80.988 30.9028 81.009 30.9028H81.051C81.072 30.9028 81.093 30.9238 81.093 30.9448V31.1756C81.1139 31.1966 81.093 31.2176 81.051 31.2176Z" fill="#817E84"/>
<path d="M80.3166 78.2402H55.8086C54.5286 78.2402 53.5005 77.2121 53.5005 75.9321V37.3026C53.5005 36.0227 54.5286 34.9945 55.8086 34.9945H80.2956C81.5756 34.9945 82.6037 36.0227 82.6037 37.3026V75.9321C82.6247 77.2121 81.5966 78.2402 80.3166 78.2402Z" fill="#F0EFED"/>
<path d="M73.917 41.5202L72.6998 44.542" stroke="white" stroke-width="0.9921" stroke-miterlimit="10"/>
<path d="M59.3547 69.9939L63.8665 70.5395" stroke="white" stroke-width="0.9921" stroke-miterlimit="10"/>
<path d="M56.3542 33.5257L63.992 46.9128" stroke="white" stroke-width="0.9921" stroke-miterlimit="10"/>
<path d="M77.5051 40.5969L75.8683 44.8569" stroke="white" stroke-width="0.9921" stroke-miterlimit="10"/>
<path d="M66.6567 45.36L72.2382 51.0254C72.511 51.2982 72.6788 51.6549 72.7418 52.0536C72.7418 52.1375 72.7628 52.2005 72.7628 52.2844V78.1983L75.1128 80.8631" stroke="white" stroke-width="1.4173" stroke-miterlimit="10"/>
<path d="M72.406 32.6864L66.7616 45.4649" stroke="white" stroke-width="1.4173" stroke-miterlimit="10"/>
<path d="M73.9172 41.5414L69.5104 39.3799" stroke="white" stroke-width="0.9921" stroke-miterlimit="10"/>
<path d="M72.6998 72.1762L83.0864 72.2391" stroke="white" stroke-width="0.9921" stroke-miterlimit="10"/>
<path d="M52.9759 45.0033L58.2006 50.27L66.8246 45.423" stroke="white" stroke-width="1.4173" stroke-miterlimit="10"/>
<path d="M58.2006 50.27L59.0819 54.4666C59.8792 58.2225 60.0681 62.1044 59.6904 65.9232L58.1796 80.989" stroke="white" stroke-width="1.4173" stroke-miterlimit="10"/>
<path d="M59.6694 57.5517L64.9577 55.8938C64.9577 55.4951 65.0206 53.6904 65.0206 53.6904L68.8609 52.3054" stroke="white" stroke-width="1.4173" stroke-miterlimit="10"/>
<path d="M67.0764 53.0188L68.0416 64.0348" stroke="white" stroke-width="0.9921" stroke-miterlimit="10"/>
<path d="M70.3918 49.137L68.8809 52.4736" stroke="white" stroke-width="0.9921" stroke-miterlimit="10"/>
<path d="M62.2506 56.5867L60.5298 48.9271" stroke="white" stroke-width="0.9921" stroke-miterlimit="10"/>
<path d="M69.9721 63.9089L69.8042 69.5119" stroke="white" stroke-width="0.9921" stroke-miterlimit="10"/>
<path d="M61.2012 52.3684L64.1811 51.2982" stroke="white" stroke-width="0.9921" stroke-miterlimit="10"/>
<path d="M64.1808 51.2984L63.6772 49.1789" stroke="white" stroke-width="0.9921" stroke-miterlimit="10"/>
<path d="M72.8887 58.2855H78.5751V48.2137L80.2747 41.7719L70.4547 37.0298" stroke="white" stroke-width="1.4173" stroke-miterlimit="10"/>
<path d="M52.85 63.0906L55.9978 64.1398L54.9485 70.0786L59.2925 70.8551" stroke="white" stroke-width="1.4173" stroke-miterlimit="10"/>
<path d="M55.6407 66.3849L59.5229 67.1823" stroke="white" stroke-width="0.9921" stroke-miterlimit="10"/>
<path d="M58.9147 53.7532L55.4522 54.9913L52.5982 53.3545" stroke="white" stroke-width="1.4173" stroke-miterlimit="10"/>
<path d="M77.7146 72.2391L77.7776 80.9269" stroke="white" stroke-width="0.9921" stroke-miterlimit="10"/>
<path d="M72.7005 75.0718L65.7755 74.7361" stroke="white" stroke-width="1.4173" stroke-miterlimit="10"/>
<path d="M65.167 80.989L66.2161 67.0354L59.7114 66.259" stroke="white" stroke-width="1.4173" stroke-miterlimit="10"/>
<path d="M61.4529 78.6395L61.7887 75.2189L63.6774 75.4498L63.9502 72.7217" stroke="white" stroke-width="0.9921" stroke-miterlimit="10"/>
<path d="M72.8257 62.4401C72.9097 62.4401 79.3304 62.2513 79.3304 62.2513V64.0977L84.3453 64.1607" stroke="white" stroke-width="0.9921" stroke-miterlimit="10"/>
<path d="M77.8407 76.3938C78.0296 76.3308 81.3662 76.3308 81.3662 76.3308" stroke="white" stroke-width="0.9921" stroke-miterlimit="10"/>
<path d="M78.5754 48.2137L74.6302 48.2977" stroke="white" stroke-width="0.9921" stroke-miterlimit="10"/>
<path d="M64.0758 70.4982C64.0968 70.3933 64.8523 63.783 64.8523 63.783L72.6167 63.9719" stroke="white" stroke-width="1.4173" stroke-miterlimit="10"/>
<path d="M60.8235 38.8344C60.2779 38.8344 59.8162 39.317 59.8162 39.9046C59.8162 40.4922 60.8025 42.087 60.8025 42.087C60.8025 42.087 61.8308 40.5132 61.8308 39.9046C61.8308 39.296 61.3691 38.8344 60.8235 38.8344ZM60.8025 40.4082C60.5087 40.4082 60.2569 40.1564 60.2569 39.8626C60.2569 39.5688 60.5087 39.317 60.8025 39.317C61.0963 39.317 61.3481 39.5688 61.3481 39.8626C61.3481 40.1774 61.1173 40.4082 60.8025 40.4082Z" fill="#EA7C37"/>
<path d="M60.8654 41.7929L64.0758 47.2695L60.5087 49.5356L62.1453 57.1944L65.0829 56.397L66.3629 64.2866H73.3502" stroke="#EA7C37" stroke-width="1.4173" stroke-miterlimit="10" stroke-linecap="round"/>
<path d="M73.3922 65.4409C73.9833 65.4409 74.4624 64.9617 74.4624 64.3707C74.4624 63.7796 73.9833 63.3004 73.3922 63.3004C72.8011 63.3004 72.322 63.7796 72.322 64.3707C72.322 64.9617 72.8011 65.4409 73.3922 65.4409Z" fill="#EA7C37"/>
<path d="M73.3924 64.9372C73.7053 64.9372 73.959 64.6836 73.959 64.3706C73.959 64.0577 73.7053 63.804 73.3924 63.804C73.0795 63.804 72.8258 64.0577 72.8258 64.3706C72.8258 64.6836 73.0795 64.9372 73.3924 64.9372Z" fill="#F0EFED"/>
<path d="M79.3724 69.7423H80.1068C80.1698 69.7423 80.2328 69.8052 80.2328 69.8682V70.6446C80.2328 70.7286 80.2957 70.7705 80.3587 70.7705C80.4216 70.7705 80.4846 70.7076 80.4846 70.6446V69.8682C80.4846 69.7842 80.5475 69.7423 80.6105 69.7423H81.345C81.4079 69.7423 81.4709 69.6793 81.4709 69.6164C81.4709 69.5324 81.4079 69.4904 81.345 69.4904H80.6105C80.5475 69.4904 80.4846 69.4275 80.4846 69.3645V68.5671C80.4846 68.4832 80.4216 68.4412 80.3587 68.4412C80.2957 68.4412 80.2328 68.5041 80.2328 68.5671V69.3436C80.2328 69.4275 80.1698 69.4695 80.1068 69.4695H79.3724C79.3094 69.4695 79.2465 69.5324 79.2465 69.5954C79.2465 69.6793 79.3094 69.7423 79.3724 69.7423Z" fill="white"/>
<path d="M76.2458 66.406H77.442C77.5469 66.406 77.6518 66.49 77.6518 66.6159V67.812C77.6518 67.917 77.7358 68.0219 77.8617 68.0219C77.9666 68.0219 78.0715 67.9379 78.0715 67.812V66.6159C78.0715 66.511 78.1555 66.406 78.2814 66.406H79.4775C79.5825 66.406 79.6874 66.3221 79.6874 66.1962C79.6874 66.0913 79.6035 65.9863 79.4775 65.9863H78.2394C78.1345 65.9863 78.0296 65.9024 78.0296 65.7765V64.5803C78.0296 64.4754 77.9456 64.3705 77.8197 64.3705C77.7148 64.3705 77.6099 64.4544 77.6099 64.5803V65.7765C77.6099 65.8814 77.5259 65.9863 77.4 65.9863H76.2039C76.0989 65.9863 75.994 66.0703 75.994 66.1962C76.036 66.3221 76.1199 66.406 76.2458 66.406Z" fill="white"/>
<path d="M49.0731 97.4605C48.7373 94.5019 48.5485 91.5224 48.4855 88.5428C48.4646 87.7664 48.4646 86.9691 48.7373 86.2347C49.0311 85.4163 49.6186 84.7659 50.2061 84.1364C51.0874 83.1712 51.9687 82.206 53.0598 81.5135C54.4866 80.6113 56.1653 80.1916 57.8439 79.9818C59.2707 79.8139 60.7186 79.7929 62.1664 79.7719C66.4889 79.688 70.8113 79.6251 75.1338 79.5411C76.2039 79.5202 77.295 79.4992 78.3652 79.73C79.6241 79.9818 80.7992 80.5693 81.9323 81.1568C83.6738 82.0381 85.4994 83.0033 86.4646 84.6819C87.2409 86.0458 87.2199 87.6615 87.2829 89.2352C87.3878 91.921 87.3878 94.6069 87.0101 97.3346C86.9472 97.7123 86.8003 98.111 86.4855 98.3418C86.2337 98.5306 85.919 98.5516 85.6043 98.5726C82.289 98.7615 78.9317 98.09 75.6374 98.6146" fill="#EA7C37"/>
<path d="M54.0675 97.4185H50.3321C49.9124 97.4185 49.5767 97.7543 49.5767 98.174V102.245C49.5767 102.665 49.9124 103.001 50.3321 103.001H54.0675C54.4872 103.001 54.8229 102.665 54.8229 102.245V98.174C54.8229 97.7543 54.4872 97.4185 54.0675 97.4185Z" fill="#38303B"/>
<path opacity="0.58" d="M54.8229 98.111H49.5976V101.343H54.8229V98.111Z" fill="#211E23"/>
<path d="M85.8354 97.4185H82.1001C81.6804 97.4185 81.3446 97.7543 81.3446 98.174V102.245C81.3446 102.665 81.6804 103.001 82.1001 103.001H85.8354C86.2551 103.001 86.5909 102.665 86.5909 102.245V98.174C86.5699 97.7543 86.2341 97.4185 85.8354 97.4185Z" fill="#38303B"/>
<path opacity="0.58" d="M86.5699 98.111H81.3446V101.343H86.5699V98.111Z" fill="#211E23"/>
<path d="M76.2879 72.7217H59.9212L62.0195 68.8608C62.2083 68.5251 62.565 68.3153 62.9427 68.3153H73.2663C73.644 68.3153 74.0007 68.5251 74.1896 68.8608L76.2879 72.7217Z" fill="#EA7C37"/>
<path d="M75.4695 72.5119H60.7185L62.6909 69.2176C62.8168 69.0287 63.0266 68.9028 63.2574 68.9028H72.9305C73.1614 68.9028 73.3712 69.0287 73.4971 69.2176L75.4695 72.5119Z" fill="#F0EFED"/>
<path d="M65.929 70V70.3903H65.2682V72H64.6608V70.3903H64V70H65.929Z" fill="#38303B"/>
<path d="M67.7863 71.6467H66.8555L66.7063 72H66.0704L66.9728 70H67.6761L68.5785 72H67.9355L67.7863 71.6467ZM67.63 71.2707L67.3209 70.5385L67.0154 71.2707H67.63Z" fill="#38303B"/>
<path d="M70.3806 72L69.8726 71.3875L69.425 72H68.7359L69.5352 70.9829L68.7181 70H69.425L69.9259 70.604L70.3664 70H71.0556L70.2634 71.0085L71.0876 72H70.3806Z" fill="#38303B"/>
<path d="M72 70V72H71.3925V70H72Z" fill="#38303B"/>
<path d="M83.2961 81.8492L52.1995 82.3738L55.4728 73.7498C55.7456 73.0364 56.3751 72.5538 57.0675 72.5538L78.2182 72.386C78.9107 72.386 79.5192 72.8266 79.8129 73.519L83.2961 81.8492Z" fill="#EA7C37"/>
<path d="M82.4149 81.8073L53.0598 82.2899L56.1443 74.4003C56.3961 73.7499 57.0046 73.3092 57.6551 73.3092L77.6098 73.1624C78.2603 73.1624 78.8478 73.561 79.1206 74.1905L82.4149 81.8073Z" fill="#F0EFED"/>
<path d="M76.5816 91.7112C76.5816 91.7112 70.1189 92.2987 67.9576 92.2987C65.8384 92.2987 59.5015 91.7112 59.5015 91.7112C59.0399 91.7112 58.6622 91.4175 58.6622 91.0398V90.2005C58.6622 89.8228 59.0399 89.529 59.5015 89.529C59.5015 89.529 65.7964 88.9625 67.8947 88.9625C70.0769 88.9625 76.6026 89.529 76.6026 89.529C77.0642 89.529 77.4419 89.8228 77.4419 90.2005V91.0398C77.4419 91.4175 77.0432 91.7112 76.5816 91.7112Z" fill="#F0EFED"/>
<path d="M78.1344 95.5091H57.9489C57.802 95.5091 57.6761 95.3832 57.6761 95.2364V94.9636C57.6761 94.8167 57.802 94.6908 57.9489 94.6908H78.1344C78.2813 94.6908 78.4072 94.8167 78.4072 94.9636V95.2364C78.4072 95.3832 78.2813 95.5091 78.1344 95.5091Z" fill="#F0EFED"/>
<path d="M86.9471 96.7891H49.136C48.4855 96.7891 47.9609 97.3137 47.9609 97.9641V99.349C47.9609 99.9995 48.4855 100.524 49.136 100.524H86.9471C87.5976 100.524 88.1222 99.9995 88.1222 99.349V97.9641C88.1222 97.3137 87.5976 96.7891 86.9471 96.7891Z" fill="#C4C4C4"/>
<path opacity="0.14" d="M47.9609 99.0552V99.5168C47.9609 100.062 48.3596 100.524 48.8632 100.524H87.2409C87.7445 100.524 88.1432 100.083 88.1432 99.5168V99.0552H47.9609Z" fill="#38303B"/>
<path d="M52.5147 81.7865C52.137 81.7445 51.7593 81.7026 51.4445 81.4927C51.2556 81.3458 51.1297 81.157 51.0038 80.9891C50.668 80.5274 50.2483 80.1077 49.7027 79.9188C49.1571 79.73 48.5066 79.7929 48.1079 80.2126C47.6462 80.6743 47.6672 81.4717 48.0449 82.0173C48.4226 82.542 49.0942 82.8148 49.7447 82.8358C50.1224 82.8567 50.5002 82.7938 50.8989 82.7308C51.4655 82.6469 52.0531 82.542 52.6197 82.458" fill="#EA7C37"/>
<path d="M83.0234 81.7865C83.4011 81.7445 83.7788 81.7026 84.0936 81.4927C84.2825 81.3458 84.4084 81.157 84.5343 80.9891C84.8701 80.5274 85.2898 80.1077 85.8354 79.9188C86.381 79.73 87.0315 79.7929 87.4302 80.2126C87.8919 80.6743 87.8709 81.4717 87.4932 82.0173C87.1155 82.542 86.444 82.8148 85.7934 82.8358C85.4157 82.8567 85.038 82.7938 84.6392 82.7308C84.0726 82.6469 83.4851 82.542 82.9185 82.458" fill="#EA7C37"/>
<path d="M57.1312 91.3129C55.1796 91.9005 52.9342 91.4388 51.3603 90.1168C50.7308 89.5712 50.1642 88.8787 50.0383 88.0393C50.0173 87.9343 50.0173 87.8084 50.0592 87.7035C50.1432 87.4937 50.416 87.4097 50.6468 87.3677C52.3256 87.1369 53.9835 87.8504 55.4314 88.7318C56.082 89.1305 56.6905 89.6761 57.1942 90.2427C57.446 90.5155 57.6349 90.9772 57.3621 91.208" fill="#F0EFED"/>
<path d="M78.9317 91.3129C80.8833 91.9005 83.1287 91.4388 84.7026 90.1168C85.3322 89.5712 85.8988 88.8787 86.0247 88.0393C86.0457 87.9343 86.0457 87.8084 86.0037 87.7035C85.9198 87.4937 85.647 87.4097 85.4161 87.3677C83.7373 87.1369 82.0795 87.8504 80.6315 88.7318C79.981 89.1305 79.3724 89.6761 78.8688 90.2427C78.617 90.5155 78.4281 90.9772 78.7009 91.208" fill="#F0EFED"/>
<path d="M112.399 88.7318H101.404C100.649 88.7318 100.04 88.1233 100.04 87.3679V86.5706C100.04 83.9267 101.236 81.7655 104.845 81.7655H108.979C112.756 81.7655 113.784 83.9058 113.784 86.5706V87.3679C113.763 88.1233 113.155 88.7318 112.399 88.7318Z" fill="#EFB93F"/>
<path d="M102.852 88.6274C102.474 86.9696 102.433 85.2278 102.726 83.528C102.81 83.0454 102.936 82.5837 103.062 82.122C103.104 81.9961 102.894 81.9332 102.852 82.0591C102.349 83.7169 102.181 85.4796 102.37 87.2004C102.433 87.6831 102.516 88.1867 102.621 88.6484C102.684 88.8163 102.873 88.7533 102.852 88.6274Z" fill="#38303B"/>
<path d="M111.455 88.7324C111.791 87.0116 111.812 85.2489 111.518 83.5281C111.434 83.0454 111.329 82.5418 111.182 82.0801C111.14 81.9542 110.951 81.9962 110.972 82.1431C111.434 83.8009 111.602 85.5217 111.455 87.2424C111.413 87.7251 111.35 88.2077 111.245 88.6904C111.224 88.7953 111.434 88.8583 111.455 88.7324Z" fill="#38303B"/>
<path d="M104.195 82.563C104.657 81.8075 105.349 81.157 106.231 80.9261C107.07 80.6953 107.93 80.9051 108.623 81.3878C109.043 81.7026 109.399 82.1013 109.672 82.542C109.735 82.6679 109.924 82.542 109.861 82.4371C109.378 81.6186 108.602 80.9471 107.679 80.6953C106.797 80.4645 105.874 80.6743 105.139 81.2199C104.699 81.5557 104.321 81.9754 104.027 82.4371C103.964 82.563 104.132 82.6679 104.195 82.563Z" fill="#38303B"/>
<path d="M109.588 82.5207C109.504 82.6256 109.504 82.7935 109.546 82.9194C109.588 83.0454 109.672 83.1713 109.798 83.2132C109.944 83.2552 110.091 83.1713 110.175 83.0663C110.259 82.9404 110.28 82.7725 110.217 82.6256C110.154 82.4578 109.986 82.3319 109.819 82.3738C109.756 82.3948 109.735 82.4578 109.756 82.4997C109.777 82.5627 109.819 82.5837 109.882 82.5627C109.902 82.5627 109.861 82.5627 109.882 82.5627C109.882 82.5627 109.882 82.5627 109.903 82.5627H109.923C109.923 82.5627 109.903 82.5627 109.923 82.5627H109.944C109.923 82.5627 109.944 82.5627 109.965 82.5837C109.965 82.5837 109.986 82.6047 109.965 82.5837C109.944 82.5837 109.965 82.5837 109.965 82.5837L109.986 82.6047C110.007 82.6256 109.986 82.6047 109.986 82.6047C109.986 82.6047 109.986 82.6047 109.986 82.6256C109.986 82.6466 110.007 82.6466 110.007 82.6676C110.007 82.6676 110.007 82.6886 110.007 82.6676C110.007 82.6466 110.007 82.6886 110.007 82.6886C110.007 82.7096 110.007 82.7096 110.007 82.7306V82.7516C110.007 82.7725 110.007 82.7306 110.007 82.7516C110.007 82.7725 110.007 82.7935 110.007 82.7935V82.8145C110.007 82.8145 110.007 82.7935 110.007 82.8145C110.007 82.8355 110.007 82.8355 110.007 82.8565V82.8775C110.007 82.8985 110.007 82.8565 110.007 82.8775C110.007 82.8985 109.986 82.8985 109.986 82.9194C109.986 82.9194 109.965 82.9614 109.986 82.9404L109.965 82.9614C109.965 82.9614 109.965 82.9614 109.944 82.9824C109.944 82.9824 109.923 83.0034 109.944 82.9824C109.965 82.9824 109.944 82.9824 109.944 82.9824C109.944 82.9824 109.923 82.9824 109.923 83.0034C109.923 83.0034 109.923 83.0034 109.903 83.0034C109.882 83.0034 109.903 83.0034 109.903 83.0034H109.882C109.861 83.0034 109.882 83.0034 109.882 83.0034C109.882 83.0034 109.882 83.0034 109.861 83.0034C109.84 83.0034 109.861 83.0034 109.84 83.0034C109.819 83.0034 109.861 83.0034 109.84 83.0034H109.819C109.819 83.0034 109.84 83.0034 109.819 83.0034C109.819 83.0034 109.819 83.0034 109.798 83.0034H109.777C109.777 83.0034 109.798 83.0244 109.777 83.0034L109.756 82.9824C109.756 82.9824 109.756 82.9614 109.756 82.9824C109.756 82.9824 109.756 82.9824 109.756 82.9614L109.735 82.9404C109.735 82.9404 109.714 82.8985 109.735 82.9194C109.735 82.8985 109.735 82.8985 109.714 82.8775C109.693 82.8565 109.714 82.8565 109.714 82.8355C109.714 82.8355 109.714 82.8355 109.714 82.8145C109.714 82.7935 109.714 82.8355 109.714 82.8145C109.714 82.7935 109.714 82.7516 109.714 82.7306C109.714 82.7306 109.714 82.7096 109.714 82.7306C109.714 82.7516 109.714 82.7306 109.714 82.7306C109.714 82.7096 109.714 82.7096 109.714 82.6886C109.714 82.6886 109.714 82.6886 109.714 82.6676C109.714 82.6466 109.714 82.6676 109.714 82.6676C109.714 82.6466 109.735 82.6466 109.735 82.6256C109.756 82.5837 109.756 82.4997 109.693 82.4788C109.672 82.4578 109.609 82.4788 109.588 82.5207Z" fill="#38303B"/>
<path d="M104.006 82.3529C103.859 82.3948 103.775 82.5208 103.733 82.6676C103.691 82.8145 103.712 82.9824 103.817 83.1083C103.922 83.2133 104.09 83.2552 104.216 83.1923C104.342 83.1293 104.405 82.9824 104.426 82.8355C104.447 82.6676 104.384 82.4998 104.258 82.4158C104.216 82.3739 104.132 82.4158 104.111 82.4578C104.09 82.5208 104.111 82.5627 104.153 82.6047C104.132 82.5837 104.153 82.6047 104.153 82.6047C104.153 82.6047 104.153 82.6047 104.174 82.6257C104.195 82.6467 104.153 82.6047 104.174 82.6257L104.195 82.6467C104.195 82.6467 104.195 82.6467 104.195 82.6676C104.195 82.6676 104.195 82.6676 104.195 82.6886L104.216 82.7516V82.7726C104.216 82.7936 104.216 82.7726 104.216 82.7726V82.8145C104.216 82.8355 104.216 82.8355 104.216 82.8565V82.8775C104.216 82.8985 104.216 82.8565 104.216 82.8775C104.216 82.8985 104.195 82.9195 104.195 82.9614C104.195 82.9824 104.195 82.9405 104.195 82.9614C104.195 82.9614 104.195 82.9614 104.195 82.9824L104.174 83.0034C104.153 83.0244 104.195 82.9824 104.174 83.0034C104.174 83.0034 104.174 83.0034 104.174 83.0244C104.174 83.0244 104.174 83.0244 104.153 83.0454C104.132 83.0664 104.174 83.0454 104.153 83.0454L104.132 83.0664C104.111 83.0664 104.153 83.0664 104.132 83.0664H104.111C104.111 83.0664 104.111 83.0664 104.09 83.0664C104.069 83.0664 104.111 83.0664 104.09 83.0664C104.069 83.0664 104.069 83.0664 104.048 83.0664C104.027 83.0664 104.069 83.0664 104.048 83.0664C104.048 83.0664 104.048 83.0664 104.027 83.0664C104.006 83.0664 104.006 83.0454 104.006 83.0664C104.006 83.0664 104.027 83.0664 104.006 83.0664C104.006 83.0664 104.006 83.0664 103.985 83.0664H103.964C103.943 83.0454 103.985 83.0873 103.964 83.0664L103.943 83.0454C103.943 83.0454 103.943 83.0454 103.922 83.0244C103.922 83.0244 103.922 83.0244 103.922 83.0034C103.922 83.0034 103.901 82.9824 103.901 82.9614C103.901 82.9405 103.901 82.9614 103.901 82.9614V82.9405C103.901 82.9195 103.901 82.9195 103.901 82.8985C103.901 82.8775 103.901 82.9195 103.901 82.8985C103.901 82.8985 103.901 82.8985 103.901 82.8775C103.901 82.8565 103.901 82.8565 103.901 82.8355V82.8145C103.901 82.7936 103.901 82.8355 103.901 82.8145C103.901 82.7936 103.922 82.7516 103.922 82.7306C103.922 82.7096 103.901 82.7516 103.922 82.7306V82.7096C103.922 82.6886 103.943 82.6886 103.943 82.6676C103.964 82.6467 103.922 82.6886 103.943 82.6676C103.943 82.6676 103.943 82.6467 103.964 82.6467C103.964 82.6467 103.964 82.6467 103.985 82.6257C103.964 82.6257 103.964 82.6467 103.985 82.6257C103.985 82.6257 104.006 82.6047 104.027 82.6047C104.048 82.6047 104.006 82.6047 104.027 82.6047H104.048C104.111 82.5837 104.132 82.5207 104.111 82.4788C104.132 82.3739 104.069 82.3319 104.006 82.3529Z" fill="#38303B"/>
<path d="M108.958 81.3038C108.958 81.2199 108.958 81.115 108.958 81.031C108.958 80.9471 108.979 80.8212 108.917 80.7582C108.833 80.6743 108.728 80.6323 108.644 80.5694C108.539 80.5064 108.434 80.4644 108.329 80.4225C108.119 80.3385 107.909 80.2546 107.678 80.2126C107.259 80.1077 106.797 80.1077 106.377 80.1706C105.937 80.2546 105.475 80.4015 105.118 80.6743C105.013 80.7373 105.034 80.8632 105.034 80.9681C105.034 81.073 105.013 81.1779 105.013 81.2829C105.013 81.4088 105.223 81.4088 105.223 81.2829C105.223 81.115 105.244 80.9471 105.244 80.7582C105.223 80.7792 105.202 80.8212 105.202 80.8422C105.748 80.5064 106.377 80.2966 107.007 80.3175C107.657 80.3385 108.266 80.5484 108.812 80.9261C108.791 80.9051 108.77 80.8632 108.77 80.8422C108.77 80.9891 108.77 81.157 108.77 81.3038C108.749 81.4298 108.958 81.4298 108.958 81.3038Z" fill="#38303B"/>
<path d="M103.901 67.3081C104.552 69.6792 104.866 71.127 105.391 73.3722C105.58 74.2115 106.167 76.5826 106.335 77.4219C106.545 78.3871 105.748 78.9536 105.244 77.5898C104.845 76.4986 104.426 75.6593 104.048 74.6941C103.02 72.0293 101.971 69.952 101.341 66.9305" fill="#86514D"/>
<path d="M90.7661 98.9503C90.829 99.37 90.892 99.7688 90.9759 100.188C90.9969 100.272 90.9969 100.356 90.9969 100.44C90.9549 100.755 90.5982 100.923 90.4513 101.217C90.4303 101.238 90.4303 101.28 90.4303 101.322C90.4303 101.427 90.5772 101.469 90.6821 101.469C90.9969 101.49 91.3327 101.49 91.6474 101.511C91.7733 101.511 91.9202 101.511 91.9832 101.406C92.0042 101.364 92.0252 101.301 92.0252 101.259C92.1301 100.482 92.235 99.7058 92.3399 98.9294" fill="#86514D"/>
<path d="M99.4949 98.9503C99.432 99.37 99.369 99.7688 99.306 100.188C99.2851 100.272 99.2851 100.356 99.2851 100.44C99.327 100.755 99.6838 100.923 99.8097 101.217C99.8307 101.238 99.8307 101.28 99.8307 101.322C99.8307 101.427 99.6838 101.469 99.5789 101.469C99.2641 101.49 98.9493 101.49 98.6345 101.511C98.5086 101.511 98.3827 101.511 98.2988 101.406C98.2778 101.364 98.2568 101.301 98.2568 101.259C98.1519 100.482 98.0469 99.7058 97.942 98.9294" fill="#86514D"/>
<path d="M102.727 102.707C101.95 102.728 101.3 102.77 100.502 102.791C100.271 102.791 99.9987 102.812 99.7888 102.686C99.6629 102.623 99.558 102.518 99.4321 102.56C99.3272 102.581 99.2642 102.665 99.1593 102.707C99.0753 102.749 98.9914 102.749 98.8865 102.749C98.6137 102.749 98.3409 102.77 98.0681 102.77C97.9841 102.77 97.8792 102.77 97.8162 102.707C97.7323 102.644 97.7323 102.518 97.7323 102.413C97.7533 101.993 97.8372 101.573 97.9631 101.175C97.9841 101.091 98.0471 100.986 98.131 100.944C98.215 100.923 98.2989 100.965 98.3828 101.007C98.6976 101.175 99.0963 101.301 99.3901 101.091C99.4741 101.028 99.537 100.965 99.621 100.923C99.7259 100.881 99.8308 100.902 99.9147 100.923C100.775 101.091 101.636 101.364 102.433 101.741C102.622 101.825 102.811 101.93 102.916 102.098C103.021 102.266 103.021 102.518 102.853 102.644" fill="#38303B"/>
<path d="M101.09 101.112C100.901 101.238 100.817 101.447 100.796 101.657C100.796 101.678 100.817 101.72 100.817 101.741C100.838 101.762 100.859 101.783 100.901 101.762C100.964 101.762 101.006 101.72 101.006 101.657C101.006 101.636 101.006 101.678 101.006 101.657C101.006 101.657 101.006 101.657 101.006 101.636V101.615C101.006 101.594 101.006 101.573 101.027 101.552C101.027 101.531 101.048 101.51 101.048 101.489C101.048 101.468 101.048 101.489 101.048 101.489V101.468C101.048 101.468 101.048 101.447 101.069 101.447C101.069 101.426 101.09 101.405 101.09 101.405L101.111 101.384C101.111 101.384 101.132 101.363 101.111 101.384C101.111 101.405 101.111 101.384 101.111 101.384C101.132 101.363 101.132 101.342 101.153 101.342L101.174 101.321C101.174 101.321 101.174 101.321 101.195 101.321C101.174 101.321 101.174 101.321 101.195 101.321C101.237 101.279 101.258 101.238 101.237 101.175C101.195 101.112 101.132 101.091 101.09 101.112Z" fill="#F09532"/>
<path d="M100.355 100.902C100.187 101.07 100.062 101.301 99.9986 101.531C99.9776 101.594 100.02 101.657 100.062 101.657C100.125 101.678 100.167 101.636 100.187 101.594C100.187 101.573 100.208 101.531 100.208 101.51C100.208 101.49 100.208 101.49 100.229 101.469V101.448C100.229 101.448 100.229 101.427 100.229 101.448C100.25 101.406 100.271 101.343 100.313 101.301C100.334 101.259 100.376 101.217 100.397 101.175C100.397 101.154 100.376 101.196 100.397 101.175C100.397 101.175 100.397 101.175 100.418 101.154L100.439 101.133C100.46 101.112 100.481 101.091 100.502 101.07C100.544 101.028 100.544 100.965 100.502 100.923C100.46 100.86 100.397 100.86 100.355 100.902Z" fill="#F09532"/>
<path d="M87.5556 102.727C88.3321 102.748 88.9826 102.79 89.78 102.811C90.0109 102.811 90.2837 102.832 90.4935 102.706C90.6194 102.643 90.7244 102.539 90.8503 102.581C90.9552 102.602 91.0182 102.685 91.1231 102.727C91.207 102.769 91.291 102.769 91.3959 102.769C91.6687 102.769 91.9415 102.79 92.2143 102.79C92.2982 102.79 92.4032 102.79 92.4661 102.727C92.5501 102.664 92.5501 102.539 92.5501 102.434C92.5291 102.014 92.4451 101.594 92.3192 101.196C92.2982 101.112 92.2353 101.007 92.1514 100.965C92.0674 100.944 91.9835 100.986 91.8995 101.028C91.5848 101.196 91.186 101.321 90.8922 101.112C90.8083 101.049 90.7663 100.986 90.6614 100.944C90.5565 100.902 90.4516 100.923 90.3676 100.944C89.4862 101.112 88.6468 101.384 87.8494 101.762C87.6605 101.846 87.4717 101.951 87.3668 102.119C87.2618 102.287 87.2618 102.539 87.4297 102.664" fill="#38303B"/>
<path d="M93.4947 64.0774C91.7319 62.5036 90.6197 61.6012 88.9199 60.1952C88.2904 59.6706 86.5066 58.1597 85.8561 57.656C85.1216 57.0684 84.4081 57.5721 85.3944 58.6003C86.1919 59.4188 86.7375 60.1532 87.43 60.9087C89.3186 62.9652 90.7246 64.7909 93.033 66.6376" fill="#86514D"/>
<path d="M86.0243 57.7613C85.6046 57.3206 85.5416 56.9219 85.3947 56.5232C85.2898 56.2294 85.1219 55.9566 84.9541 55.7047C84.7022 55.285 84.4294 54.8443 84.1776 54.4246C84.1566 54.3827 84.1147 54.3197 84.0727 54.3407C84.0097 54.3617 84.0097 54.4456 84.0307 54.5296L84.2196 55.327C84.2196 55.348 84.2196 55.348 84.1986 55.348C83.7369 54.9283 83.1913 54.4666 82.9185 54.3407C82.8136 54.2987 82.7926 54.4037 82.8555 54.4876L83.9258 55.7047C83.9468 55.7257 83.9258 55.7467 83.9048 55.7257L82.9395 54.9703C82.8136 54.8653 82.6877 54.7814 82.5408 54.7184C82.4988 54.6974 82.4568 54.7394 82.4568 54.8024C82.4988 54.9283 82.5827 55.0332 82.6667 55.1381C83.2123 55.7047 83.59 56.1244 83.59 56.1454C83.569 56.1664 83.0234 55.7047 82.6667 55.4109C82.5827 55.348 82.4778 55.285 82.3939 55.285C82.3099 55.285 82.289 55.369 82.3309 55.4529C82.6037 55.8726 82.9185 56.1874 83.2962 56.5022C83.3172 56.5231 83.2962 56.5441 83.2753 56.5232C83.2753 56.5232 82.4778 55.8306 82.3939 55.9775C82.3309 56.0825 82.4988 56.2713 82.6037 56.3763C83.1703 56.9848 84.0727 57.7613 84.7862 58.118C85.2269 58.3489 85.3738 58.5377 85.4577 58.6217" fill="#86514D"/>
<path d="M85.1217 57.6563C84.786 57.1737 84.723 56.5861 84.6601 56.0405C84.6601 55.9566 84.4922 55.9356 84.5132 56.0405C84.5761 56.6281 84.6391 57.2366 84.9958 57.7403C85.0378 57.8242 85.1637 57.7403 85.1217 57.6563Z" fill="#794642"/>
<path d="M96.4942 80.3595H96.1585L93.8504 89.9277L92.6334 99.0552C92.6334 99.1182 92.5704 99.1601 92.5075 99.1601L90.577 99.2231C90.4721 99.2231 90.4092 99.1391 90.4092 99.0552L90.8708 89.55L92.5494 77.0651L93.137 74.778L100.418 75.0928L100.691 78.0094L100.334 90.0326L99.7466 99.1182C99.7466 99.2231 99.6626 99.286 99.5577 99.286L97.942 99.2231C97.8581 99.2231 97.7742 99.1391 97.7742 99.0552L97.4594 89.9906L96.4942 80.3595Z" fill="#2E3C87"/>
<path d="M97.5435 59.1458C97.4596 58.9989 97.3127 58.894 97.1448 58.873C96.9769 58.852 96.8091 58.9569 96.7041 59.1038C96.6831 59.1458 96.7041 59.1878 96.7251 59.2088C96.7671 59.2297 96.8091 59.2088 96.83 59.1878C96.893 59.0829 97.0189 59.0409 97.1448 59.0409C97.2707 59.0409 97.3756 59.1248 97.4176 59.2298C97.4596 59.3137 97.5855 59.2507 97.5435 59.1458Z" fill="#38303B"/>
<path d="M99.1171 59.3766C99.2011 59.2927 99.306 59.2297 99.4319 59.2507C99.5368 59.2717 99.6627 59.3556 99.7047 59.4605C99.7257 59.5025 99.7467 59.5235 99.7886 59.5025C99.8306 59.5025 99.8516 59.4396 99.8306 59.4186C99.7677 59.2717 99.6208 59.1458 99.4529 59.1038C99.285 59.0828 99.0961 59.1458 98.9912 59.2717C98.9702 59.2927 98.9702 59.3556 98.9912 59.3766C99.0542 59.3976 99.0961 59.4186 99.1171 59.3766Z" fill="#38303B"/>
<g opacity="0.46">
<path d="M100.586 80.4646C100.103 80.0029 99.7886 79.3734 99.6417 78.7228C99.6208 78.5969 99.4109 78.6389 99.4319 78.7858C99.5788 79.4783 99.9146 80.1288 100.418 80.6325C100.544 80.6954 100.691 80.5485 100.586 80.4646Z" fill="#F2E2C8"/>
</g>
<g opacity="0.46">
<path d="M93.4729 78.4291C93.2211 79.1006 92.8644 79.7721 92.2348 80.1708C92.1089 80.2338 92.2348 80.4227 92.3397 80.3597C93.0113 79.94 93.41 79.2265 93.6618 78.492C93.7248 78.3661 93.5149 78.3032 93.4729 78.4291Z" fill="#F2E2C8"/>
</g>
<g opacity="0.46">
<path d="M92.6336 98.2579C91.9411 98.2789 91.2486 98.2579 90.5771 98.2579C90.4512 98.2579 90.4512 98.4677 90.5771 98.4677C91.2696 98.4677 91.9621 98.4887 92.6336 98.4677C92.7805 98.4467 92.7805 98.2369 92.6336 98.2579Z" fill="#F2E2C8"/>
</g>
<g opacity="0.46">
<path d="M99.6419 98.4468C99.0334 98.4468 98.4248 98.4048 97.8162 98.3628C97.6903 98.3628 97.6903 98.5727 97.8162 98.5727C98.4248 98.6146 99.0334 98.6356 99.6419 98.6566C99.7888 98.6566 99.7888 98.4468 99.6419 98.4468Z" fill="#F2E2C8"/>
</g>
<path d="M103.188 66.0701C102.097 65.2308 101.236 64.6223 99.5578 64.4545C98.6975 64.3705 97.1867 63.9928 96.0537 63.8669C95.9278 63.846 93.221 63.0696 93.0951 63.1325C93.0112 63.1745 92.8433 62.9857 92.4027 63.6361C92.0669 64.1187 91.6892 64.5804 91.5424 65.1679C91.3955 65.7554 91.2276 65.9862 91.6473 66.4059C92.0669 66.8255 93.0321 67.3501 93.2839 67.9166C93.4308 68.2104 93.3679 68.5671 93.3259 68.9028C92.9272 71.7775 92.5285 74.6521 92.1089 77.5478C92.0879 77.7366 92.0669 77.9674 92.1718 78.1143C92.2977 78.2822 92.5076 78.3032 92.6964 78.3032C95.2773 78.4081 97.8582 78.534 100.439 78.6389C100.607 78.6389 100.796 78.6389 100.922 78.534C101.069 78.4081 101.09 78.1773 101.09 77.9674C101.194 75.2397 101.593 72.386 101.614 69.6582C101.971 69.2595 101.782 70.3087 102.265 70.0988C102.495 69.9939 103.922 68.3363 104.006 68.0845C104.426 67.2032 103.272 66.1331 103.188 66.0701Z" fill="#F2E2C8"/>
<path d="M99.2856 60.8669C99.8102 60.6781 100.209 60.2374 100.461 59.7547C100.713 59.2721 100.817 58.7265 100.88 58.1809C100.922 57.908 100.943 57.5933 100.734 57.4044C100.629 57.2995 100.482 57.2575 100.335 57.2155C99.6633 57.0267 99.1806 56.9217 98.4881 56.8588C97.7956 56.7958 96.9142 56.7749 96.3057 57.0896C96.2217 57.1316 96.1168 57.1946 96.0748 57.2785C96.0329 57.3624 96.0119 57.4674 96.0119 57.5513C95.9909 58.2018 95.9699 58.8943 96.2217 59.5029C96.4736 60.1115 97.0401 60.6571 97.7327 60.72" fill="#38303B"/>
<path d="M96.935 64.4338C96.7671 64.3289 96.6832 64.119 96.7252 63.9092C96.8511 63.2586 97.0819 62.1674 97.1659 61.7057C97.1659 61.6848 97.1868 61.6428 97.1868 61.6218C97.2078 61.5798 97.2708 61.5798 97.3128 61.5798C97.6695 61.5588 98.0262 61.6638 98.383 61.6218C98.6768 61.6008 98.9706 61.4749 99.2644 61.5588C99.2854 61.5588 99.3273 61.5798 99.3483 61.6008C99.3693 61.6218 99.3693 61.6638 99.3693 61.7057C99.3693 61.8736 99.3483 62.0415 99.3273 62.2094C99.2854 62.6501 99.2014 63.6154 99.1385 64.2239C99.1175 64.4128 99.0125 64.5807 98.8237 64.6436C98.5928 64.7276 98.2361 64.8325 97.8794 64.7905C97.5016 64.7486 97.1659 64.5807 96.935 64.4338Z" fill="#86514D"/>
<path d="M99.3273 61.6218C99.3063 61.6008 99.2853 61.5798 99.2433 61.5798C98.9705 61.4959 98.6557 61.6218 98.362 61.6428C98.0052 61.6847 97.6485 61.5798 97.2917 61.6008C97.2497 61.6008 97.2078 61.6218 97.1658 61.6428C97.1448 61.6637 97.1448 61.6847 97.1448 61.7267C97.1029 61.9995 97.0399 62.2513 96.9979 62.5241C97.2917 62.734 97.6065 62.9019 97.9423 62.9438C98.4249 63.0068 98.9286 62.8389 99.2643 62.4822C99.2643 62.3982 99.2853 62.3143 99.2853 62.2513C99.3063 62.0834 99.3273 61.9156 99.3273 61.7477C99.3483 61.6847 99.3483 61.6428 99.3273 61.6218Z" fill="#794642"/>
<path d="M100.481 59.9646C100.356 61.5385 99.0965 62.7346 98.0682 62.6507C97.0399 62.5667 96.0117 61.1817 96.1376 59.6078C96.2635 58.0339 97.5016 57.1106 98.5299 57.1945C99.5581 57.2995 100.628 58.3907 100.481 59.9646Z" fill="#86514D"/>
<path d="M100.313 60.5728C100.586 60.5098 100.838 60.3209 100.88 60.0481C100.922 59.7753 100.712 59.4815 100.439 59.4815" fill="#86514D"/>
<path d="M96.2845 60.237C96.0327 60.1321 95.8019 59.9012 95.8019 59.6284C95.8019 59.3556 96.0537 59.1038 96.3475 59.1458" fill="#86514D"/>
<path d="M97.7954 58.6422C97.8164 58.6632 97.7954 58.6842 97.7745 58.7052C97.7535 58.7052 97.7325 58.6842 97.7115 58.6842C97.4597 58.5163 97.1659 58.4954 96.8931 58.6213C96.8511 58.6423 96.8091 58.6632 96.7672 58.6632C96.7252 58.6632 96.6832 58.6213 96.6832 58.5793C96.6832 58.5583 96.6832 58.5373 96.7042 58.5163C96.7462 58.4534 96.8301 58.3904 96.8931 58.3694C97.1239 58.2645 97.4177 58.2855 97.6276 58.4324C97.6905 58.4744 97.7745 58.5583 97.7954 58.6422Z" fill="#38303B"/>
<path d="M98.9282 58.7262C98.9073 58.7472 98.9282 58.7682 98.9492 58.7891C98.9702 58.7891 98.9912 58.7891 99.0122 58.7682C99.285 58.6632 99.5788 58.6842 99.8306 58.8311C99.8726 58.8521 99.9145 58.8941 99.9565 58.8941C99.9985 58.8941 100.04 58.8731 100.061 58.8311C100.061 58.8101 100.061 58.7891 100.04 58.7682C99.9985 58.6842 99.9355 58.6423 99.8726 58.5793C99.6627 58.4324 99.3689 58.4114 99.1381 58.5373C99.0542 58.5793 98.9702 58.6423 98.9282 58.7262Z" fill="#38303B"/>
<path d="M99.5209 61.1184C99.7865 61.1407 100.019 60.9528 100.041 60.6987C100.062 60.4447 99.8639 60.2206 99.5983 60.1982C99.3326 60.1759 99.1 60.3638 99.0786 60.6179C99.0573 60.8719 99.2553 61.096 99.5209 61.1184Z" fill="#794642"/>
<path d="M96.9181 60.9084C97.1838 60.9307 97.4164 60.7429 97.4378 60.4888C97.4591 60.2347 97.2611 60.0106 96.9955 59.9883C96.7299 59.966 96.4972 60.1538 96.4759 60.4079C96.4545 60.662 96.6525 60.8861 96.9181 60.9084Z" fill="#794642"/>
<path d="M99.388 59.7545C99.4804 59.7622 99.5663 59.6375 99.5799 59.4758C99.5935 59.3141 99.5296 59.1767 99.4372 59.1689C99.3448 59.1612 99.2589 59.286 99.2453 59.4476C99.2317 59.6093 99.2956 59.7467 99.388 59.7545Z" fill="#38303B"/>
<path d="M97.1011 59.5649C97.1935 59.5727 97.2794 59.4479 97.293 59.2862C97.3066 59.1245 97.2427 58.9872 97.1503 58.9794C97.0579 58.9716 96.972 59.0964 96.9584 59.2581C96.9448 59.4198 97.0087 59.5572 97.1011 59.5649Z" fill="#38303B"/>
<path d="M98.8446 61.349C98.4459 61.8107 98.0681 61.8946 97.6274 61.7477C97.4596 61.6848 97.2287 61.391 97.1658 61.1811C97.6904 61.5379 98.278 61.6218 98.8656 61.328" fill="#E66E60"/>
<path d="M98.8447 61.349C98.4669 61.5799 98.0053 61.6218 97.4387 61.412C97.3128 61.37 97.1869 61.2861 97.1239 61.1602C97.6695 61.391 98.341 61.4539 98.9076 61.3071L98.8447 61.349Z" fill="white"/>
<path d="M100.817 58.6215C100.167 58.4746 99.5792 58.013 99.2644 57.4044C99.2644 57.6562 99.3274 57.908 99.4323 58.1389C98.2362 57.908 96.9771 57.929 95.7809 58.2018C95.7389 58.2018 95.697 58.2228 95.655 58.2018C95.592 58.1599 95.592 58.0759 95.592 58.013C95.634 57.4254 95.8019 56.8168 96.2216 56.4181C96.4314 56.2082 96.7042 56.0614 96.9771 55.9354C97.9004 55.5577 98.9706 55.5367 99.852 55.9984C100.733 56.4601 101.384 57.4044 101.468 58.4327" fill="#38303B"/>
<path d="M98.2149 58.9989C98.131 59.3557 98.0681 59.7334 97.9841 60.0902C97.9631 60.1741 97.9421 60.279 97.9212 60.363C97.9002 60.4259 97.8792 60.5308 97.9002 60.5938C97.9421 60.6568 98.0051 60.6568 98.089 60.6777C98.173 60.6777 98.2779 60.6777 98.3618 60.6987C98.4878 60.6987 98.4878 60.4889 98.3618 60.4889C98.2779 60.4889 98.2149 60.4889 98.131 60.4679C98.11 60.4679 98.089 60.4679 98.0681 60.4679C98.0051 60.4679 98.0261 60.4889 98.089 60.5308C98.11 60.5308 98.11 60.4679 98.11 60.4469C98.152 60.3 98.173 60.1321 98.2149 59.9852C98.2779 59.6705 98.3409 59.3767 98.4038 59.0619C98.4458 58.936 98.2569 58.873 98.2149 58.9989Z" fill="#794642"/>
<path d="M105.328 77.6738C105.685 78.5132 105.958 79.4365 106.021 80.3179C106.125 80.171 106.44 80.129 106.608 80.213C106.776 80.2969 106.734 80.4438 106.692 80.6117C106.671 80.7376 106.566 80.8425 106.44 80.8845C106.608 81.1573 107.007 81.2203 107.364 81.1993C107.552 81.1783 107.741 81.1363 107.867 81.0524C108.14 80.8425 108.098 80.4858 107.93 80.213C107.762 79.9402 107.468 79.7513 107.259 79.4995C107.091 79.3106 106.986 79.1008 106.881 78.8909C106.524 78.1984 106.398 77.4429 106.167 76.7085" fill="#86514D"/>
<path d="M89.0663 101.321C89.0873 101.321 89.0873 101.342 89.0663 101.321C89.0663 101.321 89.0873 101.321 89.0663 101.321C89.0873 101.342 89.0873 101.342 89.1083 101.342C89.1293 101.363 89.1293 101.363 89.1503 101.384C89.1503 101.384 89.1503 101.384 89.1503 101.405C89.1503 101.405 89.1293 101.384 89.1503 101.405L89.1712 101.426C89.1922 101.447 89.1922 101.468 89.2132 101.489C89.2132 101.489 89.2132 101.51 89.2342 101.51V101.531C89.2342 101.552 89.2342 101.51 89.2342 101.531C89.2342 101.552 89.2552 101.573 89.2552 101.594C89.2552 101.615 89.2762 101.636 89.2762 101.657V101.678C89.2762 101.678 89.2762 101.678 89.2762 101.699C89.2762 101.72 89.2762 101.678 89.2762 101.699C89.2762 101.72 89.2762 101.762 89.2972 101.783C89.3181 101.804 89.3391 101.825 89.3811 101.804C89.4231 101.804 89.486 101.762 89.486 101.699C89.465 101.489 89.3601 101.279 89.1922 101.153C89.1503 101.112 89.0663 101.153 89.0453 101.195C89.0034 101.237 89.0244 101.3 89.0663 101.321Z" fill="#F09532"/>
<path d="M89.7588 101.091C89.7798 101.112 89.8007 101.133 89.8217 101.154L89.8427 101.175C89.8427 101.175 89.8427 101.196 89.8637 101.196C89.9057 101.238 89.9266 101.279 89.9476 101.321C89.9686 101.363 89.9896 101.405 90.0106 101.468C90.0106 101.489 90.0106 101.447 90.0106 101.468V101.489C90.0106 101.51 90.0106 101.51 90.0316 101.531C90.0316 101.552 90.0526 101.594 90.0526 101.615C90.0735 101.678 90.1365 101.699 90.1785 101.678C90.2414 101.657 90.2624 101.615 90.2414 101.552C90.1785 101.321 90.0526 101.112 89.8847 100.923C89.8427 100.881 89.7798 100.881 89.7378 100.923C89.7168 100.965 89.7168 101.049 89.7588 101.091Z" fill="#F09532"/>
<path d="M92.6964 41.1215H84.4921C83.1282 41.1215 82.0371 42.2336 82.0371 43.5765V50.6897C82.0371 52.0535 83.1492 53.1447 84.4921 53.1447H89.8637L93.4518 57.0685C93.5987 57.2153 93.8505 57.0894 93.8085 56.8796L93.0112 53.1027C94.2282 52.9558 95.1724 51.9067 95.1724 50.6687V43.5555C95.1724 42.2126 94.0603 41.1215 92.6964 41.1215Z" fill="white" stroke="#777776" stroke-width="0.9921" stroke-miterlimit="10"/>
<path d="M88.6888 42.926C87.2828 42.905 86.1497 44.1222 86.1287 45.6331C86.1077 47.144 88.6259 51.1732 88.6259 51.1732C88.6259 51.1732 91.1861 47.186 91.2071 45.6751C91.228 44.1641 90.0948 42.947 88.6888 42.926ZM88.6679 46.9342C87.9124 46.9342 87.3038 46.3046 87.3038 45.5282C87.3038 44.7517 87.9334 44.1432 88.6888 44.1432C89.4443 44.1432 90.0529 44.7727 90.0529 45.5492C90.0319 46.3256 89.4233 46.9342 88.6679 46.9342Z" fill="#EFB93F"/>
<path d="M41.1835 58.915C40.68 57.761 39.1902 57.1734 37.9732 57.4252C36.7562 57.698 35.7909 58.7052 35.3293 59.8592C34.9306 60.8664 34.8467 61.9575 34.511 62.9857C34.2172 63.867 33.7556 64.6643 33.1261 65.3358C32.5596 65.9653 31.8671 66.4688 31.4475 67.1823C30.881 68.1055 30.818 69.3225 31.2796 70.3087C31.7413 71.2949 32.7274 72.0293 33.7976 72.1762C34.9306 72.3441 36.1057 71.9244 37.2178 72.2182C37.7843 72.365 38.2879 72.7217 38.8544 72.8057C39.8406 72.9526 40.8268 72.2601 41.2675 71.3579C41.7081 70.4556 41.6662 69.3855 41.4353 68.4203C41.1836 67.3711 40.7009 66.3429 40.659 65.2728C40.617 64.0768 40.9108 63.2795 41.0157 62.0834C41.0577 61.0343 41.876 60.5307 41.1835 58.915Z" fill="#38303B"/>
<path d="M42.8834 101.301C42.8624 100.881 42.8204 100.482 42.7994 100.062C42.7785 99.8946 42.7785 99.7267 42.6525 99.6008C42.4637 99.3909 42.086 99.4119 41.7712 99.4749C41.6663 99.4959 41.5403 99.5168 41.4774 99.6008C41.3934 99.7057 41.4144 99.8526 41.4564 99.9785C41.6033 100.524 41.7292 101.091 41.8761 101.636" fill="#F7B094"/>
<path d="M45.9052 102.853C45.1498 102.874 44.5412 102.874 43.7857 102.874C43.5549 102.874 41.7292 102.811 41.4564 102.811C41.3724 102.811 41.2675 102.811 41.2046 102.749C41.1206 102.686 41.1206 102.56 41.1416 102.455C41.1626 102.056 41.2465 101.657 41.3934 101.28C41.4144 101.196 41.4774 101.091 41.5613 101.07C41.6452 101.049 41.7292 101.091 41.7921 101.133C42.0859 101.301 42.1069 101.301 42.4637 101.238C42.5476 101.217 42.8834 101.112 42.9673 101.091C43.0512 101.049 43.1562 101.07 43.2611 101.091C44.1005 101.259 44.8979 101.552 45.6534 101.93C45.8213 102.014 46.0101 102.119 46.0941 102.287C46.199 102.455 46.178 102.707 46.0101 102.811" fill="#38303B"/>
<path d="M26.3698 98.3209C26.7056 98.0901 27.0413 97.8593 27.3771 97.6075C27.503 97.5235 27.6499 97.4186 27.8178 97.4396C28.1326 97.4606 28.3634 97.8173 28.5313 98.1111C28.5942 98.216 28.6572 98.3419 28.6362 98.4469C28.6152 98.5938 28.4893 98.6567 28.3634 98.6987C27.8388 98.9295 27.3141 99.1603 26.7895 99.3912" fill="#F7B094"/>
<path d="M27.1253 102.686C26.7685 102.035 26.4537 101.49 26.097 100.818C25.9921 100.608 25.1946 98.9715 25.0687 98.7407C25.0267 98.6567 24.9848 98.5728 25.0058 98.4888C25.0267 98.3839 25.1317 98.3419 25.2156 98.3C25.5933 98.1321 25.9711 98.0272 26.3698 97.9642C26.4537 97.9432 26.5587 97.9432 26.6216 98.0062C26.6846 98.0691 26.6846 98.1531 26.6636 98.237C26.6426 98.5728 26.6636 98.5938 26.8944 98.8666C26.9574 98.9295 27.2092 99.1813 27.2722 99.2443C27.3561 99.3073 27.3771 99.4122 27.3981 99.4961C27.6289 100.315 27.7758 101.154 27.7758 102.014C27.7758 102.203 27.7758 102.413 27.6709 102.581C27.5659 102.749 27.3561 102.854 27.1882 102.749" fill="#38303B"/>
<path d="M36.861 81.5765C38.162 87.4097 39.295 93.5577 41.0996 99.2441C41.2465 99.7057 41.4353 100.482 41.6661 100.503C41.9599 100.545 42.2326 100.503 42.5054 100.461C42.7362 100.419 42.9041 100.209 42.8831 99.9785C42.0648 91.3755 42.2956 82.6886 40.3862 74.2954C40.3232 74.0016 36.4833 74.4213 36.4833 74.4213" fill="#2E3C87"/>
<path d="M27.7755 98.7825C27.8174 98.9294 28.0063 99.0134 28.1322 98.9294C30.1885 97.9013 31.993 96.1387 33.5038 93.9565C35.728 90.7461 37.0919 88.1862 38.3298 84.3673C39.2741 81.4297 40.0924 78.3452 39.8196 75.2397C38.4138 75.3237 37.0079 75.4915 35.6021 75.7224C35.3083 75.7643 35.2454 75.7853 35.0565 76.0161C34.8677 76.2259 34.7628 76.7715 34.6998 77.0653C34.0913 80.3806 33.9864 83.6329 33.273 86.9062C32.4127 90.893 30.5452 95.0266 27.5027 97.4816C27.4187 97.5446 27.3768 97.6705 27.4187 97.7754L27.7755 98.7825Z" fill="#415299"/>
<path d="M33.9655 78.4921L34.1123 79.2265C34.1753 79.4993 34.4481 79.7092 34.8049 79.7092C36.8824 79.7512 38.9599 79.7721 41.0374 79.7512C41.2053 79.7512 41.3942 79.7512 41.4991 79.6462C41.604 79.5623 41.625 79.4574 41.667 79.3315C41.7509 79.0167 41.8139 78.7019 41.8978 78.3661" fill="#EFB93F"/>
<path d="M43.7015 77.6737C43.9324 78.0514 44.7298 79.6673 44.8347 80.087C44.9397 80.5487 44.9816 81.0313 45.2125 81.43C45.2544 81.514 45.4223 81.472 45.4433 81.3881C45.5063 81.2202 45.5272 81.0523 45.5272 80.8844C45.5272 80.7795 45.6951 80.7375 45.7581 80.8005C45.8 80.8634 45.842 80.9264 45.884 80.9894C46.0519 81.3881 46.2407 81.6819 46.4296 82.1016C46.4926 82.2694 46.6185 82.5213 46.7234 82.6891C46.7863 82.7521 46.8493 82.6891 46.8493 82.6052C46.8493 82.5213 46.7863 82.2485 46.8073 82.2694C46.8493 82.3534 46.9962 82.3114 46.9962 82.1855C46.9962 81.6189 46.7863 80.8844 46.6185 80.4857C46.1988 79.5414 45.0446 78.2823 44.6249 77.275" fill="#F7B094"/>
<path d="M39.1692 69.6792C40.0505 72.4909 41.5612 75.3236 43.5336 77.8835C43.7435 78.1563 43.9113 78.3871 44.1841 78.3661C44.5828 78.3451 45.2542 78.1353 45.0654 77.7156C44.2051 75.7223 42.9881 73.3932 42.7363 71.4418C42.6314 70.5605 42.5894 69.6792 42.3586 68.7769C42.1488 67.8747 41.7711 66.8255 41.0367 66.1331" fill="#EFB93F"/>
<path d="M34.6998 79.2264C34.2592 79.2264 33.9025 78.7858 33.8395 78.3451C33.7766 77.9045 34.2801 76.9393 34.2172 76.4777C34.1333 75.8272 33.5248 69.9939 34.8257 66.8255C35.1195 66.1121 35.623 65.3777 36.3784 65.1889C36.7771 65.0839 37.1968 65.1469 37.6164 65.1679C38.4767 65.2098 39.379 65.0839 40.1554 65.4616C41.4773 66.1121 41.6871 67.8537 41.7501 69.3225C41.792 70.5395 41.855 71.7775 41.8969 72.9945C41.9599 74.5262 42.4845 75.9111 42.0018 77.1281C41.855 77.4848 42.3376 78.534 42.0858 78.8277C41.813 79.1635 41.0786 79.0376 40.638 79.0376C38.8754 79.0795 37.0919 79.1215 35.3293 79.1844" fill="#F2E2C8"/>
<path d="M42.3587 68.5674L42.2118 68.4205C42.1698 68.3785 42.1698 68.3156 42.2118 68.2736L44.751 65.7344C44.7929 65.6924 44.8559 65.6924 44.8979 65.7344L45.0448 65.8813C45.0867 65.9233 45.0867 65.9862 45.0448 66.0282L42.5056 68.5674C42.4636 68.6094 42.4006 68.6094 42.3587 68.5674Z" fill="#38303B"/>
<path d="M38.0152 75.1767C37.6165 75.4915 36.5884 76.037 36.1687 76.3098C35.854 76.5196 35.3084 76.2888 34.8678 75.8062C34.553 75.4705 34.3222 74.7781 34.1963 74.3374C33.9655 73.4981 33.8816 72.365 33.8606 71.3578C33.8396 70.0149 33.9865 68.8189 34.1334 67.8537C34.2802 66.8885 34.9937 65.5875 35.7071 65.3148C36.7352 64.9371 37.1759 65.3777 37.2808 66.8675C37.3647 67.9376 37.1129 68.8609 36.9241 70.6864C36.8402 71.5047 36.7352 72.9945 36.7352 72.9945L38.0152 75.1767Z" fill="#EFB93F"/>
<path d="M39.8407 70.6658C40.1555 70.372 41.3726 69.0289 41.5825 68.6512C41.8133 68.2525 41.9812 67.7908 42.3169 67.4551C42.3799 67.3921 42.5268 67.4551 42.5268 67.56C42.5268 67.7279 42.5268 67.9167 42.4638 68.0636C42.4428 68.1476 42.7786 68.2525 42.8625 68.2105C42.9255 68.1686 43.9957 67.0983 44.0377 67.0563C44.1007 66.9934 44.2266 67.0563 44.1846 67.1823C44.0167 67.7279 43.618 68.3784 43.3662 68.7142C42.6947 69.5116 41.2677 70.414 40.6171 71.2743" fill="#F7B094"/>
<path d="M36.1267 76.2895C36.6304 76.2055 37.7006 75.534 38.1832 74.9884C38.9177 74.128 41.2681 71.358 41.352 70.8963C41.373 70.7075 40.7434 70.1199 40.4916 69.8681C40.3447 69.7212 39.0856 71.1272 38.4351 71.6937C38.2252 71.8616 37.0291 72.785 36.4625 73.1627" fill="#EFB93F"/>
<path d="M35.791 73.2257C36.8822 73.0368 38.0364 72.1974 40.2189 69.952C40.3028 69.8681 40.4287 69.8681 40.4917 69.952L41.3101 70.7914" stroke="#2E3C87" stroke-width="0.2835" stroke-miterlimit="10"/>
<path d="M36.5675 72.9735C36.3576 72.8267 35.9379 72.6588 35.6651 72.6378" stroke="#2E3C87" stroke-width="0.2835" stroke-miterlimit="10"/>
<path d="M37.3857 64.8534C37.5326 64.2448 37.7634 63.3634 37.8683 62.9647C37.9103 62.7968 37.9523 62.629 38.0152 62.4611C38.0362 62.4191 38.0362 62.3771 38.0572 62.3562C38.0782 62.3352 38.0992 62.3352 38.1411 62.3352C38.393 62.3352 38.5818 62.545 38.7917 62.65C39.0435 62.7968 39.3583 62.7968 39.6311 62.9437C39.673 62.9647 39.694 62.9857 39.715 63.0277C39.715 63.0487 39.715 63.0906 39.715 63.1116C39.6311 63.5943 39.5261 64.9373 39.4632 65.5459C39.4212 65.9026 38.8127 66.0705 38.1831 65.9026C37.4067 65.6928 37.3227 65.0842 37.3857 64.8534Z" fill="#F7B094"/>
<path d="M38.0782 62.3772C38.0992 62.3562 38.1202 62.3562 38.1621 62.3562C38.414 62.3562 38.6028 62.566 38.8127 62.6709C39.0645 62.8178 39.3793 62.8178 39.6521 62.9647C39.694 62.9857 39.715 63.0067 39.736 63.0487C39.736 63.0697 39.736 63.1116 39.736 63.1326C39.694 63.4054 39.6311 63.6782 39.5891 63.951C39.2953 64.0769 39.0015 64.1189 38.7287 64.056C38.351 63.972 38.0152 63.6572 37.8683 63.2166C37.8893 63.1326 37.9103 63.0487 37.9313 62.9857C37.9733 62.8178 38.0152 62.65 38.0782 62.4821C38.0362 62.4401 38.0362 62.3981 38.0782 62.3772Z" fill="#E89C82"/>
<path d="M37.4697 61.9368C37.113 61.8949 36.7772 61.685 36.7352 61.4122C36.6723 61.1394 36.9661 60.8456 37.3228 60.8246" fill="#F7B094"/>
<path d="M37.4277 61.9788C37.8055 63.3219 38.7498 63.4897 39.7361 63.8045C39.904 63.8675 40.1977 63.8885 40.3866 63.8675C40.8483 63.8255 41.0581 63.3848 41.1421 63.0071C41.289 62.3565 41.3729 61.706 41.3729 61.0555C41.3729 60.5938 41.3309 60.1321 41.1001 59.7334C40.8693 59.3347 40.4496 58.957 39.904 58.873C39.2324 58.7681 38.5609 59.1039 38.0992 59.5236C37.4277 60.1531 37.092 61.0345 37.3648 61.8319" fill="#F7B094"/>
<path d="M41.3935 61.0342C41.3935 61.4539 41.4144 61.391 41.4564 61.6218C41.4564 61.6428 41.5194 61.8527 41.6453 61.9366C41.7502 62.0205 41.7922 62.1884 41.6873 62.2724C41.6243 62.3143 41.5823 62.3563 41.4984 62.3563C41.3935 62.3773 41.2885 62.3563 41.2256 62.2514" fill="#F7B094"/>
<path d="M36.4624 60.9506C37.4697 60.8666 38.393 60.4889 39.2324 60.0692C39.6311 59.8593 40.0089 59.6495 40.2817 59.3347C40.4286 59.1668 40.5335 58.936 40.4076 58.7681C40.2607 58.5792 39.9249 58.5373 39.6521 58.5583C39.4423 58.5792 39.2534 58.6002 39.0436 58.6212C38.7078 58.6632 38.372 58.7471 38.0783 58.894C37.7425 59.0619 37.4907 59.2927 37.2388 59.5446C36.987 59.7964 36.7142 60.0482 36.6932 60.384" fill="#38303B"/>
<path d="M39.9456 60.2999C39.9247 60.3208 39.9456 60.3208 39.9666 60.3208C39.9876 60.3208 40.0086 60.3208 40.0296 60.2999C40.2604 60.2159 40.5332 60.1949 40.7641 60.2579C40.806 60.2579 40.827 60.2789 40.869 60.2789C40.911 60.2789 40.9529 60.2579 40.9529 60.2369C40.9529 60.2159 40.9529 60.2159 40.9319 60.2159C40.89 60.1739 40.827 60.153 40.7641 60.132C40.5542 60.069 40.3024 60.09 40.0925 60.1739C40.0296 60.1949 39.9666 60.2369 39.9456 60.2999Z" fill="#38303B"/>
<g opacity="0.54">
<path d="M38.8965 61.8947C38.8965 62.1885 39.1483 62.4613 39.4841 62.4613C39.8198 62.4823 40.0926 62.2305 40.0926 61.9367C40.0926 61.6429 39.8408 61.3701 39.5051 61.3701C39.1693 61.3491 38.8965 61.601 38.8965 61.8947Z" fill="#ED825D"/>
</g>
<path d="M40.4073 60.9714C40.4073 61.1393 40.5123 61.2652 40.5962 61.2652C40.7011 61.2652 40.7641 61.1393 40.7431 60.9714C40.7431 60.8035 40.6382 60.6776 40.5542 60.6776C40.4703 60.6776 40.4073 60.8035 40.4073 60.9714Z" fill="#38303B"/>
<path d="M44.5197 44.4578H52.724C54.0879 44.4578 55.179 45.5699 55.179 46.9128V54.026C55.179 55.3898 54.0669 56.481 52.724 56.481H47.3524L43.7643 60.4048C43.6174 60.5516 43.3656 60.4257 43.4076 60.2159L44.2049 56.439C42.9879 56.2921 42.0437 55.243 42.0437 54.005V46.8918C42.0647 45.5699 43.1558 44.4578 44.5197 44.4578Z" fill="white" stroke="#777776" stroke-width="0.9921" stroke-miterlimit="10"/>
<path d="M45.9675 48.9694C45.9885 50.4803 48.5487 54.4675 48.5487 54.4675C48.5487 54.4675 51.0669 50.4383 51.0459 48.9274C51.0249 47.4165 49.8917 46.1993 48.4857 46.2203C47.0797 46.2413 45.9465 47.4585 45.9675 48.9694ZM47.1427 48.8435C47.1427 48.067 47.7512 47.4584 48.5067 47.4375C49.2622 47.4375 49.8707 48.046 49.8917 48.8225C49.8917 49.5989 49.2832 50.2075 48.5277 50.2285C47.7512 50.2285 47.1427 49.6199 47.1427 48.8435Z" fill="#EFB93F"/>
</svg>
