<svg width="130" height="130" viewBox="0 0 130 130" fill="none" xmlns="http://www.w3.org/2000/svg">
<circle cx="66.4211" cy="66.4211" r="58.4211" fill="#CEECD3"/>
<circle cx="113.947" cy="11.3158" r="6.31579" fill="#76FD8C"/>
<circle cx="11.3158" cy="91.8422" r="6.31579" fill="#76FD8C"/>
<circle r="3.15789" transform="matrix(1 0 0 -1 14.4737 69.7369)" fill="white"/>
<circle r="2.36842" transform="matrix(1 0 0 -1 108.421 40.5263)" fill="white"/>
<circle cx="120.263" cy="101.316" r="3.15789" fill="#76FD8C"/>
<circle cx="104.474" cy="8.1579" r="1.57895" fill="#76FD8C"/>
<circle cx="119.474" cy="26.3158" r="2.36842" fill="#1BB934"/>
<circle cx="79.5" cy="50.5" r="28.5" fill="#DFF3E3"/>
<path fill-rule="evenodd" clip-rule="evenodd" d="M98.896 120.706C98.7663 120.603 98.6175 120.527 98.4582 120.481C98.2989 120.436 98.1322 120.423 97.9677 120.442C97.8031 120.461 97.6439 120.513 97.4991 120.593C97.3543 120.674 97.2268 120.782 97.1238 120.912C97.0208 121.042 96.9444 121.191 96.8989 121.351C96.8534 121.51 96.8398 121.677 96.8587 121.842C96.8777 122.006 96.9288 122.165 97.0093 122.31C97.0898 122.455 97.198 122.582 97.3278 122.685C97.5899 122.893 97.9238 122.988 98.2562 122.949C98.5885 122.91 98.8921 122.741 99.1001 122.478C99.308 122.216 99.4034 121.882 99.3651 121.549C99.3268 121.217 99.1581 120.913 98.896 120.706Z" fill="#BFC7D2"/>
<path d="M22.7246 11.4067L23.383 11.9287C23.5576 12.0672 23.67 12.2694 23.6954 12.491C23.7208 12.7125 23.6572 12.9352 23.5186 13.1101C23.3799 13.285 23.1776 13.3977 22.9561 13.4235C22.7346 13.4492 22.512 13.3859 22.3374 13.2475L21.679 12.7255L21.1562 13.3849C21.0176 13.5598 20.8152 13.6725 20.5937 13.6983C20.3722 13.724 20.1497 13.6607 19.9751 13.5223C19.8005 13.3839 19.6881 13.1816 19.6627 12.9601C19.6372 12.7385 19.7009 12.5158 19.8395 12.3409L20.3623 11.6815L19.7039 11.1595C19.5293 11.0211 19.417 10.8189 19.3915 10.5973C19.3661 10.3758 19.4297 10.153 19.5684 9.97816C19.707 9.80328 19.9094 9.69056 20.1309 9.66479C20.3524 9.63902 20.5749 9.70232 20.7495 9.84076L21.4079 10.3628L21.9307 9.70337C22.0694 9.52849 22.2717 9.41576 22.4932 9.39C22.7147 9.36423 22.9373 9.42753 23.1119 9.56597C23.2865 9.70441 23.3989 9.90665 23.4243 10.1282C23.4497 10.3498 23.3861 10.5725 23.2474 10.7473L22.7246 11.4067Z" fill="#BFC7D2"/>
<path d="M11.7246 25.4067L12.383 25.9287C12.5576 26.0672 12.67 26.2694 12.6954 26.491C12.7208 26.7125 12.6572 26.9352 12.5186 27.1101C12.3799 27.285 12.1776 27.3977 11.9561 27.4235C11.7346 27.4492 11.512 27.3859 11.3374 27.2475L10.679 26.7255L10.1562 27.3849C10.0176 27.5598 9.81525 27.6725 9.59374 27.6983C9.37222 27.724 9.1497 27.6607 8.97509 27.5223C8.80048 27.3839 8.68809 27.1816 8.66267 26.9601C8.63725 26.7385 8.70087 26.5158 8.83952 26.3409C8.83952 26.3409 9.40029 26.008 9.36232 25.6815C9.32441 25.3556 8.70395 25.1595 8.70395 25.1595C8.52934 25.0211 8.41697 24.8189 8.39154 24.5973C8.36612 24.3758 8.42973 24.153 8.56838 23.9782C8.70704 23.8033 8.90938 23.6906 9.13089 23.6648C9.3524 23.639 9.57494 23.7023 9.74955 23.8408L10.4079 24.3628L10.9307 23.7034C11.0694 23.5285 11.2717 23.4158 11.4932 23.39C11.7147 23.3642 11.9373 23.4275 12.1119 23.566C12.2865 23.7044 12.3989 23.9066 12.4243 24.1282C12.4497 24.3498 12.3861 24.5725 12.2474 24.7473L11.7246 25.4067Z" fill="#BFC7D2"/>
<path d="M102.78 66.2084C102.78 86.4379 86.376 102.842 66.1464 102.842C45.9168 102.842 29.5361 86.4379 29.5361 66.2084C29.5361 45.9788 45.9397 29.5752 66.1464 29.5752C86.376 29.5981 102.78 45.9788 102.78 66.2084Z" stroke="#603913" stroke-width="2" stroke-miterlimit="10" stroke-dasharray="5.98 5.98"/>
<path d="M46.8104 91.5469C46.8104 95.2354 43.8321 98.2137 40.1436 98.2137C36.4551 98.2137 33.4767 95.2354 33.4767 91.5469C33.4767 87.8584 36.4551 84.8801 40.1436 84.8801C43.8321 84.8801 46.8104 87.8584 46.8104 91.5469Z" fill="url(#paint0_radial_1644_126)"/>
<path d="M40.3498 87.698C40.3498 87.698 38.0129 90.6076 38.0129 92.28C38.0129 93.9295 39.0668 95.2812 40.3498 95.2812C41.6327 95.2812 42.6866 93.9295 42.6866 92.28C42.7095 90.6305 40.3498 87.698 40.3498 87.698ZM39.8916 94.7085C39.6854 94.9376 39.1584 94.5023 38.7919 93.9753C38.4253 93.4255 38.242 92.7153 38.5857 92.6466C38.9293 92.5778 38.7002 92.9673 39.2272 93.7921C39.5937 94.3877 40.0978 94.4565 39.8916 94.7085Z" fill="#ECECD8"/>
<path d="M94.6695 49.8964C98.3514 49.8964 101.336 46.9116 101.336 43.2296C101.336 39.5476 98.3514 36.5627 94.6695 36.5627C90.9875 36.5627 88.0026 39.5476 88.0026 43.2296C88.0026 46.9116 90.9875 49.8964 94.6695 49.8964Z" fill="url(#paint1_radial_1644_126)"/>
<path d="M94.8299 46.2995C96.4368 46.2995 97.7394 44.9969 97.7394 43.39C97.7394 41.783 96.4368 40.4804 94.8299 40.4804C93.223 40.4804 91.9203 41.783 91.9203 43.39C91.9203 44.9969 93.223 46.2995 94.8299 46.2995Z" fill="#ECECD8"/>
<path d="M94.3945 40.3429H95.2651L94.8298 38.8308L94.3945 40.3429Z" fill="#ECECD8"/>
<path d="M95.2651 46.437H94.3945L94.8298 47.949L95.2651 46.437Z" fill="#ECECD8"/>
<path d="M97.8768 42.9776V43.8252L99.3889 43.3899L97.8768 42.9776Z" fill="#ECECD8"/>
<path d="M91.7828 43.8252V42.9776L90.2708 43.3899L91.7828 43.8252Z" fill="#ECECD8"/>
<path d="M96.6855 40.9386L97.2812 41.5342L98.0602 40.1825L96.6855 40.9386Z" fill="#ECECD8"/>
<path d="M92.9741 45.8642L92.3784 45.2457L91.5995 46.6203L92.9741 45.8642Z" fill="#ECECD8"/>
<path d="M92.3784 41.5342L92.9741 40.9386L91.5995 40.1825L92.3784 41.5342Z" fill="#ECECD8"/>
<path d="M97.2812 45.2457L96.6855 45.8642L98.0602 46.6203L97.2812 45.2457Z" fill="#ECECD8"/>
<path d="M97.4645 41.8092L97.8081 42.5881L99.0224 41.603L97.4645 41.8092Z" fill="#ECECD8"/>
<path d="M92.1952 44.9937L91.8515 44.1918L90.6373 45.1769L92.1952 44.9937Z" fill="#ECECD8"/>
<path d="M97.8081 44.1918L97.4645 44.9707L99.0224 45.1769L97.8081 44.1918Z" fill="#ECECD8"/>
<path d="M91.8515 42.611L92.1952 41.8091L90.6373 41.6259L91.8515 42.611Z" fill="#ECECD8"/>
<path d="M95.7004 40.4575L96.4793 40.8011L96.7313 39.2432L95.7004 40.4575Z" fill="#ECECD8"/>
<path d="M93.9592 46.3453L93.1803 46.0017L92.9283 47.5367L93.9592 46.3453Z" fill="#ECECD8"/>
<path d="M96.319 46.0934L95.5172 46.3912L96.4565 47.6512L96.319 46.0934Z" fill="#ECECD8"/>
<path d="M93.3407 40.7095L94.1426 40.4116L93.2032 39.1516L93.3407 40.7095Z" fill="#ECECD8"/>
<path d="M37.3485 51.0877C41.0305 51.0877 44.0154 48.1029 44.0154 44.4209C44.0154 40.7389 41.0305 37.7541 37.3485 37.7541C33.6665 37.7541 30.6817 40.7389 30.6817 44.4209C30.6817 48.1029 33.6665 51.0877 37.3485 51.0877Z" fill="url(#paint2_radial_1644_126)"/>
<path d="M39.7999 45.5893L41.1516 44.2834L41.8618 46.0475L39.7999 45.5893Z" fill="#ECECD8"/>
<path d="M34.9429 43.5274L33.66 44.9249L32.881 43.2066L34.9429 43.5274Z" fill="#ECECD8"/>
<path d="M34.2098 44.0772C34.4389 42.5423 35.7677 41.3739 37.3714 41.3739C38.9751 41.3739 40.281 42.5423 40.533 44.0772H41.4494C41.2203 42.0383 39.4791 40.4575 37.3714 40.4575C35.2637 40.4575 33.5454 42.0383 33.2934 44.0772H34.2098Z" fill="#ECECD8"/>
<path d="M40.4872 45.154C40.2122 46.6203 38.9064 47.7428 37.3485 47.7428C35.7906 47.7428 34.5076 46.6432 34.2098 45.154H33.2934C33.5912 47.1243 35.2866 48.6363 37.3485 48.6363C39.4104 48.6363 41.1057 47.1243 41.4036 45.154H40.4872Z" fill="#ECECD8"/>
<path d="M38.746 46.6203C38.746 46.6203 36.9361 46.7577 35.9738 45.4289C35.1491 44.3063 35.676 42.4048 35.676 42.4048C35.676 42.4048 37.8525 42.3361 38.6543 43.3212C39.4562 44.3063 39.1354 46.3453 39.1354 46.3453C39.1354 46.3453 39.0667 45.1082 38.1045 44.0772C37.3255 43.2296 36.2717 43.0921 36.2717 43.0921C36.2717 43.0921 37.1881 43.3212 37.9899 44.3293C38.6085 45.1082 38.746 46.6203 38.746 46.6203Z" fill="#ECECD8"/>
<path d="M31.6668 75.1891C35.3488 75.1891 38.3337 72.2043 38.3337 68.5223C38.3337 64.8403 35.3488 61.8555 31.6668 61.8555C27.9848 61.8555 25 64.8403 25 68.5223C25 72.2043 27.9848 75.1891 31.6668 75.1891Z" fill="url(#paint3_radial_1644_126)"/>
<path d="M28.4594 70.1718C28.4594 70.1718 27.5659 71.2715 27.5659 71.8901C27.5659 72.5086 27.9554 73.0127 28.4594 73.0127C28.9405 73.0127 29.33 72.5086 29.33 71.8901C29.33 71.2715 28.4594 70.1718 28.4594 70.1718ZM28.2761 72.8065C28.2074 72.8981 28.0012 72.7377 27.8637 72.5316C27.7263 72.3254 27.6576 72.0504 27.795 72.0275C27.9325 72.0046 27.8408 72.1421 28.0241 72.4628C28.1616 72.6919 28.3449 72.7148 28.2761 72.8065Z" fill="#ECECD8"/>
<path d="M36.3634 66.0709H33.2476C33.0185 65.7731 32.6978 65.544 32.3312 65.4294V65.0858C32.6978 65.2461 32.7436 65.4752 33.0644 65.4752C33.5684 65.4752 33.9578 65.0629 33.9578 64.5818C33.9578 64.0777 33.5455 63.6883 33.0644 63.6883C32.7436 63.6883 32.4687 63.9403 32.3083 64.1006C32.148 64.261 31.8501 64.2152 31.3461 64.1006C30.8421 63.9861 30.9108 63.6883 30.5901 63.6883C30.086 63.6883 29.6966 64.1006 29.6966 64.5818C29.6966 65.0858 30.109 65.4752 30.5901 65.4752C30.8879 65.4752 30.9795 65.2232 31.3232 65.0858V65.4294C30.613 65.6356 30.109 66.2542 30.0402 67.0102C29.6966 67.0102 29.33 67.0102 29.0551 67.0102C27.3368 67.0102 27.5659 68.9347 27.5659 68.9347H31.8272C32.5145 68.9347 33.1331 68.5452 33.408 67.9495H36.3405V66.0709H36.3634Z" fill="#ECECD8"/>
<path d="M30.4068 69.0721H27.6576C27.6117 69.0721 27.5659 69.1179 27.5659 69.1638C27.5659 69.2096 27.6117 69.2554 27.6576 69.2554H30.4068C30.4526 69.2554 30.4984 69.2096 30.4984 69.1638C30.4984 69.1179 30.4526 69.0721 30.4068 69.0721Z" fill="#ECECD8"/>
<path d="M30.4068 69.347H27.6576C27.6117 69.347 27.5659 69.3929 27.5659 69.4387C27.5659 69.4845 27.6117 69.5303 27.6576 69.5303H30.4068C30.4526 69.5303 30.4984 69.4845 30.4984 69.4387C30.4984 69.3929 30.4526 69.347 30.4068 69.347Z" fill="#ECECD8"/>
<path d="M30.4068 69.6449H27.6576C27.6117 69.6449 27.5659 69.6907 27.5659 69.7365C27.5659 69.7823 27.6117 69.8281 27.6576 69.8281H30.4068C30.4526 69.8281 30.4984 69.7823 30.4984 69.7365C30.4984 69.6907 30.4526 69.6449 30.4068 69.6449Z" fill="#ECECD8"/>
<path d="M66.9712 36.3337C70.6532 36.3337 73.638 33.3488 73.638 29.6668C73.638 25.9848 70.6532 23 66.9712 23C63.2892 23 60.3044 25.9848 60.3044 29.6668C60.3044 33.3488 63.2892 36.3337 66.9712 36.3337Z" fill="url(#paint4_radial_1644_126)"/>
<path d="M67.2919 25.8409C67.2003 25.7034 67.0399 25.6118 66.8795 25.6118C66.7191 25.6118 66.5588 25.7034 66.4671 25.8409L65.1613 28.0173L66.0318 28.4755L66.9024 27.0322L68.0479 28.9337L68.8727 28.4068L67.2919 25.8409Z" fill="#ECECD8"/>
<path d="M66.1923 31.3163H64.2907L65.482 29.3232L64.6344 28.8421L63.0078 31.5684C62.9161 31.7287 62.9161 31.912 63.0078 32.0495C63.0994 32.2098 63.2598 32.3015 63.4201 32.3015H66.1923V31.3163Z" fill="#ECECD8"/>
<path d="M70.7056 31.5225L69.3997 29.3461L68.575 29.8501L69.4684 31.3392H67.3607V32.3015H70.3161C70.591 32.3015 70.7972 32.0953 70.7972 31.8204C70.7972 31.7058 70.7743 31.5913 70.7056 31.5225Z" fill="#ECECD8"/>
<path d="M66.1236 31.1331L67.0858 31.8204L66.1006 32.4619L66.1236 31.1331Z" fill="#ECECD8"/>
<path d="M66.1693 28.4984L65.1384 28.9337L65.0925 27.8111L66.1693 28.4984Z" fill="#ECECD8"/>
<path d="M68.4374 30.0792L68.4833 28.8421L69.6059 29.3003L68.4374 30.0792Z" fill="#ECECD8"/>
<path d="M65.5966 109.6C69.2786 109.6 72.2634 106.615 72.2634 102.933C72.2634 99.2512 69.2786 96.2664 65.5966 96.2664C61.9146 96.2664 58.9297 99.2512 58.9297 102.933C58.9297 106.615 61.9146 109.6 65.5966 109.6Z" fill="url(#paint5_radial_1644_126)"/>
<path d="M69.7891 99.3134H66.8566L66.6962 98.901H65.0467L64.8634 99.3134H61.908C61.7477 99.3134 61.6331 99.4279 61.6331 99.5883C61.6331 99.7487 61.7477 99.8632 61.908 99.8632H69.7662C69.9266 99.8632 70.0411 99.7258 70.0411 99.5883C70.064 99.4509 69.9495 99.3134 69.7891 99.3134Z" fill="#ECECD8"/>
<path d="M69.4684 100.344H62.2517C62.0914 100.344 61.9539 100.482 61.9539 100.665C61.9539 100.848 62.0914 100.986 62.2517 100.986H62.3663L63.2827 107.401H68.3229L69.331 100.986H69.4684C69.6288 100.986 69.7662 100.848 69.7662 100.665C69.7662 100.482 69.6288 100.344 69.4684 100.344ZM65.1155 103.071L65.6883 102.131C65.7341 102.063 65.8028 102.017 65.8715 102.017C65.9403 102.017 66.0319 102.063 66.0548 102.131L66.765 103.323L66.3985 103.575L65.8715 102.704L65.4821 103.346L65.5508 103.391L65.0697 103.598L65.0468 103.071H65.1155ZM65.505 105.178V105.11H64.2678C64.1991 105.11 64.1075 105.064 64.0846 104.995C64.0387 104.926 64.0387 104.835 64.0846 104.766L64.8406 103.506L65.2301 103.735L64.6802 104.651H65.5279V104.56L65.9632 104.881L65.505 105.178ZM67.4752 105.11H66.1006V104.651H67.0629L66.6734 104.01L66.5817 104.079L66.6047 103.506L67.1316 103.712L67.04 103.758L67.6127 104.72C67.6356 104.766 67.6585 104.812 67.6585 104.858C67.6814 104.995 67.5898 105.11 67.4752 105.11Z" fill="#ECECD8"/>
<path d="M102.046 73.7C105.728 73.7 108.713 70.7151 108.713 67.0331C108.713 63.3512 105.728 60.3663 102.046 60.3663C98.3645 60.3663 95.3796 63.3512 95.3796 67.0331C95.3796 70.7151 98.3645 73.7 102.046 73.7Z" fill="url(#paint6_radial_1644_126)"/>
<path d="M104.681 63.3446H100.168L99.6409 63.9173L99.1369 63.8486L98.2205 64.7192L98.4725 65.2461V70.4696C98.4725 70.7216 98.6787 70.9507 98.9536 70.9507H104.704C104.956 70.9507 105.185 70.7445 105.185 70.4696V63.8028C105.162 63.5508 104.956 63.3446 104.681 63.3446ZM102.001 70.126C100.924 70.126 100.03 69.2554 100.03 68.1557C100.03 67.0789 100.901 66.1854 102.001 66.1854C103.1 66.1854 103.971 67.056 103.971 68.1557C103.948 69.2325 103.077 70.126 102.001 70.126ZM104.292 65.1545H99.6868L100.626 64.1235H103.948C104.131 64.1235 104.292 64.2839 104.292 64.4672V65.1545Z" fill="#ECECD8"/>
<path d="M102.001 66.4833C101.084 66.4833 100.328 67.2393 100.328 68.1557C100.328 69.0721 101.084 69.8281 102.001 69.8281C102.917 69.8281 103.673 69.0721 103.673 68.1557C103.673 67.2393 102.917 66.4833 102.001 66.4833Z" fill="#ECECD8"/>
<path d="M102.001 66.9415C102.001 66.9415 101.268 67.835 101.268 68.339C101.268 68.843 101.588 69.2554 102.001 69.2554C102.39 69.2554 102.734 68.843 102.734 68.339C102.711 67.835 102.001 66.9415 102.001 66.9415ZM101.909 69.2325C101.84 69.3012 101.68 69.1638 101.565 69.0034C101.451 68.843 101.405 68.6139 101.497 68.591C101.611 68.5681 101.543 68.6826 101.703 68.9347C101.817 69.1409 101.978 69.1638 101.909 69.2325Z" fill="#009444"/>
<path d="M98.1976 64.6046C98.1289 64.6734 98.0143 64.6734 97.9456 64.6046C97.8769 64.5359 97.8769 64.4214 97.9456 64.3526L98.7704 63.5737C98.8391 63.505 98.9536 63.505 99.0224 63.5737C99.0911 63.6424 99.0911 63.757 99.0224 63.8257L98.1976 64.6046Z" fill="#ECECD8"/>
<path d="M100.168 71.134C100.168 71.1798 100.122 71.2257 100.076 71.2257H99.3202C99.2744 71.2257 99.2286 71.1798 99.2286 71.134C99.2286 71.0882 99.2744 71.0424 99.3202 71.0424H100.076C100.122 71.0424 100.168 71.0882 100.168 71.134Z" fill="#ECECD8"/>
<path d="M104.521 71.134C104.521 71.1798 104.475 71.2257 104.429 71.2257H103.673C103.627 71.2257 103.582 71.1798 103.582 71.134C103.582 71.0882 103.627 71.0424 103.673 71.0424H104.429C104.475 71.0424 104.521 71.0882 104.521 71.134Z" fill="#ECECD8"/>
<path d="M90.0416 100.298C93.7236 100.298 96.7085 97.3137 96.7085 93.6317C96.7085 89.9497 93.7236 86.9648 90.0416 86.9648C86.3597 86.9648 83.3748 89.9497 83.3748 93.6317C83.3748 97.3137 86.3597 100.298 90.0416 100.298Z" fill="url(#paint7_radial_1644_126)"/>
<path d="M85.5054 94.9376C85.4824 94.9376 85.4595 94.9605 85.4595 94.9834C85.4595 95.0063 85.4824 95.0292 85.5054 95.0292H85.5283V95.0521C85.5283 95.075 85.5283 95.1208 85.5512 95.1208C85.5741 95.1438 85.597 95.1438 85.6199 95.1438H88.1171C88.1858 95.1438 88.2317 95.0979 88.2317 95.0292V91.9593C88.2317 91.8905 88.1858 91.8447 88.1171 91.8447H86.6967C86.6509 91.8447 86.6279 91.8676 86.605 91.8905L85.597 93.5171C85.597 93.5401 85.5741 93.5401 85.5741 93.563L85.5283 94.5939H85.5054C85.4824 94.5939 85.4595 94.6168 85.4595 94.6397C85.4595 94.6626 85.4824 94.6856 85.5054 94.6856H85.5283V94.7314H85.5054C85.4824 94.7314 85.4595 94.7543 85.4595 94.7772C85.4595 94.8001 85.4824 94.823 85.5054 94.823H85.5283V94.8917H85.5054V94.9376ZM86.101 95.0292V94.8917L86.353 94.823C86.3759 94.9147 86.4218 95.0292 86.4218 95.0292H86.101V95.0292ZM86.101 94.8459V94.6397C86.101 94.6397 86.2385 94.6397 86.2843 94.6856C86.3072 94.7085 86.3072 94.7314 86.3301 94.7772L86.101 94.8459ZM87.9109 93.7921H87.636C87.6131 93.7921 87.5902 93.7692 87.5902 93.7462C87.5902 93.7233 87.6131 93.7004 87.636 93.7004H87.9109C87.9338 93.7004 87.9567 93.7233 87.9567 93.7462C87.9567 93.7692 87.9338 93.7921 87.9109 93.7921ZM86.6738 92.1196C86.6967 92.0967 86.7196 92.0738 86.7425 92.0738H88.0026C88.0484 92.0738 88.0942 92.1196 88.0942 92.1655V93.5401H86.2156L85.9865 93.2193L86.6738 92.1196Z" fill="#ECECD8"/>
<path d="M94.1426 90.6992H88.6671C88.4838 90.6992 88.3463 90.8367 88.3463 91.02V94.823C88.3463 95.0063 88.4838 95.1438 88.6671 95.1438H94.1426C94.3258 95.1438 94.4633 95.0063 94.4633 94.823V91.02C94.4633 90.8596 94.3029 90.6992 94.1426 90.6992Z" fill="#ECECD8"/>
<path d="M94.3258 95.1896H88.4608C88.3921 95.1896 88.3463 95.2354 88.3463 95.2812C88.3463 95.2354 88.3005 95.1896 88.2317 95.1896H85.5513C85.4825 95.1896 85.4367 95.2354 85.4367 95.2812V95.5791C85.4367 95.6249 85.4825 95.6707 85.5513 95.6707H88.2317C88.3005 95.6707 88.3463 95.6249 88.3463 95.5791C88.3463 95.6249 88.3921 95.6707 88.4608 95.6707H94.3258C94.3945 95.6707 94.4404 95.6249 94.4404 95.5791V95.2812C94.4633 95.2354 94.3945 95.1896 94.3258 95.1896Z" fill="#ECECD8"/>
<path d="M87.2695 95.0292C86.7425 95.0292 86.3301 95.4416 86.3301 95.9685C86.3301 96.4955 86.7425 96.9078 87.2695 96.9078C87.7964 96.9078 88.2088 96.4955 88.2088 95.9685C88.2088 95.4416 87.7964 95.0292 87.2695 95.0292Z" fill="#3C2415"/>
<path d="M87.2694 95.0979C86.7883 95.0979 86.3759 95.4874 86.3759 95.9914C86.3759 96.4955 86.7654 96.8849 87.2694 96.8849C87.7505 96.8849 88.1629 96.4955 88.1629 95.9914C88.1629 95.4874 87.7505 95.0979 87.2694 95.0979ZM87.2694 96.4267C87.0174 96.4267 86.8112 96.2205 86.8112 95.9685C86.8112 95.7165 87.0174 95.5103 87.2694 95.5103C87.5214 95.5103 87.7276 95.7165 87.7276 95.9685C87.7276 96.2205 87.5214 96.4267 87.2694 96.4267Z" fill="#ECECD8"/>
<path d="M93.3865 96.9307C93.9053 96.9307 94.3258 96.5102 94.3258 95.9914C94.3258 95.4727 93.9053 95.0521 93.3865 95.0521C92.8678 95.0521 92.4472 95.4727 92.4472 95.9914C92.4472 96.5102 92.8678 96.9307 93.3865 96.9307Z" fill="#3C2415"/>
<path d="M93.3865 95.0979C92.9054 95.0979 92.493 95.4874 92.493 95.9914C92.493 96.4955 92.8825 96.8849 93.3865 96.8849C93.8676 96.8849 94.28 96.4955 94.28 95.9914C94.28 95.4874 93.8676 95.0979 93.3865 95.0979ZM93.3865 96.4267C93.1345 96.4267 92.9283 96.2205 92.9283 95.9685C92.9283 95.7165 93.1345 95.5103 93.3865 95.5103C93.6385 95.5103 93.8447 95.7165 93.8447 95.9685C93.8447 96.2205 93.6385 96.4267 93.3865 96.4267Z" fill="#ECECD8"/>
<path d="M65.4363 74.7538V83.5283L56.0203 83.7116C56.0203 83.7116 53.294 82.3599 53.0649 80.3209C52.8358 78.2819 55.4475 74.7767 55.4475 74.7767H65.4363V74.7538Z" fill="url(#paint8_linear_1644_126)"/>
<path d="M52.0568 81.1915C50.7509 78.9692 46.6271 71.9129 46.6271 71.9129C46.6271 71.9129 46.0085 69.5761 47.2686 67.9953C48.185 66.8269 49.1701 65.017 49.1701 65.017L46.2834 62.2907L56.1119 62.7489L60.7626 71.3173L57.7385 69.5532C57.7156 69.5303 50.5905 77.251 52.0568 81.1915Z" fill="url(#paint9_linear_1644_126)"/>
<path d="M72.0344 64.2381L78.747 58.6022L84.9327 65.6814C84.9327 65.6814 85.6429 68.6368 84.2225 70.126C82.8021 71.6151 78.4263 71.8671 78.4263 71.8671L72.0344 64.2381Z" fill="url(#paint10_linear_1644_126)"/>
<path d="M85.5742 70.3321C84.7036 72.7606 81.9773 80.4584 81.9773 80.4584C81.9773 80.4584 80.5798 82.4286 78.5637 82.4974C77.0974 82.5432 75.0355 82.9556 75.0355 82.9556L74.8064 86.919L68.8269 79.0838L72.4009 70.0114L72.9736 73.4708C72.9965 73.4937 83.4893 73.9977 85.5742 70.3321Z" fill="url(#paint11_linear_1644_126)"/>
<path d="M59.64 61.6263L51.9651 57.3651L56.3639 49.0487C56.3639 49.0487 58.884 47.3304 60.7626 48.1323C62.6412 48.9342 64.4511 52.9205 64.4511 52.9205L59.64 61.6263Z" fill="url(#paint12_linear_1644_126)"/>
<path d="M60.5106 46.8035C63.0765 46.7577 71.2554 46.5515 71.2554 46.5515C71.2554 46.5515 73.5922 47.1472 74.3711 49.0029C74.9439 50.3775 76.0665 52.1186 76.0665 52.1186L79.8466 50.9044L74.669 59.2895L64.9093 59.1749L67.9105 57.388C67.9334 57.4338 64.6802 47.445 60.5106 46.8035Z" fill="url(#paint13_linear_1644_126)"/>
<defs>
<radialGradient id="paint0_radial_1644_126" cx="0" cy="0" r="1" gradientUnits="userSpaceOnUse" gradientTransform="translate(40.1496 91.5446) scale(6.66809 6.66808)">
<stop stop-color="#412819"/>
<stop offset="0.535" stop-color="#694634"/>
<stop offset="1" stop-color="#3C2415"/>
</radialGradient>
<radialGradient id="paint1_radial_1644_126" cx="0" cy="0" r="1" gradientUnits="userSpaceOnUse" gradientTransform="translate(94.6784 43.2341) scale(6.66809 6.66809)">
<stop stop-color="#8DC63F"/>
<stop offset="0.0603014" stop-color="#88C13D"/>
<stop offset="0.4716" stop-color="#76A935"/>
<stop offset="0.7991" stop-color="#69992F"/>
<stop offset="1" stop-color="#65942D"/>
</radialGradient>
<radialGradient id="paint2_radial_1644_126" cx="0" cy="0" r="1" gradientUnits="userSpaceOnUse" gradientTransform="translate(37.3509 44.4179) scale(6.66774)">
<stop stop-color="#412819"/>
<stop offset="0.535" stop-color="#694634"/>
<stop offset="1" stop-color="#3C2415"/>
</radialGradient>
<radialGradient id="paint3_radial_1644_126" cx="0" cy="0" r="1" gradientUnits="userSpaceOnUse" gradientTransform="translate(31.6671 68.5142) scale(6.66779)">
<stop stop-color="#8DC63F"/>
<stop offset="0.0603014" stop-color="#88C13D"/>
<stop offset="0.4716" stop-color="#76A935"/>
<stop offset="0.7991" stop-color="#69992F"/>
<stop offset="1" stop-color="#65942D"/>
</radialGradient>
<radialGradient id="paint4_radial_1644_126" cx="0" cy="0" r="1" gradientUnits="userSpaceOnUse" gradientTransform="translate(66.9646 29.6682) scale(6.66786)">
<stop stop-color="#5BBA47"/>
<stop offset="1" stop-color="#009444"/>
</radialGradient>
<radialGradient id="paint5_radial_1644_126" cx="0" cy="0" r="1" gradientUnits="userSpaceOnUse" gradientTransform="translate(65.599 102.932) scale(6.66809 6.66809)">
<stop stop-color="#5BBA47"/>
<stop offset="1" stop-color="#009444"/>
</radialGradient>
<radialGradient id="paint6_radial_1644_126" cx="0" cy="0" r="1" gradientUnits="userSpaceOnUse" gradientTransform="translate(102.046 67.0409) scale(6.66774 6.66774)">
<stop stop-color="#5E7E39"/>
<stop offset="1" stop-color="#009444"/>
</radialGradient>
<radialGradient id="paint7_radial_1644_126" cx="0" cy="0" r="1" gradientUnits="userSpaceOnUse" gradientTransform="translate(90.0329 93.6208) scale(6.66774 6.66774)">
<stop stop-color="#8DC63F"/>
<stop offset="0.0603014" stop-color="#88C13D"/>
<stop offset="0.4716" stop-color="#76A935"/>
<stop offset="0.7991" stop-color="#69992F"/>
<stop offset="1" stop-color="#65942D"/>
</radialGradient>
<linearGradient id="paint8_linear_1644_126" x1="53.0634" y1="79.226" x2="65.436" y2="79.226" gradientUnits="userSpaceOnUse">
<stop stop-color="#8DC63F"/>
<stop offset="0.0603014" stop-color="#88C13D"/>
<stop offset="0.4716" stop-color="#76A935"/>
<stop offset="0.7991" stop-color="#69992F"/>
<stop offset="1" stop-color="#65942D"/>
</linearGradient>
<linearGradient id="paint9_linear_1644_126" x1="46.2652" y1="71.7383" x2="60.7416" y2="71.7383" gradientUnits="userSpaceOnUse">
<stop stop-color="#8DC63F"/>
<stop offset="0.0603014" stop-color="#88C13D"/>
<stop offset="0.4716" stop-color="#76A935"/>
<stop offset="0.7991" stop-color="#69992F"/>
<stop offset="1" stop-color="#65942D"/>
</linearGradient>
<linearGradient id="paint10_linear_1644_126" x1="72.0449" y1="65.2361" x2="85.1294" y2="65.2361" gradientUnits="userSpaceOnUse">
<stop stop-color="#8DC63F"/>
<stop offset="0.0603014" stop-color="#88C13D"/>
<stop offset="0.4716" stop-color="#76A935"/>
<stop offset="0.7991" stop-color="#69992F"/>
<stop offset="1" stop-color="#65942D"/>
</linearGradient>
<linearGradient id="paint11_linear_1644_126" x1="68.8495" y1="78.4887" x2="85.581" y2="78.4887" gradientUnits="userSpaceOnUse">
<stop stop-color="#8DC63F"/>
<stop offset="0.0603014" stop-color="#88C13D"/>
<stop offset="0.4716" stop-color="#76A935"/>
<stop offset="0.7991" stop-color="#69992F"/>
<stop offset="1" stop-color="#65942D"/>
</linearGradient>
<linearGradient id="paint12_linear_1644_126" x1="51.9743" y1="54.7831" x2="64.4851" y2="54.7831" gradientUnits="userSpaceOnUse">
<stop stop-color="#8DC63F"/>
<stop offset="0.0603014" stop-color="#88C13D"/>
<stop offset="0.4716" stop-color="#76A935"/>
<stop offset="0.7991" stop-color="#69992F"/>
<stop offset="1" stop-color="#65942D"/>
</linearGradient>
<linearGradient id="paint13_linear_1644_126" x1="60.5043" y1="52.9374" x2="79.8495" y2="52.9374" gradientUnits="userSpaceOnUse">
<stop stop-color="#8DC63F"/>
<stop offset="0.0603014" stop-color="#88C13D"/>
<stop offset="0.4716" stop-color="#76A935"/>
<stop offset="0.7991" stop-color="#69992F"/>
<stop offset="1" stop-color="#65942D"/>
</linearGradient>
</defs>
</svg>
