<svg width="120" height="120" viewBox="0 0 120 120" fill="none" xmlns="http://www.w3.org/2000/svg">
<circle cx="61.4211" cy="61.4211" r="58.4211" fill="#E6EDB7"/>
<circle cx="108.947" cy="6.31579" r="6.31579" fill="#F1BC19"/>
<circle cx="6.31579" cy="86.8421" r="6.31579" fill="#F1BC19"/>
<circle r="3.15789" transform="matrix(1 0 0 -1 9.47369 64.7369)" fill="white"/>
<circle r="2.36842" transform="matrix(1 0 0 -1 103.421 35.5263)" fill="white"/>
<circle cx="115.263" cy="96.3158" r="3.15789" fill="#F1BC19"/>
<circle cx="99.4737" cy="3.1579" r="1.57895" fill="#F1BC19"/>
<circle cx="114.474" cy="21.3158" r="2.36842" fill="#88AE45"/>
<circle cx="75.5" cy="53.5" r="28.5" fill="#F8FECF"/>
<path d="M94.7123 68.2125L89.5187 62.194C93.9238 58.1394 95.0668 51.2973 95.0877 48.383C93.4608 29.0604 73.6877 25.1325 65.2404 26.1462C46.5686 29.1364 42.0258 42.2167 42.0883 48.383C42.5389 63.2836 56.7304 70.3031 65.2404 71H93.4608C95.2754 70.6832 95.0877 68.9094 94.7123 68.2125Z" fill="url(#paint0_linear_924_144)"/>
<path d="M27.3777 90.2301L32.6027 84.2497C28.1709 80.2208 27.021 73.422 27 70.5262C28.6367 51.3259 48.5295 47.4229 57.028 48.4302C75.8128 51.4015 80.3831 64.3989 80.3201 70.5262C79.8669 85.3325 65.5894 92.3075 57.028 93H28.6367C26.8111 92.6852 27 90.9226 27.3777 90.2301Z" fill="url(#paint1_linear_924_144)"/>
<circle cx="42.3602" cy="70.6957" r="3.7771" fill="#0059AA"/>
<circle cx="53.6915" cy="70.6957" r="3.7771" fill="#0059AA"/>
<circle cx="65.0229" cy="70.6957" r="3.7771" fill="#0059AA"/>
<defs>
<linearGradient id="paint0_linear_924_144" x1="68.5877" y1="26" x2="42.0877" y2="26" gradientUnits="userSpaceOnUse">
<stop stop-color="#136EF1"/>
<stop stop-color="#157FF8" stop-opacity="0.372269"/>
<stop offset="0.0001" stop-color="#1689FC"/>
<stop offset="1" stop-color="#1689FC"/>
</linearGradient>
<linearGradient id="paint1_linear_924_144" x1="53.6604" y1="48.2849" x2="27" y2="48.2849" gradientUnits="userSpaceOnUse">
<stop stop-color="#FEA832"/>
<stop stop-color="#FFCC33"/>
<stop offset="1" stop-color="#FFCC33"/>
</linearGradient>
</defs>
</svg>
