<svg width="130" height="130" viewBox="0 0 130 130" fill="none" xmlns="http://www.w3.org/2000/svg">
<circle cx="66.5789" cy="66.5789" r="58.4211" fill="#CEECD3"/>
<circle cx="113.947" cy="11.3158" r="6.31579" fill="#76FD8C"/>
<circle cx="11.3158" cy="91.8422" r="6.31579" fill="#76FD8C"/>
<circle r="3.15789" transform="matrix(1 0 0 -1 14.4737 69.7369)" fill="white"/>
<circle r="2.36842" transform="matrix(1 0 0 -1 108.421 40.5263)" fill="white"/>
<circle cx="120.263" cy="101.316" r="3.15789" fill="#76FD8C"/>
<circle cx="104.474" cy="8.15793" r="1.57895" fill="#76FD8C"/>
<circle cx="119.474" cy="26.3158" r="2.36842" fill="#1BB934"/>
<circle cx="79.5" cy="50.5" r="28.5" fill="#DFF3E3"/>
<path fill-rule="evenodd" clip-rule="evenodd" d="M98.896 120.706C98.7663 120.603 98.6175 120.527 98.4582 120.481C98.2989 120.436 98.1322 120.423 97.9677 120.442C97.8031 120.461 97.6439 120.513 97.4991 120.593C97.3543 120.674 97.2268 120.782 97.1238 120.912C97.0208 121.042 96.9444 121.191 96.8989 121.351C96.8534 121.51 96.8398 121.677 96.8587 121.842C96.8777 122.006 96.9288 122.165 97.0093 122.31C97.0898 122.455 97.198 122.582 97.3278 122.685C97.5899 122.893 97.9238 122.988 98.2562 122.949C98.5885 122.91 98.8921 122.741 99.1001 122.478C99.308 122.216 99.4034 121.882 99.3651 121.549C99.3268 121.217 99.1581 120.913 98.896 120.706Z" fill="#BFC7D2"/>
<path d="M22.7246 11.4067L23.383 11.9287C23.5576 12.0672 23.67 12.2694 23.6954 12.491C23.7208 12.7125 23.6572 12.9352 23.5186 13.1101C23.3799 13.285 23.1776 13.3977 22.9561 13.4235C22.7346 13.4492 22.512 13.3859 22.3374 13.2475L21.679 12.7255L21.1562 13.3849C21.0176 13.5598 20.8152 13.6725 20.5937 13.6983C20.3722 13.724 20.1497 13.6607 19.9751 13.5223C19.8005 13.3839 19.6881 13.1816 19.6627 12.9601C19.6372 12.7385 19.7009 12.5158 19.8395 12.3409L20.3623 11.6815L19.7039 11.1595C19.5293 11.0211 19.417 10.8189 19.3915 10.5973C19.3661 10.3758 19.4297 10.153 19.5684 9.97816C19.707 9.80328 19.9094 9.69056 20.1309 9.66479C20.3524 9.63902 20.5749 9.70232 20.7495 9.84076L21.4079 10.3628L21.9307 9.70337C22.0694 9.52849 22.2717 9.41576 22.4932 9.39C22.7147 9.36423 22.9373 9.42753 23.1119 9.56597C23.2865 9.70441 23.3989 9.90665 23.4243 10.1282C23.4497 10.3498 23.3861 10.5725 23.2474 10.7473L22.7246 11.4067Z" fill="#BFC7D2"/>
<path d="M11.7246 25.4067L12.383 25.9287C12.5576 26.0672 12.67 26.2694 12.6954 26.491C12.7208 26.7125 12.6572 26.9352 12.5186 27.1101C12.3799 27.285 12.1776 27.3977 11.9561 27.4235C11.7346 27.4492 11.512 27.3859 11.3374 27.2475L10.679 26.7255L10.1562 27.3849C10.0176 27.5598 9.81525 27.6725 9.59374 27.6983C9.37222 27.724 9.1497 27.6607 8.97509 27.5223C8.80048 27.3839 8.68809 27.1816 8.66267 26.9601C8.63725 26.7385 8.70087 26.5158 8.83952 26.3409C8.83952 26.3409 9.40029 26.008 9.36232 25.6815C9.32441 25.3556 8.70395 25.1595 8.70395 25.1595C8.52934 25.0211 8.41697 24.8189 8.39154 24.5973C8.36612 24.3758 8.42973 24.153 8.56838 23.9782C8.70704 23.8033 8.90938 23.6906 9.13089 23.6648C9.3524 23.639 9.57494 23.7023 9.74955 23.8408L10.4079 24.3628L10.9307 23.7034C11.0694 23.5285 11.2717 23.4158 11.4932 23.39C11.7147 23.3642 11.9373 23.4275 12.1119 23.566C12.2865 23.7044 12.3989 23.9066 12.4243 24.1282C12.4497 24.3498 12.3861 24.5725 12.2474 24.7473L11.7246 25.4067Z" fill="#BFC7D2"/>
<path d="M110.08 104.013H103.526V104.072H110.08V104.013Z" fill="#EBEBEB"/>
<path d="M86.5776 104.548H84.855V104.607H86.5776V104.548Z" fill="#EBEBEB"/>
<path d="M103.328 102.172H99.5269V102.231H103.328V102.172Z" fill="#EBEBEB"/>
<path d="M39.9486 102.508H31.395V102.568H39.9486V102.508Z" fill="#EBEBEB"/>
<path d="M42.9582 102.508H41.7108V102.568H42.9582V102.508Z" fill="#EBEBEB"/>
<path d="M65.5896 103.34H47.037V103.399H65.5896V103.34Z" fill="#EBEBEB"/>
<path d="M67.926 91.9944H29.6922C29.0784 91.9944 28.5636 91.4796 28.5636 90.8658V37.1286C28.5636 36.5148 29.0784 36 29.6922 36H67.926C68.5398 36 69.0546 36.5148 69.0546 37.1286V90.8658C69.0546 91.4796 68.5596 91.9944 67.926 91.9944ZM29.6922 36.0396C29.0982 36.0396 28.6032 36.5148 28.6032 37.1286V90.8658C28.6032 91.4598 29.0784 91.9548 29.6922 91.9548H67.926C68.52 91.9548 69.015 91.4796 69.015 90.8658V37.1286C69.015 36.5346 68.5398 36.0396 67.926 36.0396H29.6922Z" fill="#EBEBEB"/>
<path d="M110.753 91.9944H72.5196C71.9058 91.9944 71.391 91.4796 71.391 90.8658V37.1286C71.391 36.5148 71.9058 36 72.5196 36H110.753C111.367 36 111.882 36.5148 111.882 37.1286V90.8658C111.882 91.4796 111.387 91.9944 110.753 91.9944ZM72.5196 36.0396C71.9256 36.0396 71.4306 36.5148 71.4306 37.1286V90.8658C71.4306 91.4598 71.9058 91.9548 72.5196 91.9548H110.753C111.347 91.9548 111.842 91.4796 111.842 90.8658V37.1286C111.842 36.5346 111.367 36.0396 110.753 36.0396H72.5196Z" fill="#EBEBEB"/>
<path d="M120 100.825H21V100.885H120V100.825Z" fill="#EBEBEB"/>
<path d="M96.0816 50.9093C99.0669 50.9093 101.487 48.4892 101.487 45.5039C101.487 42.5186 99.0669 40.0985 96.0816 40.0985C93.0962 40.0985 90.6761 42.5186 90.6761 45.5039C90.6761 48.4892 93.0962 50.9093 96.0816 50.9093Z" fill="#F0F0F0"/>
<path d="M96.1014 51.0281C93.0522 51.0281 90.5772 48.5531 90.5772 45.5039C90.5772 42.4547 93.0522 39.9797 96.1014 39.9797V40.2173C93.1908 40.2173 90.8148 42.5933 90.8148 45.5039C90.8148 48.4145 93.1908 50.7905 96.1014 50.7905V51.0281Z" fill="white"/>
<path d="M96.1013 51.0281V50.7905C99.0119 50.7905 101.388 48.4145 101.388 45.5039C101.388 42.5933 99.0119 40.2173 96.1013 40.2173V39.9797C99.1505 39.9797 101.626 42.4547 101.626 45.5039C101.626 48.5531 99.1307 51.0281 96.1013 51.0281Z" fill="white"/>
<path d="M98.913 45.504H98.6754C98.6754 43.722 97.7646 41.3262 96.0222 40.1976L96.1608 39.9996C97.9626 41.1678 98.913 43.6428 98.913 45.504Z" fill="white"/>
<path d="M96.1608 50.85L96.0222 50.652C97.7646 49.5432 98.6754 47.1474 98.6754 45.3456H98.913C98.913 47.187 97.9626 49.6818 96.1608 50.85Z" fill="white"/>
<path d="M93.5076 45.5042H93.27C93.27 43.643 94.2204 41.168 96.0222 39.9998L96.1608 40.1978C94.4184 41.3066 93.5076 43.7024 93.5076 45.5042Z" fill="white"/>
<path d="M96.0222 50.85C94.2204 49.6818 93.27 47.2068 93.27 45.3456H93.5076C93.5076 47.1276 94.4184 49.5234 96.1608 50.652L96.0222 50.85Z" fill="white"/>
<path d="M96.2004 40.0985H95.9628V50.9093H96.2004V40.0985Z" fill="white"/>
<path d="M100.675 42.4944H91.5276V42.732H100.675V42.4944Z" fill="white"/>
<path d="M101.487 45.4644H90.696V45.702H101.487V45.4644Z" fill="white"/>
<path d="M100.556 48.4344H91.6464V48.672H100.556V48.4344Z" fill="white"/>
<path d="M34.2461 96.3702H31.5137V97.083H34.2461V96.3702Z" fill="#E6E6E6"/>
<path d="M55.4123 96.3702H52.6799V97.083H55.4123V96.3702Z" fill="#E6E6E6"/>
<path d="M36.5628 96.7266H35.85V100.944H36.5628V96.7266Z" fill="#E0E0E0"/>
<path d="M53.3928 76.9266H33.8502V78.4512H53.3928V76.9266Z" fill="#E6E6E6"/>
<path d="M53.3928 95.9742H33.8502V97.4988H53.3928V95.9742Z" fill="#E6E6E6"/>
<path d="M34.5828 98.9838L34.5234 99.0432C34.3056 99.2808 33.9294 99.2808 33.7116 99.0432L33.6522 98.9838C33.474 98.7858 33.375 98.5482 33.375 98.271V77.3424C33.375 77.085 33.474 76.8276 33.6522 76.6296L33.7116 76.5702C33.9294 76.3326 34.3056 76.3326 34.5234 76.5702L34.5828 76.6296C34.761 76.8276 34.86 77.0652 34.86 77.3424V98.2908C34.86 98.5482 34.761 98.8056 34.5828 98.9838Z" fill="#F0F0F0"/>
<path d="M36.6816 98.9838L36.6222 99.0432C36.4044 99.2808 36.0282 99.2808 35.8104 99.0432L35.751 98.9838C35.5728 98.7858 35.4738 98.5482 35.4738 98.271V77.3424C35.4738 77.085 35.5728 76.8276 35.751 76.6296L35.8104 76.5702C36.0282 76.3326 36.4044 76.3326 36.6222 76.5702L36.6816 76.6296C36.8598 76.8276 36.9588 77.0652 36.9588 77.3424V98.2908C36.9588 98.5482 36.8598 98.8056 36.6816 98.9838Z" fill="#F0F0F0"/>
<path d="M38.7606 98.9838L38.7012 99.0432C38.4834 99.2808 38.1072 99.2808 37.8894 99.0432L37.83 98.9838C37.6518 98.7858 37.5528 98.5482 37.5528 98.271V77.3424C37.5528 77.085 37.6518 76.8276 37.83 76.6296L37.8894 76.5702C38.1072 76.3326 38.4834 76.3326 38.7012 76.5702L38.7606 76.6296C38.9388 76.8276 39.0378 77.0652 39.0378 77.3424V98.2908C39.0378 98.5482 38.9388 98.8056 38.7606 98.9838Z" fill="#F0F0F0"/>
<path d="M40.8594 98.9838L40.8 99.0432C40.5822 99.2808 40.206 99.2808 39.9882 99.0432L39.9288 98.9838C39.7506 98.7858 39.6516 98.5482 39.6516 98.271V77.3424C39.6516 77.085 39.7506 76.8276 39.9288 76.6296L39.9882 76.5702C40.206 76.3326 40.5822 76.3326 40.8 76.5702L40.8594 76.6296C41.0376 76.8276 41.1366 77.0652 41.1366 77.3424V98.2908C41.1366 98.5482 41.0376 98.8056 40.8594 98.9838Z" fill="#F0F0F0"/>
<path d="M42.9384 98.9838L42.879 99.0432C42.6612 99.2808 42.285 99.2808 42.0672 99.0432L42.0078 98.9838C41.8296 98.7858 41.7306 98.5482 41.7306 98.271V77.3424C41.7306 77.085 41.8296 76.8276 42.0078 76.6296L42.0672 76.5702C42.285 76.3326 42.6612 76.3326 42.879 76.5702L42.9384 76.6296C43.1166 76.8276 43.2156 77.0652 43.2156 77.3424V98.2908C43.2156 98.5482 43.1166 98.8056 42.9384 98.9838Z" fill="#F0F0F0"/>
<path d="M45.0371 98.9838L44.9777 99.0432C44.7599 99.2808 44.3837 99.2808 44.1659 99.0432L44.1065 98.9838C43.9283 98.7858 43.8293 98.5482 43.8293 98.271V77.3424C43.8293 77.085 43.9283 76.8276 44.1065 76.6296L44.1659 76.5702C44.3837 76.3326 44.7599 76.3326 44.9777 76.5702L45.0371 76.6296C45.2153 76.8276 45.3143 77.0652 45.3143 77.3424V98.2908C45.3143 98.5482 45.2153 98.8056 45.0371 98.9838Z" fill="#F0F0F0"/>
<path d="M47.1162 98.9838L47.0568 99.0432C46.839 99.2808 46.4628 99.2808 46.245 99.0432L46.1856 98.9838C46.0074 98.7858 45.9084 98.5482 45.9084 98.271V77.3424C45.9084 77.085 46.0074 76.8276 46.1856 76.6296L46.245 76.5702C46.4628 76.3326 46.839 76.3326 47.0568 76.5702L47.1162 76.6296C47.2944 76.8276 47.3934 77.0652 47.3934 77.3424V98.2908C47.3934 98.5482 47.2944 98.8056 47.1162 98.9838Z" fill="#F0F0F0"/>
<path d="M49.2149 98.9838L49.1555 99.0432C48.9377 99.2808 48.5615 99.2808 48.3437 99.0432L48.2843 98.9838C48.1061 98.7858 48.0071 98.5482 48.0071 98.271V77.3424C48.0071 77.085 48.1061 76.8276 48.2843 76.6296L48.3437 76.5702C48.5615 76.3326 48.9377 76.3326 49.1555 76.5702L49.2149 76.6296C49.3931 76.8276 49.4921 77.0652 49.4921 77.3424V98.2908C49.4921 98.5482 49.3931 98.8056 49.2149 98.9838Z" fill="#F0F0F0"/>
<path d="M50.799 96.7266H50.0862V100.944H50.799V96.7266Z" fill="#E0E0E0"/>
<path d="M51.294 98.9838L51.2346 99.0432C51.0168 99.2808 50.6406 99.2808 50.4228 99.0432L50.3634 98.9838C50.1852 98.7858 50.0862 98.5482 50.0862 98.271V77.3424C50.0862 77.085 50.1852 76.8276 50.3634 76.6296L50.4228 76.5702C50.6406 76.3326 51.0168 76.3326 51.2346 76.5702L51.294 76.6296C51.4722 76.8276 51.5712 77.0652 51.5712 77.3424V98.2908C51.591 98.5482 51.4722 98.8056 51.294 98.9838Z" fill="#F0F0F0"/>
<path d="M53.3928 98.9838L53.3334 99.0432C53.1156 99.2808 52.7394 99.2808 52.5216 99.0432L52.4622 98.9838C52.284 98.7858 52.185 98.5482 52.185 98.271V77.3424C52.185 77.085 52.284 76.8276 52.4622 76.6296L52.5216 76.5702C52.7394 76.3326 53.1156 76.3326 53.3334 76.5702L53.3928 76.6296C53.571 76.8276 53.67 77.0652 53.67 77.3424V98.2908C53.67 98.5482 53.571 98.8056 53.3928 98.9838Z" fill="#F0F0F0"/>
<path d="M55.5708 94.3704H54.858V100.924H55.5708V94.3704Z" fill="#F5F5F5"/>
<path d="M97.9428 90.1134C97.9428 90.1134 97.0122 79.758 92.2206 69.8184C92.2206 69.8184 99.3288 76.4514 99.5664 90.1134H97.9428Z" fill="#F5F5F5"/>
<path d="M99.0714 91.7171C99.0714 91.7171 95.2104 73.6991 95.9034 64.1555C95.9034 64.1555 101.071 74.7881 100.814 90.8459L99.0714 91.7171Z" fill="#F5F5F5"/>
<path d="M101.923 90.5688C101.923 90.5688 102.299 78.8076 104.18 72.9864C104.18 72.9864 105.764 80.3718 103.13 90.2916L101.923 90.5688Z" fill="#E6E6E6"/>
<path d="M100.814 90.8262C100.814 90.8262 99.5664 75.1446 103.051 68.0958C103.051 68.0958 103.427 82.3518 102.556 90.8262H100.814Z" fill="#E6E6E6"/>
<path d="M104.794 100.865H96.9131L95.7845 89.2422H105.922L104.794 100.865Z" fill="#F0F0F0"/>
<path d="M103.744 90.9252C103.744 90.9252 104.675 80.5698 109.466 70.6302C109.466 70.6302 102.358 77.2632 102.121 90.9252H103.744Z" fill="#F5F5F5"/>
<path d="M69.5496 109.003C90.753 109.003 107.942 108.001 107.942 106.765C107.942 105.529 90.753 104.528 69.5496 104.528C48.3462 104.528 31.1574 105.529 31.1574 106.765C31.1574 108.001 48.3462 109.003 69.5496 109.003Z" fill="#F5F5F5"/>
<path d="M53.4522 104.449V105.023C53.4522 105.32 53.6898 105.557 53.9868 105.557H74.6976C74.9748 105.557 75.1926 105.34 75.1926 105.062V104.508C75.1926 104.231 74.9748 104.013 74.6976 104.013H69.5496C68.9556 104.013 68.52 103.478 68.619 102.904L70.4208 92.4696H58.6596L53.6304 103.617C53.5116 103.874 53.4522 104.171 53.4522 104.449Z" fill="#263238"/>
<path opacity="0.2" d="M75.2124 104.508V105.062C75.2124 105.34 74.9946 105.557 74.7174 105.557H53.9868C53.6898 105.557 53.4522 105.32 53.4522 105.023V104.449C53.4522 104.29 53.472 104.152 53.5116 103.993C53.5512 103.855 53.5908 103.736 53.6304 103.617L58.6596 92.4696H70.4208L68.619 102.904C68.5992 102.964 68.5992 103.023 68.5992 103.082C68.5992 103.518 68.916 103.894 69.3516 103.973C69.411 103.993 69.4704 103.993 69.5496 103.993H74.6976C74.9748 104.013 75.2124 104.251 75.2124 104.508Z" fill="white"/>
<path d="M52.9572 103.617L57.9864 92.4696H58.6596L53.6304 103.617C53.5116 103.874 53.4522 104.152 53.4522 104.449V105.023C53.4522 105.32 53.6898 105.557 53.9868 105.557H53.3136C53.0166 105.557 52.779 105.32 52.779 105.023V104.449C52.779 104.171 52.8384 103.874 52.9572 103.617Z" fill="#263238"/>
<path opacity="0.3" d="M58.6596 92.4696H70.4406L69.9654 95.1426H57.4716L58.6596 92.4696Z" fill="black"/>
<path d="M90.8346 93.6378H40.6416C39.6318 93.6378 38.7408 92.826 38.6418 91.7964L35.4738 55.5228C35.3946 54.513 36.1272 53.6814 37.1568 53.6814H87.3498C88.3596 53.6814 89.2506 54.4932 89.3496 55.5228L92.5176 91.7964C92.5968 92.826 91.8642 93.6378 90.8346 93.6378Z" fill="#263238"/>
<path d="M92.181 87.8958L92.5176 91.8162C92.5968 92.826 91.8642 93.6576 90.8346 93.6576H40.6416C39.6318 93.6576 38.7408 92.8458 38.6418 91.8162L38.3052 87.8958H92.181Z" fill="#407BFF"/>
<path opacity="0.6" d="M92.181 87.8958L92.5176 91.8162C92.5968 92.826 91.8642 93.6576 90.8346 93.6576H40.6416C39.6318 93.6576 38.7408 92.8458 38.6418 91.8162L38.3052 87.8958H92.181Z" fill="white"/>
<path d="M40.0674 86.787H90.201C90.7554 86.787 91.1514 86.3316 91.1118 85.797L88.4982 55.8C88.4586 55.2456 87.9636 54.81 87.4092 54.81H37.2756C36.7212 54.81 36.3252 55.2654 36.3648 55.8L38.9784 85.7772C39.0378 86.3316 39.5328 86.787 40.0674 86.787Z" fill="#407BFF"/>
<path opacity="0.6" d="M40.0674 86.787H90.201C90.7554 86.787 91.1514 86.3316 91.1118 85.797L88.4982 55.8C88.4586 55.2456 87.9636 54.81 87.4092 54.81H37.2756C36.7212 54.81 36.3252 55.2654 36.3648 55.8L38.9784 85.7772C39.0378 86.3316 39.5328 86.787 40.0674 86.787Z" fill="white"/>
<path d="M36.048 53.7014H37.1568C36.147 53.7014 35.3946 54.5132 35.4738 55.5428L38.6418 91.8164C38.721 92.8262 39.6318 93.6578 40.6416 93.6578H39.5328C38.523 93.6578 37.632 92.846 37.533 91.8164L34.365 55.5428C34.266 54.533 35.0184 53.7014 36.048 53.7014Z" fill="#407BFF"/>
<path opacity="0.3" d="M36.048 53.7014H37.1568C36.147 53.7014 35.3946 54.5132 35.4738 55.5428L38.6418 91.8164C38.721 92.8262 39.6318 93.6578 40.6416 93.6578H39.5328C38.523 93.6578 37.632 92.846 37.533 91.8164L34.365 55.5428C34.266 54.533 35.0184 53.7014 36.048 53.7014Z" fill="white"/>
<path opacity="0.2" d="M80.4594 80.2134H52.6008L51.1554 63.7596H79.014L80.4594 80.2134Z" fill="#263238"/>
<path d="M69.0942 70.1748C69.2526 72.0954 67.8468 73.6398 65.9262 73.6398C64.0056 73.6398 62.3226 72.0954 62.1642 70.1748C62.0058 68.2542 63.4116 66.7098 65.3322 66.7098C67.2528 66.7098 68.9358 68.2542 69.0942 70.1748Z" fill="white"/>
<path d="M67.53 70.2936L64.5006 68.6304L64.7976 71.9568L67.53 70.2936Z" fill="#263238"/>
<path d="M79.806 76.986H52.6998L52.6404 76.4514H79.7664L79.806 76.986Z" fill="white"/>
<path d="M67.8864 76.986H52.6998L52.6404 76.4514H67.8468L67.8864 76.986Z" fill="#407BFF"/>
<path d="M53.1552 78.9662H52.8978L52.7988 77.9366H53.0562L53.1552 78.9662Z" fill="white"/>
<path d="M53.6106 78.966H53.3532L53.2542 77.9364H53.5314L53.6106 78.966Z" fill="white"/>
<path d="M55.9668 78.9662H54.9372L54.8382 77.9366H55.8678L55.9668 78.9662Z" fill="white"/>
<path d="M57.333 78.4512L58.1646 77.9364L58.2636 78.966L57.333 78.4512Z" fill="white"/>
<path d="M57.3726 78.966H57.1152L57.0162 77.9364H57.2736L57.3726 78.966Z" fill="white"/>
<path d="M60.204 78.4512L59.2734 77.9364L59.3724 78.966L60.204 78.4512Z" fill="white"/>
<path d="M60.2634 78.966H60.5208L60.4218 77.9364H60.1644L60.2634 78.966Z" fill="white"/>
<path d="M62.1246 77.9166L61.6692 78.5304H62.6988L62.1246 77.9166Z" fill="white"/>
<path d="M62.7582 78.9858L62.7186 78.7086H61.6692L61.689 78.9858H62.7582Z" fill="white"/>
<path d="M80.004 79.0451H78.024L77.925 77.8373H79.905L80.004 79.0451ZM78.1626 78.8669H79.806L79.7268 77.9957H78.0834L78.1626 78.8669Z" fill="white"/>
<path d="M76.5588 79.0451H76.1628L76.1232 78.6887L76.3014 78.6689V78.8669H76.5588V79.0451Z" fill="white"/>
<path d="M77.4498 79.0451H77.0538V78.8669H77.2716L77.2518 78.6887L77.4102 78.6689L77.4498 79.0451Z" fill="white"/>
<path d="M77.2122 78.2135L77.1924 77.9957H76.9548V77.8373H77.3508L77.3706 78.1937L77.2122 78.2135Z" fill="white"/>
<path d="M76.0836 78.2135L76.044 77.8373H76.4598V77.9957H76.242V78.1937L76.0836 78.2135Z" fill="white"/>
<g opacity="0.1">
<path d="M76.7568 76.4514L76.6182 76.986L76.4202 77.9166L76.2222 78.768L75.8856 80.2134H76.6974L77.232 77.9166L77.43 76.986L77.5686 76.4514L79.41 68.274" fill="white"/>
<path d="M76.7568 76.4514L76.6182 76.986L76.4202 77.9166L76.2222 78.768L75.8856 80.2134H76.6974L77.232 77.9166L77.43 76.986L77.5686 76.4514L79.41 68.274" stroke="#263238" stroke-miterlimit="10" stroke-linecap="round" stroke-linejoin="round"/>
</g>
<path d="M79.014 63.7596H51.1554L51.0366 62.2746H78.8952L79.014 63.7596Z" fill="#407BFF"/>
<path d="M53.1354 63.0269C53.1552 63.2843 52.977 63.4823 52.7196 63.4823C52.4622 63.4823 52.2444 63.2843 52.2246 63.0269C52.2048 62.7695 52.383 62.5715 52.6404 62.5715C52.8978 62.5715 53.1156 62.7695 53.1354 63.0269Z" fill="white"/>
<path d="M54.5214 63.0269C54.5412 63.2843 54.363 63.4823 54.1056 63.4823C53.8482 63.4823 53.6304 63.2843 53.6106 63.0269C53.5908 62.7695 53.769 62.5715 54.0264 62.5715C54.2838 62.5715 54.5016 62.7695 54.5214 63.0269Z" fill="white"/>
<path d="M55.8876 63.0269C55.9074 63.2843 55.7292 63.4823 55.4718 63.4823C55.2144 63.4823 54.9966 63.2843 54.9768 63.0269C54.957 62.7695 55.1352 62.5715 55.3926 62.5715C55.65 62.5715 55.8678 62.7695 55.8876 63.0269Z" fill="white"/>
<g opacity="0.1">
<path d="M57.9468 54.81H56.0262L49.215 86.787H51.1554L57.9468 54.81Z" fill="white"/>
<path d="M47.2746 86.787L54.066 54.81H46.8192L40.0278 86.787H47.2746Z" fill="white"/>
</g>
<path opacity="0.2" d="M57.036 104.528V105.062C57.036 105.359 57.2736 105.577 57.5508 105.577H74.6976C74.9748 105.577 75.1926 105.359 75.1926 105.082V104.508C75.1926 104.231 74.9748 104.013 74.6976 104.013H69.5496C69.4902 104.013 69.411 104.013 69.3516 103.993H57.5508C57.2538 103.993 57.036 104.231 57.036 104.528Z" fill="white"/>
<path opacity="0.2" d="M53.5116 103.993H69.3714C68.9556 103.914 68.6388 103.538 68.619 103.102H53.9076L53.5116 103.993Z" fill="black"/>
<path d="M86.7558 70.1351H66.936L66.7974 68.5313H86.6172L86.7558 70.1351Z" fill="#263238"/>
<path d="M69.0348 69.3431C69.0546 69.6203 68.8566 69.8381 68.5794 69.8381C68.3022 69.8381 68.0646 69.6203 68.0448 69.3431C68.025 69.0659 68.223 68.8481 68.5002 68.8481C68.7774 68.8481 69.015 69.0659 69.0348 69.3431Z" fill="white"/>
<path d="M70.5 69.3431C70.5198 69.6203 70.3218 69.8381 70.0446 69.8381C69.7674 69.8381 69.5298 69.6203 69.51 69.3431C69.4902 69.0659 69.6882 68.8481 69.9654 68.8481C70.2426 68.8481 70.4802 69.0659 70.5 69.3431Z" fill="white"/>
<path d="M71.9851 69.3431C72.0049 69.6203 71.8069 69.8381 71.5297 69.8381C71.2525 69.8381 71.0149 69.6203 70.9951 69.3431C70.9753 69.0659 71.1733 68.8481 71.4505 68.8481C71.7079 68.8481 71.9653 69.0659 71.9851 69.3431Z" fill="white"/>
<path opacity="0.2" d="M67.5498 89.658L65.8074 69.8382H85.6272L87.3696 89.658H67.5498Z" fill="black"/>
<path d="M88.3398 88.3511H68.52L66.7974 68.5313H86.6172L88.3398 88.3511Z" fill="#407BFF"/>
<path d="M82.5186 80.0748C82.8156 83.5002 80.796 84.8862 78.1428 84.8862C75.4896 84.8862 73.1532 82.728 72.9156 80.0748C72.678 77.4216 74.5392 74.0358 77.1924 74.0358C77.1726 74.0358 82.2414 76.9464 82.5186 80.0748Z" fill="#407BFF"/>
<path d="M79.3704 80.6291C79.4298 81.3221 78.915 81.7775 78.0636 81.8567L78.0042 82.4309H77.4894L77.5488 81.8567C77.0538 81.8171 76.5984 81.6587 76.3212 81.4607L76.6182 80.8073C76.9152 81.0053 77.2716 81.1439 77.628 81.1835L77.727 80.3123C77.232 80.1737 76.6776 79.9757 76.638 79.3421C76.5786 78.6491 77.0934 78.1937 77.9844 78.1145L78.0438 77.5403H78.5586L78.4992 78.1145C78.8754 78.1541 79.212 78.2531 79.4892 78.4115L79.2318 79.0649C78.9942 78.9065 78.717 78.8273 78.4398 78.7877L78.3408 79.6985C78.7962 79.8569 79.3308 80.0351 79.3704 80.6291ZM77.8062 79.5599L77.8854 78.8075C77.5884 78.8669 77.4498 79.0253 77.4498 79.2233C77.4696 79.4015 77.6082 79.4807 77.8062 79.5599ZM78.5388 80.7677C78.519 80.6093 78.4002 80.5301 78.2022 80.4509L78.123 81.1637C78.42 81.1241 78.5586 80.9657 78.5388 80.7677Z" fill="#407BFF"/>
<path d="M75.0738 80.8866C75.9648 82.431 78.1032 83.0448 79.8456 82.2924C81.588 81.54 82.281 79.6788 81.39 78.1344C80.499 76.59 78.3606 75.9762 76.6182 76.7286C74.8758 77.481 74.1828 79.3422 75.0738 80.8866Z" fill="#263238"/>
<path d="M74.7174 80.2728C75.6084 81.8172 77.7468 82.431 79.4892 81.6786C81.2316 80.9262 81.9246 79.065 81.0336 77.5206C80.1426 75.9762 78.0042 75.3624 76.2618 76.1148C74.5194 76.8672 73.8264 78.7284 74.7174 80.2728Z" fill="#407BFF"/>
<path opacity="0.4" d="M74.7174 80.2728C75.6084 81.8172 77.7468 82.431 79.4892 81.6786C81.2316 80.9262 81.9246 79.065 81.0336 77.5206C80.1426 75.9762 78.0042 75.3624 76.2618 76.1148C74.5194 76.8672 73.8264 78.7284 74.7174 80.2728Z" fill="white"/>
<path d="M75.4698 79.8767C75.5094 79.9559 75.5688 80.0153 75.6084 80.0945V80.1143C76.3608 81.1043 77.826 81.4805 79.0338 80.9459C80.2614 80.4113 80.796 79.1639 80.3208 78.0551C80.3208 78.0551 80.301 78.0551 80.3208 78.0353C80.2812 77.9561 80.2416 77.8967 80.202 77.8175C79.5288 76.6691 77.925 76.1939 76.6182 76.7681C75.3312 77.3225 74.8164 78.7283 75.4698 79.8767Z" fill="#407BFF"/>
<path opacity="0.3" d="M75.6084 80.0747C75.6282 80.0945 75.6084 80.0945 75.6084 80.0747C76.3608 81.0845 77.826 81.4409 79.0536 80.9261C80.2812 80.3915 80.8158 79.1441 80.3406 78.0353C80.3406 78.0353 80.3208 78.0353 80.3406 78.0155C79.608 77.0255 78.123 76.6493 76.8954 77.1839C75.6678 77.7383 75.1332 78.9857 75.6084 80.0747Z" fill="white"/>
<g opacity="0.4">
<path d="M78.7962 79.4412C78.8754 79.8966 78.5586 80.1936 78.0042 80.253V80.6292H77.6676V80.253C77.331 80.2134 77.034 80.1144 76.836 79.9956L76.9944 79.5798C77.1924 79.7184 77.4498 79.7976 77.6874 79.8174L77.7072 79.2432C77.3706 79.1442 76.9944 79.0254 76.935 78.6096C76.8558 78.1542 77.1726 77.8374 77.7468 77.7978V77.4216H78.0834V77.7978C78.321 77.8176 78.5586 77.8968 78.7566 77.9958L78.618 78.4116C78.4596 78.3126 78.2616 78.2532 78.0834 78.2334L78.0636 78.8274C78.3804 78.9264 78.7368 79.0452 78.7962 79.4412ZM77.7072 78.7284L77.727 78.2334C77.529 78.273 77.4498 78.372 77.4696 78.5106C77.4696 78.6294 77.5686 78.6888 77.7072 78.7284ZM78.2616 79.5204C78.2418 79.4214 78.1626 79.362 78.024 79.3224L78.0042 79.7976C78.2022 79.758 78.2814 79.659 78.2616 79.5204Z" fill="white"/>
</g>
<path d="M76.2687 72.8299C76.2857 73.0243 76.2651 73.1923 76.2071 73.3339C76.149 73.4755 76.0619 73.5847 75.9457 73.6615C75.8296 73.7384 75.6926 73.7768 75.5348 73.7768C75.377 73.7768 75.2333 73.7384 75.1037 73.6615C74.9741 73.5847 74.8678 73.4755 74.785 73.3339C74.7021 73.1923 74.6522 73.0243 74.6352 72.8299C74.6182 72.6355 74.6387 72.4675 74.6968 72.3259C74.7549 72.1843 74.842 72.0751 74.9581 71.9983C75.0743 71.9215 75.2113 71.8831 75.3691 71.8831C75.5269 71.8831 75.6706 71.9215 75.8002 71.9983C75.9298 72.0751 76.036 72.1843 76.1189 72.3259C76.2017 72.4675 76.2517 72.6355 76.2687 72.8299ZM76.0518 72.8299C76.0379 72.6703 75.9993 72.5356 75.9361 72.4258C75.8735 72.316 75.7942 72.2329 75.6983 72.1765C75.603 72.1201 75.4994 72.0919 75.3874 72.0919C75.2753 72.0919 75.1763 72.1201 75.0903 72.1765C75.0049 72.2329 74.9402 72.316 74.8962 72.4258C74.8528 72.5356 74.838 72.6703 74.852 72.8299C74.866 72.9895 74.9043 73.1242 74.9669 73.234C75.0301 73.3438 75.1093 73.4269 75.2046 73.4833C75.3005 73.5397 75.4045 73.5679 75.5165 73.5679C75.6285 73.5679 75.7273 73.5397 75.8127 73.4833C75.8987 73.4269 75.9634 73.3438 76.0068 73.234C76.0508 73.1242 76.0658 72.9895 76.0518 72.8299Z" fill="white"/>
<path d="M76.8376 72.9199L76.9104 73.7516H76.6972L76.5762 72.3691H76.7822L76.8011 72.5851H76.8192C76.8455 72.5149 76.89 72.4585 76.9525 72.4159C77.015 72.3727 77.0986 72.3511 77.2034 72.3511C77.2974 72.3511 77.3813 72.3703 77.4551 72.4087C77.5289 72.4465 77.5888 72.5041 77.6347 72.5815C77.6806 72.6583 77.7086 72.7555 77.7189 72.8731L77.7958 73.7516H77.5826L77.507 72.8875C77.4975 72.7789 77.4618 72.6943 77.3998 72.6337C77.3379 72.5725 77.2575 72.5419 77.1587 72.5419C77.0906 72.5419 77.0311 72.5566 76.9801 72.586C76.9296 72.6154 76.8915 72.6583 76.8657 72.7147C76.84 72.7711 76.8306 72.8395 76.8376 72.9199Z" fill="white"/>
<path d="M78.2374 71.9083L78.3986 73.7516H78.1854L78.0241 71.9083H78.2374Z" fill="white"/>
<path d="M78.9719 74.27C78.9357 74.27 78.9032 74.267 78.8744 74.261C78.8456 74.2556 78.8256 74.2502 78.8143 74.2448L78.8521 74.0576C78.905 74.0708 78.9512 74.0756 78.9907 74.072C79.0301 74.0684 79.0638 74.0507 79.0917 74.0189C79.1203 73.9877 79.1445 73.937 79.1643 73.8668L79.1946 73.7588L78.5598 72.3691H78.7911L79.2706 73.4707H79.285L79.5717 72.3691H79.803L79.3525 73.9532C79.3323 74.0246 79.3046 74.0837 79.2695 74.1305C79.2345 74.1779 79.1921 74.213 79.1423 74.2358C79.0931 74.2586 79.0363 74.27 78.9719 74.27Z" fill="white"/>
<path d="M73.958 84.1958L74.0734 85.5152H73.913L73.8123 84.3633H73.8045L73.4999 84.5772L73.4857 84.4148L73.7976 84.1958H73.958Z" fill="white"/>
<path d="M74.8593 85.6801L74.715 84.0309H74.8211L74.9654 85.6801H74.8593ZM75.1153 84.5256C75.1018 84.4604 75.0659 84.4097 75.0076 84.3736C74.9492 84.3375 74.88 84.3195 74.7998 84.3195C74.7412 84.3195 74.6907 84.3289 74.6484 84.3478C74.6065 84.3667 74.5747 84.3927 74.553 84.4258C74.5317 84.4589 74.523 84.4964 74.5266 84.5385C74.5297 84.5738 74.5408 84.604 74.5598 84.6294C74.5792 84.6543 74.6031 84.6751 74.6312 84.6919C74.6594 84.7082 74.6886 84.7217 74.7189 84.7324C74.7491 84.7428 74.7768 84.7511 74.8019 84.7576L74.9396 84.7936C74.9748 84.8027 75.0143 84.8151 75.0579 84.831C75.102 84.8469 75.1447 84.8686 75.1859 84.8961C75.2275 84.9231 75.2628 84.9579 75.292 85.0004C75.3212 85.043 75.3384 85.0951 75.3438 85.157C75.3501 85.2283 75.337 85.2927 75.3045 85.3503C75.2725 85.4078 75.2221 85.4535 75.1535 85.4875C75.0854 85.5214 75.0004 85.5384 74.8987 85.5384C74.8038 85.5384 74.7204 85.5231 74.6483 85.4926C74.5766 85.4621 74.5186 85.4196 74.4742 85.3651C74.4301 85.3105 74.4024 85.2472 74.3909 85.175H74.5565C74.5651 85.2248 74.5856 85.2661 74.6177 85.2987C74.6503 85.3309 74.6899 85.355 74.7366 85.3709C74.7836 85.3863 74.8334 85.3941 74.886 85.3941C74.9473 85.3941 75.0014 85.3842 75.0484 85.3644C75.0953 85.3442 75.1314 85.3163 75.1568 85.2807C75.1821 85.2446 75.1926 85.2025 75.1884 85.1544C75.1846 85.1106 75.1692 85.075 75.1422 85.0475C75.1152 85.02 75.0809 84.9976 75.0393 84.9805C74.9977 84.9633 74.9531 84.9483 74.9054 84.9354L74.7384 84.889C74.6323 84.8594 74.5467 84.8171 74.4815 84.7621C74.4164 84.7071 74.3799 84.6352 74.3721 84.5463C74.3657 84.4724 74.3801 84.408 74.4154 84.353C74.451 84.2976 74.5016 84.2546 74.567 84.2242C74.6329 84.1932 74.7081 84.1778 74.7926 84.1778C74.8779 84.1778 74.9551 84.193 75.0242 84.2235C75.0932 84.2536 75.1494 84.2948 75.1928 84.3472C75.2366 84.3996 75.2625 84.4591 75.2705 84.5256H75.1153Z" fill="white"/>
<path d="M75.9655 84.134L75.6769 85.7136H75.5372L75.8258 84.134H75.9655Z" fill="white"/>
<path d="M76.2673 85.5152L76.1807 84.5256H76.3282L76.3417 84.6803H76.3546C76.3707 84.6274 76.4005 84.5864 76.4441 84.5572C76.4876 84.5276 76.5417 84.5128 76.6064 84.5128C76.6719 84.5128 76.7278 84.5276 76.7739 84.5572C76.8204 84.5864 76.8583 84.6274 76.8875 84.6803H76.8978C76.9188 84.6292 76.9534 84.5886 77.0016 84.5585C77.0498 84.528 77.1095 84.5128 77.1807 84.5128C77.2695 84.5128 77.3445 84.5405 77.4059 84.5959C77.4671 84.6508 77.5029 84.7365 77.5131 84.8529L77.571 85.5152H77.4184L77.3604 84.8529C77.3541 84.7799 77.3294 84.7277 77.2866 84.6964C77.2438 84.665 77.1952 84.6493 77.1409 84.6493C77.071 84.6493 77.0188 84.6704 76.9841 84.7125C76.9493 84.7541 76.9348 84.807 76.9404 84.871L76.9967 85.5152H76.8415L76.7822 84.8375C76.7773 84.7812 76.755 84.7359 76.7154 84.7015C76.6757 84.6667 76.627 84.6493 76.5692 84.6493C76.5295 84.6493 76.4934 84.6599 76.4607 84.6809C76.4285 84.702 76.4035 84.7312 76.3856 84.7685C76.3682 84.8055 76.3615 84.8482 76.3658 84.8967L76.4199 85.5152H76.2673Z" fill="white"/>
<path d="M78.2554 85.5358C78.1657 85.5358 78.0852 85.5145 78.0138 85.472C77.9428 85.4295 77.885 85.37 77.8404 85.2936C77.7962 85.2171 77.7696 85.1278 77.7607 85.0256C77.7516 84.9225 77.7625 84.8325 77.7933 84.7556C77.8245 84.6788 77.8719 84.6191 77.9354 84.5765C77.9994 84.534 78.0762 84.5128 78.1659 84.5128C78.2556 84.5128 78.3359 84.534 78.4069 84.5765C78.4783 84.6191 78.5361 84.6788 78.5803 84.7556C78.625 84.8325 78.6518 84.9225 78.6608 85.0256C78.6698 85.1278 78.6586 85.2171 78.6274 85.2936C78.5966 85.37 78.5492 85.4295 78.4852 85.472C78.4217 85.5145 78.3451 85.5358 78.2554 85.5358ZM78.2434 85.3992C78.3116 85.3992 78.3661 85.3818 78.407 85.347C78.4479 85.3122 78.4765 85.2665 78.4927 85.2098C78.5088 85.1531 78.514 85.0917 78.5082 85.0256C78.5024 84.9594 78.4865 84.8978 78.4604 84.8407C78.4342 84.7836 78.3976 84.7374 78.3506 84.7022C78.3035 84.6669 78.2459 84.6493 78.1778 84.6493C78.1097 84.6493 78.0552 84.6669 78.0143 84.7022C77.9734 84.7374 77.9449 84.7836 77.9288 84.8407C77.9127 84.8978 77.9075 84.9594 77.9133 85.0256C77.9191 85.0917 77.935 85.1531 77.9611 85.2098C77.9872 85.2665 78.0237 85.3122 78.0707 85.347C78.1178 85.3818 78.1753 85.3992 78.2434 85.3992Z" fill="white"/>
<path d="M79.0372 84.9199L79.0893 85.5152H78.9366L78.8501 84.5256H78.9975L79.011 84.6803H79.024C79.0429 84.63 79.0747 84.5896 79.1194 84.5591C79.1642 84.5282 79.224 84.5128 79.299 84.5128C79.3663 84.5128 79.4263 84.5265 79.4792 84.554C79.532 84.5811 79.5748 84.6223 79.6077 84.6777C79.6405 84.7327 79.6606 84.8022 79.668 84.8864L79.723 85.5152H79.5704L79.5163 84.8967C79.5095 84.819 79.4839 84.7584 79.4396 84.715C79.3952 84.6712 79.3377 84.6493 79.267 84.6493C79.2183 84.6493 79.1757 84.6599 79.1391 84.6809C79.103 84.702 79.0758 84.7327 79.0573 84.773C79.0389 84.8134 79.0321 84.8624 79.0372 84.9199Z" fill="white"/>
<path d="M80.3473 84.5256L80.3586 84.6545H79.8438L79.8325 84.5256H80.3473ZM79.9618 84.2886H80.1144L80.197 85.2317C80.2007 85.2747 80.2098 85.3069 80.2242 85.3284C80.239 85.3494 80.2566 85.3636 80.277 85.3709C80.2979 85.3777 80.3195 85.3812 80.342 85.3812C80.3588 85.3812 80.3725 85.3803 80.3831 85.3786C80.3937 85.3765 80.4022 85.3747 80.4085 85.3734L80.4515 85.51C80.4415 85.5139 80.4274 85.5178 80.4092 85.5216C80.3911 85.5259 80.3678 85.5281 80.3393 85.5281C80.2962 85.5281 80.2531 85.5188 80.2101 85.5004C80.1676 85.4819 80.131 85.4538 80.1006 85.416C80.0705 85.3782 80.053 85.3305 80.048 85.2729L79.9618 84.2886Z" fill="white"/>
<path d="M80.7853 84.9199L80.8374 85.5152H80.6848L80.5694 84.1958H80.722L80.7644 84.6803H80.7773C80.7961 84.6292 80.8275 84.5886 80.8714 84.5585C80.9157 84.528 80.9769 84.5128 81.0549 84.5128C81.1226 84.5128 81.1831 84.5263 81.2363 84.5533C81.2895 84.58 81.3326 84.621 81.3654 84.6764C81.3987 84.7314 81.4191 84.8014 81.4265 84.8864L81.4815 85.5152H81.3289L81.2748 84.8967C81.2679 84.8181 81.2421 84.7574 81.1974 84.7144C81.1531 84.671 81.0949 84.6493 81.0229 84.6493C80.9729 84.6493 80.929 84.6599 80.8912 84.6809C80.8538 84.702 80.8254 84.7327 80.8061 84.773C80.7872 84.8134 80.7803 84.8624 80.7853 84.9199Z" fill="white"/>
<path d="M82.3592 84.1958L82.4293 85.1441H82.2792L82.1833 84.1958H82.3592ZM82.3876 85.5255C82.3557 85.5255 82.3273 85.5141 82.3025 85.4913C82.2777 85.4686 82.2638 85.4413 82.2611 85.4095C82.2583 85.3777 82.2673 85.3505 82.2882 85.3277C82.309 85.3049 82.3354 85.2936 82.3673 85.2936C82.3992 85.2936 82.4276 85.3049 82.4524 85.3277C82.4773 85.3505 82.4911 85.3777 82.4939 85.4095C82.4957 85.4306 82.492 85.4499 82.4828 85.4675C82.474 85.4851 82.4612 85.4993 82.4445 85.51C82.4281 85.5203 82.4092 85.5255 82.3876 85.5255Z" fill="white"/>
<path d="M82.8661 84.1958L82.9361 85.1441H82.7861L82.6902 84.1958H82.8661ZM82.8944 85.5255C82.8625 85.5255 82.8342 85.5141 82.8093 85.4913C82.7845 85.4686 82.7707 85.4413 82.7679 85.4095C82.7651 85.3777 82.7742 85.3505 82.795 85.3277C82.8159 85.3049 82.8423 85.2936 82.8742 85.2936C82.9061 85.2936 82.9344 85.3049 82.9593 85.3277C82.9841 85.3505 82.9979 85.3777 83.0007 85.4095C83.0025 85.4306 82.9989 85.4499 82.9896 85.4675C82.9808 85.4851 82.968 85.4993 82.9513 85.51C82.935 85.5203 82.916 85.5255 82.8944 85.5255Z" fill="white"/>
<path d="M83.3729 84.1958L83.4429 85.1441H83.2929L83.197 84.1958H83.3729ZM83.4013 85.5255C83.3694 85.5255 83.341 85.5141 83.3162 85.4913C83.2913 85.4686 83.2775 85.4413 83.2747 85.4095C83.272 85.3777 83.281 85.3505 83.3019 85.3277C83.3227 85.3049 83.3491 85.2936 83.381 85.2936C83.4129 85.2936 83.4413 85.3049 83.4661 85.3277C83.491 85.3505 83.5048 85.3777 83.5075 85.4095C83.5094 85.4306 83.5057 85.4499 83.4965 85.4675C83.4876 85.4851 83.4749 85.4993 83.4581 85.51C83.4418 85.5203 83.4228 85.5255 83.4013 85.5255Z" fill="white"/>
<path d="M86.7558 70.0164H66.936L66.7974 68.4324H86.6172L86.7558 70.0164Z" fill="#263238"/>
<path d="M69.0348 69.2244C69.0546 69.5016 68.8566 69.7194 68.5794 69.7194C68.3022 69.7194 68.0646 69.5016 68.0448 69.2244C68.025 68.9472 68.223 68.7294 68.5002 68.7294C68.7774 68.7294 69.015 68.967 69.0348 69.2244Z" fill="white"/>
<path d="M70.5 69.2244C70.5198 69.5016 70.3218 69.7194 70.0446 69.7194C69.7674 69.7194 69.5298 69.5016 69.51 69.2244C69.4902 68.9472 69.6882 68.7294 69.9654 68.7294C70.2426 68.7492 70.4802 68.967 70.5 69.2244Z" fill="white"/>
<path d="M71.9851 69.2244C72.0049 69.5016 71.8069 69.7194 71.5297 69.7194C71.2525 69.7194 71.0149 69.5016 70.9951 69.2244C70.9753 68.9472 71.1733 68.7294 71.4505 68.7294C71.7079 68.7492 71.9653 68.967 71.9851 69.2244Z" fill="white"/>
<path opacity="0.2" d="M67.827 65.9574L66.2034 47.4246H84.756L86.3796 65.9574H67.827Z" fill="black"/>
<path d="M87.2904 64.7496H68.7378L67.1142 46.197H85.6668L87.2904 64.7496Z" fill="#407BFF"/>
<path d="M75.4896 51.6816L74.5986 50.2362C74.5986 50.2362 75.0936 49.1868 75.7866 49.1472C76.4796 49.1076 77.2716 49.7214 77.2716 49.7214L78.123 49.3452L77.6676 51.8598C77.6874 51.8994 76.539 52.8894 75.4896 51.6816Z" fill="white"/>
<path d="M81.8256 57.0077C82.1028 60.2153 80.202 61.5023 77.727 61.5023C75.252 61.5023 73.0542 59.4827 72.8364 57.0077C72.6186 54.5327 74.361 51.3647 76.836 51.3647C76.836 51.3449 81.5682 54.0773 81.8256 57.0077Z" fill="#407BFF"/>
<path d="M81.8256 57.0077C82.1028 60.2153 80.202 61.5023 77.727 61.5023C75.252 61.5023 73.0542 59.4827 72.8364 57.0077C72.6186 54.5327 74.361 51.3647 76.836 51.3647C76.836 51.3449 81.5682 54.0773 81.8256 57.0077Z" fill="white"/>
<path d="M79.014 57.3246C79.2318 57.978 78.8754 58.3938 78.0834 58.473L78.1626 59.0076H77.6676L77.5884 58.473C77.1132 58.4334 76.6578 58.275 76.341 58.0968L76.4598 57.5028C76.7766 57.7008 77.1528 57.8196 77.4894 57.8394L77.3706 57.0276C76.8756 56.889 76.3212 56.7108 76.1034 56.1168C75.8856 55.4634 76.2618 55.0278 77.0538 54.9684L76.9746 54.4338H77.4696L77.5488 54.9684C77.9052 55.008 78.2616 55.107 78.5388 55.2456L78.4596 55.8396C78.2022 55.701 77.925 55.6218 77.6478 55.5822L77.7864 56.4336C78.2814 56.592 78.816 56.7702 79.014 57.3246ZM77.2716 56.3148L77.1726 55.6218C76.9152 55.6812 76.8162 55.8198 76.8756 56.0178C76.935 56.1564 77.0736 56.2554 77.2716 56.3148ZM78.2814 57.4434C78.2418 57.3048 78.0834 57.2058 77.9052 57.1464L78.0042 57.8196C78.2418 57.78 78.3408 57.6414 78.2814 57.4434Z" fill="#407BFF"/>
<path opacity="0.1" d="M77.1528 51.8003C76.9944 51.2459 76.836 50.6915 76.6776 50.1569C76.4994 49.9985 76.242 49.9391 76.0242 49.9787C75.8064 50.0183 75.648 50.1767 75.5886 50.3945C75.747 50.8499 75.945 51.3053 76.2024 51.7211C76.3014 51.5627 76.4598 51.5231 76.6578 51.5231C76.8162 51.5231 77.0142 51.6419 77.1528 51.8003Z" fill="black"/>
<path opacity="0.1" d="M77.3705 51.6024C77.4497 51.1866 77.4893 50.7312 77.5487 50.3154C77.4497 50.355 77.3903 50.4144 77.3111 50.454C77.2913 50.7708 77.2319 51.5628 77.2517 51.6024" fill="black"/>
<path d="M85.7856 47.682H67.2528L67.1142 46.197H85.6668L85.7856 47.682Z" fill="#263238"/>
<path d="M69.213 46.9494C69.2328 47.2068 69.0546 47.4048 68.7972 47.4048C68.5398 47.4048 68.322 47.2068 68.3022 46.9494C68.2824 46.692 68.4606 46.494 68.718 46.494C68.9754 46.494 69.1932 46.692 69.213 46.9494Z" fill="white"/>
<path d="M70.5989 46.9494C70.6187 47.2068 70.4405 47.4048 70.1831 47.4048C69.9257 47.4048 69.7079 47.2068 69.6881 46.9494C69.6683 46.692 69.8465 46.494 70.1039 46.494C70.3613 46.494 70.5791 46.692 70.5989 46.9494Z" fill="white"/>
<path d="M71.9652 46.9494C71.985 47.2068 71.8068 47.4048 71.5494 47.4048C71.292 47.4048 71.0742 47.2068 71.0544 46.9494C71.0346 46.692 71.2128 46.494 71.4702 46.494C71.7276 46.494 71.9454 46.692 71.9652 46.9494Z" fill="white"/>
<g opacity="0.2">
<path d="M62.7582 93.717H41.8494L39.117 62.532H60.0258L62.7582 93.717Z" fill="black"/>
</g>
<path d="M64.0453 92.0736H43.1365L40.4041 60.8886H61.3327L64.0453 92.0736Z" fill="#407BFF"/>
<g opacity="0.1">
<path d="M64.0453 92.0736H43.1365L40.4041 60.8886H61.3327L64.0453 92.0736Z" fill="white"/>
</g>
<path d="M51.7494 69.6996L53.9472 67.2048L55.0956 70.5708L58.3626 69.6204L57.7092 72.9666L61.1544 73.818L58.8774 76.2534L61.5702 78.6888L58.2834 79.5402L59.5308 82.8864L56.1054 81.936L55.5312 85.3218L52.8978 82.827L50.7 85.3218L49.5516 81.936L46.2846 82.8864L46.938 79.5402L43.4928 78.6888L45.7698 76.2534L43.0572 73.818L46.3638 72.9666L45.1164 69.6204L48.5418 70.5708L49.0962 67.2048L51.7494 69.6996Z" fill="#F5F5F5"/>
<path d="M49.9872 74.4715C50.1852 74.6497 50.2644 74.8873 50.2446 75.1645C50.2248 75.3625 50.1654 75.5209 50.0664 75.6793C49.9674 75.8377 49.809 75.9565 49.611 76.0555C49.413 76.1545 49.1754 76.1941 48.8784 76.1941C48.6606 76.1941 48.4428 76.1743 48.2448 76.1149C48.0468 76.0555 47.8686 75.9763 47.73 75.8773L48.0468 75.3229C48.1656 75.4021 48.2844 75.4813 48.4428 75.5209C48.6012 75.5605 48.7596 75.6001 48.918 75.6001C49.0962 75.6001 49.2348 75.5605 49.3536 75.5011C49.4526 75.4219 49.512 75.3229 49.5318 75.2041C49.5318 75.0655 49.4922 74.9665 49.3932 74.9071C49.2942 74.8477 49.0962 74.8081 48.8388 74.8081H48.0468L48.324 73.0657H50.2248L50.1852 73.6399H48.8784L48.7794 74.2339H49.0368C49.4724 74.2141 49.7892 74.2933 49.9872 74.4715Z" fill="#407BFF"/>
<path d="M51.1355 76.0158C50.9375 75.897 50.7989 75.699 50.6999 75.4614C50.6009 75.2238 50.5613 74.9268 50.5811 74.5902C50.6009 74.2536 50.6801 73.9764 50.8187 73.719C50.9573 73.4814 51.1157 73.2834 51.3335 73.1646C51.5513 73.0458 51.7691 72.9666 52.0265 72.9666C52.2839 72.9666 52.5017 73.026 52.6997 73.1646C52.8977 73.2834 53.0363 73.4814 53.1353 73.719C53.2343 73.9566 53.2739 74.2536 53.2541 74.5902C53.2343 74.9268 53.1551 75.204 53.0165 75.4614C52.8779 75.699 52.7195 75.897 52.5017 76.0158C52.2839 76.1346 52.0661 76.2138 51.8087 76.2138C51.5513 76.194 51.3137 76.1346 51.1355 76.0158ZM52.3037 75.3426C52.4225 75.1842 52.5017 74.9268 52.5215 74.5902C52.5413 74.2536 52.5017 73.9962 52.4225 73.8378C52.3235 73.6794 52.1849 73.6002 51.9869 73.6002C51.8087 73.6002 51.6503 73.6794 51.5315 73.8378C51.4127 73.9962 51.3335 74.2536 51.3137 74.5902C51.2939 74.9268 51.3335 75.1842 51.4127 75.3426C51.5117 75.501 51.6503 75.5802 51.8285 75.5802C52.0463 75.6 52.1849 75.501 52.3037 75.3426Z" fill="#407BFF"/>
<path d="M53.769 74.4912C53.6304 74.3328 53.571 74.1348 53.5908 73.8576C53.6106 73.6002 53.6898 73.3824 53.8482 73.224C54.0066 73.0656 54.1848 72.9865 54.4224 72.9865C54.66 72.9865 54.8382 73.0656 54.957 73.224C55.0956 73.3824 55.1352 73.5804 55.1352 73.8576C55.1154 74.115 55.0362 74.3328 54.8778 74.4912C54.7194 74.6496 54.5412 74.7289 54.3036 74.7289C54.0858 74.7091 53.9076 74.6298 53.769 74.4912ZM54.5808 74.2339C54.6402 74.1547 54.6798 74.0358 54.6996 73.8576C54.7194 73.6992 54.6996 73.5805 54.6402 73.4815C54.5808 73.4023 54.5214 73.3626 54.4026 73.3626C54.3036 73.3626 54.2244 73.4023 54.165 73.4815C54.1056 73.5607 54.066 73.6794 54.0462 73.8576C54.0264 74.016 54.0462 74.1349 54.1056 74.2339C54.165 74.3131 54.2442 74.3526 54.3234 74.3526C54.4422 74.3526 54.5214 74.3131 54.5808 74.2339ZM56.2836 73.026H56.8182L54.462 76.1544H53.9274L56.2836 73.026ZM55.9272 76.0752C55.8084 75.996 55.7292 75.897 55.6698 75.7782C55.6104 75.6396 55.5906 75.5011 55.6104 75.3229C55.6302 75.1447 55.6698 75.0061 55.749 74.8675C55.8282 74.7289 55.9272 74.6299 56.046 74.5705C56.1648 74.4913 56.3034 74.4715 56.442 74.4715C56.6796 74.4715 56.8578 74.5506 56.9766 74.709C57.1152 74.8674 57.1746 75.0654 57.1548 75.3426C57.135 75.6198 57.0558 75.8178 56.8974 75.9762C56.739 76.1346 56.5608 76.2139 56.3232 76.2139C56.1648 76.1743 56.046 76.1544 55.9272 76.0752ZM56.6004 75.699C56.6598 75.6198 56.6994 75.5011 56.7192 75.3229C56.739 75.1645 56.7192 75.0456 56.6598 74.9466C56.6004 74.8674 56.541 74.8279 56.4222 74.8279C56.3232 74.8279 56.244 74.8674 56.1846 74.9466C56.1252 75.0258 56.0856 75.1447 56.0658 75.3229C56.046 75.4813 56.0658 75.6 56.1252 75.699C56.1846 75.7782 56.2638 75.8179 56.343 75.8179C56.442 75.8179 56.5212 75.7782 56.6004 75.699Z" fill="#407BFF"/>
<path d="M48.4032 80.5897C48.1458 80.4511 47.9676 80.2531 47.829 80.0155C47.6904 79.7779 47.6508 79.5007 47.6706 79.1839C47.6904 78.8869 47.7894 78.6097 47.9478 78.3523C48.1062 78.1147 48.324 77.9167 48.6012 77.7781C48.8784 77.6395 49.1754 77.5603 49.4922 77.5603C49.809 77.5603 50.106 77.6395 50.3436 77.7781C50.601 77.9167 50.7792 78.1147 50.9178 78.3523C51.0564 78.5899 51.096 78.8671 51.0762 79.1839C51.0564 79.4809 50.9574 79.7581 50.799 80.0155C50.6406 80.2531 50.4228 80.4511 50.1456 80.5897C49.8684 80.7283 49.5912 80.8075 49.2546 80.8075C48.9378 80.7877 48.6606 80.7283 48.4032 80.5897ZM49.809 80.0551C49.9674 79.9759 50.0862 79.8571 50.1852 79.6987C50.2842 79.5403 50.3436 79.3819 50.3436 79.1839C50.3634 78.9859 50.3238 78.8275 50.2446 78.6691C50.1654 78.5107 50.0664 78.3919 49.9278 78.3127C49.7892 78.2335 49.6308 78.1939 49.4328 78.1939C49.2546 78.1939 49.0764 78.2335 48.918 78.3127C48.7596 78.3919 48.6408 78.5107 48.5418 78.6691C48.4428 78.8275 48.3834 78.9859 48.3834 79.1839C48.3636 79.3819 48.4032 79.5403 48.4824 79.6987C48.5616 79.8571 48.6606 79.9759 48.7992 80.0551C48.9378 80.1343 49.0962 80.1739 49.2942 80.1739C49.4922 80.1739 49.6704 80.1343 49.809 80.0551Z" fill="#407BFF"/>
<path d="M52.4226 78.2136L52.3632 79.0452H53.8086L53.769 79.6194H52.3236L52.2444 80.748H51.5316L51.7494 77.6394H54.1056L54.066 78.2136H52.4226V78.2136Z" fill="#407BFF"/>
<path d="M55.254 78.2136L55.1946 79.0452H56.64L56.6004 79.6194H55.155L55.0758 80.748H54.363L54.5808 77.6394H56.937L56.8974 78.2136H55.254V78.2136Z" fill="#407BFF"/>
<path d="M61.5109 62.9676H40.5823L40.4041 60.8886H61.3327L61.5109 62.9676Z" fill="#263238"/>
<path d="M43.3542 61.9381C43.3938 62.2945 43.1166 62.5915 42.7602 62.5915C42.4038 62.5915 42.087 62.2945 42.0672 61.9381C42.0276 61.5817 42.3048 61.2847 42.6612 61.2847C43.0176 61.3045 43.3146 61.5817 43.3542 61.9381Z" fill="white"/>
<path d="M45.2748 61.9381C45.3144 62.2945 45.0372 62.5915 44.6808 62.5915C44.3244 62.5915 44.0076 62.2945 43.9878 61.9381C43.9482 61.5817 44.2254 61.2847 44.5818 61.2847C44.9382 61.2847 45.255 61.5817 45.2748 61.9381Z" fill="white"/>
<path d="M47.2152 61.9381C47.2548 62.2945 46.9776 62.5915 46.6212 62.5915C46.2648 62.5915 45.948 62.2945 45.9282 61.9381C45.8886 61.5817 46.1658 61.2847 46.5222 61.2847C46.8588 61.3045 47.1756 61.5817 47.2152 61.9381Z" fill="white"/>
<path opacity="0.2" d="M68.6982 58.374H38.8002L38.3844 53.7012H68.2824L68.6982 58.374Z" fill="black"/>
<path d="M69.708 57.1662H39.81L38.2854 39.7026H68.1636L69.708 57.1662Z" fill="#407BFF"/>
<path opacity="0.1" d="M69.708 57.1662H39.81L38.2854 39.7026H68.1636L69.708 57.1662Z" fill="white"/>
<path d="M68.3022 41.1084H38.4042L38.2854 39.7026H68.1636L68.3022 41.1084Z" fill="#263238"/>
<path d="M40.2456 40.4155C40.2654 40.6531 40.0872 40.8511 39.8496 40.8511C39.612 40.8511 39.3942 40.6531 39.3744 40.4155C39.3546 40.1779 39.5328 39.9799 39.7704 39.9799C40.0278 39.9799 40.2258 40.1779 40.2456 40.4155Z" fill="white"/>
<path d="M41.5524 40.4155C41.5722 40.6531 41.394 40.8511 41.1564 40.8511C40.9188 40.8511 40.701 40.6531 40.6812 40.4155C40.6614 40.1779 40.8396 39.9799 41.0772 39.9799C41.3148 39.9799 41.5326 40.1779 41.5524 40.4155Z" fill="white"/>
<path d="M42.8394 40.4155C42.8592 40.6531 42.681 40.8511 42.4434 40.8511C42.2058 40.8511 41.988 40.6531 41.9682 40.4155C41.9484 40.1779 42.1266 39.9799 42.3642 39.9799C42.6018 39.9799 42.8196 40.1779 42.8394 40.4155Z" fill="white"/>
<path d="M60.0852 43.7023L61.293 42.3361L61.9068 44.1775L63.6888 43.6627L63.3324 45.4843L65.1936 45.9397L63.966 47.2663L65.4312 48.5929L63.6492 49.0483L64.3224 50.8699L62.4612 50.3551L62.1444 52.1965L60.7188 50.8303L59.511 52.1965L58.8972 50.3551L57.1152 50.8699L57.4716 49.0483L55.6104 48.5929L56.838 47.2663L55.3728 45.9397L57.1746 45.4843L56.5014 43.6627L58.3626 44.1775L58.6596 42.3361L60.0852 43.7023Z" fill="#F5F5F5"/>
<path d="M59.2338 47.3058H59.5506L59.5902 47.8206C59.4516 47.9196 59.2536 47.979 59.0754 47.979C58.6794 47.979 58.3626 47.7018 58.323 47.3256C58.2834 46.9494 58.5606 46.6722 58.9764 46.6722C59.214 46.6722 59.412 46.7514 59.5506 46.9098L59.3328 47.1078C59.2338 47.0088 59.1348 46.9692 59.016 46.9692C58.7982 46.9692 58.6596 47.1078 58.6794 47.3256C58.6992 47.5434 58.8576 47.682 59.0754 47.682C59.1348 47.682 59.214 47.6622 59.2734 47.6424L59.2338 47.3058Z" fill="#407BFF"/>
<path d="M60.8376 47.682L60.8574 47.9592H59.8476L59.7288 46.692H60.7188L60.7386 46.9692H60.105L60.1248 47.187H60.6792L60.699 47.4642H60.1446L60.1644 47.7018H60.8376V47.682Z" fill="#407BFF"/>
<path d="M61.2534 46.989H60.8574L60.8376 46.7118H61.9662L61.986 46.989H61.59L61.6692 47.979H61.3128L61.2534 46.989Z" fill="#407BFF"/>
<path d="M61.0752 49.3452L61.095 49.6224H60.105L60.0852 49.4046L60.5208 48.969C60.6198 48.87 60.6198 48.8106 60.6198 48.771C60.6198 48.6918 60.5604 48.6324 60.4416 48.6324C60.3426 48.6324 60.2634 48.672 60.2238 48.7512L59.9466 48.6126C60.0258 48.4542 60.204 48.3552 60.4416 48.3552C60.7386 48.3552 60.9564 48.5136 60.9762 48.7314C60.996 48.8502 60.9564 48.969 60.798 49.1274L60.5802 49.3452H61.0752Z" fill="#407BFF"/>
<path d="M59.2734 45.9396C59.2932 46.1178 59.1546 46.2168 58.8972 46.2168H58.3626L58.2834 45.2466H58.7784C59.0358 45.2466 59.1744 45.3456 59.1744 45.504C59.1744 45.603 59.1348 45.6822 59.0556 45.7218C59.1942 45.7218 59.2734 45.8208 59.2734 45.9396ZM58.5804 45.4248L58.6002 45.6228H58.7982C58.8972 45.6228 58.9368 45.5832 58.9368 45.5238C58.9368 45.4644 58.8774 45.4248 58.7982 45.4248H58.5804ZM58.9962 45.9C58.9962 45.8406 58.9368 45.801 58.8378 45.801H58.6002L58.62 45.999H58.8576C58.9566 45.999 58.9962 45.9594 58.9962 45.9Z" fill="#407BFF"/>
<path d="M59.3922 45.7614L59.3526 45.2268H59.6298L59.6694 45.7614C59.6892 45.9198 59.7684 45.999 59.8674 45.999C59.9862 45.999 60.0456 45.9396 60.0258 45.7614L59.9862 45.2268H60.2634L60.303 45.7614C60.3228 46.0584 60.1644 46.2168 59.8872 46.2168C59.61 46.2168 59.412 46.0584 59.3922 45.7614Z" fill="#407BFF"/>
<path d="M61.0158 45.8406L61.0554 46.197H60.7782L60.7386 45.8406L60.303 45.2268H60.6L60.8574 45.6228L61.0554 45.2268H61.3326L61.0158 45.8406Z" fill="#407BFF"/>
<path d="M62.184 45.2268L62.2632 46.197H61.986L61.9266 45.4248H61.7484L61.7286 45.207H62.184V45.2268Z" fill="#407BFF"/>
<path d="M49.3338 48.5532L49.1358 48.1176C46.8786 48.2166 46.5618 47.3652 46.5024 47.1078C46.4232 46.6128 46.839 46.1376 47.433 46.0782C48.2448 45.999 48.8784 46.7316 49.1952 47.2266C49.5714 46.7118 50.3634 46.296 50.997 46.296C51.4722 46.296 51.8286 46.5138 51.987 46.9692C52.1058 47.3256 52.0068 47.5632 51.888 47.7018C51.4128 48.2958 49.8882 48.1771 49.4328 48.1375L49.3338 48.5532ZM49.5318 47.6622C50.2248 47.7216 51.2148 47.682 51.4722 47.3652C51.5118 47.3058 51.5514 47.2662 51.492 47.1078C51.4128 46.8702 51.2742 46.8108 51.0168 46.8108C50.4822 46.791 49.7496 47.2464 49.5318 47.6622ZM47.5914 46.5732C47.5716 46.5732 47.532 46.5732 47.5122 46.5732C47.1756 46.6128 46.9578 46.8505 46.9974 47.0485C47.037 47.2663 47.4924 47.6424 48.8784 47.6226C48.6804 47.2662 48.2052 46.5732 47.5914 46.5732Z" fill="#263238"/>
<path d="M54.7194 54.5923H44.9184L44.3244 47.8405H54.1254L54.7194 54.5923Z" fill="#407BFF"/>
<path opacity="0.1" d="M54.7194 54.5923H44.9184L44.3244 47.8405H54.1254L54.7194 54.5923Z" fill="white"/>
<path opacity="0.2" d="M54.7194 54.5922H44.9184L44.5224 50.1768H54.3432L54.7194 54.5922Z" fill="black"/>
<path d="M51.6504 47.8405H50.8584L51.4524 54.5923H52.2444L51.6504 47.8405Z" fill="#263238"/>
<path d="M46.8786 54.5923H46.2846L45.6906 47.8405H46.2846L46.8786 54.5923Z" fill="#263238"/>
<path opacity="0.2" d="M48.819 54.5923H44.9184L44.3244 47.8405H48.225L48.819 54.5923Z" fill="black"/>
<path d="M57.5508 50.2165C57.2538 50.2561 56.2242 50.3353 55.8282 49.9195C55.7292 49.8205 55.6302 49.6621 55.6698 49.4245C55.7292 49.1275 55.9272 48.969 56.2638 48.969C56.6796 48.969 57.2736 49.266 57.5904 49.6026C57.7488 49.266 58.0854 48.7711 58.6398 48.8305C59.0556 48.8701 59.3922 49.1869 59.3922 49.5235C59.3922 49.7017 59.2734 50.2759 57.729 50.2165L57.6498 50.5135L57.5508 50.2165ZM56.3034 49.3056C56.145 49.3056 56.046 49.3651 56.0262 49.5235C56.0064 49.6423 56.046 49.662 56.0856 49.7016C56.3034 49.9194 56.9766 49.9392 57.432 49.8996C57.234 49.6224 56.6796 49.3056 56.3034 49.3056ZM57.8478 49.86C58.7982 49.8798 59.0556 49.6224 59.0556 49.4838C59.0556 49.3452 58.8774 49.1868 58.6398 49.167C58.62 49.167 58.6002 49.167 58.5804 49.167C58.1844 49.167 57.9468 49.6422 57.8478 49.86Z" fill="#263238"/>
<path d="M54.7194 54.5922H61.3722L60.9564 50.0184H54.3234L54.7194 54.5922Z" fill="#407BFF"/>
<path opacity="0.6" d="M54.7194 54.5922H61.3722L60.9564 50.0184H54.3234L54.7194 54.5922Z" fill="white"/>
<path opacity="0.1" d="M54.7194 54.5923H61.3722L61.095 51.6025H54.462L54.7194 54.5923Z" fill="black"/>
<path opacity="0.2" d="M58.719 54.5922H61.3722L60.9564 50.0184H58.323L58.719 54.5922Z" fill="white"/>
<path d="M56.0064 50.0184H56.541L56.937 54.5922H56.4024L56.0064 50.0184Z" fill="#263238"/>
<path d="M60.0258 54.5922H60.4218L60.0258 50.0184H59.6298L60.0258 54.5922Z" fill="#263238"/>
<path d="M89.9634 103.261L88.5378 101.855L86.7558 105.815L87.8052 106.488L89.9634 103.261Z" fill="#FF8B7B"/>
<path opacity="0.2" d="M89.6664 103.677L88.9734 104.726L87.5478 104.033L88.2804 102.409L89.6664 103.677Z" fill="black"/>
<path d="M97.428 107.399H97.4082C96.8538 107.359 96.339 107.082 96.0024 106.646C94.557 104.805 93.7056 102.013 92.7948 100.172C92.676 99.9343 92.5572 99.7363 92.4186 99.5383C92.379 99.6769 92.3394 99.8155 92.2998 99.9739C91.4484 102.488 89.6862 104.27 89.6862 104.27L87.8448 103.043C87.8448 103.043 90.1416 97.3999 90.3792 96.8455C92.379 92.3311 97.2102 97.8157 99.012 101.043C99.2892 101.558 99.507 102.013 99.6456 102.37L103.922 102.508C104.259 104.983 103.15 107.854 97.428 107.399Z" fill="#407BFF"/>
<g opacity="0.4">
<path d="M97.428 107.399C96.8538 107.359 96.3192 107.082 95.9826 106.627C94.5372 104.785 93.7056 101.993 92.7948 100.172C92.676 99.9343 92.5572 99.7363 92.4186 99.5383C92.379 99.6769 92.3394 99.8155 92.2998 99.9739C91.4484 102.488 89.6862 104.27 89.6862 104.27L87.8448 103.043C87.8448 103.043 90.1416 97.3999 90.3792 96.8455C92.379 92.3311 97.2102 97.8157 99.012 101.043C99.2892 101.558 99.507 102.013 99.6456 102.37L103.922 102.508C104.259 104.983 103.15 107.854 97.428 107.399Z" fill="black"/>
</g>
<path d="M90.6762 103.696L88.0032 102.211L87.6666 103.142L89.9832 104.528L90.6762 103.696Z" fill="#263238"/>
<path d="M86.934 104.706C86.3202 104.904 85.6074 105.082 84.1026 104.825C83.766 104.765 83.4888 105.538 84.2214 105.854C84.954 106.151 88.0824 107.102 88.1022 107.102C88.2606 107.141 88.4388 107.062 88.4784 106.884L88.8942 105.241C88.914 105.161 88.8744 105.082 88.7952 105.062L87.2706 104.706C87.1518 104.686 87.033 104.686 86.934 104.706Z" fill="#263238"/>
<path d="M86.8746 104.785C86.8944 104.766 86.8944 104.746 86.8746 104.726C86.8548 104.706 86.8548 104.706 86.835 104.706C86.736 104.726 85.9044 104.825 85.7856 105.063C85.7658 105.102 85.7658 105.162 85.7856 105.201C85.8252 105.28 85.8846 105.32 85.9836 105.34C86.142 105.34 86.3004 105.28 86.439 105.181C86.5776 105.063 86.736 104.924 86.8746 104.785ZM85.9242 105.023C86.1816 104.904 86.439 104.825 86.7162 104.805C86.3994 105.102 86.142 105.261 85.9836 105.241C85.9242 105.241 85.8846 105.201 85.8648 105.142C85.845 105.122 85.845 105.102 85.8648 105.082C85.8648 105.082 85.9044 105.063 85.9242 105.023Z" fill="#407BFF"/>
<path d="M86.8944 104.765C86.8944 104.746 86.8944 104.726 86.8944 104.726C86.8746 104.706 86.5578 104.31 86.241 104.27C86.142 104.251 86.0628 104.29 85.9836 104.35C85.8846 104.429 85.8846 104.508 85.9044 104.548C86.0034 104.746 86.5974 104.825 86.835 104.785C86.8548 104.785 86.8746 104.785 86.8944 104.765C86.8746 104.765 86.8746 104.765 86.8944 104.765ZM86.0628 104.409C86.1024 104.369 86.1618 104.35 86.2212 104.369C86.4192 104.389 86.637 104.607 86.7558 104.726C86.4786 104.746 86.0628 104.647 86.0034 104.528C86.0034 104.488 85.9836 104.468 86.0628 104.409Z" fill="#407BFF"/>
<path d="M98.0616 107.478C97.8042 107.458 97.5468 107.438 97.2696 107.399C91.4286 106.745 81.7464 103.894 80.5782 100.588C80.5782 100.588 79.1922 96.6276 84.1818 97.578C85.7064 97.875 88.3596 98.4492 90.7554 99.1224C91.8048 99.4194 95.5668 100.984 95.7648 101.32L99.111 101.479L104.002 101.696C104.12 102.053 104.2 102.429 104.239 102.825C104.556 105.161 103.507 107.894 98.0616 107.478Z" fill="#407BFF"/>
<g opacity="0.3">
<path d="M98.0616 107.478C97.8042 107.458 97.5468 107.438 97.2696 107.399C91.4286 106.745 81.7464 103.894 80.5782 100.588C80.5782 100.588 79.1922 96.6276 84.1818 97.578C85.7064 97.875 88.3596 98.4492 90.7554 99.1224C91.8048 99.4194 95.5668 100.984 95.7648 101.32L99.111 101.479L104.002 101.696C104.12 102.053 104.2 102.429 104.239 102.825C104.556 105.161 103.507 107.894 98.0616 107.478Z" fill="black"/>
</g>
<path d="M101.408 80.9461C103.012 87.5593 101.843 87.0049 101.447 87.2227C101.626 87.5395 102.121 87.6979 102.418 87.4801C102.715 87.2623 102.814 86.8861 102.814 86.5099C102.814 86.1535 102.576 82.3717 102.022 80.9659C101.982 80.8471 101.903 80.7085 101.784 80.6689C101.685 80.6095 101.388 80.8273 101.408 80.9461Z" fill="#263238"/>
<path d="M99.9624 86.7673C100.259 87.6187 100.319 88.1137 99.111 88.5097C99.111 88.5097 97.725 90.4699 99.705 93.1627C100.853 91.6183 101.804 89.9551 102.556 88.2127C101.725 87.5395 101.784 85.8961 101.923 84.7675L99.9624 86.7673Z" fill="#FF8B7B"/>
<path d="M97.9626 88.6879C98.2002 88.3117 98.5764 88.0345 99.012 87.9157C99.7446 87.6979 102.556 87.8167 102.814 88.0345C103.091 88.2325 103.289 88.5295 103.368 88.8463L97.9626 88.6879Z" fill="#263238"/>
<path opacity="0.2" d="M103.309 92.2321C103.566 92.9053 103.883 93.5389 104.279 94.1329L105.704 93.2023C105.566 92.9449 105.427 92.6875 105.249 92.4499C104.615 91.6777 103.883 91.8163 103.309 92.2321Z" fill="black"/>
<path d="M103.328 96.2118C103.328 96.2118 103.408 95.3208 103.427 94.7862C103.467 94.2516 103.507 93.6972 103.526 93.1626C103.546 92.628 103.566 92.0736 103.566 91.5192C103.566 91.3806 103.566 91.2222 103.566 91.0836C103.586 90.4104 104.101 89.8758 104.774 89.856C105.526 89.8164 106.14 90.4698 106.081 91.2222C106.001 92.0736 105.902 93.0438 105.883 93.3606C105.843 93.9348 105.784 94.509 105.704 95.0634C105.645 95.6376 105.546 96.2118 105.427 96.7662L105.388 96.9444L103.328 96.2118Z" fill="#FF8B7B"/>
<path d="M97.7844 97.0237L96.141 96.2515C96.0024 96.1921 95.844 96.1921 95.7054 96.2515L94.1808 97.0435C94.0422 97.1029 93.9432 97.2415 93.9234 97.3801C93.864 97.6771 94.0818 97.9543 94.3788 97.9741L95.844 98.0533L98.0418 98.4691C98.0418 98.4889 98.7942 97.4989 97.7844 97.0237Z" fill="#FF8B7B"/>
<path d="M103.507 95.9545L97.8042 97.0237C97.8042 97.0237 97.8636 98.5681 98.0616 98.4691C98.2002 98.4097 101.527 98.3503 103.665 98.3107C104.675 98.2909 105.487 97.4791 105.526 96.4693L103.507 95.9545Z" fill="#FF8B7B"/>
<path d="M103.229 90.2323C102.556 91.1035 103.091 93.7369 103.091 93.7369L106.457 93.0043C106.457 93.0043 106.516 89.8759 105.863 89.2819C105.13 88.6087 103.922 89.3215 103.229 90.2323Z" fill="#407BFF"/>
<g opacity="0.1">
<path d="M103.229 90.2323C102.556 91.1035 103.091 93.7369 103.091 93.7369L106.457 93.0043C106.457 93.0043 106.516 89.8759 105.863 89.2819C105.13 88.6087 103.922 89.3215 103.229 90.2323Z" fill="black"/>
</g>
<path d="M96.636 98.7858H97.2498C97.3092 98.7858 97.3686 98.7462 97.3686 98.6868V98.0928C97.3686 98.0334 97.3092 97.9938 97.2498 97.9938H96.8142C96.7548 97.9938 96.7152 98.0334 96.6954 98.073L96.5172 98.667C96.4974 98.7264 96.5568 98.7858 96.636 98.7858Z" fill="#263238"/>
<path d="M95.7846 98.7858H96.3984C96.4578 98.7858 96.5172 98.7462 96.5172 98.6868V98.0928C96.5172 98.0334 96.4578 97.9938 96.3984 97.9938H95.9628C95.9034 97.9938 95.8638 98.0334 95.844 98.073L95.6658 98.667C95.646 98.7264 95.7054 98.7858 95.7846 98.7858Z" fill="#263238"/>
<path d="M94.9332 98.7858H95.547C95.6064 98.7858 95.6658 98.7462 95.6658 98.6868V98.0928C95.6658 98.0334 95.6064 97.9938 95.547 97.9938H95.1114C95.052 97.9938 95.0125 98.0334 94.9927 98.073L94.8144 98.667C94.7946 98.7264 94.854 98.7858 94.9332 98.7858Z" fill="#263238"/>
<path d="M94.0818 98.7858H94.6956C94.755 98.7858 94.8144 98.7462 94.8144 98.6868V98.0928C94.8144 98.0334 94.755 97.9938 94.6956 97.9938H94.26C94.2006 97.9938 94.161 98.0334 94.1412 98.073L93.963 98.667C93.963 98.7264 94.0026 98.7858 94.0818 98.7858Z" fill="#263238"/>
<path d="M93.2304 98.7858H93.8442C93.9036 98.7858 93.963 98.7462 93.963 98.6868V98.0928C93.963 98.0334 93.9036 97.9938 93.8442 97.9938H93.4086C93.3492 97.9938 93.3096 98.0334 93.2898 98.073L93.1116 98.667C93.1116 98.7264 93.1512 98.7858 93.2304 98.7858Z" fill="#263238"/>
<path d="M92.379 98.7858H92.9928C93.0522 98.7858 93.1116 98.7462 93.1116 98.6868V98.0928C93.1116 98.0334 93.0522 97.9938 92.9928 97.9938H92.5572C92.4978 97.9938 92.4582 98.0334 92.4384 98.073L92.2602 98.667C92.2602 98.7264 92.3196 98.7858 92.379 98.7858Z" fill="#263238"/>
<path d="M91.5474 98.7858H92.1612C92.2206 98.7858 92.28 98.7462 92.28 98.6868V98.0928C92.28 98.0334 92.2206 97.9938 92.1612 97.9938H91.7256C91.6662 97.9938 91.6266 98.0334 91.6068 98.073L91.4286 98.667C91.4088 98.7264 91.4682 98.7858 91.5474 98.7858Z" fill="#263238"/>
<path d="M90.696 98.7858H91.3098C91.3692 98.7858 91.4286 98.7462 91.4286 98.6868V98.0928C91.4286 98.0334 91.3692 97.9938 91.3098 97.9938H90.8742C90.8148 97.9938 90.7752 98.0334 90.7554 98.073L90.5772 98.667C90.5574 98.7264 90.6168 98.7858 90.696 98.7858Z" fill="#263238"/>
<path d="M89.8446 98.7858H90.4584C90.5178 98.7858 90.5772 98.7462 90.5772 98.6868V98.0928C90.5772 98.0334 90.5178 97.9938 90.4584 97.9938H90.0228C89.9634 97.9938 89.9238 98.0334 89.904 98.073L89.7258 98.667C89.706 98.7264 89.7654 98.7858 89.8446 98.7858Z" fill="#263238"/>
<path d="M88.9932 98.7858H89.607C89.6664 98.7858 89.7258 98.7462 89.7258 98.6868V98.0928C89.7258 98.0334 89.6664 97.9938 89.607 97.9938H89.1714C89.112 97.9938 89.0724 98.0334 89.0526 98.073L88.8744 98.667C88.8546 98.7264 88.914 98.7858 88.9932 98.7858Z" fill="#263238"/>
<path d="M88.1418 98.7858H88.7556C88.815 98.7858 88.8744 98.7462 88.8744 98.6868V98.0928C88.8744 98.0334 88.815 97.9938 88.7556 97.9938H88.32C88.2606 97.9938 88.221 98.0334 88.2012 98.073L88.023 98.667C88.0032 98.7264 88.0626 98.7858 88.1418 98.7858Z" fill="#263238"/>
<path d="M87.2904 98.7858H87.9042C87.9636 98.7858 88.023 98.7462 88.023 98.6868V98.0928C88.023 98.0334 87.9636 97.9938 87.9042 97.9938H87.4686C87.4092 97.9938 87.3696 98.0334 87.3498 98.073L87.1716 98.667C87.1518 98.7264 87.2112 98.7858 87.2904 98.7858Z" fill="#263238"/>
<path d="M86.439 98.7858H87.0528C87.1122 98.7858 87.1716 98.7462 87.1716 98.6868V98.0928C87.1716 98.0334 87.1122 97.9938 87.0528 97.9938H86.6172C86.5578 97.9938 86.5182 98.0334 86.4984 98.073L86.3202 98.667C86.3202 98.7264 86.3598 98.7858 86.439 98.7858Z" fill="#263238"/>
<path d="M85.5876 98.7858H86.2014C86.2608 98.7858 86.3202 98.7462 86.3202 98.6868V98.0928C86.3202 98.0334 86.2608 97.9938 86.2014 97.9938H85.7658C85.7064 97.9938 85.6668 98.0334 85.647 98.073L85.4688 98.667C85.4688 98.7264 85.5282 98.7858 85.5876 98.7858Z" fill="#263238"/>
<path d="M84.756 98.7858H85.3698C85.4292 98.7858 85.4886 98.7462 85.4886 98.6868V98.0928C85.4886 98.0334 85.4292 97.9938 85.3698 97.9938H84.9342C84.8748 97.9938 84.8352 98.0334 84.8154 98.073L84.6372 98.667C84.6174 98.7264 84.6768 98.7858 84.756 98.7858Z" fill="#263238"/>
<path d="M84.1224 98.8453C84.1224 99.1027 84.36 99.3205 84.6372 99.3205H97.3488C97.626 99.3205 97.8636 99.1027 97.8636 98.8453C97.8636 98.7067 97.8042 98.6077 97.7052 98.5087C97.6062 98.4295 97.4874 98.3701 97.3488 98.3701H84.6174C84.558 98.3701 84.5184 98.3701 84.4788 98.3899C84.2808 98.4493 84.1224 98.6473 84.1224 98.8453Z" fill="#263238"/>
<path opacity="0.2" d="M84.1224 98.8453C84.1224 99.1027 84.36 99.3205 84.6372 99.3205H97.3488C97.626 99.3205 97.8636 99.1027 97.8636 98.8453C97.8636 98.7067 97.8042 98.6077 97.7052 98.5087C97.6062 98.4295 97.4874 98.3701 97.3488 98.3701H84.6174C84.558 98.3701 84.5184 98.3701 84.4788 98.3899C84.2808 98.4493 84.1224 98.6473 84.1224 98.8453Z" fill="white"/>
<path d="M84.1224 98.8453C84.1224 99.1027 84.36 99.3205 84.6372 99.3205H88.9338C89.1318 99.2611 89.2902 99.0829 89.2902 98.8651C89.2902 98.8453 89.2902 98.8057 89.2902 98.7859C89.2704 98.6869 89.211 98.6077 89.1516 98.5483C89.112 98.5285 89.0724 98.4889 89.0328 98.4691C89.013 98.4691 88.9932 98.4493 88.9734 98.4493C88.914 98.4295 88.8546 98.4097 88.7754 98.4097H84.4986C84.2808 98.4493 84.1224 98.6473 84.1224 98.8453Z" fill="#263238"/>
<path d="M98.8734 88.272C100.101 88.2324 101.23 88.3314 102.616 88.4898C103.388 88.569 104.16 88.7076 104.912 88.866C104.932 88.866 104.952 88.8858 104.992 88.8858C105.586 89.064 105.942 89.6778 105.764 90.2718C104.081 96.1722 103.982 98.1918 103.922 101.38L95.6856 100.904C95.547 99.5778 96.1212 98.2116 95.9628 96.2316C95.547 91.1628 95.052 91.3014 95.1906 90.3114C95.052 88.9254 97.8636 88.2918 98.8734 88.272Z" fill="#407BFF"/>
<path d="M98.0022 82.5102C97.9032 82.5102 97.8042 82.6092 97.8042 82.7676C97.7844 82.926 97.8636 83.0448 97.9626 83.0646C98.0616 83.0646 98.1606 82.9656 98.1606 82.8072C98.1804 82.6488 98.1012 82.5102 98.0022 82.5102Z" fill="#263238"/>
<path d="M97.7052 82.3915L98.0616 82.5301C97.8636 82.6885 97.7052 82.3915 97.7052 82.3915Z" fill="#263238"/>
<path d="M97.9625 84.0943C97.9625 84.0943 97.6061 84.0943 97.4675 83.8567C97.8239 83.6191 98.2397 83.0647 98.2397 83.0647L97.9625 84.0943Z" fill="#A02724"/>
<path d="M98.0814 81.9162C98.2992 81.936 98.517 82.0548 98.6358 82.233V82.2528C98.6556 82.2924 98.715 82.3122 98.7546 82.2726C98.7942 82.2528 98.814 82.1934 98.7744 82.1538C98.616 81.9162 98.3586 81.7578 98.0814 81.738C98.0418 81.738 97.9824 81.7776 97.9824 81.8172C97.9824 81.8568 98.0022 81.8766 98.022 81.8964C98.0616 81.9162 98.0814 81.9162 98.0814 81.9162Z" fill="#263238"/>
<path d="M103.309 82.6687C103.031 84.5101 102.972 85.3021 101.962 86.1733C101.368 86.6881 100.675 86.8861 100.022 86.8267C100.022 86.8267 100.022 86.8267 100.002 86.8267C99.7842 86.8069 99.5862 86.7673 99.3882 86.6881C99.21 86.6287 99.0516 86.5495 98.913 86.4505C98.3982 86.1139 98.022 85.5793 97.923 84.8665C97.6656 83.1637 98.1408 80.4313 100.022 79.8373C101.368 79.4017 102.794 80.1541 103.21 81.4807C103.328 81.8767 103.368 82.2925 103.309 82.6687Z" fill="#FF8B7B"/>
<path d="M101.249 86.4109C101.447 86.5891 101.744 86.5891 101.942 86.4109C102.655 85.8367 104.239 84.411 104.457 82.926C104.734 81.0054 103.982 79.7779 102.576 79.4017C101.17 79.0255 98.9723 79.3423 98.2793 80.3917C97.5863 81.4213 98.2991 81.6391 99.5663 83.3419C99.2693 84.5695 100.596 85.8565 101.249 86.4109Z" fill="#263238"/>
<path d="M99.5664 82.6687C99.111 82.7677 98.913 83.3815 98.9328 83.7973C98.9526 84.2527 99.309 84.5695 99.6852 84.2923C99.9822 84.0943 100.18 83.7775 100.24 83.4211C100.339 82.9855 100.022 82.5895 99.5664 82.6687Z" fill="#FF8B7B"/>
<path d="M103.922 100.805L95.6856 100.33C95.6064 100.33 95.5272 100.37 95.547 100.409L95.4282 101.083C95.4282 101.201 95.4678 101.241 95.547 101.261L104.081 101.736C104.18 101.736 104.239 101.696 104.219 101.617L104.041 100.865C104.041 100.825 103.982 100.805 103.922 100.805Z" fill="#263238"/>
<path d="M102.992 101.696L102.952 100.726C102.952 100.706 102.992 100.687 103.031 100.687L103.249 100.706C103.289 100.706 103.328 100.726 103.328 100.766L103.368 101.736C103.368 101.756 103.328 101.776 103.289 101.776L103.071 101.756C103.031 101.756 102.992 101.736 102.992 101.696Z" fill="#407BFF"/>
<path d="M96.2994 101.3L96.3786 100.33C96.3786 100.31 96.4182 100.251 96.4578 100.251L96.6756 100.271C96.7152 100.271 96.7548 100.33 96.7548 100.35L96.6954 101.32C96.6954 101.34 96.6558 101.38 96.6162 101.38L96.3786 101.36C96.339 101.36 96.2994 101.34 96.2994 101.3Z" fill="#407BFF"/>
<path d="M99.6258 101.498L99.6456 100.469C99.6456 100.449 99.6852 100.429 99.7248 100.429L99.9426 100.449C99.9822 100.449 100.022 100.489 100.022 100.508V101.518C100.022 101.538 99.9822 101.558 99.9426 101.558L99.705 101.538C99.6654 101.558 99.6258 101.538 99.6258 101.498Z" fill="#407BFF"/>
<path d="M95.1906 95.6772C95.1906 95.6772 95.1906 94.7466 95.1708 94.1922C95.151 93.6378 95.151 93.0636 95.1312 92.5092C95.1114 91.9548 95.0718 91.3806 95.0322 90.8064C95.0322 90.648 95.0124 90.5094 95.0124 90.351C94.9728 89.658 95.4678 89.064 96.141 88.965C96.9132 88.866 97.6062 89.4798 97.6062 90.252C97.6062 91.143 97.5864 92.133 97.5864 92.4894C97.5864 93.0834 97.5666 93.6774 97.5468 94.2714C97.527 94.8654 97.4676 95.4594 97.4082 96.0732L97.3686 96.2712L95.1906 95.6772Z" fill="#FF8B7B"/>
<path d="M89.6268 96.885L88.1022 96.3306C87.9834 96.291 87.825 96.291 87.726 96.3702L86.439 97.182C86.3202 97.2612 86.2608 97.38 86.241 97.4988C86.2014 97.7562 86.4192 97.9938 86.6964 97.9938L88.0032 97.9542L89.9832 98.172C89.9634 98.1522 90.5376 97.2216 89.6268 96.885Z" fill="#FF8B7B"/>
<path d="M95.349 95.4L89.5476 97.0038C89.5476 97.0038 89.7654 98.2908 89.9634 98.172C90.102 98.0928 93.5076 98.0532 95.7252 97.8354C96.7746 97.7364 97.5468 96.8256 97.4874 95.7762L95.349 95.4Z" fill="#FF8B7B"/>
<path d="M95.8836 88.9057C94.6362 89.4007 94.2204 91.8361 94.8342 93.1429C97.329 92.6479 98.2398 93.1825 98.22 93.2419C98.3586 92.5093 98.3586 92.2123 98.2992 91.4599C98.2596 90.7273 98.022 89.9749 97.4874 89.4403C96.9924 88.9255 96.5568 88.6087 95.8836 88.9057Z" fill="#263238"/>
<path d="M95.8836 88.9057C94.6362 89.4007 94.2204 91.8361 94.8342 93.1429C97.329 92.6479 98.2398 93.1825 98.22 93.2419C98.3586 92.5093 98.3586 92.2123 98.2992 91.4599C98.2596 90.7273 98.022 89.9749 97.4874 89.4403C96.9924 88.9255 96.5568 88.6087 95.8836 88.9057Z" fill="#407BFF"/>
<path opacity="0.2" d="M100.002 86.8465C99.7842 86.8267 99.5862 86.7871 99.3882 86.7079C99.21 86.6485 99.0516 86.5693 98.913 86.4703C98.913 86.4703 98.913 86.4703 98.913 86.4505C99.1506 86.5297 99.408 86.5099 99.6258 86.4307C99.6852 86.4109 99.7644 86.3713 99.8238 86.4109C99.903 86.4307 99.9228 86.5297 99.9426 86.5891C99.9624 86.6683 99.9822 86.7475 100.002 86.8465Z" fill="black"/>
<path d="M98.3388 80.8273C99.9426 87.4405 98.7744 86.8861 98.3784 87.1039C98.5566 87.4207 99.0516 87.5791 99.3486 87.3613C99.6456 87.1435 99.7446 86.7673 99.7446 86.3911C99.7446 86.0149 99.507 82.2529 98.9526 80.8471C98.913 80.7283 98.8338 80.5897 98.715 80.5501C98.5962 80.4907 98.2992 80.6887 98.3388 80.8273Z" fill="#263238"/>
<path d="M104.457 81.5598C104.18 81.837 103.724 81.738 103.368 81.6192C102.972 81.5004 102.596 81.3618 102.259 81.1242C101.923 80.8866 101.645 80.55 101.586 80.154C101.487 79.56 101.923 78.9264 102.517 78.8274C102.556 78.3324 102.893 77.8572 103.368 77.7384C103.843 77.6196 104.417 77.8176 104.695 78.2334C106.061 78.5304 105.685 79.8768 105.645 80.055C105.605 80.2332 105.447 80.3916 105.249 80.4114C105.328 80.8272 104.873 81.5004 104.457 81.5598Z" fill="#263238"/>
</svg>
