<svg width="130" height="130" viewBox="0 0 130 130" fill="none" xmlns="http://www.w3.org/2000/svg">
<circle cx="66.5789" cy="66.5789" r="58.4211" fill="#CEECD3"/>
<circle cx="113.947" cy="11.3158" r="6.31579" fill="#76FD8C"/>
<circle cx="11.3158" cy="91.8422" r="6.31579" fill="#76FD8C"/>
<circle r="3.15789" transform="matrix(1 0 0 -1 14.4737 69.7369)" fill="white"/>
<circle r="2.36842" transform="matrix(1 0 0 -1 108.421 40.5263)" fill="white"/>
<circle cx="120.263" cy="101.316" r="3.15789" fill="#76FD8C"/>
<circle cx="104.474" cy="8.15793" r="1.57895" fill="#76FD8C"/>
<circle cx="119.474" cy="26.3158" r="2.36842" fill="#1BB934"/>
<circle cx="79.5" cy="50.5" r="28.5" fill="#DFF3E3"/>
<path fill-rule="evenodd" clip-rule="evenodd" d="M98.896 120.706C98.7663 120.603 98.6175 120.527 98.4582 120.481C98.2989 120.436 98.1322 120.423 97.9677 120.442C97.8031 120.461 97.6439 120.513 97.4991 120.593C97.3543 120.674 97.2268 120.782 97.1238 120.912C97.0208 121.042 96.9444 121.191 96.8989 121.351C96.8534 121.51 96.8398 121.677 96.8587 121.842C96.8777 122.006 96.9288 122.165 97.0093 122.31C97.0898 122.455 97.198 122.582 97.3278 122.685C97.5899 122.893 97.9238 122.988 98.2562 122.949C98.5885 122.91 98.8921 122.741 99.1001 122.478C99.308 122.216 99.4034 121.882 99.3651 121.549C99.3268 121.217 99.1581 120.913 98.896 120.706Z" fill="#BFC7D2"/>
<path d="M22.7247 11.4067L23.383 11.9287C23.5576 12.0672 23.67 12.2694 23.6955 12.491C23.7209 12.7125 23.6573 12.9352 23.5186 13.1101C23.3799 13.285 23.1776 13.3977 22.9561 13.4235C22.7346 13.4492 22.5121 13.3859 22.3374 13.2475L21.6791 12.7255L21.1563 13.3849C21.0176 13.5598 20.8153 13.6725 20.5938 13.6983C20.3723 13.724 20.1497 13.6607 19.9751 13.5223C19.8005 13.3839 19.6881 13.1816 19.6627 12.9601C19.6373 12.7385 19.7009 12.5158 19.8395 12.3409L20.3623 11.6815L19.704 11.1595C19.5294 11.0211 19.417 10.8189 19.3916 10.5973C19.3661 10.3758 19.4298 10.153 19.5684 9.97816C19.7071 9.80328 19.9094 9.69056 20.1309 9.66479C20.3524 9.63902 20.575 9.70232 20.7496 9.84076L21.4079 10.3628L21.9307 9.70337C22.0694 9.52849 22.2717 9.41576 22.4932 9.39C22.7148 9.36423 22.9373 9.42753 23.1119 9.56597C23.2865 9.70441 23.3989 9.90665 23.4243 10.1282C23.4497 10.3498 23.3861 10.5725 23.2475 10.7473L22.7247 11.4067Z" fill="#BFC7D2"/>
<path d="M11.7247 25.4067L12.383 25.9287C12.5576 26.0672 12.67 26.2694 12.6954 26.491C12.7209 26.7125 12.6572 26.9352 12.5186 27.1101C12.3799 27.285 12.1776 27.3977 11.9561 27.4235C11.7346 27.4492 11.512 27.3859 11.3374 27.2475L10.6791 26.7255L10.1563 27.3849C10.0176 27.5598 9.81528 27.6725 9.59377 27.6983C9.37225 27.724 9.14973 27.6607 8.97512 27.5223C8.80051 27.3839 8.68812 27.1816 8.6627 26.9601C8.63728 26.7385 8.7009 26.5158 8.83955 26.3409C8.83955 26.3409 9.40032 26.008 9.36235 25.6815C9.32444 25.3556 8.70398 25.1595 8.70398 25.1595C8.52937 25.0211 8.417 24.8189 8.39157 24.5973C8.36615 24.3758 8.42976 24.153 8.56841 23.9782C8.70707 23.8033 8.90941 23.6906 9.13092 23.6648C9.35244 23.639 9.57497 23.7023 9.74958 23.8408L10.408 24.3628L10.9308 23.7034C11.0694 23.5285 11.2717 23.4158 11.4933 23.39C11.7148 23.3642 11.9373 23.4275 12.1119 23.566C12.2865 23.7044 12.3989 23.9066 12.4243 24.1282C12.4497 24.3498 12.3861 24.5725 12.2475 24.7473L11.7247 25.4067Z" fill="#BFC7D2"/>
<rect x="25" y="100.547" width="83" height="0.892473" rx="0.446237" fill="#CCDDFF"/>
<rect x="30.8011" y="33.9086" width="34.6577" height="65.0018" fill="#CFDFFF"/>
<path d="M30.8011 75.2598L65.4588 95.1917L65.4588 98.9104L30.8011 98.9104L30.8011 75.2598Z" fill="#AFC2F7"/>
<path d="M35.2635 40.4534L60.9964 40.4534L60.9964 61.6989C60.9964 63.3557 59.6533 64.6989 57.9964 64.6989L38.2635 64.6989C36.6066 64.6989 35.2635 63.3557 35.2635 61.6989L35.2635 40.4534Z" fill="white"/>
<path d="M36.4534 40.3047L59.8064 40.3047L59.8064 63.6577L36.4534 63.6577L36.4534 40.3047Z" fill="#A6BDF3"/>
<path d="M42.4032 40.3047L36.4534 40.3047L36.4534 46.7751L42.4032 40.3047Z" fill="#8BA9EE"/>
<path d="M36.4534 51.8325L36.4534 55.6998L50.733 40.3047L47.0143 40.3047L36.4534 51.8325Z" fill="#8BA9EE"/>
<path d="M46.94 63.5834L40.5439 63.5834L59.7321 43.2796L59.7321 49.8988L46.94 63.5834Z" fill="#8BA9EE"/>
<path d="M59.7321 63.5834L49.6174 63.5834L59.7321 52.9481L59.7321 63.5834Z" fill="#8BA9EE"/>
<rect x="34.8544" y="38.8544" width="26.5511" height="0.966846" rx="0.483423" fill="#8BA9EE" stroke="#6B8BDF" stroke-width="0.966846"/>
<rect x="27.5287" y="29" width="41.2025" height="4.9086" rx="2" fill="#CFDFFF"/>
<path d="M27.5287 33.1649L68.7312 33.1649V33.1649C68.7312 33.5757 68.3982 33.9086 67.9874 33.9086L28.2724 33.9086C27.8616 33.9086 27.5287 33.5757 27.5287 33.1649V33.1649Z" fill="#AFC2F7"/>
<rect x="25.69" y="98.5591" width="45.0287" height="2.93369" fill="#6989E0" stroke="#7992DB"/>
<rect x="43.7419" y="69.7563" width="63.6631" height="3.12366" fill="#E2F0FF"/>
<rect x="43.7419" y="72.8799" width="63.6631" height="0.743727" fill="#D0DFFF"/>
<path d="M61.8145 69.405L61.5765 69.405L61.4264 69.5897L58.5259 73.1596L57.8635 73.9749L58.9139 73.9749L62.0376 73.9749L62.2756 73.9749L62.4257 73.7902L65.3262 70.2203L65.9886 69.405L64.9381 69.405L61.8145 69.405Z" fill="#C51F3C" stroke="#932636"/>
<path d="M68.9543 69.405L68.7163 69.405L68.5662 69.5897L65.6657 73.1596L65.0033 73.9749L66.0537 73.9749L69.1774 73.9749L69.4154 73.9749L69.5655 73.7902L72.466 70.2203L73.1284 69.405L72.0779 69.405L68.9543 69.405Z" fill="#C51F3C" stroke="#932636"/>
<path d="M76.094 69.405L75.8561 69.405L75.706 69.5897L72.8055 73.1596L72.143 73.9749L73.1935 73.9749L76.3172 73.9749L76.5552 73.9749L76.7052 73.7902L79.6058 70.2203L80.2682 69.405L79.2177 69.405L76.094 69.405Z" fill="#C51F3C" stroke="#932636"/>
<path d="M83.3826 69.405L83.1446 69.405L82.9945 69.5897L80.094 73.1596L79.4316 73.9749L80.4821 73.9749L83.6057 73.9749L83.8437 73.9749L83.9938 73.7902L86.8943 70.2203L87.5567 69.405L86.5062 69.405L83.3826 69.405Z" fill="#C51F3C" stroke="#932636"/>
<path d="M97.5135 69.405L97.2755 69.405L97.1254 69.5897L94.2249 73.1596L93.5624 73.9749L94.6129 73.9749L97.7366 73.9749L97.9746 73.9749L98.1246 73.7902L101.025 70.2203L101.688 69.405L100.637 69.405L97.5135 69.405Z" fill="#C51F3C" stroke="#932636"/>
<path d="M90.3736 69.405L90.1356 69.405L89.9856 69.5897L87.085 73.1596L86.4226 73.9749L87.4731 73.9749L90.5967 73.9749L90.8347 73.9749L90.9848 73.7902L93.8853 70.2203L94.5478 69.405L93.4973 69.405L90.3736 69.405Z" fill="#C51F3C" stroke="#932636"/>
<path d="M104.207 69.405L103.969 69.405L103.819 69.5897L100.918 73.1596L100.256 73.9749L101.306 73.9749L104.43 73.9749L104.68 73.9749L104.83 73.7749L107.508 70.205L108.108 69.405L107.108 69.405L104.207 69.405Z" fill="#C51F3C" stroke="#932636"/>
<path d="M47.5349 69.405L47.2969 69.405L47.1468 69.5897L44.2463 73.1596L43.5839 73.9749L44.6344 73.9749L47.758 73.9749L47.996 73.9749L48.1461 73.7902L51.0466 70.2203L51.709 69.405L50.6586 69.405L47.5349 69.405Z" fill="#C51F3C" stroke="#932636"/>
<path d="M54.6747 69.405L54.4367 69.405L54.2867 69.5897L51.3861 73.1596L50.7237 73.9749L51.7742 73.9749L54.8978 73.9749L55.1358 73.9749L55.2859 73.7902L58.1864 70.2203L58.8488 69.405L57.7984 69.405L54.6747 69.405Z" fill="#C51F3C" stroke="#932636"/>
<path d="M54.7491 74.293V99.0592H47.6093L47.6093 74.293C47.3614 73.227 46.8209 70.9314 46.6424 70.2769C46.464 69.6224 46.7168 69.3596 46.8656 69.3101H55.4184C55.9539 69.3101 55.8895 69.9546 55.7903 70.2769L54.7491 74.293Z" fill="#055094" stroke="#00073D"/>
<rect x="47.6093" y="74.2186" width="7.13979" height="24.8405" fill="#1D3A69"/>
<rect x="49.1917" y="76.0986" width="3.97491" height="23.3118" rx="1.98746" stroke="#7C95BF"/>
<circle cx="51.1792" cy="71.5412" r="0.594982" fill="#1C3A6A"/>
<path d="M83.6047 62.9879L82.8561 64.4851C82.7253 64.1834 82.5988 63.7962 82.4818 63.365C82.2458 62.4955 82.0638 61.5051 81.9621 60.8139L84.109 55.1604C84.1972 55.0831 84.3417 54.9851 84.549 54.8732C84.7997 54.7379 85.1049 54.6019 85.4314 54.4728C86.0621 54.2233 86.7399 54.0118 87.1861 53.8894L91.104 53.5992L94.4674 54.0285C94.642 54.1234 94.894 54.3277 95.2091 54.65C95.5481 54.9967 95.9203 55.4378 96.2936 55.9163C97.0392 56.8721 97.7657 57.9468 98.2055 58.6431C99.0761 60.0362 100.909 62.9812 101.321 63.6866C101.596 64.1582 101.456 64.5929 101.362 64.7545L100.43 65.6864H98.4594L99.0421 64.8319L99.2733 64.4928L98.9857 64.1999L94.9696 60.1094L94.1744 59.2995L94.1135 60.4329L93.544 71.0412H85.0422L84.5509 63.1803L84.4351 61.3271L83.6047 62.9879Z" fill="#035491" stroke="#1F3768"/>
<rect x="88.2964" y="54.4355" width="0.297491" height="16.667" transform="rotate(1.73161 88.2964 54.4355)" fill="#1F3768"/>
<path d="M87.1012 59.4928H84.2007L84.1263 58.8978H87.3243L87.1012 59.4928Z" fill="#1F3768"/>
<path d="M81.4489 60.534H79.1433L78.9946 61.8727H79.5895L79.7383 65.4426C80.0358 67.0045 80.9283 67.0788 81.672 66.8557C82.4157 66.6326 82.738 65.8393 82.862 65.3683C82.862 65.3683 81.9943 62.6908 81.5232 61.5753L81.9695 61.5009L81.4489 60.534Z" fill="#1F3768"/>
<path d="M91.1917 53.3199L89.9274 54.9561L89.0349 53.8405C89.8679 53.2455 90.0265 52.6009 90.0017 52.353L91.1917 53.3199Z" fill="#1F3768"/>
<path d="M88.3655 53.8405L87.3987 54.9561L87.1756 53.3199L87.7706 52.5018C87.4731 53.1563 88.0433 53.6669 88.3655 53.8405Z" fill="#1F3768"/>
<path d="M94.4641 53.9892L91.6379 53.6917V53.0224L94.4641 53.3942V53.9892Z" fill="#1F3768"/>
<path d="M84.1263 54.3611L83.9775 54.9561L86.655 53.9892V53.3199L84.1263 54.3611Z" fill="#1F3768"/>
<path d="M97.5134 66.1864L100.786 66.0376L99.0008 67.8226L99.1496 68.2688L98.034 68.7894L96.6209 67.2276L97.0671 65.8889L97.5134 66.1864Z" fill="#1F3768"/>
<path d="M93.2741 59.4928H90.3736L90.2992 58.8978H93.4973L93.2741 59.4928Z" fill="#1F3768"/>
<path d="M94.0179 70.2025L84.4982 67.2276L84.6469 72.4337H94.1666L94.0179 70.2025Z" fill="#1F3768"/>
<circle cx="89.0349" cy="57.0385" r="0.223118" fill="#1F3768"/>
<circle cx="89.0349" cy="60.9059" r="0.223118" fill="#1F3768"/>
<circle cx="89.0349" cy="64.6246" r="0.223118" fill="#1F3768"/>
<circle cx="89.0349" cy="67.8969" r="0.223118" fill="#1F3768"/>
<path d="M91.7123 56.3692C91.5933 56.7262 91.0677 56.7163 90.8198 56.6667C90.8198 56.8898 90.8347 57.4253 90.8942 57.7823C90.9537 58.1393 91.4644 58.3773 91.7123 58.4516C92.1585 58.3773 92.5304 58.0054 92.6048 57.7823V56.6667C92.0693 56.7857 91.7867 56.5179 91.7123 56.3692Z" fill="#F68820" stroke="#1F3768"/>
<path d="M92.3816 46.0313C91.0727 45.8528 90.9437 47.0973 91.0429 47.7419H90.5967L90.8198 45.1389L92.3816 45.4363V46.0313Z" fill="#714A79" stroke="#643452"/>
<path d="M92.6791 45.362H92.3816C90.3736 44.6183 83.3082 44.767 83.5313 44.3952C83.7098 44.0977 84.6965 43.825 85.1675 43.7258L85.2419 42.9077C85.4204 41.8367 86.407 41.2715 86.8781 41.1228C86.9276 41.0732 87.5474 41.0038 89.6299 41.1228C91.7123 41.2418 92.5304 42.8581 92.6791 43.6514V45.362Z" fill="#101B37" stroke="#000225"/>
<path d="M90.0017 52.6506C89.8232 53.3646 88.8861 54.138 88.4399 54.4355L87.7705 53.6174C87.5474 52.7249 87.7822 52.6261 87.7705 51.7581C86.6549 51.9068 85.6881 51.9812 85.3906 51.4606C85.1526 51.0441 85.4897 46.7503 85.6881 44.6927L90.8198 44.9902L90.5967 47.742H91.0429C90.8198 45.957 92.0841 45.8769 92.456 46.1058C93.4228 46.7008 91.9354 49.1551 91.6379 48.0395C91.4594 49.3484 90.4727 50.469 90.0761 50.94L90.0017 52.6506Z" fill="#F69A74"/>
<path d="M91.6379 48.0394C91.6379 48.3369 92.0841 48.7088 92.6047 47.5188C92.0097 48.4113 91.7866 48.2625 91.6379 48.0394Z" fill="#CC6D5B"/>
<path d="M92.1584 46.1058C92.4559 46.1058 92.9617 46.3586 92.6047 47.3701C92.6543 47.023 92.7534 46.2545 92.1584 46.1058Z" fill="#CC6D5B"/>
<path d="M91.4918 46.6501C91.6049 46.4461 91.8899 46.1506 92.125 46.6009C92.0166 46.4964 91.7725 46.2722 91.4918 46.6501Z" fill="#CC6D5B"/>
<path d="M87.6342 45.362C87.2375 45.957 86.474 47.2808 86.593 47.8163C86.7119 48.3518 87.3863 47.9403 87.7085 47.6676" stroke="#CC6D5B"/>
<path d="M85.8369 48.6344C86.5062 50.8656 89.1836 48.9319 89.1093 48.6344H85.8369Z" fill="white"/>
<path d="M88.3565 46.494C88.5361 46.7426 88.724 46.8916 89.1438 46.6595C89.1161 46.4569 88.9198 46.1403 88.3565 46.494Z" fill="#3C1A43"/>
<path d="M85.9942 46.0835C86.1738 46.332 86.3617 46.4811 86.7814 46.2489C86.7537 46.0464 86.5575 45.7297 85.9942 46.0835Z" fill="#3C1A43"/>
<path d="M86.878 45.1389C86.8284 44.9158 86.1343 44.6927 85.7624 45.1389L86.878 45.1389Z" fill="#163C78"/>
<path d="M89.5554 45.362C89.4959 45.1044 88.663 44.8467 88.2167 45.362L89.5554 45.362Z" fill="#163C78"/>
<path d="M83.1595 100.175C84.1301 100.09 85.0583 99.7515 85.684 99.4555C86.0264 99.2936 86.4154 99.2985 86.7913 99.3448C87.1829 99.3931 87.7011 99.5995 87.7968 99.9823L87.845 100.175C87.9588 100.63 87.6176 101.073 87.1482 101.078L82.4556 101.133C82.0308 101.138 81.6506 100.783 81.9888 100.526C82.2015 100.364 82.5649 100.226 83.1595 100.175Z" fill="#6C1A16" stroke="#3E1E1D"/>
<path d="M96.6104 100.425C96.0467 100.372 95.6594 100.126 95.3705 99.892C95.0951 99.6687 94.7141 99.6847 94.3632 99.7348C94.3026 99.7435 94.2417 99.7484 94.1815 99.7502C93.8118 99.7617 93.4305 99.9715 93.3543 100.333C93.2741 100.714 93.5607 101.073 93.9495 101.08L96.8374 101.129C97.2739 101.137 97.6171 100.755 97.2212 100.571C97.0756 100.504 96.8773 100.451 96.6104 100.425Z" fill="#6C1A16" stroke="#3E1E1D"/>
<path d="M87.7705 97.2741L87.3986 99.5797H86.3574V97.1998L87.7705 97.2741Z" fill="#BC1826"/>
<path d="M93.8691 100.1L93.4972 97.2741H94.6128L94.7615 100.1H93.8691Z" fill="#BC1826"/>
<path d="M87.7705 97.2741L87.3986 99.5797H86.3574V97.1998L87.7705 97.2741Z" stroke="#8B1B1E"/>
<path d="M93.8691 100.1L93.4972 97.2741H94.6128L94.7615 100.1H93.8691Z" stroke="#8B1B1E"/>
<path d="M86.2831 98.2411L88.1424 98.5385C88.1424 94.3737 89.1093 87.0108 87.9193 85.3746L88.1424 83.664L89.3324 75.3342L91.8611 85.3746C91.4892 89.3907 92.7535 93.9274 93.1254 98.5385H94.9103L94.5385 84.3334C94.122 82.0724 93.8195 75.1111 93.7204 72.7312H84.9444L85.2419 84.3334L86.2831 98.2411Z" fill="#1B2650" stroke="#00021E"/>
<path d="M94.3642 71.7607L94.4457 71.19H93.8692H84.7923C84.698 71.1407 84.5944 71.1066 84.4824 71.094C84.2995 71.0736 84.1329 71.115 83.9937 71.1836C83.7344 71.3113 83.5438 71.5452 83.4104 71.7491C83.1342 72.1714 82.9315 72.7373 82.8263 73.1188L82.8261 73.1188L82.8232 73.1305C82.6238 73.928 82.9246 74.5328 83.2244 74.85L83.6375 76.7777L83.6574 76.871L83.7103 76.9503C83.9872 77.3656 84.3052 77.6278 84.6602 77.7074C85.0232 77.7889 85.3358 77.6581 85.5211 77.4727L85.66 77.3339L85.6672 77.1377C85.707 76.0644 85.5585 74.5484 85.3948 73.3012L93.7246 73.2312L94.1546 73.2276L94.2154 72.8019L94.3642 71.7607Z" fill="#111A39" stroke="#00021E"/>
<path fill-rule="evenodd" clip-rule="evenodd" d="M88.2168 71.6899C88.1346 71.6899 88.0681 71.7565 88.0681 71.8387V72.4337C88.0681 72.5158 88.1346 72.5824 88.2168 72.5824H89.4068C89.4889 72.5824 89.5555 72.5158 89.5555 72.4337V71.8387C89.5555 71.7565 89.4889 71.6899 89.4068 71.6899H88.2168ZM88.3655 71.8387C88.2834 71.8387 88.2168 71.9053 88.2168 71.9874V72.2849C88.2168 72.3671 88.2834 72.4337 88.3655 72.4337H89.258C89.3402 72.4337 89.4068 72.3671 89.4068 72.2849V71.9874C89.4068 71.9053 89.3402 71.8387 89.258 71.8387H88.3655Z" fill="#1B224C"/>
<path d="M78.697 52.9038C78.697 52.7379 78.8302 52.6034 78.9945 52.6034H80.6307C80.795 52.6034 80.9281 52.7379 80.9281 52.9038V57.1099C80.9281 57.2759 80.795 57.4104 80.6307 57.4104H78.9945C78.8302 57.4104 78.697 57.2759 78.697 57.1099V52.9038Z" fill="#121B3A"/>
<path d="M79.2919 52.0025V52.6019H78.9945V52.1527H79.1432V52.0025H79.2919Z" fill="#00000E"/>
<path d="M79.5894 52.0025V52.6019H79.8869V52.1527H79.7382V52.0025H79.5894Z" fill="#00000E"/>
<path d="M80.4819 52.6019H80.1844V50.5003C80.0605 50.3501 79.9167 49.8243 80.3332 49.8243C80.7496 49.8243 80.6059 50.3501 80.4819 50.5003V52.6019Z" fill="#00000E"/>
<path d="M79.4407 54.6586C79.0837 54.1231 78.622 54.0388 78.3493 53.9893C78.1708 54.1083 78.2749 55.4767 78.3493 56.1461C78.5278 56.3841 79.1674 56.394 79.4649 56.3692C79.6638 56.2948 79.5359 56.1138 79.4649 55.9973C79.7382 55.8486 79.3869 55.5252 79.3869 55.5252C79.3869 55.5252 79.7382 55.5252 79.4407 55.1792C79.5894 55.1048 79.6638 55.0305 79.4407 54.6586Z" fill="#F79974"/>
<path d="M97.9596 68.7151L94.7616 71.2438C94.4889 71.7148 94.1071 72.6569 93.5716 72.9543C93.2561 73.1486 93.1204 72.8705 93.1032 72.6973C92.7535 73.0287 92.5152 72.5846 92.5304 72.4337C92.2935 72.4932 92.1714 72.3594 92.1585 72.2106C91.9513 72.2106 91.7628 71.8145 91.7867 71.7279C91.7621 71.6916 91.8117 71.5799 91.7867 71.5413C91.9354 71.2686 92.2924 70.7232 92.8279 70.4257C93.1502 70.3513 93.8691 70.1877 94.1666 70.1282L96.7697 67.3764L97.9596 68.7151Z" fill="#F79974"/>
<path d="M80.2589 56.8898L81.1246 60.5341H79.414L78.9946 57.0386L80.2589 56.8898Z" fill="#F79974"/>
</svg>
