<svg width="130" height="130" viewBox="0 0 130 130" fill="none" xmlns="http://www.w3.org/2000/svg">
<circle cx="66.5789" cy="66.5789" r="58.4211" fill="#C2EAFC"/>
<circle cx="113.947" cy="11.3158" r="6.31579" fill="#AAE5FF"/>
<circle cx="11.3158" cy="91.8422" r="6.31579" fill="#AAE5FF"/>
<circle r="3.15789" transform="matrix(1 0 0 -1 14.4737 69.7369)" fill="white"/>
<circle r="2.36842" transform="matrix(1 0 0 -1 108.421 40.5263)" fill="white"/>
<circle cx="120.263" cy="101.316" r="3.15789" fill="#FDD1A3"/>
<circle cx="104.474" cy="8.1579" r="1.57895" fill="#AAE5FF"/>
<circle cx="119.474" cy="26.3158" r="2.36842" fill="#E40C57"/>
<circle cx="75.4999" cy="58.5" r="28.5" fill="#D8F1FD"/>
<path fill-rule="evenodd" clip-rule="evenodd" d="M98.896 120.706C98.7662 120.603 98.6175 120.527 98.4582 120.481C98.2989 120.436 98.1322 120.423 97.9676 120.442C97.803 120.461 97.6438 120.513 97.499 120.593C97.3542 120.674 97.2267 120.782 97.1237 120.912C97.0208 121.042 96.9443 121.191 96.8989 121.351C96.8534 121.51 96.8397 121.677 96.8587 121.842C96.8776 122.006 96.9288 122.165 97.0093 122.31C97.0897 122.455 97.198 122.582 97.3277 122.685C97.5898 122.893 97.9238 122.988 98.2561 122.949C98.5885 122.91 98.892 122.741 99.1 122.478C99.308 122.216 99.4033 121.882 99.365 121.549C99.3268 121.217 99.1581 120.913 98.896 120.706Z" fill="#BFC7D2"/>
<path d="M22.7246 11.4067L23.383 11.9287C23.5576 12.0672 23.67 12.2694 23.6954 12.491C23.7208 12.7125 23.6572 12.9352 23.5186 13.1101C23.3799 13.285 23.1776 13.3977 22.9561 13.4235C22.7346 13.4492 22.512 13.3859 22.3374 13.2475L21.679 12.7255L21.1562 13.3849C21.0176 13.5598 20.8152 13.6725 20.5937 13.6983C20.3722 13.724 20.1497 13.6607 19.9751 13.5223C19.8005 13.3839 19.6881 13.1816 19.6627 12.9601C19.6372 12.7385 19.7009 12.5158 19.8395 12.3409L20.3623 11.6815L19.7039 11.1595C19.5293 11.0211 19.417 10.8189 19.3915 10.5973C19.3661 10.3758 19.4297 10.153 19.5684 9.97816C19.707 9.80328 19.9094 9.69056 20.1309 9.66479C20.3524 9.63902 20.5749 9.70232 20.7495 9.84076L21.4079 10.3628L21.9307 9.70337C22.0694 9.52849 22.2717 9.41576 22.4932 9.39C22.7147 9.36423 22.9373 9.42753 23.1119 9.56597C23.2865 9.70441 23.3989 9.90665 23.4243 10.1282C23.4497 10.3498 23.3861 10.5725 23.2474 10.7473L22.7246 11.4067Z" fill="#BFC7D2"/>
<path d="M11.7246 25.4067L12.383 25.9287C12.5576 26.0672 12.67 26.2694 12.6954 26.491C12.7208 26.7125 12.6572 26.9352 12.5186 27.1101C12.3799 27.285 12.1776 27.3977 11.9561 27.4235C11.7346 27.4492 11.512 27.3859 11.3374 27.2475L10.679 26.7255L10.1562 27.3849C10.0176 27.5598 9.81525 27.6725 9.59374 27.6983C9.37222 27.724 9.1497 27.6607 8.97509 27.5223C8.80048 27.3839 8.68809 27.1816 8.66267 26.9601C8.63725 26.7385 8.70087 26.5158 8.83952 26.3409C8.83952 26.3409 9.40029 26.008 9.36232 25.6815C9.32441 25.3556 8.70395 25.1595 8.70395 25.1595C8.52934 25.0211 8.41697 24.8189 8.39154 24.5973C8.36612 24.3758 8.42973 24.153 8.56838 23.9782C8.70704 23.8033 8.90938 23.6906 9.13089 23.6648C9.3524 23.639 9.57494 23.7023 9.74955 23.8408L10.4079 24.3628L10.9307 23.7034C11.0694 23.5285 11.2717 23.4158 11.4932 23.39C11.7147 23.3642 11.9373 23.4275 12.1119 23.566C12.2865 23.7044 12.3989 23.9066 12.4243 24.1282C12.4497 24.3498 12.3861 24.5725 12.2474 24.7473L11.7246 25.4067Z" fill="#BFC7D2"/>
<path d="M80.4095 34.2592C80.4095 32.5864 81.0742 30.982 82.2577 29.7999C83.4404 28.6169 85.0455 27.9525 86.719 27.9525C88.3918 27.9525 89.9969 28.6169 91.1804 29.7999C92.3631 30.9821 93.0285 32.5864 93.0285 34.2592C93.0285 35.9313 92.3631 37.5356 91.1804 38.7186C89.9969 39.9008 88.3918 40.5659 86.719 40.5659C85.0462 40.5627 83.4427 39.8976 82.2601 38.7154C81.0773 37.5332 80.4119 35.9305 80.4095 34.2592ZM73.3365 56.6362L73.6752 56.8489C73.9167 56.9747 74.1677 57.1094 74.4291 57.2161C76.8487 58.2015 79.4014 58.8197 82.0034 59.0507C83.5606 59.2116 85.1251 59.2921 86.6895 59.2921C87.5271 59.2921 88.371 59.2698 89.2206 59.2243C91.3692 59.1383 93.5059 58.8444 95.5979 58.3457C97.1241 57.9904 98.5977 57.4416 99.9851 56.7134C100.321 56.5908 100.504 56.2259 100.4 55.8834C100.4 55.4588 100.4 54.7921 100.342 54.0584C100.342 52.9288 100.274 51.6534 100.227 50.9875C100.145 49.8276 99.9349 48.6805 99.5986 47.5677C99.393 46.5943 98.6925 45.7992 97.7529 45.4718C97.0085 45.24 96.2458 44.9891 95.511 44.7477L93.9943 44.2554L90.6805 43.2222C90.5602 43.1713 90.4239 43.1713 90.3036 43.2222C90.192 43.3274 90.1291 43.474 90.1291 43.6277C89.6461 46.0327 89.0277 48.5339 88.245 51.2862L88.1486 50.3207C88.0426 49.2294 87.9263 48.0998 87.8011 46.9981C87.7398 46.6149 87.7908 46.223 87.9454 45.8677C88.0323 45.6702 88.1064 45.467 88.1677 45.2599C88.2427 44.9285 88.1837 44.5812 88.0036 44.2937C87.9374 44.1782 87.8179 44.1017 87.6848 44.0913H85.9363H85.7521C85.6406 44.1041 85.5386 44.1638 85.4724 44.2554C85.2262 44.5932 85.168 45.0329 85.3178 45.424L85.4047 45.6749C85.4628 45.839 85.5202 46.0031 85.588 46.1577C85.6724 46.3791 85.6964 46.6197 85.6557 46.8531C85.5465 47.5677 85.4692 48.2917 85.4238 49.0262L85.2979 50.2043C85.2979 50.562 85.2206 50.9093 85.1823 51.267C84.3806 48.5147 83.7326 45.8875 83.2497 43.2412V43.1257H82.9891C82.8879 43.1369 82.7875 43.1552 82.6895 43.1831L80.0515 44.033L75.6165 45.4526C74.8665 45.7036 74.2848 46.301 74.052 47.0562C73.7898 47.8114 73.5898 48.5865 73.4527 49.3735C73.2264 51.1387 73.1132 52.9159 73.1148 54.6948V56.037C73.059 56.2633 73.1476 56.5008 73.3365 56.6362ZM62.4097 84.7498C62.448 85.458 62.448 86.167 62.4097 86.8752C62.4145 87.8702 61.6614 88.7066 60.67 88.8062L60.148 88.9026L58.621 89.1726L58.6218 89.1734C58.5094 89.1814 58.4177 89.265 58.3994 89.3765C57.9842 90.4097 57.6551 91.192 57.3363 91.9169L57.3371 91.9161C57.2646 92.0101 57.2646 92.1408 57.3371 92.2348C57.7236 92.7661 58.1101 93.3261 58.5349 93.9443C59.194 94.7767 59.0832 95.9796 58.2839 96.6774L56.9888 97.9719C56.599 98.3798 56.0555 98.6044 55.4912 98.5901C55.0561 98.575 54.6361 98.4228 54.2934 98.1552L53.7236 97.7593L52.6414 96.9188C52.5473 96.8463 52.4158 96.8463 52.3226 96.9188C51.3567 97.3434 50.5541 97.6724 49.8106 97.9616L49.8098 97.9624C49.6727 97.9879 49.5699 98.1026 49.5587 98.242C49.4328 98.9956 49.3077 99.671 49.1818 100.289C49.0598 101.261 48.2294 101.988 47.2499 101.98H46.284H45.0862C44.1856 101.935 43.4349 101.274 43.2787 100.386C43.1432 99.7491 43.0181 99.0728 42.8731 98.1846C42.8651 98.0835 42.7894 97.999 42.6889 97.9815C41.723 97.5856 40.8727 97.2375 40.0901 96.8997C40.0135 96.84 39.906 96.84 39.8294 96.8997C39.1919 97.3633 38.6316 97.7592 38.1 98.1264C37.3055 98.7653 36.1499 98.6761 35.4621 97.9233C34.9696 97.4597 34.4962 97.0152 34.1001 96.5811C33.3263 95.8992 33.2235 94.7306 33.8674 93.9252C34.3025 93.2784 34.6986 92.708 35.0851 92.187C35.1624 92.0835 35.1624 91.9417 35.0851 91.8389C34.7273 91.008 34.3702 90.1581 34.0419 89.328C34.0164 89.2013 33.9096 89.1065 33.7805 89.0962C33.0656 88.9807 32.3507 88.8452 31.6646 88.7098C30.67 88.5712 29.948 87.6933 30.0029 86.6913V84.8177C29.9607 83.8394 30.6588 82.9838 31.6264 82.8285C32.3604 82.674 33.1047 82.5481 33.8004 82.4231C33.9104 82.4159 34.0005 82.337 34.022 82.2295C34.3312 81.4472 34.6691 80.6259 35.0851 79.6605C35.1496 79.5744 35.1496 79.4565 35.0851 79.3705C34.795 78.9841 34.5153 78.5787 34.2443 78.1828L33.9351 77.7383C33.59 77.3336 33.421 76.8078 33.4665 76.2781C33.5119 75.7484 33.7677 75.2585 34.1766 74.9183L35.4516 73.6438C36.1275 72.8639 37.299 72.7532 38.1095 73.3929C38.6602 73.7697 39.2205 74.156 39.8198 74.5901C39.9314 74.6754 40.0852 74.6754 40.1959 74.5901C40.9977 74.2325 41.8385 73.8852 42.6888 73.557C42.8251 73.5283 42.9263 73.4152 42.9399 73.2766C43.0363 72.6775 43.1527 72.0498 43.3169 71.2293C43.4555 70.2168 44.3433 69.476 45.365 69.5198H47.1335C48.1958 69.4752 49.1043 70.2766 49.1912 71.336C49.3171 72.0219 49.4422 72.6974 49.5586 73.3833C49.5681 73.5147 49.6622 73.6239 49.7905 73.6533C50.5349 73.9529 51.3271 74.2811 52.3025 74.716C52.3886 74.7805 52.5066 74.7805 52.5926 74.716L53.9546 73.7505L54.2829 73.5282C55.1189 72.8416 56.351 72.9491 57.0563 73.7696L58.3123 75.025C59.1077 75.7061 59.2145 76.8971 58.5538 77.7096C58.1187 78.3469 57.7226 78.9068 57.3361 79.4382C57.2683 79.5234 57.2691 79.6437 57.3369 79.7282C57.6844 80.5391 58.0326 81.3795 58.4 82.2972C58.4247 82.4024 58.514 82.4804 58.6215 82.49L60.0512 82.7505L60.6601 82.8286C61.6515 82.9226 62.4089 83.7549 62.4097 84.7498ZM51.5969 85.822C51.5945 84.3969 51.0287 83.0308 50.0221 82.0214C49.0155 81.0113 47.6504 80.4409 46.2246 80.433C44.2992 80.433 42.5188 81.4598 41.556 83.1279C40.5925 84.7952 40.5925 86.8489 41.556 88.5169C42.5188 90.1843 44.2992 91.2111 46.2246 91.2111C47.6511 91.2063 49.0179 90.6359 50.0245 89.6258C51.0319 88.6157 51.5969 87.248 51.5969 85.822ZM101 65.8402C101 64.7735 100.134 63.9085 99.0673 63.9085C98.0002 63.9085 97.1347 64.7736 97.1347 65.8402C97.118 73.2382 94.3852 80.3722 89.456 85.8916C84.526 91.4096 77.7427 94.9282 70.3908 95.7801L75.8301 86.2766C76.364 85.351 76.0461 84.1688 75.12 83.6351C74.1947 83.1014 73.0113 83.4193 72.4773 84.3449L65.2792 96.9676C65.2433 97.0361 65.2107 97.107 65.1828 97.1803C65.1461 97.2743 65.1174 97.3707 65.0959 97.4694V97.5658C65.0911 97.6463 65.0911 97.7275 65.0959 97.808V97.9139V97.9721V98.1266C65.0903 98.2135 65.0903 98.3003 65.0959 98.3871C65.2529 98.9623 65.6665 99.4323 66.2164 99.6617L78.6031 106.741C79.5292 107.275 80.7119 106.957 81.2458 106.031C81.779 105.106 81.461 103.923 80.5357 103.39L73.2412 99.218C81.0274 97.7451 88.0571 93.6084 93.1229 87.5167C98.1883 81.4259 100.974 73.7624 101 65.8402ZM34.8342 67.7719C35.3467 67.7719 35.8376 67.568 36.2003 67.2063C36.5629 66.8439 36.7661 66.3524 36.7661 65.8402C36.7788 58.4812 39.4781 51.3796 44.358 45.8689C49.2378 40.3582 55.9621 36.8171 63.2695 35.9118L57.5306 44.9612C56.96 45.8622 57.227 47.0563 58.1291 47.6266C59.0305 48.197 60.2251 47.9294 60.7957 47.0276L68.5255 34.8878C68.6307 34.7421 68.7151 34.5827 68.7765 34.4146C68.8187 34.3047 68.8514 34.1916 68.8729 34.0761V33.9215V33.7479C68.8817 33.6451 68.8817 33.5416 68.8729 33.4388C68.7701 32.9202 68.4601 32.4669 68.013 32.1834L55.7229 24.3122C55.2902 24.0318 54.7634 23.9354 54.2581 24.0429C53.7537 24.1504 53.313 24.4539 53.0324 24.8873C52.4474 25.7883 52.7049 26.9927 53.607 27.5766L61.0856 32.3187C53.1981 33.7096 46.0525 37.8304 40.9007 43.9592C35.7492 50.0891 32.9199 57.8354 32.9103 65.8407C32.9103 66.3529 33.1144 66.8445 33.4762 67.2069C33.8388 67.5686 34.3305 67.7725 34.843 67.7725L34.8342 67.7719Z" fill="#19648F" stroke="black" stroke-width="0.063144" stroke-miterlimit="10"/>
</svg>
