<svg width="130" height="130" viewBox="0 0 130 130" fill="none" xmlns="http://www.w3.org/2000/svg">
<circle cx="66.5789" cy="66.5789" r="58.4211" fill="#CEECD3"/>
<circle cx="113.947" cy="11.3158" r="6.31579" fill="#76FD8C"/>
<circle cx="11.3158" cy="91.8422" r="6.31579" fill="#76FD8C"/>
<circle r="3.15789" transform="matrix(1 0 0 -1 14.4737 69.7369)" fill="white"/>
<circle r="2.36842" transform="matrix(1 0 0 -1 108.421 40.5263)" fill="white"/>
<circle cx="120.263" cy="101.316" r="3.15789" fill="#76FD8C"/>
<circle cx="104.474" cy="8.1579" r="1.57895" fill="#76FD8C"/>
<circle cx="119.474" cy="26.3158" r="2.36842" fill="#1BB934"/>
<circle cx="79.5" cy="50.5" r="28.5" fill="#DFF3E3"/>
<path fill-rule="evenodd" clip-rule="evenodd" d="M98.896 120.706C98.7663 120.603 98.6175 120.527 98.4582 120.481C98.2989 120.436 98.1322 120.423 97.9677 120.442C97.8031 120.461 97.6439 120.513 97.4991 120.593C97.3543 120.674 97.2268 120.782 97.1238 120.912C97.0208 121.042 96.9444 121.191 96.8989 121.351C96.8534 121.51 96.8398 121.677 96.8587 121.842C96.8777 122.006 96.9288 122.165 97.0093 122.31C97.0898 122.455 97.198 122.582 97.3278 122.685C97.5899 122.893 97.9238 122.988 98.2562 122.949C98.5885 122.91 98.8921 122.741 99.1001 122.478C99.308 122.216 99.4034 121.882 99.3651 121.549C99.3268 121.217 99.1581 120.913 98.896 120.706Z" fill="#BFC7D2"/>
<path d="M22.7247 11.4067L23.383 11.9287C23.5576 12.0672 23.67 12.2694 23.6955 12.491C23.7209 12.7125 23.6573 12.9352 23.5186 13.1101C23.3799 13.285 23.1776 13.3977 22.9561 13.4235C22.7346 13.4492 22.5121 13.3859 22.3374 13.2475L21.6791 12.7255L21.1563 13.3849C21.0176 13.5598 20.8153 13.6725 20.5938 13.6983C20.3723 13.724 20.1497 13.6607 19.9751 13.5223C19.8005 13.3839 19.6881 13.1816 19.6627 12.9601C19.6373 12.7385 19.7009 12.5158 19.8395 12.3409L20.3623 11.6815L19.704 11.1595C19.5294 11.0211 19.417 10.8189 19.3916 10.5973C19.3661 10.3758 19.4298 10.153 19.5684 9.97816C19.7071 9.80328 19.9094 9.69056 20.1309 9.66479C20.3524 9.63902 20.575 9.70232 20.7496 9.84076L21.4079 10.3628L21.9307 9.70337C22.0694 9.52849 22.2717 9.41576 22.4932 9.39C22.7148 9.36423 22.9373 9.42753 23.1119 9.56597C23.2865 9.70441 23.3989 9.90665 23.4243 10.1282C23.4497 10.3498 23.3861 10.5725 23.2475 10.7473L22.7247 11.4067Z" fill="#BFC7D2"/>
<path d="M11.7247 25.4067L12.383 25.9287C12.5576 26.0672 12.67 26.2694 12.6954 26.491C12.7209 26.7125 12.6572 26.9352 12.5186 27.1101C12.3799 27.285 12.1776 27.3977 11.9561 27.4235C11.7346 27.4492 11.512 27.3859 11.3374 27.2475L10.6791 26.7255L10.1563 27.3849C10.0176 27.5598 9.81528 27.6725 9.59377 27.6983C9.37225 27.724 9.14973 27.6607 8.97512 27.5223C8.80051 27.3839 8.68812 27.1816 8.6627 26.9601C8.63728 26.7385 8.7009 26.5158 8.83955 26.3409C8.83955 26.3409 9.40032 26.008 9.36235 25.6815C9.32444 25.3556 8.70398 25.1595 8.70398 25.1595C8.52937 25.0211 8.417 24.8189 8.39157 24.5973C8.36615 24.3758 8.42976 24.153 8.56841 23.9782C8.70707 23.8033 8.90941 23.6906 9.13092 23.6648C9.35244 23.639 9.57497 23.7023 9.74958 23.8408L10.408 24.3628L10.9308 23.7034C11.0694 23.5285 11.2717 23.4158 11.4933 23.39C11.7148 23.3642 11.9373 23.4275 12.1119 23.566C12.2865 23.7044 12.3989 23.9066 12.4243 24.1282C12.4497 24.3498 12.3861 24.5725 12.2475 24.7473L11.7247 25.4067Z" fill="#BFC7D2"/>
<path d="M52.0591 94.743C57.3639 103.073 70.4066 103.577 76.1498 98.6668C76.0621 98.601 75.9525 98.5791 75.8868 98.5134C75.7333 98.3818 75.558 98.1845 75.4045 97.9434C74.8784 97.1981 75.1634 96.7159 75.4703 96.4528C75.6676 96.2994 75.8868 96.1898 76.1279 96.1459C77.5747 95.861 80.5778 95.4225 81.082 96.2336C81.7176 97.22 80.7312 99.6094 80.2051 101.034C79.964 101.714 79.5037 102.174 78.8022 101.933C78.4077 101.801 78.1446 101.275 77.75 100.837C76.5663 101.341 76.0621 101.845 74.6811 102.459C69.201 104.958 64.1812 104.213 58.9641 101.692C56.8378 100.662 54.8649 99.171 53.4839 97.1104C52.9578 96.3432 52.5194 95.5321 52.0591 94.743Z" fill="#19648F"/>
<path d="M47.938 38.429C38.0737 38.3632 30.555 49.0166 31.5633 56.5135C31.6729 56.4696 31.7387 56.4039 31.8483 56.382C32.0456 56.3381 32.3086 56.2943 32.5936 56.2724C33.5142 56.2285 33.7554 56.7327 33.8211 57.1492C33.865 57.3903 33.8211 57.6315 33.7115 57.8726C33.1416 59.2536 31.8921 61.9936 30.9276 61.9936C29.7658 61.9936 28.2752 59.8673 27.3765 58.6617C26.9381 58.0918 26.8065 57.4561 27.3984 56.9958C27.7272 56.7327 28.2971 56.8204 28.889 56.7108C29.1082 55.4394 28.9548 54.7599 29.1959 53.2473C30.0946 47.2849 33.4266 43.4927 38.3806 40.4676C40.3973 39.2401 42.7428 38.3852 45.2198 38.3632C46.1186 38.3194 47.0393 38.4071 47.938 38.429Z" fill="#19648F"/>
<path d="M99.9775 62.1909C103.485 52.9623 96.0976 42.1993 88.7322 40.5334C88.7542 40.643 88.7761 40.7526 88.7761 40.8402C88.7542 41.0375 88.7103 41.3006 88.6226 41.5636C88.3377 42.4405 87.7897 42.4843 87.3732 42.3966C87.1321 42.3528 86.9128 42.2212 86.7375 42.0459C85.6415 41.0375 83.5152 38.9112 83.844 38.0125C84.2385 36.9165 86.7594 36.2808 88.2061 35.8424C88.8857 35.6451 89.5433 35.7327 89.7625 36.4342C89.8941 36.8288 89.631 37.3549 89.4995 37.9248C90.6174 38.5824 91.3189 38.6701 92.6341 39.4154C97.917 42.3308 100.306 46.7807 101.424 52.4801C101.885 54.8037 101.863 57.2807 101.03 59.6262C100.723 60.525 100.328 61.3579 99.9775 62.1909Z" fill="#19648F"/>
<path d="M73.9139 34.0668C73.9139 34.1983 73.9139 34.3517 73.9139 34.4833C73.9139 34.6148 73.892 34.7463 73.892 34.8998C73.8701 35.097 73.8481 35.2943 73.8043 35.4916C73.7605 35.7108 73.7166 35.93 73.6728 36.1273C73.5632 36.5219 73.4316 36.9165 73.2563 37.2891C73.2344 37.3329 73.2124 37.3987 73.1905 37.4425C73.1028 37.6398 73.0152 37.8152 72.9056 37.9906C72.8836 38.0344 72.8398 38.1002 72.8179 38.144C72.4452 38.7797 71.9849 39.3496 71.4588 39.8538C71.415 39.8976 71.3492 39.9415 71.3053 39.9854C71.2177 40.073 71.13 40.1388 71.0423 40.2265C70.9765 40.2703 70.9108 40.3361 70.8669 40.3799C70.7354 40.4895 70.582 40.5991 70.4505 40.6868C70.4285 40.7087 70.4066 40.7087 70.3847 40.7306C70.1874 40.8622 69.9901 40.9718 69.7928 41.0814C69.6175 41.191 69.4202 41.2787 69.2448 41.3663C69.2229 41.3663 69.2229 41.3663 69.201 41.3882C68.8283 41.5636 68.4338 41.6951 68.0392 41.8047C67.9515 41.8267 67.8638 41.8486 67.7761 41.8705C67.3816 41.9582 66.9651 42.024 66.5267 42.0678C66.3951 42.0678 66.2636 42.0897 66.1102 42.0897C66.0444 42.0897 65.9786 42.0897 65.9129 42.0897C65.8471 42.0897 65.7814 42.0897 65.7156 42.0897C65.5841 42.0897 65.4306 42.0897 65.2991 42.0678C64.8826 42.0459 64.4661 41.9801 64.0496 41.8705C63.962 41.8486 63.8743 41.8267 63.7866 41.8047C63.392 41.6951 62.9974 41.5636 62.6248 41.3882C62.6029 41.3882 62.6029 41.3883 62.581 41.3663C62.4056 41.2787 62.2521 41.2129 62.0768 41.1252C61.8576 41.0156 61.6384 40.8841 61.4411 40.7306C61.4192 40.7087 61.3972 40.7087 61.3753 40.6868C61.2219 40.5991 61.0904 40.4895 60.9588 40.3799C60.8931 40.3361 60.8273 40.2922 60.7835 40.2265C60.6958 40.1607 60.6081 40.073 60.5204 39.9854C60.4327 39.8977 60.3231 39.81 60.2354 39.7004C59.7532 39.2181 59.3367 38.692 59.0079 38.1221C58.986 38.0783 58.9421 38.0125 58.9202 37.9686C58.8106 37.7933 58.7229 37.596 58.6352 37.4206C58.6133 37.3768 58.5914 37.311 58.5695 37.2672C58.3941 36.8945 58.2626 36.5 58.153 36.1054C58.0872 35.8862 58.0434 35.6889 58.0215 35.4697C57.9776 35.2724 57.9557 35.0751 57.9338 34.8778C57.9119 34.7463 57.9119 34.6148 57.9119 34.4613C57.9119 34.3298 57.9119 34.1764 57.9119 34.0448C57.9119 33.9133 57.9338 33.7599 57.9557 33.6284C57.9557 33.5407 57.9996 33.453 57.9996 33.3872C57.9996 33.3434 57.9776 33.2776 57.9996 33.2338C57.9996 33.19 57.9996 33.1242 57.9996 33.0804C58.0215 32.9269 58.0434 32.7735 58.0653 32.62C58.1092 32.4008 58.153 32.1816 58.1968 31.9843C58.3064 31.5898 58.438 31.1952 58.6133 30.8225C58.6352 30.8006 58.6353 30.7787 58.6572 30.7348C58.6791 30.7129 58.6791 30.691 58.701 30.6472C58.7887 30.4499 58.8764 30.2745 58.986 30.0991C59.0079 30.0553 59.0517 29.9895 59.0737 29.9457C59.4463 29.31 59.9066 28.7401 60.4327 28.2359C60.4766 28.192 60.5423 28.1482 60.5862 28.1044C60.6739 28.0167 60.7615 27.9509 60.8492 27.8633C60.915 27.8194 60.9808 27.7537 61.0246 27.7098C61.1561 27.6002 61.3096 27.4906 61.4411 27.4029C61.463 27.381 61.4849 27.381 61.5068 27.3591C61.8576 27.1179 62.2521 26.8988 62.6467 26.7234C62.6686 26.7234 62.6686 26.7234 62.6906 26.7014C63.0632 26.5261 63.4578 26.3946 63.8523 26.285C63.94 26.2631 64.0277 26.2411 64.1154 26.2192C64.51 26.1315 64.9265 26.0658 65.3649 26.0219C65.4964 26.0219 65.6279 26 65.7814 26C65.8471 26 65.9129 26 65.9786 26C66.0444 26 66.1102 26 66.1759 26C66.3075 26 66.4609 26 66.5924 26.0219C67.0089 26.0438 67.4254 26.1096 67.8419 26.2192C67.9296 26.2411 68.0173 26.2631 68.1049 26.285C68.4995 26.3946 68.8941 26.5261 69.2667 26.7014C69.2887 26.7014 69.2887 26.7015 69.3106 26.7234C69.7051 26.8988 70.0997 27.1179 70.4505 27.3591C70.4724 27.381 70.4943 27.381 70.5162 27.4029C70.6697 27.4906 70.8012 27.6002 70.9327 27.7098C70.9985 27.7537 71.0642 27.7975 71.1081 27.8633C71.1958 27.929 71.2834 28.0167 71.3711 28.1044C71.415 28.1482 71.4807 28.192 71.5246 28.2359C72.0506 28.7401 72.511 29.31 72.8836 29.9457C72.9056 29.9895 72.9494 30.0553 72.9713 30.0991C73.0809 30.2745 73.1686 30.4718 73.2563 30.6472C73.2782 30.691 73.3001 30.7568 73.322 30.8006C73.4974 31.1733 73.6289 31.5678 73.7385 31.9624C73.8043 32.1816 73.8481 32.3789 73.8701 32.5981C73.9139 32.7954 73.9358 32.9927 73.9577 33.19C73.9577 33.2557 73.9797 33.3215 73.9797 33.3872C73.9797 33.453 73.9797 33.5407 74.0016 33.6064C73.9139 33.7818 73.9139 33.9133 73.9139 34.0668Z" fill="#19648F"/>
<path d="M57.7145 33.3215C57.7145 33.3215 57.7365 33.3215 57.7145 33.3215C57.7803 33.3434 57.8022 33.3653 57.868 33.3872C57.868 33.3872 57.8461 33.3872 57.8461 33.3653C57.8022 33.3434 57.7584 33.3434 57.7145 33.3215Z" fill="#19648F"/>
<path d="M57.7145 33.3215C57.7584 33.3434 57.8022 33.3653 57.8241 33.3872C57.8022 33.3653 57.7803 33.3434 57.7145 33.3215C57.7145 33.3215 57.7365 33.3215 57.7145 33.3215Z" fill="#19648F"/>
<path d="M79.1748 49.8058V58.1356C79.1748 58.311 79.1748 58.3329 79.0214 58.3329H52.7386C52.5852 58.3329 52.4317 58.311 52.4317 58.1356V49.8058C52.4317 49.6742 52.4317 49.5427 52.4317 49.4112C52.5194 47.4384 53.3085 45.6189 54.558 44.2818C54.6018 44.2379 54.6238 44.1941 54.6676 44.1722C55.2814 43.5365 56.0048 42.9884 56.8158 42.5939C56.8597 42.572 56.9035 42.5501 56.9693 42.5281C57.1885 42.4185 57.4077 42.3308 57.6488 42.2432C57.6926 42.2212 57.7584 42.1993 57.8022 42.1993C57.9995 42.1336 58.2187 42.0678 58.438 42.0239C58.701 42.2651 58.964 42.5062 59.249 42.7254C59.9724 43.2954 60.7615 43.7557 61.5945 44.1283C61.748 44.1941 61.9014 44.2598 62.0768 44.3256C62.6905 44.5667 63.3262 44.7421 63.9619 44.8517C64.5976 44.9613 65.2333 45.0271 65.891 45.0271C66.6363 45.0271 67.3596 44.9613 68.083 44.8079C68.1707 44.786 68.2584 44.764 68.3461 44.764C68.4776 44.764 68.6091 44.764 68.7406 44.764C69.0914 44.764 69.4421 44.501 69.7709 44.3475C69.9024 44.3037 70.0339 44.1722 70.1655 44.1064C70.8231 43.8214 71.4369 43.4269 72.0068 42.9885C72.0726 42.9885 72.1383 42.9227 72.2041 42.8789C72.5767 42.5939 72.9494 42.3089 73.3001 41.9801C76.5882 42.7473 79.0433 45.7724 79.2187 49.3893C79.2187 49.5208 79.1748 49.6742 79.1748 49.8058Z" fill="#19648F"/>
<path d="M52.7167 65.8736C52.7167 66.0051 52.7167 66.1585 52.7167 66.2901C52.7167 66.4216 52.6948 66.5531 52.6948 66.7065C52.6728 66.9038 52.6509 67.1011 52.6071 67.2984C52.5632 67.5176 52.5194 67.7368 52.4755 67.9341C52.3659 68.3287 52.2344 68.7232 52.0591 69.0959C52.0371 69.1397 52.0152 69.2055 51.9933 69.2493C51.9056 69.4466 51.8179 69.622 51.7083 69.7974C51.6864 69.8412 51.6426 69.907 51.6206 69.9508C51.248 70.5865 50.7877 71.1564 50.2616 71.6606C50.2177 71.7045 50.152 71.7483 50.1081 71.7921C50.0204 71.8798 49.9328 71.9456 49.8451 72.0333C49.7793 72.0771 49.7136 72.1428 49.6697 72.1867C49.5382 72.2963 49.3847 72.4059 49.2532 72.4936C49.2313 72.5155 49.2094 72.5155 49.1875 72.5374C48.9902 72.669 48.7929 72.7786 48.5956 72.8882C48.4202 72.9978 48.2229 73.0854 48.0476 73.1731C48.0257 73.1731 48.0257 73.1731 48.0037 73.1951C47.6311 73.3704 47.2365 73.5019 46.842 73.6115C46.7543 73.6334 46.6666 73.6554 46.5789 73.6773C46.1843 73.765 45.7678 73.8307 45.3294 73.8746C45.1979 73.8746 45.0664 73.8965 44.9129 73.8965C44.8472 73.8965 44.7814 73.8965 44.7156 73.8965C44.6499 73.8965 44.5841 73.8965 44.5184 73.8965C44.3868 73.8965 44.2334 73.8965 44.1019 73.8746C43.6854 73.8527 43.2689 73.7869 42.8524 73.6773C42.7647 73.6554 42.677 73.6334 42.5893 73.6115C42.1948 73.5019 41.8002 73.3704 41.4276 73.1951C41.4056 73.1951 41.4056 73.195 41.3837 73.1731C41.2084 73.0854 41.0549 73.0197 40.8795 72.932C40.6603 72.8224 40.4411 72.6909 40.2439 72.5374C40.2219 72.5155 40.2 72.5155 40.1781 72.4936C40.0246 72.4059 39.8931 72.2963 39.7616 72.1867C39.6958 72.1428 39.6301 72.099 39.5862 72.0333C39.4986 71.9675 39.4109 71.8798 39.3232 71.7921C39.2355 71.7044 39.1259 71.6168 39.0382 71.5072C38.556 71.0249 38.1395 70.4988 37.8107 69.9289C37.7887 69.885 37.7449 69.8193 37.723 69.7754C37.6134 69.6001 37.5257 69.4028 37.438 69.2274C37.4161 69.1836 37.3942 69.1178 37.3722 69.074C37.1969 68.7013 37.0654 68.3067 36.9558 67.9122C36.89 67.693 36.8462 67.4957 36.8242 67.2765C36.7804 67.0792 36.7585 66.8819 36.7366 66.6846C36.7146 66.5531 36.7146 66.4216 36.7146 66.2681C36.7146 66.1366 36.7146 65.9832 36.7146 65.8517C36.7146 65.7201 36.7146 65.5667 36.7146 65.4352C36.7146 65.3475 36.7366 65.2598 36.7366 65.194C36.7366 65.1502 36.7585 65.0844 36.7585 65.0406C36.7585 64.9967 36.7804 64.931 36.7804 64.8871C36.8023 64.7337 36.8242 64.5803 36.8462 64.4268C36.89 64.2076 36.9338 63.9884 36.9777 63.7911C37.0873 63.3965 37.2188 63.002 37.3942 62.6293C37.4161 62.6074 37.4161 62.5855 37.438 62.5416C37.4599 62.5197 37.4599 62.4978 37.4819 62.454C37.5695 62.2567 37.6572 62.0813 37.7668 61.9059C37.7887 61.8621 37.8326 61.7963 37.8545 61.7525C38.2272 61.1168 38.6875 60.5469 39.2136 60.0427C39.2574 59.9989 39.3232 59.955 39.367 59.9112C39.4547 59.8235 39.5424 59.7577 39.6301 59.67C39.6958 59.6262 39.7616 59.5604 39.8054 59.5166C39.937 59.407 40.0904 59.2974 40.2219 59.2097C40.2438 59.1878 40.2658 59.1878 40.2877 59.1659C40.6384 58.9247 41.033 58.7055 41.4276 58.5302C41.4495 58.5302 41.4495 58.5302 41.4714 58.5083C41.8441 58.3329 42.2386 58.2014 42.6332 58.0918C42.7209 58.0698 42.8086 58.0479 42.8962 58.026C43.2908 57.9383 43.7073 57.8725 44.1457 57.8287C44.2772 57.8287 44.4088 57.8068 44.5622 57.8068C44.628 57.8068 44.6937 57.8068 44.7595 57.8068C44.8253 57.8068 44.891 57.8068 44.9568 57.8068C45.0883 57.8068 45.2417 57.8068 45.3733 57.8287C45.7898 57.8506 46.2063 57.9164 46.6227 58.026C46.7104 58.0479 46.7981 58.0698 46.8858 58.0918C47.2804 58.2014 47.6749 58.3329 48.0476 58.5083C48.0695 58.5083 48.0695 58.5082 48.0914 58.5302C48.486 58.7055 48.8806 58.9247 49.2313 59.1659C49.2532 59.1878 49.2751 59.1878 49.2971 59.2097C49.4505 59.2974 49.582 59.407 49.7135 59.5166C49.7793 59.5604 49.8451 59.6043 49.8889 59.67C49.9766 59.7358 50.0643 59.8235 50.152 59.9112C50.1958 59.955 50.2616 59.9989 50.3054 60.0427C50.8315 60.5469 51.2918 61.1168 51.6645 61.7525C51.6864 61.7963 51.7303 61.8621 51.7522 61.9059C51.8618 62.0813 51.9495 62.2786 52.0371 62.454C52.0591 62.4978 52.081 62.5636 52.1029 62.6074C52.2783 62.98 52.4098 63.3746 52.5194 63.7692C52.5852 63.9884 52.629 64.1857 52.6509 64.4049C52.6948 64.6022 52.7167 64.7995 52.7386 64.9967C52.7386 65.0625 52.7605 65.1283 52.7605 65.194C52.7605 65.2598 52.7605 65.3475 52.7824 65.4132C52.7167 65.5886 52.7167 65.7201 52.7167 65.8736Z" fill="#19648F"/>
<path d="M36.6489 65.194C36.6489 65.194 36.6708 65.194 36.6489 65.194C36.6708 65.194 36.6708 65.194 36.6489 65.194C36.6489 65.194 36.6708 65.194 36.6489 65.194ZM36.5173 65.1283C36.5831 65.1502 36.605 65.1721 36.6708 65.194C36.6708 65.194 36.6489 65.194 36.6489 65.1721C36.605 65.1502 36.5612 65.1283 36.5173 65.1283Z" fill="#19648F"/>
<path d="M36.5173 65.1283C36.5612 65.1502 36.605 65.1721 36.6269 65.194C36.605 65.1721 36.5612 65.1502 36.5173 65.1283Z" fill="#19648F"/>
<path d="M58.131 81.6125V89.9424C58.131 90.1177 57.9776 90.1177 57.8241 90.1177H31.5414C31.3879 90.1177 31.1687 90.0958 31.1687 89.9424V81.6125C31.1687 81.481 31.1906 81.3495 31.1906 81.218C31.2783 79.2451 32.0894 77.4257 33.3388 76.0886C33.3827 76.0447 33.4265 76.0009 33.4484 75.979C34.0622 75.3433 34.7856 74.7953 35.5967 74.4007C35.6405 74.3788 35.6844 74.3568 35.7501 74.3349C35.9693 74.2253 36.1885 74.1376 36.4296 74.0499C36.4735 74.028 36.5393 74.0061 36.5831 74.0061C36.7804 73.9403 36.9996 73.8746 37.2188 73.8307C37.4818 74.0719 37.7449 74.313 38.0298 74.5322C38.7532 75.1021 39.5424 75.5625 40.3754 75.9351C40.5288 76.0009 40.6822 76.0666 40.8576 76.1324C41.4714 76.3735 42.1071 76.5489 42.7428 76.6585C43.3785 76.7681 44.0142 76.8339 44.6718 76.8339C45.4171 76.8339 46.1405 76.7462 46.8638 76.5927C46.9515 76.5708 47.0392 76.527 47.1269 76.527C47.2584 76.527 47.3899 76.527 47.5215 76.527C47.8722 76.527 48.2229 76.2639 48.5517 76.1324C48.6833 76.0885 48.8148 75.957 48.9463 75.8913C49.6039 75.6063 50.2177 75.2117 50.7876 74.7733C50.8534 74.7733 50.9192 74.7295 50.9849 74.6856C51.3576 74.4007 51.7302 74.1157 52.081 73.7869C55.369 74.5541 57.9118 77.5792 58.0653 81.218C58.0872 81.3276 58.131 81.481 58.131 81.6125Z" fill="#19648F"/>
<path d="M98.4212 67.0353C98.4212 67.1669 98.4212 67.3203 98.4212 67.4518C98.4212 67.5834 98.3992 67.7149 98.3992 67.8683C98.3773 68.0656 98.3554 68.2629 98.3116 68.4602C98.2677 68.6794 98.2239 68.8986 98.18 69.0959C98.0704 69.4905 97.9389 69.885 97.7636 70.2577C97.7416 70.3015 97.7197 70.3673 97.6978 70.4111C97.6101 70.6084 97.5224 70.7838 97.4128 70.9591C97.3909 71.003 97.3471 71.0688 97.3251 71.1126C96.9525 71.7483 96.4922 72.3182 95.9661 72.8224C95.9222 72.8662 95.8565 72.9101 95.8126 72.9539C95.7249 73.0416 95.6372 73.1074 95.5496 73.1951C95.4838 73.2389 95.4181 73.3046 95.3742 73.3485C95.2427 73.4581 95.0892 73.5677 94.9577 73.6554C94.9358 73.6773 94.9139 73.6773 94.8919 73.6992C94.6947 73.8307 94.4974 73.9403 94.3001 74.0499C94.1247 74.1595 93.9274 74.2472 93.7521 74.3349C93.7302 74.3349 93.7302 74.3349 93.7082 74.3568C93.3356 74.5322 92.941 74.6637 92.5464 74.7733C92.4588 74.7952 92.3711 74.8172 92.2834 74.8391C91.8888 74.9268 91.4723 74.9925 91.0339 75.0364C90.9024 75.0364 90.7709 75.0583 90.6174 75.0583C90.5517 75.0583 90.4859 75.0583 90.4202 75.0583C90.3544 75.0583 90.2886 75.0583 90.2229 75.0583C90.0913 75.0583 89.9379 75.0583 89.8064 75.0364C89.3899 75.0144 88.9734 74.9487 88.5569 74.8391C88.4692 74.8172 88.3815 74.7952 88.2938 74.7733C87.8993 74.6637 87.5047 74.5322 87.1321 74.3568C87.1101 74.3568 87.1101 74.3568 87.0882 74.3349C86.9128 74.2472 86.7594 74.1815 86.5841 74.0938C86.3648 73.9842 86.1456 73.8527 85.9484 73.6992C85.9264 73.6773 85.9045 73.6773 85.8826 73.6554C85.7291 73.5677 85.5976 73.4581 85.4661 73.3485C85.4003 73.3046 85.3346 73.2608 85.2907 73.1951C85.2031 73.1293 85.1154 73.0416 85.0277 72.9539C84.94 72.8662 84.8304 72.7786 84.7427 72.669C84.2605 72.1867 83.844 71.6606 83.5152 71.0907C83.4932 71.0468 83.4494 70.9811 83.4275 70.9372C83.3179 70.7619 83.2302 70.5646 83.1425 70.3892C83.1206 70.3454 83.0987 70.2796 83.0768 70.2358C82.9014 69.8631 82.7699 69.4685 82.6603 69.074C82.5945 68.8548 82.5507 68.6575 82.5287 68.4383C82.4849 68.241 82.463 68.0437 82.4411 67.8464C82.4191 67.7149 82.4191 67.5834 82.4191 67.4299C82.4191 67.2984 82.4191 67.145 82.4191 67.0134C82.4191 66.8819 82.3534 66.7285 82.3753 66.5969C82.3753 66.5093 82.3315 66.4216 82.3315 66.3558C82.3315 66.312 82.3972 66.2462 82.3972 66.2024C82.3972 66.1585 82.4411 66.0928 82.4411 66.0489C82.463 65.8955 82.5068 65.742 82.5287 65.5886C82.5726 65.3694 82.6164 65.1502 82.6822 64.9529C82.7918 64.5583 82.9233 64.1638 83.0987 63.7911C83.1206 63.7692 83.1206 63.7473 83.1425 63.7034C83.1644 63.6815 83.1644 63.6596 83.1864 63.6157C83.274 63.4185 83.3617 63.2431 83.4713 63.0677C83.4932 63.0239 83.5371 62.9581 83.559 62.9143C83.9317 62.2786 84.392 61.7086 84.9181 61.2045C84.9619 61.1606 85.0277 61.1168 85.0715 61.073C85.1592 60.9853 85.2469 60.9195 85.3346 60.8318C85.4003 60.788 85.4661 60.7222 85.5099 60.6784C85.6415 60.5688 85.7949 60.4592 85.9264 60.3715C85.9484 60.3496 85.9703 60.3496 85.9922 60.3276C86.3429 60.0865 86.7375 59.8673 87.1321 59.6919C87.154 59.6919 87.154 59.692 87.1759 59.67C87.5485 59.4947 87.9431 59.3631 88.3377 59.2535C88.4254 59.2316 88.5131 59.2097 88.6007 59.1878C88.9953 59.1001 89.4118 59.0343 89.8502 58.9905C89.9817 58.9905 90.1133 58.9686 90.2667 58.9686C90.3325 58.9686 90.3982 58.9686 90.464 58.9686C90.5298 58.9686 90.5955 58.9686 90.6613 58.9686C90.7928 58.9686 90.9463 58.9686 91.0778 58.9905C91.4943 59.0124 91.9107 59.0782 92.3272 59.1878C92.4149 59.2097 92.5026 59.2316 92.5903 59.2535C92.9848 59.3631 93.3794 59.4947 93.7521 59.67C93.774 59.67 93.774 59.67 93.7959 59.6919C94.1905 59.8673 94.5851 60.0865 94.9358 60.3276C94.9577 60.3496 94.9796 60.3496 95.0015 60.3715C95.155 60.4592 95.2865 60.5688 95.418 60.6784C95.4838 60.7222 95.5496 60.7661 95.5934 60.8318C95.6811 60.8976 95.7688 60.9853 95.8565 61.073C95.9003 61.1168 95.9661 61.1606 96.0099 61.2045C96.536 61.7086 96.9963 62.2786 97.369 62.9143C97.3909 62.9581 97.4347 63.0239 97.4567 63.0677C97.5663 63.2431 97.6539 63.4404 97.7416 63.6157C97.7635 63.6596 97.7855 63.7254 97.8074 63.7692C97.9828 64.1418 98.1143 64.5364 98.2239 64.931C98.2897 65.1502 98.3335 65.3475 98.3554 65.5667C98.3992 65.764 98.4212 65.9612 98.4431 66.1585C98.4431 66.2243 98.465 66.2901 98.465 66.3558C98.465 66.4216 98.465 66.5093 98.4869 66.575C98.4212 66.7723 98.4212 66.9038 98.4212 67.0353Z" fill="#19648F"/>
<path d="M82.3534 66.3777C82.3753 66.3777 82.3753 66.3777 82.3534 66.3777C82.3753 66.3777 82.3753 66.3777 82.3534 66.3777C82.3753 66.3777 82.3753 66.3777 82.3534 66.3777ZM82.2219 66.2901C82.2219 66.312 82.2438 66.312 82.2219 66.2901C82.2876 66.312 82.3095 66.3339 82.3753 66.3558C82.3753 66.3558 82.3534 66.3558 82.3534 66.3339C82.3095 66.3339 82.2657 66.312 82.2219 66.2901Z" fill="#19648F"/>
<path d="M82.2219 66.2901C82.2657 66.312 82.3095 66.3339 82.3315 66.3558C82.3095 66.3339 82.2657 66.3339 82.2219 66.2901C82.2219 66.312 82.2438 66.312 82.2219 66.2901Z" fill="#19648F"/>
<path d="M103.726 82.7744V91.1042C103.726 91.2795 103.682 91.433 103.529 91.433H77.2458C77.0924 91.433 76.9828 91.2795 76.9828 91.1042V82.7744C76.9828 82.6428 76.9609 82.5113 76.9609 82.3798C77.0486 80.385 77.8377 78.5875 79.0872 77.2504C79.131 77.2065 79.1529 77.1627 79.1968 77.1408C79.8105 76.5051 80.5339 75.957 81.345 75.5625C81.3888 75.5405 81.4327 75.5186 81.4984 75.4967C81.7176 75.3871 81.9368 75.2994 82.178 75.2117C82.2218 75.1898 82.2876 75.1679 82.3314 75.1679C82.5287 75.1022 82.7479 75.0364 82.9671 74.9925C83.2302 75.2337 83.4932 75.4748 83.7782 75.694C84.5016 76.2639 85.2907 76.7243 86.1237 77.0969C86.2771 77.1627 86.4306 77.2284 86.6059 77.2942C87.2197 77.5353 87.8554 77.7107 88.4911 77.8203C89.1268 77.9299 89.7625 77.9957 90.4201 77.9957C91.1654 77.9957 91.8888 77.8861 92.6122 77.7326C92.6999 77.7107 92.7875 77.623 92.8752 77.623C93.0068 77.623 93.1383 77.623 93.2698 77.623C93.6205 77.623 93.9713 77.4038 94.3001 77.2723C94.4316 77.2284 94.5631 77.1846 94.6946 77.1188C95.3523 76.8339 95.966 76.527 96.536 76.0886C96.6017 76.0886 96.6675 75.979 96.7332 75.9351C97.1059 75.6502 97.4785 75.3213 97.8293 74.9925C101.117 75.7598 103.594 78.7629 103.77 82.4017C103.748 82.5332 103.726 82.6428 103.726 82.7744Z" fill="#19648F"/>
</svg>
