<svg width="130" height="130" viewBox="0 0 130 130" fill="none" xmlns="http://www.w3.org/2000/svg">
<circle cx="66.5789" cy="66.5789" r="58.4211" fill="#C2EAFC"/>
<circle cx="113.947" cy="11.3158" r="6.31579" fill="#AAE5FF"/>
<circle cx="11.3158" cy="91.8422" r="6.31579" fill="#AAE5FF"/>
<circle r="3.15789" transform="matrix(1 0 0 -1 14.4737 69.7369)" fill="white"/>
<circle r="2.36842" transform="matrix(1 0 0 -1 108.421 40.5263)" fill="white"/>
<circle cx="120.263" cy="101.316" r="3.15789" fill="#FDD1A3"/>
<circle cx="104.474" cy="8.15793" r="1.57895" fill="#AAE5FF"/>
<circle cx="119.474" cy="26.3158" r="2.36842" fill="#E40C57"/>
<circle cx="75.4999" cy="58.5" r="28.5" fill="#D8F1FD"/>
<path fill-rule="evenodd" clip-rule="evenodd" d="M98.896 120.706C98.7663 120.603 98.6175 120.527 98.4582 120.481C98.2989 120.436 98.1322 120.423 97.9677 120.442C97.8031 120.461 97.6439 120.513 97.4991 120.593C97.3543 120.674 97.2268 120.782 97.1238 120.912C97.0208 121.042 96.9444 121.191 96.8989 121.351C96.8534 121.51 96.8398 121.677 96.8587 121.842C96.8777 122.006 96.9288 122.165 97.0093 122.31C97.0898 122.455 97.198 122.582 97.3278 122.685C97.5899 122.893 97.9238 122.988 98.2562 122.949C98.5885 122.91 98.8921 122.741 99.1001 122.478C99.308 122.216 99.4034 121.882 99.3651 121.549C99.3268 121.217 99.1581 120.913 98.896 120.706Z" fill="#BFC7D2"/>
<path d="M22.7247 11.4067L23.383 11.9287C23.5576 12.0672 23.67 12.2694 23.6955 12.491C23.7209 12.7125 23.6573 12.9352 23.5186 13.1101C23.3799 13.285 23.1776 13.3977 22.9561 13.4235C22.7346 13.4492 22.5121 13.3859 22.3374 13.2475L21.6791 12.7255L21.1563 13.3849C21.0176 13.5598 20.8153 13.6725 20.5938 13.6983C20.3723 13.724 20.1497 13.6607 19.9751 13.5223C19.8005 13.3839 19.6881 13.1816 19.6627 12.9601C19.6373 12.7385 19.7009 12.5158 19.8395 12.3409L20.3623 11.6815L19.704 11.1595C19.5294 11.0211 19.417 10.8189 19.3916 10.5973C19.3661 10.3758 19.4298 10.153 19.5684 9.97816C19.7071 9.80328 19.9094 9.69056 20.1309 9.66479C20.3524 9.63902 20.575 9.70232 20.7496 9.84076L21.4079 10.3628L21.9307 9.70337C22.0694 9.52849 22.2717 9.41576 22.4932 9.39C22.7148 9.36423 22.9373 9.42753 23.1119 9.56597C23.2865 9.70441 23.3989 9.90665 23.4243 10.1282C23.4497 10.3498 23.3861 10.5725 23.2475 10.7473L22.7247 11.4067Z" fill="#BFC7D2"/>
<path d="M11.7247 25.4067L12.383 25.9287C12.5576 26.0672 12.67 26.2694 12.6954 26.491C12.7209 26.7125 12.6572 26.9352 12.5186 27.1101C12.3799 27.285 12.1776 27.3977 11.9561 27.4235C11.7346 27.4492 11.512 27.3859 11.3374 27.2475L10.6791 26.7255L10.1563 27.3849C10.0176 27.5598 9.81528 27.6725 9.59377 27.6983C9.37225 27.724 9.14973 27.6607 8.97512 27.5223C8.80051 27.3839 8.68812 27.1816 8.6627 26.9601C8.63728 26.7385 8.7009 26.5158 8.83955 26.3409C8.83955 26.3409 9.40032 26.008 9.36235 25.6815C9.32444 25.3556 8.70398 25.1595 8.70398 25.1595C8.52937 25.0211 8.417 24.8189 8.39157 24.5973C8.36615 24.3758 8.42976 24.153 8.56841 23.9782C8.70707 23.8033 8.90941 23.6906 9.13092 23.6648C9.35244 23.639 9.57497 23.7023 9.74958 23.8408L10.408 24.3628L10.9308 23.7034C11.0694 23.5285 11.2717 23.4158 11.4933 23.39C11.7148 23.3642 11.9373 23.4275 12.1119 23.566C12.2865 23.7044 12.3989 23.9066 12.4243 24.1282C12.4497 24.3498 12.3861 24.5725 12.2475 24.7473L11.7247 25.4067Z" fill="#BFC7D2"/>
<path d="M27.372 74.2668C27.7767 77.8236 32.5373 77.0183 35.7077 79.6599C38.878 82.3015 35.7646 85.9457 43.0082 86.69C47.4699 87.1495 47.1465 85.2827 51.6021 89.8481C55.5228 93.8664 56.2224 87.2065 60.5925 88.2416C66.2336 89.5756 66.6119 78.4804 61.412 76.3472C56.2142 74.214 53.6824 77.246 52.7104 72.5891C51.7383 67.9343 48.2345 66.1997 43.7972 67.2612C38.3066 68.5749 39.1037 73.3782 36.2608 70.7467C33.4178 68.1153 26.8372 69.5612 27.372 74.2668Z" fill="#D9FFFF"/>
<path d="M68.2733 88.6076C52.385 76.398 33.6456 73.7361 33.6456 73.7361C33.8347 73.7544 52.8344 75.6192 68.918 87.9772L68.2733 88.6076Z" fill="#04D6E3"/>
<path d="M48.6432 59.4299C47.4739 61.5855 50.4633 63.0009 51.2075 65.7279C51.9498 68.4549 48.9442 70.3685 52.7185 73.6283C55.0429 75.6355 56.4664 72.4692 58.5345 75.7128C60.6027 78.9563 59.3357 79.6803 61.3693 80.7052C64.9138 82.4907 69.4487 77.1749 67.3663 73.9374C65.286 70.7 61.8777 71.3873 63.1568 68.3919C64.438 65.3964 64.8955 64.1173 61.9896 62.9724C58.3922 61.555 55.5797 63.5337 55.0144 60.9409C54.4511 58.3521 50.1887 56.5788 48.6432 59.4299Z" fill="#04E8EB"/>
<path d="M68.2062 88.5283L68.9098 88.0687C64.7308 74.82 52.4745 61.677 52.3748 61.5916C52.3748 61.5936 64.078 75.4483 68.2062 88.5283Z" fill="#04B8D2"/>
<path d="M107.694 67.9709C107.912 71.546 103.084 71.5765 100.42 74.7285C97.7561 77.8805 101.453 80.9289 94.4495 82.9197C90.1363 84.146 90.1302 82.2527 86.5348 87.5197C83.3706 92.1583 81.5282 85.72 77.402 87.4953C72.0781 89.7871 69.7822 78.9258 74.5306 75.9222C79.279 72.9186 82.2989 75.4667 82.4494 70.7122C82.5999 65.9577 85.7499 63.6435 90.303 63.9201C95.9381 64.2617 95.9849 69.1301 98.3296 66.0472C100.672 62.9622 107.405 63.2429 107.694 67.9709Z" fill="#D9FFFF"/>
<path d="M69.8981 89.1872C83.4295 74.4072 101.423 68.5342 101.423 68.5342C101.238 68.5851 82.85 73.7158 69.1538 88.6768L69.8981 89.1872Z" fill="#04D6E3"/>
<path d="M77.5729 64.9531C78.7666 66.2363 76.9506 67.7513 76.9241 69.7727C76.8977 71.794 79.3217 72.581 77.2902 75.5135C76.0395 77.3193 74.4879 75.3813 73.6358 77.9964C72.7838 80.6116 73.7904 80.8882 72.5642 81.9599C70.4289 83.8308 66.3394 80.9594 67.2016 78.3462C68.0639 75.7331 70.5469 75.5989 69.1254 73.7544C67.7039 71.91 67.1569 71.1047 68.9647 69.793C71.2017 68.1682 73.5037 69.0365 73.4305 67.1392C73.3573 65.2439 75.9928 63.2551 77.5729 64.9531Z" fill="#04E8EB"/>
<path d="M69.2291 88.6015L68.6597 88.4084C69.1844 78.4865 75.3217 67.1941 75.3746 67.1168C75.3766 67.1168 69.7477 78.8038 69.2291 88.6015Z" fill="#04B8D2"/>
<path d="M80.8754 94.0942C81.1157 94.0942 81.3106 93.8994 81.3106 93.6591C81.3106 93.4187 81.1157 93.2239 80.8754 93.2239C80.635 93.2239 80.4402 93.4187 80.4402 93.6591C80.4402 93.8994 80.635 94.0942 80.8754 94.0942Z" fill="#7BE0DF"/>
<path d="M29.4747 82.4032C29.4239 82.4032 29.373 82.4012 29.3222 82.3951C28.9663 82.3544 28.6471 82.1795 28.4234 81.8989C28.1997 81.6182 28.098 81.2685 28.1387 80.9126C28.1793 80.5567 28.3542 80.2374 28.6349 80.0138C28.9155 79.7901 29.2653 79.6884 29.6211 79.7291C30.3553 79.8104 30.886 80.4754 30.8047 81.2095C30.764 81.5654 30.5891 81.8846 30.3085 82.1083C30.0685 82.3015 29.7777 82.4032 29.4747 82.4032ZM29.4707 79.9161C29.2124 79.9161 28.9623 80.0036 28.7569 80.1663C28.5169 80.3574 28.3664 80.6299 28.3318 80.935C28.2973 81.24 28.3847 81.5389 28.5759 81.7789C28.767 82.0189 29.0395 82.1693 29.3446 82.2039C29.6496 82.2385 29.9485 82.151 30.1885 81.9599C30.4285 81.7687 30.5789 81.4962 30.6135 81.1912C30.6847 80.5628 30.2292 79.9934 29.6008 79.9222C29.5561 79.9182 29.5134 79.9161 29.4707 79.9161Z" fill="#7BE0DF"/>
<path d="M103.877 59.5824C103.826 59.5824 103.775 59.5804 103.725 59.5743C103.369 59.5336 103.049 59.3587 102.826 59.0781C102.602 58.7974 102.5 58.4477 102.541 58.0918C102.582 57.7359 102.757 57.4166 103.037 57.193C103.318 56.9693 103.668 56.8676 104.024 56.9083C104.379 56.9489 104.699 57.1238 104.922 57.4044C105.146 57.6851 105.248 58.0348 105.207 58.3907C105.166 58.7466 104.992 59.0659 104.711 59.2896C104.471 59.4807 104.178 59.5824 103.877 59.5824ZM103.871 57.0933C103.613 57.0933 103.363 57.1807 103.157 57.3455C102.917 57.5366 102.767 57.8091 102.732 58.1142C102.698 58.4192 102.785 58.7181 102.976 58.9581C103.167 59.1981 103.44 59.3485 103.745 59.3831C104.05 59.4177 104.349 59.3302 104.589 59.1391C104.829 58.9479 104.979 58.6754 105.014 58.3704C105.048 58.0654 104.961 57.7664 104.77 57.5265C104.579 57.2865 104.306 57.136 104.001 57.1014C103.958 57.0953 103.914 57.0933 103.871 57.0933Z" fill="#7BE0DF"/>
<path d="M106.942 98.9016C106.002 98.9951 25.739 99.3693 25.2856 99.2879C23.376 99.2879 22.6399 97.4699 23.1645 96.0871C23.2622 95.8288 23.4045 95.5868 23.5916 95.3733C24.0471 95.1639 24.4925 95.0296 24.9216 94.9605L32.5292 85.7077C32.9521 85.1932 34.7234 84.7804 36.4906 84.7743L96.0235 84.5994C97.7805 84.5933 99.5578 84.996 100.005 85.5064L107.967 94.2915C108.985 94.1816 109.734 94.9686 109.941 95.9203C110.232 97.2483 109.476 98.9016 106.942 98.9016Z" fill="#5E5E5E"/>
<path d="M106.942 98.9016C106.002 98.9951 25.739 99.3693 25.2856 99.288C23.376 99.288 22.6399 97.47 23.1645 96.0871C23.1767 96.9494 23.555 98.0007 25.2795 98.1207C28.2586 98.3281 108.233 97.4618 108.233 97.4618C108.233 97.4618 109.624 97.3317 109.941 95.9183C110.232 97.2483 109.476 98.9016 106.942 98.9016Z" fill="#5E5E5E"/>
<path d="M23.679 95.2493L32.4173 84.8069C32.8444 84.2964 34.6258 83.8877 36.4031 83.8836L96.2675 83.7108C98.0347 83.7047 99.8242 84.1032 100.276 84.6096L109.48 94.9564C110.22 95.7902 108.931 96.4918 106.574 96.4999L26.6887 96.7826C24.3135 96.7887 22.9754 96.0912 23.679 95.2493Z" fill="#5E5E5E"/>
<path d="M24.0837 95.4323C24.1102 95.3774 24.1468 95.3204 24.1935 95.2655L32.8566 84.817C33.2206 84.3778 34.7824 84.0199 36.3401 84.0158L96.3427 83.8409C97.8903 83.8368 99.4582 84.1826 99.8446 84.6198L108.975 94.9707C108.994 94.991 109.01 95.0113 109.026 95.0317C109.274 95.3631 109.16 95.6763 108.697 95.9122C108.219 96.1562 107.424 96.2945 106.462 96.2966L26.8006 96.5792C24.9337 96.5874 23.7705 96.0891 24.0837 95.4323Z" fill="#0E0E0E"/>
<path d="M27.0324 96.0993L35.972 84.2843L97.3351 84.1033L107.001 95.8167L27.0324 96.0993Z" fill="#E3F7FA"/>
<path d="M99.6087 95.8431L91.6574 84.1195L97.3352 84.1033L107.001 95.8167L99.6087 95.8431Z" fill="#1FBFC7"/>
<path d="M101.754 94.6819L101.154 93.8685C101.142 93.8522 101.162 93.838 101.201 93.8339L102.444 93.6773C102.472 93.6733 102.509 93.6753 102.541 93.6814C102.574 93.6875 102.598 93.6997 102.606 93.7099L103.473 94.8345C103.483 94.8467 103.475 94.8589 103.452 94.865C103.43 94.8731 103.397 94.8751 103.361 94.8711L101.854 94.7165C101.807 94.7124 101.766 94.6982 101.754 94.6819ZM101.384 93.8949L101.947 94.6535L103.22 94.7836L102.437 93.7607L101.384 93.8949Z" fill="white"/>
<path d="M101.12 94.6169L100.617 93.9234C100.603 93.9031 100.638 93.8868 100.695 93.8868C100.752 93.8868 100.811 93.9031 100.827 93.9234L101.313 94.5884C101.349 94.6352 101.455 94.6555 101.549 94.6576C101.632 94.6596 101.707 94.6494 101.717 94.6291L103.993 94.8609C104.042 94.865 104.083 94.8813 104.095 94.8975L104.29 95.1477C104.306 95.168 104.272 95.1863 104.213 95.1863C104.154 95.1863 104.093 95.17 104.074 95.1477L103.902 94.926L101.789 94.7125C101.563 94.7714 101.175 94.6942 101.12 94.6169Z" fill="white"/>
<path d="M100.428 94.1491C100.294 94.1491 100.16 94.1125 100.125 94.0658C100.093 94.019 100.172 93.9803 100.306 93.9803C100.44 93.9803 100.575 94.0169 100.609 94.0637C100.642 94.1105 100.56 94.1491 100.428 94.1491Z" fill="white"/>
<path d="M100.739 94.5823C100.605 94.5823 100.469 94.5436 100.434 94.4969C100.4 94.4501 100.481 94.4094 100.615 94.4094C100.749 94.4094 100.886 94.4481 100.92 94.4948C100.955 94.5416 100.874 94.5823 100.739 94.5823Z" fill="white"/>
<path d="M101.467 94.2915C101.453 94.2711 101.488 94.2549 101.545 94.2549L102.917 94.2508C102.976 94.2508 103.035 94.2671 103.052 94.2874C103.068 94.3077 103.033 94.324 102.974 94.326L101.6 94.3301C101.543 94.3301 101.482 94.3118 101.467 94.2915Z" fill="white"/>
<path d="M101.315 94.0861C101.303 94.0698 101.325 94.0535 101.37 94.0495L102.653 93.9356C102.706 93.9315 102.771 93.9437 102.799 93.962C102.828 93.9824 102.807 94.0007 102.755 94.0068L101.469 94.1207C101.417 94.1247 101.351 94.1125 101.323 94.0942C101.319 94.0902 101.317 94.0881 101.315 94.0861Z" fill="white"/>
<path d="M101.614 94.4928C101.612 94.4908 101.612 94.4887 101.612 94.4867C101.606 94.4664 101.648 94.4521 101.707 94.4542L103.139 94.5213C103.2 94.5233 103.255 94.5436 103.261 94.564C103.267 94.5843 103.226 94.5986 103.165 94.5965L101.73 94.5294C101.679 94.5274 101.628 94.5111 101.614 94.4928Z" fill="white"/>
<path d="M102.498 94.7592L101.77 93.7912C101.756 93.7709 101.789 93.7546 101.848 93.7546C101.905 93.7546 101.964 93.7709 101.98 93.7912L102.712 94.7592C102.728 94.7796 102.694 94.7979 102.635 94.7979C102.574 94.7958 102.515 94.7796 102.498 94.7592Z" fill="white"/>
<path d="M104.048 95.1802L103.873 94.9544L104.194 94.9524L104.371 95.1781C104.394 95.2066 104.347 95.231 104.266 95.231H104.235C104.156 95.233 104.072 95.2086 104.048 95.1802Z" fill="white"/>
<path d="M98.179 91.3733L95.1287 87.0967L96.3346 87.0926L99.509 91.3692L98.179 91.3733Z" fill="#D2F2F4"/>
<path d="M93.7642 95.1578C93.1907 95.1578 92.6112 95.0785 92.1272 94.9361C91.629 94.7897 91.2914 94.5884 91.1775 94.3708L86.2908 85.1139C86.2542 85.0428 86.2562 84.9716 86.2949 84.9045C86.4291 84.6828 87.0127 84.5364 87.7835 84.5344C87.7896 84.5344 87.7936 84.5344 87.7997 84.5344C88.6477 84.5344 89.634 84.7235 89.8313 85.0448L95.5192 94.2976C95.5924 94.4155 95.5985 94.5375 95.5355 94.6473C95.3646 94.9524 94.6773 95.1537 93.7845 95.1557C93.7805 95.1578 93.7723 95.1578 93.7642 95.1578ZM87.8038 84.6543C87.7977 84.6543 87.7916 84.6543 87.7855 84.6543C86.9965 84.6564 86.4901 84.813 86.3986 84.9655C86.3803 84.996 86.3803 85.0245 86.3966 85.059L91.2832 94.3159C91.4907 94.7083 92.6254 95.0378 93.7642 95.0378C93.7703 95.0378 93.7784 95.0378 93.7845 95.0378C94.7525 95.0337 95.3097 94.81 95.4317 94.5904C95.4724 94.5172 95.4683 94.4419 95.4175 94.3606L89.7296 85.1078C89.5974 84.8882 88.7921 84.6543 87.8038 84.6543Z" fill="#1FBFC7"/>
<path d="M91.2324 94.3444L90.7809 93.4882L94.9457 93.474L95.4724 94.3301C95.7286 94.747 94.9762 95.0948 93.7886 95.0988C92.5969 95.1029 91.452 94.7613 91.2324 94.3444Z" fill="#1FBFC7"/>
<path d="M71.2932 88.8171L70.7645 84.931C70.7502 84.8313 71.0207 84.75 71.3684 84.75L82.3863 84.7174C82.732 84.7154 83.0493 84.7947 83.094 84.8944L84.8327 88.7744C84.8856 88.8944 84.6192 88.994 84.2349 88.994L72.0171 89.0327C71.6348 89.0347 71.3095 88.9371 71.2932 88.8171Z" fill="#94F3F7"/>
<path d="M85.1683 89.7668L83.5333 89.7709L85.7926 95.2961L87.6289 95.29L85.1683 89.7668Z" fill="#94F3F7"/>
<path d="M82.671 89.7749L81.036 89.779L82.8012 94.7856L84.6192 94.7795L82.671 89.7749Z" fill="#94F3F7"/>
<path d="M80.1738 89.783L78.5388 89.7871L79.6939 93.6855L81.4733 93.6794L80.1738 89.783Z" fill="#94F3F7"/>
<path d="M72.1473 95.1008L71.4599 90.0474C71.4457 89.9396 71.7019 89.8522 72.0354 89.8522L75.1712 89.842C75.5027 89.84 75.7935 89.9274 75.8179 90.0332L76.9973 95.0846C77.0278 95.2188 76.7513 95.3286 76.3791 95.3286L72.857 95.3408C72.4828 95.3428 72.1656 95.2351 72.1473 95.1008Z" fill="#94F3F7"/>
<path d="M53.1516 88.874L54.2477 84.9797C54.2762 84.8801 54.5792 84.7988 54.927 84.7988L65.9632 84.7662C66.3109 84.7642 66.5936 84.8455 66.5976 84.9431L66.7156 88.8313C66.7197 88.9513 66.4106 89.051 66.0242 89.053L53.7841 89.0916C53.4018 89.0916 53.1171 88.994 53.1516 88.874Z" fill="#94F3F7"/>
<path d="M66.6363 89.8257L64.9993 89.8298L64.9505 95.3693L66.7909 95.3632L66.6363 89.8257Z" fill="#94F3F7"/>
<path d="M64.135 89.8339L62.498 89.8379L62.1706 94.8568L63.9947 94.8507L64.135 89.8339Z" fill="#94F3F7"/>
<path d="M61.6337 89.842L59.9967 89.846L59.5228 93.7525L61.3042 93.7464L61.6337 89.842Z" fill="#94F3F7"/>
<path d="M51.3783 95.174L52.8039 90.1084C52.8344 90.0006 53.1293 89.9132 53.4607 89.9111L56.6026 89.901C56.9361 89.8989 57.1883 89.9864 57.17 90.0942L56.2386 95.1557C56.2142 95.2899 55.8908 95.3998 55.5167 95.4018L51.9864 95.414C51.6122 95.416 51.3397 95.3082 51.3783 95.174Z" fill="#94F3F7"/>
<path d="M34.5627 88.933L37.3263 85.0306C37.3975 84.931 37.7371 84.8496 38.0849 84.8476L49.1414 84.815C49.4892 84.813 49.7393 84.8944 49.7007 84.994L48.1572 88.8903C48.1084 89.0103 47.7586 89.11 47.3722 89.112L35.1098 89.1506C34.7213 89.1506 34.4773 89.053 34.5627 88.933Z" fill="#94F3F7"/>
<path d="M47.6468 89.8868L46.0077 89.8908L43.5877 95.4425L45.4342 95.4364L47.6468 89.8868Z" fill="#94F3F7"/>
<path d="M45.1414 89.8949L43.5003 89.899L41.0275 94.93L42.8536 94.9239L45.1414 89.8949Z" fill="#94F3F7"/>
<path d="M42.636 89.903L40.9949 89.9071L38.8475 93.8237L40.633 93.8176L42.636 89.903Z" fill="#94F3F7"/>
<path d="M30.0909 95.2473L33.6863 90.1694C33.7635 90.0617 34.095 89.9742 34.4285 89.9722L37.5765 89.962C37.91 89.96 38.1276 90.0474 38.0605 90.1552L34.9613 95.231C34.88 95.3652 34.5099 95.475 34.1336 95.4771L30.5952 95.4893C30.221 95.4893 29.9953 95.3815 30.0909 95.2473Z" fill="#94F3F7"/>
<path d="M104.855 98.4969H86.1891C85.8536 98.4969 85.579 98.2223 85.579 97.8868C85.579 97.5513 85.8536 97.2767 86.1891 97.2767H104.855C105.191 97.2767 105.465 97.5513 105.465 97.8868C105.465 98.2223 105.191 98.4969 104.855 98.4969Z" fill="#0E0E0E"/>
<path d="M75.3949 98.4969H56.7287C56.3932 98.4969 56.1186 98.2223 56.1186 97.8868C56.1186 97.5513 56.3932 97.2767 56.7287 97.2767H75.3949C75.7304 97.2767 76.005 97.5513 76.005 97.8868C76.005 98.2223 75.7304 98.4969 75.3949 98.4969Z" fill="#0E0E0E"/>
<path d="M66.3292 69.3151C66.3292 69.3151 65.6256 69.2724 65.2636 69.8967C64.9016 70.521 65.3551 71.1026 65.3551 71.1026C65.3551 71.1026 64.0536 71.1311 63.9032 72.3512C63.7506 73.5713 64.865 73.7523 64.865 73.7523C64.865 73.7523 64.4116 74.6857 65.4894 75.4138C66.5671 76.1418 67.6165 74.8037 67.6165 74.8037C67.6165 74.8037 68.5133 75.1514 69.2352 74.2607C69.9551 73.37 69.164 72.4692 69.164 72.4692C69.164 72.4692 69.6928 72.0848 69.5768 71.1494C69.4609 70.2139 68.7065 70.1936 68.7065 70.1936C68.7065 70.1936 69.0623 69.6384 68.6678 69.2297C68.2733 68.8229 67.6449 69.1788 67.6449 69.1788C67.6449 69.1788 67.4579 68.4711 66.9576 68.5688C66.4573 68.6664 66.3292 69.3151 66.3292 69.3151Z" fill="#853C28"/>
<path d="M68.5356 71.5561L70.1015 69.2907L70.0995 66.2485L70.6709 66.1732C70.6709 66.1732 71.1386 68.9409 71.1366 69.5286C71.1346 70.0512 69.5463 72.8271 69.5463 72.8271L68.5356 71.5561Z" fill="#FFA88F"/>
<path d="M66.5183 71.6943C67.0654 71.2327 68.6434 71.4483 68.6434 71.4483C68.6434 71.4483 69.6724 72.2942 69.7578 72.9186C69.8188 73.368 69.5585 75.8652 69.5585 75.8652H67.0288L66.073 73.2399C66.0689 73.2399 65.9713 72.1539 66.5183 71.6943Z" fill="#F13005"/>
<path d="M66.2987 78.8058C66.0913 80.0239 65.8513 82.0087 65.7537 83.3895C65.2962 84.8638 65.2473 86.8567 65.1355 88.4348C65.469 88.6931 65.8798 88.4775 65.8798 88.4775C66.136 87.0398 66.8722 85.4902 67.0552 83.7881C67.4904 82.3747 67.95 80.8821 68.4258 79.3366L68.4604 79.2471C68.8651 77.9009 66.6159 77.0956 66.2987 78.8058Z" fill="#FFA88F"/>
<path d="M69.5545 75.8653C69.5545 75.8653 69.8697 76.7113 70.069 78.0229C70.2662 79.3346 70.9129 88.5162 70.9129 88.5162L70.1951 88.5202C69.8107 86.9483 69.0481 85.6956 69.1417 83.6722L67.3196 78.1043L68.2123 75.8653H69.5545V75.8653Z" fill="#FFA88F"/>
<path d="M66.7176 71.7127L65.168 69.7543L64.078 66.3908L63.4598 66.5515C63.4598 66.5515 63.71 69.9231 64.0191 70.4234C64.2936 70.8667 66.0709 73.2562 66.0709 73.2562C66.4675 73.4432 67.0593 72.5668 66.7176 71.7127Z" fill="#FFA88F"/>
<path d="M68.4156 68.5993C69.1376 69.2134 69.4792 69.9496 68.9586 70.5678C68.438 71.186 67.4314 71.188 66.7095 70.5739C65.9876 69.9597 65.8249 68.9592 66.3455 68.341C66.8661 67.7228 67.6958 67.9851 68.4156 68.5993Z" fill="#FFA88F"/>
<path d="M68.2184 70.6674H67.1792L67.1406 71.6923C67.1406 71.9038 67.6307 72.2028 68.0293 72.1804C68.3384 72.1621 68.6332 71.9445 68.5336 71.7228L68.2184 70.6674Z" fill="#FFA88F"/>
<path d="M70.6201 82.3076C70.317 78.3238 69.5545 75.8632 69.5545 75.8632H67.0267C66.5793 76.215 66.1726 76.8251 65.9144 77.4779C65.7374 77.9964 65.0298 80.2557 64.7552 82.3056C66.7542 83.0316 70.3618 82.7672 70.6201 82.3076Z" fill="#F13005"/>
<path d="M66.8498 75.485L66.9718 75.9344H69.587L69.6094 75.485H66.8498Z" fill="#0D0D0D"/>
<path d="M72.2042 89.2421C72.2042 89.234 71.7792 89.2319 71.3237 89.234C70.799 89.236 70.1462 89.2421 70.1462 89.2421C70.134 89.0387 70.1259 88.8293 70.193 88.5202L71.0146 88.5161C71.0146 88.5161 71.2423 88.5548 71.6409 88.6768C71.6673 88.6849 71.6958 88.691 71.7243 88.6971C72.3608 88.8435 72.2042 89.2604 72.2042 89.2421Z" fill="#0E0E0E"/>
<path d="M72.2042 89.2421C72.2042 89.234 71.7792 89.2319 71.3237 89.234C71.3094 89.1933 71.3013 89.1485 71.3013 89.1038C71.3013 88.9066 71.4436 88.7378 71.6389 88.6768C71.6653 88.6849 71.6938 88.691 71.7222 88.6971C72.3608 88.8435 72.2042 89.2604 72.2042 89.2421Z" fill="#0E0E0E"/>
<path d="M72.2449 89.114H70.1178V89.2442H72.2449V89.114Z" fill="#0E0E0E"/>
<path d="M65.9633 89.2055C65.9491 89.2055 65.6989 89.2034 65.3878 89.1994C64.8835 89.1953 64.2185 89.1912 64.1554 89.2055C63.9806 88.7805 64.3446 88.5629 64.6801 88.4408C64.8225 88.39 64.9607 88.3575 65.0502 88.3331L65.9064 88.3371C65.9877 88.7113 65.9775 88.9614 65.9633 89.2055Z" fill="#0E0E0E"/>
<path d="M65.9977 89.051H64.1065V89.2055H65.9977V89.051Z" fill="#0E0E0E"/>
<path d="M65.3876 89.1994C64.8833 89.1954 64.2183 89.1913 64.1553 89.2055C63.9804 88.7805 64.3444 88.5629 64.68 88.4409C64.8752 88.4206 65.1029 88.4531 65.2819 88.6382C65.471 88.8375 65.4547 89.0408 65.3876 89.1994Z" fill="#0E0E0E"/>
<path d="M67.1935 68.402C67.165 68.3817 67.7812 69.2948 66.6282 70.4498C65.5463 70.1916 65.0765 68.2536 66.7664 68.036C66.8254 67.6333 67.647 67.1148 68.2326 67.8224C68.9912 67.6415 69.2372 68.3369 68.7492 68.4793C68.7471 68.4793 67.9296 68.8982 67.1935 68.402Z" fill="#853C28"/>
<path d="M66.6973 70.704C66.8534 70.704 66.98 70.5775 66.98 70.4213C66.98 70.2652 66.8534 70.1387 66.6973 70.1387C66.5412 70.1387 66.4146 70.2652 66.4146 70.4213C66.4146 70.5775 66.5412 70.704 66.6973 70.704Z" fill="#FFA88F"/>
<path d="M70.9048 88.4348C70.9048 88.4348 71.1467 88.4978 71.3135 88.5853C71.1813 88.5527 70.982 88.6625 70.8946 88.8069C70.5529 88.752 70.2133 88.6056 70.191 88.5202C70.1605 88.3941 70.801 88.3697 70.9048 88.4348Z" fill="#FFA88F"/>
<path d="M64.5885 88.4775C64.7166 88.4084 64.985 88.3311 64.985 88.3311C64.985 88.3311 65.7171 88.0728 65.9062 88.3392C65.9062 88.3392 65.8412 88.5406 65.4222 88.628C65.0094 88.3494 64.5966 88.4796 64.5885 88.4775Z" fill="#FFA88F"/>
<path d="M89.8638 79.4809C89.8638 79.4809 89.9553 81.0875 89.2496 80.8251C88.8368 80.6726 88.9304 79.605 88.9304 79.605C88.9304 79.605 88.6091 79.7433 88.4871 79.6497C88.365 79.5562 88.8734 79.0905 89.3452 78.8892C89.4998 78.8241 89.8801 79.1495 89.8638 79.4809Z" fill="#FFA88F"/>
<path d="M83.2688 66.3399C83.2688 66.3399 82.8784 65.2398 83.3136 64.892C83.4254 64.8148 84.1067 64.9307 84.1067 64.9307C84.1067 64.9307 84.6883 65.25 84.5154 65.5347C84.3426 65.8194 83.946 66.3054 83.946 66.3054C83.946 66.3054 83.3726 66.3501 83.2688 66.3399Z" fill="#FFA88F"/>
<path d="M83.3929 64.7782C83.3929 64.7782 83.6166 65.1565 83.458 65.3375C83.2994 65.5184 82.8866 65.3741 82.852 65.1727C82.8154 64.9734 83.3787 64.7111 83.3929 64.7782Z" fill="#FFA88F"/>
<path d="M87.6167 72.8433C87.999 72.5505 88.3996 71.9181 87.8567 71.6293C87.3137 71.3426 85.4001 71.0945 85.5404 72.0889C85.6828 73.0833 87.2364 73.1362 87.6167 72.8433Z" fill="#F13005"/>
<path d="M85.9817 71.5216C86.8419 71.5216 86.4839 73.1728 85.7356 73.4209C85.7356 73.4209 82.974 71.1596 82.5103 70.0309C82.2805 69.4717 82.9821 66.3868 82.9821 66.3868C82.976 66.2404 82.9781 66.1549 83.1835 66.0675L83.946 66.2221C84.0254 66.3319 84.0559 66.46 84.0376 66.6064L83.7773 69.4615L85.9817 71.5216Z" fill="#F13005"/>
<path d="M88.0701 77.6568C88.4179 81.1952 89.2455 85.7077 89.9125 88.7418L89.1154 89.2522C87.9481 86.3198 86.2074 81.7585 85.2699 77.6568H88.0701V77.6568Z" fill="#4D2401"/>
<path d="M84.0335 77.2867L83.5414 89.1384C84.1921 89.2848 84.6436 89.293 84.6212 88.933L86.8337 77.6569L84.0335 77.2867Z" fill="#4D2401"/>
<path d="M88.3732 72.4488C88.3732 72.4488 87.4865 71.6333 85.4896 71.8509C85.0381 72.3024 84.1189 75.8327 84.0335 77.5409C85.0544 78.2567 87.9176 78.0716 88.0702 77.6588L88.3732 72.4488Z" fill="white"/>
<path d="M85.6624 78.3543C85.0523 78.2953 84.2104 77.9456 83.8546 77.6954C83.94 75.9872 85.0401 72.2983 85.4916 71.8469C85.6868 71.8265 85.9552 71.8103 86.0508 71.8123C85.3736 73.8052 85.213 76.2679 85.6624 78.3543Z" fill="#F13005"/>
<path d="M87.6695 72.0625C88.0905 72.1947 88.3731 72.4468 88.3731 72.4468V78.0127C88.304 78.1978 87.3828 78.3951 86.6304 78.4276C86.6324 76.3838 86.8093 73.6304 87.6695 72.0625Z" fill="#F13005"/>
<path d="M88.546 72.5323C87.8465 71.9323 87.0636 72.4875 87.3239 73.5633L88.9039 76.1866C88.9039 76.1866 88.8816 78.753 88.8714 78.8831C88.8612 79.0133 88.9975 79.119 88.9975 79.119L89.8679 79.3773C89.8679 79.3773 90.0122 79.3752 90.0407 79.1698C90.1546 78.3706 90.2969 76.2557 90.2054 75.9202C89.8679 74.6817 89.0056 72.9817 88.546 72.5323Z" fill="#F13005"/>
<path d="M86.2338 69.2663C85.579 70.0492 86.0752 71.129 86.8784 71.3487C87.6817 71.5683 88.6782 71.0457 88.9324 70.1102C89.1886 69.1748 88.7453 68.2373 87.942 68.0177C87.1408 67.798 86.3517 68.2292 86.2338 69.2663Z" fill="#FFA88F"/>
<path d="M87.7427 70.5007L87.5007 72.2842C87.3401 72.9227 85.7336 72.5709 86.0122 72.0564L86.6751 70.4113L87.7427 70.5007Z" fill="#FFA88F"/>
<path d="M88.7412 69.0426C88.7412 69.0426 88.1881 69.3497 87.0798 69.0935C86.0691 68.8596 85.5892 68.2577 85.8393 67.6822C85.9898 67.9689 86.5165 67.796 86.9069 67.6679C87.2303 67.5622 88.9466 67.3364 88.9832 68.705C89.76 69.2785 89.2598 70.0391 88.9202 70.3339C88.6456 69.8886 88.7412 69.0426 88.7412 69.0426Z" fill="#733602"/>
<path d="M88.8775 70.883C89.0808 70.883 89.2456 70.7182 89.2456 70.5149C89.2456 70.3116 89.0808 70.1469 88.8775 70.1469C88.6742 70.1469 88.5094 70.3116 88.5094 70.5149C88.5094 70.7182 88.6742 70.883 88.8775 70.883Z" fill="#FFA88F"/>
<path d="M85.9328 70.1265C85.9328 70.1265 86.0427 70.8505 86.9557 70.9583C87.6227 71.0376 88.2389 70.7651 88.5053 70.582C88.5318 70.6309 88.5541 70.6797 88.5785 70.7244C88.1982 71.609 86.3457 71.4626 86.3457 71.4626C86.0366 71.1047 85.8373 70.6288 85.9328 70.1265Z" fill="#733602"/>
<path d="M88.7249 69.4412C88.7249 69.4412 88.7778 70.0716 88.6395 70.3339C88.8998 70.1468 89.0666 70.1875 89.0686 70.1855C89.0727 70.1814 89.3228 69.5164 88.7249 69.4412Z" fill="#733602"/>
<path d="M87.5394 72.0178C87.5394 72.0178 86.9598 72.7478 86.9395 74.2181C87.0676 73.5592 88.2735 72.5058 88.121 71.9812C87.9685 71.4565 87.5028 71.8327 87.5394 72.0178Z" fill="#F13005"/>
<path d="M86.181 71.5947C86.181 71.5947 85.9939 72.0624 85.5059 73.9557C85.453 72.9653 85.2415 72.3959 85.5709 71.7899C85.8048 71.3751 86.181 71.5947 86.181 71.5947Z" fill="#F13005"/>
<path d="M82.8602 88.7988L83.1713 88.7032C83.3767 88.2985 84.2532 88.3494 84.1312 88.8415C84.4748 88.8923 84.6558 88.7215 84.6558 88.7215C84.8083 89.0143 84.8185 89.3275 84.7595 89.6509H82.9049L82.8602 88.7988Z" fill="#853C28"/>
<path d="M90.6833 88.7988L90.3721 88.7032C90.1667 88.2985 89.2923 88.3494 89.4123 88.8415C89.0686 88.8923 88.8876 88.7215 88.8876 88.7215C88.7473 88.9757 88.7534 89.3072 88.7839 89.6509H90.6385L90.6833 88.7988Z" fill="#853C28"/>
<path d="M83.8403 89.6509C83.8403 89.6468 83.8403 89.6427 83.8403 89.6387C83.8403 89.1669 83.458 88.7825 82.9842 88.7825C82.5124 88.7825 82.1281 89.1648 82.1281 89.6387C82.1281 89.6427 82.1281 89.6468 82.1281 89.6509H83.8403Z" fill="#C77762"/>
<path d="M89.7051 89.6509C89.7051 89.6468 89.7051 89.6427 89.7051 89.6387C89.7051 89.1669 90.0874 88.7825 90.5613 88.7825C91.0331 88.7825 91.4174 89.1648 91.4174 89.6387C91.4174 89.6427 91.4174 89.6468 91.4174 89.6509H89.7051Z" fill="#C77762"/>
<path d="M84.0884 65.4777C84.0945 65.2053 84.0538 64.3349 84.0538 64.3349C84.0538 64.3349 83.7773 64.1092 83.6715 64.5403C83.5658 64.9714 83.5658 64.9714 83.5658 64.9714C83.5658 64.9714 83.0167 65.2886 83.096 65.6669C83.2079 66.1997 84.0823 65.7502 84.0884 65.4777Z" fill="#FFA88F"/>
<path d="M45.3041 74.4743C45.3041 74.4743 45.1271 74.8383 44.7082 74.7386C44.151 75.003 43.8948 74.4336 43.8948 74.4336C43.8948 74.4336 43.1566 74.6898 43.0183 74.1042C42.4815 73.9313 42.331 73.549 42.3981 73.2338C42.03 72.8881 42.3045 72.1601 42.3045 72.1601C42.3045 72.1601 41.6538 71.8408 41.9853 71.2693C41.6884 70.6674 42.3717 70.0655 42.3717 70.0655C42.3717 70.0655 42.1053 69.5205 42.5506 69.2439C42.573 68.6298 42.8455 68.3166 43.5918 68.4203C44.0331 67.5926 44.7204 67.9709 44.7204 67.9709C44.7204 67.9709 45.1922 67.0822 45.8308 67.5438C46.7581 67.373 46.937 68.0787 46.937 68.0787C46.937 68.0787 47.5715 67.8428 47.8094 68.4508C48.4337 68.7599 48.4215 69.1402 48.3463 69.3781C48.7591 69.4005 48.8323 69.9618 48.6595 70.1773C48.9218 70.4234 48.8954 70.7833 48.6839 71.0599C48.6839 71.0599 48.8201 71.4341 48.5924 71.7574C48.6981 72.3105 48.0982 72.6176 48.0982 72.6176C48.0982 72.6176 48.1897 73.1667 47.9253 73.4575C47.7932 73.8805 47.2665 74.2018 47.2665 74.2018C47.2665 74.2018 46.9492 74.7346 46.6401 74.6491C46.2395 74.9135 45.7881 74.759 45.7982 74.6288C45.8084 74.4987 45.3264 74.7935 45.3041 74.4743Z" fill="#0E0E0E"/>
<path d="M43.7423 89.5817C43.7423 89.5817 42.5262 89.7444 42.2557 90.3118C42.2029 90.4948 42.7662 90.69 43.7423 90.5314C44.5008 90.3952 44.7753 90.1206 44.7753 90.1206C44.7753 90.1206 44.8668 89.7017 44.8221 89.5248C44.7733 89.3479 43.7911 89.2543 43.7423 89.5817Z" fill="#0E0E0E"/>
<path d="M48.1836 89.4739H49.2797C49.2797 89.4739 51.0367 89.3417 50.9249 90.206C50.8253 90.3524 49.7637 90.3484 47.9742 90.263C47.7932 89.8481 48.1836 89.4739 48.1836 89.4739Z" fill="#0E0E0E"/>
<path d="M49.7881 79.2166C50.0545 78.4153 49.9305 77.4372 49.5746 76.7783C49.1475 75.7575 47.3275 75.8266 46.815 76.3086C46.815 76.3086 45.3712 77.9598 45.4851 79.2166H49.7881Z" fill="#0E0E0E"/>
<path d="M49.3773 76.5404L46.2314 77.0976C46.2111 75.8368 44.995 74.4011 45.0763 73.6853C45.1129 73.3721 45.3997 73.0853 45.784 72.8637C46.2538 72.5932 46.872 72.4204 47.356 72.4183C47.4841 72.4183 47.602 72.4285 47.7057 72.4529C48.145 72.5566 49.2187 73.0975 49.4302 73.9008C49.4343 73.8683 49.3021 75.9629 49.3773 76.5404Z" fill="#F13005"/>
<path d="M47.5207 72.5017L49.4119 70.1387L50.1114 66.6857L50.811 66.6796C50.811 66.6796 50.9696 69.5286 50.567 70.584C49.9874 72.1011 49.117 73.5693 48.871 73.8072C48.1938 74.4641 46.9269 73.6019 47.5207 72.5017Z" fill="#7A4B42"/>
<path d="M47.356 72.4163C47.4048 72.4163 48.2324 71.613 48.2324 71.613C48.2324 71.613 48.7002 71.5744 49.1679 72.0869C49.6356 72.5993 49.5075 72.8311 49.5075 72.8311L48.8486 74.3543C48.8486 74.3543 48.265 74.6837 47.5715 73.9577C46.8801 73.2338 47.356 72.4163 47.356 72.4163Z" fill="#F13005"/>
<path d="M45.5339 78.6147L43.7423 89.6916H44.8038L48.0921 78.7469C48.4378 77.3437 45.9365 76.8455 45.5339 78.6147Z" fill="#0E0E0E"/>
<path d="M49.9325 78.4235L49.2594 89.8135H48.1978L47.7057 78.4052C47.7688 77.3131 49.8898 77.1017 49.9325 78.4235Z" fill="#0E0E0E"/>
<path d="M47.3661 72.5831L46.8394 71.304L45.5928 71.5826L45.9731 72.8413C46.2029 73.1443 47.2827 72.9206 47.3661 72.5831Z" fill="#7A4B42"/>
<path d="M47.3254 70.0899C47.5857 70.948 47.2197 71.855 46.449 72.0889C45.6782 72.3227 44.7916 71.794 44.5313 70.9358C44.271 70.0777 44.7367 69.2154 45.5074 68.9816C46.2802 68.7477 47.0651 69.2317 47.3254 70.0899Z" fill="#7A4B42"/>
<path d="M46.2863 74.5923C46.8577 73.7788 45.5766 72.7356 45.0133 73.6832C44.0067 74.9603 43.0529 76.5079 43.297 76.6604L43.6732 76.939C44.631 77.2542 46.1114 74.8403 46.2863 74.5923Z" fill="#7A4B42"/>
<path d="M44.4601 74.4214C44.4805 74.395 45.5074 74.7163 45.7169 75.3975C47.8155 73.307 45.7067 72.7274 45.481 73.0671C44.8628 73.5551 44.6981 73.9822 44.4601 74.4214Z" fill="#F13005"/>
<path d="M44.2019 75.8124C44.4866 76.573 43.8745 77.2908 43.3579 76.8007C42.6808 76.211 41.9019 75.1698 41.0397 73.7768L41.5826 73.2908L44.2019 75.8124Z" fill="#7A4B42"/>
<path d="M41.5542 73.2724C41.5542 73.2724 40.8587 72.7254 40.6004 72.5851C40.6004 72.5851 40.4601 72.6441 40.6838 72.8962C40.9075 73.1484 41.0071 73.1728 41.0071 73.1728C41.0071 73.1728 41.3671 73.8052 41.5542 73.2724Z" fill="#7A4B42"/>
<path d="M41.2512 73.9354C41.2512 73.9354 40.8017 73.9659 40.6289 73.9415C39.8622 73.8317 39.6019 73.0671 39.7219 73.002C39.8419 72.9389 40.6106 73.1301 40.6106 73.1301C40.6106 73.1301 39.7992 72.8271 39.9049 72.6847C40.0086 72.5424 41.481 73.2379 41.481 73.2379C41.7209 73.3558 41.727 73.8805 41.2512 73.9354Z" fill="#7A4B42"/>
<path d="M44.6472 71.5358C44.8224 71.5358 44.9645 71.3938 44.9645 71.2185C44.9645 71.0433 44.8224 70.9013 44.6472 70.9013C44.472 70.9013 44.33 71.0433 44.33 71.2185C44.33 71.3938 44.472 71.5358 44.6472 71.5358Z" fill="#7A4B42"/>
<path d="M47.2258 70.3584C47.401 70.3584 47.543 70.2163 47.543 70.0411C47.543 69.8659 47.401 69.7239 47.2258 69.7239C47.0506 69.7239 46.9086 69.8659 46.9086 70.0411C46.9086 70.2163 47.0506 70.3584 47.2258 70.3584Z" fill="#7A4B42"/>
<path d="M47.4352 70.3949C47.4936 70.3949 47.541 70.3476 47.541 70.2892C47.541 70.2308 47.4936 70.1834 47.4352 70.1834C47.3768 70.1834 47.3295 70.2308 47.3295 70.2892C47.3295 70.3476 47.3768 70.3949 47.4352 70.3949Z" fill="#D9FFFF"/>
<path d="M44.7448 71.6415C44.8032 71.6415 44.8506 71.5942 44.8506 71.5358C44.8506 71.4774 44.8032 71.4301 44.7448 71.4301C44.6864 71.4301 44.6391 71.4774 44.6391 71.5358C44.6391 71.5942 44.6864 71.6415 44.7448 71.6415Z" fill="#D9FFFF"/>
<path d="M47.5715 73.4961C46.7154 73.8947 46.0199 73.1179 45.784 72.8637C46.2538 72.5932 46.872 72.4204 47.3559 72.4183C47.7078 72.5688 48.0819 73.2582 47.5715 73.4961Z" fill="#7A4B42"/>
<path d="M55.1385 66.3339V66.3257L35.2501 66.6471L55.1385 66.3339Z" fill="white"/>
<path d="M57.4709 62.1467L57.4506 60.9083L57.4404 60.3938L57.4201 59.1554L57.412 58.6409L57.3896 57.4024L57.3815 56.8879L57.3611 55.6495L57.351 55.135L57.3306 53.8965L57.3205 53.382L57.3001 52.1456L57.292 51.6291L57.2696 50.3927L57.2615 49.8782L57.2412 48.6397L57.231 48.1252L57.2107 46.8868L57.2005 46.3723L57.1801 45.1339L57.172 44.6194L57.1496 43.3809L57.1415 42.8664L57.1212 41.628L57.111 41.1135L57.0907 39.8771L57.0805 39.3605L57.0602 38.1241L57.052 37.6096L57.0297 36.3712L57.0215 35.8567L57.0012 34.6182L56.991 34.1037L56.9748 33.0931C56.8324 33.0931 56.6921 33.0788 56.5558 33.0524C55.4516 32.8531 54.6056 31.8953 54.5873 30.73L34.699 31.0432L34.7112 31.9197C35.3457 31.9095 35.8703 32.4179 35.8784 33.0524C35.8886 33.6889 35.3802 34.2115 34.7457 34.2217L34.764 35.4418C35.3985 35.4317 35.9232 35.9401 35.9313 36.5745C35.9415 37.209 35.4331 37.7337 34.7986 37.7418L34.8169 38.962C35.4514 38.9518 35.9761 39.4602 35.9842 40.0947C35.9944 40.7291 35.486 41.2538 34.8515 41.264L34.8698 42.4821C35.5063 42.4719 36.0289 42.9803 36.0371 43.6168C36.0472 44.2513 35.5388 44.7759 34.9044 44.7841L34.9227 46.0042C35.5571 45.9941 36.0818 46.5025 36.0899 47.1369C36.1001 47.7714 35.5917 48.2961 34.9572 48.3042L34.9755 49.5243C35.612 49.5142 36.1347 50.0226 36.1428 50.657C36.153 51.2936 35.6446 51.8162 35.0101 51.8264L35.0284 53.0445C35.6629 53.0343 36.1876 53.5447 36.1957 54.1792C36.2059 54.8137 35.6975 55.3383 35.063 55.3465L35.0813 56.5666C35.7178 56.5564 36.2404 57.0648 36.2486 57.6993C36.2587 58.3338 35.7503 58.8585 35.1159 58.8666L35.1342 60.0867C35.7686 60.0766 36.2933 60.585 36.3014 61.2215C36.3116 61.8559 35.8032 62.3806 35.1687 62.3887L35.187 63.6089C35.8215 63.5987 36.3462 64.1071 36.3543 64.7416C36.3624 65.3761 35.8561 65.9007 35.2216 65.9089L35.2318 66.6389L55.1201 66.3176C55.1059 65.0202 56.1227 63.9505 57.4099 63.8916H57.4201C57.4404 63.8895 57.4608 63.8895 57.4811 63.8895L57.4608 62.6551L57.4709 62.1467Z" fill="#FCAA5B"/>
<path d="M54.647 38.159L54.623 36.5791L46.888 36.6969L46.9121 38.2768L54.647 38.159Z" fill="#3B3B3B"/>
<path d="M54.6868 40.895L54.6556 38.8433L46.9206 38.9611L46.9519 41.0128L54.6868 40.895Z" fill="#3B3B3B"/>
<path d="M54.7181 42.8905L54.6961 41.4488L46.9612 41.5665L46.9831 43.0082L54.7181 42.8905Z" fill="#3B3B3B"/>
<path d="M54.7411 44.4166L54.7234 43.2515L46.9884 43.3693L47.0062 44.5344L54.7411 44.4166Z" fill="#3B3B3B"/>
<path d="M54.7704 46.3294L54.7493 44.9426L47.0144 45.0604L47.0355 46.4471L54.7704 46.3294Z" fill="#3B3B3B"/>
<path d="M54.8031 48.5451L54.7753 46.715L47.0403 46.8328L47.0682 48.6628L54.8031 48.5451Z" fill="#3B3B3B"/>
<path d="M54.8309 50.3201L54.8123 49.1L47.0774 49.2178L47.096 50.4378L54.8309 50.3201Z" fill="#3B3B3B"/>
<path d="M54.8652 52.5938L54.8374 50.7638L47.1024 50.8816L47.1303 52.7116L54.8652 52.5938Z" fill="#3B3B3B"/>
<path d="M54.8767 53.2843L54.8725 53.0078L47.1376 53.1255L47.1418 53.402L54.8767 53.2843Z" fill="#3B3B3B"/>
<path d="M54.9147 55.8361L54.8843 53.8394L47.1493 53.9571L47.1797 55.9539L54.9147 55.8361Z" fill="#3B3B3B"/>
<path d="M54.9582 58.5523L47.2232 58.67L47.2384 59.6684L54.9734 59.5507L54.9582 58.5523Z" fill="#3B3B3B"/>
<path d="M54.9443 57.8325L54.9182 56.1143L47.1832 56.2321L47.2094 57.9503L54.9443 57.8325Z" fill="#3B3B3B"/>
<path d="M99.265 30L59.4069 30.6426V30.6548C59.4273 31.9807 58.3678 33.0707 57.0419 33.091C57.0276 33.091 57.0093 33.091 56.9951 33.091C56.8507 33.091 56.7104 33.0768 56.5742 33.0504L56.5925 34.1078L57.0093 34.1017L57.0195 34.6162L56.6006 34.6223L56.6209 35.8608L57.0398 35.8547L57.048 36.3692L56.6311 36.3753L56.6514 37.6137L57.0704 37.6076L57.0785 38.1221L56.6616 38.1282L56.6819 39.3666C56.686 39.3666 57.0581 39.3605 57.0988 39.3585L57.109 39.875L56.6901 39.8811L56.7104 41.1196C56.7145 41.1196 57.0988 41.1115 57.1293 41.1115L57.1395 41.6259C57.109 41.6259 56.7226 41.6341 56.7206 41.6341L56.7409 42.8705L57.1598 42.8644L57.168 43.3789C57.1375 43.3789 56.7531 43.387 56.7511 43.387L56.7714 44.6234L57.1903 44.6173L57.1985 45.1318C57.168 45.1318 56.7816 45.14 56.7796 45.14L56.7999 46.3764L57.2188 46.3703L57.229 46.8848L56.8101 46.8909L56.8304 48.1293L57.2493 48.1232L57.2595 48.6377L56.8406 48.6438L56.8609 49.8823L57.2798 49.8762L57.2879 50.3907L56.869 50.3968L56.8894 51.6352C56.8914 51.6352 57.294 51.6271 57.3103 51.6271L57.3184 52.1436L56.8995 52.1497L56.9199 53.3881C56.9239 53.3881 57.3083 53.38 57.3388 53.38L57.349 53.8945C57.3327 53.8945 56.93 53.9026 56.93 53.9026L56.9504 55.1411C56.9544 55.1411 57.3388 55.133 57.3693 55.133L57.3795 55.6475C57.3632 55.6475 56.9605 55.6556 56.9585 55.6556L56.9788 56.892L57.3998 56.8859L57.4079 57.4004C57.3774 57.4004 56.991 57.4085 56.989 57.4085L57.0093 58.6449L57.4303 58.6388L57.4384 59.1533L57.0195 59.1594L57.0398 60.3979L57.4588 60.3918L57.4689 60.9063L57.048 60.9124L57.0683 62.1508L57.4893 62.1447L57.4994 62.6592L57.0785 62.6653L57.0988 63.9383C57.2798 63.9038 57.473 63.8956 57.5198 63.8956V63.8936C57.5198 63.8936 57.5198 63.8936 57.5218 63.8936C58.8436 63.8733 59.9316 64.9246 59.958 66.2444L99.8181 65.5998L99.265 30Z" fill="#F13005"/>
<path d="M72.6943 42.4028L68.3302 42.474C68.314 43.2162 68.2509 44.5584 68.2062 45.3291C68.5661 44.6946 69.646 44.3916 70.4167 44.3794C72.7268 44.3408 73.5809 45.9819 73.6216 48.4629L73.6724 51.5153C73.7172 54.2524 72.9953 57.2032 68.7756 57.2723C64.2122 57.3475 63.6795 54.4456 63.6428 52.1924L63.6306 51.5071L67.8523 51.438L67.8747 52.8066C67.8849 53.4349 68.0069 53.9169 68.5194 53.9088C68.9749 53.9006 69.1396 53.4715 69.1294 52.7862L69.0684 49.079C69.0542 48.2514 68.8244 48.0846 68.4807 48.0907C68.0821 48.0968 67.8015 48.3591 67.8523 49.7562L63.7425 49.5956C64.0069 46.5391 64.1695 42.5716 64.3058 38.7464L73.0888 38.6021L72.6943 42.4028Z" fill="white"/>
<path d="M85.1154 43.1674L85.2598 52.0074C85.3126 55.2021 83.7753 57.1381 80.1535 57.1971C76.3324 57.2601 75.098 55.0842 75.0512 52.1741L74.9068 43.3627C74.8458 39.6554 77.0767 38.2218 79.8708 38.175C82.8073 38.1282 85.0584 39.631 85.1154 43.1674ZM79.2892 42.7506L79.4498 52.5605C79.462 53.3028 79.641 53.7278 80.1535 53.7176C80.609 53.7095 80.8306 53.3068 80.8184 52.5361L80.6578 42.7261C80.6476 42.0978 80.4971 41.6443 79.9562 41.6545C79.4437 41.6626 79.2811 42.1506 79.2892 42.7506Z" fill="white"/>
<path d="M90.1302 41.1033L90.1566 42.7525C90.179 44.0581 89.5872 44.8512 88.2654 44.8735C86.9436 44.8959 86.3599 44.1699 86.305 42.8644L86.2765 41.1826C86.2603 40.1862 86.6528 39.2182 88.1698 39.1917C89.5425 39.1694 90.1139 40.1068 90.1302 41.1033ZM87.7122 49.9249L92.3366 39.3036L93.4632 39.2853L88.8694 49.9066L87.7122 49.9249ZM87.94 41.0403L87.9705 42.9335C87.9766 43.2426 88.0763 43.3728 88.2389 43.3707C88.4016 43.3687 88.483 43.2691 88.4769 42.9091L88.4464 41.0321C88.4403 40.723 88.3427 40.6254 88.1942 40.6274C88.0315 40.6315 87.9359 40.7312 87.94 41.0403ZM94.9477 46.1994L94.9741 47.8487C94.9965 49.1542 94.4047 49.9473 93.0829 49.9697C91.7611 49.9921 91.1775 49.2335 91.1226 47.9605L91.0941 46.2787C91.0778 45.3331 91.4703 44.3143 92.9873 44.2879C94.36 44.2655 94.9314 45.203 94.9477 46.1994ZM92.7596 46.1364L92.7901 48.0297C92.7962 48.3388 92.8958 48.4689 93.0585 48.4669C93.2212 48.4648 93.3025 48.3652 93.2964 48.0053L93.2659 46.1283C93.2598 45.8192 93.1622 45.7215 93.0138 45.7236C92.8511 45.7276 92.7535 45.8273 92.7596 46.1364Z" fill="white"/>
<path d="M89.7702 53.2784C89.7987 55.0456 89.1845 55.7736 88.2938 55.7878C87.2282 55.8061 86.793 54.6856 86.7727 53.3963C86.7524 52.1152 87.2425 51.0008 88.2775 50.9845C89.4123 50.9662 89.7539 52.2067 89.7702 53.2784ZM87.7183 53.3943C87.7366 54.4599 87.9461 54.9988 88.3162 54.9927C88.6985 54.9866 88.8327 54.2891 88.8185 53.3353C88.8042 52.5138 88.668 51.7715 88.2572 51.7776C87.8952 51.7837 87.702 52.3856 87.7183 53.3943Z" fill="white"/>
<path d="M90.3112 51.0068L92.3508 50.9743L92.363 51.7674L91.2364 51.7857L91.2568 52.9896L92.3142 52.9713L92.3264 53.7298L91.269 53.7481L91.3015 55.682L90.3905 55.6963L90.3112 51.0068Z" fill="white"/>
<path d="M93.0402 50.9621L95.0798 50.9296L95.092 51.7227L93.9654 51.741L93.9858 52.9448L95.0432 52.9265L95.0554 53.6851L93.998 53.7034L94.0305 55.6373L93.1195 55.6515L93.0402 50.9621Z" fill="white"/>
<path d="M43.3681 55.1187C43.5796 55.1329 44.6554 55.196 44.6737 56.3531C44.694 57.5387 43.6528 57.6932 42.5323 57.7115C41.182 57.7339 40.3788 57.3516 40.3645 56.3795C40.3462 55.2733 41.2939 55.1716 41.6274 55.1492L41.6396 55.8874C41.4972 55.9016 40.9909 55.9199 40.999 56.3795C41.0071 56.8493 41.5826 56.953 42.5364 56.9367C43.3234 56.9245 44.0595 56.833 44.0514 56.349C44.0433 55.9037 43.5389 55.8772 43.3803 55.861L43.3681 55.1187Z" fill="#3B3B3B"/>
<path d="M42.4144 52.046C43.9395 52.0216 44.6106 52.4243 44.6269 53.3861C44.6411 54.285 43.9944 54.7324 42.451 54.7588C40.9461 54.7832 40.332 54.285 40.3177 53.4228C40.3015 52.5137 40.9664 52.0704 42.4144 52.046ZM42.4306 53.9922C43.421 53.9759 44.0066 53.8152 43.9985 53.378C43.9904 52.9164 43.4433 52.7944 42.4123 52.8107C41.4423 52.8269 40.94 52.9754 40.9481 53.4289C40.9563 53.8762 41.5013 54.0084 42.4306 53.9922Z" fill="#3B3B3B"/>
<path d="M40.3401 50.777L43.2095 50.7303C43.5511 50.7242 43.9558 50.6327 43.9477 50.1731C43.9395 49.7298 43.5979 49.6403 43.1952 49.6464L40.3218 49.6931L40.3096 48.9448L43.1952 48.898C43.9436 48.8858 44.5577 49.1685 44.574 50.1751C44.5903 51.1675 44.0229 51.4644 43.2379 51.4786L40.3523 51.5254L40.3401 50.777Z" fill="#3B3B3B"/>
<path d="M40.2994 48.29L40.2791 47.0353C40.2669 46.3459 40.6716 45.8233 41.4993 45.809C42.3045 45.7948 42.7418 46.2564 42.754 47.0515L42.7621 47.501L44.4581 47.4725L44.4703 48.2209L40.2994 48.29ZM42.1622 47.5111L42.1561 47.1471C42.15 46.7323 41.9405 46.5533 41.5013 46.5594C41.0844 46.5655 40.879 46.7852 40.8851 47.1268L40.8912 47.5315L42.1622 47.5111Z" fill="#3B3B3B"/>
<path d="M42.2619 42.6875C43.787 42.6631 44.4581 43.0657 44.4744 44.0276C44.4886 44.9265 43.8419 45.3739 42.2985 45.4003C40.7936 45.4247 40.1795 44.9265 40.1652 44.0642C40.149 43.1552 40.8139 42.7119 42.2619 42.6875ZM42.2781 44.6336C43.2685 44.6174 43.8541 44.4567 43.846 44.0195C43.8379 43.5579 43.2908 43.4359 42.2598 43.4521C41.2898 43.4684 40.7875 43.6168 40.7956 44.0703C40.8038 44.5177 41.3488 44.6499 42.2781 44.6336Z" fill="#3B3B3B"/>
<path d="M44.3686 42.0693L40.1978 42.1384L40.1835 41.2904C42.4733 40.3895 42.9106 40.2167 43.1139 40.1638V40.1577C42.6137 40.2024 41.9995 40.2126 41.3162 40.2248L40.1652 40.2431L40.1551 39.5761L44.3259 39.507L44.3402 40.3204C41.8978 41.2518 41.4565 41.4165 41.2674 41.4734V41.4795C41.7799 41.4409 42.394 41.4287 43.1424 41.4165L44.3585 41.3961L44.3686 42.0693Z" fill="#3B3B3B"/>
<path d="M94.1935 59.9699L63.4937 60.4373L63.5409 63.5382L94.2407 63.0708L94.1935 59.9699Z" fill="#FCAA5B"/>
<path d="M66.4289 33.0951L66.8213 34.2441L68.0354 34.2258L67.0654 34.9558L67.4578 36.1048L66.4634 35.4052L65.4934 36.1333L65.8513 34.9741L64.8569 34.2746L66.0709 34.2563L66.4289 33.0951Z" fill="white"/>
<path d="M70.6546 33.0321L71.0471 34.1811L72.2612 34.1628L71.2891 34.8908L71.6816 36.0398L70.6892 35.3402L69.7171 36.0703L70.0751 34.9091L69.0827 34.2116L70.2967 34.1912L70.6546 33.0321Z" fill="white"/>
<path d="M74.8784 32.967L75.2708 34.1159L76.4849 34.0976L75.5128 34.8257L75.9073 35.9746L74.9129 35.2771L73.9429 36.0051L74.2988 34.844L73.3064 34.1465L74.5204 34.1282L74.8784 32.967Z" fill="white"/>
<path d="M79.1021 32.9039L79.4946 34.0529L80.7086 34.0326L79.7386 34.7626L80.1311 35.9116L79.1387 35.212L78.1666 35.9401L78.5246 34.7809L77.5322 34.0814L78.7462 34.0631L79.1021 32.9039Z" fill="white"/>
<path d="M83.3279 32.8389L83.7204 33.9878L84.9344 33.9695L83.9623 34.6976L84.3548 35.8465L83.3624 35.147L82.3904 35.877L82.7483 34.7159L81.7559 34.0183L82.97 34L83.3279 32.8389Z" fill="white"/>
<path d="M87.5516 32.7738L87.944 33.9228L89.1581 33.9045L88.1881 34.6325L88.5806 35.7815L87.5861 35.0839L86.6161 35.812L86.974 34.6528L85.9796 33.9533L87.1937 33.935L87.5516 32.7738Z" fill="white"/>
<path d="M91.7774 32.7108L92.1699 33.8597L93.3839 33.8414L92.4119 34.5694L92.8044 35.7184L91.812 35.0189L90.8399 35.7469L91.1978 34.5877L90.2054 33.8882L91.4195 33.8699L91.7774 32.7108Z" fill="white"/>
<path d="M54.0606 83.0722C54.0383 83.0722 54.02 83.0478 54.0179 83.0173C54.0179 83.0153 54.0179 83.0112 54.0179 83.0051C54.02 82.7631 53.9935 81.5531 53.4017 81.4291C53.3367 81.4148 53.2248 81.4514 53.1191 81.5938C53.0032 81.7463 52.8222 82.1307 52.8954 82.9807C52.8974 83.0132 52.8812 83.0417 52.8588 83.0437C52.8364 83.0478 52.814 83.0254 52.812 82.9929C52.7347 82.0941 52.934 81.6772 53.0601 81.5104C53.1882 81.3396 53.3265 81.2969 53.4139 81.3152C54.0749 81.4535 54.1013 82.7468 54.1013 83.0051V83.0112C54.1013 83.0417 54.085 83.0681 54.0627 83.0702C54.0627 83.0722 54.0627 83.0722 54.0606 83.0722Z" fill="#FC7474"/>
<path d="M52.2914 82.7387L51.903 90.3199L53.7475 90.3036L53.4567 82.7286L52.2914 82.7387Z" fill="#E84923"/>
<path d="M53.7393 82.7265L53.7475 90.3036L56.7734 90.2772L56.2589 82.7042L53.7393 82.7265Z" fill="#F15E3C"/>
<path d="M53.1516 82.7306L52.8974 89.3784L53.7475 90.3037L53.7393 82.7266L53.1516 82.7306Z" fill="#D94421"/>
<path d="M52.8974 89.3784L51.903 90.3199L53.7475 90.3036L52.8974 89.3784Z" fill="#D94421"/>
<path d="M55.5777 83.0601C55.5553 83.0601 55.537 83.0357 55.535 83.0052C55.535 83.0031 55.535 82.9991 55.535 82.993C55.537 82.751 55.5106 81.541 54.9188 81.4169C54.8537 81.4027 54.7419 81.4393 54.6361 81.5816C54.5202 81.7342 54.3392 82.1185 54.4124 82.9685C54.4145 83.0011 54.3982 83.0296 54.3758 83.0316C54.3535 83.0357 54.3311 83.0133 54.3291 82.9807C54.2518 82.0819 54.4511 81.665 54.5772 81.4983C54.7053 81.3275 54.8436 81.2847 54.931 81.303C55.5919 81.4413 55.6184 82.7347 55.6184 82.993V82.9991C55.6184 83.0296 55.6021 83.056 55.5797 83.058C55.5777 83.0601 55.5777 83.0601 55.5777 83.0601Z" fill="#FC7474"/>
<path d="M56.3708 84.3331H55.2564L55.0795 90.3199L56.7734 90.2772L56.3708 84.3331Z" fill="#E84923"/>
<path d="M57.3733 84.7886C57.3571 84.7886 57.3428 84.7703 57.3408 84.748C57.3408 84.748 57.3408 84.7439 57.3408 84.7378C57.3408 84.5548 57.3225 83.6356 56.8731 83.542C56.8243 83.5319 56.7389 83.5583 56.6575 83.6661C56.5701 83.782 56.4318 84.0748 56.4887 84.7195C56.4908 84.7439 56.4786 84.7642 56.4603 84.7683C56.442 84.7703 56.4277 84.754 56.4257 84.7296C56.3667 84.0484 56.5172 83.7312 56.6128 83.6051C56.7104 83.4749 56.8161 83.4444 56.8812 83.4566C57.3815 83.5603 57.4038 84.5426 57.4018 84.7398V84.7439C57.4059 84.7662 57.3916 84.7866 57.3733 84.7886C57.3733 84.7886 57.3754 84.7886 57.3733 84.7886Z" fill="#1FBFC7"/>
<path d="M56.0291 84.5344L55.7363 90.2874L57.1354 90.2752L56.9158 84.5262L56.0291 84.5344Z" fill="#13A9B0"/>
<path d="M57.1293 84.5242L57.1354 90.2752L59.4313 90.2548L59.0409 84.5079L57.1293 84.5242Z" fill="#1FBFC7"/>
<path d="M56.684 84.5283L56.4908 89.5736L57.1354 90.2752L57.1293 84.5242L56.684 84.5283Z" fill="#129FA6"/>
<path d="M56.4908 89.5736L55.7363 90.2874L57.1354 90.2752L56.4908 89.5736Z" fill="#13A9B0"/>
<path d="M58.5223 84.7784C58.5061 84.7784 58.4918 84.7601 58.4898 84.7378C58.4898 84.7378 58.4898 84.7337 58.4898 84.7276C58.4898 84.5446 58.4715 83.6254 58.0221 83.5318C57.9733 83.5217 57.8879 83.5481 57.8065 83.6559C57.7191 83.7718 57.5808 84.0646 57.6377 84.7093C57.6398 84.7337 57.6276 84.754 57.6093 84.7581C57.5909 84.7601 57.5767 84.7439 57.5747 84.7195C57.5157 84.0382 57.6662 83.721 57.7618 83.5949C57.8594 83.4647 57.9651 83.4342 58.0302 83.4464C58.5305 83.5502 58.5528 84.5324 58.5508 84.7296V84.7337C58.5549 84.7561 58.5427 84.7764 58.5223 84.7784C58.5244 84.7784 58.5244 84.7784 58.5223 84.7784Z" fill="#1FBFC7"/>
<path d="M50.0301 66.6654C50.0301 66.6654 49.5115 65.9963 49.42 65.6974C49.6356 65.4615 49.8267 65.7869 49.9914 66.0207C50.3819 66.0817 50.8923 65.9821 50.8089 66.6572C50.7947 66.9724 50.1236 66.9074 50.0301 66.6654Z" fill="#7A4B42"/>
<path d="M64.0781 66.5494C64.0781 66.5494 64.379 66.3766 64.3729 65.677C64.135 65.5713 64.133 65.978 64.133 65.978C64.133 65.978 63.3256 66.0715 63.4436 66.4864C63.5595 66.8992 64.0781 66.5494 64.0781 66.5494Z" fill="#FFA88F"/>
<path d="M70.1381 66.3441C70.1381 66.3441 69.9144 66.2891 69.8534 65.9068C69.7924 65.5225 69.7822 65.612 69.7822 65.612C69.7822 65.612 69.9937 65.5022 70.1056 65.9455C70.437 65.9231 70.6424 66.0878 70.6424 66.0878C70.6424 66.0878 70.7299 66.1712 70.6831 66.2952C70.6384 66.4193 70.1788 66.4051 70.1381 66.3441Z" fill="#FFA88F"/>
<path d="M37.4829 81.2888C38.7026 81.2888 39.6914 80.3 39.6914 79.0803C39.6914 77.8606 38.7026 76.8719 37.4829 76.8719C36.2632 76.8719 35.2745 77.8606 35.2745 79.0803C35.2745 80.3 36.2632 81.2888 37.4829 81.2888Z" fill="#FFDF6B"/>
<path d="M35.8846 79.2105C35.9395 80.0463 36.6349 80.7072 37.4829 80.7072C38.333 80.7072 39.0264 80.0463 39.0813 79.2105H35.8846Z" fill="#D62B05"/>
<path d="M37.0844 78.6817C37.062 78.6817 37.0437 78.6634 37.0437 78.6411C37.0437 78.3808 36.8322 78.1693 36.5719 78.1693C36.3116 78.1693 36.1001 78.3808 36.1001 78.6411C36.1001 78.6634 36.0818 78.6817 36.0594 78.6817C36.0371 78.6817 36.0188 78.6634 36.0188 78.6411C36.0188 78.336 36.2669 78.09 36.5699 78.09C36.8729 78.09 37.121 78.3381 37.121 78.6411C37.125 78.6634 37.1067 78.6817 37.0844 78.6817Z" fill="#474747"/>
<path d="M38.8841 78.6817C38.8617 78.6817 38.8434 78.6634 38.8434 78.6411C38.8434 78.3808 38.6319 78.1693 38.3716 78.1693C38.1113 78.1693 37.8998 78.3808 37.8998 78.6411C37.8998 78.6634 37.8815 78.6817 37.8592 78.6817C37.8368 78.6817 37.8185 78.6634 37.8185 78.6411C37.8185 78.336 38.0666 78.09 38.3696 78.09C38.6746 78.09 38.9207 78.3381 38.9207 78.6411C38.9247 78.6634 38.9064 78.6817 38.8841 78.6817Z" fill="#474747"/>
<path d="M100.593 79.6965C100.593 79.6965 99.9849 79.786 99.5538 79.786C99.1226 79.786 98.3845 79.4057 98.3845 79.4057V77.547L99.5294 77.1668L100.595 77.0773C100.977 77.0773 101.286 77.3864 101.286 77.7687V79.0051C101.284 79.3874 100.975 79.6965 100.593 79.6965Z" fill="#003FAD"/>
<path d="M98.2055 77.1973H96.9894V79.7108H98.2055V77.1973Z" fill="#003FAD"/>
<path d="M99.4744 75.9608C99.2365 75.8713 98.9701 75.9934 98.8806 76.2313L98.3865 77.549L99.3341 77.6507L99.7469 76.5546C99.8323 76.3167 99.7124 76.0503 99.4744 75.9608Z" fill="#003FAD"/>
<path d="M77.4468 72.1621C78.0589 73.4046 75.3746 74.9115 75.3746 74.9115C75.3746 74.9115 72.7025 73.4554 73.3024 72.1621C73.9673 70.7284 75.3929 72.4163 75.3929 72.4163C75.3929 72.4163 76.8204 70.8911 77.4468 72.1621Z" fill="#F23106"/>
</svg>
