<svg width="130" height="130" viewBox="0 0 130 130" fill="none" xmlns="http://www.w3.org/2000/svg">
<circle cx="66.5789" cy="66.5789" r="58.4211" fill="#C2EAFC"/>
<circle cx="113.947" cy="11.3158" r="6.31579" fill="#F0D0B4"/>
<circle cx="11.3158" cy="91.8422" r="6.31579" fill="#AAE5FF"/>
<circle r="3.15789" transform="matrix(1 0 0 -1 14.4737 69.7369)" fill="white"/>
<circle r="2.36842" transform="matrix(1 0 0 -1 108.421 40.5263)" fill="white"/>
<circle cx="120.263" cy="101.316" r="3.15789" fill="#76FD8C"/>
<circle cx="104.474" cy="8.1579" r="1.57895" fill="#76FD8C"/>
<circle cx="119.474" cy="26.3158" r="2.36842" fill="#1BB934"/>
<circle cx="80.4999" cy="58.5" r="28.5" fill="#D8F1FD"/>
<path fill-rule="evenodd" clip-rule="evenodd" d="M98.896 120.706C98.7663 120.603 98.6175 120.527 98.4582 120.481C98.2989 120.436 98.1322 120.423 97.9677 120.442C97.8031 120.461 97.6439 120.513 97.4991 120.593C97.3543 120.674 97.2268 120.782 97.1238 120.912C97.0208 121.042 96.9444 121.191 96.8989 121.351C96.8534 121.51 96.8398 121.677 96.8587 121.841C96.8777 122.006 96.9288 122.165 97.0093 122.31C97.0898 122.455 97.198 122.582 97.3278 122.685C97.5899 122.893 97.9238 122.987 98.2562 122.949C98.5885 122.91 98.8921 122.741 99.1001 122.478C99.308 122.216 99.4034 121.882 99.3651 121.549C99.3268 121.217 99.1581 120.913 98.896 120.706Z" fill="#BFC7D2"/>
<path d="M22.7246 11.4067L23.383 11.9287C23.5576 12.0672 23.67 12.2694 23.6954 12.491C23.7208 12.7125 23.6572 12.9352 23.5186 13.1101C23.3799 13.285 23.1776 13.3977 22.9561 13.4235C22.7346 13.4492 22.512 13.3859 22.3374 13.2475L21.679 12.7255L21.1562 13.3849C21.0176 13.5598 20.8152 13.6725 20.5937 13.6983C20.3722 13.724 20.1497 13.6607 19.9751 13.5223C19.8005 13.3839 19.6881 13.1816 19.6627 12.9601C19.6372 12.7385 19.7009 12.5158 19.8395 12.3409L20.3623 11.6815L19.7039 11.1595C19.5293 11.0211 19.417 10.8189 19.3915 10.5973C19.3661 10.3758 19.4297 10.153 19.5684 9.97816C19.707 9.80328 19.9094 9.69056 20.1309 9.66479C20.3524 9.63902 20.5749 9.70232 20.7495 9.84076L21.4079 10.3628L21.9307 9.70337C22.0694 9.52849 22.2717 9.41576 22.4932 9.39C22.7147 9.36423 22.9373 9.42753 23.1119 9.56597C23.2865 9.70441 23.3989 9.90665 23.4243 10.1282C23.4497 10.3498 23.3861 10.5725 23.2474 10.7473L22.7246 11.4067Z" fill="#BFC7D2"/>
<path d="M11.7246 25.4067L12.383 25.9287C12.5576 26.0672 12.67 26.2694 12.6954 26.491C12.7208 26.7125 12.6572 26.9352 12.5186 27.1101C12.3799 27.285 12.1776 27.3977 11.9561 27.4235C11.7346 27.4492 11.512 27.3859 11.3374 27.2475L10.679 26.7255L10.1562 27.3849C10.0176 27.5598 9.81525 27.6725 9.59374 27.6983C9.37222 27.724 9.1497 27.6607 8.97509 27.5223C8.80048 27.3839 8.68809 27.1816 8.66267 26.9601C8.63725 26.7385 8.70087 26.5158 8.83952 26.3409C8.83952 26.3409 9.40029 26.008 9.36232 25.6815C9.32441 25.3556 8.70395 25.1595 8.70395 25.1595C8.52934 25.0211 8.41697 24.8189 8.39154 24.5973C8.36612 24.3758 8.42973 24.153 8.56838 23.9782C8.70704 23.8033 8.90938 23.6906 9.13089 23.6648C9.3524 23.639 9.57494 23.7023 9.74955 23.8408L10.4079 24.3628L10.9307 23.7034C11.0694 23.5285 11.2717 23.4158 11.4932 23.39C11.7147 23.3642 11.9373 23.4275 12.1119 23.566C12.2865 23.7044 12.3989 23.9066 12.4243 24.1282C12.4497 24.3498 12.3861 24.5725 12.2474 24.7473L11.7246 25.4067Z" fill="#BFC7D2"/>
<path d="M67 88.375C71.9725 88.375 76 92.4025 76 97.375V100.75H71.5H62.5H58V97.375C58 92.4025 62.0275 88.375 67 88.375Z" fill="#B4DD7F"/>
<path d="M91.75 88.375C96.7225 88.375 100.75 92.4025 100.75 97.375V100.75H96.25H87.25H82.75V97.375C82.75 92.4025 86.7775 88.375 91.75 88.375Z" fill="#B4DD7F"/>
<path d="M42.25 88.375C47.2225 88.375 51.25 92.4025 51.25 97.375V100.75H46.75H37.75H33.25V97.375C33.25 92.4025 37.2775 88.375 42.25 88.375Z" fill="#B4DD7F"/>
<path d="M42.25 88.375C45.3566 88.375 47.875 85.8566 47.875 82.75C47.875 79.6434 45.3566 77.125 42.25 77.125C39.1434 77.125 36.625 79.6434 36.625 82.75C36.625 85.8566 39.1434 88.375 42.25 88.375Z" fill="#F0D0B4"/>
<path d="M67 88.375C70.1066 88.375 72.625 85.8566 72.625 82.75C72.625 79.6434 70.1066 77.125 67 77.125C63.8934 77.125 61.375 79.6434 61.375 82.75C61.375 85.8566 63.8934 88.375 67 88.375Z" fill="#F0D0B4"/>
<path d="M91.75 88.375C94.8566 88.375 97.375 85.8566 97.375 82.75C97.375 79.6434 94.8566 77.125 91.75 77.125C88.6434 77.125 86.125 79.6434 86.125 82.75C86.125 85.8566 88.6434 88.375 91.75 88.375Z" fill="#F0D0B4"/>
<path d="M75.3025 60.6775C74.875 61.105 74.2675 61.375 73.615 61.375C72.985 61.375 72.3775 61.1275 71.9275 60.6775C72.3775 61.1275 72.625 61.735 72.625 62.365C72.625 63.0175 72.355 63.625 71.9275 64.0525C71.5 64.48 70.8925 64.75 70.24 64.75C69.61 64.75 69.0025 64.5025 68.5525 64.0525L67.5625 63.0625L67.5513 63.0512C67.9225 62.6237 68.125 62.0725 68.125 61.51C68.125 60.8575 67.855 60.25 67.4275 59.8225C67 59.395 66.3925 59.125 65.74 59.125C65.11 59.125 64.5025 59.3725 64.0525 59.8225C64.5025 59.3725 64.75 58.765 64.75 58.135C64.75 57.4825 64.48 56.875 64.0525 56.4475C63.625 56.02 63.0175 55.75 62.365 55.75C61.735 55.75 61.1275 55.9975 60.6775 56.4475C61.1275 55.9975 61.375 55.39 61.375 54.76C61.375 54.1075 61.105 53.5 60.6775 53.0725C60.25 52.645 59.6425 52.375 58.99 52.375C58.36 52.375 57.7525 52.6225 57.3025 53.0725C57.7525 52.6225 58 52.015 58 51.385C58 50.7325 57.73 50.125 57.3025 49.6975C56.875 49.27 56.2675 49 55.615 49C54.985 49 54.3775 49.2475 53.9275 49.6975L53.5 50.125L52.9262 49.5512C51.1262 47.7512 50.125 45.3325 50.125 42.8012C50.125 40.1575 51.1937 37.7725 52.9262 36.0512C54.6475 34.3187 57.0325 33.25 59.6762 33.25C60.9475 33.25 62.185 33.4975 63.3212 33.97C64.4687 34.4538 65.5262 35.1512 66.4262 36.0512L67 36.625L60.7112 42.9138C60.4187 43.2063 60.25 43.6113 60.25 44.0388C60.25 44.9163 60.9587 45.625 61.8362 45.625H66.0663C66.6625 45.625 67.2363 45.3887 67.6638 44.9612L69.25 43.375H70.5662C71.59 43.375 72.58 43.1725 73.5025 42.79L74.3125 42.8125L81.0625 49.5625L82.0525 50.5525C82.5025 51.0025 82.75 51.61 82.75 52.24C82.75 52.8925 82.48 53.5 82.0525 53.9275C81.625 54.355 81.0175 54.625 80.365 54.625C79.735 54.625 79.1275 54.3775 78.6775 53.9275C79.1275 54.3775 79.375 54.985 79.375 55.615C79.375 56.2675 79.105 56.875 78.6775 57.3025C78.25 57.73 77.6425 58 76.99 58C76.36 58 75.7525 57.7525 75.3025 57.3025C75.7525 57.7525 76 58.36 76 58.99C76 59.6425 75.73 60.25 75.3025 60.6775V60.6775Z" fill="#F0D0B4"/>
<path d="M73.5025 42.79C72.58 43.1725 71.59 43.375 70.5662 43.375H69.25L67.6638 44.9612C67.2363 45.3887 66.6625 45.625 66.0663 45.625H61.8362C60.9587 45.625 60.25 44.9163 60.25 44.0388C60.25 43.6113 60.4187 43.2063 60.7112 42.9138L67 36.625L67.5737 36.0512C68.4737 35.1512 69.5313 34.4538 70.6788 33.97C71.815 33.4975 73.0525 33.25 74.3237 33.25C76.9675 33.25 79.3525 34.3187 81.0737 36.0512C82.8062 37.7725 83.875 40.1575 83.875 42.8012C83.875 45.3325 82.8737 47.7512 81.0737 49.5512L81.0625 49.5625L74.3125 42.8125L73.5025 42.79Z" fill="#F0D0B4"/>
<path d="M67.4275 59.8225C67.855 60.25 68.125 60.8575 68.125 61.51C68.125 62.0725 67.9225 62.6237 67.5513 63.0512C67.5175 63.1075 67.4725 63.1525 67.4275 63.1975L67 63.625L66.5725 64.0525C66.1225 64.5025 65.515 64.75 64.885 64.75C64.2325 64.75 63.625 64.48 63.1975 64.0525C62.77 63.625 62.5 63.0175 62.5 62.365C62.5 61.735 62.7475 61.1275 63.1975 60.6775L64.0525 59.8225C64.5025 59.3725 65.11 59.125 65.74 59.125C66.3925 59.125 67 59.395 67.4275 59.8225V59.8225Z" fill="#F0D0B4"/>
<path d="M60.6775 53.0725C61.105 53.5 61.375 54.1075 61.375 54.76C61.375 55.39 61.1275 55.9975 60.6775 56.4475L59.8225 57.3025C59.3725 57.7525 58.765 58 58.135 58C57.4825 58 56.875 57.73 56.4475 57.3025C56.02 56.875 55.75 56.2675 55.75 55.615C55.75 54.985 55.9975 54.3775 56.4475 53.9275L57.3025 53.0725C57.7525 52.6225 58.36 52.375 58.99 52.375C59.6425 52.375 60.25 52.645 60.6775 53.0725Z" fill="#F0D0B4"/>
<path d="M64.0525 56.4475C64.48 56.875 64.75 57.4825 64.75 58.135C64.75 58.765 64.5025 59.3725 64.0525 59.8225L63.1975 60.6775C62.7475 61.1275 62.14 61.375 61.51 61.375C60.8575 61.375 60.25 61.105 59.8225 60.6775C59.395 60.25 59.125 59.6425 59.125 58.99C59.125 58.36 59.3725 57.7525 59.8225 57.3025L60.6775 56.4475C61.1275 55.9975 61.735 55.75 62.365 55.75C63.0175 55.75 63.625 56.02 64.0525 56.4475Z" fill="#F0D0B4"/>
<path d="M57.3025 49.6975C57.73 50.125 58 50.7325 58 51.385C58 52.015 57.7525 52.6225 57.3025 53.0725L56.4475 53.9275C55.9975 54.3775 55.39 54.625 54.76 54.625C54.1075 54.625 53.5 54.355 53.0725 53.9275C52.645 53.5 52.375 52.8925 52.375 52.24C52.375 51.61 52.6225 51.0025 53.0725 50.5525L53.5 50.125L53.9275 49.6975C54.3775 49.2475 54.985 49 55.615 49C56.2675 49 56.875 49.27 57.3025 49.6975V49.6975Z" fill="#F0D0B4"/>
<path d="M95.8292 88.1151C97.4481 86.881 98.5 84.9381 98.5 82.75C98.5 79.4121 96.0621 76.6401 92.875 76.1013V74.875C92.875 71.7734 90.3516 69.25 87.25 69.25H68.125V65.1505C68.7325 65.6129 69.4626 65.875 70.2389 65.875C72.1334 65.875 73.6712 64.3653 73.7376 62.4876C75.5736 62.4224 77.0474 60.9486 77.1126 59.1126C78.9486 59.0474 80.4224 57.5736 80.4876 55.7376C82.3652 55.6713 83.875 54.1322 83.875 52.2389C83.875 51.3006 83.5094 50.4186 82.8467 49.756L82.6127 49.522C84.1585 47.6253 85 45.2762 85 42.7956C85 36.9119 80.2131 32.125 74.3294 32.125C71.5765 32.125 68.9901 33.169 67 35.0545C65.0099 33.169 62.4235 32.125 59.6706 32.125C53.7869 32.125 49 36.9119 49 42.7956C49 45.5597 50.0519 48.1574 51.9531 50.1509C51.5043 50.7539 51.25 51.4739 51.25 52.2389C51.25 54.1334 52.7597 55.6713 54.6374 55.7376C54.7026 57.5736 56.1764 59.0474 58.0124 59.1126C58.0776 60.9486 59.5514 62.4224 61.3874 62.4876C61.4537 64.3653 62.9928 65.875 64.8861 65.875C65.2281 65.875 65.5566 65.8109 65.875 65.7175V69.25H46.75C43.6484 69.25 41.125 71.7734 41.125 74.875V76.1013C37.9379 76.6401 35.5 79.4121 35.5 82.75C35.5 84.9381 36.5519 86.881 38.1708 88.1151C34.6157 89.6879 32.125 93.244 32.125 97.375V101.875H52.375V97.375C52.375 93.244 49.8843 89.6879 46.3293 88.1151C47.9481 86.881 49 84.9381 49 82.75C49 79.4121 46.5621 76.6401 43.375 76.1013V74.875C43.375 73.0142 44.8892 71.5 46.75 71.5H65.875V76.1013C62.6879 76.639 60.25 79.411 60.25 82.75C60.25 84.9381 61.3019 86.881 62.9208 88.1151C59.3658 89.6879 56.875 93.244 56.875 97.375V101.875H77.125V97.375C77.125 93.244 74.6342 89.6879 71.0792 88.1151C72.6981 86.881 73.75 84.9381 73.75 82.75C73.75 79.4121 71.3121 76.6401 68.125 76.1013V71.5H87.25C89.1108 71.5 90.625 73.0142 90.625 74.875V76.1013C87.4379 76.639 85 79.411 85 82.75C85 84.9381 86.0519 86.881 87.6708 88.1151C84.1158 89.6879 81.625 93.244 81.625 97.375V101.875H101.875V97.375C101.875 93.244 99.3842 89.6879 95.8292 88.1151ZM74.3294 34.375C78.9722 34.375 82.75 38.1527 82.75 42.7956C82.75 44.6732 82.1324 46.4519 81.0063 47.9144L75.8335 42.7416C76.1688 42.4896 76.4939 42.2219 76.7965 41.9204L75.2057 40.3296C73.966 41.5683 72.3201 42.25 70.5674 42.25H68.7842L66.8639 44.1704C66.6512 44.383 66.3677 44.5 66.0674 44.5H61.8407C61.5842 44.5 61.375 44.2908 61.375 44.0343C61.375 43.9116 61.4245 43.7913 61.5111 43.7046L68.3748 36.841C69.9655 35.2514 72.0794 34.375 74.3294 34.375V34.375ZM59.6706 34.375C61.8171 34.375 63.8354 35.1805 65.398 36.6351L59.9192 42.1139C59.4074 42.6257 59.125 43.3086 59.125 44.0343C59.125 45.5316 60.3434 46.75 61.8407 46.75H66.0674C66.9685 46.75 67.8167 46.399 68.4546 45.7611L69.7158 44.5H70.5674C71.6913 44.5 72.7803 44.2851 73.795 43.8858L81.256 51.3468C81.4934 51.5853 81.625 51.9014 81.625 52.2389C81.625 52.9341 81.0591 53.5 80.3639 53.5C80.0264 53.5 79.7102 53.3684 79.4717 53.131L76.7954 50.4546L75.2046 52.0454L77.881 54.7218C78.1184 54.9603 78.25 55.2764 78.25 55.6139C78.25 56.3091 77.6841 56.875 76.9889 56.875C76.6514 56.875 76.3352 56.7434 76.0967 56.506L73.4204 53.8296L71.8296 55.4204L74.506 58.0968C74.7434 58.3353 74.875 58.6514 74.875 58.9889C74.875 59.6841 74.3091 60.25 73.6139 60.25C73.2764 60.25 72.9602 60.1184 72.7217 59.881L70.0454 57.2046L68.4546 58.7954L71.131 61.4718C71.3684 61.7103 71.5 62.0264 71.5 62.3639C71.5 63.0591 70.9341 63.625 70.2389 63.625C69.9014 63.625 69.5852 63.4934 69.3467 63.256L68.971 62.8802C69.1521 62.4527 69.25 61.9904 69.25 61.5111C69.25 59.6166 67.7403 58.0787 65.8626 58.0124C65.7974 56.1764 64.3236 54.7026 62.4876 54.6374C62.4224 52.8014 60.9486 51.3276 59.1126 51.2624C59.0463 49.3847 57.5072 47.875 55.6139 47.875C54.8567 47.875 54.1435 48.1225 53.5461 48.5624C52.0679 46.9941 51.25 44.9601 51.25 42.7956C51.25 38.1527 55.0278 34.375 59.6706 34.375V34.375ZM53.5 52.2389C53.5 51.9014 53.6316 51.5853 53.869 51.3468L54.7218 50.494C54.9603 50.2566 55.2764 50.125 55.6139 50.125C56.3091 50.125 56.875 50.6909 56.875 51.3861C56.875 51.7236 56.7434 52.0397 56.506 52.2782L55.6532 53.131C55.4147 53.3684 55.0986 53.5 54.7611 53.5C54.0659 53.5 53.5 52.9341 53.5 52.2389ZM56.875 55.6139C56.875 55.2764 57.0066 54.9603 57.244 54.7218L58.0968 53.869C58.3353 53.6316 58.6514 53.5 58.9889 53.5C59.6841 53.5 60.25 54.0659 60.25 54.7611C60.25 55.0986 60.1184 55.4147 59.881 55.6532L59.0282 56.506C58.7897 56.7434 58.4736 56.875 58.1361 56.875C57.4409 56.875 56.875 56.3091 56.875 55.6139ZM60.25 58.9889C60.25 58.6514 60.3816 58.3353 60.619 58.0968L61.4718 57.244C61.7103 57.0066 62.0264 56.875 62.3639 56.875C63.0591 56.875 63.625 57.4409 63.625 58.1361C63.625 58.4736 63.4934 58.7897 63.256 59.0282L62.4032 59.881C62.1647 60.1184 61.8486 60.25 61.5111 60.25C60.8159 60.25 60.25 59.6841 60.25 58.9889ZM64.8861 63.625C64.1909 63.625 63.625 63.0591 63.625 62.3639C63.625 62.0264 63.7566 61.7103 63.994 61.4718L64.8468 60.619C65.0853 60.3816 65.4014 60.25 65.7389 60.25C66.4341 60.25 67 60.8159 67 61.5111C67 61.8486 66.8684 62.1647 66.631 62.4032L65.7782 63.256C65.5397 63.4934 65.2236 63.625 64.8861 63.625ZM50.125 97.375V99.625H47.875V95.125H45.625V99.625H38.875V95.125H36.625V99.625H34.375V97.375C34.375 93.0325 37.9075 89.5 42.25 89.5C46.5925 89.5 50.125 93.0325 50.125 97.375ZM46.75 82.75C46.75 85.2318 44.7318 87.25 42.25 87.25C39.7682 87.25 37.75 85.2318 37.75 82.75C37.75 80.2682 39.7682 78.25 42.25 78.25C44.7318 78.25 46.75 80.2682 46.75 82.75ZM74.875 97.375V99.625H72.625V95.125H70.375V99.625H63.625V95.125H61.375V99.625H59.125V97.375C59.125 93.0325 62.6575 89.5 67 89.5C71.3425 89.5 74.875 93.0325 74.875 97.375ZM71.5 82.75C71.5 85.2318 69.4818 87.25 67 87.25C64.5182 87.25 62.5 85.2318 62.5 82.75C62.5 80.2682 64.5182 78.25 67 78.25C69.4818 78.25 71.5 80.2682 71.5 82.75ZM87.25 82.75C87.25 80.2682 89.2682 78.25 91.75 78.25C94.2318 78.25 96.25 80.2682 96.25 82.75C96.25 85.2318 94.2318 87.25 91.75 87.25C89.2682 87.25 87.25 85.2318 87.25 82.75ZM99.625 99.625H97.375V95.125H95.125V99.625H88.375V95.125H86.125V99.625H83.875V97.375C83.875 93.0325 87.4075 89.5 91.75 89.5C96.0925 89.5 99.625 93.0325 99.625 97.375V99.625Z" fill="black"/>
<path d="M73.75 73.75H76V76H73.75V73.75Z" fill="black"/>
<path d="M78.25 73.75H80.5V76H78.25V73.75Z" fill="black"/>
<path d="M82.75 73.75H85V76H82.75V73.75Z" fill="black"/>
<path d="M49 73.75H51.25V76H49V73.75Z" fill="black"/>
<path d="M53.5 73.75H55.75V76H53.5V73.75Z" fill="black"/>
<path d="M58 73.75H60.25V76H58V73.75Z" fill="black"/>
</svg>
