<svg width="130" height="130" viewBox="0 0 130 130" fill="none" xmlns="http://www.w3.org/2000/svg">
<circle cx="66.4211" cy="66.4211" r="58.4211" fill="#E6EDB7"/>
<circle cx="113.947" cy="11.3158" r="6.31579" fill="#F1BC19"/>
<circle cx="11.3158" cy="91.8421" r="6.31579" fill="#F1BC19"/>
<circle r="3.15789" transform="matrix(1 0 0 -1 14.4737 69.7369)" fill="white"/>
<circle r="2.36842" transform="matrix(1 0 0 -1 108.421 40.5264)" fill="white"/>
<circle cx="120.263" cy="101.316" r="3.15789" fill="#F1BC19"/>
<circle cx="104.474" cy="8.15793" r="1.57895" fill="#F1BC19"/>
<circle cx="119.474" cy="26.3158" r="2.36842" fill="#88AE45"/>
<path d="M36.3698 72.966C35.8934 72.8072 34.1692 72.2401 33.7608 71.5594C33.4659 71.8771 32.7626 72.1266 31.9685 71.9451C31.8551 72.4442 31.5602 73.3517 32.1274 73.4652C32.7853 73.6013 34.0104 73.624 34.8725 73.6693C35.7119 73.7147 36.6647 73.7828 36.8689 73.4425C36.9824 73.2383 36.6647 73.0795 36.3698 72.966Z" fill="#262227"/>
<path d="M32.2408 73.4879C31.719 73.3064 29.7679 72.6712 29.3142 71.9225C28.9739 72.2855 28.2025 72.5578 27.2951 72.3536C27.1589 72.8981 26.8413 73.919 27.4766 74.0551C28.2252 74.2139 29.5864 74.2366 30.5393 74.282C31.4922 74.3274 32.5357 74.3954 32.7853 74.0097C32.9214 73.7829 32.5811 73.6014 32.2408 73.4879Z" fill="#262227"/>
<path d="M37.4815 47.035C38.0033 44.1764 30.0628 40.8641 28.7016 45.5603C27.4765 49.7347 27.5673 56.9492 27.2043 61.3731C26.9547 64.5493 26.9774 71.1739 27.0455 72.5124C28.1345 72.9208 29.3142 72.5578 29.6318 72.2402C29.6999 71.5142 30.0402 67.612 30.6981 62.8024C31.2426 58.9229 31.9005 55.3611 32.082 54.5671C31.9459 55.8602 31.8097 59.3767 31.6283 63.052C31.5148 65.3887 31.6283 71.0151 31.7417 72.0814C32.5811 72.4444 33.965 72.2629 34.1692 71.8772C34.1692 70.516 34.6456 65.6383 34.9632 62.5529C35.3716 58.8549 36.2791 53.4781 37.4815 47.035Z" fill="#8482FF"/>
<path d="M36.7101 51.3001C36.9597 49.9389 37.2092 48.5096 37.4815 47.035C38.0033 44.1764 30.0629 40.8641 28.7016 45.5603C28.2479 47.1257 27.9757 49.1222 27.7942 51.2321C29.1327 50.7103 32.9214 49.9162 36.7101 51.3001Z" fill="#6E6BD1"/>
<path d="M39.2964 32.9236C38.2528 32.175 35.0994 31.6985 33.6247 31.6985C32.5357 31.6985 29.4276 32.0162 29.0193 32.1296C28.7697 32.1977 29.2915 35.0789 29.2915 35.0789H32.445C32.445 35.0789 29.1781 41.2951 27.7942 47.6475C27.7942 47.6475 33.0122 48.6003 34.691 49.6439L35.3716 48.1693L35.2128 49.8481C35.2128 49.8481 36.5286 50.4153 37.0051 50.9598C37.0051 50.9598 38.6612 43.1555 39.5233 41.159C39.9544 41.8623 40.8845 42.0665 41.5651 41.6127C42.2457 41.159 42.5634 40.2969 42.3138 39.5029C42.0189 38.55 41.7239 37.3249 41.6559 36.5762C41.4517 34.7386 40.5669 33.8084 39.2964 32.9236Z" fill="url(#paint0_linear_1667_1512)"/>
<path d="M34.5322 35.0788C34.5322 35.0788 34.691 35.1242 34.8271 34.7385C35.0086 34.3075 33.9877 34.1713 34.5322 35.0788Z" fill="url(#paint1_linear_1667_1512)"/>
<path d="M40.0224 34.6025C40.2493 34.5117 40.4308 35.2831 40.34 35.6688C40.7711 35.1016 40.8165 33.7177 40.5669 33.5135C40.3174 33.3093 39.7956 34.6932 40.0224 34.6025Z" fill="#8482FF"/>
<path d="M43.0625 39.9339C42.9491 39.707 42.6314 39.2986 42.4953 39.0264C42.3592 38.7542 42.3138 38.5727 42.1777 38.5273C42.0416 38.5046 41.9055 38.6407 41.9508 38.913C41.9962 39.2079 42.3138 39.8204 42.3138 39.8204C42.3138 39.8204 43.1079 40.1834 43.0625 39.9339Z" fill="url(#paint2_linear_1667_1512)"/>
<path d="M36.5513 46.944L41.0206 42.1116C41.1114 42.0209 41.2021 41.9075 41.3156 41.8167C42.4046 40.8866 42.518 39.2531 41.5878 38.1641L39.8409 36.1223C39.1376 35.3056 38.0487 34.8518 36.9597 35.0106C35.8253 35.1694 34.8952 35.8954 34.4641 36.9617L33.534 39.2077L31.2199 40.7731C30.9476 40.9546 30.8796 41.3403 31.1064 41.6125L35.6892 46.944C35.9388 47.1935 36.3244 47.1935 36.5513 46.944ZM36.3925 37.2566L34.8725 38.3002L35.2808 37.2793C35.5758 36.5307 36.2337 36.0089 37.0277 35.8954C37.8218 35.7593 38.5931 36.0542 39.1149 36.6668L40.9072 38.754C41.5198 39.4573 41.4517 40.5462 40.7257 41.1588L40.5669 41.2949L37.2092 37.3928C37.0277 37.1432 36.6648 37.0751 36.3925 37.2566Z" fill="#75C4FB"/>
<path d="M39.0469 35.4645C38.4343 35.0788 37.6857 34.8973 36.9597 35.0108C36.0749 35.1242 35.3262 35.6006 34.8271 36.2812C35.1901 36.3947 35.3716 36.7123 35.3716 37.0526C35.7119 36.4173 36.3018 35.9863 37.0051 35.8729C37.6857 35.7594 38.389 35.9636 38.8881 36.4173C38.9108 36.372 38.8654 35.8502 39.0469 35.4645Z" fill="#5AABE0"/>
<path d="M34.8725 38.3004L35.054 37.824C34.9178 37.9147 34.2145 38.0055 34.0784 37.8693L33.5339 39.2079L34.8725 38.3004Z" fill="#5AABE0"/>
<path d="M40.272 42.9285C40.5896 43.7226 41.2929 44.3124 42.1324 44.4939L46.1026 45.3787L46.0345 46.0366L37.1639 46.2408L40.272 42.9285Z" fill="#75C4FB"/>
<path d="M41.1114 44.0175C40.7484 43.7453 40.4535 43.3596 40.272 42.9285L37.1866 46.2635L39.5914 46.1954C39.9317 45.356 40.3854 44.4712 41.1114 44.0175Z" fill="#5AABE0"/>
<path d="M46.1025 45.4015L46.6697 45.4922L48.0536 44.6755L47.8041 47.0349L46.6243 46.0594H46.0572L46.1025 45.4015Z" fill="url(#paint3_linear_1667_1512)"/>
<path d="M48.0536 44.6755L48.2578 44.7208L48.0082 47.0576L47.804 47.0349L48.0536 44.6755Z" fill="url(#paint4_linear_1667_1512)"/>
<path d="M48.2578 44.7208L48.0309 47.0576C48.0309 47.0576 48.4166 46.5358 48.4846 45.9005C48.53 45.288 48.2578 44.7208 48.2578 44.7208Z" fill="url(#paint5_linear_1667_1512)"/>
<path d="M42.9491 39.7978C42.6314 39.6163 41.9962 39.3894 41.5425 39.2533C41.0887 39.1398 41.0434 39.5255 41.2022 39.6616C40.9299 39.6616 40.9072 39.9339 40.9299 40.0927C40.7938 40.1154 40.5896 40.2742 40.703 40.5464C40.5669 40.5464 40.3401 40.6372 40.4535 40.9548C40.5669 41.2724 41.7013 41.8623 41.8828 41.8623C42.0416 41.8623 42.6314 41.5673 42.9037 41.0682C43.0852 40.8187 43.2894 40.0019 42.9491 39.7978Z" fill="#FFD2B3"/>
<path d="M39.546 31.9027C40.2947 32.606 38.7066 34.2848 38.0713 33.9445C37.731 33.763 37.8218 32.0842 38.5478 31.7212C38.9561 31.5397 39.3645 31.7212 39.546 31.9027Z" fill="#6E6BD1"/>
<path d="M41.5879 31.9481L39.9317 30.3373C39.9317 30.3373 39.2965 32.3111 38.2302 32.4019C37.7764 33.4455 38.9562 34.1034 39.3192 35.8049C39.9544 34.9882 40.635 32.969 41.5879 31.9481Z" fill="#FFD2B3"/>
<path d="M39.9998 34.6025C40.4535 33.695 40.9526 32.606 41.5878 31.9481L39.9317 30.3373C39.9317 30.3373 39.5233 31.6305 38.7747 32.175C38.7747 32.8556 39.1376 34.3983 39.9998 34.6025Z" fill="#FFD2B3"/>
<path d="M38.5477 31.7213C38.5477 31.7213 37.9125 31.9254 37.4815 32.3338C37.2319 32.8783 36.937 34.3529 37.2092 34.8747C37.2092 34.8747 38.1394 33.3774 38.5024 33.8765C38.2301 33.3093 38.0486 32.0616 38.5477 31.7213Z" fill="#8482FF"/>
<path d="M39.7275 30.5416C39.9997 29.8836 40.1358 29.4753 40.5442 29.203C41.2021 28.7493 42.1096 29.135 42.5406 29.5887C42.9944 30.0424 43.4481 30.8819 42.155 32.0616C42.0415 32.1977 39.4552 31.1995 39.7275 30.5416Z" fill="#F84A3E"/>
<path d="M39.8863 30.9271C39.8863 30.9271 39.9997 30.5641 39.7956 30.4507C39.5687 30.3373 39.3191 30.8818 39.3872 31.154C39.4553 31.4036 39.5687 31.4489 39.5914 31.4036C39.5914 31.4036 39.3645 31.9934 39.4099 32.5379C39.4553 33.0824 39.7956 33.6496 40.2039 33.7176C40.7484 33.8311 41.9281 32.5152 42.4272 31.7439C42.4726 31.6985 42.6314 31.2674 41.9735 30.9271C40.998 30.428 40.9299 30.0423 40.9299 29.8608C40.8845 30.0196 40.7711 30.2692 40.6577 30.36C40.4989 30.4734 40.2947 30.4053 40.1812 30.5414C39.9997 30.791 39.9317 30.8591 39.8863 30.9271Z" fill="#FFD2B3"/>
<path d="M35.4396 33.3773C35.9161 33.5361 37.5268 34.0125 37.8444 34.2621C38.1621 34.5116 38.4343 35.9409 38.457 36.1678C38.4797 36.3947 38.1167 36.4854 38.0033 36.372C37.8898 36.2585 37.7537 36.1678 37.7537 36.1678C37.7537 36.1678 36.5967 36.44 36.3471 36.4173C36.0975 36.3947 35.848 36.1905 35.7119 35.7594C35.5984 35.3284 34.8951 35.3057 34.7136 34.8746C34.5321 34.4663 32.2181 34.0579 32.2181 34.0579L33.5793 32.8101C33.5566 32.8328 34.9405 33.2185 35.4396 33.3773Z" fill="#FFD2B3"/>
<path d="M35.6439 33.627C35.6892 33.5816 35.7573 33.5362 35.8027 33.4909C35.6438 33.4455 35.5077 33.4001 35.417 33.3774C34.9406 33.2186 33.5567 32.8329 33.5567 32.8329L32.1954 34.0807C32.1954 34.0807 34.4868 34.4664 34.691 34.8975C34.7591 35.0563 34.9179 35.1697 35.0767 35.2604C35.054 34.6706 35.1901 34.1034 35.6439 33.627Z" fill="#FFD2B3"/>
<path d="M29.2461 32.0842C30.4939 31.9935 35.5531 32.969 35.3489 33.3547C35.3489 33.3547 34.26 34.4664 34.5322 35.1016C34.5322 35.1016 29.2461 35.3058 28.679 35.1016C28.1118 34.8974 27.2724 34.2395 27.5446 33.2413C27.7261 32.5833 28.5428 32.1296 29.2461 32.0842Z" fill="url(#paint6_linear_1667_1512)"/>
<path d="M56.2662 50.4153C54.9957 51.2094 54.0202 51.4589 53.2942 51.4136C52.9312 51.3909 52.6136 51.2774 52.3413 51.1186C52.0691 50.9598 51.8649 50.7556 51.6834 50.5061C51.3204 50.007 51.1162 49.4171 50.9801 48.8499C50.9121 48.5777 50.8667 48.2828 50.8667 48.0559C50.844 47.829 50.844 47.6022 50.8894 47.466C51.5246 47.6702 52.2506 46.6039 52.8404 45.3561C53.1354 44.7209 53.3849 44.063 53.5891 43.5185C53.7933 42.974 53.9975 42.5657 54.2243 42.4749C54.3378 42.4295 54.5193 42.4295 54.8142 42.4522C54.9503 42.4749 55.1318 42.4976 55.3133 42.543C55.4948 42.5883 55.699 42.6564 55.9486 42.7471C56.856 43.0875 58.1265 43.7681 59.4877 44.9705C60.8716 46.1729 62.3916 47.8971 63.8436 50.3927C64.2066 51.0279 64.5469 51.6858 64.8872 52.4118C65.2275 53.1378 65.5451 53.9091 65.8628 54.7712C66.1577 55.6333 66.4526 56.5408 66.6568 57.5844C66.8837 58.628 67.0652 59.7397 67.0652 61.2143C67.0652 61.3051 67.0652 61.3958 67.0652 61.4639V61.6L67.0425 61.7361C67.0198 61.9176 66.9744 62.0764 66.929 62.2352C66.8837 62.394 66.8156 62.5529 66.7475 62.7117C66.6795 62.8705 66.5887 62.9839 66.5207 63.12C66.1804 63.5511 65.772 63.6872 65.3863 63.6191C65.1595 63.5738 64.978 63.4603 64.7965 63.3015C64.615 63.1427 64.5015 62.9612 64.3427 62.7117C64.2747 62.5982 64.2066 62.4621 64.1612 62.3487C64.0932 62.2352 64.0478 62.0991 64.0024 61.9857C63.957 61.8496 63.9117 61.7361 63.8663 61.6C63.8209 61.4639 63.7982 61.3278 63.7755 61.1916C63.6394 60.443 63.4352 59.785 63.1857 59.1725C63.0723 58.8549 62.9361 58.5826 62.8227 58.2877C62.6866 58.0155 62.5731 57.7432 62.437 57.4937C61.9152 56.4728 61.3934 55.6106 60.8716 54.8847C59.8507 53.4327 58.9659 52.4799 58.2626 51.8219C58.0811 51.6631 57.9223 51.527 57.7862 51.3909C57.6274 51.2548 57.4913 51.164 57.3778 51.0506C57.1283 50.8464 56.9241 50.733 56.7653 50.6422C56.4023 50.438 56.2662 50.4153 56.2662 50.4153Z" fill="#008478"/>
<path d="M62.5278 48.4417C63.0042 49.0996 63.4806 49.8482 63.9343 50.665C64.3881 51.4817 64.8418 52.3892 65.2729 53.3874C65.6812 54.3856 66.0896 55.4973 66.4072 56.7451C66.498 57.0627 66.566 57.3803 66.6341 57.7206C66.6568 57.9021 66.7022 58.0609 66.7248 58.2424C66.7475 58.3332 66.7475 58.4239 66.7702 58.5147C66.7929 58.6054 66.7929 58.6961 66.8156 58.7869C66.929 59.5129 67.0198 60.3069 66.9971 61.2598C66.9971 61.3505 66.9971 61.4413 66.9971 61.5093V61.6455L66.9744 61.7816C66.9517 61.9631 66.9063 62.1219 66.861 62.2807C66.8156 62.4395 66.7475 62.5983 66.6795 62.7571C66.6114 62.9159 66.5207 63.0294 66.4526 63.1655C66.1123 63.5965 65.7039 63.7327 65.3182 63.6646C65.0914 63.6192 64.9099 63.5058 64.7284 63.347C64.5469 63.1882 64.4335 63.0067 64.2747 62.7571C64.2066 62.6437 64.1385 62.5076 64.0932 62.3941C64.0251 62.2807 63.9797 62.1446 63.9343 62.0311C63.889 61.895 63.8436 61.7816 63.7982 61.6455C63.7528 61.5093 63.7302 61.3732 63.7075 61.2371C63.5487 60.3523 63.2764 59.6036 63.0042 58.9003C62.7319 58.197 62.4143 57.5845 62.1194 57.0173C61.5068 55.883 60.8943 54.9755 60.3044 54.2268C59.7373 53.4782 59.2155 52.8883 58.7617 52.4119C58.308 51.9354 57.8996 51.5951 57.582 51.3229C59.1701 50.2112 60.8035 49.2584 62.5278 48.4417Z" fill="#009E8F"/>
<path d="M54.7689 46.241L55.4268 45.447C55.8578 44.9479 56.5158 44.7437 57.1964 44.8571C57.8997 44.9479 58.6256 45.3789 59.1474 46.0368C59.6239 46.6267 59.6466 47.2846 59.2382 47.761C59.2382 47.761 59.0567 47.9652 58.8071 48.1467C58.5576 48.3282 58.2173 48.5097 57.8997 48.4643C57.2191 48.3963 56.6292 48.1694 56.1074 47.7837C55.5856 47.4207 55.1545 46.8989 54.7689 46.241Z" fill="#00695F"/>
<path d="M50.5264 47.4892C51.3658 45.7877 52.9312 42.6569 54.2471 42.4527C54.0202 42.5208 53.7933 42.8611 53.816 43.4282C53.8387 43.9954 54.1563 44.7214 54.905 45.7196C55.5629 46.5817 56.0847 47.1489 56.5838 47.5119C57.0829 47.8749 57.4913 48.0564 57.877 48.1017C58.6256 48.2152 59.1474 47.8522 59.2609 47.7614C58.9433 48.1925 56.9922 49.8486 55.2453 51.2325C54.5193 51.8224 53.816 52.2308 53.1127 52.2761C52.4094 52.3215 51.7515 51.9812 51.0255 51.1191C50.481 50.4612 50.2768 49.7806 50.2315 49.1453C50.2088 48.8277 50.2315 48.5101 50.2768 48.2379C50.3676 47.9429 50.4357 47.6934 50.5264 47.4892Z" fill="#009E8F"/>
<path d="M63.5487 53.4781C64.0024 54.4309 64.5015 55.4291 64.978 56.4501C65.4544 57.4483 65.9081 58.4465 66.2711 59.3767C66.6114 60.2841 66.9064 61.1009 67.0652 61.7134C67.0878 61.7815 67.1105 61.8722 67.1332 61.9403C67.1559 62.0084 67.1786 62.0764 67.1786 62.1218C67.2013 62.2352 67.2467 62.3487 67.2693 62.4394C67.3147 62.6209 67.3601 62.7117 67.3828 62.7117C67.655 61.3277 67.7004 59.9212 67.6096 58.5146C67.4962 57.108 67.2693 55.7241 66.9064 54.3629C66.2031 51.6404 65.0687 49.0314 63.5487 46.6493C62.9815 47.0123 62.4824 47.8744 62.3916 49.0087C62.369 49.3037 62.369 49.5986 62.3916 49.9162C62.4143 50.2338 62.4597 50.5968 62.5731 50.9598C62.6639 51.3228 62.7773 51.7312 62.9361 52.1395C63.0269 52.3437 63.0949 52.5706 63.1857 52.7975C63.3445 53.0016 63.4579 53.2512 63.5487 53.4781Z" fill="#009E8F"/>
<path d="M69.2205 51.595C69.5154 52.8654 69.6288 54.272 69.5835 55.5879C69.5381 56.9264 69.3339 58.1969 69.039 59.2632C68.744 60.3521 68.381 61.2142 68.0407 61.8041C67.9954 61.8722 67.9727 61.9402 67.9273 62.0083C67.8819 62.0763 67.8366 62.1217 67.8139 62.1898C67.7458 62.3032 67.6777 62.394 67.6097 62.462C67.4963 62.5981 67.4282 62.6889 67.4055 62.6662C67.6777 61.2823 67.7231 59.8757 67.6324 58.4691C67.5189 57.0625 67.2921 55.6786 66.9291 54.3174C66.2258 51.595 65.0914 48.986 63.5714 46.6038C64.1386 46.2409 65.1141 46.1274 66.2485 46.808C66.5207 46.9668 66.8156 47.1937 67.0879 47.466C67.3828 47.7382 67.6324 48.0785 67.9046 48.4642C68.1769 48.8499 68.4037 49.3036 68.6533 49.8254C68.7667 50.0749 68.8575 50.3699 68.9709 50.6648C69.0617 50.9597 69.1524 51.2774 69.2205 51.595Z" fill="#117774"/>
<path d="M80.337 55.1794C79.2481 56.3592 78.091 57.6296 77.002 58.9908C75.9131 60.3294 74.8922 61.736 74.0754 63.0291C73.236 64.3223 72.6008 65.5247 72.1924 66.3868C71.9882 66.8178 71.8521 67.1581 71.7614 67.4304C71.716 67.5665 71.6933 67.6573 71.6933 67.7253C71.6933 67.7934 71.716 67.7934 71.6933 67.7934C71.6252 67.7934 71.5799 67.7026 71.5572 67.6346C71.5345 67.5665 71.5118 67.4984 71.5118 67.4304C71.4891 67.2943 71.4891 67.1581 71.4664 67.022C71.4664 66.7498 71.4664 66.4548 71.4891 66.1826C71.5345 65.6154 71.6026 65.0709 71.6933 64.5265C71.8748 63.4148 72.147 62.3258 72.4873 61.2595C73.1453 59.127 74.0527 57.0625 75.1871 55.1114C77.4331 51.2319 80.6093 47.8969 84.3753 45.4694C84.9198 46.3088 84.9879 47.7381 84.398 49.3716C84.1031 50.1883 83.6266 51.0731 82.9687 52.0033C82.3108 52.9561 81.4487 53.977 80.337 55.1794Z" fill="#009E8F"/>
<path d="M73.2814 50.0296C72.1471 51.89 71.3077 53.9999 70.8085 56.0871C70.2867 58.1743 70.1052 60.2388 70.1506 62.0083C70.196 63.7779 70.4455 65.2753 70.7632 66.3189C70.922 66.8407 71.1035 67.249 71.2623 67.4986C71.353 67.6347 71.4211 67.7028 71.5118 67.7708C71.6026 67.8162 71.6706 67.8162 71.6933 67.7935C71.6253 67.7935 71.5799 67.7028 71.5572 67.6347C71.5345 67.5667 71.5118 67.4986 71.5118 67.4305C71.4891 67.2944 71.4891 67.1583 71.4665 67.0222C71.4665 66.7499 71.4665 66.455 71.4891 66.1827C71.5345 65.6156 71.6026 65.0711 71.6933 64.5266C71.8748 63.4149 72.1471 62.326 72.4874 61.2597C73.1453 59.1271 74.0528 57.0626 75.1871 55.1115C77.4331 51.232 80.6093 47.8971 84.3753 45.4696C84.1031 45.0612 83.6494 44.6755 82.9914 44.426C82.3335 44.1764 81.4941 44.0857 80.4732 44.2898C79.4523 44.4713 78.2725 44.9478 77.0021 45.8779C75.7543 46.7854 74.4384 48.1466 73.2814 50.0296Z" fill="#117774"/>
<path d="M74.257 55.361C74.257 55.3156 74.2116 55.2476 74.1435 55.2249C74.0755 55.1795 73.962 55.1568 73.894 55.2022C73.2814 55.4064 72.7142 55.7694 72.3286 56.2004C72.2832 56.2458 72.2378 56.2912 72.2151 56.3366L72.4193 54.635C72.9184 54.4308 73.3722 54.1586 73.7352 53.841C74.0981 53.5007 74.3704 53.115 74.5973 52.7066C74.5973 52.684 74.6199 52.6613 74.6199 52.6386C74.6199 52.5705 74.5973 52.5025 74.5292 52.4571C74.4611 52.4117 74.3704 52.389 74.2796 52.4117C73.7125 52.5705 73.1453 52.8428 72.7142 53.2511L72.6462 53.3192C72.7142 52.752 72.8504 52.2075 72.9638 51.663C73.4629 51.5042 73.8713 51.2774 74.257 50.9824C74.6426 50.6875 74.9376 50.3472 75.1644 49.9615C75.1644 49.9388 75.1871 49.9388 75.1871 49.9161C75.2098 49.8481 75.1871 49.78 75.1191 49.712C75.051 49.6666 74.9603 49.6439 74.8922 49.6439C74.325 49.7347 73.7805 49.9842 73.3495 50.3472L73.2814 50.4153C73.4402 49.8481 73.5537 49.2809 73.7125 48.7137C74.1889 48.6003 74.6199 48.4188 75.0056 48.1919C75.414 47.9197 75.7089 47.5794 75.9812 47.2164V47.1937C76.0265 47.1257 76.0039 47.0349 75.9358 46.9668C75.8677 46.9215 75.7997 46.8761 75.7089 46.8988C75.414 46.9442 75.1191 47.0122 74.8695 47.103C74.6199 47.1937 74.3931 47.3298 74.1889 47.466C74.1435 47.4886 74.0981 47.534 74.0755 47.5567C74.1662 47.2618 74.257 46.9668 74.3704 46.6719L74.688 45.7871C75.1417 45.7191 75.5501 45.5603 75.9585 45.3107C76.1627 45.1746 76.3442 45.0611 76.503 44.9023C76.571 44.8343 76.6618 44.7435 76.7298 44.6528C76.7979 44.562 76.866 44.4713 76.934 44.3805C76.9794 44.3125 76.9794 44.199 76.9113 44.131C76.866 44.0856 76.7752 44.0402 76.6845 44.0629C76.208 44.131 75.7089 44.2898 75.2098 44.6074C75.1644 44.6301 75.1417 44.6528 75.0964 44.6755C75.0964 44.6755 75.5047 43.5865 75.9358 42.5202C76.4122 41.4539 76.866 40.3876 76.8206 40.3649C76.7525 40.3423 76.1627 41.3405 75.5955 42.3614C75.3232 42.8832 75.0737 43.405 74.8922 43.8134C74.7107 44.2217 74.5746 44.4713 74.5746 44.4713C74.5746 44.4259 74.5519 44.3805 74.5519 44.3578C74.4385 43.7907 74.2343 43.2916 73.9393 42.8832C73.894 42.8151 73.8259 42.7698 73.7352 42.7698C73.6444 42.7698 73.5537 42.8378 73.531 42.9286C73.5083 43.042 73.4856 43.1781 73.4629 43.2916C73.4402 43.405 73.4402 43.5184 73.4175 43.6545C73.4175 43.8814 73.4402 44.1083 73.5083 44.3578C73.6444 44.8343 73.8486 45.2426 74.1435 45.5829L73.8259 46.4677C73.7125 46.7627 73.6444 47.0576 73.531 47.3752C73.5083 47.3298 73.5083 47.2845 73.4856 47.2164C73.4175 46.9895 73.2814 46.74 73.1453 46.4904C73.0092 46.2409 72.8277 46.014 72.6235 45.7871C72.5781 45.7191 72.4874 45.6964 72.3966 45.6964C72.3059 45.6964 72.2151 45.7644 72.1924 45.8552V45.8779C72.1471 46.3543 72.2378 46.8761 72.3966 47.3298C72.5554 47.7609 72.8277 48.1466 73.168 48.5096C73.0092 49.0767 72.8731 49.6439 72.7142 50.2338L72.6689 50.143C72.442 49.6212 72.079 49.1221 71.648 48.7364C71.5799 48.6684 71.4892 48.6457 71.4211 48.6684C71.3303 48.6911 71.285 48.7364 71.2623 48.8045C71.2623 48.8272 71.2623 48.8499 71.2623 48.8499C71.2623 49.349 71.353 49.8254 71.5572 50.2565C71.7387 50.6875 72.0563 51.1186 72.442 51.4589C72.3286 52.026 72.1924 52.5705 72.1244 53.1377L72.079 53.0696C71.7841 52.5251 71.3984 52.0487 70.922 51.663C70.8539 51.6177 70.7632 51.595 70.6724 51.6177C70.6044 51.6404 70.5363 51.6857 70.5136 51.7538C70.5136 51.7765 70.4909 51.7992 70.4909 51.8219C70.4909 52.3437 70.6497 52.8428 70.8766 53.2965C71.1035 53.7502 71.4438 54.1586 71.8748 54.4762L71.6706 56.2004C71.648 56.1551 71.6026 56.087 71.5799 56.0416C71.3077 55.5198 70.8312 55.0207 70.3094 54.635C70.2414 54.5897 70.1279 54.567 70.0599 54.5897C69.9918 54.6123 69.9464 54.6577 69.9238 54.7258C69.9011 54.7485 69.9011 54.7938 69.9011 54.8392C70.0145 55.9736 70.6044 56.9945 71.5572 57.607C71.4211 59.5581 71.4211 61.4865 71.6026 63.4603L72.1924 63.3922C72.0109 61.5092 72.0336 59.5808 72.1471 57.6524C73.2134 57.176 73.9167 56.3592 74.3023 55.3837C74.2796 55.4291 74.2796 55.4064 74.257 55.361Z" fill="#0D5957"/>
<path d="M66.8837 56.5634C66.861 56.5181 66.8156 56.4727 66.7702 56.45C66.7022 56.4273 66.6341 56.45 66.6114 56.4954C66.2938 56.8811 66.0669 57.3802 65.9535 57.902C65.9308 57.9473 65.9308 58.0154 65.9081 58.0608C65.772 57.4936 65.6586 56.9264 65.4998 56.3819C65.9989 55.7013 66.1804 54.7712 66.0669 53.7729C66.0669 53.7503 66.0669 53.7276 66.0442 53.7049C66.0216 53.6368 65.9762 53.5914 65.9081 53.5688C65.8401 53.5461 65.7947 53.5688 65.7493 53.6141C65.4771 53.9771 65.2729 54.4535 65.1594 54.9753L65.1368 55.0434C64.978 54.4989 64.8418 53.9544 64.6603 53.41C65.0914 52.7293 65.2502 51.8446 65.0914 50.9144C65.0914 50.8917 65.0914 50.8917 65.0687 50.869C65.046 50.801 65.0006 50.7556 64.9326 50.7329C64.8645 50.7102 64.8191 50.7329 64.7738 50.801C64.5242 51.1639 64.3427 51.6177 64.2747 52.1395L64.252 52.2302C64.0705 51.6631 63.8663 51.1186 63.6621 50.5741C63.8436 50.2565 63.9797 49.8708 64.0251 49.4851C64.0705 49.0541 64.0251 48.5776 63.9344 48.1239V48.1012C63.9117 48.0105 63.8436 47.9424 63.7755 47.9424C63.7075 47.9424 63.6621 47.9651 63.6394 48.0105C63.4352 48.4188 63.2991 48.8952 63.2537 49.3263C63.2537 49.3717 63.2537 49.417 63.2537 49.4624C63.0269 48.8726 62.7773 48.3054 62.5051 47.7382C62.6639 47.4206 62.7319 47.0576 62.7319 46.6039C62.7319 46.377 62.7093 46.1501 62.6639 45.9459C62.6412 45.8325 62.5958 45.7191 62.5731 45.6056C62.5278 45.4922 62.5051 45.3788 62.4597 45.2653C62.4143 45.1746 62.3463 45.1065 62.2782 45.1065C62.2101 45.1065 62.1648 45.1292 62.1648 45.1973C62.0513 45.5603 61.9833 46.014 62.006 46.5585C62.006 46.6039 62.006 46.6266 62.006 46.6719C62.006 46.6719 61.8698 46.4224 61.643 46.0367C61.5295 45.8325 61.3934 45.6283 61.2573 45.4015C61.1892 45.288 61.1212 45.1746 61.0304 45.0385C60.9397 44.925 60.8716 44.7889 60.7809 44.6755C60.6221 44.4259 60.4633 44.199 60.2818 43.9722C60.1229 43.7453 59.9641 43.5411 59.828 43.3823C59.5558 43.042 59.3516 42.8378 59.3289 42.8378C59.3062 42.8605 59.465 43.1101 59.7146 43.4504C59.8507 43.6319 59.9641 43.8587 60.1229 44.0856C60.2818 44.3125 60.4179 44.562 60.554 44.8116C60.6221 44.9477 60.6901 45.0612 60.7809 45.1746C60.8489 45.3107 60.917 45.4241 60.9851 45.5376C61.1212 45.7871 61.2346 45.9913 61.3254 46.1955C61.5069 46.5812 61.643 46.8534 61.643 46.8534C61.6203 46.8307 61.5749 46.808 61.5522 46.7854C61.1212 46.4677 60.7355 46.2862 60.3725 46.2182C60.3044 46.1955 60.2591 46.2182 60.2364 46.2862C60.191 46.3543 60.2137 46.4451 60.2591 46.5131C60.3271 46.6039 60.3952 46.6946 60.4632 46.7854C60.5313 46.8761 60.5994 46.9442 60.6674 47.0349C60.8036 47.171 60.985 47.3072 61.1439 47.4433C61.4842 47.6928 61.8245 47.8516 62.1421 47.9424C62.3916 48.5096 62.6412 49.0767 62.8681 49.6439C62.8454 49.6212 62.8 49.5759 62.7773 49.5532C62.437 49.2582 62.0286 49.0314 61.5749 48.9406C61.5068 48.9179 61.4615 48.9406 61.4161 48.986C61.3707 49.0541 61.3707 49.1221 61.4161 49.2129V49.2356C61.6657 49.5985 61.9606 49.9388 62.2782 50.2111C62.5731 50.4606 62.9361 50.6421 63.2764 50.7556C63.4806 51.3001 63.6621 51.8446 63.8436 52.4117L63.7755 52.3437C63.4126 52.0034 62.9815 51.7538 62.5731 51.6404C62.5051 51.6177 62.4597 51.6404 62.4143 51.6857C62.369 51.7311 62.369 51.7992 62.3916 51.8672C62.3916 51.8899 62.4143 51.8899 62.4143 51.9126C62.8454 52.684 63.4806 53.2965 64.2066 53.6141C64.3654 54.1586 64.5242 54.7031 64.683 55.2476L64.6376 55.1795C64.2747 54.7939 63.8436 54.4989 63.4352 54.3628C63.3672 54.3401 63.3218 54.3628 63.2764 54.4082C63.2311 54.4535 63.2311 54.5216 63.2311 54.5897C63.2311 54.6124 63.2311 54.635 63.2537 54.6577C63.6621 55.5198 64.2973 56.2004 65.046 56.5634C65.1821 57.1306 65.3183 57.6751 65.4544 58.2423C65.409 58.1969 65.3863 58.1515 65.3409 58.1061C65.0233 57.6751 64.5696 57.3575 64.1158 57.176C64.0478 57.1533 63.9797 57.1533 63.9344 57.2214C63.889 57.2667 63.889 57.3121 63.889 57.3802C63.889 57.4029 63.889 57.4482 63.9117 57.4709C64.32 58.4238 64.9553 59.2178 65.7266 59.6262C66.1123 61.5092 66.4299 63.4149 66.6568 65.2979L67.0652 65.2525C66.8383 63.3242 66.5207 61.4184 66.135 59.5354C66.7022 58.8548 66.9517 57.8566 66.861 56.7676C66.9063 56.6315 66.8837 56.6088 66.8837 56.5634Z" fill="#0D5957"/>
<path d="M57.8997 63.3922C57.877 63.3696 57.8316 63.3696 57.8089 63.3922C57.7635 63.4149 57.7408 63.4376 57.7408 63.483C57.7408 63.7779 57.8089 64.0955 57.9677 64.3905C57.9904 64.4132 57.9904 64.4585 58.0131 64.4812C57.7408 64.277 57.4686 64.0502 57.1964 63.846C57.1737 63.3469 56.9241 62.8478 56.4931 62.4394C56.4931 62.4394 56.4704 62.4167 56.4477 62.4167C56.4023 62.394 56.3796 62.394 56.3343 62.394C56.2889 62.4167 56.2889 62.4394 56.2889 62.4848C56.3116 62.757 56.3796 63.0519 56.5157 63.3469L56.5384 63.3922C56.2662 63.1881 55.9939 63.0066 55.699 62.8024C55.6536 62.326 55.3814 61.8495 54.973 61.4865L54.9503 61.4638C54.905 61.4412 54.8596 61.4412 54.8369 61.4412C54.7915 61.4638 54.7915 61.4865 54.7915 61.5319C54.8142 61.7815 54.905 62.0764 55.0638 62.326L55.0865 62.3713C54.7915 62.1898 54.4966 61.9857 54.2017 61.8268C54.179 61.6 54.0882 61.3958 53.9521 61.1916C53.816 60.9647 53.6118 60.7606 53.385 60.6017C53.3396 60.5791 53.2942 60.5564 53.2488 60.5791C53.2261 60.6017 53.2035 60.6244 53.2035 60.6698C53.2715 60.942 53.3849 61.2143 53.5211 61.4185C53.5438 61.4412 53.5438 61.4639 53.5664 61.4865C53.2488 61.305 52.9085 61.1235 52.5682 60.9647C52.5228 60.7606 52.4094 60.5564 52.2506 60.3522C52.1599 60.2388 52.0691 60.148 51.9784 60.0799C51.933 60.0346 51.8649 59.9892 51.8195 59.9665C51.7515 59.9211 51.7061 59.8758 51.6381 59.8531C51.5927 59.8304 51.5246 59.8304 51.5019 59.8531C51.4792 59.8758 51.4566 59.8985 51.4792 59.9438C51.57 60.148 51.7061 60.3976 51.9103 60.6244C51.933 60.6471 51.933 60.6471 51.9557 60.6698C51.9557 60.6698 51.7969 60.6017 51.5473 60.511C51.4339 60.4656 51.2751 60.4203 51.1389 60.3522C51.0709 60.3295 50.9801 60.3068 50.9121 60.2614C50.8213 60.2388 50.7533 60.2161 50.6625 60.1934C50.5037 60.148 50.3222 60.0799 50.1634 60.0573C50.0046 60.0119 49.8685 59.9665 49.7324 59.9438C49.4828 59.8985 49.3013 59.8758 49.3013 59.8758C49.3013 59.8985 49.4601 59.9438 49.7097 60.0119C49.8231 60.0573 49.9819 60.1026 50.118 60.148C50.2768 60.1934 50.4356 60.2614 50.5945 60.3295C50.6852 60.3522 50.7533 60.3976 50.844 60.4202C50.9121 60.4429 51.0028 60.4883 51.0709 60.511C51.2297 60.5791 51.3658 60.6244 51.4792 60.6925C51.7061 60.8059 51.8649 60.874 51.8649 60.874C51.8422 60.874 51.8196 60.874 51.7969 60.874C51.4792 60.8967 51.2297 60.942 51.0255 61.0555C51.0028 61.0782 50.9801 61.1009 50.9801 61.1462C50.9801 61.1916 51.0255 61.237 51.0709 61.237C51.1389 61.2597 51.207 61.2824 51.2751 61.2824C51.3431 61.305 51.4112 61.305 51.4566 61.305C51.57 61.305 51.7061 61.3277 51.8195 61.305C52.0691 61.305 52.296 61.237 52.4775 61.1689C52.8178 61.3277 53.1354 61.5092 53.453 61.6907C53.4303 61.6907 53.4076 61.6907 53.3623 61.6907C53.1127 61.6907 52.8178 61.7361 52.5682 61.8495C52.5455 61.8722 52.5228 61.8949 52.5228 61.9403C52.5228 61.9857 52.5682 62.031 52.6136 62.031C52.8631 62.1218 53.1354 62.1445 53.385 62.1671C53.6118 62.1671 53.8387 62.1218 54.0429 62.0537C54.3378 62.2352 54.6327 62.4167 54.9277 62.5982H54.8823C54.5874 62.5755 54.2924 62.6209 54.0656 62.7116C54.0202 62.7343 54.0202 62.757 54.0202 62.8024C54.0202 62.8478 54.0429 62.8704 54.0882 62.8931C54.0882 62.8931 54.1109 62.8931 54.1109 62.9158C54.61 63.12 55.1318 63.1654 55.5856 63.0292C55.8578 63.2107 56.1301 63.4149 56.4023 63.5964H56.3569C56.0393 63.551 55.7444 63.5737 55.4948 63.6645C55.4495 63.6872 55.4268 63.7099 55.4268 63.7552C55.4268 63.8006 55.4495 63.8233 55.4721 63.846C55.4721 63.846 55.4948 63.8687 55.5175 63.8687C56.0393 64.1182 56.5838 64.1863 57.0602 64.0728C57.3325 64.277 57.6047 64.4812 57.877 64.7081C57.8543 64.7081 57.8089 64.6854 57.7862 64.6854C57.4686 64.6173 57.151 64.6173 56.8787 64.7081C56.8334 64.7081 56.8107 64.7535 56.8107 64.7988C56.8107 64.8215 56.8107 64.8669 56.8334 64.8896C56.856 64.9123 56.8561 64.9123 56.8787 64.9349C57.4232 65.2299 58.0131 65.366 58.5349 65.2526C59.4197 65.9786 60.2818 66.7499 61.0985 67.5439L61.2573 67.3851C60.4406 66.5684 59.5785 65.8197 58.6937 65.0938C58.6937 64.572 58.4441 64.0048 57.9904 63.5284C57.945 63.4149 57.9223 63.4149 57.8997 63.3922Z" fill="#0D5957"/>
<path d="M58.0357 58.696C57.9904 58.6506 57.9223 58.6052 57.8542 58.6052C57.7635 58.6052 57.7181 58.6506 57.6954 58.7187C57.6274 59.0136 57.6047 59.3312 57.6047 59.6488C57.6047 59.9665 57.6501 60.3068 57.6954 60.6471C57.7181 60.7151 57.7181 60.7832 57.7408 60.8513C57.5366 60.5336 57.3324 60.2387 57.1056 59.9438L56.788 59.49L56.4477 59.059C56.6065 58.0834 56.2662 56.9264 55.5175 55.8601C55.4948 55.8374 55.4721 55.8148 55.4494 55.7921C55.3814 55.724 55.2906 55.7013 55.2226 55.7013C55.1545 55.7013 55.0864 55.7694 55.0864 55.8374C55.0411 56.3819 55.1091 56.9945 55.3133 57.6524C55.3133 57.6751 55.336 57.7205 55.336 57.7431L54.61 56.9491L53.8613 56.1777C53.8613 55.7013 53.7479 55.2022 53.5437 54.7031C53.4303 54.4535 53.2942 54.204 53.1354 53.9771C52.9766 53.7502 52.7951 53.5007 52.5682 53.2738C52.5455 53.2511 52.5455 53.2511 52.5228 53.2284C52.4547 53.1604 52.364 53.1377 52.2733 53.1604C52.2052 53.1831 52.1598 53.2284 52.1598 53.3192C52.1825 53.5914 52.2279 53.8637 52.2959 54.1359C52.364 54.4308 52.4774 54.7031 52.6136 54.998L52.6589 55.0888C52.364 54.8619 52.0918 54.6123 51.7968 54.3855L50.912 53.7049C50.844 53.2738 50.6852 52.8201 50.4356 52.389C50.2995 52.1395 50.0953 51.9353 49.9138 51.7084C49.7096 51.5042 49.5054 51.2774 49.2559 51.0959H49.2332C49.1425 51.0278 49.0063 51.0051 48.9383 51.0505C48.8702 51.0732 48.8475 51.1412 48.8702 51.2093C49.029 51.7311 49.2559 52.2983 49.5735 52.752C49.5962 52.7974 49.6416 52.8428 49.6869 52.8881C49.3466 52.684 49.0063 52.4798 48.666 52.2756L47.6224 51.7084C47.509 51.3227 47.2594 50.9144 46.8964 50.506C46.715 50.3018 46.4881 50.1203 46.2839 49.9388C46.1705 49.8481 46.0343 49.78 45.9209 49.712C45.7848 49.6212 45.6487 49.5532 45.5125 49.4851C45.3991 49.417 45.2857 49.4397 45.1949 49.4851C45.1496 49.5305 45.1269 49.5985 45.1722 49.6666C45.3764 50.075 45.7167 50.5287 46.1705 51.0051L46.2839 51.0959C46.2839 51.0959 45.9436 50.9597 45.4218 50.7782C45.2857 50.7329 45.1496 50.6875 44.9907 50.6194C44.8319 50.5741 44.6731 50.5287 44.5143 50.4833C44.174 50.3926 43.8337 50.2791 43.4707 50.1884C42.7447 50.0296 42.0414 49.8481 41.497 49.78C40.9525 49.6893 40.5895 49.6439 40.5895 49.6666C40.5895 49.7347 42.0188 50.0296 43.4027 50.4833C43.743 50.5968 44.0833 50.7329 44.4009 50.8463C44.5597 50.9144 44.7185 50.9597 44.8546 51.0051C44.9907 51.0732 45.1269 51.1186 45.263 51.1866C45.7621 51.3908 46.1024 51.5496 46.1024 51.5496C46.057 51.5496 46.0117 51.5496 45.9663 51.5496C45.3084 51.5723 44.8093 51.663 44.4009 51.8899C44.3328 51.9126 44.3101 51.9807 44.3101 52.0487C44.3328 52.1395 44.4236 52.1848 44.5143 52.2302C44.6504 52.2756 44.7866 52.2983 44.9227 52.321C45.0588 52.3436 45.1949 52.3663 45.3084 52.389C45.5579 52.4117 45.8302 52.4117 46.0797 52.4117C46.6015 52.4117 47.0326 52.321 47.4182 52.1848L48.4392 52.7293C48.7795 52.9108 49.0971 53.1377 49.4374 53.3192C49.3693 53.3192 49.324 53.2965 49.2559 53.2965C48.7341 53.2284 48.1442 53.2738 47.6451 53.478C47.5771 53.5007 47.5544 53.5687 47.5544 53.6368C47.5544 53.7276 47.6224 53.7956 47.7359 53.841H47.7586C48.0081 53.9317 48.2577 54.0225 48.5299 54.0679C48.7795 54.1359 49.0517 54.1586 49.3013 54.204C49.755 54.2494 50.2314 54.2267 50.6625 54.1359L51.5473 54.7938C51.8422 55.0207 52.1144 55.2703 52.3867 55.4971L52.2733 55.4744C51.9783 55.3837 51.6834 55.361 51.3885 55.3383C51.1162 55.3383 50.844 55.3837 50.5944 55.4291C50.5264 55.4518 50.481 55.4971 50.481 55.5652C50.481 55.6333 50.5264 55.724 50.5944 55.7694C50.6171 55.7921 50.6171 55.7921 50.6398 55.7921C50.8894 55.9055 51.1162 56.0416 51.3658 56.1324C51.6153 56.2231 51.8649 56.3139 52.0918 56.3819C52.5682 56.518 53.0673 56.5634 53.5437 56.5407L54.2924 57.2894L55.0184 58.0834C54.9957 58.0608 54.9503 58.0608 54.9276 58.0381C54.3151 57.7885 53.7252 57.6751 53.2034 57.7431C53.1354 57.7431 53.0673 57.8112 53.0673 57.8793C53.0446 57.9473 53.09 58.0154 53.1354 58.0834C53.158 58.1061 53.1807 58.1288 53.2034 58.1515C53.4303 58.3103 53.6572 58.4918 53.9067 58.6279C54.0201 58.696 54.1563 58.7641 54.2697 58.8321C54.3831 58.9002 54.5193 58.9456 54.6327 59.0136C54.8823 59.127 55.1318 59.2178 55.3814 59.2632C55.6309 59.3312 55.8805 59.3766 56.1074 59.3993L56.4477 59.8303L56.7653 60.2614C56.9695 60.5563 57.1736 60.8513 57.3778 61.1462C57.3098 61.1008 57.2644 61.0781 57.1963 61.0328C56.9241 60.8513 56.6292 60.7151 56.3342 60.6244C56.0393 60.5336 55.7444 60.4656 55.4494 60.4656C55.3814 60.4656 55.3133 60.511 55.2906 60.579C55.2679 60.6471 55.2906 60.7151 55.3133 60.7605C55.336 60.8059 55.3587 60.8286 55.3814 60.8513C55.6082 61.0781 55.8351 61.2823 56.0847 61.4865C56.3115 61.6907 56.5611 61.8495 56.8106 62.0083C57.2871 62.3259 57.8089 62.5301 58.308 62.6435C58.9205 63.6871 59.465 64.7534 59.9641 65.8651C60.4406 66.9767 60.8716 68.1111 61.1892 69.2454L61.6203 69.132C61.28 67.9296 60.8489 66.7952 60.3725 65.6836C59.8734 64.5719 59.3289 63.4603 58.6937 62.4167C58.8525 61.9175 58.8752 61.3504 58.7844 60.7378C58.739 60.4429 58.6483 60.1253 58.5349 59.8077C58.4214 59.49 58.2853 59.1724 58.1038 58.8548C58.1038 58.7641 58.0584 58.7187 58.0357 58.696Z" fill="#0D5957"/>
<path d="M81.494 58.9683C81.5167 58.9683 81.5621 58.9683 81.5848 58.9683C81.6074 58.991 81.6301 59.0136 81.6301 59.059C81.6074 59.3086 81.494 59.5808 81.3579 59.8077C81.3352 59.8304 81.3352 59.8531 81.3125 59.8758C81.5621 59.7169 81.8116 59.5581 82.0839 59.422C82.1519 58.991 82.4242 58.5826 82.8325 58.265L82.8552 58.2423C82.8779 58.2196 82.9233 58.2196 82.946 58.2423C82.9687 58.265 82.9914 58.2877 82.9914 58.3104C82.946 58.5372 82.8552 58.7868 82.6964 59.0136L82.6737 59.0363C82.9233 58.9002 83.1955 58.7641 83.4451 58.628C83.5358 58.2196 83.8081 57.8566 84.2164 57.5617C84.2164 57.5617 84.2391 57.5617 84.2391 57.539C84.2845 57.5163 84.3072 57.5163 84.3526 57.539C84.3753 57.5617 84.3979 57.5844 84.3979 57.6071C84.3526 57.8339 84.2391 58.0608 84.0803 58.265L84.0576 58.3104C84.3299 58.1742 84.6021 58.0381 84.8744 57.9247C84.9197 57.7432 85.0105 57.5617 85.1466 57.4029C85.2827 57.2214 85.4869 57.0626 85.6911 56.9491C85.7365 56.9264 85.7818 56.9264 85.8045 56.9491C85.8272 56.9718 85.8499 56.9945 85.8272 57.0172C85.7592 57.2441 85.623 57.4709 85.4642 57.6297C85.4415 57.6524 85.4415 57.6751 85.4189 57.6751C85.7138 57.5617 86.0087 57.4256 86.3263 57.3348C86.3944 57.1533 86.5078 57.0172 86.6666 56.8357C86.7574 56.745 86.8481 56.6769 86.9389 56.6315C86.9843 56.6088 87.0523 56.5635 87.0977 56.5408C87.1431 56.5181 87.2111 56.4727 87.2792 56.45C87.3246 56.4273 87.3699 56.4273 87.4153 56.4727C87.438 56.4954 87.438 56.5181 87.4153 56.5635C87.3246 56.745 87.1884 56.9264 86.9842 57.1079C86.9616 57.1306 86.9616 57.1306 86.9389 57.1533C86.9389 57.1533 87.075 57.1079 87.3019 57.0626C87.4153 57.0399 87.5287 56.9945 87.6875 56.9718C87.7556 56.9491 87.8237 56.9491 87.8917 56.9264C87.9598 56.9038 88.0278 56.9038 88.1186 56.8811C88.2774 56.8584 88.4135 56.8357 88.5497 56.813C88.6858 56.7903 88.8219 56.7676 88.9353 56.7676C89.1622 56.745 89.321 56.745 89.321 56.745C89.321 56.7676 89.1849 56.7903 88.958 56.8357C88.8446 56.8584 88.7311 56.8811 88.595 56.9038C88.4589 56.9264 88.3228 56.9718 88.164 57.0172C88.0959 57.0399 88.0279 57.0626 87.9598 57.0626C87.8917 57.0853 87.8237 57.1079 87.7556 57.1306C87.6195 57.176 87.5061 57.1987 87.3926 57.2441C87.1884 57.3121 87.0296 57.3575 87.0296 57.3575C87.0523 57.3575 87.075 57.3575 87.0977 57.3575C87.3699 57.4029 87.5741 57.4709 87.7329 57.5844C87.7556 57.6071 87.7783 57.6297 87.7556 57.6524C87.7556 57.6978 87.7102 57.7205 87.6649 57.7205C87.5968 57.7205 87.5514 57.7432 87.4834 57.7432C87.438 57.7432 87.3699 57.7432 87.3246 57.7432C87.2111 57.7432 87.1204 57.7205 87.0069 57.7205C86.7801 57.6978 86.5986 57.6297 86.4625 57.539C86.1675 57.6524 85.8726 57.7659 85.5777 57.8793C85.6004 57.8793 85.623 57.8793 85.6457 57.8793C85.8726 57.902 86.0995 57.97 86.3036 58.1062C86.3263 58.1289 86.349 58.1515 86.3263 58.1742C86.3263 58.2196 86.281 58.2423 86.2356 58.2423C86.0087 58.2877 85.7818 58.2877 85.555 58.265C85.3508 58.2423 85.1693 58.1742 84.9878 58.1062C84.7156 58.2196 84.4433 58.3557 84.1711 58.4918H84.2164C84.4887 58.4918 84.7156 58.5599 84.9197 58.6733C84.9424 58.696 84.9651 58.7187 84.9651 58.7414C84.9651 58.7641 84.9424 58.8095 84.8971 58.8095H84.8744C84.4206 58.9229 83.9896 58.9229 83.6039 58.7641C83.3543 58.9002 83.0821 59.0363 82.8325 59.1725H82.8779C83.1502 59.1725 83.3997 59.2178 83.6266 59.3313C83.6493 59.354 83.672 59.3766 83.672 59.3993C83.672 59.422 83.6493 59.4674 83.6266 59.4674L83.6039 59.4901C83.1275 59.6489 82.651 59.6716 82.2654 59.5128C82.0158 59.6716 81.7436 59.8077 81.494 59.9665C81.5167 59.9665 81.5621 59.9665 81.5848 59.9665C81.857 59.9438 82.1292 59.9892 82.3788 60.0799C82.4015 60.1026 82.4242 60.1253 82.4242 60.148C82.4242 60.1707 82.4015 60.1934 82.3788 60.2161C82.3561 60.2387 82.3561 60.2387 82.3334 60.2387C81.8343 60.4429 81.3125 60.4883 80.8815 60.3522C80.042 60.8967 79.2253 61.4638 78.454 62.0537L78.3178 61.8949C79.1119 61.2823 79.9286 60.7152 80.768 60.1707C80.8134 59.7169 81.1083 59.2632 81.5394 58.9002C81.4713 58.9683 81.4713 58.9683 81.494 58.9683Z" fill="#0D5957"/>
<path d="M77.5466 60.3068C77.5919 60.2614 77.66 60.2387 77.7054 60.2387C77.7734 60.2387 77.8188 60.2841 77.8415 60.3522C77.8869 60.6017 77.9322 60.874 77.9096 61.1689C77.9096 61.4411 77.8869 61.7361 77.8188 62.031C77.7961 62.0991 77.7961 62.1444 77.7734 62.2125C77.9549 61.9402 78.1364 61.6907 78.3179 61.4184L78.5902 61.0328L78.8851 60.6471C78.749 59.8077 79.0439 58.7868 79.6791 57.8566C79.7018 57.8339 79.7245 57.8112 79.7472 57.7885C79.8153 57.7432 79.8833 57.7205 79.9287 57.7205C79.9968 57.7205 80.0421 57.7658 80.0421 57.8339C80.0648 58.2876 80.0194 58.8548 79.8379 59.3993C79.8379 59.422 79.8153 59.4447 79.8153 59.4674L80.4505 58.7641L81.1084 58.1062C81.1084 57.6978 81.1992 57.2667 81.3807 56.8357C81.4714 56.6088 81.6075 56.4046 81.7436 56.2004C81.8798 55.9963 82.0386 55.7921 82.2201 55.5879C82.2428 55.5652 82.2428 55.5652 82.2654 55.5425C82.3335 55.4972 82.4016 55.4745 82.4696 55.4745C82.5377 55.4972 82.5604 55.5425 82.5604 55.6106C82.5604 55.8375 82.515 56.0643 82.4469 56.3139C82.3789 56.5634 82.2881 56.813 82.1747 57.0626L82.1293 57.1533C82.3789 56.9491 82.6284 56.7222 82.878 56.5408L83.6494 55.9509C83.6947 55.5879 83.8308 55.1795 84.0577 54.7939C84.1938 54.5897 84.3526 54.4082 84.5115 54.204C84.6929 54.0225 84.8744 53.8183 85.0786 53.6595H85.1013C85.1921 53.6141 85.2828 53.5914 85.3509 53.6141C85.4189 53.6368 85.4416 53.6822 85.4189 53.7503C85.2828 54.204 85.0786 54.7031 84.8064 55.0888C84.7837 55.1342 84.7383 55.1795 84.7156 55.2022C85.0106 55.0207 85.3055 54.8392 85.6004 54.6804L86.5079 54.204C86.5987 53.8637 86.8255 53.5234 87.1431 53.1604C87.3019 52.9789 87.4834 52.8201 87.6876 52.684C87.8011 52.6159 87.8918 52.5478 88.0052 52.4798C88.1187 52.4117 88.2321 52.3437 88.3682 52.2756C88.459 52.2302 88.5724 52.2302 88.6405 52.2756C88.6859 52.321 88.7085 52.3664 88.6632 52.4344C88.4817 52.7974 88.1867 53.1831 87.8011 53.5915L87.7103 53.6822C87.7103 53.6822 88.0052 53.5688 88.459 53.41C88.5724 53.3646 88.6859 53.3192 88.822 53.2738C88.9581 53.2285 89.0942 53.1831 89.2303 53.1377C89.5253 53.047 89.8202 52.9562 90.1378 52.8655C90.7504 52.7293 91.3856 52.5705 91.862 52.5025C92.3384 52.4344 92.6561 52.389 92.6561 52.4117C92.6561 52.4571 91.431 52.7293 90.2286 53.115C89.9336 53.2058 89.6387 53.3192 89.3438 53.4326C89.2077 53.478 89.0715 53.5234 88.9354 53.5688C88.822 53.6141 88.6859 53.6822 88.5951 53.7276C88.1641 53.9091 87.8691 54.0452 87.8691 54.0452C87.9145 54.0452 87.9599 54.0452 88.0052 54.0452C88.5724 54.0679 89.0035 54.1586 89.3665 54.3401C89.4345 54.3628 89.4572 54.4309 89.4345 54.4762C89.4118 54.5443 89.3438 54.6124 89.253 54.635C89.1396 54.6577 89.0035 54.7031 88.89 54.7258C88.7766 54.7485 88.6632 54.7712 88.5497 54.7939C88.3229 54.8165 88.096 54.8165 87.8918 54.8165C87.4381 54.8165 87.0524 54.7485 86.7348 54.6124L85.85 55.0888C85.5551 55.2476 85.2601 55.4291 84.9879 55.6106C85.0333 55.6106 85.0786 55.5879 85.1467 55.5879C85.6004 55.5198 86.0995 55.5879 86.5306 55.7467C86.5987 55.7694 86.6213 55.8148 86.6213 55.8828C86.6213 55.9509 86.5533 56.019 86.4625 56.0643H86.4398C86.213 56.1324 86.0088 56.2231 85.7819 56.2685C85.5551 56.3139 85.3282 56.3593 85.1013 56.3819C84.693 56.4273 84.2846 56.4046 83.9216 56.3139L83.1729 56.8811C82.9234 57.0626 82.6738 57.2894 82.4469 57.4936L82.5377 57.4709C82.8099 57.4029 83.0595 57.3575 83.2864 57.3575C83.5359 57.3575 83.7628 57.3802 83.967 57.4482C84.035 57.4709 84.0577 57.5163 84.0577 57.5844C84.0577 57.6524 84.0123 57.7205 83.967 57.7658C83.9443 57.7658 83.9443 57.7885 83.9216 57.7885C83.7174 57.902 83.5132 57.9927 83.2864 58.0835C83.0822 58.1742 82.8553 58.2423 82.6511 58.2876C82.2428 58.4011 81.8117 58.4465 81.4033 58.4238L80.7454 59.0817L80.1329 59.7623C80.1556 59.7396 80.1782 59.7396 80.2009 59.7169C80.7227 59.4901 81.2445 59.3993 81.6983 59.4674C81.7663 59.4674 81.8117 59.5127 81.8117 59.5808C81.8117 59.6489 81.8117 59.6942 81.7663 59.7623C81.7436 59.785 81.721 59.8077 81.721 59.8077C81.5168 59.9438 81.3126 60.1026 81.1084 60.216C80.995 60.2841 80.9042 60.3295 80.7908 60.3975C80.6774 60.4429 80.5866 60.511 80.4732 60.5563C80.269 60.6471 80.0421 60.7152 79.8379 60.7832C79.6338 60.8513 79.4069 60.874 79.2027 60.8966L78.9078 61.2596L78.6355 61.6453C78.454 61.8949 78.2725 62.1671 78.091 62.4167C78.1364 62.394 78.1818 62.3486 78.2499 62.3259C78.4767 62.1671 78.749 62.0537 78.9985 61.9629C79.2481 61.8722 79.5203 61.8268 79.7699 61.8268C79.8379 61.8268 79.8833 61.8722 79.906 61.9176C79.9287 61.9629 79.906 62.031 79.8833 62.0764C79.8606 62.0991 79.8379 62.1444 79.8153 62.1671C79.6338 62.3713 79.4069 62.5301 79.2027 62.7116C78.9985 62.8704 78.7943 63.0292 78.5675 63.1653C78.1591 63.4376 77.7054 63.6191 77.2516 63.7098C76.7298 64.6173 76.2534 65.5475 75.8224 66.5003C75.414 67.4532 75.0283 68.4514 74.7561 69.4269L74.3704 69.3362C74.6653 68.2926 75.0283 67.3171 75.4594 66.3415C75.8904 65.366 76.3668 64.4131 76.9113 63.5056C76.7752 63.0746 76.7525 62.5755 76.8206 62.0537C76.866 61.7814 76.934 61.5319 77.0248 61.237C77.1155 60.9647 77.2516 60.6925 77.3878 60.4202C77.4785 60.3748 77.5239 60.3522 77.5466 60.3068Z" fill="#0D5957"/>
<path d="M41.9508 90.4579C41.9508 90.4579 26.5917 80.952 70.196 80.952C113.8 80.952 98.7135 90.6167 98.7135 90.6167L41.9508 90.4579Z" fill="url(#paint7_linear_1667_1512)"/>
<path d="M70.3548 114.96C86.2048 114.96 99.0538 102.111 99.0538 86.2607C99.0538 70.4107 86.2048 57.5617 70.3548 57.5617C54.5048 57.5617 41.6558 70.4107 41.6558 86.2607C41.6558 102.111 54.5048 114.96 70.3548 114.96Z" fill="#4FB6B7"/>
<path d="M82.1293 111.398C82.3108 110.967 82.583 110.604 82.8553 110.218C83.1502 109.787 83.3771 109.356 83.672 108.925C84.9425 107.042 86.7347 105.545 87.9598 103.639C88.527 102.777 88.8673 101.801 89.1169 100.803C89.1849 100.554 89.253 100.304 89.2757 100.032C89.2984 99.9411 89.3437 99.7142 89.2984 99.6008V99.5781C89.253 99.5781 89.1622 99.6234 89.1169 99.6234C88.9127 99.6915 88.7085 99.8276 88.5043 99.9184C87.6422 100.372 86.8482 100.962 85.8499 101.166C85.4643 101.257 84.5341 101.438 84.4433 100.849C84.4207 100.69 84.4433 100.554 84.5114 100.417C84.4207 100.372 84.3072 100.304 84.2392 100.236C83.7174 99.9184 83.3771 99.442 82.8099 99.147C82.3788 98.9202 81.9478 98.716 81.6982 98.3076C81.4714 97.9219 81.4033 97.4228 81.0176 97.1506C80.6093 96.8556 80.3824 96.7195 80.2463 96.2204C80.1101 95.744 80.1101 95.2222 79.906 94.7684C79.8152 94.5189 79.6564 94.3374 79.4295 94.224C79.3161 94.1559 79.18 94.1332 79.0892 94.0425C78.817 93.7929 78.9531 93.2938 78.7943 92.9989C78.3632 92.2275 76.8432 90.3218 76.8659 89.3689C76.8659 89.2555 77.5692 90.1176 77.7507 90.1857C77.9549 90.2764 77.9322 90.0949 77.9776 90.0722C78.0229 90.0269 78.1364 88.9833 78.1817 88.9606C78.2271 88.9379 78.2271 89.9134 78.2952 89.8907C78.5221 89.8454 78.6582 89.8907 78.8397 90.0269C79.2027 90.2991 79.5203 90.7075 79.7471 91.0932C79.906 91.3654 80.0194 91.6376 80.2236 91.8872C80.4051 92.1141 80.6093 92.3409 80.7907 92.5678C81.1537 92.9989 81.5167 93.4753 81.6982 94.0198C81.8117 94.3147 81.8343 94.6323 81.9932 94.9046C82.152 95.1768 82.4015 95.4037 82.6284 95.6079C82.946 95.8801 83.2863 96.1523 83.4678 96.538C83.7854 97.1733 83.8535 97.9219 84.0123 98.6252C84.103 99.0336 84.2619 99.4873 84.5341 99.7369C84.6702 99.8276 84.829 99.8957 84.9651 99.9638H84.9878C85.2828 99.7823 85.6458 99.6688 85.8726 99.5781C86.3944 99.3739 86.8482 98.9882 87.2792 98.6479C87.4834 98.4891 87.6876 98.3076 87.8918 98.1261C87.9598 98.0807 88.0279 98.0127 88.0959 97.9673C88.1867 97.3321 88.6858 96.8103 89.1395 96.3792C89.6613 95.8574 90.2058 95.3583 90.6369 94.7684C91.0452 94.1786 91.3402 93.5207 91.6351 92.8854C91.9074 92.3182 92.3384 91.615 92.2703 90.9797C92.225 90.5714 91.9527 90.594 91.6351 90.5487C91.3856 90.5033 91.136 90.4125 90.9545 90.2084C90.7276 89.9588 90.5688 89.1194 90.1605 89.1194C89.8882 89.1194 89.7067 89.5278 89.5933 89.7319C89.4118 90.0269 89.253 90.3445 88.9581 90.5714C87.9825 91.2746 87.1204 89.7546 86.4852 89.2782C86.0314 88.9606 85.4869 88.5522 85.3735 87.985C85.3055 87.622 85.3735 87.1003 85.7365 86.8961C86.4171 86.5104 87.3473 87.4632 87.8464 87.8262C88.2774 88.1439 88.6858 88.28 89.2076 88.1212C89.7975 87.9624 90.1831 87.8035 90.7503 88.0077C91.6351 88.3253 92.3838 88.1439 93.2232 87.7809C93.6316 87.5994 94.1534 87.2817 94.6298 87.4632C94.902 87.5767 95.1062 87.8035 95.3558 87.9397C95.5826 88.0758 95.8549 88.0758 96.0818 88.2573C96.1952 88.348 96.2632 88.4615 96.3086 88.5976C96.3313 88.7337 96.2859 88.8698 96.354 88.9606C96.4674 89.1194 96.7397 89.0967 96.8531 88.9833C96.9892 88.8698 97.08 88.6883 97.148 88.5295C97.2388 88.3253 97.5564 88.2573 97.6698 88.4842C98.1236 89.437 98.3278 90.4806 98.5546 91.5242C98.8722 89.8 99.0537 88.0304 99.0537 86.2155C99.0537 73.6015 90.9091 62.8933 79.5883 59.0365C79.543 59.1046 79.5203 59.1726 79.4976 59.2407C79.5203 59.6037 78.9304 59.8759 78.7262 60.2616C78.2044 61.2144 79.4295 62.8252 78.5221 63.1428C78.2044 63.2563 77.1608 62.5984 77.1381 62.984C77.1155 63.2563 77.1835 63.4831 77.1155 63.7327C76.9793 64.1864 76.6617 64.4587 76.2534 64.6175C75.7769 64.799 75.4139 64.8897 75.1871 65.3662C75.0056 65.7292 74.8468 66.0921 74.6199 66.4324C74.4157 66.7274 74.1435 66.9996 73.7578 67.0223C73.3041 67.0677 72.9184 66.7501 72.6234 66.4324C72.4873 66.2963 72.5554 66.0921 72.7142 66.0014C72.8957 65.888 73.0999 65.8426 73.2814 65.7745C73.3494 65.7518 73.8259 65.6157 73.8485 65.525C73.8712 65.4342 73.4175 65.162 73.3267 65.0939C73.0999 64.9578 72.8276 64.9124 72.5554 64.8897C71.9202 64.8444 71.2849 64.8897 70.6724 64.7763C70.1279 64.6629 69.5607 64.4814 68.9935 64.5721C67.9499 64.7309 67.3828 65.8426 66.7022 66.5459C66.3618 66.9089 65.9308 67.2038 65.4771 67.3853C65.046 67.5441 64.5923 67.6349 64.1385 67.7483C63.7302 67.8617 63.3445 68.0432 63.1857 68.4516C63.0496 68.8146 62.9815 69.3591 63.0949 69.7447C63.3672 70.6295 64.3881 69.9262 64.9553 69.9262C65.7039 69.9262 65.8174 70.9018 65.4317 71.3782C65.409 71.4236 65.3409 71.5143 65.2956 71.5597C65.3636 71.7866 65.7493 71.6731 65.9081 71.6278C66.4072 71.5143 67.1105 71.3555 67.4054 70.9018C67.5189 70.7203 67.4735 70.4934 67.6096 70.3119C67.7231 70.1758 67.8819 70.1077 68.0407 70.0624C68.2902 69.9489 68.3583 69.9035 68.2222 69.6767C68.1087 69.4952 67.9726 69.3364 67.8819 69.1322C67.4508 68.2247 68.4037 67.5441 69.0843 67.1584C69.2204 67.0904 69.3792 67.1584 69.47 67.2719C69.6061 67.5214 69.2885 67.6575 69.2204 67.9298C69.1977 68.0659 69.47 68.3155 69.4246 68.4516C69.3792 68.565 69.1523 68.7919 69.175 68.9961C69.1977 69.2229 69.538 69.291 69.6968 69.4725C70.0144 69.8355 70.4228 69.0188 70.8539 68.8826C71.3303 68.7465 71.784 68.7692 72.1924 69.0641C72.3285 69.1776 72.3512 69.3817 72.2151 69.4952C71.9202 69.7901 71.5572 69.9035 71.1488 69.9262C70.8085 69.9489 70.4455 69.9716 70.1279 69.9262C70.1279 69.9489 70.1279 69.9489 70.1052 69.9489C70.1959 70.017 70.2413 70.1304 70.2413 70.2439C70.264 70.448 70.3321 70.6749 70.2186 70.8791C70.0598 71.174 69.833 71.2194 69.538 71.174C69.3338 71.1513 69.3112 71.1513 69.3112 71.4009C69.3112 71.537 69.3565 71.6958 69.3338 71.8319C69.2204 72.6487 68.2222 72.6714 67.6096 72.626C66.8383 72.5806 66.1577 72.9663 65.3863 72.7848C64.9326 72.6714 64.5923 72.3764 64.6376 71.9V71.8773C64.5923 71.7412 64.615 71.5824 64.683 71.4236C64.7057 71.3555 64.7511 71.3101 64.7964 71.2421C64.8191 71.106 64.7965 70.9925 64.7057 70.9245C64.32 70.5842 64.0932 70.9245 64.0251 71.2874C63.8663 72.0361 64.1158 73.2158 62.9815 73.1478C62.7092 73.1251 62.5051 73.0343 62.3463 73.3066C62.2782 73.4427 62.2555 73.5561 62.1421 73.6923C61.9379 73.9191 61.643 74.0326 61.3707 74.1687C60.7355 74.4863 60.191 75.3711 59.397 75.235C59.1247 75.1896 59.0113 75.1215 58.7617 75.2804C58.6483 75.3484 58.5802 75.4165 58.4668 75.4619C58.2172 75.5526 57.945 75.5072 57.6727 75.4845C57.6501 75.4845 57.5366 75.4618 57.4912 75.4845C57.4686 75.4845 57.4686 75.4845 57.4686 75.4845C57.4686 75.4845 57.4912 75.4845 57.4912 75.5299C57.4459 75.666 57.5366 75.8702 57.6047 75.9836C57.7408 76.2105 57.945 76.3693 58.0811 76.6189C58.4668 77.4356 58.1492 78.8195 57.0829 78.7968C56.2662 78.7741 55.1091 77.9347 54.3151 78.4565C54.1109 78.5926 54.1336 78.8649 54.1109 79.1144C54.0882 79.4094 54.0201 79.6816 53.9067 79.9539C53.6798 80.4076 53.158 80.7479 52.9085 81.2016C52.8631 81.2697 52.8858 81.3831 52.9765 81.4285C53.1354 81.5193 53.2715 81.5646 53.0673 81.9276C53.0219 82.0184 53.0673 82.1091 53.0673 82.2226C53.0673 82.2679 52.9992 82.3587 52.9539 82.4267C52.9085 82.4721 52.9539 82.5629 53.0219 82.5629C53.1354 82.5629 53.2488 82.5402 53.2942 82.5856C53.3395 82.6082 53.4076 82.6536 53.453 82.6763C53.5891 82.767 53.816 82.8351 53.9294 82.9485C54.1109 83.1527 54.0428 83.5157 54.4285 83.4477C54.7234 83.3796 54.8823 83.2435 55.1999 83.3115C55.3814 83.3569 55.5402 83.425 55.699 83.4703C55.9485 83.5384 56.13 83.4703 56.3342 83.3569C56.6518 83.1981 56.9241 82.9712 57.219 82.767C57.4459 82.6309 57.6727 82.4721 57.8996 82.3133C57.9223 82.1318 57.8542 81.9503 57.9223 81.7688C57.9904 81.5873 58.1265 81.4058 58.2399 81.247C58.4895 80.9748 58.8071 80.8613 59.1247 80.7025C59.5104 80.4983 59.7373 80.2488 59.8507 79.8404C59.9188 79.5682 60.0322 79.3867 60.3271 79.2733C60.7128 79.1371 60.985 79.2733 61.348 79.4321C61.7564 79.5909 62.0967 79.1371 62.4597 79.001C62.7093 78.9103 63.0496 78.7741 63.3218 78.933C63.526 79.0691 63.5487 79.3186 63.6167 79.5228C63.889 80.3395 64.7738 80.7933 65.409 81.2924C65.9081 81.6781 66.203 82.0411 66.3845 82.6763C66.4299 82.8578 66.4753 83.0166 66.5433 83.1981C66.6114 83.4023 66.6795 83.3569 66.7929 83.1981C66.9063 83.0166 66.861 83.0166 66.8383 82.7897C66.8156 82.6536 66.7929 82.4948 66.8383 82.3587C66.9063 82.1091 67.1332 81.9049 67.4054 81.9503C67.5189 81.973 67.5643 82.0637 67.655 82.0864C67.6777 82.0864 67.6777 82.0864 67.6777 82.1091C67.6777 82.1091 67.6777 82.0864 67.6777 82.0637C67.7004 81.973 67.7004 81.9503 67.655 81.8596C67.5416 81.61 67.2013 81.4285 66.9744 81.2924C66.7022 81.1336 66.4299 80.9748 66.1577 80.816C65.6132 80.4757 65.0687 80.0446 64.8645 79.4094C64.7511 79.0691 64.683 78.3658 65.1821 78.275C65.5905 78.1843 65.9989 78.6153 66.2711 78.8649C66.6341 79.1825 66.9517 79.5682 67.3601 79.8404C67.9726 80.2488 68.6079 80.4983 68.812 81.2924C68.9028 81.6781 68.812 82.1772 69.107 82.4948C69.2431 82.6309 69.4473 82.7444 69.6061 82.8351C70.0825 83.0847 70.6497 83.3342 71.1942 83.3569C71.2395 83.3569 71.353 83.3796 71.3984 83.3569C71.3984 83.3569 71.3757 83.3115 71.3757 83.2888C71.2849 83.13 71.0354 83.0393 70.8992 82.9259C70.5362 82.6763 70.264 82.336 70.4455 81.8596C70.6724 81.3378 71.2395 81.179 71.7613 81.1109C72.3058 81.0428 72.873 81.0428 73.4175 81.1109C73.6897 81.1563 73.7805 81.4966 73.5309 81.6327C73.3494 81.7234 73.1679 81.7461 72.9864 81.7915C72.873 81.8142 72.6461 81.7688 72.6234 81.9049C72.6008 82.0411 72.2378 81.9957 72.2151 82.1318C72.1924 82.2679 72.6461 82.4948 72.7369 82.699C72.8503 82.9032 72.9411 83.1073 73.0091 83.3342C73.0545 83.5611 73.0318 83.788 73.0772 84.0148C73.1679 84.4005 73.4856 84.2871 73.8032 84.3098C74.03 84.3324 74.2569 84.5366 74.4611 84.4913C74.7333 84.4232 74.9375 84.1736 75.2098 84.1283C75.4139 84.0829 75.9131 84.4459 76.1172 84.4232C76.8659 84.3324 77.0928 83.6518 77.5919 83.9468C77.6826 83.9921 77.7507 84.0602 77.8414 84.1509C78.2725 84.6727 78.2498 85.5122 78.1364 86.1247C78.0229 86.8053 77.7507 87.554 77.0474 87.8035C76.6617 87.9397 76.2534 87.917 75.8677 87.985C75.3686 88.0531 74.9829 88.3253 74.5291 88.4842C73.6217 88.8018 72.5327 88.3253 71.6933 87.917C71.2849 87.7128 70.9673 87.4179 70.6043 87.1683C70.2186 86.8961 69.8103 86.8053 69.3338 86.828C69.107 86.828 68.7667 86.8507 68.5852 87.0549C68.4264 87.2364 68.5171 87.3952 68.5398 87.5994C68.5852 87.9624 68.4717 88.348 68.1995 88.5976C67.5869 89.1194 66.5887 88.7564 66.0669 88.28C65.8174 88.0531 65.7266 87.7355 65.4997 87.5313C65.2275 87.2591 64.7738 87.2364 64.4108 87.191C63.7982 87.1002 63.0496 86.9868 62.8 86.3516C62.6639 86.0113 63.3445 85.7163 63.4579 85.4214C63.5487 85.1492 63.0722 84.8769 63.2084 84.6274C63.2991 84.4913 63.5487 84.3324 63.6394 84.1963C63.7302 84.0602 63.2764 84.1509 63.5487 83.788C63.7302 83.5611 62.9134 83.6972 62.6866 83.7426C61.643 83.9468 60.5994 84.2644 59.5104 84.2417C58.9205 84.219 58.3307 84.219 57.7408 84.2417C57.1509 84.2644 56.5611 84.4005 55.9712 84.4005C55.4494 84.4232 54.7688 84.6047 54.5193 84.1736C54.179 83.5838 53.9067 84.1056 53.6572 84.3778C53.3169 84.7408 52.9539 84.9223 52.5001 85.1038C51.9783 85.3307 51.7515 85.671 51.6153 86.2155C51.5246 86.6465 51.4338 87.0549 51.1389 87.4179C50.8893 87.7355 50.549 87.8943 50.2087 88.0758C49.3013 88.5295 48.598 89.1875 47.872 89.8681C47.7132 90.9343 46.0797 91.5015 45.9436 92.6132C45.8302 93.566 46.2158 94.4735 46.0343 95.4264C45.8755 96.3112 45.4672 97.0598 45.694 97.9673C45.8982 98.8294 46.1251 99.6915 46.4654 100.508C46.783 101.325 47.2367 101.983 47.7359 102.709C48.0989 103.231 48.3711 103.821 48.7568 104.32C49.2786 104.978 50.0046 105.114 50.7986 105.114C51.275 105.114 51.7515 105.068 52.2279 105.114C52.6136 105.159 52.9992 105.272 53.3849 105.318C54.247 105.431 55.0184 104.955 55.8578 104.796C56.5611 104.683 57.219 104.796 57.7181 105.318C58.1719 105.794 58.4214 106.271 59.0793 106.498C59.9414 106.793 61.0758 106.724 61.4615 107.723C61.711 108.313 61.6203 108.993 61.5749 109.606C61.5295 110.286 61.6883 110.763 62.1648 111.285C62.6866 111.829 63.231 112.351 63.6621 112.963C63.9343 113.349 64.2293 113.871 64.2293 114.37C66.1577 114.778 68.1768 115.005 70.2413 115.005C74.3703 115.005 78.2725 114.143 81.8117 112.578C81.9024 112.169 81.9478 111.784 82.1293 111.398ZM77.9549 80.8613C77.5919 80.8387 77.2743 80.816 77.0247 80.5437C76.9793 80.4984 76.7978 80.4076 76.7525 80.4076C76.4575 80.3849 76.1626 80.3169 75.8677 80.4757C75.5047 80.6572 75.3005 80.9748 74.8921 81.0655C74.4838 81.1563 73.8032 81.179 73.5082 80.8387C73.2133 80.7252 72.9864 80.5437 72.9411 80.158C72.9184 79.9085 73.0091 79.727 73.1226 79.5228C73.2587 79.2506 73.2133 79.001 73.3041 78.7061C73.3721 78.4565 73.599 78.4338 73.6897 78.207C73.8032 77.9801 73.8032 77.7532 73.9847 77.5944C74.325 77.2768 74.8468 77.3222 75.2551 77.3676C75.3686 77.3902 75.482 77.481 75.4593 77.6171C75.4593 77.7079 75.4366 77.7986 75.3913 77.8893C75.3686 77.9574 75.2324 78.0708 75.2098 78.1389C75.1871 78.2523 75.482 78.4338 75.5728 78.5473C75.7089 78.7515 75.7542 78.8422 76.0038 78.7288C76.1853 78.638 76.3441 78.5246 76.5256 78.4112C76.7752 78.2523 77.0928 78.0708 77.4104 78.1616C77.6373 78.207 77.7961 78.3885 77.9776 78.5246C78.1818 78.6834 78.4086 78.8195 78.6128 78.933C79.1573 79.2052 80.6773 79.4321 80.0875 80.4303C79.7471 80.9975 78.5674 80.9067 77.9549 80.8613Z" fill="#119499"/>
<path d="M44.7866 74.8947C45.3311 74.7132 45.3765 74.3048 45.9209 74.3502C46.5108 74.3955 47.441 74.1914 47.804 73.6923C48.1669 73.2158 48.8476 72.0588 48.2804 71.9227C46.9192 71.6277 49.0064 71.0379 49.4147 70.4707C49.8912 69.8355 50.1407 68.928 50.7306 68.4062C50.9574 68.2247 51.1843 68.0432 51.3885 67.839C51.4339 67.8163 51.5019 67.7029 51.57 67.6348C51.4792 67.6348 51.4339 67.6122 51.4792 67.6122C51.2977 67.6122 51.0936 67.4987 51.0936 67.2945C51.0709 66.7274 51.0028 65.8653 51.3431 65.3661C49.6643 66.7047 48.1443 68.2247 46.7377 69.8582C44.6051 72.9209 43.0624 76.4147 42.2683 80.1807C43.5388 79.2279 43.8791 75.2123 44.7866 74.8947Z" fill="#119499"/>
<path d="M62.8681 58.9684C62.5051 59.3994 61.7111 59.2179 61.2346 59.286C60.2137 59.3994 59.3516 60.1481 58.5122 60.6926C57.6047 61.2824 56.6292 61.8042 55.6083 62.1899C55.0865 62.3941 54.542 62.5529 54.0429 62.8251C53.7026 63.0066 53.3849 63.2562 53.0673 63.5057C52.5909 63.8687 51.933 64.3452 51.7061 64.935C51.6607 65.0711 51.7969 65.2073 51.933 65.1392C52.9539 64.6174 53.9067 63.9595 55.0184 63.5738C55.6309 63.3469 56.2435 63.3016 56.8787 63.3242C57.4686 63.3469 58.0811 63.2108 58.6256 62.9386C59.6465 62.4395 60.7809 61.9857 61.6884 61.3278C62.2782 60.8967 62.8908 60.443 63.5714 60.2161C63.7983 60.1481 64.0932 60.08 64.3201 60.2161C64.5469 60.3749 64.5469 60.6699 64.4108 60.8741C64.2293 61.1463 63.9344 61.3278 63.7302 61.5773C63.6394 61.6908 63.5487 61.8042 63.7302 61.8269C63.889 61.8496 64.1612 61.6227 64.2747 61.5547C65.3183 60.8967 66.5661 60.7833 67.6097 60.1934C68.1315 59.8985 68.6306 59.5128 69.1977 59.286C69.4927 59.1498 69.7876 59.0591 70.0599 58.923C70.3094 58.8095 70.5363 58.6734 70.7858 58.5827C71.3984 58.3558 71.9882 58.5373 72.6235 58.4692C72.7369 58.4466 73.0999 58.56 73.4175 58.6507C73.531 58.6734 73.6217 58.5146 73.5083 58.4465C73.2814 58.2651 73.0092 58.0609 73.0092 58.0155C72.9865 57.9021 72.9638 57.8113 72.9865 57.7433C72.1244 57.6752 71.2396 57.6298 70.3548 57.6298C67.7912 57.6298 65.2956 57.9701 62.9135 58.6054C63.0042 58.6507 63.0042 58.7869 62.8681 58.9684Z" fill="#119499"/>
<path d="M56.4251 73.3292C56.5612 73.2838 56.6746 73.2611 56.8107 73.2385C57.2645 73.1931 57.7182 73.3065 57.877 72.762C57.9678 72.5125 58.0131 72.3083 58.1719 72.1041C58.2173 71.9907 58.2627 71.8772 58.3081 71.7638C58.4442 71.4235 58.4215 71.2647 58.0131 71.242C57.6048 71.2193 57.2418 71.4235 57.0149 71.7411C56.8334 71.9907 56.7881 72.3083 56.5612 72.5579C56.3797 72.7393 55.994 72.9208 55.9486 73.2158C55.9259 73.5107 56.2436 73.3746 56.4251 73.3292Z" fill="#119499"/>
<path d="M58.3081 73.4426C58.3308 73.5333 58.3308 73.6467 58.3081 73.7602C58.2627 73.9644 58.1266 74.0778 57.9678 74.1912C57.8544 74.2593 57.7409 74.3274 57.6502 74.4181C57.6275 74.4408 57.5367 74.5088 57.5141 74.5315C57.4914 74.5542 57.4914 74.5769 57.4914 74.5769C57.4914 74.5769 57.5141 74.5769 57.5367 74.5996C57.6729 74.6903 58.1266 74.5315 58.2854 74.5088C58.9206 74.3954 59.5332 74.4408 60.1684 74.4181C60.1911 74.4181 60.2138 74.4181 60.2365 74.4181C60.3499 74.3274 60.4634 74.2139 60.5768 74.1232C60.5995 74.0778 60.6448 74.0324 60.6675 74.0097C60.7583 73.8963 60.9171 73.7148 60.8944 73.5787C60.8717 73.3972 60.6448 73.3518 60.5541 73.2384C60.3953 73.0569 60.3726 72.8527 60.3046 72.6258C60.1911 72.2175 60.1457 71.8091 60.055 71.4007C60.0096 71.2192 60.0323 71.0831 60.1684 70.947C60.2365 70.8789 60.3272 70.8336 60.3953 70.7655C60.5995 70.584 60.6675 70.4706 60.486 70.2437C60.3499 70.0622 60.1457 69.9715 60.2138 69.6992C60.2592 69.495 60.486 69.2001 60.1231 69.2228C59.8735 69.2455 59.5332 69.3362 59.329 69.4723C59.0568 69.6765 59.1929 70.1076 59.2156 70.4025C59.2383 70.7882 59.1702 71.0604 59.0794 71.4007C58.9887 71.7184 59.2836 71.8318 59.329 72.1267C59.3744 72.399 59.2156 72.5578 59.0114 72.6939C58.966 72.7166 58.898 72.6939 58.8526 72.7166C58.7845 72.762 58.7391 72.83 58.6711 72.8981C58.603 72.9888 58.5577 73.0569 58.4442 73.1476C58.24 73.2838 58.2854 73.2384 58.3081 73.4426Z" fill="#119499"/>
<path d="M52.9539 32.4926C54.2244 30.6096 56.8334 28.7039 60.8036 29.0896C66.5207 29.6568 65.2276 34.1715 65.2276 34.1715C65.2276 34.1715 63.5261 36.5763 60.486 35.9864C57.083 35.3285 56.357 31.9935 52.9539 32.4926Z" fill="#119499"/>
<path d="M79.9514 36.9392C79.9514 36.9392 76.7979 33.0824 72.4647 34.2168C70.3775 34.7612 69.6061 37.5971 70.3775 38.3004C74.257 41.8169 76.934 35.8502 79.9514 36.9392Z" fill="#119499"/>
<path d="M61.938 32.2885C61.938 32.2885 64.5016 33.2867 66.1805 34.7386C68.8802 37.0527 69.2886 40.9095 69.2886 40.9095C69.2886 40.9095 68.8121 37.9375 73.1227 36.599C73.1227 36.599 70.3095 37.5065 69.8784 39.4802C69.2205 42.543 70.8086 57.1307 70.9901 59.9665C70.2641 60.7606 68.5399 60.6925 68.0862 60.0346C67.9954 57.3122 68.6079 43.3824 68.3811 40.2743C68.0861 36.3721 65.1595 33.7404 61.938 32.2885Z" fill="#922723"/>
<path d="M61.3708 44.5848C60.0095 42.4976 62.006 40.0247 60.6448 37.9148C61.5749 37.8014 62.5051 37.7107 63.4353 37.5972C64.8192 39.6844 62.8227 42.1573 64.2066 44.2672C63.2765 44.3806 62.3236 44.4714 61.3708 44.5848Z" fill="#75FBFF"/>
<path d="M63.3672 37.7786C62.5505 37.8694 61.7111 37.9601 60.8943 38.0509C62.0514 40.07 60.2818 42.4068 61.4388 44.4259C62.2783 44.3352 63.1177 44.2444 63.9571 44.1537C62.8001 42.1118 64.547 39.7751 63.3672 37.7786ZM61.8472 44.2898C61.7565 44.2898 61.643 44.2444 61.6203 44.1537C60.7582 42.2706 62.1875 40.1381 61.3027 38.255C61.2573 38.1643 61.3027 38.0962 61.3935 38.0736C61.938 38.0055 62.4824 37.9601 63.0042 37.8921C63.095 37.8921 63.2084 37.9374 63.2311 38.0282C64.1159 39.9112 62.6866 42.0438 63.5714 43.9268C63.6168 44.0175 63.5714 44.0856 63.4807 44.1083C62.9589 44.1537 62.4144 44.2217 61.8472 44.2898Z" fill="#119499"/>
<path d="M61.1893 41.2271C61.28 40.6145 61.8699 40.0474 62.5505 39.9793C63.2311 39.9112 63.7529 40.3423 63.6621 40.9548C63.5714 41.5674 62.9815 42.1346 62.3009 42.2026C61.5976 42.2934 61.0985 41.8396 61.1893 41.2271Z" fill="#119499"/>
<path d="M62.8454 38.8904C62.8228 38.7089 62.6186 38.5727 62.4371 38.5954C62.2556 38.6181 62.1421 38.7769 62.1648 38.9811C62.1875 39.1626 62.369 39.2987 62.5505 39.2987C62.732 39.2534 62.8908 39.0719 62.8454 38.8904ZM62.2783 38.9584C62.2556 38.8223 62.3463 38.7089 62.4598 38.6862C62.5959 38.6635 62.732 38.7542 62.7547 38.8904C62.7774 39.0265 62.6866 39.1399 62.5505 39.1626C62.4144 39.1853 62.301 39.0945 62.2783 38.9584Z" fill="#119499"/>
<path d="M62.0514 43.1782C62.0287 43.0194 62.1421 42.8833 62.3009 42.8833C62.4597 42.8606 62.5732 42.974 62.5959 43.1328C62.6186 43.2916 62.5278 43.4051 62.369 43.4277C62.2329 43.4277 62.0741 43.3143 62.0514 43.1782Z" fill="#119499"/>
<path d="M63.1176 43.8814C62.8908 43.3596 62.8454 42.8151 62.8681 42.2479C62.9135 42.2479 62.9588 42.2479 63.0042 42.2252C62.9815 42.7697 63.0269 43.3142 63.2538 43.8587C63.2084 43.8814 63.163 43.8814 63.1176 43.8814Z" fill="#119499"/>
<path d="M62.9135 43.8134C62.732 43.337 62.6866 42.8606 62.6866 42.3841C62.732 42.3841 62.7774 42.3841 62.8228 42.3615C62.8001 42.8606 62.8681 43.337 63.0496 43.7907C63.0043 43.7907 62.9589 43.8134 62.9135 43.8134Z" fill="#119499"/>
<path d="M62.0741 43.9949C61.8472 43.4731 61.8018 42.9286 61.8245 42.3614C61.8699 42.3614 61.9153 42.3614 61.9606 42.3387C61.9379 42.8832 61.9833 43.4277 62.2102 43.9722C62.1648 43.9949 62.1194 43.9949 62.0741 43.9949Z" fill="#119499"/>
<path d="M61.643 43.9723C61.5523 43.7454 61.5069 43.5185 61.4615 43.2917C61.4615 43.2463 61.4842 43.2236 61.5296 43.2236C61.575 43.2236 61.6204 43.2236 61.6657 43.2009C61.7111 43.2009 61.7338 43.2236 61.7565 43.269C61.8019 43.4959 61.8472 43.7227 61.938 43.9496C61.9607 43.995 61.938 44.0177 61.8926 44.0177C61.8472 44.0177 61.8019 44.0177 61.7565 44.0403C61.6884 44.0403 61.643 44.0177 61.643 43.9723Z" fill="#119499"/>
<path d="M61.9379 39.5936C61.9379 39.1852 61.8699 38.7995 61.7337 38.3912C61.7564 38.3912 61.7791 38.3912 61.7791 38.3912C61.9152 38.7769 61.9833 39.1852 61.9833 39.5936C61.9606 39.5936 61.9379 39.5936 61.9379 39.5936Z" fill="#119499"/>
<path d="M63.095 39.5029C63.095 39.0719 63.0269 38.6635 62.8681 38.2552C62.9135 38.2552 62.9815 38.2325 63.0269 38.2325C63.1857 38.6408 63.2538 39.0719 63.2538 39.4803C63.2084 39.503 63.1403 39.5029 63.095 39.5029Z" fill="#119499"/>
<path d="M61.6657 41.2045C61.6884 41.1137 61.6884 41.0457 61.7338 40.9776C61.7564 40.9096 61.8018 40.8415 61.8472 40.7734C61.8926 40.7054 61.9379 40.66 62.006 40.6146C62.0741 40.5693 62.1194 40.5466 62.1875 40.5239C62.1875 40.5919 62.1648 40.6827 62.1648 40.7508C62.0967 40.7734 62.0287 40.8188 61.9833 40.8869C61.9379 40.9549 61.8926 41.0457 61.8699 41.1591C61.8472 41.2726 61.8699 41.3633 61.8926 41.4087C61.9153 41.4767 61.9833 41.4994 62.0287 41.4767C62.0514 41.4767 62.0968 41.4767 62.1194 41.4541C62.1421 41.4541 62.1648 41.4314 62.1875 41.386C62.2102 41.3633 62.2329 41.3179 62.2556 41.2726C62.2782 41.2272 62.3009 41.1591 62.3236 41.0684C62.3463 40.9776 62.369 40.9096 62.3917 40.8415C62.4144 40.7734 62.4597 40.7054 62.4824 40.66C62.5278 40.6146 62.5732 40.5693 62.6185 40.5466C62.6639 40.5239 62.732 40.5012 62.8 40.4785C62.8454 40.4785 62.8908 40.4785 62.9362 40.5012C62.9815 40.5239 63.0269 40.5466 63.0496 40.592C63.0723 40.6373 63.1177 40.6827 63.1177 40.7508C63.1177 40.8188 63.1403 40.8869 63.1177 41.0003C63.095 41.1591 63.0496 41.2952 62.9589 41.4087C62.8681 41.5221 62.7547 41.5902 62.6412 41.6129C62.6412 41.5448 62.6639 41.4541 62.6639 41.386C62.732 41.3633 62.7774 41.3179 62.8227 41.2499C62.8681 41.1818 62.8908 41.1137 62.9135 41.023C62.9362 40.9096 62.9135 40.8415 62.8908 40.7961C62.8681 40.7508 62.8227 40.7281 62.7547 40.7281C62.732 40.7281 62.7093 40.7508 62.6866 40.7508C62.6639 40.7734 62.6412 40.7961 62.6185 40.8188C62.5959 40.8415 62.5732 40.8869 62.5732 40.9323C62.5732 40.9776 62.5278 41.0457 62.5051 41.1138C62.4824 41.2045 62.4597 41.2726 62.4371 41.3406C62.4144 41.4087 62.3917 41.4767 62.3463 41.5221C62.3009 41.5675 62.2556 41.6129 62.2102 41.6582C62.1648 41.7036 62.0968 41.7036 62.006 41.7263C61.9379 41.7263 61.8699 41.7263 61.8245 41.7036C61.7791 41.6809 61.7338 41.6355 61.7111 41.5902C61.6884 41.5448 61.6657 41.4767 61.643 41.4087C61.6203 41.3406 61.6657 41.2726 61.6657 41.2045Z" fill="#75FBFF"/>
<path d="M63.2771 40.955C63.2771 40.8869 63.2998 40.7961 63.2998 40.7281C62.71 40.7961 62.1428 40.8642 61.5529 40.9323C61.5529 41.0003 61.5302 41.0911 61.5302 41.1591C62.1201 41.0911 62.71 41.023 63.2771 40.955Z" fill="#75FBFF"/>
<path d="M63.2538 41.2725C63.2538 41.2045 63.2765 41.1137 63.2765 41.0457C62.6866 41.1137 62.1194 41.1818 61.5296 41.2498C61.5296 41.3179 61.5069 41.4086 61.5069 41.4767C62.0741 41.4086 62.6639 41.3406 63.2538 41.2725Z" fill="#75FBFF"/>
<path d="M68.4037 40.9322C68.4037 40.9322 67.2467 37.3249 63.2765 37.7787C65.1595 37.6652 68.1542 38.9811 68.4037 43.9495C68.9029 44.0403 68.7894 41.4993 68.4037 40.9322Z" fill="#922723"/>
<path d="M90.41 100.032C90.0243 101.983 95.3331 101.756 97.6245 102.028C99.9159 102.3 104.657 103.503 107.561 101.733C108.968 100.871 108.764 99.3737 102.525 98.557C98.4639 98.0125 90.7503 98.2394 90.41 100.032Z" fill="#DBDDDF"/>
<path d="M104.862 99.2149C104.635 99.2376 102.729 99.5098 102.275 98.9653C100.506 99.7594 97.4884 101.484 98.5547 101.824C100.256 102.346 104.158 101.71 104.907 101.484C105.27 101.37 105.043 100.009 104.862 99.3737C104.862 99.3737 104.862 99.2149 104.862 99.2149Z" fill="#363538"/>
<path d="M99.0084 98.3075C98.4639 98.2167 98.0783 98.1713 97.7606 97.7176C96.1952 98.6704 94.9701 98.8973 94.471 99.2149C93.9719 99.5099 93.8358 99.9863 94.2215 100.077C96.1952 100.508 99.3941 100.236 100.12 100.009C100.46 99.8955 100.37 98.9881 100.188 98.3528C99.7798 98.3755 99.3714 98.3528 99.0084 98.3075Z" fill="#262227"/>
<path d="M105.905 79.9765C105.792 76.0062 107.13 71.6503 105.202 68.9279C103.546 66.9088 96.8531 66.2509 96.5809 68.9733C96.5809 69.0414 97.3976 83.3795 97.6018 88.3706C97.7833 92.6358 97.6699 96.2884 97.6018 97.8311C98.1236 98.8293 100.324 98.8293 100.347 98.4663C100.347 98.0806 101.504 91.2292 101.277 89.2554C101.118 87.8035 101.186 85.3533 101.322 82.4493C101.481 84.4231 102.321 95.9708 102.139 99.0108C102.094 99.7595 104.998 99.5099 105.02 99.3057C105.361 97.3773 105.973 82.6762 105.905 79.9765Z" fill="#8482FF"/>
<path d="M105.996 70.7654C105.837 70.0848 105.588 69.4723 105.179 68.9051C103.523 66.8859 96.8305 66.228 96.5583 68.9505C96.5583 68.9732 96.5809 69.5857 96.649 70.6066C99.6437 71.4687 103.024 71.6956 105.996 70.7654Z" fill="#7B78BF"/>
<path d="M106.2 74.4408C106.223 73.919 106.246 73.3972 106.246 72.8754C105.565 73.0795 105.61 73.9417 104.907 74.0324C105.157 74.1685 105.497 74.1232 106.2 74.4408Z" fill="#7B78BF"/>
<path d="M100.71 76.9817C100.71 79.4092 100.052 81.1561 100.188 83.1525C100.324 85.149 101.186 88.0983 101.186 88.0983C101.118 86.7598 101.3 84.6272 101.323 82.4039C100.937 79.8402 100.914 78.0933 100.71 76.9817Z" fill="#7B78BF"/>
<path d="M85.6912 43.9722C84.2619 42.8833 85.0106 40.728 83.604 39.6617C84.1938 39.3668 84.8064 39.0718 85.3962 38.7769C86.8255 39.8432 86.0995 41.9985 87.5288 43.0874C86.9163 43.3824 86.3037 43.6773 85.6912 43.9722Z" fill="#3FCFD4"/>
<path d="M85.3962 38.913C84.8517 39.1852 84.3299 39.4348 83.7855 39.707C85.0559 40.796 84.4207 42.7924 85.6912 43.8587C86.2357 43.5865 86.7801 43.3142 87.3246 43.0647C86.0542 41.9757 86.6667 39.9793 85.3962 38.913ZM85.9407 43.6545C85.8727 43.6772 85.8046 43.6772 85.7592 43.6318C84.7156 42.5656 85.1694 40.7733 84.1258 39.7297C84.0804 39.6843 84.0804 39.6163 84.1484 39.5936C84.4888 39.4121 84.8517 39.2533 85.192 39.0718C85.2374 39.0491 85.3282 39.0491 85.3735 39.1171C86.4171 40.1834 85.9861 41.953 87.0297 43.0193C87.0751 43.0647 87.0751 43.1327 87.007 43.1554C86.6667 43.3142 86.3037 43.4957 85.9407 43.6545Z" fill="#006A6E"/>
<path d="M84.761 41.7715C84.6703 41.3405 84.9425 40.8187 85.3736 40.5918C85.8046 40.3876 86.2584 40.5464 86.3491 40.9775C86.4399 41.4085 86.1676 41.9303 85.7366 42.1572C85.3055 42.3841 84.8518 42.2026 84.761 41.7715Z" fill="#006A6E"/>
<path d="M85.3054 39.7979C85.2374 39.6844 85.0785 39.6391 84.9424 39.6844C84.829 39.7525 84.7836 39.8886 84.8517 40.0021C84.9197 40.1155 85.0559 40.1836 85.192 40.1155C85.3281 40.0474 85.3735 39.9113 85.3054 39.7979ZM84.9424 39.9794C84.8971 39.8886 84.9197 39.7979 85.0105 39.7525C85.1012 39.7071 85.2147 39.7525 85.26 39.8206C85.3054 39.9113 85.26 40.0021 85.192 40.0474C85.0786 40.0928 84.9878 40.0474 84.9424 39.9794Z" fill="#006A6E"/>
<path d="M85.8046 42.8605C85.7592 42.7698 85.8046 42.6564 85.8954 42.5883C85.9861 42.5429 86.0995 42.5883 86.1449 42.679C86.1903 42.7698 86.1676 42.8832 86.0768 42.9286C85.9861 42.9967 85.8727 42.9513 85.8046 42.8605Z" fill="#006A6E"/>
<path d="M86.6894 43.0874C86.4172 42.7925 86.2357 42.4295 86.1223 42.0438C86.1449 42.0211 86.1676 42.0211 86.213 41.9984C86.3264 42.3841 86.5079 42.7244 86.7802 43.042C86.7575 43.0647 86.7348 43.0647 86.6894 43.0874Z" fill="#006A6E"/>
<path d="M86.5533 43.0874C86.3264 42.8151 86.1676 42.4975 86.0542 42.1799C86.0769 42.1572 86.0995 42.1572 86.1449 42.1345C86.2583 42.4748 86.3945 42.7698 86.644 43.042C86.5986 43.0647 86.576 43.0647 86.5533 43.0874Z" fill="#006A6E"/>
<path d="M86.0317 43.405C85.7594 43.1101 85.6006 42.7471 85.4645 42.3614C85.4872 42.3387 85.5099 42.3387 85.5552 42.316C85.6687 42.7017 85.8275 43.042 86.1224 43.3596C86.077 43.3823 86.0543 43.405 86.0317 43.405Z" fill="#006A6E"/>
<path d="M85.7365 43.4958C85.623 43.3597 85.5323 43.2235 85.4415 43.0647C85.4188 43.042 85.4415 43.0194 85.4642 42.9967C85.4869 42.974 85.5323 42.974 85.555 42.9513C85.5776 42.9286 85.623 42.9513 85.623 42.974C85.7138 43.1328 85.8045 43.2689 85.918 43.405C85.9406 43.4277 85.9406 43.4504 85.918 43.4731C85.8953 43.4958 85.8499 43.4958 85.8272 43.5185C85.7818 43.5412 85.7365 43.5185 85.7365 43.4958Z" fill="#006A6E"/>
<path d="M84.8744 40.4784C84.7609 40.2062 84.6475 39.9566 84.4433 39.7298C84.466 39.7298 84.466 39.7071 84.4887 39.7071C84.6702 39.934 84.8063 40.1835 84.9198 40.4558C84.8971 40.4784 84.8744 40.4784 84.8744 40.4784Z" fill="#006A6E"/>
<path d="M85.6231 40.1381C85.5096 39.8432 85.3735 39.5936 85.1693 39.3441C85.192 39.3214 85.2374 39.3214 85.2601 39.2987C85.4642 39.5256 85.6004 39.7978 85.7138 40.0927C85.6911 40.1154 85.6684 40.1154 85.6231 40.1381Z" fill="#006A6E"/>
<path d="M85.0786 41.6354C85.0559 41.5673 85.0559 41.522 85.0559 41.4539C85.0559 41.3858 85.0786 41.3405 85.0786 41.2951C85.1013 41.2497 85.124 41.2043 85.1467 41.159C85.1694 41.1136 85.2148 41.0909 85.2601 41.0455C85.2828 41.0909 85.2828 41.159 85.3055 41.2043C85.2601 41.2497 85.2374 41.2951 85.2148 41.3405C85.1921 41.4085 85.1921 41.4766 85.2148 41.5446C85.2374 41.6127 85.2601 41.6808 85.2828 41.7035C85.3282 41.7261 85.3509 41.7488 85.3962 41.7261C85.4189 41.7261 85.4416 41.7035 85.4416 41.6808C85.4416 41.6581 85.4643 41.6581 85.4643 41.6127C85.4643 41.59 85.487 41.5673 85.487 41.522C85.487 41.4766 85.487 41.4312 85.487 41.3631C85.487 41.2951 85.487 41.2497 85.487 41.1817C85.487 41.1363 85.487 41.0909 85.5097 41.0455C85.5324 41.0002 85.5324 40.9548 85.5777 40.9321C85.6004 40.9094 85.6458 40.864 85.6912 40.8414C85.7139 40.8187 85.7592 40.8187 85.7819 40.8187C85.8046 40.8187 85.85 40.8187 85.8727 40.8414C85.8954 40.864 85.9407 40.8867 85.9634 40.9321C85.9861 40.9775 86.0088 41.0228 86.0315 41.0909C86.0542 41.2043 86.0542 41.3178 86.0088 41.4085C85.9861 41.4993 85.918 41.5673 85.85 41.6354C85.8273 41.59 85.8273 41.522 85.8046 41.4766C85.85 41.4539 85.8727 41.4085 85.8954 41.3405C85.918 41.2951 85.918 41.227 85.8954 41.159C85.8727 41.0909 85.85 41.0455 85.8273 41.0228C85.8046 41.0002 85.7592 41.0002 85.7365 41.0228C85.7139 41.0228 85.6912 41.0455 85.6912 41.0682C85.6685 41.0909 85.6685 41.0909 85.6685 41.1363C85.6685 41.1817 85.6685 41.1817 85.6685 41.227C85.6685 41.2724 85.6685 41.2951 85.6685 41.3631C85.6685 41.4312 85.6685 41.4766 85.6685 41.5446C85.6685 41.59 85.6685 41.6581 85.6458 41.7035C85.6458 41.7488 85.6231 41.7942 85.5777 41.8169C85.5324 41.8396 85.5097 41.885 85.4643 41.9076C85.4189 41.9303 85.3736 41.9303 85.3282 41.9303C85.2828 41.9303 85.2601 41.9076 85.2148 41.885C85.1921 41.8623 85.1467 41.8169 85.124 41.7942C85.1013 41.7488 85.1013 41.6808 85.0786 41.6354Z" fill="#3FCFD4"/>
<path d="M86.0995 41.0684C86.0768 41.023 86.0768 40.9549 86.0541 40.9095C85.6684 41.091 85.3054 41.2725 84.9198 41.454C84.9425 41.4994 84.9425 41.5675 84.9651 41.6128C85.3508 41.4313 85.7365 41.2499 86.0995 41.0684Z" fill="#3FCFD4"/>
<path d="M86.1676 41.2952C86.1449 41.2499 86.1449 41.1818 86.1222 41.1364C85.7365 41.3179 85.3735 41.4994 84.9879 41.6809C84.9879 41.7263 85.0105 41.7943 85.0332 41.8397C85.3962 41.6809 85.7819 41.4994 86.1676 41.2952Z" fill="#3FCFD4"/>
<path d="M96.6036 51.7992C96.8985 51.527 95.9456 51.2774 92.3384 46.9215C91.6805 46.1502 89.2757 43.337 89.0488 42.9967C88.7312 42.5203 88.8219 41.4994 88.6858 41.159C88.5497 40.8187 86.3718 39.9793 86.1676 39.934C85.9634 39.8886 85.85 40.1381 86.0088 40.2969C86.0088 40.2969 85.9861 41.2271 86.0088 41.454C86.0315 41.6808 86.8709 42.0665 87.0524 42.3615C87.2339 42.6564 87.37 43.4051 87.5969 43.6319C87.7557 43.7907 87.9598 43.8588 88.1413 44.0403C88.1867 44.063 88.9127 45.7645 90.2512 47.5114C90.705 48.1239 91.4309 48.7592 91.6351 49.0768C93.0417 51.2094 94.1761 52.9336 94.6979 53.6142C95.2197 54.2948 96.3086 52.0715 96.6036 51.7992Z" fill="#FFD2B3"/>
<path d="M94.8113 49.7347C94.5391 50.5968 94.0173 51.4363 93.5182 51.9581C94.0173 52.7067 94.4256 53.2966 94.6752 53.6142C95.2197 54.2948 96.3087 52.0715 96.5809 51.7993C96.8078 51.5951 96.3767 51.4136 94.8113 49.7347Z" fill="#FFB98B"/>
<path d="M87.5969 41.6127L85.9861 41.1363C85.9861 40.7733 85.9861 40.3196 85.9861 40.3196C85.8273 40.1608 85.9407 39.9112 86.1449 39.9566C86.2583 39.9793 87.1204 40.2969 87.801 40.6372C87.6196 40.8868 87.5742 41.2498 87.5969 41.6127Z" fill="#FFB98B"/>
<path d="M106.336 61.0328C106.472 61.1236 107.13 62.1672 107.539 62.7797C107.97 62.9612 109.581 61.4185 110.012 60.8059C109.149 59.1044 107.766 57.2895 107.312 56.7677C106.609 55.9509 104.34 54.1133 101.481 53.6595C100.165 53.4554 98.6681 53.1831 98.3732 53.047C97.6699 52.7294 95.7188 50.3699 95.3558 50.3019C95.1062 50.801 94.5844 52.253 94.3576 53.7049C95.197 55.7467 96.8078 57.4029 97.0119 57.9247C97.3296 58.6734 96.3087 65.1845 96.3994 68.9732C97.6472 70.0395 103.659 70.0168 105.202 68.9506C104.93 64.8896 106.314 61.5092 106.336 61.0328Z" fill="#F84A3E"/>
<path d="M109.807 61.1009C109.308 61.6 108.673 62.2126 107.879 62.7344C108.492 63.6418 108.832 64.3224 108.968 64.7535C109.104 65.1845 107.017 69.6085 106.631 70.4706C106.586 70.584 105.338 71.0151 104.975 71.0831C104.612 71.1512 103.16 72.036 102.774 72.2629C102.389 72.4671 102.593 72.9662 103.16 72.6939C103.727 72.4217 103.773 72.3763 103.931 72.3309C104.113 72.2856 103.16 73.0115 103.001 73.2157C102.843 73.4199 103.092 73.8056 103.5 73.4653C103.909 73.125 104.408 72.7847 104.544 72.7847C104.657 72.7847 104.408 72.9662 104.204 73.1704C104 73.3745 103.841 73.5787 103.727 73.6921C103.523 73.919 103.977 74.214 104.204 73.9871C104.431 73.7602 105.043 73.2838 105.179 73.2384C105.315 73.193 104.726 73.7829 104.612 73.9417C104.499 74.1005 104.884 74.3954 105.134 74.1232C105.383 73.851 106.177 73.1703 106.382 73.0342C106.586 72.8981 107.493 72.6712 107.834 72.3082C108.174 71.9453 108.129 71.3327 108.378 71.0151C108.628 70.6975 111.509 65.298 111.35 64.5493C111.237 64.0956 110.579 62.6209 109.807 61.1009Z" fill="#FFD2B3"/>
<path d="M110.17 61.8269C110.057 61.5773 109.944 61.3504 109.807 61.1009C109.308 61.6 108.673 62.2126 107.879 62.7344C108.083 63.052 108.265 63.3469 108.423 63.6191C108.855 62.8932 109.467 62.2579 110.17 61.8269Z" fill="#FFB98B"/>
<path d="M85.8273 43.4959C84.5568 41.9759 85.8954 39.8433 84.6022 38.3233C85.3282 38.1418 86.0315 37.9829 86.7575 37.8015C88.0506 39.3215 86.7348 41.4541 88.0279 42.9514C87.2793 43.1556 86.5533 43.3371 85.8273 43.4959Z" fill="#75FBFF"/>
<path d="M86.7121 37.9601C86.0768 38.119 85.4416 38.2778 84.7837 38.4139C85.8954 39.8885 84.7383 41.885 85.8273 43.3596C86.4852 43.2008 87.1204 43.042 87.7784 42.8832C86.6894 41.4313 87.8464 39.4121 86.7121 37.9601ZM86.1676 43.2235C86.0995 43.2462 86.0088 43.2008 85.9634 43.1328C85.1013 41.7489 86.0088 39.9112 85.1467 38.5273C85.1013 38.4593 85.124 38.3912 85.1921 38.3912C85.6004 38.3005 86.0315 38.187 86.4398 38.0963C86.5079 38.0736 86.5986 38.119 86.644 38.187C87.5288 39.5709 86.6213 41.4086 87.5061 42.7925C87.5515 42.8605 87.5288 42.9286 87.4607 42.9286C87.007 43.0193 86.5986 43.1328 86.1676 43.2235Z" fill="#119499"/>
<path d="M85.3282 40.8867C85.3508 40.3876 85.7365 39.8885 86.2583 39.7751C86.7801 39.639 87.2339 39.9339 87.2339 40.433C87.2339 40.9321 86.8255 41.4312 86.3037 41.5447C85.7819 41.6808 85.3282 41.3859 85.3282 40.8867Z" fill="#119499"/>
<path d="M86.4171 38.8904C86.3717 38.7543 86.2129 38.6635 86.0541 38.6862C85.918 38.7316 85.8499 38.8677 85.8726 39.0038C85.918 39.14 86.0541 39.2534 86.2129 39.208C86.3717 39.1853 86.4625 39.0265 86.4171 38.8904ZM85.9634 39.0038C85.9407 38.9131 85.986 38.7996 86.0768 38.777C86.1902 38.7543 86.3037 38.8223 86.3264 38.9131C86.349 39.0038 86.3037 39.1173 86.1902 39.14C86.0995 39.1626 85.986 39.0946 85.9634 39.0038Z" fill="#119499"/>
<path d="M86.213 42.3388C86.1903 42.2254 86.2583 42.1119 86.3718 42.0892C86.4852 42.0666 86.5986 42.1346 86.6213 42.2481C86.644 42.3615 86.5986 42.4749 86.4852 42.4976C86.3718 42.5203 86.2357 42.4522 86.213 42.3388Z" fill="#119499"/>
<path d="M87.1204 42.7926C86.8936 42.4069 86.8028 41.9758 86.7574 41.5448C86.7801 41.5448 86.8255 41.5221 86.8482 41.5221C86.8936 41.9531 86.9843 42.3842 87.2112 42.7699C87.1885 42.7699 87.1431 42.7699 87.1204 42.7926Z" fill="#119499"/>
<path d="M86.9616 42.7471C86.7801 42.4068 86.6893 42.0212 86.644 41.6355C86.6666 41.6355 86.712 41.6128 86.7347 41.6128C86.7801 41.9985 86.8708 42.3615 87.0523 42.7245C87.0069 42.7245 86.9843 42.7471 86.9616 42.7471Z" fill="#119499"/>
<path d="M86.3037 42.974C86.0768 42.5883 85.9861 42.1572 85.9407 41.7262C85.9634 41.7262 86.0088 41.7035 86.0315 41.7035C86.0768 42.1345 86.1676 42.5656 86.3944 42.9513C86.3718 42.9513 86.3491 42.974 86.3037 42.974Z" fill="#119499"/>
<path d="M85.9633 42.9966C85.8726 42.8378 85.8045 42.6563 85.7592 42.4748C85.7592 42.4522 85.7592 42.4068 85.8045 42.4068C85.8499 42.4068 85.8726 42.3841 85.918 42.3841C85.9407 42.3841 85.986 42.3841 85.986 42.4295C86.0314 42.611 86.0995 42.7925 86.1902 42.9513C86.2129 42.974 86.1902 43.0193 86.1675 43.0193C86.1222 43.0193 86.0995 43.042 86.0541 43.042C86.0087 43.042 85.986 43.042 85.9633 42.9966Z" fill="#119499"/>
<path d="M85.7592 39.5483C85.7139 39.2307 85.6231 38.9131 85.487 38.6408C85.5097 38.6408 85.5097 38.6408 85.5324 38.6408C85.6912 38.9357 85.7592 39.2307 85.8046 39.5483C85.7819 39.5256 85.7819 39.5256 85.7592 39.5483Z" fill="#119499"/>
<path d="M86.6667 39.3441C86.6213 39.0038 86.5306 38.6861 86.3718 38.3912C86.4171 38.3912 86.4625 38.3685 86.4852 38.3685C86.644 38.6635 86.7348 39.0038 86.7801 39.3214C86.7574 39.3214 86.7121 39.3441 86.6667 39.3441Z" fill="#119499"/>
<path d="M85.7138 40.8187C85.7138 40.7507 85.7138 40.6826 85.7365 40.6372C85.7592 40.5692 85.7819 40.5238 85.8046 40.4784C85.8273 40.433 85.8726 40.3877 85.918 40.3423C85.9634 40.2969 86.0088 40.2742 86.0541 40.2515C86.0541 40.3196 86.0541 40.365 86.0541 40.433C86.0088 40.4557 85.9634 40.5011 85.918 40.5692C85.8726 40.6372 85.8726 40.7053 85.8726 40.796C85.8726 40.8868 85.8953 40.9548 85.918 41.0002C85.9407 41.0456 85.9861 41.0456 86.0315 41.0456C86.0541 41.0456 86.0768 41.0229 86.0995 41.0229C86.1222 41.0229 86.1449 41.0002 86.1449 40.9775C86.1676 40.9548 86.1676 40.9095 86.1903 40.8868C86.2129 40.8414 86.2129 40.796 86.2129 40.728C86.2129 40.6599 86.2356 40.5919 86.2583 40.5465C86.281 40.4784 86.3037 40.433 86.3264 40.3877C86.3491 40.3423 86.3718 40.3196 86.4171 40.2742C86.4625 40.2516 86.5079 40.2289 86.5532 40.2062C86.5986 40.2062 86.6213 40.2062 86.6667 40.2062C86.7121 40.2062 86.7347 40.2289 86.7801 40.2515C86.8028 40.2742 86.8255 40.3196 86.8482 40.365C86.8709 40.4104 86.8709 40.4784 86.8709 40.5465C86.8709 40.6826 86.8482 40.796 86.7801 40.8868C86.7121 40.9775 86.644 41.0456 86.5532 41.091C86.5532 41.0229 86.5532 40.9775 86.5532 40.9095C86.5986 40.8868 86.644 40.8414 86.6667 40.796C86.6894 40.7507 86.7121 40.6826 86.7121 40.6145C86.7121 40.5238 86.6894 40.4784 86.6667 40.433C86.644 40.4104 86.5986 40.3877 86.5532 40.3877C86.5306 40.3877 86.5079 40.4104 86.4852 40.4104C86.4625 40.433 86.4625 40.433 86.4398 40.4557C86.4171 40.4784 86.4171 40.5011 86.4171 40.5465C86.4171 40.5919 86.3944 40.6372 86.3944 40.6826C86.3944 40.7507 86.3718 40.8187 86.3491 40.8641C86.3264 40.9095 86.3264 40.9775 86.3037 41.0229C86.281 41.0683 86.2583 41.1137 86.2129 41.1363C86.1676 41.159 86.1222 41.2044 86.0541 41.2044C86.0088 41.2271 85.9634 41.2271 85.918 41.2044C85.8726 41.1817 85.85 41.159 85.8046 41.1363C85.7819 41.1137 85.7592 41.0683 85.7365 41.0002C85.7365 40.9548 85.7138 40.8868 85.7138 40.8187Z" fill="#75FBFF"/>
<path d="M86.9616 40.4784C86.9616 40.4103 86.9616 40.3649 86.9616 40.2969C86.5079 40.4103 86.0541 40.5237 85.6231 40.6145C85.6231 40.6826 85.6231 40.7279 85.6231 40.796C86.0768 40.6826 86.5079 40.5691 86.9616 40.4784Z" fill="#75FBFF"/>
<path d="M86.9616 40.728C86.9616 40.6599 86.9616 40.6146 86.9616 40.5465C86.5079 40.6599 86.0541 40.7734 85.6231 40.8641C85.6231 40.9322 85.6231 40.9776 85.6231 41.0456C86.0541 40.9549 86.5079 40.8414 86.9616 40.728Z" fill="#75FBFF"/>
<path d="M88.4363 43.1101C88.6859 43.042 88.9808 42.5429 88.5951 42.0211C88.2094 41.4993 87.7103 41.3405 87.5061 41.1817C87.2566 40.9775 87.007 40.5919 86.8255 40.5919C86.644 40.5919 86.4625 40.8868 86.7121 41.2498C86.9617 41.6128 87.3927 41.817 87.4608 42.1799C87.5061 42.5429 87.7784 43.2916 88.4363 43.1101Z" fill="#FFD2B3"/>
<path d="M100.665 54.93C100.665 54.93 99.8024 54.1133 99.7797 54.0452C99.757 53.9772 100.075 53.7957 100.075 53.7503C100.075 53.6822 99.8024 53.6595 99.7797 53.6142C99.7117 53.5234 100.483 53.2739 100.642 53.2739C100.982 53.2739 102.842 53.3646 102.842 53.3646C102.842 53.3646 103.591 54.136 103.637 54.5897C103.637 54.6351 103.137 54.499 103.024 54.5443C102.911 54.5897 102.956 54.9073 102.797 54.9527C102.638 54.9981 101.572 55.0208 101.322 55.1342C100.891 55.3157 100.733 54.9073 100.665 54.93Z" fill="white"/>
<path d="M103.092 51.8446L100.914 52.1395C100.937 52.321 100.801 53.2058 100.302 53.773C100.211 54.2721 100.801 55.0661 100.846 55.3838C101.254 55.0435 102.57 54.6578 102.911 54.136C103.001 54.0452 102.842 52.7067 103.092 51.8446Z" fill="#FFD2B3"/>
<path d="M100.37 53.6822C101.028 53.8864 102.048 53.6822 102.933 53.2966C102.933 52.8428 102.956 52.2756 103.092 51.8219L100.914 52.1168C100.937 52.2983 100.823 53.1151 100.37 53.6822Z" fill="#FFB98B"/>
<path d="M103.478 51.7313C103.478 51.7313 104.362 50.1205 104.113 49.5533C103.795 48.85 102.842 48.487 101.912 48.6232C101.141 48.7366 100.823 49.0769 100.823 50.3701C100.823 50.8011 103.478 51.7313 103.478 51.7313Z" fill="url(#paint8_linear_1667_1512)"/>
<path d="M103.16 51.5497C103.16 51.5497 103.387 51.2775 103.591 51.3909C103.818 51.5271 103.364 52.0035 103.273 52.0942C103.16 52.1623 102.979 52.2303 102.956 52.1169C102.956 52.1169 102.752 52.5026 102.547 52.7068C102.343 52.9336 101.527 53.0017 101.322 53.0017C101.05 53.0017 100.528 52.8202 100.528 52.5026C100.528 52.185 100.914 49.939 100.982 49.7802C101.05 49.6213 102.57 50.1885 103.251 49.7575C103.432 49.644 103.024 50.5969 103.092 50.7103C103.16 50.8238 103.228 50.9372 103.273 51.0279C103.319 51.1187 103.16 51.5497 103.16 51.5497Z" fill="#FFD2B3"/>
<path d="M73.3268 66.2509H63.2765C62.4144 70.8564 62.3464 82.8804 62.2102 87.191C62.0741 91.5015 61.6431 102.573 61.6431 102.936C61.6431 102.936 63.6168 103.752 64.978 103.253C64.978 103.253 66.0897 94.4735 66.3619 92.2275C66.6342 89.8227 67.7912 79.8858 68.0408 79.8631C68.2903 79.8631 69.5381 90.8436 69.6289 92.046C69.7196 93.2711 70.4683 102.732 70.559 103.208C70.559 103.208 72.2832 103.571 73.7579 102.822C73.7579 102.822 73.9167 92.5905 73.8033 89.9588C73.6671 87.3044 73.826 73.6469 73.3268 66.2509Z" fill="url(#paint9_linear_1667_1512)"/>
<path d="M73.6671 76.0744C73.6217 72.5125 73.531 68.9507 73.3495 66.2509H63.2992C62.9135 68.3381 62.6866 71.9226 62.5505 75.6206C64.184 76.2559 70.6951 77.0499 73.6671 76.0744Z" fill="url(#paint10_linear_1667_1512)"/>
<path d="M70.786 103.117C70.5818 103.48 70.5591 104.841 70.5591 105.046C70.5591 105.477 72.6009 105.522 73.4857 105.227C74.5747 104.864 75.1418 104.637 75.3233 104.342C75.5048 104.047 74.983 103.389 74.3932 103.253C73.8033 103.117 73.7579 102.913 73.5538 102.595C73.3496 102.278 71.0128 102.754 70.786 103.117Z" fill="#262227"/>
<path d="M64.8419 103.072C65.0688 103.412 65.1142 104.796 65.1369 105C65.1369 105.431 63.095 105.545 62.2102 105.273C61.1213 104.955 60.5314 104.728 60.3499 104.456C60.1684 104.161 60.6675 103.503 61.2347 103.344C61.8019 103.208 61.8473 102.981 62.0514 102.664C62.2783 102.369 64.6377 102.732 64.8419 103.072Z" fill="#262227"/>
<path d="M69.6969 51.7313C69.6969 51.7313 70.0145 51.4818 70.196 51.686C70.3775 51.8901 70.0372 52.48 69.7423 52.7069C69.4247 52.9337 69.2432 52.3893 69.6969 51.7313Z" fill="#FFD2B3"/>
<path d="M66.4073 51.7313C66.4073 51.7313 66.0897 51.4818 65.9082 51.686C65.7267 51.8901 66.067 52.48 66.362 52.7069C66.6796 52.9337 66.8611 52.3893 66.4073 51.7313Z" fill="#FFD2B3"/>
<path d="M69.8557 49.4626C69.5154 48.8501 68.7668 48.5778 68.0635 48.5778C67.3602 48.5778 66.6115 48.8501 66.2712 49.4626C65.9309 50.0752 66.0897 51.7767 66.4754 52.48C66.8611 53.1833 66.9518 53.9773 66.9518 53.9773L68.0635 54.0227L69.1751 53.9773C69.1751 53.9773 69.2659 53.1833 69.6516 52.48C70.0145 51.7767 70.196 50.0752 69.8557 49.4626Z" fill="url(#paint11_linear_1667_1512)"/>
<path d="M66.0217 54.6352C66.0217 54.6352 66.6342 53.5462 68.1316 53.5235C69.6289 53.5008 70.3776 54.7032 70.3776 54.7032C70.3776 54.7032 66.7023 55.1797 66.0217 54.6352Z" fill="#FBFBFB"/>
<path d="M68.1315 54.5217C70.1507 54.5217 72.374 54.9755 73.6898 55.4519C74.8242 55.8376 73.8713 59.2633 73.7352 60.806C73.6218 62.0311 73.9621 68.3154 74.1436 71.3101C74.2116 72.1722 73.5537 72.9208 72.6916 72.9889C70.6271 73.1477 66.9064 73.2838 63.6168 72.7394C62.8228 72.6032 62.2556 71.8772 62.3237 71.0605C62.4371 69.4951 62.6186 66.9542 62.732 65.3207C62.8908 62.8252 61.1213 55.8149 62.1875 55.2023C62.664 54.9301 66.1124 54.5217 68.1315 54.5217Z" fill="#75C4FB"/>
<path d="M52.3868 46.8535C52.3868 46.8535 52.3641 46.3771 52.3868 45.9914C52.4094 45.6057 52.8405 45.6738 52.8632 46.0141C52.8859 46.3544 52.9086 46.6947 52.9766 46.8762C53.0447 47.0577 53.2489 47.2392 53.2489 47.466C53.2489 47.6929 53.2489 48.1693 53.2035 48.4643C53.1581 48.7592 53.5211 49.5532 53.6799 50.1431C53.6799 50.1431 52.9086 50.5515 52.4094 50.5515C52.4094 50.5515 52.2733 49.2583 52.0011 48.5777C51.7288 47.8971 51.139 46.3317 51.139 45.946C51.139 44.9705 51.139 44.5167 51.2524 44.4033C51.3658 44.2672 51.5927 44.4033 51.6608 44.5621C51.7515 44.789 51.7062 45.5603 51.7515 45.7645C51.7969 45.946 52.228 46.6947 52.3868 46.8535Z" fill="#FFD2B3"/>
<path d="M52.2733 51.3003C52.2733 51.3003 52.1599 50.7558 52.1599 50.4608C52.1599 50.2793 53.5892 49.6214 53.7707 49.871C53.8841 50.0525 54.0656 50.5062 54.0656 50.5062C54.0656 50.5062 52.7044 51.4137 52.2733 51.3003Z" fill="#FBFBFB"/>
<path d="M62.1649 55.2251C62.1649 55.2251 58.535 55.9965 57.5594 55.5654C56.5839 55.1344 54.3606 50.6877 54.111 50.3247C53.9068 50.0525 52.228 50.4382 52.0692 51.4137C52.1826 52.2758 55.0185 58.3332 55.2227 58.6508C55.4269 58.9685 61.4389 59.5583 62.732 59.15C64.0252 58.7643 62.6413 55.2705 62.1649 55.2251Z" fill="#75C4FB"/>
<path d="M82.6512 46.8536C82.6512 46.8536 82.6739 46.3772 82.6512 45.9915C82.6285 45.6058 82.1975 45.6739 82.1748 46.0142C82.1521 46.3545 82.1294 46.6948 82.0613 46.8763C81.9933 47.0578 81.7891 47.2393 81.7891 47.4662C81.7891 47.693 81.7891 48.1695 81.8345 48.4644C81.8798 48.7593 81.5168 49.5534 81.358 50.1432C81.358 50.1432 82.1294 50.5516 82.6285 50.5516C82.6285 50.5516 82.7646 49.2584 83.0369 48.5778C83.3091 47.8972 83.899 46.3318 83.899 45.9461C83.899 44.9706 83.899 44.5169 83.7855 44.4034C83.6721 44.2673 83.4452 44.4034 83.3772 44.5622C83.2864 44.7891 83.3318 45.5605 83.2864 45.7646C83.241 45.9688 82.81 46.6948 82.6512 46.8536Z" fill="#FFD2B3"/>
<path d="M82.7647 51.3003C82.7647 51.3003 82.8781 50.7558 82.8781 50.4609C82.8781 50.2794 81.4488 49.6215 81.2673 49.871C81.1539 50.0525 80.9724 50.5063 80.9724 50.5063C80.9724 50.5063 82.3336 51.4138 82.7647 51.3003Z" fill="#FBFBFB"/>
<path d="M72.8731 55.2251C72.8731 55.2251 76.503 55.9965 77.4785 55.5654C78.4541 55.1344 80.6774 50.6877 80.927 50.3247C81.1311 50.0525 82.81 50.4382 82.9688 51.4137C82.8554 52.2758 80.0195 58.3332 79.8153 58.6508C79.6111 58.9685 73.5991 59.5583 72.3059 59.15C71.0128 58.7643 72.3967 55.2705 72.8731 55.2251Z" fill="#75C4FB"/>
<defs>
<linearGradient id="paint0_linear_1667_1512" x1="27.8003" y1="41.3019" x2="42.3866" y2="41.3019" gradientUnits="userSpaceOnUse">
<stop offset="0.039924" stop-color="#3D2035"/>
<stop offset="1" stop-color="#3D2035"/>
</linearGradient>
<linearGradient id="paint1_linear_1667_1512" x1="34.3728" y1="34.7443" x2="34.8556" y2="34.7443" gradientUnits="userSpaceOnUse">
<stop offset="0.039924" stop-color="#3D2035"/>
<stop offset="1" stop-color="#3D2035"/>
</linearGradient>
<linearGradient id="paint2_linear_1667_1512" x1="41.8144" y1="39.0272" x2="43.2186" y2="39.5628" gradientUnits="userSpaceOnUse">
<stop offset="0.039924" stop-color="#3D2035"/>
<stop offset="1" stop-color="#3D2035"/>
</linearGradient>
<linearGradient id="paint3_linear_1667_1512" x1="46.6617" y1="44.9223" x2="48.1938" y2="46.7022" gradientUnits="userSpaceOnUse">
<stop offset="0.039924" stop-color="#3D2035"/>
<stop offset="1" stop-color="#3D2035"/>
</linearGradient>
<linearGradient id="paint4_linear_1667_1512" x1="47.447" y1="45.196" x2="48.6063" y2="46.5427" gradientUnits="userSpaceOnUse">
<stop offset="0.039924" stop-color="#2B1726"/>
<stop offset="1" stop-color="#2B1726"/>
</linearGradient>
<linearGradient id="paint5_linear_1667_1512" x1="48.0153" y1="45.8827" x2="48.4758" y2="45.8827" gradientUnits="userSpaceOnUse">
<stop offset="0.039924" stop-color="#3D2035"/>
<stop offset="1" stop-color="#3D2035"/>
</linearGradient>
<linearGradient id="paint6_linear_1667_1512" x1="27.5059" y1="33.6227" x2="35.3617" y2="33.6227" gradientUnits="userSpaceOnUse">
<stop offset="0.039924" stop-color="#3D2035"/>
<stop offset="1" stop-color="#3D2035"/>
</linearGradient>
<linearGradient id="paint7_linear_1667_1512" x1="39.3249" y1="85.7975" x2="101.235" y2="85.7975" gradientUnits="userSpaceOnUse">
<stop offset="0.039924" stop-color="#3D2035"/>
<stop offset="1" stop-color="#3D2035"/>
</linearGradient>
<linearGradient id="paint8_linear_1667_1512" x1="104.014" y1="50.6167" x2="100.98" y2="49.1887" gradientUnits="userSpaceOnUse">
<stop offset="0.039924" stop-color="#3D2035"/>
<stop offset="1" stop-color="#3D2035"/>
</linearGradient>
<linearGradient id="paint9_linear_1667_1512" x1="61.3517" y1="84.8529" x2="73.7922" y2="84.6576" gradientUnits="userSpaceOnUse">
<stop offset="0.039924" stop-color="#3D2035"/>
<stop offset="1" stop-color="#3D2035"/>
</linearGradient>
<linearGradient id="paint10_linear_1667_1512" x1="61.1207" y1="71.4702" x2="73.5821" y2="71.2745" gradientUnits="userSpaceOnUse">
<stop offset="0.039924" stop-color="#2E1828"/>
<stop offset="1" stop-color="#2E1828"/>
</linearGradient>
<linearGradient id="paint11_linear_1667_1512" x1="66.0759" y1="51.2928" x2="70.0336" y2="51.2928" gradientUnits="userSpaceOnUse">
<stop offset="0.039924" stop-color="#3D2035"/>
<stop offset="1" stop-color="#3D2035"/>
</linearGradient>
</defs>
</svg>
