<svg width="130" height="130" viewBox="0 0 130 130" fill="none" xmlns="http://www.w3.org/2000/svg">
<circle cx="66.5789" cy="66.5789" r="58.4211" fill="#C2EAFC"/>
<circle cx="113.947" cy="11.3158" r="6.31579" fill="#AAE5FF"/>
<circle cx="11.3158" cy="91.8422" r="6.31579" fill="#AAE5FF"/>
<circle r="3.15789" transform="matrix(1 0 0 -1 14.4737 69.7369)" fill="white"/>
<circle r="2.36842" transform="matrix(1 0 0 -1 108.421 40.5263)" fill="white"/>
<circle cx="120.263" cy="101.316" r="3.15789" fill="#FDD1A3"/>
<circle cx="104.474" cy="8.1579" r="1.57895" fill="#AAE5FF"/>
<circle cx="119.474" cy="26.3158" r="2.36842" fill="#E40C57"/>
<circle cx="75.4999" cy="58.5" r="28.5" fill="#D8F1FD"/>
<path fill-rule="evenodd" clip-rule="evenodd" d="M98.896 120.706C98.7663 120.603 98.6175 120.527 98.4582 120.481C98.2989 120.436 98.1322 120.423 97.9677 120.442C97.8031 120.461 97.6439 120.513 97.4991 120.593C97.3543 120.674 97.2268 120.782 97.1238 120.912C97.0208 121.042 96.9444 121.191 96.8989 121.351C96.8534 121.51 96.8398 121.677 96.8587 121.842C96.8777 122.006 96.9288 122.165 97.0093 122.31C97.0898 122.455 97.198 122.582 97.3278 122.685C97.5899 122.893 97.9238 122.988 98.2562 122.949C98.5885 122.91 98.8921 122.741 99.1001 122.478C99.308 122.216 99.4034 121.882 99.3651 121.549C99.3268 121.217 99.1581 120.913 98.896 120.706Z" fill="#BFC7D2"/>
<path d="M22.7246 11.4067L23.383 11.9287C23.5576 12.0672 23.67 12.2694 23.6954 12.491C23.7208 12.7125 23.6572 12.9352 23.5186 13.1101C23.3799 13.285 23.1776 13.3977 22.9561 13.4235C22.7346 13.4492 22.512 13.3859 22.3374 13.2475L21.679 12.7255L21.1562 13.3849C21.0176 13.5598 20.8152 13.6725 20.5937 13.6983C20.3722 13.724 20.1497 13.6607 19.9751 13.5223C19.8005 13.3839 19.6881 13.1816 19.6627 12.9601C19.6372 12.7385 19.7009 12.5158 19.8395 12.3409L20.3623 11.6815L19.7039 11.1595C19.5293 11.0211 19.417 10.8189 19.3915 10.5973C19.3661 10.3758 19.4297 10.153 19.5684 9.97816C19.707 9.80328 19.9094 9.69056 20.1309 9.66479C20.3524 9.63902 20.5749 9.70232 20.7495 9.84076L21.4079 10.3628L21.9307 9.70337C22.0694 9.52849 22.2717 9.41576 22.4932 9.39C22.7147 9.36423 22.9373 9.42753 23.1119 9.56597C23.2865 9.70441 23.3989 9.90665 23.4243 10.1282C23.4497 10.3498 23.3861 10.5725 23.2474 10.7473L22.7246 11.4067Z" fill="#BFC7D2"/>
<path d="M11.7246 25.4067L12.383 25.9287C12.5576 26.0672 12.67 26.2694 12.6954 26.491C12.7208 26.7125 12.6572 26.9352 12.5186 27.1101C12.3799 27.285 12.1776 27.3977 11.9561 27.4235C11.7346 27.4492 11.512 27.3859 11.3374 27.2475L10.679 26.7255L10.1562 27.3849C10.0176 27.5598 9.81525 27.6725 9.59374 27.6983C9.37222 27.724 9.1497 27.6607 8.97509 27.5223C8.80048 27.3839 8.68809 27.1816 8.66267 26.9601C8.63725 26.7385 8.70087 26.5158 8.83952 26.3409C8.83952 26.3409 9.40029 26.008 9.36232 25.6815C9.32441 25.3556 8.70395 25.1595 8.70395 25.1595C8.52934 25.0211 8.41697 24.8189 8.39154 24.5973C8.36612 24.3758 8.42973 24.153 8.56838 23.9782C8.70704 23.8033 8.90938 23.6906 9.13089 23.6648C9.3524 23.639 9.57494 23.7023 9.74955 23.8408L10.4079 24.3628L10.9307 23.7034C11.0694 23.5285 11.2717 23.4158 11.4932 23.39C11.7147 23.3642 11.9373 23.4275 12.1119 23.566C12.2865 23.7044 12.3989 23.9066 12.4243 24.1282C12.4497 24.3498 12.3861 24.5725 12.2474 24.7473L11.7246 25.4067Z" fill="#BFC7D2"/>
<path d="M103.167 84.9837C105.05 85.0979 106.905 85.6685 108.531 86.5816C107.361 85.1264 105.849 83.9566 104.109 83.1862C102.625 82.5299 100.97 82.159 99.2581 82.159C94.5216 82.159 90.4129 84.9267 88.5012 88.9213C87.902 90.1482 87.5311 91.4607 87.3884 92.8873C90.5556 91.6034 92.8382 88.5789 95.8341 86.7813C98.0026 85.4403 100.599 84.8125 103.167 84.9837Z" fill="#142728"/>
<path d="M108.532 86.5815C106.877 85.6685 105.051 85.0978 103.168 84.9837C100.6 84.8125 98.0031 85.4402 95.8061 86.7527C92.8101 88.5503 90.5275 91.5748 87.3604 92.8588C87.3318 93.2582 87.3033 93.6862 87.3033 94.0857C87.3033 100.677 92.6674 106.041 99.2585 106.041C105.85 106.041 111.214 100.677 111.214 94.0857C111.214 91.2609 110.215 88.6359 108.532 86.5815Z" fill="#1F373A"/>
<path d="M27.2986 92.117C27.156 92.8874 27.0704 93.6578 27.0704 94.4567C27.0704 100.848 32.2633 106.041 38.6547 106.041C45.046 106.041 50.239 100.848 50.239 94.4567C50.239 93.1727 50.0393 91.9458 49.6398 90.8045L27.2986 92.117Z" fill="#1F373A"/>
<path d="M38.6547 82.8724C33.0623 82.8724 28.3829 86.8385 27.2986 92.117L49.6398 90.8045C48.1276 86.2107 43.7906 82.8724 38.6547 82.8724Z" fill="#142728"/>
<path d="M88.1878 64.8111C88.1878 64.8111 84.6212 65.9239 84.4214 69.1766C84.2217 72.4293 83.7081 77.7364 86.3046 80.0476L87.7312 81.2745C87.7312 81.2745 89.6715 78.1074 89.3005 71.288C89.3005 71.2595 89.0152 67.3505 88.1878 64.8111Z" fill="#4EA8A8"/>
<path d="M36.315 67.4646C38.5691 69.091 58.2568 68.0067 66.1033 67.4932C62.5652 62.2146 51.3518 61.8437 51.3518 61.8437H34.2607C34.4319 64.0692 34.9455 66.466 36.315 67.4646Z" fill="#DD5900"/>
<path d="M36.315 67.4646C34.9455 66.4945 34.4319 64.0692 34.2607 61.8437H33.9468C33.1479 61.8437 32.5202 62.5855 32.7199 63.3844L33.8897 68.5774C34.0324 69.1481 34.546 69.576 35.1167 69.576H37.5419L66.5027 68.2065C66.3886 67.9782 66.2459 67.75 66.1033 67.5217C58.2853 68.0067 38.5691 69.0625 36.315 67.4646Z" fill="#CC5200"/>
<path d="M67.3872 38.0188C67.3301 37.7905 67.2445 37.6193 67.1874 37.4196C67.273 37.6193 67.3301 37.8191 67.3872 38.0188Z" fill="#EAD1B7"/>
<path d="M67.587 38.675C67.5299 38.4753 67.4443 38.247 67.3873 38.0188C67.4729 38.2185 67.5299 38.4182 67.587 38.675Z" fill="#EAD1B7"/>
<path d="M67.1591 37.2484C67.0449 36.9346 66.9879 36.6492 66.9023 36.4495C66.9879 36.7063 67.0735 36.9631 67.1591 37.2484Z" fill="#EAD1B7"/>
<path d="M67.2157 37.4187C67.1873 37.3619 67.1873 37.3051 67.1589 37.2484C67.1873 37.3051 67.1873 37.3619 67.2157 37.4187Z" fill="#EAD1B7"/>
<path d="M67.8151 39.3303C67.7866 39.2449 67.7297 39.1026 67.6727 38.9033C67.7297 39.0456 67.7581 39.188 67.8151 39.3303Z" fill="#EAD1B7"/>
<path d="M67.6722 38.9021C67.6438 38.8169 67.6154 38.7317 67.587 38.6465C67.6154 38.7601 67.6438 38.8453 67.6722 38.9021Z" fill="#EAD1B7"/>
<path d="M67.8436 39.4449C67.8436 39.4165 67.8152 39.3881 67.8152 39.3313C67.8152 39.3881 67.8436 39.4165 67.8436 39.4449Z" fill="#EAD1B7"/>
<path d="M66.9026 36.4504C66.9026 36.4214 66.9026 36.4214 66.8737 36.3924C66.9026 36.4214 66.9026 36.4214 66.9026 36.4504Z" fill="#EAD1B7"/>
<path d="M66.7882 36.0219C66.7882 35.9932 66.7595 35.9646 66.7595 35.9359C66.7595 35.9932 66.7595 35.9932 66.7882 36.0219Z" fill="#EAD1B7"/>
<path d="M68.7569 41.6425C68.3859 40.9577 68.0721 40.2158 67.8438 39.4454C67.8438 39.4454 66.303 40.0446 64.5911 41.4713C64.5911 41.4713 64.8193 42.2131 65.447 43.3544C66.0748 43.1547 66.7025 42.9264 67.3017 42.6411C67.8153 42.3843 68.3289 42.0419 68.7569 41.6425Z" fill="#C69C7F"/>
<path d="M66.6459 35.6515C66.6459 35.6225 66.6459 35.6225 66.6169 35.5935C66.6459 35.6225 66.6459 35.6515 66.6459 35.6515Z" fill="#EAD1B7"/>
<path d="M84.8493 53.2553L84.4213 52.3423C84.1074 51.686 83.4226 51.3151 82.7093 51.4577L80.5123 51.9143C80.5123 51.9143 72.4375 48.6615 68.7282 41.6139C68.3002 42.0134 67.7867 42.3558 67.2445 42.6126C66.6453 42.8979 66.0176 43.1262 65.3899 43.3259C67.0448 46.3789 71.4388 52.2281 81.3397 53.2838L81.996 53.455C82.6522 53.9686 82.053 55.0529 82.053 55.0529C82.053 55.0529 83.7365 54.6534 84.621 53.9972C84.9063 53.883 84.9919 53.5406 84.8493 53.2553Z" fill="#DDB897"/>
<path d="M66.8167 36.136C66.8167 36.1073 66.7881 36.0787 66.7881 36.05C66.7881 36.0787 66.7881 36.1073 66.8167 36.136Z" fill="#EAD1B7"/>
<path d="M66.9018 36.3911C66.8734 36.2775 66.845 36.1923 66.8166 36.1071C66.8166 36.2207 66.845 36.3059 66.9018 36.3911Z" fill="#EAD1B7"/>
<path d="M66.7591 35.9631C66.7307 35.8495 66.7023 35.7359 66.674 35.6791C66.674 35.7359 66.7023 35.8211 66.7591 35.9631Z" fill="#EAD1B7"/>
<path d="M69.0706 40.2443C68.7282 39.0459 68.3002 37.8476 67.7581 36.7348C67.4442 36.0785 66.8165 34.7945 66.3029 34.281C65.7893 33.7674 65.3328 34.0527 64.6195 34.1098C64.6195 34.1098 62.879 34.2524 62.7649 36.5636C62.6507 38.7606 63.5353 40.872 64.3912 42.8979C64.4198 42.9264 64.4198 42.9835 64.4483 43.012C64.5624 43.1261 64.7336 43.012 64.8763 42.9264C65.1331 42.7837 65.4184 42.7552 65.7037 42.6981C66.7595 42.4984 67.7296 41.9848 68.6997 41.4712L69.1562 41.243C69.3559 41.1574 69.4415 40.9291 69.3274 40.7294L69.0706 40.2443Z" fill="#DD5900"/>
<path d="M83.0517 52.8559C83.0517 52.8559 83.1659 52.97 83.2515 53.1698C83.3085 53.2839 83.3371 53.398 83.3656 53.5407C83.3656 53.6263 83.3941 53.6833 83.3941 53.7689C83.3941 53.8545 83.3941 53.9116 83.3941 53.9972C83.3941 54.1684 83.3656 54.3111 83.3085 54.4537C83.2515 54.5964 83.1659 54.7105 83.0803 54.7961C82.9947 54.8817 82.9091 54.9103 82.8235 54.9388C82.7664 54.9673 82.7094 54.9673 82.7094 54.9673C82.7094 54.9673 82.852 54.9103 82.9661 54.7391C83.0803 54.5679 83.1659 54.2825 83.1659 54.0257C83.1659 53.9687 83.1659 53.8831 83.1659 53.7975C83.1659 53.7404 83.1659 53.6548 83.1659 53.5977C83.1659 53.4551 83.1373 53.341 83.1088 53.2268C83.1088 52.9986 83.0517 52.8559 83.0517 52.8559Z" fill="#C69C7F"/>
<path d="M83.8222 52.542C83.8222 52.542 83.9363 52.6276 84.079 52.8273C84.1361 52.9129 84.1931 53.0556 84.2502 53.1982C84.2787 53.3409 84.3073 53.5121 84.2787 53.6548C84.2787 53.7974 84.2217 53.9686 84.1931 54.1113C84.1361 54.254 84.079 54.3681 83.9934 54.4537C83.9363 54.5393 83.8507 54.5964 83.7937 54.6534C83.7366 54.682 83.7081 54.7105 83.7081 54.7105C83.7081 54.7105 83.8222 54.5964 83.9078 54.4252C83.9649 54.3396 83.9934 54.1969 84.0219 54.0828C84.0505 53.9401 84.079 53.826 84.079 53.6548C84.1075 53.3694 84.0505 53.1126 83.9649 52.8844C83.9078 52.6847 83.8222 52.542 83.8222 52.542Z" fill="#C69C7F"/>
<path d="M62.6508 55.0529C72.5232 58.4197 79.7705 63.2703 79.7705 63.2703C79.7705 63.2703 82.9091 64.5258 81.1115 68.0923C79.9132 70.4606 77.174 77.9932 75.6903 80.1903H70.8683C72.4376 74.5408 73.2365 69.3478 78.5151 65.6385C73.5789 65.8097 68.0721 64.4401 64.4484 63.2988C61.1957 62.2717 59.0557 60.9877 58.8274 57.5923C58.7418 56.3368 58.6562 53.398 59.284 51.9143L59.4552 50.4591" fill="#1F373A"/>
<path d="M69.9551 84.1849L71.4103 80.1903H74.663L73.6073 82.9009C73.6073 82.9009 75.1195 86.439 69.9266 86.068V84.1849H69.9551Z" fill="#DDB897"/>
<path d="M74.2065 88.1795C74.7487 88.2366 75.2908 88.3507 75.8044 88.4363C78.2297 88.7787 80.7691 88.2936 82.8805 87.0667C82.852 87.0382 82.852 87.0096 82.8234 86.9811C82.1386 86.3534 81.1971 85.9539 80.2555 85.7827C79.6563 85.6686 79.0286 85.6115 78.4579 85.3833C77.7446 85.0979 76.803 84.5844 76.2324 84.0708C75.8044 83.6998 75.7188 83.386 75.3764 82.9295C74.3777 81.617 73.5788 82.2447 73.4361 83.6998C73.2935 85.155 72.466 85.0694 71.1535 85.2691C69.841 85.4689 69.9551 84.1849 69.9551 84.1849C69.7554 83.9566 69.3274 84.0137 69.1277 84.2134C68.8994 84.4417 68.8424 84.7556 68.8138 85.0694C68.7853 85.4974 68.8709 85.8969 68.7853 86.3249C68.7282 86.6387 68.5856 86.9526 68.4144 87.2379C69.0992 87.6088 69.841 87.8656 70.5829 87.9798C71.7812 88.1795 73.0082 88.0368 74.2065 88.1795Z" fill="#DD5900"/>
<path d="M68.4427 87.2378C68.3001 87.4661 68.1574 87.6943 68.0433 87.9511C68.0147 88.0082 67.9862 88.0938 67.9862 88.1509C68.0147 88.2079 68.0433 88.2365 68.1003 88.265C68.6995 88.693 69.3558 89.0069 70.0691 89.2066C70.1547 88.7786 70.2403 88.3506 70.3259 87.9226C69.6411 87.78 69.0134 87.5517 68.4427 87.2378Z" fill="#D1DADB"/>
<path d="M74.2063 88.1794C73.493 88.0938 72.8082 88.1223 72.0949 88.0938C72.0949 88.5788 72.0949 89.0924 72.0949 89.5775C72.8368 89.6346 73.6071 89.6346 74.349 89.606C74.349 89.121 74.3205 88.6644 74.3205 88.1794C74.2919 88.1794 74.2349 88.1794 74.2063 88.1794Z" fill="#D1DADB"/>
<path d="M70.6113 87.9797C70.5257 87.9511 70.4116 87.9511 70.326 87.9226C70.2404 88.3506 70.1833 88.7786 70.0692 89.2066C70.7255 89.4063 71.4103 89.4919 72.095 89.549C72.095 89.0639 72.095 88.5503 72.095 88.0653C71.5815 88.0938 71.0964 88.0653 70.6113 87.9797Z" fill="white"/>
<path d="M76.3748 88.4933C76.3748 88.8357 76.3748 89.2066 76.3748 89.549C76.9169 89.5205 77.4305 89.4919 77.9726 89.4634C78.1724 89.4634 78.4006 89.4349 78.6004 89.4349C78.5718 89.121 78.5433 88.8071 78.5148 88.4933C77.8015 88.5504 77.0881 88.5504 76.3748 88.4933Z" fill="#D1DADB"/>
<path d="M76.3749 88.4932C76.2037 88.4647 76.004 88.4647 75.8328 88.4362C75.3192 88.3506 74.8341 88.265 74.3491 88.2079C74.3491 88.693 74.3776 89.1495 74.3776 89.6346C74.4917 89.6346 74.6059 89.6346 74.6914 89.6346C75.2621 89.606 75.8328 89.606 76.4034 89.5775C76.3749 89.178 76.3749 88.8356 76.3749 88.4932Z" fill="white"/>
<path d="M82.9088 87.0666C82.167 87.4946 81.3966 87.8085 80.5977 88.0653C80.7403 88.4077 80.8545 88.75 80.9401 89.121C81.5392 88.9498 82.1384 88.693 82.6805 88.3791C83.1371 88.0938 83.2512 87.4661 82.9088 87.0666Z" fill="#D1DADB"/>
<path d="M78.4863 88.4933C78.5148 88.8072 78.5433 89.121 78.5719 89.4349C79.1711 89.4063 79.7702 89.3493 80.3409 89.2351C80.5121 89.2066 80.7118 89.1495 80.883 89.0925C80.7974 88.7501 80.6833 88.3792 80.5406 88.0368C79.8844 88.265 79.1996 88.4077 78.4863 88.4933Z" fill="white"/>
<path d="M38.6547 102.189C42.9094 102.189 46.3586 98.7399 46.3586 94.4852C46.3586 90.2305 42.9094 86.7813 38.6547 86.7813C34.4 86.7813 30.9509 90.2305 30.9509 94.4852C30.9509 98.7399 34.4 102.189 38.6547 102.189Z" fill="white"/>
<path d="M41.6221 95.2556C43.6194 95.3983 45.7023 95.17 47.5569 94.3425C49.5542 93.4295 50.4958 91.8602 51.6086 90.0056C52.0366 89.2922 51.2091 88.6645 50.7811 89.3778C49.7539 91.0898 48.5841 92.545 46.7009 93.2868C45.0746 93.9431 43.3055 94.0857 41.565 93.9431C40.7376 93.886 40.7946 95.1985 41.6221 95.2556Z" fill="#4EA8A8"/>
<path d="M38.6548 97.8235C40.4985 97.8235 41.9931 96.3289 41.9931 94.4852C41.9931 92.6415 40.4985 91.1469 38.6548 91.1469C36.8111 91.1469 35.3165 92.6415 35.3165 94.4852C35.3165 96.3289 36.8111 97.8235 38.6548 97.8235Z" fill="#284549"/>
<path d="M38.6548 96.2828C39.6476 96.2828 40.4524 95.478 40.4524 94.4852C40.4524 93.4925 39.6476 92.6877 38.6548 92.6877C37.662 92.6877 36.8572 93.4925 36.8572 94.4852C36.8572 95.478 37.662 96.2828 38.6548 96.2828Z" fill="#4EA8A8"/>
<path d="M99.2584 101.419C103.293 101.419 106.563 98.1484 106.563 94.1143C106.563 90.0802 103.293 86.8099 99.2584 86.8099C95.2243 86.8099 91.954 90.0802 91.954 94.1143C91.954 98.1484 95.2243 101.419 99.2584 101.419Z" fill="white"/>
<path d="M99.2585 97.2815C101.008 97.2815 102.426 95.8635 102.426 94.1143C102.426 92.3652 101.008 90.9472 99.2585 90.9472C97.5093 90.9472 96.0913 92.3652 96.0913 94.1143C96.0913 95.8635 97.5093 97.2815 99.2585 97.2815Z" fill="#284549"/>
<path d="M99.1157 79.4199L89.5287 84.0992L91.8969 75.5394L88.6727 57.8491C88.6727 57.8491 91.0124 63.9265 93.78 68.7771C95.6347 72.0299 97.0043 75.5965 100.457 77.3084C101.113 77.6223 101.883 78.0217 102.14 78.9063C102.911 81.7595 102.14 78.9063 102.14 78.9063L99.1157 79.4199Z" fill="#3A7377"/>
<path d="M86.3045 80.0476L87.7311 81.2745C87.7311 81.2745 86.4186 89.1495 80.3126 91.9743H53.7485C54.1195 91.6034 54.4904 91.2039 54.8328 90.7474L55.3749 90.2338H55.2037C55.5461 89.7202 55.86 89.1495 56.0882 88.5504C57.7431 84.3846 55.7744 79.2201 52.2648 76.6807C48.7553 74.1413 44.1045 73.913 40.0243 75.0829C32.7484 77.1943 26.785 83.7854 24.9875 91.6034L22.7049 91.7175C22.2198 91.746 21.8774 91.2039 22.1342 90.7759C23.732 88.0368 24.3027 84.727 25.872 81.9307C28.1261 77.9932 32.1777 75.5394 35.8014 72.8003C35.9155 72.7147 36.0011 72.6291 36.0582 72.5149C36.1438 72.3152 36.0297 72.0869 35.9441 71.8872C35.5161 70.8315 36.4577 69.4904 37.599 69.519L66.5598 68.1494C67.1875 68.1209 67.7296 68.6915 67.6155 69.3478C67.5584 69.6616 67.3302 69.9184 67.0448 70.0896C64.7051 71.3451 56.288 76.5095 61.1385 84.4702C65.7609 92.117 76.803 89.2351 81.7392 86.7243C81.7107 86.7813 84.4784 84.9838 86.3045 80.0476Z" fill="#3A7377"/>
<path d="M87.7312 81.246C87.7312 81.246 91.5546 70.9742 85.9052 58.9048L88.6443 57.8776C88.6443 57.8776 97.7463 74.9117 86.3046 89.2066C86.3046 89.2066 85.2774 91.3466 79.685 91.9743C79.685 91.9458 84.878 89.977 87.7312 81.246Z" fill="#1F373A"/>
<path d="M84.6497 92.9444C84.4785 92.9729 84.3073 92.8017 84.3643 92.6305C85.0206 90.6332 88.2163 81.6454 94.3508 79.0489C101.57 75.9959 107.619 81.1318 109.873 84.8696C110.129 85.2976 109.701 85.7541 109.188 85.6685C106.648 85.1264 101.199 82.7582 95.5207 86.125C91.469 88.5503 89.8997 91.7745 84.6497 92.9444Z" fill="#398E8E"/>
<path d="M54.3477 59.2472C54.4048 62.6426 56.8301 64.1549 60.0828 65.1821C63.7065 66.3234 69.2133 67.693 74.1495 67.5218C68.8709 71.231 68.072 76.424 66.5027 82.0735H71.3247C72.7799 79.8765 77.7732 71.231 78.9715 68.8628C80.7691 65.3247 77.6305 64.0408 77.6305 64.0408C77.602 64.0122 76.5177 63.1562 68.6427 59.1331L66.9307 58.4769L63.5924 59.1616L65.9891 57.9918L66.36 56.3654L55.7744 52.8559C55.7744 52.8559 54.2907 56.3654 54.3477 59.2472Z" fill="#284549"/>
<path d="M65.6181 86.0394L67.0732 82.0448H70.326L69.2703 84.7554C69.2703 84.7554 70.7825 88.2935 65.5895 87.9226V86.0394H65.6181Z" fill="#EAD1B7"/>
<path d="M69.8694 90.034C70.4115 90.0911 70.9536 90.2052 71.4672 90.2908C73.8925 90.6332 76.4319 90.1481 78.5434 88.9212C78.5148 88.8927 78.5148 88.8641 78.4863 88.8356C77.8015 88.2079 76.8599 87.8084 75.9184 87.6372C75.3192 87.5231 74.6914 87.466 74.1208 87.2378C73.4075 86.9524 72.4659 86.4389 71.8952 85.9253C71.4672 85.5543 71.3816 85.2405 71.0392 84.784C70.0406 83.4714 69.2417 84.0992 69.099 85.5543C68.9564 87.0095 68.1289 86.9239 66.8164 87.1236C65.5039 87.3234 65.618 86.0394 65.618 86.0394C65.4183 85.8111 64.9903 85.8682 64.7906 86.0679C64.5623 86.2962 64.5052 86.6101 64.4767 86.9239C64.4482 87.3519 64.5338 87.7514 64.4482 88.1794C64.3911 88.4932 64.2484 88.8071 64.1058 89.0924C64.7906 89.4633 65.5324 89.7201 66.2743 89.8343C67.4441 90.034 68.671 89.8913 69.8694 90.034Z" fill="#EF8E2E"/>
<path d="M64.1057 89.121C63.963 89.3493 63.8204 89.5776 63.7062 89.8344C63.6777 89.8914 63.6492 89.977 63.6492 90.0341C63.6777 90.0912 63.7062 90.1197 63.7633 90.1482C64.3625 90.5762 65.0187 90.8901 65.7321 91.0898C65.8177 90.6618 65.9033 90.2338 65.9889 89.8058C65.3041 89.6632 64.6763 89.4349 64.1057 89.121Z" fill="#D1DADB"/>
<path d="M69.8694 90.0341C69.1561 89.9485 68.4713 89.977 67.758 89.9485C67.758 90.4335 67.758 90.9471 67.758 91.4322C68.4998 91.4893 69.2702 91.4893 70.0121 91.4607C70.0121 90.9757 69.9836 90.5191 69.9836 90.0341C69.955 90.0626 69.898 90.0341 69.8694 90.0341Z" fill="#D1DADB"/>
<path d="M66.2742 89.8629C66.1886 89.8344 66.0745 89.8343 65.9889 89.8058C65.9033 90.2338 65.8462 90.6618 65.7321 91.0898C66.3884 91.2895 67.0732 91.3751 67.7579 91.4322C67.7579 90.9471 67.7579 90.4335 67.7579 89.9485C67.2444 89.9485 66.7593 89.92 66.2742 89.8629Z" fill="white"/>
<path d="M72.0379 90.3479C72.0379 90.6903 72.0379 91.0612 72.0379 91.4036C72.58 91.3751 73.0936 91.3466 73.6357 91.318C73.8355 91.318 74.0637 91.2895 74.2635 91.2895C74.2349 90.9756 74.2064 90.6618 74.1779 90.3479C73.4645 90.4335 72.7512 90.4335 72.0379 90.3479Z" fill="#D1DADB"/>
<path d="M72.0379 90.3479C71.8667 90.3194 71.6669 90.3194 71.4957 90.2909C70.9821 90.2053 70.4971 90.1197 70.012 90.0626C70.012 90.5476 70.0406 91.0042 70.0406 91.4892C70.1547 91.4892 70.2688 91.4892 70.3544 91.4892C70.9251 91.4607 71.4957 91.4607 72.0664 91.4322C72.0379 91.0612 72.0379 90.7188 72.0379 90.3479Z" fill="white"/>
<path d="M78.5719 88.9213C77.83 89.3493 77.0597 89.6631 76.2607 89.9199C76.4034 90.2623 76.5175 90.6047 76.6031 90.9757C77.2023 90.8045 77.8015 90.5477 78.3436 90.2338C78.8002 89.9485 78.9143 89.3208 78.5719 88.9213Z" fill="#D1DADB"/>
<path d="M74.1494 90.3479C74.1779 90.6618 74.2064 90.9757 74.235 91.2895C74.8341 91.261 75.4333 91.2039 76.004 91.0898C76.1752 91.0613 76.3749 91.0042 76.5461 90.9471C76.4605 90.6047 76.3464 90.2338 76.2037 89.8914C75.5475 90.1197 74.8627 90.2623 74.1494 90.3479Z" fill="white"/>
<path d="M26.8136 77.5652C26.7565 77.5652 26.728 77.5652 26.6709 77.5652C24.9304 80.0761 23.6179 82.8438 22.7619 85.7827C23.3326 86.2107 24.0744 86.4389 24.2171 85.9254C25.444 81.4172 29.4671 77.5938 29.4671 77.5938C28.6967 77.7935 27.6695 77.6223 26.8136 77.5652Z" fill="#284549"/>
<path d="M24.3598 81.6168C25.016 80.1902 25.815 78.8491 26.6995 77.5651C25.9006 77.5366 25.0446 77.6222 24.5024 78.1929C24.1315 78.5638 23.9318 79.0774 23.7321 79.5624C23.5038 80.1331 23.3041 80.7038 23.0758 81.2459C23.5038 81.3885 23.9318 81.5027 24.3598 81.6168Z" fill="#DD5900"/>
<path d="M23.0758 81.2459C23.0473 81.2459 23.0473 81.2174 23.0758 81.2459C22.819 81.9022 22.5622 82.5584 22.3054 83.2147C22.1057 83.7568 21.8774 84.3845 22.0772 84.9267C22.1913 85.212 22.4766 85.5259 22.819 85.7826C23.2185 84.356 23.7606 82.9579 24.3883 81.6169C23.9318 81.5027 23.5038 81.3886 23.0758 81.2459Z" fill="#EF8E2E"/>
<path d="M104.708 89.2352L100.114 95.17C100.057 95.2556 100 95.3412 99.9146 95.3983C99.6864 95.6265 99.344 95.7977 98.973 95.7977C98.2312 95.7977 97.6605 95.1985 97.6605 94.4852C97.6605 94.0572 97.8603 93.7148 98.1456 93.458L103.709 88.3221C103.738 88.3221 104.337 88.7501 104.708 89.2352Z" fill="#4EA8A8"/>
<path d="M65.5326 33.0826L60.3967 31.1424C60.3967 31.1424 57.9144 32.3122 57.3152 38.5038C57.3152 38.5038 56.8872 39.0174 57.2011 40.3299C57.2011 40.3299 56.8016 40.6723 56.8016 41.5854C56.8016 42.4984 56.8016 41.5854 56.288 45.4088C56.288 45.4088 55.8885 50.2593 55.5747 51.1724C55.2608 52.0854 54.8899 52.0284 54.8899 52.8273C54.8899 54.0542 66.4171 56.3939 66.4171 56.3939C66.9878 48.2335 67.4729 46.0079 67.5299 43.0405C67.5585 41.3286 67.2731 36.5636 66.3886 33.7959" fill="#EF8E2E"/>
<path d="M65.5326 33.0826L65.3043 34.9373L59.8831 30.743C59.8831 30.743 59.8545 29.088 62.0801 29.2022L61.8233 30.0582L65.5326 33.0826Z" fill="white"/>
<path d="M82.2813 92.6876H53.1779C52.9496 92.6876 52.7784 92.5164 52.7784 92.2881V92.0028C52.7784 91.7746 52.9496 91.6034 53.1779 91.6034H82.2813C82.5096 91.6034 82.6808 91.7746 82.6808 92.0028V92.2881C82.6523 92.5164 82.4811 92.6876 82.2813 92.6876Z" fill="#284549"/>
<path d="M61.8518 30.0581L61.4238 29.6872C61.4238 29.6872 61.5665 29.5731 61.9945 29.5731L61.8518 30.0581Z" fill="#E1E5E5"/>
<path d="M65.5325 33.0826L66.6168 34.7375V34.281C66.6168 34.0242 66.5882 33.7959 66.5312 33.5677C66.4741 33.3394 66.36 33.1111 66.2173 32.9399L65.7608 32.3122L65.5325 33.0826Z" fill="white"/>
<path d="M91.2977 48.0909C90.3846 48.2621 89.386 48.6615 88.6441 49.489C87.1319 51.1439 85.7338 51.3721 84.5639 52.0284C84.5639 52.0284 84.5354 52.0284 84.5354 52.0569C83.8221 52.4564 83.5653 53.3409 83.8791 54.1113L85.9335 58.9333L88.6726 57.9062C88.6726 57.9062 87.3601 55.7091 87.3601 54.3396C87.3601 53.6262 88.7582 54.1398 89.2433 54.3396C89.3574 54.3966 89.4716 54.4252 89.5857 54.4822C90.3276 54.739 90.8697 54.8817 91.583 54.9388C90.7555 51.8572 91.0123 49.4605 91.2977 48.0909Z" fill="#3A7377"/>
<path d="M62.9934 27.2619C63.0219 27.7755 62.9363 28.3747 62.6224 28.7456C62.4512 28.66 62.6224 28.7456 62.28 28.2035C62.1659 28.3177 62.0518 28.4033 61.9376 28.5174C61.9091 28.3747 61.8806 28.2035 61.8806 28.0609C61.7379 28.1465 61.5952 28.2035 61.4526 28.2891C61.5382 27.3475 61.367 26.3774 60.9675 25.5214L61.795 25.1505L62.9934 27.2619Z" fill="#1F373A"/>
<path d="M65.2185 20.842C65.1903 20.8702 65.1903 20.8702 65.1903 20.8702C65.1903 20.842 65.1903 20.842 65.2185 20.842Z" fill="#3A7377"/>
<path d="M71.4961 20.6138C70.2121 18.645 68.6713 18.9303 67.6156 19.1871C67.9009 19.1586 68.1863 19.1871 68.4716 19.2442C70.2692 19.5295 70.3548 21.1274 70.3548 21.1274C70.3548 21.1274 71.0681 21.0703 71.4961 20.6138Z" fill="#284549"/>
<path d="M61.8521 30.0581C61.8521 30.0581 63.9349 31.7701 65.5328 33.0826L65.5898 32.8544L61.9662 29.6872L61.8521 30.0581Z" fill="#DDB897"/>
<path d="M66.6169 29.1736C66.6169 29.1736 64.6767 29.2592 62.5367 27.7755L62.4226 28.1179L61.9661 29.6872L65.5897 32.8543L66.5598 29.4019L66.6169 29.1736Z" fill="#EAD1B7"/>
<path d="M60.9675 21.9263C60.9675 21.9263 60.8248 27.2048 63.2786 28.3176C65.7325 29.4304 66.3031 29.6587 68.1292 29.1451C69.9553 28.6315 70.0124 25.4073 70.2407 22.8679C70.4689 20.2999 69.5844 16.7048 65.6183 16.7618C65.5898 16.7618 61.5952 16.1912 60.9675 21.9263Z" fill="#EAD1B7"/>
<path d="M67.5015 23.7239C67.4729 23.7239 67.4729 23.7239 67.4444 23.7239C66.7881 23.6383 66.1889 24.1233 65.5327 24.2945C64.6482 24.5513 63.6781 24.2375 62.9362 23.6954C62.1944 23.1532 61.6522 22.3828 61.1101 21.641L61.1957 23.5242C61.1957 23.5242 61.7378 22.8679 61.8234 26.7484C61.8234 27.1764 62.1373 27.5187 62.4797 27.8041C62.2514 27.6329 64.7338 29.459 67.1876 29.4019C67.9865 26.463 67.8439 24.7225 67.5015 23.7239Z" fill="#4EA8A8"/>
<path d="M70.1549 23.8665C69.5843 24.1519 68.8995 24.1804 68.3003 23.9807C68.0435 23.8951 67.7867 23.7524 67.5014 23.7239C67.8152 24.7225 67.9864 26.463 67.1875 29.4019C67.5014 29.4019 67.8152 29.3734 68.1291 29.2878C70.269 28.7456 70.1549 23.8665 70.1549 23.8665Z" fill="#398E8E"/>
<path d="M60.9676 23.0391C60.9676 23.0391 59.3412 21.0132 59.2271 23.0391C59.1129 25.0649 61.1388 26.2918 61.4241 25.4929L60.9676 23.0391Z" fill="#EAD1B7"/>
<path d="M60.3682 22.3543C60.2541 22.6681 60.5394 23.0105 60.7106 23.2959C61.1386 23.9806 61.5381 24.751 61.7949 25.4929C61.909 24.8366 61.7949 24.0948 61.5666 23.4385C61.7378 23.5241 61.8805 23.6953 61.9661 23.8665C62.2229 23.3244 61.8234 22.6111 62.0517 22.0404C62.2229 21.5554 62.765 21.3556 63.1359 20.9847C63.3642 20.7564 63.5069 20.4426 63.5639 20.1002C63.5354 20.1573 61.0816 20.1858 60.3682 22.3543Z" fill="#1F373A"/>
<path d="M65.3044 19.7864C65.875 19.929 66.4172 20.1858 66.8737 20.5567C66.9593 20.4426 66.9878 20.3 66.9878 20.1573C67.3873 20.5853 67.9294 20.8991 68.5286 21.0418C68.4145 20.9277 68.3289 20.7565 68.3289 20.5853C68.9851 20.9562 70.0693 22.0975 70.8397 22.1261C70.5829 19.444 69.4416 18.9589 68.4144 18.4453C67.3873 17.9317 66.2745 17.9603 65.1332 18.1029" fill="#1F373A"/>
<path d="M61.6522 16.0771C58.6848 18.2456 59.4837 22.2116 59.4837 22.2116C60.0259 21.9548 60.3112 22.4113 60.3112 22.4113C62.0517 19.3869 64.7052 18.5309 66.7881 18.4167C66.4172 16.933 65.9321 15.8203 65.5042 15.0213C64.1916 14.9072 62.8221 15.2496 61.6522 16.0771Z" fill="#EF8E2E"/>
<path d="M69.8981 18.7591C69.3275 16.5621 67.5014 15.2496 65.5041 15.0498C65.9321 15.8488 66.4171 16.9615 66.7881 18.4452C68.5571 18.3596 69.8981 18.7591 69.8981 18.7591Z" fill="#DD5900"/>
<path d="M71.496 20.6138C72.0667 19.7578 69.8697 18.7592 69.8697 18.7592C63.5354 16.9331 60.9389 21.4412 60.9389 21.4412C62.0517 21.8407 64.2772 20.4711 65.4756 19.6722C65.4756 19.6722 65.5041 19.6722 65.5327 19.6437C65.9892 19.3298 66.5313 19.1301 67.0735 19.0445C68.2718 18.7592 69.9838 18.8733 71.496 20.6138Z" fill="white"/>
<path d="M59.4838 23.0961C59.4838 23.0961 59.4838 23.0676 59.5409 22.982C59.5694 22.9535 59.598 22.9249 59.6265 22.8679C59.655 22.8393 59.7121 22.7823 59.7977 22.7823C59.8833 22.7823 59.9689 22.7823 60.0259 22.8393C60.1115 22.8679 60.1686 22.9249 60.2257 23.0105C60.3398 23.1246 60.4254 23.2958 60.4825 23.4385C60.7678 24.0662 60.7963 24.751 60.7963 24.751C60.7963 24.751 60.7107 24.6084 60.6251 24.3801C60.5966 24.266 60.511 24.1233 60.4539 23.9806C60.4254 23.895 60.3969 23.838 60.3683 23.7524C60.3398 23.6668 60.3113 23.6097 60.2827 23.5241C60.2542 23.4385 60.2257 23.3814 60.1686 23.2958C60.1401 23.2388 60.083 23.1532 60.0545 23.0961C60.0259 23.0391 59.9689 22.982 59.9118 22.9535C59.8548 22.9249 59.8262 22.8964 59.7692 22.8964C59.7121 22.8964 59.6836 22.8964 59.6265 22.9249C59.598 22.9535 59.5409 22.982 59.5124 23.0105C59.5124 23.0676 59.4838 23.0961 59.4838 23.0961Z" fill="#DDB897"/>
<path d="M60.5966 23.9807C60.5966 23.9807 60.5395 24.0092 60.4825 24.0948C60.4254 24.1519 60.3683 24.2375 60.3398 24.3231C60.3113 24.4087 60.2542 24.5228 60.2257 24.6084C60.1971 24.694 60.1686 24.7511 60.1686 24.7511C60.1686 24.7511 60.1686 24.7226 60.1401 24.7226C60.1401 24.694 60.1115 24.6655 60.1115 24.6084C60.083 24.5228 60.1115 24.3802 60.1686 24.266C60.2257 24.1519 60.3398 24.0378 60.4539 24.0092C60.5395 23.9522 60.5966 23.9807 60.5966 23.9807Z" fill="#DDB897"/>
<path d="M93.1238 48.1765C92.6673 48.0623 92.011 47.9482 91.2977 48.1194C91.0124 49.4604 90.7556 51.8857 91.583 54.9102C92.2964 54.9673 92.9526 54.9387 93.3521 54.9387C92.2678 52.5991 92.8385 49.3463 93.1238 48.1765Z" fill="#284549"/>
<path d="M93.723 54.8246C92.8955 52.0855 93.2379 50.0026 93.6944 48.3762C93.6944 48.3762 93.4662 48.2621 93.0953 48.1765C92.8099 49.3463 92.2393 52.5991 93.295 54.9102C93.5233 54.9102 93.6659 54.8817 93.6659 54.8817C93.723 54.8532 93.723 54.8246 93.723 54.8246Z" fill="#1F373A"/>
<path d="M93.8943 48.7471C93.8087 48.5189 93.7231 48.3762 93.7231 48.3762C93.2666 50.0026 92.9242 52.0855 93.7516 54.8246C93.8087 54.7105 93.8372 54.5964 93.8943 54.4822C93.181 51.8002 93.6375 49.6031 93.8943 48.7471Z" fill="#DD5900"/>
<path d="M93.8943 48.7471C93.6375 49.6031 93.181 51.7716 93.8943 54.4537C94.95 51.8287 94.2652 49.6031 93.8943 48.7471Z" fill="#EF8E2E"/>
<path d="M51.4944 39.3313C51.4944 38.7036 50.9809 38.19 50.3531 38.19H28.9821C28.3543 38.19 27.8408 38.7036 27.8408 39.3313V43.9251H51.4944V39.3313Z" fill="#DD5900"/>
<path d="M27.8694 43.9251V60.7024C27.8694 61.3301 28.383 61.8437 29.0107 61.8437H50.3532C50.9809 61.8437 51.4945 61.3301 51.4945 60.7024V43.9251H27.8694Z" fill="#EF8E2E"/>
<path d="M39.6113 50.1663V49.9065H38.0351C37.7767 49.9065 37.5635 49.6867 37.5635 49.4202V46.0762C37.5635 45.8098 37.7767 45.5899 38.0351 45.5899H41.278C41.5363 45.5899 41.7495 45.8098 41.7495 46.0762V47.7016H42.0015C42.1436 47.7016 42.2728 47.7216 42.402 47.7682V46.0829C42.402 45.4434 41.8981 44.9238 41.278 44.9238H38.0351C37.4149 44.9238 36.9111 45.4434 36.9111 46.0829V49.4269C36.9111 50.0664 37.4149 50.5859 38.0351 50.5859H39.6694C39.6307 50.4461 39.6113 50.3062 39.6113 50.1663Z" fill="#232323"/>
<path d="M42.0014 50.5793H40.38C40.1604 50.5793 39.9795 50.3928 39.9795 50.1663V48.4943C39.9795 48.2678 40.1604 48.0813 40.38 48.0813H42.0014C42.2211 48.0813 42.4019 48.2678 42.4019 48.4943V50.1663C42.4019 50.3928 42.2211 50.5793 42.0014 50.5793Z" fill="white"/>
<path d="M32.3246 52.0781C32.4925 52.0781 32.6346 52.0914 32.7509 52.1247C32.8672 52.158 32.9641 52.2113 33.0351 52.2779C33.1062 52.3512 33.1643 52.4445 33.1966 52.5577C33.2289 52.671 33.2483 52.8108 33.2483 52.9707V53.5569C33.2483 53.7168 33.2289 53.8567 33.1966 53.9699C33.1643 54.0832 33.1127 54.1764 33.0351 54.2497C32.9641 54.323 32.8672 54.3696 32.7509 54.4029C32.6346 54.4362 32.4925 54.4495 32.3246 54.4495H31.3039C31.1359 54.4495 30.9938 54.4362 30.8775 54.4029C30.7613 54.3696 30.6644 54.323 30.5933 54.2497C30.5222 54.1764 30.4641 54.0832 30.4318 53.9699C30.3995 53.8567 30.3801 53.7168 30.3801 53.5569V52.9707C30.3801 52.8108 30.3995 52.671 30.4318 52.5577C30.4641 52.4445 30.5222 52.3512 30.5933 52.2779C30.6644 52.2047 30.7613 52.1514 30.8775 52.1247C30.9938 52.0914 31.1359 52.0781 31.3039 52.0781H32.3246ZM30.884 53.5236C30.884 53.6102 30.8905 53.6835 30.9034 53.7434C30.9163 53.8034 30.9421 53.85 30.9744 53.8833C31.0067 53.9166 31.052 53.9433 31.1101 53.9566C31.1682 53.9699 31.2393 53.9766 31.3233 53.9766H32.2987C32.3827 53.9766 32.4537 53.9699 32.5119 53.9566C32.57 53.9433 32.6152 53.9166 32.6475 53.8833C32.6798 53.85 32.7057 53.8034 32.7186 53.7434C32.7315 53.6835 32.738 53.6102 32.738 53.5236V53.0173C32.738 52.9307 32.7315 52.8575 32.7186 52.7975C32.7057 52.7376 32.6798 52.6909 32.6475 52.6576C32.6152 52.6243 32.57 52.5977 32.5119 52.5844C32.4537 52.571 32.3827 52.5644 32.2987 52.5644H31.3233C31.2393 52.5644 31.1682 52.571 31.1101 52.5844C31.052 52.5977 31.0067 52.6243 30.9744 52.6576C30.9421 52.6909 30.9163 52.7376 30.9034 52.7975C30.8905 52.8575 30.884 52.9307 30.884 53.0173V53.5236V53.5236Z" fill="white"/>
<path d="M35.3607 52.591C35.5093 52.591 35.632 52.6043 35.7354 52.631C35.8387 52.6576 35.9162 52.6976 35.9744 52.7509C36.0325 52.8042 36.0777 52.8774 36.1036 52.964C36.1294 53.0506 36.1423 53.1572 36.1423 53.2771V54.3762C36.1423 54.4229 36.1165 54.4495 36.0713 54.4495H35.7483C35.7031 54.4495 35.6772 54.4229 35.6772 54.3762V53.3904C35.6772 53.3171 35.6708 53.2638 35.6643 53.2105C35.6578 53.1639 35.6385 53.1239 35.6126 53.0973C35.5868 53.0706 35.5545 53.0506 35.5093 53.0373C35.4641 53.024 35.4059 53.0173 35.3349 53.0173H34.4563C34.3853 53.0173 34.3271 53.024 34.2819 53.0373C34.2367 53.0506 34.1979 53.0706 34.1721 53.0973C34.1462 53.1239 34.1269 53.1639 34.1139 53.2105C34.101 53.2571 34.0946 53.3171 34.0946 53.3904V54.3762C34.0946 54.4229 34.0687 54.4495 34.0235 54.4495H33.7005C33.6488 54.4495 33.623 54.4229 33.623 54.3762V53.2771C33.623 53.1572 33.6359 53.0506 33.6617 52.964C33.6876 52.8774 33.7328 52.8042 33.7909 52.7509C33.8491 52.6976 33.9331 52.6576 34.03 52.631C34.1269 52.6043 34.2561 52.591 34.4046 52.591H35.3607Z" fill="white"/>
<path d="M38.2289 52.591C38.3387 52.591 38.4356 52.5977 38.5067 52.6176C38.5777 52.6376 38.6359 52.6709 38.6811 52.7109C38.7263 52.7575 38.7522 52.8108 38.7715 52.8841C38.7909 52.9574 38.7974 53.044 38.7974 53.1439V53.4636C38.7974 53.5369 38.7845 53.5835 38.7522 53.6169C38.7199 53.6435 38.6746 53.6568 38.61 53.6568H36.9499V53.7368C36.9499 53.8433 36.9757 53.9233 37.0209 53.9699C37.0726 54.0165 37.1695 54.0432 37.3116 54.0432H38.6876C38.7263 54.0432 38.7457 54.0632 38.7457 54.1031V54.3896C38.7457 54.4295 38.7263 54.4495 38.6876 54.4495H37.2664C37.1178 54.4495 36.9951 54.4362 36.8917 54.4096C36.7948 54.3829 36.7108 54.3429 36.6527 54.2896C36.5946 54.2364 36.5493 54.1631 36.5235 54.0765C36.4977 53.9899 36.4847 53.8833 36.4847 53.7634V53.2771C36.4847 53.1572 36.4977 53.0506 36.5235 52.964C36.5493 52.8774 36.5946 52.8042 36.6527 52.7509C36.7108 52.6976 36.7948 52.6576 36.8917 52.631C36.9886 52.6043 37.1178 52.591 37.2664 52.591H38.2289V52.591ZM36.9499 53.3637H38.2806C38.3193 53.3637 38.3387 53.3437 38.3387 53.3038V53.1639C38.3387 53.0906 38.3258 53.044 38.2935 53.0173C38.2677 52.9907 38.2095 52.9707 38.1385 52.9707H37.3116C37.1695 52.9707 37.0726 52.9907 37.0209 53.0373C36.9692 53.0839 36.9499 53.1639 36.9499 53.2705V53.3637Z" fill="white"/>
<path d="M41.4524 52.0781C41.4976 52.0781 41.5234 52.1047 41.5234 52.1514V52.4711C41.5234 52.5177 41.4976 52.5444 41.4524 52.5444H39.8051C39.7405 52.5444 39.6953 52.5644 39.6695 52.5977C39.6436 52.631 39.6307 52.6776 39.6307 52.7376V52.8508C39.6307 52.9774 39.6888 53.044 39.8051 53.044H41.039C41.2328 53.044 41.3749 53.0973 41.4718 53.1972C41.5687 53.2971 41.6139 53.4437 41.6139 53.6302V53.9033C41.6139 54.0698 41.5687 54.2031 41.4718 54.303C41.3749 54.4029 41.2328 54.4562 41.0325 54.4562H39.2043C39.1527 54.4562 39.1268 54.4296 39.1268 54.3829V54.0565C39.1268 54.0099 39.1527 53.9832 39.2043 53.9832H40.9356C41.0002 53.9832 41.0454 53.9633 41.0713 53.93C41.0971 53.8966 41.11 53.85 41.11 53.7901V53.6568C41.11 53.5303 41.0519 53.4637 40.9356 53.4637H39.7018C39.508 53.4637 39.3658 53.4104 39.2689 53.3104C39.1721 53.2105 39.1268 53.064 39.1268 52.8775V52.631C39.1268 52.4645 39.1721 52.3312 39.2689 52.2313C39.3658 52.1314 39.508 52.0781 39.7082 52.0781H41.4524V52.0781Z" fill="white"/>
<path d="M42.1952 52.591V52.1447C42.1952 52.0981 42.2211 52.0714 42.2663 52.0714H42.5893C42.6345 52.0714 42.6603 52.0981 42.6603 52.1447V52.591H43.2353C43.274 52.591 43.2934 52.611 43.2934 52.651V52.9308C43.2934 52.9707 43.274 52.9907 43.2353 52.9907H42.6603V53.7767C42.6603 53.87 42.6797 53.9433 42.7185 53.9832C42.7572 54.0299 42.8283 54.0499 42.9381 54.0499H43.2546C43.2934 54.0499 43.3128 54.0698 43.3128 54.1098V54.3896C43.3128 54.4296 43.2934 54.4495 43.2546 54.4495H42.8541C42.7249 54.4495 42.6151 54.4362 42.5311 54.4096C42.4472 54.3829 42.3761 54.343 42.3244 54.2897C42.2727 54.2364 42.234 54.1631 42.2146 54.0765C42.1952 53.9899 42.1823 53.89 42.1823 53.7701V52.9907H41.8722C41.8335 52.9907 41.8141 52.9707 41.8141 52.9308V52.651C41.8141 52.611 41.8335 52.591 41.8722 52.591H42.1952Z" fill="white"/>
<path d="M45.2766 52.591C45.4252 52.591 45.5479 52.6043 45.6513 52.631C45.7547 52.6576 45.8322 52.6976 45.8903 52.7509C45.9485 52.8042 45.9937 52.8774 46.0195 52.964C46.0454 53.0506 46.0583 53.1572 46.0583 53.2771V53.7634C46.0583 53.8833 46.0454 53.9899 46.0195 54.0765C45.9937 54.1631 45.9485 54.2364 45.8903 54.2896C45.8322 54.3429 45.7482 54.3829 45.6513 54.4096C45.5479 54.4362 45.4252 54.4495 45.2766 54.4495H44.3464C44.1978 54.4495 44.0751 54.4362 43.9717 54.4096C43.8748 54.3829 43.7909 54.3429 43.7327 54.2896C43.6746 54.2364 43.6294 54.1631 43.6035 54.0765C43.5777 53.9899 43.5648 53.8833 43.5648 53.7634V53.2771C43.5648 53.1572 43.5777 53.0506 43.6035 52.964C43.6294 52.8774 43.6746 52.8042 43.7327 52.7509C43.7909 52.6976 43.8748 52.6576 43.9717 52.631C44.0686 52.6043 44.1978 52.591 44.3464 52.591H45.2766ZM44.0299 53.6835C44.0299 53.7567 44.0363 53.8167 44.0492 53.8633C44.0622 53.91 44.0815 53.9499 44.1074 53.9766C44.1332 54.0032 44.172 54.0232 44.2172 54.0365C44.2624 54.0498 44.3206 54.0565 44.3916 54.0565H45.2314C45.3025 54.0565 45.3606 54.0498 45.4123 54.0365C45.464 54.0232 45.4963 54.0032 45.5221 53.9766C45.5479 53.9499 45.5673 53.91 45.5802 53.8633C45.5932 53.8167 45.5996 53.7567 45.5996 53.6835V53.3637C45.5996 53.2904 45.5932 53.2372 45.5802 53.1839C45.5673 53.1306 45.5479 53.0973 45.5221 53.0706C45.4963 53.044 45.4575 53.024 45.4123 53.0107C45.3671 52.9973 45.3089 52.9907 45.2314 52.9907H44.3916C44.3206 52.9907 44.2624 52.9973 44.2172 53.0107C44.172 53.024 44.1332 53.044 44.1074 53.0706C44.0815 53.0973 44.0622 53.1372 44.0492 53.1839C44.0363 53.2305 44.0299 53.2904 44.0299 53.3637V53.6835Z" fill="white"/>
<path d="M48.1448 52.591C48.2934 52.591 48.4161 52.6043 48.5195 52.631C48.6228 52.6576 48.7003 52.6976 48.7585 52.7509C48.8166 52.8042 48.8618 52.8775 48.8877 52.964C48.9135 53.0506 48.9264 53.1572 48.9264 53.2771V53.7634C48.9264 53.8833 48.9135 53.9899 48.8877 54.0765C48.8618 54.1631 48.8166 54.2364 48.7585 54.2897C48.7003 54.3429 48.6164 54.3829 48.5195 54.4096C48.4161 54.4362 48.2934 54.4495 48.1448 54.4495H46.911V55.1223C46.911 55.169 46.8851 55.1956 46.8399 55.1956H46.5169C46.4652 55.1956 46.4394 55.169 46.4394 55.1223V53.2705C46.4394 53.1506 46.4523 53.044 46.4782 52.9574C46.504 52.8708 46.5492 52.7975 46.6073 52.7442C46.6655 52.6909 46.7495 52.651 46.8464 52.6243C46.9433 52.5977 47.0725 52.5844 47.221 52.5844H48.1448V52.591ZM46.911 54.0498H48.0996C48.1706 54.0498 48.2288 54.0432 48.2805 54.0299C48.3257 54.0165 48.3644 53.9966 48.3903 53.9699C48.4161 53.9433 48.4355 53.9033 48.4484 53.8567C48.4613 53.81 48.4678 53.7501 48.4678 53.6768V53.3771C48.4678 53.3038 48.4613 53.2505 48.4484 53.1972C48.4355 53.1506 48.4161 53.1106 48.3903 53.084C48.3644 53.0573 48.3257 53.0373 48.2805 53.024C48.2352 53.0107 48.1771 53.004 48.0996 53.004H47.2727C47.2017 53.004 47.1435 53.0107 47.0983 53.024C47.0531 53.0373 47.0143 53.0573 46.9885 53.084C46.9626 53.1106 46.9433 53.1506 46.9303 53.1972C46.9174 53.2438 46.911 53.3038 46.911 53.3771V54.0498Z" fill="white"/>
<path d="M36.3151 42.1846H35.0026V45.7227H36.3151V42.1846Z" fill="#1F373A"/>
<path d="M44.3614 42.1846H43.0489V45.7227H44.3614V42.1846Z" fill="#1F373A"/>
<path d="M42.2498 61.8151H41.4509V60.845C41.4509 60.6738 41.5935 60.5597 41.7362 60.5597H41.9359C42.1071 60.5597 42.2213 60.7024 42.2213 60.845V61.8151H42.2498Z" fill="#1F373A"/>
<path d="M27.584 51.2866C27.4699 51.0298 27.3272 50.4591 27.4984 50.2594C27.5555 50.1738 27.6696 50.1453 27.8408 50.1738H27.8693V49.8029C27.4984 49.7743 27.2987 49.8885 27.2131 50.0311C26.8707 50.4591 27.2131 51.3151 27.2701 51.4292C29.4957 56.023 35.3164 59.6467 42.9917 61.8437H43.648C36.0582 59.6467 29.781 55.7662 27.584 51.2866Z" fill="#1F373A"/>
<path d="M37.1138 61.8151H37.9127V60.845C37.9127 60.6738 37.7701 60.5597 37.6274 60.5597H37.4277C37.2565 60.5597 37.1424 60.7024 37.1424 60.845V61.8151H37.1138Z" fill="#1F373A"/>
<path d="M51.7798 51.2866C51.894 51.0298 52.0366 50.4591 51.8654 50.2594C51.8084 50.1738 51.6943 50.1453 51.5231 50.1738H51.4945V49.8029C51.8654 49.7743 52.0652 49.8885 52.1508 50.0311C52.4932 50.4591 52.1508 51.3151 52.0937 51.4292C49.8682 56.023 44.0475 59.6467 36.3721 61.8437H35.7159C43.3056 59.6467 49.5828 55.7662 51.7798 51.2866Z" fill="#1F373A"/>
<path d="M24.1315 91.6604L25.6723 91.5748C28.5256 76.0815 44.8749 74.3981 44.8749 74.3981C29.2104 74.6549 25.016 87.8941 24.1315 91.6604Z" fill="#284549"/>
<path d="M52.2363 76.6807C48.7267 74.1413 44.0759 73.9131 39.9957 75.0829C35.4019 76.424 31.3503 79.534 28.5255 83.6142C31.5785 82.9865 40.5664 81.2745 48.4985 81.3886C48.4985 81.3886 53.0352 81.246 51.095 85.2976C50.1819 87.1808 49.1262 89.064 48.2131 90.5762L55.2037 90.2624C55.5461 89.7488 55.8599 89.1781 56.0882 88.5789C57.7431 84.3846 55.7458 79.2202 52.2363 76.6807Z" fill="#398E8E"/>
<path d="M48.4985 81.3886C40.5664 81.2745 31.5786 82.9864 28.5256 83.6142C26.8707 86.0109 25.6438 88.7215 24.959 91.6319L48.2132 90.5476C49.0977 89.0354 50.182 87.1522 51.095 85.2691C53.0353 81.2459 48.4985 81.3886 48.4985 81.3886Z" fill="#4EA8A8"/>
<path d="M33.433 84.8982C33.433 84.8982 33.6327 84.8697 33.9751 84.8126C34.3175 84.7556 34.8026 84.67 35.3732 84.6129C35.9724 84.5558 36.6287 84.4417 37.3705 84.3846C38.1124 84.3276 38.8827 84.2705 39.6817 84.2134C40.0811 84.1849 40.4806 84.1849 40.8515 84.1564C41.251 84.1278 41.6219 84.1278 41.9928 84.1278C42.7347 84.1278 43.4195 84.1278 44.0187 84.1278C44.6178 84.1278 45.1029 84.1564 45.4453 84.1849C45.7877 84.2134 45.9874 84.2134 45.9874 84.2134C45.9874 84.2134 45.7877 84.242 45.4453 84.242C45.1029 84.2705 44.6178 84.299 44.0187 84.3276C42.8488 84.3846 41.2795 84.4702 39.7102 84.5844C38.1409 84.67 36.5716 84.7556 35.4017 84.8126C34.8026 84.8412 34.3175 84.8697 33.9751 84.8697C33.6327 84.8982 33.433 84.8982 33.433 84.8982Z" fill="#1F373A"/>
<path d="M33.4047 86.1251C33.4047 86.1251 33.6044 86.0966 33.9468 86.0395C34.2892 85.9825 34.7742 85.8969 35.3449 85.8398C35.9441 85.7827 36.6003 85.6686 37.3422 85.6115C38.084 85.5545 38.8544 85.4974 39.6533 85.4403C40.0528 85.4118 40.4523 85.4118 40.8232 85.3833C41.2226 85.3547 41.5936 85.3547 41.9645 85.3547C42.7064 85.3547 43.3911 85.3547 43.9903 85.3547C44.5895 85.3547 45.0746 85.3833 45.417 85.4118C45.7594 85.4403 45.9591 85.4403 45.9591 85.4403C45.9591 85.4403 45.7594 85.4689 45.417 85.4689C45.0746 85.4974 44.5895 85.5259 43.9903 85.5545C42.8205 85.6115 41.2512 85.6971 39.6819 85.8113C38.1126 85.8969 36.5433 85.9825 35.3734 86.0395C34.7742 86.0681 34.2892 86.0966 33.9468 86.0966C33.6044 86.1251 33.4047 86.1251 33.4047 86.1251Z" fill="#1F373A"/>
<path d="M33.4047 87.4091C33.4047 87.4091 33.6044 87.3806 33.9468 87.3235C34.2892 87.2664 34.7742 87.1808 35.3449 87.1238C35.9441 87.0667 36.6003 86.9526 37.3422 86.8955C38.084 86.8384 38.8544 86.7814 39.6533 86.7243C40.0528 86.6958 40.4523 86.6958 40.8232 86.6672C41.2226 86.6387 41.5936 86.6387 41.9645 86.6387C42.7064 86.6387 43.3911 86.6387 43.9903 86.6387C44.5895 86.6387 45.0746 86.6672 45.417 86.6958C45.7594 86.7243 45.9591 86.7243 45.9591 86.7243C45.9591 86.7243 45.7594 86.7528 45.417 86.7528C45.0746 86.7814 44.5895 86.8099 43.9903 86.8384C42.8205 86.8955 41.2512 86.9811 39.6819 87.0952C38.1126 87.1808 36.5433 87.2664 35.3734 87.3235C34.7742 87.352 34.2892 87.3805 33.9468 87.3805C33.5759 87.4091 33.4047 87.4091 33.4047 87.4091Z" fill="#1F373A"/>
<path d="M33.3761 88.8928C33.3761 88.8928 33.5758 88.8642 33.9182 88.8072C34.2606 88.7501 34.7457 88.6645 35.3163 88.6074C35.9155 88.5504 36.5718 88.4362 37.3136 88.3792C38.0555 88.3221 38.8259 88.265 39.6248 88.208C40.0242 88.1794 40.4237 88.1794 40.7946 88.1509C41.1941 88.1224 41.565 88.1224 41.9359 88.1224C42.6778 88.1224 43.3626 88.1224 43.9618 88.1224C44.561 88.1224 45.046 88.1509 45.3884 88.1794C45.7308 88.208 45.9305 88.208 45.9305 88.208C45.9305 88.208 45.7308 88.2365 45.3884 88.2365C45.046 88.265 44.561 88.2936 43.9618 88.3221C42.7919 88.3792 41.2226 88.4648 39.6533 88.5789C38.084 88.6645 36.5147 88.7501 35.3449 88.8072C34.7457 88.8357 34.2606 88.8642 33.9182 88.8642C33.5473 88.8642 33.3761 88.8928 33.3761 88.8928Z" fill="#1F373A"/>
<path d="M84.3644 54.6534L78.4296 55.9373C77.6592 56.1085 76.9173 55.4808 77.0029 54.7104V54.6819C77.0885 54.1683 77.5165 53.7688 78.0586 53.7118L83.8222 53.3409C83.8222 53.3409 84.4785 53.2553 84.7068 53.4835C84.935 53.7118 85.1918 54.3395 84.3644 54.6534Z" fill="#284549"/>
<path d="M63.8777 38.19C63.8207 37.9617 63.7636 37.762 63.7065 37.5908C63.7636 37.7905 63.8207 37.9902 63.8777 38.19Z" fill="#EAD1B7"/>
<path d="M64.0489 38.8463C63.9919 38.6466 63.9348 38.4183 63.8777 38.19C63.9348 38.3898 63.9919 38.618 64.0489 38.8463Z" fill="#EAD1B7"/>
<path d="M63.6781 37.4196C63.5925 37.1057 63.5354 36.8204 63.4783 36.5921C63.5354 36.8204 63.5925 37.1057 63.6781 37.4196Z" fill="#EAD1B7"/>
<path d="M63.7349 37.5614C63.7349 37.5046 63.7065 37.4478 63.7065 37.3911C63.7065 37.4478 63.7065 37.5046 63.7349 37.5614Z" fill="#EAD1B7"/>
<path d="M64.2201 39.53C64.1916 39.4446 64.1631 39.2738 64.1062 39.103C64.1631 39.2454 64.1916 39.3877 64.2201 39.53Z" fill="#EAD1B7"/>
<path d="M64.1344 39.1018C64.106 39.0166 64.0776 38.9314 64.0776 38.8462C64.0776 38.9314 64.106 39.0166 64.1344 39.1018Z" fill="#EAD1B7"/>
<path d="M64.2485 39.6446C64.2485 39.6162 64.2202 39.5594 64.2202 39.531C64.2486 39.5878 64.2485 39.6162 64.2485 39.6446Z" fill="#EAD1B7"/>
<path d="M63.4787 36.5931C63.4787 36.5641 63.4787 36.5641 63.4787 36.5351C63.4497 36.5351 63.4497 36.5641 63.4787 36.5931Z" fill="#EAD1B7"/>
<path d="M63.3643 36.1645C63.3643 36.1359 63.3357 36.1072 63.3357 36.0786C63.3357 36.1072 63.3357 36.1359 63.3643 36.1645Z" fill="#EAD1B7"/>
<path d="M65.0761 41.8992C64.7337 41.1859 64.4769 40.4441 64.2772 39.6451C64.2772 39.6451 62.6793 40.1873 60.8818 41.5283C60.8818 41.5283 61.0815 42.2987 61.6236 43.4685C62.2799 43.2973 62.9076 43.0976 63.5353 42.8408C64.0774 42.6126 64.6196 42.2987 65.0761 41.8992Z" fill="#DDB897"/>
<path d="M81.9961 54.0257L81.6251 53.0841C81.3684 52.3993 80.655 51.9999 79.9417 52.0855L77.602 52.3993C77.602 52.3993 68.443 49.1751 65.0761 41.8993C64.6196 42.2987 64.106 42.6126 63.5354 42.8408C62.9076 43.0976 62.2799 43.2974 61.6237 43.4686C63.1359 46.6357 67.2161 52.7417 77.1455 54.311C77.1455 54.311 78.03 53.1697 79.1428 54.1113C79.7705 54.6534 79.1143 55.8518 79.1143 55.8518C79.1143 55.8518 80.8548 56.1086 81.9105 54.7105C82.0531 54.5108 82.0817 54.254 81.9961 54.0257Z" fill="#EAD1B7"/>
<path d="M63.393 36.2501C63.393 36.2215 63.3643 36.1928 63.3643 36.1642C63.3643 36.1928 63.3643 36.2215 63.393 36.2501Z" fill="#EAD1B7"/>
<path d="M63.4495 36.5337C63.4211 36.4201 63.3927 36.3349 63.3643 36.2498C63.3927 36.3349 63.4211 36.4201 63.4495 36.5337Z" fill="#EAD1B7"/>
<path d="M63.3353 36.0772C63.3069 35.9636 63.2785 35.85 63.2501 35.7932C63.2785 35.85 63.3069 35.9352 63.3353 36.0772Z" fill="#EAD1B7"/>
<path d="M65.4471 40.5297C65.1617 39.3028 64.7908 38.0759 64.3057 36.906C64.0204 36.2212 63.678 35.565 63.193 35.0229C62.6794 34.4807 61.9946 34.0813 61.2527 34.1098C61.2527 34.1098 59.4837 34.1669 59.2554 36.5066C59.0272 38.7036 59.8261 40.8721 60.5679 42.955C60.5965 42.9835 60.5965 43.0406 60.625 43.0691C60.7391 43.1832 60.9103 43.0691 61.053 43.012C61.3098 42.8694 61.5951 42.8694 61.8805 42.8408C62.9647 42.6982 63.9633 42.2416 64.962 41.7566L65.4185 41.5569C65.6183 41.4713 65.7039 41.243 65.6183 41.0433L65.4471 40.5297Z" fill="#DD5900"/>
<path d="M80.056 53.7689C80.056 53.7689 80.1701 53.883 80.2557 54.0828C80.3127 54.1969 80.3413 54.311 80.3698 54.4537C80.3698 54.5393 80.3983 54.5963 80.3983 54.6819C80.3983 54.7675 80.3983 54.8246 80.3983 54.9102C80.3983 55.0814 80.3698 55.2241 80.3128 55.3667C80.2557 55.5094 80.1701 55.6235 80.0845 55.7091C79.9989 55.7947 79.9133 55.8233 79.8277 55.8518C79.7706 55.8803 79.7136 55.8803 79.7136 55.8803C79.7136 55.8803 79.8562 55.8233 79.9704 55.6521C80.0845 55.4809 80.1701 55.1955 80.1701 54.9387C80.1701 54.8817 80.1701 54.7961 80.1701 54.7105C80.1701 54.6534 80.1701 54.5678 80.1701 54.5107C80.1701 54.3681 80.1416 54.2539 80.113 54.1398C80.113 53.9116 80.056 53.7689 80.056 53.7689Z" fill="#DDB897"/>
<path d="M80.8549 53.455C80.8549 53.455 80.969 53.5406 81.1117 53.7404C81.1688 53.826 81.2258 53.9686 81.2829 54.1113C81.3114 54.254 81.34 54.4252 81.3114 54.5678C81.3114 54.7105 81.2544 54.8817 81.2258 55.0244C81.1688 55.167 81.1117 55.2812 81.0261 55.3667C80.969 55.4523 80.8834 55.5094 80.8264 55.5665C80.7693 55.595 80.7408 55.6235 80.7408 55.6235C80.7408 55.6235 80.8549 55.5094 80.9405 55.3382C80.9976 55.2526 81.0261 55.11 81.0546 54.9958C81.0832 54.8532 81.1117 54.739 81.1117 54.5678C81.1402 54.2825 81.0832 54.0257 80.9976 53.7974C80.9405 53.5977 80.8549 53.455 80.8549 53.455Z" fill="#DDB897"/>
<path d="M85.6482 58.648L88.6441 57.5638L88.8153 57.9632L85.8765 59.076L85.6482 58.648Z" fill="#4EA8A8"/>
</svg>
