<svg width="130" height="130" viewBox="0 0 130 130" fill="none" xmlns="http://www.w3.org/2000/svg">
<circle cx="66.4211" cy="66.5789" r="58.4211" fill="#C2EAFC"/>
<circle cx="113.947" cy="11.3158" r="6.31579" fill="#F0D0B4"/>
<circle cx="11.3158" cy="91.8422" r="6.31579" fill="#AAE5FF"/>
<circle r="3.15789" transform="matrix(1 0 0 -1 14.4737 69.7369)" fill="white"/>
<circle r="2.36842" transform="matrix(1 0 0 -1 108.421 40.5263)" fill="white"/>
<circle cx="120.263" cy="101.316" r="3.15789" fill="#76FD8C"/>
<circle cx="104.474" cy="8.1579" r="1.57895" fill="#76FD8C"/>
<circle cx="119.474" cy="26.3158" r="2.36842" fill="#1BB934"/>
<path fill-rule="evenodd" clip-rule="evenodd" d="M98.896 120.706C98.7663 120.603 98.6175 120.527 98.4582 120.481C98.2989 120.436 98.1322 120.423 97.9677 120.442C97.8031 120.461 97.6439 120.513 97.4991 120.593C97.3543 120.674 97.2268 120.782 97.1238 120.912C97.0208 121.042 96.9444 121.191 96.8989 121.351C96.8534 121.51 96.8398 121.677 96.8587 121.841C96.8777 122.006 96.9288 122.165 97.0093 122.31C97.0898 122.455 97.198 122.582 97.3278 122.685C97.5899 122.893 97.9238 122.987 98.2562 122.949C98.5885 122.91 98.8921 122.741 99.1001 122.478C99.308 122.216 99.4034 121.882 99.3651 121.549C99.3268 121.217 99.1581 120.913 98.896 120.706Z" fill="#BFC7D2"/>
<path d="M22.7246 11.4067L23.383 11.9287C23.5576 12.0672 23.67 12.2694 23.6954 12.491C23.7208 12.7125 23.6572 12.9352 23.5186 13.1101C23.3799 13.285 23.1776 13.3977 22.9561 13.4235C22.7346 13.4492 22.512 13.3859 22.3374 13.2475L21.679 12.7255L21.1562 13.3849C21.0176 13.5598 20.8152 13.6725 20.5937 13.6983C20.3722 13.724 20.1497 13.6607 19.9751 13.5223C19.8005 13.3839 19.6881 13.1816 19.6627 12.9601C19.6372 12.7385 19.7009 12.5158 19.8395 12.3409L20.3623 11.6815L19.7039 11.1595C19.5293 11.0211 19.417 10.8189 19.3915 10.5973C19.3661 10.3758 19.4297 10.153 19.5684 9.97816C19.707 9.80328 19.9094 9.69056 20.1309 9.66479C20.3524 9.63902 20.5749 9.70232 20.7495 9.84076L21.4079 10.3628L21.9307 9.70337C22.0694 9.52849 22.2717 9.41576 22.4932 9.39C22.7147 9.36423 22.9373 9.42753 23.1119 9.56597C23.2865 9.70441 23.3989 9.90665 23.4243 10.1282C23.4497 10.3498 23.3861 10.5725 23.2474 10.7473L22.7246 11.4067Z" fill="#BFC7D2"/>
<path d="M11.7246 25.4067L12.383 25.9287C12.5576 26.0672 12.67 26.2694 12.6954 26.491C12.7208 26.7125 12.6572 26.9352 12.5186 27.1101C12.3799 27.285 12.1776 27.3977 11.9561 27.4235C11.7346 27.4492 11.512 27.3859 11.3374 27.2475L10.679 26.7255L10.1562 27.3849C10.0176 27.5598 9.81525 27.6725 9.59374 27.6983C9.37222 27.724 9.1497 27.6607 8.97509 27.5223C8.80048 27.3839 8.68809 27.1816 8.66267 26.9601C8.63725 26.7385 8.70087 26.5158 8.83952 26.3409C8.83952 26.3409 9.40029 26.008 9.36232 25.6815C9.32441 25.3556 8.70395 25.1595 8.70395 25.1595C8.52934 25.0211 8.41697 24.8189 8.39154 24.5973C8.36612 24.3758 8.42973 24.153 8.56838 23.9782C8.70704 23.8033 8.90938 23.6906 9.13089 23.6648C9.3524 23.639 9.57494 23.7023 9.74955 23.8408L10.4079 24.3628L10.9307 23.7034C11.0694 23.5285 11.2717 23.4158 11.4932 23.39C11.7147 23.3642 11.9373 23.4275 12.1119 23.566C12.2865 23.7044 12.3989 23.9066 12.4243 24.1282C12.4497 24.3498 12.3861 24.5725 12.2474 24.7473L11.7246 25.4067Z" fill="#BFC7D2"/>
<circle cx="73.5" cy="55.5" r="28.5" fill="#D8F1FD"/>
<path d="M52.0293 35.9903C58.8652 36.0207 60.1868 41.7325 60.6426 44.1934C71.3978 44.1251 93.7244 44.1934 97.0098 44.1934C100.359 44.1934 102 47.7861 102 49.1837V61.1465H32V41.1856C32.4785 38.3145 34.8711 35.9903 37.1953 35.9903C39.5195 35.9903 45.1934 35.9599 52.0293 35.9903Z" fill="#FFBB33"/>
<rect x="40.75" y="48.6748" width="52.6367" height="12.5781" fill="white"/>
<path d="M32 61H102V96.2539C102 101.777 97.5228 106.254 92 106.254H42C36.4772 106.254 32 101.777 32 96.2539V61Z" fill="#FFE666"/>
<path d="M68.7188 89.9965H65.2812C64.7098 89.9965 64.25 89.4949 64.25 88.8715V80.9965H60.4816C59.7168 80.9965 59.3344 79.9887 59.8758 79.398L66.4113 72.2637C66.7336 71.9121 67.2621 71.9121 67.5844 72.2637L74.1242 79.398C74.6656 79.9887 74.2832 80.9965 73.5184 80.9965H69.75V88.8715C69.75 89.4949 69.2902 89.9965 68.7188 89.9965ZM78 89.6215V94.8715C78 95.4949 77.5402 95.9965 76.9688 95.9965H57.0312C56.4598 95.9965 56 95.4949 56 94.8715V89.6215C56 88.998 56.4598 88.4965 57.0312 88.4965H62.875V88.8715C62.875 90.3199 63.9535 91.4965 65.2812 91.4965H68.7188C70.0465 91.4965 71.125 90.3199 71.125 88.8715V88.4965H76.9688C77.5402 88.4965 78 88.998 78 89.6215ZM72.6719 93.7465C72.6719 93.2308 72.2852 92.809 71.8125 92.809C71.3398 92.809 70.9531 93.2308 70.9531 93.7465C70.9531 94.2621 71.3398 94.684 71.8125 94.684C72.2852 94.684 72.6719 94.2621 72.6719 93.7465ZM75.4219 93.7465C75.4219 93.2308 75.0352 92.809 74.5625 92.809C74.0898 92.809 73.7031 93.2308 73.7031 93.7465C73.7031 94.2621 74.0898 94.684 74.5625 94.684C75.0352 94.684 75.4219 94.2621 75.4219 93.7465Z" fill="#007212"/>
<rect x="44.0312" y="52.7763" width="27.3438" height="0.136719" fill="#C4C4C4"/>
<rect x="44.0312" y="54.4169" width="46.2109" height="0.136719" fill="#C4C4C4"/>
<rect x="44.0312" y="56.0576" width="46.2109" height="0.136719" fill="#C4C4C4"/>
<rect x="44.0312" y="57.6982" width="39.2383" height="0.136719" fill="#C4C4C4"/>
<rect x="44.0312" y="59.3388" width="39.2383" height="0.136719" fill="#C4C4C4"/>
</svg>
