<svg width="130" height="130" viewBox="0 0 130 130" fill="none" xmlns="http://www.w3.org/2000/svg">
<circle cx="66.5789" cy="66.5789" r="58.4211" fill="#CEECD3"/>
<circle cx="113.947" cy="11.3158" r="6.31579" fill="#76FD8C"/>
<circle cx="11.3158" cy="91.8422" r="6.31579" fill="#76FD8C"/>
<circle r="3.15789" transform="matrix(1 0 0 -1 14.4737 69.7369)" fill="white"/>
<circle r="2.36842" transform="matrix(1 0 0 -1 108.421 40.5263)" fill="white"/>
<circle cx="120.263" cy="101.316" r="3.15789" fill="#76FD8C"/>
<circle cx="104.474" cy="8.1579" r="1.57895" fill="#76FD8C"/>
<circle cx="119.474" cy="26.3158" r="2.36842" fill="#1BB934"/>
<circle cx="79.5" cy="50.5" r="28.5" fill="#DFF3E3"/>
<path fill-rule="evenodd" clip-rule="evenodd" d="M98.896 120.706C98.7663 120.603 98.6175 120.527 98.4582 120.481C98.2989 120.436 98.1322 120.423 97.9676 120.442C97.8031 120.461 97.6439 120.513 97.4991 120.593C97.3543 120.674 97.2267 120.782 97.1238 120.912C97.0208 121.042 96.9444 121.191 96.8989 121.351C96.8534 121.51 96.8398 121.677 96.8587 121.841C96.8777 122.006 96.9288 122.165 97.0093 122.31C97.0898 122.455 97.198 122.582 97.3278 122.685C97.5898 122.893 97.9238 122.987 98.2562 122.949C98.5885 122.91 98.8921 122.741 99.1001 122.478C99.308 122.216 99.4033 121.882 99.3651 121.549C99.3268 121.217 99.1581 120.913 98.896 120.706Z" fill="#BFC7D2"/>
<path d="M22.7247 11.4067L23.383 11.9287C23.5576 12.0672 23.67 12.2694 23.6954 12.491C23.7209 12.7125 23.6572 12.9352 23.5186 13.1101C23.3799 13.285 23.1776 13.3977 22.9561 13.4235C22.7346 13.4492 22.512 13.3859 22.3374 13.2475L21.6791 12.7255L21.1563 13.3849C21.0176 13.5598 20.8153 13.6725 20.5938 13.6983C20.3722 13.724 20.1497 13.6607 19.9751 13.5223C19.8005 13.3839 19.6881 13.1816 19.6627 12.9601C19.6373 12.7385 19.7009 12.5158 19.8395 12.3409L20.3623 11.6815L19.704 11.1595C19.5294 11.0211 19.417 10.8189 19.3916 10.5973C19.3661 10.3758 19.4297 10.153 19.5684 9.97816C19.7071 9.80328 19.9094 9.69056 20.1309 9.66479C20.3524 9.63902 20.575 9.70232 20.7496 9.84076L21.4079 10.3628L21.9307 9.70337C22.0694 9.52849 22.2717 9.41576 22.4932 9.39C22.7147 9.36423 22.9373 9.42753 23.1119 9.56597C23.2865 9.70441 23.3989 9.90665 23.4243 10.1282C23.4497 10.3498 23.3861 10.5725 23.2475 10.7473L22.7247 11.4067Z" fill="#BFC7D2"/>
<path d="M11.7247 25.4067L12.383 25.9287C12.5576 26.0672 12.67 26.2694 12.6954 26.491C12.7209 26.7125 12.6572 26.9352 12.5186 27.1101C12.3799 27.285 12.1776 27.3977 11.9561 27.4235C11.7346 27.4492 11.512 27.3859 11.3374 27.2475L10.6791 26.7255L10.1563 27.3849C10.0176 27.5598 9.81526 27.6725 9.59375 27.6983C9.37224 27.724 9.14972 27.6607 8.97511 27.5223C8.8005 27.3839 8.68811 27.1816 8.66269 26.9601C8.63726 26.7385 8.70088 26.5158 8.83954 26.3409C8.83954 26.3409 9.40031 26.008 9.36234 25.6815C9.32442 25.3556 8.70397 25.1595 8.70397 25.1595C8.52936 25.0211 8.41698 24.8189 8.39156 24.5973C8.36613 24.3758 8.42974 24.153 8.5684 23.9782C8.70705 23.8033 8.9094 23.6906 9.13091 23.6648C9.35242 23.639 9.57496 23.7023 9.74957 23.8408L10.4079 24.3628L10.9307 23.7034C11.0694 23.5285 11.2717 23.4158 11.4932 23.39C11.7147 23.3642 11.9373 23.4275 12.1119 23.566C12.2865 23.7044 12.3989 23.9066 12.4243 24.1282C12.4497 24.3498 12.3861 24.5725 12.2475 24.7473L11.7247 25.4067Z" fill="#BFC7D2"/>
<path d="M93.0443 52.3038V101.141C93.0443 104.43 90.3776 107.097 87.0885 107.097H36.9115C33.6224 107.097 30.9557 104.43 30.9557 101.141V52.3038H93.0443Z" fill="#F5F5F5"/>
<path d="M39.8893 107.097H36.9115C33.6224 107.097 30.9557 104.43 30.9557 101.141V52.3038H33.9336V101.141C33.9336 104.43 36.6003 107.097 39.8893 107.097Z" fill="#E6E6E6"/>
<path d="M93.0443 54.9839V74.3892C92.6571 74.4547 92.2596 74.4889 91.8531 74.4889H90.8109C88.8365 74.4889 87.0498 73.6894 85.7574 72.3955C84.4635 71.1031 83.664 69.3164 83.664 67.3421C83.664 69.3164 82.8644 71.1031 81.5705 72.3955C80.2781 73.6894 78.4914 74.4889 76.5171 74.4889C72.5699 74.4889 69.3702 71.2892 69.3702 67.3421C69.3702 71.2892 66.1705 74.4889 62.2233 74.4889H62.0744C60.1001 74.4889 58.3134 73.6894 57.021 72.3955C55.7271 71.1031 54.9276 69.3164 54.9276 67.3421C54.9276 71.2892 51.7278 74.4889 47.7807 74.4889H47.4829C45.5086 74.4889 43.7219 73.6894 42.4295 72.3955C41.1356 71.1031 40.336 69.3164 40.336 67.3421C40.336 71.2892 37.1363 74.4889 33.1891 74.4889H32.1469C31.7404 74.4889 31.3429 74.4547 30.9557 74.3892V54.9839H93.0443Z" fill="#E6E6E6"/>
<path d="M41.9411 52.3038L40.4864 62.2886C40.3866 63.0763 40.336 63.8684 40.336 64.662C40.336 64.787 40.333 64.9106 40.3271 65.0342C40.1335 68.8087 37.0112 71.8089 33.1891 71.8089H32.1469C30.1726 71.8089 28.3858 71.0093 27.0934 69.7154C25.8814 68.5049 25.1027 66.8611 25.0089 65.0342C25.003 64.9106 25 64.787 25 64.662C25 63.8773 25.1727 63.1031 25.5077 62.3928L30.9557 52.3038L35.9627 50.8149L41.9411 52.3038Z" fill="#FD646F"/>
<path d="M54.9276 52.3038V64.662C54.9276 64.787 54.9246 64.9106 54.9186 65.0342C54.7251 68.8087 51.6028 71.8089 47.7807 71.8089H47.4829C45.5086 71.8089 43.7218 71.0093 42.4295 69.7154C41.2175 68.5049 40.4387 66.8611 40.3449 65.0342C40.339 64.9106 40.336 64.787 40.336 64.662C40.336 63.8684 40.3866 63.0763 40.4864 62.2886L41.9411 52.3038L48.229 50.8149L54.9276 52.3038Z" fill="#FFC682"/>
<path d="M69.3702 52.3038V64.662C69.3702 64.787 69.3672 64.9106 69.3613 65.0342C69.1677 68.8087 66.0454 71.8089 62.2233 71.8089H62.0744C58.2524 71.8089 55.1301 68.8087 54.9365 65.0342C54.9305 64.9106 54.9276 64.787 54.9276 64.662V52.3038L62.2978 50.8149L69.3702 52.3038Z" fill="#FD646F"/>
<path d="M83.664 64.662C83.664 64.787 83.661 64.9106 83.655 65.0342C83.5612 66.8611 82.7825 68.5049 81.5705 69.7154C80.2781 71.0093 78.4914 71.8089 76.5171 71.8089C72.695 71.8089 69.5727 68.8087 69.3792 65.0342C69.3732 64.9106 69.3702 64.787 69.3702 64.662V52.3038L75.996 50.8149L82.2078 52.3038L83.5285 62.2871C83.6178 63.0763 83.664 63.8684 83.664 64.662V64.662Z" fill="#FFC682"/>
<path d="M99 64.662C99 64.787 98.997 64.9106 98.9911 65.0342C98.7975 68.8087 95.6752 71.8089 91.8531 71.8089H90.8109C88.8365 71.8089 87.0498 71.0093 85.7574 69.7154C84.5454 68.5049 83.7667 66.8611 83.6729 65.0342C83.667 64.9106 83.664 64.787 83.664 64.662C83.664 63.8684 83.6178 63.0763 83.5285 62.2871L82.2078 52.3038L87.6128 50.8149L93.0443 52.3038L98.4923 62.3928C98.6605 62.7472 98.7871 63.1194 98.872 63.4991C98.9568 63.8803 99 64.2689 99 64.662V64.662Z" fill="#FD646F"/>
<path d="M76.5695 80.6655C76.6358 80.3372 76.551 79.9965 76.339 79.7374C76.1268 79.4784 75.8097 79.328 75.4748 79.328H50.304L50.2663 79.1502C49.8682 77.2689 48.1834 75.9034 46.2606 75.9034H44.3561C43.7394 75.9034 43.2394 76.4033 43.2394 77.0201C43.2394 77.637 43.7394 78.1368 44.3561 78.1368H46.2606C47.1346 78.1368 47.9004 78.7574 48.0814 79.6125L51.3997 95.2884C51.7131 96.7692 52.825 97.9271 54.2214 98.3545C54.053 98.7536 53.9598 99.1921 53.9598 99.6519C53.9598 101.499 55.4625 103.002 57.3099 103.002C59.1572 103.002 60.66 101.499 60.66 99.6519C60.66 99.2605 60.5918 98.8847 60.4679 98.5352H65.4677C65.3437 98.8847 65.2756 99.2605 65.2756 99.6519C65.2756 101.499 66.7784 103.002 68.6257 103.002C70.4731 103.002 71.9758 101.499 71.9758 99.6519C71.9758 99.2605 71.9077 98.8847 71.7838 98.5352H72.0503C72.667 98.5352 73.167 98.0354 73.167 97.4185C73.167 96.8017 72.667 96.3018 72.0503 96.3018H55.4054C54.5314 96.3018 53.7656 95.6812 53.5845 94.8261L53.2982 93.4728H58.9432C58.9443 93.4728 58.9453 93.473 58.9463 93.473C58.9471 93.473 58.9478 93.4728 58.9487 93.4728H66.0937C66.0944 93.4728 66.0952 93.473 66.0961 93.473C66.0971 93.473 66.0981 93.4728 66.0992 93.4728H73.0719C73.6034 93.4728 74.0614 93.0981 74.1665 92.5769L75.3399 86.761C75.3703 86.672 75.3897 86.578 75.3965 86.4804L76.5695 80.6655ZM58.4266 99.6519C58.4266 100.268 57.9257 100.769 57.3099 100.769C56.694 100.769 56.1932 100.268 56.1932 99.6519C56.1932 99.0361 56.694 98.5352 57.3099 98.5352C57.9257 98.5352 58.4266 99.0361 58.4266 99.6519ZM69.7424 99.6519C69.7424 100.268 69.2416 100.769 68.6257 100.769C68.0099 100.769 67.509 100.268 67.509 99.6519C67.509 99.0361 68.0099 98.5352 68.6257 98.5352C69.2416 98.5352 69.7424 99.0361 69.7424 99.6519ZM73.3594 85.2837H68.104L68.5693 81.5614H74.1104L73.3594 85.2837ZM59.9335 91.2394L59.4682 87.5171H65.5742L65.1089 91.2394H59.9335ZM59.189 85.2837L58.7237 81.5614H66.3186L65.8534 85.2837H59.189ZM56.4729 81.5614L56.9382 85.2837H51.5647L50.7767 81.5614H56.4729ZM52.0374 87.5171H57.2174L57.6827 91.2394H52.8253L52.0374 87.5171ZM67.3596 91.2394L67.8249 87.5171H72.9088L72.1578 91.2394H67.3596Z" fill="#50758D"/>
<path d="M25.0089 65.0342H40.3271C40.1335 68.8087 37.0112 71.8089 33.1891 71.8089H32.1469C30.1726 71.8089 28.3858 71.0093 27.0934 69.7154C25.8814 68.5049 25.1027 66.8611 25.0089 65.0342V65.0342Z" fill="#FC4755"/>
<path d="M40.3449 65.0342H54.9186C54.7251 68.8087 51.6028 71.8089 47.7807 71.8089H47.4829C45.5086 71.8089 43.7218 71.0093 42.4295 69.7154C41.2175 68.5049 40.4388 66.8611 40.3449 65.0342Z" fill="#FFAC5C"/>
<path d="M54.9365 65.0342H69.3613C69.1677 68.8087 66.0454 71.8089 62.2233 71.8089H62.0744C58.2523 71.8089 55.1301 68.8087 54.9365 65.0342Z" fill="#FC4755"/>
<path d="M69.3792 65.0342H83.6551C83.5612 66.8611 82.7825 68.5049 81.5705 69.7154C80.2781 71.0093 78.4914 71.8089 76.5171 71.8089C72.695 71.8089 69.5727 68.8087 69.3792 65.0342Z" fill="#FFAC5C"/>
<path d="M98.9911 65.0342C98.7975 68.8087 95.6752 71.8089 91.8531 71.8089H90.8109C88.8365 71.8089 87.0498 71.0093 85.7574 69.7154C84.5454 68.5049 83.7667 66.8611 83.6729 65.0342H98.9911Z" fill="#FC4755"/>
<path d="M30.9557 52.3038V44.8592C30.9557 41.57 33.6223 38.9034 36.9115 38.9034H87.0885C90.3777 38.9034 93.0443 41.57 93.0443 44.8592V52.3038H30.9557Z" fill="#50758D"/>
<path d="M40.3137 47.74C40.8143 47.1544 41.1177 46.3953 41.1177 45.5664C41.1177 43.7192 39.6149 42.2163 37.7676 42.2163C36.726 42.2163 35.7939 42.6943 35.1789 43.4424C34.8952 43.7733 34.6115 44.1041 34.328 44.4351C33.8274 45.0207 33.5241 45.7796 33.5241 46.6087C33.5241 48.4558 35.0269 49.9588 36.8742 49.9588C37.9161 49.9588 38.8481 49.4807 39.4631 48.7325C39.4772 48.716 40.0445 48.0544 40.3137 47.74Z" fill="#2B597F"/>
<path d="M49.1356 47.7772C49.6362 47.1916 49.9396 46.4325 49.9396 45.6036C49.9396 43.7565 48.4369 42.2535 46.5895 42.2535C45.5479 42.2535 44.6158 42.7315 44.0009 43.4797C43.7171 43.8105 43.4334 44.1413 43.1499 44.4723C42.6494 45.0579 42.3461 45.8168 42.3461 46.6459C42.3461 48.4931 43.8489 49.996 45.6962 49.996C46.738 49.996 47.6701 49.5179 48.285 48.7697C48.2991 48.7532 48.8664 48.0916 49.1356 47.7772Z" fill="#2B597F"/>
<path d="M57.9203 47.7772C58.4209 47.1916 58.7243 46.4325 58.7243 45.6036C58.7243 43.7565 57.2216 42.2535 55.3742 42.2535C54.3326 42.2535 53.4005 42.7315 52.7856 43.4797C52.5018 43.8105 52.2182 44.1413 51.9347 44.4723C51.4341 45.0579 51.1308 45.8168 51.1308 46.6459C51.1308 48.4931 52.6336 49.996 54.4809 49.996C55.5227 49.996 56.4548 49.5179 57.0697 48.7697C57.0838 48.7532 57.6511 48.0916 57.9203 47.7772Z" fill="#2B597F"/>
<path d="M37.7676 48.9165C35.9203 48.9165 34.4175 47.4136 34.4175 45.5664C34.4175 43.7192 35.9203 42.2163 37.7676 42.2163C39.6149 42.2163 41.1177 43.7192 41.1177 45.5664C41.1177 47.4136 39.6149 48.9165 37.7676 48.9165Z" fill="#FD646F"/>
<path d="M46.5895 48.9537C44.7422 48.9537 43.2394 47.4508 43.2394 45.6036C43.2394 43.7565 44.7422 42.2535 46.5895 42.2535C48.4369 42.2535 49.9396 43.7565 49.9396 45.6036C49.9396 47.4508 48.4369 48.9537 46.5895 48.9537Z" fill="#FFC682"/>
<path d="M55.3742 48.9537C53.5269 48.9537 52.0241 47.4508 52.0241 45.6036C52.0241 43.7565 53.5269 42.2535 55.3742 42.2535C57.2216 42.2535 58.7243 43.7565 58.7243 45.6036C58.7243 47.4508 57.2216 48.9537 55.3742 48.9537Z" fill="#93DDB7"/>
<path d="M88.8901 47.7772C89.3907 47.1916 89.6942 46.4325 89.6942 45.6036C89.6942 43.7565 88.1914 42.2535 86.3441 42.2535H66.5413C65.4996 42.2535 64.5675 42.7315 63.9526 43.4797C63.6688 43.8105 63.3852 44.1413 63.1017 44.4723C62.6011 45.0579 62.2978 45.8168 62.2978 46.6459C62.2978 48.4931 63.8006 49.996 65.6479 49.996H85.4507C86.4925 49.996 87.4246 49.5179 88.0395 48.7697C88.0537 48.7532 88.6209 48.0916 88.8901 47.7772Z" fill="#2B597F"/>
<path d="M86.3441 48.9537H66.5412C64.6939 48.9537 63.1911 47.4508 63.1911 45.6036C63.1911 43.7565 64.6939 42.2535 66.5412 42.2535H86.3441C88.1914 42.2535 89.6942 43.7565 89.6942 45.6036C89.6942 47.4508 88.1914 48.9537 86.3441 48.9537Z" fill="#F5F5F5"/>
<path d="M46.5895 48.9537C44.7422 48.9537 43.2394 47.4508 43.2394 45.6036C43.2394 43.7565 44.7422 42.2535 46.5895 42.2535C48.4369 42.2535 49.9396 43.7565 49.9396 45.6036C49.9396 47.4508 48.4369 48.9537 46.5895 48.9537Z" fill="#FFC682"/>
<path d="M55.3742 48.9537C53.5269 48.9537 52.0241 47.4508 52.0241 45.6036C52.0241 43.7565 53.5269 42.2535 55.3742 42.2535C57.2216 42.2535 58.7243 43.7565 58.7243 45.6036C58.7243 47.4508 57.2216 48.9537 55.3742 48.9537Z" fill="#93DDB7"/>
</svg>
