<svg width="130" height="130" viewBox="0 0 130 130" fill="none" xmlns="http://www.w3.org/2000/svg">
<circle cx="66.4211" cy="66.4211" r="58.4211" fill="#E6EDB7"/>
<circle cx="113.947" cy="11.3158" r="6.31579" fill="#F1BC19"/>
<circle cx="11.3158" cy="91.8421" r="6.31579" fill="#F1BC19"/>
<circle r="3.15789" transform="matrix(1 0 0 -1 14.4737 69.7369)" fill="white"/>
<circle r="2.36842" transform="matrix(1 0 0 -1 108.421 40.5263)" fill="white"/>
<circle cx="120.263" cy="101.316" r="3.15789" fill="#F1BC19"/>
<circle cx="104.474" cy="8.1579" r="1.57895" fill="#F1BC19"/>
<circle cx="119.474" cy="26.3158" r="2.36842" fill="#88AE45"/>
<circle cx="80.5" cy="58.5" r="28.5" fill="#F8FECF"/>
<path fill-rule="evenodd" clip-rule="evenodd" d="M99.7959 67.6626H93.4474L94.7768 62.2926H98.3992L99.7959 67.6626Z" fill="#FFD05B"/>
<path d="M97.2864 48.0645H96.0316V64.1H97.2864V48.0645Z" fill="#FFD05B"/>
<path fill-rule="evenodd" clip-rule="evenodd" d="M99.1685 62.2926C99.1685 60.896 98.0482 59.7159 96.659 59.7159C95.2623 59.7159 94.0823 60.9034 94.0823 62.2926C94.0823 63.6893 95.2623 64.8021 96.659 64.8021C98.0482 64.8021 99.1685 63.6818 99.1685 62.2926Z" fill="#F9B54C"/>
<path fill-rule="evenodd" clip-rule="evenodd" d="M30 46.9517L66.5373 33L103 46.9517L66.5373 60.8959L30 46.9517Z" fill="#324A5E"/>
<path fill-rule="evenodd" clip-rule="evenodd" d="M95.6134 79.7248C95.6134 64.0328 82.782 51.2014 67.0228 51.2014C51.2637 51.2014 38.4323 64.0328 38.4323 79.7248C38.4323 95.4839 51.2637 108.315 67.0228 108.315C82.782 108.308 95.6134 95.4839 95.6134 79.7248Z" fill="#5F95DD"/>
<path fill-rule="evenodd" clip-rule="evenodd" d="M72.0418 101.825C71.6236 102.243 71.1381 102.31 70.578 102.243C70.2269 102.176 69.9506 102.034 69.6668 102.034C69.2485 102.176 69.0394 102.452 68.7631 102.729C68.4867 103.147 68.2029 103.632 67.7846 103.983C67.7174 104.125 67.5755 104.334 67.5755 104.469C67.5755 104.887 68.061 104.954 68.412 104.954C68.7631 104.887 69.0394 104.678 69.383 104.603C69.734 104.461 70.0775 104.603 70.4286 104.461C70.914 104.394 71.3323 103.976 71.6161 103.692C71.8925 103.408 72.1016 103.132 72.2435 102.781C72.5273 102.452 72.3929 101.967 72.0418 101.825Z" fill="#ABCB57"/>
<path fill-rule="evenodd" clip-rule="evenodd" d="M78.9505 63.9656C78.5322 64.1748 78.5994 64.6602 78.7414 65.0859V64.8768C78.8086 65.3623 79.3015 65.8552 79.9289 65.8552C80.4144 65.9971 81.0492 65.7133 81.3255 65.1606C80.7654 64.8096 80.138 64.466 79.5106 64.0403C79.4359 64.0329 79.1521 63.8909 78.9505 63.9656ZM95.6134 79.7248C95.6134 79.5829 95.6134 79.4484 95.6134 79.3738C95.2623 79.2318 94.9188 79.0974 94.6349 78.8883C93.8657 78.4028 93.1711 77.3572 93.2383 76.3788C93.2383 75.9605 93.3727 75.6842 93.3727 75.2659C93.2383 74.6385 92.8126 74.2875 92.5362 73.8693C91.6997 73.0327 90.9304 72.3381 90.0939 71.6361C89.1155 70.7996 87.7263 70.2394 86.8151 71.0087C86.606 71.2178 86.4641 71.4269 86.255 71.6361C85.7695 71.9124 85.1346 71.7033 84.6492 71.5689C84.1637 71.3597 83.3272 71.4269 83.2525 72.0543C83.1106 72.7564 84.1562 73.0327 84.3728 73.7273C84.44 73.9365 84.3728 74.1456 84.44 74.3547C84.582 75.4004 86.0458 75.7514 86.6732 74.9821C87.0915 74.3547 87.1587 73.3763 87.8533 73.3763C88.6226 73.6527 89.108 74.4892 89.108 75.1912C88.8989 74.6311 88.0624 74.8402 87.7786 75.2584C87.5023 75.6767 87.3603 76.3041 87.084 76.5804C86.3894 77.275 85.1272 77.0659 84.2234 76.6476C82.1994 75.953 80.3173 75.251 78.3007 74.5564C78.0916 74.4892 77.8078 74.3472 77.5986 74.4892C77.2476 74.5564 77.1804 74.9821 76.904 75.1912C76.4858 75.4676 75.8584 75.4003 75.4402 75.0493C75.0891 74.7655 74.6709 74.4892 74.1854 74.28C73.6252 74.0709 73.0725 74.3472 72.9306 74.8402C72.9306 75.0493 72.9306 75.2584 73.0725 75.4676C73.9763 77.2078 76.2094 77.4916 77.6733 78.6045C77.8152 77.9099 78.7862 77.7679 79.4135 78.119C80.0409 78.47 80.1828 79.2318 80.3173 79.9339C80.3845 80.6285 80.3845 81.3306 80.8102 81.9579C81.2957 82.8691 82.6251 83.2127 83.5289 82.8691C84.1562 82.5181 84.8508 82.0326 85.3363 82.4509C85.8965 82.8691 85.4782 83.6384 85.6873 84.2658C85.762 84.4749 85.9711 84.684 85.9711 84.9604C86.0384 85.4533 85.2691 85.7969 84.7836 85.5878C84.2234 85.3786 83.9471 84.8857 83.5289 84.4675C83.1106 84.0492 82.6177 83.6309 82.1322 83.8401C81.5048 83.7729 81.0866 84.5347 81.2957 85.1695C81.5048 85.7969 82.1322 86.0733 82.6177 86.3496C82.5504 86.9098 82.0575 87.0442 81.5048 87.0442C81.0193 87.0442 80.6011 86.9023 80.1754 86.6932C78.9878 86.0658 77.5986 85.1621 77.4567 83.8326C77.4567 83.4144 77.5986 83.0633 77.4567 82.5032C77.3895 81.2484 76.3439 80.2028 75.3655 79.3663C73.6252 78.4626 71.9522 77.4841 69.9954 77.6933C69.3008 77.7605 68.6062 78.1115 67.9788 78.3879C66.7913 79.0152 65.6112 79.7845 64.5581 80.6882C63.8635 81.3828 63.1614 82.2194 63.027 83.1978C62.9598 84.5197 63.9307 85.6401 64.9838 86.4766C65.9623 87.2458 67.217 88.0824 67.7025 89.2624C66.7988 89.6135 66.6569 90.7935 66.3805 91.7047C65.6859 93.7288 63.0345 94.5653 61.9142 96.4474C61.354 97.493 61.2196 98.7478 60.5175 99.6515C60.2412 100.07 59.8901 100.421 59.7482 100.906C59.1208 102.228 60.4503 103.834 61.9142 104.043C63.4453 104.252 64.8419 103.416 66.0967 102.505C66.373 102.295 66.6568 102.019 67.0751 101.877C67.4261 101.81 67.7025 101.81 67.9863 101.81C68.6809 101.81 69.4502 101.668 70.1448 101.668C69.7937 101.668 69.7265 101.183 69.9356 100.973C70.1448 100.764 70.4286 100.69 70.6377 100.481C71.6161 99.9951 72.236 98.9495 72.6543 97.971C73.1472 98.9495 74.6783 98.7403 75.7986 98.3893C76.7771 97.971 77.8899 97.62 78.9355 97.269C78.241 97.3362 77.4717 96.7088 77.1953 96.0142C76.9862 95.3122 77.1281 94.5503 77.4044 93.781C77.6808 93.2209 78.1065 92.5935 78.3156 91.8989C78.5248 91.2043 78.5247 90.5023 78.7339 89.8749C78.943 89.1803 79.2194 88.4782 79.9214 88.2691C80.1978 89.6658 80.0633 91.0549 79.4359 92.3844C78.9505 93.43 78.2484 94.6176 78.9505 95.4541C79.2268 95.8051 79.7198 95.947 80.2052 96.0142C81.46 96.2233 82.6475 96.4325 83.7604 96.6416C83.3421 95.103 83.133 93.5047 83.133 91.9661C83.133 91.6151 83.2749 91.1968 83.5513 91.0624C84.0367 92.8699 84.806 94.6176 85.9189 96.1561C86.0608 96.3653 86.1952 96.6416 86.2699 96.9254C86.2699 97.2764 86.2699 97.4856 86.2027 97.7619C85.7844 99.0839 85.0824 100.204 85.0151 101.459C85.0151 101.668 85.0151 101.81 85.0151 101.944C91.4308 96.7387 95.6134 88.7172 95.6134 79.7248ZM85.9861 58.3864C82.9164 55.6678 79.2194 53.5765 75.1787 52.3218C74.9024 53.0164 74.4841 53.6438 74.275 54.2786C73.9987 55.2495 73.8568 56.5118 73.1622 57.2736C72.8858 57.6246 72.5348 57.8337 72.3929 58.1773C71.8327 59.0138 72.251 60.1341 73.0949 60.5449C73.8642 60.9632 74.9771 60.6121 75.6045 60.0594C75.8136 59.8503 76.0227 59.7084 76.2318 59.7084C76.5082 59.7084 76.792 60.0594 77.0011 60.3358C78.1215 61.7324 80.0708 62.569 81.8857 62.1507C81.9529 61.5233 81.0492 61.247 81.0492 60.6121C81.0492 60.1267 81.7438 59.9175 82.2367 60.1267C82.7969 60.3358 83.0733 60.8213 83.4915 61.0304C83.977 61.2395 84.679 61.0976 85.0973 60.8213C85.5156 60.403 85.7247 59.8503 85.5156 59.2902C85.3736 59.081 85.3064 58.7972 85.3736 58.5881C85.4334 58.3864 85.7844 58.3864 85.9861 58.3864ZM61.0254 51.7616C55.0279 53.0836 49.7326 56.2205 45.7517 60.6196C46.17 61.8071 47.0065 62.92 47.3575 64.1748C47.4994 64.8021 47.4994 65.3623 47.7085 65.9897C47.9177 66.617 48.3359 67.11 48.9633 67.1772C49.4562 66.617 49.5234 65.7133 49.0305 65.0859C49.4487 64.8768 49.867 64.8096 50.0761 64.3914C50.2852 64.0403 50.2852 63.4801 49.867 63.3457C49.6579 63.2785 49.3068 63.3457 49.0305 63.3457C48.2612 63.3457 47.7085 62.442 47.3575 61.6727C48.9633 61.0453 50.8454 61.6727 51.7491 63.0694C51.54 62.8602 51.4728 62.5839 51.2637 62.3748C52.5931 61.9565 53.9823 61.7474 55.3118 61.8893C55.73 61.8893 56.081 61.9565 56.4246 61.7474C56.9101 61.5383 57.1939 60.9781 57.7466 60.9781C58.0976 60.9781 58.4412 61.12 58.8594 61.2545C60.3233 61.5308 61.8544 59.6487 63.042 60.418C63.1839 59.7234 62.1308 59.2304 61.6453 59.6487C61.5781 59.5068 61.369 59.4395 61.227 59.2976C61.7872 58.5283 62.9673 58.8047 63.6693 59.4395C64.3639 60.0669 64.8494 60.9706 65.6934 61.3217C66.3207 61.3217 66.5971 60.5524 66.6643 59.925C66.6643 59.2976 66.5971 58.5956 67.0154 58.1101C67.0826 57.901 67.2917 57.6918 67.4336 57.4827C67.6427 56.7134 66.388 56.3624 66.1116 55.6678C65.9025 55.1076 66.1788 54.4803 66.388 53.8529C66.5971 53.2927 66.5299 52.4562 65.9025 52.389C65.066 53.5691 62.8328 53.3674 62.3474 54.6894C62.1382 55.384 62.3473 56.2952 61.6528 56.5715C61.1673 56.7806 60.6743 56.2205 60.5399 55.5931C60.5399 54.9657 60.749 54.4803 60.749 53.8529C60.749 53.5765 60.6818 53.3674 60.6818 53.0836C60.6743 52.6653 60.9582 52.1799 61.0254 51.7616ZM38.4995 81.9505C38.5667 83.138 38.7758 84.3928 39.0597 85.5803C39.4779 85.5131 40.0381 85.4384 40.3816 85.7894C40.4489 85.9986 40.658 86.1405 40.8671 86.1405C40.9343 86.1405 41.0762 86.0733 41.1435 85.9986C41.3526 85.5803 41.5617 85.0874 41.5617 84.5347C42.2638 85.2293 42.9584 85.9986 43.653 86.6932C44.7733 86.2749 45.1169 84.6691 46.2372 84.3256C47.4247 84.0492 48.6048 85.3712 49.7251 84.9529C50.5616 84.6766 50.9799 83.631 51.6745 83.1455C52.4437 82.5181 53.6985 82.6525 54.8113 82.8691C55.0205 81.4053 54.4603 79.9414 53.4894 78.8957C52.862 78.4775 52.2346 78.1265 52.4437 77.5738C52.5856 77.0808 53.1383 76.8792 53.4894 76.4609C53.9076 75.9007 53.3475 75.0642 53.0039 74.3697C52.5856 73.7423 52.2346 72.7713 53.0039 72.3531C52.4437 71.7257 52.1674 70.9564 51.8836 70.2618C51.4653 69.5672 50.8379 68.7979 50.0761 68.9324C49.4487 68.9324 48.9558 69.4178 48.4031 69.7017C47.7085 70.1199 46.9392 70.2618 46.2446 70.5382C45.4753 70.8145 44.7135 71.3747 44.5716 72.1439C44.5044 72.9804 44.9899 73.7423 44.5716 74.5116C44.2206 75.2808 42.8986 75.6991 43.175 76.4684C43.3169 76.6775 43.3841 76.8866 43.526 77.0285C43.8023 77.5887 43.1078 78.3505 42.6223 78.7015L38.4995 81.9505Z" fill="#ABCB57"/>
<path fill-rule="evenodd" clip-rule="evenodd" d="M62.422 55.1823C67.6502 54.8313 80.6235 55.0404 84.455 57.1317V48.4156C84.455 44.3003 75.1787 42.4854 66.5373 42.4854C57.8885 42.4854 48.545 44.3003 48.545 48.4156V58.0429C51.7491 56.2952 57.5374 55.4586 62.422 55.1823Z" fill="#2B3B4E"/>
<path fill-rule="evenodd" clip-rule="evenodd" d="M82.2965 104.476C82.3637 104.125 82.0874 103.782 81.811 103.64C67.6577 98.1279 53.7806 91.5778 40.531 84.2509C40.18 84.0417 39.7692 84.109 39.5526 84.3928C38.3651 85.7148 37.3194 87.1114 36.6921 88.5753C36.4829 88.9263 36.6921 89.4118 37.0431 89.6209L79.8542 109.705C80.2725 109.914 80.7579 109.705 80.9745 109.353C81.5272 108.031 82.1546 106.5 82.2965 104.476Z" fill="white"/>
<path fill-rule="evenodd" clip-rule="evenodd" d="M81.6691 109.637C81.811 109.219 81.6019 108.801 81.2509 108.592L62.7058 99.9428C62.3548 99.7337 61.8693 99.8756 61.6602 100.294L55.9466 97.5752C56.1557 97.2242 55.9466 96.7387 55.5956 96.5296L37.0505 87.8135C36.6323 87.6716 36.214 87.8135 36.0049 88.1645C35.9377 88.3064 33.8464 91.996 33.9809 96.3951C33.9809 96.6715 34.19 96.9553 34.3991 97.0897C34.4663 97.0897 34.4663 97.0897 34.4663 97.0897C40.18 99.3229 45.9011 101.765 51.413 104.275L54.7591 105.806L59.4271 108.039C64.939 110.69 70.4435 113.551 75.7463 116.479C76.0974 116.688 76.5157 116.621 76.792 116.337C80.1305 113.611 81.5944 109.779 81.6691 109.637Z" fill="#E6E9EE"/>
<path fill-rule="evenodd" clip-rule="evenodd" d="M56.9773 102.527L58.2395 103.991L51.2637 110.123L51.0545 107.755L48.7542 107.27L55.7972 101.13L56.9773 102.527Z" fill="#F1543F"/>
<path fill-rule="evenodd" clip-rule="evenodd" d="M57.5375 103.924L55.5881 104.058L56.2827 113.402L58.0976 111.87L60.0544 113.125L59.3524 103.782L57.5375 103.924Z" fill="#F1543F"/>
<path fill-rule="evenodd" clip-rule="evenodd" d="M64.2295 103.431C64.715 103.222 64.9988 102.594 64.7896 102.109C64.6477 101.691 64.6477 101.272 64.9988 100.996C65.417 100.578 65.3498 99.9503 64.9988 99.5992C64.715 99.2482 64.5805 98.8299 64.7896 98.4864C64.9988 97.9262 64.7224 97.2989 64.1623 97.0897C63.8112 96.9478 63.5349 96.6042 63.6021 96.186C63.6021 95.6258 63.1166 95.1404 62.5565 95.2076C62.1382 95.1404 61.7872 94.9312 61.6453 94.5802C61.3689 94.02 60.8088 93.8109 60.3233 94.02C59.905 94.1619 59.4868 94.0873 59.203 93.8109C58.7847 93.3927 58.1574 93.3927 57.7391 93.8109C57.4628 94.0873 57.037 94.1619 56.6935 94.02C56.1333 93.8109 55.5059 94.0873 55.2968 94.5802C55.1549 94.9984 54.8113 95.2076 54.3856 95.2076C53.7582 95.2076 53.34 95.7005 53.34 96.2532C53.34 96.6715 53.1308 97.0225 52.7798 97.1569C52.2196 97.3661 52.0105 97.9934 52.2196 98.4864C52.3616 98.8374 52.2869 99.3229 52.0105 99.5992C51.5923 100.017 51.5923 100.645 52.0105 100.996C52.2869 101.272 52.3616 101.765 52.2196 102.109C52.0105 102.669 52.2869 103.222 52.7798 103.431C53.1981 103.64 53.4072 103.991 53.4072 104.409C53.4072 104.969 53.8927 105.388 54.4528 105.388C54.8039 105.455 55.2221 105.664 55.364 106.015C55.5732 106.508 56.2005 106.784 56.686 106.575C57.037 106.433 57.5225 106.508 57.8063 106.784C58.2246 107.202 58.852 107.202 59.1955 106.784C59.4719 106.508 59.9648 106.433 60.3158 106.575C60.876 106.784 61.4287 106.508 61.6378 106.015C61.8469 105.597 62.198 105.388 62.6162 105.388C63.1764 105.388 63.5946 104.902 63.5946 104.342C63.6096 103.924 63.8859 103.573 64.2295 103.431Z" fill="#FF7058"/>
<path fill-rule="evenodd" clip-rule="evenodd" d="M62.8403 102.109C63.8187 99.6665 62.6984 96.8806 60.2561 95.9022C57.8138 94.9238 55.0952 96.0441 54.0495 98.4864C53.0711 100.929 54.2587 103.647 56.6263 104.693C59.076 105.664 61.8619 104.476 62.8403 102.109Z" fill="white"/>
<path fill-rule="evenodd" clip-rule="evenodd" d="M62.3474 101.825C63.1839 99.7337 62.2054 97.2914 60.047 96.3877C57.881 95.5512 55.4462 96.5296 54.6097 98.688C53.706 100.847 54.7516 103.289 56.9101 104.125C59.0013 105.037 61.4436 103.991 62.3474 101.825Z" fill="#FF7058"/>
</svg>
