<svg width="120" height="123" viewBox="0 0 120 123" fill="none" xmlns="http://www.w3.org/2000/svg">
<circle cx="61.579" cy="61.5789" r="58.4211" fill="#C2EAFC"/>
<circle cx="108.947" cy="6.31579" r="6.31579" fill="#AAE5FF"/>
<circle cx="6.31579" cy="86.8422" r="6.31579" fill="#AAE5FF"/>
<circle r="3.15789" transform="matrix(1 0 0 -1 9.47366 64.7369)" fill="white"/>
<circle r="2.36842" transform="matrix(1 0 0 -1 103.421 35.5263)" fill="white"/>
<circle cx="115.263" cy="96.3159" r="3.15789" fill="#FDD1A3"/>
<circle cx="99.4737" cy="3.1579" r="1.57895" fill="#AAE5FF"/>
<circle cx="114.474" cy="21.3158" r="2.36842" fill="#E40C57"/>
<circle cx="70.4999" cy="53.5" r="28.5" fill="#D8F1FD"/>
<path fill-rule="evenodd" clip-rule="evenodd" d="M93.896 115.706C93.7663 115.603 93.6175 115.527 93.4582 115.481C93.2989 115.436 93.1322 115.423 92.9677 115.442C92.8031 115.461 92.6439 115.513 92.4991 115.593C92.3543 115.674 92.2268 115.782 92.1238 115.912C92.0208 116.042 91.9444 116.191 91.8989 116.351C91.8534 116.51 91.8398 116.677 91.8587 116.842C91.8777 117.006 91.9288 117.165 92.0093 117.31C92.0898 117.455 92.198 117.582 92.3278 117.685C92.5899 117.893 92.9238 117.988 93.2562 117.949C93.5885 117.91 93.8921 117.741 94.1001 117.478C94.308 117.216 94.4034 116.882 94.3651 116.549C94.3268 116.217 94.1581 115.913 93.896 115.706Z" fill="#BFC7D2"/>
<path d="M17.7247 6.40673L18.383 6.92872C18.5576 7.06716 18.67 7.2694 18.6955 7.49095C18.7209 7.7125 18.6573 7.93522 18.5186 8.1101C18.3799 8.28498 18.1776 8.3977 17.9561 8.42347C17.7346 8.44923 17.5121 8.38594 17.3374 8.24749L16.6791 7.72551L16.1563 8.38489C16.0176 8.55978 15.8153 8.6725 15.5938 8.69827C15.3723 8.72403 15.1497 8.66073 14.9751 8.52229C14.8005 8.38385 14.6881 8.18161 14.6627 7.96006C14.6373 7.73851 14.7009 7.5158 14.8395 7.34092L15.3623 6.68153L14.704 6.15954C14.5294 6.0211 14.417 5.81886 14.3916 5.59731C14.3661 5.37576 14.4298 5.15304 14.5684 4.97816C14.7071 4.80328 14.9094 4.69056 15.1309 4.66479C15.3524 4.63902 15.575 4.70232 15.7496 4.84076L16.4079 5.36275L16.9307 4.70337C17.0694 4.52849 17.2717 4.41576 17.4932 4.39C17.7148 4.36423 17.9373 4.42753 18.1119 4.56597C18.2865 4.70441 18.3989 4.90665 18.4243 5.1282C18.4497 5.34975 18.3861 5.57246 18.2475 5.74734L17.7247 6.40673Z" fill="#BFC7D2"/>
<path d="M6.72467 20.4067L7.38302 20.9287C7.55763 21.0672 7.67002 21.2694 7.69544 21.491C7.72087 21.7125 7.65724 21.9352 7.51858 22.1101C7.37993 22.285 7.17761 22.3977 6.95609 22.4235C6.73458 22.4492 6.51203 22.3859 6.33742 22.2475L5.67907 21.7255L5.15627 22.3849C5.01761 22.5598 4.81528 22.6725 4.59377 22.6983C4.37225 22.724 4.14973 22.6607 3.97512 22.5223C3.80051 22.3839 3.68812 22.1816 3.6627 21.9601C3.63728 21.7385 3.7009 21.5158 3.83955 21.3409C3.83955 21.3409 4.40032 21.008 4.36235 20.6815C4.32444 20.3556 3.70398 20.1595 3.70398 20.1595C3.52937 20.0211 3.417 19.8189 3.39157 19.5973C3.36615 19.3758 3.42976 19.153 3.56841 18.9782C3.70707 18.8033 3.90941 18.6906 4.13092 18.6648C4.35244 18.639 4.57497 18.7023 4.74958 18.8408L5.40795 19.3628L5.93075 18.7034C6.06941 18.5285 6.27174 18.4158 6.49325 18.39C6.71476 18.3642 6.93731 18.4275 7.11192 18.566C7.28653 18.7044 7.39889 18.9066 7.42432 19.1282C7.44974 19.3498 7.38612 19.5725 7.24747 19.7473L6.72467 20.4067Z" fill="#BFC7D2"/>
<path opacity="0.3" d="M28 110.193L61.0341 103L94 110.193L61.0341 123L28 110.193Z" fill="url(#paint0_linear_964_376)"/>
<path d="M27.72 70.2267L62.0982 77.1326L96.3283 70.2267L62.0982 63.5446L27.72 70.2267Z" fill="url(#paint1_linear_964_376)"/>
<path d="M62.0982 63.4977V78.8681L95.5723 70.2509L62.0982 63.4977Z" fill="url(#paint2_linear_964_376)"/>
<path d="M27.72 70.2509L62.0982 63.4977L96.3283 70.2509" stroke="#E6E7E8" stroke-width="4" stroke-miterlimit="10" stroke-linecap="round" stroke-linejoin="round"/>
<path d="M61.9961 21.573C61.9961 21.573 59.7696 19.1365 59.1529 17.5284C58.4068 15.5775 58.0052 11.8487 57.4742 9.82895C57.2154 8.84258 56.1417 6.93202 53.6178 7.31346C50.6755 7.75875 47.1787 8.32335 44.8497 8.94845C42.7156 9.52145 40.4858 13.0838 41.2722 16.2462C42.3644 20.6421 46.1738 21.1815 48.5045 21.9998C51.6887 23.1172 61.9961 21.573 61.9961 21.573Z" fill="url(#paint3_linear_964_376)"/>
<path d="M61.0501 21.1865C61.0501 21.1865 59.158 19.6926 58.264 17.4191C57.4306 15.3019 57.6608 9.7634 55.7418 8.54346C54.6647 7.85955 52.8919 7.82427 51.4922 9.57016C50.1093 11.2959 49.7934 13.4871 50.5428 15.6648C51.3309 17.9535 52.9222 19.6204 54.3874 20.3732C57.6104 22.0283 61.0501 21.1865 61.0501 21.1865Z" fill="url(#paint4_linear_964_376)"/>
<path d="M54.216 8.10487C54.789 8.10487 55.32 8.27291 55.7418 8.54177C57.6608 9.76171 57.4322 15.3002 58.264 17.4174C59.158 19.6909 61.05 21.1848 61.05 21.1848C61.05 21.1848 60.1763 21.3982 58.8958 21.3982C57.6372 21.3982 55.9854 21.1915 54.3857 20.3698C52.9221 19.617 51.3308 17.9501 50.5411 15.6614C49.7916 13.4837 50.1075 11.2925 51.4905 9.56679C52.3424 8.50816 53.3288 8.10487 54.216 8.10487ZM54.216 7.26469C52.9558 7.26469 51.756 7.89651 50.8368 9.04251C49.2976 10.9615 48.9011 13.4753 49.748 15.937C50.5209 18.1837 52.1525 20.1682 54.0026 21.1192C55.4309 21.8536 57.123 22.24 58.8958 22.24C60.262 22.24 61.2114 22.0115 61.25 22.0014L62.9203 21.5914L61.5693 20.5244C61.5541 20.511 59.8402 19.1314 59.0437 17.1082C58.7832 16.4445 58.627 15.2901 58.4606 14.0668C58.1111 11.4891 57.7515 8.82239 56.1888 7.83098C55.6074 7.46298 54.9235 7.26469 54.216 7.26469Z" fill="#FF4B33"/>
<path d="M37.2209 16.9217C36.1051 17.5636 34.9221 19.118 35.4565 21.7561C35.9623 24.2531 38.7601 25.4243 40.2976 25.6848C43.4046 26.2107 52.7272 23.5961 52.7272 23.5961L57.3869 22.361C57.3869 22.361 53.4027 21.4318 51.2737 19.9901C49.4421 18.7516 49.7647 16.1084 47.4862 15.559C46.2914 15.2716 43.5541 15.7001 41.6587 16.0194C39.7313 16.3454 37.9972 16.4764 37.2209 16.9217Z" fill="url(#paint5_linear_964_376)"/>
<path d="M57.9446 22.2501C57.9446 22.2501 52.8128 22.1006 50.4435 20.1615C48.9934 18.9735 48.8774 16.0026 46.7115 16.0076C45.0177 16.0127 43.0953 19.4053 44.895 22.0082C46.1217 23.781 47.844 24.443 49.7865 24.0481C51.8349 23.6348 57.9446 22.2501 57.9446 22.2501Z" fill="url(#paint6_linear_964_376)"/>
<path d="M63.8209 21.573C63.8209 21.573 66.0473 19.1365 66.664 17.5284C67.4101 15.5775 67.5798 11.5849 68.1108 9.56514C68.3696 8.57877 69.4433 6.66821 71.9672 7.04965C74.9095 7.49494 78.4164 8.02426 80.7353 8.68464C82.5098 9.18874 85.3311 13.0838 84.5447 16.2462C83.4525 20.6421 79.6431 21.1815 77.3124 21.9998C74.1265 23.1172 63.8209 21.573 63.8209 21.573Z" fill="url(#paint7_linear_964_376)"/>
<path d="M64.7653 21.1865C64.7653 21.1865 66.6573 19.6927 67.5513 17.4191C68.3847 15.3019 68.1545 9.76342 70.0735 8.54348C71.1506 7.85957 72.9234 7.82428 74.3231 9.57017C75.7061 11.2959 76.022 13.4871 75.2725 15.6648C74.4844 17.9535 72.8931 19.6204 71.4279 20.3732C68.2049 22.0283 64.7653 21.1865 64.7653 21.1865Z" fill="url(#paint8_linear_964_376)"/>
<path d="M88.5944 16.9217C89.7102 17.5636 90.8932 19.118 90.3588 21.7561C89.853 24.2531 87.0552 25.4243 85.5177 25.6848C82.4107 26.2107 73.0881 23.5961 73.0881 23.5961L68.4285 22.361C68.4285 22.361 72.4126 21.4318 74.5416 19.9901C76.3732 18.7516 76.0506 16.1084 78.3291 15.559C79.5239 15.2716 82.2612 15.7001 84.1566 16.0194C86.084 16.3454 87.8181 16.4764 88.5944 16.9217Z" fill="url(#paint9_linear_964_376)"/>
<path d="M67.8723 22.2501C67.8723 22.2501 73.0041 22.1006 75.3734 20.1615C76.8235 18.9735 76.9395 16.0026 79.1054 16.0076C80.7992 16.0127 82.7216 19.4053 80.9219 22.0082C79.6953 23.781 77.9729 24.443 76.0304 24.0481C73.982 23.6348 67.8723 22.2501 67.8723 22.2501Z" fill="url(#paint10_linear_964_376)"/>
<path d="M23 37.8523L62.9472 29.8286L102.723 37.8523H23Z" fill="#818284"/>
<path d="M62.9471 41.4768V34.5268L23 32.2046V37.8523L62.9471 41.4768Z" fill="url(#paint11_linear_964_376)"/>
<path d="M102.723 37.8523V32.2046L62.9471 34.5268V41.4768L102.723 37.8523Z" fill="url(#paint12_linear_964_376)"/>
<path d="M62.9471 29.8286V19.938L102.723 32.2046V37.8523L62.9471 29.8286Z" fill="url(#paint13_linear_964_376)"/>
<path d="M62.9471 29.8286V19.938L23 32.2046V37.8523L62.9471 29.8286Z" fill="url(#paint14_linear_964_376)"/>
<path d="M52.4415 23.1642V31.9391L56.7348 31.0771V21.8452L52.4415 23.1642Z" fill="#D32027"/>
<path d="M43.4902 25.9133V33.7371L47.6121 32.9086V24.6463L43.4902 25.9133Z" fill="#D32027"/>
<path d="M34.6516 28.6271V35.5115L38.4879 34.7419V27.4492L34.6516 28.6271Z" fill="#D32027"/>
<path d="M26.5018 31.1292V37.1499L29.8003 36.4861V30.1159L26.5018 31.1292Z" fill="#D32027"/>
<path d="M69.0788 21.8301V31.0653L73.3721 31.9324V23.1542L69.0788 21.8301Z" fill="#EB2027"/>
<path d="M78.2014 24.643V32.907L82.3233 33.7371V25.915L78.2014 24.643Z" fill="#EB2027"/>
<path d="M87.3258 27.4576V34.747L91.1621 35.5199V28.6406L87.3258 27.4576Z" fill="#EB2027"/>
<path d="M96.0132 30.1361V36.4996L99.3117 37.165V31.1527L96.0132 30.1361Z" fill="#EB2027"/>
<path d="M23 37.8523L62.9472 29.8286L102.723 37.8523" stroke="white" stroke-width="4" stroke-miterlimit="10" stroke-linecap="round" stroke-linejoin="round"/>
<path d="M62.9471 19.938V29.8521" stroke="white" stroke-width="4" stroke-miterlimit="10" stroke-linecap="round" stroke-linejoin="round"/>
<path d="M36.6278 48C36.6278 48 40.6942 40.4014 40.3061 35.6242C40.1615 33.8447 39.1987 30.2521 39.5499 28.5011C39.7919 27.2896 44.1053 25.826 46.6914 24.9791C51.1713 23.5138 54.1287 22.4737 54.1287 22.4737C54.1287 22.4737 50.5075 23.1962 47.0056 24.1171C43.5357 25.0295 41.6974 25.2816 39.8826 25.579C37.9284 25.8982 32.8385 25.7252 31.6673 27.3232C30.2474 29.2606 33.7342 31.9727 33.2166 35.8476C32.8789 38.385 28.3755 46.0441 28.3755 46.0441L28.7738 46.5414L35.0247 41.7272L35.9943 47.7227L36.6278 48Z" fill="#910029"/>
<path d="M35.9959 47.721C35.9959 47.721 39.8977 40.0334 39.5112 35.2545C39.3667 33.475 38.4459 30.0319 38.7954 28.281C39.4407 25.053 47.298 24.0448 44.8145 24.6648C40.4304 25.7604 38.1485 24.5808 37.683 24.6564C35.7288 24.9757 32.5714 25.0614 31.4002 26.6594C29.9803 28.5969 32.0841 31.6904 31.5682 35.5653C31.1414 38.763 28.3755 46.0424 28.3755 46.0424L33.9291 41.2634L35.9959 47.721Z" fill="url(#paint15_linear_964_376)"/>
<path d="M89.1876 48C89.1876 48 85.1211 40.4014 85.5093 35.6242C85.6538 33.8447 86.6166 30.2521 86.2654 28.5011C86.0235 27.2896 81.71 25.826 79.1239 24.9791C74.6441 23.5138 71.6867 22.4737 71.6867 22.4737C71.6867 22.4737 75.3078 23.1962 78.8097 24.1171C82.2796 25.0295 84.118 25.2816 85.9327 25.579C87.887 25.8982 92.9768 25.7252 94.148 27.3232C95.5679 29.2606 92.0812 31.9727 92.5987 35.8476C92.9365 38.385 97.4398 46.0441 97.4398 46.0441L97.0416 46.5414L90.7907 41.7272L89.8194 47.7211L89.1876 48Z" fill="#910029"/>
<path d="M89.8194 47.721C89.8194 47.721 85.9176 40.0334 86.3041 35.2545C86.4486 33.475 87.3694 30.0319 87.0199 28.281C86.3747 25.053 78.5173 24.0448 81.0009 24.6648C85.3849 25.7604 87.6669 24.5808 88.1323 24.6564C90.0866 24.9757 93.244 25.0614 94.4152 26.6594C95.8351 28.5969 93.7313 31.6904 94.2471 35.5653C94.6739 38.763 97.4398 46.0424 97.4398 46.0424L91.8862 41.2634L89.8194 47.721Z" fill="url(#paint16_linear_964_376)"/>
<path d="M84.4235 46.9459H84.3376V39.9674C84.3376 37.6535 81.9144 35.7778 78.925 35.7778H46.1171C43.1278 35.7778 40.7046 37.6535 40.7046 39.9674V46.9459H40.6187C40.2286 46.9459 39.912 47.1907 39.912 47.493V52.3205C39.912 52.6224 40.2281 52.8675 40.6187 52.8675H40.7046V54.0189H40.6187C40.2286 54.0189 39.912 54.2636 39.912 54.5659V59.3934C39.912 59.6954 40.2281 59.9404 40.6187 59.9404H40.7046V102.216C40.7046 104.53 43.1278 106.406 46.1171 106.406H78.925C81.9144 106.406 84.3376 104.53 84.3376 102.216V55.8278H84.4235C84.8136 55.8278 85.1302 55.5831 85.1302 55.2807V47.493C85.1302 47.1907 84.8136 46.9459 84.4235 46.9459Z" fill="#333343"/>
<path d="M78.3661 105.369H46.6755C44.2476 105.369 42.2795 103.846 42.2795 101.966V40.2167C42.2795 38.3374 44.2476 36.814 46.6755 36.814H78.3661C80.794 36.814 82.7622 38.3374 82.7622 40.2167V101.966C82.7626 103.846 80.7945 105.369 78.3661 105.369Z" fill="white"/>
<path d="M52.3178 62.1568C52.1632 62.4372 51.967 62.7008 51.729 62.9381L49.2739 65.3857L47.4245 63.5419C49.1494 63.6777 50.5905 63.0169 51.7486 61.5585C51.7973 61.6355 52.0186 61.8616 52.3171 62.1568H52.3178Z" fill="#2E3191"/>
<path d="M52.3178 62.1568C52.1632 62.4372 51.967 62.7008 51.729 62.938L49.2739 65.3856C49.776 64.6613 50.1546 63.8032 50.4086 62.8103C50.8908 62.4936 51.338 62.0769 51.7486 61.5591C51.7973 61.6361 52.0186 61.8623 52.3171 62.1574L52.3178 62.1568Z" fill="white"/>
<path d="M47.4245 63.5419L48.8349 62.1359C48.9743 62.172 49.1204 62.1919 49.2709 62.1919C50.215 62.1919 50.9804 61.4288 50.9804 60.4876C50.9804 60.3621 50.9667 60.2391 50.9409 60.1218L51.0847 59.9215C51.5272 61.0133 51.7488 61.5585 51.7488 61.5585C50.5905 63.0169 49.1494 63.6776 47.4245 63.5419Z" fill="#1B75BB"/>
<path d="M50.6657 61.4725C50.8636 61.1946 50.9803 60.8547 50.9803 60.487C50.9803 60.3997 50.9733 60.3142 50.9609 60.2311L51.1306 60.0344L51.7486 61.5578C51.3371 62.0756 50.8906 62.4924 50.4085 62.8089C50.5164 62.3872 50.6022 61.9416 50.6657 61.4718V61.4725V61.4725Z" fill="white"/>
<path d="M51.8762 58.2006C53.0824 59.5599 53.0331 61.6378 51.7289 62.938L49.2739 65.3855C50.313 64.1554 51.2589 61.8224 50.952 60.1746C50.892 59.6995 50.5098 59.0544 49.8413 58.8812C50.4919 57.9682 50.9822 57.7892 51.8762 58.2012V58.2006Z" fill="#2E3191"/>
<path d="M51.8761 58.2006C52.8468 59.2943 53.004 60.8535 52.3492 62.0983C52.1271 61.2069 51.6337 60.4564 50.8673 59.8476C50.712 59.4412 50.364 59.017 49.8412 58.8806C49.9842 58.6796 50.1199 58.5143 50.2538 58.3826L50.6854 58.0758C51.0233 57.9276 51.3903 57.9769 51.8761 58.2006Z" fill="white"/>
<path d="M48.2065 57.1967C49.4065 56.8112 50.7753 57.0934 51.7282 58.0438C52.829 59.1412 53.0362 60.7931 52.3486 62.099C52.237 60.6185 51.246 59.3527 49.8406 58.8811C49.6624 58.8184 49.4706 58.7841 49.2708 58.7841C48.3268 58.7841 47.5613 59.5471 47.5613 60.4883C47.5613 60.6875 47.5959 60.8786 47.6589 61.0563L47.3985 61.3158C46.7936 59.8945 47.0625 58.5216 48.2058 57.1974L48.2065 57.1967Z" fill="#3D64C4"/>
<path d="M48.2064 57.1967C48.5862 57.0743 48.9835 57.0197 49.3792 57.0319C48.482 57.6092 47.9813 58.4324 47.8764 59.5022C47.6785 59.7807 47.5619 60.1206 47.5619 60.4877C47.5619 60.674 47.592 60.8536 47.6476 61.0207L47.3608 60.9027L47.1221 60.3493C46.9629 59.2692 47.3243 58.2178 48.2069 57.1961L48.2064 57.1967Z" fill="white"/>
<path d="M46.3514 62.3596C45.4873 61.02 45.6434 59.2156 46.8194 58.0438C47.4971 57.3681 48.3858 57.0299 49.2744 57.0299C47.8826 57.7795 47.2011 59.3815 47.6099 60.8897C47.6234 60.9461 47.6401 61.0014 47.6593 61.0561L46.3513 62.3602V62.3596H46.3514Z" fill="#6D94E2"/>
<path d="M55.1088 59.7253C55.4895 59.3399 56.0248 59.0968 56.6077 59.0968C57.1965 59.0968 57.7258 59.3398 58.1125 59.7253C58.4871 60.1107 58.731 60.6385 58.731 61.2255C58.731 61.8125 58.4871 62.3404 58.1125 62.7257C57.7258 63.1171 57.1965 63.3543 56.6077 63.3543C56.0248 63.3543 55.4895 63.1171 55.1088 62.7257C54.7341 62.3404 54.4902 61.8125 54.4902 61.2255C54.4902 60.6384 54.7341 60.1107 55.1088 59.7253ZM57.6842 60.1521C57.4046 59.8735 57.0181 59.7014 56.6077 59.7014C56.1973 59.7014 55.8166 59.8735 55.543 60.1521C55.2694 60.425 55.0969 60.8044 55.0969 61.2254C55.0969 61.6463 55.2694 62.0259 55.543 62.2987C55.8166 62.5773 56.1973 62.7492 56.6077 62.7492C57.0181 62.7492 57.4046 62.5773 57.6842 62.2987C57.9518 62.0258 58.1244 61.6523 58.1244 61.2254C58.1244 60.7986 57.9518 60.425 57.6842 60.1521Z" fill="#231F20"/>
<path d="M59.3539 63.3009V59.1441L59.8178 59.15L61.846 62.0734V59.15H62.4409V63.3009H61.965L59.9546 60.4012V63.3009H59.3539Z" fill="#231F20"/>
<path d="M63.7315 62.7018H65.6645V63.3007H63.1248V59.1559H65.6586V59.7549H63.7315V60.9229H65.617V61.5278H63.7315V62.7018Z" fill="#231F20"/>
<path d="M68.4956 60.2233C68.4122 59.8498 68.0078 59.6896 67.6449 59.6956C67.3654 59.7016 67.0561 59.7965 66.8896 60.0099C66.8063 60.1167 66.7765 60.253 66.7885 60.3953C66.8181 60.8223 67.288 60.8756 67.7342 60.9172C68.3052 60.9883 69.013 61.1366 69.1734 61.8007C69.1913 61.8897 69.2032 61.9904 69.2032 62.0737C69.2032 62.8741 68.4061 63.3365 67.6568 63.3365C67.0145 63.3365 66.2354 62.957 66.158 62.2159L66.1519 62.1032L66.7586 62.0913L66.7646 62.1802V62.1565C66.8062 62.5419 67.2761 62.7435 67.6627 62.7435C68.1089 62.7435 68.5965 62.4946 68.5965 62.0675C68.5965 62.0261 68.5906 61.9787 68.5787 61.9253C68.5075 61.6109 68.0791 61.5575 67.6627 61.5161C67.0144 61.4508 66.2532 61.3085 66.1877 60.4428V60.4488C66.164 60.1701 66.2353 59.8914 66.4138 59.66C66.6933 59.2984 67.1929 59.1087 67.6747 59.1087C68.317 59.1087 68.9834 59.4406 69.0903 60.1997L68.4956 60.2233Z" fill="#231F20"/>
<path d="M70.7273 63.3186V59.7549H69.4664V59.1499H72.5831V59.7549H71.328V63.3186H70.7273Z" fill="#231F20"/>
<path d="M73.1465 59.7253C73.5271 59.3399 74.0625 59.0968 74.6453 59.0968C75.2342 59.0968 75.7636 59.3398 76.1502 59.7253C76.5247 60.1107 76.7687 60.6385 76.7687 61.2255C76.7687 61.8125 76.5249 62.3404 76.1502 62.7257C75.7636 63.1171 75.2341 63.3543 74.6453 63.3543C74.0624 63.3543 73.527 63.1171 73.1465 62.7257C72.7717 62.3404 72.5279 61.8125 72.5279 61.2255C72.5279 60.6384 72.7717 60.1107 73.1465 59.7253ZM75.7219 60.1521C75.4423 59.8735 75.0557 59.7014 74.6454 59.7014C74.2352 59.7014 73.8543 59.8735 73.5807 60.1521C73.307 60.425 73.1347 60.8044 73.1347 61.2254C73.1347 61.6463 73.307 62.0259 73.5807 62.2987C73.8544 62.5773 74.2351 62.7492 74.6454 62.7492C75.0558 62.7492 75.4423 62.5773 75.7219 62.2987C75.9895 62.0258 76.162 61.6523 76.162 61.2254C76.162 60.7986 75.9894 60.425 75.7219 60.1521Z" fill="#231F20"/>
<path d="M78.7558 59.1501C79.6539 59.1501 80.106 59.8438 80.106 60.5374C80.106 61.2313 79.6539 61.9193 78.7558 61.9193H77.8397V63.3009H77.2331V59.1501H78.7558V59.1501ZM78.7558 61.3262C79.2613 61.3262 79.5112 60.9349 79.5112 60.5434C79.5112 60.1461 79.2613 59.7548 78.7558 59.7548H77.8397V61.3262H78.7558Z" fill="#231F20"/>
<path d="M62.0982 77.1326V115L27.72 102.08V70.2267L62.0982 77.1326Z" fill="url(#paint17_linear_964_376)"/>
<path d="M62.0982 77.1326V115L96.3282 102.08V70.2267L62.0982 77.1326Z" fill="url(#paint18_linear_964_376)"/>
<path d="M53.2557 75.3563V111.677L56.884 113.041V76.0865L53.2557 75.3563Z" fill="#D41C24"/>
<path d="M45.6907 73.837V108.835L49.1739 110.144V74.5369L45.6907 73.837Z" fill="#D41C24"/>
<path d="M38.2225 72.3372V106.028L41.4638 107.246V72.9888L38.2225 72.3372Z" fill="#D41C24"/>
<path d="M31.3347 70.954V103.439L34.1225 104.487V71.5133L31.3347 70.954Z" fill="#D41C24"/>
<path d="M67.3154 76.0804V113.032L70.9437 111.662V75.3487L67.3154 76.0804Z" fill="#ED1C24"/>
<path d="M75.0255 74.5248V110.122L78.5087 108.808V73.8233L75.0255 74.5248Z" fill="#ED1C24"/>
<path d="M82.7357 72.9692V107.211L85.977 105.988V72.3161L82.7357 72.9692Z" fill="#ED1C24"/>
<path d="M90.077 71.4891V104.44L92.8647 103.388V70.9267L90.077 71.4891Z" fill="#ED1C24"/>
<path d="M27.72 70.2267L62.0982 77.1326L96.3283 70.2267" stroke="white" stroke-width="4" stroke-miterlimit="10" stroke-linecap="round" stroke-linejoin="round"/>
<path d="M62.8962 77.4654L62.8962 112.632" stroke="white" stroke-width="4" stroke-miterlimit="10" stroke-linecap="round" stroke-linejoin="round"/>
<defs>
<linearGradient id="paint0_linear_964_376" x1="61" y1="63" x2="61" y2="123" gradientUnits="userSpaceOnUse">
<stop stop-color="#3D444F"/>
<stop offset="1" stop-color="#3D444F" stop-opacity="0"/>
</linearGradient>
<linearGradient id="paint1_linear_964_376" x1="57.1738" y1="87.9006" x2="63.8426" y2="63.6008" gradientUnits="userSpaceOnUse">
<stop stop-color="#BCBEC0"/>
<stop offset="0.2667" stop-color="#E6E7E8"/>
<stop offset="0.6667" stop-color="#BCBEC0"/>
<stop offset="1" stop-color="#939598"/>
</linearGradient>
<linearGradient id="paint2_linear_964_376" x1="76.5311" y1="62.6762" x2="83.4738" y2="98.4867" gradientUnits="userSpaceOnUse">
<stop stop-color="#BCBEC0"/>
<stop offset="0.3455" stop-color="#E6E7E8"/>
<stop offset="0.6667" stop-color="#BCBEC0"/>
<stop offset="1" stop-color="#939598"/>
</linearGradient>
<linearGradient id="paint3_linear_964_376" x1="52.3131" y1="8.19117" x2="51.3416" y2="20.8865" gradientUnits="userSpaceOnUse">
<stop stop-color="#ED1C24"/>
<stop offset="0.5273" stop-color="#CD1F2A"/>
<stop offset="1" stop-color="#851E2D"/>
</linearGradient>
<linearGradient id="paint4_linear_964_376" x1="52.0494" y1="0.1191" x2="56.8404" y2="23.7366" gradientUnits="userSpaceOnUse">
<stop stop-color="#3F1E2D"/>
<stop offset="0.2179" stop-color="#5B1D2C"/>
<stop offset="0.5542" stop-color="#7F1B2C"/>
<stop offset="0.8269" stop-color="#961A2B"/>
<stop offset="1" stop-color="#9E1A2B"/>
</linearGradient>
<linearGradient id="paint5_linear_964_376" x1="46.1056" y1="15.3237" x2="46.4941" y2="24.8415" gradientUnits="userSpaceOnUse">
<stop stop-color="#ED1C24"/>
<stop offset="0.5273" stop-color="#CD1F2A"/>
<stop offset="1" stop-color="#851E2D"/>
</linearGradient>
<linearGradient id="paint6_linear_964_376" x1="43.1331" y1="17.9207" x2="54.1773" y2="23.4692" gradientUnits="userSpaceOnUse">
<stop stop-color="#691E2D"/>
<stop offset="0.0818" stop-color="#701D2D"/>
<stop offset="0.43" stop-color="#891C2C"/>
<stop offset="0.7463" stop-color="#991A2B"/>
<stop offset="1" stop-color="#9E1A2B"/>
</linearGradient>
<linearGradient id="paint7_linear_964_376" x1="73.461" y1="7.93301" x2="74.4502" y2="20.8603" gradientUnits="userSpaceOnUse">
<stop stop-color="#ED1C24"/>
<stop offset="0.5273" stop-color="#CD1F2A"/>
<stop offset="1" stop-color="#851E2D"/>
</linearGradient>
<linearGradient id="paint8_linear_964_376" x1="75.8593" y1="-10.1961" x2="71.0684" y2="13.4211" gradientUnits="userSpaceOnUse">
<stop stop-color="#3F1E2D"/>
<stop offset="0.0892" stop-color="#4D1D2D"/>
<stop offset="0.3511" stop-color="#701C2C"/>
<stop offset="0.5978" stop-color="#891B2B"/>
<stop offset="0.821" stop-color="#991A2B"/>
<stop offset="1" stop-color="#9E1A2B"/>
</linearGradient>
<linearGradient id="paint9_linear_964_376" x1="79.7104" y1="15.3237" x2="79.3219" y2="24.8416" gradientUnits="userSpaceOnUse">
<stop stop-color="#ED1C24"/>
<stop offset="0.5273" stop-color="#CD1F2A"/>
<stop offset="1" stop-color="#851E2D"/>
</linearGradient>
<linearGradient id="paint10_linear_964_376" x1="82.6828" y1="17.9206" x2="71.6385" y2="23.4691" gradientUnits="userSpaceOnUse">
<stop stop-color="#691E2D"/>
<stop offset="0.0818" stop-color="#701D2D"/>
<stop offset="0.43" stop-color="#891C2C"/>
<stop offset="0.7463" stop-color="#991A2B"/>
<stop offset="1" stop-color="#9E1A2B"/>
</linearGradient>
<linearGradient id="paint11_linear_964_376" x1="19.2329" y1="34.1162" x2="64.6004" y2="38.1489" gradientUnits="userSpaceOnUse">
<stop stop-color="#929497"/>
<stop offset="0.7879" stop-color="#BCBDBF"/>
<stop offset="0.9939" stop-color="#A7A8AB"/>
</linearGradient>
<linearGradient id="paint12_linear_964_376" x1="103.101" y1="34.2731" x2="65.7989" y2="37.8017" gradientUnits="userSpaceOnUse">
<stop stop-color="#929497"/>
<stop offset="1" stop-color="#BCBDBF"/>
</linearGradient>
<linearGradient id="paint13_linear_964_376" x1="62.9473" y1="28.8957" x2="102.723" y2="28.8957" gradientUnits="userSpaceOnUse">
<stop stop-color="#F1F1F1"/>
<stop offset="0.497" stop-color="white"/>
<stop offset="1" stop-color="#E6E6E6"/>
</linearGradient>
<linearGradient id="paint14_linear_964_376" x1="22.9994" y1="28.8957" x2="62.9473" y2="28.8957" gradientUnits="userSpaceOnUse">
<stop stop-color="#D1D2D3"/>
<stop offset="0.497" stop-color="#E6E6E6"/>
<stop offset="1" stop-color="#BCBDBF"/>
</linearGradient>
<linearGradient id="paint15_linear_964_376" x1="34.0768" y1="44.8026" x2="38.4988" y2="24.3934" gradientUnits="userSpaceOnUse">
<stop stop-color="#ED1C24"/>
<stop offset="0.5273" stop-color="#CD1F2A"/>
<stop offset="1" stop-color="#851E2D"/>
</linearGradient>
<linearGradient id="paint16_linear_964_376" x1="91.7392" y1="44.8028" x2="87.3172" y2="24.3935" gradientUnits="userSpaceOnUse">
<stop stop-color="#ED1C24"/>
<stop offset="0.5273" stop-color="#CD1F2A"/>
<stop offset="1" stop-color="#851E2D"/>
</linearGradient>
<linearGradient id="paint17_linear_964_376" x1="63.297" y1="79.4622" x2="28.7489" y2="104.172" gradientUnits="userSpaceOnUse">
<stop stop-color="#D1D3D4"/>
<stop offset="0.497" stop-color="#E6E7E8"/>
<stop offset="1" stop-color="#BCBEC0"/>
</linearGradient>
<linearGradient id="paint18_linear_964_376" x1="60.8538" y1="79.3342" x2="95.173" y2="104.158" gradientUnits="userSpaceOnUse">
<stop stop-color="#F1F2F2"/>
<stop offset="0.497" stop-color="white"/>
<stop offset="1" stop-color="#E6E7E8"/>
</linearGradient>
</defs>
</svg>
