<svg width="130" height="130" viewBox="0 0 130 130" fill="none" xmlns="http://www.w3.org/2000/svg">
<circle cx="66.5789" cy="66.5789" r="58.4211" fill="#C2EAFC"/>
<circle cx="113.947" cy="11.3158" r="6.31579" fill="#AAE5FF"/>
<circle cx="11.3158" cy="91.8422" r="6.31579" fill="#AAE5FF"/>
<circle r="3.15789" transform="matrix(1 0 0 -1 14.4737 69.7369)" fill="white"/>
<circle r="2.36842" transform="matrix(1 0 0 -1 108.421 40.5263)" fill="white"/>
<circle cx="120.263" cy="101.316" r="3.15789" fill="#FDD1A3"/>
<circle cx="104.474" cy="8.15793" r="1.57895" fill="#AAE5FF"/>
<circle cx="119.474" cy="26.3158" r="2.36842" fill="#E40C57"/>
<circle cx="75.4999" cy="58.5" r="28.5" fill="#D8F1FD"/>
<path fill-rule="evenodd" clip-rule="evenodd" d="M98.896 120.706C98.7663 120.603 98.6175 120.527 98.4582 120.481C98.2989 120.436 98.1322 120.423 97.9677 120.442C97.8031 120.461 97.6439 120.513 97.4991 120.593C97.3543 120.674 97.2268 120.782 97.1238 120.912C97.0208 121.042 96.9444 121.191 96.8989 121.351C96.8534 121.51 96.8398 121.677 96.8587 121.842C96.8777 122.006 96.9288 122.165 97.0093 122.31C97.0898 122.455 97.198 122.582 97.3278 122.685C97.5899 122.893 97.9238 122.988 98.2562 122.949C98.5885 122.91 98.8921 122.741 99.1001 122.478C99.308 122.216 99.4034 121.882 99.3651 121.549C99.3268 121.217 99.1581 120.913 98.896 120.706Z" fill="#BFC7D2"/>
<path d="M22.7247 11.4067L23.383 11.9287C23.5576 12.0672 23.67 12.2694 23.6955 12.491C23.7209 12.7125 23.6573 12.9352 23.5186 13.1101C23.3799 13.285 23.1776 13.3977 22.9561 13.4235C22.7346 13.4492 22.5121 13.3859 22.3374 13.2475L21.6791 12.7255L21.1563 13.3849C21.0176 13.5598 20.8153 13.6725 20.5938 13.6983C20.3723 13.724 20.1497 13.6607 19.9751 13.5223C19.8005 13.3839 19.6881 13.1816 19.6627 12.9601C19.6373 12.7385 19.7009 12.5158 19.8395 12.3409L20.3623 11.6815L19.704 11.1595C19.5294 11.0211 19.417 10.8189 19.3916 10.5973C19.3661 10.3758 19.4298 10.153 19.5684 9.97816C19.7071 9.80328 19.9094 9.69056 20.1309 9.66479C20.3524 9.63902 20.575 9.70232 20.7496 9.84076L21.4079 10.3628L21.9307 9.70337C22.0694 9.52849 22.2717 9.41576 22.4932 9.39C22.7148 9.36423 22.9373 9.42753 23.1119 9.56597C23.2865 9.70441 23.3989 9.90665 23.4243 10.1282C23.4497 10.3498 23.3861 10.5725 23.2475 10.7473L22.7247 11.4067Z" fill="#BFC7D2"/>
<path d="M11.7247 25.4067L12.383 25.9287C12.5576 26.0672 12.67 26.2694 12.6954 26.491C12.7209 26.7125 12.6572 26.9352 12.5186 27.1101C12.3799 27.285 12.1776 27.3977 11.9561 27.4235C11.7346 27.4492 11.512 27.3859 11.3374 27.2475L10.6791 26.7255L10.1563 27.3849C10.0176 27.5598 9.81528 27.6725 9.59377 27.6983C9.37225 27.724 9.14973 27.6607 8.97512 27.5223C8.80051 27.3839 8.68812 27.1816 8.6627 26.9601C8.63728 26.7385 8.7009 26.5158 8.83955 26.3409C8.83955 26.3409 9.40032 26.008 9.36235 25.6815C9.32444 25.3556 8.70398 25.1595 8.70398 25.1595C8.52937 25.0211 8.417 24.8189 8.39157 24.5973C8.36615 24.3758 8.42976 24.153 8.56841 23.9782C8.70707 23.8033 8.90941 23.6906 9.13092 23.6648C9.35244 23.639 9.57497 23.7023 9.74958 23.8408L10.408 24.3628L10.9308 23.7034C11.0694 23.5285 11.2717 23.4158 11.4933 23.39C11.7148 23.3642 11.9373 23.4275 12.1119 23.566C12.2865 23.7044 12.3989 23.9066 12.4243 24.1282C12.4497 24.3498 12.3861 24.5725 12.2475 24.7473L11.7247 25.4067Z" fill="#BFC7D2"/>
<path d="M34.8268 58.0143L30.7944 58.6488C31.4612 60.0843 31.232 61.6757 30.8986 63.1111C32.2948 63.1528 33.7223 63.7248 35.0769 63.3816C35.7542 61.7381 35.4208 59.689 34.8268 58.0143Z" fill="#92A32B"/>
<path d="M35.004 57.5566L30.9715 58.1911C31.6384 59.6266 31.4091 61.218 31.0757 62.6534C32.472 62.6951 33.8995 63.2671 35.254 62.9239C35.9418 61.2804 35.6083 59.2313 35.004 57.5566Z" fill="#BEE41B"/>
<path d="M32.0239 59.3873C32.795 59.1793 33.5869 59.0753 34.3788 59.0753C34.4726 59.0753 34.4726 58.9193 34.3788 58.9193C33.566 58.9193 32.7637 59.0233 31.9822 59.2417C31.8884 59.2625 31.9301 59.4081 32.0239 59.3873Z" fill="#92A32B"/>
<path d="M32.201 59.9803C33.1597 59.7098 34.1496 59.6058 35.129 59.481C35.2228 59.4706 35.1811 59.325 35.0873 59.3354C34.1079 59.4706 33.118 59.5642 32.1594 59.8347C32.0656 59.8555 32.1073 60.0011 32.201 59.9803Z" fill="#92A32B"/>
<path d="M32.0448 60.5731C32.9617 60.5211 33.8266 60.1675 34.7227 59.9802C34.8164 59.9594 34.7748 59.8138 34.681 59.8346C33.8057 60.0218 32.9513 60.3755 32.0448 60.4275C31.951 60.4275 31.951 60.5835 32.0448 60.5731Z" fill="#92A32B"/>
<path d="M32.4824 61.0308C33.4306 60.7916 34.3683 60.5731 35.3166 60.3443C35.4103 60.3235 35.3687 60.1779 35.2749 60.1987C34.3267 60.4275 33.3785 60.646 32.4407 60.8852C32.3469 60.906 32.3886 61.0516 32.4824 61.0308Z" fill="#92A32B"/>
<path d="M79.1424 32.3638L82.7997 33.5808C81.9557 34.8186 81.9245 36.3373 82.0183 37.7207C80.7054 37.5438 79.2987 37.8559 78.0796 37.3358C77.694 35.682 78.3192 33.8201 79.1424 32.3638Z" fill="#92A32B"/>
<path d="M79.0381 31.9062L82.6955 33.1232C81.8515 34.361 81.8202 35.8796 81.914 37.263C80.6011 37.0862 79.1944 37.3983 77.9753 36.8782C77.5898 35.2347 78.2254 33.3728 79.0381 31.9062Z" fill="#FDE427"/>
<path d="M81.5389 34.0697C80.8512 33.7577 80.1323 33.5392 79.3924 33.4144C79.2987 33.404 79.3195 33.2584 79.4133 33.2688C80.1739 33.3936 80.9033 33.6224 81.6014 33.9345C81.6848 33.9761 81.6223 34.1009 81.5389 34.0697Z" fill="#92A32B"/>
<path d="M81.2784 34.5898C80.424 34.1945 79.5174 33.9449 78.6318 33.6744C78.5484 33.6432 78.6005 33.5184 78.6943 33.5392C79.5904 33.8096 80.4969 34.0593 81.3409 34.4545C81.4139 34.4961 81.3618 34.6314 81.2784 34.5898Z" fill="#92A32B"/>
<path d="M81.3305 35.1723C80.4865 34.9746 79.7363 34.517 78.934 34.2049C78.8506 34.1737 78.9131 34.0385 78.9965 34.0697C79.7884 34.3818 80.5282 34.8394 81.3618 35.0267C81.4451 35.0475 81.4243 35.1931 81.3305 35.1723Z" fill="#92A32B"/>
<path d="M80.8512 35.526C80.0072 35.1619 79.1632 34.8083 78.3192 34.4546C78.2358 34.4234 78.2983 34.2882 78.3817 34.3194C79.2257 34.6731 80.0801 35.0267 80.9137 35.3908C80.9971 35.4324 80.945 35.5676 80.8512 35.526Z" fill="#92A32B"/>
<path d="M31.8988 39.8427L27.8664 40.4772C28.5332 41.9126 28.304 43.504 27.9706 44.9395C29.3668 44.9811 30.7943 45.5532 32.1489 45.2099C32.8366 43.5664 32.5032 41.5173 31.8988 39.8427Z" fill="#16B1B5"/>
<path d="M32.0864 39.3954L28.054 40.0299C28.7208 41.4653 28.4916 43.0568 28.1582 44.4922C29.5544 44.5338 30.9819 45.1059 32.3365 44.7626C32.3052 43.2024 32.4303 41.1949 32.0864 39.3954Z" fill="#46F2F2"/>
<path d="M29.3251 41.455C29.9191 41.2469 30.5234 41.1429 31.1382 41.1429C31.2111 41.1429 31.2111 40.9869 31.1382 40.9869C30.513 40.9869 29.8982 41.0909 29.2939 41.3093C29.2209 41.3405 29.2522 41.4862 29.3251 41.455Z" fill="#16B1B5"/>
<path d="M29.4606 42.0477C30.2004 41.7773 30.961 41.6733 31.7113 41.5484C31.7842 41.538 31.753 41.3924 31.68 41.4028C30.9194 41.538 30.1587 41.6317 29.4293 41.9021C29.3564 41.9333 29.3877 42.0789 29.4606 42.0477Z" fill="#16B1B5"/>
<path d="M29.3356 42.6511C30.0441 42.5991 30.711 42.2454 31.3987 42.0582C31.4717 42.0374 31.4404 41.8917 31.3675 41.9126C30.6902 42.0998 30.0337 42.4534 29.3356 42.5054C29.2626 42.5054 29.2626 42.6511 29.3356 42.6511Z" fill="#16B1B5"/>
<path d="M29.669 43.0984C30.3984 42.8591 31.1278 42.6407 31.8572 42.4119C31.9301 42.3911 31.8988 42.2454 31.8259 42.2662C31.0965 42.4951 30.3671 42.7135 29.6377 42.9528C29.5648 42.9736 29.5961 43.1296 29.669 43.0984Z" fill="#16B1B5"/>
<path d="M40.9849 39.9259L36.9525 40.5604C37.6193 41.9958 37.3901 43.5873 37.0567 45.0227C38.4529 45.0643 39.8804 45.6364 41.235 45.2932C41.9123 43.6497 41.5789 41.6006 40.9849 39.9259Z" fill="#92A32B"/>
<path d="M41.1621 39.4682L37.1296 40.1027C37.7965 41.5381 37.5672 43.1296 37.2338 44.565C38.6301 44.6066 40.0576 45.1787 41.4122 44.8354C42.0999 43.192 41.7664 41.1429 41.1621 39.4682Z" fill="#BEE41B"/>
<path d="M38.182 41.2885C38.9531 41.0805 39.745 40.9765 40.5369 40.9765C40.6307 40.9765 40.6307 40.8204 40.5369 40.8204C39.7241 40.8204 38.9218 40.9245 38.1403 41.1429C38.0465 41.1741 38.0882 41.3197 38.182 41.2885Z" fill="#92A32B"/>
<path d="M38.3591 41.8918C39.3178 41.6213 40.3076 41.5173 41.2871 41.3925C41.3809 41.3821 41.3392 41.2365 41.2454 41.2469C40.266 41.3821 39.2761 41.4757 38.3174 41.7461C38.2237 41.767 38.2653 41.9126 38.3591 41.8918Z" fill="#92A32B"/>
<path d="M38.2029 42.4847C39.1198 42.4327 39.9847 42.079 40.8808 41.8918C40.9745 41.871 40.9329 41.7254 40.8391 41.7462C39.9638 41.9334 39.1094 42.2871 38.2029 42.3391C38.1091 42.3391 38.1091 42.4847 38.2029 42.4847Z" fill="#92A32B"/>
<path d="M38.6405 42.9423C39.5887 42.7031 40.5265 42.4846 41.4747 42.2558C41.5684 42.235 41.5268 42.0894 41.433 42.1102C40.4848 42.339 39.5366 42.5575 38.5988 42.7967C38.505 42.8175 38.5467 42.9631 38.6405 42.9423Z" fill="#92A32B"/>
<path d="M27.0953 53.8641L23.6151 54.0513C24.0736 55.5075 23.5005 57.2134 24.084 58.7008C25.053 58.5864 26.3242 58.6592 27.262 58.3368C27.335 56.9846 27.5329 55.1123 27.0953 53.8641Z" fill="#D3B81A"/>
<path d="M27.3662 53.5L23.886 53.6872C24.3445 55.1435 23.7714 56.8493 24.3549 58.3368C25.324 58.2223 26.5952 58.2952 27.533 57.9727C27.6059 56.6205 27.8039 54.7482 27.3662 53.5Z" fill="#FDE427"/>
<path d="M24.5945 55.1331C24.7925 55.2163 25.0843 55.1331 25.2927 55.0915C25.6053 55.0291 25.9179 54.9562 26.2305 54.9146C26.3242 54.9042 26.3242 54.7482 26.2305 54.7586C25.9491 54.7898 25.6782 54.8626 25.3969 54.9146C25.251 54.9458 25.1155 54.9666 24.9697 54.9875C24.8863 54.9979 24.7508 55.0291 24.6675 54.9979C24.5841 54.9666 24.5112 55.0915 24.5945 55.1331Z" fill="#D3B81A"/>
<path d="M24.407 55.6947C25.2719 55.6011 26.1055 55.3723 26.939 55.1434C27.0328 55.1122 26.9911 54.9666 26.8974 54.9978C26.0742 55.2267 25.251 55.4451 24.3966 55.5387C24.3132 55.5491 24.3132 55.7051 24.407 55.6947Z" fill="#D3B81A"/>
<path d="M24.6779 56.1004C25.1468 56.038 25.6053 55.882 26.0742 55.778C26.1679 55.7572 26.1263 55.6115 26.0325 55.6323C25.5844 55.7364 25.1364 55.8924 24.6779 55.9444C24.5841 55.9652 24.5841 56.1212 24.6779 56.1004Z" fill="#D3B81A"/>
<path d="M24.803 56.3396C24.8655 56.4333 25.0009 56.4229 25.1051 56.4125C25.3031 56.4021 25.5115 56.3501 25.6991 56.3084C26.1159 56.2148 26.5431 56.09 26.9494 55.9548C27.0432 55.9236 27.0015 55.778 26.9078 55.8092C26.5639 55.9236 26.2096 56.0172 25.8554 56.1108C25.6574 56.1628 25.4594 56.2044 25.251 56.2356C25.2093 56.246 24.9488 56.2876 24.928 56.2564C24.8759 56.1836 24.7404 56.2564 24.803 56.3396Z" fill="#D3B81A"/>
<path d="M24.9384 56.4957C24.8863 56.5685 24.8446 56.5789 24.8342 56.6725C24.8342 56.7141 24.8759 56.7453 24.9071 56.7453C25.4177 56.7453 25.9179 56.6517 26.3868 56.4645C26.4805 56.4333 26.4389 56.2772 26.3451 56.3188C25.8866 56.4957 25.3969 56.5893 24.8967 56.5893C24.9176 56.6101 24.9488 56.6413 24.9697 56.6621C24.9697 56.6413 25.0426 56.5789 25.053 56.5685C25.1155 56.4853 24.9905 56.4124 24.9384 56.4957Z" fill="#D3B81A"/>
<path d="M25.4177 56.9118C25.6678 57.0782 26.0429 57.0158 26.3242 57.0158C26.418 57.0158 26.418 56.8597 26.3242 56.8597C26.0637 56.8597 25.7199 56.9326 25.4906 56.7765C25.4177 56.7349 25.3343 56.8597 25.4177 56.9118Z" fill="#D3B81A"/>
<path d="M94.3136 46.6349L90.8334 46.8222C91.2918 48.2784 90.7188 49.9843 91.3023 51.4717C92.2713 51.3573 93.5425 51.4301 94.4803 51.1077C94.5533 49.745 94.7512 47.8831 94.3136 46.6349Z" fill="#D3B81A"/>
<path d="M94.5949 46.2709L91.1147 46.4581C91.5732 47.9143 91.0001 49.6202 91.5836 51.1076C92.5527 50.9932 93.8239 51.066 94.7617 50.7436C94.8346 49.381 95.0326 47.5191 94.5949 46.2709Z" fill="#FDE427"/>
<path d="M91.8233 47.9039C92.0212 47.9871 92.313 47.9039 92.5214 47.8623C92.834 47.7999 93.1466 47.7271 93.4592 47.6855C93.553 47.6751 93.553 47.519 93.4592 47.5294C93.1778 47.5606 92.9069 47.6334 92.6256 47.6855C92.4797 47.7167 92.3442 47.7375 92.1984 47.7583C92.115 47.7687 91.9796 47.7999 91.8962 47.7687C91.8128 47.7271 91.7295 47.8623 91.8233 47.9039Z" fill="#D3B81A"/>
<path d="M91.6253 48.4552C92.4901 48.3616 93.3237 48.1327 94.1677 47.9039C94.2615 47.8727 94.2198 47.7271 94.1261 47.7583C93.3029 47.9871 92.4797 48.2055 91.6253 48.2991C91.5315 48.32 91.5315 48.4656 91.6253 48.4552Z" fill="#D3B81A"/>
<path d="M91.9066 48.8713C92.3755 48.8089 92.834 48.6529 93.3029 48.5488C93.3967 48.528 93.355 48.3824 93.2612 48.4032C92.8132 48.5072 92.3651 48.6633 91.9066 48.7153C91.8129 48.7257 91.8129 48.8817 91.9066 48.8713Z" fill="#D3B81A"/>
<path d="M92.0213 49.1105C92.0838 49.2041 92.2193 49.1937 92.3235 49.1833C92.5214 49.1729 92.7298 49.1209 92.9174 49.0793C93.3342 48.9857 93.7614 48.8609 94.1678 48.7257C94.2615 48.6945 94.2199 48.5488 94.1261 48.58C93.7822 48.6945 93.428 48.7881 93.0737 48.8817C92.8757 48.9337 92.6777 48.9753 92.4693 49.0065C92.4277 49.0169 92.1672 49.0585 92.1463 49.0273C92.1046 48.9441 91.9692 49.0273 92.0213 49.1105Z" fill="#D3B81A"/>
<path d="M92.1567 49.2561C92.1046 49.3289 92.0629 49.3393 92.0525 49.4329C92.0525 49.4745 92.0942 49.5057 92.1254 49.5057C92.636 49.5057 93.1361 49.4121 93.605 49.2249C93.6988 49.1937 93.6571 49.0377 93.5634 49.0793C93.1049 49.2561 92.6152 49.3497 92.115 49.3497C92.1358 49.3705 92.1671 49.4017 92.1879 49.4225C92.1879 49.4017 92.2609 49.3393 92.2713 49.3289C92.3442 49.2561 92.2088 49.1729 92.1567 49.2561Z" fill="#D3B81A"/>
<path d="M92.6464 49.6826C92.8965 49.849 93.2716 49.7866 93.553 49.7866C93.6467 49.7866 93.6467 49.6306 93.553 49.6306C93.2925 49.6306 92.9486 49.7034 92.7194 49.5473C92.636 49.4953 92.5631 49.6306 92.6464 49.6826Z" fill="#D3B81A"/>
<path d="M57.9276 48.5072L54.4474 48.6944C54.9059 50.1507 54.3328 51.8565 54.9163 53.344C55.8853 53.2295 57.1565 53.3024 58.0943 52.9799C58.1673 51.6173 58.3652 49.7554 57.9276 48.5072Z" fill="#D3B81A"/>
<path d="M58.1985 48.1431L54.7183 48.3304C55.1768 49.7866 54.6037 51.4925 55.1872 52.9799C56.1563 52.8655 57.4275 52.9383 58.3653 52.6158C58.4382 51.2532 58.6362 49.3913 58.1985 48.1431Z" fill="#FDE427"/>
<path d="M55.4269 49.7761C55.6248 49.8594 55.9166 49.7761 56.125 49.7345C56.4376 49.6721 56.7502 49.5993 57.0628 49.5577C57.1565 49.5473 57.1565 49.3913 57.0628 49.4017C56.7814 49.4329 56.5105 49.5057 56.2292 49.5577C56.0833 49.5889 55.9478 49.6097 55.802 49.6305C55.7186 49.6409 55.5831 49.6721 55.4998 49.6409C55.4164 49.5993 55.3435 49.7345 55.4269 49.7761Z" fill="#D3B81A"/>
<path d="M55.2393 50.3275C56.1042 50.2339 56.9377 50.005 57.7817 49.7762C57.8755 49.745 57.8338 49.5994 57.7401 49.6306C56.9169 49.8594 56.0937 50.0778 55.2393 50.1715C55.1455 50.1923 55.1455 50.3379 55.2393 50.3275Z" fill="#D3B81A"/>
<path d="M55.5102 50.7435C55.9791 50.6811 56.4376 50.5251 56.9065 50.4211C57.0002 50.4003 56.9586 50.2547 56.8648 50.2755C56.4167 50.3795 55.9687 50.5355 55.5102 50.5875C55.4164 50.5979 55.4164 50.7539 55.5102 50.7435Z" fill="#D3B81A"/>
<path d="M55.6352 50.9724C55.6978 51.066 55.8332 51.0556 55.9374 51.0452C56.1354 51.0348 56.3438 50.9828 56.5314 50.9412C56.9481 50.8476 57.3754 50.7228 57.7817 50.5875C57.8755 50.5563 57.8338 50.4107 57.74 50.4419C57.3962 50.5563 57.0419 50.65 56.6876 50.7436C56.4897 50.7956 56.2917 50.8372 56.0833 50.8684C56.0416 50.8788 55.7811 50.9204 55.7603 50.8892C55.7082 50.8164 55.5831 50.8892 55.6352 50.9724Z" fill="#D3B81A"/>
<path d="M55.7707 51.1285C55.7186 51.2013 55.6769 51.2117 55.6665 51.3053C55.6665 51.3469 55.7082 51.3781 55.7394 51.3781C56.25 51.3781 56.7502 51.2845 57.2191 51.0973C57.3128 51.0661 57.2712 50.91 57.1774 50.9516C56.7189 51.1285 56.2292 51.2221 55.729 51.2221C55.7499 51.2429 55.7811 51.2741 55.802 51.2949C55.802 51.2741 55.8749 51.2117 55.8853 51.2013C55.9478 51.1181 55.8228 51.0453 55.7707 51.1285Z" fill="#D3B81A"/>
<path d="M56.25 51.5549C56.5001 51.7213 56.8752 51.6589 57.1565 51.6589C57.2503 51.6589 57.2503 51.5029 57.1565 51.5029C56.896 51.5029 56.5522 51.5757 56.3229 51.4197C56.25 51.3676 56.1666 51.5029 56.25 51.5549Z" fill="#D3B81A"/>
<path d="M35.4312 54.4986C34.9727 53.2504 34.5559 51.9502 34.2329 50.6084C33.4722 51.5862 30.638 51.711 30.638 51.711C31.2528 53.0424 31.8363 54.7587 31.8363 56.1941C33.045 55.778 34.2954 55.1435 35.4312 54.4986Z" fill="#AA3C6E"/>
<path d="M35.5145 54.1033C35.0561 52.8551 34.6393 51.5549 34.3162 50.2131C33.5556 51.1804 30.7214 51.3156 30.7214 51.3156C31.3362 52.6471 31.9197 54.3633 31.9197 55.7988C33.1284 55.3723 34.3788 54.7378 35.5145 54.1033Z" fill="#FF5593"/>
<path d="M32.1906 52.2831C32.4719 52.3871 32.8054 52.2622 33.0659 52.1582C33.3889 52.0334 33.691 51.8566 33.9828 51.6798C34.0662 51.6277 33.9932 51.4925 33.9099 51.5445C33.6598 51.7006 33.3993 51.8462 33.1284 51.971C32.8783 52.0854 32.524 52.2414 32.2323 52.1374C32.1385 52.1062 32.0968 52.2518 32.1906 52.2831Z" fill="#AA3C6E"/>
<path d="M32.4094 52.8967C32.7428 52.7511 33.0971 52.6783 33.4305 52.5327C33.5243 52.4911 33.4826 52.3454 33.3889 52.387C33.045 52.5327 32.6699 52.6159 32.3365 52.7615C32.2427 52.8031 32.3156 52.9383 32.4094 52.8967Z" fill="#AA3C6E"/>
<path d="M32.3573 53.0943C32.7532 53.2608 33.2117 53.0215 33.566 52.8759C33.6598 52.8447 33.6181 52.6887 33.5243 52.7303C33.1909 52.8655 32.7532 53.0943 32.3885 52.9487C32.3052 52.9071 32.2635 53.0527 32.3573 53.0943Z" fill="#AA3C6E"/>
<path d="M32.1906 53.8536C32.7949 53.5 33.4931 53.3232 34.1391 53.0631C34.2329 53.0215 34.1912 52.8759 34.0974 52.9175C33.441 53.1879 32.7324 53.3648 32.1177 53.7288C32.0239 53.7704 32.1072 53.9056 32.1906 53.8536Z" fill="#AA3C6E"/>
<path d="M32.6074 54.2697C33.0346 54.1032 33.4514 53.9472 33.8578 53.7496C33.9411 53.708 33.8682 53.5728 33.7848 53.6144C33.3889 53.8016 32.9825 53.968 32.5657 54.124C32.4824 54.1552 32.5136 54.3009 32.6074 54.2697Z" fill="#AA3C6E"/>
<path d="M32.7637 54.5298C32.9096 54.5922 33.1284 54.4674 33.2638 54.405C33.5035 54.3009 33.7223 54.1761 33.9515 54.0409C34.0349 53.9889 33.962 53.8641 33.8786 53.9057C33.7015 54.0097 33.5139 54.1137 33.3263 54.1969C33.2326 54.2489 33.1284 54.2905 33.0242 54.3322C32.9929 54.3426 32.8783 54.3946 32.847 54.3842C32.7533 54.3634 32.6699 54.4882 32.7637 54.5298Z" fill="#AA3C6E"/>
<path opacity="0.6" d="M34.7747 42.4743C34.3162 41.2261 33.8995 39.9259 33.5764 38.584C32.8158 39.5514 29.9816 39.6866 29.9816 39.6866C30.5964 41.018 31.1799 42.7343 31.1799 44.1697C32.3886 43.7537 33.639 43.1192 34.7747 42.4743Z" fill="#16B1B5"/>
<path d="M34.8581 42.079C34.3996 40.8308 33.9828 39.5306 33.6598 38.1888C31.0444 38.9793 29.9816 39.697 29.9816 39.697C30.5964 41.0284 31.2632 42.3494 31.2632 43.7849C32.4719 43.348 33.7223 42.7135 34.8581 42.079Z" fill="#FF5593"/>
<path d="M31.5237 40.2587C31.8051 40.3627 32.1385 40.2379 32.399 40.1339C32.722 40.0091 33.0242 39.8322 33.316 39.6554C33.3993 39.6034 33.3264 39.4682 33.243 39.5202C32.9929 39.6762 32.7324 39.8218 32.4615 39.9466C32.2115 40.0611 31.8572 40.2171 31.5758 40.1131C31.4716 40.0819 31.4404 40.2275 31.5237 40.2587Z" fill="#AA3C6E"/>
<path d="M31.753 40.8724C32.0864 40.7268 32.4407 40.654 32.7741 40.5084C32.8679 40.4668 32.8262 40.3211 32.7324 40.3627C32.3886 40.5084 32.0135 40.5916 31.68 40.7372C31.5863 40.7788 31.6592 40.914 31.753 40.8724Z" fill="#AA3C6E"/>
<path d="M31.6904 41.0701C32.0864 41.2365 32.5449 40.9973 32.8991 40.8517C32.9929 40.8205 32.9512 40.6644 32.8575 40.706C32.524 40.8413 32.0864 41.0701 31.7217 40.9245C31.6488 40.8829 31.6071 41.0285 31.6904 41.0701Z" fill="#AA3C6E"/>
<path d="M31.5342 41.8293C32.1385 41.4757 32.8366 41.2989 33.4827 41.0388C33.5764 40.9972 33.5348 40.8516 33.441 40.8932C32.7845 41.1636 32.076 41.3405 31.4612 41.7045C31.3674 41.7461 31.4404 41.8814 31.5342 41.8293Z" fill="#AA3C6E"/>
<path d="M31.951 42.2454C32.3782 42.079 32.795 41.923 33.2013 41.7254C33.2847 41.6837 33.2118 41.5485 33.1284 41.5901C32.7324 41.7774 32.3261 41.9438 31.9093 42.0998C31.8155 42.131 31.8572 42.2766 31.951 42.2454Z" fill="#AA3C6E"/>
<path d="M32.1072 42.5055C32.2531 42.5679 32.4719 42.4431 32.6074 42.3807C32.8471 42.2767 33.0659 42.1518 33.2951 42.0166C33.3785 41.9646 33.3055 41.8398 33.2222 41.8814C33.045 41.9854 32.8575 42.0894 32.6699 42.1726C32.5761 42.2246 32.4719 42.2663 32.3677 42.3079C32.3365 42.3183 32.2219 42.3703 32.1906 42.3599C32.0968 42.3391 32.0135 42.4639 32.1072 42.5055Z" fill="#AA3C6E"/>
<path d="M46.3303 35.6404C46.2052 34.309 46.1323 32.9568 46.1636 31.5734C45.1737 32.3119 42.402 31.719 42.402 31.719C42.6521 33.1648 42.7771 34.9747 42.4124 36.3685C43.7045 36.2645 45.0695 35.9629 46.3303 35.6404Z" fill="#AA3C6E"/>
<path d="M46.5179 35.2659C46.3928 33.9345 46.3199 32.5823 46.3512 31.1989C45.3613 31.9374 42.5896 31.3445 42.5896 31.3445C42.8397 32.7903 42.9647 34.6002 42.6 35.994C43.8817 35.9004 45.2571 35.5987 46.5179 35.2659Z" fill="#FF5593"/>
<path d="M43.7566 32.6654C44.0067 32.8423 44.3505 32.8006 44.6319 32.7694C44.9757 32.7278 45.3091 32.6342 45.6426 32.5406C45.7364 32.5094 45.6947 32.3638 45.6009 32.395C45.3196 32.4782 45.0278 32.551 44.7361 32.603C44.4547 32.655 44.0796 32.707 43.8295 32.5406C43.7566 32.4782 43.6837 32.6134 43.7566 32.6654Z" fill="#AA3C6E"/>
<path d="M43.8191 33.3208C44.1734 33.2688 44.5381 33.2792 44.8924 33.2272C44.9861 33.2168 44.9861 33.0608 44.8924 33.0712C44.5172 33.1232 44.1421 33.1128 43.7774 33.1648C43.6837 33.1856 43.7253 33.3312 43.8191 33.3208Z" fill="#AA3C6E"/>
<path d="M43.7149 33.4873C44.0484 33.7473 44.5589 33.6329 44.9445 33.5913C45.0382 33.5809 45.0382 33.4248 44.9445 33.4352C44.5902 33.4768 44.1005 33.5913 43.7983 33.352C43.7149 33.3 43.642 33.4352 43.7149 33.4873Z" fill="#AA3C6E"/>
<path d="M43.3607 34.1842C44.0379 33.9969 44.7465 34.0073 45.4446 33.9137C45.5384 33.9033 45.5384 33.7473 45.4446 33.7577C44.7361 33.8513 44.0067 33.8409 43.319 34.0385C43.2252 34.0593 43.2669 34.2154 43.3607 34.1842Z" fill="#AA3C6E"/>
<path d="M43.6629 34.6938C44.1109 34.6418 44.5694 34.6002 45.007 34.5066C45.1008 34.4858 45.0591 34.3402 44.9653 34.361C44.5381 34.4442 44.1005 34.4962 43.6629 34.5378C43.5691 34.5482 43.5691 34.7042 43.6629 34.6938Z" fill="#AA3C6E"/>
<path d="M43.7462 34.985C43.8713 35.0891 44.1109 35.0163 44.2568 34.9954C44.5069 34.9538 44.7674 34.8914 45.007 34.8186C45.1008 34.7874 45.0591 34.6418 44.9653 34.673C44.7674 34.725 44.559 34.777 44.361 34.8186C44.2568 34.8394 44.1422 34.8602 44.038 34.8706C43.9963 34.8706 43.8817 34.8914 43.8504 34.8706C43.7775 34.8186 43.6629 34.9226 43.7462 34.985Z" fill="#AA3C6E"/>
<path d="M86.1966 43.3168C86.405 41.9958 86.6759 40.6748 87.051 39.3434C85.9152 39.8218 83.3728 38.5632 83.3728 38.5632C83.2582 40.0299 82.9352 41.8085 82.237 43.0671C83.4978 43.2752 84.8941 43.3272 86.1966 43.3168Z" fill="#16B1B5"/>
<path d="M86.4675 43.0048C86.6759 41.6838 86.9468 40.3628 87.3219 39.0313C85.8214 38.6777 83.6437 38.2512 83.6437 38.2512C83.5291 39.7179 83.2061 41.4965 82.5079 42.7551C83.7583 42.9632 85.165 43.0152 86.4675 43.0048Z" fill="#46F2F2"/>
<path d="M84.4461 39.8114C84.644 40.0402 84.9879 40.0922 85.2692 40.1234C85.6131 40.1651 85.9569 40.1651 86.3008 40.1443C86.3946 40.1443 86.3946 39.9882 86.3008 39.9882C85.9986 39.9986 85.7069 39.9986 85.4047 39.9778C85.1233 39.957 84.7378 39.9154 84.5398 39.6866C84.4877 39.6242 84.3731 39.7282 84.4461 39.8114Z" fill="#16B1B5"/>
<path d="M84.3419 40.446C84.6961 40.4772 85.0504 40.5812 85.4047 40.6228C85.4984 40.6332 85.5401 40.4876 85.4464 40.4772C85.0712 40.4356 84.717 40.3316 84.3419 40.29C84.2377 40.29 84.2377 40.4356 84.3419 40.446Z" fill="#16B1B5"/>
<path d="M84.196 40.5916C84.4565 40.9245 84.9774 40.9453 85.363 40.9973C85.4568 41.0077 85.4984 40.862 85.4047 40.8516C85.0504 40.7996 84.5502 40.7996 84.3106 40.4876C84.2376 40.4044 84.1334 40.5188 84.196 40.5916Z" fill="#16B1B5"/>
<path d="M83.675 41.174C84.3835 41.1636 85.0712 41.3404 85.7589 41.4237C85.8527 41.4341 85.8944 41.2884 85.8006 41.278C85.0921 41.1948 84.3939 41.0076 83.675 41.018C83.5812 41.0284 83.5812 41.174 83.675 41.174Z" fill="#16B1B5"/>
<path d="M83.8417 41.7358C84.2897 41.7982 84.7378 41.8606 85.1963 41.8918C85.29 41.9022 85.29 41.7462 85.1963 41.7358C84.7586 41.715 84.321 41.6525 83.8834 41.5901C83.7896 41.5797 83.7479 41.7254 83.8417 41.7358Z" fill="#16B1B5"/>
<path d="M83.8521 42.0478C83.9563 42.1726 84.196 42.1726 84.3418 42.183C84.6023 42.2038 84.8524 42.2038 85.1129 42.2038C85.2067 42.2038 85.2067 42.0478 85.1129 42.0478C84.9045 42.0582 84.6961 42.0478 84.4877 42.0374C84.3731 42.027 84.2689 42.027 84.1543 42.0062C84.1126 41.9958 83.998 41.9854 83.9771 41.9646C83.925 41.8918 83.7896 41.975 83.8521 42.0478Z" fill="#16B1B5"/>
<g opacity="0.6">
<path d="M56.302 44.669C56.302 44.669 56.302 44.6586 56.302 44.669C56.302 44.6586 56.302 44.6586 56.302 44.669C56.2709 44.7 56.2605 44.7 56.302 44.669Z" fill="#16B1B5"/>
<path d="M66.4406 36.5245C66.6282 34.257 66.649 31.9894 66.7219 29.7219C66.326 29.6698 65.9196 29.6386 65.5132 29.6074C65.5028 29.6074 65.482 29.6074 65.4716 29.597C65.4507 29.597 65.4299 29.597 65.409 29.597C64.3879 29.545 63.3563 29.5658 62.356 29.5866C61.1577 29.6074 59.8761 29.545 58.6778 29.6594L57.1253 29.6282C57.1044 29.6178 57.0836 29.6178 57.0523 29.6178C57.0107 29.6178 56.969 29.6178 56.9377 29.6282L55.7915 29.6074C56.5626 31.771 56.4792 34.8291 56.6043 37.1174C56.7293 39.5722 56.7397 42.2142 56.2917 44.6482C57.74 44.3778 59.5531 45.1267 61.0952 45.0747C62.5227 45.0331 64.0857 44.773 65.4195 44.5234C65.4611 43.3584 65.9092 42.1726 66.0655 41.0076C66.2843 39.541 66.326 38.012 66.4406 36.5245Z" fill="#16B1B5"/>
</g>
<path d="M57.4476 43.9617C57.4172 43.992 57.4172 43.992 57.4476 43.9617V43.9617Z" fill="white"/>
<path d="M66.899 35.0267C66.899 32.7591 66.7427 30.4916 66.6281 28.224C65.1902 28.1512 63.7002 28.3176 62.2831 28.4529C61.0952 28.5673 59.8031 28.6193 58.6153 28.8169L55.7394 28.9937C56.6876 31.0845 56.8543 34.1426 57.1565 36.4205C57.4795 38.8545 57.7088 41.4965 57.4587 43.9617C58.8862 43.5664 60.7513 44.1801 62.2831 44.0033C63.7002 43.8369 65.2319 43.4624 66.5448 43.0984C66.4927 41.9334 66.8365 40.7164 66.9095 39.541C66.9824 38.0432 66.899 36.5245 66.899 35.0267Z" fill="white"/>
<path d="M58.9383 32.239C59.3343 32.3534 59.7719 32.2182 60.147 32.0934C60.6368 31.9374 61.1161 31.7293 61.6162 31.5837C62.8249 31.2197 64.0753 30.9596 65.3465 31.0116C65.482 31.022 65.482 30.8036 65.3465 30.7932C64.1378 30.7412 62.95 30.97 61.7934 31.3029C61.2932 31.4485 60.8243 31.6253 60.3346 31.8022C59.9386 31.9478 59.4176 32.1454 59.0008 32.031C58.855 31.9998 58.8029 32.2078 58.9383 32.239Z" fill="#D7E0E0"/>
<path d="M58.9487 33.3832C60.8972 32.2599 63.1792 31.5734 65.409 31.3237C65.5445 31.3133 65.5445 31.0949 65.409 31.1053C63.1375 31.3549 60.8243 32.0518 58.8341 33.196C58.7195 33.2688 58.8237 33.4561 58.9487 33.3832Z" fill="#D7E0E0"/>
<path d="M58.4069 33.9969C60.2616 33.1648 62.3456 33.1336 64.2837 32.5511C64.4191 32.5095 64.3566 32.3014 64.2212 32.3431C62.2727 32.9359 60.1679 32.9672 58.2923 33.8097C58.1672 33.8721 58.2714 34.0593 58.4069 33.9969Z" fill="#D7E0E0"/>
<path d="M59.3343 34.2361C61.0535 34.0073 62.7728 33.768 64.4816 33.4664C64.6171 33.4456 64.565 33.2272 64.4191 33.2584C62.7103 33.56 60.991 33.7992 59.2717 34.0281C59.1363 34.0489 59.1988 34.2569 59.3343 34.2361Z" fill="#D7E0E0"/>
<path d="M59.2092 35.3179C59.4906 35.3908 59.7823 35.3492 60.0637 35.2971C60.5013 35.2243 60.9285 35.0995 61.3557 34.9747C62.2102 34.7251 63.0542 34.4026 63.9294 34.2362C64.0649 34.205 64.0128 33.9969 63.8669 34.0281C63.0542 34.1842 62.2623 34.4754 61.4599 34.7147C61.0431 34.8395 60.6159 34.9643 60.1783 35.0475C59.8865 35.1099 59.5427 35.1827 59.2509 35.0995C59.1363 35.0683 59.0738 35.2763 59.2092 35.3179Z" fill="#D7E0E0"/>
<path d="M59.6469 36.1605C60.7826 36.2437 61.9601 35.942 63.0333 35.6196C63.1688 35.578 63.1063 35.3699 62.9708 35.4115C61.908 35.7236 60.7514 36.0252 59.6365 35.942C59.5114 35.9316 59.5114 36.1501 59.6469 36.1605Z" fill="#D7E0E0"/>
<path d="M60.2616 36.9718C60.6367 37.367 61.439 37.1382 61.8871 37.0342C62.5019 36.8781 63.1166 36.6597 63.6897 36.3789C63.8148 36.3165 63.7106 36.1292 63.5751 36.1916C63.0645 36.4413 62.5227 36.6285 61.9809 36.7845C61.6787 36.8677 61.3661 36.9406 61.0431 36.9614C60.8347 36.9718 60.5638 36.9822 60.4179 36.8261C60.3137 36.7221 60.1574 36.8677 60.2616 36.9718Z" fill="#D7E0E0"/>
<path d="M61.4703 38.1472C62.0017 38.3136 62.5852 38.2408 63.1271 38.168C63.7731 38.0743 64.4191 37.9287 65.0651 37.9183C65.2006 37.9183 65.211 37.6999 65.0651 37.6999C64.4816 37.6999 63.9085 37.8247 63.3354 37.9079C62.7519 38.0015 62.1059 38.1056 61.5224 37.9287C61.3974 37.8975 61.3348 38.116 61.4703 38.1472Z" fill="#D7E0E0"/>
<path d="M59.1259 39.6867C61.0223 39.125 63.075 39.4058 64.961 38.7609C65.0964 38.7193 65.0339 38.5009 64.8984 38.5529C63.0125 39.1874 60.9702 38.9169 59.0633 39.4786C58.9383 39.5202 58.9904 39.7283 59.1259 39.6867Z" fill="#D7E0E0"/>
<path d="M59.9907 41.0701C61.5016 40.9661 62.8562 40.0923 64.3775 39.9987C64.5129 39.9883 64.5129 39.7699 64.3775 39.7803C63.6168 39.8219 62.8979 40.0507 62.1789 40.2899C61.4703 40.5188 60.741 40.7996 59.9907 40.8516C59.8553 40.862 59.8553 41.0805 59.9907 41.0701Z" fill="#D7E0E0"/>
<path d="M60.6055 41.2677C60.5117 41.3405 60.4075 41.3405 60.3762 41.4653C60.3554 41.5277 60.4075 41.6109 60.4804 41.6005C61.5849 41.4549 62.7207 41.5797 63.8044 41.2885C63.9398 41.2468 63.8773 41.0388 63.7418 41.0804C62.679 41.3717 61.5641 41.2364 60.4804 41.3821C60.5117 41.4237 60.5534 41.4757 60.5846 41.5173C60.5846 41.4965 60.7409 41.4341 60.7618 41.4133C60.866 41.3301 60.7097 41.1844 60.6055 41.2677Z" fill="#D7E0E0"/>
<path d="M62.231 41.9126C62.679 42.0894 63.2104 41.9126 63.6585 41.8398C63.794 41.819 63.7419 41.611 63.596 41.6318C63.1792 41.7046 62.6895 41.871 62.2831 41.7046C62.158 41.6526 62.0955 41.8606 62.231 41.9126Z" fill="#D7E0E0"/>
<path d="M56.9898 29.701C57.2085 29.701 57.3858 29.5241 57.3858 29.3058C57.3858 29.0875 57.2085 28.9105 56.9898 28.9105C56.7711 28.9105 56.5938 29.0875 56.5938 29.3058C56.5938 29.5241 56.7711 29.701 56.9898 29.701Z" fill="#FF1717"/>
<path d="M65.3674 29.0041C65.586 29.0041 65.7633 28.8271 65.7633 28.6088C65.7633 28.3905 65.586 28.2136 65.3674 28.2136C65.1487 28.2136 64.9714 28.3905 64.9714 28.6088C64.9714 28.8271 65.1487 29.0041 65.3674 29.0041Z" fill="#579334"/>
<path d="M75.4746 43.348C75.3495 42.0166 75.2766 40.6644 75.3079 39.2809C74.318 40.0195 71.5463 39.4266 71.5463 39.4266C71.7964 40.8724 71.9214 42.6823 71.5567 44.0761C72.8488 43.9721 74.2138 43.6704 75.4746 43.348Z" fill="#AA3C6E"/>
<path d="M75.6621 42.9735C75.5371 41.6421 75.4641 40.2899 75.4954 38.9065C74.5055 39.645 71.7338 39.0521 71.7338 39.0521C71.9839 40.4979 72.1089 42.3078 71.7442 43.7017C73.0259 43.608 74.4013 43.3064 75.6621 42.9735Z" fill="#FF5593"/>
<path d="M72.9009 40.3731C73.151 40.55 73.4948 40.5083 73.7761 40.4771C74.12 40.4355 74.4534 40.3419 74.7869 40.2483C74.8806 40.2171 74.839 40.0715 74.7452 40.1027C74.4639 40.1859 74.1721 40.2587 73.8803 40.3107C73.599 40.3627 73.2239 40.4147 72.9738 40.2483C72.9009 40.1859 72.8279 40.3211 72.9009 40.3731Z" fill="#AA3C6E"/>
<path d="M72.9634 41.0284C73.3177 40.9764 73.6823 40.9868 74.0366 40.9348C74.1304 40.9244 74.1304 40.7684 74.0366 40.7788C73.6615 40.8308 73.2864 40.8204 72.9217 40.8724C72.8279 40.8932 72.8696 41.0388 72.9634 41.0284Z" fill="#AA3C6E"/>
<path d="M72.8592 41.1949C73.1926 41.4549 73.7032 41.3405 74.0887 41.2989C74.1825 41.2885 74.1825 41.1325 74.0887 41.1429C73.7344 41.1845 73.2551 41.2989 72.9425 41.0597C72.8592 41.0077 72.7758 41.1429 72.8592 41.1949Z" fill="#AA3C6E"/>
<path d="M72.5049 41.8917C73.1822 41.7045 73.8907 41.7149 74.5889 41.6213C74.6827 41.6109 74.6827 41.4549 74.5889 41.4653C73.8803 41.5589 73.1509 41.5485 72.4632 41.7461C72.3695 41.7669 72.4111 41.923 72.5049 41.8917Z" fill="#AA3C6E"/>
<path d="M72.8071 42.4015C73.2551 42.3495 73.7136 42.3079 74.1512 42.2142C74.245 42.1934 74.2033 42.0478 74.1096 42.0686C73.6824 42.1518 73.2447 42.2038 72.8071 42.2454C72.7029 42.2558 72.7029 42.4119 72.8071 42.4015Z" fill="#AA3C6E"/>
<path d="M72.8905 42.6927C73.0155 42.7968 73.2552 42.724 73.401 42.7032C73.6511 42.6615 73.9116 42.5991 74.1513 42.5263C74.245 42.4951 74.2034 42.3495 74.1096 42.3807C73.9116 42.4327 73.7032 42.4847 73.5052 42.5263C73.401 42.5471 73.2864 42.5679 73.1822 42.5783C73.1405 42.5783 73.0259 42.5991 72.9947 42.5783C72.9217 42.5263 72.8071 42.6303 72.8905 42.6927Z" fill="#AA3C6E"/>
<path d="M25.9283 51.7421C25.8032 50.4107 25.7303 49.0585 25.7616 47.6751C24.7717 48.4136 22 47.8207 22 47.8207C22.2501 49.2666 22.3751 51.0764 22.0104 52.4703C23.3025 52.3766 24.6675 52.075 25.9283 51.7421Z" fill="#AA3C6E"/>
<path d="M26.1159 51.3781C25.9908 50.0467 25.9179 48.6945 25.9491 47.3111C24.9593 48.0496 22.1876 47.4567 22.1876 47.4567C22.4377 48.9025 22.5627 50.7124 22.198 52.1063C23.4797 52.0126 24.8551 51.711 26.1159 51.3781Z" fill="#FF5593"/>
<path d="M23.3546 48.7777C23.6047 48.9545 23.9485 48.9129 24.2298 48.8817C24.5737 48.8401 24.9071 48.7465 25.2406 48.6528C25.3344 48.6216 25.2927 48.476 25.1989 48.5072C24.9176 48.5904 24.6258 48.6632 24.334 48.7153C24.0527 48.7673 23.6776 48.8193 23.4275 48.6528C23.3546 48.5904 23.2816 48.7257 23.3546 48.7777Z" fill="#AA3C6E"/>
<path d="M23.4171 49.4226C23.7714 49.3706 24.1361 49.381 24.4904 49.329C24.5841 49.3186 24.5841 49.1626 24.4904 49.173C24.1152 49.225 23.7401 49.2146 23.3754 49.2666C23.2817 49.2978 23.3233 49.4434 23.4171 49.4226Z" fill="#AA3C6E"/>
<path d="M23.3129 49.5994C23.6463 49.8595 24.1569 49.7451 24.5425 49.7035C24.6362 49.6931 24.6362 49.537 24.5425 49.5474C24.1882 49.589 23.6984 49.7034 23.3963 49.4642C23.3129 49.4122 23.24 49.5474 23.3129 49.5994Z" fill="#AA3C6E"/>
<path d="M22.9586 50.2963C23.6359 50.1091 24.3445 50.1195 25.0426 50.0258C25.1364 50.0154 25.1364 49.8594 25.0426 49.8698C24.3341 49.9634 23.6047 49.953 22.917 50.1507C22.8232 50.1715 22.8649 50.3171 22.9586 50.2963Z" fill="#AA3C6E"/>
<path d="M23.2608 50.7956C23.7088 50.7436 24.1673 50.702 24.605 50.6084C24.6987 50.5876 24.6571 50.442 24.5633 50.4628C24.1361 50.546 23.6984 50.598 23.2608 50.6396C23.167 50.6604 23.167 50.8164 23.2608 50.7956Z" fill="#AA3C6E"/>
<path d="M23.3442 51.0972C23.4692 51.2012 23.7089 51.1284 23.8548 51.1076C24.1048 51.066 24.3653 51.0036 24.605 50.9308C24.6988 50.8996 24.6571 50.754 24.5633 50.7852C24.3653 50.8372 24.1569 50.8892 23.959 50.9308C23.8548 50.9516 23.7401 50.9724 23.6359 50.9828C23.5943 50.9828 23.4796 51.0036 23.4484 50.9828C23.3754 50.9308 23.2712 51.0348 23.3442 51.0972Z" fill="#AA3C6E"/>
<path d="M60.2304 66.2107C60.2721 66.8244 59.8032 67.3341 59.1884 67.3341H55.6769C55.0621 67.3341 54.6245 66.8348 54.6975 66.2107L55.5831 59.1272C55.6561 58.5135 56.0624 58.0038 56.4897 58.0038H58.8966C59.3239 58.0038 59.699 58.5031 59.7406 59.1272L60.2304 66.2107Z" fill="#3D3D3D"/>
<path d="M59.2822 66.0236C59.3135 66.5021 58.9488 66.8974 58.4486 66.8974H55.6457C55.1559 66.8974 54.8017 66.5021 54.8642 66.0236L55.5727 60.4899C55.6352 60.0115 55.9583 59.6162 56.3021 59.6162H58.2194C58.5528 59.6162 58.855 60.0115 58.8967 60.4899L59.2822 66.0236Z" fill="#707070"/>
<path d="M57.1461 66.4189C56.125 66.4189 55.3018 65.5867 55.3018 64.5778C55.3018 63.5584 56.1354 62.7367 57.1461 62.7367C58.1672 62.7367 58.9904 63.5688 58.9904 64.5778C58.9904 65.5867 58.1568 66.4189 57.1461 66.4189ZM57.1461 62.8615C56.1979 62.8615 55.4372 63.6312 55.4372 64.5674C55.4372 65.5139 56.2083 66.2733 57.1461 66.2733C58.0943 66.2733 58.8549 65.5035 58.8549 64.5674C58.8549 63.6312 58.0839 62.8615 57.1461 62.8615Z" fill="#3D3D3D"/>
<path d="M57.1461 63.1527C56.3646 63.1527 55.729 63.7872 55.729 64.5673C55.729 65.3475 56.3646 65.982 57.1461 65.982C57.9276 65.982 58.5632 65.3475 58.5632 64.5673C58.5632 63.7872 57.9276 63.1527 57.1461 63.1527Z" fill="#3D3D3D"/>
<path d="M57.1461 62.2894C56.573 62.2894 56.1042 61.8213 56.1042 61.2492C56.1042 60.6771 56.573 60.209 57.1461 60.209C57.7192 60.209 58.1881 60.6771 58.1881 61.2492C58.1881 61.8213 57.7192 62.2894 57.1461 62.2894ZM57.1461 60.2819C56.6147 60.2819 56.1771 60.7187 56.1771 61.2492C56.1771 61.7797 56.6147 62.2166 57.1461 62.2166C57.6776 62.2166 58.1152 61.7797 58.1152 61.2492C58.1152 60.7187 57.6776 60.2819 57.1461 60.2819Z" fill="#3D3D3D"/>
<path d="M57.1461 60.4483C56.7085 60.4483 56.3438 60.8124 56.3438 61.2492C56.3438 61.6861 56.7085 62.0502 57.1461 62.0502C57.5837 62.0502 57.9484 61.6861 57.9484 61.2492C57.9484 60.802 57.5837 60.4483 57.1461 60.4483Z" fill="#3D3D3D"/>
<path d="M108.662 69.2689H105.682V103.22H108.662V69.2689Z" fill="#A0A0A0"/>
<path opacity="0.7" d="M108.662 102.034H105.682V103.22H108.662V102.034Z" fill="#212E35"/>
<path d="M106.838 98.4663C106.838 98.6743 106.703 98.8511 106.536 98.8511C106.369 98.8511 106.234 98.6743 106.234 98.4663V71.11C106.234 70.9019 106.369 70.7251 106.536 70.7251C106.703 70.7251 106.838 70.9019 106.838 71.11V98.4663Z" fill="#CCCCCC"/>
<path d="M87.4157 69.2689H84.4356V103.22H87.4157V69.2689Z" fill="#A0A0A0"/>
<path opacity="0.7" d="M87.4157 102.034H84.4356V103.22H87.4157V102.034Z" fill="#212E35"/>
<path d="M85.6026 98.4663C85.6026 98.6743 85.4672 98.8511 85.3005 98.8511C85.1337 98.8511 84.9983 98.6743 84.9983 98.4663V71.11C84.9983 70.9019 85.1337 70.7251 85.3005 70.7251C85.4672 70.7251 85.6026 70.9019 85.6026 71.11V98.4663Z" fill="#CCCCCC"/>
<path d="M53.3429 69.2689H50.3628V103.22H53.3429V69.2689Z" fill="#A0A0A0"/>
<path opacity="0.7" d="M53.3429 102.034H50.3628V103.22H53.3429V102.034Z" fill="#212E35"/>
<path d="M51.5194 98.4663C51.5194 98.6743 51.3839 98.8511 51.2172 98.8511C51.0505 98.8511 50.915 98.6743 50.915 98.4663V71.11C50.915 70.9019 51.0505 70.7251 51.2172 70.7251C51.3839 70.7251 51.5194 70.9019 51.5194 71.11V98.4663Z" fill="#CCCCCC"/>
<path d="M32.1802 69.2689H29.2001V103.22H32.1802V69.2689Z" fill="#A0A0A0"/>
<path opacity="0.7" d="M32.1802 102.034H29.2001V103.22H32.1802V102.034Z" fill="#212E35"/>
<path d="M30.3671 98.4663C30.3671 98.6743 30.2317 98.8511 30.065 98.8511C29.8982 98.8511 29.7628 98.6743 29.7628 98.4663V71.11C29.7628 70.9019 29.8982 70.7251 30.065 70.7251C30.2317 70.7251 30.3671 70.9019 30.3671 71.11V98.4663Z" fill="#CCCCCC"/>
<path d="M108.818 68.5823H29.0751V71.1931H108.818V68.5823Z" fill="#302530"/>
<path d="M111.09 67.4485H26.6368V69.1856H111.09V67.4485Z" fill="#60485E"/>
<path d="M111.09 67.4485H87.895V69.1856H111.09V67.4485Z" fill="#423241"/>
<path d="M35.7646 63.0487C35.7125 63.0383 35.6604 63.0383 35.6083 63.0279C35.6917 63.0279 35.7438 63.0383 35.7646 63.0487Z" fill="#603043"/>
<path d="M35.848 78.2455C34.0662 78.5055 36.4211 79.3273 34.8789 79.889L42.7459 81.0956C46.768 80.8563 58.2714 81.5636 60.1262 81.0956C60.7826 80.9291 64.2108 81.0123 64.4921 80.6171C62.356 77.1533 38.5259 77.8606 35.848 78.2455Z" fill="#00788C"/>
<path d="M76.3185 59.4081H72.5778V67.199H76.3185V59.4081Z" fill="#3D3D3D"/>
<path d="M74.3075 59.4081H72.5778V67.199H74.3075V59.4081Z" fill="#757573"/>
<path d="M82.9873 66.9181C82.9873 67.1886 82.7685 67.407 82.4975 67.407H66.3989C66.128 67.407 65.9092 67.1886 65.9092 66.9181C65.9092 66.7829 65.9613 66.6581 66.0551 66.5749C66.1384 66.4917 66.2635 66.4293 66.3989 66.4293H82.4975C82.7685 66.4397 82.9873 66.6581 82.9873 66.9181Z" fill="#999995"/>
<path d="M82.9873 66.9181C82.9873 67.1886 82.831 67.407 82.6434 67.407H76.8291C76.6416 67.407 76.4853 67.1886 76.4853 66.9181C76.4853 66.7829 76.527 66.6581 76.5895 66.5749C76.652 66.4917 76.7354 66.4293 76.8291 66.4293H82.6434C82.831 66.4397 82.9873 66.6581 82.9873 66.9181Z" fill="#3D3D3D"/>
<path d="M88.2909 45.7924V60.5523C88.2909 61.4052 87.7178 62.1126 86.9676 62.2582C86.8738 62.279 86.7696 62.2894 86.6654 62.2894H60.6471C60.5429 62.2894 60.4491 62.279 60.3449 62.2582C59.5843 62.1126 59.0216 61.4052 59.0216 60.5523V45.7924C59.0216 44.8354 59.751 44.0553 60.6471 44.0553H86.6654C87.5615 44.0657 88.2909 44.8354 88.2909 45.7924Z" fill="#3D3D3D"/>
<path d="M86.3529 46.4165V59.9491C86.3529 60.8332 85.6964 61.5405 84.8837 61.5405H61.3453C60.5325 61.5405 59.8761 60.8228 59.8761 59.9491V46.4165C59.8761 45.5324 60.5325 44.8251 61.3453 44.8251H84.8732C85.6964 44.8251 86.3529 45.5324 86.3529 46.4165Z" fill="#544753"/>
<path d="M86.4258 58.4096V60.6044C86.4258 61.4781 85.884 62.1958 85.1754 62.3518H60.1887C59.4801 62.1958 58.9383 61.4781 58.9383 60.6044V58.4096H86.4258Z" fill="#CCCCCC"/>
<path d="M72.2549 60.4379C72.7037 60.4379 73.0676 60.1631 73.0676 59.8242C73.0676 59.4853 72.7037 59.2105 72.2549 59.2105C71.806 59.2105 71.4421 59.4853 71.4421 59.8242C71.4421 60.1631 71.806 60.4379 72.2549 60.4379Z" fill="#757573"/>
<path d="M62.2622 45.6779H60.9181V45.8235H62.2622V45.6779Z" fill="#CACEA5"/>
<path d="M69.9625 45.6779H68.139V45.8235H69.9625V45.6779Z" fill="#CACEA5"/>
<path d="M76.3082 45.6779H70.348V45.8235H76.3082V45.6779Z" fill="#CACEA5"/>
<path d="M80.4032 45.8131V45.6779H76.6937V45.8131H78.0379V45.7195H78.4755V45.8131H80.4032Z" fill="#CACEA5"/>
<path d="M82.9977 45.6779H81.5077V45.8235H82.9977V45.6779Z" fill="#CACEA5"/>
<path d="M62.2622 46.3437H60.9181V46.4893H62.2622V46.3437Z" fill="#CACEA5"/>
<path d="M76.3186 46.3437H74.7765V46.4893H76.3186V46.3437Z" fill="#CACEA5"/>
<path d="M78.0379 46.3437H76.6937V46.4893H78.0379V46.3437Z" fill="#CACEA5"/>
<path d="M82.9977 46.3437H81.5077V46.4893H82.9977V46.3437Z" fill="#CACEA5"/>
<path d="M80.4031 46.3437H78.4755V46.4893H80.4031V46.3437Z" fill="#CACEA5"/>
<path d="M69.9625 46.3437H68.139V46.4893H69.9625V46.3437Z" fill="#CACEA5"/>
<path d="M74.0471 46.3437H70.348V46.4893H74.0471V46.3437Z" fill="#CACEA5"/>
<path d="M62.2622 47.0197H60.9181V47.1653H62.2622V47.0197Z" fill="#CACEA5"/>
<path d="M74.047 47.0197H69.0455V47.1653H74.047V47.0197Z" fill="#CACEA5"/>
<path d="M75.0682 47.0197H74.7765V47.1653H75.0682V47.0197Z" fill="#CACEA5"/>
<path d="M78.0378 47.0197H76.1623V47.1653H78.0378V47.0197Z" fill="#CACEA5"/>
<path d="M80.4031 47.0197H78.4755V47.1653H80.4031V47.0197Z" fill="#CACEA5"/>
<path d="M82.9977 47.0197H81.5077V47.1653H82.9977V47.0197Z" fill="#CACEA5"/>
<path d="M62.2622 47.6855H60.9181V47.8311H62.2622V47.6855Z" fill="#CACEA5"/>
<path d="M74.047 47.6855H69.0455V47.8311H74.047V47.6855Z" fill="#CACEA5"/>
<path d="M75.0682 47.6855H74.7765V47.8311H75.0682V47.6855Z" fill="#CACEA5"/>
<path d="M80.3927 47.6855H76.1623V47.8311H80.3927V47.6855Z" fill="#CACEA5"/>
<path d="M82.9977 47.6855H82.2266V47.8311H82.9977V47.6855Z" fill="#CACEA5"/>
<path d="M82.0391 47.6855H81.5077V47.8311H82.0391V47.6855Z" fill="#CACEA5"/>
<path d="M64.8151 48.3616H60.9181V48.5072H64.8151V48.3616Z" fill="#CACEA5"/>
<path d="M70.2438 48.3616H69.0455V48.5072H70.2438V48.3616Z" fill="#CACEA5"/>
<path d="M82.0286 48.3616H76.1623V48.5072H82.0286V48.3616Z" fill="#CACEA5"/>
<path d="M82.9977 48.3616H82.2266V48.5072H82.9977V48.3616Z" fill="#CACEA5"/>
<path d="M73.3802 48.3616H71.8901V48.5072H73.3802V48.3616Z" fill="#CACEA5"/>
<path d="M67.941 49.1313H64.8151V49.0377H60.9181V49.1833H67.941V49.1313Z" fill="#CACEA5"/>
<path d="M73.3802 49.0377H71.8901V49.1833H73.3802V49.0377Z" fill="#CACEA5"/>
<path d="M76.1623 49.0377V49.1313H75.683V49.1833H78.8089V49.0377H76.1623Z" fill="#CACEA5"/>
<path d="M82.0287 49.0377H78.9548V49.1833H82.0287V49.0377Z" fill="#CACEA5"/>
<path d="M82.9977 49.0377H82.2266V49.1833H82.9977V49.0377Z" fill="#CACEA5"/>
<path d="M70.2438 49.0377H69.0455V49.1833H70.2438V49.0377Z" fill="#CACEA5"/>
<path d="M60.9181 49.7034V49.849H61.116V49.797H61.5432V49.849H70.2542V49.7034H60.9181Z" fill="#E0E8BF"/>
<path d="M73.3802 49.7034H71.8901V49.849H73.3802V49.7034Z" fill="#E0E8BF"/>
<path d="M78.8089 49.7034H75.683V49.849H78.8089V49.7034Z" fill="#E0E8BF"/>
<path d="M82.0287 49.7034H78.9548V49.849H82.0287V49.7034Z" fill="#E0E8BF"/>
<path d="M82.9977 49.7034H82.2266V49.849H82.9977V49.7034Z" fill="#E0E8BF"/>
<path d="M61.1056 50.3795H60.9181V50.5251H61.1056V50.3795Z" fill="#E0E8BF"/>
<path d="M70.2438 50.3795H61.5433V50.5251H70.2438V50.3795Z" fill="#E0E8BF"/>
<path d="M73.3802 50.3795H71.8901V50.5251H73.3802V50.3795Z" fill="#E0E8BF"/>
<path d="M78.8089 50.3795H75.683V50.5251H78.8089V50.3795Z" fill="#E0E8BF"/>
<path d="M82.0287 50.3795H78.9548V50.5251H82.0287V50.3795Z" fill="#E0E8BF"/>
<path d="M82.9977 50.3795H82.2266V50.5251H82.9977V50.3795Z" fill="#E0E8BF"/>
<path d="M70.2438 51.0452H61.5433V51.1908H70.2438V51.0452Z" fill="#E0E8BF"/>
<path d="M73.1405 51.0452H71.8901V51.1908H73.1405V51.0452Z" fill="#E0E8BF"/>
<path d="M78.2775 51.0452H75.683V51.1908H78.2775V51.0452Z" fill="#E0E8BF"/>
<path d="M82.9977 51.0452H80.7366V51.1908H82.9977V51.0452Z" fill="#E0E8BF"/>
<path d="M79.8717 51.0452H79.3924V51.1908H79.8717V51.0452Z" fill="#E0E8BF"/>
<path d="M78.2775 51.7213H75.683V51.8669H78.2775V51.7213Z" fill="#E0E8BF"/>
<path d="M79.8717 51.7213H79.3924V51.8669H79.8717V51.7213Z" fill="#E0E8BF"/>
<path d="M81.3097 51.7213H80.7366V51.8669H81.3097V51.7213Z" fill="#E0E8BF"/>
<path d="M82.9873 51.7213H81.5493V51.8669H82.9873V51.7213Z" fill="#E0E8BF"/>
<path d="M73.1405 51.7213H71.8901V51.8669H73.1405V51.7213Z" fill="#E0E8BF"/>
<path d="M62.9812 51.7213H61.5433V51.8669H62.9812V51.7213Z" fill="#E0E8BF"/>
<path d="M70.2542 51.7213H63.0437V51.8669H70.2542V51.7213Z" fill="#E0E8BF"/>
<path d="M73.1405 52.3975H71.8901V52.5431H73.1405V52.3975Z" fill="#E0E8BF"/>
<path d="M78.2775 52.3975H75.683V52.5431H78.2775V52.3975Z" fill="#E0E8BF"/>
<path d="M79.8717 52.3975H79.3924V52.5431H79.8717V52.3975Z" fill="#E0E8BF"/>
<path d="M81.3097 52.3975H80.7366V52.5431H81.3097V52.3975Z" fill="#E0E8BF"/>
<path d="M82.9873 52.3975H81.5493V52.5431H82.9873V52.3975Z" fill="#E0E8BF"/>
<path d="M70.2542 52.3975H63.0437V52.5431H70.2542V52.3975Z" fill="#E0E8BF"/>
<path d="M62.9812 52.3975H61.5433V52.5431H62.9812V52.3975Z" fill="#E0E8BF"/>
<path d="M61.5432 53.0631V53.1671H61.116V53.0631H61.0639V53.2087H62.9916V53.0631H61.5432Z" fill="#E0E8BF"/>
<path d="M73.1405 53.0631H63.0437V53.2087H73.1405V53.0631Z" fill="#E0E8BF"/>
<path d="M77.1209 53.0631H75.683V53.2087H77.1209V53.0631Z" fill="#E0E8BF"/>
<path d="M81.3201 53.0631H77.2772V53.2087H81.3201V53.0631Z" fill="#E0E8BF"/>
<path d="M82.9873 53.0631H81.5493V53.2087H82.9873V53.0631Z" fill="#E0E8BF"/>
<path d="M73.1301 53.7391H66.0655V53.8848H73.1301V53.7391Z" fill="#E0E8BF"/>
<path d="M62.9916 53.7391H61.0639V53.8848H62.9916V53.7391Z" fill="#E0E8BF"/>
<path d="M65.4507 53.7391H63.0437V53.8848H65.4507V53.7391Z" fill="#E0E8BF"/>
<path d="M81.3201 53.7391H77.2772V53.8848H81.3201V53.7391Z" fill="#E0E8BF"/>
<path d="M77.1313 53.7391H74.3909V53.8848H77.1313V53.7391Z" fill="#E0E8BF"/>
<path d="M82.9873 53.7391H81.5493V53.8848H82.9873V53.7391Z" fill="#E0E8BF"/>
<path d="M61.9809 54.4153H61.0639V54.561H61.9809V54.4153Z" fill="#E0E8BF"/>
<path d="M62.9916 54.4153H62.2205V54.561H62.9916V54.4153Z" fill="#E0E8BF"/>
<path d="M65.4507 54.4153H63.0437V54.561H65.4507V54.4153Z" fill="#E0E8BF"/>
<path d="M73.1301 54.4153H66.0655V54.561H73.1301V54.4153Z" fill="#E0E8BF"/>
<path d="M77.1313 54.4153H74.3909V54.561H77.1313V54.4153Z" fill="#E0E8BF"/>
<path d="M81.3201 54.4153H77.2772V54.561H81.3201V54.4153Z" fill="#E0E8BF"/>
<path d="M82.9873 54.4153H81.5493V54.561H82.9873V54.4153Z" fill="#E0E8BF"/>
<path d="M75.6413 55.0811H68.0869V55.2267H75.6413V55.0811Z" fill="#E0E8BF"/>
<path d="M61.9809 55.0811H61.0639V55.2267H61.9809V55.0811Z" fill="#E0E8BF"/>
<path d="M63.2833 55.0811H62.2205V55.2267H63.2833V55.0811Z" fill="#E0E8BF"/>
<path d="M65.4507 55.0811H63.7627V55.2267H65.4507V55.0811Z" fill="#E0E8BF"/>
<path d="M67.7535 55.0811H66.0655V55.2267H67.7535V55.0811Z" fill="#E0E8BF"/>
<path d="M77.1209 55.0811H75.9226V55.2267H77.1209V55.0811Z" fill="#E0E8BF"/>
<path d="M82.9977 55.0811H77.2772V55.2267H82.9977V55.0811Z" fill="#E0E8BF"/>
<path d="M77.1209 55.7571H75.9226V55.9028H77.1209V55.7571Z" fill="#E0E8BF"/>
<path d="M61.9809 55.7571H60.9181V55.9028H61.9809V55.7571Z" fill="#E0E8BF"/>
<path d="M65.4507 55.7571H63.7627V55.9028H65.4507V55.7571Z" fill="#E0E8BF"/>
<path d="M63.2833 55.7571H62.2205V55.9028H63.2833V55.7571Z" fill="#E0E8BF"/>
<path d="M67.7535 55.7571H66.0655V55.9028H67.7535V55.7571Z" fill="#E0E8BF"/>
<path d="M75.6413 55.7571H68.0869V55.9028H75.6413V55.7571Z" fill="#E0E8BF"/>
<path d="M82.9977 55.7571H77.2772V55.9028H82.9977V55.7571Z" fill="#E0E8BF"/>
<path d="M61.9809 56.4229H60.9181V56.5685H61.9809V56.4229Z" fill="#E0E8BF"/>
<path d="M65.2006 56.4229H63.7627V56.5685H65.2006V56.4229Z" fill="#E0E8BF"/>
<path d="M67.7535 56.4229H66.1176V56.5685H67.7535V56.4229Z" fill="#E0E8BF"/>
<path d="M63.2833 56.4229H62.2205V56.5685H63.2833V56.4229Z" fill="#E0E8BF"/>
<path d="M70.15 56.4229H68.0869V56.5685H70.15V56.4229Z" fill="#E0E8BF"/>
<path d="M72.3694 56.4229H70.4418V56.5685H72.3694V56.4229Z" fill="#E0E8BF"/>
<path d="M75.6309 56.4229H72.7967V56.5685H75.6309V56.4229Z" fill="#E0E8BF"/>
<path d="M82.9873 56.4229H75.9226V56.5685H82.9873V56.4229Z" fill="#E0E8BF"/>
<path d="M63.2729 57.0989H60.9181V57.2446H63.2729V57.0989Z" fill="#E0E8BF"/>
<path d="M65.2006 57.0989H63.7627V57.2446H65.2006V57.0989Z" fill="#E0E8BF"/>
<path d="M70.1604 57.0989H66.1176V57.2446H70.1604V57.0989Z" fill="#E0E8BF"/>
<path d="M72.3694 57.0989H70.4418V57.2446H72.3694V57.0989Z" fill="#E0E8BF"/>
<path d="M75.6309 57.0989H72.7967V57.2446H75.6309V57.0989Z" fill="#E0E8BF"/>
<path d="M82.9873 57.0989H75.9226V57.2446H82.9873V57.0989Z" fill="#E0E8BF"/>
<path d="M74.5784 46.7078H61.7516V56.3501H74.5784V46.7078Z" fill="#353535"/>
<path d="M74.5784 46.7078H61.7516V47.4255H74.5784V46.7078Z" fill="#707070"/>
<path d="M73.6511 47.311C73.7892 47.311 73.9012 47.1993 73.9012 47.0614C73.9012 46.9235 73.7892 46.8118 73.6511 46.8118C73.513 46.8118 73.401 46.9235 73.401 47.0614C73.401 47.1993 73.513 47.311 73.6511 47.311Z" fill="#FF5821"/>
<path d="M72.4424 47.311C72.5805 47.311 72.6925 47.1993 72.6925 47.0614C72.6925 46.9235 72.5805 46.8118 72.4424 46.8118C72.3043 46.8118 72.1923 46.9235 72.1923 47.0614C72.1923 47.1993 72.3043 47.311 72.4424 47.311Z" fill="#889F33"/>
<path d="M71.3066 47.311C71.4447 47.311 71.5567 47.1993 71.5567 47.0614C71.5567 46.9235 71.4447 46.8118 71.3066 46.8118C71.1685 46.8118 71.0565 46.9235 71.0565 47.0614C71.0565 47.1993 71.1685 47.311 71.3066 47.311Z" fill="white"/>
<path d="M63.1271 48.372H62.6269V48.5176H63.1271V48.372Z" fill="#889F33"/>
<path d="M71.8589 48.372H64.8151V48.5176H71.8589V48.372Z" fill="#889F33"/>
<path d="M63.1271 48.9441H62.6269V49.0897H63.1271V48.9441Z" fill="#889F33"/>
<path d="M64.8151 48.9441V49.0897H70.1709V48.9857H71.3171V49.0897H71.39V48.9441H64.8151Z" fill="#889F33"/>
<path d="M63.1271 49.5162H62.6269V49.6618H63.1271V49.5162Z" fill="#889F33"/>
<path d="M69.5249 49.5162H64.8151V49.6618H69.5249V49.5162Z" fill="#889F33"/>
<path d="M71.39 49.589V49.5162H71.317V49.6618H71.8589V49.589H71.39Z" fill="#889F33"/>
<path d="M64.8151 50.0986V50.161H63.1271V50.0986H62.6269V50.2339H66.6802V50.0986H64.8151Z" fill="#889F33"/>
<path d="M69.5144 50.0986H68.6183V50.2443H69.5144V50.0986Z" fill="#889F33"/>
<path d="M71.9005 50.0986H71.2128V50.2443H71.9005V50.0986Z" fill="#889F33"/>
<path d="M64.8151 50.6708H62.6269V50.8164H64.8151V50.6708Z" fill="#889F33"/>
<path d="M72.1715 50.6708H68.6183V50.8164H72.1715V50.6708Z" fill="#889F33"/>
<path d="M64.8151 51.2429H62.6269V51.3885H64.8151V51.2429Z" fill="#889F33"/>
<path d="M72.1819 51.2429H68.6183V51.3469H66.6802V51.2429H66.5343V51.3885H68.1598H69.3789H69.5561V51.2741H70.3063V51.3885H70.7439V51.3157H72.1819V51.2429Z" fill="#889F33"/>
<path d="M68.1598 51.8149H66.5344V51.8461H64.8151V51.8149H62.6269V51.9606H68.1598V51.8149Z" fill="#889F33"/>
<path d="M69.5561 51.8149H69.379V51.9606H69.5561V51.8149Z" fill="#889F33"/>
<path d="M70.7335 51.8149H70.3063V51.9606H70.7335V51.8149Z" fill="#889F33"/>
<path d="M64.9193 53.7497H62.7311V53.8953H64.9193V53.7497Z" fill="#FF5821"/>
<path d="M67.2534 53.7497H66.8261V53.8953H67.2534V53.7497Z" fill="#FF5821"/>
<path d="M70.2751 53.7497H68.3682V53.8953H70.2751V53.7497Z" fill="#FF5821"/>
<path d="M64.9297 54.4362H62.6999V54.5818H64.9297V54.4362Z" fill="#FF5821"/>
<path d="M67.2534 54.4362H66.8261V54.5818H67.2534V54.4362Z" fill="#FF5821"/>
<path d="M68.6183 54.4362H68.3682V54.5818H68.6183V54.4362Z" fill="#FF5821"/>
<path d="M70.2751 54.4362H69.5874V54.5818H70.2751V54.4362Z" fill="#FF5821"/>
<path d="M64.9193 55.1122H62.6582V55.2579H64.9193V55.1122Z" fill="#FF5821"/>
<path d="M70.098 55.1122H66.8261V55.2579H70.098V55.1122Z" fill="#FF5821"/>
<path d="M84.9983 50.4523H75.5371V57.5671H84.9983V50.4523Z" fill="#353535"/>
<path d="M85.0087 50.4523H75.5371V50.9828H85.0087V50.4523Z" fill="#707070"/>
<path d="M84.321 50.8996C84.4246 50.8996 84.5086 50.8158 84.5086 50.7124C84.5086 50.609 84.4246 50.5251 84.321 50.5251C84.2174 50.5251 84.1335 50.609 84.1335 50.7124C84.1335 50.8158 84.2174 50.8996 84.321 50.8996Z" fill="#FF5821"/>
<path d="M83.4249 50.8996C83.5285 50.8996 83.6125 50.8158 83.6125 50.7124C83.6125 50.609 83.5285 50.5251 83.4249 50.5251C83.3213 50.5251 83.2373 50.609 83.2373 50.7124C83.2373 50.8158 83.3213 50.8996 83.4249 50.8996Z" fill="#889F33"/>
<path d="M82.5913 50.8996C82.6949 50.8996 82.7788 50.8158 82.7788 50.7124C82.7788 50.609 82.6949 50.5251 82.5913 50.5251C82.4877 50.5251 82.4037 50.609 82.4037 50.7124C82.4037 50.8158 82.4877 50.8996 82.5913 50.8996Z" fill="white"/>
<path d="M77.4439 51.9085H76.1206V51.9605H77.4439V51.9085Z" fill="white"/>
<path d="M80.2156 51.9085H78.4859V51.9605H80.2156V51.9085Z" fill="white"/>
<path d="M78.3296 51.9085H77.6211V51.9605H78.3296V51.9085Z" fill="white"/>
<path d="M80.8616 51.9085H80.4552V51.9605H80.8616V51.9085Z" fill="white"/>
<path d="M83.081 51.9085H80.945V51.9605H83.081V51.9085Z" fill="white"/>
<path d="M83.5708 51.9085H83.1436V51.9605H83.5708V51.9085Z" fill="white"/>
<path d="M84.3419 51.9085H83.6333V51.9605H84.3419V51.9085Z" fill="white"/>
<path d="M77.4439 52.0333H76.1206V52.1061H77.4439V52.0333Z" fill="white"/>
<path d="M78.3296 52.0333H77.6211V52.1061H78.3296V52.0333Z" fill="white"/>
<path d="M80.2156 52.0333H78.4859V52.1061H80.2156V52.0333Z" fill="white"/>
<path d="M80.8616 52.0333H80.4552V52.1061H80.8616V52.0333Z" fill="white"/>
<path d="M80.945 52.0333V52.1165H82.1849V52.0645H82.2579V52.1165H83.0706V52.0333H80.945Z" fill="white"/>
<path d="M83.5708 52.0333H83.1436V52.1061H83.5708V52.0333Z" fill="white"/>
<path d="M84.3419 52.0333H83.6333V52.1061H84.3419V52.0333Z" fill="white"/>
<path d="M78.3505 52.699H76.1206V52.751H78.3505V52.699Z" fill="white"/>
<path d="M79.2882 52.699H78.4025V52.751H79.2882V52.699Z" fill="white"/>
<path d="M80.2052 52.699H79.4966V52.751H80.2052V52.699Z" fill="white"/>
<path d="M82.1849 52.699H80.4552V52.751H82.1849V52.699Z" fill="white"/>
<path d="M84.3419 52.699H83.1957V52.751H84.3419V52.699Z" fill="white"/>
<path d="M83.0706 52.699H82.2579V52.751H83.0706V52.699Z" fill="white"/>
<path d="M79.2882 52.8239H78.4025V53.0215H79.2882V52.8239Z" fill="white"/>
<path d="M78.3505 52.8239H76.1206V53.0215H78.3505V52.8239Z" fill="white"/>
<path d="M80.2052 52.8239H79.4966V53.0215H80.2052V52.8239Z" fill="white"/>
<path d="M83.0706 52.8239H82.2579V53.0007H82.1849V52.8239H80.4552V53.0215H83.0706V52.8239Z" fill="white"/>
<path d="M83.1957 52.8239V53.0215H83.602V52.8967H83.9355V53.0215H84.3419V52.8239H83.1957Z" fill="white"/>
<path d="M77.3397 53.7913H76.1519V54.0305H76.8604V53.8121H77.3397V53.7913Z" fill="white"/>
<path d="M82.2058 53.7913H81.8515V53.8017H82.2058V53.7913Z" fill="white"/>
<path d="M83.2269 53.7913V53.8121H83.6854V54.0305H84.3627V53.7913H83.2269Z" fill="white"/>
<path d="M83.1019 53.7913H82.5913V53.8017H83.1019V53.7913Z" fill="white"/>
<path d="M79.3195 55.2266H78.4338V55.3202H79.3195V55.2266Z" fill="white"/>
<path d="M79.3195 54.7482H78.5588V54.9043H79.3195V54.7482Z" fill="white"/>
<path d="M76.1519 54.7482V54.8939H77.0063V54.769H77.0375V54.8939H77.2147V54.7482H76.1519Z" fill="white"/>
<path d="M78.2046 54.7482H77.2355V54.9043H78.2046V54.7482Z" fill="white"/>
<path d="M78.3817 55.2266H77.2355V55.3202H78.3817V55.2266Z" fill="white"/>
<path d="M77.0167 55.2266H76.1519V55.3202H77.0167V55.2266Z" fill="white"/>
<path d="M77.2147 55.2266H77.0375V55.3202H77.2147V55.2266Z" fill="white"/>
<path d="M80.101 54.7482H79.5175V54.9043H80.101V54.7482Z" fill="white"/>
<path d="M80.101 55.2266H79.5175V55.3202H80.101V55.2266Z" fill="white"/>
<path d="M83.1019 54.7482H82.5913V54.9043H83.1019V54.7482Z" fill="white"/>
<path d="M82.2162 54.7482H80.4865V54.9043H82.2162V54.7482Z" fill="white"/>
<path d="M82.1224 56.1525H80.3927V56.3085H82.1224V56.1525Z" fill="white"/>
<path d="M84.1959 56.1525H82.4662V56.3085H84.1959V56.1525Z" fill="white"/>
<path d="M82.237 55.2266H80.4865V55.3202H82.237V55.2266Z" fill="white"/>
<path d="M83.1019 55.2266H82.5913V55.3202H83.1019V55.2266Z" fill="white"/>
<path d="M83.6333 54.7482H83.2269V54.9043H83.6333V54.7482Z" fill="white"/>
<path d="M84.3627 54.7482H83.9563V54.9043H84.3627V54.7482Z" fill="white"/>
<path d="M83.6333 55.2266H83.2269V55.3202H83.6333V55.2266Z" fill="white"/>
<path d="M84.3627 55.2266H83.9563V55.3202H84.3627V55.2266Z" fill="white"/>
<path d="M79.2986 55.6219V55.6427H79.7571V55.8612H80.4448V55.6219H79.2986Z" fill="white"/>
<path d="M79.1736 56.5789H78.6631V56.7349H79.1736V56.5789Z" fill="white"/>
<path d="M78.2879 56.5789H76.5582V56.7349H78.2879V56.5789Z" fill="white"/>
<path d="M78.3088 57.0574H76.5582V57.151H78.3088V57.0574Z" fill="white"/>
<path d="M79.1736 57.0574H78.6631V57.151H79.1736V57.0574Z" fill="white"/>
<path d="M79.705 56.5789H79.2986V56.7349H79.705V56.5789Z" fill="white"/>
<path d="M80.4448 56.5789H80.0385V56.7349H80.4448V56.5789Z" fill="white"/>
<path d="M79.705 57.0574H79.2986V57.151H79.705V57.0574Z" fill="white"/>
<path d="M80.4448 57.0574H80.0385V57.151H80.4448V57.0574Z" fill="white"/>
<path d="M77.4439 51.5341H76.1206V51.7109H77.4439V51.5341Z" fill="white"/>
<path d="M78.3296 51.5341H77.6211V51.7109H78.3296V51.5341Z" fill="white"/>
<path d="M80.2156 51.5341H78.4859V51.7109H80.2156V51.5341Z" fill="white"/>
<path d="M83.0706 51.7109V51.5341H80.4552V51.7109H80.8616V51.5757H80.945V51.7109H83.0706Z" fill="white"/>
<path d="M83.1436 51.5341V51.7109H83.5812V51.6589H83.6333V51.7109H84.3418V51.5341H83.1436Z" fill="white"/>
<path d="M69.4723 66.7377L69.4756 67.3202L76.6341 67.2789L76.6307 66.6964L69.4723 66.7377Z" fill="#9C9E8F"/>
<path d="M55.6039 66.8244L55.1663 67.4069L71.3066 67.3133V66.7308L55.6039 66.8244Z" fill="#C9CCBC"/>
<path d="M57.2503 66.3252L55.604 66.8245L76.6312 66.6996L76.1831 66.2108L57.2503 66.3252Z" fill="#3D3D3D"/>
<path d="M85.6652 67.407H80.3927C80.9137 66.6269 81.7681 65.8676 83.3832 65.9612C83.5812 65.9716 83.7688 66.0028 83.9459 66.0444C84.842 66.2629 85.4568 66.835 85.6652 67.407Z" fill="#728425"/>
<path d="M85.6652 67.407H82.0807C82.4663 66.8245 83.0394 66.2628 83.9563 66.0444C84.842 66.2628 85.4568 66.8349 85.6652 67.407Z" fill="#889F33"/>
<path d="M95.0847 66.3045C95.1264 66.9182 94.6575 67.4279 94.0427 67.4279H90.5312C89.9165 67.4279 89.4788 66.9286 89.5518 66.3045L90.4374 59.221C90.5104 58.6073 90.9168 58.0976 91.344 58.0976H93.751C94.1782 58.0976 94.5533 58.5969 94.595 59.221L95.0847 66.3045Z" fill="#3D3D3D"/>
<path d="M94.1365 66.1068C94.1678 66.5852 93.7926 66.9805 93.3029 66.9805H90.5C90.0102 66.9805 89.656 66.5852 89.7185 66.1068L90.427 60.5731C90.4896 60.0946 90.8126 59.6993 91.1564 59.6993H93.0737C93.4071 59.6993 93.7093 60.0946 93.751 60.5731L94.1365 66.1068Z" fill="#707070"/>
<path d="M92.0004 66.502C90.9793 66.502 90.1561 65.6699 90.1561 64.6609C90.1561 63.6416 90.9897 62.8198 92.0004 62.8198C93.0111 62.8198 93.8447 63.652 93.8447 64.6609C93.8447 65.6699 93.0111 66.502 92.0004 66.502ZM92.0004 62.9446C91.0522 62.9446 90.2916 63.7144 90.2916 64.6505C90.2916 65.5971 91.0626 66.3564 92.0004 66.3564C92.9486 66.3564 93.7093 65.5867 93.7093 64.6505C93.7093 63.7144 92.9382 62.9446 92.0004 62.9446Z" fill="#3D3D3D"/>
<path d="M92.0004 63.236C91.2189 63.236 90.5833 63.8705 90.5833 64.6506C90.5833 65.4307 91.2189 66.0652 92.0004 66.0652C92.7819 66.0652 93.4175 65.4307 93.4175 64.6506C93.4175 63.8809 92.7819 63.236 92.0004 63.236Z" fill="#3D3D3D"/>
<path d="M92.0004 62.3726C91.4273 62.3726 90.9584 61.9046 90.9584 61.3325C90.9584 60.7604 91.4273 60.2923 92.0004 60.2923C92.5735 60.2923 93.0424 60.7604 93.0424 61.3325C93.0424 61.9046 92.5735 62.3726 92.0004 62.3726ZM92.0004 60.3651C91.469 60.3651 91.0314 60.802 91.0314 61.3325C91.0314 61.8629 91.469 62.2998 92.0004 62.2998C92.5318 62.2998 92.9695 61.8629 92.9695 61.3325C92.9695 60.802 92.5318 60.3651 92.0004 60.3651Z" fill="#3D3D3D"/>
<path d="M92.0004 60.5316C91.5628 60.5316 91.1981 60.8956 91.1981 61.3325C91.1981 61.7694 91.5628 62.1334 92.0004 62.1334C92.4381 62.1334 92.8027 61.7694 92.8027 61.3325C92.8027 60.8956 92.4381 60.5316 92.0004 60.5316Z" fill="#3D3D3D"/>
<path d="M56.6772 101.691C55.8019 101.202 55.0621 99.7769 54.7182 98.9031C54.1555 97.4885 54.3327 99.9537 53.2386 99.6833C52.7906 99.5688 52.4988 100.235 52.3946 100.619C52.1445 101.535 52.3321 103.053 52.4988 103.646C53.8013 103.813 54.4681 103.802 55.781 103.823C56.5313 103.834 58.1672 103.844 58.6257 103.157C58.2505 102.2 57.4378 102.128 56.6772 101.691Z" fill="#212030"/>
<path d="M52.7697 94.6176C52.7489 95.6994 52.5717 96.7291 52.6759 97.8421C52.7593 98.7887 52.5196 100.266 53.2699 100.963C54.7703 100.224 54.7495 96.8332 55.1663 95.3769L52.7697 94.6176Z" fill="#FFA471"/>
<path d="M51.8319 97.967L54.8328 98.1542C54.9266 97.7693 55.01 97.3949 55.1038 97.01C56.3437 91.6115 58.2714 85.7138 58.6257 80.0345L53.3011 78.8591C52.3529 78.9735 51.8007 82.2813 51.6444 83.4255C51.2797 85.9739 51.6027 88.5743 51.7069 91.1227C51.7903 93.2966 51.9257 95.6578 51.8319 97.967Z" fill="#212030"/>
<path d="M69.6916 101.691C68.8163 101.202 68.0765 99.7768 67.7326 98.9031C67.17 97.4885 67.3471 99.9536 66.253 99.6832C65.805 99.5688 65.5132 100.234 65.409 100.619C65.1589 101.535 65.3465 103.053 65.5132 103.646C66.8157 103.813 67.4825 103.802 68.7954 103.823C69.5457 103.833 71.1816 103.844 71.6401 103.157C71.2754 102.2 70.4626 102.128 69.6916 101.691Z" fill="#212030"/>
<path d="M65.7841 94.6176C65.7633 95.6993 65.5861 96.7291 65.6903 97.8421C65.7737 98.7886 65.534 100.266 66.2843 100.963C67.7847 100.224 67.7639 96.8331 68.1807 95.3769L65.7841 94.6176Z" fill="#FFA471"/>
<path d="M71.6505 80.0241C71.6505 80.0345 71.6505 80.0345 71.6505 80.0449C71.4004 83.9663 70.4001 87.9917 69.4102 91.882C68.9621 93.619 68.5141 95.3353 68.1286 96.9996C68.0452 97.3844 67.9514 97.7693 67.8576 98.1437L64.8567 97.9565C64.9505 95.6473 64.815 93.2966 64.7213 91.1122C64.6171 88.5638 64.2941 85.9634 64.6588 83.415C64.69 83.1654 64.7525 82.8117 64.815 82.4165C64.9922 81.4179 65.2839 80.1281 65.7007 79.4104C65.8779 79.0879 66.0863 78.8799 66.3155 78.8487L71.6505 80.0241Z" fill="#212030"/>
<path d="M71.6505 80.045C71.5775 80.2635 71.4525 80.4923 71.265 80.7212C70.5356 81.6261 69.1289 82.063 67.5763 82.2606C66.6802 82.375 65.7216 82.4166 64.8255 82.427C63.7627 82.4374 62.7624 82.4062 61.9913 82.4062C59.8136 82.4062 57.6671 82.4166 55.5206 82.2294C54.3536 82.1358 52.8844 82.2294 51.6236 82.063C51.2068 82.011 50.8213 81.9277 50.467 81.7925L51.0609 74.8234C55.1246 74.4698 57.1044 73.9497 61.0639 74.7818C62.4185 75.0627 72.6925 76.8725 71.6505 80.045Z" fill="#212030"/>
<path d="M69.3998 91.8821C68.9517 93.6191 68.5037 95.3354 68.1181 96.9997C68.0348 97.3845 67.941 97.7694 67.8472 98.1438L64.8463 97.9566C64.9401 95.6474 64.8046 93.2967 64.7109 91.1123C64.6067 88.5639 64.2837 85.9635 64.6483 83.4151C64.6796 83.1655 64.7421 82.8118 64.8046 82.4166C63.7418 82.427 62.7415 82.3958 61.9704 82.3958C59.7927 82.3958 57.6462 82.4062 55.4997 82.2189C54.3327 82.1253 52.8635 82.2189 51.6027 82.0525L51.957 78.7344C52.3634 79.3273 55.1663 79.2233 56.0416 79.2545C57.9692 79.3377 59.8761 79.2857 61.8037 79.3897C62.9603 79.4521 64.3358 79.4001 65.6903 79.4105C67.2012 79.4209 68.7017 79.5041 69.8791 79.8786C68.9205 80.0034 68.1494 80.3258 67.2846 80.7211C67.816 81.0331 68.7017 81.1892 69.2226 81.4388C68.5245 81.3556 67.9827 81.6884 67.5555 82.2501C66.4614 83.6752 66.1592 86.5772 66.0967 87.7422C66.0238 89.032 66.1384 90.8003 67.2846 91.6324C68.0348 92.1941 68.7121 92.1109 69.3998 91.8821Z" fill="#171721"/>
<path d="M53.8117 45.4699H53.2074C52.5613 45.4699 52.0299 44.9499 52.0299 44.3154V43.9617C52.0299 43.3272 52.5613 42.8071 53.2074 42.8071H53.8117C54.4578 42.8071 54.9892 43.3272 54.9892 43.9617V44.3154C54.9892 44.9603 54.4682 45.4699 53.8117 45.4699ZM53.2178 43.0152C52.6864 43.0152 52.2592 43.4416 52.2592 43.9721V44.3258C52.2592 44.8563 52.6864 45.2827 53.2178 45.2827H53.8221C54.3536 45.2827 54.7808 44.8563 54.7808 44.3258V43.9721C54.7808 43.4416 54.3536 43.0152 53.8221 43.0152H53.2178Z" fill="#636363"/>
<path d="M53.2699 44.8666C53.2386 45.137 53.1553 46.094 53.1657 46.6349C53.1865 47.3006 53.2699 47.9975 53.3949 48.6424C52.6551 48.9128 51.5402 47.9975 51.0609 47.5086C50.3315 46.7701 49.9251 45.8756 49.8105 44.8562L53.2699 44.8666Z" fill="#F2EDEE"/>
<path d="M52.7489 45.3971C52.3113 45.3867 52.0091 46.1045 51.9778 46.4581C51.9049 47.1342 52.5509 47.7583 52.4155 48.3928C51.9153 48.2056 51.3214 47.5503 50.9358 47.1758C50.5503 46.791 49.8418 46.042 49.8626 45.4596L52.7489 45.3971Z" fill="#F2F0EB"/>
<path d="M53.7597 46.2916C53.7284 47.4774 53.4887 48.6424 53.4992 48.8504C53.4992 48.8712 53.4992 48.892 53.4992 48.9129C53.4992 49.0065 53.4887 49.0897 53.4471 49.1729C53.4054 49.2561 53.3429 49.3289 53.2387 49.3809C52.8115 49.6098 52.2592 49.6202 51.7382 49.5265C51.6549 49.5057 51.5611 49.4849 51.4777 49.4641C51.4152 49.4537 51.3631 49.4329 51.3006 49.4121C51.1026 49.3497 50.9255 49.2665 50.7587 49.1833C50.5191 49.0585 50.3211 48.9024 50.1961 48.7464C50.144 48.684 50.1127 48.6216 50.0919 48.5592C50.0919 48.5904 50.0919 48.6216 50.0919 48.6528C50.0919 48.6736 50.0919 48.684 50.0919 48.7048C50.0919 48.7152 50.0919 48.7152 50.0919 48.7256C50.0919 48.7464 50.0919 48.7672 50.0919 48.788C50.0919 48.7984 50.0919 48.7984 50.0919 48.8088C50.0919 48.8296 50.0919 48.84 50.0919 48.8608C50.0919 48.8816 50.0919 48.9128 50.0919 48.9337C50.0919 48.9545 50.0919 48.9857 50.0919 49.0169C50.0919 49.0897 50.0815 49.1729 50.0815 49.2561C50.0815 49.3809 50.071 49.5161 50.071 49.6514C50.071 49.693 50.071 49.7346 50.071 49.7762C50.0606 50.0154 50.0606 50.2547 50.0502 50.4939C50.0502 50.5147 50.0502 50.5355 50.0502 50.5563C50.0502 50.7227 50.0398 50.8892 50.0398 51.0556C50.0398 51.274 50.0294 51.4613 50.0294 51.6381C50.0294 51.9709 50.0189 52.1894 50.0294 52.1894H50.0189C49.6855 52.283 49.1749 52.3142 48.581 52.3142C47.5078 52.3142 46.174 52.1686 45.2154 51.9085C44.8403 51.8045 44.5173 51.6901 44.2985 51.5549C44.2255 51.5029 44.163 51.4613 44.1109 51.4092C44.1005 51.3988 44.0901 51.3884 44.0901 51.378C44.2047 51.1804 44.2776 50.7435 44.3297 50.1923C44.3401 50.1298 44.3401 50.0674 44.3506 50.005C44.361 49.9114 44.3714 49.8074 44.3714 49.7138C44.3922 49.3809 44.4131 49.0169 44.4235 48.6528C44.4547 47.9351 44.4652 47.207 44.4652 46.6453C44.4652 46.3436 44.4756 46.094 44.4756 45.9068C44.4756 45.7612 44.4756 45.6467 44.4756 45.5427C44.4547 44.3153 44.3089 43.0983 44.2255 41.8709C44.0901 39.9882 51.8216 40.3835 51.8216 40.3835C52.4051 40.8308 52.6031 41.4861 52.7594 42.2142C52.7594 42.2246 52.7594 42.235 52.7698 42.2558C52.8219 42.4742 52.8636 42.7031 52.9157 42.9423C52.9261 42.9735 52.9261 42.9943 52.9365 43.0255C52.9469 43.0463 52.9469 43.0671 52.9573 43.0879C52.9573 43.0983 52.9573 43.1087 52.9677 43.1087C52.9886 43.1919 53.0094 43.2752 53.0303 43.3584C53.0407 43.3896 53.0511 43.4312 53.0615 43.4624C53.1032 43.608 53.1553 43.7536 53.2178 43.8993C53.2387 43.9201 53.2595 43.9513 53.2908 43.9721C53.3324 44.0241 53.3741 44.0761 53.4054 44.1281C53.5408 44.3569 53.6346 44.6482 53.6971 44.9706C53.7492 45.3763 53.7701 45.834 53.7597 46.2916Z" fill="#FFA471"/>
<path d="M53.4367 49.1729C53.395 49.2561 53.3325 49.3289 53.2283 49.3809C52.1759 49.9426 50.3211 49.2353 50.0919 48.5592C50.0502 49.4434 49.9668 52.8031 49.9981 52.9799C48.7373 53.3232 44.7257 52.1582 44.0588 51.3781C44.4443 50.6915 44.4339 47.0198 44.4548 45.8964L49.7793 44.6482C49.8627 44.7938 49.7689 45.1163 49.7585 45.3035C49.748 45.5427 49.7585 45.8028 49.7689 46.042C49.8001 46.4997 49.9252 46.9782 50.1231 47.3942C50.4878 48.1743 51.1964 49.0169 52.0821 49.2249C52.4572 49.3081 52.999 49.3185 53.4367 49.1729Z" fill="#E07F4F"/>
<path d="M54.2389 45.5844C54.2077 45.522 53.9784 45.4179 53.9055 45.3347C53.7596 45.1787 53.6867 44.9499 53.5929 44.7626C53.4574 44.5026 53.2699 43.9929 53.0823 43.8681L53.1657 46.3957C53.447 46.3125 54.6349 46.3125 54.2389 45.5844Z" fill="#FFA471"/>
<path d="M53.3949 44.1281C53.3845 44.1385 53.3741 44.1489 53.3532 44.1593C53.322 44.1801 53.2803 44.2009 53.2386 44.2009C53.1553 44.2113 53.0615 44.1697 52.999 44.0865C52.8948 43.9825 52.8323 43.816 52.8114 43.6184C52.801 43.5456 52.8114 43.4624 52.8218 43.4C52.8427 43.2647 52.8844 43.1503 52.9573 43.0775C52.9573 43.0879 52.9573 43.0983 52.9677 43.0983C52.9886 43.1815 53.0094 43.2647 53.0302 43.348C53.0407 43.3792 53.0511 43.4208 53.0615 43.452C53.1032 43.5976 53.1553 43.7432 53.2178 43.8888C53.2386 43.9096 53.2595 43.9409 53.2907 43.9617C53.322 44.0137 53.3532 44.0657 53.3949 44.1281Z" fill="#121C26"/>
<path d="M53.0198 43.348C52.9469 43.3584 52.8739 43.3792 52.8114 43.4C52.6343 43.452 52.4988 43.5352 52.4572 43.6392C52.4988 43.3584 52.676 43.1192 52.926 43.0151C52.9365 43.0359 52.9365 43.0567 52.9469 43.0775C52.9469 43.0879 52.9469 43.0984 52.9573 43.0984C52.9781 43.1816 52.999 43.2648 53.0198 43.348Z" fill="#121C26"/>
<path d="M53.197 42.3599C53.0198 42.1831 52.5509 42.131 52.2592 42.3287C51.9466 42.4951 51.5611 42.9424 51.6132 43.0776C51.6444 43.192 52.4363 43.036 52.6343 42.984C52.8219 42.9216 53.6659 42.8592 53.197 42.3599Z" fill="#49211C"/>
<path d="M44.1005 39.6762C44.7882 37.6583 46.8096 37.8872 49.1332 37.9704C51.6131 38.0536 53.4366 38.9897 53.4366 38.9897C53.4054 40.602 53.5512 40.706 52.9052 42.1726C52.4988 42.2246 51.2068 44.409 49.6334 43.2648C50.2065 44.253 50.2794 46.7598 49.7584 47.8727C49.2791 48.8921 48.9144 48.216 48.0912 48.8089C47.9349 48.5176 47.6953 48.2264 47.4661 48.0288C47.5598 48.6009 47.7474 49.2145 47.6536 49.8178C46.9763 50.1923 46.3511 50.2235 45.5592 50.2547C44.413 50.3067 44.2672 50.1923 43.9337 49.1625C43.4232 47.5815 43.5065 46.7494 42.7876 45.2411C42.2353 43.6705 41.1829 41.1637 44.1005 39.6762Z" fill="#49211C"/>
<path d="M49.3833 44.7106L54.8121 43.7745L54.885 44.0969L49.5917 45.0435L49.3833 44.7106Z" fill="#636363"/>
<path d="M48.581 44.6274C49.2791 43.8265 50.0919 44.8354 50.4149 45.2307C50.4149 45.2307 50.4045 46.6141 50.0294 46.9366C49.5709 47.3214 48.9144 46.9574 48.6227 46.5621C48.2476 46.042 48.06 45.2203 48.581 44.6274Z" fill="#FFA471"/>
<path d="M48.6122 45.0642C48.8311 44.461 49.4146 44.7522 49.6646 45.1579C48.7685 44.8146 48.6748 45.8548 48.8936 46.4373C48.6748 46.0316 48.4351 45.5531 48.6122 45.0642Z" fill="#E07F4F"/>
<path d="M56.9481 75.073C56.9377 75.0834 56.9169 75.0938 56.9064 75.0938C55.8436 75.6451 53.8326 76.2068 52.5822 76.4772C52.2696 76.5396 51.9987 76.5916 51.8007 76.6228C49.6647 76.9141 47.612 76.8829 45.528 76.4148C44.9757 74.4177 43.7149 72.5662 43.2461 70.5275C42.7042 68.1663 41.8185 64.7546 41.7039 62.3102C41.6206 60.5003 40.464 55.7883 40.5682 53.9577C40.6515 52.6158 42.4646 54.0929 42.9126 52.8967L42.923 51.8045C42.8397 51.1492 42.7251 50.4523 42.8293 49.7762C44.8403 49.7034 47.6015 49.4433 49.3729 50.2755C50.9671 51.0244 52.8844 51.2844 54.3015 52.5534C55.1142 53.2815 55.3747 59.4393 55.7811 65.0146C56.1145 69.4769 56.5418 73.5543 57.4379 74.168C57.8234 74.4281 57.5421 74.7505 56.9481 75.073Z" fill="#FF5821"/>
<path d="M56.9064 75.0939C55.8436 75.6452 53.8326 76.2069 52.5822 76.4773C52.2279 73.6897 53.2282 69.581 52.7073 67.5735C52.1654 65.4828 51.9883 63.6833 51.6653 61.5614C51.5194 60.6356 51.6861 58.7113 51.634 57.7856C51.6028 57.1198 51.7695 56.3085 51.5507 55.6948L53.8222 61.2701C53.9993 62.7055 55.083 63.7873 55.8019 65.0043C56.1354 69.4666 56.5626 73.544 57.4587 74.1577C57.5525 74.241 57.813 74.6258 56.9064 75.0939Z" fill="#D83A0F"/>
<path d="M49.2999 51.7213C50.6465 51.7213 51.7382 50.6316 51.7382 49.2873C51.7382 47.9431 50.6465 46.8533 49.2999 46.8533C47.9533 46.8533 46.8617 47.9431 46.8617 49.2873C46.8617 50.6316 47.9533 51.7213 49.2999 51.7213Z" fill="#212030"/>
<path d="M49.6855 51.0764C50.6753 51.0764 51.4777 50.2754 51.4777 49.2873C51.4777 48.2992 50.6753 47.4982 49.6855 47.4982C48.6957 47.4982 47.8933 48.2992 47.8933 49.2873C47.8933 50.2754 48.6957 51.0764 49.6855 51.0764Z" fill="#3C3C56"/>
<path d="M50.1023 50.4835C50.7641 50.4835 51.3006 49.948 51.3006 49.2873C51.3006 48.6267 50.7641 48.0911 50.1023 48.0911C49.4405 48.0911 48.904 48.6267 48.904 49.2873C48.904 49.948 49.4405 50.4835 50.1023 50.4835Z" fill="#212030"/>
<path d="M50.1961 48.8296C48.2163 49.4537 45.0382 48.9961 43.1523 48.2368C43.1627 48.6216 43.0689 49.4537 43.0897 49.8282C44.0588 50.2547 45.0695 50.2963 46.1427 50.3483C47.2577 50.4003 49.3208 50.1091 50.3315 49.6514L50.1961 48.8296Z" fill="#8A8A8E"/>
<path d="M50.2794 49.693C50.5441 49.693 50.7587 49.4788 50.7587 49.2146C50.7587 48.9503 50.5441 48.7361 50.2794 48.7361C50.0147 48.7361 49.8001 48.9503 49.8001 49.2146C49.8001 49.4788 50.0147 49.693 50.2794 49.693Z" fill="#8A8A8E"/>
<path d="M59.501 67.1158C59.4697 67.147 59.428 67.1782 59.3968 67.199C58.8341 67.6255 58.1047 67.8543 56.6876 66.7517C56.5313 66.6269 56.3646 66.4917 56.1875 66.3357C55.0621 65.3267 54.1244 63.2984 53.2491 62.1126C53.1449 61.9774 53.0511 61.8317 52.9469 61.6965C51.5194 59.6162 50.1752 56.6413 50.2169 54.1449C50.2273 53.0944 50.4774 52.2934 51.4986 52.0022C52.1863 51.8046 53.4679 51.0452 55.1351 53.6768C55.1351 53.6768 57.8546 59.3561 59.1154 63.3608C59.699 65.2123 59.9699 66.7205 59.501 67.1158Z" fill="#FF5821"/>
<path d="M69.0664 64.5361C68.0557 64.2033 66.8365 64.8482 65.9092 65.2538L66.8365 66.2108C67.5451 66.346 67.8473 66.3564 68.5558 66.3356C70.5147 66.2836 70.7023 66.5852 71.3587 66.4084C71.2337 65.5347 70.0667 64.869 69.0664 64.5361Z" fill="#FFA471"/>
<path d="M67.618 66.4188C67.5346 66.5957 65.6278 67.0741 63.7522 67.4902C62.1893 67.8334 60.6576 68.1247 60.2095 68.1559C58.8445 68.2495 57.5004 67.7502 56.6876 66.7517C56.2708 66.242 55.9895 65.5971 55.927 64.8378C55.927 64.7858 55.9165 64.7338 55.9165 64.6818L57.6566 63.3711C58.1568 63.2671 58.6257 63.2775 59.1154 63.3503C60.8555 63.6312 62.8145 64.7858 66.6906 64.817C66.6906 64.817 67.8056 66.0028 67.618 66.4188Z" fill="#FF5821"/>
<path d="M63.7523 67.4798C62.1893 67.8231 60.6576 68.1143 60.2095 68.1456C58.8445 68.2392 57.5004 67.7399 56.6876 66.7413C56.5313 66.6165 56.3646 66.4813 56.1875 66.3253C55.0621 65.3163 54.1243 63.288 53.2491 62.1022C53.1449 61.967 53.0511 61.8214 52.9469 61.6861C52.2592 59.6682 51.4569 58.472 51.5298 56.4021C52.2488 59.7306 55.2705 63.9329 55.927 64.8378C56.4584 65.5659 57.0523 66.2525 57.7921 66.8453C57.6983 66.3565 57.7192 65.8052 57.7609 65.3163C58.1568 66.2941 58.7091 66.8766 59.3968 67.199C60.1574 67.5527 61.0848 67.6151 62.1893 67.5527C62.6894 67.5319 63.2209 67.5111 63.7523 67.4798Z" fill="#D83A0F"/>
<path d="M40.4848 89.7289C40.4848 89.9993 40.3285 90.2282 40.1409 90.2282H37.8277C37.6402 90.2282 37.4839 90.0097 37.4839 89.7289C37.4839 89.4584 37.6402 89.2296 37.8277 89.2296H40.1409C40.3285 89.2296 40.4848 89.448 40.4848 89.7289Z" fill="#44283E"/>
<path d="M39.4637 89.9369C40.2764 89.812 41.11 89.864 41.9332 89.7288C42.7563 89.5936 43.444 89.1359 44.1213 88.6783C44.7882 88.2206 45.4551 87.7525 46.2053 87.4301C47.0076 87.0764 47.935 87.0972 48.7998 86.9828C49.0499 86.9516 48.9457 86.5667 48.6956 86.5979C47.8412 86.7123 46.9347 86.7123 46.1219 87.0452C45.3717 87.3468 44.7048 87.8149 44.0484 88.2622C43.3607 88.7303 42.6834 89.1983 41.8498 89.3544C41.0371 89.5 40.2035 89.4272 39.3803 89.5624C39.1094 89.5936 39.224 89.9785 39.4637 89.9369Z" fill="#44283E"/>
<path d="M65.2944 83.1343V83.7376C65.2944 84.3929 64.763 84.9234 64.1065 84.9234H37.0984C36.4419 84.9234 35.9105 84.3929 35.9105 83.7376V83.1343C35.9105 82.479 36.4419 81.9485 37.0984 81.9485H64.117C64.763 81.9589 65.2944 82.4894 65.2944 83.1343Z" fill="#553D57"/>
<path d="M66.5344 81.9589V82.063C66.5344 82.8015 66.0238 83.436 65.2944 83.696V83.7376C65.2944 84.3929 64.763 84.9234 64.1065 84.9234H47.4661C46.8409 84.9234 46.3303 84.4449 46.2886 83.8312C46.2886 83.8 46.2886 83.7688 46.2886 83.7376V83.1343C46.2886 82.479 46.82 81.9485 47.4765 81.9485H66.5344V81.9589Z" fill="#44283E"/>
<path d="M52.4676 88.1686H49.4667L40.1722 83.4462H61.5953L52.4676 88.1686Z" fill="#44283E"/>
<path d="M51.3006 88.1686H49.4354L40.141 83.4463H46.8201L51.3006 88.1686Z" fill="#553D57"/>
<path d="M51.5923 88.408H50.144V93.4528H51.5923V88.408Z" fill="#44283E"/>
<path opacity="0.7" d="M51.2276 90.613H50.2169V98.175H51.2276V90.613Z" fill="#49363E"/>
<path d="M52.0196 90.613H49.7064V98.175H52.0196V90.613Z" fill="#44283E"/>
<path d="M50.7171 90.613H49.7064V98.175H50.7171V90.613Z" fill="#69698E"/>
<path d="M52.7593 88.6576C52.7593 88.928 52.5822 89.1465 52.3738 89.1465H49.3521C49.1437 89.1465 48.9665 88.928 48.9665 88.6576C48.9665 88.5224 49.0082 88.3975 49.0811 88.3143C49.1541 88.2311 49.2479 88.1687 49.3521 88.1687H52.3738C52.5926 88.1687 52.7593 88.3871 52.7593 88.6576Z" fill="#553D57"/>
<path d="M52.7594 88.6575C52.7594 88.928 52.5822 89.1464 52.3738 89.1464H51.2485C51.0401 89.1464 50.8629 88.928 50.8629 88.6575C50.8629 88.5223 50.9046 88.3975 50.9776 88.3143C51.0505 88.2311 51.1443 88.1686 51.2485 88.1686H52.3738C52.5926 88.1686 52.7594 88.3871 52.7594 88.6575Z" fill="#44283E"/>
<path d="M51.6549 97.6757V101.899C51.6549 102.128 51.5507 102.336 51.3839 102.46C51.3214 102.502 51.2589 102.544 51.186 102.575C51.1026 102.606 51.0192 102.617 50.9359 102.617C50.8421 102.617 50.7587 102.596 50.6858 102.575C50.6129 102.544 50.5504 102.512 50.4878 102.46C50.467 102.44 50.4462 102.429 50.4253 102.408C50.2899 102.273 50.2169 102.096 50.2169 101.899V97.6757C50.2169 97.4469 50.3211 97.2389 50.4878 97.114C50.5504 97.0724 50.6129 97.0308 50.6858 96.9996C50.7692 96.9684 50.8525 96.958 50.9359 96.958C51.0297 96.958 51.113 96.9788 51.186 96.9996C51.2589 97.0308 51.3214 97.062 51.3839 97.114C51.4048 97.1348 51.4256 97.1452 51.4465 97.166C51.5715 97.2909 51.6549 97.4781 51.6549 97.6757Z" fill="#44283E"/>
<path d="M51.0401 100.318C51.0401 100.38 50.9984 100.422 50.9359 100.422C50.8734 100.422 50.8317 100.38 50.8317 100.318V97.8422C50.8317 97.7798 50.8734 97.7382 50.9359 97.7382C50.9984 97.7382 51.0401 97.7798 51.0401 97.8422V100.318Z" fill="#553D57"/>
<path d="M51.3006 100.224H50.3211V101.649H51.3006V100.224Z" fill="#44283E"/>
<path d="M50.6858 100.224H50.3211V101.649H50.6858V100.224Z" fill="#69698E"/>
<path d="M48.9978 104C49.7862 104 50.4253 103.362 50.4253 102.575C50.4253 101.788 49.7862 101.15 48.9978 101.15C48.2094 101.15 47.5703 101.788 47.5703 102.575C47.5703 103.362 48.2094 104 48.9978 104Z" fill="#2D2D3F"/>
<path d="M48.9978 103.293C49.3949 103.293 49.7167 102.971 49.7167 102.575C49.7167 102.179 49.3949 101.857 48.9978 101.857C48.6007 101.857 48.2788 102.179 48.2788 102.575C48.2788 102.971 48.6007 103.293 48.9978 103.293Z" fill="#1D1D28"/>
<path d="M51.4777 102.096H47.3307C47.3723 101.358 48.2893 100.775 49.4042 100.775C49.5605 100.775 49.7168 100.786 49.8627 100.807C50.7588 100.942 51.4361 101.462 51.4777 102.096Z" fill="#69698E"/>
<path d="M51.4777 102.096H48.2372C48.2788 101.462 48.9561 100.942 49.8522 100.807C50.7588 100.942 51.436 101.462 51.4777 102.096Z" fill="#44283E"/>
<path d="M38.5988 100.037H37.6194V101.462H38.5988V100.037Z" fill="#44283E"/>
<path d="M37.984 100.037H37.6194V101.462H37.984V100.037Z" fill="#49363E"/>
<path d="M36.3065 103.813C37.0948 103.813 37.734 103.175 37.734 102.388C37.734 101.601 37.0948 100.963 36.3065 100.963C35.5181 100.963 34.8789 101.601 34.8789 102.388C34.8789 103.175 35.5181 103.813 36.3065 103.813Z" fill="#2D2D3F"/>
<path d="M36.3064 103.106C36.7035 103.106 37.0254 102.784 37.0254 102.388C37.0254 101.991 36.7035 101.67 36.3064 101.67C35.9094 101.67 35.5875 101.991 35.5875 102.388C35.5875 102.784 35.9094 103.106 36.3064 103.106Z" fill="#1D1D28"/>
<path d="M38.7759 101.909H34.6288C34.6705 101.171 35.5875 100.588 36.7024 100.588C36.8587 100.588 37.015 100.599 37.1609 100.619C38.057 100.755 38.7447 101.285 38.7759 101.909Z" fill="#69698E"/>
<path d="M38.7759 101.909H35.5354C35.577 101.275 36.2543 100.755 37.1504 100.619C38.057 100.755 38.7447 101.285 38.7759 101.909Z" fill="#44283E"/>
<path d="M49.7168 95.9283C48.9144 96.0739 38.182 98.3727 36.7858 99.8081C36.4106 100.193 37.3484 100.411 37.7548 100.328L49.7063 98.0814V95.9283H49.7168Z" fill="#44283E"/>
<path d="M49.7168 95.9283V97.0413C47.9246 97.3325 38.4425 98.924 36.89 99.9225C36.7962 99.9849 36.7858 100.068 36.7962 100.131C36.6816 100.047 36.6503 99.9329 36.7858 99.7977C38.182 98.3727 48.9145 96.0635 49.7168 95.9283Z" fill="#69698E"/>
<path d="M49.7063 95.9283V96.1675C48.9353 96.3027 38.6717 98.4767 36.7024 99.9121C36.7128 99.8809 36.7441 99.8497 36.7753 99.8081C38.1716 98.3727 48.904 96.0635 49.7063 95.9283Z" fill="#69698E"/>
<path d="M64.1169 100.037H63.1375V101.462H64.1169V100.037Z" fill="#44283E"/>
<path d="M64.117 100.037H63.7523V101.462H64.117V100.037Z" fill="#49363E"/>
<path d="M65.4298 103.813C66.2182 103.813 66.8573 103.175 66.8573 102.388C66.8573 101.601 66.2182 100.963 65.4298 100.963C64.6414 100.963 64.0023 101.601 64.0023 102.388C64.0023 103.175 64.6414 103.813 65.4298 103.813Z" fill="#2D2D3F"/>
<path d="M65.4299 103.106C65.827 103.106 66.1488 102.784 66.1488 102.388C66.1488 101.991 65.827 101.67 65.4299 101.67C65.0328 101.67 64.7109 101.991 64.7109 102.388C64.7109 102.784 65.0328 103.106 65.4299 103.106Z" fill="#1D1D28"/>
<path d="M62.9603 101.909H67.1074C67.0657 101.171 66.1488 100.588 65.0339 100.588C64.8776 100.588 64.7213 100.599 64.5754 100.619C63.6793 100.755 62.9916 101.285 62.9603 101.909Z" fill="#69698E"/>
<path d="M62.9603 101.909H66.2009C66.1592 101.275 65.4819 100.755 64.5858 100.619C63.6793 100.755 62.9916 101.285 62.9603 101.909Z" fill="#44283E"/>
<path d="M52.0196 95.9283C52.8219 96.0739 63.5543 98.3727 64.9506 99.8081C65.3257 100.193 64.3879 100.411 63.9815 100.328L52.03 98.0814V95.9283H52.0196Z" fill="#44283E"/>
<path d="M52.0196 95.9283V97.0413C53.8118 97.3325 63.2938 98.924 64.8464 99.9225C64.9401 99.9849 64.9506 100.068 64.9401 100.131C65.0548 100.047 65.086 99.9329 64.9506 99.7977C63.5543 98.3727 52.8219 96.0635 52.0196 95.9283Z" fill="#69698E"/>
<path d="M52.0301 95.9283V96.1676C52.8012 96.3028 63.0647 98.4768 65.034 99.9122C65.0236 99.881 64.9924 99.8498 64.9611 99.8082C63.5648 98.3727 52.8324 96.0636 52.0301 95.9283Z" fill="#69698E"/>
<path d="M62.3456 69.3625C61.9079 69.092 60.991 69.0504 60.4908 69.0504H51.6653C51.9674 69.8201 52.2071 70.6211 52.4572 71.4116H60.7097H60.7201C60.7409 71.4324 60.7722 71.4532 60.793 71.474C60.793 71.474 60.793 71.4844 60.8034 71.4844C60.8243 71.5156 60.8347 71.5364 60.8555 71.5676C60.8764 71.63 60.8868 71.682 60.9076 71.7444C60.9181 71.9317 60.9076 72.1293 60.9076 72.3165V80.0762C60.9076 80.7211 61.4495 81.2619 62.0955 81.2619C62.1893 81.2619 62.2831 81.2515 62.3768 81.2307C62.8874 81.1059 63.2834 80.6274 63.2834 80.0866V71.8901C63.2729 70.8811 63.2208 69.9033 62.3456 69.3625Z" fill="#553D57"/>
<path d="M60.7302 71.4111C60.7201 71.401 60.7201 71.3909 60.7201 71.3909C60.7201 71.3909 60.7201 71.401 60.7302 71.4111Z" fill="#553D57"/>
<path d="M60.7615 71.4422C60.7513 71.4321 60.7513 71.4321 60.7513 71.422C60.7513 71.4321 60.7615 71.4422 60.7615 71.4422Z" fill="#553D57"/>
<path d="M61.5953 70.2362C61.1577 69.9657 60.1053 69.9241 59.6051 69.9241H51.9674C52.1341 70.4234 52.2904 70.9227 52.4467 71.422H60.6992H60.7096C60.7305 71.4428 60.7617 71.4636 60.7826 71.4844C60.7826 71.4844 60.7826 71.4948 60.793 71.4948C60.8138 71.526 60.8243 71.5468 60.8451 71.578C60.8659 71.6404 60.8764 71.6924 60.8972 71.7548C60.9076 71.9421 60.8972 72.1397 60.8972 72.3269V80.0865C60.8972 80.7314 61.439 81.2723 62.0851 81.2723C62.1788 81.2723 62.2726 81.2619 62.3664 81.2411C62.3872 81.1475 62.3977 81.0539 62.3977 80.9603V72.7638C62.3977 71.7548 62.481 70.7667 61.5953 70.2362Z" fill="#44283E"/>
<path d="M61.2098 69.7473C62.2101 69.7577 62.6686 70.6731 62.6373 71.5676C62.6373 71.7548 62.9291 71.7548 62.9291 71.5676C62.9395 71.0371 62.8249 70.4754 62.481 70.049C62.158 69.6537 61.6995 69.4561 61.1994 69.4457C61.0118 69.4561 61.0118 69.7473 61.2098 69.7473Z" fill="#717199"/>
<path d="M34.8998 50.8579C34.8998 51.7733 35.6396 52.5014 36.5565 52.5014L43.9442 52.4806C44.8612 52.4806 45.5905 51.7421 45.5905 50.8267L45.5801 48.1847C45.5801 47.2694 44.8403 46.5413 43.9234 46.5413L36.5357 46.5621C35.6188 46.5621 34.8894 47.3006 34.8894 48.2159L34.8998 50.8579Z" fill="#00B8D6"/>
<path opacity="0.2" d="M34.9102 50.9828C34.9727 51.8357 35.6916 52.5014 36.5565 52.5014L43.9441 52.4806C44.8611 52.4806 45.5905 51.7421 45.5905 50.8267L45.5801 48.1847C45.5801 47.311 44.8924 46.5933 44.0275 46.5413C44.0275 46.5829 44.0275 46.6245 44.0275 46.6661L44.0379 49.3081C44.0379 50.2234 43.2981 50.962 42.3916 50.962L35.0144 50.9828C34.9831 50.9828 34.9414 50.9828 34.9102 50.9828Z" fill="#663445"/>
<path d="M54.562 76.342C54.5099 77.4862 54.5932 78.9944 54.2702 80.201C54.2285 80.357 54.1764 80.513 54.1243 80.6483C54.1243 80.6587 54.1139 80.6691 54.1139 80.6795C54.0931 80.7419 53.5304 83.9144 53.5096 83.9768C50.8733 84.008 47.341 84.0704 44.1317 84.1016C42.3187 84.112 40.6098 84.1224 39.224 84.1016C37.2234 84.0704 35.8896 83.9976 35.8584 83.8416C35.0352 83.8416 34.3162 83.1134 34.2433 82.1565L34.1391 80.7939L34.1078 80.3778L31.9926 54.0513C31.9822 53.9576 31.9822 53.8744 31.9926 53.7808C32.0343 52.8967 32.6386 52.179 33.4306 52.1165C33.6181 52.0333 34.3371 51.9293 35.2228 51.8149C35.6187 51.7629 36.0564 51.7109 36.494 51.6589C37.5464 51.5445 42.475 51.4196 45.4238 51.6069C45.9448 51.6381 46.4137 51.6797 46.7784 51.7421C49.2895 52.1269 50.4566 53.5624 50.8838 56.09C50.8942 56.1732 50.915 56.2668 50.9254 56.35C51.0505 57.1093 51.1859 57.8687 51.3214 58.628C51.3839 58.9504 51.436 59.2729 51.4985 59.5953C51.7486 60.9995 52.0091 62.4038 52.28 63.8184C52.3217 64.0472 52.3634 64.2761 52.4051 64.5049C52.4259 64.5985 52.4467 64.6921 52.4572 64.7857C52.999 67.3654 54.1452 69.9242 54.4161 72.535C54.4682 73.0134 54.5099 73.4919 54.5411 73.9704C54.5724 74.7505 54.6036 75.5514 54.562 76.342Z" fill="#00B8D6"/>
<path opacity="0.2" d="M50.1023 78.7447C49.8626 79.3376 49.4562 79.8057 48.9144 80.1905C45.0487 82.9678 34.5767 80.8874 34.1183 80.7834L34.087 80.3674L31.9718 54.0408C31.9614 53.9472 31.9614 53.864 31.9718 53.7704C32.2635 53.6871 32.5553 53.6039 32.8366 53.5207C33.5452 53.3023 34.2433 53.0839 34.8893 52.9694C35.0352 52.9382 35.1707 52.9174 35.3165 52.907C37.536 52.6678 39.6824 52.8862 41.8602 53.011C43.767 53.1255 46.0281 53.0943 47.5911 54.3424C49.1853 55.6114 49.1853 57.8686 49.4458 59.6785C50.0293 63.8079 50.5086 68.187 50.4982 72.4725C50.4982 74.3864 50.8108 77.018 50.1023 78.7447Z" fill="#663445"/>
<path d="M66.6177 81.9692V82.3229C66.6177 83.0614 65.8675 83.6959 64.7943 83.9559C64.44 84.0392 64.0544 84.0912 63.6481 84.0912H39.2136C37.213 84.06 35.8792 83.9872 35.848 83.8311C35.0248 83.8311 34.3058 83.103 34.2329 82.1461L34.1287 80.7834L34.0974 80.3674C34.483 80.253 34.9206 80.1906 35.3791 80.1906H63.6585C65.2944 80.201 66.6177 80.9915 66.6177 81.9692Z" fill="#00B8D6"/>
<path d="M78.9548 63.9536C78.9548 64.0576 78.9548 64.1512 78.9444 64.2448V64.2552C78.9444 64.276 78.9444 64.3073 78.9444 64.3281C78.9027 64.8793 78.7881 65.3994 78.6109 65.8675C78.4859 66.2004 78.3192 66.5124 78.1316 66.7724C77.9337 67.0429 77.7148 67.2717 77.4648 67.4381H75.3912C75.162 67.2821 74.9536 67.0741 74.766 66.8349C74.2346 66.1379 73.9012 65.0978 73.9012 63.9536C73.9012 63.6519 73.922 63.3503 73.9741 63.0695H78.8923C78.9235 63.2879 78.9444 63.5271 78.9548 63.756C78.9548 63.8184 78.9548 63.8912 78.9548 63.9536Z" fill="#FF2E2E"/>
<path d="M78.9443 64.2345C78.9339 64.2033 78.9443 64.2865 78.9443 64.2553C78.9443 64.2241 78.9339 64.3073 78.9443 64.2761C78.9548 64.2241 78.9235 64.3073 78.9443 64.2657C78.9443 64.2553 78.9548 64.2449 78.9652 64.2449C78.986 64.2137 78.9339 64.2865 78.9652 64.2553C78.986 64.2345 79.0069 64.2137 79.0277 64.1929C79.0381 64.1825 79.0485 64.1721 79.059 64.1721C79.1006 64.1409 79.0277 64.1929 79.059 64.1721C79.0798 64.1513 79.1111 64.1409 79.1319 64.1201C79.1944 64.0785 79.2569 64.0473 79.3194 64.0161C79.382 63.9849 79.4445 63.9536 79.5174 63.9224C79.4757 63.9432 79.5383 63.912 79.5383 63.912C79.5591 63.9016 79.5695 63.9016 79.5904 63.8912C79.632 63.8808 79.6737 63.86 79.705 63.8496C79.7675 63.8288 79.8404 63.808 79.903 63.7872C79.9342 63.7768 79.9655 63.7768 79.9967 63.7664C80.0072 63.7664 80.028 63.756 80.0384 63.756C80.0697 63.7456 79.9967 63.756 80.0593 63.756C80.2051 63.7456 80.2989 63.756 80.4344 63.808C80.4969 63.8288 80.4031 63.7976 80.4552 63.8184C80.476 63.8288 80.4865 63.8392 80.5073 63.8392C80.5386 63.86 80.5698 63.8808 80.6011 63.9016C80.5698 63.8808 80.6115 63.912 80.6219 63.912C80.6323 63.9224 80.6532 63.9328 80.6636 63.9536C80.674 63.9641 80.6844 63.9745 80.6949 63.9953C80.7053 64.0161 80.7053 64.0161 80.6949 63.9953C80.7053 64.0057 80.7053 64.0161 80.7157 64.0265C80.7365 64.0577 80.7574 64.0889 80.7678 64.1201C80.7678 64.1201 80.7886 64.1721 80.7782 64.1409C80.7886 64.1617 80.7886 64.1721 80.7991 64.1929C80.8095 64.2241 80.8199 64.2657 80.8199 64.2969C80.8303 64.3593 80.8199 64.2553 80.8199 64.3177C80.8199 64.3385 80.8199 64.3697 80.8199 64.3905C80.8199 64.5257 80.7678 64.7026 80.7157 64.8274C80.5802 65.1186 80.3406 65.3059 80.0488 65.4619C79.8925 65.5451 79.7675 65.5867 79.5904 65.6491C79.4236 65.7011 79.2569 65.7427 79.0902 65.7843C78.861 65.8363 78.6109 65.8676 78.3921 65.9612C78.2566 66.0132 78.1316 66.086 78.0482 66.2108C77.9545 66.346 77.9753 66.5229 78.0378 66.6581C78.1629 66.9493 78.465 67.0221 78.7464 66.8973C78.8506 66.8557 78.9548 66.7413 78.9756 66.6269C79.0069 66.4604 78.9131 66.3252 78.7776 66.2316C78.6943 66.1692 78.5588 66.2108 78.5067 66.3044C78.4546 66.398 78.4859 66.5125 78.5796 66.5749C78.6317 66.6061 78.5588 66.5541 78.5901 66.5853C78.6213 66.6165 78.5692 66.5541 78.5901 66.5853C78.6109 66.6165 78.5796 66.5437 78.5901 66.5853C78.5796 66.5437 78.5901 66.5541 78.5901 66.5749C78.5901 66.5125 78.5796 66.5749 78.6005 66.5229C78.5901 66.5333 78.5692 66.5645 78.6109 66.5229C78.6005 66.5333 78.6005 66.5437 78.5901 66.5437C78.5692 66.5645 78.6317 66.5229 78.5796 66.5541C78.5692 66.5645 78.5588 66.5645 78.5484 66.5749C78.6005 66.5541 78.5588 66.5749 78.5484 66.5749C78.538 66.5749 78.5171 66.5853 78.5067 66.5853C78.465 66.5957 78.5484 66.5853 78.5067 66.5853C78.4963 66.5853 78.4754 66.5853 78.465 66.5853C78.4129 66.5853 78.5067 66.5957 78.465 66.5853C78.4546 66.5853 78.4129 66.5645 78.465 66.5853C78.4546 66.5853 78.4025 66.5437 78.4442 66.5749C78.4338 66.5645 78.4233 66.5541 78.4129 66.5437C78.4442 66.5749 78.4129 66.5437 78.4129 66.5333C78.4025 66.5229 78.3921 66.5021 78.3921 66.4812C78.4129 66.5229 78.3921 66.4812 78.3921 66.4708C78.3921 66.4604 78.3817 66.4084 78.3921 66.4708C78.3921 66.4604 78.3921 66.45 78.3921 66.4292C78.3921 66.3876 78.3817 66.4708 78.3921 66.4396C78.4025 66.3876 78.3817 66.4604 78.3921 66.4292C78.3921 66.4188 78.4025 66.4084 78.4129 66.398C78.3817 66.4396 78.4025 66.4084 78.4129 66.398C78.4233 66.3876 78.4338 66.3772 78.4442 66.3772C78.4025 66.4084 78.4338 66.3876 78.4442 66.3772C78.465 66.3668 78.4859 66.346 78.5171 66.3356C78.5275 66.3356 78.5692 66.3148 78.5171 66.3356C78.538 66.3252 78.5484 66.3252 78.5692 66.3148C78.7985 66.2316 79.059 66.2004 79.2986 66.138C79.6425 66.0548 79.9863 65.9508 80.2989 65.7843C80.6115 65.6179 80.8928 65.3787 81.0596 65.0666C81.2263 64.7546 81.2992 64.3593 81.1638 64.0265C81.0283 63.6936 80.7261 63.4648 80.3718 63.4024C80.0801 63.3504 79.7988 63.4128 79.5174 63.5168C79.2882 63.6 79.059 63.704 78.861 63.8496C78.6943 63.9641 78.5171 64.1409 78.5692 64.3697C78.6317 64.5777 79.0069 64.4737 78.9443 64.2345Z" fill="#FF2E2E"/>
<path d="M77.4856 63.5582C77.4856 65.4201 76.4957 66.9284 75.2661 66.9284C75.0994 66.9284 74.9327 66.8972 74.766 66.8452C74.2346 66.1483 73.9012 65.1081 73.9012 63.9639C73.9012 63.6623 73.922 63.3606 73.9741 63.0798H77.4647C77.4752 63.2254 77.4856 63.3918 77.4856 63.5582Z" fill="#FF5555"/>
<path opacity="0.5" d="M74.3284 63.756C74.2138 64.1825 74.2971 64.6506 74.4222 65.0666C74.4847 65.2851 74.568 65.5035 74.6618 65.7115C74.7347 65.8676 74.8077 66.0236 74.9119 66.1692C74.9848 66.2732 75.1099 66.3148 75.2245 66.2524C75.3287 66.19 75.3808 66.0444 75.3078 65.9404C75.2141 65.8052 75.1411 65.6595 75.0682 65.5139C75.0578 65.4931 75.0473 65.4827 75.0473 65.4619C75.0473 65.4515 75.0369 65.4411 75.0369 65.4307C75.0473 65.4515 75.0473 65.4515 75.0369 65.4307C75.0161 65.3787 74.9952 65.3267 74.9744 65.2747C74.9327 65.1707 74.9015 65.077 74.8702 64.973C74.8389 64.869 74.8181 64.765 74.7868 64.661C74.7764 64.609 74.766 64.5674 74.7556 64.5154C74.7556 64.505 74.7452 64.4217 74.7452 64.4738C74.7452 64.4425 74.7347 64.4217 74.7347 64.3905C74.7243 64.2969 74.7243 64.1929 74.7243 64.0993C74.7243 64.0785 74.7243 64.0577 74.7243 64.0473C74.7243 64.0369 74.7347 63.9537 74.7243 64.0161C74.7347 63.9745 74.7452 63.9225 74.7556 63.8809C74.7868 63.756 74.7139 63.6312 74.5993 63.6C74.4951 63.5584 74.37 63.6312 74.3284 63.756Z" fill="#FC8F35"/>
</svg>
