<svg width="120" height="120" viewBox="0 0 120 120" fill="none" xmlns="http://www.w3.org/2000/svg">
<circle cx="61.579" cy="61.5789" r="58.4211" fill="#C2EAFC"/>
<circle cx="108.947" cy="6.31579" r="6.31579" fill="#AAE5FF"/>
<circle cx="6.31579" cy="86.8422" r="6.31579" fill="#AAE5FF"/>
<circle r="3.15789" transform="matrix(1 0 0 -1 9.47366 64.7369)" fill="white"/>
<circle r="2.36842" transform="matrix(1 0 0 -1 103.421 35.5263)" fill="white"/>
<circle cx="115.263" cy="96.3159" r="3.15789" fill="#FDD1A3"/>
<circle cx="99.4737" cy="3.1579" r="1.57895" fill="#AAE5FF"/>
<circle cx="114.474" cy="21.3158" r="2.36842" fill="#E40C57"/>
<circle cx="70.4999" cy="53.5" r="28.5" fill="#D8F1FD"/>
<path fill-rule="evenodd" clip-rule="evenodd" d="M93.896 115.706C93.7663 115.603 93.6175 115.527 93.4582 115.481C93.2989 115.436 93.1322 115.423 92.9677 115.442C92.8031 115.461 92.6439 115.513 92.4991 115.593C92.3543 115.674 92.2268 115.782 92.1238 115.912C92.0208 116.042 91.9444 116.191 91.8989 116.351C91.8534 116.51 91.8398 116.677 91.8587 116.842C91.8777 117.006 91.9288 117.165 92.0093 117.31C92.0898 117.455 92.198 117.582 92.3278 117.685C92.5899 117.893 92.9238 117.988 93.2562 117.949C93.5885 117.91 93.8921 117.741 94.1001 117.478C94.308 117.216 94.4034 116.882 94.3651 116.549C94.3268 116.217 94.1581 115.913 93.896 115.706Z" fill="#BFC7D2"/>
<path d="M17.7247 6.40673L18.383 6.92872C18.5576 7.06716 18.67 7.2694 18.6955 7.49095C18.7209 7.7125 18.6573 7.93522 18.5186 8.1101C18.3799 8.28498 18.1776 8.3977 17.9561 8.42347C17.7346 8.44923 17.5121 8.38594 17.3374 8.24749L16.6791 7.72551L16.1563 8.38489C16.0176 8.55978 15.8153 8.6725 15.5938 8.69827C15.3723 8.72403 15.1497 8.66073 14.9751 8.52229C14.8005 8.38385 14.6881 8.18161 14.6627 7.96006C14.6373 7.73851 14.7009 7.5158 14.8395 7.34092L15.3623 6.68153L14.704 6.15954C14.5294 6.0211 14.417 5.81886 14.3916 5.59731C14.3661 5.37576 14.4298 5.15304 14.5684 4.97816C14.7071 4.80328 14.9094 4.69056 15.1309 4.66479C15.3524 4.63902 15.575 4.70232 15.7496 4.84076L16.4079 5.36275L16.9307 4.70337C17.0694 4.52849 17.2717 4.41576 17.4932 4.39C17.7148 4.36423 17.9373 4.42753 18.1119 4.56597C18.2865 4.70441 18.3989 4.90665 18.4243 5.1282C18.4497 5.34975 18.3861 5.57246 18.2475 5.74734L17.7247 6.40673Z" fill="#BFC7D2"/>
<path d="M6.72467 20.4067L7.38302 20.9287C7.55763 21.0672 7.67002 21.2694 7.69544 21.491C7.72087 21.7125 7.65724 21.9352 7.51858 22.1101C7.37993 22.285 7.17761 22.3977 6.95609 22.4235C6.73458 22.4492 6.51203 22.3859 6.33742 22.2475L5.67907 21.7255L5.15627 22.3849C5.01761 22.5598 4.81528 22.6725 4.59377 22.6983C4.37225 22.724 4.14973 22.6607 3.97512 22.5223C3.80051 22.3839 3.68812 22.1816 3.6627 21.9601C3.63728 21.7385 3.7009 21.5158 3.83955 21.3409C3.83955 21.3409 4.40032 21.008 4.36235 20.6815C4.32444 20.3556 3.70398 20.1595 3.70398 20.1595C3.52937 20.0211 3.417 19.8189 3.39157 19.5973C3.36615 19.3758 3.42976 19.153 3.56841 18.9782C3.70707 18.8033 3.90941 18.6906 4.13092 18.6648C4.35244 18.639 4.57497 18.7023 4.74958 18.8408L5.40795 19.3628L5.93075 18.7034C6.06941 18.5285 6.27174 18.4158 6.49325 18.39C6.71476 18.3642 6.93731 18.4275 7.11192 18.566C7.28653 18.7044 7.39889 18.9066 7.42432 19.1282C7.44974 19.3498 7.38612 19.5725 7.24747 19.7473L6.72467 20.4067Z" fill="#BFC7D2"/>
<path fill-rule="evenodd" clip-rule="evenodd" d="M35.4258 29C33.0823 29 31.1825 30.9998 31.1825 33.4667V88.1833H75.9052V33.4667C75.9052 30.9998 74.0054 29 71.6619 29H35.4258ZM72.7227 32.35H34.3649V85.95H72.7227V32.35Z" fill="#70C050"/>
<path fill-rule="evenodd" clip-rule="evenodd" d="M39.6691 35.381C38.4973 35.381 37.5474 36.3809 37.5474 37.6143V55.8C37.5474 57.0334 38.4973 58.0333 39.6691 58.0333H67.4186C68.5904 58.0333 69.5402 57.0334 69.5402 55.8V37.6143C69.5402 36.3809 68.5904 35.381 67.4186 35.381H39.6691ZM66.3578 38.731H40.7299V54.6833H66.3578V38.731Z" fill="#70C050"/>
<path fill-rule="evenodd" clip-rule="evenodd" d="M31.1825 85.95C29.4248 85.95 28 87.4498 28 89.3V92.65C28 94.5002 29.4248 96 31.1825 96H75.9052C77.6628 96 79.0876 94.5002 79.0876 92.65V89.3C79.0876 87.4498 77.6628 85.95 75.9052 85.95H31.1825ZM75.9052 88.1833H31.1825V92.65H75.9052V88.1833Z" fill="#70C050"/>
<path fill-rule="evenodd" clip-rule="evenodd" d="M75.9052 62.5V59.15H82.2701C84.8161 59.15 85.4526 61.3833 85.4526 62.5V85.95C85.4526 89.8583 91.8175 90.975 91.8175 85.95V55.8C84.3918 56.9167 83.8614 47.425 88.6351 46.3083L83.3309 41.2833L82.2701 39.05H85.4526L95 47.9833V87.0667C94.4696 90.4167 91.8175 92.65 88.6351 92.65C84.3918 92.65 82.2701 89.8583 82.2701 87.0667V62.5H75.9052ZM90.2263 53.5667C91.691 53.5667 92.8783 52.3168 92.8783 50.775C92.8783 49.2332 91.691 47.9833 90.2263 47.9833C88.7616 47.9833 87.5742 49.2332 87.5742 50.775C87.5742 52.3168 88.7616 53.5667 90.2263 53.5667Z" fill="#70C050"/>
<path d="M53.5 76.308L56.525 73.3464C57.1232 72.7606 57.5306 72.0144 57.6956 71.2019C57.8606 70.3895 57.7759 69.5475 57.4521 68.7822C57.1283 68.0169 56.58 67.3629 55.8766 66.9027C55.1731 66.4425 54.346 66.1969 53.5 66.1969C52.654 66.1969 51.8269 66.4425 51.1234 66.9027C50.42 67.3629 49.8717 68.0169 49.5479 68.7822C49.2241 69.5475 49.1394 70.3895 49.3044 71.2019C49.4694 72.0144 49.8768 72.7606 50.475 73.3464L53.5 76.308ZM53.5 78L49.6109 74.1924C48.8417 73.4393 48.3179 72.4798 48.1057 71.4353C47.8935 70.3907 48.0024 69.308 48.4187 68.3241C48.835 67.3402 49.5399 66.4992 50.4444 65.9075C51.3488 65.3158 52.4122 65 53.5 65C54.5878 65 55.6512 65.3158 56.5556 65.9075C57.4601 66.4992 58.165 67.3402 58.5813 68.3241C58.9976 69.308 59.1065 70.3907 58.8943 71.4353C58.6821 72.4798 58.1583 73.4393 57.3891 74.1924L53.5 78Z" fill="#70C050"/>
<path fill-rule="evenodd" clip-rule="evenodd" d="M63.0952 45H55V48L63.0952 47.9524V45ZM62 46H56V47H62V46Z" fill="#70C050"/>
<path fill-rule="evenodd" clip-rule="evenodd" d="M52.0952 45H44V48L52.0952 47.9524V45ZM51 46H45V47H51V46Z" fill="#70C050"/>
</svg>
