<svg width="130" height="130" viewBox="0 0 130 130" fill="none" xmlns="http://www.w3.org/2000/svg">
<circle cx="66.5789" cy="66.5789" r="58.4211" fill="#E6EDB7"/>
<circle cx="113.947" cy="11.3158" r="6.31579" fill="#F1BC19"/>
<circle cx="11.3158" cy="91.8421" r="6.31579" fill="#F1BC19"/>
<circle r="3.15789" transform="matrix(1 0 0 -1 14.4737 69.7369)" fill="white"/>
<circle r="2.36842" transform="matrix(1 0 0 -1 108.421 40.5263)" fill="white"/>
<circle cx="120.263" cy="101.316" r="3.15789" fill="#F1BC19"/>
<circle cx="104.474" cy="8.1579" r="1.57895" fill="#F1BC19"/>
<circle cx="119.474" cy="26.3158" r="2.36842" fill="#88AE45"/>
<circle cx="80.5" cy="58.5" r="28.5" fill="#F8FECF"/>
<path d="M81.4594 36.2091V39.578C81.4594 40.4124 80.7825 41.0894 79.9481 41.0894H59.7439V34.6961H79.9481C80.7825 34.6961 81.4594 35.373 81.4594 36.2091Z" fill="#ABDDD4"/>
<path d="M59.7439 34.6961H64.6717V41.0894H59.7439V34.6961Z" fill="#83B2A9"/>
<path d="M66.8675 69.5183V92.5238C66.8675 93.3593 66.1906 94.0362 65.3562 94.0362H35.3607C34.5252 94.0362 33.8483 93.3593 33.8483 92.5238V69.5183H66.8675Z" fill="#CAFFF9"/>
<path d="M66.8675 69.5183V72.0232H64.0111V94.0362H50.7074V72.0232H33.8483V69.5183H66.8675Z" fill="#ABDDD4"/>
<path d="M62.8868 29.4202V66.3069H35.2521V38.4061L62.8868 29.4202Z" fill="#39AAFF"/>
<path d="M62.8868 47.1503V52.4425L49.0224 66.3069H43.7296L62.8868 47.1503Z" fill="#61DAFF"/>
<path d="M62.8868 31.8873V43.4083L39.9882 66.3069H35.2521V59.5237L62.8868 31.8873Z" fill="#61DAFF"/>
<path d="M66.8466 30.5178L33.0999 41.6175C32.122 41.9388 31.1156 41.2108 31.1156 40.1812V37.7268C31.1156 37.0737 31.5346 36.4944 32.1551 36.2905L65.9018 25.1913C66.8797 24.8694 67.8855 25.5974 67.8855 26.6271V29.0814C67.8855 29.7345 67.4666 30.3138 66.8466 30.5178Z" fill="#FFDF4A"/>
<path d="M68.305 70.2377H32.6275C31.7925 70.2377 31.1156 69.5607 31.1156 68.7258V66.4579C31.1156 65.623 31.7925 64.9466 32.6275 64.9466H68.305C69.14 64.9466 69.8169 65.623 69.8169 66.4579V68.7258C69.8169 69.5607 69.14 70.2377 68.305 70.2377V70.2377Z" fill="#FFDF4A"/>
<path d="M103.532 80.406H56.3128V74.3951H103.532C104.367 74.3951 105.044 75.072 105.044 75.9064V78.8941C105.044 79.7291 104.367 80.406 103.532 80.406Z" fill="#1A94AF"/>
<path d="M70.6269 80.406H64.0506L70.0976 74.3951H76.6739L70.6269 80.406Z" fill="#FFDF4A"/>
<path d="M97.6875 80.406H91.1112L97.1582 74.3951H103.734L97.6875 80.406Z" fill="#FFDF4A"/>
<path d="M60.7386 97.0751H53.9799C53.1583 97.0751 52.4924 96.4092 52.4924 95.5876V66.3452C52.4924 63.6573 54.6713 61.4783 57.3593 61.4783C60.0466 61.4783 62.2261 63.6573 62.2261 66.3452V95.5876C62.2261 96.4092 61.5602 97.0751 60.7386 97.0751Z" fill="#FF5656"/>
<path d="M89.0694 77.4008C89.0694 80.2596 86.7516 82.5774 83.8923 82.5774C81.0335 82.5774 78.7157 80.2596 78.7157 77.4008C78.7157 74.5415 81.0335 72.2237 83.8923 72.2237C86.7516 72.2237 89.0694 74.5415 89.0694 77.4008V77.4008Z" fill="#FF5656"/>
<path d="M104.109 73.3451C103.955 73.2905 103.791 73.269 103.63 73.2841C103.597 73.2829 103.565 73.2794 103.532 73.2794H88.6412C87.4866 71.9506 85.7865 71.1081 83.8923 71.1081C81.998 71.1081 80.2979 71.9506 79.1433 73.2794H67.9826V71.3533H68.305C69.7536 71.3533 70.9325 70.1749 70.9325 68.7258V66.4579C70.9325 65.0094 69.7536 63.8304 68.305 63.8304H64.003V58.8863C64.003 58.2704 63.5033 57.7707 62.8873 57.7707C62.2714 57.7707 61.7717 58.2704 61.7717 58.8863V62.3104C60.677 61.114 59.1041 60.3627 57.3593 60.3627C54.9578 60.3627 52.884 61.7851 51.9323 63.831H36.3671V41.7175L61.7717 33.3614V54.3779C61.7717 54.9938 62.2714 55.4935 62.8873 55.4935C63.5033 55.4935 64.003 54.9938 64.003 54.3779V50.3989L72.1963 42.205H79.9481C81.3972 42.205 82.5756 41.0266 82.5756 39.578V36.2085C82.5756 34.76 81.3972 33.581 79.9481 33.581H76.4328C75.8168 33.581 75.3171 34.0807 75.3171 34.6967C75.3171 35.3131 75.8168 35.8123 76.4328 35.8123H79.9481C80.1666 35.8123 80.3444 35.9901 80.3444 36.2085V39.578C80.3444 39.7959 80.1666 39.9737 79.9481 39.9737H64.003V35.8123H71.9238C72.5397 35.8123 73.0394 35.3131 73.0394 34.6967C73.0394 34.0807 72.5397 33.581 71.9238 33.581H64.003V32.6275L67.1947 31.5776C68.2754 31.222 69.0011 30.2191 69.0011 29.0814V26.6271C69.0011 25.7869 68.595 24.9914 67.9146 24.4987C67.2342 24.0059 66.351 23.8682 65.5532 24.1309L31.8065 35.2306C30.7263 35.5862 30 36.5891 30 37.7268V40.1812C30 41.0214 30.4062 41.8168 31.0871 42.3096C31.5398 42.6378 32.0825 42.8081 32.6298 42.8081C32.9047 42.8081 33.1812 42.7651 33.4485 42.6774L34.1359 42.4513V63.831H32.6275C31.1789 63.831 30 65.0094 30 66.4579V68.7258C30 70.1749 31.1789 71.3533 32.6275 71.3533H32.7333V75.054C32.7333 75.6699 33.2324 76.1696 33.8489 76.1696C34.4648 76.1696 34.9645 75.6699 34.9645 75.054V71.3533H51.3762V92.92H35.3608C35.1423 92.92 34.9645 92.7422 34.9645 92.5244V79.5623C34.9645 78.9464 34.4648 78.4467 33.8489 78.4467C33.233 78.4467 32.7333 78.9464 32.7333 79.5623V92.5244C32.7333 93.9729 33.9122 95.1513 35.3608 95.1513H51.3768V95.5876C51.3768 97.0228 52.5441 98.1907 53.9799 98.1907H60.7386C62.1738 98.1907 63.3417 97.0228 63.3417 95.5876V95.1513H65.3556C66.8042 95.1513 67.9826 93.9729 67.9826 92.5244V81.5216H79.1433C80.2979 82.8505 81.998 83.693 83.8923 83.693C85.7865 83.693 87.4866 82.8505 88.6412 81.5216H103.532C104.98 81.5216 106.159 80.3433 106.159 78.8941V75.9069C106.159 74.6565 105.281 73.6095 104.109 73.3451V73.3451ZM69.0412 42.205L64.003 47.2432V42.205H69.0412ZM32.7513 40.5577C32.5839 40.6129 32.4561 40.5461 32.3951 40.5019C32.3341 40.4578 32.2312 40.3572 32.2312 40.1812V37.7268C32.2312 37.5554 32.3405 37.4038 32.5037 37.3503L66.2499 26.2505C66.2952 26.2354 66.3376 26.2296 66.3765 26.2296C66.4817 26.2296 66.5613 26.2738 66.6061 26.3063C66.6676 26.3505 66.7699 26.451 66.7699 26.6271V29.0814C66.7699 29.2528 66.6607 29.4045 66.4974 29.4579L32.7513 40.5577ZM93.816 79.2904L97.6184 75.5107H101.03L97.2273 79.2904H93.816ZM66.7554 79.2904L70.5578 75.5107H73.9691L70.1667 79.2904H66.7554ZM63.3417 79.2904V75.5107H67.3928L63.5904 79.2904H63.3417ZM65.7513 73.2794H63.3417V71.3533H65.7513V73.2794ZM68.7013 66.4579V68.7258C68.7013 68.9442 68.5235 69.122 68.305 69.122H63.3417V66.3452C63.3417 66.2505 63.3388 66.1558 63.3348 66.0622H68.305C68.5235 66.0622 68.7013 66.24 68.7013 66.4579V66.4579ZM32.6275 69.122C32.409 69.122 32.2312 68.9442 32.2312 68.7258V66.4579C32.2312 66.2395 32.409 66.0617 32.6275 66.0617H51.3837C51.3791 66.1558 51.3768 66.2499 51.3768 66.3452V69.122H32.6275ZM61.1105 95.5876C61.1105 95.7928 60.9437 95.9595 60.7386 95.9595H53.9799C53.7748 95.9595 53.608 95.7928 53.608 95.5876V66.3452C53.608 64.2767 55.2907 62.594 57.3593 62.594C59.4278 62.594 61.1105 64.2767 61.1105 66.3452V95.5876ZM65.7513 92.5244C65.7513 92.7422 65.5735 92.92 65.3556 92.92H63.3417V81.5216H65.7513V92.5244ZM73.3317 79.2904L77.1341 75.5107H77.8906C77.7023 76.1074 77.6001 76.7425 77.6001 77.4008C77.6001 78.0592 77.7018 78.6937 77.8906 79.2904H73.3317ZM83.8923 81.4618C81.6529 81.4618 79.8313 79.6396 79.8313 77.4008C79.8313 75.1615 81.6535 73.3393 83.8923 73.3393C86.1316 73.3393 87.9538 75.1615 87.9538 77.4008C87.9538 79.6396 86.1316 81.4618 83.8923 81.4618ZM89.8945 75.5107H94.4534L90.651 79.2904H89.8945C90.0827 78.6937 90.185 78.0586 90.185 77.4002C90.185 76.7419 90.0827 76.1074 89.8945 75.5107V75.5107ZM103.928 78.8941C103.928 79.1126 103.75 79.2904 103.532 79.2904H100.392L103.909 75.7936C103.92 75.8297 103.928 75.8674 103.928 75.9069V78.8941Z" fill="black"/>
<path d="M85.7568 76.2852H82.0283C81.4118 76.2852 80.9126 76.7843 80.9126 77.4008C80.9126 78.0167 81.4118 78.5164 82.0283 78.5164H85.7568C86.3733 78.5164 86.8725 78.0167 86.8725 77.4008C86.8725 76.7843 86.3733 76.2852 85.7568 76.2852V76.2852Z" fill="black"/>
<path d="M58.4813 74.7152C57.8654 74.7152 57.3656 75.2149 57.3656 75.8308V77.8721C57.3656 78.488 57.8654 78.9877 58.4813 78.9877C59.0972 78.9877 59.5969 78.488 59.5969 77.8721V75.8308C59.5969 75.2149 59.0972 74.7152 58.4813 74.7152Z" fill="black"/>
</svg>
