<svg width="120" height="120" viewBox="0 0 120 120" fill="none" xmlns="http://www.w3.org/2000/svg">
<circle cx="61.4211" cy="61.4211" r="58.4211" fill="#E6EDB7"/>
<circle cx="108.947" cy="6.31579" r="6.31579" fill="#F1BC19"/>
<circle cx="6.31579" cy="86.8421" r="6.31579" fill="#F1BC19"/>
<circle r="3.15789" transform="matrix(1 0 0 -1 9.47368 64.7369)" fill="white"/>
<circle r="2.36842" transform="matrix(1 0 0 -1 103.421 35.5263)" fill="white"/>
<circle cx="115.263" cy="96.3158" r="3.15789" fill="#F1BC19"/>
<circle cx="99.4737" cy="3.1579" r="1.57895" fill="#F1BC19"/>
<circle cx="114.474" cy="21.3158" r="2.36842" fill="#88AE45"/>
<circle cx="75.5" cy="53.5" r="28.5" fill="#F8FECF"/>
<path d="M49.008 41.8198C50.4527 43.0088 52.3408 43.6094 54.2009 43.5413C56.6909 43.5013 59.1669 43.5954 61.655 43.5553C61.641 40.979 61.6269 38.4007 61.667 35.8384C61.7072 34.2229 61.2116 32.5935 60.2344 31.2983C59.5662 30.1493 58.4406 29.3365 57.2768 28.762C55.8582 28.0274 54.2129 27.8953 52.6458 28.0674C50.9463 28.3757 49.3552 29.2285 48.1633 30.4856C46.9052 31.8748 46.1147 33.6905 46.1026 35.5722C46.0103 37.9483 47.134 40.3505 49.008 41.8198ZM54.9092 31.2062C55.7258 30.98 56.6087 31.1662 57.3711 31.4865C58.7355 32.2612 59.4198 33.7946 59.7268 35.2779C60.1421 37.1736 60.0217 39.1234 59.8873 41.0451C59.8873 41.2453 59.8471 41.4715 59.6726 41.5916C59.4599 41.6857 59.2312 41.6316 59.0165 41.6176C57.2226 41.3634 55.3887 40.937 53.8497 39.9221C52.6719 39.0533 51.5483 37.8002 51.5483 36.2508C51.3376 34.0748 52.7682 31.7928 54.9092 31.2062Z" fill="#0CABCC"/>
<path d="M68.2524 43.5293C69.6168 43.5693 71.0093 43.181 72.0928 42.3402C74.2598 40.8189 75.1025 37.7081 74.007 35.3039C73.084 33.14 70.7424 31.6586 68.3868 31.7387C67.223 31.7127 66.0974 32.1251 65.1202 32.7256C63.5552 33.7545 62.5118 35.5561 62.4576 37.4378C62.4576 39.4536 62.3914 41.4695 62.4576 43.4733C64.3838 43.5693 66.3261 43.4753 68.2524 43.5293ZM64.0227 37.614C64.2374 36.6271 64.6647 35.5701 65.5617 35.0237C66.272 34.5552 67.209 34.5953 67.9434 34.9436C69.2556 35.5581 70.2849 36.9994 70.0843 38.4808C69.9238 39.5357 69.1071 40.3645 68.2102 40.8589C66.898 41.5936 65.3991 41.8998 63.9284 42.074C63.6615 40.6047 63.7558 39.0833 64.0227 37.614Z" fill="#0CABCC"/>
<path d="M45.904 43.4893C47.9366 43.4753 50.0394 43.5433 51.9395 44.3701C51.0948 43.3952 49.8247 42.9548 48.6348 42.5805C45.3963 41.6716 42.0114 41.4454 38.7588 40.5646C37.2058 40.1523 35.6949 39.5778 34.3686 38.6689C33.4597 38.0284 32.6691 37.1996 32.1474 36.1987C31.8806 35.6903 31.706 35.1298 31.4773 34.5973C30.4339 35.386 29.4708 36.2928 28.4535 37.1215C28.293 37.2677 28.1063 37.3878 28 37.576C28.1344 37.9363 28.4153 38.2165 28.6421 38.5108C30.3958 40.6607 32.8858 42.1701 35.5745 42.8107C38.9434 43.6894 42.4508 43.4753 45.904 43.4893Z" fill="#0CABCC"/>
<path d="M89.0216 35.3039C88.7668 36.0506 88.526 36.8113 88.0726 37.4538C87.1215 38.9492 85.5825 39.9641 83.9372 40.5386C80.8311 41.6997 77.4863 41.7797 74.2879 42.5004C72.6546 42.7947 70.9692 43.3411 69.7372 44.5042C70.4996 44.264 71.1959 43.8216 72.0125 43.7035C73.0559 43.4633 74.1414 43.5033 75.2109 43.4372C76.8161 43.5313 78.4233 43.5033 80.0285 43.6114C82.0631 43.6374 84.1378 43.5713 86.1042 42.9708C88.7407 42.2622 91.0703 40.5286 92.5952 38.2706C91.913 37.6961 91.2308 37.1356 90.5606 36.547C90.067 36.1046 89.5975 35.6382 89.0216 35.3039Z" fill="#0CABCC"/>
<path d="M85.6648 58.5688H38.4117V58.9572H85.6648V58.5688Z" fill="white"/>
<path d="M85.6668 61.2973H64.0207V66.7322H85.6668V61.2973Z" fill="#F0F0F0"/>
<path d="M60.0558 70.6877H38.4117V91H60.0558V70.6877Z" fill="#F0F0F0"/>
<path d="M60.0558 61.2973H38.4117V66.7322H60.0558V61.2973Z" fill="#F0F0F0"/>
<path d="M85.6668 70.6877H64.0207V91H85.6668V70.6877Z" fill="#F0F0F0"/>
<path d="M38.4117 58.9572V61.2973H60.0558V59.5717H64.0207V61.2973H85.6668V58.9572H38.4117Z" fill="#DBDBDA"/>
<path d="M64.0207 59.5717H60.0558V61.2973H64.0207V59.5717Z" fill="#0E98AA"/>
<path d="M64.0207 44.1919H60.0558V59.5717H64.0207V44.1919Z" fill="#0CABCC"/>
<path d="M64.0207 66.7322V61.2973H60.0558V66.7322H38.4117V70.6877H60.0558V91H64.0207V70.6877H85.6668V66.7322H64.0207Z" fill="#0CABCC"/>
<path d="M60.0558 44.1919H33.3854V59.5717H60.0558V44.1919Z" fill="#F0F0F0"/>
<path d="M90.6911 44.1919H64.0207V59.5717H90.6911V44.1919Z" fill="#F0F0F0"/>
<path d="M64.3738 42.8467C64.3738 43.7115 63.6715 44.4121 62.8047 44.4121H60.8223C59.9555 44.4121 59.2532 43.7115 59.2532 42.8467C59.2532 41.9819 59.9555 41.2813 60.8223 41.2813H62.8047C63.6715 41.2833 64.3738 41.9819 64.3738 42.8467Z" fill="#0E98AA"/>
</svg>
