<svg width="130" height="130" viewBox="0 0 130 130" fill="none" xmlns="http://www.w3.org/2000/svg">
<circle cx="66.5789" cy="66.5789" r="58.4211" fill="#CEECD3"/>
<circle cx="113.947" cy="11.3158" r="6.31579" fill="#76FD8C"/>
<circle cx="11.3158" cy="91.8422" r="6.31579" fill="#76FD8C"/>
<circle r="3.15789" transform="matrix(1 0 0 -1 14.4737 69.7369)" fill="white"/>
<circle r="2.36842" transform="matrix(1 0 0 -1 108.421 40.5263)" fill="white"/>
<circle cx="120.263" cy="101.316" r="3.15789" fill="#76FD8C"/>
<circle cx="104.474" cy="8.15793" r="1.57895" fill="#76FD8C"/>
<circle cx="119.474" cy="26.3158" r="2.36842" fill="#1BB934"/>
<circle cx="79.5" cy="50.5" r="28.5" fill="#DFF3E3"/>
<path fill-rule="evenodd" clip-rule="evenodd" d="M98.896 120.706C98.7663 120.603 98.6175 120.527 98.4582 120.481C98.2989 120.436 98.1322 120.423 97.9676 120.442C97.8031 120.461 97.6439 120.513 97.4991 120.593C97.3543 120.674 97.2267 120.782 97.1238 120.912C97.0208 121.042 96.9444 121.191 96.8989 121.351C96.8534 121.51 96.8398 121.677 96.8587 121.842C96.8777 122.006 96.9288 122.165 97.0093 122.31C97.0898 122.455 97.198 122.582 97.3278 122.685C97.5898 122.893 97.9238 122.988 98.2562 122.949C98.5885 122.91 98.8921 122.741 99.1001 122.478C99.308 122.216 99.4033 121.882 99.3651 121.549C99.3268 121.217 99.1581 120.913 98.896 120.706Z" fill="#BFC7D2"/>
<path d="M22.7247 11.4067L23.383 11.9287C23.5576 12.0672 23.67 12.2694 23.6954 12.491C23.7209 12.7125 23.6572 12.9352 23.5186 13.1101C23.3799 13.285 23.1776 13.3977 22.9561 13.4235C22.7346 13.4492 22.512 13.3859 22.3374 13.2475L21.6791 12.7255L21.1563 13.3849C21.0176 13.5598 20.8153 13.6725 20.5938 13.6983C20.3722 13.724 20.1497 13.6607 19.9751 13.5223C19.8005 13.3839 19.6881 13.1816 19.6627 12.9601C19.6373 12.7385 19.7009 12.5158 19.8395 12.3409L20.3623 11.6815L19.704 11.1595C19.5294 11.0211 19.417 10.8189 19.3916 10.5973C19.3661 10.3758 19.4297 10.153 19.5684 9.97816C19.7071 9.80328 19.9094 9.69056 20.1309 9.66479C20.3524 9.63902 20.575 9.70232 20.7496 9.84076L21.4079 10.3628L21.9307 9.70337C22.0694 9.52849 22.2717 9.41576 22.4932 9.39C22.7147 9.36423 22.9373 9.42753 23.1119 9.56597C23.2865 9.70441 23.3989 9.90665 23.4243 10.1282C23.4497 10.3498 23.3861 10.5725 23.2475 10.7473L22.7247 11.4067Z" fill="#BFC7D2"/>
<path d="M11.7247 25.4067L12.383 25.9287C12.5576 26.0672 12.67 26.2694 12.6954 26.491C12.7209 26.7125 12.6572 26.9352 12.5186 27.1101C12.3799 27.285 12.1776 27.3977 11.9561 27.4235C11.7346 27.4492 11.512 27.3859 11.3374 27.2475L10.6791 26.7255L10.1563 27.3849C10.0176 27.5598 9.81526 27.6725 9.59375 27.6983C9.37224 27.724 9.14972 27.6607 8.97511 27.5223C8.8005 27.3839 8.68811 27.1816 8.66269 26.9601C8.63726 26.7385 8.70088 26.5158 8.83954 26.3409C8.83954 26.3409 9.40031 26.008 9.36234 25.6815C9.32442 25.3556 8.70397 25.1595 8.70397 25.1595C8.52936 25.0211 8.41698 24.8189 8.39156 24.5973C8.36613 24.3758 8.42974 24.153 8.5684 23.9782C8.70705 23.8033 8.9094 23.6906 9.13091 23.6648C9.35242 23.639 9.57496 23.7023 9.74957 23.8408L10.4079 24.3628L10.9307 23.7034C11.0694 23.5285 11.2717 23.4158 11.4932 23.39C11.7147 23.3642 11.9373 23.4275 12.1119 23.566C12.2865 23.7044 12.3989 23.9066 12.4243 24.1282C12.4497 24.3498 12.3861 24.5725 12.2475 24.7473L11.7247 25.4067Z" fill="#BFC7D2"/>
<path d="M80.7132 102.263C80.6582 102.267 80.6033 102.271 80.5484 102.271H80.3751H46.375H46.2018C45.3187 102.271 44.5878 101.616 44.4652 100.767C44.3976 100.776 44.3342 100.784 44.2666 100.793L43.3371 102.897L43.2019 102.88L43.2611 102.888C43.2611 102.888 43.092 103.446 42.9653 103.429C42.8385 103.412 42.809 102.825 42.809 102.825L42.7287 102.812L42.4836 101.071C39.6063 101.574 37.9331 102.178 37.9331 102.825C37.9331 104.604 50.6171 106.049 66.2588 106.049C81.9004 106.049 94.5845 104.608 94.5845 102.825C94.5845 101.933 91.3987 101.126 86.2524 100.543L82.3103 103.429L80.7132 102.263Z" fill="#279A9C"/>
<path d="M63.3772 51.7381C64.1519 51.7381 64.78 51.11 64.78 50.3353C64.78 49.5606 64.1519 48.9326 63.3772 48.9326C62.6025 48.9326 61.9744 49.5606 61.9744 50.3353C61.9744 51.11 62.6025 51.7381 63.3772 51.7381Z" fill="white"/>
<path d="M82.8427 27.3545C82.8511 27.3714 82.8596 27.3925 82.868 27.4094C82.8596 27.3925 82.8511 27.3756 82.8427 27.3545Z" fill="#7E8283"/>
<path d="M82.8257 27.3291C82.7666 27.2193 82.6736 27.1306 82.5596 27.0756C82.6736 27.1348 82.7666 27.2235 82.8257 27.3291Z" fill="#7E8283"/>
<path d="M78.5161 48.7678L78.5245 48.7593L78.533 48.7678L77.4851 55.3886H77.9541C78.3301 53.0901 78.7146 50.7536 79.0907 48.4593C78.8118 48.4171 78.533 48.3833 78.2499 48.3537L77.0964 55.3929H77.4006L78.5161 48.7678Z" fill="#7E8283"/>
<path d="M81.4779 29.4882C81.63 29.5093 81.7779 29.5305 81.93 29.5558C81.9342 29.5558 81.9342 29.5558 81.9385 29.5558H81.9427C81.9511 29.5558 81.9596 29.56 81.968 29.56C81.9849 29.5643 82.0018 29.5643 82.0187 29.5685C82.023 29.5685 82.0272 29.5685 82.0314 29.5685C82.0399 29.5685 82.0483 29.5727 82.0525 29.5727C82.0948 29.5812 82.1413 29.5896 82.1835 29.5981C82.4244 28.1277 82.5638 27.2784 82.5638 27.2784C82.5765 27.2066 82.5722 27.139 82.5596 27.0714C82.5046 27.0418 82.4455 27.0207 82.3779 27.008C82.0356 26.9531 81.7061 27.1855 81.6511 27.532L81.3343 29.4629C81.385 29.4755 81.4314 29.4798 81.4779 29.4882Z" fill="#7E8283"/>
<path d="M79.0907 48.4636C78.7146 50.7578 78.3301 53.0944 77.9541 55.3929H78.3682C78.7442 53.1113 79.1203 50.8001 79.4921 48.5354C79.3822 48.5143 79.2724 48.4931 79.1583 48.4762C79.1372 48.472 79.1118 48.4678 79.0907 48.4636Z" fill="#565A5B"/>
<path d="M82.5638 27.2827C82.5638 27.2827 82.4244 28.1277 82.1835 29.6023C82.3187 29.6277 82.4539 29.6488 82.5849 29.6741C82.7877 28.4446 82.9018 27.7432 82.9018 27.7432C82.9103 27.7052 82.9103 27.6629 82.9103 27.6249C82.9103 27.6122 82.906 27.5996 82.906 27.5827C82.9018 27.5573 82.9018 27.5362 82.8976 27.5108C82.8934 27.4939 82.8891 27.477 82.8849 27.4601C82.8807 27.4432 82.8722 27.4263 82.868 27.4094C82.8596 27.3883 82.8511 27.3714 82.8427 27.3545C82.8384 27.346 82.8342 27.3376 82.83 27.3291C82.7666 27.2235 82.6779 27.1306 82.5638 27.0756C82.5722 27.1432 82.5765 27.2108 82.5638 27.2827Z" fill="#565A5B"/>
<path d="M83.3962 30.0671C89.1635 33.4261 88.1579 51.1212 88.1199 51.7719L90.4395 51.4381C93.3761 51.0156 96.3041 51.493 98.9449 52.8155C98.9406 52.8113 98.9364 52.8113 98.9322 52.8071C99.4392 42.5314 93.0211 33.2064 83.3962 30.0671Z" fill="#38375E"/>
<path d="M99.4096 53.0563C99.5702 53.1451 99.735 53.2338 99.8913 53.331C99.7307 53.2338 99.5702 53.1408 99.4096 53.0563Z" fill="#38375E"/>
<path d="M81.3554 29.5093C81.2371 29.484 81.1188 29.4502 81.0005 29.4248C81.1568 29.4417 81.3174 29.4629 81.4737 29.4882C81.4272 29.4798 81.3807 29.4755 81.3343 29.4671C69.8629 27.9164 59.1393 35.3866 56.3634 46.6002L57.6352 46.3256C60.7533 45.6538 63.9265 46.0087 66.7954 47.3481L69.922 48.8058C69.9981 48.4889 74.3458 29.4122 81.3554 29.5093ZM58.1971 43.7778L58.5605 43.0173C58.6788 42.7638 58.8013 42.506 58.9407 42.261C59.2112 41.7666 59.4689 41.2638 59.7689 40.7906C59.9168 40.5498 60.0604 40.3089 60.2125 40.0681L60.69 39.3667L60.9308 39.0203L61.1885 38.6865L61.7082 38.0189L62.2575 37.3767C62.3505 37.271 62.4392 37.1612 62.5364 37.0598L62.8279 36.7513C63.5969 35.9274 64.4419 35.1753 65.3292 34.4782C65.5532 34.3092 65.7686 34.1233 66.0053 33.9669L66.6982 33.481L67.4122 33.0289C67.6489 32.8768 67.8981 32.7458 68.1432 32.6022C69.1277 32.0529 70.1502 31.5755 71.2065 31.1783C72.2628 30.7854 73.3444 30.4642 74.4472 30.2319C75.55 30.0079 76.6696 29.8431 77.7935 29.8305L77.802 29.8389L77.7935 29.8474C76.6696 29.8685 75.5542 30.0417 74.4556 30.2783C73.3571 30.5192 72.2797 30.8487 71.2361 31.2501C70.1882 31.6515 69.1699 32.1332 68.1981 32.6909C67.9573 32.8346 67.7122 32.9698 67.4756 33.1219L66.77 33.5782L66.0855 34.0641C65.8532 34.2204 65.6419 34.4063 65.418 34.5753C64.5433 35.2725 63.7068 36.0288 62.9504 36.857L62.6589 37.1612C62.5617 37.2626 62.4772 37.3724 62.3843 37.4781L61.835 38.1161L61.3195 38.7794L61.0618 39.1132L60.8209 39.4597L60.3351 40.1484C60.1787 40.3808 60.0351 40.6216 59.883 40.8582C59.5745 41.3272 59.3083 41.8216 59.0337 42.3117C58.89 42.5525 58.7675 42.806 58.645 43.0595L58.2689 43.8116C58.0281 44.3186 57.8084 44.8341 57.5718 45.3454L57.5633 45.3496L57.5591 45.3411C57.7704 44.8172 57.9732 44.2933 58.1971 43.7778Z" fill="#38375E"/>
<path d="M88.0227 51.7719L88.0481 51.7846L88.0777 51.7803L88.0227 51.755C88.0227 51.7634 88.0227 51.7677 88.0227 51.7719Z" fill="#38375E"/>
<path d="M79.1625 48.472C78.0217 48.2861 76.8598 48.2438 75.6894 48.3368L69.9389 48.81L69.9516 48.8142L75.719 48.3368C76.5682 48.265 77.4133 48.2734 78.2499 48.3495C78.533 48.3748 78.8118 48.4086 79.0907 48.4551C79.1118 48.4678 79.1372 48.472 79.1625 48.472Z" fill="#38375E"/>
<path d="M81.9342 29.5558C81.93 29.5558 81.93 29.5558 81.9258 29.5558C81.93 29.5558 81.9342 29.5558 81.9385 29.5558C81.9385 29.5558 81.9385 29.5558 81.9342 29.5558Z" fill="#2F2D51"/>
<path d="M79.1625 48.472C79.2724 48.4889 79.3822 48.51 79.4963 48.5312C80.5103 48.7213 81.5075 49.0171 82.4708 49.4269L88.027 51.7761C88.027 51.7761 88.027 51.7719 88.027 51.7677C88.027 51.7634 88.027 51.7592 88.027 51.7508L86.6453 51.1677C86.7214 49.8198 87.5284 33.3669 82.1877 29.7079C81.9131 29.6361 81.6385 29.5685 81.3596 29.5093C74.35 29.4122 69.9981 48.4931 69.9262 48.81C69.9262 48.8142 69.9262 48.8185 69.9262 48.8185H69.9431L75.6936 48.3453C76.8556 48.2438 78.0217 48.2903 79.1625 48.472ZM74.3965 38.3062L74.2613 38.5935L74.1388 38.885L73.8937 39.4723C73.7331 39.8653 73.5599 40.254 73.4078 40.647L72.9642 41.8385C72.8205 42.2356 72.6599 42.6286 72.5332 43.0342L72.1276 44.2384C71.9966 44.6398 71.8487 45.0412 71.7304 45.4468C71.4853 46.258 71.2361 47.0692 70.9825 47.8805L70.9741 47.8847L70.9699 47.8763C71.1853 47.0566 71.4008 46.2327 71.6248 45.413L71.7093 45.1045L72.3895 42.975C72.5163 42.5694 72.6768 42.1765 72.8205 41.7751L73.2684 40.5793C73.4247 40.1822 73.6022 39.7977 73.7669 39.4047L74.0204 38.8174L74.1472 38.5259L74.2866 38.2386L74.8444 37.0936C74.9331 36.8992 75.0387 36.7133 75.1401 36.5274L75.757 35.4119L76.433 34.3303C76.5429 34.1486 76.6739 33.9796 76.7964 33.8064L77.164 33.2867C77.2865 33.1134 77.4302 32.9529 77.5612 32.7839C77.6964 32.6191 77.8231 32.4501 77.9668 32.2937L78.3978 31.8248C78.4696 31.7445 78.5414 31.6684 78.6217 31.5966L78.8541 31.3769C78.9343 31.3051 79.0062 31.229 79.0865 31.1614L79.3315 30.9586C79.6611 30.6882 80.0075 30.4389 80.3963 30.2572L80.4089 30.2614L80.4047 30.2741C80.0245 30.4558 79.678 30.7093 79.3569 30.9839L79.116 31.191C79.0358 31.2586 78.9639 31.3389 78.8879 31.4107L78.6597 31.6346C78.5837 31.7064 78.5076 31.7825 78.44 31.8628L78.0175 32.336C77.8738 32.4923 77.7513 32.6656 77.6203 32.8303C77.4936 32.9994 77.3541 33.1599 77.2316 33.3331L76.8682 33.8571C76.7499 34.0345 76.6189 34.1993 76.5133 34.3852L75.8542 35.4669L75.55 36.0246L75.25 36.5823C75.1486 36.7682 75.0472 36.9541 74.9584 37.1485L74.3965 38.3062Z" fill="#2F2D51"/>
<path d="M82.0272 29.5727C82.023 29.5727 82.0187 29.5727 82.0145 29.5727C82.0272 29.5727 82.0399 29.577 82.0525 29.5812C82.0441 29.5727 82.0356 29.5727 82.0272 29.5727Z" fill="#232042"/>
<path d="M83.3962 30.0671C82.999 29.9361 82.5976 29.8178 82.1877 29.7079C87.5284 33.3669 86.7214 49.8198 86.6453 51.1677L88.027 51.7508L88.0819 51.7761L88.1157 51.7888C88.1157 51.7888 88.1157 51.7803 88.1157 51.7677C88.1537 51.1212 89.1593 33.4261 83.3962 30.0671Z" fill="#232042"/>
<path d="M82.1835 29.5981C82.1413 29.5896 82.0948 29.5812 82.0525 29.5727C82.0399 29.5727 82.0272 29.5685 82.0145 29.5643C81.9976 29.5601 81.9807 29.5601 81.9638 29.5558C81.9554 29.5558 81.9469 29.5516 81.9385 29.5516C81.9342 29.5516 81.93 29.5516 81.9258 29.5516C81.7737 29.5262 81.6258 29.5051 81.4737 29.484C81.3174 29.4629 81.1568 29.4417 81.0005 29.4206C81.1188 29.446 81.2371 29.4755 81.3554 29.5051C81.6342 29.5685 81.9089 29.6319 82.1835 29.7037C82.5934 29.8136 82.9948 29.9319 83.3919 30.0628C93.0211 33.2022 99.435 42.5272 98.928 52.8028C98.9322 52.8071 98.9364 52.8071 98.9406 52.8113C99.097 52.8916 99.2533 52.9718 99.4054 53.0521C99.566 53.1408 99.7307 53.2296 99.8871 53.3268L100.791 53.8634C100.808 53.6817 100.821 53.4958 100.829 53.3141C101.425 43.0849 95.1506 33.7599 85.6609 30.4896C84.6679 30.1474 83.6412 29.8727 82.5807 29.6699C82.4539 29.6446 82.3187 29.6234 82.1835 29.5981Z" fill="#272547"/>
<path d="M57.5676 45.3454C57.7999 44.8341 58.0196 44.3144 58.2647 43.8116L58.6408 43.0595C58.7633 42.806 58.89 42.5567 59.0295 42.3117C59.3041 41.8216 59.5703 41.3272 59.8787 40.8582C60.0308 40.6216 60.1745 40.3808 60.3308 40.1484L60.8167 39.4597L61.0576 39.1132L61.3153 38.7794L61.8308 38.1161L62.38 37.4781C62.473 37.3724 62.5617 37.2626 62.6547 37.1612L62.9462 36.857C63.7025 36.0288 64.5349 35.2767 65.4137 34.5754C65.6377 34.4063 65.8489 34.2204 66.0813 34.0641L66.7658 33.5782L67.4714 33.1219C67.708 32.9698 67.9531 32.8346 68.1939 32.6909C69.1699 32.1374 70.184 31.6557 71.2318 31.2501C72.2797 30.8487 73.3571 30.5192 74.4514 30.2783C75.55 30.0417 76.6654 29.8685 77.7893 29.8474L77.7978 29.8389L77.7893 29.8305C76.6612 29.8431 75.5457 30.0037 74.443 30.2319C73.3402 30.4642 72.2585 30.7811 71.2022 31.1783C70.1459 31.5755 69.1235 32.0529 68.139 32.6022C67.8981 32.7458 67.6489 32.8768 67.408 33.0289L66.694 33.481L66.001 33.9669C65.7687 34.1233 65.5532 34.3092 65.325 34.4782C64.4377 35.1711 63.5927 35.9232 62.8237 36.7513L62.5322 37.0598C62.435 37.1612 62.3462 37.271 62.2533 37.3767L61.704 38.0189L61.1843 38.6865L60.9266 39.0203L60.6857 39.3667L60.2083 40.0681C60.0562 40.3047 59.9125 40.5498 59.7647 40.7906C59.4604 41.2681 59.2027 41.7666 58.9365 42.261C58.7971 42.506 58.6788 42.7595 58.5562 43.0173L58.1929 43.7778C57.9689 44.2933 57.7661 44.8172 57.5507 45.3369L57.5549 45.3454H57.5676Z" fill="white"/>
<path d="M75.2331 36.5908L75.5331 36.033L75.8373 35.4753L76.4964 34.3937C76.6063 34.212 76.733 34.043 76.8513 33.8655L77.2147 33.3416C77.3372 33.1684 77.4724 33.0078 77.6034 32.8388C77.7386 32.674 77.8612 32.5008 78.0006 32.3445L78.4231 31.8712C78.4907 31.791 78.5668 31.7149 78.6428 31.6431L78.871 31.4191C78.947 31.3473 79.0189 31.267 79.0991 31.1994L79.34 30.9924C79.6611 30.7178 80.0075 30.4642 80.3878 30.2826L80.392 30.2699L80.3794 30.2657C79.9906 30.4431 79.6442 30.6966 79.3146 30.967L79.0696 31.1698C78.985 31.2375 78.9132 31.3135 78.8372 31.3853L78.6048 31.605C78.5245 31.6769 78.4527 31.7529 78.3808 31.8332L77.9499 32.3022C77.8062 32.4585 77.6795 32.6318 77.5443 32.7923C77.4133 32.9613 77.2738 33.1219 77.1471 33.2951L76.7795 33.8148C76.6612 33.9923 76.526 34.1571 76.4161 34.3387L75.7401 35.4204L75.1232 36.5358C75.0176 36.7218 74.9162 36.9077 74.8275 37.102L74.2697 38.247L74.1303 38.5344L74.0036 38.8259L73.75 39.4132C73.5853 39.8061 73.4078 40.1906 73.2515 40.5878L72.8036 41.7835C72.6599 42.1849 72.4952 42.5779 72.3726 42.9835L71.6924 45.113L71.6079 45.4214C71.3839 46.2411 71.1642 47.0608 70.953 47.8847L70.9572 47.8932L70.9656 47.8889C71.2191 47.0777 71.4684 46.2665 71.7135 45.4552C71.8318 45.0454 71.9797 44.6482 72.1107 44.2468L72.5163 43.0426C72.6388 42.637 72.8036 42.2441 72.9473 41.8469L73.3909 40.6554C73.543 40.2582 73.712 39.8737 73.8768 39.4808L74.1219 38.8935L74.2444 38.602L74.3796 38.3146L74.9415 37.1569C75.0303 36.9626 75.1317 36.7767 75.2331 36.5908Z" fill="white"/>
<path d="M78.5245 48.7635L78.5161 48.7678L77.4006 55.3929L77.4809 55.3929L78.533 48.772L78.5245 48.7635Z" fill="white"/>
<path d="M67.2813 54.3619L66.1616 53.2423C66.4954 52.7226 66.694 52.1057 66.694 51.4423C66.694 49.6086 65.2067 48.1213 63.373 48.1213C61.5392 48.1213 60.052 49.6086 60.052 51.4423C60.052 52.1057 60.2463 52.7226 60.5843 53.2423L59.4647 54.3619H67.2813ZM63.3772 48.9326C64.1504 48.9326 64.78 49.5621 64.78 50.3353C64.78 51.1085 64.1504 51.7381 63.3772 51.7381C62.604 51.7381 61.9744 51.1085 61.9744 50.3353C61.9744 49.5579 62.5998 48.9326 63.3772 48.9326ZM60.6773 51.417C60.6857 51.6198 60.7407 51.8226 60.7829 52.0212C60.821 52.224 60.9055 52.4141 60.9604 52.6169C61.0407 52.8071 61.1252 53.0014 61.197 53.2L61.1928 53.2084L61.1843 53.2042C61.0702 53.0268 60.9646 52.8451 60.859 52.6592C60.8167 52.562 60.7787 52.4606 60.7364 52.3634C60.6984 52.262 60.6477 52.1691 60.6266 52.0634L60.5548 51.7508L60.5379 51.6705L60.5336 51.5902L60.521 51.4296C60.4956 51.2142 60.5252 50.9987 60.5463 50.7874C60.6139 50.3607 60.7871 49.9593 61.0322 49.6128C61.2815 49.2663 61.6026 48.979 61.9702 48.7678L61.9829 48.772L61.9787 48.7847C61.628 49.0128 61.3237 49.3128 61.0998 49.6593C60.8717 50.0058 60.7195 50.3987 60.6731 50.8043C60.6604 51.0071 60.6435 51.2142 60.6773 51.417Z" fill="#6E7072"/>
<path d="M80.3751 102.271H80.5484C80.6033 102.271 80.6582 102.267 80.7132 102.263L80.6878 102.242C80.5864 102.259 80.4808 102.271 80.3751 102.271Z" fill="#555457"/>
<path d="M44.6765 101.262C44.9807 101.464 45.3483 101.583 45.7455 101.583H79.7456C79.7583 101.583 79.7709 101.583 79.7836 101.583L78.8456 100.898H46.1595V89.9127L45.0483 97.8856L45.0272 100.053L45.0187 100.062L45.0103 100.053L44.9934 98.2997L44.8159 99.5588L44.4441 100.395V100.514C44.4441 100.598 44.4526 100.683 44.4652 100.767C44.5878 101.616 45.3187 102.271 46.2018 102.271H46.375C45.6441 102.271 45.0061 101.862 44.6765 101.262Z" fill="#555457"/>
<path d="M44.9554 78.6948L45.0103 57.3407L45.0187 57.3322L45.0272 57.3407L45.0821 78.6652L45.9187 72.6739L46.0032 72.0528L46.0624 71.643C46.0243 71.6176 45.999 71.5711 46.0074 71.5204C46.0159 71.474 46.0455 71.4402 46.0877 71.4233C46.1088 71.3599 46.1342 71.3007 46.1638 71.2458V56.2041H50.3847C50.6805 55.8619 51.0819 55.6168 51.5382 55.507C51.5551 55.4647 51.572 55.4267 51.5931 55.3886H46.2018C45.23 55.3886 44.4441 56.1745 44.4441 57.1463V83.2411L44.9511 79.599L44.9554 78.6948Z" fill="#555457"/>
<path d="M75.1908 55.4563C75.1993 55.4732 75.2077 55.4901 75.2162 55.5112C75.6725 55.6168 76.0697 55.8661 76.3697 56.2083H80.5906V69.5177L81.6765 69.1712V56.6351C81.6765 56.3013 81.592 55.9886 81.4441 55.714C81.9638 56.0605 82.3061 56.652 82.3061 57.3238V57.1506C82.3061 56.1788 81.5202 55.3929 80.5484 55.3929H78.3682H77.9541H75.1655C75.1697 55.4056 75.1782 55.4182 75.1824 55.4309C75.1824 55.4394 75.1866 55.4478 75.1908 55.4563Z" fill="#555457"/>
<path d="M79.7836 101.583C79.7709 101.583 79.7583 101.583 79.7456 101.583H45.7455C45.3483 101.583 44.9849 101.464 44.6765 101.262C45.0018 101.862 45.6398 102.271 46.375 102.271H80.3751C80.4808 102.271 80.5864 102.259 80.6878 102.242L79.7836 101.583Z" fill="#424244"/>
<path d="M81.4441 55.714C81.592 55.9886 81.6765 56.3013 81.6765 56.6351V69.167L82.3061 68.9642V57.3238C82.3061 56.652 81.9638 56.0605 81.4441 55.714Z" fill="#424244"/>
<path d="M52.2734 94.8815C52.2185 94.9576 52.134 95.004 52.041 95.0125H52.0157C51.9311 95.0125 51.8509 94.9787 51.7917 94.9195L50.7481 93.8886C50.6213 93.7661 50.6213 93.5633 50.7439 93.4365C50.8664 93.3097 51.0692 93.3097 51.196 93.4323L51.9734 94.2013L53.7311 91.7718C53.6085 91.6915 53.4649 91.6408 53.3043 91.6408H50.8326C50.4101 91.6408 50.0678 91.983 50.0678 92.4056V94.8773C50.0678 95.2998 50.4101 95.642 50.8326 95.642H53.3043C53.7269 95.642 54.0691 95.2998 54.0691 94.8773V92.4013L52.2734 94.8815Z" fill="white"/>
<path d="M50.7312 85.1171C50.3678 85.1171 50.0763 85.4129 50.0763 85.772V88.455C50.0763 88.8184 50.372 89.1099 50.7312 89.1099H53.4142C53.7776 89.1099 54.0691 88.8141 54.0691 88.455V85.7889L52.2734 88.2691C52.2185 88.3451 52.134 88.3916 52.041 88.4001H52.0157C51.9311 88.4001 51.8509 88.3663 51.7917 88.3071L50.7481 87.2762C50.6213 87.1536 50.6213 86.9508 50.7439 86.8241C50.8664 86.6973 51.0692 86.6973 51.196 86.8199L51.9734 87.5888L53.71 85.1889C53.6212 85.1425 53.5198 85.1129 53.4142 85.1129H50.7312V85.1171Z" fill="white"/>
<path d="M50.6382 57.6533C50.6382 58.4266 51.2678 59.0561 52.041 59.0561H74.7092C75.4824 59.0561 76.1119 58.4266 76.1119 57.6533C76.1119 57.1083 75.7993 56.6351 75.3429 56.4027C75.2458 57.3322 74.4599 58.0547 73.5092 58.0547H53.2452C53.2283 58.0547 53.2283 58.0547 53.2283 58.0547C52.2818 58.0463 51.5044 57.328 51.4072 56.4069C50.9509 56.6351 50.6382 57.1083 50.6382 57.6533Z" fill="white"/>
<path d="M49.2524 73.4471C49.1552 73.4091 49.0749 73.333 49.0284 73.2401C49.02 73.2359 49.0115 73.2359 48.9989 73.2316L48.4961 73.1598L47.106 83.1439C48.0693 81.813 48.851 77.3597 49.265 73.5697C49.2693 73.5316 49.265 73.4894 49.2524 73.4471Z" fill="white"/>
<path d="M59.245 64.0292H58.9914V64.5996H59.245C59.3337 64.5996 59.4097 64.5911 59.4689 64.57C59.528 64.5531 59.5745 64.5193 59.6083 64.477C59.6421 64.4348 59.6548 64.3799 59.6548 64.308C59.6548 64.2235 59.6294 64.1601 59.583 64.1052C59.528 64.0587 59.414 64.0292 59.245 64.0292Z" fill="white"/>
<path d="M63.018 62.0222C63.0814 62.0053 63.1279 61.9799 63.1617 61.9419C63.1955 61.9039 63.2124 61.8532 63.2124 61.7856C63.2124 61.7349 63.1997 61.6884 63.1744 61.6462C63.149 61.6081 63.111 61.5786 63.0645 61.5574C63.0223 61.5405 62.9335 61.5279 62.8026 61.5279H62.4519V62.0433H62.7899C62.8786 62.0476 62.9547 62.0391 63.018 62.0222Z" fill="white"/>
<path d="M47.5412 70.5233C48.1919 70.612 48.6608 71.1571 48.6904 71.7908C48.72 71.8162 48.7411 71.8584 48.7369 71.9007C48.7327 71.9429 48.6989 71.9767 48.6608 71.9979L48.6144 72.3317L49.1129 72.4035C49.3115 72.4331 49.489 72.5091 49.6369 72.619H59.1985C59.4351 72.619 59.6294 72.8133 59.6294 73.0499C59.6294 73.2866 59.4351 73.4809 59.1985 73.4809H50.0974C50.1016 73.5443 50.1016 73.6034 50.0932 73.6668C50.0045 74.4738 49.8608 75.6442 49.6664 76.9118H62.8617C63.1279 76.9118 63.3476 77.1315 63.3476 77.3977C63.3476 77.6639 63.1279 77.8836 62.8617 77.8836H49.5059C49.0918 80.2835 48.4834 82.7932 47.6722 83.7735C47.575 83.8876 47.4313 83.9383 47.2919 83.9214C47.2158 83.9129 47.144 83.8791 47.0849 83.8284C47.0595 83.8073 47.0384 83.7819 47.0172 83.7566L46.1595 89.9085V100.894L54.2339 98.9588C58.9196 97.8349 63.1702 95.7054 66.7785 92.8238H56.1183C55.9071 92.8238 55.7338 92.6506 55.7338 92.4394C55.7338 92.2281 55.9071 92.0549 56.1183 92.0549H67.708C68.2446 91.5901 68.7685 91.1084 69.2713 90.6098C68.6925 89.1564 68.308 87.6226 68.139 86.0424H56.1183C55.9071 86.0424 55.7338 85.8692 55.7338 85.6579C55.7338 85.4467 55.9071 85.2734 56.1183 85.2734H68.0756C68.0545 84.9143 68.0418 84.5509 68.0418 84.1875V82.3538H61.4294C61.1928 82.3538 60.9984 82.1595 60.9984 81.9228C60.9984 81.6862 61.1928 81.4919 61.4294 81.4919H68.0418V80.0595H66.2376C66.001 80.0595 65.8067 79.8652 65.8067 79.6286C65.8067 79.392 66.001 79.1976 66.2376 79.1976H68.0418V77.8878H65.6081C65.3419 77.8878 65.1222 77.6681 65.1222 77.4019C65.1222 77.1357 65.3419 76.916 65.6081 76.916H68.0418V75.5977H55.7042C55.4676 75.5977 55.2733 75.4034 55.2733 75.1668C55.2733 74.9302 55.4676 74.7358 55.7042 74.7358H68.0418V73.5274L68.1981 73.4767H61.4843C61.2477 73.4767 61.0533 73.2823 61.0533 73.0457C61.0533 72.8091 61.2477 72.6147 61.4843 72.6147H70.8811L75.3556 71.1824H66.2926C66.056 71.1824 65.8616 70.988 65.8616 70.7514C65.8616 70.5148 66.056 70.3205 66.2926 70.3205H77.1091C77.2527 70.3205 77.3837 70.3923 77.4598 70.5064L78.7949 70.0796L80.5864 56.1999H76.3654C76.7034 56.5886 76.9105 57.0914 76.9105 57.6449C76.9105 58.8618 75.9218 59.8504 74.7049 59.8504H52.041C50.8241 59.8504 49.8354 58.8618 49.8354 57.6449C49.8354 57.0914 50.0425 56.5886 50.3805 56.1999H46.1595V71.2416C46.413 70.7514 46.9581 70.443 47.5412 70.5233ZM52.4424 79.2018H55.7634C56 79.2018 56.1944 79.3962 56.1944 79.6328C56.1944 79.8694 56 80.0638 55.7634 80.0638H52.4424C52.2058 80.0638 52.0114 79.8694 52.0114 79.6328C52.0114 79.3962 52.2058 79.2018 52.4424 79.2018ZM54.7071 85.7762V88.4592C54.7071 89.1733 54.124 89.7564 53.41 89.7564H50.7312C50.0171 89.7564 49.4341 89.1733 49.4341 88.4592V85.7762C49.4341 85.0622 50.0171 84.4791 50.7312 84.4791H53.4142C53.6635 84.4791 53.8916 84.5509 54.0902 84.6692L55.0198 83.3848C55.1254 83.2411 55.324 83.2073 55.4676 83.3129C55.6113 83.4186 55.6409 83.6171 55.5395 83.7608L54.5423 85.134C54.6479 85.3241 54.7071 85.5438 54.7071 85.7762ZM54.7071 94.8773C54.7071 95.6505 54.0775 96.2801 53.3043 96.2801H50.8326C50.0594 96.2801 49.4298 95.6505 49.4298 94.8773V92.4055C49.4298 91.6323 50.0594 91.0028 50.8326 91.0028H53.3043C53.6001 91.0028 53.879 91.0957 54.1071 91.2563L55.0155 89.9972C55.1212 89.8535 55.3197 89.8197 55.4634 89.9254C55.6071 90.031 55.6366 90.2296 55.5352 90.3732L54.5423 91.7464C54.6479 91.945 54.7071 92.1689 54.7071 92.4098V94.8773ZM56.1183 93.897H63.1533C63.3645 93.897 63.5377 94.0703 63.5377 94.2815C63.5377 94.4928 63.3645 94.666 63.1533 94.666H56.1183C55.9071 94.666 55.7338 94.4928 55.7338 94.2815C55.7338 94.0703 55.9071 93.897 56.1183 93.897ZM56.1183 87.1156H63.1533C63.3645 87.1156 63.5377 87.2888 63.5377 87.5001C63.5377 87.7114 63.3645 87.8846 63.1533 87.8846H56.1183C55.9071 87.8846 55.7338 87.7114 55.7338 87.5001C55.7338 87.2888 55.9071 87.1156 56.1183 87.1156ZM59.1393 82.3496H49.3538C49.1172 82.3496 48.9228 82.1552 48.9228 81.9186C48.9228 81.682 49.1172 81.4877 49.3538 81.4877H59.1393C59.3759 81.4877 59.5703 81.682 59.5703 81.9186C59.5703 82.1552 59.3759 82.3496 59.1393 82.3496ZM64.2645 79.6328C64.2645 79.8694 64.0701 80.0638 63.8335 80.0638H58.1675C57.9309 80.0638 57.7366 79.8694 57.7366 79.6328C57.7366 79.3962 57.9309 79.2018 58.1675 79.2018H63.8335C64.0701 79.2018 64.2645 79.3962 64.2645 79.6328ZM63.8884 70.3289C64.1251 70.3289 64.3194 70.5233 64.3194 70.7599C64.3194 70.9965 64.1251 71.1909 63.8884 71.1909H58.2225C57.9858 71.1909 57.7915 70.9965 57.7915 70.7599C57.7915 70.5233 57.9858 70.3289 58.2225 70.3289H63.8884ZM52.5015 70.3289H55.8225C56.0592 70.3289 56.2535 70.5233 56.2535 70.7599C56.2535 70.9965 56.0592 71.1909 55.8225 71.1909H52.5015C52.2649 71.1909 52.0706 70.9965 52.0706 70.7599C52.0706 70.5233 52.2649 70.3289 52.5015 70.3289Z" fill="white"/>
<path d="M64.6785 61.6166L64.3997 62.3898H64.9616L64.6785 61.6166Z" fill="white"/>
<path d="M78.7991 70.0881L80.5906 69.5177V56.2083L78.7991 70.0881Z" fill="#DEDEDE"/>
<path d="M54.2381 98.9631L46.1638 100.898H78.8498L75.5669 98.4983H63.9476C63.8589 98.4983 63.787 98.4265 63.787 98.3377C63.787 98.249 63.8589 98.1772 63.9476 98.1772H75.1275C73.1501 96.7279 71.536 94.8984 70.3488 92.8281H66.7827C63.1744 95.7097 58.9196 97.8392 54.2381 98.9631Z" fill="#DEDEDE"/>
<path d="M69.9305 92.0506C69.6896 91.5816 69.4741 91.1 69.2756 90.6056C68.7685 91.1042 68.2488 91.5859 67.7122 92.0506H69.9305Z" fill="#DEDEDE"/>
<path d="M52.041 59.8547H74.7092C75.926 59.8547 76.9147 58.866 76.9147 57.6491C76.9147 57.0956 76.7077 56.5928 76.3697 56.2041C76.0739 55.8619 75.6725 55.6168 75.2162 55.5069C75.2289 55.5365 75.2373 55.5661 75.2458 55.5915C75.25 55.6041 75.2542 55.6168 75.2584 55.6295C75.2711 55.676 75.2838 55.7182 75.2965 55.7647C75.3007 55.7816 75.3049 55.7985 75.3091 55.8154C75.3176 55.8619 75.326 55.9083 75.3303 55.9548C75.3345 55.9717 75.3345 55.9886 75.3387 56.0055C75.3472 56.0689 75.3472 56.1365 75.3472 56.1999C75.3472 56.2675 75.3429 56.3309 75.3345 56.3942C75.7908 56.6266 76.1035 57.0998 76.1035 57.6449C76.1035 58.4181 75.4739 59.0477 74.7007 59.0477H52.041C51.2678 59.0477 50.6382 58.4181 50.6382 57.6449C50.6382 57.0998 50.9509 56.6266 51.4072 56.3942C51.3988 56.3309 51.3945 56.2633 51.3945 56.1999C51.3945 55.9548 51.4452 55.7182 51.5298 55.5027C51.0734 55.6084 50.6763 55.8576 50.3763 56.1999C50.0383 56.5886 49.8312 57.0914 49.8312 57.6449C49.8397 58.866 50.8284 59.8547 52.041 59.8547ZM50.1946 57.6449L50.2115 57.5012C50.2368 57.3111 50.2833 57.1252 50.3551 56.9477C50.4946 56.5928 50.7227 56.2675 51.0354 56.0478H51.0481V56.0605C50.7439 56.2844 50.5242 56.6097 50.3974 56.9604C50.3298 57.1379 50.2875 57.3196 50.2664 57.5055L50.2495 57.6449L50.2453 57.7843C50.2368 57.8773 50.2537 57.9702 50.258 58.0632C50.258 58.1097 50.2749 58.1519 50.2833 58.1984C50.296 58.2449 50.3002 58.2914 50.3213 58.3336C50.3594 58.4181 50.389 58.5068 50.4439 58.5829C50.5368 58.7434 50.6678 58.8787 50.8115 58.9927C51.0988 59.2209 51.4579 59.373 51.8128 59.4533L55.7127 59.4195C56.3634 59.4195 57.0141 59.4279 57.669 59.4406C58.3196 59.4533 58.9703 59.4702 59.6252 59.4955L59.6337 59.504L59.6252 59.5124C58.9745 59.5378 58.3239 59.5589 57.669 59.5674C57.0183 59.5758 56.3676 59.5885 55.7127 59.5885L51.8044 59.5547H51.7917C51.4157 59.4617 51.0565 59.3054 50.7523 59.0561C50.6763 58.997 50.6087 58.9251 50.5411 58.8575C50.4819 58.7815 50.4185 58.7054 50.372 58.6209C50.3171 58.5406 50.2875 58.4477 50.2495 58.3547C50.2326 58.3083 50.2242 58.2618 50.2115 58.2153C50.203 58.1688 50.1861 58.1223 50.1861 58.0716C50.1819 57.9745 50.1692 57.8773 50.1777 57.7843L50.1946 57.6449Z" fill="#47494A"/>
<path d="M74.8782 54.9788C74.9204 55.0253 74.9584 55.0718 74.9922 55.1182C74.9584 55.0675 74.9204 55.0211 74.8782 54.9788Z" fill="#6E7072"/>
<path d="M75.1782 55.4267C75.1739 55.414 75.1655 55.4013 75.1613 55.3886C75.1443 55.3506 75.1232 55.3168 75.1063 55.283C75.1317 55.3337 75.157 55.3802 75.1782 55.4267Z" fill="#6E7072"/>
<path d="M75.1908 55.4563C75.212 55.5027 75.2289 55.5492 75.2458 55.5957C75.2373 55.5661 75.2246 55.5365 75.2162 55.5112C75.2077 55.4901 75.1993 55.4732 75.1908 55.4563Z" fill="#6E7072"/>
<path d="M51.3988 56.2083C51.3988 56.2759 51.403 56.3393 51.4114 56.4027C51.5086 57.3238 52.2861 58.0463 53.2325 58.0505C53.3424 58.0294 73.0825 57.4717 73.0825 57.4717C74.1007 57.4717 74.9289 56.6435 74.9289 55.6253C74.9289 55.3464 74.8655 55.0802 74.7514 54.8394C74.4218 54.5394 73.9909 54.3577 73.5134 54.3577H53.2452C52.5184 54.3577 51.8931 54.7802 51.5931 55.3886C51.572 55.4267 51.5551 55.4647 51.5382 55.507C51.4452 55.7267 51.3988 55.9591 51.3988 56.2083ZM52.0917 55.2281C52.2058 55.0718 52.3663 54.9535 52.5396 54.869C52.6283 54.8309 52.717 54.7929 52.8142 54.776L52.9536 54.7422L53.0973 54.7295C53.1945 54.7168 53.2874 54.7168 53.3804 54.7168H55.362C56.1183 54.7168 56.8704 54.7084 57.6267 54.7295C58.383 54.7549 59.1351 54.776 59.8914 54.8309L59.8999 54.8394L59.8914 54.8478C59.1351 54.8859 58.3788 54.8859 57.6267 54.8943C56.8704 54.8943 56.1183 54.869 55.362 54.8521L53.6635 54.814L53.3804 54.8056C53.2874 54.8014 53.1903 54.8014 53.1015 54.8098L52.9621 54.8183L52.8269 54.8436C52.7339 54.8563 52.6494 54.8943 52.5649 54.9239C52.4001 54.9999 52.2396 55.1056 52.1297 55.2534C51.9016 55.545 51.8086 55.9337 51.8213 56.3055L51.8128 56.314L51.8044 56.3055C51.7833 55.9379 51.8593 55.5408 52.0917 55.2281Z" fill="#6E7072"/>
<path d="M75.2965 55.7731C75.2838 55.7267 75.2753 55.6802 75.2584 55.6379C75.2753 55.6802 75.288 55.7267 75.2965 55.7731Z" fill="#6E7072"/>
<path d="M75.3345 55.959C75.3303 55.9126 75.3218 55.8661 75.3134 55.8196C75.3218 55.8661 75.326 55.9126 75.3345 55.959Z" fill="#6E7072"/>
<path d="M74.9246 55.6253C74.9246 56.6435 74.0965 57.4717 73.0782 57.4717C73.0782 57.4717 53.3381 58.0294 53.2283 58.0505C53.2241 58.0505 53.2283 58.0505 53.2452 58.0505H73.505C74.4599 58.0505 75.2415 57.328 75.3387 56.3985C75.3472 56.3351 75.3514 56.2675 75.3514 56.2041C75.3514 56.1365 75.3472 56.0731 75.3429 56.0098C75.3429 55.9929 75.3387 55.9759 75.3345 55.959C75.3303 55.9126 75.3218 55.8661 75.3134 55.8196C75.3091 55.8027 75.3049 55.7858 75.3007 55.7689C75.288 55.7224 75.2796 55.676 75.2627 55.6337C75.2584 55.621 75.2542 55.6084 75.25 55.5957C75.2331 55.5492 75.2162 55.5027 75.1951 55.4562C75.1908 55.4478 75.1866 55.4394 75.1824 55.4267C75.1613 55.376 75.1359 55.3295 75.1063 55.283C75.1021 55.2788 75.0979 55.2703 75.0979 55.2661C75.0683 55.2154 75.0387 55.1689 75.0049 55.1225C75.0049 55.1182 75.0007 55.1182 75.0007 55.114C74.9669 55.0633 74.9289 55.0168 74.8866 54.9746C74.8866 54.9746 74.8866 54.9746 74.8866 54.9704C74.8444 54.9239 74.8021 54.8816 74.7556 54.8394C74.857 55.0802 74.9246 55.3464 74.9246 55.6253Z" fill="#5A5C5D"/>
<path d="M52.5015 71.1909H55.8225C56.0592 71.1909 56.2535 70.9965 56.2535 70.7599C56.2535 70.5233 56.0592 70.3289 55.8225 70.3289H52.5015C52.2649 70.3289 52.0706 70.5233 52.0706 70.7599C52.0706 70.9965 52.2649 71.1909 52.5015 71.1909Z" fill="#B3BEC5"/>
<path d="M57.7957 70.7599C57.7957 70.9965 57.9901 71.1909 58.2267 71.1909H63.8927C64.1293 71.1909 64.3236 70.9965 64.3236 70.7599C64.3236 70.5233 64.1293 70.3289 63.8927 70.3289L58.2225 70.3289C57.9858 70.3289 57.7957 70.5233 57.7957 70.7599Z" fill="#B3BEC5"/>
<path d="M77.1133 70.3289H66.2968C66.0602 70.3289 65.8658 70.5233 65.8658 70.7599C65.8658 70.9965 66.0602 71.1909 66.2968 71.1909H75.3598L77.4682 70.5191C77.3879 70.405 77.2569 70.3289 77.1133 70.3289Z" fill="#B3BEC5"/>
<path d="M50.0552 73.219C50.0805 73.3035 50.089 73.388 50.0974 73.4767H59.1985C59.4351 73.4767 59.6294 73.2823 59.6294 73.0457C59.6294 72.8091 59.4351 72.6148 59.1985 72.6148H49.6369C49.8354 72.7669 49.9876 72.9781 50.0552 73.219Z" fill="#B3BEC5"/>
<path d="M49.2524 73.4471C49.2186 73.3457 49.1383 73.2654 49.0284 73.2401C49.0749 73.333 49.1552 73.4091 49.2524 73.4471Z" fill="#B3BEC5"/>
<path d="M61.0576 73.0499C61.0576 73.2866 61.2519 73.4809 61.4885 73.4809H68.1981L70.8811 72.6232H61.4843C61.2519 72.619 61.0576 72.8133 61.0576 73.0499Z" fill="#B3BEC5"/>
<path d="M52.4424 80.0595H55.7634C56 80.0595 56.1944 79.8652 56.1944 79.6286C56.1944 79.392 56 79.1976 55.7634 79.1976H52.4424C52.2058 79.1976 52.0114 79.392 52.0114 79.6286C52.0114 79.8652 52.2058 80.0595 52.4424 80.0595Z" fill="#B3BEC5"/>
<path d="M57.7366 79.6328C57.7366 79.8694 57.9309 80.0638 58.1675 80.0638H63.8335C64.0701 80.0638 64.2645 79.8694 64.2645 79.6328C64.2645 79.3962 64.0701 79.2018 63.8335 79.2018H58.1675C57.9309 79.2018 57.7366 79.3962 57.7366 79.6328Z" fill="#B3BEC5"/>
<path d="M66.2376 79.2018C66.001 79.2018 65.8067 79.3962 65.8067 79.6328C65.8067 79.8694 66.001 80.0638 66.2376 80.0638H68.0418V79.2061H66.2376V79.2018Z" fill="#B3BEC5"/>
<path d="M59.1393 81.4919H49.3538C49.1172 81.4919 48.9228 81.6862 48.9228 81.9229C48.9228 82.1595 49.1172 82.3538 49.3538 82.3538H59.1393C59.3759 82.3538 59.5703 82.1595 59.5703 81.9229C59.5703 81.6862 59.3759 81.4919 59.1393 81.4919Z" fill="#B3BEC5"/>
<path d="M60.9984 81.9228C60.9984 82.1595 61.1928 82.3538 61.4294 82.3538H68.0418V81.4961H61.4294C61.1928 81.4919 60.9984 81.6862 60.9984 81.9228Z" fill="#B3BEC5"/>
<path d="M55.7042 74.74C55.4676 74.74 55.2733 74.9344 55.2733 75.171C55.2733 75.4076 55.4676 75.602 55.7042 75.602H68.0418V74.7443H55.7042V74.74Z" fill="#B3BEC5"/>
<path d="M62.8617 77.8878C63.1279 77.8878 63.3476 77.6681 63.3476 77.4019C63.3476 77.1357 63.1279 76.916 62.8617 76.916H49.6664C49.6157 77.2371 49.565 77.5625 49.5059 77.8878H62.8617Z" fill="#B3BEC5"/>
<path d="M65.6081 76.9118C65.3419 76.9118 65.1222 77.1315 65.1222 77.3977C65.1222 77.6639 65.3419 77.8836 65.6081 77.8836H68.0418V76.9118H65.6081Z" fill="#B3BEC5"/>
<path d="M54.0691 88.455C54.0691 88.8184 53.7733 89.1099 53.4142 89.1099H50.7312C50.3678 89.1099 50.0763 88.8141 50.0763 88.455V85.772C50.0763 85.4086 50.372 85.1171 50.7312 85.1171H53.4142C53.5198 85.1171 53.6212 85.1467 53.71 85.1932L54.0902 84.6692C53.8916 84.5467 53.6635 84.4791 53.4142 84.4791H50.7312C50.0171 84.4791 49.4341 85.0622 49.4341 85.7762V88.4592C49.4341 89.1733 50.0171 89.7564 50.7312 89.7564L53.4142 89.7564C54.1282 89.7564 54.7113 89.1733 54.7113 88.4592V85.7762C54.7113 85.5438 54.6479 85.3284 54.5423 85.1382L54.0691 85.7889V88.455Z" fill="#5170A4"/>
<path d="M54.5423 91.7464L54.0691 92.4013V94.8773C54.0691 95.2998 53.7269 95.642 53.3043 95.642H50.8326C50.4101 95.642 50.0678 95.2998 50.0678 94.8773V92.4056C50.0678 91.983 50.4101 91.6408 50.8326 91.6408H53.3043C53.4607 91.6408 53.6085 91.6873 53.7311 91.7718L54.1071 91.2521C53.879 91.0915 53.6043 90.9986 53.3043 90.9986H50.8326C50.0594 90.9986 49.4298 91.6281 49.4298 92.4013V94.8731C49.4298 95.6463 50.0594 96.2758 50.8326 96.2758H53.3043C54.0775 96.2758 54.7071 95.6463 54.7071 94.8731V92.4013C54.7071 92.1689 54.6479 91.9408 54.5423 91.7464Z" fill="#5170A4"/>
<path d="M63.787 98.3335C63.787 98.4222 63.8589 98.4941 63.9476 98.4941H75.5669L75.1486 98.1898C75.1401 98.1856 75.1359 98.1772 75.1275 98.1729H63.9476C63.8589 98.1729 63.787 98.2448 63.787 98.3335Z" fill="#5170A4"/>
<path d="M55.7338 85.6579C55.7338 85.8692 55.9071 86.0424 56.1183 86.0424L68.1432 86.0424C68.1136 85.7847 68.0925 85.5269 68.0756 85.2692H56.1183C55.9071 85.2692 55.7338 85.4424 55.7338 85.6579Z" fill="#B3BEC5"/>
<path d="M56.1183 87.8888H63.1533C63.3645 87.8888 63.5377 87.7156 63.5377 87.5043C63.5377 87.2931 63.3645 87.1198 63.1533 87.1198H56.1183C55.9071 87.1198 55.7338 87.2931 55.7338 87.5043C55.7338 87.7156 55.9071 87.8888 56.1183 87.8888Z" fill="#B3BEC5"/>
<path d="M56.1183 92.0506C55.9071 92.0506 55.7338 92.2239 55.7338 92.4351C55.7338 92.6464 55.9071 92.8196 56.1183 92.8196H70.3445C70.1966 92.5661 70.0572 92.3084 69.9262 92.0464H56.1183V92.0506Z" fill="#B3BEC5"/>
<path d="M56.1183 94.6703H63.1533C63.3645 94.6703 63.5377 94.497 63.5377 94.2858C63.5377 94.0745 63.3645 93.9013 63.1533 93.9013H56.1183C55.9071 93.9013 55.7338 94.0745 55.7338 94.2858C55.7338 94.497 55.9071 94.6703 56.1183 94.6703Z" fill="#B3BEC5"/>
<path d="M55.4634 83.3129C55.3197 83.2073 55.1212 83.2411 55.0155 83.3848L54.086 84.6692L53.7057 85.1932L51.9692 87.5931L51.1917 86.8241C51.065 86.7015 50.8622 86.7015 50.7396 86.8283C50.6171 86.9551 50.6171 87.1579 50.7439 87.2804L51.7875 88.3113C51.8466 88.3705 51.9269 88.4043 52.0114 88.4043H52.0368C52.1297 88.3958 52.2142 88.3494 52.2692 88.2733L54.0691 85.7889L54.5423 85.1382L55.5395 83.765C55.6409 83.6172 55.6071 83.4186 55.4634 83.3129Z" fill="#5170A4"/>
<path d="M51.9734 94.2013L51.196 93.4323C51.0692 93.3097 50.8664 93.3097 50.7439 93.4365C50.6213 93.5633 50.6213 93.7661 50.7481 93.8886L51.7917 94.9195C51.8509 94.9787 51.9311 95.0125 52.0157 95.0125H52.041C52.134 95.004 52.2185 94.9576 52.2734 94.8815L54.0691 92.4013L54.5423 91.7464L55.5352 90.3732C55.6409 90.2296 55.6071 90.031 55.4634 89.9254C55.3197 89.8197 55.1212 89.8535 55.0155 89.9972L54.1071 91.2563L51.9734 94.2013Z" fill="#5170A4"/>
<path d="M61.0956 49.6551C61.3195 49.3086 61.6237 49.0086 61.9744 48.7804L61.9787 48.7678L61.966 48.7635C61.6026 48.9748 61.2773 49.2621 61.028 49.6086C60.7787 49.955 60.6055 50.3564 60.5421 50.7832C60.521 50.9944 60.4914 51.2099 60.5167 51.4254L60.5294 51.586L60.5336 51.6663L60.5505 51.7465L60.6224 52.0592C60.6435 52.1648 60.6942 52.262 60.7322 52.3592C60.7745 52.4564 60.8083 52.5578 60.8548 52.6549C60.9562 52.8409 61.066 53.0225 61.1801 53.2L61.1885 53.2042L61.1928 53.1958C61.1209 52.9972 61.0364 52.8071 60.9562 52.6127C60.9012 52.4099 60.8167 52.2198 60.7787 52.0169C60.7364 51.8141 60.6857 51.6155 60.6731 51.4127C60.6393 51.2099 60.6604 51.0029 60.6688 50.8001C60.7195 50.3945 60.8717 50.0015 61.0956 49.6551Z" fill="white"/>
<path d="M51.8044 56.314L51.8128 56.3224L51.8213 56.314C51.8086 55.9421 51.8973 55.5534 52.1297 55.2619C52.2438 55.114 52.4001 55.0084 52.5649 54.9323C52.6494 54.8985 52.7339 54.8647 52.8269 54.852L52.9621 54.8267L53.1015 54.8182C53.1945 54.8098 53.2874 54.8098 53.3804 54.814L53.6635 54.8225L55.362 54.8605C56.1183 54.8774 56.8704 54.907 57.6267 54.9028C58.383 54.8985 59.1351 54.8943 59.8914 54.8563L59.8999 54.8478L59.8914 54.8394C59.1393 54.7844 58.383 54.7633 57.6267 54.738C56.8704 54.7168 56.1183 54.7253 55.362 54.7253H53.3804C53.2874 54.7253 53.1903 54.7253 53.0973 54.738L52.9536 54.7506L52.8142 54.7844C52.717 54.8013 52.6283 54.8394 52.5396 54.8774C52.3663 54.9619 52.2058 55.0802 52.0917 55.2365C51.8593 55.5408 51.7833 55.9379 51.8044 56.314Z" fill="white"/>
<path d="M45.0103 100.049L45.0187 100.057L45.0272 100.049L45.0483 97.8814L44.9934 98.2955L45.0103 100.049Z" fill="white"/>
<path d="M45.0187 57.3322L45.0103 57.3407L44.9554 78.6948L44.9511 79.6032L45.0821 78.6652L45.0272 57.3407L45.0187 57.3322Z" fill="white"/>
<path d="M50.1988 58.0801C50.1988 58.1308 50.2157 58.1773 50.2242 58.2237C50.2368 58.2702 50.2411 58.3209 50.2622 58.3632C50.3002 58.4519 50.3298 58.5449 50.3847 58.6294C50.4312 58.7181 50.4946 58.7899 50.5537 58.866C50.6213 58.9336 50.6889 59.0054 50.765 59.0646C51.065 59.3096 51.4241 59.466 51.8044 59.5631H51.8171L55.7169 59.5927C56.3676 59.5927 57.0183 59.5843 57.6732 59.5716C58.3239 59.5589 58.9745 59.542 59.6294 59.5167L59.6379 59.5082L59.6294 59.4998C58.9788 59.4744 58.3281 59.4533 57.6732 59.4448C57.0225 59.4364 56.3718 59.4237 55.7169 59.4237L51.8171 59.4575C51.4621 59.373 51.103 59.2251 50.8157 58.997C50.6678 58.8829 50.5411 58.7477 50.4481 58.5871C50.3932 58.5111 50.3636 58.4223 50.3256 58.3378C50.3087 58.2956 50.3002 58.2491 50.2875 58.2026C50.2791 58.1561 50.2622 58.1139 50.2622 58.0674C50.2537 57.9745 50.2411 57.8815 50.2495 57.7886L50.2537 57.6491L50.2706 57.5097C50.2918 57.3238 50.334 57.1379 50.4016 56.9646C50.5284 56.6139 50.7481 56.2844 51.0523 56.0647V56.052H51.0396C50.727 56.2717 50.4988 56.597 50.3594 56.952C50.2875 57.1294 50.2411 57.3153 50.2157 57.5055L50.1988 57.6491L50.1904 57.7928C50.1777 57.8857 50.1946 57.9829 50.1988 58.0801Z" fill="white"/>
<path d="M80.5906 69.5177L78.7991 70.0923L75.3556 71.1909L70.8811 72.6232L68.1981 73.4809L68.0418 73.5316V75.5977V76.916V77.8878V79.2061V80.0638V81.4961V82.3538V84.1875C68.0418 84.5509 68.0545 84.9143 68.0756 85.2734C68.0925 85.5312 68.1136 85.7889 68.1432 86.0466C68.3122 87.6269 68.6967 89.1606 69.2756 90.6141C69.4699 91.1042 69.6896 91.5859 69.9305 92.0591C70.0614 92.3211 70.2051 92.5788 70.3488 92.8323C71.536 94.9026 73.1543 96.7322 75.1275 98.1814C75.1359 98.1856 75.1401 98.1941 75.1486 98.1983L75.5669 98.5025L80.692 102.246L80.7174 102.267L82.3103 103.433L81.8286 103.049L88.9861 97.8138C93.4521 94.5435 96.0929 89.3423 96.0929 83.8073V73.3837L96.5745 73.5358L82.3103 68.9726L81.6807 69.1755L80.5906 69.5177ZM86.4974 71.0852L90.8283 72.5429C91.5508 72.788 92.2733 73.0246 92.9916 73.2781C93.7098 73.5358 94.4239 73.7894 95.138 74.0682L95.1422 74.0767L95.138 74.0809C94.407 73.8612 93.6845 73.6161 92.962 73.3795C92.2395 73.1387 91.5254 72.8767 90.8071 72.6232L86.5017 71.0979L86.4974 71.0895V71.0852ZM84.1609 71.3007L95.1295 74.8076V84.3861C95.1295 89.3634 92.755 94.0407 88.741 96.9772L82.3061 101.684L75.8711 96.9772C71.8529 94.0365 69.4826 89.3592 69.4826 84.3861V74.8076L82.3061 70.705L84.1609 71.3007ZM81.8286 69.7881L81.8244 69.7966L68.7559 74.1485L68.7685 83.7862V84.5932C68.7728 84.8594 68.8023 85.1255 68.8319 85.3917C68.8911 85.9241 68.9756 86.4523 69.077 86.9804C69.1784 87.5043 69.3009 88.0283 69.4446 88.5437C69.5882 89.0592 69.753 89.5705 69.9305 90.0732C70.2981 91.0788 70.7332 92.0633 71.2741 92.9886C71.536 93.4534 71.8403 93.9013 72.1487 94.3365C72.4698 94.7632 72.8036 95.1857 73.167 95.5787C73.8937 96.3646 74.7092 97.0744 75.6049 97.6659V97.6744H75.5964C73.7838 96.5167 72.2839 94.89 71.2022 93.0267C70.653 92.1013 70.2051 91.1169 69.8291 90.107C69.6474 89.6 69.4826 89.0888 69.3389 88.5691C69.1953 88.0494 69.0728 87.5255 68.9713 86.9973C68.8699 86.4692 68.7812 85.9368 68.7221 85.4002C68.6925 85.134 68.6629 84.8636 68.6587 84.5932V83.7862L68.6714 74.1189L68.6925 74.0893L81.799 69.7796L81.8286 69.7881Z" fill="#00938E"/>
<path d="M96.5703 73.5274L96.0886 73.3753V83.7988C96.0886 89.3338 93.4479 94.5393 88.9819 97.8053L81.8244 103.04L82.3061 103.425L89.4593 98.1898C92.5606 95.9209 94.783 92.7182 95.8478 89.1184C96.3168 87.5339 96.5661 85.8734 96.5661 84.1833V73.5274H96.5703Z" fill="#006865"/>
<path d="M69.4826 74.8076V84.3861C69.4826 89.3634 71.8572 94.0407 75.8711 96.9772L82.3061 101.684L81.5117 101.105C82.5215 99.9053 83.4426 98.6293 84.2539 97.2814C86.8355 93.014 88.272 88.0409 88.1706 83.0637L81.2793 94.0323C81.0723 94.3618 80.7216 94.5815 80.3329 94.6196C80.2906 94.6238 80.2484 94.628 80.2061 94.628C79.8597 94.628 79.5301 94.4886 79.2893 94.2351L75.6387 90.3944C75.157 89.8873 75.1782 89.0846 75.6852 88.6029C76.1922 88.1212 76.995 88.1423 77.4767 88.6494L80.0033 91.307L87.7354 78.9948C87.3678 77.1357 86.751 75.3104 85.8214 73.6542C85.3693 72.8514 84.8412 72.0908 84.237 71.3895C84.2116 71.3599 84.182 71.3303 84.1567 71.3007L82.3018 70.7092L69.4826 74.8076ZM76.8175 96.7998C77.3879 97.273 77.9879 97.7039 78.5963 98.1222C78.9048 98.3293 79.2174 98.5236 79.5259 98.7264L80.4765 99.2968V99.3053H80.4681L79.4963 98.7645C79.1836 98.5701 78.8625 98.3758 78.5541 98.1772C77.9372 97.7673 77.3288 97.3406 76.7499 96.8758L76.319 96.5251L75.9007 96.1575L75.6936 95.9716C75.626 95.9082 75.5584 95.8449 75.4908 95.7815L75.0894 95.397C74.9584 95.266 74.8317 95.1308 74.7049 94.9956L74.5148 94.7928C74.4514 94.7252 74.3923 94.6534 74.3289 94.5858L73.9613 94.1675L73.6106 93.7323C73.1543 93.1492 72.7275 92.5408 72.343 91.9028C71.9628 91.2648 71.629 90.6014 71.3417 89.9169C71.0544 89.2324 70.822 88.5268 70.653 87.8043C70.5642 87.4452 70.4966 87.0818 70.4459 86.7142C70.3952 86.3466 70.3572 85.979 70.3614 85.6072L70.3657 85.603L70.3699 85.6072C70.3699 85.979 70.4121 86.3466 70.4628 86.71C70.5178 87.0776 70.5896 87.441 70.6825 87.7959C70.86 88.5142 71.0966 89.2155 71.3882 89.8958C71.6797 90.576 72.0177 91.2352 72.398 91.869C72.7825 92.4985 73.2134 93.1027 73.6698 93.6816L74.0204 94.1083L74.388 94.5224C74.4514 94.59 74.5106 94.6618 74.574 94.7294L74.7683 94.928C74.8993 95.059 75.026 95.1942 75.157 95.3252L75.5584 95.7097C75.626 95.773 75.6894 95.8364 75.7612 95.8998L75.9683 96.0815L76.3823 96.4491L76.8175 96.7998Z" fill="#5DC5C4"/>
<path d="M85.8256 73.6499C86.7552 75.3062 87.3721 77.1315 87.7397 78.9906L89.0283 76.9414C89.4002 76.3498 90.1818 76.1681 90.7776 76.54C90.8029 76.5569 90.824 76.5738 90.8452 76.5864C90.9128 76.6329 90.9719 76.6878 91.0226 76.7428L91.0268 76.747C91.0775 76.8019 91.124 76.8653 91.1663 76.9287C91.1705 76.9329 91.1705 76.9371 91.1705 76.9371C91.2085 77.0005 91.2423 77.0639 91.2719 77.1357C91.2761 77.1399 91.2761 77.1484 91.2761 77.1526C91.3015 77.2202 91.3226 77.2878 91.3353 77.3597C91.3353 77.3681 91.3395 77.3723 91.3395 77.3808C91.3522 77.4484 91.3606 77.5202 91.3606 77.592C91.3606 77.6005 91.3606 77.6089 91.3606 77.6174C91.3606 77.6892 91.3564 77.7568 91.3437 77.8286C91.3437 77.8371 91.3395 77.8455 91.3395 77.854C91.3268 77.9258 91.3057 77.9934 91.2804 78.0653C91.2761 78.0695 91.2761 78.0779 91.2719 78.0822C91.2423 78.1498 91.2128 78.2216 91.1705 78.285C91.1705 78.285 91.1705 78.2892 91.1663 78.2892L88.1664 83.0637C88.2636 88.0409 86.827 93.014 84.2496 97.2814C83.4384 98.625 82.5173 99.901 81.5075 101.105L82.3018 101.684L88.7368 96.9772C92.755 94.0365 95.1253 89.3592 95.1253 84.3861V74.8076L84.1567 71.3007C84.182 71.3303 84.2116 71.3557 84.237 71.3895C84.8454 72.0866 85.3735 72.8471 85.8256 73.6499Z" fill="#49B8B9"/>
<path d="M79.1203 94.0491C79.3484 94.2351 79.6315 94.3407 79.9273 94.3407C79.9695 94.3407 80.0118 94.3407 80.054 94.3322C80.4427 94.2942 80.7934 94.0745 81.0005 93.7449L90.8916 78.0019C91.1747 77.554 91.1409 76.9963 90.8494 76.5907C90.8283 76.5738 90.8029 76.5569 90.7818 76.5442C90.1903 76.1724 89.4086 76.3498 89.0326 76.9456L80.0118 91.307L77.4851 88.6494C77.0034 88.1423 76.2007 88.1212 75.6936 88.6029C75.1866 89.0845 75.1655 89.8873 75.6471 90.3944L79.2977 94.2351C79.5386 94.4886 79.8723 94.628 80.2146 94.628C79.8681 94.628 79.5386 94.4886 79.2977 94.2351L79.1203 94.0491Z" fill="white"/>
<path d="M90.8452 76.5907C90.9085 76.6371 90.9719 76.6921 91.0226 76.747C90.9719 76.6921 90.9128 76.6371 90.8452 76.5907Z" fill="white"/>
<path d="M91.0311 76.7554C91.0818 76.8104 91.1283 76.8738 91.1705 76.9371C91.1283 76.8695 91.0818 76.8104 91.0311 76.7554Z" fill="white"/>
<path d="M91.348 77.385C91.3606 77.4526 91.3691 77.5244 91.3691 77.5963C91.3649 77.5244 91.3606 77.4526 91.348 77.385Z" fill="white"/>
<path d="M91.2804 78.0822C91.2508 78.1498 91.2212 78.2216 91.179 78.285C91.217 78.2174 91.2508 78.1498 91.2804 78.0822Z" fill="white"/>
<path d="M91.3437 77.854C91.3311 77.9258 91.3099 77.9934 91.2846 78.0652C91.3142 77.9976 91.3311 77.9258 91.3437 77.854Z" fill="white"/>
<path d="M91.3691 77.6216C91.3691 77.6934 91.3649 77.761 91.3522 77.8329C91.3606 77.761 91.3691 77.6892 91.3691 77.6216Z" fill="white"/>
<path d="M91.179 78.285C91.2212 78.2174 91.255 78.1498 91.2804 78.0822C91.2846 78.0779 91.2846 78.0695 91.2888 78.0652C91.3142 77.9976 91.3353 77.9258 91.348 77.854C91.348 77.8455 91.3522 77.8371 91.3522 77.8286C91.3649 77.7568 91.3691 77.6892 91.3691 77.6174C91.3691 77.6089 91.3691 77.6005 91.3691 77.592C91.3691 77.5202 91.3606 77.4526 91.348 77.3808C91.348 77.3723 91.3437 77.3681 91.3437 77.3596C91.3311 77.2878 91.3099 77.2202 91.2846 77.1526C91.2804 77.1484 91.2804 77.1399 91.2804 77.1357C91.2508 77.0681 91.2212 77.0005 91.179 76.9371C91.1747 76.9329 91.1747 76.9287 91.1747 76.9287C91.1325 76.8653 91.086 76.8061 91.0353 76.747L91.0311 76.7428C90.9761 76.6878 90.917 76.6329 90.8536 76.5864C91.1452 76.9921 91.179 77.5498 90.8959 77.9976L81.0047 93.7407C80.7977 94.0703 80.447 94.29 80.0582 94.328C80.016 94.3322 79.9737 94.3365 79.9315 94.3365C79.6357 94.3365 79.3526 94.2351 79.1245 94.0449L79.3019 94.2308C79.5428 94.4843 79.8766 94.6238 80.2188 94.6238C80.2611 94.6238 80.3033 94.6238 80.3456 94.6153C80.7343 94.5773 81.085 94.3576 81.292 94.028L91.1832 78.285C91.1747 78.2892 91.1747 78.285 91.179 78.285Z" fill="#C4C4C4"/>
<path d="M68.7178 74.0936L68.6967 74.1231L68.684 83.7904V84.5974C68.6883 84.872 68.7178 85.1382 68.7474 85.4044C68.8066 85.941 68.8911 86.4734 68.9967 87.0015C69.1023 87.5297 69.2249 88.0536 69.3643 88.5733C69.5079 89.093 69.6727 89.6043 69.8544 90.1113C70.2305 91.1211 70.6741 92.1056 71.2276 93.0309C72.3092 94.89 73.805 96.5209 75.6218 97.6786H75.6303V97.6701C74.7345 97.0786 73.919 96.3688 73.1923 95.5829C72.8247 95.1942 72.4909 94.7717 72.174 94.3407C71.8656 93.9013 71.5656 93.4576 71.2994 92.9929C70.7586 92.0675 70.3234 91.0831 69.9558 90.0775C69.7784 89.5704 69.6136 89.0634 69.4699 88.548C69.3263 88.0325 69.208 87.5086 69.1023 86.9846C69.0009 86.4607 68.9164 85.9283 68.8573 85.396C68.8277 85.1298 68.7981 84.8636 68.7939 84.5974V83.7904L68.7812 74.1527L81.8497 69.8008L81.854 69.7923L81.8455 69.7881L68.7178 74.0936Z" fill="white"/>
<path d="M75.7612 95.8998C75.6936 95.8364 75.626 95.773 75.5584 95.7097L75.157 95.3252C75.026 95.1942 74.8993 95.059 74.7683 94.928L74.574 94.7294C74.5106 94.6618 74.4514 94.59 74.388 94.5224L74.0204 94.1083L73.6698 93.6816C73.2092 93.1027 72.7825 92.4985 72.398 91.869C72.0177 91.2352 71.6755 90.576 71.3882 89.8958C71.0966 89.2155 70.8558 88.5142 70.6825 87.7959C70.5938 87.4367 70.5178 87.0734 70.4628 86.71C70.4079 86.3424 70.3699 85.9748 70.3699 85.6072L70.3657 85.603L70.3614 85.6072C70.3572 85.979 70.3952 86.3466 70.4459 86.7142C70.4966 87.0818 70.5685 87.4452 70.653 87.8043C70.822 88.5268 71.0586 89.2324 71.3417 89.9169C71.629 90.6014 71.9628 91.2648 72.343 91.9028C72.7275 92.5408 73.1501 93.1492 73.6106 93.7323L73.9613 94.1675L74.3289 94.5858C74.3923 94.6534 74.4514 94.7252 74.5148 94.7928L74.7049 94.9956C74.8317 95.1308 74.9584 95.266 75.0894 95.397L75.4908 95.7815C75.5584 95.8449 75.6218 95.9125 75.6936 95.9716L75.9007 96.1575L76.319 96.5251L76.7499 96.8758C77.3288 97.3406 77.9372 97.7631 78.5541 98.1772C78.8667 98.38 79.1836 98.5701 79.4963 98.7645L80.4681 99.3053H80.4765V99.2968L79.5259 98.7264C79.2174 98.5236 78.9005 98.3293 78.5963 98.1222C77.9879 97.7039 77.3879 97.2688 76.8175 96.7998L76.3866 96.4491L75.9725 96.0815L75.7612 95.8998Z" fill="white"/>
<path d="M90.7987 72.619C91.517 72.8725 92.231 73.1302 92.9535 73.3753C93.676 73.6161 94.3986 73.857 95.1295 74.0767L95.1337 74.0724L95.1295 74.064C94.4197 73.7894 93.7014 73.5316 92.9831 73.2739C92.2648 73.0204 91.5423 72.7795 90.8198 72.5387L86.489 71.081L86.4805 71.0852L86.4848 71.0937L90.7987 72.619Z" fill="white"/>
<path d="M47.2961 83.9256C47.4355 83.9467 47.5792 83.896 47.6764 83.7777C48.4876 82.7975 49.0918 80.2877 49.5101 77.8878C49.565 77.5582 49.62 77.2329 49.6707 76.916C49.8693 75.6442 50.0087 74.4738 50.0974 73.6711C50.1059 73.6077 50.1016 73.5443 50.1016 73.4851C50.0974 73.3964 50.0847 73.3077 50.0594 73.2274C50.0974 73.3668 50.1143 73.5147 50.0974 73.6711C49.8228 76.1639 49.0411 82.1341 47.6764 83.7819C47.5792 83.896 47.4355 83.9467 47.2961 83.9298L47.2581 83.9214C47.3595 83.9087 47.4609 83.858 47.5327 83.7735C48.8932 82.1257 49.6791 76.1555 49.9538 73.6626C50.0214 73.0415 49.5904 72.488 48.9735 72.4035L48.6144 72.3528L48.6059 72.4246L48.5214 73.0415L48.5045 73.1725L49.0073 73.2443C49.0158 73.2443 49.0284 73.2485 49.0369 73.2528C49.1467 73.2781 49.227 73.3584 49.2608 73.4598C49.2735 73.4978 49.2777 73.5443 49.2735 73.5865C48.8552 77.3765 48.0735 81.8257 47.1144 83.1608L47.0299 83.7693C47.051 83.7946 47.0722 83.82 47.0975 83.8411C47.1482 83.8833 47.2201 83.9129 47.2961 83.9256ZM48.2933 80.6046C48.3947 80.2286 48.5045 79.8483 48.589 79.468C48.6862 79.0877 48.7665 78.7033 48.851 78.323C49.0073 77.554 49.1383 76.7808 49.2481 76.0034C49.358 75.2259 49.451 74.4485 49.5143 73.6626L49.5186 73.6584L49.5228 73.6626C49.4721 74.4485 49.3918 75.2259 49.2946 76.0076C49.1932 76.785 49.0707 77.5625 48.9228 78.3357C48.8425 78.7202 48.7707 79.1089 48.6777 79.4891C48.5932 79.8736 48.4834 80.2497 48.382 80.6299C48.1496 81.382 47.8876 82.1257 47.5412 82.8313H47.5369L47.5327 82.827C47.8285 82.1045 48.0778 81.3609 48.2933 80.6046Z" fill="#FBAC3E"/>
<path d="M48.6101 72.3443L48.9693 72.395C49.5862 72.4795 50.0171 73.0331 49.9495 73.6542C49.6749 76.147 48.8932 82.1172 47.5285 83.765C47.4567 83.8495 47.3595 83.9002 47.2539 83.9129L47.2919 83.9214C47.4313 83.9425 47.575 83.8918 47.6722 83.7735C49.0327 82.1257 49.8186 76.1555 50.0932 73.6626C50.1101 73.5105 50.0974 73.3584 50.0552 73.219C49.9876 72.9781 49.8355 72.7669 49.6326 72.619C49.4848 72.5091 49.3073 72.4288 49.1087 72.4035L48.6101 72.3317V72.3443Z" fill="#F7913C"/>
<path d="M45.9567 88.286L44.2497 88.0494L43.7089 92.0633L43.0498 96.7702L42.8216 98.3377L42.8174 98.3419L42.8132 98.3335L43.0075 96.7617L43.6202 92.0506L44.0427 88.9113L44.1652 88.0367L43.7807 87.9818L43.8441 87.555L42.2174 99.1912L44.3934 99.4954L45.9567 88.286Z" fill="#323036"/>
<path d="M44.4779 85.772L46.206 73.219L46.2102 73.2147L46.2145 73.219L44.33 87.4283L46.0412 87.6691L48.0904 72.9781L45.9187 72.6739L45.0821 78.6652L44.9511 79.6032L44.4441 83.2411L44.0554 86.0128L43.8695 87.3649L44.2497 87.4156L44.4779 85.772Z" fill="#323036"/>
<path d="M48.1792 72.357L48.2341 71.9598L46.1173 71.6641C46.0962 71.6599 46.0793 71.6514 46.0624 71.643L46.0032 72.0528L48.1792 72.357Z" fill="#323036"/>
<path d="M44.8159 99.5588L44.9934 98.2955L45.0483 97.8814L46.1595 89.9127L47.0172 83.7566L47.106 83.1482L48.4961 73.164L48.513 73.033V73.0373L48.0904 72.9781L46.0412 87.6691L46.4637 87.7283L46.3792 88.3451L45.9567 88.286L44.3934 99.4954L44.8159 99.5546V99.5588Z" fill="#252228"/>
<path d="M48.6017 72.4162L48.6101 72.3443V72.3317L48.6566 71.9979C48.6355 72.0063 48.6144 72.0148 48.589 72.0106L48.2299 71.9598L48.1749 72.357L48.5932 72.4162H48.6017Z" fill="#252228"/>
<path d="M48.627 71.7613C48.6524 71.7655 48.6735 71.7782 48.6904 71.7908C48.6608 71.1571 48.1919 70.6162 47.5412 70.5233C46.9581 70.443 46.413 70.7472 46.1595 71.2458C46.13 71.3007 46.1046 71.3599 46.0835 71.4232C46.1046 71.4148 46.1257 71.4106 46.1469 71.4148L48.627 71.7613ZM46.7342 70.7557C46.8356 70.6796 46.9581 70.6205 47.0849 70.5951L47.182 70.5824C47.2158 70.5824 47.2454 70.5824 47.2792 70.5867C47.3426 70.5867 47.406 70.6078 47.4693 70.6247L47.4736 70.6289L47.4693 70.6331C47.3426 70.6458 47.2243 70.6458 47.1102 70.6838C46.9961 70.7176 46.882 70.7514 46.7764 70.819C46.675 70.8824 46.5778 70.9627 46.4933 71.0514C46.4088 71.1402 46.3285 71.2373 46.2652 71.343H46.2609V71.3387C46.3666 71.1106 46.5271 70.9035 46.7342 70.7557Z" fill="#FBAC3E"/>
<path d="M42.8047 102.825L42.9611 102.846L44.5751 99.5208L44.8117 99.5546L42.2174 99.1912L42.4794 101.071L42.7245 102.812L42.8047 102.825ZM42.4878 100.273C42.4583 100.011 42.4245 99.7489 42.4118 99.4827L42.416 99.4785L42.4202 99.4827C42.4836 99.7405 42.5301 99.9982 42.5766 100.26C42.6188 100.522 42.6484 100.784 42.6822 101.046C42.7498 101.57 42.8174 102.094 42.8808 102.618L42.8766 102.622L42.8723 102.618C42.7836 102.098 42.6949 101.578 42.6104 101.059C42.5681 100.793 42.5174 100.535 42.4878 100.273Z" fill="#FBAC3E"/>
<path d="M44.8159 99.5588V99.5546L44.5793 99.5208L42.9653 102.846L43.2019 102.88L43.3371 102.897L44.2666 100.793L44.4441 100.395L44.8159 99.5588Z" fill="#F7913C"/>
<path d="M48.513 73.0373L48.5975 72.4162L48.5932 72.4162L48.1749 72.357L46.0032 72.0528L45.9187 72.6739L48.0904 72.9781L48.513 73.0373ZM47.8581 72.5049C47.6637 72.4838 47.4693 72.4457 47.275 72.4162C46.8863 72.357 46.4975 72.2936 46.1088 72.226L46.1046 72.2218L46.1088 72.2176C46.5018 72.2556 46.8905 72.2979 47.2834 72.3443C47.4778 72.3655 47.6764 72.3824 47.8707 72.4162C48.0651 72.45 48.2595 72.4838 48.4496 72.5345L48.4538 72.5387L48.4496 72.5429C48.251 72.5471 48.0566 72.526 47.8581 72.5049Z" fill="#FBAC3E"/>
<path d="M44.1652 88.0367L44.2497 87.4156L43.8695 87.3649L43.8441 87.555L43.7807 87.9818L44.1652 88.0367Z" fill="#FBAC3E"/>
<path d="M46.3792 88.3451L46.4637 87.7283L46.0412 87.6691L44.33 87.4283L44.2497 88.0494L45.9567 88.286L46.3792 88.3451Z" fill="#FBAC3E"/>
<path d="M42.9653 102.846L42.809 102.825C42.809 102.825 42.8385 103.412 42.9653 103.429C43.092 103.446 43.2611 102.888 43.2611 102.888L43.2019 102.88L42.9653 102.846Z" fill="#323036"/>
<path d="M48.2341 71.9598L48.5932 72.0105C48.6186 72.0148 48.6397 72.0063 48.6608 71.9979C48.6989 71.981 48.7284 71.9472 48.7369 71.9007C48.7411 71.8584 48.7242 71.8162 48.6904 71.7908C48.6735 71.7739 48.6524 71.7613 48.627 71.7613L46.1511 71.4148C46.13 71.4106 46.1088 71.4148 46.0877 71.4233C46.0455 71.4402 46.0159 71.474 46.0074 71.5204C45.999 71.5711 46.0243 71.6134 46.0624 71.643C46.0793 71.6556 46.0962 71.6641 46.1173 71.6641L48.2341 71.9598Z" fill="#FBAC3E"/>
<path d="M46.2145 73.219L46.2102 73.2147L46.206 73.219L44.4779 85.772L44.2497 87.4156L44.1652 88.0367L44.0427 88.9113L43.6202 92.0506L43.0075 96.7617L42.8132 98.3335L42.8174 98.3419L42.8216 98.3377L43.0498 96.7702L43.7089 92.0633L44.2497 88.0494L44.33 87.4283L46.2145 73.219Z" fill="white"/>
<path d="M42.8766 102.618L42.8808 102.614C42.8174 102.09 42.7498 101.566 42.6822 101.042C42.6484 100.78 42.6188 100.518 42.5766 100.256C42.5301 99.9982 42.4836 99.7363 42.4202 99.4785L42.416 99.4743L42.4118 99.4785C42.4245 99.7447 42.4583 100.007 42.4878 100.269C42.5216 100.531 42.5681 100.788 42.6104 101.05C42.6949 101.57 42.7836 102.09 42.8723 102.609L42.8766 102.618Z" fill="white"/>
<path d="M46.2652 71.3387C46.3285 71.2331 46.4088 71.1359 46.4933 71.0472C46.5778 70.9585 46.675 70.8782 46.7764 70.8148C46.8778 70.7514 46.9961 70.7134 47.1102 70.6796C47.2243 70.6416 47.3426 70.6416 47.4693 70.6289L47.4736 70.6247L47.4693 70.6205C47.4102 70.6036 47.3468 70.5824 47.2792 70.5824C47.2454 70.5782 47.2158 70.5782 47.182 70.5782L47.0849 70.5909C46.9581 70.6162 46.8356 70.6754 46.7342 70.7514C46.5229 70.9036 46.3666 71.1064 46.2567 71.3303V71.3345L46.2652 71.3387Z" fill="white"/>
<path d="M48.4496 72.5471L48.4538 72.5429L48.4496 72.5387C48.2595 72.488 48.0651 72.4542 47.8707 72.4204C47.6764 72.3866 47.482 72.3697 47.2834 72.3486C46.8947 72.3021 46.5018 72.2598 46.1088 72.2218L46.1046 72.226L46.1088 72.2303C46.4975 72.2979 46.8863 72.3612 47.275 72.4204C47.4693 72.45 47.6637 72.488 47.8581 72.5091C48.0566 72.526 48.251 72.5471 48.4496 72.5471Z" fill="white"/>
<path d="M47.5412 82.8355C47.8834 82.1257 48.1496 81.3863 48.382 80.6342C48.4834 80.2539 48.5932 79.8779 48.6777 79.4934C48.7707 79.1131 48.8425 78.7244 48.9228 78.3399C49.0707 77.5667 49.1932 76.7892 49.2946 76.0118C49.3918 75.2344 49.4763 74.4527 49.5228 73.6668L49.5186 73.6626L49.5143 73.6668C49.451 74.4485 49.358 75.2301 49.2481 76.0076C49.1383 76.785 49.0073 77.5582 48.851 78.3272C48.7665 78.7117 48.6862 79.0962 48.589 79.4722C48.5045 79.8525 48.3947 80.2328 48.2933 80.6088C48.0778 81.3609 47.8285 82.1045 47.5327 82.8355L47.5369 82.8397L47.5412 82.8355Z" fill="white"/>
<path d="M46.6743 65.2036L48.5582 64.4004L49.5805 65.4373L47.9302 66.664L46.6743 65.2036Z" fill="#B97964"/>
<path d="M48.2223 64.9408C48.2223 64.9408 48.0471 64.4004 48.2661 63.9915C48.4852 63.5826 48.5436 63.1883 48.7334 62.8962C48.9233 62.6041 48.9963 63.0569 48.9817 63.3197C48.9671 63.5826 48.9671 63.8601 49.157 63.8455C49.3468 63.8163 50.6904 62.8232 50.9532 62.8086C51.2307 62.8086 51.0555 63.0423 51.0555 63.0423C51.0555 63.0423 51.3913 62.8086 51.5228 62.9108C51.552 62.94 51.5958 63.0569 51.4498 63.1883C51.1431 63.4804 50.4859 64.0645 50.4859 64.0645C50.5297 64.0353 51.3913 63.3635 51.5374 63.2905C51.7272 63.1883 51.8733 63.2321 51.9317 63.3343C52.0193 63.495 50.9678 64.3566 50.9386 64.415C50.9386 64.415 51.5228 63.9039 51.7418 63.9769C51.9609 64.0499 51.6104 64.4004 51.2307 64.6487C50.8948 64.8677 50.2815 65.4081 49.9164 65.5979C49.4636 65.8316 49.1131 65.89 48.7334 65.5979C48.3537 65.3059 48.2223 64.9408 48.2223 64.9408Z" fill="#B97964"/>
<path opacity="0.3" d="M50.2376 63.6994C50.2376 63.6994 50.2376 63.6848 50.2376 63.6994C50.223 63.6848 50.223 63.6702 50.223 63.6702C50.4713 63.4511 50.7196 63.2467 50.9824 63.0422C50.997 63.0422 50.997 63.0422 51.0116 63.0422C51.0116 63.0568 51.0116 63.0568 51.0116 63.0714C50.7488 63.2613 50.5005 63.4657 50.2376 63.6994C50.2523 63.6994 50.2523 63.6848 50.2376 63.6994Z" fill="black"/>
<path opacity="0.3" d="M50.705 64.6341C50.705 64.6341 50.6904 64.6341 50.6904 64.6195C50.5443 64.2398 50.2669 63.8893 49.931 63.6556C49.9164 63.6556 49.9164 63.641 49.931 63.6264C49.931 63.6118 49.9456 63.6118 49.9602 63.6264C50.3107 63.8747 50.5881 64.2106 50.7342 64.6049C50.7342 64.6195 50.7196 64.6341 50.705 64.6341Z" fill="black"/>
<path opacity="0.3" d="M48.9525 64.9992C48.9525 64.9992 48.9525 64.9846 48.9525 64.9992C48.9379 64.9846 48.9379 64.97 48.9379 64.97C49.0693 64.8678 49.157 64.7071 49.1862 64.5465C49.2154 64.3858 49.1862 64.2106 49.1131 64.0645C49.1131 64.0499 49.1131 64.0499 49.1278 64.0353C49.1424 64.0353 49.1424 64.0353 49.157 64.0499C49.2446 64.2106 49.2738 64.3858 49.23 64.5611C49.2008 64.7217 49.0985 64.8824 48.9525 64.9992C48.9671 64.9992 48.9671 64.9992 48.9525 64.9992Z" fill="black"/>
<path d="M23.425 79.4278C23.425 79.4278 24.0383 77.9966 25.1482 78.055C26.2727 78.128 26.6524 79.8513 26.6524 79.8513L26.0245 79.7637C26.0245 79.7637 25.9806 78.4639 25.192 78.4347C24.4034 78.4055 23.8777 79.5446 23.8777 79.5446L23.498 79.4278" fill="#263238"/>
<path d="M19 86.5253L19.1753 85.6199L20.3728 79.1066L29.9091 80.1288L29.4126 87.7813L19 86.5253Z" fill="#407BFF"/>
<path opacity="0.2" d="M19 86.5253L19.1753 85.6199L20.3728 79.1066L29.9091 80.1288L29.4126 87.7813L19 86.5253Z" fill="black"/>
<path d="M24.9584 76.2588C24.8269 76.3318 24.2282 77.4125 24.126 77.7046C24.0237 77.9966 24.0383 78.1719 24.1698 78.2449C24.3012 78.3179 24.4618 78.3763 24.4911 78.3763C24.5203 78.3763 24.418 78.6684 24.6517 78.7707C24.8854 78.8729 24.9876 78.8145 24.9876 78.8145C24.9876 78.8145 25.0022 79.2234 25.3089 79.2818C25.6156 79.3402 25.7032 79.1942 25.747 79.1942C25.7908 79.2088 25.9514 78.6976 25.9514 78.6976L26.3603 79.1357C26.3603 79.1357 26.4772 78.9605 26.5794 78.6684C26.667 78.3617 26.521 77.5877 26.521 77.5877L26.2435 76.916L26.3019 75.8791C26.3019 75.8791 25.0752 75.9375 25.0606 75.9667C25.0606 75.9959 24.9584 76.2588 24.9584 76.2588Z" fill="#B97964"/>
<path opacity="0.2" d="M20.3728 79.1066C20.3728 79.1066 21.6579 82.889 24.345 82.6845C27.0321 82.4655 29.9237 80.1434 29.9237 80.1434" fill="black"/>
<path d="M33.6623 59.698C33.6623 59.698 33.7937 58.7341 33.2242 57.0547L33.3118 57.0109C33.2388 56.7772 33.1511 56.5582 33.0781 56.3683V56.3537L35.4732 57.6826C35.4439 58.223 35.6776 59.2745 35.8236 59.7126C35.8236 59.7126 36.1303 60.2821 35.0642 60.3552C34.2756 60.4136 33.6623 59.698 33.6623 59.698Z" fill="#B97964"/>
<path opacity="0.2" d="M35.5462 58.4566L34.188 58.2084C34.334 58.6173 34.7137 59.0992 35.6484 59.0992C35.663 59.0992 35.5462 58.6319 35.5462 58.4566Z" fill="black"/>
<path d="M33.0197 55.2292C33.2388 56.6896 33.341 57.522 34.1442 58.2084C35.3709 59.2307 37.0942 58.4275 37.3132 56.9087C37.5177 55.5505 37.1234 53.3745 35.6192 52.9364C34.1442 52.4983 32.8006 53.7542 33.0197 55.2292Z" fill="#B97964"/>
<path d="M32.6692 53.4621C32.8006 52.6297 34.8306 52.4399 35.4439 52.805C35.5316 52.8634 34.3779 53.579 34.4509 53.5351L33.8959 53.7834C33.8083 53.7688 33.6477 53.8856 33.5746 54.1631C33.5746 54.1631 33.8375 56.4121 33.2534 57.1277C32.713 56.9232 32.6108 56.0324 32.3917 55.5067C32.0997 54.7473 31.7054 53.6082 32.6692 53.4621Z" fill="#263238"/>
<path d="M32.5378 56.4998C32.6838 56.8649 33.0051 57.1277 33.2972 57.2592C33.7499 57.4344 33.8813 56.9379 33.7937 56.4852C33.7207 56.0763 33.5454 55.5651 33.0635 55.5943C32.6108 55.5943 32.3771 56.0763 32.5378 56.4998Z" fill="#B97964"/>
<path d="M35.1665 55.4629C35.1811 55.6089 35.2687 55.7257 35.3709 55.7257C35.4731 55.7111 35.5462 55.5797 35.5316 55.4336C35.517 55.2876 35.4293 55.1708 35.3271 55.1708C35.2249 55.1854 35.1519 55.3168 35.1665 55.4629Z" fill="#263238"/>
<path d="M36.6561 55.3606C36.6707 55.5067 36.7583 55.6235 36.8605 55.6235C36.9627 55.6089 37.0358 55.4775 37.0212 55.3314C37.0065 55.1854 36.9189 55.0685 36.8167 55.0685C36.6999 55.0831 36.6415 55.2146 36.6561 55.3606Z" fill="#263238"/>
<path d="M36.1595 55.3169C36.1595 55.3169 36.6999 56.0179 36.8897 56.31C36.6999 56.5144 36.3202 56.456 36.3202 56.456L36.1595 55.3169Z" fill="#A24E3F"/>
<path d="M34.7284 54.7765C34.7576 54.7911 34.7722 54.7765 34.8014 54.7619C35.035 54.5429 35.2833 54.6013 35.2979 54.6013C35.3417 54.6159 35.3709 54.5867 35.3855 54.5429C35.4001 54.499 35.3709 54.4698 35.3271 54.4552C35.3125 54.4552 34.9912 54.3822 34.6991 54.6451C34.6699 54.6743 34.6699 54.7181 34.6991 54.7473C34.7138 54.7765 34.7284 54.7765 34.7284 54.7765Z" fill="#263238"/>
<path d="M35.809 57.0547C35.5608 57.0547 35.3563 56.9233 35.1957 56.7919C35.1665 56.7773 35.1665 56.7334 35.1811 56.7188C35.1957 56.6896 35.2395 56.6896 35.2541 56.7042C35.4878 56.8941 35.663 56.9525 35.8675 56.9379C35.8967 56.9379 35.9259 56.9525 35.9259 56.9817C35.9259 57.0109 35.9113 57.0401 35.8821 57.0401C35.8528 57.0547 35.8236 57.0547 35.809 57.0547Z" fill="#263238"/>
<path opacity="0.2" d="M33.56 56.4851C33.5454 56.4851 33.5308 56.4705 33.5308 56.4559C33.5016 56.3391 33.4578 56.2223 33.3702 56.1346C33.3118 56.0762 33.2388 56.0032 33.1219 55.9886C33.0197 55.974 32.9321 56.0178 32.8883 56.0908C32.8737 56.1054 32.8591 56.12 32.8445 56.1054C32.8299 56.0908 32.8153 56.0762 32.8299 56.0616C32.8883 55.9594 33.0197 55.901 33.1365 55.9302C33.268 55.9448 33.3702 56.0324 33.4286 56.1054C33.5162 56.2077 33.5747 56.3245 33.6039 56.4559C33.6039 56.4559 33.5893 56.4851 33.56 56.4851Z" fill="black"/>
<path d="M37.2402 54.6597C37.2548 54.6597 37.2694 54.645 37.2694 54.6304C37.2986 54.6012 37.284 54.5574 37.2548 54.5282C36.9481 54.28 36.6415 54.3822 36.6269 54.3822C36.583 54.3968 36.5684 54.4406 36.583 54.4698C36.5976 54.5136 36.6269 54.5282 36.6707 54.5136C36.6853 54.5136 36.9189 54.4406 37.1672 54.6304C37.1964 54.6743 37.2256 54.6743 37.2402 54.6597Z" fill="#263238"/>
<path d="M32.3187 52.8488C32.4063 52.5129 32.8299 52.4107 33.1657 52.4545C33.1219 52.0456 33.6331 51.7827 33.969 51.7681C34.3194 51.7535 34.4509 51.8849 34.4509 51.8849C34.4217 51.8995 34.5385 51.6805 34.6115 51.5928C34.889 51.2716 35.3563 51.1401 35.7506 51.2862C36.1449 51.4322 36.437 51.8411 36.4662 52.2646C36.6707 52.031 37.0504 52.0164 37.2694 52.2208C37.4885 52.4253 37.5031 52.8342 37.2986 53.0678C37.5469 53.0678 37.7806 53.3161 37.766 53.579C37.7514 53.8418 37.5031 54.0755 37.2548 54.0463C37.2548 54.353 37.2548 54.7181 37.2548 55.0247L36.7729 53.9587C36.5684 53.9002 36.51 53.8126 36.4662 53.5936C36.3348 53.8856 36.1011 53.8856 35.7944 53.8856C35.4878 53.8856 35.1811 53.7104 35.035 53.4329C34.9036 53.7396 34.6115 53.9879 34.2902 54.0025C33.969 54.0171 33.6331 53.7542 33.6185 53.4183C33.4432 53.725 33.0635 53.8564 32.7568 53.725C32.4063 53.579 32.2311 53.1847 32.3187 52.8488Z" fill="#263238"/>
<path opacity="0.3" d="M32.1727 54.8349L33.6039 54.3238C33.6185 54.5136 33.6331 54.7035 33.6331 54.8933L32.3333 55.3315C32.2749 55.1708 32.2165 54.9956 32.1727 54.8349Z" fill="white"/>
<path d="M47.4337 64.7363L47.9887 64.4734L48.6896 66.3281L48.0617 66.5472L47.4337 64.7363Z" fill="white"/>
<path d="M41.3293 99.2014L42.5998 102.633L43.7535 102.254L43.3446 98.6318L41.3293 99.2014Z" fill="#B97964"/>
<path d="M42.4684 104.079L43.5199 104.065C43.5199 104.065 43.7243 103.948 43.8558 103.962C43.9726 103.977 44.4107 104.05 44.4107 104.05L47.1855 104.035C47.1562 103.918 47.127 103.816 47.0978 103.729C47.054 103.612 47.0102 103.524 46.9664 103.437C46.7911 103.159 46.5575 103.057 46.2946 103.042C45.9003 103.028 44.6736 102.21 44.6736 102.21C44.6736 102.21 44.2355 102.064 44.2063 101.582C44.1917 101.407 43.9288 101.188 43.812 101.173C43.5637 101.144 43.4177 101.304 43.3884 101.553L43.3446 101.845L42.7605 101.757C42.7605 101.757 42.1617 101.465 42.1909 101.757C42.2055 101.918 42.3078 102.663 42.3808 103.247C42.3954 103.378 42.41 103.51 42.4246 103.626C42.4538 103.904 42.4684 104.079 42.4684 104.079Z" fill="#263238"/>
<g opacity="0.2">
<path d="M47.1854 104.035L44.4107 104.05C44.4107 104.05 43.9726 103.977 43.8558 103.962C43.7243 103.948 43.5199 104.064 43.5199 104.064L42.4684 104.079C42.4684 104.079 42.4538 103.904 42.4246 103.656L47.0978 103.729C47.127 103.816 47.1562 103.918 47.1854 104.035Z" fill="white"/>
</g>
<path d="M45.3015 102.517C45.2869 102.502 45.2723 102.502 45.2577 102.517C45.1847 102.56 45.1263 102.633 45.0971 102.706C45.0825 102.75 45.1409 102.794 45.1555 102.75C45.1847 102.677 45.2431 102.619 45.3015 102.575C45.3162 102.56 45.3162 102.531 45.3015 102.517Z" fill="#407BFF"/>
<path d="M45.0679 102.385C45.0533 102.37 45.0387 102.37 45.0241 102.385C44.9511 102.429 44.8926 102.502 44.8634 102.575C44.8488 102.619 44.9072 102.663 44.9218 102.619C44.9511 102.546 45.0095 102.487 45.0679 102.443C45.0825 102.443 45.0971 102.414 45.0679 102.385Z" fill="#407BFF"/>
<path d="M44.8488 102.268C44.8342 102.254 44.8196 102.254 44.805 102.268C44.732 102.312 44.6736 102.385 44.6444 102.458C44.6298 102.502 44.6882 102.546 44.7028 102.502C44.732 102.429 44.7904 102.37 44.8488 102.327C44.8634 102.312 44.8634 102.283 44.8488 102.268Z" fill="#407BFF"/>
<path d="M33.0197 98.7487L32.5086 102.487L31.2818 102.546L30.8875 98.9386L33.0197 98.7487Z" fill="#B97964"/>
<path d="M30.245 104.211H32.9759C32.9759 104.211 33.0343 104.094 32.9613 103.787C32.9467 103.743 32.9321 103.685 32.9175 103.626C32.9175 103.626 32.9175 103.626 32.9175 103.612C32.8883 103.524 32.8591 103.422 32.8298 103.305C32.6984 102.852 32.5524 102.254 32.5524 102.254C32.5524 102.254 32.0997 101.29 31.5739 101.523C31.1066 101.742 31.2234 102.341 31.2234 102.341C31.2234 102.341 31.1796 102.692 30.8291 103.013C30.6101 103.203 30.391 103.363 30.2888 103.597C30.2742 103.641 30.2596 103.685 30.245 103.743V103.758C30.2158 103.918 30.2158 104.05 30.245 104.211Z" fill="#263238"/>
<g opacity="0.2">
<path d="M32.9613 103.802C33.0343 104.108 32.9759 104.225 32.9759 104.225H30.245C30.2158 104.065 30.2158 103.918 30.2304 103.802H32.9613Z" fill="white"/>
</g>
<path d="M31.3403 102.531C31.4863 102.414 31.6907 102.429 31.8368 102.56C31.8806 102.59 31.9244 102.546 31.8952 102.502C31.72 102.341 31.4717 102.327 31.2964 102.473C31.238 102.502 31.2964 102.56 31.3403 102.531Z" fill="#407BFF"/>
<path d="M31.2672 102.779C31.4133 102.663 31.6177 102.677 31.7638 102.809C31.8076 102.838 31.8514 102.794 31.8222 102.75C31.6469 102.59 31.3987 102.575 31.2234 102.721C31.165 102.75 31.2234 102.809 31.2672 102.779Z" fill="#407BFF"/>
<path d="M31.1796 103.013C31.3257 102.896 31.5301 102.911 31.6761 103.042C31.72 103.071 31.7638 103.028 31.7346 102.984C31.5593 102.823 31.311 102.809 31.1358 102.955C31.092 102.984 31.1358 103.042 31.1796 103.013Z" fill="#407BFF"/>
<path d="M30.2012 75.0321L36.0865 75.0759L39.5038 74.4771C39.5038 74.4771 42.1763 85.8097 42.3954 87.8542C42.6144 89.8988 44.4399 100.647 44.4399 100.647L41.6506 101.261C41.6506 101.261 38.4816 89.7673 38.2625 88.6575C38.058 87.6936 35.8675 81.5162 35.2979 79.9536C35.2395 80.2748 35.1811 80.5961 35.1227 80.9174C34.9766 82.3632 34.5239 86.978 34.3195 88.7013C34.3195 88.7013 33.8813 98.5004 33.3848 101.348H30.7707C30.4202 97.3029 30.2012 83.108 30.2012 83.108C30.0113 80.0266 30.2012 75.0321 30.2012 75.0321Z" fill="#407BFF"/>
<g opacity="0.5">
<path d="M38.1895 76.5946C38.5254 77.6899 39.4162 78.5661 40.5115 78.8874C40.5699 78.902 40.5407 79.0042 40.4823 78.975C39.3578 78.6391 38.4377 77.7483 38.1018 76.6092C38.0872 76.5654 38.1749 76.5362 38.1895 76.5946Z" fill="black"/>
<path d="M35.2103 76.5946C35.2687 77.5585 35.3417 78.5077 35.4001 79.4716C35.4001 79.53 35.5024 79.53 35.5024 79.4716C35.4732 78.975 35.4293 78.4931 35.4001 77.9966C35.6338 78.1718 35.9113 77.9528 35.9843 77.7191C36.1157 77.3248 36.0573 76.8575 35.9697 76.4632C35.9551 76.4048 35.8675 76.434 35.8821 76.4924C35.9551 76.7699 35.9843 77.0473 35.9551 77.3394C35.9405 77.4854 35.9259 77.6461 35.8675 77.7775C35.7944 77.9236 35.6046 78.055 35.4439 77.9236C35.4293 77.909 35.4147 77.909 35.4001 77.909C35.3709 77.4708 35.3417 77.0473 35.3125 76.6092C35.2979 76.5362 35.2103 76.5362 35.2103 76.5946Z" fill="black"/>
<path d="M32.3917 76.7552C32.4063 78.0258 31.4279 79.0919 30.172 79.1795C30.1135 79.1795 30.1135 79.0919 30.172 79.0919C31.3841 78.9896 32.3187 77.9674 32.3041 76.7552C32.3041 76.6968 32.3917 76.6968 32.3917 76.7552Z" fill="black"/>
</g>
<path opacity="0.6" d="M39.0063 75.2042L36.9849 75.39L37.0651 76.2625L39.0865 76.0767L39.0063 75.2042Z" fill="black"/>
<path opacity="0.6" d="M34.6369 75.6339L32.6086 75.7142L32.6433 76.5898L34.6716 76.5094L34.6369 75.6339Z" fill="black"/>
<path opacity="0.6" d="M36.7861 75.4224L34.7646 75.6082L34.8448 76.4808L36.8663 76.295L36.7861 75.4224Z" fill="black"/>
<path d="M37.357 59.9755C36.5538 59.9317 33.2534 59.8733 29.9821 60.5304L30.7415 71.4979C30.7415 71.4979 30.7999 72.7539 30.5955 74.4187C34.0128 75.733 37.5907 75.4702 39.7667 74.112C39.7667 74.0974 39.8105 74.0974 39.606 72.0967C39.2263 68.5626 38.8174 63.5242 38.2479 60.3406C38.2187 60.253 37.4447 59.9755 37.357 59.9755Z" fill="white"/>
<path d="M24.6955 75.8351L24.6225 76.4485L26.6816 76.5653L26.8131 76.0104L24.6955 75.8351Z" fill="white"/>
<path d="M34.0128 66.6932C33.8229 63.4074 32.8006 59.5374 32.8006 59.5374C30.1573 60.326 29.5148 60.545 29.5148 60.545C29.5148 60.545 29.8069 63.495 29.8215 66.0507C29.8215 66.8685 30.5955 70.7677 30.5955 71.3519L29.4125 78.2303C29.4418 78.7852 32.9905 78.5808 34.3194 78.4347C34.7722 78.3909 34.2026 69.9791 34.0128 66.6932Z" fill="#263238"/>
<path d="M36.0281 59.5811C36.0281 59.5811 37.5615 63.1007 37.6783 68.5333C37.7952 73.9659 37.912 77.9236 37.912 77.9236C37.912 77.9236 40.4239 78.1718 40.6867 77.6753C40.8328 77.3978 39.9127 71.9944 39.9127 71.9944C39.9127 71.9944 39.2263 61.0123 39.0073 60.3989C39.0073 60.3989 35.9697 59.5665 36.0281 59.5811Z" fill="#263238"/>
<path d="M33.7645 58.5881L32.5378 59.552L32.4648 61.2898C32.4356 61.8594 32.6254 62.4289 32.9759 62.8817L33.2388 63.203L32.786 63.5973C32.64 63.7287 32.5816 63.9185 32.6546 64.0938L34.0858 68.1245C34.0566 67.0584 34.1442 65.1599 33.7353 62.3559C33.5454 61.2752 33.6331 59.698 33.7645 58.5881Z" fill="#263238"/>
<path d="M35.736 59.552C35.736 59.552 36.2764 60.0485 36.5831 61.2022C36.8897 62.3559 37.6491 67.4673 37.6637 68.1098L37.7222 68.0514L38.2333 63.6118C38.2041 63.3928 38.0726 63.2029 37.8974 63.0861L37.4009 62.7648C37.7368 62.2683 37.8244 61.6403 37.6199 61.0854C37.4155 60.545 37.1672 59.9317 37.0212 59.771C36.6853 59.4351 36.0427 59.0992 35.6192 58.8802L35.736 59.552Z" fill="#263238"/>
<path d="M28.4925 68.9714V68.986L28.5217 68.9422L28.4925 68.9714Z" fill="#263238"/>
<path d="M34.743 61.1584L35.1373 61.7425L35.663 61.7133L35.7944 61.0415L35.1811 60.3698L34.743 61.1584Z" fill="#407BFF"/>
<path opacity="0.2" d="M35.1373 61.7425L34.6553 72.7976L36.1595 74.4186L36.9335 72.6808L35.5024 61.8155L35.1373 61.7425Z" fill="black"/>
<path d="M35.1373 61.7425L35.0642 72.7684L36.1595 74.4187L37.1088 72.6808L35.663 61.7133L35.1373 61.7425Z" fill="#407BFF"/>
<path opacity="0.1" d="M33.7645 58.5881L32.5378 59.552L32.4648 61.2898C32.4356 61.8594 32.6254 62.4289 32.9759 62.8817L33.2388 63.203L32.786 63.5973C32.64 63.7287 32.5816 63.9185 32.6546 64.0938L34.0858 68.1245C34.0566 67.0584 34.1442 65.1599 33.7353 62.3559C33.5454 61.2752 33.6331 59.698 33.7645 58.5881Z" fill="white"/>
<path opacity="0.1" d="M35.736 59.552C35.736 59.552 36.2764 60.0485 36.5831 61.2022C36.8897 62.3559 37.6491 67.4673 37.6637 68.1098L37.7222 68.0514L38.2333 63.6118C38.2041 63.3928 38.0726 63.2029 37.8974 63.0861L37.4009 62.7648C37.7368 62.2683 37.8244 61.6403 37.6199 61.0854C37.4155 60.545 37.1672 59.9317 37.0212 59.771C36.6853 59.4351 36.0427 59.0992 35.6192 58.8802L35.736 59.552Z" fill="white"/>
<path d="M30.5955 64.8824C30.318 65.5541 28.7408 69.4534 28.6093 69.7016L27.0029 76.0397L24.6079 75.8499L25.8784 68.6648L28.2588 62.3705C28.2588 62.3705 28.9306 60.6618 29.6316 60.5158L30.5955 64.8824Z" fill="#263238"/>
<path d="M39.0073 60.3989C39.0073 60.3989 39.6791 60.7348 39.9857 61.6256C40.2924 62.5311 43.0526 65.8024 43.0526 65.8024L47.4483 64.4588C47.4483 64.5464 48.2661 66.6056 48.2661 66.6056C48.2661 66.6056 44.3669 69.1028 43.0087 69.0736C41.6506 69.0444 39.3286 65.963 39.3286 65.963L39.0073 60.3989Z" fill="#263238"/>
<path opacity="0.2" d="M33.6185 61.1584L34.5531 61.7425L35.1957 60.5742L35.9113 61.4212L36.0427 60.1945C36.0427 60.1945 35.6922 60.8809 35.6776 60.8517C35.663 60.8225 35.2103 60.399 35.2103 60.399L34.3486 60.9539C34.3486 60.9539 33.6331 60.5304 33.6331 60.545C33.6331 60.5596 33.6185 61.1584 33.6185 61.1584Z" fill="black"/>
<path d="M33.6623 58.924L35.1811 60.2676L35.6046 58.8802L36.0865 60.0193L35.8674 61.2022L35.1811 60.3552C35.1811 60.3552 34.5531 61.4943 34.4947 61.5089C34.4363 61.5235 33.6331 60.6473 33.6331 60.6473L33.6623 58.924Z" fill="white"/>
<path opacity="0.2" d="M43.0525 65.817C43.0525 65.817 43.0817 66.4011 42.9211 66.8539C42.9211 66.8539 43.3592 66.3865 43.4614 65.6855L43.0525 65.817Z" fill="black"/>
<path d="M99.1519 82.7624L98.6974 82.7096L96.3048 103.286L96.7593 103.339L99.1519 82.7624Z" fill="#263238"/>
<path opacity="0.4" d="M99.1519 82.7624L98.6974 82.7096L96.3048 103.286L96.7593 103.339L99.1519 82.7624Z" fill="white"/>
<path d="M96.8076 104.198L96.0589 104.115C95.9757 104.101 95.9202 104.018 95.948 103.921L96.1559 103.075C96.1698 103.006 96.2391 102.95 96.3085 102.964L96.8215 103.02C96.8908 103.034 96.9463 103.089 96.9463 103.172L96.9601 104.046C96.9601 104.129 96.8908 104.198 96.8076 104.198Z" fill="#263238"/>
<path d="M97.9723 81.237C97.9723 81.237 98.2497 81.7084 98.5686 81.75C98.9013 81.7916 99.0677 81.5836 99.0677 81.5836L99.1371 79.9613L98.7904 78.6441L98.0417 79.6424L97.9723 81.237Z" fill="#EEC1BB"/>
<path d="M99.4144 67.8428C99.4144 67.8428 98.4022 74.2625 98.2774 74.9558C98.1526 75.663 97.8753 78.8798 97.8753 78.8798L98.7488 79.3235L100.399 73.6247L100.593 69.881L99.4144 67.8428Z" fill="#EEC1BB"/>
<path d="M100.385 76.6475L98.6518 76.1206C98.527 76.079 98.4022 76.1622 98.3745 76.2869L98.1803 77.2575C98.1526 77.3685 98.2358 77.4933 98.3467 77.5071L100.066 77.8815C100.177 77.9092 100.288 77.8399 100.316 77.729L100.413 77.3823L100.537 76.9248C100.551 76.8 100.496 76.689 100.385 76.6475Z" fill="#263238"/>
<path d="M99.2064 83.1365L100.135 77.9369L99.345 77.7151L98.5824 83.0533L99.2064 83.1365Z" fill="#263238"/>
<path d="M99.1787 80.5714L97.0988 80.1138C96.8631 80.0584 96.6274 80.2109 96.5858 80.4466C96.5442 80.6823 96.6967 80.9042 96.9186 80.9458L98.8459 81.3479L99.1787 80.5714Z" fill="#263238"/>
<path d="M98.7211 78.9491C98.7211 79.0184 98.832 79.5869 98.6379 79.989C98.4438 80.405 98.0555 80.613 98.0555 80.613C98.0555 80.613 98.0001 81.639 97.695 81.6668C97.3761 81.6806 97.39 80.8487 97.39 80.8487C97.39 80.8487 97.3761 80.2386 97.487 79.781C97.6118 79.3096 97.9862 78.6995 97.9862 78.6995L98.7211 78.9491Z" fill="#EEC1BB"/>
<path opacity="0.2" d="M99.969 72.779C99.969 72.779 99.4005 72.9038 99.1509 73.4029C98.9707 73.7496 99.3589 74.7895 99.3589 74.7895C99.3589 74.7895 99.9274 73.5139 99.969 72.779Z" fill="black"/>
<path d="M107.859 102.784L106.486 102.923L105.751 99.4285L107.859 99.2344V102.784Z" fill="#EEC1BB"/>
<path d="M106.292 102.313H106.777C106.888 102.313 106.985 102.368 107.054 102.451C107.332 102.839 107.553 102.687 107.859 102.326C108.053 102.299 108.108 102.521 108.122 102.59L108.482 103.921C108.51 104.032 108.455 104.143 108.344 104.184C108.33 104.184 108.302 104.198 108.288 104.198C107.692 104.198 107.415 104.198 106.68 104.198H104.42C103.81 104.198 103.671 103.574 103.935 103.519C105.072 103.269 105.876 102.937 106.236 102.604C106.292 102.534 106.222 102.493 106.292 102.313Z" fill="#263238"/>
<path d="M105.571 102.77C105.723 102.77 105.876 102.742 106.028 102.715C106.042 102.715 106.056 102.701 106.042 102.673C106.042 102.659 106.028 102.659 106.028 102.659C105.959 102.631 105.349 102.34 105.196 102.451C105.169 102.465 105.155 102.507 105.155 102.534C105.155 102.604 105.182 102.659 105.238 102.687C105.335 102.756 105.446 102.784 105.571 102.77ZM105.931 102.673C105.751 102.701 105.418 102.756 105.28 102.645C105.238 102.618 105.224 102.576 105.224 102.534C105.224 102.521 105.224 102.507 105.238 102.493C105.307 102.437 105.668 102.562 105.931 102.673Z" fill="#407BFF"/>
<path d="M106.014 102.715H106.028C106.042 102.701 106.042 102.701 106.042 102.687C106.042 102.659 105.903 102.063 105.557 102.105C105.474 102.118 105.446 102.16 105.446 102.188C105.432 102.34 105.806 102.645 105.987 102.729L106.014 102.715ZM105.598 102.146C105.806 102.146 105.931 102.493 105.973 102.632C105.779 102.521 105.501 102.271 105.515 102.174C105.515 102.16 105.515 102.146 105.571 102.132L105.598 102.146Z" fill="#407BFF"/>
<path d="M106.375 102.992C106.361 102.992 106.347 102.992 106.347 102.978C106.264 102.839 106.111 102.742 105.959 102.729C105.945 102.729 105.931 102.715 105.931 102.687C105.931 102.673 105.945 102.659 105.973 102.659C106.153 102.687 106.319 102.784 106.416 102.937C106.43 102.95 106.417 102.978 106.403 102.978C106.389 102.992 106.375 102.992 106.375 102.992Z" fill="#407BFF"/>
<path d="M106.07 103.228C106.056 103.228 106.042 103.228 106.042 103.214C105.959 103.075 105.806 102.978 105.654 102.964C105.64 102.964 105.626 102.95 105.626 102.923C105.626 102.909 105.64 102.895 105.668 102.895C105.848 102.923 106.014 103.02 106.111 103.172C106.125 103.186 106.111 103.214 106.098 103.214C106.084 103.228 106.07 103.228 106.07 103.228Z" fill="#407BFF"/>
<path d="M105.682 103.422C105.668 103.422 105.654 103.422 105.654 103.408C105.571 103.269 105.418 103.172 105.266 103.158C105.252 103.158 105.238 103.145 105.238 103.117C105.238 103.103 105.252 103.089 105.28 103.089C105.46 103.117 105.626 103.214 105.723 103.366C105.737 103.38 105.723 103.408 105.709 103.408C105.695 103.408 105.695 103.422 105.682 103.422Z" fill="#407BFF"/>
<path d="M101.231 102.687L99.8581 102.812L99.2341 99.3037L101.175 99.0958L101.231 102.687Z" fill="#EEC1BB"/>
<path d="M99.664 102.216H100.149C100.26 102.216 100.357 102.271 100.427 102.354C100.704 102.742 100.926 102.59 101.231 102.229C101.425 102.202 101.48 102.423 101.494 102.493L101.855 103.824C101.882 103.935 101.827 104.046 101.716 104.087C101.702 104.087 101.674 104.101 101.661 104.101C101.064 104.101 100.787 104.101 100.052 104.101H97.7921C97.182 104.101 97.0434 103.477 97.3068 103.422C98.4438 103.172 99.248 102.839 99.6085 102.507C99.664 102.437 99.5946 102.396 99.664 102.216Z" fill="#263238"/>
<path d="M98.9429 102.659C99.0955 102.659 99.248 102.631 99.4005 102.604C99.4144 102.604 99.4282 102.59 99.4144 102.562C99.4144 102.548 99.4005 102.548 99.4005 102.548C99.3312 102.521 98.7211 102.229 98.5686 102.34C98.5408 102.354 98.527 102.396 98.527 102.423C98.527 102.493 98.5547 102.548 98.6102 102.576C98.7072 102.645 98.8181 102.673 98.9429 102.659ZM99.3034 102.562C99.1232 102.59 98.7904 102.645 98.6518 102.534C98.6102 102.507 98.5963 102.465 98.5963 102.423C98.5963 102.41 98.5963 102.396 98.6102 102.382C98.6795 102.326 99.04 102.451 99.3034 102.562Z" fill="#407BFF"/>
<path d="M99.3866 102.604H99.4005C99.4144 102.59 99.4144 102.59 99.4144 102.576C99.4144 102.548 99.2757 101.952 98.9429 101.994C98.8597 102.008 98.832 102.049 98.832 102.077C98.8043 102.243 99.1925 102.534 99.3728 102.618L99.3866 102.604ZM98.9707 102.035C99.1786 102.035 99.3034 102.382 99.345 102.521C99.1509 102.41 98.8736 102.16 98.8875 102.063C98.8875 102.049 98.8875 102.035 98.9429 102.021L98.9707 102.035Z" fill="#407BFF"/>
<path d="M99.7333 102.895C99.7194 102.895 99.7055 102.895 99.7055 102.881C99.6223 102.742 99.4698 102.645 99.3173 102.632C99.3034 102.632 99.2896 102.618 99.2896 102.59C99.2896 102.576 99.3034 102.562 99.3312 102.562C99.5114 102.59 99.6778 102.687 99.7749 102.84C99.7887 102.853 99.7749 102.881 99.761 102.881C99.7471 102.881 99.7471 102.895 99.7333 102.895Z" fill="#407BFF"/>
<path d="M99.4421 103.117C99.4282 103.117 99.4144 103.117 99.4144 103.103C99.3312 102.964 99.1787 102.867 99.0261 102.853C99.0123 102.853 98.9984 102.84 98.9984 102.812C98.9984 102.798 99.0123 102.784 99.04 102.784C99.2203 102.812 99.3866 102.909 99.4837 103.061C99.4976 103.075 99.4837 103.103 99.4698 103.103C99.456 103.117 99.4421 103.117 99.4421 103.117Z" fill="#407BFF"/>
<path d="M99.0539 103.311C99.04 103.311 99.0261 103.311 99.0261 103.297C98.9429 103.158 98.7904 103.061 98.6379 103.047C98.624 103.047 98.6102 103.034 98.6102 103.006C98.6102 102.992 98.6379 102.978 98.6518 102.978C98.832 103.006 98.9984 103.103 99.0955 103.255C99.1093 103.269 99.0955 103.297 99.0816 103.297C99.0677 103.311 99.0677 103.311 99.0539 103.311Z" fill="#407BFF"/>
<path d="M99.0261 76.7584C98.9291 77.0495 97.8198 86.4088 97.8337 88.4193C97.8476 90.0555 99.1093 101.079 99.1093 101.079L101.494 100.995C101.494 100.995 101.369 95.5601 101.439 93.6605C101.508 91.7748 101.051 88.2252 101.051 88.2252L103.893 79.7117L103.782 76.8554L99.0261 76.7584Z" fill="#407BFF"/>
<path d="M107.54 89.3205C107.47 89.0432 107.373 88.4886 107.248 87.7676H107.262C107.179 86.797 107.484 81.8054 107.179 78.9352C106.943 77.1188 106.514 76.1482 106.042 75.5381C106.014 75.5104 106.001 75.4827 105.973 75.4549C105.89 75.3579 105.848 75.3024 105.848 75.3024C105.765 75.3301 105.668 75.344 105.585 75.3579C105.557 75.3717 105.515 75.3717 105.487 75.3856C102.174 76.0789 99.3866 75.0806 99.3866 75.0806C99.0816 75.8293 98.9152 77.7012 98.6934 79.365C99.04 79.7394 100.385 80.0999 102.132 80.4188L102.631 82.665C102.895 84.0516 103.227 85.4243 103.519 86.6583L103.81 88.0033C103.824 88.0865 103.851 88.1835 103.865 88.2667C104.018 89.0432 105.709 101.314 105.709 101.314L108.122 101.356C108.122 101.37 108.385 93.0226 107.54 89.3205Z" fill="#407BFF"/>
<path opacity="0.2" d="M99.0955 75.8849C99.0955 75.8849 100.246 77.1466 102.215 77.1605C104.184 77.1744 106.389 76.0374 106.389 76.0374L106.139 75.6075L100.468 76.2315L99.3034 75.6075L99.0955 75.8849Z" fill="black"/>
<path opacity="0.2" d="M102.728 83.2475C102.742 83.2891 101.605 78.9076 101.605 78.9076C101.605 78.9076 100.745 82.8732 102.118 85.0639L102.728 83.2475Z" fill="black"/>
<path d="M100.316 66.0126C99.0677 67.3853 98.7349 68.9521 98.7349 68.9521L101.439 69.6038C101.439 69.6038 102.187 67.6349 101.882 66.9138C101.564 66.1512 101.078 65.4302 100.316 66.0126Z" fill="#263238"/>
<g opacity="0.3">
<path d="M100.149 67.2882C99.9967 67.5517 99.9412 67.7042 99.8442 68.0092C99.7471 68.3143 99.6917 68.8689 99.6639 69.1462L100.177 69.2987C100.163 68.6054 100.163 67.9954 100.149 67.2882Z" fill="black"/>
</g>
<path d="M106.943 69.368L107.803 66.4562C107.262 65.652 104.586 65.0281 104.586 65.0281L102.825 65.1251C102.825 65.1251 102.146 65.2777 101.564 65.4718C100.787 65.7214 100.371 65.9293 100.191 66.3592C100.191 66.3592 99.8719 67.3159 100.066 69.2709C100.121 69.8117 100.052 72.6126 99.9135 73.5415L98.9984 75.7323C102.215 78.242 106.347 75.7323 106.347 75.7323C106.208 75.2886 106.111 74.8033 106.042 74.3596C106.084 73.805 106.028 72.9592 106.264 71.9886C106.278 71.7945 106.86 69.5483 106.943 69.368Z" fill="#263238"/>
<path opacity="0.3" d="M106.666 70.1584C106.666 70.1584 105.432 68.6054 105.64 67.9537L106.916 69.1462L106.666 70.1584Z" fill="black"/>
<path d="M107.415 66.1512C108.094 66.373 108.76 68.5222 108.76 68.5222L106.777 69.8394C106.777 69.8394 105.612 68.1062 105.82 67.2188C106.001 66.4562 106.555 65.8739 107.415 66.1512Z" fill="#263238"/>
<path d="M106.902 69.7563C106.902 69.7563 108.122 72.3907 108.108 72.4878C108.025 72.8622 104.115 72.6126 104.115 72.6126L104.018 73.6664C104.018 73.6664 105.793 74.2348 107.623 74.2764C109.509 74.318 110.368 73.3197 109.911 72.1411C109.425 70.8794 108.538 68.6747 108.538 68.6747L106.902 69.7563Z" fill="#EEC1BB"/>
<path opacity="0.3" d="M108.108 72.4877C108.108 72.4877 108.496 72.4045 108.885 72.6403C108.885 72.6403 108.843 72.46 108.524 72.3491C108.33 72.2797 108.039 72.2936 108.039 72.2936L108.108 72.4877Z" fill="black"/>
<path d="M102.798 72.6264C102.798 72.6264 102.534 72.155 102.104 72.0302C101.674 71.9054 101.369 71.6974 101.037 71.6419C100.718 71.5726 100.981 71.9331 101.161 72.0856C101.342 72.2382 101.55 72.4323 101.411 72.5432C101.272 72.668 99.7055 72.9314 99.5253 73.1256C99.345 73.3058 99.6085 73.3474 99.6085 73.3474C99.6085 73.3474 99.2341 73.4306 99.2202 73.5831C99.2202 73.6247 99.2757 73.7218 99.4559 73.7218C99.858 73.7079 100.69 73.6247 100.69 73.6247C100.648 73.6247 99.6223 73.805 99.4698 73.8466C99.2757 73.902 99.2064 74.0407 99.248 74.1516C99.3034 74.318 100.579 74.1377 100.648 74.1655C100.648 74.1655 99.9135 74.2348 99.8165 74.4428C99.7333 74.6508 100.205 74.623 100.607 74.526C100.981 74.4428 101.744 74.3596 102.118 74.2348C102.576 74.0823 102.853 73.8743 102.895 73.4167C102.964 72.9592 102.798 72.6264 102.798 72.6264Z" fill="#EEC1BB"/>
<path opacity="0.3" d="M99.6778 73.3475C99.6639 73.3475 99.6639 73.3475 99.6639 73.3336C99.6639 73.3197 99.6639 73.3197 99.6778 73.3197C99.9828 73.2643 100.288 73.2227 100.593 73.1949C100.607 73.1949 100.607 73.1949 100.607 73.2088C100.607 73.2227 100.607 73.2227 100.593 73.2227C100.288 73.2504 99.9828 73.292 99.6778 73.3475Z" fill="black"/>
<path d="M102.229 74.2764L102.756 70.9348L108.538 67.926C108.538 67.926 110.618 72.155 110.313 73.2781C109.786 75.247 108.649 74.831 107.789 74.8726C106.93 74.9142 102.229 74.2764 102.229 74.2764Z" fill="#407BFF"/>
<path d="M102.77 70.921L101.3 65.5411L101.993 65.3193L103.657 70.4634L102.77 70.921Z" fill="#407BFF"/>
<path opacity="0.2" d="M102.77 70.9209L108.538 67.9121L108.885 68.6331L102.617 71.8222L102.77 70.9209Z" fill="black"/>
<path d="M108.704 64.5705C108.607 64.4041 108.399 64.3071 108.233 64.21C107.581 63.7941 107.207 63.1146 107.013 62.4214C106.819 61.7281 106.791 61.0071 106.652 60.2999C106.597 59.981 106.514 59.6621 106.306 59.3987C106.098 59.1352 105.446 58.7192 104.988 59.3155V60.3415C104.808 60.8268 104.836 61.3537 104.891 61.8529C104.961 62.3659 104.6 61.5756 104.572 62.0886C104.558 62.3936 104.572 63.7802 104.572 64.0852C104.572 64.3903 104.988 64.9172 105.182 65.1806C105.418 65.4995 105.848 65.6659 106.278 65.7491C106.819 65.8462 107.401 65.8184 107.928 65.652C108.191 65.5688 108.441 65.4579 108.607 65.2638C108.774 65.0697 108.829 64.7785 108.704 64.5705Z" fill="#263238"/>
<path d="M105.002 59.2323C105.279 59.2739 105.487 59.4957 105.598 59.7453C105.668 59.9117 105.709 60.1058 105.682 60.286C105.654 60.4663 105.543 60.6327 105.377 60.7159C105.21 60.7991 104.988 60.7713 104.877 60.6327C104.766 60.5079 104.753 60.3276 104.78 60.1613C104.808 59.9949 104.891 59.8423 104.933 59.6898C104.988 59.5373 105.016 59.3571 104.961 59.2045" fill="#407BFF"/>
<path d="M104.988 65.1251C104.988 65.1251 104.448 65.5411 103.74 66.1512C103.588 66.2759 103.435 66.3869 103.255 66.4839C102.798 66.7335 102.59 66.6642 102.479 66.4423C102.451 66.3869 102.395 66.2482 102.382 66.1928C102.285 65.8184 102.132 65.5827 102.437 65.347C102.77 65.0835 102.936 64.8478 102.881 64.4734C102.853 64.2654 102.77 64.0575 102.687 63.8495L102.95 63.5306L104.35 62.1163C104.323 63.073 104.253 64.6259 104.988 65.1251Z" fill="#EEC1BB"/>
<path opacity="0.2" d="M102.895 64.5705C103.283 64.3486 103.699 63.9465 103.643 63.489C103.616 63.2948 103.574 63.1146 103.532 63.0037L102.756 64.0436C102.825 64.21 102.853 64.3209 102.895 64.5705Z" fill="black"/>
<path d="M104.753 60.6187C104.628 62.0608 104.6 62.657 103.851 63.4196C102.742 64.5566 101.023 64.1683 100.732 62.754C100.468 61.4784 100.732 59.3431 102.132 58.733C103.519 58.1368 104.891 59.1906 104.753 60.6187Z" fill="#EEC1BB"/>
<path d="M102.964 61.0764C102.95 61.215 102.881 61.3259 102.784 61.3259C102.687 61.3259 102.617 61.215 102.631 61.0902C102.645 60.9654 102.714 60.8406 102.811 60.8406C102.908 60.8406 102.978 60.9377 102.964 61.0764Z" fill="#263238"/>
<path d="M101.48 61.0625C101.466 61.1873 101.397 61.2982 101.3 61.2982C101.203 61.2982 101.134 61.2012 101.148 61.0625C101.161 60.9377 101.231 60.8268 101.328 60.8268C101.411 60.8268 101.48 60.9238 101.48 61.0625Z" fill="#263238"/>
<path d="M102.659 60.2583C102.673 60.2583 102.7 60.2583 102.714 60.2722C102.922 60.4802 103.172 60.4247 103.186 60.4247C103.227 60.4108 103.255 60.4386 103.269 60.4802C103.283 60.5217 103.255 60.5633 103.214 60.5633C103.2 60.5633 102.881 60.6465 102.617 60.3831C102.59 60.3554 102.59 60.3138 102.617 60.286C102.617 60.2722 102.645 60.2583 102.659 60.2583Z" fill="#263238"/>
<path d="M101.536 60.189C101.55 60.189 101.577 60.189 101.591 60.2028C101.619 60.2167 101.633 60.2722 101.605 60.2999C101.383 60.6327 101.064 60.6465 101.05 60.6465C101.009 60.6465 100.981 60.6188 100.981 60.5772C100.981 60.5356 101.009 60.5079 101.05 60.5079C101.064 60.5079 101.314 60.494 101.494 60.2306C101.494 60.2028 101.522 60.2028 101.536 60.189Z" fill="#263238"/>
<path d="M104.143 61.52C104.143 61.52 103.699 60.8545 103.879 59.5511C103.907 59.3293 103.768 59.1213 103.56 59.0797C102.936 58.9549 102.118 58.1784 101.106 59.7314C101.106 59.7314 101.619 57.7624 104.406 58.6221C106.195 59.1767 105.196 61.423 104.933 61.6309C104.669 61.8528 104.143 61.52 104.143 61.52Z" fill="#263238"/>
<path d="M105.182 61.7974C105.016 62.0886 104.739 62.2827 104.489 62.3381C104.115 62.4352 103.907 61.8251 104.045 61.4369C104.156 61.0902 104.531 60.8684 104.905 60.9377C105.266 61.0209 105.377 61.4508 105.182 61.7974Z" fill="#EEC1BB"/>
<path d="M101.869 61.0209C101.869 61.0209 101.647 61.5616 101.397 61.8944C101.356 61.9499 101.383 62.0331 101.453 62.0608C101.633 62.1301 101.841 62.0608 101.841 62.0608L101.869 61.0209Z" fill="#D4827D"/>
<path d="M102.839 60.8268L102.506 60.7436C102.506 60.7575 102.687 61.007 102.839 60.8268Z" fill="#263238"/>
<path d="M101.356 60.8268L101.023 60.7436C101.023 60.7436 101.203 60.9932 101.356 60.8268Z" fill="#263238"/>
<path d="M104.045 58.5251C102.784 57.6793 101.48 58.4003 101.48 58.4003C99.9829 59.2738 100.648 60.7436 100.648 60.7436C101.702 60.1889 102.215 59.981 103.227 59.3986C102.992 59.773 103.394 60.2999 103.837 60.702C104.281 61.0902 104.156 61.2566 104.156 61.2566C105.321 59.9532 105.307 59.3709 104.045 58.5251Z" fill="#263238"/>
<path d="M102.063 62.4906C102.049 62.4906 102.049 62.4906 102.035 62.4768C102.021 62.4629 102.021 62.4352 102.035 62.4213C102.132 62.3381 102.271 62.2827 102.395 62.2827C102.409 62.2827 102.423 62.2965 102.437 62.3104C102.437 62.3243 102.423 62.352 102.409 62.352C102.298 62.352 102.174 62.3936 102.09 62.4768C102.077 62.4906 102.077 62.4906 102.063 62.4906Z" fill="black"/>
<path opacity="0.2" d="M104.448 61.936C104.434 61.936 104.42 61.9222 104.42 61.9083C104.392 61.7835 104.406 61.6449 104.448 61.5339C104.475 61.4507 104.531 61.3398 104.642 61.2843C104.753 61.215 104.877 61.2289 104.961 61.2982C104.974 61.3121 104.974 61.3259 104.961 61.3537C104.947 61.3675 104.933 61.3675 104.905 61.3537C104.85 61.2982 104.739 61.2982 104.656 61.3537C104.572 61.4091 104.517 61.5062 104.489 61.5755C104.448 61.6865 104.448 61.7974 104.461 61.9222C104.489 61.9083 104.475 61.936 104.448 61.936Z" fill="black"/>
<path d="M103.657 63.184L102.77 63.6138C102.659 63.6693 102.52 63.6277 102.465 63.5029L102.451 63.4752C102.395 63.3642 102.437 63.2256 102.562 63.1701L103.449 62.7403C103.56 62.6848 103.699 62.7264 103.754 62.8512L103.768 62.8789C103.81 62.9899 103.768 63.1285 103.657 63.184Z" fill="#D4827D"/>
<path opacity="0.2" d="M103.657 63.184L102.77 63.6138C102.659 63.6693 102.52 63.6277 102.465 63.5029L102.451 63.4752C102.395 63.3642 102.437 63.2256 102.562 63.1701L103.449 62.7403C103.56 62.6848 103.699 62.7264 103.754 62.8512L103.768 62.8789C103.81 62.9899 103.768 63.1285 103.657 63.184Z" fill="white"/>
<path opacity="0.2" d="M103.435 63.2256L102.922 63.4751C102.895 63.489 102.867 63.4751 102.853 63.4474L102.728 63.1978C102.714 63.1701 102.728 63.1424 102.756 63.1285L103.269 62.8789C103.297 62.865 103.324 62.8789 103.338 62.9066L103.463 63.1562C103.477 63.184 103.463 63.2256 103.435 63.2256Z" fill="white"/>
</svg>
