<svg width="130" height="130" viewBox="0 0 130 130" fill="none" xmlns="http://www.w3.org/2000/svg">
<path d="M66.5788 125C98.8439 125 125 98.844 125 66.5789C125 34.3138 98.8439 8.15778 66.5788 8.15778C34.3137 8.15778 8.15771 34.3138 8.15771 66.5789C8.15771 98.844 34.3137 125 66.5788 125Z" fill="#C2EAFC"/>
<path d="M113.947 17.6316C117.435 17.6316 120.263 14.8039 120.263 11.3158C120.263 7.82768 117.435 5 113.947 5C110.459 5 107.631 7.82768 107.631 11.3158C107.631 14.8039 110.459 17.6316 113.947 17.6316Z" fill="#AAE5FF"/>
<path d="M11.3158 98.1579C14.8039 98.1579 17.6316 95.3303 17.6316 91.8422C17.6316 88.354 14.8039 85.5264 11.3158 85.5264C7.82768 85.5264 5 88.354 5 91.8422C5 95.3303 7.82768 98.1579 11.3158 98.1579Z" fill="#AAE5FF"/>
<path d="M14.4738 66.579C16.2179 66.579 17.6317 67.9928 17.6317 69.7369C17.6317 71.4809 16.2179 72.8948 14.4738 72.8948C12.7298 72.8948 11.3159 71.4809 11.3159 69.7369C11.3159 67.9928 12.7298 66.579 14.4738 66.579Z" fill="white"/>
<path d="M108.421 38.1579C109.729 38.1579 110.789 39.2183 110.789 40.5264C110.789 41.8344 109.729 42.8948 108.421 42.8948C107.113 42.8948 106.052 41.8344 106.052 40.5264C106.052 39.2183 107.113 38.1579 108.421 38.1579Z" fill="white"/>
<path d="M120.263 104.474C122.007 104.474 123.421 103.06 123.421 101.316C123.421 99.5719 122.007 98.1581 120.263 98.1581C118.519 98.1581 117.105 99.5719 117.105 101.316C117.105 103.06 118.519 104.474 120.263 104.474Z" fill="#FDD1A3"/>
<path d="M104.474 9.73688C105.346 9.73688 106.053 9.02996 106.053 8.15793C106.053 7.2859 105.346 6.57898 104.474 6.57898C103.602 6.57898 102.895 7.2859 102.895 8.15793C102.895 9.02996 103.602 9.73688 104.474 9.73688Z" fill="#AAE5FF"/>
<path d="M119.474 28.6842C120.782 28.6842 121.842 27.6238 121.842 26.3158C121.842 25.0078 120.782 23.9474 119.474 23.9474C118.166 23.9474 117.105 25.0078 117.105 26.3158C117.105 27.6238 118.166 28.6842 119.474 28.6842Z" fill="#E40C57"/>
<path d="M75.5 87C91.2401 87 104 74.2401 104 58.5C104 42.7599 91.2401 30 75.5 30C59.7599 30 47 42.7599 47 58.5C47 74.2401 59.7599 87 75.5 87Z" fill="#D8F1FD"/>
<path fill-rule="evenodd" clip-rule="evenodd" d="M98.8959 120.706C98.7662 120.603 98.6174 120.527 98.4581 120.481C98.2988 120.436 98.1321 120.423 97.9676 120.442C97.803 120.461 97.6438 120.513 97.499 120.593C97.3542 120.674 97.2267 120.782 97.1237 120.912C97.0207 121.042 96.9443 121.191 96.8988 121.351C96.8533 121.51 96.8397 121.677 96.8586 121.841C96.8776 122.006 96.9287 122.165 97.0092 122.31C97.0897 122.455 97.1979 122.582 97.3277 122.685C97.5898 122.893 97.9237 122.987 98.2561 122.949C98.5884 122.91 98.892 122.741 99.1 122.478C99.3079 122.216 99.4033 121.882 99.365 121.549C99.3267 121.217 99.158 120.913 98.8959 120.706Z" fill="#BFC7D2"/>
<path d="M22.7246 11.4067L23.383 11.9287C23.5576 12.0672 23.67 12.2694 23.6954 12.491C23.7208 12.7125 23.6572 12.9352 23.5186 13.1101C23.3799 13.285 23.1776 13.3977 22.9561 13.4235C22.7346 13.4492 22.512 13.3859 22.3374 13.2475L21.679 12.7255L21.1562 13.3849C21.0176 13.5598 20.8152 13.6725 20.5937 13.6983C20.3722 13.724 20.1497 13.6607 19.9751 13.5223C19.8005 13.3839 19.6881 13.1816 19.6627 12.9601C19.6372 12.7385 19.7009 12.5158 19.8395 12.3409L20.3623 11.6815L19.7039 11.1595C19.5293 11.0211 19.417 10.8189 19.3915 10.5973C19.3661 10.3758 19.4297 10.153 19.5684 9.97813C19.707 9.80325 19.9094 9.69053 20.1309 9.66476C20.3524 9.63899 20.5749 9.70229 20.7495 9.84073L21.4079 10.3628L21.9307 9.70334C22.0694 9.52846 22.2717 9.41573 22.4932 9.38997C22.7147 9.3642 22.9373 9.4275 23.1119 9.56594C23.2865 9.70438 23.3989 9.90662 23.4243 10.1282C23.4497 10.3498 23.3861 10.5725 23.2474 10.7473L22.7246 11.4067Z" fill="#BFC7D2"/>
<path d="M11.7245 25.4067L12.3829 25.9287C12.5575 26.0672 12.6699 26.2694 12.6953 26.491C12.7207 26.7125 12.6571 26.9352 12.5185 27.1101C12.3798 27.285 12.1775 27.3977 11.956 27.4235C11.7345 27.4492 11.5119 27.3859 11.3373 27.2475L10.6789 26.7255L10.1561 27.3849C10.0175 27.5598 9.81518 27.6725 9.59367 27.6983C9.37215 27.724 9.14963 27.6607 8.97502 27.5223C8.80041 27.3839 8.68802 27.1816 8.6626 26.9601C8.63718 26.7385 8.7008 26.5158 8.83945 26.3409C8.83945 26.3409 9.40022 26.008 9.36225 25.6815C9.32434 25.3556 8.70388 25.1595 8.70388 25.1595C8.52927 25.0211 8.4169 24.8189 8.39147 24.5973C8.36605 24.3758 8.42966 24.153 8.56831 23.9782C8.70697 23.8033 8.90931 23.6906 9.13082 23.6648C9.35233 23.639 9.57487 23.7023 9.74948 23.8408L10.4078 24.3628L10.9306 23.7034C11.0693 23.5285 11.2716 23.4158 11.4931 23.39C11.7146 23.3642 11.9372 23.4275 12.1118 23.566C12.2864 23.7044 12.3988 23.9066 12.4242 24.1282C12.4496 24.3498 12.386 24.5725 12.2473 24.7473L11.7245 25.4067Z" fill="#BFC7D2"/>
<path d="M113.75 82.0739L74.4062 55.5977L21.582 86.4201L60.9116 112.896L113.75 82.0739Z" fill="#C4C443"/>
<path d="M58.1756 101.853L50.3382 106.47L30.0037 92.8609L37.7698 88.2012L30.7019 83.4845L68.9342 60.5708L104.117 84.4963L65.899 107.011L58.1756 101.853Z" fill="#807E89"/>
<path d="M68.92 61.2834L102.991 84.4536L65.9133 106.299L58.1899 101.14L50.3525 105.757L31.1294 92.9037L38.8956 88.244L31.8277 83.5273L68.92 61.2834ZM68.9485 59.8441L68.2788 60.2431L31.2149 82.4729L29.5619 83.4561L31.1579 84.5248L36.6156 88.1728L30.4882 91.8493L28.8352 92.8325L30.4312 93.9012L49.6542 106.755L50.2955 107.182L50.951 106.797L58.1329 102.565L65.215 107.296L65.8563 107.724L66.5118 107.339L103.576 85.5081L105.229 84.5391L103.633 83.4561L69.604 60.2859L68.9485 59.8441Z" fill="#EAE3E1"/>
<path opacity="0.4" d="M68.2644 102.451L80.4338 101.325L109.974 84.1401L98.8018 77.1434L80.9895 83.4704L73.2518 86.3631L71.3851 89.2985L68.3214 95.5685L68.2644 102.451Z" fill="#382C36"/>
<path d="M68.2644 102.366L37.8125 82.1736V37.0444L68.2644 57.2364V102.366Z" fill="#F4F5F7"/>
<path d="M68.2644 102.394L37.8125 82.2021V79.1241L68.2644 99.3162V102.394Z" fill="#CAE2EF"/>
<path opacity="0.1" d="M62.707 98.7035L62.8353 76.944L65.7992 83.8409V88.1728L63.505 86.7479L63.5193 99.2592L62.707 98.7035Z" fill="#382C36"/>
<path d="M68.2644 58.7469L37.8125 38.5121V37.0444L68.2644 57.2364V58.7469Z" fill="#BDCAD3"/>
<path d="M68.2644 102.38L98.9443 84.4964V39.3672L68.2644 57.2507V102.38Z" fill="#BDCAD3"/>
<path d="M61.6809 99.5015L62.7924 98.6892V81.6749L61.6809 82.2307V99.5015Z" fill="#CACAC8"/>
<path d="M98.9442 39.3671L68.5066 19.1751L37.8267 37.0444L68.2786 57.2364L98.9442 39.3671Z" fill="#F99770"/>
<path d="M68.2644 63.5206L37.8125 43.3286V40.2506L68.2644 60.4426V63.5206Z" fill="#CAE2EF"/>
<path d="M68.2644 63.5348L98.9443 45.6513V42.5591L68.2644 60.4426V63.5348Z" fill="#4B7CA4"/>
<path d="M68.2644 102.394L98.9443 84.5106V81.4326L68.2644 99.3162V102.394Z" fill="#4B7CA4" stroke="#4B7CA4" stroke-width="0.8551" stroke-miterlimit="10"/>
<path d="M99.7138 39.3671V37.9137L68.5352 18.7191L37.0715 35.6052V37.0444L68.2359 57.6924L99.7138 39.3671Z" fill="#EBF2FA"/>
<path d="M68.5353 18.7191L68.236 56.6379L68.2075 58.0772L68.236 57.6924L99.7139 39.3671V37.9136L68.5353 18.7191Z" fill="#CACAC8"/>
<path d="M99.7138 37.9136L68.5352 17.2656L37.0715 35.6052L68.2359 56.2532L99.7138 37.9136Z" fill="white"/>
<path d="M97.1632 37.9136L68.4212 18.8046L39.6223 35.6051L68.3642 54.7142L97.1632 37.9136Z" fill="#D4D4D4"/>
<path d="M68.4212 18.8046L39.6223 35.6051L41.5175 36.8021L68.4212 21.0845V18.8046Z" fill="#C7C7C7"/>
<path d="M68.4211 21.0845L95.2678 38.9966L97.1631 37.9136L68.4211 18.8046V21.0845Z" fill="#F4F5F7"/>
<path opacity="0.1" d="M42.8428 85.4796V63.7201L45.821 70.617V74.949L43.5268 73.524L43.541 86.0353L42.8428 85.4796Z" fill="#7466A4"/>
<path d="M44.667 86.4058V69.705L59.4583 79.4518V96.1527L44.667 86.4058Z" fill="#435A5E"/>
<path d="M44.9804 70.3035L59.1304 79.6229V95.5542L44.9804 86.2205V70.3035ZM44.3391 69.1207V70.3177V86.2348V86.5768L44.6241 86.762L58.7742 96.0957L59.7717 96.7512V95.5542V79.6371V79.2809L59.4867 79.0956L45.3366 69.7762L44.3391 69.1207Z" fill="#EAE3E1"/>
<path opacity="0.6" d="M55.0265 92.4335L55.2972 85.1233L48.6853 82.6581V88.244L55.0265 92.4335Z" fill="#435A5E"/>
<path opacity="0.1" d="M69.3476 54.1585L42.3156 36.2179L39.6082 35.5909L68.3643 54.7285L69.3476 54.1585Z" fill="#382C36"/>
<g opacity="0.8">
<path d="M39.3231 54.4008L66.2125 72.1419V75.3196L39.3231 57.721V54.4008ZM38.7673 53.3463V54.4008L39.1378 58.2625L67.267 76.6021V65.0739L66.8823 64.2047L39.6366 53.9306L38.7673 53.3463Z" fill="#BDCAD3"/>
</g>
<path d="M39.0095 57.3932V46.2356L66.526 64.4041V75.4193L39.0095 57.3932Z" fill="#435A5E"/>
<path d="M39.3231 46.8341L66.2126 64.5751V74.835L39.3231 57.2222V46.8341ZM38.6819 45.6371V46.8341V57.2222V57.5642L38.9669 57.7494L65.8563 75.348L66.8538 76.0035V74.8208V64.5609V64.2189L66.5688 64.0336L39.6794 46.2926L38.6819 45.6371Z" fill="#EAE3E1"/>
<path d="M40.7623 58.5617L38.9954 57.3647V46.3353L40.7623 47.5323V58.5617Z" fill="#EAE3E1"/>
<path d="M49.3121 64.1761L47.5452 62.9791V51.9497L49.3121 53.1467V64.1761Z" fill="#EAE3E1"/>
<path d="M57.8622 69.7764L56.0952 68.5794V57.55L57.8622 58.747V69.7764Z" fill="#EAE3E1"/>
<path d="M66.4264 75.3908L64.6594 74.1938V63.1644L66.4264 64.3614V75.3908Z" fill="#EAE3E1"/>
<path d="M42.5294 57.2222L40.7625 58.1627V47.7888L42.5294 48.9573V57.2222Z" fill="#BDCAD3"/>
<path d="M42.5294 57.2222L40.7625 58.1627L47.5454 62.6229V60.4284L42.5294 57.2222Z" fill="white"/>
<path d="M51.0792 62.8509L49.3123 63.8056V53.4175L51.0792 54.586V62.8509Z" fill="#BDCAD3"/>
<path d="M51.0792 62.8508L49.3123 63.8056L56.0952 68.2515V66.057L51.0792 62.8508Z" fill="white"/>
<path d="M59.6293 68.4939L57.8623 69.4487V59.0605L59.6293 60.229V68.4939Z" fill="#BDCAD3"/>
<path d="M59.6293 68.4939L57.8623 69.4486L64.6452 73.9088V71.7001L59.6293 68.4939Z" fill="white"/>
<path d="M47.6735 88.7999L47.0322 88.3866V80.022H47.6735V88.7999Z" fill="#EAE3E1"/>
<path d="M56.6652 94.3715L56.0239 93.9583V84.2399H56.6652V94.3715Z" fill="#EAE3E1"/>
<path d="M48.6852 88.2442L48.0439 87.8309V78.1125H48.6852V88.2442Z" fill="#EAE3E1"/>
<path d="M55.5963 92.7898L54.9551 92.3766V82.6582H55.5963V92.7898Z" fill="#EAE3E1"/>
<path d="M45.1513 58.8895L44.51 58.4762V50.1116H45.1513V58.8895Z" fill="#EAE3E1"/>
<path d="M53.7011 64.5894L53.0598 64.1762V55.8115H53.7011V64.5894Z" fill="#EAE3E1"/>
<path d="M62.3651 70.2751L61.7239 69.8618V61.4972H62.3651V70.2751Z" fill="#EAE3E1"/>
<g opacity="0.8">
<path opacity="0.5" d="M97.1918 56.9086V60.2431L70.3166 75.5189V72.3412L97.1918 56.9086ZM97.7618 55.8969L96.8783 56.4098L70.0031 71.8424L69.7466 71.9849V72.2842V75.4619V76.5021L70.6158 76.0034L97.5053 60.7275L97.7618 60.585V60.2716V56.9371V55.8969V55.8969Z" fill="#ADA17C"/>
</g>
<path d="M69.9888 64.5751L97.5195 48.7292V59.9439L69.9888 75.5902V64.5751Z" fill="#303A3A"/>
<path d="M97.1917 49.2993V59.7444L70.3165 75.0202V64.7603L97.1917 49.2993ZM97.833 48.145L96.8355 48.7293L69.9603 64.2046L69.6753 64.3756V64.7176V74.9775V76.1602L70.6728 75.6045L97.5622 60.3286L97.8472 60.1576V59.8014V49.3563V48.145H97.833Z" fill="#D1CAC8"/>
<path d="M95.7668 60.9698L97.5338 59.9154V48.829L95.7668 49.8835V60.9698Z" fill="#D1CAC8"/>
<path d="M87.2026 65.8576L88.9696 64.8031V53.731L87.2026 54.7854V65.8576Z" fill="#D1CAC8"/>
<path d="M78.6526 70.731L80.4196 69.6765V58.6187L78.6526 59.6731V70.731Z" fill="#D1CAC8"/>
<path d="M70.1028 75.5759L71.8698 74.5357V63.4921L70.1028 64.5466V75.5759Z" fill="#D1CAC8"/>
<path d="M93.9998 59.4736L95.7667 60.5709V50.1257L93.9998 51.1375V59.4736Z" fill="#A4B1BA"/>
<path d="M93.9997 59.4736L95.7667 60.5709L88.9695 64.4611V62.2524L93.9997 59.4736Z" fill="#E6E6E6"/>
<path d="M85.4356 64.3755L87.2026 65.487V55.0419L85.4214 56.0821L85.4356 64.3755Z" fill="#A4B1BA"/>
<path d="M85.4356 64.3755L87.2026 65.487L80.4197 69.3487V67.1542L85.4356 64.3755Z" fill="#E6E6E6"/>
<path d="M76.8857 69.2774L78.667 70.3889V59.9723L76.8857 60.9983V69.2774Z" fill="#A4B1BA"/>
<path d="M76.8856 69.2775L78.6668 70.389L71.8696 74.2364V72.0419L76.8856 69.2775Z" fill="#E6E6E6"/>
<path d="M91.3779 60.9128L92.0192 60.5566V52.1634L91.3779 52.1064V60.9128Z" fill="#D1CAC8"/>
<path d="M82.8279 65.8861L83.4691 65.5299V57.1367L82.8279 57.0797V65.8861Z" fill="#D1CAC8"/>
<path d="M74.1641 70.8166L74.8053 70.4604V62.0957L74.1641 62.0387V70.8166Z" fill="#D1CAC8"/>
<path d="M61.6811 99.5015L61.1111 99.1452V82.8007L61.6811 82.4872V99.5015Z" fill="#F4F5F7"/>
<g opacity="0.1">
<path d="M61.681 86.2634V82.2307L62.0515 82.0454L61.966 81.6749L60.9542 81.8032C60.9542 81.8032 59.4153 82.3732 59.2015 82.4159C59.002 82.4587 57.0925 83.3564 57.0925 83.3564L60.8687 85.1376V85.9071L61.681 86.2634Z" fill="#7466A4"/>
</g>
<g opacity="0.8">
<path opacity="0.5" d="M97.1918 73.4528V76.7872L70.3166 92.0631V88.8854L97.1918 73.4528ZM97.7618 72.441L96.8783 72.954L70.0031 88.3866L69.7466 88.5291V88.8284V92.0061V93.0463L70.6158 92.5476L97.5053 77.286L97.7618 77.1435V76.83V73.4955V72.441V72.441Z" fill="#ADA17C"/>
</g>
<path d="M69.9888 81.1191L97.5195 65.2733V76.4879L69.9888 92.1343V81.1191Z" fill="#303A3A"/>
<path d="M97.1917 65.8433V76.2885L70.3165 91.5643V81.3044L97.1917 65.8433ZM97.833 64.6891L96.8355 65.2733L69.9603 80.7487L69.6753 80.9197V81.2616V91.5215V92.7043L70.6728 92.1485L97.548 76.8584L97.833 76.6874V76.3312V65.8861V64.6891Z" fill="#D1CAC8"/>
<path d="M95.7668 77.514L97.5338 76.4595V65.3589L95.7668 66.4276V77.514Z" fill="#D1CAC8"/>
<path d="M87.2026 82.4018L88.9696 81.3473V70.2751L87.2026 71.3296V82.4018Z" fill="#D1CAC8"/>
<path d="M78.6526 87.2752L80.4196 86.2207V75.1628L78.6526 76.2173V87.2752Z" fill="#D1CAC8"/>
<path d="M70.1028 92.1201L71.8698 91.0799V80.0363L70.1028 81.0907V92.1201Z" fill="#D1CAC8"/>
<path d="M93.9998 76.0177L95.7667 77.1149V66.6698L93.9998 67.71V76.0177Z" fill="#A4B1BA"/>
<path d="M93.9997 76.0177L95.7667 77.1149L88.9695 81.0051V78.7964L93.9997 76.0177Z" fill="#E6E6E6"/>
<path d="M85.4355 80.9196L87.2025 82.0311V71.6002L85.4355 72.6262V80.9196Z" fill="#A4B1BA"/>
<path d="M85.4356 80.9197L87.2026 82.0312L80.4197 85.8929V83.6984L85.4356 80.9197Z" fill="#E6E6E6"/>
<path d="M76.8857 85.8217L78.667 86.9331V76.5308L76.8857 77.5567V85.8217Z" fill="#A4B1BA"/>
<path d="M76.8856 85.8215L78.6668 86.933L71.8696 90.7805V88.586L76.8856 85.8215Z" fill="#E6E6E6"/>
<path d="M91.3779 77.4569L92.0192 77.1007V68.7075L91.3779 68.6505V77.4569Z" fill="#D1CAC8"/>
<path d="M82.8279 82.4301L83.4691 82.0738V73.6807L82.8279 73.6237V82.4301Z" fill="#D1CAC8"/>
<path d="M74.1641 87.3605L74.8053 87.0043V78.6396L74.1641 78.5826V87.3605Z" fill="#D1CAC8"/>
<path d="M41.8169 86.1494L42.9284 85.5936V68.5651L41.8169 69.1351V86.1494Z" fill="#CACAC8"/>
<path d="M41.8168 86.1494L41.2468 85.7931V69.7051L41.8168 69.3773V86.1494Z" fill="#F4F5F7"/>
<path d="M62.8353 81.8459V77.9699L34.0791 73.2247L54.2711 86.6908L62.8353 81.8459Z" fill="#CACAC8"/>
<path d="M54.2854 81.1192L34.0791 69.363V73.2247L54.2711 86.6908L54.2854 81.1192Z" fill="#F4F5F7"/>
<path d="M62.8353 77.97L42.3868 64.3899L33.8369 69.2348L54.2712 82.8292L62.8353 77.97Z" fill="#DCDEE2"/>
<path d="M63.0774 77.8275V76.9867L42.5007 64.8601L33.8225 68.4653V69.3061L54.385 82.8719L63.0774 77.8275Z" fill="#EBF2FA"/>
<path d="M42.5007 64.974L54.3851 82.1593L54.3566 82.9858L54.3851 83L63.0775 77.9556V77.1149L42.5007 64.974Z" fill="#CACAC8"/>
<path d="M63.0774 76.9867L42.5007 63.4066L33.8225 68.4653L54.385 82.0454L63.0774 76.9867Z" fill="white"/>
<path d="M60.5268 76.9867L42.3725 64.9456L36.3733 68.4653L54.5133 80.5064L60.5268 76.9867Z" fill="#D4D4D4"/>
<path d="M42.3725 64.9456L36.3733 68.4653L37.1998 69.0353L42.3725 66V64.9456Z" fill="#C7C7C7"/>
<path d="M42.3723 66L59.5576 77.5282L60.5266 76.9867L42.3723 64.9456V66Z" fill="#F4F5F7"/>
<path opacity="0.2" d="M50.6802 70.9448V71.5718L53.8436 73.695V73.0396L50.6802 70.9448Z" fill="#435A5E"/>
<g opacity="0.5">
<path d="M46.1344 59.5164L45.3792 59.0461L46.6046 51.6362L47.4169 52.1777L46.1344 59.5164Z" fill="#BDCAD3"/>
</g>
<g opacity="0.5">
<path d="M55.3825 65.6011L53.9148 64.6464L55.126 57.2507L56.1093 57.9062L56.095 61.2264L55.3825 65.6011Z" fill="#BDCAD3"/>
</g>
<g opacity="0.5">
<path d="M63.9469 71.2583L63.1489 70.7453L64.3602 63.3782L64.6737 63.5492V66.8694L63.9469 71.2583Z" fill="#BDCAD3"/>
</g>
<g opacity="0.4">
<path d="M55.5394 79.9079L49.811 76.2172L50.5805 75.7897L51.4925 76.3455L54.0717 75.0915L52.6324 74.151L53.7439 73.6665L50.6945 71.5575L48.5997 72.498L46.1203 70.5173L43.5125 71.757L45.593 73.0395L45.6358 73.524L37.9694 68.5793L36.3591 68.451L45.6358 74.6212V75.3337L46.6048 76.1317L47.987 76.146L54.5134 80.5207L55.5394 79.9079Z" fill="#C6BA95"/>
</g>
<path d="M50.8654 70.1753L48.1152 68.3655V65.0453L45.2795 63.0789L43.8545 63.9909L45.3793 66.5986L42.7288 64.7888L41.2896 65.6723L42.5435 69.0353L45.0373 70.6883L46.676 76.203L48.1152 75.3195V72.1703L49.4262 74.7352L50.8654 73.8517V70.1753Z" fill="#008035"/>
<path d="M44.0256 74.151V71.0445C44.0256 70.9875 43.9971 70.9305 43.9401 70.8877L41.4749 69.249V66.0143L43.7406 67.5248C43.7691 67.539 43.8118 67.5533 43.8403 67.5533C43.8688 67.5533 43.8973 67.539 43.9258 67.5248C43.9828 67.4963 44.0256 67.425 44.0256 67.368V64.3043L46.505 66.0143V69.2348C46.505 69.2918 46.5335 69.3488 46.5905 69.3915L49.2553 71.1442V74.379L46.79 72.7545C46.7615 72.7402 46.7188 72.726 46.6903 72.726C46.6618 72.726 46.6333 72.7402 46.6048 72.7545C46.5478 72.783 46.505 72.8542 46.505 72.9112V75.8609L44.0256 74.151Z" fill="#00B535"/>
<path d="M44.2108 64.6606L46.3197 66.1284V69.2491C46.3197 69.3773 46.3767 69.4913 46.4907 69.5483L49.07 71.2583V74.0655L46.8897 72.6263C46.8327 72.5836 46.7615 72.5693 46.6902 72.5693C46.6332 72.5693 46.5762 72.5836 46.5192 72.6121C46.4052 72.6691 46.3197 72.7973 46.3197 72.9398V75.5333L44.2108 74.0655V71.0588C44.2108 70.9306 44.1538 70.8166 44.054 70.7596L41.66 69.1493V66.3564L43.6408 67.6816C43.6978 67.7244 43.769 67.7386 43.8403 67.7386C43.8973 67.7386 43.9543 67.7244 44.0113 67.6959C44.1253 67.6389 44.2108 67.5106 44.2108 67.3681V64.6606V64.6606ZM43.8403 63.9624V67.3681L41.2896 65.6724V69.3488L43.8403 71.0446V74.2365L46.676 76.203V72.9113L49.4262 74.721V71.0446L46.676 69.2348V65.9146L43.8403 63.9624Z" fill="white"/>
<path d="M49.4262 71.0587L50.3525 70.56L47.6023 68.7502L46.676 69.249L49.4262 71.0587Z" fill="#00B535"/>
<path d="M46.7045 65.9146L48.1152 65.0453L45.2795 63.0789L43.8545 63.9909L46.7045 65.9146Z" fill="#00B535"/>
<path d="M43.8545 67.4393L43.8403 65.5441L42.7288 64.7888L41.2896 65.6723L43.8545 67.4393Z" fill="#00B535"/>
<path opacity="0.4" d="M69.661 64.3756L97.8329 48.145L97.3484 47.8173L69.6467 63.7771L69.661 64.3756Z" fill="white"/>
<path opacity="0.4" d="M69.6468 80.9196L97.8187 64.6891L97.3343 64.3613L69.6326 80.3069L69.6468 80.9196Z" fill="white"/>
<path opacity="0.3" d="M38.5821 94.229C38.5678 94.229 38.5536 94.229 38.5393 94.229L35.2761 94.0437C34.9199 94.0295 34.6491 93.716 34.6634 93.3597C34.6776 93.0035 34.9911 92.7327 35.3474 92.747L38.6106 92.9322C38.9668 92.9465 39.2376 93.26 39.2233 93.6162C39.2091 93.9725 38.9241 94.229 38.5821 94.229Z" fill="#382C36"/>
<path opacity="0.3" d="M52.8746 103.791C52.8603 103.791 52.8461 103.791 52.8318 103.791L49.5686 103.605C49.2124 103.591 48.9416 103.278 48.9559 102.921C48.9701 102.565 49.2836 102.294 49.6399 102.309L52.9031 102.494C53.2593 102.508 53.5301 102.822 53.5158 103.178C53.4873 103.52 53.2023 103.791 52.8746 103.791Z" fill="#382C36"/>
<path d="M35.7465 86.6623C35.889 86.5341 35.9887 86.3631 35.9887 86.1494C35.9887 85.7789 35.6895 85.4796 35.319 85.4796C34.9485 85.4796 34.6492 85.7789 34.6492 86.1494C34.6492 86.3489 34.749 86.5341 34.8915 86.6623C34.6065 86.8191 34.407 87.1183 34.407 87.4746V93.26C34.407 93.773 34.8202 94.0295 35.319 94.0295C35.832 94.0295 36.231 93.773 36.231 93.26V87.4746C36.231 87.1183 36.0315 86.8191 35.7465 86.6623Z" fill="#4C4949"/>
<path d="M50.1102 96.2524C50.2527 96.1242 50.3525 95.9532 50.3525 95.7394C50.3525 95.369 50.0532 95.0697 49.6827 95.0697C49.3122 95.0697 49.013 95.369 49.013 95.7394C49.013 95.9389 49.1127 96.1242 49.2552 96.2524C48.9702 96.4092 48.7708 96.7084 48.7708 97.0504V102.836C48.7708 103.349 49.184 103.605 49.6827 103.605C50.1815 103.605 50.5947 103.349 50.5947 102.836V97.0504C50.5947 96.7084 50.3952 96.4092 50.1102 96.2524Z" fill="#4C4949"/>
<path d="M71.5989 37.7142L75.6744 40.4074L72.1974 42.4593L68.0934 39.7519L63.2485 42.5733L59.7573 40.2791L64.6022 37.4434L60.5695 34.7787L64.0465 32.7267L68.0934 35.4057L72.9384 32.57L76.4296 34.8642L71.5989 37.7142ZM68.1647 29.4065C60.94 29.4065 55.0691 33.083 55.0691 37.6144C55.0691 42.1459 60.9258 45.8223 68.1647 45.8223C75.3894 45.8223 81.2603 42.1459 81.2603 37.6144C81.2603 33.083 75.4036 29.4065 68.1647 29.4065Z" fill="#00B535"/>
<path opacity="0.95" d="M71.599 37.7142L75.6745 40.4074L72.2117 42.4594L68.1078 39.7519L63.2628 42.5734L59.7859 40.2791L64.6308 37.4577L60.5981 34.793L64.0751 32.741L68.122 35.4199L72.9812 32.5842L76.4582 34.8785L71.599 37.7142Z" fill="white"/>
<path d="M38.6249 75.6472L38.0549 75.2624L38.0122 74.0654L37.3424 73.6094L37.3852 74.8064L36.8152 74.4217L36.7012 71.4862L37.2712 71.871L37.3139 72.9682L37.9837 73.4099L37.9409 72.327L38.5109 72.7117L38.6249 75.6472Z" fill="black"/>
<path d="M41.0047 75.8181C41.0189 76.0461 41.0047 76.2314 40.9619 76.4024C40.9334 76.5591 40.8764 76.6874 40.7909 76.7586C40.7197 76.8441 40.6057 76.8726 40.4775 76.8584C40.3492 76.8441 40.1925 76.7729 40.0072 76.6446C39.822 76.5306 39.6795 76.3881 39.537 76.2314C39.4087 76.0746 39.2947 75.9036 39.2092 75.7041C39.1237 75.5189 39.0525 75.3194 39.0097 75.0914C38.967 74.8776 38.9385 74.6496 38.9242 74.4216C38.91 74.1224 38.9385 73.8801 39.0097 73.6949C39.081 73.5239 39.1807 73.4242 39.3232 73.3957C39.4657 73.3814 39.6652 73.4384 39.9075 73.6094C40.1497 73.7661 40.3492 73.9656 40.5059 74.1936C40.6627 74.4216 40.7767 74.6639 40.8622 74.9489C40.9477 75.2196 40.9904 75.5189 41.0047 75.8181ZM39.5512 74.8349C39.5512 75.0059 39.5797 75.1769 39.6082 75.3194C39.6367 75.4619 39.6937 75.5901 39.7507 75.7041C39.822 75.8181 39.8932 75.9036 40.0072 75.9749C40.107 76.0461 40.1925 76.0746 40.2495 76.0461C40.3065 76.0176 40.3492 75.9464 40.3777 75.8466C40.4062 75.7326 40.4062 75.5901 40.4062 75.4191C40.392 75.1484 40.3634 74.9204 40.2922 74.7209C40.221 74.5214 40.107 74.3789 39.9502 74.2649C39.8505 74.1936 39.765 74.1794 39.708 74.2079C39.651 74.2364 39.6082 74.3076 39.5797 74.4074C39.5512 74.5214 39.5512 74.6639 39.5512 74.8349Z" fill="black"/>
<path d="M42.8 77.5994C42.8 77.7561 42.7858 77.8844 42.7288 77.9984C42.6718 78.0981 42.5863 78.1551 42.4723 78.1694C42.3583 78.1694 42.2015 78.1124 42.002 77.9841C41.9023 77.9129 41.8168 77.8559 41.7455 77.7989C41.6743 77.7419 41.603 77.6706 41.546 77.5994C41.489 77.5281 41.4178 77.4426 41.3465 77.3571L41.318 76.6447C41.432 76.8014 41.5603 76.9439 41.6743 77.0579C41.7883 77.1719 41.9023 77.2716 41.9878 77.3286C42.0448 77.3714 42.0875 77.3856 42.1303 77.3999C42.1588 77.3999 42.1873 77.3999 42.2015 77.3714C42.2158 77.3429 42.23 77.3144 42.2158 77.2716C42.2158 77.2146 42.2015 77.1719 42.173 77.1149C42.1445 77.0579 42.1018 77.0009 42.0448 76.9154C41.9878 76.8441 41.9165 76.7444 41.8168 76.6161C41.7313 76.5164 41.66 76.4167 41.603 76.3169C41.5318 76.2172 41.4748 76.1174 41.432 76.0177C41.3893 75.9179 41.3465 75.8182 41.318 75.7042C41.2895 75.5902 41.2753 75.4762 41.2753 75.3479C41.261 75.1627 41.2895 75.0202 41.3608 74.9347C41.4178 74.8492 41.5175 74.8207 41.6315 74.8349C41.7455 74.8492 41.888 74.9062 42.0448 75.0202C42.1873 75.1057 42.3013 75.2197 42.4153 75.3337C42.5293 75.4477 42.629 75.5617 42.7145 75.6757L42.5578 76.1744C42.458 76.0604 42.3725 75.9464 42.287 75.8609C42.2015 75.7612 42.116 75.6899 42.0448 75.6472C42.002 75.6187 41.9593 75.5902 41.9308 75.5902C41.9023 75.5902 41.8738 75.5902 41.8595 75.6044C41.8453 75.6187 41.8453 75.6472 41.8453 75.6899C41.8453 75.7327 41.8595 75.7897 41.888 75.8324C41.9165 75.8894 41.9593 75.9464 42.0163 76.0319C42.0733 76.1174 42.1588 76.2314 42.2728 76.3597C42.3725 76.4879 42.4723 76.6162 42.5435 76.7444C42.6148 76.8727 42.6718 77.0009 42.7145 77.1291C42.7573 77.3001 42.7858 77.4426 42.8 77.5994Z" fill="black"/>
<path d="M43.7692 76.2599C44.04 76.4451 44.2395 76.6589 44.382 76.9154C44.5245 77.1719 44.5957 77.4426 44.61 77.7419C44.61 77.8701 44.61 77.9984 44.5815 78.0981C44.553 78.1979 44.5102 78.2834 44.4532 78.3404C44.3962 78.3974 44.3107 78.4116 44.211 78.3974C44.1112 78.3831 43.983 78.3261 43.8405 78.2264L43.6837 78.1124L43.7265 79.0956L43.1565 78.7109L43.0425 75.7754L43.7692 76.2599ZM43.7835 76.8869L43.641 76.7871L43.6695 77.4569L43.7835 77.5281C43.8262 77.5566 43.8832 77.5851 43.926 77.5851C43.9687 77.5851 43.9972 77.5709 44.0257 77.5424C44.0542 77.4996 44.0542 77.4426 44.0542 77.3571C44.0542 77.2716 44.0257 77.1719 43.983 77.0864C43.926 77.0151 43.869 76.9439 43.7835 76.8869Z" fill="black"/>
<path d="M45.0232 79.9649L44.9092 77.0294L45.4792 77.4142L45.5932 80.3496L45.0232 79.9649Z" fill="black"/>
<path d="M46.9895 81.3044L46.4195 80.9196L46.334 78.6254L45.821 78.2691L45.7925 77.6136L47.4027 78.6966L47.4312 79.3521L46.9182 79.0101L46.9895 81.3044Z" fill="black"/>
<path d="M49.1129 82.7294L48.9846 82.1024L48.3006 81.6322L48.2151 82.1167L47.5881 81.6892L48.1724 79.1954L48.9419 79.7084L49.7541 83.1284L49.1129 82.7294ZM48.8421 81.3757L48.7281 80.8342C48.7139 80.7772 48.6996 80.6917 48.6711 80.5777C48.6569 80.4637 48.6284 80.3497 48.5999 80.2357C48.5714 80.1217 48.5571 80.0219 48.5429 79.9507C48.5429 80.0077 48.5286 80.0932 48.5144 80.1787C48.5001 80.2642 48.4859 80.3497 48.4716 80.4352C48.4574 80.5207 48.4431 80.5919 48.4431 80.6489L48.3719 81.0764L48.8421 81.3757Z" fill="black"/>
<path d="M49.9536 83.2992L49.8396 80.3638L50.4096 80.7485L50.4951 83.0427L51.3073 83.5985L51.3358 84.2397L49.9536 83.2992Z" fill="black"/>
</svg>
