<svg width="130" height="130" viewBox="0 0 130 130" fill="none" xmlns="http://www.w3.org/2000/svg">
<g clip-path="url(#clip0_1731_15998)">
<path d="M66.5395 129.829C101.493 129.829 129.829 101.493 129.829 66.5395C129.829 31.5857 101.493 3.25 66.5395 3.25C31.5857 3.25 3.25 31.5857 3.25 66.5395C3.25 101.493 31.5857 129.829 66.5395 129.829Z" fill="#E6EDB7"/>
<path d="M118.026 13.6842C121.805 13.6842 124.868 10.6209 124.868 6.84211C124.868 3.06331 121.805 0 118.026 0C114.247 0 111.184 3.06331 111.184 6.84211C111.184 10.6209 114.247 13.6842 118.026 13.6842Z" fill="#F1BC19"/>
<path d="M6.84211 100.921C10.6209 100.921 13.6842 97.8577 13.6842 94.0789C13.6842 90.3001 10.6209 87.2368 6.84211 87.2368C3.06331 87.2368 0 90.3001 0 94.0789C0 97.8577 3.06331 100.921 6.84211 100.921Z" fill="#F1BC19"/>
<path d="M10.2631 66.7106C12.1525 66.7106 13.6841 68.2423 13.6841 70.1317C13.6841 72.0211 12.1525 73.5527 10.2631 73.5527C8.3737 73.5527 6.84204 72.0211 6.84204 70.1317C6.84204 68.2423 8.3737 66.7106 10.2631 66.7106Z" fill="white"/>
<path d="M112.039 35.921C113.456 35.921 114.605 37.0698 114.605 38.4868C114.605 39.9039 113.456 41.0526 112.039 41.0526C110.622 41.0526 109.474 39.9039 109.474 38.4868C109.474 37.0698 110.622 35.921 112.039 35.921Z" fill="white"/>
<path d="M124.868 107.763C126.758 107.763 128.289 106.231 128.289 104.342C128.289 102.453 126.758 100.921 124.868 100.921C122.979 100.921 121.447 102.453 121.447 104.342C121.447 106.231 122.979 107.763 124.868 107.763Z" fill="#F1BC19"/>
<path d="M107.763 5.13157C108.708 5.13157 109.474 4.36574 109.474 3.42104C109.474 2.47634 108.708 1.71051 107.763 1.71051C106.819 1.71051 106.053 2.47634 106.053 3.42104C106.053 4.36574 106.819 5.13157 107.763 5.13157Z" fill="#F1BC19"/>
<path d="M124.014 25.6579C125.431 25.6579 126.579 24.5091 126.579 23.0921C126.579 21.675 125.431 20.5263 124.014 20.5263C122.596 20.5263 121.448 21.675 121.448 23.0921C121.448 24.5091 122.596 25.6579 124.014 25.6579Z" fill="#88AE45"/>
<path d="M81.7917 88.8333C98.8435 88.8333 112.667 75.0101 112.667 57.9583C112.667 40.9065 98.8435 27.0833 81.7917 27.0833C64.74 27.0833 50.9167 40.9065 50.9167 57.9583C50.9167 75.0101 64.74 88.8333 81.7917 88.8333Z" fill="#F8FECF"/>
<path d="M42.9686 98.2814H39.3291L30.9009 100.689H34.5403L42.9686 98.2814Z" fill="#CDB7B6"/>
<path d="M57.9643 95.1892H44.2273L33.1995 98.3635H46.9364L57.9643 95.1892Z" fill="#CDB7B6"/>
<path d="M33.473 98.2814H29.8335L21.3779 100.689H25.0448L33.473 98.2814Z" fill="#CDB7B6"/>
<path d="M48.4687 95.1892H34.7317L23.7039 98.3635H37.4408L48.4687 95.1892Z" fill="#CDB7B6"/>
<path d="M123.906 84.0933L79.6916 89.2784L40.0679 100.689H98.8193L123.906 84.0933Z" fill="#CDB7B6"/>
<path d="M110.729 97.8251L108.094 97.4089L101.2 100.689H104.839L110.729 97.8251Z" fill="#CDB7B6"/>
<path d="M122.797 93.109L115.029 92.6929L105.597 96.9927L113.226 98.2411L122.797 93.109Z" fill="#CDB7B6"/>
<path d="M23.5397 92.0149H21.3779V100.689H23.5397V92.0149Z" fill="#92572D"/>
<path d="M25.0448 92.0149H23.5671V100.689H25.0448V92.0149Z" fill="#714314"/>
<path d="M24.8532 78.0864H17.5195V95.3807H24.8532V78.0864Z" fill="#DCE25E"/>
<path d="M28.9306 78.0863H24.8533V95.3806H28.9306V78.0863Z" fill="#848F45"/>
<path d="M33.0624 92.0148H30.9006V100.689H33.0624V92.0148Z" fill="#92572D"/>
<path d="M34.5402 92.0148H33.0625V100.689H34.5402V92.0148Z" fill="#714314"/>
<path d="M34.3486 88.5944H27.0149V96.3659H34.3486V88.5944Z" fill="#DCE25E"/>
<path d="M38.4259 88.5944H34.3486V96.3659H38.4259V88.5944Z" fill="#848F45"/>
<path d="M38.1798 32.1412H29.9978V69.5758H38.1798V32.1412Z" fill="#4FAAA5"/>
<path d="M37.3314 32.1412H29.1494V69.5758H37.3314V32.1412Z" fill="#8ED1D4"/>
<path d="M34.896 38.3803H32.9531V40.4873H31.7217V35.3702H32.9531V37.3678H34.896V35.3702H36.1274V40.4873H34.896V38.3803Z" fill="#5EBFBC"/>
<path d="M33.9383 47C32.4879 47 31.3113 45.9055 31.3113 44.3731C31.3113 42.8406 32.4879 41.7734 33.9383 41.7734C35.3886 41.7734 36.5379 42.8406 36.5379 44.3731C36.5652 45.9328 35.3886 47 33.9383 47ZM33.9383 45.8781C34.7592 45.8781 35.2791 45.2761 35.2791 44.4004C35.2791 43.4974 34.7592 42.9227 33.9383 42.9227C33.1173 42.9227 32.5974 43.4974 32.5974 44.4004C32.5974 45.2761 33.1173 45.8781 33.9383 45.8781Z" fill="#5EBFBC"/>
<path d="M31.968 48.3135H35.9085V49.2986H34.5676V53.4033H33.3362V49.2986H31.9954V48.3135H31.968Z" fill="#5EBFBC"/>
<path d="M35.5526 55.7841H33.6645V56.8239H35.3337V57.7817H33.6645V58.9036H35.5526V59.8888H32.4331V54.7716H35.5526V55.7841Z" fill="#5EBFBC"/>
<path d="M33.8835 61.2295V65.3889H35.5254V66.3466H32.6521V61.2295H33.8835V61.2295Z" fill="#5EBFBC"/>
<path d="M34.3486 38.3803H32.4057V40.4874H31.1743V35.3702H32.4057V37.3678H34.3486V35.3702H35.58V40.4874H34.3486V38.3803Z" fill="white"/>
<path d="M33.3636 47C31.9132 47 30.7366 45.9055 30.7366 44.3731C30.7366 42.8406 31.9132 41.7734 33.3636 41.7734C34.8139 41.7734 35.9632 42.8406 35.9632 44.3731C35.9905 45.9328 34.8139 47 33.3636 47ZM33.3636 45.8781C34.1845 45.8781 34.7044 45.2761 34.7044 44.4004C34.7044 43.4974 34.1845 42.9227 33.3636 42.9227C32.5426 42.9227 32.0227 43.4974 32.0227 44.4004C32.0227 45.2761 32.5426 45.8781 33.3636 45.8781Z" fill="white"/>
<path d="M31.3933 48.3136H35.3338V49.2987H33.9929V53.4034H32.7615V49.2987H31.4207V48.3136H31.3933Z" fill="white"/>
<path d="M34.9779 55.7841H33.0898V56.8239H34.759V57.7817H33.0898V58.9036H34.9779V59.8888H31.8584V54.7716H34.9779V55.7841Z" fill="white"/>
<path d="M33.3361 61.2295V65.3889H34.978V66.3466H32.1047V61.2295H33.3361V61.2295Z" fill="white"/>
<path d="M40.0405 40.3232H37.824V41.0621H40.0405V40.3232Z" fill="#CA9890"/>
<path d="M40.0405 50.5029H37.824V51.2418H40.0405V50.5029Z" fill="#CA9890"/>
<path d="M40.0405 60.6549H37.824V61.3937H40.0405V60.6549Z" fill="#CA9890"/>
<path d="M84.0972 26.5591H40.0679V100.689H84.0972V26.5591Z" fill="#F5E9DA"/>
<path d="M98.8192 26.5591H84.0972V100.689H98.8192V26.5591Z" fill="#CA9890"/>
<path d="M37.6598 74.6931C31.8586 74.6931 27.1245 79.3998 27.1245 85.2284H70.4697C70.4697 79.4272 75.1764 74.6931 81.005 74.6931H37.6598Z" fill="#EF6C47"/>
<path d="M81.005 74.6931C75.2038 74.6931 70.4697 79.3998 70.4697 85.2284H84.0972V74.6931H81.005Z" fill="#EC5136"/>
<path d="M96.0008 35.425H87.8188V47.5475H96.0008V35.425Z" fill="#97CECE"/>
<path d="M96.0008 35.425H87.8188V36.8206H96.0008V35.425Z" fill="#7EC4C2"/>
<path d="M89.3784 35.425H87.0798V47.5475H89.3784V35.425Z" fill="#7EC4C2"/>
<path d="M95.0977 35.425H86.9158V47.5475H95.0977V35.425Z" stroke="#FDF1E2" stroke-width="5.7378" stroke-miterlimit="10"/>
<path d="M96.0008 35.425H87.8188V47.5475H96.0008V35.425Z" stroke="#E0AAA9" stroke-width="5.7378" stroke-miterlimit="10"/>
<path d="M96.0008 56.2495H87.8188V68.372H96.0008V56.2495Z" fill="#97CECE"/>
<path d="M96.0008 56.2495H87.8188V57.6451H96.0008V56.2495Z" fill="#7EC4C2"/>
<path d="M89.3784 56.2495H87.0798V68.372H89.3784V56.2495Z" fill="#7EC4C2"/>
<path d="M95.0977 56.2495H86.9158V68.372H95.0977V56.2495Z" stroke="#FDF1E2" stroke-width="5.7378" stroke-miterlimit="10"/>
<path d="M96.0008 56.2495H87.8188V68.372H96.0008V56.2495Z" stroke="#E0AAA9" stroke-width="5.7378" stroke-miterlimit="10"/>
<path d="M71.3181 88.5944H51.9441V100.717H71.3181V88.5944Z" fill="#B7DADF"/>
<path d="M71.3181 88.5944H51.9441V89.9899H71.3181V88.5944Z" fill="#97CECE"/>
<path d="M54.2427 88.5944H51.9441V100.717H54.2427V88.5944Z" fill="#97CECE"/>
<path d="M52.8472 100.689V88.5944H72.2212V100.689" stroke="#E0AAA9" stroke-width="5.7378" stroke-miterlimit="10"/>
<path d="M51.9441 100.689V88.5944H71.3181V100.689" stroke="#FDF1E2" stroke-width="5.7378" stroke-miterlimit="10"/>
<path d="M51.8892 35.425H43.7073V47.5475H51.8892V35.425Z" fill="#B7DADF"/>
<path d="M51.8892 35.425H43.7073V36.8206H51.8892V35.425Z" fill="#97CECE"/>
<path d="M46.0059 35.425H43.7073V47.5475H46.0059V35.425Z" fill="#97CECE"/>
<path d="M52.7923 35.425H44.6104V47.5475H52.7923V35.425Z" stroke="#E0AAA9" stroke-width="5.7378" stroke-miterlimit="10"/>
<path d="M51.8892 35.425H43.7073V47.5475H51.8892V35.425Z" stroke="#FDF1E2" stroke-width="5.7378" stroke-miterlimit="10"/>
<path d="M65.7357 35.425H57.5537V47.5475H65.7357V35.425Z" fill="#B7DADF"/>
<path d="M65.7357 35.425H57.5537V36.8206H65.7357V35.425Z" fill="#97CECE"/>
<path d="M59.8523 35.425H57.5537V47.5475H59.8523V35.425Z" fill="#97CECE"/>
<path d="M66.6114 35.425H58.4294V47.5475H66.6114V35.425Z" stroke="#E0AAA9" stroke-width="5.7378" stroke-miterlimit="10"/>
<path d="M65.7357 35.425H57.5537V47.5475H65.7357V35.425Z" stroke="#FDF1E2" stroke-width="5.7378" stroke-miterlimit="10"/>
<path d="M79.5548 35.425H71.3728V47.5475H79.5548V35.425Z" fill="#B7DADF"/>
<path d="M79.5548 35.425H71.3728V36.8206H79.5548V35.425Z" fill="#97CECE"/>
<path d="M73.6714 35.425H71.3728V47.5475H73.6714V35.425Z" fill="#97CECE"/>
<path d="M80.4578 35.425H72.2759V47.5475H80.4578V35.425Z" stroke="#E0AAA9" stroke-width="5.7378" stroke-miterlimit="10"/>
<path d="M79.5548 35.425H71.3728V47.5475H79.5548V35.425Z" stroke="#FDF1E2" stroke-width="5.7378" stroke-miterlimit="10"/>
<path d="M51.8892 56.2495H43.7073V68.372H51.8892V56.2495Z" fill="#B7DADF"/>
<path d="M51.8892 56.2495H43.7073V57.6451H51.8892V56.2495Z" fill="#97CECE"/>
<path d="M46.0059 56.2495H43.7073V68.372H46.0059V56.2495Z" fill="#97CECE"/>
<path d="M52.7923 56.2495H44.6104V68.372H52.7923V56.2495Z" stroke="#E0AAA9" stroke-width="5.7378" stroke-miterlimit="10"/>
<path d="M51.8892 56.2495H43.7073V68.372H51.8892V56.2495Z" stroke="#FDF1E2" stroke-width="5.7378" stroke-miterlimit="10"/>
<path d="M49.1528 87.3627H43.7073V94.0122H49.1528V87.3627Z" fill="#B7DADF"/>
<path d="M49.1528 87.3627H43.7073V88.7583H49.1528V87.3627Z" fill="#97CECE"/>
<path d="M46.0059 87.3627H43.7073V94.0122H46.0059V87.3627Z" fill="#97CECE"/>
<path d="M50.0559 87.3627H44.6104V94.0122H50.0559V87.3627Z" stroke="#E0AAA9" stroke-width="5.7378" stroke-miterlimit="10"/>
<path d="M49.1528 87.3627H43.7073V94.0122H49.1528V87.3627Z" stroke="#FDF1E2" stroke-width="5.7378" stroke-miterlimit="10"/>
<path d="M65.7357 56.2495H57.5537V68.372H65.7357V56.2495Z" fill="#B7DADF"/>
<path d="M65.7357 56.2495H57.5537V57.6451H65.7357V56.2495Z" fill="#97CECE"/>
<path d="M59.8523 56.2495H57.5537V68.372H59.8523V56.2495Z" fill="#97CECE"/>
<path d="M66.6114 56.2495H58.4294V68.372H66.6114V56.2495Z" stroke="#E0AAA9" stroke-width="5.7378" stroke-miterlimit="10"/>
<path d="M65.7357 56.2495H57.5537V68.372H65.7357V56.2495Z" stroke="#FDF1E2" stroke-width="5.7378" stroke-miterlimit="10"/>
<path d="M79.5548 56.2495H71.3728V68.372H79.5548V56.2495Z" fill="#B7DADF"/>
<path d="M79.5548 56.2495H71.3728V57.6451H79.5548V56.2495Z" fill="#97CECE"/>
<path d="M73.6714 56.2495H71.3728V68.372H73.6714V56.2495Z" fill="#97CECE"/>
<path d="M80.4578 56.2495H72.2759V68.372H80.4578V56.2495Z" stroke="#E0AAA9" stroke-width="5.7378" stroke-miterlimit="10"/>
<path d="M79.5548 56.2495H71.3728V68.372H79.5548V56.2495Z" stroke="#FDF1E2" stroke-width="5.7378" stroke-miterlimit="10"/>
<path d="M79.5547 87.3627H74.1091V94.0122H79.5547V87.3627Z" fill="#B7DADF"/>
<path d="M79.5547 87.3627H74.1091V88.7583H79.5547V87.3627Z" fill="#97CECE"/>
<path d="M76.4077 87.3627H74.1091V94.0122H76.4077V87.3627Z" fill="#97CECE"/>
<path d="M80.4577 87.3627H75.0122V94.0122H80.4577V87.3627Z" stroke="#E0AAA9" stroke-width="5.7378" stroke-miterlimit="10"/>
<path d="M79.5547 87.3627H74.1091V94.0122H79.5547V87.3627Z" stroke="#FDF1E2" stroke-width="5.7378" stroke-miterlimit="10"/>
<path d="M81.8533 23.0018H37.824V26.5591H81.8533V23.0018Z" fill="#F5E9DA"/>
<path d="M101.063 23.0018H81.8533V26.5591H101.063V23.0018Z" fill="#CA9890"/>
<path d="M79.6095 20.5663H42.3118V23.0017H79.6095V20.5663Z" fill="#F5E9DA"/>
<path d="M96.5753 20.5663H79.6094V23.0017H96.5753V20.5663Z" fill="#CA9890"/>
<path opacity="0.2" d="M84.0972 26.5591H40.0679V27.4895H84.0972V26.5591Z" fill="#CA9890"/>
<path opacity="0.2" d="M98.8192 26.5591H84.0972V27.4895H98.8192V26.5591Z" fill="#CA9890"/>
<path opacity="0.2" d="M84.0972 22.0714H40.0679V23.0017H84.0972V22.0714Z" fill="#CA9890"/>
<path opacity="0.2" d="M98.8192 22.0714H84.0972V23.0017H98.8192V22.0714Z" fill="#CA9890"/>
<path d="M105.223 70.2054H95.2346V92.0149H105.223V70.2054Z" fill="#DCE25E"/>
<path d="M110.805 70.2054H105.25V92.0149H110.805V70.2054Z" fill="#848F45"/>
<path d="M103.362 92.0149H101.2V100.689H103.362V92.0149Z" fill="#92572D"/>
<path d="M104.839 92.0149H103.362V100.689H104.839V92.0149Z" fill="#714314"/>
<path d="M91.9509 92.0146H89.7891V100.689H91.9509V92.0146Z" fill="#92572D"/>
<path d="M93.4559 92.0146H91.9783V100.689H93.4559V92.0146Z" fill="#714314"/>
<path d="M93.2643 79.3176H85.9307V95.3805H93.2643V79.3176Z" fill="#DCE25E"/>
<path d="M97.3144 79.3176H93.2371V95.3805H97.3144V79.3176Z" fill="#848F45"/>
</g>
<defs>
<clipPath id="clip0_1731_15998">
<rect width="130" height="130" fill="white"/>
</clipPath>
</defs>
</svg>
