<svg width="130" height="130" viewBox="0 0 130 130" fill="none" xmlns="http://www.w3.org/2000/svg">
<circle cx="66.5789" cy="66.5789" r="58.4211" fill="#C2EAFC"/>
<circle cx="113.947" cy="11.3158" r="6.31579" fill="#B4DD7F"/>
<circle cx="11.3158" cy="91.8422" r="6.31579" fill="#AAE5FF"/>
<circle r="3.15789" transform="matrix(1 0 0 -1 14.4737 69.7369)" fill="white"/>
<circle r="2.36842" transform="matrix(1 0 0 -1 108.421 40.5263)" fill="white"/>
<circle cx="120.263" cy="101.316" r="3.15789" fill="#FDD1A3"/>
<circle cx="104.474" cy="8.1579" r="1.57895" fill="#AAE5FF"/>
<circle cx="119.474" cy="26.3158" r="2.36842" fill="#E40C57"/>
<circle cx="78.5" cy="54.5" r="28.5" fill="#D8F1FD"/>
<path fill-rule="evenodd" clip-rule="evenodd" d="M98.896 120.706C98.7663 120.603 98.6175 120.527 98.4582 120.481C98.2989 120.436 98.1322 120.423 97.9677 120.442C97.8031 120.461 97.6439 120.513 97.4991 120.593C97.3543 120.674 97.2268 120.782 97.1238 120.912C97.0208 121.042 96.9444 121.191 96.8989 121.351C96.8534 121.51 96.8398 121.677 96.8587 121.841C96.8777 122.006 96.9288 122.165 97.0093 122.31C97.0898 122.455 97.198 122.582 97.3278 122.685C97.5899 122.893 97.9238 122.987 98.2562 122.949C98.5885 122.91 98.8921 122.741 99.1001 122.478C99.308 122.216 99.4034 121.882 99.3651 121.549C99.3268 121.217 99.1581 120.913 98.896 120.706Z" fill="#BFC7D2"/>
<path d="M22.7246 11.4067L23.383 11.9287C23.5576 12.0672 23.67 12.2694 23.6954 12.491C23.7208 12.7125 23.6572 12.9352 23.5186 13.1101C23.3799 13.285 23.1776 13.3977 22.9561 13.4235C22.7346 13.4492 22.512 13.3859 22.3374 13.2475L21.679 12.7255L21.1562 13.3849C21.0176 13.5598 20.8152 13.6725 20.5937 13.6983C20.3722 13.724 20.1497 13.6607 19.9751 13.5223C19.8005 13.3839 19.6881 13.1816 19.6627 12.9601C19.6372 12.7385 19.7009 12.5158 19.8395 12.3409L20.3623 11.6815L19.7039 11.1595C19.5293 11.0211 19.417 10.8189 19.3915 10.5973C19.3661 10.3758 19.4297 10.153 19.5684 9.97816C19.707 9.80328 19.9094 9.69056 20.1309 9.66479C20.3524 9.63902 20.5749 9.70232 20.7495 9.84076L21.4079 10.3628L21.9307 9.70337C22.0694 9.52849 22.2717 9.41576 22.4932 9.39C22.7147 9.36423 22.9373 9.42753 23.1119 9.56597C23.2865 9.70441 23.3989 9.90665 23.4243 10.1282C23.4497 10.3498 23.3861 10.5725 23.2474 10.7473L22.7246 11.4067Z" fill="#BFC7D2"/>
<path d="M11.7246 25.4067L12.383 25.9287C12.5576 26.0672 12.67 26.2694 12.6954 26.491C12.7208 26.7125 12.6572 26.9352 12.5186 27.1101C12.3799 27.285 12.1776 27.3977 11.9561 27.4235C11.7346 27.4492 11.512 27.3859 11.3374 27.2475L10.679 26.7255L10.1562 27.3849C10.0176 27.5598 9.81525 27.6725 9.59374 27.6983C9.37222 27.724 9.1497 27.6607 8.97509 27.5223C8.80048 27.3839 8.68809 27.1816 8.66267 26.9601C8.63725 26.7385 8.70087 26.5158 8.83952 26.3409C8.83952 26.3409 9.40029 26.008 9.36232 25.6815C9.32441 25.3556 8.70395 25.1595 8.70395 25.1595C8.52934 25.0211 8.41697 24.8189 8.39154 24.5973C8.36612 24.3758 8.42973 24.153 8.56838 23.9782C8.70704 23.8033 8.90938 23.6906 9.13089 23.6648C9.3524 23.639 9.57494 23.7023 9.74955 23.8408L10.4079 24.3628L10.9307 23.7034C11.0694 23.5285 11.2717 23.4158 11.4932 23.39C11.7147 23.3642 11.9373 23.4275 12.1119 23.566C12.2865 23.7044 12.3989 23.9066 12.4243 24.1282C12.4497 24.3498 12.3861 24.5725 12.2474 24.7473L11.7246 25.4067Z" fill="#BFC7D2"/>
<path d="M87.7969 66.6094C93.3111 66.6094 97.7812 62.1392 97.7812 56.625C97.7812 51.1108 93.3111 46.6406 87.7969 46.6406C82.2827 46.6406 77.8125 51.1108 77.8125 56.625C77.8125 62.1392 82.2827 66.6094 87.7969 66.6094Z" fill="#B4DD7F"/>
<path d="M41.2031 66.6094C46.7173 66.6094 51.1875 62.1392 51.1875 56.625C51.1875 51.1108 46.7173 46.6406 41.2031 46.6406C35.6889 46.6406 31.2188 51.1108 31.2188 56.625C31.2188 62.1392 35.6889 66.6094 41.2031 66.6094Z" fill="#B4DD7F"/>
<path d="M64.5 54.4062C70.6269 54.4062 75.5938 49.4394 75.5938 43.3125C75.5938 37.1856 70.6269 32.2188 64.5 32.2188C58.3731 32.2188 53.4062 37.1856 53.4062 43.3125C53.4062 49.4394 58.3731 54.4062 64.5 54.4062Z" fill="#B4DD7F"/>
<path d="M45.1969 61.0514C46.3617 61.7503 47.3269 62.7488 47.9925 63.9469C46.2175 65.5998 43.8213 66.6094 41.2031 66.6094C38.585 66.6094 36.1888 65.5998 34.4138 63.9469C35.745 61.5617 38.2855 59.9531 41.2031 59.9531C42.6675 59.9531 44.0209 60.3525 45.1969 61.0514Z" fill="#FCD770"/>
<path d="M91.7906 61.0514C92.9555 61.7503 93.9206 62.7488 94.5863 63.9469C92.8113 65.5998 90.415 66.6094 87.7969 66.6094C85.1788 66.6094 82.7825 65.5998 81.0075 63.9469C82.3388 61.5617 84.8792 59.9531 87.7969 59.9531C89.2613 59.9531 90.6147 60.3525 91.7906 61.0514V61.0514Z" fill="#FCD770"/>
<path d="M69.3258 47.2175C70.657 48.2714 71.6222 49.7469 72.0437 51.4442C70.5905 52.7977 68.7711 53.7628 66.7409 54.1844H66.7076C66.6522 53.663 66.4192 53.1859 66.0642 52.842C65.6648 52.4316 65.1101 52.1875 64.5 52.1875C63.3573 52.1875 62.4033 53.0639 62.2923 54.1844C60.2511 53.7739 58.4206 52.8087 56.9562 51.4442C57.7883 48.0495 60.8501 45.5312 64.5 45.5312C66.3194 45.5312 68.0056 46.1636 69.3258 47.2175V47.2175Z" fill="#EF7385"/>
<path d="M41.2031 59.9531C43.6539 59.9531 45.6406 57.9664 45.6406 55.5156C45.6406 53.0649 43.6539 51.0781 41.2031 51.0781C38.7524 51.0781 36.7656 53.0649 36.7656 55.5156C36.7656 57.9664 38.7524 59.9531 41.2031 59.9531Z" fill="#F0D0B4"/>
<path d="M64.5 45.5312C66.9508 45.5312 68.9375 43.5445 68.9375 41.0938C68.9375 38.643 66.9508 36.6562 64.5 36.6562C62.0492 36.6562 60.0625 38.643 60.0625 41.0938C60.0625 43.5445 62.0492 45.5312 64.5 45.5312Z" fill="#F0D0B4"/>
<path d="M87.7969 59.9531C90.2476 59.9531 92.2344 57.9664 92.2344 55.5156C92.2344 53.0649 90.2476 51.0781 87.7969 51.0781C85.3461 51.0781 83.3594 53.0649 83.3594 55.5156C83.3594 57.9664 85.3461 59.9531 87.7969 59.9531Z" fill="#F0D0B4"/>
<path d="M78.9219 94.3438V98.7812H56.7344V94.3438H58.9531H76.7031H78.9219Z" fill="#4FC1E9"/>
<path d="M37.875 89.9062C39.1004 89.9062 40.0938 88.9129 40.0938 87.6875C40.0938 86.4621 39.1004 85.4688 37.875 85.4688C36.6496 85.4688 35.6562 86.4621 35.6562 87.6875C35.6562 88.9129 36.6496 89.9062 37.875 89.9062Z" fill="#EF7385"/>
<path d="M44.5312 75.4844C45.7566 75.4844 46.75 74.491 46.75 73.2656C46.75 72.0402 45.7566 71.0469 44.5312 71.0469C43.3059 71.0469 42.3125 72.0402 42.3125 73.2656C42.3125 74.491 43.3059 75.4844 44.5312 75.4844Z" fill="#EF7385"/>
<path d="M93.3438 75.4844C94.5691 75.4844 95.5625 74.491 95.5625 73.2656C95.5625 72.0402 94.5691 71.0469 93.3438 71.0469C92.1184 71.0469 91.125 72.0402 91.125 73.2656C91.125 74.491 92.1184 75.4844 93.3438 75.4844Z" fill="#EF7385"/>
<path d="M86.6875 89.9062C87.9129 89.9062 88.9062 88.9129 88.9062 87.6875C88.9062 86.4621 87.9129 85.4688 86.6875 85.4688C85.4621 85.4688 84.4688 86.4621 84.4688 87.6875C84.4688 88.9129 85.4621 89.9062 86.6875 89.9062Z" fill="#EF7385"/>
<path d="M75.5938 69.9375C75.5938 68.7172 76.5922 67.7188 77.8125 67.7188C78.4227 67.7188 78.9773 67.9628 79.3767 68.3733C79.7872 68.7727 80.0312 69.3273 80.0312 69.9375V84.3594C80.0312 85.8016 79.5653 87.1994 78.7 88.3531L76.7031 91.0156V94.3438H58.9531V91.0156L55.1813 83.25C54.7375 82.4845 54.4602 81.6414 54.3492 80.7761L53.5837 74.6302C53.4617 73.6983 53.14 72.8108 52.6186 72.0342L51.4759 70.3147C51.2873 70.0373 51.1875 69.7156 51.1875 69.3717C51.1875 68.4288 51.953 67.6744 52.8959 67.6744C54.3381 67.6744 55.6694 68.1847 56.7233 69.0389C57.7772 69.9042 58.5316 71.1134 58.8089 72.5223C59.408 75.5066 60.0625 78.7681 60.0625 78.7681H61.1719L61.8153 77.4812C62.1259 76.8711 62.2812 76.1833 62.2812 75.4955V54.4062C62.2812 54.3286 62.2813 54.2509 62.2923 54.1844C62.4033 53.0639 63.3573 52.1875 64.5 52.1875C65.1102 52.1875 65.6648 52.4316 66.0642 52.842C66.4192 53.1859 66.6522 53.663 66.7077 54.1844C66.7188 54.2509 66.7188 54.3286 66.7188 54.4062V67.7188C66.7188 66.4984 67.7172 65.5 68.9375 65.5C69.5477 65.5 70.1023 65.7441 70.5017 66.1545C70.9122 66.5539 71.1562 67.1086 71.1562 67.7188C71.1562 66.4984 72.1547 65.5 73.375 65.5C73.9852 65.5 74.5398 65.7441 74.9392 66.1545C75.3497 66.5539 75.5938 67.1086 75.5938 67.7188V69.9375Z" fill="#F0D0B4"/>
<path d="M38.9844 84.5635V69.9375H36.7656V84.5635C35.4776 85.0228 34.5469 86.2431 34.5469 87.6875C34.5469 89.5224 36.0401 91.0156 37.875 91.0156C39.7099 91.0156 41.2031 89.5224 41.2031 87.6875C41.2031 86.2431 40.2724 85.0228 38.9844 84.5635ZM37.875 88.7969C37.2626 88.7969 36.7656 88.2999 36.7656 87.6875C36.7656 87.0751 37.2626 86.5781 37.875 86.5781C38.4874 86.5781 38.9844 87.0751 38.9844 87.6875C38.9844 88.2999 38.4874 88.7969 37.875 88.7969Z" fill="black"/>
<path d="M44.5312 69.9375C42.6963 69.9375 41.2031 71.4307 41.2031 73.2656C41.2031 74.71 42.1339 75.9303 43.4219 76.3896V91.0156H45.6406V76.3896C46.9286 75.9303 47.8594 74.71 47.8594 73.2656C47.8594 71.4307 46.3662 69.9375 44.5312 69.9375ZM44.5312 74.375C43.9189 74.375 43.4219 73.878 43.4219 73.2656C43.4219 72.6533 43.9189 72.1562 44.5312 72.1562C45.1436 72.1562 45.6406 72.6533 45.6406 73.2656C45.6406 73.878 45.1436 74.375 44.5312 74.375Z" fill="black"/>
<path d="M87.7969 84.5635V69.9375H85.5781V84.5635C84.2901 85.0228 83.3594 86.2431 83.3594 87.6875C83.3594 89.5224 84.8526 91.0156 86.6875 91.0156C88.5224 91.0156 90.0156 89.5224 90.0156 87.6875C90.0156 86.2431 89.0849 85.0228 87.7969 84.5635ZM86.6875 88.7969C86.0751 88.7969 85.5781 88.2999 85.5781 87.6875C85.5781 87.0751 86.0751 86.5781 86.6875 86.5781C87.2999 86.5781 87.7969 87.0751 87.7969 87.6875C87.7969 88.2999 87.2999 88.7969 86.6875 88.7969Z" fill="black"/>
<path d="M93.3438 69.9375C91.5088 69.9375 90.0156 71.4307 90.0156 73.2656C90.0156 74.71 90.9464 75.9303 92.2344 76.3896V91.0156H94.4531V76.3896C95.7411 75.9303 96.6719 74.71 96.6719 73.2656C96.6719 71.4307 95.1787 69.9375 93.3438 69.9375ZM93.3438 74.375C92.7314 74.375 92.2344 73.878 92.2344 73.2656C92.2344 72.6533 92.7314 72.1562 93.3438 72.1562C93.9561 72.1562 94.4531 72.6533 94.4531 73.2656C94.4531 73.878 93.9561 74.375 93.3438 74.375Z" fill="black"/>
<path d="M77.8125 66.6094C77.3743 66.6094 76.9583 66.6992 76.5744 66.8534C76.1917 65.439 74.9093 64.3906 73.375 64.3906C72.5197 64.3906 71.7464 64.7245 71.1562 65.2559C70.5661 64.7234 69.7928 64.3906 68.9375 64.3906C68.547 64.3906 68.1765 64.4705 67.8281 64.5948V55.0486C72.4409 53.7417 75.8545 49.8079 76.5589 45.1097L81.2493 47.6901C78.4992 49.7103 76.7031 52.9585 76.7031 56.625C76.7031 62.7421 81.6798 67.7188 87.7969 67.7188C93.914 67.7188 98.8906 62.7421 98.8906 56.625C98.8906 50.5079 93.914 45.5312 87.7969 45.5312C86.2759 45.5312 84.8249 45.8397 83.5036 46.3966L76.6687 42.6369C76.316 36.2236 71.0009 31.1094 64.5 31.1094C57.9991 31.1094 52.684 36.2236 52.3313 42.638L45.4964 46.3966C44.1751 45.8397 42.7252 45.5312 41.2031 45.5312C35.086 45.5312 30.1094 50.5079 30.1094 56.625C30.1094 62.7421 35.086 67.7188 41.2031 67.7188C47.3202 67.7188 52.2969 62.7421 52.2969 56.625C52.2969 52.9574 50.5008 49.7103 47.7495 47.689L52.4411 45.1086C53.1455 49.8112 56.5569 53.7428 61.173 55.0497V75.4988C61.173 76.0036 61.0565 76.5094 60.8335 76.9621L59.9028 72.3093C59.236 68.979 56.2873 66.5617 52.8915 66.5617C51.3417 66.5617 50.0792 67.8241 50.0792 69.3739C50.0792 69.9308 50.2423 70.47 50.5518 70.9337L51.6934 72.6466C52.116 73.28 52.389 74.0145 52.4832 74.7699L53.2509 80.9081C53.3774 81.9321 53.7013 82.905 54.1795 83.7337L57.8438 91.2708V93.2344H55.625V99.8906H80.0312V93.2344H77.8125V91.385L79.5875 89.0188C80.5893 87.6842 81.1406 86.0301 81.1406 84.3594V69.9375C81.1406 68.1026 79.6474 66.6094 77.8125 66.6094V66.6094ZM82.4808 63.715C83.7288 62.0598 85.6924 61.0625 87.7969 61.0625C89.9014 61.0625 91.865 62.0598 93.113 63.715C91.6298 64.8299 89.7926 65.5 87.7969 65.5C85.8011 65.5 83.964 64.8299 82.4808 63.715ZM84.4688 55.5156C84.4688 53.6807 85.962 52.1875 87.7969 52.1875C89.6318 52.1875 91.125 53.6807 91.125 55.5156C91.125 57.3505 89.6318 58.8438 87.7969 58.8438C85.962 58.8438 84.4688 57.3505 84.4688 55.5156ZM96.6719 56.625C96.6719 58.725 95.9352 60.6554 94.7105 62.1763C93.8319 61.0825 92.7181 60.2205 91.4589 59.6492C92.606 58.6319 93.3438 57.1653 93.3438 55.5156C93.3438 52.4571 90.8554 49.9688 87.7969 49.9688C84.7383 49.9688 82.25 52.4571 82.25 55.5156C82.25 57.1653 82.9877 58.6319 84.1348 59.6492C82.8757 60.2216 81.7619 61.0825 80.8833 62.1763C79.6585 60.6554 78.9219 58.725 78.9219 56.625C78.9219 51.7315 82.9034 47.75 87.7969 47.75C92.6903 47.75 96.6719 51.7315 96.6719 56.625ZM35.887 63.715C37.135 62.0598 39.0986 61.0625 41.2031 61.0625C43.3076 61.0625 45.2712 62.0598 46.5192 63.715C45.036 64.8299 43.1989 65.5 41.2031 65.5C39.2074 65.5 37.3702 64.8299 35.887 63.715ZM37.875 55.5156C37.875 53.6807 39.3682 52.1875 41.2031 52.1875C43.038 52.1875 44.5312 53.6807 44.5312 55.5156C44.5312 57.3505 43.038 58.8438 41.2031 58.8438C39.3682 58.8438 37.875 57.3505 37.875 55.5156ZM50.0781 56.625C50.0781 58.725 49.3415 60.6554 48.1168 62.1763C47.2381 61.0825 46.1243 60.2205 44.8652 59.6492C46.0123 58.6319 46.75 57.1653 46.75 55.5156C46.75 52.4571 44.2617 49.9688 41.2031 49.9688C38.1446 49.9688 35.6562 52.4571 35.6562 55.5156C35.6562 57.1653 36.394 58.6319 37.5411 59.6492C36.2819 60.2216 35.1681 61.0825 34.2895 62.1763C33.0648 60.6554 32.3281 58.725 32.3281 56.625C32.3281 51.7315 36.3097 47.75 41.2031 47.75C46.0966 47.75 50.0781 51.7315 50.0781 56.625ZM61.5724 52.8576C60.3387 52.4793 59.2172 51.8669 58.2453 51.0815C59.175 48.4423 61.6467 46.6406 64.5 46.6406C67.3511 46.6406 69.8228 48.4422 70.7547 51.0792C69.7828 51.8658 68.6624 52.4793 67.4287 52.8576C66.8685 51.8048 65.7736 51.0781 64.5 51.0781C63.2264 51.0781 62.1315 51.8048 61.5724 52.8576V52.8576ZM61.1719 41.0938C61.1719 39.2588 62.6651 37.7656 64.5 37.7656C66.3349 37.7656 67.8281 39.2588 67.8281 41.0938C67.8281 42.9287 66.3349 44.4219 64.5 44.4219C62.6651 44.4219 61.1719 42.9287 61.1719 41.0938ZM54.5156 43.3125C54.5156 37.8067 58.9942 33.3281 64.5 33.3281C70.0058 33.3281 74.4844 37.8067 74.4844 43.3125C74.4844 45.5501 73.7245 47.6468 72.4409 49.3386C71.5279 47.4982 70.0158 46.0493 68.1765 45.2151C69.3147 44.1989 70.0469 42.7367 70.0469 41.0938C70.0469 38.0352 67.5585 35.5469 64.5 35.5469C61.4415 35.5469 58.9531 38.0352 58.9531 41.0938C58.9531 42.7367 59.6853 44.1989 60.8235 45.2151C58.9831 46.0493 57.471 47.4993 56.558 49.3397C55.2744 47.649 54.5156 45.5523 54.5156 43.3125ZM77.8125 97.6719H57.8438V95.4531H77.8125V97.6719ZM78.9219 84.3594C78.9219 85.552 78.528 86.7345 77.8125 87.6875L75.5938 90.6462V93.2344H60.0625V90.7605L56.1398 82.6986C55.7737 82.0607 55.5429 81.3674 55.4519 80.6363L54.6843 74.497C54.5478 73.4021 54.1529 72.3371 53.5394 71.4185L52.3967 69.7045C52.3313 69.6069 52.2969 69.4926 52.2969 69.3739C52.2969 69.0467 52.5631 68.7815 52.8904 68.7815C55.2323 68.7815 57.2658 70.4489 57.7262 72.7453L59.1528 79.8753H61.8575L62.8049 77.9794C63.1876 77.2139 63.3906 76.3552 63.3906 75.4999V54.4062C63.3906 53.7939 63.8876 53.2969 64.5 53.2969C65.1124 53.2969 65.6094 53.7939 65.6094 54.4062V67.7188V72.1562H67.8281V67.7188C67.8281 67.1064 68.3251 66.6094 68.9375 66.6094C69.5499 66.6094 70.0469 67.1064 70.0469 67.7188V72.1562H72.2656V67.7188C72.2656 67.1064 72.7626 66.6094 73.375 66.6094C73.9874 66.6094 74.4844 67.1064 74.4844 67.7188V69.9375V72.1562H76.7031V69.9375C76.7031 69.3251 77.2001 68.8281 77.8125 68.8281C78.4249 68.8281 78.9219 69.3251 78.9219 69.9375V84.3594Z" fill="black"/>
</svg>
