<svg width="120" height="120" viewBox="0 0 120 120" fill="none" xmlns="http://www.w3.org/2000/svg">
<circle cx="61.4211" cy="61.4211" r="58.4211" fill="#E6EDB7"/>
<circle cx="108.947" cy="6.31579" r="6.31579" fill="#F1BC19"/>
<circle cx="6.31579" cy="86.8421" r="6.31579" fill="#F1BC19"/>
<circle r="3.15789" transform="matrix(1 0 0 -1 9.47369 64.7369)" fill="white"/>
<circle r="2.36842" transform="matrix(1 0 0 -1 103.421 35.5263)" fill="white"/>
<circle cx="115.263" cy="96.3158" r="3.15789" fill="#F1BC19"/>
<circle cx="99.4737" cy="3.1579" r="1.57895" fill="#F1BC19"/>
<circle cx="114.474" cy="21.3158" r="2.36842" fill="#88AE45"/>
<circle cx="75.5" cy="53.5" r="28.5" fill="#F8FECF"/>
<path d="M85.4262 43.4754L85.1679 91.0163C85.1589 92.6668 83.8184 94 82.1679 94H39C37.3431 94 36 92.6569 36 91V30C36 28.3431 37.3431 27 39 27H70.3238M85.4262 43.4754H73.8934C71.9713 43.4754 70.5434 42.5967 70.3238 40.1803C70.1041 37.7639 70.2322 30.3866 70.3238 27M85.4262 43.4754L70.3238 27" stroke="#231F20" stroke-width="2"/>
<path d="M43.8301 53.9098V48.4212H44.9939V53.9098H43.8301Z" fill="#443D66"/>
<path d="M51.2445 53.9098H49.7654L47.3778 49.7577H47.344C47.3915 50.491 47.4153 51.0141 47.4153 51.327V53.9098H46.3754V48.4212H47.8433L50.2272 52.5321H50.2534C50.2159 51.8188 50.1971 51.3145 50.1971 51.0191V48.4212H51.2445V53.9098Z" fill="#443D66"/>
<path d="M55.7608 48.4212H56.9359L55.07 53.9098H53.8011L51.9391 48.4212H53.1141L54.1465 51.6874C54.2041 51.8801 54.2629 52.1053 54.323 52.3631C54.3855 52.6184 54.4243 52.7961 54.4393 52.8962C54.4669 52.666 54.5607 52.263 54.7209 51.6874L55.7608 48.4212Z" fill="#443D66"/>
<path d="M62.6122 51.158C62.6122 52.0665 62.3869 52.7648 61.9364 53.2529C61.4859 53.7409 60.8402 53.9849 59.9993 53.9849C59.1583 53.9849 58.5126 53.7409 58.0621 53.2529C57.6116 52.7648 57.3864 52.064 57.3864 51.1505C57.3864 50.237 57.6116 49.54 58.0621 49.0595C58.5151 48.5764 59.1633 48.3349 60.0068 48.3349C60.8502 48.3349 61.4947 48.5777 61.9402 49.0632C62.3882 49.5487 62.6122 50.247 62.6122 51.158ZM58.6065 51.158C58.6065 51.7712 58.7228 52.233 58.9556 52.5433C59.1884 52.8537 59.5362 53.0088 59.9993 53.0088C60.9278 53.0088 61.392 52.3919 61.392 51.158C61.392 49.9217 60.9303 49.3035 60.0068 49.3035C59.5437 49.3035 59.1946 49.4599 58.9594 49.7727C58.7241 50.0831 58.6065 50.5449 58.6065 51.158Z" fill="#443D66"/>
<path d="M63.7497 53.9098V48.4212H64.9135V53.9098H63.7497Z" fill="#443D66"/>
<path d="M68.6263 49.311C68.1883 49.311 67.8492 49.4762 67.6089 49.8065C67.3687 50.1344 67.2485 50.5924 67.2485 51.1806C67.2485 52.4044 67.7078 53.0163 68.6263 53.0163C69.0117 53.0163 69.4785 52.92 70.0266 52.7273V53.7034C69.5761 53.8911 69.0731 53.9849 68.5174 53.9849C67.7191 53.9849 67.1084 53.7434 66.6854 53.2604C66.2624 52.7748 66.051 52.0791 66.051 51.173C66.051 50.6024 66.1548 50.1031 66.3626 49.6751C66.5703 49.2447 66.8681 48.9155 67.256 48.6878C67.6465 48.4575 68.1032 48.3424 68.6263 48.3424C69.1594 48.3424 69.695 48.4713 70.2331 48.7291L69.8577 49.6751C69.6525 49.5775 69.446 49.4924 69.2382 49.4199C69.0305 49.3473 68.8265 49.311 68.6263 49.311Z" fill="#443D66"/>
<path d="M74.3589 53.9098H71.1979V48.4212H74.3589V49.3748H72.3617V50.5799H74.22V51.5334H72.3617V52.9488H74.3589V53.9098Z" fill="#443D66"/>
<path d="M43.1393 59.4017H60.9876H78.836" stroke="#231F20" stroke-width="2"/>
<path d="M43.1393 64.8934H60.9876H78.836" stroke="#231F20" stroke-width="2"/>
<path d="M43.1393 70.3853H60.9876H78.836" stroke="#231F20" stroke-width="2"/>
<path d="M43 79H48H53" stroke="#231F20" stroke-width="2"/>
<path d="M43 86H48H53" stroke="#231F20" stroke-width="2"/>
<path d="M77.7375 79.4286C77.8825 79.4286 78 79.3086 78 79.1607V78.2679C78 78.1199 77.8825 78 77.7375 78H71.2625C71.1175 78 71 78.1199 71 78.2679V79.2667C71 79.4146 71.1175 79.5346 71.2625 79.5346H73.128C73.7254 79.5346 74.1837 79.7568 74.4617 80.1429H71.2625C71.1175 80.1429 71 80.2628 71 80.4107V81.3036C71 81.4515 71.1175 81.5714 71.2625 81.5714H74.7353C74.5993 82.3769 74.0143 82.8802 73.1 82.8802H71.2625C71.1175 82.8802 71 83.0001 71 83.148V84.3313C71 84.4061 71.0306 84.4775 71.0845 84.5282L74.695 87.929C74.7435 87.9746 74.807 88 74.873 88H76.6791C76.918 88 77.0327 87.7007 76.8571 87.5353L73.5566 84.4265C75.23 84.3742 76.4253 83.2346 76.5823 81.5714H77.7375C77.8825 81.5714 78 81.4515 78 81.3036V80.4107C78 80.2628 77.8825 80.1429 77.7375 80.1429H76.4537C76.3774 79.8852 76.2725 79.6463 76.1419 79.4286H77.7375Z" fill="#443D66"/>
<path d="M67.536 84.5415C67.536 84.2254 67.4583 83.9748 67.3029 83.7897C67.151 83.6008 66.8909 83.4273 66.5228 83.2692C66.1547 83.1111 65.8372 82.955 65.5704 82.8007C65.3036 82.6427 65.074 82.4634 64.8815 82.2629C64.6923 82.0585 64.5437 81.8195 64.4357 81.5457C64.331 81.272 64.2786 80.9462 64.2786 80.5683C64.2786 79.9168 64.461 79.3828 64.8257 78.9664C65.1905 78.5499 65.6751 78.307 66.2796 78.2376V77H67.0902V78.255C67.6879 78.3514 68.1557 78.6367 68.4934 79.1109C68.8311 79.5813 69 80.1924 69 80.9443H67.536C67.536 80.4816 67.4515 80.1365 67.2827 79.909C67.1172 79.6777 66.8943 79.562 66.614 79.562C66.337 79.562 66.1226 79.6526 65.9706 79.8339C65.8186 80.0112 65.7427 80.258 65.7427 80.5741C65.7427 80.8672 65.817 81.1023 65.9656 81.2797C66.1142 81.4571 66.3894 81.6383 66.7913 81.8233C67.1966 82.0084 67.5292 82.1838 67.7893 82.3496C68.0493 82.5116 68.2688 82.6966 68.4478 82.9048C68.6268 83.1092 68.7636 83.3444 68.8582 83.6104C68.9527 83.8726 69 84.1791 69 84.53C69 85.1854 68.821 85.7175 68.463 86.1262C68.105 86.5349 67.612 86.7759 66.9838 86.8491V88H66.1783V86.8549C65.486 86.7701 64.949 86.4905 64.5674 86.0163C64.1891 85.5382 64 84.904 64 84.1136H65.464C65.464 84.5724 65.5586 84.9252 65.7477 85.1719C65.9402 85.4148 66.2155 85.5363 66.5735 85.5363C66.8707 85.5363 67.1054 85.4476 67.2776 85.2702C67.4498 85.089 67.536 84.8461 67.536 84.5415Z" fill="#443D66"/>
<path d="M59.1893 83.4854L59.2175 84.3336C59.2175 84.8339 59.1202 85.2325 58.9256 85.5295H62V87H57.0141V85.5295H57.4473C57.6733 85.4563 57.7863 85.0922 57.7863 84.4373L57.7627 83.4854H57V82.0454H57.725L57.6921 80.6603C57.6921 79.8386 57.8851 79.1898 58.2712 78.7139C58.6604 78.238 59.1798 78 59.8296 78C60.495 78 61.0176 78.2298 61.3974 78.6895C61.7772 79.1451 61.967 79.7634 61.967 80.5444H60.6158C60.6158 80.1986 60.5468 79.9342 60.4087 79.7512C60.2737 79.5681 60.0791 79.4766 59.8249 79.4766C59.6177 79.4766 59.4451 79.5763 59.307 79.7756C59.172 79.9749 59.1045 80.2698 59.1045 80.6603L59.1469 82.0454H60.6017V83.4854H59.1893Z" fill="#443D66"/>
</svg>
