<svg width="130" height="130" viewBox="0 0 130 130" fill="none" xmlns="http://www.w3.org/2000/svg">
<circle cx="66.5789" cy="66.5789" r="58.4211" fill="#E6EDB7"/>
<circle cx="113.947" cy="11.3158" r="6.31579" fill="#F1BC19"/>
<circle cx="11.3158" cy="91.8422" r="6.31579" fill="#F1BC19"/>
<circle r="3.15789" transform="matrix(1 0 0 -1 14.4737 69.7369)" fill="white"/>
<circle r="2.36842" transform="matrix(1 0 0 -1 108.421 40.5263)" fill="white"/>
<circle cx="120.263" cy="101.316" r="3.15789" fill="#76FD8C"/>
<circle cx="104.474" cy="8.1579" r="1.57895" fill="#76FD8C"/>
<circle cx="119.474" cy="26.3158" r="2.36842" fill="#1BB934"/>
<circle cx="79.5" cy="50.5" r="28.5" fill="#DFF3E3"/>
<path fill-rule="evenodd" clip-rule="evenodd" d="M98.896 120.706C98.7663 120.603 98.6175 120.527 98.4582 120.481C98.2989 120.436 98.1322 120.423 97.9677 120.442C97.8031 120.461 97.6439 120.513 97.4991 120.593C97.3543 120.674 97.2268 120.782 97.1238 120.912C97.0208 121.042 96.9444 121.191 96.8989 121.351C96.8534 121.51 96.8398 121.677 96.8587 121.842C96.8777 122.006 96.9288 122.165 97.0093 122.31C97.0898 122.455 97.198 122.582 97.3278 122.685C97.5899 122.893 97.9238 122.988 98.2562 122.949C98.5885 122.91 98.8921 122.741 99.1001 122.478C99.308 122.216 99.4034 121.882 99.3651 121.549C99.3268 121.217 99.1581 120.913 98.896 120.706Z" fill="#BFC7D2"/>
<path d="M22.7246 11.4067L23.383 11.9287C23.5576 12.0672 23.67 12.2694 23.6954 12.491C23.7208 12.7125 23.6572 12.9352 23.5186 13.1101C23.3799 13.285 23.1776 13.3977 22.9561 13.4235C22.7346 13.4492 22.512 13.3859 22.3374 13.2475L21.679 12.7255L21.1562 13.3849C21.0176 13.5598 20.8152 13.6725 20.5937 13.6983C20.3722 13.724 20.1497 13.6607 19.9751 13.5223C19.8005 13.3839 19.6881 13.1816 19.6627 12.9601C19.6372 12.7385 19.7009 12.5158 19.8395 12.3409L20.3623 11.6815L19.7039 11.1595C19.5293 11.0211 19.417 10.8189 19.3915 10.5973C19.3661 10.3758 19.4297 10.153 19.5684 9.97816C19.707 9.80328 19.9094 9.69056 20.1309 9.66479C20.3524 9.63902 20.5749 9.70232 20.7495 9.84076L21.4079 10.3628L21.9307 9.70337C22.0694 9.52849 22.2717 9.41576 22.4932 9.39C22.7147 9.36423 22.9373 9.42753 23.1119 9.56597C23.2865 9.70441 23.3989 9.90665 23.4243 10.1282C23.4497 10.3498 23.3861 10.5725 23.2474 10.7473L22.7246 11.4067Z" fill="#BFC7D2"/>
<path d="M11.7246 25.4067L12.383 25.9287C12.5576 26.0672 12.67 26.2694 12.6954 26.491C12.7208 26.7125 12.6572 26.9352 12.5186 27.1101C12.3799 27.285 12.1776 27.3977 11.9561 27.4235C11.7346 27.4492 11.512 27.3859 11.3374 27.2475L10.679 26.7255L10.1562 27.3849C10.0176 27.5598 9.81525 27.6725 9.59374 27.6983C9.37222 27.724 9.1497 27.6607 8.97509 27.5223C8.80048 27.3839 8.68809 27.1816 8.66267 26.9601C8.63725 26.7385 8.70087 26.5158 8.83952 26.3409C8.83952 26.3409 9.40029 26.008 9.36232 25.6815C9.32441 25.3556 8.70395 25.1595 8.70395 25.1595C8.52934 25.0211 8.41697 24.8189 8.39154 24.5973C8.36612 24.3758 8.42973 24.153 8.56838 23.9782C8.70704 23.8033 8.90938 23.6906 9.13089 23.6648C9.3524 23.639 9.57494 23.7023 9.74955 23.8408L10.4079 24.3628L10.9307 23.7034C11.0694 23.5285 11.2717 23.4158 11.4932 23.39C11.7147 23.3642 11.9373 23.4275 12.1119 23.566C12.2865 23.7044 12.3989 23.9066 12.4243 24.1282C12.4497 24.3498 12.3861 24.5725 12.2474 24.7473L11.7246 25.4067Z" fill="#BFC7D2"/>
<path fill-rule="evenodd" clip-rule="evenodd" d="M90.8622 100.003C90.3666 101.736 88.7385 103 86.8507 103H43.1493C41.2851 103 39.6334 101.712 39.1378 100.003L28 60.3927H39.4681L63.9853 34.8751C64.4336 34.4069 65.118 34.4771 65.5427 34.9687C65.9439 35.4603 65.9202 36.2329 65.4719 36.6777L42.7008 60.3927H90.2015L70.3565 28.9522C70.0025 28.3903 70.1205 27.6412 70.6161 27.2432C71.1116 26.8452 71.7959 26.9389 72.1499 27.5007L92.9152 60.3927H102L90.8622 100.003ZM69.3891 74.1113L68.4925 92.5589H73.9669L76.2795 74.1113H69.3891ZM46.0281 92.5589L41.12 74.1113H48.0103L51.5027 92.5589H46.0281ZM55.2545 74.1113L57.2602 92.5589H62.7347L62.1448 74.1113H55.2545ZM79.7245 92.5589L83.5235 74.1113H90.4139L85.1989 92.5589H79.7245Z" fill="#19648F"/>
</svg>
