<svg width="130" height="130" viewBox="0 0 130 130" fill="none" xmlns="http://www.w3.org/2000/svg">
<circle cx="66.5789" cy="66.5789" r="58.4211" fill="#C2EAFC"/>
<circle cx="113.947" cy="11.3158" r="6.31579" fill="#AAE5FF"/>
<circle cx="11.3158" cy="91.8422" r="6.31579" fill="#AAE5FF"/>
<circle r="3.15789" transform="matrix(1 0 0 -1 14.4737 69.7369)" fill="white"/>
<circle r="2.36842" transform="matrix(1 0 0 -1 108.421 40.5263)" fill="white"/>
<circle cx="120.263" cy="101.316" r="3.15789" fill="#FDD1A3"/>
<circle cx="104.474" cy="8.1579" r="1.57895" fill="#AAE5FF"/>
<circle cx="119.474" cy="26.3158" r="2.36842" fill="#E40C57"/>
<circle cx="75.4999" cy="58.5" r="28.5" fill="#D8F1FD"/>
<path fill-rule="evenodd" clip-rule="evenodd" d="M98.896 120.706C98.7663 120.603 98.6175 120.527 98.4582 120.481C98.2989 120.436 98.1322 120.423 97.9677 120.442C97.8031 120.461 97.6439 120.513 97.4991 120.593C97.3543 120.674 97.2268 120.782 97.1238 120.912C97.0208 121.042 96.9444 121.191 96.8989 121.351C96.8534 121.51 96.8398 121.677 96.8587 121.841C96.8777 122.006 96.9288 122.165 97.0093 122.31C97.0898 122.455 97.198 122.582 97.3278 122.685C97.5899 122.893 97.9238 122.987 98.2562 122.949C98.5885 122.91 98.8921 122.741 99.1001 122.478C99.308 122.216 99.4034 121.882 99.3651 121.549C99.3268 121.217 99.1581 120.913 98.896 120.706Z" fill="#BFC7D2"/>
<path d="M22.7247 11.4067L23.383 11.9287C23.5576 12.0672 23.67 12.2694 23.6955 12.491C23.7209 12.7125 23.6573 12.9352 23.5186 13.1101C23.3799 13.285 23.1776 13.3977 22.9561 13.4235C22.7346 13.4492 22.5121 13.3859 22.3374 13.2475L21.6791 12.7255L21.1563 13.3849C21.0176 13.5598 20.8153 13.6725 20.5938 13.6983C20.3723 13.724 20.1497 13.6607 19.9751 13.5223C19.8005 13.3839 19.6881 13.1816 19.6627 12.9601C19.6373 12.7385 19.7009 12.5158 19.8395 12.3409L20.3623 11.6815L19.704 11.1595C19.5294 11.0211 19.417 10.8189 19.3916 10.5973C19.3661 10.3758 19.4298 10.153 19.5684 9.97816C19.7071 9.80328 19.9094 9.69056 20.1309 9.66479C20.3524 9.63902 20.575 9.70232 20.7496 9.84076L21.4079 10.3628L21.9307 9.70337C22.0694 9.52849 22.2717 9.41576 22.4932 9.39C22.7148 9.36423 22.9373 9.42753 23.1119 9.56597C23.2865 9.70441 23.3989 9.90665 23.4243 10.1282C23.4497 10.3498 23.3861 10.5725 23.2475 10.7473L22.7247 11.4067Z" fill="#BFC7D2"/>
<path d="M11.7247 25.4067L12.383 25.9287C12.5576 26.0672 12.67 26.2694 12.6954 26.491C12.7209 26.7125 12.6572 26.9352 12.5186 27.1101C12.3799 27.285 12.1776 27.3977 11.9561 27.4235C11.7346 27.4492 11.512 27.3859 11.3374 27.2475L10.6791 26.7255L10.1563 27.3849C10.0176 27.5598 9.81528 27.6725 9.59377 27.6983C9.37225 27.724 9.14973 27.6607 8.97512 27.5223C8.80051 27.3839 8.68812 27.1816 8.6627 26.9601C8.63728 26.7385 8.7009 26.5158 8.83955 26.3409C8.83955 26.3409 9.40032 26.008 9.36235 25.6815C9.32444 25.3556 8.70398 25.1595 8.70398 25.1595C8.52937 25.0211 8.417 24.8189 8.39157 24.5973C8.36615 24.3758 8.42976 24.153 8.56841 23.9782C8.70707 23.8033 8.90941 23.6906 9.13092 23.6648C9.35244 23.639 9.57497 23.7023 9.74958 23.8408L10.408 24.3628L10.9308 23.7034C11.0694 23.5285 11.2717 23.4158 11.4933 23.39C11.7148 23.3642 11.9373 23.4275 12.1119 23.566C12.2865 23.7044 12.3989 23.9066 12.4243 24.1282C12.4497 24.3498 12.3861 24.5725 12.2475 24.7473L11.7247 25.4067Z" fill="#BFC7D2"/>
<path d="M52.2913 70.4872C53.2992 70.7371 53.5512 74.6521 53.5512 76.7345C56.1969 78.3588 68.6693 78.4837 72.1969 76.7345C72.6 73.4359 72.1969 71.9866 73.4567 70.4872V76.2347C75.0693 75.8349 78.748 74.069 79 73.236L78.622 67.8633C78.1181 61.1662 71.6089 58.8256 68.6693 58.4924H65.7717C64.9654 58.6923 63.6719 59.492 63.126 59.8668L65.2677 72.8612L62.4961 76.9844L59.7244 72.8612L61.8661 59.8668C61.3622 59.367 59.8924 58.7423 59.2205 58.4924H56.1969C48.8394 59.392 47 65.1145 47 67.8633V73.236C47.8819 75.61 50.6955 75.9432 52.2913 76.2347V70.4872Z" fill="#556080"/>
<path d="M70.685 49.1215C70.685 53.6068 67.0187 57.2429 62.4961 57.2429C57.9734 57.2429 54.3071 53.6068 54.3071 49.1215C54.3071 44.6361 57.9734 41 62.4961 41C67.0187 41 70.685 44.6361 70.685 49.1215Z" fill="#556080"/>
<path d="M89.4817 98.544L80.3804 84.6352L87.0866 77.9206L100.499 89.911C102.415 91.8294 102.894 96.146 99.5409 99.0236C94.7508 102.381 91.3977 100.942 89.4817 98.544Z" fill="#3D64C4"/>
<path fill-rule="evenodd" clip-rule="evenodd" d="M63.1359 91.3498C80.3318 91.3498 94.2718 77.3923 94.2718 60.1749C94.2718 42.9575 80.3318 29 63.1359 29C45.94 29 32 42.9575 32 60.1749C32 77.3923 45.94 91.3498 63.1359 91.3498ZM63.1359 84.6352C76.628 84.6352 87.5656 73.8987 87.5656 60.6545C87.5656 47.4103 76.628 36.6738 63.1359 36.6738C49.6437 36.6738 38.7062 47.4103 38.7062 60.6545C38.7062 73.8987 49.6437 84.6352 63.1359 84.6352Z" fill="#3D64C4"/>
<path d="M51.2012 95.4688H52.959V101.375C52.959 101.918 52.8379 102.398 52.5957 102.816C52.3574 103.23 52.0195 103.551 51.582 103.777C51.1445 104.004 50.6504 104.117 50.0996 104.117C49.1973 104.117 48.4941 103.889 47.9902 103.432C47.4863 102.971 47.2344 102.32 47.2344 101.48H49.0039C49.0039 101.898 49.0918 102.207 49.2676 102.406C49.4434 102.605 49.7207 102.705 50.0996 102.705C50.4355 102.705 50.7031 102.59 50.9023 102.359C51.1016 102.129 51.2012 101.801 51.2012 101.375V95.4688ZM61.4727 99.9277C61.4727 100.768 61.3242 101.504 61.0273 102.137C60.7305 102.77 60.3047 103.258 59.75 103.602C59.1992 103.945 58.5664 104.117 57.8516 104.117C57.1445 104.117 56.5137 103.947 55.959 103.607C55.4043 103.268 54.9746 102.783 54.6699 102.154C54.3652 101.521 54.2109 100.795 54.207 99.9746V99.5527C54.207 98.7129 54.3574 97.9746 54.6582 97.3379C54.9629 96.6973 55.3906 96.207 55.9414 95.8672C56.4961 95.5234 57.1289 95.3516 57.8398 95.3516C58.5508 95.3516 59.1816 95.5234 59.7324 95.8672C60.2871 96.207 60.7148 96.6973 61.0156 97.3379C61.3203 97.9746 61.4727 98.7109 61.4727 99.5469V99.9277ZM59.6914 99.541C59.6914 98.6465 59.5312 97.9668 59.2109 97.502C58.8906 97.0371 58.4336 96.8047 57.8398 96.8047C57.25 96.8047 56.7949 97.0352 56.4746 97.4961C56.1543 97.9531 55.9922 98.625 55.9883 99.5117V99.9277C55.9883 100.799 56.1484 101.475 56.4688 101.955C56.7891 102.436 57.25 102.676 57.8516 102.676C58.4414 102.676 58.8945 102.445 59.2109 101.984C59.5273 101.52 59.6875 100.844 59.6914 99.957V99.541ZM62.75 104V95.4688H65.7383C66.7734 95.4688 67.5586 95.668 68.0938 96.0664C68.6289 96.4609 68.8965 97.041 68.8965 97.8066C68.8965 98.2246 68.7891 98.5938 68.5742 98.9141C68.3594 99.2305 68.0605 99.4629 67.6777 99.6113C68.1152 99.7207 68.459 99.9414 68.709 100.273C68.9629 100.605 69.0898 101.012 69.0898 101.492C69.0898 102.312 68.8281 102.934 68.3047 103.355C67.7812 103.777 67.0352 103.992 66.0664 104H62.75ZM64.5078 100.285V102.588H66.0137C66.4277 102.588 66.75 102.49 66.9805 102.295C67.2148 102.096 67.332 101.822 67.332 101.475C67.332 100.693 66.9277 100.297 66.1191 100.285H64.5078ZM64.5078 99.043H65.8086C66.6953 99.0273 67.1387 98.6738 67.1387 97.9824C67.1387 97.5957 67.0254 97.3184 66.7988 97.1504C66.5762 96.9785 66.2227 96.8926 65.7383 96.8926H64.5078V99.043ZM74.8379 101.762C74.8379 101.43 74.7207 101.176 74.4863 101C74.252 100.82 73.8301 100.633 73.2207 100.438C72.6113 100.238 72.1289 100.043 71.7734 99.8516C70.8047 99.3281 70.3203 98.623 70.3203 97.7363C70.3203 97.2754 70.4492 96.8652 70.707 96.5059C70.9688 96.1426 71.3418 95.8594 71.8262 95.6562C72.3145 95.4531 72.8613 95.3516 73.4668 95.3516C74.0762 95.3516 74.6191 95.4629 75.0957 95.6855C75.5723 95.9043 75.9414 96.2148 76.2031 96.6172C76.4688 97.0195 76.6016 97.4766 76.6016 97.9883H74.8438C74.8438 97.5977 74.7207 97.2949 74.4746 97.0801C74.2285 96.8613 73.8828 96.752 73.4375 96.752C73.0078 96.752 72.6738 96.8438 72.4355 97.0273C72.1973 97.207 72.0781 97.4453 72.0781 97.7422C72.0781 98.0195 72.2168 98.252 72.4941 98.4395C72.7754 98.627 73.1875 98.8027 73.7305 98.9668C74.7305 99.2676 75.459 99.6406 75.916 100.086C76.373 100.531 76.6016 101.086 76.6016 101.75C76.6016 102.488 76.3223 103.068 75.7637 103.49C75.2051 103.908 74.4531 104.117 73.5078 104.117C72.8516 104.117 72.2539 103.998 71.7148 103.76C71.1758 103.518 70.7637 103.188 70.4785 102.77C70.1973 102.352 70.0566 101.867 70.0566 101.316H71.8203C71.8203 102.258 72.3828 102.729 73.5078 102.729C73.9258 102.729 74.252 102.645 74.4863 102.477C74.7207 102.305 74.8379 102.066 74.8379 101.762Z" fill="#3D64C4"/>
</svg>
