<svg width="130" height="130" viewBox="0 0 130 130" fill="none" xmlns="http://www.w3.org/2000/svg">
<circle cx="66.5789" cy="66.5789" r="58.4211" fill="#CEECD3"/>
<circle cx="113.947" cy="11.3158" r="6.31579" fill="#76FD8C"/>
<circle cx="11.3158" cy="91.8422" r="6.31579" fill="#76FD8C"/>
<circle r="3.15789" transform="matrix(1 0 0 -1 14.4737 69.7369)" fill="white"/>
<circle r="2.36842" transform="matrix(1 0 0 -1 108.421 40.5263)" fill="white"/>
<circle cx="120.263" cy="101.316" r="3.15789" fill="#76FD8C"/>
<circle cx="104.474" cy="8.1579" r="1.57895" fill="#76FD8C"/>
<circle cx="119.474" cy="26.3158" r="2.36842" fill="#1BB934"/>
<circle cx="79.5" cy="50.5" r="28.5" fill="#DFF3E3"/>
<path fill-rule="evenodd" clip-rule="evenodd" d="M98.896 120.706C98.7663 120.603 98.6175 120.527 98.4582 120.481C98.2989 120.436 98.1322 120.423 97.9677 120.442C97.8031 120.461 97.6439 120.513 97.4991 120.593C97.3543 120.674 97.2268 120.782 97.1238 120.912C97.0208 121.042 96.9444 121.191 96.8989 121.351C96.8534 121.51 96.8398 121.677 96.8587 121.841C96.8777 122.006 96.9288 122.165 97.0093 122.31C97.0898 122.455 97.198 122.582 97.3278 122.685C97.5899 122.893 97.9238 122.987 98.2562 122.949C98.5885 122.91 98.8921 122.741 99.1001 122.478C99.308 122.216 99.4034 121.882 99.3651 121.549C99.3268 121.217 99.1581 120.913 98.896 120.706Z" fill="#BFC7D2"/>
<path d="M22.7247 11.4067L23.383 11.9287C23.5576 12.0672 23.67 12.2694 23.6954 12.491C23.7209 12.7125 23.6572 12.9352 23.5186 13.1101C23.3799 13.285 23.1776 13.3977 22.9561 13.4235C22.7346 13.4492 22.512 13.3859 22.3374 13.2475L21.6791 12.7255L21.1563 13.3849C21.0176 13.5598 20.8153 13.6725 20.5938 13.6983C20.3722 13.724 20.1497 13.6607 19.9751 13.5223C19.8005 13.3839 19.6881 13.1816 19.6627 12.9601C19.6373 12.7385 19.7009 12.5158 19.8395 12.3409L20.3623 11.6815L19.704 11.1595C19.5294 11.0211 19.417 10.8189 19.3916 10.5973C19.3661 10.3758 19.4297 10.153 19.5684 9.97816C19.7071 9.80328 19.9094 9.69056 20.1309 9.66479C20.3524 9.63902 20.575 9.70232 20.7496 9.84076L21.4079 10.3628L21.9307 9.70337C22.0694 9.52849 22.2717 9.41576 22.4932 9.39C22.7147 9.36423 22.9373 9.42753 23.1119 9.56597C23.2865 9.70441 23.3989 9.90665 23.4243 10.1282C23.4497 10.3498 23.3861 10.5725 23.2475 10.7473L22.7247 11.4067Z" fill="#BFC7D2"/>
<path d="M11.7247 25.4067L12.383 25.9287C12.5576 26.0672 12.67 26.2694 12.6954 26.491C12.7209 26.7125 12.6572 26.9352 12.5186 27.1101C12.3799 27.285 12.1776 27.3977 11.9561 27.4235C11.7346 27.4492 11.512 27.3859 11.3374 27.2475L10.6791 26.7255L10.1563 27.3849C10.0176 27.5598 9.81526 27.6725 9.59375 27.6983C9.37224 27.724 9.14972 27.6607 8.97511 27.5223C8.8005 27.3839 8.68811 27.1816 8.66269 26.9601C8.63726 26.7385 8.70088 26.5158 8.83954 26.3409C8.83954 26.3409 9.40031 26.008 9.36234 25.6815C9.32442 25.3556 8.70397 25.1595 8.70397 25.1595C8.52936 25.0211 8.41698 24.8189 8.39156 24.5973C8.36613 24.3758 8.42974 24.153 8.5684 23.9782C8.70705 23.8033 8.9094 23.6906 9.13091 23.6648C9.35242 23.639 9.57496 23.7023 9.74957 23.8408L10.4079 24.3628L10.9307 23.7034C11.0694 23.5285 11.2717 23.4158 11.4932 23.39C11.7147 23.3642 11.9373 23.4275 12.1119 23.566C12.2865 23.7044 12.3989 23.9066 12.4243 24.1282C12.4497 24.3498 12.3861 24.5725 12.2475 24.7473L11.7247 25.4067Z" fill="#BFC7D2"/>
<path d="M100.219 72.4688H102.531V72.5844C102.531 79.3716 100.034 85.9044 95.5475 90.9456C92.3909 90.7028 92.1828 88.6562 88.6447 88.6562C84.8869 88.6562 84.8869 90.9688 81.1291 90.9688C77.3828 90.9688 77.3828 88.6562 73.625 88.6562L72.4688 86.3438L70.48 82.3547C70.2834 81.9616 69.8788 81.7188 69.4394 81.7188H58.5938V78.25C58.5938 77.6141 58.0734 77.0938 57.4375 77.0938H56.2812L55.125 72.4688H60.9062H77.0938H86.3438H93.2812H100.219Z" fill="#CCD1D9"/>
<path d="M93.2812 81.7188C94.5584 81.7188 95.5938 80.6834 95.5938 79.4062C95.5938 78.1291 94.5584 77.0938 93.2812 77.0938C92.0041 77.0938 90.9688 78.1291 90.9688 79.4062C90.9688 80.6834 92.0041 81.7188 93.2812 81.7188Z" fill="#FCD770"/>
<path d="M81.7188 48.9044V49.3438H74.6656C74.7466 49.1472 74.7812 48.9391 74.7812 48.7309C74.7812 47.7944 74.0181 47.0312 73.0816 47.0312H66.6759C66.5256 46.6728 66.4331 46.2913 66.3984 45.8866L65.5428 35.5612C65.5313 35.5034 65.5312 35.4341 65.5312 35.3763C65.5312 34.1506 66.5256 33.1562 67.7513 33.1562H69.4394C69.8788 33.1562 70.2834 33.3991 70.48 33.7922L72.145 37.1453C72.3416 37.5384 72.7462 37.7812 73.1856 37.7812H81.7188H88.6562H93.2812C93.6281 37.7812 93.975 37.8044 94.3219 37.8391L94.1022 37.9547C92.8881 38.5559 92.125 39.7931 92.125 41.1459C92.125 43.1231 93.7206 44.7188 95.6978 44.7188H102.242C102.427 45.4587 102.531 46.2334 102.531 47.0312C102.531 48.3031 101.491 49.3438 100.219 49.3438H89.7662C89.7894 49.205 89.8125 49.0547 89.8125 48.9044C89.8125 47.8637 88.98 47.0312 87.9394 47.0312H83.5919C82.5512 47.0312 81.7188 47.8637 81.7188 48.9044V48.9044Z" fill="#CCD1D9"/>
<path d="M69.8209 55.2984L69.6013 55.5644C69.4278 55.7609 69.2313 55.9228 69 56.05C68.7109 56.2003 68.3987 56.2812 68.0634 56.2812H67.5547H66.3637C65.2653 56.2812 64.375 55.3909 64.375 54.2925C64.375 54.0728 64.4097 53.8647 64.4791 53.6681L66.6759 47.0312H73.0816C74.0181 47.0312 74.7812 47.7944 74.7812 48.7309C74.7812 48.9391 74.7466 49.1472 74.6656 49.3438C74.5963 49.5056 74.5037 49.6675 74.3881 49.8178L69.8209 55.2984Z" fill="#FCD770"/>
<path d="M85.5344 33.6188L88.6562 37.7812H81.7188V34.3125C81.7188 33.6766 82.2391 33.1562 82.875 33.1562H84.6094C84.9678 33.1562 85.3147 33.3297 85.5344 33.6188Z" fill="#FCD770"/>
<path d="M89.7662 49.3438C89.7316 49.4825 89.6738 49.6097 89.6159 49.7369L85.5112 57.9578C85.3147 58.3509 84.91 58.5938 84.4706 58.5938H82.875C82.2391 58.5938 81.7188 58.0734 81.7188 57.4375V49.3438V48.9044C81.7188 47.8637 82.5512 47.0312 83.5919 47.0312H87.9394C88.98 47.0312 89.8125 47.8637 89.8125 48.9044C89.8125 49.0547 89.7894 49.205 89.7662 49.3438V49.3438Z" fill="#FCD770"/>
<path d="M102.242 44.7188H95.6978C93.7206 44.7188 92.125 43.1231 92.125 41.1459C92.125 39.7931 92.8881 38.5559 94.1022 37.9547L94.3219 37.8391C96.4609 38.0819 98.3803 39.0531 99.8256 40.4869C100.97 41.6431 101.814 43.0884 102.242 44.7188Z" fill="#69D6F4"/>
<path d="M74.7812 63.2188V67.8438H63.2188V63.2188H69H74.7812Z" fill="#D3A06C"/>
<path d="M77.0938 67.8438V72.4688H60.9062V67.8438H63.2188H74.7812H77.0938Z" fill="#B27946"/>
<path d="M47.0312 37.7812C54.6972 37.7812 60.9062 43.9903 60.9062 51.6562C60.9062 59.3222 54.6972 65.5312 47.0312 65.5312C39.3653 65.5312 33.1562 59.3222 33.1562 51.6562C33.1562 43.9903 39.3653 37.7812 47.0312 37.7812Z" fill="#E6E9ED"/>
<path d="M52.8125 44.7188H41.25C40.6141 44.7188 40.0938 45.2391 40.0938 45.875V57.4375C40.0938 58.0734 40.6141 58.5938 41.25 58.5938H44.7188H49.3438H52.8125C53.4484 58.5938 53.9688 58.0734 53.9688 57.4375V45.875C53.9688 45.2391 53.4484 44.7188 52.8125 44.7188Z" fill="#D3A06C"/>
<path d="M44.7188 44.7188H49.3438V49.3438H44.7188V44.7188Z" fill="#B27946"/>
<path d="M95.5938 63.2188V67.8438H93.2812H88.6562V63.2188H95.5938Z" fill="#CF9E76"/>
<path d="M95.5938 67.8438H100.219V72.4688H93.2812V67.8438H95.5938Z" fill="#D3A06C"/>
<path d="M93.2812 67.8438V72.4688H86.3438V67.8438H88.6562H93.2812Z" fill="#D3A06C"/>
<path d="M43.5625 95.5938C41.6431 95.5938 40.0938 97.1431 40.0938 99.0625C40.0938 99.4672 40.1631 99.8603 40.3019 100.219H40.2903H34.3125C33.6766 100.219 33.1562 99.6984 33.1562 99.0625V95.5938H37.7812H42.4062H43.5625Z" fill="#FF826E"/>
<path d="M74.7466 90.9688L72.4688 86.3438L70.48 82.3547C70.2834 81.9616 69.8788 81.7188 69.4394 81.7188H58.5938V94.4375C58.5938 95.0734 58.0734 95.5938 57.4375 95.5938H51.6562H47.0312H43.5625C45.4819 95.5938 47.0312 97.1431 47.0312 99.0625C47.0312 99.4672 46.9619 99.8603 46.8231 100.219H46.8347H63.4153H63.4269C63.2881 99.8603 63.2188 99.4672 63.2188 99.0625C63.2188 97.1431 64.7681 95.5938 66.6875 95.5938C68.6069 95.5938 70.1562 97.1431 70.1562 99.0625C70.1562 99.4672 70.0869 99.8603 69.9481 100.219H69.9597H73.625C74.2609 100.219 74.7812 99.6984 74.7812 99.0625V93.3622V91.2463C74.7812 91.1538 74.7697 91.0612 74.7466 90.9688Z" fill="#FF826E"/>
<path d="M47.0312 99.0625C47.0312 99.4672 46.9619 99.8603 46.8231 100.219C46.3606 101.572 45.0772 102.531 43.5625 102.531C42.0478 102.531 40.7644 101.572 40.3019 100.219C40.1631 99.8603 40.0938 99.4672 40.0938 99.0625C40.0938 97.1431 41.6431 95.5938 43.5625 95.5938C45.4819 95.5938 47.0312 97.1431 47.0312 99.0625Z" fill="#969FAA"/>
<path d="M70.1562 99.0625C70.1562 99.4672 70.0869 99.8603 69.9481 100.219C69.4856 101.572 68.2022 102.531 66.6875 102.531C65.1728 102.531 63.8894 101.572 63.4269 100.219C63.2881 99.8603 63.2188 99.4672 63.2188 99.0625C63.2188 97.1431 64.7681 95.5938 66.6875 95.5938C68.6069 95.5938 70.1562 97.1431 70.1562 99.0625Z" fill="#969FAA"/>
<path d="M57.4375 77.0938H56.2812H34.3125C33.6766 77.0938 33.1562 77.6141 33.1562 78.25V95.5938H57.4375C58.0734 95.5938 58.5938 95.0734 58.5938 94.4375V81.7188V78.25C58.5938 77.6141 58.0734 77.0938 57.4375 77.0938Z" fill="#FC6E51"/>
<path d="M37.7812 81.7188H42.4062V95.5938H37.7812V81.7188Z" fill="#E6E9ED"/>
<path d="M47.0312 81.7188H51.6562V95.5938H47.0312V81.7188Z" fill="#E6E9ED"/>
<path d="M73.625 88.6562L74.6541 90.7259C74.6887 90.8069 74.7234 90.8878 74.7466 90.9688H63.2188V86.3438H72.4687L73.625 88.6562Z" fill="#4FC1E9"/>
<path d="M103.688 88.6562V93.2812C99.9297 93.2812 99.9297 95.5938 96.1719 95.5938C92.4025 95.5938 92.4025 93.2812 88.6447 93.2812C84.8869 93.2812 84.8869 95.5938 81.1291 95.5938C77.8106 95.5938 77.4291 93.7784 74.7812 93.3622V91.2463C74.7812 91.1538 74.7697 91.0612 74.7466 90.9688C74.7234 90.8878 74.6887 90.8069 74.6541 90.7259L73.625 88.6562C77.3828 88.6562 77.3828 90.9688 81.1291 90.9688C84.8869 90.9688 84.8869 88.6562 88.6447 88.6562C92.1828 88.6562 92.3909 90.7028 95.5475 90.9456C95.7441 90.9572 95.9522 90.9688 96.1719 90.9688C99.9297 90.9688 99.9297 88.6562 103.688 88.6562Z" fill="#69D6F4"/>
<path d="M80.5625 41.25H82.875V43.5625H80.5625V41.25Z" fill="black"/>
<path d="M75.9375 41.25H78.25V43.5625H75.9375V41.25Z" fill="black"/>
<path d="M41.25 59.75H52.8125C54.0878 59.75 55.125 58.7128 55.125 57.4375V45.875C55.125 44.5997 54.0878 43.5625 52.8125 43.5625H41.25C39.9747 43.5625 38.9375 44.5997 38.9375 45.875V57.4375C38.9375 58.7128 39.9747 59.75 41.25 59.75ZM45.875 45.875H48.1875V48.1875H45.875V45.875ZM41.25 45.875H43.5625V50.5H50.5V45.875H52.8125L52.8137 57.4375H50.5V55.125H48.1875V57.4375H45.875V55.125H43.5625V57.4375H41.25V45.875Z" fill="black"/>
<path d="M47.0312 66.6875C55.3193 66.6875 62.0625 59.9443 62.0625 51.6562C62.0625 43.3682 55.3193 36.625 47.0312 36.625C38.7432 36.625 32 43.3682 32 51.6562C32 59.9443 38.7432 66.6875 47.0312 66.6875ZM47.0312 38.9375C54.0439 38.9375 59.75 44.6436 59.75 51.6562C59.75 58.6689 54.0439 64.375 47.0312 64.375C40.0186 64.375 34.3125 58.6689 34.3125 51.6562C34.3125 44.6436 40.0186 38.9375 47.0312 38.9375Z" fill="black"/>
<path d="M93.2812 82.875C95.1937 82.875 96.75 81.3187 96.75 79.4062C96.75 77.4938 95.1937 75.9375 93.2812 75.9375C91.3688 75.9375 89.8125 77.4938 89.8125 79.4062C89.8125 81.3187 91.3688 82.875 93.2812 82.875ZM93.2812 78.25C93.9195 78.25 94.4375 78.768 94.4375 79.4062C94.4375 80.0445 93.9195 80.5625 93.2812 80.5625C92.643 80.5625 92.125 80.0445 92.125 79.4062C92.125 78.768 92.643 78.25 93.2812 78.25Z" fill="black"/>
<path d="M101.375 66.6875H96.75V62.0625H87.5V66.6875H85.1875V71.3125H78.25V66.6875H75.9375V64.375H78.25V62.0625H75.4218L71.2501 55.3886L75.2738 50.559C75.2888 50.5405 75.2992 50.5197 75.3143 50.5012H80.5625V57.4387C80.5625 58.714 81.5997 59.7512 82.875 59.7512H84.4729C85.3563 59.7512 86.1483 59.2609 86.5415 58.4735L90.5271 50.5H100.219C102.131 50.5 103.688 48.9437 103.688 47.0312C103.688 41.2939 99.0197 36.625 93.2812 36.625H89.2344L86.4594 32.925C86.0258 32.3457 85.3332 32 84.6094 32H82.875C81.5997 32 80.5625 33.0372 80.5625 34.3125V36.625H73.1833L71.5102 33.2788C71.1171 32.4902 70.3251 32 69.4417 32H67.7513C65.8897 32 64.375 33.5147 64.375 35.3763C64.375 35.4722 64.3785 35.5693 64.3877 35.6572L65.248 45.9848C65.278 46.341 65.359 46.6867 65.463 47.0243L63.3806 53.297C63.2731 53.6173 63.2188 53.9514 63.2188 54.2913C63.2188 55.7413 64.2097 56.953 65.5451 57.3161L62.5782 62.0625H59.75V64.375H62.0625V66.6875H59.75V71.3125H53.6438L54.8012 75.9375H34.3125C33.0372 75.9375 32 76.9747 32 78.25V99.0625C32 100.338 33.0372 101.375 34.3125 101.375H39.5804C40.3828 102.751 41.8582 103.688 43.5625 103.688C45.2668 103.688 46.7422 102.751 47.5446 101.375H62.7054C63.5078 102.751 64.9832 103.688 66.6875 103.688C68.3918 103.688 69.8672 102.751 70.6696 101.375H73.625C74.9003 101.375 75.9375 100.338 75.9375 99.0625V94.9462C76.2208 95.0885 76.4913 95.248 76.7746 95.4226C77.784 96.0447 78.9287 96.75 81.1325 96.75C83.3387 96.75 84.4845 96.0447 85.4962 95.4226C86.39 94.8723 87.0965 94.4375 88.6482 94.4375C90.201 94.4375 90.9063 94.8723 91.8013 95.4226C92.8141 96.0447 93.96 96.75 96.1672 96.75C98.3745 96.75 99.5204 96.0447 100.532 95.4226C101.428 94.8723 102.135 94.4375 103.688 94.4375V92.125C101.48 92.125 100.334 92.8303 99.3227 93.4524C98.4266 94.0027 97.7201 94.4375 96.1672 94.4375C94.6144 94.4375 93.9079 94.0027 93.0118 93.4524C92.0024 92.8303 90.8543 92.125 88.6482 92.125C86.442 92.125 85.2962 92.8303 84.2845 93.4524C83.3907 94.0027 82.6842 94.4375 81.1325 94.4375C79.5843 94.4375 78.879 94.0027 77.9864 93.4524C77.4152 93.1009 76.785 92.7158 75.9375 92.4511V91.2416C75.9375 90.8843 75.8531 90.5271 75.6935 90.2068L75.6901 90.1998C76.067 90.3652 76.4046 90.5698 76.7735 90.7965C77.784 91.4197 78.9287 92.125 81.1325 92.125C83.3387 92.125 84.4845 91.4197 85.4962 90.7976C86.39 90.2473 87.0965 89.8125 88.6482 89.8125C90.201 89.8125 90.9063 90.2473 91.8013 90.7976C92.8141 91.4197 93.96 92.125 96.1672 92.125C98.3745 92.125 99.5204 91.4197 100.532 90.7976C101.428 90.2473 102.135 89.8125 103.688 89.8125V87.5C101.48 87.5 100.334 88.2053 99.3227 88.8274C98.9538 89.054 98.6139 89.2587 98.2358 89.424C101.762 84.54 103.688 78.6651 103.688 72.5855V71.3125H101.375V66.6875ZM99.0625 71.3125H94.4375V69H99.0625V71.3125ZM89.8125 64.375H94.4375V66.6875H89.8125V64.375ZM87.5 69H92.125V71.3125H87.5V69ZM72.6954 62.0625H70.1562V58.0006L72.6954 62.0625ZM88.5811 49.2223L84.4729 57.4375H82.875V48.9021C82.875 48.5078 83.1953 48.1875 83.5896 48.1875H87.9417C88.336 48.1875 88.6562 48.5078 88.6562 48.9021C88.6562 49.0119 88.6308 49.1229 88.5811 49.2223V49.2223ZM100.583 43.5625H95.6978C94.3658 43.5625 93.2812 42.4791 93.2812 41.1459C93.2812 40.2602 93.7623 39.4705 94.53 39.0439C97.209 39.4613 99.4522 41.1933 100.583 43.5625V43.5625ZM82.875 34.3125H84.6094L86.3438 36.625H82.875V34.3125ZM67.7513 34.3125H69.4417L71.1148 37.6587C71.5079 38.4473 72.2999 38.9375 73.1833 38.9375H91.5237C91.1711 39.6047 90.9688 40.3551 90.9688 41.1459C90.9688 43.7533 93.0905 45.875 95.6978 45.875H101.282C101.337 46.2543 101.375 46.6381 101.375 47.0312C101.375 47.6683 100.857 48.1875 100.219 48.1875H90.8739C90.5502 46.8636 89.3627 45.875 87.9417 45.875H83.5896C82.1685 45.875 80.9799 46.8636 80.6573 48.1875H75.8832C75.6288 46.8728 74.4725 45.875 73.0839 45.875H67.572C67.5686 45.8461 67.5547 45.8207 67.5512 45.7918L66.6875 35.3763C66.6875 34.79 67.165 34.3125 67.7513 34.3125V34.3125ZM65.574 54.0277L67.5131 48.1875H73.0827C73.3822 48.1875 73.625 48.4303 73.625 48.7286C73.625 48.8547 73.5811 48.9772 73.499 49.0755L68.7086 54.8244C68.5491 55.0152 68.3155 55.125 68.0669 55.125H66.3649C65.9059 55.125 65.5312 54.7504 65.5312 54.2902C65.5312 54.2012 65.5451 54.1133 65.574 54.0277V54.0277ZM67.8438 57.9994V62.0625H65.3046L67.8438 57.9994ZM64.375 64.375H73.625V66.6875H64.375V64.375ZM62.0625 69H75.9375V71.3125H62.0625V69ZM34.3125 78.25H57.4375V94.4375H52.8125V80.5625H45.875V94.4375H43.5625V80.5625H36.625V94.4375H34.3125V78.25ZM41.25 94.4375H38.9375V82.875H41.25V94.4375ZM50.5 94.4375H48.1875V82.875H50.5V94.4375ZM34.3125 99.0625V96.75H39.5804C39.1826 97.4333 38.9375 98.2161 38.9375 99.0625H34.3125ZM43.5625 101.375C42.2872 101.375 41.25 100.338 41.25 99.0625C41.25 97.7872 42.2872 96.75 43.5625 96.75C44.8378 96.75 45.875 97.7872 45.875 99.0625C45.875 100.338 44.8378 101.375 43.5625 101.375ZM66.6875 101.375C65.4122 101.375 64.375 100.338 64.375 99.0625C64.375 97.7872 65.4122 96.75 66.6875 96.75C67.9628 96.75 69 97.7872 69 99.0625C69 100.338 67.9628 101.375 66.6875 101.375ZM71.3125 99.0625C71.3125 96.5118 69.2382 94.4375 66.6875 94.4375C64.1368 94.4375 62.0625 96.5118 62.0625 99.0625H48.1875C48.1875 98.2161 47.9424 97.4333 47.5446 96.75H57.4375C58.7128 96.75 59.75 95.7128 59.75 94.4375V82.875H69.4417L70.5979 85.1875H62.0625V92.125H73.625V99.0625H71.3125ZM72.9104 89.8125H64.375V87.5H71.7542L72.9104 89.8125ZM95.0607 89.7177C94.2155 89.5616 93.6617 89.2263 93.0118 88.8274C92.0024 88.2053 90.8543 87.5 88.6482 87.5C86.442 87.5 85.2962 88.2053 84.2845 88.8274C83.3907 89.3777 82.6842 89.8125 81.1325 89.8125C79.5832 89.8125 78.879 89.3777 77.9852 88.8274C77.0926 88.2782 76.0936 87.6653 74.3534 87.5289L71.5091 81.8413C71.1171 81.0527 70.3251 80.5625 69.4417 80.5625H59.75V78.25C59.75 76.9747 58.7128 75.9375 57.4375 75.9375H57.1843L56.6073 73.625H101.355C101.123 79.545 98.9029 85.1967 95.0607 89.7177Z" fill="black"/>
</svg>
