<svg width="130" height="130" viewBox="0 0 130 130" fill="none" xmlns="http://www.w3.org/2000/svg">
<circle cx="66.5789" cy="66.5789" r="58.4211" fill="#C2EAFC"/>
<circle cx="113.947" cy="11.3158" r="6.31579" fill="#AAE5FF"/>
<circle cx="11.3158" cy="91.8422" r="6.31579" fill="#AAE5FF"/>
<circle r="3.15789" transform="matrix(1 0 0 -1 14.4737 69.7369)" fill="white"/>
<circle r="2.36842" transform="matrix(1 0 0 -1 108.421 40.5263)" fill="white"/>
<circle cx="120.263" cy="101.316" r="3.15789" fill="#76FD8C"/>
<circle cx="104.474" cy="8.1579" r="1.57895" fill="#76FD8C"/>
<circle cx="119.474" cy="26.3158" r="2.36842" fill="#1BB934"/>
<circle cx="80.4999" cy="58.5" r="28.5" fill="#D8F1FD"/>
<path fill-rule="evenodd" clip-rule="evenodd" d="M98.896 120.706C98.7663 120.603 98.6175 120.527 98.4582 120.481C98.2989 120.436 98.1322 120.423 97.9677 120.442C97.8031 120.461 97.6439 120.513 97.4991 120.593C97.3543 120.674 97.2268 120.782 97.1238 120.912C97.0208 121.042 96.9444 121.191 96.8989 121.351C96.8534 121.51 96.8398 121.677 96.8587 121.841C96.8777 122.006 96.9288 122.165 97.0093 122.31C97.0898 122.455 97.198 122.582 97.3278 122.685C97.5899 122.893 97.9238 122.987 98.2562 122.949C98.5885 122.91 98.8921 122.741 99.1001 122.478C99.308 122.216 99.4034 121.882 99.3651 121.549C99.3268 121.217 99.1581 120.913 98.896 120.706Z" fill="#BFC7D2"/>
<path d="M22.7246 11.4067L23.383 11.9287C23.5576 12.0672 23.67 12.2694 23.6954 12.491C23.7208 12.7125 23.6572 12.9352 23.5186 13.1101C23.3799 13.285 23.1776 13.3977 22.9561 13.4235C22.7346 13.4492 22.512 13.3859 22.3374 13.2475L21.679 12.7255L21.1562 13.3849C21.0176 13.5598 20.8152 13.6725 20.5937 13.6983C20.3722 13.724 20.1497 13.6607 19.9751 13.5223C19.8005 13.3839 19.6881 13.1816 19.6627 12.9601C19.6372 12.7385 19.7009 12.5158 19.8395 12.3409L20.3623 11.6815L19.7039 11.1595C19.5293 11.0211 19.417 10.8189 19.3915 10.5973C19.3661 10.3758 19.4297 10.153 19.5684 9.97816C19.707 9.80328 19.9094 9.69056 20.1309 9.66479C20.3524 9.63902 20.5749 9.70232 20.7495 9.84076L21.4079 10.3628L21.9307 9.70337C22.0694 9.52849 22.2717 9.41576 22.4932 9.39C22.7147 9.36423 22.9373 9.42753 23.1119 9.56597C23.2865 9.70441 23.3989 9.90665 23.4243 10.1282C23.4497 10.3498 23.3861 10.5725 23.2474 10.7473L22.7246 11.4067Z" fill="#BFC7D2"/>
<path d="M11.7246 25.4067L12.383 25.9287C12.5576 26.0672 12.67 26.2694 12.6954 26.491C12.7208 26.7125 12.6572 26.9352 12.5186 27.1101C12.3799 27.285 12.1776 27.3977 11.9561 27.4235C11.7346 27.4492 11.512 27.3859 11.3374 27.2475L10.679 26.7255L10.1562 27.3849C10.0176 27.5598 9.81525 27.6725 9.59374 27.6983C9.37222 27.724 9.1497 27.6607 8.97509 27.5223C8.80048 27.3839 8.68809 27.1816 8.66267 26.9601C8.63725 26.7385 8.70087 26.5158 8.83952 26.3409C8.83952 26.3409 9.40029 26.008 9.36232 25.6815C9.32441 25.3556 8.70395 25.1595 8.70395 25.1595C8.52934 25.0211 8.41697 24.8189 8.39154 24.5973C8.36612 24.3758 8.42973 24.153 8.56838 23.9782C8.70704 23.8033 8.90938 23.6906 9.13089 23.6648C9.3524 23.639 9.57494 23.7023 9.74955 23.8408L10.4079 24.3628L10.9307 23.7034C11.0694 23.5285 11.2717 23.4158 11.4932 23.39C11.7147 23.3642 11.9373 23.4275 12.1119 23.566C12.2865 23.7044 12.3989 23.9066 12.4243 24.1282C12.4497 24.3498 12.3861 24.5725 12.2474 24.7473L11.7246 25.4067Z" fill="#BFC7D2"/>
<path d="M50.6442 95.9141H35.1414L35.5451 87.4531L37.7895 40.3628H47.9961L50.2404 87.4531L50.6442 95.9141Z" fill="#EAEAF0"/>
<path d="M36.9535 40.364H48.8285V43.9265H36.9535V40.364Z" fill="#D8D8D8"/>
<path d="M33.2728 97.6953L33.8464 85.6719H51.9386L52.5121 97.6953H33.2728Z" fill="#D8D8D8"/>
<path d="M77.6747 95.9141H62.1718L62.5756 87.4531L64.82 40.3628H75.0265L77.2709 87.4531L77.6747 95.9141Z" fill="#EAEAF0"/>
<path d="M63.984 40.364H75.859V43.9265H63.984V40.364Z" fill="#D8D8D8"/>
<path d="M94.5781 95.7656H42.891V61.9575L94.5781 55.7445V95.7656Z" fill="#3BA9FD"/>
<path d="M29.8594 94.5781H98.1406V98.1406H29.8594V94.5781Z" fill="#0E8BCE"/>
<path d="M68.7369 82.7031H75.8619V94.5781H68.7369V82.7031Z" fill="#EAEAF0"/>
<path d="M70.5182 73.896H74.0807V77.4585H70.5182V73.896Z" fill="#EAEAF0"/>
<path d="M81.3262 73.896H84.8887V77.4585H81.3262V73.896Z" fill="#EAEAF0"/>
<path d="M79.545 82.7031H86.67V94.5781H79.545V82.7031Z" fill="#EAEAF0"/>
<path d="M48.2348 32.3828C47.015 32.3845 45.8457 32.8699 44.9833 33.7326C44.1209 34.5952 43.6358 35.7646 43.6344 36.9844C43.6344 37.26 43.7439 37.5242 43.9387 37.7191C44.1336 37.914 44.3979 38.0234 44.6734 38.0234C44.949 38.0234 45.2133 37.914 45.4082 37.7191C45.603 37.5242 45.7125 37.26 45.7125 36.9844C45.7131 36.3153 45.9792 35.6738 46.4523 35.2007C46.9254 34.7276 47.5669 34.4616 48.2359 34.4609H54.9982C55.2737 34.4609 55.538 34.3515 55.7329 34.1566C55.9278 33.9617 56.0372 33.6975 56.0372 33.4219C56.0372 33.1463 55.9278 32.882 55.7329 32.6871C55.538 32.4923 55.2737 32.3828 54.9982 32.3828H48.2348Z" fill="#051720"/>
<path d="M61.223 32.3828H59.3824C59.1068 32.3828 58.8425 32.4923 58.6477 32.6871C58.4528 32.882 58.3433 33.1463 58.3433 33.4219C58.3433 33.6975 58.4528 33.9617 58.6477 34.1566C58.8425 34.3515 59.1068 34.4609 59.3824 34.4609H61.223C61.4986 34.4609 61.7629 34.3515 61.9577 34.1566C62.1526 33.9617 62.2621 33.6975 62.2621 33.4219C62.2621 33.1463 62.1526 32.882 61.9577 32.6871C61.7629 32.4923 61.4986 32.3828 61.223 32.3828Z" fill="#051720"/>
<path d="M55.5177 30.8984H61.223C61.4986 30.8984 61.7629 30.789 61.9578 30.5941C62.1526 30.3992 62.2621 30.135 62.2621 29.8594C62.2621 29.5838 62.1526 29.3195 61.9578 29.1246C61.7629 28.9298 61.4986 28.8203 61.223 28.8203H55.5177C55.2421 28.8203 54.9778 28.9298 54.783 29.1246C54.5881 29.3195 54.4786 29.5838 54.4786 29.8594C54.4786 30.135 54.5881 30.3992 54.783 30.5941C54.9778 30.789 55.2421 30.8984 55.5177 30.8984V30.8984Z" fill="#051720"/>
<path d="M41.1098 38.0234C41.2463 38.0237 41.3816 37.997 41.5078 37.9448C41.6341 37.8927 41.7488 37.8162 41.8454 37.7197C41.9421 37.6232 42.0187 37.5086 42.071 37.3824C42.1232 37.2562 42.1501 37.1209 42.15 36.9844C42.1517 35.371 42.7933 33.8242 43.934 32.6833C45.0747 31.5424 46.6214 30.9005 48.2348 30.8984H50.9779C51.2535 30.8984 51.5177 30.789 51.7126 30.5941C51.9075 30.3992 52.0169 30.135 52.0169 29.8594C52.0169 29.5838 51.9075 29.3195 51.7126 29.1246C51.5177 28.9298 51.2535 28.8203 50.9779 28.8203H48.2348C46.0704 28.823 43.9956 29.684 42.4653 31.2145C40.935 32.745 40.0742 34.8201 40.0719 36.9844C40.0718 37.1207 40.0986 37.2558 40.1507 37.3818C40.2028 37.5078 40.2792 37.6224 40.3756 37.7189C40.472 37.8153 40.5864 37.8919 40.7124 37.9442C40.8384 37.9964 40.9734 38.0234 41.1098 38.0234V38.0234Z" fill="#051720"/>
<path d="M75.2652 32.3828C74.0452 32.3842 72.8756 32.8695 72.013 33.7321C71.1503 34.5948 70.665 35.7644 70.6636 36.9844C70.6636 37.26 70.7731 37.5242 70.968 37.7191C71.1628 37.914 71.4271 38.0234 71.7027 38.0234C71.9783 38.0234 72.2426 37.914 72.4374 37.7191C72.6323 37.5242 72.7418 37.26 72.7418 36.9844C72.7424 36.3153 73.0085 35.6738 73.4816 35.2007C73.9547 34.7276 74.5961 34.4616 75.2652 34.4609H78.3984C78.674 34.4609 78.9383 34.3515 79.1331 34.1566C79.328 33.9617 79.4375 33.6975 79.4375 33.4219C79.4375 33.1463 79.328 32.882 79.1331 32.6871C78.9383 32.4923 78.674 32.3828 78.3984 32.3828H75.2652Z" fill="#051720"/>
<path d="M81.7383 33.4219C81.7382 33.5583 81.765 33.6935 81.8172 33.8196C81.8694 33.9457 81.9459 34.0603 82.0424 34.1568C82.1389 34.2533 82.2535 34.3298 82.3796 34.382C82.5057 34.4342 82.6409 34.461 82.7773 34.4609H88.2535C88.5291 34.4609 88.7934 34.3515 88.9882 34.1566C89.1831 33.9617 89.2926 33.6975 89.2926 33.4219C89.2926 33.1463 89.1831 32.882 88.9882 32.6871C88.7934 32.4923 88.5291 32.3828 88.2535 32.3828H82.7773C82.6409 32.3827 82.5057 32.4096 82.3796 32.4617C82.2535 32.5139 82.1389 32.5905 82.0424 32.687C81.9459 32.7835 81.8694 32.8981 81.8172 33.0242C81.765 33.1503 81.7382 33.2854 81.7383 33.4219V33.4219Z" fill="#051720"/>
<path d="M86.822 30.8984H88.2535C88.5291 30.8984 88.7934 30.789 88.9882 30.5941C89.1831 30.3992 89.2926 30.135 89.2926 29.8594C89.2926 29.5838 89.1831 29.3195 88.9882 29.1246C88.7934 28.9298 88.5291 28.8203 88.2535 28.8203H86.822C86.5464 28.8203 86.2821 28.9298 86.0872 29.1246C85.8924 29.3195 85.7829 29.5838 85.7829 29.8594C85.7829 30.135 85.8924 30.3992 86.0872 30.5941C86.2821 30.789 86.5464 30.8984 86.822 30.8984V30.8984Z" fill="#051720"/>
<path d="M68.1402 38.0234C68.4158 38.0234 68.6801 37.914 68.8749 37.7191C69.0698 37.5242 69.1793 37.26 69.1793 36.9844C69.181 35.3708 69.8227 33.8238 70.9637 32.6829C72.1047 31.5419 73.6516 30.9002 75.2652 30.8984H81.1071C81.3827 30.8984 81.647 30.789 81.8418 30.5941C82.0367 30.3992 82.1462 30.135 82.1462 29.8594C82.1462 29.5838 82.0367 29.3195 81.8418 29.1246C81.647 28.9298 81.3827 28.8203 81.1071 28.8203H75.2652C73.1007 28.8227 71.0255 29.6836 69.4949 31.2141C67.9644 32.7447 67.1035 34.8199 67.1011 36.9844C67.1011 37.1208 67.1279 37.256 67.1801 37.3821C67.2323 37.5082 67.3088 37.6228 67.4053 37.7193C67.5018 37.8158 67.6164 37.8923 67.7425 37.9445C67.8686 37.9967 68.0037 38.0235 68.1402 38.0234V38.0234Z" fill="#051720"/>
<path d="M92.0547 67.8505V64.288C92.0547 64.0124 91.9452 63.7481 91.7504 63.5532C91.5555 63.3584 91.2912 63.2489 91.0156 63.2489C90.74 63.2489 90.4758 63.3584 90.2809 63.5532C90.086 63.7481 89.9766 64.0124 89.9766 64.288V67.8505C89.9766 68.126 90.086 68.3903 90.2809 68.5852C90.4758 68.78 90.74 68.8895 91.0156 68.8895C91.2912 68.8895 91.5555 68.78 91.7504 68.5852C91.9452 68.3903 92.0547 68.126 92.0547 67.8505V67.8505Z" fill="#051720"/>
<path d="M98.1406 93.5391H95.6172V56.6672L98.2647 56.3489C98.5333 56.3103 98.7762 56.168 98.9413 55.9526C99.1064 55.7373 99.1807 55.4658 99.1483 55.1963C99.1159 54.9269 98.9793 54.6808 98.7678 54.5107C98.5563 54.3407 98.2867 54.2601 98.0165 54.2862L88.6751 55.409C88.4117 55.44 88.1702 55.5705 87.9999 55.7738C87.8297 55.9771 87.7436 56.2378 87.7593 56.5025C87.775 56.7672 87.8913 57.0159 88.0844 57.1976C88.2775 57.3794 88.5328 57.4804 88.798 57.48C88.8398 57.4801 88.8817 57.4775 88.9232 57.4723L93.5391 56.9172V93.5391H87.709V82.7031C87.709 82.4275 87.5996 82.1633 87.4047 81.9684C87.2098 81.7735 86.9455 81.6641 86.67 81.6641H79.545C79.4085 81.664 79.2733 81.6908 79.1472 81.743C79.0211 81.7952 78.9066 81.8717 78.8101 81.9682C78.7136 82.0647 78.637 82.1793 78.5848 82.3054C78.5327 82.4315 78.5058 82.5666 78.5059 82.7031V93.5391H76.9028V82.7031C76.9028 82.4275 76.7933 82.1633 76.5984 81.9684C76.4036 81.7735 76.1393 81.6641 75.8637 81.6641H68.7387C68.6022 81.664 68.4671 81.6908 68.341 81.743C68.2149 81.7952 68.1003 81.8717 68.0038 81.9682C67.9073 82.0647 67.8308 82.1793 67.7786 82.3054C67.7264 82.4315 67.6996 82.5666 67.6997 82.7031V93.5391H59.2007C58.9251 93.5391 58.6609 93.6485 58.466 93.8434C58.2711 94.0383 58.1617 94.3025 58.1617 94.5781C58.1617 94.8537 58.2711 95.118 58.466 95.3128C58.6609 95.5077 58.9251 95.6172 59.2007 95.6172H97.1016V97.1016H30.8984V95.6172H47.3257C47.6013 95.6172 47.8656 95.5077 48.0604 95.3128C48.2553 95.118 48.3648 94.8537 48.3648 94.5781C48.3648 94.3025 48.2553 94.0383 48.0604 93.8434C47.8656 93.6485 47.6013 93.5391 47.3257 93.5391H43.9313V62.8796L82.9014 58.1949C83.0369 58.1786 83.1679 58.1358 83.2868 58.0689C83.4057 58.002 83.5103 57.9123 83.5946 57.805C83.6788 57.6977 83.7412 57.5748 83.7779 57.4434C83.8147 57.312 83.8253 57.1746 83.809 57.0392C83.7927 56.9037 83.7499 56.7728 83.683 56.6538C83.6161 56.5349 83.5264 56.4303 83.4191 56.346C83.3118 56.2618 83.1889 56.1995 83.0575 56.1627C82.9261 56.1259 82.7887 56.1153 82.6533 56.1316L76.8535 56.8287L76.2835 44.8729C76.4664 44.7913 76.6217 44.6585 76.7307 44.4906C76.8398 44.3227 76.8979 44.1267 76.898 43.9265V40.364C76.8979 40.0885 76.7884 39.8243 76.5935 39.6294C76.3987 39.4346 76.1345 39.3251 75.859 39.3249H63.984C63.7084 39.3249 63.4441 39.4344 63.2492 39.6293C63.0544 39.8241 62.9449 40.0884 62.9449 40.364V43.9265C62.9446 44.1276 63.0027 44.3245 63.1122 44.4931C63.2218 44.6618 63.378 44.795 63.5618 44.8765L62.9146 58.506L49.975 60.0617L49.6782 53.737C49.6717 53.6006 49.6384 53.4667 49.5802 53.3431C49.522 53.2196 49.44 53.1086 49.339 53.0167C49.2379 52.9248 49.1197 52.8537 48.9912 52.8075C48.8627 52.7612 48.7263 52.7408 48.5898 52.7472C48.4534 52.7537 48.3195 52.787 48.1959 52.8452C48.0723 52.9034 47.9614 52.9854 47.8695 53.0864C47.7776 53.1875 47.7065 53.3057 47.6603 53.4342C47.614 53.5628 47.5936 53.6991 47.6 53.8356L47.9064 60.3104L39.2044 61.3548C38.942 61.387 38.7018 61.5179 38.5326 61.721C38.3634 61.924 38.2779 62.1839 38.2935 62.4478C38.3092 62.7116 38.4248 62.9596 38.6169 63.1412C38.8089 63.3228 39.063 63.4244 39.3273 63.4253C39.3692 63.4252 39.411 63.4228 39.4526 63.4181L41.8531 63.129V84.6328H36.7202L38.6107 44.9656H47.1797L47.3637 48.8594C47.3764 49.1261 47.4913 49.3777 47.6845 49.562C47.8778 49.7463 48.1346 49.8492 48.4016 49.8492H48.4509C48.7262 49.8361 48.985 49.7142 49.1705 49.5104C49.356 49.3065 49.453 49.0373 49.4401 48.762L49.2554 44.8729C49.4381 44.7912 49.5932 44.6584 49.702 44.4904C49.8109 44.3225 49.8688 44.1266 49.8688 43.9265V40.364C49.8688 40.0884 49.7593 39.8241 49.5644 39.6293C49.3696 39.4344 49.1053 39.3249 48.8297 39.3249H36.9547C36.6791 39.3249 36.4148 39.4344 36.22 39.6293C36.0251 39.8241 35.9156 40.0884 35.9156 40.364V43.9265C35.9156 44.1279 35.9742 44.325 36.0843 44.4937C36.1944 44.6624 36.3511 44.7954 36.5355 44.8765L34.6397 84.6328H33.8494C33.5824 84.6328 33.3257 84.7355 33.1325 84.9197C32.9393 85.1039 32.8243 85.3554 32.8115 85.622L32.4315 93.5391H29.8594C29.7229 93.539 29.5878 93.5658 29.4617 93.618C29.3356 93.6702 29.221 93.7467 29.1245 93.8432C29.028 93.9397 28.9514 94.0543 28.8992 94.1804C28.8471 94.3065 28.8202 94.4416 28.8203 94.5781V98.1406C28.8202 98.2771 28.8471 98.4122 28.8992 98.5383C28.9514 98.6644 29.028 98.779 29.1245 98.8755C29.221 98.972 29.3356 99.0486 29.4617 99.1008C29.5878 99.1529 29.7229 99.1798 29.8594 99.1797H98.1406C98.2771 99.1798 98.4123 99.1529 98.5384 99.1008C98.6645 99.0486 98.779 98.972 98.8755 98.8755C98.972 98.779 99.0486 98.6644 99.1008 98.5383C99.1529 98.4122 99.1798 98.2771 99.1797 98.1406V94.5781C99.1798 94.4416 99.1529 94.3065 99.1008 94.1804C99.0486 94.0543 98.972 93.9397 98.8755 93.8432C98.779 93.7467 98.6645 93.6702 98.5384 93.618C98.4123 93.5658 98.2771 93.539 98.1406 93.5391V93.5391ZM69.776 93.5391V83.7422H74.8229V93.5391H69.776ZM80.5823 93.5391V83.7422H85.6291V93.5391H80.5823ZM65.023 41.4031H74.8199V42.8874H65.023V41.4031ZM65.6382 44.9656H74.2078L74.7849 57.0781L65.0094 58.2531L65.6382 44.9656ZM37.9926 41.4031H47.7906V42.8874H37.9938L37.9926 41.4031ZM34.8397 86.7109H41.8531V93.5391H34.512L34.8397 86.7109Z" fill="#051720"/>
<path d="M51.8281 93.5391C51.5525 93.5391 51.2883 93.6485 51.0934 93.8434C50.8985 94.0383 50.7891 94.3025 50.7891 94.5781C50.7891 94.8537 50.8985 95.118 51.0934 95.3129C51.2883 95.5077 51.5525 95.6172 51.8281 95.6172H54.7476C55.0232 95.6172 55.2875 95.5077 55.4823 95.3129C55.6772 95.118 55.7867 94.8537 55.7867 94.5781C55.7867 94.3025 55.6772 94.0383 55.4823 93.8434C55.2875 93.6485 55.0232 93.5391 54.7476 93.5391H51.8281Z" fill="#051720"/>
<path d="M62.9313 79.2398C62.9313 79.1033 62.9045 78.9682 62.8523 78.8421C62.8001 78.716 62.7236 78.6014 62.6271 78.5049C62.5306 78.4084 62.416 78.3318 62.2899 78.2796C62.1638 78.2275 62.0287 78.2006 61.8922 78.2007H50.0172C49.7416 78.2007 49.4773 78.3102 49.2825 78.5051C49.0876 78.6999 48.9781 78.9642 48.9781 79.2398C48.9781 79.5154 49.0876 79.7796 49.2825 79.9745C49.4773 80.1694 49.7416 80.2788 50.0172 80.2788H61.8922C62.0287 80.2789 62.1638 80.2521 62.2899 80.1999C62.416 80.1477 62.5306 80.0712 62.6271 79.9747C62.7236 79.8782 62.8001 79.7636 62.8523 79.6375C62.9045 79.5114 62.9313 79.3763 62.9313 79.2398Z" fill="#051720"/>
<path d="M61.891 71.0757H50.016C49.7404 71.0757 49.4761 71.1852 49.2813 71.38C49.0864 71.5749 48.9769 71.8392 48.9769 72.1148C48.9769 72.3904 49.0864 72.6546 49.2813 72.8495C49.4761 73.0444 49.7404 73.1538 50.016 73.1538H61.891C62.1666 73.1538 62.4309 73.0444 62.6257 72.8495C62.8206 72.6546 62.9301 72.3904 62.9301 72.1148C62.9301 71.8392 62.8206 71.5749 62.6257 71.38C62.4309 71.1852 62.1666 71.0757 61.891 71.0757V71.0757Z" fill="#051720"/>
<path d="M61.891 74.6382H50.016C49.7404 74.6382 49.4761 74.7477 49.2813 74.9425C49.0864 75.1374 48.9769 75.4017 48.9769 75.6773C48.9769 75.9529 49.0864 76.2171 49.2813 76.412C49.4761 76.6069 49.7404 76.7163 50.016 76.7163H61.891C62.1666 76.7163 62.4309 76.6069 62.6257 76.412C62.8206 76.2171 62.9301 75.9529 62.9301 75.6773C62.9301 75.4017 62.8206 75.1374 62.6257 74.9425C62.4309 74.7477 62.1666 74.6382 61.891 74.6382V74.6382Z" fill="#051720"/>
<path d="M70.5182 72.857C70.3817 72.8569 70.2466 72.8837 70.1205 72.9359C69.9944 72.9881 69.8798 73.0646 69.7833 73.1611C69.6868 73.2576 69.6103 73.3722 69.5581 73.4983C69.5059 73.6244 69.479 73.7596 69.4791 73.896V77.4585C69.479 77.595 69.5059 77.7302 69.5581 77.8563C69.6103 77.9824 69.6868 78.0969 69.7833 78.1934C69.8798 78.2899 69.9944 78.3665 70.1205 78.4187C70.2466 78.4708 70.3817 78.4977 70.5182 78.4976H74.0807C74.3563 78.4976 74.6206 78.3881 74.8154 78.1933C75.0103 77.9984 75.1198 77.7341 75.1198 77.4585V73.896C75.1198 73.6205 75.0103 73.3562 74.8154 73.1613C74.6206 72.9664 74.3563 72.857 74.0807 72.857H70.5182ZM73.0416 76.4195H71.5573V74.9351H73.0416V76.4195Z" fill="#051720"/>
<path d="M81.3262 72.857C81.1898 72.8569 81.0546 72.8837 80.9285 72.9359C80.8024 72.9881 80.6878 73.0646 80.5913 73.1611C80.4948 73.2576 80.4183 73.3722 80.3661 73.4983C80.3139 73.6244 80.2871 73.7596 80.2872 73.896V77.4585C80.2871 77.595 80.3139 77.7302 80.3661 77.8563C80.4183 77.9824 80.4948 78.0969 80.5913 78.1934C80.6878 78.2899 80.8024 78.3665 80.9285 78.4187C81.0546 78.4708 81.1898 78.4977 81.3262 78.4976H84.8887C85.1643 78.4976 85.4286 78.3881 85.6235 78.1933C85.8183 77.9984 85.9278 77.7341 85.9278 77.4585V73.896C85.9278 73.6205 85.8183 73.3562 85.6235 73.1613C85.4286 72.9664 85.1643 72.857 84.8887 72.857H81.3262ZM83.8497 76.4195H82.3653V74.9351H83.8497V76.4195Z" fill="#051720"/>
</svg>
