<svg width="130" height="130" viewBox="0 0 130 130" fill="none" xmlns="http://www.w3.org/2000/svg">
<circle cx="66.5789" cy="66.5789" r="58.4211" fill="#CEECD3"/>
<circle cx="113.947" cy="11.3158" r="6.31579" fill="#76FD8C"/>
<circle cx="11.3158" cy="91.8422" r="6.31579" fill="#76FD8C"/>
<circle r="3.15789" transform="matrix(1 0 0 -1 14.4737 69.7369)" fill="white"/>
<circle r="2.36842" transform="matrix(1 0 0 -1 108.421 40.5263)" fill="white"/>
<circle cx="120.263" cy="101.316" r="3.15789" fill="#76FD8C"/>
<circle cx="104.474" cy="8.1579" r="1.57895" fill="#76FD8C"/>
<circle cx="119.474" cy="26.3158" r="2.36842" fill="#1BB934"/>
<circle cx="79.5" cy="50.5" r="28.5" fill="#DFF3E3"/>
<path fill-rule="evenodd" clip-rule="evenodd" d="M98.896 120.706C98.7663 120.603 98.6175 120.527 98.4582 120.481C98.2989 120.436 98.1322 120.423 97.9677 120.442C97.8031 120.461 97.6439 120.513 97.4991 120.593C97.3543 120.674 97.2268 120.782 97.1238 120.912C97.0208 121.042 96.9444 121.191 96.8989 121.351C96.8534 121.51 96.8398 121.677 96.8587 121.841C96.8777 122.006 96.9288 122.165 97.0093 122.31C97.0898 122.455 97.198 122.582 97.3278 122.685C97.5899 122.893 97.9238 122.987 98.2562 122.949C98.5885 122.91 98.8921 122.741 99.1001 122.478C99.308 122.216 99.4034 121.882 99.3651 121.549C99.3268 121.217 99.1581 120.913 98.896 120.706Z" fill="#BFC7D2"/>
<path d="M22.7246 11.4067L23.383 11.9287C23.5576 12.0672 23.67 12.2694 23.6954 12.491C23.7208 12.7125 23.6572 12.9352 23.5186 13.1101C23.3799 13.285 23.1776 13.3977 22.9561 13.4235C22.7346 13.4492 22.512 13.3859 22.3374 13.2475L21.679 12.7255L21.1562 13.3849C21.0176 13.5598 20.8152 13.6725 20.5937 13.6983C20.3722 13.724 20.1497 13.6607 19.9751 13.5223C19.8005 13.3839 19.6881 13.1816 19.6627 12.9601C19.6372 12.7385 19.7009 12.5158 19.8395 12.3409L20.3623 11.6815L19.7039 11.1595C19.5293 11.0211 19.417 10.8189 19.3915 10.5973C19.3661 10.3758 19.4297 10.153 19.5684 9.97816C19.707 9.80328 19.9094 9.69056 20.1309 9.66479C20.3524 9.63902 20.5749 9.70232 20.7495 9.84076L21.4079 10.3628L21.9307 9.70337C22.0694 9.52849 22.2717 9.41576 22.4932 9.39C22.7147 9.36423 22.9373 9.42753 23.1119 9.56597C23.2865 9.70441 23.3989 9.90665 23.4243 10.1282C23.4497 10.3498 23.3861 10.5725 23.2474 10.7473L22.7246 11.4067Z" fill="#BFC7D2"/>
<path d="M11.7246 25.4067L12.383 25.9287C12.5576 26.0672 12.67 26.2694 12.6954 26.491C12.7208 26.7125 12.6572 26.9352 12.5186 27.1101C12.3799 27.285 12.1776 27.3977 11.9561 27.4235C11.7346 27.4492 11.512 27.3859 11.3374 27.2475L10.679 26.7255L10.1562 27.3849C10.0176 27.5598 9.81525 27.6725 9.59374 27.6983C9.37222 27.724 9.1497 27.6607 8.97509 27.5223C8.80048 27.3839 8.68809 27.1816 8.66267 26.9601C8.63725 26.7385 8.70087 26.5158 8.83952 26.3409C8.83952 26.3409 9.40029 26.008 9.36232 25.6815C9.32441 25.3556 8.70395 25.1595 8.70395 25.1595C8.52934 25.0211 8.41697 24.8189 8.39154 24.5973C8.36612 24.3758 8.42973 24.153 8.56838 23.9782C8.70704 23.8033 8.90938 23.6906 9.13089 23.6648C9.3524 23.639 9.57494 23.7023 9.74955 23.8408L10.4079 24.3628L10.9307 23.7034C11.0694 23.5285 11.2717 23.4158 11.4932 23.39C11.7147 23.3642 11.9373 23.4275 12.1119 23.566C12.2865 23.7044 12.3989 23.9066 12.4243 24.1282C12.4497 24.3498 12.3861 24.5725 12.2474 24.7473L11.7246 25.4067Z" fill="#BFC7D2"/>
<path fill-rule="evenodd" clip-rule="evenodd" d="M81.8516 48.9827C80.039 49.0505 78.4636 49.3497 76.956 49.5191C75.4483 49.6885 74.5731 49.7506 74.1044 49.8523C73.6358 49.9539 73.7374 50.1854 73.7374 50.7219C73.7374 51.2583 73.5341 51.3938 74.0084 51.055C74.4771 50.7219 74.782 50.7219 74.782 50.7219L75.8549 53.037C75.8549 53.037 76.8939 52.5006 77.1988 51.998C77.498 51.4955 78.842 51.3261 80.6545 51.8625C82.4558 52.4046 83.8279 49.2876 81.8516 48.9827Z" fill="#202B28"/>
<path fill-rule="evenodd" clip-rule="evenodd" d="M73.8447 56.0466C74.2907 55.8772 76.7019 54.8326 76.7019 54.8326L74.7368 50.6033L69.2201 52.4384L67.6447 55.177L70.5527 58.4747C70.5527 58.4747 71.1004 56.7129 73.8447 56.0466Z" fill="#202B28"/>
<path fill-rule="evenodd" clip-rule="evenodd" d="M91.496 35.5155C93.8055 36.3512 95.3301 37.0965 93.3933 43.8386C91.4565 50.5807 87.0465 48.7342 89.2035 53.7541C91.3662 58.774 88.7122 63.1445 87.2046 66.3856C85.6969 69.6325 78.1191 72.6365 77.6956 69.3784C77.2778 66.1202 78.6273 57.0348 80.2649 52.7603C81.9024 48.4858 82.4049 47.125 82.1621 46.5151C81.9193 45.8996 80.8521 46.0239 80.9763 44.2621C81.1006 42.5004 82.3259 41.8453 83.9239 39.8803C85.5219 37.9153 86.4197 37.712 86.2955 36.481C86.1656 35.2614 89.915 34.5273 91.496 35.5155Z" fill="white"/>
<path fill-rule="evenodd" clip-rule="evenodd" d="M78.7403 59.2652C79.5252 62.0942 78.2264 67.2383 77.8368 70.6206C77.4416 74.0029 77.9949 75.2565 79.7228 78.2492C81.4507 81.2363 82.0944 83.3255 83.0656 85.2002C84.0312 87.0693 84.8104 89.4578 84.4829 90.8807C84.1611 92.2981 83.6416 93.3314 82.6139 93.8509C81.5806 94.3647 80.9933 93.9017 80.9199 94.3873C80.8465 94.8729 80.807 95.1327 81.253 95.2061C81.6991 95.2795 84.9742 95.9288 85.5671 95.223C86.16 94.5172 86.4762 93.5121 87.1312 92.9135C87.7806 92.3206 88.3791 91.948 88.4695 92.3714C88.5598 92.8006 88.6953 95.1044 88.6953 95.1044L89.068 95.1778C89.068 95.1778 88.7518 94.1727 89.1245 92.8514C89.4971 91.5301 89.8698 91.2139 89.5875 90.3217C89.3108 89.4295 89.0849 89.2037 88.8082 88.927C88.5316 88.6503 87.8766 88.7237 87.0183 86.211C86.1656 83.6982 85.2565 79.802 84.1893 77.8765C83.1221 75.951 81.5184 75.5783 83.0148 72.6929C84.5112 69.8075 85.7421 68.0457 87.1312 64.9457C88.5203 61.8457 79.7228 57.0856 78.7403 59.2652Z" fill="#202B28"/>
<path fill-rule="evenodd" clip-rule="evenodd" d="M85.5502 65.6233C85.7252 67.8763 85.3751 72.676 85.3751 74.8161C85.3751 76.9561 85.488 82.2753 85.2001 85.3979C84.9121 88.5204 85.2001 91.1179 83.8731 91.9875C82.5405 92.8571 83.0656 95.048 82.0831 94.9915C81.1006 94.935 78.266 94.9915 78.266 94.184C78.266 93.3766 79.8866 93.6645 80.4625 92.6256C81.0385 91.5866 82.7776 89.4465 81.9645 82.1059C81.1571 74.7539 83.0656 60.6486 85.5502 65.6233Z" fill="#202B28"/>
<path fill-rule="evenodd" clip-rule="evenodd" d="M52.7093 40.14C53.257 41.4105 53.2175 43.2288 53.2683 43.912C53.3192 44.5952 54.4485 45.4084 54.8663 45.8319C55.2842 46.2497 54.6856 46.4869 54.3694 46.645C54.0532 46.8031 54.4767 47.1701 54.1097 47.5371C53.7427 47.9042 54.4767 47.955 54.217 48.4293C53.9572 48.9036 54.0928 49.1521 54.2904 49.457C54.488 49.7619 54.3751 50.575 53.5337 50.7501C52.6924 50.9308 52.1277 50.7614 51.9301 51.3825C51.7325 52.0093 50.8967 53.4209 50.6991 53.6525C50.5015 53.884 45.7301 52.9353 46.0519 51.3994C46.3738 49.8636 46.6053 49.4005 45.7301 48.5592C44.8548 47.7178 43.3867 45.318 43.5109 43.624C43.6352 41.8962 44.5217 40.9136 46.114 40.2078C48.1242 39.3213 52.0882 38.6945 52.7093 40.14Z" fill="#202B28"/>
<path fill-rule="evenodd" clip-rule="evenodd" d="M51.6195 50.9308C52.6754 50.9816 54.5783 53.5734 55.1035 54.4712C55.6342 55.369 57.2153 57.6955 58.2712 57.6955C59.3271 57.6955 61.8625 57.4301 63.2346 56.6904C64.6067 55.9506 66.1934 54.8947 66.1934 54.8947C66.1934 54.8947 66.2443 56.3741 66.8259 56.8993C67.4075 57.4301 68.4634 58.5368 68.4634 58.5368C68.4634 58.5368 64.7649 60.914 62.286 61.3884C59.8015 61.8627 54.9453 63.551 52.8843 61.7046C50.8233 59.8581 49.3495 50.9308 51.6195 50.9308Z" fill="#202B28"/>
<path fill-rule="evenodd" clip-rule="evenodd" d="M51.7268 51.247C52.89 51.4559 55.4253 54.8891 56.6394 57.5317C57.8534 60.1743 59.9652 68.3563 60.7049 69.7284C61.4446 71.1006 61.422 72.7776 62.5062 73.2915C63.5904 73.7997 69.8355 77.3062 70.2816 79.1527C70.7277 80.9991 68.6893 82.5294 66.967 83.2917C65.2448 84.0596 63.7823 85.268 61.998 86.4764C60.2137 87.6847 58.2373 88.5769 57.667 89.1529C57.0911 89.7288 56.8878 90.4742 57.2097 91.2534C57.5372 92.0327 58.2486 93.529 59.4175 93.529C60.5863 93.529 61.6253 93.0716 61.9528 93.7888C62.2803 94.5059 60.976 94.8277 59.8071 94.8277C58.6383 94.8277 56.4925 94.8277 55.7754 94.0485C55.0583 93.2693 54.7364 92.9418 54.7364 92.9418C54.7364 92.9418 54.6687 95.9288 52.2688 96.1265C49.8634 96.3241 46.6787 95.0875 45.1202 94.1106C43.5617 93.1338 42.2009 92.7103 41.0941 92.5804C39.9874 92.4505 38.8976 90.7283 38.0562 90.7283C37.2093 90.7283 36.9495 91.4454 36.8874 92.027C36.8196 92.6143 39.0331 92.5465 38.9654 93.5234C38.8976 94.5002 37.469 94.5623 36.0404 94.4325C34.6118 94.3026 32.7258 93.4556 32.9856 91.9649C33.2453 90.4685 33.2453 89.0399 33.2453 89.0399C33.2453 89.0399 31.8788 88.5204 32.0087 87.0918C32.1386 85.6632 32.0708 85.2059 33.0477 85.1438C34.0246 85.076 35.0635 84.7541 36.1025 85.1438C37.1415 85.5334 38.2031 85.6068 39.0501 85.4092C39.1799 85.3809 40.9925 86.3296 41.2861 86.4481C42.3929 86.9055 45.3178 88.3906 46.6166 89.1077C47.9153 89.8248 49.022 90.1467 49.022 90.1467C49.022 90.1467 48.5646 87.4815 48.1129 84.2346C47.6555 80.9822 47.4635 80.1408 46.3568 79.3616C45.2501 78.5824 44.4708 79.5592 44.7306 76.5044C44.9903 73.4496 45.7075 71.8233 45.9672 69.943C46.2269 68.057 46.3568 67.1479 45.4477 64.8723C44.5386 62.5967 43.302 61.2359 43.6295 58.373C43.957 55.5158 44.4765 53.9517 44.9282 52.8506C45.3856 51.7439 45.4477 50.5129 45.7752 50.1233C46.0914 49.7337 48.7566 50.5129 51.7268 51.247Z" fill="#202B28"/>
<path fill-rule="evenodd" clip-rule="evenodd" d="M46.2721 49.9313C46.0801 50.3943 46.385 50.9703 48.5082 52.3594C50.6313 53.7485 52.9013 55.6005 53.8668 57.1026C54.8324 58.6046 56.2158 61.5352 56.2158 61.5352C56.2158 61.5352 56.4078 60.5357 55.0583 57.447C53.9289 54.8665 53.0142 53.1443 52.3422 52.0432C52.2688 52.0657 52.1898 52.0883 52.1164 52.0996C50.4788 52.382 47.3845 50.7106 46.2495 49.841C46.2608 49.8805 46.2664 49.9031 46.2721 49.9313Z" fill="#202B28"/>
<path fill-rule="evenodd" clip-rule="evenodd" d="M53.2909 56.3346C53.5168 56.6 53.5676 57.0404 53.7596 57.3397C53.9516 57.639 54.3355 57.8761 54.584 58.3222C54.5219 57.4301 54.313 56.3346 54.008 55.1432C53.353 53.788 52.9691 52.7151 52.5173 51.9811C52.4439 52.0036 52.2068 51.9359 52.1221 51.9528C52.0374 51.9698 51.9131 52.1335 51.8002 52.1335C51.5235 52.7659 51.1904 53.2967 51.1904 53.2967C51.1904 53.2967 52.7771 53.7259 53.1102 54.9173C53.2401 55.3803 53.2853 55.8885 53.2909 56.3346Z" fill="#202B28"/>
<path fill-rule="evenodd" clip-rule="evenodd" d="M66.137 55.3408C67.1986 54.3922 67.6447 53.9404 68.0964 52.9918C68.5425 52.0432 69.3838 51.8738 69.5476 51.5914C69.717 51.3091 70.1631 51.7044 70.6092 52.0375C71.0553 52.3707 71.1117 52.5965 70.3833 52.3707C69.6549 52.1448 69.3217 52.4836 69.0959 53.0991C68.87 53.7146 69.2088 54.8891 69.2088 54.8891C69.2088 54.8891 69.8243 54.7197 70.6092 54.443C71.394 54.1607 72.2297 53.771 71.7272 54.4995C71.2246 55.2279 69.6041 55.9506 70.835 55.9506C72.066 55.9506 74.5279 55.4481 74.5279 55.9506C74.5279 56.4532 72.7379 56.792 72.1789 57.4075C71.6199 58.023 72.2919 58.8587 71.394 59.3669C70.5019 59.8694 69.6605 60.0388 68.9886 60.7108C68.3166 61.3827 67.1421 61.7159 67.1421 61.7159L65.9676 59.7057C65.9676 59.7057 65.2957 59.316 66.4702 58.3618C67.6447 57.4131 64.4035 56.7412 66.137 55.3408Z" fill="#202B28"/>
<path fill-rule="evenodd" clip-rule="evenodd" d="M68.0513 58.1076C68.1868 58.0399 68.2771 57.9947 68.2771 57.9947L66.7751 54.7197L66.1992 55.0528C66.233 55.4481 66.3573 56.4758 66.8203 56.8993C67.176 57.2155 67.6955 57.7406 68.0513 58.1076Z" fill="#202B28"/>
<path fill-rule="evenodd" clip-rule="evenodd" d="M68.2432 62.4443C68.6667 62.2862 69.6718 61.49 69.6718 61.49L67.5543 58.5763L66.2274 59.7395C66.2274 59.7452 66.5492 62.7097 68.2432 62.4443Z" fill="#202B28"/>
<path fill-rule="evenodd" clip-rule="evenodd" d="M58.4745 63.3364C59.9257 62.6645 61.1002 62.5007 62.8337 61.0439C64.5672 59.5871 65.4086 57.91 66.3572 58.5255C67.3059 59.141 68.5368 61.4335 68.7062 62.2692C68.8756 63.1106 68.9829 63.2743 66.9727 63.9463C64.9625 64.6182 61.3261 66.9672 59.762 67.8594C58.1978 68.7629 54.8946 65.1264 58.4745 63.3364Z" fill="#202B28"/>
<path fill-rule="evenodd" clip-rule="evenodd" d="M92.2019 36.5149C90.3441 36.1366 89.2148 37.9096 89.2318 41.1452C89.2487 44.6517 88.6784 45.3858 88.5203 46.2554C88.4299 45.973 88.5429 45.9843 87.5604 44.392C86.5778 42.794 85.5558 41.9752 86.2503 41.2016C86.9449 40.4224 87.7241 39.9763 88.4187 38.9091C89.1132 37.8419 89.2769 37.0287 88.5033 37.7628C87.7241 38.4969 87.0296 39.2366 86.9053 38.542C86.7811 37.8475 86.5778 37.3958 85.9624 36.944C85.3469 36.4923 85.1831 36.7012 85.5502 37.52C85.9172 38.3388 85.4711 38.2145 85.0984 39.0333C84.7314 39.8521 83.8279 39.9311 84.2797 41.6533C84.7314 43.3699 85.3864 47.5484 86.4084 49.0617C87.4305 50.575 87.7975 50.9703 87.9726 51.3373C88.2323 51.8851 89.0059 51.6027 89.9037 50.7388C90.8015 49.8805 92.7948 46.1198 93.1618 42.602C93.5345 39.0785 94.2121 36.9271 92.2019 36.5149Z" fill="#202B28"/>
<path fill-rule="evenodd" clip-rule="evenodd" d="M78.7741 29.9027C78.345 31.3934 78.8362 32.4832 79.4404 33.0874C80.0502 33.6916 80.5641 33.9965 80.7166 34.5725C80.869 35.1484 81.0836 35.1484 81.3829 35.1484C81.6878 35.1484 82.0209 35.1823 82.179 35.4533C82.2242 35.5267 82.2807 35.6453 82.4049 35.5889C82.5348 35.5324 82.5969 35.8204 82.7098 35.8317C83.0599 35.8655 83.2858 36.1366 83.4157 36.3342C83.6585 36.6956 84.449 36.6391 84.8442 36.2156C85.2395 35.7921 85.7872 35.459 86.0583 36.0971C86.3293 36.7351 86.143 37.9774 87.0464 38.3275C87.9499 38.6776 90.2481 35.075 92.8964 36.1535C90.9991 34.595 88.2605 33.9062 87.9047 31.5233C87.4474 28.4572 85.392 26.2041 82.9018 26.2945C80.4116 26.3848 79.288 28.1297 78.7741 29.9027Z" fill="#202B28"/>
<path fill-rule="evenodd" clip-rule="evenodd" d="M79.2315 55.9845C78.5539 59.2426 77.6166 62.7661 77.0914 67.0745C76.5663 71.3829 78.6499 77.7862 79.2089 83.6022C80.2705 94.6245 71.0721 93.1733 72.9807 95.5618C73.9349 96.7532 77.1084 94.5285 78.9379 95.7199C80.7674 96.9114 81.7951 96.9904 84.257 95.878C86.7189 94.7656 87.0352 95.7199 88.7856 96.5161C90.5304 97.3123 91.3266 97.0695 93.3142 96.1999C95.3018 95.3246 96.2561 95.8837 98.9552 96.5161C101.654 97.1542 103.563 96.6742 105.071 96.0418C106.578 95.4037 107.453 96.2789 109.362 96.5951C111.271 96.9114 111.745 95.7199 109.915 94.0542C108.091 92.3884 97.0579 88.3341 93.2352 83.3086C89.4124 78.2831 85.9849 69.9487 88.7179 63.3477C91.4621 56.7525 79.6719 53.867 79.2315 55.9845Z" fill="white"/>
<path fill-rule="evenodd" clip-rule="evenodd" d="M78.904 29.7502C77.8255 30.6706 77.0688 31.4216 78.2546 32.6695C79.4404 33.9118 79.3331 34.2337 78.7402 34.4539C78.1473 34.6685 78.5595 34.8266 79.0113 35.2783C79.4573 35.7244 79.0903 35.9672 78.7741 36.1253C78.4579 36.2834 78.8814 36.4415 79.4065 36.1535C79.9373 35.8655 80.0672 35.5211 79.7002 35.1766C79.3275 34.8322 79.1694 34.7814 79.5138 34.516C79.8582 34.2506 79.83 33.7481 79.0621 32.7712C78.2941 31.7943 78.983 30.9473 79.3557 30.6311C79.7227 30.3092 79.8808 29.1686 78.904 29.7502Z" fill="#202B28"/>
<path fill-rule="evenodd" clip-rule="evenodd" d="M84.2401 28.6266C87.4022 31.5402 90.7959 28.1748 87.1086 25.0918C83.6472 22.195 81.0159 25.6508 84.2401 28.6266Z" fill="#202B28"/>
<path fill-rule="evenodd" clip-rule="evenodd" d="M85.392 26.6728C86.8037 26.8196 89.3786 27.6158 89.2769 29.338C89.1753 31.0602 89.3729 31.5515 89.9827 31.3934C90.5926 31.2353 90.3441 31.6023 90.2255 32.2235C90.107 32.8502 90.5474 32.8333 90.8975 32.7881C91.2476 32.7373 90.9879 33.11 90.3893 33.1664C89.7908 33.2229 89.4858 33.014 89.5988 32.5227C89.7117 32.0315 89.8133 31.896 89.3786 31.8734C88.9438 31.8508 88.4525 31.2918 88.6106 29.818C88.7687 28.3442 86.8319 28.203 86.3463 28.1522C85.8663 28.107 84.2571 26.7462 85.392 26.6728Z" fill="#202B28"/>
<path fill-rule="evenodd" clip-rule="evenodd" d="M86.0753 25.8371C87.4305 26.2606 89.0793 27.3335 88.4751 28.9428C87.8709 30.5521 88.0968 30.8062 88.7235 30.7723C89.3503 30.7384 89.0341 31.0433 88.7969 31.6362C88.5598 32.2235 88.9946 32.2969 89.3447 32.3195C89.7004 32.342 89.3729 32.6526 88.7744 32.5905C88.1758 32.5284 87.9161 32.2686 88.125 31.8056C88.3283 31.3426 88.4581 31.2353 88.0346 31.1224C87.6168 31.0151 87.1425 29.9874 87.4643 28.7903C87.7862 27.5876 88.0008 28.1579 87.5321 28.0111C87.0747 27.8643 84.9459 25.6847 86.0753 25.8371Z" fill="#202B28"/>
<path fill-rule="evenodd" clip-rule="evenodd" d="M84.9742 25.6621C86.0188 24.9845 88.0008 25.4983 88.5542 26.9608C89.1132 28.4289 89.5762 29.6881 90.1578 29.4397C90.7394 29.1912 90.5474 29.5921 90.5248 30.2245C90.5022 30.8626 90.937 30.7779 91.2758 30.6819C91.6146 30.5803 91.417 30.9868 90.8298 31.1337C90.2425 31.2805 89.915 31.1224 89.9489 30.6198C89.9828 30.1173 90.0618 29.9705 89.6327 30.01C89.2035 30.0495 88.4074 29.2477 88.2944 28.0111C88.1871 26.7744 86.2899 27.1584 85.8043 27.181C85.3243 27.2036 83.8618 25.9105 84.9742 25.6621Z" fill="#202B28"/>
<path fill-rule="evenodd" clip-rule="evenodd" d="M73.7769 50.5299C73.7148 51.0776 73.4155 51.806 73.7487 51.806C74.0818 51.806 74.2625 50.8687 74.415 50.6541C74.5675 50.4395 73.8673 50.1007 73.7769 50.5299Z" fill="#202B28"/>
<path d="M84.8923 26.1261C84.9451 25.8982 84.8598 25.6838 84.7018 25.6472C84.5439 25.6106 84.373 25.7656 84.3202 25.9935C84.2674 26.2213 84.3526 26.4357 84.5106 26.4724C84.6686 26.509 84.8395 26.3539 84.8923 26.1261Z" fill="#202B28"/>
<path d="M84.2338 26.0404C84.0334 25.9199 83.8031 25.9348 83.7196 26.0738C83.636 26.2128 83.7307 26.4231 83.9312 26.5437C84.1316 26.6642 84.3619 26.6492 84.4454 26.5103C84.529 26.3713 84.4342 26.1609 84.2338 26.0404Z" fill="#202B28"/>
<path d="M83.9175 26.6551C83.7409 26.8085 83.6839 27.0321 83.7903 27.1545C83.8966 27.277 84.126 27.2519 84.3026 27.0985C84.4792 26.9452 84.5362 26.7216 84.4298 26.5991C84.3235 26.4767 84.0941 26.5017 83.9175 26.6551Z" fill="#202B28"/>
<path d="M84.4238 27.134C84.5151 27.3494 84.7102 27.4726 84.8595 27.4093C85.0088 27.346 85.0558 27.1201 84.9645 26.9047C84.8732 26.6894 84.6781 26.5662 84.5288 26.6295C84.3795 26.6928 84.3325 26.9187 84.4238 27.134Z" fill="#202B28"/>
<path d="M85.0218 26.8093C85.2548 26.7891 85.4324 26.6417 85.4184 26.4802C85.4044 26.3186 85.2041 26.204 84.9711 26.2242C84.738 26.2444 84.5605 26.3918 84.5745 26.5534C84.5885 26.7149 84.7888 26.8295 85.0218 26.8093Z" fill="#202B28"/>
<path d="M84.6312 26.4123C84.6487 26.3363 84.6186 26.2645 84.5639 26.2518C84.5092 26.2392 84.4507 26.2905 84.4331 26.3665C84.4155 26.4424 84.4456 26.5143 84.5003 26.5269C84.555 26.5395 84.6136 26.4882 84.6312 26.4123Z" fill="#202B28"/>
<path d="M84.406 26.3847C84.3392 26.3444 84.2616 26.3507 84.2326 26.3988C84.2036 26.4469 84.2342 26.5185 84.3009 26.5588C84.3677 26.599 84.4453 26.5927 84.4743 26.5447C84.5033 26.4966 84.4727 26.425 84.406 26.3847Z" fill="#202B28"/>
<path d="M84.3104 26.5831C84.2516 26.6343 84.2321 26.7082 84.2669 26.7482C84.3017 26.7882 84.3776 26.7791 84.4364 26.7279C84.4952 26.6767 84.5147 26.6028 84.4799 26.5628C84.4451 26.5228 84.3692 26.5319 84.3104 26.5831Z" fill="#202B28"/>
<path d="M84.4645 26.7337C84.4948 26.8056 84.5612 26.8462 84.613 26.8244C84.6647 26.8027 84.6821 26.7268 84.6519 26.6549C84.6217 26.583 84.5552 26.5424 84.5035 26.5642C84.4517 26.586 84.4343 26.6619 84.4645 26.7337Z" fill="#202B28"/>
<path d="M84.6709 26.6299C84.7486 26.623 84.8077 26.5746 84.8031 26.5218C84.7984 26.469 84.7316 26.4318 84.654 26.4387C84.5763 26.4455 84.5172 26.4939 84.5218 26.5467C84.5265 26.5995 84.5932 26.6368 84.6709 26.6299Z" fill="#202B28"/>
<path d="M84.4942 26.8366C84.6533 26.8366 84.7822 26.7076 84.7822 26.5486C84.7822 26.3895 84.6533 26.2606 84.4942 26.2606C84.3352 26.2606 84.2062 26.3895 84.2062 26.5486C84.2062 26.7076 84.3352 26.8366 84.4942 26.8366Z" fill="#202B28"/>
<path d="M83.123 26.0093C83.0693 25.8967 82.9619 25.8359 82.8831 25.8735C82.8043 25.9111 82.7839 26.0329 82.8377 26.1455C82.8914 26.258 82.9988 26.3188 83.0776 26.2812C83.1564 26.2436 83.1768 26.1219 83.123 26.0093Z" fill="#202B28"/>
<path d="M82.8027 26.1951C82.6759 26.2118 82.5824 26.2954 82.5937 26.382C82.6051 26.4686 82.7171 26.5253 82.8439 26.5086C82.9707 26.492 83.0642 26.4083 83.0528 26.3217C83.0415 26.2352 82.9295 26.1785 82.8027 26.1951Z" fill="#202B28"/>
<path d="M82.8789 26.553C82.8562 26.6757 82.9074 26.7879 82.9933 26.8038C83.0792 26.8197 83.1672 26.7331 83.1898 26.6104C83.2125 26.4877 83.1612 26.3754 83.0754 26.3596C82.9895 26.3437 82.9015 26.4303 82.8789 26.553Z" fill="#202B28"/>
<path d="M83.2392 26.5864C83.3489 26.6458 83.4715 26.6316 83.5131 26.5548C83.5546 26.478 83.4993 26.3676 83.3896 26.3083C83.2799 26.2489 83.1572 26.2631 83.1157 26.3399C83.0742 26.4167 83.1295 26.5271 83.2392 26.5864Z" fill="#202B28"/>
<path d="M83.3968 26.2514C83.4872 26.1654 83.5117 26.0445 83.4516 25.9812C83.3915 25.9179 83.2694 25.9362 83.1789 26.0221C83.0885 26.108 83.064 26.229 83.1241 26.2923C83.1842 26.3556 83.3063 26.3373 83.3968 26.2514Z" fill="#202B28"/>
<path d="M83.0933 26.2223C83.0747 26.1828 83.039 26.1605 83.0136 26.1725C82.9882 26.1845 82.9828 26.2263 83.0015 26.2657C83.0201 26.3052 83.0558 26.3275 83.0812 26.3155C83.1066 26.3034 83.112 26.2617 83.0933 26.2223Z" fill="#202B28"/>
<path d="M83.0075 26.2791C82.9673 26.2845 82.9378 26.3114 82.9415 26.3392C82.9452 26.367 82.9807 26.3852 83.0209 26.3799C83.0611 26.3745 83.0907 26.3476 83.087 26.3198C83.0833 26.292 83.0477 26.2738 83.0075 26.2791Z" fill="#202B28"/>
<path d="M83.0227 26.393C83.0148 26.4359 83.0307 26.4749 83.0583 26.48C83.0859 26.4851 83.1147 26.4544 83.1226 26.4115C83.1306 26.3686 83.1147 26.3296 83.0871 26.3245C83.0595 26.3194 83.0306 26.3501 83.0227 26.393Z" fill="#202B28"/>
<path d="M83.1324 26.4046C83.168 26.4241 83.2078 26.4198 83.2212 26.3952C83.2347 26.3706 83.2168 26.3349 83.1812 26.3154C83.1456 26.296 83.1059 26.3002 83.0924 26.3248C83.0789 26.3494 83.0969 26.3852 83.1324 26.4046Z" fill="#202B28"/>
<path d="M83.1814 26.3049C83.213 26.2749 83.223 26.234 83.2037 26.2136C83.1844 26.1933 83.143 26.2012 83.1114 26.2312C83.0797 26.2613 83.0698 26.3022 83.0891 26.3225C83.1084 26.3429 83.1497 26.335 83.1814 26.3049Z" fill="#202B28"/>
<path d="M83.0882 26.4752C83.1755 26.4752 83.2463 26.4044 83.2463 26.3171C83.2463 26.2298 83.1755 26.159 83.0882 26.159C83.0009 26.159 82.9301 26.2298 82.9301 26.3171C82.9301 26.4044 83.0009 26.4752 83.0882 26.4752Z" fill="#202B28"/>
<path d="M85.8361 26.9792C85.7702 26.8414 85.6392 26.7667 85.5435 26.8125C85.4479 26.8582 85.4238 27.0071 85.4898 27.1449C85.5557 27.2828 85.6867 27.3574 85.7824 27.3117C85.878 27.2659 85.9021 27.1171 85.8361 26.9792Z" fill="#202B28"/>
<path d="M85.4595 27.2013C85.308 27.2213 85.1965 27.3227 85.2104 27.4279C85.2242 27.533 85.3583 27.602 85.5098 27.582C85.6613 27.562 85.7729 27.4605 85.759 27.3554C85.7451 27.2503 85.611 27.1813 85.4595 27.2013Z" fill="#202B28"/>
<path d="M85.5681 27.6355C85.5402 27.7857 85.602 27.9232 85.7063 27.9426C85.8105 27.9619 85.9176 27.8559 85.9456 27.7057C85.9735 27.5554 85.9116 27.4179 85.8074 27.3986C85.7032 27.3792 85.596 27.4852 85.5681 27.6355Z" fill="#202B28"/>
<path d="M85.9974 27.6867C86.1318 27.7594 86.2817 27.7427 86.3321 27.6495C86.3826 27.5562 86.3145 27.4216 86.1801 27.3489C86.0457 27.2762 85.8958 27.2929 85.8454 27.3862C85.7949 27.4794 85.863 27.614 85.9974 27.6867Z" fill="#202B28"/>
<path d="M86.1649 27.2715C86.2758 27.1663 86.3065 27.0187 86.2336 26.9418C86.1606 26.8648 86.0116 26.8877 85.9007 26.9928C85.7898 27.098 85.7591 27.2456 85.8321 27.3225C85.905 27.3995 86.0541 27.3766 86.1649 27.2715Z" fill="#202B28"/>
<path d="M85.821 27.2249C85.7995 27.1799 85.7569 27.1554 85.726 27.1702C85.695 27.185 85.6874 27.2335 85.7089 27.2785C85.7305 27.3236 85.773 27.348 85.804 27.3332C85.8349 27.3184 85.8425 27.2699 85.821 27.2249Z" fill="#202B28"/>
<path d="M85.697 27.2997C85.6475 27.3061 85.611 27.3389 85.6154 27.3729C85.6198 27.407 85.6635 27.4293 85.713 27.4229C85.7624 27.4165 85.799 27.3838 85.7946 27.3497C85.7902 27.3157 85.7465 27.2933 85.697 27.2997Z" fill="#202B28"/>
<path d="M85.7199 27.4461C85.7108 27.4952 85.7307 27.54 85.7644 27.5463C85.7981 27.5526 85.8329 27.518 85.8421 27.4689C85.8512 27.4199 85.8313 27.375 85.7976 27.3687C85.7639 27.3624 85.7291 27.3971 85.7199 27.4461Z" fill="#202B28"/>
<path d="M85.8789 27.4675C85.9228 27.4912 85.9716 27.486 85.9879 27.4559C86.0042 27.4257 85.9819 27.382 85.938 27.3582C85.8941 27.3345 85.8453 27.3397 85.829 27.3699C85.8126 27.4001 85.835 27.4438 85.8789 27.4675Z" fill="#202B28"/>
<path d="M85.9208 27.3295C85.9571 27.2952 85.9674 27.2472 85.9438 27.2223C85.9203 27.1973 85.8718 27.2049 85.8355 27.2392C85.7992 27.2734 85.7889 27.3214 85.8125 27.3463C85.836 27.3713 85.8845 27.3637 85.9208 27.3295Z" fill="#202B28"/>
<path d="M85.8043 27.5424C85.9072 27.5424 85.9906 27.459 85.9906 27.3561C85.9906 27.2532 85.9072 27.1697 85.8043 27.1697C85.7014 27.1697 85.6179 27.2532 85.6179 27.3561C85.6179 27.459 85.7014 27.5424 85.8043 27.5424Z" fill="#202B28"/>
<path d="M86.4944 27.9829C86.4407 27.8703 86.3334 27.8095 86.2545 27.847C86.1757 27.8845 86.1553 28.0063 86.2089 28.1189C86.2625 28.2315 86.3699 28.2924 86.4488 28.2548C86.5276 28.2173 86.548 28.0956 86.4944 27.9829Z" fill="#202B28"/>
<path d="M86.1878 28.1602C86.0641 28.1765 85.9731 28.2599 85.9846 28.3465C85.996 28.4331 86.1055 28.49 86.2292 28.4737C86.3529 28.4573 86.4439 28.3739 86.4324 28.2874C86.421 28.2008 86.3115 28.1439 86.1878 28.1602Z" fill="#202B28"/>
<path d="M86.269 28.5232C86.2464 28.6458 86.2978 28.7581 86.3836 28.7739C86.4695 28.7897 86.5574 28.7031 86.58 28.5804C86.6026 28.4577 86.5512 28.3454 86.4654 28.3296C86.3795 28.3138 86.2916 28.4005 86.269 28.5232Z" fill="#202B28"/>
<path d="M86.6324 28.54C86.742 28.5997 86.8647 28.5858 86.9064 28.5091C86.9481 28.4324 86.8932 28.3219 86.7836 28.2623C86.674 28.2027 86.5514 28.2165 86.5096 28.2932C86.4679 28.3699 86.5229 28.4804 86.6324 28.54Z" fill="#202B28"/>
<path d="M86.7683 28.2313C86.8587 28.1454 86.8833 28.0244 86.8232 27.9611C86.763 27.8978 86.641 27.9161 86.5505 28.002C86.4601 28.0879 86.4355 28.2089 86.4957 28.2722C86.5558 28.3355 86.6779 28.3172 86.7683 28.2313Z" fill="#202B28"/>
<path d="M86.481 28.1847C86.4623 28.1453 86.4266 28.123 86.4012 28.135C86.3759 28.1471 86.3705 28.1888 86.3892 28.2283C86.4079 28.2677 86.4436 28.2899 86.469 28.2779C86.4943 28.2659 86.4997 28.2242 86.481 28.1847Z" fill="#202B28"/>
<path d="M86.3813 28.2532C86.338 28.2589 86.3059 28.2861 86.3095 28.3139C86.3132 28.3417 86.3512 28.3597 86.3945 28.354C86.4378 28.3484 86.4699 28.3212 86.4663 28.2934C86.4627 28.2655 86.4246 28.2476 86.3813 28.2532Z" fill="#202B28"/>
<path d="M86.409 28.3611C86.401 28.4041 86.417 28.443 86.4446 28.4481C86.4722 28.4532 86.501 28.4226 86.5089 28.3796C86.5169 28.3367 86.5009 28.2978 86.4733 28.2927C86.4457 28.2875 86.4169 28.3182 86.409 28.3611Z" fill="#202B28"/>
<path d="M86.5184 28.3693C86.5568 28.3901 86.5988 28.3869 86.6121 28.3622C86.6255 28.3375 86.6052 28.3007 86.5668 28.2799C86.5284 28.2591 86.4864 28.2623 86.4731 28.287C86.4597 28.3117 86.48 28.3485 86.5184 28.3693Z" fill="#202B28"/>
<path d="M86.5697 28.2583C86.6014 28.2282 86.6115 28.1873 86.5921 28.167C86.5728 28.1466 86.5315 28.1545 86.4998 28.1845C86.4681 28.2145 86.4581 28.2554 86.4774 28.2758C86.4967 28.2961 86.538 28.2883 86.5697 28.2583Z" fill="#202B28"/>
<path d="M86.4705 28.4459C86.5579 28.4459 86.6286 28.3751 86.6286 28.2878C86.6286 28.2004 86.5579 28.1297 86.4705 28.1297C86.3832 28.1297 86.3124 28.2004 86.3124 28.2878C86.3124 28.3751 86.3832 28.4459 86.4705 28.4459Z" fill="#202B28"/>
</svg>
