<svg width="130" height="130" viewBox="0 0 130 130" fill="none" xmlns="http://www.w3.org/2000/svg">
<circle cx="66.5789" cy="66.5789" r="58.4211" fill="#CEECD3"/>
<circle cx="113.947" cy="11.3158" r="6.31579" fill="#76FD8C"/>
<circle cx="11.3158" cy="91.8422" r="6.31579" fill="#76FD8C"/>
<circle r="3.15789" transform="matrix(1 0 0 -1 14.4737 69.7369)" fill="white"/>
<circle r="2.36842" transform="matrix(1 0 0 -1 108.421 40.5263)" fill="white"/>
<circle cx="120.263" cy="101.316" r="3.15789" fill="#76FD8C"/>
<circle cx="104.474" cy="8.1579" r="1.57895" fill="#76FD8C"/>
<circle cx="119.474" cy="26.3158" r="2.36842" fill="#1BB934"/>
<circle cx="79.5" cy="50.5" r="28.5" fill="#DFF3E3"/>
<path fill-rule="evenodd" clip-rule="evenodd" d="M98.896 120.706C98.7663 120.603 98.6175 120.527 98.4582 120.481C98.2989 120.436 98.1322 120.423 97.9677 120.442C97.8031 120.461 97.6439 120.513 97.4991 120.593C97.3543 120.674 97.2268 120.782 97.1238 120.912C97.0208 121.042 96.9444 121.191 96.8989 121.351C96.8534 121.51 96.8398 121.677 96.8587 121.842C96.8777 122.006 96.9288 122.165 97.0093 122.31C97.0898 122.455 97.198 122.582 97.3278 122.685C97.5899 122.893 97.9238 122.988 98.2562 122.949C98.5885 122.91 98.8921 122.741 99.1001 122.478C99.308 122.216 99.4034 121.882 99.3651 121.549C99.3268 121.217 99.1581 120.913 98.896 120.706Z" fill="#BFC7D2"/>
<path d="M22.7246 11.4067L23.383 11.9287C23.5576 12.0672 23.67 12.2694 23.6954 12.491C23.7208 12.7125 23.6572 12.9352 23.5186 13.1101C23.3799 13.285 23.1776 13.3977 22.9561 13.4235C22.7346 13.4492 22.512 13.3859 22.3374 13.2475L21.679 12.7255L21.1562 13.3849C21.0176 13.5598 20.8152 13.6725 20.5937 13.6983C20.3722 13.724 20.1497 13.6607 19.9751 13.5223C19.8005 13.3839 19.6881 13.1816 19.6627 12.9601C19.6372 12.7385 19.7009 12.5158 19.8395 12.3409L20.3623 11.6815L19.7039 11.1595C19.5293 11.0211 19.417 10.8189 19.3915 10.5973C19.3661 10.3758 19.4297 10.153 19.5684 9.97816C19.707 9.80328 19.9094 9.69056 20.1309 9.66479C20.3524 9.63902 20.5749 9.70232 20.7495 9.84076L21.4079 10.3628L21.9307 9.70337C22.0694 9.52849 22.2717 9.41576 22.4932 9.39C22.7147 9.36423 22.9373 9.42753 23.1119 9.56597C23.2865 9.70441 23.3989 9.90665 23.4243 10.1282C23.4497 10.3498 23.3861 10.5725 23.2474 10.7473L22.7246 11.4067Z" fill="#BFC7D2"/>
<path d="M11.7246 25.4067L12.383 25.9287C12.5576 26.0672 12.67 26.2694 12.6954 26.491C12.7208 26.7125 12.6572 26.9352 12.5186 27.1101C12.3799 27.285 12.1776 27.3977 11.9561 27.4235C11.7346 27.4492 11.512 27.3859 11.3374 27.2475L10.679 26.7255L10.1562 27.3849C10.0176 27.5598 9.81525 27.6725 9.59374 27.6983C9.37222 27.724 9.1497 27.6607 8.97509 27.5223C8.80048 27.3839 8.68809 27.1816 8.66267 26.9601C8.63725 26.7385 8.70087 26.5158 8.83952 26.3409C8.83952 26.3409 9.40029 26.008 9.36232 25.6815C9.32441 25.3556 8.70395 25.1595 8.70395 25.1595C8.52934 25.0211 8.41697 24.8189 8.39154 24.5973C8.36612 24.3758 8.42973 24.153 8.56838 23.9782C8.70704 23.8033 8.90938 23.6906 9.13089 23.6648C9.3524 23.639 9.57494 23.7023 9.74955 23.8408L10.4079 24.3628L10.9307 23.7034C11.0694 23.5285 11.2717 23.4158 11.4932 23.39C11.7147 23.3642 11.9373 23.4275 12.1119 23.566C12.2865 23.7044 12.3989 23.9066 12.4243 24.1282C12.4497 24.3498 12.3861 24.5725 12.2474 24.7473L11.7246 25.4067Z" fill="#BFC7D2"/>
<path d="M43.7239 65.6694V60.9049H54.1216V65.6694H56.8121V60.5967C56.8121 59.2794 55.7471 58.2144 54.4299 58.2144H43.4156C42.0984 58.2144 41.0334 59.2794 41.0334 60.5967V65.6694H43.7239Z" fill="#EC524F"/>
<path d="M66.8454 90.6687C66.8454 91.4534 66.2288 92.07 65.4441 92.07H32.4013C31.6166 92.07 31 91.4534 31 90.6687V66.314C31 65.5293 31.6166 64.9127 32.4013 64.9127H65.4441C66.2288 64.9127 66.8454 65.5293 66.8454 66.314V90.6687V90.6687Z" fill="#00B9C5"/>
<path d="M40.8091 71.1905C41.0613 72.8721 41.6779 74.4416 42.7429 75.7588C44.0881 77.4404 45.8538 78.7015 47.8156 79.5703C51.5431 81.1678 55.747 81.2799 59.6987 80.6914C61.7726 80.3831 63.8745 79.8506 65.7803 78.9538V66.7904C65.7803 66.1739 65.2759 65.6694 64.6593 65.6694H41.2575C40.6969 67.4631 40.5568 69.4249 40.8091 71.1905Z" fill="white" fill-opacity="0.36"/>
<path d="M64.8556 83.0736C62.7536 83.8023 60.5676 84.2507 58.3535 84.5029C55.9993 84.7832 53.561 84.8953 51.1788 84.6711C46.05 84.1666 40.7811 82.1767 37.5301 78.0289C34.9237 74.7218 34.251 70.3497 35.1198 66.2859C35.2039 65.8375 35.344 65.3611 35.4842 64.9407H32.4013C31.6166 64.9407 31 65.5573 31 66.342V90.6967C31 91.4814 31.6166 92.098 32.4013 92.098H65.4441C66.2288 92.098 66.8454 91.4814 66.8454 90.6967V82.2889C66.2008 82.5691 65.5282 82.8213 64.8556 83.0736Z" fill="#005B61" fill-opacity="0.59"/>
<path d="M48.9367 87.9221C54.1374 87.9221 58.3534 83.7061 58.3534 78.5053C58.3534 73.3046 54.1374 69.0886 48.9367 69.0886C43.7359 69.0886 39.5199 73.3046 39.5199 78.5053C39.5199 83.7061 43.7359 87.9221 48.9367 87.9221Z" fill="#131313" fill-opacity="0.41"/>
<path d="M48.937 86.745C53.4877 86.745 57.1767 83.056 57.1767 78.5053C57.1767 73.9547 53.4877 70.2657 48.937 70.2657C44.3864 70.2657 40.6973 73.9547 40.6973 78.5053C40.6973 83.056 44.3864 86.745 48.937 86.745Z" fill="#23515E"/>
<path d="M53.6171 76.2072H50.226V72.2275H47.6195V76.2072H44.2564V78.8416H47.6195V84.7551H50.226V78.8416H53.6171V76.2072Z" fill="white"/>
<path d="M48.0679 71.6389C47.087 72.732 46.4144 74.0772 46.4704 75.5626C46.5265 78.0849 48.7966 80.1589 51.347 80.1028C53.533 80.0748 55.2706 78.6735 55.7751 76.5435C55.8031 76.4314 55.8311 76.3473 55.8311 76.2352C54.9343 73.4887 52.3559 71.4988 49.3011 71.4988C48.8807 71.5268 48.4603 71.5829 48.0679 71.6389Z" fill="white" fill-opacity="0.23"/>
<path d="M50.5062 81.5322C47.2271 81.1118 44.3404 78.3092 44.4806 74.862C44.5366 73.4046 45.0411 72.0594 45.7978 70.8542C42.799 72.0874 40.669 75.0301 40.669 78.4773C40.669 83.0176 44.3685 86.717 48.9087 86.717C53.4489 86.717 57.1484 83.0176 57.1484 78.4773C57.1484 78.3372 57.1484 78.169 57.1484 78.0289C55.9713 80.5232 53.2527 81.8965 50.5062 81.5322Z" fill="black" fill-opacity="0.17"/>
<path d="M55.1584 66.9586C55.4948 66.9026 55.8311 66.8465 56.1674 66.8185C56.5037 66.7904 56.84 66.7344 57.1763 66.7064C57.849 66.6503 58.5216 66.5943 59.2222 66.5662C59.8949 66.5382 60.5675 66.5102 61.2681 66.5102C61.9408 66.5102 62.6134 66.5102 63.314 66.5382H63.3421C63.4822 66.5662 63.5663 66.5943 63.6784 66.6223C63.7905 66.6503 63.8746 66.7064 63.9867 66.7344C64.0988 66.7905 64.1829 66.8465 64.2669 66.9026C64.351 66.9586 64.4631 67.0147 64.5472 67.0987C64.6313 67.1828 64.7154 67.2389 64.7994 67.3229C64.8835 67.407 64.9396 67.4911 65.0236 67.5752C65.0797 67.6593 65.1638 67.7433 65.1918 67.8554C65.2478 67.9675 65.2759 68.0516 65.3319 68.1637L65.416 68.472C65.444 68.5841 65.444 68.6682 65.4721 68.7803C65.5001 68.8924 65.5001 68.9765 65.5001 69.0886V69.3969C65.5001 69.509 65.4721 69.5931 65.4721 69.7052L65.416 69.9854C65.36 70.1816 65.3039 70.3778 65.2478 70.546C65.2478 70.3498 65.2198 70.1536 65.2198 69.9574L65.1918 69.6771C65.1638 69.5931 65.1918 69.481 65.1638 69.3969L65.1077 69.1166C65.0797 69.0325 65.0517 68.9485 65.0236 68.8644C64.9956 68.7803 64.9676 68.6962 64.9396 68.6122L64.8275 68.3879C64.7714 68.3039 64.7154 68.2478 64.6873 68.1918C64.6593 68.1077 64.5752 68.0516 64.5192 67.9956C64.4631 67.9395 64.4071 67.8835 64.351 67.8274C64.295 67.7714 64.2109 67.7433 64.1548 67.6873C64.0988 67.6312 64.0147 67.6032 63.9306 67.5752C63.8465 67.5472 63.7905 67.5191 63.7064 67.4911C63.6223 67.4631 63.5663 67.435 63.4822 67.407C63.3981 67.379 63.314 67.379 63.258 67.379H63.314C62.6414 67.407 61.9688 67.407 61.2681 67.407C60.5955 67.407 59.9229 67.379 59.2222 67.351C58.5496 67.323 57.877 67.2949 57.1763 67.2108C56.84 67.1828 56.5037 67.1548 56.1674 67.0987C55.8311 67.0707 55.4948 67.0427 55.1584 66.9586Z" fill="white" fill-opacity="0.4"/>
<path d="M81.7833 68.9765H71.4977V76.7117H81.7833V68.9765Z" fill="#ECB79E"/>
<path d="M74.3564 74.918C76.0099 74.8339 77.6074 74.1613 78.8966 73.0963C79.9336 72.2275 80.7744 71.2185 81.391 70.0414C81.5031 69.8172 81.6432 69.537 81.7833 69.2567V68.9765H71.4977V74.7498C72.4506 74.918 73.4035 74.974 74.3564 74.918Z" fill="#D1D3D4"/>
<path d="M76.2622 36.326C69.2837 36.4662 62.6415 41.9873 63.7065 51.3761C64.3511 57.0373 64.8275 57.8781 66.5091 64.3802C67.6862 68.8924 73.88 71.2466 76.2622 71.4148C78.6444 71.2466 84.8382 68.8924 86.0153 64.3802C87.6969 57.8781 88.2013 57.0373 88.8179 51.3761C89.8549 41.9873 83.2407 36.4662 76.2622 36.326Z" fill="#ECB79E"/>
<path d="M88.005 53.8984L87.2764 59.5037C90.1631 60.7648 90.6115 54.1787 90.6115 54.1787C89.9388 52.5251 88.005 53.8984 88.005 53.8984Z" fill="#ECB79E"/>
<path d="M61.8007 54.1787C61.8007 54.1787 62.2491 60.7929 65.1358 59.5037L64.4071 53.8984C64.4071 53.8984 62.4733 52.5251 61.8007 54.1787Z" fill="#ECB79E"/>
<path d="M81.7833 74.4696L95.432 78.3092C95.432 78.3092 100.084 79.0659 101.29 83.5781L103.335 91.7337H76.7947H76.5705H50.0017L52.0476 83.5781C53.2247 79.0659 57.9051 78.3092 57.9051 78.3092L71.5258 74.4696H81.7833Z" fill="#ECB79E"/>
<path d="M81.7833 74.4696L95.432 78.3092C95.432 78.3092 100.084 79.0659 101.29 83.5781L103.335 91.7337H76.7947H76.5705H50.0017L52.0476 83.5781C53.2247 79.0659 57.9051 78.3092 57.9051 78.3092L71.5258 74.4696L76.6826 85.1756L81.7833 74.4696Z" fill="#00BBC0"/>
<path d="M69.4799 91.7617H50.0017L52.0476 83.5781C53.2247 79.0659 57.9051 78.3091 57.9051 78.3091L69.9283 74.946L69.4799 91.7617Z" fill="white" stroke="#A7A9AC" stroke-width="2.1153" stroke-miterlimit="10"/>
<path d="M84.1375 75.1422L95.4321 78.3092C95.4321 78.3092 100.084 79.0659 101.29 83.5781L103.335 91.7337H83.8853L84.1375 75.1422Z" fill="white" stroke="#A7A9AC" stroke-width="2.1153" stroke-miterlimit="10"/>
<path d="M66.0887 82.6252C66.0887 82.6252 70.5729 79.3461 74.8328 81.5602C74.8609 81.5602 72.2825 75.2263 66.0887 82.6252Z" fill="#A7A9AC"/>
<path d="M75.2252 82.2048C75.2252 82.2048 73.1232 76.9359 66.0887 82.6252L68.611 75.3104L71.5258 74.4976L75.2252 82.2048Z" fill="#00A7AB"/>
<path d="M87.2202 82.6252C87.2202 82.6252 81.7832 78.8417 78.2799 81.7844C78.2799 81.7844 81.0265 75.2263 87.2202 82.6252Z" fill="#A7A9AC"/>
<path d="M78.28 81.7844C78.28 81.7844 80.1857 76.9639 87.2203 82.6252L84.726 75.3104L81.7832 74.4976L78.28 81.7844Z" fill="#00A7AB"/>
<path d="M68.7231 41.2587C68.7231 41.2587 67.2378 46.8359 77.5514 49.7786C77.5514 49.7786 85.4828 51.3481 88.7618 49.2741C88.7618 49.2741 85.707 36.5783 68.7231 41.2587Z" fill="#BCBEC0"/>
<path d="M90.5835 42.2956C90.4434 45.2103 90.6115 48.6295 89.1261 53.6742C88.958 54.2347 88.3414 55.8883 88.3414 55.8883L87.8089 55.9163V52.2729C87.4726 47.06 87.1363 47.032 87.1363 47.032C76.8227 49.8907 70.4888 44.6498 70.4888 44.6498C69.8722 44.0893 69.3957 43.5007 69.0594 42.9402C68.1906 43.6128 67.3779 44.5657 66.6772 45.883C66.6772 45.883 65.0797 48.5174 65.2759 52.9736V56.6169L64.7154 56.3927L63.9587 53.5061C62.9778 47.7887 63.5383 40.7261 63.5383 40.7261C63.5383 40.7261 64.5752 34.5324 72.0862 33.1591C72.0862 33.1591 85.3706 31.9259 88.9299 36.326C88.9299 36.326 90.7516 38.7083 90.5835 42.2956Z" fill="#440D02"/>
<path d="M68.1627 37.7554C68.1627 37.7554 68.1066 38.1477 68.0786 38.8204C68.0786 39.493 68.1346 40.4459 68.4709 41.5389C68.6391 42.0714 68.8913 42.6319 69.2277 43.1644C69.564 43.6969 70.0124 44.2014 70.5169 44.6498C70.7691 44.874 71.0774 45.0702 71.3576 45.2664C71.4978 45.3504 71.6659 45.4345 71.8341 45.5186L72.0583 45.6587L72.3105 45.7708C72.4787 45.8549 72.6468 45.939 72.815 45.995L73.3475 46.1912C73.6838 46.3314 74.0481 46.4154 74.4125 46.5275C74.7768 46.6396 75.1412 46.6957 75.5055 46.7798C75.8698 46.8639 76.2342 46.8919 76.6265 46.9479C77.3552 47.032 78.0839 47.1161 78.8126 47.1441C79.5132 47.2002 80.2139 47.1721 80.8865 47.2002C81.5311 47.2002 82.1757 47.1721 82.7362 47.1721C83.3248 47.1441 83.8293 47.1161 84.3057 47.0881C84.7821 47.06 85.1745 47.032 85.5108 47.004C86.1835 46.9479 86.5758 46.9479 86.5758 46.9479C86.5758 46.9479 86.2115 47.032 85.5388 47.2002C85.2025 47.2562 84.8102 47.3683 84.3337 47.4524C83.8573 47.5365 83.3528 47.6206 82.7643 47.7046C82.1757 47.7607 81.5591 47.8448 80.8865 47.9008C80.2139 47.9289 79.5132 47.9849 78.7846 47.9849C78.4202 47.9849 78.0559 47.9849 77.6635 47.9569C77.2992 47.9288 76.9068 47.9288 76.5144 47.8728C76.1221 47.8167 75.7297 47.7887 75.3654 47.7046C74.973 47.6206 74.5806 47.5645 74.2163 47.4524C73.8239 47.3403 73.4596 47.2282 73.0672 47.0881C72.871 47.004 72.7029 46.9479 72.5067 46.8639C72.3385 46.7798 72.1424 46.6957 71.9742 46.6116L71.6939 46.4715C71.6099 46.4154 71.5258 46.3594 71.4417 46.3314C71.2736 46.2193 71.1054 46.1352 70.9372 46.0231C70.629 45.7708 70.3207 45.5747 70.0404 45.2944C69.4799 44.7899 69.0315 44.1734 68.6952 43.5568C68.3588 42.9402 68.1627 42.3236 68.0225 41.7351C67.8824 41.1465 67.8544 40.586 67.8544 40.1096C67.8544 39.6331 67.9104 39.2127 67.9665 38.8764C68.0225 38.5401 68.0786 38.2879 68.1346 38.0917C68.1346 37.8394 68.1627 37.7554 68.1627 37.7554Z" fill="#300000"/>
<path opacity="0.5" d="M69.4238 38.9044C69.4238 38.9044 70.9933 44.3415 77.5514 45.8549C77.5514 45.8549 74.3564 44.2855 73.4876 41.5949C73.4876 41.5949 75.0571 43.3606 77.5514 43.4727C77.5514 43.4727 73.3475 40.1936 73.2354 38.3159C73.2354 38.3159 71.3016 40.0255 72.815 42.0994C72.815 42.0714 71.5538 41.8472 69.4238 38.9044Z" fill="white"/>
<path opacity="0.5" d="M80.298 35.3171C80.298 35.3171 88.5096 35.177 88.93 43.2485C88.93 43.2485 88.5096 41.3988 86.5478 40.614C86.5478 40.614 89.3504 43.8651 88.7338 49.2461C88.7338 49.2461 89.7708 45.3785 82.7362 39.6892C82.7362 39.6892 85.1745 38.9605 87.2484 39.9974C87.2484 39.9974 85.7911 36.354 80.298 35.3171Z" fill="white"/>
<path d="M70.629 50.3671C68.1627 50.3391 65.6964 50.227 65.8645 54.0105C65.9766 56.2246 67.5461 58.1584 69.9844 58.3546C72.4507 58.5508 74.4125 56.9253 75.1692 54.7392C75.6456 52.7774 76.7387 50.4232 70.629 50.3671ZM74.5806 54.6832C73.908 56.5889 72.2264 57.9902 70.0965 57.8221C67.9665 57.6539 66.6212 55.9724 66.5371 54.0666C66.397 50.8156 68.527 50.8996 70.657 50.9277C75.8979 50.9557 74.973 53.0016 74.5806 54.6832Z" fill="black"/>
<path d="M77.9158 54.9915C78.7285 57.1775 80.7184 58.747 83.1847 58.5228C85.6229 58.2705 87.1644 56.3087 87.2204 54.0946C87.3325 50.3111 84.8382 50.4793 82.3719 50.5353C76.2903 50.6754 77.4113 53.0296 77.9158 54.9915ZM82.3999 51.0678C84.5299 51.0118 86.6599 50.8716 86.5758 54.1227C86.5198 56.0284 85.2026 57.738 83.1006 57.9622C80.9706 58.1864 79.261 56.8132 78.5604 54.9354C78.1119 53.2258 77.131 51.2079 82.3999 51.0678Z" fill="black"/>
<path d="M75.4494 52.9456C75.4494 52.9456 76.7666 52.0767 77.9998 52.9736C77.9998 52.9736 77.7195 52.1328 78.252 51.5723C78.252 51.5723 76.9067 50.9277 75.1971 51.5442C75.1971 51.5162 75.5335 52.357 75.4494 52.9456Z" fill="black"/>
<path d="M67.1817 50.8156L63.7065 51.3481L63.9587 53.4781L66.2569 54.6832C66.2288 54.7112 65.8365 52.357 67.1817 50.8156Z" fill="black"/>
<path d="M86.2115 51.1239L89.5466 52.1048L89.0141 53.9825L87.0523 55.0195C87.0523 55.0195 87.5007 52.6933 86.2115 51.1239Z" fill="black"/>
<path opacity="0.2" d="M82.3999 51.0678C84.5299 51.0117 86.6598 50.8716 86.5758 54.1226C86.5197 56.0284 85.2025 57.738 83.1005 57.9622C80.9705 58.1864 79.2609 56.8132 78.5603 54.9354C78.1119 53.2258 77.131 51.2079 82.3999 51.0678Z" fill="white"/>
<path opacity="0.2" d="M74.5808 54.6832C73.9081 56.589 72.2266 57.9903 70.0966 57.8221C67.9666 57.654 66.6213 55.9724 66.5373 54.0666C66.3971 50.8156 68.5271 50.8997 70.6571 50.9277C75.898 50.9277 74.9731 52.9736 74.5808 54.6832Z" fill="white"/>
<path d="M71.4976 71.6953H70.6288C70.3766 71.6953 68.4988 71.6953 66.6491 73.4329C64.1828 75.759 62.1369 82.3452 62.5573 89.3237H64.0427C63.5662 81.7566 66.1446 75.9833 67.63 74.5539C69.0874 73.1246 70.5447 73.1526 70.5727 73.1526H71.4976V71.6953V71.6953Z" fill="#151E31"/>
<path d="M87.1361 73.0683C86.1552 72.0033 84.5017 71.5549 82.1755 71.6951H81.7551V73.1804H82.2035H82.2596C84.0813 73.0683 85.3985 73.3766 86.0712 74.0773C86.6317 74.6658 86.5476 75.3665 86.5476 75.3945L88.005 75.5907C87.9769 75.5346 88.1451 74.1894 87.1361 73.0683Z" fill="#151E31"/>
<path d="M92.6013 82.9895C92.7694 82.9895 92.9376 83.1297 92.9376 83.2978C92.9376 83.3819 93.0216 85.5119 92.6853 88.2865C92.6853 88.3706 92.6013 89.1273 92.2089 89.912C91.6484 91.005 90.6955 91.5936 89.5184 91.5936C89.3222 91.5936 89.1821 91.4534 89.1821 91.2573C89.1821 91.0611 89.3222 90.9209 89.5184 90.9209C91.7605 90.9209 92.0127 88.3425 92.0407 88.2304C92.377 85.4839 92.293 83.3539 92.293 83.3539C92.2649 83.1577 92.4051 82.9895 92.6013 82.9895Z" fill="#BCBEC0"/>
<path d="M89.5185 91.6216C90.7236 91.6216 91.6485 91.033 92.209 89.94C92.6014 89.1833 92.6855 88.4266 92.6855 88.3145C93.0218 85.5119 92.9377 83.4099 92.9377 83.3259C92.9377 83.1577 92.7695 83.0176 92.6014 83.0176C92.6014 83.0176 92.6014 83.0176 92.5734 83.0176C92.3772 83.0176 92.237 83.1857 92.2651 83.3819C92.2651 83.3819 92.2651 83.466 92.2651 83.6341H92.2931C92.2931 83.6341 92.2931 83.6341 92.3211 83.6341C92.4893 83.6341 92.6014 83.7463 92.6294 83.9144C92.6294 83.9985 92.7135 85.8482 92.4052 88.3145C92.4052 88.3986 92.3211 89.0712 91.9848 89.7438C91.4803 90.7248 90.6676 91.2292 89.6026 91.2292C89.4905 91.2292 89.3784 91.1452 89.3223 91.033C89.2382 91.0891 89.1822 91.2012 89.1822 91.3133C89.1822 91.4534 89.3223 91.6216 89.5185 91.6216Z" fill="#BCBEC0"/>
<path d="M82.1477 82.9895C81.9795 82.9895 81.8113 83.1297 81.8113 83.2978C81.8113 83.3819 81.7273 85.5119 82.0636 88.2865C82.0636 88.3706 82.1477 89.1273 82.54 89.912C83.1005 91.005 84.0534 91.5936 85.2305 91.5936C85.4267 91.5936 85.5668 91.4534 85.5668 91.2573C85.5668 91.0611 85.4267 90.9209 85.2305 90.9209C82.9884 90.9209 82.7362 88.3425 82.7082 88.2304C82.3719 85.4839 82.4559 83.3539 82.4559 83.3539C82.484 83.1577 82.3438 82.9895 82.1477 82.9895Z" fill="#BCBEC0"/>
<path d="M85.2305 91.6216C84.0254 91.6216 83.1005 91.033 82.54 89.94C82.1477 89.1833 82.0636 88.4266 82.0636 88.3145C81.7273 85.5119 81.8113 83.4099 81.8113 83.3259C81.8113 83.1577 81.9795 83.0176 82.1477 83.0176C82.1477 83.0176 82.1477 83.0176 82.1757 83.0176C82.3719 83.0176 82.512 83.1857 82.484 83.3819C82.484 83.3819 82.484 83.466 82.484 83.6341H82.4559C82.2878 83.6341 82.1757 83.7463 82.1477 83.9144C82.1477 83.9985 82.0636 85.8482 82.3719 88.3145C82.3719 88.3986 82.4559 89.0712 82.7923 89.7438C83.2967 90.7248 84.1095 91.2292 85.1745 91.2292C85.2866 91.2292 85.3987 91.1452 85.4547 91.033C85.5388 91.0891 85.5949 91.2012 85.5949 91.3133C85.5668 91.4534 85.4267 91.6216 85.2305 91.6216Z" fill="#BCBEC0"/>
<path d="M87.1362 75.0582C87.1642 75.0582 87.1642 75.0582 87.1922 75.0582C87.1922 75.0582 87.2203 75.0582 87.2483 75.0582C88.6216 75.0582 89.7706 75.4786 90.7235 76.3194C93.4421 78.7576 93.3019 83.9144 93.3019 84.1106C93.3019 84.4469 92.9656 84.6992 92.6013 84.6711C92.2369 84.6711 91.9287 84.3909 91.9567 84.0546C91.9567 83.9985 92.0968 79.206 89.7706 77.1041C89.07 76.4875 88.2292 76.1792 87.2203 76.1792C87.1922 76.1792 87.1922 76.1792 87.1642 76.1792C87.0801 76.1792 86.0992 76.1792 85.0903 77.02C84.0533 77.8888 82.8482 79.7946 82.8482 84.0546C82.8482 84.3909 82.5399 84.6431 82.1756 84.6431C81.8112 84.6431 81.5029 84.3909 81.5029 84.0546C81.5029 80.271 82.4278 77.6086 84.2215 76.1232C85.4546 75.1423 86.7999 75.0582 87.1362 75.0582Z" fill="#151E31"/>
<path d="M82.1476 84.6992C82.512 84.6992 82.7922 84.4469 82.8203 84.1386C82.4839 84.1386 82.2317 83.9144 82.2317 83.6342C82.2317 80.3271 83.0164 78.029 84.5859 76.7397C85.7069 75.8149 86.856 75.7588 87.1643 75.7588C87.1923 75.7588 87.1923 75.7588 87.2203 75.7588H87.2484C88.4255 75.7588 89.4624 76.1232 90.2752 76.8799C92.6574 79.0099 92.5173 83.494 92.5173 83.6902C92.5173 83.9705 92.237 84.1947 91.9287 84.1947C91.9568 84.503 92.237 84.7552 92.5733 84.7552C92.9377 84.7552 93.246 84.503 93.274 84.1947C93.274 83.9705 93.4422 78.8417 90.6956 76.4034C89.7427 75.5626 88.5936 75.1423 87.2203 75.1423C87.1923 75.1423 87.1923 75.1423 87.1643 75.1423C87.1643 75.1423 87.1363 75.1423 87.1082 75.1423C86.7719 75.1423 85.4267 75.2263 84.1375 76.2633C82.3438 77.7487 81.4189 80.4112 81.4189 84.1947C81.475 84.4469 81.7833 84.6992 82.1476 84.6992Z" fill="#A7A9AC"/>
<path d="M88.1732 91.2292C88.1732 90.9209 88.4254 90.6407 88.7617 90.6407L89.8547 90.7248C90.191 90.8088 90.191 90.977 90.191 91.2012C90.191 91.4534 90.191 91.6216 89.8267 91.7057L88.7617 91.7898C88.4534 91.8178 88.1732 91.5655 88.1732 91.2292Z" fill="#151E31"/>
<path d="M88.986 91.2292C88.7338 91.2292 88.5656 91.3133 88.4255 91.5095C88.5376 91.6216 88.6777 91.6777 88.8178 91.6777L89.4624 91.6216C89.5185 91.3133 89.3223 91.2292 88.986 91.2292Z" fill="white"/>
<path d="M89.2381 90.921C89.7146 90.977 89.9108 91.3133 89.9108 91.7337C90.219 91.6497 90.219 91.4815 90.219 91.2573C90.219 91.0331 90.219 90.8649 89.8827 90.7808L88.7897 90.6968C88.5094 90.6968 88.2852 90.8929 88.2292 91.1732C88.4814 90.921 88.8458 90.8649 89.2381 90.921Z" fill="#808285"/>
<path d="M86.884 91.2292C86.884 90.9209 86.6318 90.6407 86.2955 90.6407L85.2025 90.7248C84.8662 90.8088 84.8661 90.977 84.8661 91.2012C84.8661 91.4534 84.8662 91.6216 85.2305 91.7057L86.2955 91.7898C86.6318 91.8178 86.884 91.5655 86.884 91.2292Z" fill="#151E31"/>
<path d="M86.0713 91.2292C86.3235 91.2292 86.4917 91.3133 86.6318 91.5095C86.5197 91.6216 86.3795 91.6777 86.2394 91.6777L85.5948 91.6216C85.5668 91.3133 85.763 91.2292 86.0713 91.2292Z" fill="white"/>
<path d="M85.8471 90.921C85.3706 90.977 85.1744 91.3133 85.1744 91.7337C84.8662 91.6497 84.8661 91.4815 84.8661 91.2573C84.8661 91.0331 84.8662 90.8649 85.2025 90.7808L86.2955 90.6968C86.5757 90.6968 86.8 90.8929 86.856 91.1732C86.6038 90.921 86.2394 90.8649 85.8471 90.921Z" fill="#808285"/>
<path d="M63.5662 91.8178C65.3153 91.8178 66.7332 90.3999 66.7332 88.6508C66.7332 86.9018 65.3153 85.4839 63.5662 85.4839C61.8172 85.4839 60.3993 86.9018 60.3993 88.6508C60.3993 90.3999 61.8172 91.8178 63.5662 91.8178Z" fill="#151E31"/>
<path d="M63.5663 90.949C64.8355 90.949 65.8644 89.92 65.8644 88.6508C65.8644 87.3816 64.8355 86.3527 63.5663 86.3527C62.297 86.3527 61.2681 87.3816 61.2681 88.6508C61.2681 89.92 62.297 90.949 63.5663 90.949Z" fill="#A7A9AC"/>
<path d="M63.5662 90.5847C64.6342 90.5847 65.5 89.7189 65.5 88.6508C65.5 87.5828 64.6342 86.717 63.5662 86.717C62.4982 86.717 61.6324 87.5828 61.6324 88.6508C61.6324 89.7189 62.4982 90.5847 63.5662 90.5847Z" fill="#939598"/>
</svg>
