<svg width="130" height="130" viewBox="0 0 130 130" fill="none" xmlns="http://www.w3.org/2000/svg">
<circle cx="66.5789" cy="66.5789" r="58.4211" fill="#E6EDB7"/>
<circle cx="113.947" cy="11.3158" r="6.31579" fill="#F1BC19"/>
<circle cx="11.3158" cy="91.8422" r="6.31579" fill="#F1BC19"/>
<circle r="3.15789" transform="matrix(1 0 0 -1 14.4737 69.7369)" fill="white"/>
<circle r="2.36842" transform="matrix(1 0 0 -1 108.421 40.5263)" fill="white"/>
<circle cx="120.263" cy="101.316" r="3.15789" fill="#76FD8C"/>
<circle cx="104.474" cy="8.1579" r="1.57895" fill="#76FD8C"/>
<circle cx="119.474" cy="26.3158" r="2.36842" fill="#1BB934"/>
<circle cx="79.5" cy="50.5" r="28.5" fill="#DFF3E3"/>
<path fill-rule="evenodd" clip-rule="evenodd" d="M98.896 120.706C98.7662 120.603 98.6175 120.527 98.4582 120.481C98.2989 120.436 98.1322 120.423 97.9676 120.442C97.803 120.461 97.6438 120.513 97.499 120.593C97.3542 120.674 97.2267 120.782 97.1237 120.912C97.0208 121.042 96.9443 121.191 96.8989 121.351C96.8534 121.51 96.8397 121.677 96.8587 121.842C96.8776 122.006 96.9288 122.165 97.0093 122.31C97.0897 122.455 97.198 122.582 97.3277 122.685C97.5898 122.893 97.9238 122.988 98.2561 122.949C98.5885 122.91 98.892 122.741 99.1 122.478C99.308 122.216 99.4033 121.882 99.365 121.549C99.3268 121.217 99.1581 120.913 98.896 120.706Z" fill="#BFC7D2"/>
<path d="M22.7246 11.4067L23.383 11.9287C23.5576 12.0672 23.67 12.2694 23.6954 12.491C23.7208 12.7125 23.6572 12.9352 23.5186 13.1101C23.3799 13.285 23.1776 13.3977 22.9561 13.4235C22.7346 13.4492 22.512 13.3859 22.3374 13.2475L21.679 12.7255L21.1562 13.3849C21.0176 13.5598 20.8152 13.6725 20.5937 13.6983C20.3722 13.724 20.1497 13.6607 19.9751 13.5223C19.8005 13.3839 19.6881 13.1816 19.6627 12.9601C19.6372 12.7385 19.7009 12.5158 19.8395 12.3409L20.3623 11.6815L19.7039 11.1595C19.5293 11.0211 19.417 10.8189 19.3915 10.5973C19.3661 10.3758 19.4297 10.153 19.5684 9.97816C19.707 9.80328 19.9094 9.69056 20.1309 9.66479C20.3524 9.63902 20.5749 9.70232 20.7495 9.84076L21.4079 10.3628L21.9307 9.70337C22.0694 9.52849 22.2717 9.41576 22.4932 9.39C22.7147 9.36423 22.9373 9.42753 23.1119 9.56597C23.2865 9.70441 23.3989 9.90665 23.4243 10.1282C23.4497 10.3498 23.3861 10.5725 23.2474 10.7473L22.7246 11.4067Z" fill="#BFC7D2"/>
<path d="M11.7246 25.4067L12.383 25.9287C12.5576 26.0672 12.67 26.2694 12.6954 26.491C12.7208 26.7125 12.6572 26.9352 12.5186 27.1101C12.3799 27.285 12.1776 27.3977 11.9561 27.4235C11.7346 27.4492 11.512 27.3859 11.3374 27.2475L10.679 26.7255L10.1562 27.3849C10.0176 27.5598 9.81525 27.6725 9.59374 27.6983C9.37222 27.724 9.1497 27.6607 8.97509 27.5223C8.80048 27.3839 8.68809 27.1816 8.66267 26.9601C8.63725 26.7385 8.70087 26.5158 8.83952 26.3409C8.83952 26.3409 9.40029 26.008 9.36232 25.6815C9.32441 25.3556 8.70395 25.1595 8.70395 25.1595C8.52934 25.0211 8.41697 24.8189 8.39154 24.5973C8.36612 24.3758 8.42973 24.153 8.56838 23.9782C8.70704 23.8033 8.90938 23.6906 9.13089 23.6648C9.3524 23.639 9.57494 23.7023 9.74955 23.8408L10.4079 24.3628L10.9307 23.7034C11.0694 23.5285 11.2717 23.4158 11.4932 23.39C11.7147 23.3642 11.9373 23.4275 12.1119 23.566C12.2865 23.7044 12.3989 23.9066 12.4243 24.1282C12.4497 24.3498 12.3861 24.5725 12.2474 24.7473L11.7246 25.4067Z" fill="#BFC7D2"/>
<path d="M37 35C30.9249 35 26 39.9249 26 46V78C26 84.0751 30.9249 89 37 89H68V80.5C68.1424 77.88 68.6837 76.2315 70 74C68.7639 73.7978 66.8539 72.9201 67.0084 71.4541C66.9912 71.0328 67 69 70 69H73L75.5068 64.933C76.0521 64.0987 77.673 61.8796 80 61.5V46C80 39.9249 75.0751 35 69 35H37Z" fill="#28A8E0"/>
<path d="M41 79V46H54.0999C56.6182 46 58.7637 46.478 60.5363 47.4341C62.3089 48.3794 63.66 49.6953 64.5895 51.3818C65.5298 53.0576 66 54.9912 66 57.1826C66 59.374 65.5244 61.3076 64.5733 62.9834C63.6221 64.6592 62.2441 65.9644 60.439 66.8989C58.6448 67.8335 56.4723 68.3008 53.9215 68.3008H45.572V62.7095H52.7866C54.1377 62.7095 55.251 62.4785 56.1265 62.0166C57.0128 61.5439 57.6721 60.894 58.1044 60.0669C58.5476 59.229 58.7691 58.2676 58.7691 57.1826C58.7691 56.0869 58.5476 55.1309 58.1044 54.3145C57.6721 53.4873 57.0128 52.8481 56.1265 52.397C55.2402 51.9351 54.1161 51.7041 52.7542 51.7041H48.0201V79H41Z" fill="white"/>
<path fill-rule="evenodd" clip-rule="evenodd" d="M75.4075 93.0395V90.2592H103.645V93.1912C103.686 93.7978 104.266 93.9832 104.551 94H109.535C110.144 93.8689 110.164 93.4858 110.179 93.1775C110.182 93.1293 110.184 93.0828 110.189 93.0395V80.6039C110.229 77.2877 108.729 74.504 107.974 73.5267C110.29 73.0717 111.077 72.4146 110.994 71.5046C110.873 70.1701 110.249 69.6848 109 69.6848H105.457L102.639 64.933C101.481 62.8098 98.7461 61.9673 97.7561 62.001H81.196C78.6591 62.2032 76.8839 64.0399 76.3135 64.933L73.4444 69.6342H70C68.3683 69.6342 67.9914 71.0328 68.0082 71.4541C67.8572 72.9201 69.8203 73.2739 71.0283 73.4761C70.938 73.6328 70.8483 73.7861 70.7597 73.9377C69.7621 75.6438 68.8978 77.1218 68.7129 80.6039V93.0395C68.7129 93.6866 69.2498 93.9494 69.5183 94H74.4511C75.1356 94 75.3739 93.3597 75.4075 93.0395ZM83.612 85.8107C83.612 85.4198 83.9275 85.103 84.3167 85.103H94.6857C95.0749 85.103 95.3904 85.4198 95.3904 85.8107V87.125C95.3904 87.5159 95.0749 87.8327 94.6857 87.8327H84.3167C83.9275 87.8327 83.612 87.5159 83.612 87.125V85.8107ZM81.6727 64.0736C80.1774 64.0736 78.7783 64.8147 77.934 66.0541L73.8175 72.0964C73.3603 72.7674 73.8387 73.6783 74.6483 73.6783H104.312C105.12 73.6783 105.599 72.7707 105.145 72.0994L101.067 66.0676C100.224 64.8204 98.8204 64.0736 97.3193 64.0736H81.6727ZM99.7192 80.0478C99.7192 79.6011 100.08 79.239 100.525 79.239H106.867C107.312 79.239 107.672 79.6011 107.672 80.0478V81.7666C107.672 82.2133 107.312 82.5754 106.867 82.5754H100.525C100.08 82.5754 99.7192 82.2133 99.7192 81.7666V80.0478ZM72.1357 79.239C71.6909 79.239 71.3303 79.6011 71.3303 80.0478V81.7666C71.3303 82.2133 71.6909 82.5754 72.1357 82.5754H78.4779C78.9227 82.5754 79.2832 82.2133 79.2832 81.7666V80.0478C79.2832 79.6011 78.9227 79.239 78.4779 79.239H72.1357Z" fill="#2B2A28"/>
</svg>
