<svg width="130" height="130" viewBox="0 0 130 130" fill="none" xmlns="http://www.w3.org/2000/svg">
<circle cx="66.5789" cy="66.5789" r="58.4211" fill="#CEECD3"/>
<circle cx="113.947" cy="11.3158" r="6.31579" fill="#76FD8C"/>
<circle cx="11.3158" cy="91.8422" r="6.31579" fill="#76FD8C"/>
<circle r="3.15789" transform="matrix(1 0 0 -1 14.4737 69.7369)" fill="white"/>
<circle r="2.36842" transform="matrix(1 0 0 -1 108.421 40.5263)" fill="white"/>
<circle cx="120.263" cy="101.316" r="3.15789" fill="#76FD8C"/>
<circle cx="104.474" cy="8.1579" r="1.57895" fill="#76FD8C"/>
<circle cx="119.474" cy="26.3158" r="2.36842" fill="#1BB934"/>
<circle cx="80.4999" cy="58.5" r="28.5" fill="#DFF3E3"/>
<path d="M93.2904 66.1443L87.8132 63.8392V84.137L93.2904 81.8319C94.792 81.2 95.7684 79.7296 95.7684 78.1005V69.8755C95.7684 68.2466 94.7918 66.7762 93.2904 66.1443V66.1443Z" fill="#E7889D"/>
<path d="M92.2663 65.7133L87.8132 63.8392V84.137L92.2663 82.2628V65.7133Z" fill="#E16E7E"/>
<path d="M79.0236 98.8868H40.5289C38.077 98.8868 36.0894 96.8992 36.0894 94.4473V35.3138C36.0894 32.8619 38.077 30.8743 40.5289 30.8743H79.0236C83.8779 30.8743 87.8132 34.8096 87.8132 39.6639V90.097C87.8132 94.9515 83.8779 98.8868 79.0236 98.8868Z" fill="#88D37F"/>
<path d="M40.5289 30.8743C38.077 30.8743 36.0894 32.8619 36.0894 35.3138V94.4473C36.0894 96.8992 38.077 98.8868 40.5289 98.8868H66.0242C45.2291 87.1461 47.4529 51.6217 47.497 30.8743H40.5289Z" fill="#5EC682"/>
<path d="M79.0236 30.8743H64.5086V52.3532C64.5086 57.3306 68.5582 61.3803 73.5356 61.3803H87.8132V39.6639C87.8132 34.8096 83.8779 30.8743 79.0236 30.8743V30.8743Z" fill="#5EC682"/>
<path d="M63.9364 61.8645C68.5778 60.7674 71.451 56.1153 70.3539 51.4739C69.2567 46.8325 64.6047 43.9592 59.9632 45.0564C55.3218 46.1535 52.4486 50.8056 53.5457 55.447C54.6429 60.0885 59.2949 62.9617 63.9364 61.8645Z" fill="#CDE9FA"/>
<path d="M63.9364 61.8645C68.5778 60.7674 71.451 56.1153 70.3539 51.4739C69.2567 46.8325 64.6047 43.9592 59.9632 45.0564C55.3218 46.1535 52.4486 50.8056 53.5457 55.447C54.6429 60.0885 59.2949 62.9617 63.9364 61.8645Z" fill="#CDE9FA"/>
<path d="M64.5086 45.2244V52.3532C64.5086 55.2878 65.917 57.8989 68.0924 59.5486C69.6352 57.9884 70.5885 55.844 70.5885 53.4765C70.5885 49.5966 68.0303 46.3145 64.5086 45.2244V45.2244Z" fill="#A2DDFD"/>
<path d="M39.1306 37.1966H33.0481C30.9364 37.1966 29.2245 38.9085 29.2245 41.0202C29.2245 43.132 30.9364 44.8438 33.0481 44.8438H39.1306C41.2423 44.8438 42.9542 43.1318 42.9542 41.0202C42.9543 38.9085 41.2424 37.1966 39.1306 37.1966V37.1966Z" fill="#59636F"/>
<path d="M39.1306 53.1034H33.0481C30.9364 53.1034 29.2245 54.8154 29.2245 56.927C29.2245 59.0388 30.9364 60.7506 33.0481 60.7506H39.1306C41.2423 60.7506 42.9542 59.0387 42.9542 56.927C42.9543 54.8154 41.2424 53.1034 39.1306 53.1034Z" fill="#59636F"/>
<path d="M39.1306 69.0103H33.0481C30.9364 69.0103 29.2245 70.7222 29.2245 72.8339C29.2245 74.9457 30.9364 76.6575 33.0481 76.6575H39.1306C41.2423 76.6575 42.9542 74.9456 42.9542 72.8339C42.9543 70.7222 41.2424 69.0103 39.1306 69.0103Z" fill="#59636F"/>
<path d="M39.1306 84.9171H33.0481C30.9364 84.9171 29.2245 86.6291 29.2245 88.7407C29.2245 90.8526 30.9364 92.5643 33.0481 92.5643H39.1306C41.2423 92.5643 42.9542 90.8524 42.9542 88.7407C42.9543 86.6291 41.2424 84.9171 39.1306 84.9171Z" fill="#59636F"/>
<path d="M96.2015 25.1133H73.5357C71.0096 25.1133 68.9618 27.1612 68.9618 29.6873V52.3532C68.9618 54.8793 71.0096 56.9272 73.5357 56.9272H96.2015C98.7276 56.9272 100.775 54.8793 100.775 52.3532V29.6873C100.775 27.1612 98.7276 25.1133 96.2015 25.1133V25.1133Z" fill="#FBF1CF"/>
<path d="M73.5357 25.1133C71.0096 25.1133 68.9618 27.1612 68.9618 29.6873V52.3532C68.9618 54.8793 71.0096 56.9272 73.5357 56.9272H82.1491C74.6681 49.7146 74.9543 29.7872 75.6818 25.1133H73.5357Z" fill="#FAE0BD"/>
<path d="M94.5689 56.927C94.5689 51.5698 90.2259 47.2268 84.8686 47.2268C79.5114 47.2268 75.1684 51.5698 75.1684 56.927H94.5689Z" fill="#7ACEFA"/>
<path d="M85.982 48.7723C89.8034 48.1528 92.399 44.5528 91.7796 40.7314C91.1601 36.91 87.56 34.3143 83.7386 34.9338C79.9172 35.5533 77.3216 39.1533 77.941 42.9747C78.5605 46.7961 82.1606 49.3918 85.982 48.7723Z" fill="#A2DDFD"/>
<path d="M72.7606 72.8339C72.7606 72.2191 72.2621 71.7206 71.6473 71.7206H52.2553C51.6405 71.7206 51.142 72.2191 51.142 72.8339C51.142 73.4489 51.6405 73.9472 52.2553 73.9472H71.6473C72.2621 73.9472 72.7606 73.4489 72.7606 72.8339ZM56.7261 80.3756C56.1112 80.3756 55.6128 80.8739 55.6128 81.4888C55.6128 82.1037 56.1112 82.6021 56.7261 82.6021H67.1765C67.7913 82.6021 68.2898 82.1037 68.2898 81.4888C68.2898 80.8739 67.7913 80.3756 67.1765 80.3756H56.7261ZM98.8421 24.6491C98.2976 24.3634 97.6246 24.5729 97.339 25.1175C97.0533 25.6618 97.2629 26.3348 97.8073 26.6205C98.9515 27.2211 99.6624 28.3962 99.6624 29.6871V52.3531C99.6624 54.2612 98.11 55.8138 96.2017 55.8138H95.6246C95.2815 52.4237 93.3842 49.441 90.4978 47.6929C92.0339 46.214 92.9925 44.1394 92.9925 41.844C92.9925 37.3645 89.3482 33.7202 84.8688 33.7202C80.3894 33.7202 76.7449 37.3645 76.7449 41.844C76.7449 44.1396 77.7036 46.2141 79.2396 47.6929C76.3531 49.441 74.4559 52.4237 74.1129 55.8138H73.5357C71.6276 55.8138 70.0752 54.2614 70.0752 52.3531V29.6871C70.0751 27.779 71.6274 26.2266 73.5356 26.2266H93.1298C93.7446 26.2266 94.2431 25.7283 94.2431 25.1133C94.2431 24.4983 93.7446 24 93.1298 24H73.5356C70.3997 24 67.8485 26.5514 67.8485 29.6871V29.7609H40.5289C37.467 29.7609 34.9761 32.2518 34.9761 35.3136V36.0831H33.0481C30.3259 36.0831 28.1112 38.2978 28.1112 41.02C28.1112 43.7424 30.3259 45.9571 33.0481 45.9571H34.9761V51.99H33.0481C30.3259 51.99 28.1112 54.2047 28.1112 56.9269C28.1112 59.6492 30.3259 61.8639 33.0481 61.8639H34.9761V67.897H33.0481C30.3259 67.897 28.1112 70.1117 28.1112 72.8339C28.1112 75.5562 30.3259 77.7709 33.0481 77.7709H34.9761V83.8039H33.0481C30.3259 83.8039 28.1112 86.0186 28.1112 88.7408C28.1112 91.4631 30.3259 93.6778 33.0481 93.6778H34.9761V94.4473C34.9761 97.5091 37.467 100 40.5289 100H46.3818C46.9966 100 47.495 99.5017 47.495 98.8867C47.495 98.2718 46.9966 97.7735 46.3818 97.7735H40.5289C38.6948 97.7735 37.2027 96.2812 37.2027 94.4473V93.6778H39.1306C41.8528 93.6778 44.0676 91.4631 44.0676 88.7408C44.0676 86.0186 41.8529 83.8039 39.1306 83.8039H37.2027V77.7709H39.1306C41.8528 77.7709 44.0676 75.5562 44.0676 72.8339C44.0676 70.1117 41.8529 67.897 39.1306 67.897H37.2027V61.8639H39.1306C41.8528 61.8639 44.0676 59.6492 44.0676 56.9269C44.0676 54.2047 41.8529 51.99 39.1306 51.99H37.2027V45.9571H39.1306C41.8528 45.9571 44.0676 43.7424 44.0676 41.02C44.0676 38.2978 41.8529 36.0831 39.1306 36.0831H37.2027V35.3136C37.2027 33.4795 38.6948 31.9875 40.5289 31.9875H67.8485V45.7169C66.1698 44.4428 64.0999 43.7257 61.9512 43.7257C56.5748 43.7257 52.2007 48.0997 52.2007 53.4763C52.2007 58.8529 56.5747 63.2269 61.9512 63.2269C65.8801 63.2269 69.3588 60.8894 70.887 57.3836C71.6786 57.8021 72.5796 58.0403 73.5356 58.0403H86.6999V84.1298V84.1413V90.097C86.6999 94.3299 83.2563 97.7735 79.0236 97.7735H51.784C51.1692 97.7735 50.6707 98.2718 50.6707 98.8867C50.6707 99.5017 51.1692 100 51.784 100H79.0236C84.4842 100 88.9265 95.5576 88.9265 90.097V84.8763L93.7222 82.858C95.6415 82.0504 96.8817 80.1829 96.8817 78.1006V69.8757C96.8817 67.7934 95.6415 65.9259 93.7222 65.1181L88.9265 63.1V58.0405H96.2015C99.3374 58.0405 101.889 55.4891 101.889 52.3532V29.6871C101.889 27.5659 100.721 25.6357 98.8421 24.6491V24.6491ZM39.1306 86.0306C40.6251 86.0306 41.8411 87.2464 41.8411 88.7409C41.8411 90.2354 40.6252 91.4514 39.1306 91.4514H33.0481C31.5536 91.4514 30.3377 90.2355 30.3377 88.7409C30.3377 87.2464 31.5536 86.0306 33.0481 86.0306H39.1306ZM39.1306 70.1237C40.6251 70.1237 41.8411 71.3394 41.8411 72.834C41.8411 74.3285 40.6252 75.5445 39.1306 75.5445H33.0481C31.5536 75.5445 30.3377 74.3287 30.3377 72.834C30.3377 71.3396 31.5536 70.1237 33.0481 70.1237H39.1306ZM39.1306 54.2167C40.6251 54.2167 41.8411 55.4326 41.8411 56.927C41.8411 58.4215 40.6252 59.6375 39.1306 59.6375H33.0481C31.5536 59.6375 30.3377 58.4216 30.3377 56.927C30.3377 55.4326 31.5536 54.2167 33.0481 54.2167H39.1306ZM39.1306 38.3099C40.6251 38.3099 41.8411 39.5257 41.8411 41.0202C41.8411 42.5146 40.6252 43.7306 39.1306 43.7306H33.0481C31.5536 43.7306 30.3377 42.5148 30.3377 41.0202C30.3377 39.5257 31.5536 38.3099 33.0481 38.3099H39.1306ZM61.9512 61.0005C57.8025 61.0005 54.4272 57.6253 54.4272 53.4765C54.4272 49.3278 57.8024 45.9525 61.9512 45.9525C64.247 45.9525 66.4251 47.016 67.8485 48.8111V52.3532C67.8485 53.6859 68.3104 54.912 69.0811 55.8826C68.0596 58.9226 65.2057 61.0005 61.9512 61.0005V61.0005ZM78.9715 41.844C78.9715 38.5923 81.617 35.9467 84.8688 35.9467C88.1205 35.9467 90.7659 38.5922 90.7659 41.844C90.7659 45.0957 88.1205 47.7411 84.8688 47.7411C81.617 47.741 78.9715 45.0957 78.9715 41.844ZM92.8586 67.1704C93.95 67.6297 94.6551 68.6914 94.6551 69.8757V78.1006C94.6551 79.2847 93.95 80.3465 92.8586 80.8057L88.9265 82.4605V65.5156L92.8586 67.1704ZM76.3538 55.8138C76.7286 52.8886 78.5658 50.3732 81.2779 49.1284C83.5305 50.2432 86.1885 50.2521 88.4592 49.1284C91.1713 50.3731 93.0087 52.8886 93.3833 55.8138H76.3538Z" fill="black"/>
<path fill-rule="evenodd" clip-rule="evenodd" d="M98.896 120.706C98.7663 120.603 98.6175 120.527 98.4582 120.481C98.2989 120.436 98.1322 120.423 97.9677 120.442C97.8031 120.461 97.6439 120.513 97.4991 120.593C97.3543 120.674 97.2268 120.782 97.1238 120.912C97.0208 121.042 96.9444 121.191 96.8989 121.351C96.8534 121.51 96.8398 121.677 96.8587 121.841C96.8777 122.006 96.9288 122.165 97.0093 122.31C97.0898 122.455 97.198 122.582 97.3278 122.685C97.5899 122.893 97.9238 122.987 98.2562 122.949C98.5885 122.91 98.8921 122.741 99.1001 122.478C99.308 122.216 99.4034 121.882 99.3651 121.549C99.3268 121.217 99.1581 120.913 98.896 120.706Z" fill="#BFC7D2"/>
<path d="M22.7247 11.4067L23.383 11.9287C23.5576 12.0672 23.67 12.2694 23.6954 12.491C23.7209 12.7125 23.6572 12.9352 23.5186 13.1101C23.3799 13.285 23.1776 13.3977 22.9561 13.4235C22.7346 13.4492 22.512 13.3859 22.3374 13.2475L21.6791 12.7255L21.1563 13.3849C21.0176 13.5598 20.8153 13.6725 20.5938 13.6983C20.3722 13.724 20.1497 13.6607 19.9751 13.5223C19.8005 13.3839 19.6881 13.1816 19.6627 12.9601C19.6373 12.7385 19.7009 12.5158 19.8395 12.3409L20.3623 11.6815L19.704 11.1595C19.5294 11.0211 19.417 10.8189 19.3916 10.5973C19.3661 10.3758 19.4297 10.153 19.5684 9.97816C19.7071 9.80328 19.9094 9.69056 20.1309 9.66479C20.3524 9.63902 20.575 9.70232 20.7496 9.84076L21.4079 10.3628L21.9307 9.70337C22.0694 9.52849 22.2717 9.41576 22.4932 9.39C22.7147 9.36423 22.9373 9.42753 23.1119 9.56597C23.2865 9.70441 23.3989 9.90665 23.4243 10.1282C23.4497 10.3498 23.3861 10.5725 23.2475 10.7473L22.7247 11.4067Z" fill="#BFC7D2"/>
<path d="M11.7247 25.4067L12.383 25.9287C12.5576 26.0672 12.67 26.2694 12.6954 26.491C12.7209 26.7125 12.6572 26.9352 12.5186 27.1101C12.3799 27.285 12.1776 27.3977 11.9561 27.4235C11.7346 27.4492 11.512 27.3859 11.3374 27.2475L10.6791 26.7255L10.1563 27.3849C10.0176 27.5598 9.81526 27.6725 9.59375 27.6983C9.37224 27.724 9.14972 27.6607 8.97511 27.5223C8.8005 27.3839 8.68811 27.1816 8.66269 26.9601C8.63726 26.7385 8.70088 26.5158 8.83954 26.3409C8.83954 26.3409 9.40031 26.008 9.36234 25.6815C9.32442 25.3556 8.70397 25.1595 8.70397 25.1595C8.52936 25.0211 8.41698 24.8189 8.39156 24.5973C8.36613 24.3758 8.42974 24.153 8.5684 23.9782C8.70705 23.8033 8.9094 23.6906 9.13091 23.6648C9.35242 23.639 9.57496 23.7023 9.74957 23.8408L10.4079 24.3628L10.9307 23.7034C11.0694 23.5285 11.2717 23.4158 11.4932 23.39C11.7147 23.3642 11.9373 23.4275 12.1119 23.566C12.2865 23.7044 12.3989 23.9066 12.4243 24.1282C12.4497 24.3498 12.3861 24.5725 12.2475 24.7473L11.7247 25.4067Z" fill="#BFC7D2"/>
</svg>
