<svg width="130" height="130" viewBox="0 0 130 130" fill="none" xmlns="http://www.w3.org/2000/svg">
<circle cx="66.5789" cy="66.5789" r="58.4211" fill="#CEECD3"/>
<circle cx="113.947" cy="11.3158" r="6.31579" fill="#76FD8C"/>
<circle cx="11.3158" cy="91.8422" r="6.31579" fill="#76FD8C"/>
<circle r="3.15789" transform="matrix(1 0 0 -1 14.4737 69.7369)" fill="white"/>
<circle r="2.36842" transform="matrix(1 0 0 -1 108.421 40.5263)" fill="white"/>
<circle cx="120.263" cy="101.316" r="3.15789" fill="#76FD8C"/>
<circle cx="104.474" cy="8.1579" r="1.57895" fill="#76FD8C"/>
<circle cx="119.474" cy="26.3158" r="2.36842" fill="#1BB934"/>
<circle cx="79.5" cy="50.5" r="28.5" fill="#DFF3E3"/>
<path fill-rule="evenodd" clip-rule="evenodd" d="M98.896 120.706C98.7662 120.603 98.6175 120.527 98.4582 120.481C98.2989 120.436 98.1322 120.423 97.9676 120.442C97.803 120.461 97.6438 120.513 97.499 120.593C97.3542 120.674 97.2267 120.782 97.1237 120.912C97.0208 121.042 96.9443 121.191 96.8989 121.351C96.8534 121.51 96.8397 121.677 96.8587 121.841C96.8776 122.006 96.9288 122.165 97.0093 122.31C97.0897 122.455 97.198 122.582 97.3277 122.685C97.5898 122.893 97.9238 122.987 98.2561 122.949C98.5885 122.91 98.892 122.741 99.1 122.478C99.308 122.216 99.4033 121.882 99.365 121.549C99.3268 121.217 99.1581 120.913 98.896 120.706Z" fill="#BFC7D2"/>
<path d="M22.7246 11.4067L23.383 11.9287C23.5576 12.0672 23.67 12.2694 23.6954 12.491C23.7208 12.7125 23.6572 12.9352 23.5186 13.1101C23.3799 13.285 23.1776 13.3977 22.9561 13.4235C22.7346 13.4492 22.512 13.3859 22.3374 13.2475L21.679 12.7255L21.1562 13.3849C21.0176 13.5598 20.8152 13.6725 20.5937 13.6983C20.3722 13.724 20.1497 13.6607 19.9751 13.5223C19.8005 13.3839 19.6881 13.1816 19.6627 12.9601C19.6372 12.7385 19.7009 12.5158 19.8395 12.3409L20.3623 11.6815L19.7039 11.1595C19.5293 11.0211 19.417 10.8189 19.3915 10.5973C19.3661 10.3758 19.4297 10.153 19.5684 9.97816C19.707 9.80328 19.9094 9.69056 20.1309 9.66479C20.3524 9.63902 20.5749 9.70232 20.7495 9.84076L21.4079 10.3628L21.9307 9.70337C22.0694 9.52849 22.2717 9.41576 22.4932 9.39C22.7147 9.36423 22.9373 9.42753 23.1119 9.56597C23.2865 9.70441 23.3989 9.90665 23.4243 10.1282C23.4497 10.3498 23.3861 10.5725 23.2474 10.7473L22.7246 11.4067Z" fill="#BFC7D2"/>
<path d="M11.7246 25.4067L12.383 25.9287C12.5576 26.0672 12.67 26.2694 12.6954 26.491C12.7208 26.7125 12.6572 26.9352 12.5186 27.1101C12.3799 27.285 12.1776 27.3977 11.9561 27.4235C11.7346 27.4492 11.512 27.3859 11.3374 27.2475L10.679 26.7255L10.1562 27.3849C10.0176 27.5598 9.81525 27.6725 9.59374 27.6983C9.37222 27.724 9.1497 27.6607 8.97509 27.5223C8.80048 27.3839 8.68809 27.1816 8.66267 26.9601C8.63725 26.7385 8.70087 26.5158 8.83952 26.3409C8.83952 26.3409 9.40029 26.008 9.36232 25.6815C9.32441 25.3556 8.70395 25.1595 8.70395 25.1595C8.52934 25.0211 8.41697 24.8189 8.39154 24.5973C8.36612 24.3758 8.42973 24.153 8.56838 23.9782C8.70704 23.8033 8.90938 23.6906 9.13089 23.6648C9.3524 23.639 9.57494 23.7023 9.74955 23.8408L10.4079 24.3628L10.9307 23.7034C11.0694 23.5285 11.2717 23.4158 11.4932 23.39C11.7147 23.3642 11.9373 23.4275 12.1119 23.566C12.2865 23.7044 12.3989 23.9066 12.4243 24.1282C12.4497 24.3498 12.3861 24.5725 12.2474 24.7473L11.7246 25.4067Z" fill="#BFC7D2"/>
<rect x="25.5" y="63.0405" width="16.9459" height="31.4324" fill="#4C7CA5" stroke="#456F91"/>
<path d="M41.973 95.082H25.8649V94.109C25.9514 92.0334 27.7748 91.3703 28.6757 91.2982C30.6216 91.2982 31.5946 90.7568 31.9189 89.6766C32.0054 89.2442 31.7387 88.7036 31.5946 88.4874C29.973 87.4054 29.7568 85.4604 29.7568 84.7036C29.4973 80.3793 32.6036 79.3703 34.1892 79.4063C37.3027 79.6658 37.9369 83.046 37.8649 84.7036C37.5405 87.6225 36.6396 88.1271 36.1351 88.4874C35.8108 88.8117 35.8108 89.2442 35.8108 89.6766C36.1351 91.0811 38.2973 91.2982 39.1622 91.2982C41.3243 91.5577 41.9369 93.2802 41.973 94.109V95.082Z" fill="white"/>
<path d="M46.2568 53.3108H63.2027V94.2568H46.2568V53.3108Z" fill="#0D4468" stroke="#043953"/>
<path d="M62.7297 94.8658H46.6216V93.8928C46.7081 91.8171 48.5315 91.1541 49.4324 91.082C51.3783 91.082 52.3513 90.5405 52.6756 89.4604C52.7621 89.028 52.4955 88.4874 52.3513 88.2712C50.7297 87.1892 50.5135 85.2442 50.5135 84.4874C50.254 80.1631 53.3603 79.1541 54.9459 79.1901C58.0594 79.4496 58.6937 82.8298 58.6216 84.4874C58.2973 87.4063 57.3964 87.9108 56.8919 88.2712C56.5675 88.5955 56.5675 89.028 56.5675 89.4604C56.8919 90.8649 59.054 91.082 59.9189 91.082C62.081 91.3415 62.6937 93.064 62.7297 93.8928V94.8658Z" fill="white"/>
<path d="M66.7972 34.5H83.7432V94.2568H66.7972V34.5Z" fill="#168CD2" stroke="#2382BB"/>
<path d="M83.2702 94.8658H67.162V93.8928C67.2485 91.8171 69.072 91.1541 69.9729 91.082C71.9188 91.082 72.8918 90.5405 73.2161 89.4604C73.3026 89.0279 73.0359 88.4874 72.8918 88.2712C71.2702 87.1892 71.0539 85.2442 71.0539 84.4874C70.7945 80.1631 73.9008 79.1541 75.4864 79.1901C78.5999 79.4496 79.2341 82.8298 79.1621 84.4874C78.8377 87.4063 77.9368 87.9108 77.4323 88.2712C77.108 88.5955 77.108 89.0279 77.108 89.4604C77.4323 90.8649 79.5945 91.082 80.4593 91.082C82.6215 91.3415 83.2341 93.064 83.2702 93.8928V94.8658Z" fill="white"/>
<path d="M87.5541 45.0946H104.5V94.0405H87.5541V45.0946Z" fill="#0A415C" stroke="#003653"/>
<path d="M104.027 94.6496H87.9189V93.6766C88.0054 91.6009 89.8289 90.9379 90.7298 90.8658C92.6757 90.8658 93.6487 90.3243 93.973 89.2442C94.0595 88.8117 93.7928 88.2712 93.6487 88.055C92.0271 86.973 91.8108 85.0279 91.8108 84.2712C91.5514 79.9469 94.6577 78.9379 96.2433 78.9739C99.3568 79.2334 99.991 82.6135 99.9189 84.2712C99.5946 87.1901 98.6937 87.6946 98.1892 88.055C97.8649 88.3793 97.8649 88.8117 97.8649 89.2442C98.1892 90.6486 100.351 90.8658 101.216 90.8658C103.378 91.1252 103.991 92.8478 104.027 93.6766V94.6496Z" fill="white"/>
</svg>
