<svg width="130" height="130" viewBox="0 0 130 130" fill="none" xmlns="http://www.w3.org/2000/svg">
<circle cx="66.5789" cy="66.5789" r="58.4211" fill="#C2EAFC"/>
<circle cx="113.947" cy="11.3158" r="6.31579" fill="#AAE5FF"/>
<circle cx="11.3158" cy="91.8422" r="6.31579" fill="#AAE5FF"/>
<circle r="3.15789" transform="matrix(1 0 0 -1 14.4737 69.7369)" fill="white"/>
<circle r="2.36842" transform="matrix(1 0 0 -1 108.421 40.5263)" fill="white"/>
<circle cx="120.263" cy="101.316" r="3.15789" fill="#FDD1A3"/>
<circle cx="104.474" cy="8.15793" r="1.57895" fill="#AAE5FF"/>
<circle cx="119.474" cy="26.3158" r="2.36842" fill="#E40C57"/>
<circle cx="75.4999" cy="58.5" r="28.5" fill="#D8F1FD"/>
<path fill-rule="evenodd" clip-rule="evenodd" d="M98.896 120.706C98.7663 120.603 98.6175 120.527 98.4582 120.481C98.2989 120.436 98.1322 120.423 97.9676 120.442C97.8031 120.461 97.6439 120.513 97.4991 120.593C97.3543 120.674 97.2267 120.782 97.1238 120.912C97.0208 121.042 96.9444 121.191 96.8989 121.351C96.8534 121.51 96.8398 121.677 96.8587 121.842C96.8777 122.006 96.9288 122.165 97.0093 122.31C97.0898 122.455 97.198 122.582 97.3278 122.685C97.5898 122.893 97.9238 122.988 98.2562 122.949C98.5885 122.91 98.8921 122.741 99.1001 122.478C99.308 122.216 99.4033 121.882 99.3651 121.549C99.3268 121.217 99.1581 120.913 98.896 120.706Z" fill="#BFC7D2"/>
<path d="M22.7247 11.4067L23.383 11.9287C23.5576 12.0672 23.67 12.2694 23.6954 12.491C23.7209 12.7125 23.6572 12.9352 23.5186 13.1101C23.3799 13.285 23.1776 13.3977 22.9561 13.4235C22.7346 13.4492 22.512 13.3859 22.3374 13.2475L21.6791 12.7255L21.1563 13.3849C21.0176 13.5598 20.8153 13.6725 20.5938 13.6983C20.3722 13.724 20.1497 13.6607 19.9751 13.5223C19.8005 13.3839 19.6881 13.1816 19.6627 12.9601C19.6373 12.7385 19.7009 12.5158 19.8395 12.3409L20.3623 11.6815L19.704 11.1595C19.5294 11.0211 19.417 10.8189 19.3916 10.5973C19.3661 10.3758 19.4297 10.153 19.5684 9.97816C19.7071 9.80328 19.9094 9.69056 20.1309 9.66479C20.3524 9.63902 20.575 9.70232 20.7496 9.84076L21.4079 10.3628L21.9307 9.70337C22.0694 9.52849 22.2717 9.41576 22.4932 9.39C22.7147 9.36423 22.9373 9.42753 23.1119 9.56597C23.2865 9.70441 23.3989 9.90665 23.4243 10.1282C23.4497 10.3498 23.3861 10.5725 23.2475 10.7473L22.7247 11.4067Z" fill="#BFC7D2"/>
<path d="M11.7247 25.4067L12.383 25.9287C12.5576 26.0672 12.67 26.2694 12.6954 26.491C12.7209 26.7125 12.6572 26.9352 12.5186 27.1101C12.3799 27.285 12.1776 27.3977 11.9561 27.4235C11.7346 27.4492 11.512 27.3859 11.3374 27.2475L10.6791 26.7255L10.1563 27.3849C10.0176 27.5598 9.81526 27.6725 9.59375 27.6983C9.37224 27.724 9.14972 27.6607 8.97511 27.5223C8.8005 27.3839 8.68811 27.1816 8.66269 26.9601C8.63726 26.7385 8.70088 26.5158 8.83954 26.3409C8.83954 26.3409 9.40031 26.008 9.36234 25.6815C9.32442 25.3556 8.70397 25.1595 8.70397 25.1595C8.52936 25.0211 8.41698 24.8189 8.39156 24.5973C8.36613 24.3758 8.42974 24.153 8.5684 23.9782C8.70705 23.8033 8.9094 23.6906 9.13091 23.6648C9.35242 23.639 9.57496 23.7023 9.74957 23.8408L10.4079 24.3628L10.9307 23.7034C11.0694 23.5285 11.2717 23.4158 11.4932 23.39C11.7147 23.3642 11.9373 23.4275 12.1119 23.566C12.2865 23.7044 12.3989 23.9066 12.4243 24.1282C12.4497 24.3498 12.3861 24.5725 12.2475 24.7473L11.7247 25.4067Z" fill="#BFC7D2"/>
<path d="M61.0115 91.851C61.0546 90.6439 61.033 89.4368 60.9253 88.2512H70.9054C70.8408 89.2643 70.8408 90.2774 70.8623 91.2905C70.8839 92.4976 70.9701 93.7047 71.0779 94.8903C71.0779 94.8903 71.0779 94.8903 71.0779 94.9118C71.315 97.3692 72.5652 99.7834 72.9747 102.176H58.8775C59.4811 98.7272 60.9037 95.2998 61.0115 91.851Z" fill="#D6E8FE"/>
<path opacity="0.5" d="M71.0994 94.8903L61.0546 91.851H61.0115H61.0546L70.8623 91.2905C70.9054 92.4976 70.9701 93.6832 71.0994 94.8903Z" fill="black"/>
<path d="M96.9659 50.6586V89.5446C96.9659 90.8163 96.0822 91.851 94.9828 91.851H36.8694C35.7701 91.851 34.8863 90.8163 34.8863 89.5446V50.6586C34.8863 49.3868 35.7701 48.3522 36.8694 48.3522H94.9828C96.0822 48.3522 96.9659 49.3868 96.9659 50.6586Z" fill="#D6E8FE"/>
<path d="M96.9659 50.3353V84.1126H34.8863V50.3353C34.8863 49.2359 35.7701 48.3522 36.8694 48.3522H94.9828C96.0822 48.3522 96.9659 49.2359 96.9659 50.3353Z" fill="#3B4E9A"/>
<path d="M65.9261 90.1697C67.2118 90.1697 68.2541 89.1274 68.2541 87.8417C68.2541 86.556 67.2118 85.5137 65.9261 85.5137C64.6404 85.5137 63.5981 86.556 63.5981 87.8417C63.5981 89.1274 64.6404 90.1697 65.9261 90.1697Z" fill="white"/>
<path d="M94.5732 51.6071H37.3005V81.8709H94.5732V51.6071Z" fill="#D4E8FF"/>
<path opacity="0.5" d="M65.9261 50.9388C66.4023 50.9388 66.7883 50.5528 66.7883 50.0766C66.7883 49.6004 66.4023 49.2144 65.9261 49.2144C65.4499 49.2144 65.0639 49.6004 65.0639 50.0766C65.0639 50.5528 65.4499 50.9388 65.9261 50.9388Z" fill="#D1D1E6"/>
<path d="M74.0956 102.693H57.7566V102.284C57.7566 101.745 58.1877 101.314 58.7266 101.314H73.1472C73.6861 101.314 74.1172 101.745 74.1172 102.284V102.693H74.0956Z" fill="#C1D6EA"/>
<path opacity="0.5" d="M96.9659 50.6585V89.5445C96.9659 90.8163 96.0822 91.8509 94.9828 91.8509H70.0648C75.9925 86.8716 80.5191 80.211 82.9334 72.8391C84.3776 68.4202 85.0673 63.7642 85.0027 59.1298C84.9596 56.0043 83.5585 51.5208 84.1836 48.3306H95.0044C96.0822 48.3521 96.9659 49.3868 96.9659 50.6585Z" fill="black"/>
<path d="M61.6883 55.1808H61.0571C61.0198 54.9992 60.9544 54.8397 60.8611 54.7023C60.7695 54.5649 60.6575 54.4495 60.5252 54.3562C60.3945 54.2612 60.2494 54.1899 60.0899 54.1424C59.9304 54.0949 59.7642 54.0711 59.5911 54.0711C59.2755 54.0711 58.9896 54.1509 58.7334 54.3104C58.4789 54.4699 58.2761 54.7049 58.1251 55.0154C57.9758 55.3259 57.9011 55.7068 57.9011 56.1581C57.9011 56.6094 57.9758 56.9904 58.1251 57.3009C58.2761 57.6114 58.4789 57.8464 58.7334 58.0059C58.9896 58.1654 59.2755 58.2451 59.5911 58.2451C59.7642 58.2451 59.9304 58.2214 60.0899 58.1738C60.2494 58.1263 60.3945 58.0559 60.5252 57.9626C60.6575 57.8676 60.7695 57.7514 60.8611 57.6139C60.9544 57.4748 61.0198 57.3153 61.0571 57.1354H61.6883C61.6408 57.4018 61.5542 57.6402 61.4287 57.8506C61.3031 58.061 61.147 58.24 60.9604 58.3876C60.7737 58.5336 60.5642 58.6447 60.3317 58.721C60.101 58.7974 59.8541 58.8356 59.5911 58.8356C59.1466 58.8356 58.7512 58.727 58.4051 58.5098C58.0589 58.2926 57.7866 57.9838 57.5881 57.5834C57.3896 57.1829 57.2903 56.7079 57.2903 56.1581C57.2903 55.6084 57.3896 55.1333 57.5881 54.7328C57.7866 54.3324 58.0589 54.0236 58.4051 53.8064C58.7512 53.5892 59.1466 53.4807 59.5911 53.4807C59.8541 53.4807 60.101 53.5188 60.3317 53.5952C60.5642 53.6715 60.7737 53.7835 60.9604 53.9311C61.147 54.0771 61.3031 54.2552 61.4287 54.4656C61.5542 54.6743 61.6408 54.9127 61.6883 55.1808Z" fill="#3A4F9E"/>
<path d="M62.7082 53.5519H63.4616L65.233 57.8786H65.2941L67.0655 53.5519H67.8188V58.7643H67.2284V54.8041H67.1775L65.5486 58.7643H64.9785L63.3496 54.8041H63.2987V58.7643H62.7082V53.5519Z" fill="#3A4F9E"/>
<path d="M71.9349 54.855C71.9044 54.5971 71.7805 54.3969 71.5633 54.2544C71.3461 54.1118 71.0798 54.0406 70.7642 54.0406C70.5334 54.0406 70.3315 54.0779 70.1584 54.1526C69.987 54.2272 69.853 54.3299 69.7563 54.4605C69.6613 54.5912 69.6138 54.7396 69.6138 54.9059C69.6138 55.045 69.6469 55.1647 69.713 55.2648C69.7809 55.3632 69.8674 55.4455 69.9726 55.5117C70.0778 55.5761 70.1881 55.6296 70.3035 55.672C70.4189 55.7127 70.5249 55.7458 70.6216 55.7713L71.151 55.9138C71.2868 55.9494 71.4378 55.9986 71.604 56.0614C71.772 56.1242 71.9324 56.2099 72.0851 56.3185C72.2395 56.4254 72.3667 56.5628 72.4668 56.7308C72.5669 56.8987 72.617 57.1049 72.617 57.3492C72.617 57.6309 72.5432 57.8854 72.3956 58.1128C72.2497 58.3401 72.0359 58.5208 71.7542 58.6549C71.4742 58.7889 71.134 58.8559 70.7336 58.8559C70.3603 58.8559 70.0371 58.7957 69.7639 58.6752C69.4924 58.5548 69.2787 58.3868 69.1226 58.1713C68.9682 57.9558 68.8808 57.7055 68.8604 57.4205H69.512C69.5289 57.6173 69.5951 57.7802 69.7105 57.9092C69.8276 58.0364 69.9752 58.1314 70.1533 58.1942C70.3332 58.2553 70.5266 58.2858 70.7336 58.2858C70.9746 58.2858 71.1909 58.2468 71.3826 58.1688C71.5744 58.089 71.7262 57.9787 71.8382 57.8379C71.9502 57.6954 72.0062 57.5291 72.0062 57.339C72.0062 57.166 71.9578 57.0251 71.8611 56.9166C71.7644 56.808 71.6371 56.7197 71.4793 56.6519C71.3215 56.584 71.151 56.5246 70.9678 56.4737L70.3264 56.2905C69.9192 56.1734 69.5968 56.0063 69.3593 55.7891C69.1217 55.5719 69.0029 55.2877 69.0029 54.9365C69.0029 54.6446 69.0818 54.3901 69.2396 54.1729C69.3991 53.954 69.6129 53.7844 69.881 53.6639C70.1508 53.5417 70.452 53.4807 70.7845 53.4807C71.1205 53.4807 71.4191 53.5409 71.6804 53.6614C71.9417 53.7801 72.1487 53.943 72.3014 54.15C72.4558 54.357 72.5373 54.592 72.5457 54.855H71.9349Z" fill="#3A4F9E"/>
<g opacity="0.5">
<path d="M63.6197 70.7051C63.6412 70.5757 63.8352 70.4248 64.0723 70.3817L65.883 69.9722C66.1201 69.9291 66.271 69.692 66.2279 69.4549L65.7752 66.9113C65.7321 66.6742 65.5166 66.5018 65.2795 66.5449L63.4257 66.782C63.1886 66.8035 62.9515 66.7389 62.8868 66.6311C62.8221 66.5233 62.779 66.0922 62.9084 65.8982L64.0508 64.3893C64.2017 64.1953 64.1586 63.9151 63.9861 63.7642L62.003 62.1045C61.8306 61.9536 61.5504 61.9751 61.3779 62.1476L60.063 63.5487C59.9122 63.7211 59.675 63.8289 59.5673 63.7858C59.4595 63.7427 59.1577 63.4625 59.1362 63.2253L59.0284 61.2854C59.0068 61.0482 58.8128 60.8542 58.5757 60.8542H55.9891C55.752 60.8542 55.558 61.0482 55.5364 61.2854L55.4286 63.2253C55.4071 63.4625 55.3209 63.678 55.2131 63.7211C55.1053 63.7642 54.6957 63.7211 54.5449 63.5487L53.2084 62.1045C53.0575 61.932 52.7558 61.9105 52.5833 62.0614L50.6002 63.7211C50.4278 63.872 50.3847 64.1522 50.5356 64.3462L51.6995 65.8982C51.8504 66.0922 51.9151 66.3293 51.8504 66.4155C51.7858 66.5018 51.4624 66.7389 51.2253 66.7173L49.2853 66.4802C49.0482 66.4587 48.8327 66.6095 48.7896 66.8467L48.3369 69.3902C48.2938 69.6273 48.4447 69.8644 48.6818 69.9075L50.5356 70.3386C50.7727 70.3817 50.9667 70.5326 50.9882 70.6404C51.0098 70.7482 50.902 71.1793 50.708 71.3086L49.0913 72.3433C48.8973 72.4726 48.8327 72.7528 48.9405 72.9468L50.2338 75.1886C50.3631 75.4042 50.6218 75.4688 50.8373 75.361L52.4971 74.5204C52.7126 74.4126 52.9498 74.391 53.0575 74.4773C53.1438 74.5635 53.3593 74.9515 53.2731 75.1886L52.7342 76.9777C52.6695 77.2148 52.7989 77.4519 53.0144 77.5381L55.4286 78.4219C55.6442 78.5081 55.9028 78.4004 56.0106 78.1632L56.722 76.5035C56.8082 76.2879 57.0237 76.1155 57.1746 76.1155C57.1746 76.1155 57.1746 76.1155 57.3255 76.1155C57.4117 76.1155 57.4117 76.1155 57.4117 76.1155C57.5195 76.1155 57.6704 76.2879 57.7782 76.5035L58.4895 78.1848C58.5757 78.4004 58.8344 78.5081 59.0715 78.4435L61.4857 77.5597C61.7013 77.4735 61.8306 77.2364 61.7659 76.9993L61.2486 75.2748C61.1839 75.0377 61.2055 74.8006 61.3133 74.7144C61.421 74.6282 61.8521 74.4773 62.0677 74.585L63.6844 75.4257C63.8999 75.5335 64.1586 75.4473 64.2879 75.2533L65.5812 73.0115C65.7106 72.7959 65.6243 72.5373 65.4303 72.4079L63.8999 71.4164C63.6844 71.2871 63.5981 70.8344 63.6197 70.7051ZM56.9375 72.6666C55.6226 72.4942 54.5664 71.438 54.394 70.1231C54.1569 68.1831 55.7735 66.5664 57.7135 66.8035C59.0284 66.976 60.0846 68.0322 60.257 69.3471C60.4942 71.2871 58.8775 72.9037 56.9375 72.6666Z" fill="black"/>
</g>
<path d="M65.9908 68.9807L65.5381 66.4371C65.495 66.2 65.2795 66.0276 65.0424 66.0707L63.1886 66.3078C62.9515 66.3294 62.7144 66.2647 62.6497 66.1569C62.585 66.0491 62.5419 65.618 62.6713 65.424L63.8137 63.9152C63.9646 63.7212 63.9215 63.4409 63.749 63.29L61.7659 61.6303C61.5935 61.4794 61.3133 61.5009 61.1408 61.6734L61.0762 61.7381L59.826 63.0745C59.6535 63.2469 59.438 63.3547 59.3302 63.3116C59.2224 63.2685 58.9206 62.9883 58.9206 62.7512L58.8129 60.8112C58.8129 60.5741 58.5973 60.3801 58.3602 60.3801H55.7735C55.5364 60.3801 55.3209 60.5741 55.3209 60.8112L55.2131 62.7512C55.2131 62.9883 55.1053 63.2038 54.9975 63.2469C54.8898 63.29 54.4802 63.2469 54.3293 63.0745L52.9929 61.6303C52.8204 61.4578 52.5618 61.4363 52.3678 61.5872L50.3847 63.2469C50.2122 63.3978 50.1691 63.678 50.32 63.872L51.484 65.424C51.6349 65.618 51.6996 65.8551 51.6349 65.9414C51.5702 66.0491 51.2253 66.2647 51.0098 66.2431L49.0698 66.006C48.8327 65.9845 48.6171 66.1354 48.574 66.3725L48.1214 68.916C48.0783 69.1531 48.2291 69.3902 48.4663 69.4333L50.32 69.8644C50.5571 69.9291 50.7511 70.0584 50.7727 70.1878C50.7942 70.2956 50.6865 70.7267 50.4925 70.8344L48.8758 71.8691C48.6818 71.9984 48.6171 72.2787 48.7249 72.4727L50.0182 74.7144C50.126 74.93 50.4062 74.9946 50.6218 74.8869L52.2816 74.0462C52.4971 73.9384 52.7342 73.9169 52.842 74.0031C52.9282 74.0893 53.1438 74.4773 53.0576 74.7144L52.5187 76.5035C52.454 76.7191 52.5833 76.9777 52.7989 77.064L54.8467 77.8184L55.2347 77.9477C55.4502 78.0339 55.7089 77.9262 55.8167 77.6891L56.528 76.0077C56.6142 75.7922 56.8298 75.6197 56.9806 75.6197C56.9806 75.6197 56.9806 75.6197 57.1315 75.6197C57.2178 75.6197 57.2178 75.6197 57.2178 75.6197C57.3255 75.6197 57.4764 75.7922 57.5842 76.0077L58.2955 77.6891C58.3817 77.9046 58.6404 78.0124 58.8775 77.9477L61.2917 77.064C61.5073 76.9777 61.6366 76.7406 61.5719 76.5035L61.0546 74.7791C60.99 74.5635 61.0115 74.3049 61.1193 74.2186C61.2271 74.1324 61.6582 74.0031 61.8737 74.1109L63.4904 74.9515C63.7059 75.0593 63.9646 74.9731 64.0939 74.7791L65.3873 72.5373C65.5166 72.3218 65.4519 72.0631 65.2364 71.9338L63.7059 70.9422C63.5119 70.8129 63.4042 70.3818 63.4257 70.2524C63.4473 70.1231 63.6413 69.9722 63.8784 69.9291L65.689 69.5196C65.883 69.4549 66.0339 69.2178 65.9908 68.9807ZM54.1784 69.6489C53.9413 67.7089 55.558 66.0923 57.498 66.3294C58.8129 66.5018 59.8691 67.558 60.0415 68.8729C60.2786 70.8129 58.662 72.4295 56.722 72.1924C55.4071 72.0415 54.3509 70.9638 54.1784 69.6489Z" fill="#FAD94C"/>
<path opacity="0.5" d="M57.0668 64.5187C54.4586 64.5187 52.3246 66.6311 52.3246 69.2393C52.3246 71.8475 54.4371 73.9599 57.0668 73.9599C59.6966 73.9599 61.7875 71.8475 61.7875 69.2393C61.809 66.6311 59.6966 64.5187 57.0668 64.5187ZM56.7219 72.214C55.4071 72.0415 54.3509 70.9853 54.1784 69.6704C53.9413 67.7304 55.558 66.1138 57.4979 66.3509C58.8128 66.5233 59.869 67.5795 60.0415 68.8944C60.2786 70.8129 58.6619 72.4511 56.7219 72.214Z" fill="black"/>
<path opacity="0.5" d="M65.6459 69.498L63.8352 69.9076C63.5981 69.9722 63.4041 70.1016 63.3826 70.2309C63.361 70.3602 63.4688 70.7913 63.6628 70.9207L65.1932 71.9122C65.3872 72.0415 65.4519 72.3218 65.3441 72.5158L64.0508 74.7575C63.943 74.9731 63.6628 75.0377 63.4473 74.93L61.8306 74.0893C61.615 73.9815 61.1839 74.1324 61.0762 74.1971C60.9684 74.2833 60.9468 74.542 61.0115 74.7575L61.5288 76.482C61.5935 76.7191 61.4642 76.9562 61.2486 77.0424L58.8344 77.9262C58.6188 78.0124 58.3602 77.9046 58.2524 77.6675L57.5411 75.9862C57.4548 75.7706 57.2824 75.5982 57.1746 75.5982C57.1746 75.5982 57.1746 75.5982 57.0884 75.5982C56.9375 75.5982 56.9375 75.5982 56.9375 75.5982C56.7866 75.5982 56.5711 75.7706 56.4849 75.9862L55.7735 77.6675C55.6873 77.8831 55.4286 77.9908 55.1915 77.9262L54.8035 77.7968C55.17 77.2364 55.5795 76.6975 56.0322 76.2017C57.1962 74.9084 58.5542 73.7444 59.4811 72.2571C61.6366 68.8729 60.7528 65.424 61.0546 61.7165L61.1193 61.6518C61.2917 61.4794 61.5504 61.4578 61.7444 61.6087L63.7275 63.2685C63.8999 63.4194 63.943 63.6996 63.7921 63.8936L62.6497 65.4025C62.4988 65.5965 62.5635 66.0276 62.6281 66.1354C62.6928 66.2431 62.9299 66.3078 63.167 66.2862L65.0208 66.0491C65.2579 66.0276 65.4735 66.1785 65.5166 66.4156L65.9692 68.9591C66.0339 69.2178 65.883 69.4549 65.6459 69.498Z" fill="black"/>
<g opacity="0.5">
<path d="M79.8078 73.9815C79.8293 73.8737 80.0233 73.7444 80.2604 73.6797L81.6184 73.3564C81.8556 73.3133 82.0064 73.0762 81.9633 72.839L81.6184 70.8559C81.5753 70.6188 81.3598 70.4464 81.1227 70.4895L79.7216 70.662C79.4845 70.6835 79.2473 70.6404 79.2042 70.5542C79.1611 70.468 79.118 70.08 79.2689 69.886L80.1311 68.7435C80.282 68.5495 80.2389 68.2693 80.0665 68.1184L78.536 66.8251C78.3636 66.6742 78.0834 66.6958 77.9109 66.8682L76.9194 67.946C76.7685 68.1184 76.5529 68.2262 76.4667 68.2046C76.3805 68.1831 76.1218 67.9029 76.1218 67.6657L76.0571 66.1784C76.0356 65.9413 75.8416 65.7473 75.6045 65.7473H73.5998C73.3627 65.7473 73.1687 65.9413 73.1472 66.1784L73.0609 67.6657C73.0394 67.9029 72.9747 68.1184 72.8669 68.14C72.7807 68.1615 72.4143 68.1184 72.2634 67.946L71.2287 66.8466C71.0778 66.6742 70.7761 66.6526 70.6036 66.8035L69.0732 68.0969C68.9007 68.2477 68.8576 68.528 69.0085 68.722L69.8923 69.9075C70.0432 70.1015 70.1079 70.3171 70.0647 70.4033C70.0216 70.4895 69.6983 70.6835 69.4612 70.6404L67.9739 70.4464C67.7368 70.4248 67.5212 70.5757 67.4781 70.8128L67.1332 72.7959C67.0901 73.033 67.241 73.2702 67.4781 73.3133L68.9008 73.6366C69.1379 73.6797 69.3319 73.809 69.3534 73.9168C69.375 74.0246 69.2456 74.3695 69.0516 74.4988L67.823 75.2964C67.629 75.4257 67.5643 75.7059 67.6721 75.8999L68.6852 77.6459C68.793 77.8615 69.0732 77.9261 69.2887 77.8183L70.539 77.1717C70.7545 77.0639 70.9916 77.0424 71.0563 77.107C71.1425 77.1717 71.2934 77.5381 71.2287 77.7752L70.8192 79.1332C70.7545 79.3703 70.8838 79.6074 71.0994 79.6937L72.9963 80.3834C73.2118 80.4697 73.4705 80.3619 73.5783 80.1248L74.1172 78.853C74.2034 78.6375 74.3974 78.465 74.5267 78.465C74.5267 78.465 74.5267 78.465 74.656 78.465C74.7423 78.465 74.7423 78.465 74.7423 78.465C74.8285 78.465 74.9794 78.6375 75.0656 78.853L75.6045 80.1248C75.6907 80.3403 75.9494 80.4481 76.1865 80.3834L78.0834 79.6937C78.2989 79.6074 78.4282 79.3703 78.3636 79.1332L77.9756 77.8399C77.9109 77.6028 77.9109 77.3657 77.9971 77.301C78.0834 77.2363 78.4714 77.1286 78.6869 77.2364L79.9156 77.8615C80.1311 77.9692 80.3898 77.883 80.5191 77.689L81.5322 75.943C81.64 75.7275 81.5753 75.4688 81.3813 75.3395L80.2173 74.585C79.894 74.4773 79.7862 74.0893 79.8078 73.9815ZM74.2465 75.6197C73.1472 75.4904 72.2634 74.585 72.1125 73.4857C71.9185 71.869 73.2765 70.5111 74.8716 70.7266C75.9709 70.8559 76.8547 71.7613 77.0056 72.8606C77.1996 74.4773 75.8416 75.8353 74.2465 75.6197Z" fill="black"/>
</g>
<path d="M81.8124 72.5373L81.446 70.4248C81.4029 70.2308 81.2305 70.08 81.0365 70.1231L79.4845 70.3171C79.2905 70.3386 79.0965 70.2955 79.0318 70.1877C78.9887 70.1015 78.9456 69.7351 79.0534 69.5842L80.0018 68.3124C80.1311 68.1615 80.088 67.9244 79.9371 67.7951L78.2774 66.4155C78.1265 66.2862 77.8894 66.3078 77.76 66.4586L77.7169 66.5017L76.6823 67.6226C76.5529 67.7735 76.3589 67.8597 76.2727 67.8166C76.1865 67.7735 75.9278 67.5364 75.9278 67.3424L75.8416 65.7258C75.8416 65.5318 75.6692 65.3593 75.4536 65.3593H73.2981C73.1041 65.3593 72.9316 65.5318 72.9101 65.7258L72.8238 67.3424C72.8238 67.5364 72.7376 67.7304 72.6514 67.752C72.5652 67.7735 72.2203 67.752 72.091 67.6011L70.9701 66.394C70.8407 66.2431 70.6036 66.2431 70.4527 66.3509L68.8145 67.7304C68.6636 67.8597 68.6421 68.0969 68.7499 68.2477L69.7199 69.5411C69.8492 69.692 69.8923 69.8859 69.8492 69.9722C69.8061 70.0584 69.5259 70.2524 69.3103 70.2308L67.6937 70.0368C67.4997 70.0153 67.3057 70.1446 67.2625 70.3386L66.8961 72.451C66.853 72.645 66.9823 72.839 67.1763 72.8822L68.7283 73.2486C68.9223 73.2917 69.0948 73.421 69.0948 73.5073C69.1163 73.615 69.0085 73.9384 68.8576 74.0461L67.5212 74.9084C67.3488 75.0161 67.3057 75.2532 67.3919 75.4257L68.4697 77.301C68.5774 77.4735 68.793 77.5381 68.9654 77.4519L70.345 76.7406C70.5174 76.6543 70.733 76.6328 70.7976 76.6975C70.8839 76.7621 71.0347 77.107 70.9916 77.2795L70.539 78.7668C70.4743 78.9608 70.5821 79.1763 70.7761 79.241L72.479 79.8661L72.8023 79.9739C72.9963 80.0385 73.2118 79.9523 73.2765 79.7583L73.8585 78.3572C73.9447 78.1848 74.1172 78.0339 74.2465 78.0339C74.2465 78.0339 74.2465 78.0339 74.3758 78.0339C74.4621 78.0339 74.4621 78.0339 74.4621 78.0339C74.5483 78.0339 74.6776 78.1848 74.7638 78.3572L75.3674 79.7583C75.4536 79.9308 75.6692 80.0385 75.8416 79.9739L77.8678 79.241C78.0618 79.1763 78.1696 78.9608 78.1049 78.7668L77.6738 77.3226C77.6091 77.1286 77.6307 76.913 77.7169 76.8483C77.8031 76.7837 78.1696 76.6543 78.342 76.7406L79.7 77.4303C79.8725 77.5166 80.1096 77.4519 80.1958 77.2795L81.2736 75.4041C81.3813 75.2317 81.3167 74.9946 81.1442 74.8868L79.8725 74.0677C79.7 73.9599 79.6354 73.5935 79.6354 73.4857C79.6569 73.3779 79.8293 73.2486 80.0233 73.2055L81.5322 72.8606C81.7047 72.9253 81.834 72.7313 81.8124 72.5373ZM71.9185 73.0977C71.7245 71.4811 73.0825 70.1231 74.6776 70.3386C75.7769 70.4679 76.6607 71.3733 76.8116 72.4726C77.0056 74.0893 75.6476 75.4472 74.0525 75.2317C72.9532 75.1024 72.0694 74.197 71.9185 73.0977Z" fill="#F65FA6"/>
<path opacity="0.5" d="M74.3543 68.8082C72.1772 68.8082 70.4096 70.5758 70.4096 72.7529C70.4096 74.93 72.1772 76.6975 74.3543 76.6975C76.5314 76.6975 78.2989 74.93 78.2989 72.7529C78.2989 70.5758 76.5314 68.8082 74.3543 68.8082ZM74.0525 75.2317C72.9532 75.1024 72.0694 74.1971 71.9185 73.0978C71.7245 71.4811 73.0825 70.1231 74.6776 70.3387C75.7769 70.468 76.6607 71.3733 76.8116 72.4726C77.0271 74.0893 75.6691 75.4473 74.0525 75.2317Z" fill="black"/>
<path opacity="0.5" d="M81.5107 72.99L80.0018 73.3348C79.8078 73.378 79.6353 73.5073 79.6138 73.6151C79.5922 73.7228 79.6785 74.0893 79.8509 74.1971L81.1227 75.0162C81.2951 75.1239 81.3382 75.3611 81.252 75.5335L80.1742 77.4088C80.0665 77.5813 79.8509 77.6459 79.6785 77.5597L78.3205 76.8699C78.148 76.7837 77.7816 76.8915 77.6954 76.9777C77.6091 77.0424 77.5876 77.2579 77.6522 77.4519L78.0833 78.8961C78.148 79.0901 78.0402 79.3057 77.8462 79.3704L75.82 80.1032C75.626 80.1679 75.4105 80.0817 75.3458 79.8877L74.7423 78.4866C74.656 78.3141 74.5267 78.1633 74.4405 78.1633C74.4405 78.1633 74.4405 78.1633 74.3543 78.1633C74.2249 78.1633 74.2249 78.1633 74.2249 78.1633C74.0956 78.1633 73.9232 78.2926 73.8369 78.4866L73.2549 79.8877C73.1687 80.0601 72.9532 80.1679 72.7807 80.1032L72.4574 79.9955C72.7592 79.5212 73.1041 79.0686 73.4705 78.659C74.4405 77.5597 75.5614 76.6113 76.3589 75.3826C78.1696 72.5589 77.4151 69.6704 77.6738 66.588L77.7169 66.5449C77.8462 66.394 78.0834 66.394 78.2342 66.5018L79.894 67.8813C80.0449 68.0107 80.0665 68.2478 79.9587 68.3987L79.0102 69.6704C78.8809 69.8213 78.9456 70.1878 78.9887 70.274C79.0318 70.3602 79.2473 70.4249 79.4413 70.4033L80.9933 70.2093C81.1873 70.1878 81.3813 70.3171 81.4029 70.5111L81.7693 72.6235C81.834 72.7313 81.7047 72.9253 81.5107 72.99Z" fill="black"/>
<path d="M95.069 39.4929H93.7757C93.711 39.4929 93.6679 39.4498 93.6679 39.3851C93.6679 39.3205 93.711 39.2773 93.7757 39.2773H95.069C95.1337 39.2773 95.1768 39.3205 95.1768 39.3851C95.1768 39.4498 95.1121 39.4929 95.069 39.4929Z" fill="#273775"/>
<path d="M103.993 39.4929H101.751C101.687 39.4929 101.643 39.4498 101.643 39.3851C101.643 39.3205 101.687 39.2773 101.751 39.2773H103.993C104.058 39.2773 104.101 39.3205 104.101 39.3851C104.101 39.4498 104.058 39.4929 103.993 39.4929ZM99.531 39.4929H97.2892C97.2246 39.4929 97.1815 39.4498 97.1815 39.3851C97.1815 39.3205 97.2246 39.2773 97.2892 39.2773H99.531C99.5957 39.2773 99.6388 39.3205 99.6388 39.3851C99.6388 39.4498 99.5957 39.4929 99.531 39.4929Z" fill="#273775"/>
<path d="M107.528 40.7862C107.463 40.7862 107.42 40.7431 107.42 40.6784V39.4929H106.235C106.17 39.4929 106.127 39.4498 106.127 39.3851C106.127 39.3205 106.17 39.2773 106.235 39.2773H107.528C107.593 39.2773 107.636 39.3205 107.636 39.3851V40.6784C107.636 40.7431 107.593 40.7862 107.528 40.7862Z" fill="#273775"/>
<path d="M107.528 52.1459C107.463 52.1459 107.42 52.1028 107.42 52.0381V49.1928C107.42 49.1281 107.463 49.085 107.528 49.085C107.593 49.085 107.636 49.1281 107.636 49.1928V52.0381C107.636 52.1028 107.593 52.1459 107.528 52.1459ZM107.528 46.4768C107.463 46.4768 107.42 46.4337 107.42 46.369V43.5237C107.42 43.4591 107.463 43.416 107.528 43.416C107.593 43.416 107.636 43.4591 107.636 43.5237V46.369C107.636 46.4122 107.593 46.4768 107.528 46.4768Z" fill="#273775"/>
<path d="M107.528 56.2845C107.463 56.2845 107.42 56.2414 107.42 56.1767V54.8834C107.42 54.8187 107.463 54.7756 107.528 54.7756C107.593 54.7756 107.636 54.8187 107.636 54.8834V56.1767C107.636 56.2198 107.593 56.2845 107.528 56.2845Z" fill="#273775"/>
<path d="M107.657 70.5111C111.217 70.5111 114.102 67.6256 114.102 64.066C114.102 60.5065 111.217 57.621 107.657 57.621C104.098 57.621 101.212 60.5065 101.212 64.066C101.212 67.6256 104.098 70.5111 107.657 70.5111Z" fill="#D34C96"/>
<path d="M114.081 63.6349C114.081 67.1916 111.192 70.08 107.636 70.08C106.903 70.08 106.213 69.9507 105.567 69.7351C103.023 68.8729 101.212 66.4803 101.212 63.6349C101.212 60.0783 104.101 57.2114 107.636 57.2114C108.757 57.2114 109.791 57.4916 110.697 57.9874C112.723 59.0652 114.081 61.1992 114.081 63.6349Z" fill="#F65FA6"/>
<path d="M111.408 66.5233C111.365 64.4971 109.705 62.8589 107.657 62.8589C105.61 62.8589 103.95 64.4971 103.907 66.5233H111.408Z" fill="#F5F5FA"/>
<path d="M107.657 62.5571C108.61 62.5571 109.382 61.7851 109.382 60.8327C109.382 59.8803 108.61 59.1083 107.657 59.1083C106.705 59.1083 105.933 59.8803 105.933 60.8327C105.933 61.7851 106.705 62.5571 107.657 62.5571Z" fill="#F5F5FA"/>
<path opacity="0.5" d="M114.081 63.6349C114.081 67.1915 111.192 70.08 107.636 70.08C106.903 70.08 106.213 69.9506 105.567 69.7351C105.653 69.6488 105.739 69.5626 105.825 69.498C106.903 68.5064 108.153 67.6657 109.058 66.5018C110.093 65.1869 110.654 63.5271 110.848 61.8673C110.934 61.0051 110.934 60.1429 110.869 59.3022C110.848 58.8927 110.718 58.44 110.718 57.9874C112.723 59.0651 114.081 61.1991 114.081 63.6349Z" fill="black"/>
<path d="M86.3607 45.5714C89.9202 45.5714 92.8057 42.6859 92.8057 39.1263C92.8057 35.5668 89.9202 32.6813 86.3607 32.6813C82.8011 32.6813 79.9156 35.5668 79.9156 39.1263C79.9156 42.6859 82.8011 45.5714 86.3607 45.5714Z" fill="#DDB300"/>
<path d="M92.8057 38.6953C92.8057 42.252 89.9173 45.1404 86.3607 45.1404C85.6278 45.1404 84.938 45.011 84.2913 44.7955C81.7478 43.9333 79.9371 41.5191 79.9371 38.6953C79.9371 35.1387 82.8256 32.2502 86.3607 32.2502C87.4815 32.2502 88.5162 32.5305 89.4215 33.0262C91.4477 34.1256 92.8057 36.2596 92.8057 38.6953Z" fill="#FAD94C"/>
<path d="M90.1113 41.5622C90.0682 39.536 88.4084 37.8978 86.3607 37.8978C84.3129 37.8978 82.6531 39.536 82.61 41.5622H90.1113Z" fill="#F5F5FA"/>
<path d="M86.3607 37.596C87.313 37.596 88.0851 36.824 88.0851 35.8716C88.0851 34.9192 87.313 34.1472 86.3607 34.1472C85.4083 34.1472 84.6362 34.9192 84.6362 35.8716C84.6362 36.824 85.4083 37.596 86.3607 37.596Z" fill="#F5F5FA"/>
<path opacity="0.5" d="M92.8057 38.6954C92.8057 42.252 89.9173 45.1404 86.3607 45.1404C85.6278 45.1404 84.938 45.0111 84.2913 44.7956C84.3776 44.7093 84.4638 44.6231 84.55 44.5584C85.6278 43.5669 86.878 42.7262 87.7833 41.5622C88.818 40.2474 89.3784 38.5876 89.5724 36.9278C89.6586 36.0656 89.6586 35.2034 89.594 34.3627C89.5724 33.9532 89.4431 33.5005 89.4431 33.0479C91.4477 34.1256 92.8057 36.2596 92.8057 38.6954Z" fill="black"/>
<path d="M72.7161 31.4312H54.2215C53.1007 31.4312 52.1738 32.3365 52.1738 33.4789V42.9417C52.1738 44.0626 53.0791 44.9895 54.2215 44.9895H54.5664V50.5939L58.3386 44.9895H72.7161C73.837 44.9895 74.7638 44.0842 74.7638 42.9417V33.4789C74.7638 32.358 73.8585 31.4312 72.7161 31.4312Z" fill="#D34C96"/>
<path d="M74.7207 33.0478V42.5106C74.7207 43.6315 73.8154 44.5584 72.673 44.5584H58.2955L54.5233 50.1628V44.5584H54.1784C53.0576 44.5584 52.1307 43.653 52.1307 42.5106V33.0478C52.1307 31.9269 53.036 31 54.1784 31H72.673C73.8154 31 74.7207 31.9269 74.7207 33.0478Z" fill="#F65FA6"/>
<path d="M58.5326 39.3205C59.4374 39.3205 60.1708 38.587 60.1708 37.6823C60.1708 36.7775 59.4374 36.0441 58.5326 36.0441C57.6279 36.0441 56.8944 36.7775 56.8944 37.6823C56.8944 38.587 57.6279 39.3205 58.5326 39.3205Z" fill="#F5F5FA"/>
<path d="M63.6628 39.3206C64.5676 39.3206 65.301 38.5871 65.301 37.6823C65.301 36.7776 64.5676 36.0441 63.6628 36.0441C62.7581 36.0441 62.0246 36.7776 62.0246 37.6823C62.0246 38.5871 62.7581 39.3206 63.6628 39.3206Z" fill="#F5F5FA"/>
<path d="M68.793 39.3206C69.6978 39.3206 70.4312 38.5871 70.4312 37.6823C70.4312 36.7776 69.6978 36.0441 68.793 36.0441C67.8883 36.0441 67.1548 36.7776 67.1548 37.6823C67.1548 38.5871 67.8883 39.3206 68.793 39.3206Z" fill="#F5F5FA"/>
<path opacity="0.5" d="M74.7207 33.0478V42.5106C74.7207 43.6315 73.8154 44.5583 72.673 44.5583H62.3048C62.4557 44.3643 62.6497 44.1919 62.8437 44.0626C63.3826 43.6746 64.0293 43.459 64.6544 43.1788C67.047 42.101 69.0517 40.1179 70.151 37.7253C70.8408 36.2164 71.1641 34.5782 71.1425 32.9184C71.1425 32.3149 71.0779 31.6251 71.1857 31.0215H72.673C73.8154 31 74.7207 31.9269 74.7207 33.0478Z" fill="black"/>
<path opacity="0.5" d="M95.7373 56.3491C95.7373 54.9911 94.6379 53.8918 93.2799 53.8918C93.1722 53.8918 93.0644 53.8918 92.9566 53.9134C92.9782 53.7625 92.9782 53.6116 92.9782 53.4607C92.9782 51.0465 91.0166 49.1065 88.624 49.1065C86.684 49.1065 85.0458 50.3783 84.4853 52.1243C84.356 52.1027 84.2051 52.0812 84.0542 52.0812C82.8471 52.0812 81.8556 52.9434 81.64 54.0643C81.3598 53.9565 81.0796 53.8918 80.7562 53.8918C79.3983 53.8918 78.2989 54.9911 78.2989 56.3491C78.2989 57.5778 79.2043 58.6124 80.4114 58.7849C80.5191 58.8064 80.6485 58.828 80.7778 58.828H93.1722C93.2799 58.828 93.3877 58.8064 93.4955 58.7849C94.7241 58.6987 95.7373 57.6425 95.7373 56.3491Z" fill="black"/>
<path d="M95.7373 55.8749C95.7373 54.517 94.6379 53.4176 93.2799 53.4176C93.1722 53.4176 93.0644 53.4176 92.9566 53.4392C92.9782 53.2883 92.9782 53.1374 92.9782 52.9865C92.9782 50.5723 91.0166 48.6323 88.624 48.6323C86.684 48.6323 85.0458 49.9041 84.4853 51.6501C84.356 51.6285 84.2051 51.607 84.0542 51.607C82.8471 51.607 81.8556 52.4692 81.64 53.5901C81.3598 53.4823 81.0796 53.4176 80.7562 53.4176C79.3983 53.4176 78.2989 54.517 78.2989 55.8749C78.2989 57.1036 79.2043 58.1383 80.4114 58.3107C80.5191 58.3323 80.6485 58.3538 80.7778 58.3538H93.1722C93.2799 58.3538 93.3877 58.3323 93.4955 58.3107C94.7242 58.2245 95.7373 57.1683 95.7373 55.8749Z" fill="#FDFDFF"/>
<path opacity="0.5" d="M47.4532 82.8839V81.8277C47.4532 81.0086 46.7849 80.3188 45.9443 80.3188H43.9827H20.5089C20.0993 80.3188 19.7113 80.4913 19.4527 80.75C19.4311 80.7715 19.4096 80.7931 19.388 80.8146C19.3664 80.8362 19.3664 80.8362 19.3449 80.8577C19.1293 81.1164 19 81.4613 19 81.8062V82.8624V83.0348V100.042C19 100.861 19.6682 101.551 20.5089 101.551H29.5406H45.9443C46.7634 101.551 47.4532 100.883 47.4532 100.042V83.0348V82.8839Z" fill="black"/>
<path d="M48.0351 80.6206V98.8565C48.0351 99.6756 47.3669 100.365 46.5263 100.365H21.0909C20.2502 100.365 19.582 99.6971 19.582 98.8565V80.6206C19.582 79.8015 20.2502 79.1117 21.0909 79.1117H46.5263C47.3669 79.1332 48.0351 79.8015 48.0351 80.6206Z" fill="#FDFDFF"/>
<path d="M48.0351 80.6206V81.6768H19.582V80.6206C19.582 79.8015 20.2502 79.1117 21.0909 79.1117H46.5263C47.3669 79.1332 48.0351 79.8015 48.0351 80.6206Z" fill="#3B4E9A"/>
<path d="M21.6298 81.1811C21.9512 81.1811 22.2117 80.9205 22.2117 80.5991C22.2117 80.2777 21.9512 80.0171 21.6298 80.0171C21.3083 80.0171 21.0478 80.2777 21.0478 80.5991C21.0478 80.9205 21.3083 81.1811 21.6298 81.1811Z" fill="#DD4F3D"/>
<path d="M23.268 81.1811C23.5894 81.1811 23.85 80.9205 23.85 80.5991C23.85 80.2777 23.5894 80.0171 23.268 80.0171C22.9465 80.0171 22.686 80.2777 22.686 80.5991C22.686 80.9205 22.9465 81.1811 23.268 81.1811Z" fill="#EEC046"/>
<path d="M24.9062 81.1811C25.2276 81.1811 25.4882 80.9205 25.4882 80.5991C25.4882 80.2777 25.2276 80.0171 24.9062 80.0171C24.5847 80.0171 24.3242 80.2777 24.3242 80.5991C24.3242 80.9205 24.5847 81.1811 24.9062 81.1811Z" fill="#71BD76"/>
<path d="M48.0351 81.6768H19.582V81.8493H48.0351V81.6768Z" fill="black"/>
<path d="M46.2892 83.3365H21.1555V84.3928H46.2892V83.3365Z" fill="#D4E8FF"/>
<path d="M46.2892 85.4275H21.1555V86.4837H46.2892V85.4275Z" fill="#D4E8FF"/>
<path d="M46.2892 97.8649H21.1555V98.9211H46.2892V97.8649Z" fill="#D4E8FF"/>
<path d="M46.3107 88.4237H32.1272V89.4799H46.3107V88.4237Z" fill="#D4E8FF"/>
<path d="M46.3107 90.5146H32.1272V91.5708H46.3107V90.5146Z" fill="#D4E8FF"/>
<path d="M46.3107 92.5839H32.1272V93.6401H46.3107V92.5839Z" fill="#D4E8FF"/>
<path d="M46.3107 94.6531H32.1272V95.7094H46.3107V94.6531Z" fill="#D4E8FF"/>
<path d="M30.8339 87.2381H21.1556V96.9165H30.8339V87.2381Z" fill="#D4E8FF"/>
<path d="M21.134 93.8126L23.9362 89.9757L26.3289 94.2221L28.3766 91.269L30.8339 94.8688V96.9166H21.1556L21.134 93.8126Z" fill="#B1D3FF"/>
<path d="M27.0617 89.9971C27.6094 89.9971 28.0533 89.5532 28.0533 89.0056C28.0533 88.458 27.6094 88.014 27.0617 88.014C26.5141 88.014 26.0702 88.458 26.0702 89.0056C26.0702 89.5532 26.5141 89.9971 27.0617 89.9971Z" fill="#B1D3FF"/>
<path opacity="0.5" d="M48.0351 80.6206V98.8564C48.0351 99.6755 47.3669 100.365 46.5263 100.365H30.1226C30.3166 99.8911 30.5968 99.4384 30.8986 99.0504C32.0626 97.5631 33.7655 96.5931 35.4683 95.7309C37.1712 94.8902 38.9388 94.1143 40.3614 92.864C42.4092 91.0749 43.6163 88.4667 44.1552 85.7939C44.4785 84.1772 44.5863 82.539 44.6078 80.9008C44.6078 80.405 44.5432 79.7583 44.5647 79.1332H46.5263C47.3669 79.1332 48.0351 79.8015 48.0351 80.6206Z" fill="black"/>
<path opacity="0.5" d="M97.8282 97.0889L89.7664 83.121C89.4431 82.5821 88.6671 82.5821 88.3438 83.121L80.2821 97.0889C79.9587 97.6278 80.3683 98.3176 80.9934 98.3176H97.1168C97.7419 98.3176 98.1515 97.6278 97.8282 97.0889Z" fill="black"/>
<path d="M98.1084 96.6363L90.0466 82.6684C89.7233 82.1295 88.9473 82.1295 88.624 82.6684L80.5623 96.6363C80.2389 97.1752 80.6485 97.8649 81.2736 97.8649H97.397C98.0221 97.8649 98.4101 97.1752 98.1084 96.6363Z" fill="#DDB300"/>
<path d="M97.4401 97.52H81.3167C80.6916 97.52 80.282 96.8302 80.6054 96.2914L88.6671 82.3234C88.9473 81.8277 89.6155 81.7846 89.982 82.1726C90.0251 82.2157 90.0682 82.2588 90.0898 82.3234L98.1515 96.2914C98.4533 96.8302 98.0653 97.52 97.4401 97.52Z" fill="#FAD94C"/>
<path d="M88.7964 84.2204L82.6316 95.4723C82.3945 95.9034 82.7178 96.4207 83.192 96.4207H95.5002C95.9959 96.4207 96.2977 95.9034 96.0606 95.4723L89.8957 84.2204C89.7017 83.7677 89.0551 83.7677 88.7964 84.2204Z" fill="#EBEBF0"/>
<path d="M88.4946 94.2867C88.4946 93.7909 88.9042 93.3598 89.4431 93.3598C89.9389 93.3598 90.37 93.7909 90.37 94.2867C90.37 94.804 89.9604 95.2351 89.4431 95.2351C88.9042 95.2351 88.4946 94.804 88.4946 94.2867ZM89.4646 86.9147C89.9173 86.9147 90.2837 87.3027 90.2622 87.7554L89.9604 92.4114H88.9689L88.6671 87.7554C88.624 87.3027 88.9904 86.9147 89.4646 86.9147Z" fill="#FAD94C"/>
<path opacity="0.5" d="M97.4402 97.52H90.2622C91.1675 96.5716 92.0297 95.5369 92.4177 94.2867C92.892 92.7347 92.6117 91.0318 92.2237 89.4367C91.7064 87.2812 91.0597 85.1472 90.2622 83.0779C90.176 82.8408 90.0251 82.4959 89.982 82.1725C90.0251 82.2157 90.0682 82.2588 90.0898 82.3234L98.1515 96.2913C98.4533 96.8302 98.0653 97.52 97.4402 97.52Z" fill="black"/>
<path opacity="0.5" d="M112.701 77.8831L95.0906 73.6367L94.7241 73.5505C94.6379 71.2225 93.0644 69.11 90.6933 68.4849C88.9904 68.0323 87.2875 68.4418 85.9942 69.4334L89.4215 70.3387L90.4346 74.0247L87.7186 76.7191L84.2913 75.8138C84.9164 77.3226 86.2098 78.5082 87.9126 78.9609C90.2837 79.586 92.7195 78.5297 93.9266 76.5467L94.2715 76.6544L111.688 81.6553C112.744 81.9571 113.822 81.332 114.102 80.2757C114.383 79.2195 113.758 78.1418 112.701 77.8831Z" fill="black"/>
<path d="M112.637 77.2364C113.693 77.4951 114.34 78.5729 114.059 79.6291C113.779 80.6853 112.68 81.3104 111.645 81.0086L94.2284 76.0078L91.9866 75.3611L92.7626 72.4296L95.0259 72.9685L112.637 77.2364Z" fill="#273775"/>
<path d="M95.0259 72.9899C95.0475 73.5073 94.9828 74.0461 94.8535 74.5635C94.7241 75.0808 94.5086 75.5766 94.2284 76.0292L91.9866 75.3826L92.7626 72.451L95.0259 72.9899Z" fill="black"/>
<path d="M85.9295 68.7866L89.3569 69.692L90.37 73.3779L87.6755 76.0939L84.2482 75.1886C84.8733 76.6975 86.1667 77.883 87.8695 78.3357C90.7795 79.1117 93.7326 77.3657 94.5086 74.4773C95.2846 71.5673 93.5386 68.6142 90.6502 67.8382C88.9473 67.3855 87.2229 67.7951 85.9295 68.7866Z" fill="#273775"/>
<path opacity="0.5" d="M43.4438 69.2178H31.0279C30.0579 69.2178 29.2604 68.4202 29.2604 67.4502C29.2604 66.4802 30.0579 65.6827 31.0279 65.6827H43.4438C44.4138 65.6827 45.2114 66.4802 45.2114 67.4502C45.2114 68.4202 44.4138 69.2178 43.4438 69.2178Z" fill="black"/>
<path d="M43.8749 68.7867H31.459C30.489 68.7867 29.6915 67.9891 29.6915 67.0191C29.6915 66.0491 30.489 65.2516 31.459 65.2516H43.8749C44.8449 65.2516 45.6425 66.0491 45.6425 67.0191C45.6425 67.9891 44.8449 68.7867 43.8749 68.7867Z" fill="#FDFDFF"/>
<path d="M31.7392 68.0754C32.3226 68.0754 32.7954 67.6025 32.7954 67.0192C32.7954 66.4358 32.3226 65.963 31.7392 65.963C31.1559 65.963 30.683 66.4358 30.683 67.0192C30.683 67.6025 31.1559 68.0754 31.7392 68.0754Z" fill="#F65FA6"/>
<path opacity="0.5" d="M41.3961 74.0031H28.9801C28.0102 74.0031 27.2126 73.2056 27.2126 72.2356C27.2126 71.2656 28.0102 70.468 28.9801 70.468H41.3961C42.3661 70.468 43.1636 71.2656 43.1636 72.2356C43.1852 73.2056 42.3876 74.0031 41.3961 74.0031Z" fill="black"/>
<path d="M41.8272 73.572H29.4113C28.4413 73.572 27.6437 72.7744 27.6437 71.8044C27.6437 70.8344 28.4413 70.0369 29.4113 70.0369H41.8272C42.7972 70.0369 43.5947 70.8344 43.5947 71.8044C43.5947 72.796 42.8187 73.572 41.8272 73.572Z" fill="#FDFDFF"/>
<path d="M29.6915 72.8607C30.2748 72.8607 30.7477 72.3878 30.7477 71.8044C30.7477 71.2211 30.2748 70.7482 29.6915 70.7482C29.1081 70.7482 28.6352 71.2211 28.6352 71.8044C28.6352 72.3878 29.1081 72.8607 29.6915 72.8607Z" fill="#FAD94C"/>
<path opacity="0.5" d="M44.9527 43.1358V42.1873C44.9527 41.7993 44.8018 41.4544 44.5432 41.2173C44.3061 40.9802 43.9827 40.8509 43.6163 40.8509H20.8107C20.0562 40.8509 19.4742 41.4544 19.4742 42.1873V43.1358V43.2867V58.5263C19.4742 59.2592 20.0778 59.8628 20.8322 59.8628H27.7731H43.6378C44.3707 59.8628 44.9958 59.2592 44.9958 58.5263V43.2867V43.1358H44.9527Z" fill="black"/>
<path d="M45.4054 41.3466V57.6856C45.4054 58.4185 44.8018 59.0221 44.0474 59.0221H21.2633C20.5089 59.0221 19.9053 58.4185 19.9053 57.6856V41.3466C19.9053 40.5922 20.5089 39.9886 21.2633 39.9886H44.0689C44.8018 39.9886 45.4054 40.5922 45.4054 41.3466Z" fill="#FDFDFF"/>
<path d="M45.4054 41.3466V42.295H19.9053V41.3466C19.9053 40.6137 20.5089 40.0101 21.2418 40.0101H44.0474C44.8018 39.9886 45.4054 40.5921 45.4054 41.3466Z" fill="#3B4E9A"/>
<path d="M21.7375 41.8425C22.0233 41.8425 22.2549 41.6108 22.2549 41.3251C22.2549 41.0394 22.0233 40.8078 21.7375 40.8078C21.4518 40.8078 21.2202 41.0394 21.2202 41.3251C21.2202 41.6108 21.4518 41.8425 21.7375 41.8425Z" fill="#DD4F3D"/>
<path d="M23.2249 41.8425C23.5106 41.8425 23.7422 41.6108 23.7422 41.3251C23.7422 41.0394 23.5106 40.8078 23.2249 40.8078C22.9392 40.8078 22.7075 41.0394 22.7075 41.3251C22.7075 41.6108 22.9392 41.8425 23.2249 41.8425Z" fill="#EEC046"/>
<path d="M24.6906 41.8425C24.9763 41.8425 25.208 41.6108 25.208 41.3251C25.208 41.0394 24.9763 40.8078 24.6906 40.8078C24.4049 40.8078 24.1733 41.0394 24.1733 41.3251C24.1733 41.6108 24.4049 41.8425 24.6906 41.8425Z" fill="#71BD76"/>
<path d="M45.4054 42.2736H19.9053V42.4244H45.4054V42.2736Z" fill="black"/>
<path d="M44.5216 42.8339H20.8753V57.9658H44.5216V42.8339Z" fill="#D4E8FF"/>
<path d="M25.15 51.0707V50.3688L30.8007 47.4908V48.6139L26.4661 50.7022L26.5012 50.632V50.8075L26.4661 50.7373L30.8007 52.8256V53.9487L25.15 51.0707Z" fill="#3B4E9A"/>
<path d="M36.1717 44.8234L33.2761 55.5807H32.3285L35.224 44.8234H36.1717Z" fill="#3B4E9A"/>
<path d="M43.348 51.0707L37.6973 53.9487V52.8256L42.0319 50.7373L41.9968 50.8075V50.632L42.0319 50.7022L37.6973 48.6139V47.4908L43.348 50.3688V51.0707Z" fill="#3B4E9A"/>
<path opacity="0.5" d="M45.4054 41.3466V57.6856C45.4054 58.4185 44.8018 59.022 44.0474 59.022H28.2042C28.8939 57.7502 30.0148 56.7371 31.2435 55.9611C32.6877 55.0343 34.2828 54.366 35.8132 53.5901C37.3436 52.8141 38.8525 51.9087 39.9734 50.5939C41.2236 49.1281 41.8918 47.2312 42.1936 45.3343C42.3661 44.1703 42.4307 42.9848 42.4307 41.7992C42.4307 41.1957 42.3661 40.5275 42.4738 40.0101H44.0689C44.8018 39.9886 45.4054 40.5921 45.4054 41.3466Z" fill="black"/>
</svg>
