<svg width="130" height="130" viewBox="0 0 130 130" fill="none" xmlns="http://www.w3.org/2000/svg">
<circle cx="66.579" cy="66.5789" r="58.4211" fill="#CEECD3"/>
<circle cx="113.947" cy="11.3158" r="6.31579" fill="#76FD8C"/>
<circle cx="11.3158" cy="91.8422" r="6.31579" fill="#76FD8C"/>
<circle r="3.15789" transform="matrix(1 0 0 -1 14.4736 69.7369)" fill="white"/>
<circle r="2.36842" transform="matrix(1 0 0 -1 108.421 40.5263)" fill="white"/>
<circle cx="120.263" cy="101.316" r="3.15789" fill="#76FD8C"/>
<circle cx="104.474" cy="8.15793" r="1.57895" fill="#76FD8C"/>
<circle cx="119.474" cy="26.3158" r="2.36842" fill="#1BB934"/>
<circle cx="79.5" cy="50.5" r="28.5" fill="#DFF3E3"/>
<path fill-rule="evenodd" clip-rule="evenodd" d="M98.896 120.706C98.7662 120.603 98.6175 120.527 98.4582 120.481C98.2989 120.436 98.1322 120.423 97.9676 120.442C97.803 120.461 97.6438 120.513 97.499 120.593C97.3542 120.674 97.2267 120.782 97.1237 120.912C97.0208 121.042 96.9443 121.191 96.8989 121.351C96.8534 121.51 96.8397 121.677 96.8587 121.842C96.8776 122.006 96.9288 122.165 97.0093 122.31C97.0897 122.455 97.198 122.582 97.3277 122.685C97.5898 122.893 97.9238 122.988 98.2561 122.949C98.5885 122.91 98.892 122.741 99.1 122.478C99.308 122.216 99.4033 121.882 99.365 121.549C99.3268 121.217 99.1581 120.913 98.896 120.706Z" fill="#BFC7D2"/>
<path d="M22.7246 11.4067L23.3829 11.9287C23.5576 12.0672 23.6699 12.2694 23.6954 12.491C23.7208 12.7125 23.6572 12.9352 23.5185 13.1101C23.3799 13.285 23.1775 13.3977 22.956 13.4235C22.7345 13.4492 22.512 13.3859 22.3373 13.2475L21.679 12.7255L21.1562 13.3849C21.0175 13.5598 20.8152 13.6725 20.5937 13.6983C20.3722 13.724 20.1496 13.6607 19.975 13.5223C19.8004 13.3839 19.688 13.1816 19.6626 12.9601C19.6372 12.7385 19.7008 12.5158 19.8395 12.3409L20.3623 11.6815L19.7039 11.1595C19.5293 11.0211 19.4169 10.8189 19.3915 10.5973C19.3661 10.3758 19.4297 10.153 19.5683 9.97816C19.707 9.80328 19.9093 9.69056 20.1308 9.66479C20.3523 9.63902 20.5749 9.70232 20.7495 9.84076L21.4079 10.3628L21.9307 9.70337C22.0693 9.52849 22.2716 9.41576 22.4932 9.39C22.7147 9.36423 22.9372 9.42753 23.1118 9.56597C23.2864 9.70441 23.3988 9.90665 23.4242 10.1282C23.4496 10.3498 23.386 10.5725 23.2474 10.7473L22.7246 11.4067Z" fill="#BFC7D2"/>
<path d="M11.7246 25.4067L12.3829 25.9287C12.5575 26.0672 12.6699 26.2694 12.6954 26.491C12.7208 26.7125 12.6571 26.9352 12.5185 27.1101C12.3798 27.285 12.1775 27.3977 11.956 27.4235C11.7345 27.4492 11.5119 27.3859 11.3373 27.2475L10.679 26.7255L10.1562 27.3849C10.0175 27.5598 9.81519 27.6725 9.59367 27.6983C9.37216 27.724 9.14964 27.6607 8.97503 27.5223C8.80042 27.3839 8.68803 27.1816 8.66261 26.9601C8.63719 26.7385 8.7008 26.5158 8.83946 26.3409C8.83946 26.3409 9.40023 26.008 9.36226 25.6815C9.32435 25.3556 8.70389 25.1595 8.70389 25.1595C8.52928 25.0211 8.4169 24.8189 8.39148 24.5973C8.36606 24.3758 8.42966 24.153 8.56832 23.9782C8.70697 23.8033 8.90932 23.6906 9.13083 23.6648C9.35234 23.639 9.57488 23.7023 9.74949 23.8408L10.4079 24.3628L10.9307 23.7034C11.0693 23.5285 11.2716 23.4158 11.4932 23.39C11.7147 23.3642 11.9372 23.4275 12.1118 23.566C12.2864 23.7044 12.3988 23.9066 12.4242 24.1282C12.4496 24.3498 12.386 24.5725 12.2474 24.7473L11.7246 25.4067Z" fill="#BFC7D2"/>
<path fill-rule="evenodd" clip-rule="evenodd" d="M50.2581 63.4502V96.3857L82.4928 93.5827L82.5246 67.1132L50.2581 63.4502ZM64.3369 91.6078L54.9404 92.213V80.0454H64.3369V91.6078ZM64.3687 76.5416L54.8767 76.0956C54.8767 70.7126 53.9848 66.731 64.3687 67.9733V76.5416ZM77.906 90.6522L69.274 91.2256V80.0454H77.906V90.6522ZM77.906 76.9875L69.274 76.7008V68.451C78.1609 69.0244 77.9697 71.923 77.906 76.9875Z" fill="url(#paint0_linear_1667_1260)"/>
<path fill-rule="evenodd" clip-rule="evenodd" d="M54.2398 74.5349C54.2079 72.1459 54.2398 70.0755 55.6413 68.674C56.7243 67.591 58.4125 67.0814 60.9925 67.0814C62.0118 67.0814 63.1585 67.1451 64.4644 67.3043L65.0378 67.368V77.2105L62.617 77.0831C64.6555 77.8475 66.6941 78.7075 68.6371 79.6631V79.4083H78.5751V85.5558C79.6899 86.3521 80.7729 87.1485 81.8241 88.0085L81.8559 67.6866L50.8953 64.1509V73.7704C52.0101 74.0252 53.1249 74.2482 54.2398 74.5349ZM68.6371 67.7503L69.3379 67.7821C78.6388 68.3873 78.6069 71.7 78.5751 76.7008V77.6564L68.6371 77.3379V67.7503Z" fill="url(#paint1_linear_1667_1260)"/>
<path fill-rule="evenodd" clip-rule="evenodd" d="M93.6413 94.9841V64.0235H100.776L90.5516 56.1559V48.4795H82.9389V50.2632L67.0445 38L33.2808 64.0235H40.4158V94.9841H30V96.4812H48.0604V62.9405L67.0445 48.9254L85.9967 62.9405V96.4812H103.739V94.9841H93.6413Z" fill="url(#paint2_linear_1667_1260)"/>
<path fill-rule="evenodd" clip-rule="evenodd" d="M41.0847 72.6237C43.2189 72.7193 45.3211 72.9422 47.4234 73.2289V62.622L67.0764 48.1291L86.6975 62.622V92.213C87.9398 93.3915 89.1502 94.6019 90.3287 95.876H103.133V95.6849H93.0362V63.3865H98.897L89.9146 56.4745V49.1484H83.6078V51.601L67.0764 38.8282L35.2239 63.3865H41.0847V72.6237Z" fill="url(#paint3_linear_1667_1260)"/>
<defs>
<linearGradient id="paint0_linear_1667_1260" x1="66.3849" y1="52.676" x2="66.3849" y2="88.4803" gradientUnits="userSpaceOnUse">
<stop stop-color="#8BC53F"/>
<stop offset="1" stop-color="#009345"/>
</linearGradient>
<linearGradient id="paint1_linear_1667_1260" x1="58.0086" y1="91.5122" x2="85.6704" y2="40.5561" gradientUnits="userSpaceOnUse">
<stop stop-color="#8BC53F"/>
<stop offset="1" stop-color="#009345"/>
</linearGradient>
<linearGradient id="paint2_linear_1667_1260" x1="66.8792" y1="21.288" x2="66.8792" y2="83.0106" gradientUnits="userSpaceOnUse">
<stop stop-color="#26A9E0"/>
<stop offset="1" stop-color="#0066B2"/>
</linearGradient>
<linearGradient id="paint3_linear_1667_1260" x1="61.6255" y1="93.4755" x2="93.5306" y2="34.7027" gradientUnits="userSpaceOnUse">
<stop stop-color="#26A9E0"/>
<stop offset="1" stop-color="#0066B2"/>
</linearGradient>
</defs>
</svg>
