<svg width="130" height="130" viewBox="0 0 130 130" fill="none" xmlns="http://www.w3.org/2000/svg">
<circle cx="66.5789" cy="66.5789" r="58.4211" fill="#C2EAFC"/>
<circle cx="113.947" cy="11.3158" r="6.31579" fill="#AAE5FF"/>
<circle cx="11.3158" cy="91.8422" r="6.31579" fill="#AAE5FF"/>
<circle r="3.15789" transform="matrix(1 0 0 -1 14.4737 69.7369)" fill="white"/>
<circle r="2.36842" transform="matrix(1 0 0 -1 108.421 40.5263)" fill="white"/>
<circle cx="120.263" cy="101.316" r="3.15789" fill="#FDD1A3"/>
<circle cx="104.474" cy="8.1579" r="1.57895" fill="#AAE5FF"/>
<circle cx="119.474" cy="26.3158" r="2.36842" fill="#E40C57"/>
<circle cx="75.4999" cy="58.5" r="28.5" fill="#D8F1FD"/>
<path fill-rule="evenodd" clip-rule="evenodd" d="M98.896 120.706C98.7663 120.603 98.6175 120.527 98.4582 120.481C98.2989 120.436 98.1322 120.423 97.9677 120.442C97.8031 120.461 97.6439 120.513 97.4991 120.593C97.3543 120.674 97.2268 120.782 97.1238 120.912C97.0208 121.042 96.9444 121.191 96.8989 121.351C96.8534 121.51 96.8398 121.677 96.8587 121.841C96.8777 122.006 96.9288 122.165 97.0093 122.31C97.0898 122.455 97.198 122.582 97.3278 122.685C97.5899 122.893 97.9238 122.987 98.2562 122.949C98.5885 122.91 98.8921 122.741 99.1001 122.478C99.308 122.216 99.4034 121.882 99.3651 121.549C99.3268 121.217 99.1581 120.913 98.896 120.706Z" fill="#BFC7D2"/>
<path d="M22.7247 11.4067L23.383 11.9287C23.5576 12.0672 23.67 12.2694 23.6954 12.491C23.7209 12.7125 23.6572 12.9352 23.5186 13.1101C23.3799 13.285 23.1776 13.3977 22.9561 13.4235C22.7346 13.4492 22.512 13.3859 22.3374 13.2475L21.6791 12.7255L21.1563 13.3849C21.0176 13.5598 20.8153 13.6725 20.5938 13.6983C20.3722 13.724 20.1497 13.6607 19.9751 13.5223C19.8005 13.3839 19.6881 13.1816 19.6627 12.9601C19.6373 12.7385 19.7009 12.5158 19.8395 12.3409L20.3623 11.6815L19.704 11.1595C19.5294 11.0211 19.417 10.8189 19.3916 10.5973C19.3661 10.3758 19.4297 10.153 19.5684 9.97816C19.7071 9.80328 19.9094 9.69056 20.1309 9.66479C20.3524 9.63902 20.575 9.70232 20.7496 9.84076L21.4079 10.3628L21.9307 9.70337C22.0694 9.52849 22.2717 9.41576 22.4932 9.39C22.7147 9.36423 22.9373 9.42753 23.1119 9.56597C23.2865 9.70441 23.3989 9.90665 23.4243 10.1282C23.4497 10.3498 23.3861 10.5725 23.2475 10.7473L22.7247 11.4067Z" fill="#BFC7D2"/>
<path d="M11.7247 25.4067L12.383 25.9287C12.5576 26.0672 12.67 26.2694 12.6954 26.491C12.7209 26.7125 12.6572 26.9352 12.5186 27.1101C12.3799 27.285 12.1776 27.3977 11.9561 27.4235C11.7346 27.4492 11.512 27.3859 11.3374 27.2475L10.6791 26.7255L10.1563 27.3849C10.0176 27.5598 9.81526 27.6725 9.59375 27.6983C9.37224 27.724 9.14972 27.6607 8.97511 27.5223C8.8005 27.3839 8.68811 27.1816 8.66269 26.9601C8.63726 26.7385 8.70088 26.5158 8.83954 26.3409C8.83954 26.3409 9.40031 26.008 9.36234 25.6815C9.32442 25.3556 8.70397 25.1595 8.70397 25.1595C8.52936 25.0211 8.41698 24.8189 8.39156 24.5973C8.36613 24.3758 8.42974 24.153 8.5684 23.9782C8.70705 23.8033 8.9094 23.6906 9.13091 23.6648C9.35242 23.639 9.57496 23.7023 9.74957 23.8408L10.4079 24.3628L10.9307 23.7034C11.0694 23.5285 11.2717 23.4158 11.4932 23.39C11.7147 23.3642 11.9373 23.4275 12.1119 23.566C12.2865 23.7044 12.3989 23.9066 12.4243 24.1282C12.4497 24.3498 12.3861 24.5725 12.2475 24.7473L11.7247 25.4067Z" fill="#BFC7D2"/>
<path d="M62 100H34.647V76.2941L47.4118 75.0784L62 76.2941L63.2157 89.0588L62 100Z" fill="#D58678"/>
<path d="M43.7647 67.1765L41.9412 68.3922L40.1176 67.1765V63.1979L41.9412 62.3137L43.7647 63.1979V67.1765Z" fill="#FDD1A3"/>
<path d="M51.0588 67.1765L49.2353 68.3922L47.4118 67.1765V63.1979L49.2353 62.3137L51.0588 63.1979V67.1765Z" fill="#FDD1A3"/>
<path d="M89.3529 100H62V76.2941L76.183 75.0784L89.3529 76.2941V100Z" fill="#B95D4C"/>
<path d="M77.6419 68.3921L63.8235 67.1765V65.3529C63.8235 58.3145 69.5498 52.5882 76.5883 52.5882C83.6267 52.5882 89.353 58.3145 89.353 65.3529V67.1765L77.6419 68.3921Z" fill="#E40C57"/>
<path d="M60.1765 63.5294H31V41.6471H60.1765V63.5294Z" fill="#FDD1A3"/>
<path d="M76.5882 52.5882C80.6167 52.5882 83.8824 49.3225 83.8824 45.2941C83.8824 41.2657 80.6167 38 76.5882 38C72.5598 38 69.2941 41.2657 69.2941 45.2941C69.2941 49.3225 72.5598 52.5882 76.5882 52.5882Z" fill="#FDD1A3"/>
<path d="M62 76.2941H31V67.1765H62L63.2157 71.7353L62 76.2941Z" fill="#B95D4C"/>
<path d="M62 87.2353H41.9412V83.5882H62L63.2157 85.4118L62 87.2353Z" fill="#FDD1A3"/>
<path d="M62 94.5294H41.9412V90.8824H62L63.2157 92.7059L62 94.5294Z" fill="#FDD1A3"/>
<path d="M62 83.5882H82.0588V87.2353H62V83.5882Z" fill="#FFBB85"/>
<path d="M62 90.8824H82.0588V94.5294H62V90.8824Z" fill="#FFBB85"/>
<path d="M93 76.2941H62V67.1765H93V76.2941Z" fill="#873F2E"/>
</svg>
