<svg width="130" height="130" viewBox="0 0 130 130" fill="none" xmlns="http://www.w3.org/2000/svg">
<circle cx="66.4211" cy="66.4211" r="58.4211" fill="#E6EDB7"/>
<circle cx="113.947" cy="11.3158" r="6.31579" fill="#F1BC19"/>
<circle cx="11.3158" cy="91.8421" r="6.31579" fill="#F1BC19"/>
<circle r="3.15789" transform="matrix(1 0 0 -1 14.4737 69.7369)" fill="white"/>
<circle r="2.36842" transform="matrix(1 0 0 -1 108.421 40.5264)" fill="white"/>
<circle cx="120.263" cy="101.316" r="3.15789" fill="#F1BC19"/>
<circle cx="104.474" cy="8.15793" r="1.57895" fill="#F1BC19"/>
<circle cx="119.474" cy="26.3158" r="2.36842" fill="#88AE45"/>
<path d="M82.9903 88.6279H48.6607C47.8928 88.6279 47.3809 87.8281 47.7009 87.1242L72.0483 32.5104C72.2083 32.1264 72.5922 31.8705 73.0082 31.8705H107.338C108.106 31.8705 108.618 32.6703 108.298 33.3742L83.9501 87.988C83.7901 88.404 83.4062 88.6279 82.9903 88.6279Z" fill="url(#paint0_linear_1657_2701)"/>
<path d="M93.3884 50.1071L104.458 25.2797C104.714 24.6718 104.298 23.9999 103.626 23.9999H72.5602C71.4085 23.9999 70.3527 24.6718 69.9047 25.7276L58.6748 50.9389C58.4189 51.5468 58.8348 52.2187 59.5067 52.2187H90.157C91.5327 52.2187 92.8125 51.3868 93.3884 50.1071Z" fill="white"/>
<path d="M89.3571 67.1279L100.427 42.3005C100.683 41.6926 100.267 41.0208 99.5952 41.0208H68.529C67.3772 41.0208 66.3214 41.6926 65.8735 42.7484L54.6116 67.9597C54.3556 68.5676 54.7716 69.2395 55.4434 69.2395H86.0937C87.5015 69.2395 88.7812 68.4077 89.3571 67.1279Z" stroke="white" stroke-width="1.1086" stroke-miterlimit="10"/>
<path opacity="0.39" d="M75.2797 58.3616H76.6875L72.8802 65.8162H49.8125L50.7403 63.9925" stroke="#A1C2FF" stroke-width="0.5543" stroke-miterlimit="10"/>
<path d="M80.5907 33.7582C79.6309 37.1176 76.1436 39.8371 72.7842 39.8371C69.4248 39.8371 67.5052 37.1176 68.465 33.7582C69.4248 30.3988 72.9122 27.6793 76.2716 27.6793C79.6309 27.6793 81.5506 30.3988 80.5907 33.7582Z" fill="#E6F4FF"/>
<path d="M79.8549 33.7582C79.023 36.7016 75.9196 39.1012 72.9762 39.1012C70.0327 39.1012 68.305 36.7016 69.1689 33.7582C70.0007 30.8147 73.1042 28.4152 76.0476 28.4152C79.0231 28.3832 80.7187 30.7827 79.8549 33.7582Z" fill="#94C3FF"/>
<path d="M74.6079 34.814C74.6079 34.814 71.7924 35.2939 70.6086 35.7419C69.8088 36.2218 69.6488 36.6377 69.4568 37.2136C70.0967 38.3654 71.3445 39.0692 72.9762 39.0692C75.0878 39.0692 77.2314 37.8535 78.6071 36.0938C77.8713 35.038 74.6079 34.814 74.6079 34.814Z" fill="#4361C4"/>
<path d="M73.616 33.6303L73.1361 35.6779C73.0721 35.9338 73.2001 36.1578 73.4561 36.1898C73.84 36.2538 74.4479 36.2538 75.0878 35.8379C75.2797 35.7099 75.4077 35.5179 75.4397 35.294C75.5037 34.3341 75.6957 32.3825 75.6957 32.3825L73.616 33.6303Z" fill="#FF8D68"/>
<path d="M73.2001 31.4546C73.2001 31.4546 71.8884 34.1421 72.1443 34.8459C72.4323 35.3258 75.0878 34.238 75.5357 33.5022C75.9836 32.7983 76.9754 31.4866 76.1756 30.6867C75.3757 29.8868 74.192 30.1428 73.2001 31.4546Z" fill="#FF8D68"/>
<path d="M73.2001 31.4546C73.2001 31.4546 72.9761 30.4948 73.776 29.9509C74.5759 29.407 75.5997 29.503 75.9836 30.0469C76.3675 30.5908 76.3995 30.6868 76.3995 30.6868C76.3995 30.6868 76.7834 30.7828 76.9114 31.1987C77.0394 31.6146 76.2075 32.6704 75.8556 32.9904C75.5037 33.3103 75.5997 33.3103 75.5997 33.3103L75.4717 33.1503C75.4717 33.1503 75.5357 32.3505 75.6956 31.8706C75.7276 31.6146 75.4397 31.2627 74.9598 31.1667C74.4159 31.1027 74.2559 31.5506 73.2001 31.4546Z" fill="#7E3636"/>
<path d="M75.7597 32.6704C75.7597 32.6704 75.9516 32.3185 76.2715 32.4145C76.5915 32.5105 75.9516 33.5343 75.5997 33.4703C75.2797 33.4063 75.7597 32.6704 75.7597 32.6704Z" fill="#FF8D68"/>
<path d="M75.4397 34.91C75.4397 34.91 74.7358 35.6778 74.032 35.9018C73.904 35.9338 73.744 36.1897 73.744 36.1897L73.6161 35.8698C73.6161 35.8698 73.1362 35.5819 73.2641 35.1019L73.1682 35.1659L72.9122 35.8058C72.9122 35.8058 72.7202 36.4137 72.7202 36.6377L73.3601 36.2857C73.3601 36.2857 73.744 36.4137 74.064 36.3177C74.064 36.3177 74.192 36.7656 74.3199 36.7976C74.4479 36.8296 75.4077 35.9338 75.5357 35.6138C75.6957 35.2939 75.6637 34.974 75.6637 34.974L75.4397 34.91Z" fill="white"/>
<path opacity="0.39" d="M95.8199 36.0937H82.3504C81.9345 36.0937 81.7105 35.7738 81.8705 35.3578L83.7902 30.1108C83.9501 29.6949 84.398 29.3749 84.814 29.3749H98.2835C98.6994 29.3749 98.9234 29.6949 98.7634 30.1108L96.8437 35.3578C96.6838 35.7418 96.2359 36.0937 95.8199 36.0937Z" fill="#A1C2FF"/>
<path d="M96.6198 31.7105H85.006L85.2299 31.1666H96.8117L96.6198 31.7105Z" fill="#94C3FF"/>
<path d="M91.5007 33.0222H84.526L84.75 32.4783H91.7247L91.5007 33.0222Z" fill="#94C3FF"/>
<path d="M85.9018 34.2061H84.1101L84.3021 33.6622H86.1257L85.9018 34.2061Z" fill="#94C3FF"/>
<path d="M82.9903 38.4932C82.7983 38.9731 82.2864 39.3251 81.8065 39.3251C81.3266 39.3251 81.1027 38.9411 81.2946 38.4932C81.4866 38.0133 81.9985 37.6614 82.4784 37.6614C82.9583 37.6614 83.1823 38.0133 82.9903 38.4932Z" fill="#94C3FF"/>
<path d="M85.9018 38.4932C85.7098 38.9731 85.1979 39.3251 84.718 39.3251C84.2381 39.3251 84.0141 38.9411 84.2061 38.4932C84.3981 38.0133 84.9099 37.6614 85.3899 37.6614C85.8698 37.6614 86.0937 38.0133 85.9018 38.4932Z" fill="#94C3FF"/>
<path d="M88.8453 38.4932C88.6533 38.9731 88.1414 39.3251 87.6615 39.3251C87.1816 39.3251 86.9576 38.9411 87.1496 38.4932C87.3415 38.0133 87.8534 37.6614 88.3333 37.6614C88.8132 37.6614 89.0372 38.0133 88.8453 38.4932Z" fill="#94C3FF"/>
<path d="M91.7567 38.4932C91.5647 38.9731 91.0528 39.3251 90.5729 39.3251C90.093 39.3251 89.8691 38.9411 90.061 38.4932C90.253 38.0133 90.7649 37.6614 91.2448 37.6614C91.7247 37.6614 91.9487 38.0133 91.7567 38.4932Z" fill="#FF8D02"/>
<path opacity="0.39" d="M94.7002 38.4932C94.5082 38.9731 93.9963 39.3251 93.5164 39.3251C93.0365 39.3251 92.8125 38.9411 93.0045 38.4932C93.1964 38.0133 93.7083 37.6614 94.1882 37.6614C94.6681 37.6614 94.8921 38.0133 94.7002 38.4932Z" fill="#A1C2FF"/>
<path opacity="0.39" d="M87.7255 41.0527L84.0141 44.924L80.1749 46.4277L84.5261 49.6271L88.9092 45.9158L87.7255 41.0527Z" fill="#A1C2FF"/>
<path opacity="0.7" d="M86.8616 43.2924L84.0141 44.9241L81.6146 46.4278L84.878 48.7633L87.9494 45.9479L86.8616 43.2924Z" fill="#A1C2FF"/>
<path d="M87.7255 41.0527L84.0141 44.924L80.1749 46.4277L84.5261 49.6591L88.9092 45.9158L87.7255 41.0527Z" stroke="#4361C4" stroke-width="0.2806" stroke-miterlimit="10"/>
<path d="M85.9978 46.2679C85.9338 46.4278 85.7738 46.5238 85.6138 46.5238C85.4539 46.5238 85.3899 46.3958 85.4539 46.2679C85.5178 46.1079 85.6778 46.0119 85.8378 46.0119C85.9978 46.0119 86.0617 46.1079 85.9978 46.2679Z" fill="#4361C4"/>
<path d="M82.3505 43.6123L85.6138 46.2038L79.7589 46.4918" stroke="#4361C4" stroke-width="0.2806" stroke-miterlimit="10"/>
<path d="M84.2701 50.5551L85.7418 46.2039L89.6131 45.8199" stroke="#4361C4" stroke-width="0.2806" stroke-miterlimit="10"/>
<path d="M87.9494 40.5089L85.7418 46.2038" stroke="#4361C4" stroke-width="0.2806" stroke-miterlimit="10"/>
<path d="M82.6384 43.5484C82.5424 43.8043 82.2545 43.9963 81.9985 43.9963C81.7426 43.9963 81.6146 43.8043 81.7426 43.5484C81.8385 43.2924 82.1265 43.1005 82.3824 43.1005C82.6384 43.1005 82.7344 43.2924 82.6384 43.5484Z" fill="#94C3FF"/>
<path d="M79.9829 46.4918C79.8869 46.7478 79.599 46.9397 79.343 46.9397C79.0871 46.9397 78.9591 46.7478 79.0871 46.4918C79.215 46.2358 79.471 46.0439 79.7269 46.0439C79.9829 46.0439 80.0789 46.2678 79.9829 46.4918Z" fill="#FF8D02"/>
<path d="M84.718 50.651C84.622 50.9069 84.3341 51.0989 84.0781 51.0989C83.8222 51.0989 83.6942 50.9069 83.8222 50.651C83.9182 50.395 84.2061 50.2031 84.4621 50.2031C84.718 50.2031 84.814 50.395 84.718 50.651Z" fill="#94C3FF"/>
<path d="M90.157 45.8199C90.061 46.0759 89.7731 46.2678 89.5171 46.2678C89.2612 46.2678 89.1332 46.0759 89.2612 45.8199C89.3891 45.564 89.6451 45.372 89.901 45.372C90.125 45.372 90.253 45.564 90.157 45.8199Z" fill="#94C3FF"/>
<path d="M88.4613 40.349C88.3653 40.6049 88.0774 40.7969 87.8214 40.7969C87.5655 40.7969 87.4375 40.6049 87.5655 40.349C87.6614 40.093 87.9494 39.9011 88.2053 39.9011C88.4613 39.9011 88.5573 40.125 88.4613 40.349Z" fill="#FF8D02"/>
<path d="M78.1912 44.1242H66.9293L67.7931 42.0126H79.055L78.1912 44.1242Z" fill="#4361C4"/>
<path opacity="0.39" d="M71.4085 48.9234H64.9777L65.3616 48.0275H71.7924L71.4085 48.9234Z" fill="#A1C2FF"/>
<path opacity="0.39" d="M70.4486 47.0996H65.7135L66.5774 44.988H71.3125L70.4486 47.0996Z" fill="#A1C2FF"/>
<path d="M95.468 69.8474L100.971 57.4657C101.099 57.1778 100.875 56.8259 100.555 56.8259H85.0699C84.494 56.8259 83.9821 57.1778 83.7262 57.6897L78.1272 70.2314C77.9992 70.5193 78.2232 70.8713 78.5431 70.8713H93.8043C94.5722 70.9033 95.18 70.4873 95.468 69.8474Z" fill="white"/>
<path opacity="0.39" d="M94.7321 63.6404C93.6123 66.3919 90.4769 68.6315 87.7254 68.6315C84.9739 68.6315 83.6302 66.3919 84.75 63.6404C85.8698 60.8889 89.0052 58.6494 91.7567 58.6494C94.5082 58.6494 95.8519 60.8889 94.7321 63.6404Z" fill="#A1C2FF"/>
<path d="M90.157 64.1524C90.157 64.1524 92.6525 65.4002 92.9404 66.552C93.1964 67.7037 92.1086 70.7112 92.1086 70.7112H82.1265C82.1265 70.7112 83.7582 67.1918 85.0379 66.36C86.3177 65.5281 88.7492 64.8883 88.7492 64.8883L90.157 64.1524Z" fill="#4385FF"/>
<path d="M89.1332 63.3525L88.3653 65.0482C88.2693 65.2721 88.3333 65.4641 88.4933 65.4961C88.7812 65.5921 89.2611 65.6241 89.837 65.3361C90.029 65.2401 90.157 65.0802 90.221 64.9202C90.4769 64.1203 90.9888 62.4886 90.9888 62.4886L89.1332 63.3525Z" fill="#94C3FF"/>
<path d="M89.2291 61.4648C89.2291 61.4648 87.6614 63.6084 87.7254 64.2483C87.8534 64.6962 90.157 63.9923 90.6369 63.4164C91.1168 62.8405 92.1726 61.8487 91.6927 61.0808C91.2448 60.313 90.2529 60.441 89.2291 61.4648Z" fill="#94C3FF"/>
<path d="M89.2931 61.1448C89.2931 61.1448 89.2611 61.1768 89.2291 61.2408C89.1332 61.4008 89.0052 61.6887 89.3891 61.7207C89.901 61.7527 89.901 61.7527 89.901 61.7527C89.901 61.7527 90.7009 61.3048 91.0208 61.7847C91.2448 62.2646 90.4769 62.5526 90.5409 62.8085C90.6049 63.0645 90.5729 63.0005 90.4769 63.1285C90.3809 63.2564 90.2849 63.4804 89.933 63.6404C89.5811 63.8003 89.2931 63.7683 88.9412 63.9603C88.5893 64.1523 87.9174 63.9283 87.8534 63.7683C87.6934 63.6404 87.5975 63.9283 87.5015 64.1203C87.4055 64.3122 87.0855 64.3762 87.3735 64.6002C87.6934 64.8561 87.9174 64.9521 88.4293 64.6322C88.9732 64.3122 88.9732 64.3442 89.5171 64.2163C90.061 64.0883 90.4449 63.8003 90.6689 63.4804C90.8608 63.1605 90.9248 62.7125 91.1168 62.5526C91.2768 62.3926 91.3727 62.5526 91.3087 62.7445C91.2448 62.9365 91.9806 62.5846 92.1406 62.0087C92.3006 61.4328 92.0126 61.4648 91.9806 61.1448C91.9486 60.8249 92.3326 60.441 91.9166 60.153C91.5327 59.8651 91.1488 60.249 91.0208 60.057C90.8928 59.8651 90.2849 59.8331 89.773 60.249C89.2931 60.6649 89.2611 61.2088 89.2611 61.2088" fill="#4361C4"/>
<path d="M91.0208 62.5526C91.0208 62.5526 91.2448 62.2646 91.4687 62.3926C91.6927 62.5206 90.9888 63.3204 90.7329 63.2244C90.4769 63.1284 91.0208 62.5526 91.0208 62.5526Z" fill="#94C3FF"/>
<path d="M87.6614 63.8323C87.6614 63.8323 87.8854 63.0005 88.4613 62.9045C89.0372 62.8085 89.2931 63.1604 89.2611 63.4484C89.2291 63.7363 89.4851 63.8963 89.4851 63.8963C89.4851 63.8963 88.0454 64.6002 87.6614 63.8323Z" fill="#4361C4"/>
<path d="M88.5253 86.5483L94.0283 74.1666C94.1562 73.8787 93.9323 73.5267 93.6123 73.5267H78.1272C77.5513 73.5267 77.0394 73.8787 76.7835 74.3906L71.1845 86.9322C71.0565 87.2202 71.2805 87.5721 71.6004 87.5721H86.8616C87.6295 87.6041 88.2693 87.1882 88.5253 86.5483Z" fill="white"/>
<path opacity="0.39" d="M87.8854 80.2455C86.7336 83.061 83.5342 85.3325 80.7187 85.3325C77.9033 85.3325 76.5595 83.061 77.6793 80.2455C78.7991 77.43 82.0305 75.1584 84.846 75.1584C87.6615 75.1584 89.0052 77.43 87.8854 80.2455Z" fill="#A1C2FF"/>
<path d="M84.2061 78.8058C84.2061 78.8058 84.9739 78.4539 85.0699 78.8698C85.1659 79.3177 84.846 79.6056 84.846 79.6056C84.846 79.6056 85.5178 79.4137 85.7098 79.9896C85.9018 80.5655 85.3259 80.8534 85.5818 81.0774C85.8378 81.3013 86.2857 81.7173 85.6138 82.4851C84.9419 83.253 83.9821 84.0848 82.8623 83.5409C81.7425 82.997 82.0945 80.3095 82.0945 80.3095L82.3824 79.5417L84.2061 78.8058Z" fill="#4361C4"/>
<path d="M83.4702 76.5662C83.4702 76.5662 81.7745 76.6942 81.2306 77.878C80.6867 79.0618 81.7425 79.1577 81.7425 79.1577L83.4702 76.5662Z" fill="#4361C4"/>
<path d="M72.4643 84.5966C72.5603 84.7886 72.5602 84.7886 72.5602 84.7886C72.5602 84.7886 73.872 86.3563 75.0238 87.3481H77.4233C78.6711 86.1963 80.3988 84.2127 80.3988 84.1167C80.3988 83.9887 81.9025 82.357 81.5826 81.6852C81.2626 81.0133 80.8147 81.1413 80.8147 81.1413C80.8147 81.1413 80.3348 81.2053 79.7589 81.7812C79.215 82.357 76.4955 86.5483 76.4955 86.5483C76.4955 86.5483 76.1436 85.9084 75.5037 85.4285C74.8638 84.9486 72.9762 83.9247 72.9762 83.9247C72.9762 83.9247 73.1041 83.1249 73.0721 82.9649C73.0721 82.805 72.5922 82.1011 72.4643 82.2611C72.3363 82.421 72.6562 83.0929 72.6562 83.0929C72.6562 83.0929 72.3683 84.4047 72.4643 84.5966Z" fill="#94C3FF"/>
<path d="M78.5111 86.1644C78.5111 86.1644 78.5751 86.6763 78.7351 87.3482H83.5342C83.6302 86.2604 83.8541 84.0848 84.0141 83.5729C84.2061 82.869 84.0461 81.3973 84.0781 80.9814C84.1421 80.5655 82.9903 80.7254 82.9903 80.7254L81.4866 80.7574L81.2306 80.8534C80.9107 80.9814 80.5907 81.2373 80.3988 81.5573C80.2068 81.8452 79.9509 82.2611 79.5669 82.805C78.9591 83.253 77.6473 84.0528 77.7433 85.0446C77.8073 86.0364 78.5111 86.1644 78.5111 86.1644Z" fill="#4385FF"/>
<path d="M81.9665 79.8615C81.9665 79.8615 80.6227 81.5252 80.2708 83.6048C80.7187 83.4769 82.0305 82.2611 82.8303 81.4932C83.1503 81.1733 83.1823 81.0133 83.1183 80.6934C83.0863 80.5334 83.2143 80.0855 83.4062 79.6056C83.5022 78.9017 81.9665 79.8615 81.9665 79.8615Z" fill="#94C3FF"/>
<path d="M86.1577 86.6442C86.1577 86.6442 86.3817 86.9322 86.7016 87.3801H88.8452C88.4293 86.8362 88.1093 86.3883 88.0134 86.2283C87.6614 85.6844 85.1979 80.3414 83.7262 81.0133C83.4382 81.1413 82.4464 81.9731 82.8623 82.9009C83.2783 83.8288 86.1577 86.6442 86.1577 86.6442Z" fill="#94C3FF"/>
<path d="M81.9025 77.654C81.6785 77.91 81.1666 78.6139 80.8467 79.2218C80.5588 79.7657 80.7507 80.2456 81.2626 80.3096C81.9985 80.3735 83.1183 80.2136 83.5022 79.7977C84.0461 79.1578 85.2299 78.07 84.75 77.2061C84.2701 76.3743 83.2143 76.4703 82.0945 77.4941C82.0305 77.5261 81.9665 77.5901 81.9025 77.654Z" fill="#94C3FF"/>
<path d="M82.3824 77.1101C82.3824 77.1101 81.6465 78.3259 83.7582 79.0938L84.0141 79.2217C84.0141 79.2217 84.9419 78.4859 84.9419 77.718C84.9419 76.9502 84.558 76.6622 84.1421 76.5023C83.7582 76.3423 82.6704 76.8222 82.3824 77.1101Z" fill="#4361C4"/>
<path d="M83.6942 79.2857C83.6942 79.2857 84.2381 78.9338 84.2061 79.2537C84.2061 79.6057 83.4382 79.9576 83.3742 79.8296C83.3102 79.6697 83.6942 79.2857 83.6942 79.2857Z" fill="#94C3FF"/>
<path d="M71.7284 76.3103H54.6756C54.1636 76.3103 53.9077 75.8943 54.0997 75.3504L55.3154 72.343C55.5394 71.8311 56.1153 71.3832 56.6592 71.3832H73.712C74.2239 71.3832 74.4799 71.7991 74.2879 72.343L73.0721 75.3504C72.8482 75.8623 72.2403 76.3103 71.7284 76.3103Z" fill="#4385FF"/>
<path d="M71.6004 74.1026H56.9152L57.2031 73.3668H71.8884L71.6004 74.1026Z" fill="white"/>
<path d="M57.939 26.9114H57.3631C57.2671 26.9114 57.2031 26.8154 57.2671 26.7195L57.4911 26.1436C57.5231 26.0476 57.651 25.9516 57.747 25.9516H58.3229C58.4189 25.9516 58.4829 26.0476 58.4189 26.1436L58.1949 26.7195C58.1629 26.8474 58.035 26.9114 57.939 26.9114Z" fill="#F9FBFC"/>
<path d="M63.8579 26.9114H63.282C63.186 26.9114 63.122 26.8154 63.186 26.7195L63.41 26.1436C63.442 26.0476 63.5699 25.9516 63.6659 25.9516H64.2418C64.3378 25.9516 64.4018 26.0476 64.3378 26.1436L64.1138 26.7195C64.0818 26.8474 63.9539 26.9114 63.8579 26.9114Z" fill="#BFD9FF"/>
<path d="M56.8512 29.6309H56.2753C56.1793 29.6309 56.1153 29.5349 56.1793 29.4389L56.4033 28.863C56.4353 28.7671 56.5632 28.6711 56.6592 28.6711H57.2351C57.3311 28.6711 57.3951 28.7671 57.3311 28.863L57.1071 29.4389C57.0751 29.5669 56.9472 29.6309 56.8512 29.6309Z" fill="#BFD9FF"/>
<path d="M59.7947 29.6309H59.2188C59.1228 29.6309 59.0588 29.5349 59.1228 29.4389L59.3467 28.863C59.3787 28.7671 59.5067 28.6711 59.6027 28.6711H60.1786C60.2746 28.6711 60.3385 28.7671 60.2746 28.863L60.0506 29.4389C60.0186 29.5669 59.8906 29.6309 59.7947 29.6309Z" fill="#F9FBFC"/>
<path d="M62.7381 29.6309H62.1622C62.0662 29.6309 62.0023 29.5349 62.0662 29.4389L62.2902 28.863C62.3222 28.7671 62.4502 28.6711 62.5462 28.6711H63.122C63.218 28.6711 63.282 28.7671 63.218 28.863L62.9941 29.4389C62.9621 29.5669 62.8661 29.6309 62.7381 29.6309Z" fill="#F9FBFC"/>
<path d="M65.1057 29.6309H64.5298C64.4338 29.6309 64.3698 29.5349 64.4338 29.4389L64.6577 28.863C64.6897 28.7671 64.8177 28.6711 64.9137 28.6711H65.4896C65.5856 28.6711 65.6496 28.7671 65.5856 28.863L65.3616 29.4389C65.3296 29.5669 65.2336 29.6309 65.1057 29.6309Z" fill="#F9FBFC"/>
<path d="M55.7314 32.3503H55.1555C55.0595 32.3503 54.9955 32.2543 55.0595 32.1584L55.2835 31.5825C55.3155 31.4865 55.4435 31.3905 55.5394 31.3905H56.1153C56.2113 31.3905 56.2753 31.4865 56.2113 31.5825L55.9874 32.1584C55.9554 32.2863 55.8594 32.3503 55.7314 32.3503Z" fill="#F9FBFC"/>
<path d="M53.3638 32.3504H52.7879C52.692 32.3504 52.628 32.2545 52.692 32.1585L52.9159 31.5826C52.9479 31.4866 53.0759 31.3906 53.1719 31.3906H53.7478C53.8437 31.3906 53.9077 31.4866 53.8437 31.5826L53.6198 32.1585C53.5878 32.2865 53.4918 32.3504 53.3638 32.3504Z" fill="#F9FBFC"/>
<path d="M58.7068 32.3503H58.1309C58.035 32.3503 57.971 32.2543 58.035 32.1584L58.2589 31.5825C58.2909 31.4865 58.4189 31.3905 58.5149 31.3905H59.0908C59.1867 31.3905 59.2507 31.4865 59.1867 31.5825L58.9628 32.1584C58.9308 32.2863 58.8028 32.3503 58.7068 32.3503Z" fill="#F9FBFC"/>
<path d="M61.6503 32.3503H61.0744C60.9784 32.3503 60.9144 32.2543 60.9784 32.1584L61.2024 31.5825C61.2344 31.4865 61.3623 31.3905 61.4583 31.3905H62.0342C62.1302 31.3905 62.1942 31.4865 62.1302 31.5825L61.9062 32.1584C61.8742 32.2863 61.7463 32.3503 61.6503 32.3503Z" fill="#BFD9FF"/>
<path d="M54.6436 35.0699H54.0677C53.9717 35.0699 53.9077 34.9739 53.9717 34.878L54.1957 34.3021C54.2277 34.2061 54.3556 34.1101 54.4516 34.1101H55.0275C55.1235 34.1101 55.1875 34.2061 55.1235 34.3021L54.8995 34.878C54.8675 35.0059 54.7396 35.0699 54.6436 35.0699Z" fill="#F9FBFC"/>
<path d="M58.1629 80.3095H57.3631C57.2351 80.3095 57.1391 80.1815 57.2031 80.0535L57.523 79.2537C57.587 79.0937 57.747 78.9977 57.875 78.9977H58.6748C58.8348 78.9977 58.8988 79.1257 58.8348 79.2537L58.5148 80.0535C58.4829 80.1815 58.3229 80.3095 58.1629 80.3095Z" fill="#4385FF"/>
<path d="M66.5133 80.3094H65.7135C65.5855 80.3094 65.4895 80.1815 65.5535 80.0535L65.8735 79.2536C65.9375 79.0937 66.0974 78.9977 66.2254 78.9977H67.0253C67.1532 78.9977 67.2492 79.1257 67.1852 79.2536L66.8653 80.0535C66.8013 80.1815 66.6413 80.3094 66.5133 80.3094Z" fill="#4385FF"/>
<path d="M56.6272 84.1487H55.8274C55.6994 84.1487 55.6034 84.0208 55.6674 83.8928L55.9873 83.0929C56.0513 82.933 56.2113 82.837 56.3393 82.837H57.1391C57.2671 82.837 57.3631 82.9649 57.2991 83.0929L56.9791 83.8928C56.9471 84.0208 56.7552 84.1487 56.6272 84.1487Z" fill="#BFD9FF"/>
<path d="M60.7864 84.1487H59.9866C59.8586 84.1487 59.7626 84.0208 59.8266 83.8928L60.1466 83.0929C60.2105 82.933 60.3705 82.837 60.4985 82.837H61.2983C61.4263 82.837 61.5223 82.9649 61.4583 83.0929L61.1384 83.8928C61.1064 84.0208 60.9464 84.1487 60.7864 84.1487Z" fill="#FF8D02"/>
<path d="M64.9457 84.1487H64.1458C64.0178 84.1487 63.9218 84.0208 63.9858 83.8928L64.3058 83.0929C64.3698 82.933 64.5297 82.837 64.6577 82.837H65.4576C65.5855 82.837 65.6815 82.9649 65.6175 83.0929L65.2976 83.8928C65.2656 84.0208 65.1056 84.1487 64.9457 84.1487Z" fill="#BFD9FF"/>
<path d="M68.305 84.1487H67.5052C67.3772 84.1487 67.2812 84.0208 67.3452 83.8928L67.6652 83.0929C67.7291 82.933 67.8891 82.837 68.0171 82.837H68.8169C68.9449 82.837 69.0409 82.9649 68.9769 83.0929L68.657 83.8928C68.593 84.0208 68.433 84.1487 68.305 84.1487Z" fill="#BFD9FF"/>
<path d="M55.0915 87.9561H54.2916C54.1637 87.9561 54.0677 87.8281 54.1317 87.7002L54.4516 86.9003C54.5156 86.7723 54.6756 86.6443 54.8035 86.6443H55.6034C55.7314 86.6443 55.8274 86.7723 55.7634 86.9003L55.4434 87.7002C55.3794 87.8601 55.2195 87.9561 55.0915 87.9561Z" fill="#BFD9FF"/>
<path d="M51.7321 87.9561H50.9323C50.8043 87.9561 50.7083 87.8281 50.7723 87.7002L51.0922 86.9003C51.1562 86.7723 51.3162 86.6443 51.4442 86.6443H52.244C52.372 86.6443 52.468 86.7723 52.404 86.9003L52.084 87.7002C52.0521 87.8601 51.8921 87.9561 51.7321 87.9561Z" fill="#BFD9FF"/>
<path d="M59.2507 87.9561H58.4508C58.3229 87.9561 58.2269 87.8281 58.2909 87.7002L58.6108 86.9003C58.6748 86.7723 58.8348 86.6443 58.9628 86.6443H59.7626C59.8906 86.6443 59.9866 86.7723 59.9226 86.9003L59.6026 87.7002C59.5386 87.8601 59.3787 87.9561 59.2507 87.9561Z" fill="#BFD9FF"/>
<path d="M63.4099 87.9561H62.6101C62.4501 87.9561 62.3861 87.8281 62.4501 87.7002L62.77 86.9003C62.834 86.7723 62.994 86.6443 63.122 86.6443H63.9218C64.0498 86.6443 64.1458 86.7723 64.0818 86.9003L63.7619 87.7002C63.7299 87.8601 63.5699 87.9561 63.4099 87.9561Z" fill="#FF8D02"/>
<path d="M53.5238 91.7953H52.7239C52.596 91.7953 52.5 91.6674 52.564 91.5394L52.8839 90.7395C52.9479 90.6116 53.1079 90.4836 53.2358 90.4836H54.0357C54.1637 90.4836 54.2596 90.6116 54.1957 90.7395L53.8757 91.5394C53.8437 91.6994 53.6838 91.7953 53.5238 91.7953Z" fill="#FF8D02"/>
<path opacity="0.39" d="M72.3363 64.1525H49.3006L53.1079 56.7299H76.1436L72.3363 64.1525Z" fill="#A1C2FF"/>
<path d="M71.6644 60.4091C71.2485 62.0728 69.5528 63.4486 67.8891 63.4486C66.2254 63.4486 65.2016 62.1048 65.6176 60.4091C66.0335 58.7454 67.7292 57.3697 69.3929 57.3697C71.0566 57.3697 72.0804 58.7454 71.6644 60.4091Z" fill="#73A5FF"/>
<path d="M67.8571 61.9449C67.7611 61.9449 67.6652 61.9129 67.6332 61.8489L66.8653 60.7931C66.7693 60.6331 66.8013 60.4092 66.9933 60.2812C67.1853 60.1212 67.4092 60.1212 67.5052 60.2812L68.0811 61.049L70.1607 59.3854C70.3527 59.2254 70.5766 59.2254 70.6726 59.3854C70.7686 59.5453 70.7366 59.7693 70.5446 59.8973L68.1131 61.8489C68.0491 61.9129 67.9531 61.9449 67.8571 61.9449Z" fill="white"/>
<path d="M49.5245 43.6123C50.0546 43.6123 50.4844 43.1396 50.4844 42.5565C50.4844 41.9734 50.0546 41.5007 49.5245 41.5007C48.9945 41.5007 48.5647 41.9734 48.5647 42.5565C48.5647 43.1396 48.9945 43.6123 49.5245 43.6123Z" stroke="#505E83" stroke-width="0.5192" stroke-miterlimit="10"/>
<path d="M40.4382 48.2515C40.4382 48.2515 38.9025 48.3474 37.7827 49.8832C36.6309 51.4189 38.2946 57.0818 43.1897 59.3534C46.3891 60.6012 46.6131 57.7537 45.8132 55.7701C45.0134 53.7864 42.7098 48.7314 40.4382 48.2515Z" fill="white"/>
<path d="M46.6131 110C55.236 110 62.2262 109.413 62.2262 108.688C62.2262 107.964 55.236 107.376 46.6131 107.376C37.9902 107.376 31 107.964 31 108.688C31 109.413 37.9902 110 46.6131 110Z" fill="#BEC879"/>
<path d="M40.9182 104.465C40.9182 104.465 41.2381 103.761 42.4859 103.953C43.7336 104.145 43.8616 104.369 43.9896 105.009C44.1176 105.617 44.5655 106.289 44.8534 106.417C45.1414 106.545 46.1652 107.281 47.029 107.409C47.8929 107.536 47.9888 108.08 47.7969 108.304C47.6049 108.528 44.3735 108.72 43.6696 108.624C43.6696 108.624 41.2701 108.592 40.6942 108.4C40.1183 108.208 40.8542 104.689 40.9182 104.465Z" fill="#16142A"/>
<path d="M47.093 104.465C47.093 104.465 47.4129 103.761 48.6607 103.953C49.9085 104.145 50.0364 104.369 50.1644 105.009C50.2924 105.649 50.7403 106.289 51.0283 106.417C51.3162 106.545 52.34 107.281 53.2039 107.409C54.0677 107.536 54.1637 108.08 53.9717 108.304C53.7797 108.528 50.5483 108.72 49.8445 108.624C49.8445 108.624 47.4449 108.592 46.869 108.4C46.2931 108.208 47.029 104.689 47.093 104.465Z" fill="#16142A"/>
<path d="M39.7664 86.8362C39.7664 86.8362 39.4144 84.8846 41.462 84.2127C43.5417 83.5408 43.9256 84.5006 44.5655 86.2923C45.2054 88.084 44.0216 104.977 44.0216 104.977C44.0216 104.977 41.494 105.041 40.8862 104.689C40.8862 104.689 39.1905 93.491 39.3184 90.7395C39.4784 88.02 39.7664 86.8362 39.7664 86.8362Z" fill="#2B3554"/>
<path d="M49.4605 43.2604C49.4605 43.2604 49.9404 43.9003 49.9404 44.2522C49.9404 44.6041 49.3006 44.6041 49.3006 44.6041L49.4605 43.2604Z" fill="#FF7759"/>
<path d="M47.125 36.5736C47.125 36.5736 48.5327 36.9255 49.3326 39.0691C50.1324 41.2127 49.5885 45.7879 49.0766 46.3318C48.5327 46.8757 46.933 46.6517 44.7254 45.9159C42.3579 45.148 41.59 42.6845 41.1421 41.0848C40.3423 38.0133 43.0298 34.8459 47.125 36.5736Z" fill="#FF8D68"/>
<path d="M42.1019 48.4434L43.2537 44.3801C43.2537 44.3801 45.5253 43.7083 46.933 45.244L47.4129 45.9159V48.5714C47.4129 48.5394 45.0454 49.0193 42.1019 48.4434Z" fill="#FF8D68"/>
<path d="M38.9345 70.3914C38.9345 70.3914 38.0707 75.3505 38.9345 81.0454C39.7984 86.7404 41.494 87.2843 43.0617 87.2843C44.6294 87.2843 45.0454 82.7411 45.3333 80.7575C45.6213 78.7738 46.7411 71.9591 44.6295 70.3914C42.5179 68.8237 40.0863 68.6637 38.9345 70.3914Z" fill="#2B3554"/>
<path d="M44.9174 77.0461C44.9174 77.0461 43.2217 72.5029 46.1971 70.5193C49.1726 68.5357 51.4442 68.8236 52.148 72.087C52.8519 75.3504 53.0119 86.5803 52.0201 88.8519C51.0282 91.1235 47.4769 87.5721 44.9174 77.0461Z" fill="#2B3F63"/>
<path d="M41.526 48.4434C41.526 48.4434 41.846 47.3236 42.1339 47.2277C42.4219 47.1317 45.9092 46.7477 47.8289 47.8995C48.6927 48.5714 48.5967 49.0513 48.5967 49.0513C48.5967 49.0513 42.9018 47.9315 41.526 48.4434Z" fill="white"/>
<path d="M51.9241 70.3913C51.9241 70.3913 52.212 71.0632 52.0521 71.3191C51.8281 71.5431 45.3653 73.8147 38.5826 72.183C38.4546 72.183 38.7425 71.0312 38.7425 71.0312L51.9241 70.3913Z" fill="#6060E7"/>
<path d="M38.5186 60.0892C38.3266 58.7775 37.7507 52.2187 37.9427 51.2909C38.1347 50.395 38.8705 48.7633 40.4382 48.2514C40.5342 48.2194 40.6622 48.1875 40.7902 48.1555C40.7902 48.1555 46.6451 47.7715 50.8363 49.5632C50.8363 49.5632 52.276 50.747 52.532 56.7939C52.532 56.7939 52.468 57.8177 52.212 59.9933C51.9881 62.1689 52.34 63.7686 52.66 65.9122C53.0119 68.0878 53.6838 70.2314 51.1882 70.7113C48.7887 71.1592 42.1659 72.311 38.2946 71.1592C37.4948 70.5833 38.6466 67.9598 38.6466 65.9122C38.6466 63.8645 38.5186 60.0892 38.5186 60.0892Z" fill="#8182EE"/>
<path d="M47.6049 87.1242C47.6049 87.1242 47.4769 85.1406 49.5885 84.7247C51.7321 84.3087 51.9881 85.3006 52.436 87.1242C52.8519 88.9799 50.3244 105.073 50.3244 105.073C50.3244 105.073 47.5409 105.233 46.965 104.817C46.965 104.817 46.3251 93.651 46.741 90.9635C47.189 88.276 47.6049 87.1242 47.6049 87.1242Z" fill="#2B3F63"/>
<path d="M44.3415 75.9902C44.3415 75.9902 46.3251 82.389 47.8289 85.4925" stroke="#2A2E59" stroke-width="0.6659" stroke-miterlimit="10"/>
<path d="M48.3728 86.7722C48.3728 86.7722 49.5885 86.0684 50.7723 86.7722" stroke="#2A2E59" stroke-width="0.6659" stroke-miterlimit="10"/>
<path d="M48.1808 87.5721C48.1808 87.5721 49.1726 86.9963 50.8683 88.212" stroke="#2A2E59" stroke-width="0.6659" stroke-miterlimit="10"/>
<path d="M40.7262 85.9404C40.7262 85.9404 41.494 85.2365 43.2857 86.0044" stroke="#2A2E59" stroke-width="0.6659" stroke-miterlimit="10"/>
<path d="M41.3021 86.6443C41.3021 86.6443 42.4539 86.0684 43.5097 86.9322" stroke="#2A2E59" stroke-width="0.6659" stroke-miterlimit="10"/>
<path d="M43.9256 87.764L43.4777 102.257" stroke="#2A2E59" stroke-width="0.6659" stroke-miterlimit="10"/>
<path d="M49.7805 75.6383C49.7805 75.6383 51.3802 76.5982 52.0521 75.0624" stroke="#2A2E59" stroke-width="0.6659" stroke-miterlimit="10"/>
<path d="M51.3802 75.8304C51.3802 75.8304 52.1481 81.6853 51.9561 85.5886" stroke="#2A2E59" stroke-width="0.6659" stroke-miterlimit="10"/>
<path d="M46.5171 45.4039C46.5171 45.4039 47.029 46.6837 48.6927 46.4597" stroke="#E66657" stroke-width="0.6659" stroke-miterlimit="10"/>
<path d="M48.6607 37.5334C48.6607 37.5334 49.4605 38.6532 49.5245 39.2931C49.5885 39.9649 48.5007 40.6048 48.3727 41.0207C48.2128 41.4367 48.5647 41.9486 48.4047 42.1725C48.2448 42.4285 48.2128 42.9404 48.2128 42.9404L48.2768 43.5163C48.3088 43.7402 48.1488 43.9002 47.9568 43.9642L47.8289 43.9962C47.6689 44.0282 47.4769 43.9322 47.4129 43.7722C47.221 43.3243 46.869 42.4605 46.5491 42.3965C46.1332 42.3005 45.7492 43.0044 45.5893 43.3563C45.4933 43.5483 45.3013 44.0922 45.1094 44.5401C44.9494 44.924 44.5974 45.18 44.2135 45.212C43.7656 45.244 43.2537 45.2759 43.0617 45.212C42.7098 45.116 40.8861 41.7566 40.8541 40.1569C40.8221 38.5572 41.9099 36.9255 43.0937 36.4136C44.2135 35.8697 46.4851 35.3898 48.6607 37.5334Z" fill="#7E3636"/>
<path d="M40.4702 51.5789C40.4702 52.0268 42.3899 58.9055 42.0699 60.1213C41.782 61.337 40.9181 69.8155 40.9181 69.8155" stroke="#6060E7" stroke-width="0.6659" stroke-miterlimit="10"/>
<path d="M45.7492 35.3258C45.7492 35.3258 46.869 35.3578 47.253 34.8139C47.6369 34.27 48.8847 34.142 49.7805 35.0379C50.6763 35.9337 50.6443 37.5974 49.8765 38.2053C49.8765 38.2053 50.7723 38.0453 50.9003 38.6852C51.0283 39.3251 49.9085 40.3169 48.5967 40.6048C48.5967 40.6048 46.4531 39.9969 45.8132 40.3809C45.1733 40.7648 40.8542 40.3489 40.8542 40.3489C40.8542 40.3489 39.9263 39.485 40.1823 38.7172C40.4382 37.9493 40.6942 38.7492 40.6942 38.7492C40.6942 38.7492 40.4702 37.6934 41.878 36.1257C43.2537 34.5899 45.2373 35.4538 45.7492 35.3258Z" fill="#7E3636"/>
<path d="M66.7373 58.2336L69.7768 58.3616C69.7768 58.3616 69.6808 58.6495 69.2329 58.7455C68.785 58.8415 66.9933 59.0334 66.9933 59.0334L66.7373 58.2336Z" fill="#EB7754"/>
<path d="M67.1213 58.8735C67.1213 58.8735 68.1451 58.7135 68.369 58.7455C68.593 58.7775 68.7849 60.0253 68.7849 60.0253L67.9851 60.8891C67.9851 60.8891 67.6972 60.7611 67.9851 60.2812L68.1451 59.9933L66.8973 59.5134L67.1213 58.8735Z" fill="#FF8D68"/>
<path d="M64.1778 59.6094L65.4576 59.4494C65.4576 59.4494 66.5134 58.3936 66.7373 58.2656C66.9613 58.1376 68.0171 59.8013 68.1451 60.0253C68.1451 60.1853 67.5052 60.7612 66.8653 60.8251C66.2254 60.9211 66.0015 60.7292 66.0015 60.7292L64.5937 61.2731L64.1778 59.6094Z" fill="#FF8D68"/>
<path d="M50.8363 49.5952C50.8363 49.5952 47.9568 49.5632 48.0528 53.0825C48.1488 56.6019 54.1317 62.3288 55.7634 63.0007C57.3951 63.6725 64.3058 61.8169 64.9137 61.465C65.5216 61.113 65.3296 59.6733 64.4018 59.3214L57.2991 58.9694C57.2991 58.9694 52.8519 49.8831 50.8363 49.5952Z" fill="white"/>
<path d="M57.3951 59.5453C57.3951 59.5453 58.2589 60.4732 58.035 61.657" stroke="#A6D0F4" stroke-width="0.5347" stroke-miterlimit="10"/>
<path d="M57.843 59.3853C57.843 59.3853 59.2827 59.8332 59.3787 61.3689" stroke="#A6D0F4" stroke-width="0.5347" stroke-miterlimit="10"/>
<path d="M50.4844 42.5565H47.5089" stroke="#505E83" stroke-width="0.5192" stroke-miterlimit="10"/>
<path d="M47.8609 42.9084C47.8609 42.9084 47.6689 42.0446 46.933 42.4285C46.1972 42.8444 47.061 44.924 47.6689 44.7961C48.2448 44.6361 47.9888 43.2284 47.8609 42.9084Z" fill="#FF7759"/>
<path d="M41.686 38.7813C41.686 38.7813 43.7336 38.3013 45.2054 39.8371" stroke="#663136" stroke-width="0.5347" stroke-miterlimit="10"/>
<path d="M41.9419 38.4613C41.9419 38.4613 42.8378 37.5334 44.3415 37.9174" stroke="#663136" stroke-width="0.5347" stroke-miterlimit="10"/>
<path d="M41.75 39.1971C41.75 39.1971 42.3899 39.2611 42.8058 39.965" stroke="#663136" stroke-width="0.5347" stroke-miterlimit="10"/>
<path d="M47.9568 35.1019C47.9568 35.1019 50.0044 35.7417 49.5245 37.6294" stroke="#663136" stroke-width="0.5347" stroke-miterlimit="10"/>
<defs>
<linearGradient id="paint0_linear_1657_2701" x1="47.5899" y1="60.2609" x2="108.394" y2="60.2609" gradientUnits="userSpaceOnUse">
<stop stop-color="white" stop-opacity="0.2"/>
<stop offset="1" stop-color="white" stop-opacity="0.7"/>
</linearGradient>
</defs>
</svg>
