<svg width="130" height="130" viewBox="0 0 130 130" fill="none" xmlns="http://www.w3.org/2000/svg">
<circle cx="66.5789" cy="66.5789" r="58.4211" fill="#E6EDB7"/>
<circle cx="113.947" cy="11.3158" r="6.31579" fill="#F1BC19"/>
<circle cx="11.3158" cy="91.8421" r="6.31579" fill="#F1BC19"/>
<circle r="3.15789" transform="matrix(1 0 0 -1 14.4737 69.7369)" fill="white"/>
<circle r="2.36842" transform="matrix(1 0 0 -1 108.421 40.5263)" fill="white"/>
<circle cx="120.263" cy="101.316" r="3.15789" fill="#F1BC19"/>
<circle cx="104.474" cy="8.1579" r="1.57895" fill="#F1BC19"/>
<circle cx="119.474" cy="26.3158" r="2.36842" fill="#88AE45"/>
<circle cx="80.5" cy="58.5" r="28.5" fill="#F8FECF"/>
<path d="M36.3488 95.925V99.3337C36.3488 99.651 36.4748 99.9553 36.6992 100.18C36.9236 100.404 37.2279 100.53 37.5452 100.53H43.1089C43.4262 100.53 43.7305 100.404 43.9549 100.18C44.1793 99.9553 44.3053 99.651 44.3053 99.3337V95.925H36.3488Z" fill="#9297AB"/>
<path d="M43.1089 101H37.5452C37.1033 101 36.6796 100.824 36.3672 100.511C36.0548 100.198 35.8792 99.7747 35.8789 99.3328V95.925C35.8789 95.8004 35.9284 95.6808 36.0165 95.5927C36.1047 95.5046 36.2242 95.4551 36.3488 95.4551H44.3053C44.43 95.4551 44.5495 95.5046 44.6376 95.5927C44.7257 95.6808 44.7752 95.8004 44.7752 95.925V99.3328C44.775 99.7747 44.5994 100.198 44.287 100.511C43.9746 100.824 43.5509 101 43.1089 101V101ZM36.8187 96.3949V99.3328C36.8192 99.5253 36.8959 99.7098 37.0321 99.8459C37.1682 99.9821 37.3527 100.059 37.5452 100.059H43.108C43.3006 100.059 43.4852 99.9824 43.6214 99.8462C43.7576 99.71 43.8342 99.5254 43.8345 99.3328V96.3949H36.8187Z" fill="#323C6B"/>
<path d="M81.0222 95.925V99.3337C81.0222 99.4908 81.0532 99.6464 81.1133 99.7916C81.1734 99.9367 81.2616 100.069 81.3727 100.18C81.4838 100.291 81.6156 100.379 81.7608 100.439C81.906 100.499 82.0615 100.53 82.2186 100.53H87.7824C87.9396 100.53 88.0952 100.499 88.2404 100.439C88.3856 100.379 88.5176 100.291 88.6287 100.179C88.7398 100.068 88.8279 99.9362 88.888 99.7909C88.948 99.6456 88.9789 99.49 88.9788 99.3328V95.925H81.0222Z" fill="#9297AB"/>
<path d="M87.7823 101H82.2186C81.7768 101 81.3533 100.824 81.0409 100.511C80.7285 100.199 80.5528 99.7755 80.5523 99.3337V95.925C80.5523 95.8004 80.6018 95.6808 80.6899 95.5927C80.7781 95.5046 80.8976 95.4551 81.0222 95.4551H88.9787C89.1034 95.4551 89.2229 95.5046 89.311 95.5927C89.3991 95.6808 89.4486 95.8004 89.4486 95.925V99.3328C89.4484 99.7747 89.2728 100.198 88.9604 100.511C88.648 100.824 88.2243 101 87.7823 101V101ZM81.4931 96.3949V99.3328C81.4933 99.5254 81.5699 99.71 81.7061 99.8462C81.8423 99.9824 82.0269 100.059 82.2195 100.059H87.7823C87.9749 100.059 88.1594 99.9821 88.2955 99.8459C88.4316 99.7098 88.5083 99.5253 88.5088 99.3328V96.3949H81.4931Z" fill="#323C6B"/>
<path d="M89.5972 43.2894H35.7304C32.9577 43.2894 30.7099 45.5371 30.7099 48.3099V91.1272C30.7099 93.8999 32.9577 96.1477 35.7304 96.1477H89.5972C92.3699 96.1477 94.6177 93.8999 94.6177 91.1272V48.3099C94.6177 45.5371 92.3699 43.2894 89.5972 43.2894Z" fill="#E1E6E9"/>
<path d="M94.3075 48.7244V91.5426C94.3072 92.6127 93.9652 93.6548 93.3312 94.517C92.6973 95.3792 91.8046 96.0163 90.7832 96.3357C91.19 95.5956 91.4033 94.7648 91.4035 93.9203V51.1003C91.4015 49.7682 90.8708 48.4914 89.928 47.5504C88.9853 46.6094 87.7075 46.0811 86.3754 46.0816H32.5143C32.0076 46.0801 31.5037 46.1561 31.02 46.3072C31.4516 45.518 32.0878 44.8598 32.8618 44.4017C33.6358 43.9436 34.519 43.7025 35.4184 43.7039H89.2889C89.9481 43.7037 90.6009 43.8335 91.21 44.0858C91.8191 44.3381 92.3725 44.7079 92.8385 45.1742C93.3046 45.6404 93.6742 46.1939 93.9263 46.8031C94.1784 47.4123 94.3079 48.0651 94.3075 48.7244V48.7244Z" fill="#D5D6DB"/>
<path d="M86.4694 83.2365V86.3642C86.4695 86.7038 86.4027 87.0401 86.2728 87.3538C86.1428 87.6676 85.9523 87.9526 85.712 88.1926C85.4718 88.4327 85.1866 88.623 84.8728 88.7527C84.559 88.8825 84.2226 88.9491 83.883 88.9487H42.7875C41.8427 88.9484 40.9366 88.573 40.2685 87.9049C39.6003 87.2368 39.2249 86.3307 39.2246 85.3858V53.056C39.2239 52.5875 39.3155 52.1235 39.4942 51.6904C39.6729 51.2573 39.9351 50.8637 40.266 50.532C40.5969 50.2004 40.9899 49.9372 41.4225 49.7574C41.8552 49.5777 42.319 49.4851 42.7875 49.4847H83.883C84.569 49.4854 85.2267 49.7583 85.7117 50.2433C86.1968 50.7284 86.4696 51.386 86.4704 52.072V83.2365H86.4694Z" fill="#E1E6E9"/>
<path d="M83.883 89.4186H42.7875C41.7186 89.4164 40.6942 88.9908 39.9384 88.235C39.1826 87.4791 38.757 86.4547 38.7547 85.3858V53.056C38.7547 51.9857 39.1793 50.959 39.9354 50.2014C40.6914 49.4438 41.7172 49.017 42.7875 49.0148H83.883C84.6935 49.0158 85.4704 49.3382 86.0434 49.9114C86.6164 50.4845 86.9386 51.2616 86.9393 52.072V86.3632C86.9381 87.1733 86.6156 87.9499 86.0427 88.5227C85.4698 89.0954 84.6931 89.4176 83.883 89.4186ZM42.7875 49.9583C41.9664 49.9606 41.1797 50.2883 40.5999 50.8697C40.0201 51.4511 39.6945 52.2387 39.6946 53.0598V85.3896C39.6963 86.209 40.0228 86.9943 40.6026 87.5734C41.1824 88.1524 41.9681 88.478 42.7875 88.4788H83.883C84.4443 88.478 84.9823 88.2547 85.3791 87.8577C85.7759 87.4608 85.999 86.9226 85.9995 86.3614V52.0758C85.999 51.5145 85.7759 50.9764 85.3791 50.5794C84.9823 50.1824 84.4443 49.9591 83.883 49.9583H42.7875Z" fill="#323C6B"/>
<path d="M60.3142 71.6861C59.7237 73.5657 58.4778 75.1708 56.8035 76.2092C55.1291 77.2476 53.1376 77.6503 51.1913 77.3439C49.245 77.0376 47.4735 76.0426 46.1991 74.54C44.9247 73.0375 44.2322 71.1273 44.2476 69.1571C44.263 67.187 44.9853 65.2878 46.283 63.8054C47.5808 62.323 49.3677 61.3558 51.3185 61.08C53.2693 60.8041 55.2543 61.2379 56.9122 62.3023C58.5702 63.3668 59.7907 64.9912 60.3518 66.8798L57.2241 67.1063C56.7422 66.0242 55.9052 65.1391 54.8516 64.5975C53.7981 64.0559 52.5912 63.8904 51.4307 64.1283C50.2703 64.3661 49.2258 64.9931 48.4703 65.9055C47.7148 66.8179 47.2935 67.9609 47.2762 69.1454C47.2588 70.3299 47.6465 71.4847 48.375 72.4188C49.1035 73.3529 50.1292 74.0102 51.2822 74.2819C52.4352 74.5536 53.6464 74.4235 54.7153 73.9129C55.7843 73.4024 56.6468 72.5422 57.1602 71.4746L60.3142 71.6861Z" fill="#FCD462"/>
<path d="M52.4733 77.9105C50.8609 77.9108 49.2802 77.4625 47.908 76.6159C46.5358 75.7692 45.4261 74.5575 44.7031 73.1163C43.9801 71.6751 43.6723 70.0612 43.814 68.455C43.9558 66.8488 44.5415 65.3138 45.5057 64.0215C46.47 62.7291 47.7747 61.7305 49.274 61.1373C50.7733 60.544 52.408 60.3795 53.9955 60.6622C55.5829 60.9448 57.0604 61.6635 58.2628 62.7378C59.4651 63.8121 60.345 65.1997 60.8039 66.7454C60.8239 66.8128 60.8285 66.8838 60.8174 66.9532C60.8064 67.0225 60.7799 67.0886 60.74 67.1464C60.7 67.2042 60.6476 67.2523 60.5866 67.2871C60.5256 67.322 60.4576 67.3428 60.3875 67.3479L57.2598 67.5753C57.1625 67.5837 57.065 67.561 56.9816 67.5103C56.8981 67.4596 56.8329 67.3836 56.7955 67.2934C56.357 66.3089 55.5954 65.5038 54.6369 65.0112C53.6785 64.5185 52.5805 64.368 51.5248 64.5844C50.469 64.8009 49.5189 65.3713 48.8315 66.2014C48.1442 67.0314 47.7609 68.0713 47.7451 69.1489C47.7294 70.2264 48.082 71.2771 48.7447 72.1269C49.4074 72.9767 50.3404 73.5748 51.3894 73.8221C52.4383 74.0694 53.5402 73.9511 54.5127 73.4867C55.4852 73.0224 56.2701 72.2399 56.7373 71.2688C56.7799 71.1858 56.8454 71.1167 56.926 71.0696C57.0065 71.0225 57.0989 70.9993 57.1921 71.0028L60.3471 71.2143C60.4181 71.219 60.4872 71.2397 60.549 71.275C60.6108 71.3103 60.6638 71.3591 60.704 71.4179C60.7442 71.4766 60.7705 71.5437 60.781 71.6141C60.7914 71.6845 60.7858 71.7563 60.7644 71.8242C60.2149 73.592 59.1131 75.1369 57.6209 76.2324C56.1286 77.3278 54.3244 77.916 52.4733 77.9105V77.9105ZM52.4733 61.4637C51.0662 61.4635 49.6856 61.8464 48.4796 62.5712C47.2735 63.296 46.2875 64.3355 45.6273 65.5781C44.967 66.8206 44.6575 68.2195 44.7318 69.6246C44.8061 71.0298 45.2614 72.3882 46.049 73.5542C46.8366 74.7202 47.9268 75.6498 49.2025 76.2434C50.4783 76.837 51.8916 77.0722 53.2908 76.9236C54.69 76.7751 56.0225 76.2485 57.1452 75.4003C58.2679 74.5522 59.1386 73.4144 59.6639 72.109L57.4365 71.9605C56.9508 72.8513 56.2326 73.5938 55.3585 74.109C54.4844 74.6242 53.487 74.8928 52.4724 74.8862C51.4658 74.8861 50.4774 74.6181 49.6086 74.1098C48.7399 73.6014 48.0221 72.871 47.529 71.9935C47.0359 71.116 46.7852 70.123 46.8027 69.1166C46.8202 68.1102 47.1053 67.1266 47.6286 66.2668C48.152 65.407 48.8948 64.702 49.7807 64.2241C50.6666 63.7463 51.6637 63.5129 52.6696 63.5478C53.6756 63.5828 54.6541 63.8849 55.5047 64.423C56.3553 64.9612 57.0474 65.7161 57.5098 66.6101L59.7127 66.4503C59.1587 64.9803 58.1681 63.715 56.874 62.8245C55.5799 61.9339 54.0442 61.4607 52.4733 61.4684V61.4637Z" fill="#323C6B"/>
<path d="M73.1193 69.2341C73.1193 69.6707 73.0288 70.1027 72.8536 70.5027C72.6784 70.9027 72.4223 71.262 72.1014 71.5582C71.7804 71.8543 71.4017 72.0807 70.9889 72.2233C70.5761 72.3658 70.1383 72.4213 69.703 72.3862L55.024 71.1748C54.5516 71.1374 54.1109 70.9229 53.7899 70.5744C53.4689 70.2259 53.2913 69.769 53.2928 69.2951C53.291 68.8239 53.4663 68.3691 53.784 68.021C54.1017 67.6728 54.5385 67.4567 55.008 67.4155L69.6767 66.08C70.1139 66.0412 70.5543 66.0937 70.97 66.2343C71.3857 66.3749 71.7676 66.6005 72.0914 66.8967C72.4152 67.1929 72.6738 67.5533 72.8508 67.9549C73.0277 68.3565 73.1192 68.7905 73.1193 69.2294V69.2341Z" fill="#FCD462"/>
<path d="M69.9549 72.8655C69.8609 72.8655 69.7613 72.8655 69.6645 72.8542L54.9855 71.6428C54.397 71.5915 53.849 71.322 53.449 70.8872C53.0491 70.4525 52.8261 69.884 52.8239 69.2933C52.8198 68.7039 53.0382 68.1346 53.4354 67.6991C53.8326 67.2636 54.3794 66.9938 54.9667 66.9437L69.6344 65.6082C70.1237 65.5636 70.6169 65.6187 71.0843 65.7701C71.5517 65.9216 71.9834 66.1662 72.3535 66.4894C72.7236 66.8125 73.0243 67.2073 73.2374 67.65C73.4505 68.0926 73.5716 68.5739 73.5934 69.0647C73.6151 69.5555 73.5371 70.0456 73.364 70.5054C73.1909 70.9652 72.9263 71.3851 72.5863 71.7397C72.2463 72.0943 71.8378 72.3762 71.3857 72.5685C70.9336 72.7607 70.4472 72.8592 69.9559 72.858L69.9549 72.8655ZM69.9653 66.5415C69.8835 66.5415 69.8008 66.5415 69.7181 66.5527L55.0513 67.8882C54.6988 67.9187 54.3706 68.0805 54.1319 68.3417C53.8932 68.6028 53.7614 68.9442 53.7628 69.298C53.7645 69.6526 53.8986 69.9938 54.1389 70.2546C54.3792 70.5154 54.7083 70.677 55.0616 70.7077L69.7406 71.9191C70.1025 71.9494 70.4667 71.9062 70.8115 71.7922C71.1562 71.6781 71.4743 71.4954 71.7466 71.2552C72.0189 71.015 72.2398 70.7222 72.396 70.3944C72.5523 70.0667 72.6406 69.7107 72.6557 69.3479C72.6708 68.9851 72.6123 68.623 72.4839 68.2833C72.3554 67.9437 72.1596 67.6336 71.9082 67.3716C71.6567 67.1096 71.3549 66.9012 71.0209 66.7588C70.6868 66.6165 70.3274 66.5432 69.9643 66.5433L69.9653 66.5415Z" fill="#323C6B"/>
<path d="M70.8092 99.4371H61.8123C61.6877 99.4371 61.5681 99.3876 61.48 99.2994C61.3919 99.2113 61.3424 99.0918 61.3424 98.9672C61.3424 98.8425 61.3919 98.723 61.48 98.6349C61.5681 98.5468 61.6877 98.4973 61.8123 98.4973H70.8092C70.9338 98.4973 71.0533 98.5468 71.1415 98.6349C71.2296 98.723 71.2791 98.8425 71.2791 98.9672C71.2791 99.0918 71.2296 99.2113 71.1415 99.2994C71.0533 99.3876 70.9338 99.4371 70.8092 99.4371Z" fill="#323C6B"/>
<path d="M59.756 99.4371H58.9628C58.8381 99.4371 58.7186 99.3876 58.6305 99.2994C58.5424 99.2113 58.4929 99.0918 58.4929 98.9672C58.4929 98.8425 58.5424 98.723 58.6305 98.6349C58.7186 98.5468 58.8381 98.4973 58.9628 98.4973H59.756C59.8806 98.4973 60.0001 98.5468 60.0883 98.6349C60.1764 98.723 60.2259 98.8425 60.2259 98.9672C60.2259 99.0918 60.1764 99.2113 60.0883 99.2994C60.0001 99.3876 59.8806 99.4371 59.756 99.4371Z" fill="#323C6B"/>
<path d="M28.4694 45.6934C28.4081 45.6935 28.3474 45.6813 28.2908 45.6577C28.1757 45.6103 28.0842 45.5191 28.0362 45.4042C27.9883 45.2893 27.9879 45.1601 28.0352 45.045C28.6404 43.5524 29.6779 42.2747 31.0143 41.3759C32.3507 40.477 33.9253 39.9979 35.5359 40H36.0349C36.1595 40 36.2791 40.0495 36.3672 40.1376C36.4553 40.2258 36.5048 40.3453 36.5048 40.4699C36.5048 40.5945 36.4553 40.7141 36.3672 40.8022C36.2791 40.8903 36.1595 40.9398 36.0349 40.9398H35.5359C34.1119 40.9388 32.72 41.363 31.5385 42.158C30.3571 42.953 29.4399 44.0826 28.9045 45.4021C28.8691 45.4884 28.8088 45.5621 28.7313 45.614C28.6538 45.6659 28.5626 45.6935 28.4694 45.6934V45.6934Z" fill="#323C6B"/>
<path d="M38.7764 40.9398H38.3657C38.241 40.9398 38.1215 40.8903 38.0334 40.8022C37.9453 40.7141 37.8958 40.5945 37.8958 40.4699C37.8958 40.3453 37.9453 40.2258 38.0334 40.1376C38.1215 40.0495 38.241 40 38.3657 40H38.7773C38.9019 40 39.0215 40.0495 39.1096 40.1376C39.1977 40.2258 39.2472 40.3453 39.2472 40.4699C39.2472 40.5945 39.1977 40.7141 39.1096 40.8022C39.0215 40.8903 38.9019 40.9398 38.7773 40.9398H38.7764Z" fill="#323C6B"/>
<path d="M87.6188 54.0343H85.321C84.845 54.0343 84.4592 54.4202 84.4592 54.8961V62.5576C84.4592 63.0335 84.845 63.4194 85.321 63.4194H87.6188C88.0948 63.4194 88.4807 63.0335 88.4807 62.5576V54.8961C88.4807 54.4202 88.0948 54.0343 87.6188 54.0343Z" fill="#9297AB"/>
<path d="M87.6188 63.8893H85.32C84.9669 63.889 84.6283 63.7487 84.3786 63.499C84.1289 63.2493 83.9885 62.9107 83.9883 62.5576V54.8961C83.9885 54.543 84.1289 54.2044 84.3786 53.9548C84.6283 53.7051 84.9669 53.5647 85.32 53.5644H87.6188C87.9719 53.5647 88.3105 53.7051 88.5602 53.9548C88.8099 54.2044 88.9503 54.543 88.9505 54.8961V62.5576C88.9503 62.9107 88.8099 63.2493 88.5602 63.499C88.3105 63.7487 87.9719 63.889 87.6188 63.8893V63.8893ZM85.32 54.5042C85.2685 54.5042 85.2176 54.5144 85.17 54.5341C85.1225 54.5538 85.0793 54.5826 85.0429 54.619C85.0065 54.6554 84.9776 54.6986 84.9579 54.7462C84.9382 54.7937 84.9281 54.8447 84.9281 54.8961V62.5576C84.9281 62.6615 84.9694 62.7612 85.0429 62.8347C85.1164 62.9082 85.2161 62.9495 85.32 62.9495H87.6188C87.7228 62.9495 87.8224 62.9082 87.8959 62.8347C87.9694 62.7612 88.0107 62.6615 88.0107 62.5576V54.8961C88.0107 54.8447 88.0006 54.7937 87.9809 54.7462C87.9612 54.6986 87.9323 54.6554 87.8959 54.619C87.8595 54.5826 87.8163 54.5538 87.7688 54.5341C87.7212 54.5144 87.6703 54.5042 87.6188 54.5042H85.32Z" fill="#323C6B"/>
<path d="M87.6188 75.0233H85.321C84.845 75.0233 84.4592 75.4092 84.4592 75.8852V83.5466C84.4592 84.0225 84.845 84.4084 85.321 84.4084H87.6188C88.0948 84.4084 88.4807 84.0225 88.4807 83.5466V75.8852C88.4807 75.4092 88.0948 75.0233 87.6188 75.0233Z" fill="#9297AB"/>
<path d="M87.6188 84.8783H85.32C84.9669 84.8781 84.6283 84.7377 84.3786 84.488C84.1289 84.2383 83.9885 83.8997 83.9883 83.5466V75.8852C83.9885 75.532 84.1289 75.1935 84.3786 74.9438C84.6283 74.6941 84.9669 74.5537 85.32 74.5534H87.6188C87.9719 74.5537 88.3105 74.6941 88.5602 74.9438C88.8099 75.1935 88.9503 75.532 88.9505 75.8852V83.5466C88.9503 83.8997 88.8099 84.2383 88.5602 84.488C88.3105 84.7377 87.9719 84.8781 87.6188 84.8783V84.8783ZM85.32 75.4933C85.2161 75.4933 85.1164 75.5345 85.0429 75.608C84.9694 75.6815 84.9281 75.7812 84.9281 75.8852V83.5466C84.9281 83.6505 84.9694 83.7502 85.0429 83.8237C85.1164 83.8972 85.2161 83.9385 85.32 83.9385H87.6188C87.7228 83.9385 87.8224 83.8972 87.8959 83.8237C87.9694 83.7502 88.0107 83.6505 88.0107 83.5466V75.8852C88.0107 75.7812 87.9694 75.6815 87.8959 75.608C87.8224 75.5345 87.7228 75.4933 87.6188 75.4933H85.32Z" fill="#323C6B"/>
<path d="M89.5972 96.6176H35.7304C34.2747 96.6161 32.8791 96.0372 31.8497 95.0078C30.8204 93.9785 30.2415 92.5829 30.24 91.1272V48.309C30.2417 46.8534 30.8208 45.458 31.8501 44.4289C32.8794 43.3998 34.2749 42.821 35.7304 42.8195H89.5972C91.0527 42.821 92.4482 43.3998 93.4775 44.4289C94.5068 45.458 95.0859 46.8534 95.0876 48.309V91.1272C95.0861 92.5829 94.5072 93.9785 93.4778 95.0078C92.4485 96.0372 91.0529 96.6161 89.5972 96.6176V96.6176ZM35.7304 43.7593C34.5241 43.7605 33.3675 44.2402 32.5144 45.0932C31.6613 45.9461 31.1813 47.1026 31.1798 48.309V91.1272C31.1811 92.3337 31.6609 93.4904 32.514 94.3436C33.3672 95.1967 34.5239 95.6765 35.7304 95.6778H89.5972C90.8037 95.6765 91.9604 95.1967 92.8136 94.3436C93.6667 93.4904 94.1465 92.3337 94.1478 91.1272V48.309C94.1463 47.1026 93.6663 45.9461 92.8132 45.0932C91.9601 44.2402 90.8035 43.7605 89.5972 43.7593H35.7304Z" fill="#323C6B"/>
</svg>
