<svg width="130" height="130" viewBox="0 0 130 130" fill="none" xmlns="http://www.w3.org/2000/svg">
<g clip-path="url(#clip0_1905_214)">
<path d="M66.5395 129.829C101.493 129.829 129.829 101.493 129.829 66.5395C129.829 31.5857 101.493 3.25 66.5395 3.25C31.5857 3.25 3.25 31.5857 3.25 66.5395C3.25 101.493 31.5857 129.829 66.5395 129.829Z" fill="#E6EDB7"/>
<path d="M118.026 13.6842C121.805 13.6842 124.868 10.6209 124.868 6.84211C124.868 3.06331 121.805 0 118.026 0C114.247 0 111.184 3.06331 111.184 6.84211C111.184 10.6209 114.247 13.6842 118.026 13.6842Z" fill="#F1BC19"/>
<path d="M6.84211 100.921C10.6209 100.921 13.6842 97.8577 13.6842 94.0789C13.6842 90.3001 10.6209 87.2368 6.84211 87.2368C3.06331 87.2368 0 90.3001 0 94.0789C0 97.8577 3.06331 100.921 6.84211 100.921Z" fill="#F1BC19"/>
<path d="M10.2631 66.7106C12.1525 66.7106 13.6841 68.2423 13.6841 70.1317C13.6841 72.0211 12.1525 73.5527 10.2631 73.5527C8.3737 73.5527 6.84204 72.0211 6.84204 70.1317C6.84204 68.2423 8.3737 66.7106 10.2631 66.7106Z" fill="white"/>
<path d="M112.039 35.921C113.456 35.921 114.605 37.0698 114.605 38.4868C114.605 39.9039 113.456 41.0526 112.039 41.0526C110.622 41.0526 109.474 39.9039 109.474 38.4868C109.474 37.0698 110.622 35.921 112.039 35.921Z" fill="white"/>
<path d="M124.868 107.763C126.758 107.763 128.289 106.231 128.289 104.342C128.289 102.453 126.758 100.921 124.868 100.921C122.979 100.921 121.447 102.453 121.447 104.342C121.447 106.231 122.979 107.763 124.868 107.763Z" fill="#F1BC19"/>
<path d="M107.763 5.13157C108.708 5.13157 109.474 4.36574 109.474 3.42104C109.474 2.47634 108.708 1.71051 107.763 1.71051C106.819 1.71051 106.053 2.47634 106.053 3.42104C106.053 4.36574 106.819 5.13157 107.763 5.13157Z" fill="#F1BC19"/>
<path d="M124.014 25.6579C125.431 25.6579 126.579 24.5091 126.579 23.0921C126.579 21.675 125.431 20.5263 124.014 20.5263C122.596 20.5263 121.448 21.675 121.448 23.0921C121.448 24.5091 122.596 25.6579 124.014 25.6579Z" fill="#88AE45"/>
<path d="M81.7917 88.8333C98.8435 88.8333 112.667 75.0101 112.667 57.9583C112.667 40.9065 98.8435 27.0833 81.7917 27.0833C64.74 27.0833 50.9167 40.9065 50.9167 57.9583C50.9167 75.0101 64.74 88.8333 81.7917 88.8333Z" fill="#F8FECF"/>
<path d="M109.604 28.1608H82.8095C81.0965 28.1608 79.7007 29.5566 79.7007 31.2696V58.0858C79.7007 59.7988 81.0965 61.1946 82.8095 61.1946H109.626C111.339 61.1946 112.734 59.7988 112.734 58.0858V31.2696C112.734 29.5566 111.339 28.1608 109.604 28.1608Z" fill="white"/>
<path d="M86.0664 40.3845H91.9034V34.5475H86.0664V40.3845ZM87.4411 35.901H90.5287V38.9887H87.4411V35.901Z" fill="black"/>
<path d="M89.7038 36.7469H88.2869V38.1638H89.7038V36.7469Z" fill="black"/>
<path d="M86.0664 54.8078H91.9034V48.9708H86.0664V54.8078ZM87.4411 50.3455H90.5287V53.4331H87.4411V50.3455Z" fill="black"/>
<path d="M89.7038 51.1702H88.2869V52.5871H89.7038V51.1702Z" fill="black"/>
<path d="M100.511 34.5475V40.3845H106.348V34.5475H100.511ZM104.973 39.0099H101.885V35.9222H104.973V39.0099Z" fill="black"/>
<path d="M104.127 36.7469H102.71V38.1638H104.127V36.7469Z" fill="black"/>
<path d="M102.097 43.1128H104.296V45.6929H106.348V43.1128V42.4783V41.146H102.097V43.1128Z" fill="black"/>
<path d="M98.417 36.3875H99.7282V34.5475H96.6194V38.037H98.417V36.3875ZM98.417 36.3875H97.5288V35.4992H98.417V36.3875Z" fill="black"/>
<path d="M93.7432 50.705H92.6858V52.6295H93.7432V50.705Z" fill="black"/>
<path d="M94.1662 53.4119H93.7432H92.6858V54.8077H95.1179V50.705H94.1662V53.4119Z" fill="black"/>
<path d="M103.768 54.8077H104.719V53.9195V53.1793H106.348V51.6566H103.768V54.8077Z" fill="black"/>
<path d="M106.348 53.9194H105.481V54.7865H106.348V53.9194Z" fill="black"/>
<path d="M91.6284 41.146H86.0664V42.2669H91.6284V41.146Z" fill="black"/>
<path d="M88.9637 43.4087H90.6556V44.9314V45.3966H91.6496V42.7319H86.0664V44.1066H88.9637V43.4087Z" fill="black"/>
<path d="M91.6283 46.3273H90.6555V48.1883H91.6283V46.3273Z" fill="black"/>
<path d="M94.0606 44.593H92.1572V48.1882H92.6859V49.6475H94.0606V44.593Z" fill="black"/>
<path d="M106.348 46.0522H103.979V47.9345H106.348V46.0522Z" fill="black"/>
<path d="M96.408 47.4058H94.7373V49.6475H96.408V47.4058Z" fill="black"/>
<path d="M94.8008 37.3603V39.9192H96.7887V38.6926H95.5621V37.3603H94.8008Z" fill="black"/>
<path d="M94.42 37.3603H92.6858V39.9192H94.42V37.3603Z" fill="black"/>
<path d="M99.7284 38.6926H97.9519V39.8981H99.7284V38.6926Z" fill="black"/>
<path d="M87.7794 45.2909H86.0664V46.6232H87.7794V45.2909Z" fill="black"/>
<path d="M89.8309 45.2909H88.6255V46.6232H89.8309V45.2909Z" fill="black"/>
<path d="M89.8308 47.0038H86.0664V48.1881H89.8308V47.0038Z" fill="black"/>
<path d="M106.348 49.3937H103.768V50.726H106.348V49.3937Z" fill="black"/>
<path d="M97.6135 50.705H95.5833V51.8681H97.6135V50.705Z" fill="black"/>
<path d="M97.6135 52.8408H95.5833V54.8076H97.6135V52.8408Z" fill="black"/>
<path d="M94.0393 34.5475H92.6858V36.7047H94.0393V34.5475Z" fill="black"/>
<path d="M95.5619 35.8798H94.4199V36.7046H95.5619V35.8798Z" fill="black"/>
<path d="M95.5619 34.5475H94.4199V35.33H95.5619V34.5475Z" fill="black"/>
<path d="M103.408 44.2759H102.097V45.5871H103.408V44.2759Z" fill="black"/>
<path d="M101.336 41.1458H99.7283V40.3633H97.2328V44.8679H96.0062V40.3633H92.7071V41.1458H92.1572V43.6624H94.0606V42.3512H94.7373V46.031H97.7615V46.7078H103.239V46.031H101.336V41.1458ZM100.426 43.599H99.1573V44.5718H98.1634V43.5778H99.1573V42.3089H100.426V43.599Z" fill="black"/>
<path d="M103.239 47.1096H101.357V47.9133H103.239V47.1096Z" fill="black"/>
<path d="M100.447 52.8408H98.9036V54.8076H101.082V53.4118H100.447V52.8408Z" fill="black"/>
<path d="M102.203 53.412H101.737V54.8078H102.879V50.9376H102.203V53.412Z" fill="black"/>
<path d="M100.786 47.1096H97.7615V49.6474H98.9035V52.0795H100.447V51.4873H101.484V50.1973H102.858V49.3725H100.765V47.1096H100.786ZM99.5379 48.8438H98.3325V47.6383H99.5379V48.8438Z" fill="black"/>
<path d="M82.8517 75.808L61.3439 68.6598C58.2985 66.6719 56.7124 63.0767 57.2622 59.5026C58.0447 54.5327 58.9541 47.8921 58.6157 45.8619C58.3196 44.0431 57.0719 42.8588 55.8664 42.2455C54.9148 41.7803 53.6247 42.3936 53.3075 43.4087C52.3135 46.5809 49.966 53.3696 47.0264 56.9648C43.114 61.7655 43.9176 71.8321 43.9176 71.8321C44.0656 74.814 43.5581 77.8171 42.3738 80.5664C39.0535 88.4124 31.6727 101.461 27.4219 108.778H55.3377L62.2109 96.5968C63.4798 94.3551 65.4255 92.5786 67.7941 91.5847C67.8153 91.5847 67.8364 91.5635 67.8364 91.5635C71.8123 89.9351 76.9302 87.7568 79.8275 85.6208C86.4258 80.7355 84.5436 76.9288 82.8517 75.808Z" fill="url(#paint0_linear_1905_214)"/>
<path d="M82.8517 75.8082L79.1296 74.5815L61.8725 83.9926C61.8725 83.9926 57.8543 85.3038 54.3014 92.5154C52.821 95.4973 49.0989 102.096 45.2288 108.8H55.3377L62.2109 96.6181C63.4798 94.3764 65.4255 92.6 67.7941 91.606C67.8152 91.606 67.8364 91.5848 67.8364 91.5848C71.8123 89.9564 76.9302 87.7781 79.8275 85.6421C86.4258 80.7357 84.5436 76.929 82.8517 75.8082Z" fill="url(#paint1_linear_1905_214)"/>
<path d="M60.1172 82.3639C57.2833 82.3639 54.9993 80.0588 54.9993 77.246V29.7468C54.9993 26.9129 57.3044 24.6289 60.1172 24.6289H78.7912C81.6251 24.6289 83.9091 26.9341 83.9091 29.7468V77.246C83.9091 80.0799 81.6039 82.3639 78.7912 82.3639H60.1172V82.3639Z" fill="url(#paint2_linear_1905_214)"/>
<path d="M60.1172 81.3912C57.8332 81.3912 55.9722 79.5301 55.9722 77.2461V29.7469C55.9722 27.4629 57.8332 25.6018 60.1172 25.6018H78.7913C81.0753 25.6018 82.9363 27.4629 82.9363 29.7469V77.2461C82.9363 79.5301 81.0753 81.3912 78.7913 81.3912H60.1172Z" fill="url(#paint3_linear_1905_214)"/>
<path d="M78.8335 26.7015H76.8032C76.4649 26.7015 76.1476 26.9342 76.0842 27.2725L75.9362 27.9281C75.8093 28.4357 75.3651 28.7741 74.8576 28.7741H64.1565C63.649 28.7741 63.2048 28.4146 63.0779 27.9281L62.9299 27.2725C62.8453 26.9342 62.5492 26.7015 62.2109 26.7015H60.1806C58.5099 26.7015 57.1353 28.055 57.1353 29.7469V77.2461C57.1353 78.9169 58.4888 80.2915 60.1806 80.2915H78.8335C80.5042 80.2915 81.8788 78.938 81.8788 77.2461V29.7469C81.8788 28.055 80.5253 26.7015 78.8335 26.7015Z" fill="url(#paint4_linear_1905_214)"/>
<g opacity="0.38">
<path d="M76.8031 27.907L76.9511 27.2514C77.0357 26.913 77.3318 26.6804 77.6702 26.6804H76.8031C76.4647 26.6804 76.1475 26.913 76.084 27.2514L75.936 27.907C75.8091 28.4145 75.365 28.7529 74.8574 28.7529H75.7245C76.2532 28.774 76.6973 28.4145 76.8031 27.907Z" fill="#86FFBF"/>
<path d="M58.0233 77.2461V29.7469C58.0233 28.0762 59.3768 26.7015 61.0687 26.7015H60.2016C58.5309 26.7015 57.1562 28.055 57.1562 29.7469V77.2461C57.1562 78.9169 58.5097 80.2915 60.2016 80.2915H61.0687C59.3768 80.2915 58.0233 78.9169 58.0233 77.2461Z" fill="#86FFBF"/>
</g>
<path d="M62.9087 47.9555H66.6943V44.1699H62.9087V47.9555ZM63.7969 45.0793H65.806V47.0884H63.7969V45.0793Z" fill="black"/>
<path d="M65.2351 45.608H64.3257V46.5174H65.2351V45.608Z" fill="black"/>
<path d="M62.9087 57.3031H66.6943V53.5176H62.9087V57.3031ZM63.7969 54.4058H65.806V56.4149H63.7969V54.4058Z" fill="black"/>
<path d="M65.2351 54.9554H64.3257V55.8648H65.2351V54.9554Z" fill="black"/>
<path d="M72.2351 44.191V47.9766H76.0207V44.191H72.2351ZM75.1324 47.0672H73.1233V45.0581H75.1324V47.0672Z" fill="black"/>
<path d="M74.5827 45.608H73.6733V46.5174H74.5827V45.608Z" fill="black"/>
<path d="M73.2715 49.7318H74.6884V51.4025H76.0208V49.7318V49.33V48.4629H73.2715V49.7318Z" fill="black"/>
<path d="M70.8817 45.3753H71.7276V44.191H69.7185V46.4539H70.8817V45.3753ZM70.8817 45.3753H70.3107V44.8043H70.8817V45.3753Z" fill="black"/>
<path d="M67.8574 54.6595H67.1807V55.9073H67.8574V54.6595Z" fill="black"/>
<path d="M68.1323 56.3937H67.8786H67.1807V57.3031H68.7456V54.6595H68.1323V56.3937Z" fill="black"/>
<path d="M74.3501 57.3031H74.9634V56.7321V56.2668H76.0208V55.2728H74.3501V57.3031Z" fill="black"/>
<path d="M75.9996 56.7318H75.4497V57.3028H75.9996V56.7318Z" fill="black"/>
<path d="M66.5039 48.4629H62.9087V49.1819H66.5039V48.4629Z" fill="black"/>
<path d="M64.7697 49.9221H65.8695V50.9161V51.2122H66.5039V49.478H62.9087V50.3874H64.7697V49.9221Z" fill="black"/>
<path d="M66.5038 51.8256H65.8694V53.031H66.5038V51.8256Z" fill="black"/>
<path d="M68.0689 50.7047H66.8423V53.0099H67.1807V53.9616H68.0689V50.7047Z" fill="black"/>
<path d="M75.9995 51.6353H74.4768V52.8619H75.9995V51.6353Z" fill="black"/>
<path d="M69.5705 52.5234H68.4919V53.9827H69.5705V52.5234Z" fill="black"/>
<path d="M68.5554 46.0099V47.6595H69.8455V46.877H69.0418V46.0099H68.5554Z" fill="black"/>
<path d="M68.3015 46.0099H67.1807V47.6595H68.3015V46.0099Z" fill="black"/>
<path d="M71.7489 46.8768H70.5857V47.6593H71.7489V46.8768Z" fill="black"/>
<path d="M64.0296 51.1489H62.9087V52.016H64.0296V51.1489Z" fill="black"/>
<path d="M65.3408 51.1489H64.5583V52.016H65.3408V51.1489Z" fill="black"/>
<path d="M65.3408 52.2487H62.9087V53.01H65.3408V52.2487Z" fill="black"/>
<path d="M76.0208 53.7924H74.3501V54.6594H76.0208V53.7924Z" fill="black"/>
<path d="M70.3742 54.6595H69.063V55.3997H70.3742V54.6595Z" fill="black"/>
<path d="M70.3742 56.0341H69.063V57.303H70.3742V56.0341Z" fill="black"/>
<path d="M68.0689 44.191H67.1807V45.5868H68.0689V44.191Z" fill="black"/>
<path d="M69.0417 45.0581H68.3015V45.5868H69.0417V45.0581Z" fill="black"/>
<path d="M69.0417 44.191H68.3015V44.6986H69.0417V44.191Z" fill="black"/>
<path d="M74.1174 50.4933H73.2715V51.3392H74.1174V50.4933Z" fill="black"/>
<path d="M72.7638 48.463H71.7276V47.9554H70.1203V50.8739H69.3166V47.9554H67.1807V48.463H66.8423V50.0914H68.0689V49.2455H68.4919V51.6353H70.4587V52.0794H73.9904V51.6353H72.7638V48.463ZM72.1928 50.0491H71.368V50.6836H70.7336V50.0491H71.368V49.2243H72.1928V50.0491Z" fill="black"/>
<path d="M74.0115 52.3331H72.7849V52.8618H74.0115V52.3331Z" fill="black"/>
<path d="M72.193 56.0341H71.199V57.303H72.6159V56.3936H72.193V56.0341Z" fill="black"/>
<path d="M73.3349 56.3936H73.0388V57.303H73.779V54.8075H73.3349V56.3936Z" fill="black"/>
<path d="M72.4255 52.3331H70.4587V53.9827H71.1989V55.5688H72.1929V55.1882H72.8697V54.3422H73.7579V53.7924H72.4044V52.3331H72.4255ZM71.6008 53.454H70.8183V52.6715H71.6008V53.454Z" fill="black"/>
<path d="M61.0054 47.8497H60.4978V41.9493H66.3982V42.4569H61.0054V47.8497Z" fill="black"/>
<path d="M78.4106 47.8497H77.9242V42.4569H72.5103V41.9493H78.4106V47.8497Z" fill="black"/>
<path d="M78.4106 59.545H72.5103V59.0374H77.9242V53.6234H78.4106V59.545Z" fill="black"/>
<path d="M66.3982 59.545H60.4978V53.6234H61.0054V59.0374H66.3982V59.545Z" fill="black"/>
<path d="M78.4316 45.6292H60.4978V46.2425H78.4316V45.6292Z" fill="#FC2B2B"/>
<path d="M78.4316 46.2424H60.4978V56.7109H78.4316V46.2424Z" fill="url(#paint5_linear_1905_214)" fill-opacity="0.37"/>
<path d="M74.6461 78.7687H64.2834C64.1776 78.7687 64.093 78.8533 64.093 78.959C64.093 79.0648 64.1776 79.1493 64.2834 79.1493H74.6461C74.7518 79.1493 74.8364 79.0648 74.8364 78.959C74.8364 78.8533 74.7518 78.7687 74.6461 78.7687Z" fill="black"/>
<g opacity="0.59">
<path d="M59.8844 30.6774L59.7576 30.5505L58.9116 31.4176L59.7576 32.2636L59.8844 32.1367L59.2288 31.4811H60.6881V31.333H59.2288L59.8844 30.6774Z" fill="black"/>
<path d="M79.3831 31.1636H78.6218L79.1716 30.6349L79.1082 30.6137H78.4737L77.8181 31.5231H78.7275L78.0296 32.4959L79.3831 31.1636Z" fill="black"/>
</g>
<path d="M76.0649 71.3477H62.8219C62.3345 71.3477 61.9531 71.7657 61.9531 72.2998V74.2041C61.9531 74.7382 62.3345 75.1562 62.8219 75.1562H76.0649C76.5522 75.1562 76.9336 74.7382 76.9336 74.2041V72.2998C76.9336 71.7657 76.5522 71.3477 76.0649 71.3477Z" fill="white"/>
<path d="M65.1176 73.6128C65.1176 73.6927 65.0982 73.7622 65.0595 73.8213C65.0207 73.8803 64.9641 73.9259 64.8897 73.9578C64.8159 73.9898 64.7261 74.0058 64.6203 74.0058C64.5735 74.0058 64.5277 74.0027 64.4828 73.9966C64.4385 73.9904 64.3958 73.9815 64.3545 73.9698C64.3139 73.9575 64.2752 73.9425 64.2383 73.9246V73.6589C64.3023 73.6872 64.3687 73.7127 64.4376 73.7355C64.5065 73.7582 64.5748 73.7696 64.6424 73.7696C64.6892 73.7696 64.7267 73.7635 64.755 73.7512C64.7839 73.7389 64.8048 73.7219 64.8177 73.7004C64.8306 73.6789 64.8371 73.6543 64.8371 73.6266C64.8371 73.5928 64.8257 73.5639 64.803 73.5399C64.7802 73.5159 64.7488 73.4934 64.7088 73.4725C64.6695 73.4516 64.6249 73.4291 64.5751 73.4052C64.5437 73.3904 64.5095 73.3726 64.4726 73.3516C64.4357 73.3301 64.4007 73.304 64.3675 73.2732C64.3342 73.2425 64.3069 73.2052 64.2853 73.1616C64.2644 73.1173 64.254 73.0644 64.254 73.0029C64.254 72.9223 64.2724 72.8534 64.3093 72.7962C64.3462 72.739 64.3988 72.6953 64.4671 72.6652C64.536 72.6344 64.6172 72.619 64.7107 72.619C64.7808 72.619 64.8476 72.6273 64.9109 72.6439C64.9749 72.6599 65.0416 72.6833 65.1111 72.7141L65.0189 72.9364C64.9567 72.9112 64.9011 72.8918 64.8519 72.8783C64.8027 72.8642 64.7525 72.8571 64.7015 72.8571C64.6658 72.8571 64.6353 72.8629 64.6101 72.8746C64.5849 72.8857 64.5658 72.9017 64.5529 72.9226C64.54 72.9429 64.5335 72.9666 64.5335 72.9936C64.5335 73.0256 64.5428 73.0527 64.5612 73.0748C64.5803 73.0964 64.6086 73.1173 64.6461 73.1376C64.6842 73.1579 64.7316 73.1816 64.7882 73.2086C64.8571 73.2412 64.9158 73.2754 64.9644 73.311C65.0136 73.3461 65.0515 73.3876 65.0779 73.4356C65.1044 73.483 65.1176 73.542 65.1176 73.6128Z" fill="black"/>
<path d="M65.9351 72.8571C65.8803 72.8571 65.8317 72.8678 65.7893 72.8894C65.7475 72.9103 65.7121 72.9407 65.6832 72.9807C65.6549 73.0207 65.6334 73.069 65.6186 73.1256C65.6038 73.1822 65.5965 73.2458 65.5965 73.3166C65.5965 73.4119 65.6082 73.4934 65.6315 73.5611C65.6555 73.6281 65.6924 73.6795 65.7422 73.7152C65.7921 73.7502 65.8564 73.7678 65.9351 73.7678C65.9898 73.7678 66.0446 73.7616 66.0993 73.7493C66.1547 73.737 66.2147 73.7195 66.2792 73.6967V73.9366C66.2196 73.9612 66.1608 73.9788 66.103 73.9892C66.0452 74.0003 65.9803 74.0058 65.9083 74.0058C65.7693 74.0058 65.6549 73.9772 65.5651 73.92C65.4759 73.8622 65.4098 73.7816 65.3667 73.6783C65.3237 73.5743 65.3021 73.4531 65.3021 73.3147C65.3021 73.2126 65.316 73.1191 65.3437 73.0342C65.3713 72.9494 65.4119 72.8758 65.4654 72.8137C65.519 72.7516 65.5851 72.7036 65.6638 72.6698C65.7426 72.6359 65.833 72.619 65.9351 72.619C66.0021 72.619 66.0692 72.6276 66.1362 72.6449C66.2039 72.6615 66.2685 72.6845 66.33 72.7141L66.2377 72.9466C66.1873 72.9226 66.1365 72.9017 66.0855 72.8838C66.0344 72.866 65.9843 72.8571 65.9351 72.8571Z" fill="black"/>
<path d="M67.3929 73.9874L67.2951 73.6663H66.8033L66.7055 73.9874H66.3974L66.8735 72.6329H67.2231L67.7011 73.9874H67.3929ZM67.2268 73.4264L67.129 73.1127C67.1229 73.0918 67.1146 73.065 67.1041 73.0324C67.0943 72.9992 67.0841 72.9657 67.0737 72.9318C67.0638 72.8974 67.0558 72.8675 67.0497 72.8423C67.0435 72.8675 67.0349 72.8989 67.0238 72.9364C67.0134 72.9733 67.0032 73.0084 66.9934 73.0416C66.9836 73.0748 66.9765 73.0985 66.9722 73.1127L66.8753 73.4264H67.2268Z" fill="black"/>
<path d="M69.0685 73.9874H68.705L68.1181 72.9669H68.1098C68.1123 73.0093 68.1145 73.0521 68.1163 73.0951C68.1181 73.1382 68.12 73.1813 68.1218 73.2243C68.1237 73.2668 68.1255 73.3095 68.1274 73.3526V73.9874H67.8718V72.6384H68.2326L68.8185 73.6487H68.8249C68.8237 73.6069 68.8222 73.5654 68.8203 73.5242C68.8185 73.483 68.8166 73.4418 68.8148 73.4005C68.8135 73.3593 68.8123 73.3181 68.8111 73.2769V72.6384H69.0685V73.9874Z" fill="black"/>
<path d="M71.0966 73.9874H70.733L70.1462 72.9669H70.1379C70.1404 73.0093 70.1425 73.0521 70.1443 73.0951C70.1462 73.1382 70.148 73.1813 70.1499 73.2243C70.1517 73.2668 70.1536 73.3095 70.1554 73.3526V73.9874H69.8998V72.6384H70.2606L70.8465 73.6487H70.853C70.8517 73.6069 70.8502 73.5654 70.8484 73.5242C70.8465 73.483 70.8447 73.4418 70.8428 73.4005C70.8416 73.3593 70.8404 73.3181 70.8391 73.2769V72.6384H71.0966V73.9874Z" fill="black"/>
<path d="M72.6614 73.311C72.6614 73.415 72.6485 73.5097 72.6227 73.5952C72.5968 73.6801 72.5575 73.7533 72.5046 73.8148C72.4523 73.8763 72.3858 73.9237 72.3053 73.9569C72.2247 73.9895 72.1293 74.0058 72.0192 74.0058C71.9091 74.0058 71.8138 73.9895 71.7332 73.9569C71.6526 73.9237 71.5859 73.8763 71.533 73.8148C71.4807 73.7533 71.4416 73.6798 71.4158 73.5943C71.39 73.5088 71.377 73.4138 71.377 73.3092C71.377 73.1696 71.3998 73.0481 71.4453 72.9447C71.4915 72.8408 71.5622 72.7602 71.6575 72.703C71.7529 72.6458 71.8741 72.6172 72.0211 72.6172C72.1675 72.6172 72.2877 72.6458 72.3818 72.703C72.4766 72.7602 72.5467 72.8408 72.5922 72.9447C72.6383 73.0487 72.6614 73.1708 72.6614 73.311ZM71.6769 73.311C71.6769 73.4052 71.6886 73.4864 71.712 73.5546C71.736 73.6223 71.7732 73.6746 71.8236 73.7115C71.8741 73.7478 71.9393 73.7659 72.0192 73.7659C72.1004 73.7659 72.1662 73.7478 72.2167 73.7115C72.2671 73.6746 72.3037 73.6223 72.3265 73.5546C72.3499 73.4864 72.3615 73.4052 72.3615 73.311C72.3615 73.1696 72.3351 73.0582 72.2822 72.977C72.2293 72.8958 72.1423 72.8552 72.0211 72.8552C71.9405 72.8552 71.8747 72.8737 71.8236 72.9106C71.7732 72.9469 71.736 72.9992 71.712 73.0675C71.6886 73.1351 71.6769 73.2163 71.6769 73.311Z" fill="black"/>
<path d="M74.5981 72.6384L74.2549 73.9874H73.9292L73.7465 73.2787C73.7428 73.2652 73.7379 73.2446 73.7317 73.2169C73.7256 73.1892 73.7191 73.1591 73.7123 73.1265C73.7056 73.0933 73.6994 73.0622 73.6939 73.0333C73.689 73.0038 73.6856 72.9804 73.6837 72.9632C73.6819 72.9804 73.6782 73.0035 73.6727 73.0324C73.6678 73.0613 73.6619 73.0921 73.6551 73.1247C73.649 73.1573 73.6428 73.1877 73.6367 73.216C73.6305 73.2443 73.6256 73.2658 73.6219 73.2806L73.4402 73.9874H73.1154L72.7712 72.6384H73.0526L73.2252 73.3747C73.2301 73.3969 73.2356 73.4233 73.2418 73.4541C73.2485 73.4848 73.255 73.5171 73.2612 73.5509C73.2679 73.5842 73.2738 73.6164 73.2787 73.6478C73.2842 73.6786 73.2882 73.7053 73.2907 73.7281C73.2938 73.7047 73.2978 73.6777 73.3027 73.6469C73.3076 73.6155 73.3128 73.5838 73.3184 73.5519C73.3245 73.5193 73.3307 73.4891 73.3368 73.4614C73.343 73.4338 73.3485 73.4113 73.3534 73.3941L73.55 72.6384H73.8203L74.0168 73.3941C74.0211 73.4107 74.0261 73.4331 74.0316 73.4614C74.0377 73.4891 74.0439 73.5193 74.05 73.5519C74.0562 73.5845 74.0617 73.6164 74.0667 73.6478C74.0722 73.6786 74.0762 73.7053 74.0787 73.7281C74.083 73.6973 74.0888 73.6601 74.0962 73.6164C74.1042 73.5722 74.1125 73.5282 74.1211 73.4845C74.1303 73.4408 74.1383 73.4042 74.1451 73.3747L74.3167 72.6384H74.5981Z" fill="black"/>
<path d="M85.4107 72.657L85.1569 74.5603C85.1569 74.5603 79.1296 76.2522 79.1296 79.0861C79.1296 81.92 81.2656 82.4064 84.7128 81.645C88.0331 80.9048 88.9213 79.5513 89.1963 78.4305C89.5346 77.0981 90.0211 72.805 85.4107 72.657Z" fill="url(#paint6_linear_1905_214)"/>
<path opacity="0.56" d="M84.8395 78.6208C84.5011 77.4577 83.0207 77.077 81.4135 77.5423C80.3772 77.8383 79.5947 78.1344 79.6581 79.2341C79.7639 80.7568 80.6944 81.5393 82.3228 81.1586C84.057 80.778 85.199 79.8897 84.8395 78.6208Z" fill="white"/>
<path opacity="0.81" d="M84.8394 78.6207C84.5222 77.4787 83.0629 77.098 81.4768 77.521C82.9572 77.2038 84.2472 77.6056 84.5645 78.6842C84.9028 79.8896 83.8877 80.7356 82.3227 81.1585C84.0569 80.7779 85.1989 79.8896 84.8394 78.6207Z" fill="#F9B775"/>
<path d="M84.2899 65.974L84.163 68.0465C84.163 68.0465 77.7973 70.3094 78.0088 73.3548C78.2203 76.4001 80.5466 76.7808 84.2053 75.7022C87.7159 74.666 88.583 73.1433 88.7945 71.9167C89.0271 70.4574 89.2597 65.8048 84.2899 65.974Z" fill="url(#paint7_linear_1905_214)"/>
<path opacity="0.56" d="M84.0995 72.4454C83.6553 71.2188 82.0269 70.9227 80.335 71.536C79.2565 71.9378 78.4105 72.3185 78.5797 73.4816C78.7912 75.11 79.8486 75.8714 81.5828 75.3638C83.4016 74.8351 84.5859 73.7989 84.0995 72.4454Z" fill="white"/>
<path opacity="0.81" d="M84.0996 72.4454C83.6555 71.2188 82.0271 70.9227 80.3352 71.536C81.9002 71.0707 83.3594 71.4091 83.7824 72.5511C84.2265 73.7989 83.2537 74.7717 81.6464 75.3427C83.4229 74.814 84.5649 73.7777 84.0996 72.4454Z" fill="#F9B775"/>
<path d="M83.9938 58.8048V60.8774C83.9938 60.8774 77.7339 63.5421 78.1357 66.5874C78.5376 69.6328 80.885 69.8654 84.5014 68.5542C87.9697 67.3065 88.7311 65.7203 88.8791 64.4726C89.0271 63.0133 88.9848 58.3184 83.9938 58.8048Z" fill="url(#paint8_linear_1905_214)"/>
<path opacity="0.56" d="M84.1841 65.3608C83.6765 64.1765 82.027 63.965 80.3774 64.6841C79.32 65.1493 78.5163 65.5723 78.7278 66.7355C79.045 68.3428 80.1448 69.0618 81.8366 68.4273C83.6342 67.7717 84.7339 66.672 84.1841 65.3608Z" fill="white"/>
<path opacity="0.81" d="M84.1842 65.3608C83.6978 64.2188 82.154 63.9861 80.5679 64.5994C82.0694 64.0919 83.4652 64.3668 83.9305 65.4454C84.4803 66.7143 83.444 67.7928 81.731 68.4696C81.7733 68.4484 81.8156 68.4484 81.8368 68.4273C83.6344 67.7717 84.7341 66.672 84.1842 65.3608Z" fill="#F9B775"/>
<path d="M83.9093 51.8468V53.8347C83.9093 53.8347 77.882 56.3937 78.2627 59.3121C78.6433 62.2306 80.9062 62.4632 84.3957 61.2155C87.716 60.01 88.4562 58.4873 88.6042 57.303C88.7523 55.9072 88.71 51.3815 83.9093 51.8468Z" fill="url(#paint9_linear_1905_214)"/>
<path opacity="0.56" d="M84.0786 58.1491C83.5922 57.0071 82.0061 56.7956 80.4199 57.4935C79.4048 57.9376 78.6223 58.3395 78.8338 59.4815C79.1299 61.0253 80.2084 61.7021 81.8369 61.1099C83.5499 60.4754 84.6284 59.3969 84.0786 58.1491Z" fill="white"/>
<path opacity="0.81" d="M84.0784 58.1492C83.592 57.0283 82.0481 56.8168 80.4832 57.4724C81.9635 56.9437 83.3593 57.1975 83.8035 58.2549C84.311 59.4392 83.3805 60.4543 81.8155 61.1099C83.5497 60.4755 84.6282 59.3969 84.0784 58.1492Z" fill="#F9B775"/>
<path d="M88.0753 73.4819C87.4409 74.2856 86.2989 75.0681 84.2052 75.6814C83.1266 75.9986 82.1538 76.1889 81.329 76.2312C81.3079 76.2524 81.3079 76.2524 81.3079 76.2524C81.3079 76.2524 86.32 76.4427 89.0905 74.92C88.9001 74.3913 88.5829 73.8838 88.0753 73.4819Z" fill="url(#paint10_linear_1905_214)"/>
<path opacity="0.45" d="M82.0904 61.8714C81.6463 62.1251 81.1598 62.4424 80.6946 62.7807C82.2173 62.9076 85.7702 63.0768 88.7733 62.1463C88.5829 61.2369 88.1811 60.2852 87.3563 59.6296C86.7219 60.2006 85.7913 60.7505 84.3955 61.2581C83.5496 61.533 82.7883 61.7445 82.0904 61.8714Z" fill="url(#paint11_linear_1905_214)"/>
<path d="M88.6677 68.8926C85.9184 70.0557 81.6676 69.7808 80.7371 69.7174C80.9697 69.5693 81.2235 69.4213 81.4561 69.2944C82.3232 69.2309 83.3595 68.9772 84.5015 68.5542C85.8973 68.0466 86.8489 67.4968 87.5045 66.9258C88.1178 67.4756 88.4774 68.1735 88.6677 68.8926Z" fill="url(#paint12_linear_1905_214)"/>
</g>
<defs>
<linearGradient id="paint0_linear_1905_214" x1="48.0674" y1="122.096" x2="69.8054" y2="45.0537" gradientUnits="userSpaceOnUse">
<stop stop-color="#FFE299"/>
<stop offset="1" stop-color="#F9B775"/>
</linearGradient>
<linearGradient id="paint1_linear_1905_214" x1="52.236" y1="103.222" x2="88.8766" y2="66.3004" gradientUnits="userSpaceOnUse">
<stop stop-color="#FEDA92"/>
<stop offset="1" stop-color="#F9A675"/>
</linearGradient>
<linearGradient id="paint2_linear_1905_214" x1="69.4583" y1="76.3076" x2="69.4583" y2="19.7141" gradientUnits="userSpaceOnUse">
<stop stop-color="#353333"/>
<stop offset="1" stop-color="#515151"/>
</linearGradient>
<linearGradient id="paint3_linear_1905_214" x1="69.4582" y1="24.2978" x2="69.4582" y2="60.0917" gradientUnits="userSpaceOnUse">
<stop/>
<stop offset="1" stop-color="#353333"/>
</linearGradient>
<linearGradient id="paint4_linear_1905_214" x1="49.7067" y1="33.6865" x2="92.9425" y2="76.9223" gradientUnits="userSpaceOnUse">
<stop offset="0.00049321" stop-color="#EDFFD4"/>
<stop offset="1" stop-color="#86FFBF"/>
</linearGradient>
<linearGradient id="paint5_linear_1905_214" x1="69.4581" y1="46.3087" x2="69.4581" y2="54.4321" gradientUnits="userSpaceOnUse">
<stop stop-color="#FC2B2B"/>
<stop offset="1"/>
</linearGradient>
<linearGradient id="paint6_linear_1905_214" x1="81.7667" y1="74.422" x2="88.2045" y2="82.766" gradientUnits="userSpaceOnUse">
<stop stop-color="#FFE299"/>
<stop offset="1" stop-color="#F9B775"/>
</linearGradient>
<linearGradient id="paint7_linear_1905_214" x1="80.4791" y1="68.1592" x2="88.0224" y2="76.669" gradientUnits="userSpaceOnUse">
<stop stop-color="#FFE299"/>
<stop offset="1" stop-color="#F9B775"/>
</linearGradient>
<linearGradient id="paint8_linear_1905_214" x1="80.317" y1="61.2215" x2="88.4012" y2="69.3057" gradientUnits="userSpaceOnUse">
<stop stop-color="#FFE299"/>
<stop offset="1" stop-color="#F9B775"/>
</linearGradient>
<linearGradient id="paint9_linear_1905_214" x1="80.3726" y1="54.1712" x2="88.1484" y2="61.9469" gradientUnits="userSpaceOnUse">
<stop stop-color="#FFE299"/>
<stop offset="1" stop-color="#F9B775"/>
</linearGradient>
<linearGradient id="paint10_linear_1905_214" x1="85.3093" y1="75.9425" x2="84.9279" y2="74.6554" gradientUnits="userSpaceOnUse">
<stop stop-color="#FCD18B"/>
<stop offset="1" stop-color="#F99275"/>
</linearGradient>
<linearGradient id="paint11_linear_1905_214" x1="84.7551" y1="62.5692" x2="84.7551" y2="60.2429" gradientUnits="userSpaceOnUse">
<stop stop-color="#FCCC87"/>
<stop offset="1" stop-color="#F99275"/>
</linearGradient>
<linearGradient id="paint12_linear_1905_214" x1="84.3666" y1="73.4606" x2="84.3666" y2="67.3276" gradientUnits="userSpaceOnUse">
<stop stop-color="white"/>
<stop offset="1" stop-color="#FDB754"/>
</linearGradient>
<clipPath id="clip0_1905_214">
<rect width="130" height="130" fill="white"/>
</clipPath>
</defs>
</svg>
