<svg width="130" height="130" viewBox="0 0 130 130" fill="none" xmlns="http://www.w3.org/2000/svg">
<path d="M66.5788 125C98.8439 125 125 98.844 125 66.5789C125 34.3138 98.8439 8.15778 66.5788 8.15778C34.3137 8.15778 8.15771 34.3138 8.15771 66.5789C8.15771 98.844 34.3137 125 66.5788 125Z" fill="#C2EAFC"/>
<path d="M116.931 12.6316C120.419 12.6316 123.247 9.8039 123.247 6.31579C123.247 2.82768 120.419 0 116.931 0C113.443 0 110.615 2.82768 110.615 6.31579C110.615 9.8039 113.443 12.6316 116.931 12.6316Z" fill="#AAE5FF"/>
<path d="M11.3158 98.1579C14.8039 98.1579 17.6316 95.3303 17.6316 91.8422C17.6316 88.354 14.8039 85.5264 11.3158 85.5264C7.82768 85.5264 5 88.354 5 91.8422C5 95.3303 7.82768 98.1579 11.3158 98.1579Z" fill="#AAE5FF"/>
<path d="M14.4738 66.579C16.2179 66.579 17.6317 67.9928 17.6317 69.7369C17.6317 71.4809 16.2179 72.8948 14.4738 72.8948C12.7298 72.8948 11.3159 71.4809 11.3159 69.7369C11.3159 67.9928 12.7298 66.579 14.4738 66.579Z" fill="white"/>
<path d="M108.421 38.1579C109.729 38.1579 110.789 39.2183 110.789 40.5264C110.789 41.8344 109.729 42.8948 108.421 42.8948C107.113 42.8948 106.052 41.8344 106.052 40.5264C106.052 39.2183 107.113 38.1579 108.421 38.1579Z" fill="white"/>
<path d="M120.263 104.474C122.007 104.474 123.421 103.06 123.421 101.316C123.421 99.5719 122.007 98.1581 120.263 98.1581C118.519 98.1581 117.105 99.5719 117.105 101.316C117.105 103.06 118.519 104.474 120.263 104.474Z" fill="#FDD1A3"/>
<path d="M107.458 4.73688C108.33 4.73688 109.037 4.02996 109.037 3.15793C109.037 2.2859 108.33 1.57898 107.458 1.57898C106.586 1.57898 105.879 2.2859 105.879 3.15793C105.879 4.02996 106.586 4.73688 107.458 4.73688Z" fill="#AAE5FF"/>
<path d="M122.458 23.6842C123.766 23.6842 124.826 22.6238 124.826 21.3158C124.826 20.0078 123.766 18.9474 122.458 18.9474C121.15 18.9474 120.089 20.0078 120.089 21.3158C120.089 22.6238 121.15 23.6842 122.458 23.6842Z" fill="#E40C57"/>
<path d="M105.914 104.15C112.33 96.0628 116.154 85.8432 116.154 74.7216C116.154 48.5321 94.9254 27.3036 68.7359 27.3036C42.5463 27.3036 21.3281 48.5321 21.3281 74.7114C21.3281 85.833 25.1617 96.0628 31.5682 104.14H105.914V104.15Z" fill="#D9FFFF"/>
<path d="M104.571 93.3978H96.1763V104.181H104.571V93.3978Z" fill="#FFA305"/>
<path d="M104.571 104.171V93.3978H109.502L109.43 104.171H104.571Z" fill="#DE7F04"/>
<path d="M100.564 93.3978H99.313V95.8477H100.564V93.3978Z" fill="#FFC766"/>
<path d="M92.3015 104.171V93.3978H96.1761L96.1249 104.171H92.3015Z" fill="#DE7F04"/>
<path d="M96.6477 84.9823H90.4258V93.3876H96.6477V84.9823Z" fill="#DE7F04"/>
<path d="M91.1433 93.3978V84.9823H86.2437L86.3154 93.3978H91.1433Z" fill="#FFA305"/>
<path d="M94.1876 84.9823H93.2139V86.8991H94.1876V84.9823Z" fill="#FFC766"/>
<path d="M107.001 84.9823H100.779V93.3876H107.001V84.9823Z" fill="#FFA305"/>
<path d="M100.779 93.3978V84.9823H96.5964L96.6682 93.3978H100.779Z" fill="#FFA305"/>
<path d="M106.99 84.9823H103.259V93.3876H106.99V84.9823Z" fill="#DE7F04"/>
<path d="M92.5065 93.3978H83.8142V104.181H92.5065V93.3978Z" fill="#FFA305"/>
<path d="M88.7857 93.3978H87.5352V95.8477H88.7857V93.3978Z" fill="#FFC766"/>
<path d="M100.369 84.9823H99.3948V86.8991H100.369V84.9823Z" fill="#FFC766"/>
<path d="M101.26 76.7205H95.0383V85.1257H101.26V76.7205Z" fill="#DE7F04"/>
<path d="M95.7661 85.1257V76.7205H90.8665L90.928 85.1257H95.7661Z" fill="#FFA305"/>
<path d="M98.8105 76.7205H97.8367V78.6373H98.8105V76.7205Z" fill="#FFC766"/>
<path d="M87.0224 24.9257C86.3971 21.2048 80.6672 19.534 80.7799 21.9531L54.5391 22.1068C52.7248 22.1171 51.2488 23.7571 51.2488 25.756L51.1975 94.7714C51.1975 96.8522 52.6941 98.5538 54.5494 98.564L81.3437 98.7895C81.5077 99.138 81.8255 99.4558 82.3072 99.7223C85.3823 99.7838 86.8584 98.2667 87.3914 96.5549C87.5657 96.0937 87.6579 95.5812 87.6579 95.0481C87.5452 94.1666 87.2171 25.797 87.0224 24.9257Z" fill="#4D4D4D"/>
<path d="M82.0101 99.7529L51.2591 99.5582C49.3423 99.5479 47.7842 97.7951 47.7945 95.663L47.9072 24.6898C47.9072 22.6295 49.4345 20.9484 51.3206 20.9382L81.477 20.8357C83.3734 20.8254 84.9212 22.5065 84.9417 24.577L85.4849 95.8783C85.5054 98.0308 83.9474 99.7632 82.0101 99.7529Z" fill="#4D4D4D"/>
<path d="M82.4405 99.2301C82.3175 99.2506 82.1842 99.2506 82.0509 99.2506L51.3102 99.0148C49.6599 99.0046 48.3171 97.467 48.3171 95.6015L48.4196 24.7C48.4196 22.8959 49.7522 21.4301 51.3615 21.4199L81.5179 21.2866C81.5692 21.2866 81.6102 21.2866 81.6614 21.2866C82.42 21.3174 83.1272 21.6659 83.6603 22.2604C84.2035 22.8652 84.5008 23.6647 84.511 24.5155L85.0543 95.8885C85.0543 97.6003 83.937 99.0353 82.4405 99.2301Z" fill="#0D0D0D"/>
<path d="M83.4451 24.8948L83.8859 96.0218L49.332 95.8168L49.4243 24.8948H83.4451Z" fill="white"/>
<path d="M59.8694 39.7784L63.6825 39.7477L75.9521 24.6387L72.1185 24.6694L59.8694 39.7784Z" fill="#F13005"/>
<path d="M63.6824 39.7476L67.4955 39.7168L79.7856 24.6078L75.952 24.6386L63.6824 39.7476Z" fill="#F1E3E0"/>
<path d="M67.4956 39.7168L71.3087 39.6861L83.6194 24.5771L79.7857 24.6078L67.4956 39.7168Z" fill="#F13005"/>
<path d="M56.0459 39.8092L59.8693 39.7784L72.1184 24.6694L68.2848 24.7002L56.0459 39.8092Z" fill="#F1E3E0"/>
<path d="M48.4197 39.8707L52.2328 39.8399L64.4512 24.7412L60.6176 24.772L48.4197 39.8707Z" fill="#F1E3E0"/>
<path d="M37.3494 39.9628L40.7935 39.9321L52.9504 24.8334L49.496 24.8641L37.3494 39.9628Z" fill="#F13005"/>
<path d="M40.7935 39.9321L44.6066 39.9014L56.784 24.8027L52.9503 24.8334L40.7935 39.9321Z" fill="#F1E3E0"/>
<path d="M52.2329 39.8399L56.046 39.8091L68.2849 24.7001L64.4513 24.7411L52.2329 39.8399Z" fill="#F13005"/>
<path d="M44.6067 39.9015L48.4198 39.8707L60.6177 24.772L56.7841 24.8027L44.6067 39.9015Z" fill="#F13005"/>
<path d="M67.4956 39.7168V42.0129C67.4956 44.4524 71.3087 44.4217 71.3087 41.9821V39.686L67.4956 39.7168Z" fill="#D62B04"/>
<path d="M63.6824 39.7477V42.0437C63.6824 44.4833 67.4955 44.4526 67.4955 42.013V39.7169L63.6824 39.7477Z" fill="#F1C5BC"/>
<path d="M59.8694 39.7784V42.0745C59.8694 44.5141 63.6825 44.4833 63.6825 42.0437V39.7477L59.8694 39.7784Z" fill="#D62B04"/>
<path d="M56.0459 39.8092L56.0561 42.1053C56.0664 44.5449 59.8693 44.5141 59.8693 42.0745V39.7784L56.0459 39.8092Z" fill="#F1C5BC"/>
<path d="M52.2329 39.8398L52.2432 42.1359C52.2534 44.5755 56.0665 44.5447 56.0563 42.1052L56.046 39.8091L52.2329 39.8398Z" fill="#D62B04"/>
<path d="M48.4197 39.8706L48.4299 42.1667C48.4402 44.6063 52.2533 44.5755 52.243 42.1359L52.2328 39.8398L48.4197 39.8706Z" fill="#F1C5BC"/>
<path d="M44.6067 39.9014L44.6169 42.1974C44.6272 44.637 48.4403 44.6063 48.4301 42.1667L48.4198 39.8706L44.6067 39.9014Z" fill="#D62B04"/>
<path d="M40.7935 39.9321L40.814 42.2282C40.8345 44.6678 44.6373 44.637 44.6271 42.1974L44.6168 39.9014L40.7935 39.9321Z" fill="#F1C5BC"/>
<path d="M37.3494 39.9628L37.3699 42.2588C37.3904 44.6984 40.8242 44.6677 40.8037 42.2281L40.7832 39.932L37.3494 39.9628Z" fill="#D62B04"/>
<path d="M71.3087 39.6861L71.0115 39.7271L83.6296 39.6143L83.6194 24.5771L71.3087 39.6861Z" fill="#F1E3E0"/>
<path d="M81.5898 74.9883L51.3718 74.9575V74.5577L81.5898 74.5885V74.9883Z" fill="#04F2F5"/>
<path d="M81.5898 86.1611L51.3718 86.1304V85.7306L81.5898 85.7613V86.1611Z" fill="#04F2F5"/>
<path d="M81.5898 63.5592L51.3718 63.5182V63.1902L81.5898 63.2312V63.5592Z" fill="#04F2F5"/>
<path d="M78.8939 49.0652L54.1291 48.9217C53.2373 48.9115 52.5095 48.1734 52.5095 47.2611C52.5095 46.3489 53.2373 45.6211 54.1291 45.6211L78.8939 45.7851C79.7754 45.7953 80.4929 46.5334 80.4929 47.4354C80.4929 48.3477 79.7754 49.0755 78.8939 49.0652ZM54.1291 45.7441C53.2988 45.7339 52.6223 46.4206 52.6223 47.2714C52.6223 48.1222 53.2988 48.809 54.1291 48.8192L78.8939 48.9627C79.7139 48.9627 80.3904 48.2862 80.3904 47.4457C80.3904 46.6051 79.7241 45.9081 78.8939 45.9081L54.1291 45.7441Z" fill="#04F2F5"/>
<path d="M78.8939 45.8467L76.321 45.8262V48.9935L78.8939 49.0038C79.7447 49.0038 80.4417 48.3067 80.4417 47.4252C80.4417 46.5642 79.7447 45.8569 78.8939 45.8467Z" fill="#04F2F5"/>
<path d="M77.9406 47.8865C77.7254 47.8865 77.5306 47.7943 77.3769 47.6405C77.0694 47.3228 77.0694 46.8 77.3769 46.4822C77.5306 46.3285 77.7254 46.2465 77.9406 46.2465C78.1559 46.2465 78.3507 46.3387 78.5044 46.4925C78.8119 46.8102 78.8119 47.333 78.5044 47.6508C78.3507 47.8045 78.1456 47.8865 77.9406 47.8865ZM77.9406 46.4412C77.7766 46.4412 77.6229 46.5027 77.5101 46.6257C77.2744 46.8717 77.2744 47.2612 77.5101 47.5073C77.6229 47.6303 77.7766 47.6918 77.9406 47.6918C78.1046 47.6918 78.2584 47.6303 78.3711 47.5073C78.6069 47.2612 78.6069 46.8717 78.3711 46.6257C78.2481 46.513 78.0944 46.4412 77.9406 46.4412Z" fill="#4489C8"/>
<path d="M78.9759 48.2761L78.3711 47.6508L78.5044 47.5073L79.1091 48.1428L78.9759 48.2761Z" fill="#4489C8"/>
<path d="M79.2424 48.4195C79.1706 48.4913 79.0682 48.4913 78.9964 48.4195L78.4839 47.8968L78.7299 47.6508L79.2424 48.1735C79.3142 48.235 79.3142 48.3478 79.2424 48.4195Z" fill="#4489C8"/>
<path d="M60.9865 61.7654L52.5095 61.7346V53.0731L60.9865 53.1244V61.7654Z" fill="#04F2F5"/>
<path d="M70.8474 61.8165L62.3909 61.7755V53.1345L70.8474 53.1858V61.8165Z" fill="#04F2F5"/>
<path d="M80.4621 61.8576L72.0364 61.8268V53.1858L80.4621 53.237V61.8576Z" fill="#04F2F5"/>
<path d="M60.9865 73.3789L52.5095 73.3482V64.6969L60.9865 64.7277V73.3789Z" fill="#04F2F5"/>
<path d="M70.8474 73.4098L62.3909 73.379V64.738L70.8474 64.7688V73.4098Z" fill="#04F2F5"/>
<path d="M80.4621 73.4405L72.0364 73.4097V64.7789L80.4621 64.8199V73.4405Z" fill="#04F2F5"/>
<path d="M60.9865 84.7774L52.5095 84.7671V76.1056L60.9865 76.1363V84.7774Z" fill="#04F2F5"/>
<path d="M70.8474 84.7978L62.3909 84.7773V76.1362L70.8474 76.167V84.7978Z" fill="#04F2F5"/>
<path d="M80.4621 84.8183L72.0364 84.7978V76.167L80.4621 76.1875V84.8183Z" fill="#04F2F5"/>
<path d="M59.0698 59.6333L58.8853 59.5717C58.8853 59.5615 59.2133 58.1265 59.2441 57.5832C59.2748 56.9272 59.0698 56.3429 58.6598 55.9021C58.1883 55.3999 57.4708 55.1026 56.6918 55.0924C55.9332 55.0924 55.267 55.3486 54.8262 55.8201C54.4162 56.2609 54.2214 56.8554 54.2624 57.5524C54.2932 58.106 54.5699 59.4898 54.5699 59.5L54.3752 59.541C54.3649 59.4795 54.0984 58.1265 54.0677 57.5627C54.0267 56.8144 54.2419 56.1584 54.6827 55.6869C55.1645 55.1744 55.8717 54.8874 56.6918 54.8976C57.522 54.8976 58.2908 55.2154 58.8033 55.7689C59.2543 56.2506 59.4696 56.8862 59.4389 57.6037C59.4081 58.1572 59.0801 59.5718 59.0698 59.6333Z" fill="#03ABB0"/>
<path d="M54.3856 58.6082L54.6418 60.0125C54.6726 60.1662 54.8058 60.2687 54.9493 60.2585L54.5906 58.2699C54.4471 58.3109 54.3548 58.4544 54.3856 58.6082Z" fill="#03ABB0"/>
<path d="M54.9903 60.2483L55.5439 60.1458L55.1748 58.1572L54.6213 58.2597C54.6111 58.2597 54.6008 58.2597 54.5906 58.27L54.9493 60.2585C54.9698 60.2483 54.9801 60.2483 54.9903 60.2483Z" fill="#03ABB0"/>
<path d="M55.6874 60.3405C55.5234 60.3712 55.3594 60.2585 55.3287 60.0842L55.0007 58.2802C54.9699 58.1059 55.0827 57.9419 55.2467 57.9112C55.4107 57.8804 55.5747 57.9932 55.6054 58.1674L55.9334 59.9715C55.9744 60.1457 55.8617 60.3097 55.6874 60.3405Z" fill="white"/>
<path d="M59.0799 58.6493L58.7929 60.0433C58.7621 60.1971 58.6289 60.2893 58.4751 60.2791L58.8851 58.3008C59.0184 58.352 59.1106 58.4955 59.0799 58.6493Z" fill="#03ABB0"/>
<path d="M58.4341 60.2689L57.8806 60.1459L58.2906 58.1676L58.8441 58.2906C58.8544 58.2906 58.8646 58.3009 58.8749 58.3009L58.4649 60.2792C58.4546 60.2689 58.4444 60.2689 58.4341 60.2689Z" fill="#03ABB0"/>
<path d="M57.7372 60.3405C57.9012 60.3815 58.0755 60.2687 58.1062 60.0945L58.4855 58.3109C58.5265 58.1367 58.4137 57.9727 58.2497 57.9317C58.0857 57.8906 57.9115 58.0034 57.8807 58.1777L57.5014 59.9612C57.4604 60.1355 57.5629 60.2995 57.7372 60.3405Z" fill="white"/>
<path d="M67.6903 56.2198L67.4956 56.5786L63.8669 56.5581V59.7357L69.3816 59.7665V56.6299L69.1664 56.2301L67.6903 56.2198Z" fill="white"/>
<path d="M67.2598 56.7427L65.9888 56.7325V56.2097L67.2598 56.22V56.7427Z" fill="white"/>
<path d="M65.5582 56.7324L64.2871 56.7221V56.1993L65.5582 56.2096V56.7324Z" fill="white"/>
<path d="M69.3816 59.1516L63.8669 59.1208V57.286L69.3816 57.3168V59.1516Z" fill="#03ABB0"/>
<path d="M69.0023 58.2289C69.0023 58.9464 68.4385 59.5204 67.7415 59.5204C67.0445 59.5204 66.4807 58.9362 66.4807 58.2187C66.4807 57.5011 67.0445 56.9271 67.7415 56.9271C68.4283 56.9374 69.0023 57.5216 69.0023 58.2289Z" fill="#03ABB0"/>
<path d="M68.7154 58.2289C68.7154 58.7825 68.2746 59.2335 67.7313 59.2232C67.1881 59.2232 66.7473 58.7722 66.7473 58.2187C66.7473 57.6652 67.1881 57.2142 67.7313 57.2244C68.2746 57.2244 68.7154 57.6754 68.7154 58.2289Z" fill="white"/>
<path d="M68.2028 58.229C68.2028 58.4955 67.9978 58.7107 67.7313 58.7107C67.4648 58.7107 67.2598 58.4955 67.2598 58.229C67.2598 57.9624 67.4648 57.7472 67.7313 57.7472C67.9978 57.7472 68.2028 57.9624 68.2028 58.229Z" fill="#4489C8"/>
<path d="M60.023 82.9732C59.982 82.1019 58.0344 81.5587 58.0344 81.5587C58.0344 81.5587 56.2509 79.6009 55.5026 78.6168C54.2316 79.1088 53.9343 79.7239 54.1188 80.7899C54.7338 80.2671 55.7896 81.2307 57.0709 82.9732H60.023Z" fill="#03ABB0"/>
<path d="M54.1292 80.7898L54.5494 83.0551H54.7544C54.8159 82.0301 54.9389 80.8718 55.6154 81.2511C55.6154 80.3388 54.1292 80.3388 54.1292 80.7898Z" fill="#03ABB0"/>
<path d="M57.317 66.0602C57.276 65.9474 57.2555 65.8244 57.2452 65.7117H57.153C57.153 65.8244 57.1222 65.9372 57.112 65.9987C57.0505 66.2447 56.8557 66.4394 56.6405 66.4497C56.415 66.4394 56.2305 66.2447 56.169 65.9987C56.1485 65.9372 56.128 65.8244 56.128 65.7117H56.0357C56.0255 65.8347 56.005 65.9474 55.9639 66.0602C55.8717 66.3369 55.7077 66.5727 55.5129 66.7674L55.6667 68.182H56.6097H56.6917H57.6348L57.7885 66.7674C57.5835 66.5727 57.4195 66.3369 57.317 66.0602Z" fill="white"/>
<path d="M58.8342 71.8927C58.4139 72.3232 54.9493 72.354 54.4265 71.8825C54.6623 70.5397 54.9698 69.2482 55.6463 68.1719L57.6246 68.1821C58.2191 69.1149 58.5676 70.4474 58.8342 71.8927Z" fill="white"/>
<path d="M56.8046 68.5202C56.0051 68.5202 55.6258 68.1717 55.6053 68.1615C55.5951 68.1512 55.5951 68.1307 55.6053 68.1205C55.6156 68.1102 55.6361 68.1102 55.6463 68.1205C55.6463 68.1205 56.0256 68.4587 56.8046 68.469C57.4914 68.469 57.5939 68.1922 57.5939 68.182C57.5939 68.1615 57.6144 68.1615 57.6349 68.1615C57.6554 68.1615 57.6554 68.182 57.6554 68.2025C57.6452 68.2025 57.5427 68.5202 56.8046 68.5202Z" fill="#4489C8"/>
<path d="M56.7226 69.0636C56.7021 69.0636 56.6816 69.0533 56.6611 69.0226C56.5176 68.8381 56.8764 68.4998 56.9174 68.4588L56.9789 68.3973L56.9584 68.4896C56.9379 68.6126 56.8559 69.0226 56.7329 69.0533C56.7329 69.0636 56.7329 69.0636 56.7226 69.0636ZM56.8866 68.5716C56.7739 68.6946 56.6304 68.8893 56.7021 68.9816C56.7124 68.9919 56.7124 69.0021 56.7226 68.9919C56.7739 68.9919 56.8456 68.7868 56.8866 68.5716Z" fill="#4489C8"/>
<path d="M56.907 68.5612V68.4894C56.907 68.4689 56.9172 68.0487 57.0812 67.9052C57.1222 67.8642 57.1735 67.8539 57.235 67.8642C57.2965 67.8744 57.3272 67.9052 57.3272 67.9359C57.3785 68.0897 57.03 68.4484 56.9582 68.5202L56.907 68.5612ZM57.2042 67.9154C57.1735 67.9154 57.1427 67.9257 57.1222 67.9462C57.0197 68.0384 56.9787 68.2844 56.9685 68.4074C57.112 68.2537 57.2965 68.0282 57.2657 67.9462C57.2657 67.9359 57.2555 67.9257 57.2145 67.9154C57.2145 67.9154 57.2145 67.9154 57.2042 67.9154Z" fill="#4489C8"/>
<path d="M57.5015 69.002C57.4912 69.002 57.481 68.9917 57.4708 68.9815C57.2965 68.6125 56.9377 68.5202 56.9275 68.51C56.907 68.51 56.907 68.4895 56.907 68.469C56.907 68.4485 56.9275 68.4485 56.948 68.4485C56.9685 68.4485 57.3375 68.5612 57.522 68.9507C57.5323 68.961 57.522 68.9815 57.5118 68.9918C57.5015 69.002 57.5015 69.002 57.5015 69.002Z" fill="#4489C8"/>
<path d="M65.6505 66.9931C65.6505 66.9931 66.245 67.198 67.1163 66.9725C67.6698 67.6593 66.696 67.9873 66.081 67.8438C65.466 67.6798 65.6505 66.9931 65.6505 66.9931Z" fill="white"/>
<path d="M67.1164 66.9623C67.0651 67.1468 66.9729 67.3108 66.7986 67.4235C66.3784 67.6696 65.8454 67.403 65.6608 66.993C65.3328 67.034 65.0458 67.1058 64.8306 67.1775V71.9337L68.1107 71.9439V67.1878C67.8134 67.075 67.4649 67.0033 67.1164 66.9623Z" fill="#03ABB0"/>
<path d="M64.8203 67.1776L63.4058 68.2847L64.3385 69.5352L65.7223 68.4794L64.8203 67.1776Z" fill="#03ABB0"/>
<path d="M68.1108 67.1879L69.5253 68.3051L68.6028 69.5454L67.2087 68.4897L68.1108 67.1879Z" fill="#03ABB0"/>
<path d="M73.1128 71.1649H73.0513V71.4519C73.0513 71.4519 76.5876 71.7082 77.9714 71.4724C79.3655 71.2367 79.4577 70.7651 79.4577 70.7651V70.4781H79.4065L73.1128 71.1649Z" fill="#03ABB0"/>
<path d="M79.3963 70.6011C79.0273 71.0829 77.9305 71.2264 76.5467 71.2469C75.9727 71.2571 75.3577 71.2469 74.7324 71.2264C74.1994 71.2059 73.6459 71.1854 73.1129 71.1649C73.0616 70.7651 73.1949 70.0066 73.3076 69.5966C73.3384 69.4633 73.3794 69.3608 73.3999 69.3198L73.4204 69.3096C73.6049 69.5658 74.0559 69.7196 74.3224 69.7196C74.7632 69.7093 75.2552 69.4018 75.1117 69.0328C75.0912 68.9816 75.0707 68.9405 75.0604 68.8995C74.9477 68.5305 75.2552 68.5305 75.7164 68.8175C76.5365 69.3403 77.2642 69.5248 77.8485 69.6171C77.9715 69.6376 78.0843 69.6478 78.197 69.6683C79.017 69.7708 79.4783 69.7811 79.3963 70.6011Z" fill="white"/>
<path d="M79.3552 70.6011C78.9862 71.0829 77.8894 71.2264 76.5056 71.2469C76.4646 71.0419 76.4339 70.5089 77.1411 70.3756C77.6844 70.2731 77.9919 69.9246 78.1457 69.6683C78.9657 69.7708 79.427 69.7811 79.3552 70.6011Z" fill="#03ABB0"/>
<path d="M74.6914 71.2162C74.1584 71.1957 73.6049 71.1752 73.0718 71.1547C73.0206 70.755 73.1539 69.9964 73.2666 69.5864C73.7176 69.7607 74.5376 70.1912 74.6914 71.2162Z" fill="#03ABB0"/>
<path d="M77.8483 69.6171C77.7458 69.7811 77.5818 69.7913 77.4281 69.7913C76.034 69.6888 75.3268 69.1353 75.0602 68.8995C74.9475 68.5305 75.255 68.5305 75.7163 68.8175C76.5363 69.3403 77.2538 69.5248 77.8483 69.6171Z" fill="#03ABB0"/>
<path d="M76.1879 71.2982C75.4703 71.2982 74.7528 71.2572 74.1686 71.2264C73.656 71.1957 73.246 71.1752 73.082 71.1957H73.0513L73.041 71.1444H73.0718C73.246 71.1239 73.656 71.1444 74.1686 71.1752C75.8086 71.2674 78.8632 71.4417 79.386 70.4576L79.3962 70.4371L79.4475 70.4679L79.4372 70.4884C79.0682 71.1547 77.6332 71.3084 76.1879 71.2982Z" fill="#D4E7F7"/>
<path d="M77.2128 60.3815L75.4395 60.3712V54.8463L77.2128 54.8566V60.3815Z" fill="#03ABB0"/>
<path d="M77.8175 57.5318C77.8175 58.4236 77.1102 59.1308 76.2492 59.1308C75.3779 59.1308 74.6809 58.4031 74.6809 57.5113C74.6809 56.6195 75.3882 55.9122 76.2492 55.9122C77.1205 55.9225 77.8175 56.6503 77.8175 57.5318Z" fill="white"/>
<path d="M77.5204 57.5318C77.5204 58.2493 76.9566 58.8233 76.2596 58.8233C75.5625 58.8233 74.9988 58.239 74.9988 57.5215C74.9988 56.804 75.5625 56.23 76.2596 56.23C76.9463 56.2402 77.5204 56.8245 77.5204 57.5318Z" fill="#03ABB0"/>
<path d="M74.968 56.8143L74.7732 56.6605L75.009 56.312L75.214 56.4658L74.968 56.8143Z" fill="white"/>
<path d="M74.7891 57.5094L74.5452 57.5415L74.6014 57.9683L74.8453 57.9362L74.7891 57.5094Z" fill="white"/>
<path d="M77.5204 56.8143L77.7254 56.6708L77.4897 56.3223L77.2847 56.4658L77.5204 56.8143Z" fill="white"/>
<path d="M77.6536 57.9725L77.8996 58.0033L77.9508 57.583L77.7151 57.5522L77.6536 57.9725Z" fill="white"/>
<path d="M76.2595 57.5933L75.6444 57.2653C75.6137 57.2448 75.6034 57.2141 75.6239 57.1833C75.6444 57.1526 75.6752 57.1423 75.7059 57.1628L76.2595 57.4601L77.0385 56.9476C77.0692 56.9271 77.1 56.9373 77.1205 56.9681C77.141 56.9988 77.1307 57.0296 77.1 57.0501L76.2595 57.5933Z" fill="white"/>
<path d="M63.5799 81.8049C63.8772 81.8971 64.2974 81.9689 64.7792 82.0201C65.5685 82.1124 66.532 82.1431 67.352 82.1021C68.1618 82.0714 68.8383 81.9791 69.0946 81.8049C69.0946 81.8049 69.6379 78.5248 66.45 78.4427C66.4193 78.4427 66.3783 78.4427 66.3373 78.4427C63.0264 78.4427 63.5799 81.8049 63.5799 81.8049Z" fill="#03ABB0"/>
<path d="M64.779 82.0201C65.5683 82.1124 66.5318 82.1431 67.3518 82.1021C67.8028 79.1295 66.5216 78.4838 66.4498 78.453H66.3473C64.656 79.4063 64.738 81.5486 64.779 82.0201Z" fill="white"/>
<path d="M68.746 81.938C68.746 81.938 67.844 83.4653 63.6619 83.1168C61.868 82.9631 63.5798 81.8048 63.5798 81.8048C64.7074 82.0816 66.8804 82.2148 68.746 81.938Z" fill="#03ABB0"/>
<path d="M75.2449 79.3754H77.172C78.2688 79.3754 79.1811 80.2774 79.1811 81.4049C79.1811 81.8559 79.0376 82.2455 78.6993 82.4607L73.6254 82.4505C73.3076 82.2967 73.1846 81.7637 73.2666 81.1282C73.3999 80.1134 74.2507 79.3754 75.2449 79.3754Z" fill="#03ABB0"/>
<path d="M75.5421 79.4266V79.4062C75.5729 79.0269 75.8907 78.7296 76.2699 78.7296C76.6492 78.7296 76.9669 79.0269 76.9977 79.4062V79.4266H77.2437V79.3857C77.2027 78.8731 76.7722 78.4734 76.2699 78.4734C75.7677 78.4734 75.3371 78.8731 75.2961 79.3754V79.4164L75.5421 79.4266Z" fill="#03ABB0"/>
<path d="M76.0343 82.4505H75.5627V80.5439H76.0343V82.4505Z" fill="white"/>
<path d="M76.9771 82.4505H76.5056V80.5439H76.9771V82.4505Z" fill="white"/>
<path d="M83.8756 92.2292H49.332V96.0219H83.8756V92.2292Z" fill="#04F2F5"/>
<path d="M68.2952 95.2737H66.2144V93.7669L67.2496 92.9777L68.2952 93.7669V95.2737Z" fill="white"/>
<path d="M55.9742 93.4388H53.3911V94.8124H55.9742V93.4388Z" fill="white"/>
<path d="M81.4054 93.4388H78.8223V94.8124H81.4054V93.4388Z" fill="white"/>
<path d="M89.9848 98.7588H54.283V101.557H89.9848V98.7588Z" fill="#0D0D0D"/>
<path d="M79.4372 98.7588H38.6921V101.557H79.4372V98.7588Z" fill="#4D4D4D"/>
<path d="M77.2334 101.557H30.4919V104.355H77.2334V101.557Z" fill="#4D4D4D"/>
<path d="M89.9848 101.557H73.5945V104.355H89.9848V101.557Z" fill="#0D0D0D"/>
<path d="M53.678 72.3745C52.7862 74.9884 53.3397 80.544 52.0584 84.2034C50.0801 89.8821 51.0641 92.3832 50.1621 96.7601L52.2429 96.9138C54.1802 88.3138 58.5059 76.1364 59.0389 73.3688C59.5719 70.6115 54.5185 70.2425 53.678 72.3745Z" fill="#014A91"/>
<path d="M56.9582 75.5829C57.0402 76.5976 58.4343 82.4711 57.6347 85.2694C56.374 89.6976 57.03 97.4161 57.03 97.4161L58.711 97.4058C60.3408 90.2306 62.5652 79.7752 62.3909 73.174C62.1449 70.3962 56.4355 69.4224 56.9582 75.5829Z" fill="#014A91"/>
<path d="M57.9423 76.6284C60.3992 76.6284 62.3909 75.1185 62.3909 73.256C62.3909 71.3935 60.3992 69.8837 57.9423 69.8837C55.4854 69.8837 53.4937 71.3935 53.4937 73.256C53.4937 75.1185 55.4854 76.6284 57.9423 76.6284Z" fill="#014A91"/>
<path d="M59.3669 100.993C59.1927 100.891 58.8237 100.809 58.8237 100.809L58.4649 99.22L60.3407 90.538L56.7736 90.1997L56.7838 98.6152L56.5173 99.589C56.5173 99.589 57.7371 101.403 58.0139 101.403C58.2906 101.403 59.3669 101.424 59.5412 101.424C59.5309 101.321 59.5207 101.075 59.3669 100.993Z" fill="#A64B30"/>
<path d="M56.5071 99.5889L56.7633 101.516H56.8761L57.7269 99.5171L56.5071 99.5889Z" fill="#A64B30"/>
<path d="M52.4788 100.993C52.3045 100.891 51.9457 100.809 51.9457 100.809L51.6792 99.2201L54.0676 90.1486L50.7567 89.7795L50.0289 98.6153L49.6702 99.5173C49.6702 99.5173 50.8079 101.403 51.095 101.403C51.382 101.403 52.448 101.424 52.6223 101.424C52.6325 101.321 52.6325 101.075 52.4788 100.993Z" fill="#A64B30"/>
<path d="M49.6702 99.5173L49.8444 101.516H49.9572L50.931 99.5173H49.6702Z" fill="#A64B30"/>
<path d="M55.4 69.002C54.2827 70.3346 53.7497 71.6774 53.5447 72.9587C53.5447 72.9587 54.99 74.0657 57.5936 74.0759C58.9056 74.0759 61.6937 73.7479 62.3702 72.9792C62.2882 72.2719 62.0422 70.6728 61.3042 68.592C60.6379 66.6957 56.384 66.5112 55.4 69.002Z" fill="#014A91"/>
<path d="M56.9478 73.7173C57.2143 72.8357 57.2656 71.8005 57.2656 71.8005L54.5903 71.5647C54.498 72.2412 54.416 72.8767 54.3955 73.42L55.5333 74.281L56.9478 73.7173Z" fill="#0D64B8"/>
<path d="M60.8737 73.8813C61.089 72.9895 61.089 71.9439 61.089 71.9439L58.4034 71.8517C58.3419 72.5282 58.3009 73.1637 58.3111 73.707L59.5002 74.5065L60.8737 73.8813Z" fill="#0D64B8"/>
<path d="M56.1486 60.6481C56.1486 60.6481 53.8422 58.9466 49.2501 66.5421C48.6658 67.5056 46.6875 72.1285 46.6875 72.1285L47.8765 72.9075L51.4334 67.8644C51.4334 67.8541 58.5574 61.8884 56.1486 60.6481Z" fill="#F7A58E"/>
<path d="M45.7649 75.5726C45.7546 75.5726 45.7546 75.5726 45.7546 75.5624C45.7444 75.5521 45.7444 75.5316 45.7546 75.5111C45.7649 75.5009 47.0257 74.1786 46.9642 73.4303C46.9539 73.2868 46.8924 73.1741 46.7797 73.0921C46.0314 72.518 44.1043 74.5169 44.0941 74.5271C44.0838 74.5374 44.0633 74.5374 44.0428 74.5271C44.0326 74.5169 44.0326 74.4963 44.0428 74.4758C44.1248 74.3938 46.0212 72.4258 46.8207 73.0305C46.9437 73.1228 47.0154 73.2561 47.0257 73.4201C47.0872 74.1991 45.8469 75.5009 45.7957 75.5521C45.7854 75.5726 45.7751 75.5829 45.7649 75.5726Z" fill="#103558"/>
<path d="M45.1089 75.1319C45.0987 75.1319 45.0987 75.1216 45.0884 75.1216C45.0782 75.1113 45.0782 75.0909 45.0987 75.0806C45.1192 75.0704 46.708 73.9428 46.7182 73.2663C46.7182 73.1433 46.667 73.0408 46.5645 72.9588C45.8059 72.3848 43.4484 74.0863 43.4279 74.0966C43.4176 74.1068 43.3971 74.1068 43.3869 74.0863C43.3766 74.0761 43.3766 74.0556 43.3971 74.0453C43.4996 73.9736 45.8162 72.3028 46.6157 72.9075C46.7387 72.9998 46.8002 73.1228 46.79 73.2663C46.7797 73.9838 45.2114 75.0909 45.1397 75.1319C45.1294 75.1319 45.1192 75.1319 45.1089 75.1319Z" fill="#103558"/>
<path d="M42.0235 73.0099L35.2993 80.9949L37.6261 82.5427L43.2536 73.8197L42.0235 73.0099Z" fill="#F05B5B"/>
<path d="M43.5407 74.0144L37.616 82.5324L41.4496 85.0745L46.6465 76.0747L43.5407 74.0144Z" fill="#E54547"/>
<path d="M42.9256 73.6146L37.4417 80.6156L37.6262 82.5427L43.5508 74.0246L42.9256 73.6146Z" fill="#F1696A"/>
<path d="M37.4416 80.6157L35.2891 80.995L37.6159 82.5325L37.4416 80.6157Z" fill="#F05B5B"/>
<path d="M44.4631 74.7936L38.8357 83.8446L41.4188 85.0644L45.8264 75.4291L44.4631 74.7936Z" fill="#4CC3D1"/>
<path d="M46.1441 75.5828L41.4084 85.0541L45.6521 87.0631L49.578 77.2023L46.1441 75.5828Z" fill="#26BDC5"/>
<path d="M45.4677 75.265L40.9473 83.1475L41.4188 85.0643L46.1544 75.5828L45.4677 75.265Z" fill="#6FCBD8"/>
<path d="M40.9473 83.1475L38.8254 83.8342L41.4085 85.054L40.9473 83.1475Z" fill="#4CC3D1"/>
<path d="M47.9277 72.8153L47.4972 73.5738C47.4972 73.5738 47.8662 73.9428 47.7022 74.1786C47.2409 74.6911 46.1032 74.5066 45.8776 74.3016C45.6419 74.0966 45.4164 73.5636 45.5906 73.1638C45.7751 72.7641 46.6874 72.1183 46.6874 72.1183C46.6874 72.1183 47.7945 72.3643 47.9277 72.8153Z" fill="#F7A58E"/>
<path d="M58.9571 62.4932L55.6873 62.5957L56.3638 57.1118L58.9776 57.0298L58.9571 62.4932Z" fill="#F7A58E"/>
<path d="M60.7508 54.949C61.0276 57.1425 60.5663 58.7928 58.957 58.9671C57.3477 59.1413 55.1336 57.245 54.9491 55.5537C54.7749 53.8624 55.9229 52.3659 57.5322 52.2019C59.1415 52.0276 60.5458 53.2577 60.7508 54.949Z" fill="#F7A58E"/>
<path d="M59.6438 56.1688C59.9722 56.1688 60.2384 55.9026 60.2384 55.5742C60.2384 55.2459 59.9722 54.9797 59.6438 54.9797C59.3155 54.9797 59.0493 55.2459 59.0493 55.5742C59.0493 55.9026 59.3155 56.1688 59.6438 56.1688Z" fill="#F7A58E"/>
<path d="M61.6735 64.2665C61.6632 64.8815 61.612 69.4122 61.612 69.4122C61.612 69.4122 57.8194 69.1764 55.2875 69.1354C54.1292 64.3075 52.7147 62.0114 55.5438 60.4124C59.5517 58.9056 61.6837 62.1242 61.6735 64.2665Z" fill="#0386C2"/>
<path d="M59.5926 60.1458C56.661 61.1093 55.5437 60.4123 55.5437 60.4123C56.1792 59.9203 58.5368 59.5615 59.5926 60.1458Z" fill="#F7A58E"/>
<path d="M48.6965 76.9051C48.6862 76.9051 48.676 76.8948 48.676 76.8743C48.676 76.8538 48.266 74.568 47.487 73.5737C47.4767 73.5635 47.4767 73.543 47.4972 73.5327C47.5075 73.5225 47.528 73.5225 47.5382 73.543C48.3275 74.5578 48.7375 76.8538 48.7477 76.8743C48.7477 76.8948 48.7375 76.9051 48.717 76.9153C48.6965 76.9051 48.6965 76.9051 48.6965 76.9051Z" fill="#103558"/>
<path d="M46.7488 75.9929C46.7386 75.9929 46.7386 75.9929 46.7386 75.9826C46.7283 75.9724 45.4573 74.7526 45.4983 73.42C45.4983 73.3995 45.5188 73.3893 45.529 73.3893C45.5495 73.3893 45.5598 73.4098 45.5598 73.42C45.5188 74.7218 46.7591 75.9211 46.7796 75.9314C46.7898 75.9416 46.7898 75.9621 46.7796 75.9826C46.7693 75.9929 46.7591 76.0031 46.7488 75.9929Z" fill="#103558"/>
<path d="M72.8154 58.5673C73.3279 58.0138 73.6662 57.5012 73.5637 57.409C73.4612 57.3167 72.9692 57.6755 72.4464 58.2085C72.0774 58.598 72.5387 58.8133 72.8154 58.5673Z" fill="#F7A58E"/>
<path d="M72.6207 58.0446L71.3599 59.0593C70.9704 59.3156 70.3963 59.6949 69.7813 60.1049C68.5718 60.9044 67.1162 61.6219 66.409 62.0934C66.409 62.0934 64.0514 61.2324 61.7451 60.6481C59.9 60.1869 58.0652 60.1254 57.7474 60.9659C57.1017 62.6982 59.121 63.59 62.3908 64.1332C64.0514 64.4202 66.0297 64.656 66.6242 64.3075C67.721 63.672 69.2791 62.6674 70.6731 61.2119C71.1241 60.7404 71.5239 60.3099 71.8314 59.9614C71.8826 59.9819 71.9441 60.0024 71.9954 60.0126C71.9954 60.0126 72.9794 59.9204 73.1639 59.3566C73.3279 58.7313 72.6617 58.0958 72.6207 58.0446Z" fill="#F7A58E"/>
<path d="M62.6267 60.7097C62.6267 60.7097 62.9649 61.3657 62.7087 62.7392C62.6164 63.2312 62.4011 63.754 62.0116 64.2153C60.3408 63.9693 57.1222 63.1595 57.4605 61.0479C57.809 58.9364 62.6267 60.7097 62.6267 60.7097Z" fill="#0386C2"/>
<path d="M56.0767 60.0126C56.0767 60.0126 53.6986 60.3918 51.9048 62.7494C52.9606 64.4817 54.5391 65.2915 54.5391 65.2915C54.5391 65.2915 57.2555 63.3747 57.522 61.7756C57.7885 60.1766 56.0767 60.0126 56.0767 60.0126Z" fill="#0386C2"/>
<path d="M61.4787 53.6369C61.4992 52.2838 60.4742 51.9456 60.4742 51.9456C60.9252 50.3978 58.8751 49.4138 56.9173 50.408C56.9173 50.408 56.128 49.957 54.7955 50.777C52.9709 51.8533 53.1554 54.1186 53.1554 54.1186C51.0439 54.7234 50.2136 56.6197 50.8286 58.3213C50.8286 58.3213 48.3685 59.2541 48.7888 61.7551C49.209 64.246 51.2899 64.5022 51.2899 64.5022C51.2899 64.5022 51.8639 68.2231 54.6827 67.9156C57.5016 67.6081 57.6348 65.312 57.6348 65.312C57.6348 65.312 59.9411 66.1218 60.9457 63.5694C61.9502 61.0171 59.5106 59.6128 59.5106 59.6128C59.5106 59.6128 60.9867 58.9465 60.9662 57.3475C60.9457 56.3225 60.3717 55.6869 59.9616 55.3589C60.8944 54.8464 61.4582 54.3954 61.4787 53.6369Z" fill="#0D0D0D"/>
<path d="M91.4814 63.969L91.8606 65.1478H93.0702L92.0861 65.8756L92.4654 67.0543L91.4814 66.3266L90.4973 67.0543L90.8766 65.8756L89.8926 65.1478H91.1021L91.4814 63.969Z" fill="#FDDA6D"/>
<path d="M95.8276 63.969L96.2068 65.1478H97.4164L96.4323 65.8756L96.8116 67.0543L95.8276 66.3266L94.8435 67.0543L95.2228 65.8756L94.2388 65.1478H95.4483L95.8276 63.969Z" fill="#FDDA6D"/>
<path d="M100.174 63.969L100.553 65.1478H101.763L100.779 65.8756L101.158 67.0543L100.174 66.3266L99.1897 67.0543L99.569 65.8756L98.585 65.1478H99.8048L100.174 63.969Z" fill="#FDDA6D"/>
<path d="M104.52 63.969L104.899 65.1478H106.109L105.124 65.8756L105.504 67.0543L104.52 66.3266L103.536 67.0543L103.915 65.8756L102.931 65.1478H104.151L104.52 63.969Z" fill="#FDDA6D"/>
<path d="M98.0826 55.2974C99.5035 55.2974 100.655 54.1455 100.655 52.7246C100.655 51.3036 99.5035 50.1517 98.0826 50.1517C96.6617 50.1517 95.5098 51.3036 95.5098 52.7246C95.5098 54.1455 96.6617 55.2974 98.0826 55.2974Z" fill="#029A65"/>
<path d="M99.7841 51.3715C99.1383 51.5765 98.3285 52.3042 97.8775 53.1038C97.7443 52.7758 97.3342 52.5297 97.1395 52.4887L96.6577 53.1345C97.037 53.237 97.4982 53.6265 97.6212 54.0673H98.2055C98.3695 53.565 98.8103 52.3658 99.9481 51.5867C99.9071 51.4945 99.7943 51.3817 99.7841 51.3715Z" fill="white"/>
<path d="M100.245 60.0228H95.684C95.5917 60.0228 95.5097 59.9613 95.4892 59.8793L94.6179 57.1322C94.5974 57.0707 94.6077 56.999 94.6487 56.9477C94.6897 56.8965 94.7512 56.8657 94.8127 56.8657H101.127C101.199 56.8657 101.26 56.8965 101.291 56.9477C101.332 56.999 101.342 57.0707 101.322 57.1322L100.45 59.8793C100.42 59.9716 100.338 60.0228 100.245 60.0228ZM95.8377 59.6026H100.102L100.84 57.2757H95.0997L95.8377 59.6026Z" fill="#0D0D0D"/>
<path d="M99.8763 61.1912H95.9811C95.8684 61.1912 95.7761 61.099 95.7761 60.976C95.7761 60.8632 95.8684 60.7607 95.9811 60.7607H99.7225C99.9788 60.7504 100.092 60.5762 100.112 60.3917C100.133 60.2277 100.071 60.0637 99.9583 60.0124L101.27 55.861C101.301 55.7688 101.383 55.7175 101.465 55.7175H102.828C102.941 55.7175 103.033 55.8098 103.033 55.9328C103.033 56.0455 102.941 56.1481 102.828 56.1481H101.619L100.409 60.0022C100.737 60.5352 100.297 61.1912 99.8763 61.1912Z" fill="#0D0D0D"/>
<path d="M96.7706 62.3803C97.0367 62.3803 97.2524 62.1646 97.2524 61.8985C97.2524 61.6324 97.0367 61.4167 96.7706 61.4167C96.5045 61.4167 96.2888 61.6324 96.2888 61.8985C96.2888 62.1646 96.5045 62.3803 96.7706 62.3803Z" fill="#0D0D0D"/>
<path d="M99.1998 62.3803C99.4659 62.3803 99.6816 62.1646 99.6816 61.8985C99.6816 61.6324 99.4659 61.4167 99.1998 61.4167C98.9337 61.4167 98.718 61.6324 98.718 61.8985C98.718 62.1646 98.9337 62.3803 99.1998 62.3803Z" fill="#0D0D0D"/>
<path d="M98.0824 60.0228C97.9697 60.0228 97.8774 59.9306 97.8774 59.8076V57.0605C97.8774 56.9477 97.9697 56.8452 98.0824 56.8452C98.1952 56.8452 98.2875 56.9375 98.2875 57.0605V59.8076C98.2875 59.9306 98.1952 60.0228 98.0824 60.0228Z" fill="#0D0D0D"/>
<path d="M96.914 60.0228C96.8218 60.0228 96.7295 59.9613 96.709 59.8588L96.094 57.1117C96.0735 56.9989 96.135 56.8862 96.2477 56.8554C96.3605 56.8247 96.4733 56.8964 96.4938 57.0092L97.1088 59.7563C97.1293 59.869 97.0678 59.9818 96.955 60.0125C96.9448 60.0228 96.9243 60.0228 96.914 60.0228Z" fill="#0D0D0D"/>
<path d="M99.1999 60.0227C99.1896 60.0227 99.1794 60.0227 99.1691 60.0227C99.0563 60.0022 98.9743 59.8997 98.9949 59.7869L99.3946 57.0398C99.4151 56.9271 99.5176 56.8451 99.6304 56.8656C99.7431 56.8861 99.8251 56.9886 99.8046 57.1013L99.4049 59.8484C99.3844 59.9509 99.3024 60.0227 99.1999 60.0227Z" fill="#0D0D0D"/>
<path d="M100.686 58.6698H95.2533C95.1406 58.6698 95.0483 58.5775 95.0483 58.4545C95.0483 58.3418 95.1406 58.2393 95.2533 58.2393H100.686C100.799 58.2393 100.891 58.3315 100.891 58.4545C100.891 58.5775 100.799 58.6698 100.686 58.6698Z" fill="#0D0D0D"/>
<path d="M44.2582 59.09C42.7719 59.0798 39.8301 59.0593 34.3769 59.0593C33.5261 59.0593 32.8394 58.3725 32.8394 57.5217V54.9182C32.8394 54.0674 33.5261 53.3806 34.3769 53.3806H44.0942C44.945 53.3806 45.6318 54.0674 45.6318 54.9182V57.7267C45.6215 58.4853 45.0065 59.09 44.2582 59.09Z" fill="white"/>
<path d="M35.1456 56.7632C35.4343 56.7632 35.6683 56.5291 35.6683 56.2404C35.6683 55.9517 35.4343 55.7177 35.1456 55.7177C34.8569 55.7177 34.6228 55.9517 34.6228 56.2404C34.6228 56.5291 34.8569 56.7632 35.1456 56.7632Z" fill="#B3B3B3"/>
<path d="M37.8621 56.7632C38.1508 56.7632 38.3849 56.5291 38.3849 56.2404C38.3849 55.9517 38.1508 55.7177 37.8621 55.7177C37.5734 55.7177 37.3394 55.9517 37.3394 56.2404C37.3394 56.5291 37.5734 56.7632 37.8621 56.7632Z" fill="#B3B3B3"/>
<path d="M40.5887 56.7632C40.8774 56.7632 41.1115 56.5291 41.1115 56.2404C41.1115 55.9517 40.8774 55.7177 40.5887 55.7177C40.3 55.7177 40.0659 55.9517 40.0659 56.2404C40.0659 56.5291 40.3 56.7632 40.5887 56.7632Z" fill="#B3B3B3"/>
<path d="M43.305 56.7632C43.5937 56.7632 43.8278 56.5291 43.8278 56.2404C43.8278 55.9517 43.5937 55.7177 43.305 55.7177C43.0163 55.7177 42.7822 55.9517 42.7822 56.2404C42.7822 56.5291 43.0163 56.7632 43.305 56.7632Z" fill="#B3B3B3"/>
<path d="M40.3632 58.0649V60.4328L37.3496 58.1572L40.3632 58.0649Z" fill="white"/>
<path d="M22.7246 11.4067L23.383 11.9287C23.5576 12.0672 23.67 12.2694 23.6954 12.491C23.7208 12.7125 23.6572 12.9352 23.5186 13.1101C23.3799 13.285 23.1776 13.3977 22.9561 13.4235C22.7346 13.4492 22.512 13.3859 22.3374 13.2475L21.679 12.7255L21.1562 13.3849C21.0176 13.5598 20.8152 13.6725 20.5937 13.6983C20.3722 13.724 20.1497 13.6607 19.9751 13.5223C19.8005 13.3839 19.6881 13.1816 19.6627 12.9601C19.6372 12.7385 19.7009 12.5158 19.8395 12.3409L20.3623 11.6815L19.7039 11.1595C19.5293 11.0211 19.417 10.8189 19.3915 10.5973C19.3661 10.3758 19.4297 10.153 19.5684 9.97813C19.707 9.80325 19.9094 9.69053 20.1309 9.66476C20.3524 9.63899 20.5749 9.70229 20.7495 9.84073L21.4079 10.3628L21.9307 9.70334C22.0694 9.52846 22.2717 9.41573 22.4932 9.38997C22.7147 9.3642 22.9373 9.4275 23.1119 9.56594C23.2865 9.70438 23.3989 9.90662 23.4243 10.1282C23.4497 10.3498 23.3861 10.5725 23.2474 10.7473L22.7246 11.4067Z" fill="#BFC7D2"/>
<path d="M11.7245 25.4066L12.3829 25.9286C12.5575 26.0671 12.6699 26.2693 12.6953 26.4909C12.7207 26.7124 12.6571 26.9351 12.5185 27.11C12.3798 27.2849 12.1775 27.3976 11.956 27.4234C11.7345 27.4491 11.5119 27.3858 11.3373 27.2474L10.6789 26.7254L10.1561 27.3848C10.0175 27.5597 9.81518 27.6724 9.59367 27.6982C9.37215 27.7239 9.14963 27.6606 8.97502 27.5222C8.80041 27.3838 8.68802 27.1815 8.6626 26.96C8.63718 26.7384 8.7008 26.5157 8.83945 26.3408C8.83945 26.3408 9.40022 26.0079 9.36225 25.6814C9.32434 25.3555 8.70388 25.1594 8.70388 25.1594C8.52927 25.021 8.4169 24.8188 8.39147 24.5972C8.36605 24.3757 8.42966 24.1529 8.56831 23.9781C8.70697 23.8032 8.90931 23.6905 9.13082 23.6647C9.35233 23.6389 9.57487 23.7022 9.74948 23.8407L10.4078 24.3627L10.9306 23.7033C11.0693 23.5284 11.2716 23.4157 11.4931 23.3899C11.7146 23.3641 11.9372 23.4274 12.1118 23.5659C12.2864 23.7043 12.3988 23.9065 12.4242 24.1281C12.4496 24.3497 12.386 24.5724 12.2473 24.7472L11.7245 25.4066Z" fill="#BFC7D2"/>
<path fill-rule="evenodd" clip-rule="evenodd" d="M98.8961 120.706C98.7664 120.603 98.6176 120.527 98.4583 120.481C98.299 120.436 98.1323 120.423 97.9678 120.442C97.8032 120.461 97.644 120.513 97.4992 120.593C97.3544 120.674 97.2269 120.782 97.1239 120.912C97.0209 121.042 96.9445 121.191 96.899 121.351C96.8535 121.51 96.8399 121.677 96.8588 121.841C96.8778 122.006 96.9289 122.165 97.0094 122.31C97.0899 122.455 97.1981 122.582 97.3279 122.685C97.59 122.893 97.9239 122.987 98.2563 122.949C98.5886 122.91 98.8922 122.741 99.1002 122.478C99.3081 122.216 99.4035 121.882 99.3652 121.549C99.3269 121.217 99.1582 120.913 98.8961 120.706Z" fill="#BFC7D2"/>
</svg>
