<svg width="130" height="130" viewBox="0 0 130 130" fill="none" xmlns="http://www.w3.org/2000/svg">
<circle cx="66.4211" cy="66.4211" r="58.4211" fill="#E6EDB7"/>
<circle cx="113.947" cy="11.3158" r="6.31579" fill="#F1BC19"/>
<circle cx="11.3158" cy="91.8421" r="6.31579" fill="#F1BC19"/>
<circle r="3.15789" transform="matrix(1 0 0 -1 14.4737 69.7369)" fill="white"/>
<circle r="2.36842" transform="matrix(1 0 0 -1 108.421 40.5263)" fill="white"/>
<circle cx="120.263" cy="101.316" r="3.15789" fill="#F1BC19"/>
<circle cx="104.474" cy="8.1579" r="1.57895" fill="#F1BC19"/>
<circle cx="119.474" cy="26.3158" r="2.36842" fill="#88AE45"/>
<circle cx="80.5" cy="58.5" r="28.5" fill="#F8FECF"/>
<path d="M78.6667 37.8333H55.3333V40.1667H78.6667V37.8333Z" fill="black"/>
<path d="M89.75 75.75C89.75 73.4986 87.9179 71.6667 85.6667 71.6667H83.3333V55.3333H81V71.6667H78.0833C75.832 71.6667 74 73.4988 74 75.75C74 76.893 74.4751 77.9247 75.2346 78.6667C74.4751 79.4087 74 80.4403 74 81.5833C74 82.3698 74.2341 83.0985 74.6211 83.7224C73.2255 84.3724 72.25 85.7787 72.25 87.4167C72.25 88.0454 72.4047 88.6342 72.6596 89.1667H63.5C63.5 85.5994 61.7124 82.4424 58.986 80.5443C61.6224 79.5393 63.5 76.9851 63.5 74C63.5 73.3557 62.9782 72.8333 62.3333 72.8333H53V61.1667H50.6667V72.8333C48.7367 72.8333 47.1667 74.4034 47.1667 76.3333V102H49.5V76.3333C49.5 75.6902 50.023 75.1667 50.6667 75.1667H61.0185C60.5001 77.177 58.6703 78.6667 56.5 78.6667H53C52.3551 78.6667 51.8333 79.189 51.8333 79.8333C51.8333 80.4776 52.3551 81 53 81C57.5026 81 61.1667 84.6635 61.1667 89.1667V90.3333C61.1667 90.9776 61.6885 91.5 62.3333 91.5H69.1596C68.9047 92.0324 68.75 92.6213 68.75 93.25C68.75 95.5014 70.5821 97.3333 72.8333 97.3333V102H75.1667V97.3333H79.8333H80.4167C82.668 97.3333 84.5 95.5012 84.5 93.25C84.5 92.6146 84.3415 92.0202 84.0813 91.4834C86.255 91.3947 88 89.6116 88 87.4167C88 86.6302 87.7659 85.9015 87.3789 85.2776C88.7745 84.6276 89.75 83.2213 89.75 81.5833C89.75 80.4403 89.2749 79.4087 88.5154 78.6667C89.2749 77.9247 89.75 76.893 89.75 75.75ZM80.4167 95H79.8333H74H72.8333C71.8683 95 71.0833 94.215 71.0833 93.25C71.0833 92.285 71.8683 91.5 72.8333 91.5H76.3333H80.4167C81.3816 91.5 82.1667 92.285 82.1667 93.25C82.1667 94.215 81.3816 95 80.4167 95ZM83.9167 89.1667H80.4167H76.3333C75.3683 89.1667 74.5833 88.3816 74.5833 87.4167C74.5833 86.4517 75.3683 85.6667 76.3333 85.6667H78.0833H83.9167C84.8816 85.6667 85.6667 86.4517 85.6667 87.4167C85.6667 88.3816 84.8816 89.1667 83.9167 89.1667ZM85.6667 83.3333H83.9167H78.0833C77.1183 83.3333 76.3333 82.5483 76.3333 81.5833C76.3333 80.6184 77.1183 79.8333 78.0833 79.8333H85.6667C86.6316 79.8333 87.4167 80.6184 87.4167 81.5833C87.4167 82.5483 86.6316 83.3333 85.6667 83.3333ZM85.6667 77.5H78.0833C77.1183 77.5 76.3333 76.715 76.3333 75.75C76.3333 74.785 77.1183 74 78.0833 74H85.6667C86.6316 74 87.4167 74.785 87.4167 75.75C87.4167 76.715 86.6316 77.5 85.6667 77.5Z" fill="black"/>
<path d="M49.4967 46.8499C49.4727 46.5149 49.3063 46.2062 49.0386 46.0034L47.8241 45.0827C47.5336 43.612 46.2427 42.5 44.6989 42.5C42.9569 42.5 41.536 43.9162 41.5133 45.6656C40.5813 45.5027 39.6904 45.145 38.8928 44.6077L38.4861 44.3331C38.1295 44.0922 37.6669 44.066 37.2853 44.2698C36.9048 44.4721 36.6667 44.8686 36.6667 45.2999V46.257C36.6667 47.6629 37.0905 49.0039 37.8767 50.1301L37.004 51.0132C36.6725 51.3476 36.5755 51.8484 36.7568 52.2829C36.9378 52.7169 37.3627 53 37.8333 53H43.4867C45.7414 53 47.6053 51.2814 47.856 49.0756L49.1628 47.7535C49.3987 47.5148 49.5206 47.1855 49.4967 46.8499ZM45.8883 47.7466C45.6719 47.9648 45.551 48.26 45.551 48.567C45.551 49.7246 44.6247 50.6667 43.4866 50.6667H40.5187C40.7033 50.2417 40.6236 49.729 40.2784 49.3798C39.7338 48.8284 39.3442 48.1346 39.147 47.3866C40.2602 47.856 41.4564 48.0999 42.6801 48.0999C43.325 48.0999 43.8468 47.5775 43.8468 46.9332V45.7083C43.8468 45.2258 44.2296 44.8333 44.699 44.8333C45.1685 44.8333 45.5513 45.2258 45.5513 45.7083C45.5513 46.0735 45.7222 46.4175 46.0127 46.638L46.5688 47.059L45.8883 47.7466Z" fill="black"/>
<path d="M70.5 51.8333V49.5H67C66.3551 49.5 65.8333 50.0224 65.8333 50.6667V54.1667H63.5V56.5H65.8333V61.1667H68.1667V56.5H70.5V54.1667H68.1667V51.8333H70.5Z" fill="black"/>
<path d="M74 44.8333H60C58.07 44.8333 56.5 46.4034 56.5 48.3333V62.3333C56.5 64.2633 58.07 65.8333 60 65.8333H74C75.93 65.8333 77.5 64.2633 77.5 62.3333V48.3333C77.5 46.4034 75.93 44.8333 74 44.8333ZM75.1667 62.3333C75.1667 62.9765 74.6437 63.5 74 63.5H60C59.3563 63.5 58.8333 62.9765 58.8333 62.3333V48.3333C58.8333 47.6902 59.3563 47.1667 60 47.1667H74C74.6437 47.1667 75.1667 47.6902 75.1667 48.3333V62.3333Z" fill="black"/>
<path d="M49.5 37.8333H35.5C33.57 37.8333 32 39.4034 32 41.3333V55.3333C32 57.2633 33.57 58.8333 35.5 58.8333H49.5C51.43 58.8333 53 57.2633 53 55.3333V41.3333C53 39.4034 51.43 37.8333 49.5 37.8333ZM50.6667 55.3333C50.6667 55.9765 50.1437 56.5 49.5 56.5H35.5C34.8563 56.5 34.3333 55.9765 34.3333 55.3333V41.3333C34.3333 40.6902 34.8563 40.1667 35.5 40.1667H49.5C50.1437 40.1667 50.6667 40.6902 50.6667 41.3333V55.3333Z" fill="black"/>
<path d="M98.5 32H84.5C82.57 32 81 33.57 81 35.5V49.5C81 51.43 82.57 53 84.5 53H98.5C100.43 53 102 51.43 102 49.5V35.5C102 33.57 100.43 32 98.5 32ZM99.6667 49.5C99.6667 50.1431 99.1437 50.6667 98.5 50.6667H84.5C83.8563 50.6667 83.3333 50.1431 83.3333 49.5V43.6667H85.7846C86.3267 46.3258 88.6832 48.3333 91.5 48.3333C94.3168 48.3333 96.6733 46.3258 97.2153 43.6667H99.6667V49.5ZM88 42.5C88 40.57 89.57 39 91.5 39C93.43 39 95 40.57 95 42.5C95 44.43 93.43 46 91.5 46C89.57 46 88 44.43 88 42.5ZM99.6667 41.3333H97.2153C96.6733 38.6742 94.3168 36.6667 91.5 36.6667C88.6832 36.6667 86.3267 38.6742 85.7846 41.3333H83.3333V35.5C83.3333 34.8569 83.8563 34.3333 84.5 34.3333H98.5C99.1437 34.3333 99.6667 34.8569 99.6667 35.5V41.3333Z" fill="black"/>
<path d="M68.1667 79.8333H65.8333V82.1667H68.1667V79.8333Z" fill="black"/>
</svg>
