<svg width="120" height="120" viewBox="0 0 120 120" fill="none" xmlns="http://www.w3.org/2000/svg">
<circle cx="61.579" cy="61.5789" r="58.4211" fill="#CEECD3"/>
<circle cx="108.947" cy="6.31579" r="6.31579" fill="#76FD8C"/>
<circle cx="6.31579" cy="86.8422" r="6.31579" fill="#76FD8C"/>
<circle r="3.15789" transform="matrix(1 0 0 -1 9.47369 64.7369)" fill="white"/>
<circle r="2.36842" transform="matrix(1 0 0 -1 103.421 35.5263)" fill="white"/>
<circle cx="115.263" cy="96.3158" r="3.15789" fill="#76FD8C"/>
<circle cx="99.4737" cy="3.1579" r="1.57895" fill="#76FD8C"/>
<circle cx="114.474" cy="21.3158" r="2.36842" fill="#1BB934"/>
<circle cx="74.5" cy="45.5" r="28.5" fill="#DFF3E3"/>
<path fill-rule="evenodd" clip-rule="evenodd" d="M93.896 115.706C93.7663 115.603 93.6175 115.527 93.4582 115.481C93.2989 115.436 93.1322 115.423 92.9677 115.442C92.8031 115.461 92.6439 115.513 92.4991 115.593C92.3543 115.674 92.2268 115.782 92.1238 115.912C92.0208 116.042 91.9444 116.191 91.8989 116.351C91.8534 116.51 91.8398 116.677 91.8587 116.841C91.8777 117.006 91.9288 117.165 92.0093 117.31C92.0898 117.455 92.198 117.582 92.3278 117.685C92.5899 117.893 92.9238 117.987 93.2562 117.949C93.5885 117.91 93.8921 117.741 94.1001 117.478C94.308 117.216 94.4034 116.882 94.3651 116.549C94.3268 116.217 94.1581 115.913 93.896 115.706Z" fill="#BFC7D2"/>
<path d="M17.7246 6.40673L18.383 6.92872C18.5576 7.06716 18.67 7.2694 18.6954 7.49095C18.7208 7.7125 18.6572 7.93522 18.5186 8.1101C18.3799 8.28498 18.1776 8.3977 17.9561 8.42347C17.7346 8.44923 17.512 8.38594 17.3374 8.24749L16.679 7.72551L16.1562 8.38489C16.0176 8.55978 15.8152 8.6725 15.5937 8.69827C15.3722 8.72403 15.1497 8.66073 14.9751 8.52229C14.8005 8.38385 14.6881 8.18161 14.6627 7.96006C14.6372 7.73851 14.7009 7.5158 14.8395 7.34092L15.3623 6.68153L14.7039 6.15954C14.5293 6.0211 14.417 5.81886 14.3915 5.59731C14.3661 5.37576 14.4297 5.15304 14.5684 4.97816C14.707 4.80328 14.9094 4.69056 15.1309 4.66479C15.3524 4.63902 15.5749 4.70232 15.7495 4.84076L16.4079 5.36275L16.9307 4.70337C17.0694 4.52849 17.2717 4.41576 17.4932 4.39C17.7147 4.36423 17.9373 4.42753 18.1119 4.56597C18.2865 4.70441 18.3989 4.90665 18.4243 5.1282C18.4497 5.34975 18.3861 5.57246 18.2474 5.74734L17.7246 6.40673Z" fill="#BFC7D2"/>
<path d="M6.72464 20.4067L7.38299 20.9287C7.5576 21.0672 7.66999 21.2694 7.69541 21.491C7.72084 21.7125 7.65721 21.9352 7.51855 22.1101C7.3799 22.285 7.17757 22.3977 6.95606 22.4235C6.73455 22.4492 6.512 22.3859 6.33739 22.2475L5.67904 21.7255L5.15624 22.3849C5.01758 22.5598 4.81525 22.6725 4.59374 22.6983C4.37222 22.724 4.1497 22.6607 3.97509 22.5223C3.80048 22.3839 3.68809 22.1816 3.66267 21.9601C3.63725 21.7385 3.70087 21.5158 3.83952 21.3409C3.83952 21.3409 4.40029 21.008 4.36232 20.6815C4.32441 20.3556 3.70395 20.1595 3.70395 20.1595C3.52934 20.0211 3.41697 19.8189 3.39154 19.5973C3.36612 19.3758 3.42973 19.153 3.56838 18.9782C3.70704 18.8033 3.90938 18.6906 4.13089 18.6648C4.3524 18.639 4.57494 18.7023 4.74955 18.8408L5.40792 19.3628L5.93072 18.7034C6.06937 18.5285 6.27171 18.4158 6.49322 18.39C6.71473 18.3642 6.93728 18.4275 7.11189 18.566C7.2865 18.7044 7.39886 18.9066 7.42429 19.1282C7.44971 19.3498 7.38609 19.5725 7.24744 19.7473L6.72464 20.4067Z" fill="#BFC7D2"/>
<rect x="33" y="36" width="62" height="62" rx="10" fill="#059BBF"/>
<path d="M43 98H85C90.5228 98 95 93.5228 95 88V48L81.8693 54.1765L77.7969 61.3235L73.7244 68.4706L59.5142 78L42.7045 75.3529L33 82.2353V88.0001C33 93.523 37.4772 98 43 98Z" fill="white"/>
<path d="M43 98H85C90.5228 98 95 93.5229 95 88V50L83 55.4433L74.5 70.2887L60 79.6907L43 77.2165L33 84.1443V88.0015C33 93.5244 37.4772 98 43 98Z" fill="#21B2D1"/>
<mask id="mask0" mask-type="alpha" maskUnits="userSpaceOnUse" x="33" y="50" width="62" height="48">
<path d="M43 98H85C90.5228 98 95 93.5229 95 88V50L83 55.4433L74.5 70.2887L60 79.6907L43 77.2165L33 84.1443V88.0015C33 93.5244 37.4772 98 43 98Z" fill="#21B2D1"/>
</mask>
<g mask="url(#mask0)">
<rect x="33" y="75.8068" width="6.73143" height="5.98864" fill="#059BBF"/>
<rect x="33" y="83.5568" width="6.73143" height="5.98864" fill="#059BBF"/>
<rect x="33" y="92.0114" width="6.73143" height="5.98864" fill="#059BBF"/>
<rect x="41.5029" y="75.8068" width="6.02286" height="5.98864" fill="#059BBF"/>
<rect x="41.5029" y="83.5568" width="6.02286" height="5.98864" fill="#059BBF"/>
<rect x="41.5029" y="91.3068" width="6.02286" height="6.69318" fill="#059BBF"/>
<rect x="41.5029" y="68.0568" width="6.02286" height="5.98864" fill="#059BBF"/>
<rect x="49.2972" y="75.8068" width="6.02286" height="5.98864" fill="#059BBF"/>
<rect x="49.2972" y="83.5568" width="6.02286" height="5.98864" fill="#059BBF"/>
<rect x="49.2972" y="91.3068" width="6.02286" height="6.69318" fill="#059BBF"/>
<rect x="49.2972" y="68.0568" width="6.02286" height="5.98864" fill="#059BBF"/>
<rect x="57.0914" y="75.8068" width="6.02286" height="5.98864" fill="#059BBF"/>
<rect x="57.0914" y="83.5568" width="6.02286" height="5.98864" fill="#059BBF"/>
<rect x="57.0914" y="91.3068" width="6.02286" height="6.69318" fill="#059BBF"/>
<rect x="57.0914" y="68.0568" width="6.02286" height="5.98864" fill="#059BBF"/>
<rect x="64.8857" y="75.8068" width="6.02286" height="5.98864" fill="#059BBF"/>
<rect x="64.8857" y="83.5568" width="6.02286" height="5.98864" fill="#059BBF"/>
<rect x="64.8857" y="91.3068" width="6.02286" height="6.69318" fill="#059BBF"/>
<rect x="64.8857" y="68.0568" width="6.02286" height="5.98864" fill="#059BBF"/>
<rect x="72.68" y="75.8068" width="6.02286" height="5.98864" fill="#059BBF"/>
<rect x="72.68" y="83.5568" width="6.02286" height="5.98864" fill="#059BBF"/>
<rect x="72.68" y="91.3068" width="6.02286" height="6.69318" fill="#059BBF"/>
<rect x="72.68" y="68.0568" width="6.02286" height="5.98864" fill="#059BBF"/>
<rect x="72.68" y="60.3068" width="6.02286" height="5.98864" fill="#059BBF"/>
<rect x="80.4744" y="75.8068" width="6.02286" height="5.98864" fill="#059BBF"/>
<rect x="80.4744" y="83.5568" width="6.02286" height="5.98864" fill="#059BBF"/>
<rect x="80.4744" y="91.3068" width="6.02286" height="6.69318" fill="#059BBF"/>
<rect x="80.4744" y="68.0568" width="6.02286" height="5.98864" fill="#059BBF"/>
<rect x="80.4744" y="60.3068" width="6.02286" height="5.98864" fill="#059BBF"/>
<rect x="80.4743" y="52.5568" width="6.02286" height="5.98864" fill="#059BBF"/>
<rect x="87.9143" y="75.8068" width="7.08571" height="5.98864" fill="#059BBF"/>
<rect x="87.9143" y="83.5568" width="7.08571" height="5.98864" fill="#059BBF"/>
<rect x="87.9143" y="91.3068" width="7.08571" height="6.69318" fill="#059BBF"/>
<rect x="87.9143" y="68.0568" width="7.08571" height="5.98864" fill="#059BBF"/>
<rect x="87.9143" y="60.3068" width="7.08571" height="5.98864" fill="#059BBF"/>
<rect x="87.9143" y="52.5568" width="7.08571" height="5.98864" fill="#059BBF"/>
<rect x="87.9143" y="44.8068" width="7.08571" height="5.98864" fill="#059BBF"/>
</g>
<path d="M52.375 43.3977H67.875V61.0114L60.125 66.6477L52.375 61.0114V43.3977Z" fill="white"/>
<path d="M56.25 55.6098H57.8C57.8 56.4553 58.8617 57.1755 60.125 57.1755C61.3882 57.1755 62.45 56.4553 62.45 55.6098C62.45 54.7487 61.644 54.4356 59.939 54.0207C58.296 53.6058 56.25 53.0891 56.25 50.9129C56.25 49.5116 57.3893 48.3217 58.9625 47.9225V46.2159H61.2875V47.9225C62.8607 48.3217 64 49.5116 64 50.9129H62.45C62.45 50.0674 61.3882 49.3472 60.125 49.3472C58.8617 49.3472 57.8 50.0674 57.8 50.9129C57.8 51.774 58.606 52.0871 60.311 52.502C61.954 52.9169 64 53.4336 64 55.6098C64 57.0111 62.8607 58.201 61.2875 58.6003V60.3068H58.9625V58.6003C57.3893 58.201 56.25 57.0111 56.25 55.6098Z" fill="#F37910"/>
<circle cx="42.1705" cy="76.1705" r="3.17045" fill="white"/>
<circle cx="60.1705" cy="78.1705" r="3.17045" fill="white"/>
<circle cx="73.1705" cy="69.1705" r="3.17045" fill="white"/>
<path d="M86.3409 54.1705C86.3409 55.9214 84.9214 57.3409 83.1705 57.3409C81.4195 57.3409 80 55.9214 80 54.1705C80 52.4195 81.4195 51 83.1705 51C84.9214 51 86.3409 52.4195 86.3409 54.1705Z" fill="white"/>
</svg>
