<svg width="130" height="130" viewBox="0 0 130 130" fill="none" xmlns="http://www.w3.org/2000/svg">
<circle cx="66.5789" cy="66.5789" r="58.4211" fill="#C2EAFC"/>
<circle cx="113.947" cy="11.3158" r="6.31579" fill="#AAE5FF"/>
<circle cx="11.3158" cy="91.8422" r="6.31579" fill="#AAE5FF"/>
<circle r="3.15789" transform="matrix(1 0 0 -1 14.4737 69.7369)" fill="white"/>
<circle r="2.36842" transform="matrix(1 0 0 -1 108.421 40.5263)" fill="white"/>
<circle cx="120.263" cy="101.316" r="3.15789" fill="#FDD1A3"/>
<circle cx="104.474" cy="8.1579" r="1.57895" fill="#AAE5FF"/>
<circle cx="119.474" cy="26.3158" r="2.36842" fill="#E40C57"/>
<circle cx="75.4999" cy="58.5" r="28.5" fill="#D8F1FD"/>
<path fill-rule="evenodd" clip-rule="evenodd" d="M98.896 120.706C98.7663 120.603 98.6175 120.527 98.4582 120.481C98.2989 120.436 98.1322 120.423 97.9677 120.442C97.8031 120.461 97.6439 120.513 97.4991 120.593C97.3543 120.674 97.2268 120.782 97.1238 120.912C97.0208 121.042 96.9444 121.191 96.8989 121.351C96.8534 121.51 96.8398 121.677 96.8587 121.841C96.8777 122.006 96.9288 122.165 97.0093 122.31C97.0898 122.455 97.198 122.582 97.3278 122.685C97.5899 122.893 97.9238 122.987 98.2562 122.949C98.5885 122.91 98.8921 122.741 99.1001 122.478C99.308 122.216 99.4034 121.882 99.3651 121.549C99.3268 121.217 99.1581 120.913 98.896 120.706Z" fill="#BFC7D2"/>
<path d="M22.7246 11.4067L23.383 11.9287C23.5576 12.0672 23.67 12.2694 23.6954 12.491C23.7208 12.7125 23.6572 12.9352 23.5186 13.1101C23.3799 13.285 23.1776 13.3977 22.9561 13.4235C22.7346 13.4492 22.512 13.3859 22.3374 13.2475L21.679 12.7255L21.1562 13.3849C21.0176 13.5598 20.8152 13.6725 20.5937 13.6983C20.3722 13.724 20.1497 13.6607 19.9751 13.5223C19.8005 13.3839 19.6881 13.1816 19.6627 12.9601C19.6372 12.7385 19.7009 12.5158 19.8395 12.3409L20.3623 11.6815L19.7039 11.1595C19.5293 11.0211 19.417 10.8189 19.3915 10.5973C19.3661 10.3758 19.4297 10.153 19.5684 9.97816C19.707 9.80328 19.9094 9.69056 20.1309 9.66479C20.3524 9.63902 20.5749 9.70232 20.7495 9.84076L21.4079 10.3628L21.9307 9.70337C22.0694 9.52849 22.2717 9.41576 22.4932 9.39C22.7147 9.36423 22.9373 9.42753 23.1119 9.56597C23.2865 9.70441 23.3989 9.90665 23.4243 10.1282C23.4497 10.3498 23.3861 10.5725 23.2474 10.7473L22.7246 11.4067Z" fill="#BFC7D2"/>
<path d="M11.7246 25.4067L12.383 25.9287C12.5576 26.0672 12.67 26.2694 12.6954 26.491C12.7208 26.7125 12.6572 26.9352 12.5186 27.1101C12.3799 27.285 12.1776 27.3977 11.9561 27.4235C11.7346 27.4492 11.512 27.3859 11.3374 27.2475L10.679 26.7255L10.1562 27.3849C10.0176 27.5598 9.81525 27.6725 9.59374 27.6983C9.37222 27.724 9.1497 27.6607 8.97509 27.5223C8.80048 27.3839 8.68809 27.1816 8.66267 26.9601C8.63725 26.7385 8.70087 26.5158 8.83952 26.3409C8.83952 26.3409 9.40029 26.008 9.36232 25.6815C9.32441 25.3556 8.70395 25.1595 8.70395 25.1595C8.52934 25.0211 8.41697 24.8189 8.39154 24.5973C8.36612 24.3758 8.42973 24.153 8.56838 23.9782C8.70704 23.8033 8.90938 23.6906 9.13089 23.6648C9.3524 23.639 9.57494 23.7023 9.74955 23.8408L10.4079 24.3628L10.9307 23.7034C11.0694 23.5285 11.2717 23.4158 11.4932 23.39C11.7147 23.3642 11.9373 23.4275 12.1119 23.566C12.2865 23.7044 12.3989 23.9066 12.4243 24.1282C12.4497 24.3498 12.3861 24.5725 12.2474 24.7473L11.7246 25.4067Z" fill="#BFC7D2"/>
<path fill-rule="evenodd" clip-rule="evenodd" d="M58.9146 40.5245C54.6932 42.4869 45.9887 46.4353 42.3976 44.6482L34.4592 35.6025L37.5061 34.2733L45.7825 38.2767C48.0619 39.1707 49.1198 38.7092 53.528 36.7861C54.4096 36.4015 55.4253 35.9584 56.6115 35.4561L49.9291 31.573C50.0007 31.3907 50.515 31.0455 51.9997 31.1229L61.6818 33.1535L76.6782 26.7926C77.3605 26.5553 79.2152 26.2478 81.1751 26.9156C81.7859 26.8606 83.231 26.8889 84.1251 27.4415C84.2829 28.2187 83.994 30.0911 81.5753 31.3638L66.079 38.0335L57.1472 47.2779C56.6394 47.4994 55.5097 47.8473 55.0532 47.4663C54.5967 47.0853 57.4372 42.6797 58.9146 40.5245ZM54.2766 38.8333L55.2475 38.4304L55.6505 39.401L54.6795 39.8039L54.2766 38.8333ZM57.1894 37.6247L56.2185 38.0276L56.6214 38.9981L57.5924 38.5953L57.1894 37.6247ZM58.1604 37.2218L59.1313 36.8189L59.5343 37.7895L58.5633 38.1924L58.1604 37.2218ZM61.0732 36.0131L60.1023 36.416L60.5052 37.3866L61.4762 36.9837L61.0732 36.0131ZM62.0442 35.6103L63.0151 35.2074L63.4181 36.178L62.4471 36.5808L62.0442 35.6103ZM64.957 34.4016L63.9861 34.8045L64.389 35.7751L65.36 35.3722L64.957 34.4016ZM65.928 33.9987L66.8989 33.5958L67.3019 34.5664L66.3309 34.9693L65.928 33.9987ZM68.8408 32.7901L67.8699 33.193L68.2728 34.1635L69.2438 33.7607L68.8408 32.7901ZM69.8118 32.3872L70.7827 31.9843L71.1857 32.9549L70.2147 33.3578L69.8118 32.3872ZM72.7246 31.1785L71.7537 31.5814L72.1567 32.552L73.1276 32.1491L72.7246 31.1785ZM73.6956 30.7757L74.6665 30.3728L75.0695 31.3434L74.0986 31.7462L73.6956 30.7757ZM76.6084 29.567L75.6375 29.9699L76.0405 30.9405L77.0114 30.5376L76.6084 29.567Z" fill="#19648F"/>
<path d="M45.8053 105C44.5585 106.811 43.4156 105.755 43 105V83.0003C43.7481 81.1886 45.1819 82.2455 45.8053 83.0003V94.9706H83.5212C84.5187 96.2646 83.729 97.2352 83.2095 97.5587V105C81.464 106.811 80.4042 105.755 80.0925 105V97.5587H62.9489H45.8053V105Z" fill="#19648F"/>
<path d="M46.4287 94.3235V85.912C51.1666 84.8768 53.1823 88.9315 53.5979 91.0883L82.8978 90.7648C83.8953 91.2824 83.729 93.353 83.5212 94.3235H46.4287Z" fill="#19648F"/>
<path fill-rule="evenodd" clip-rule="evenodd" d="M70.7653 84.5574L67.1194 87.8315C66.4813 88.1043 65.9162 88.068 65.1141 87.5587L46.7023 69.5511C46.9454 69.2479 47.3039 68.5324 46.7935 68.0959C46.4745 67.8231 46.0096 67.6775 45.4263 68.1868L43.421 66.0951C43.0564 65.7313 42.783 65.2765 43.2387 63.7304L46.52 60.3654C47.705 60.6988 50.2935 61.0202 51.1686 59.6378C51.9585 59.1224 53.3014 57.3641 52.3535 54.4538L55.5436 51.3616C56.0601 51.0887 57.3301 50.7067 58.2781 51.3616L60.2833 53.4533C60.101 53.7565 59.8458 54.4356 60.2833 54.7266C60.496 54.9085 61.0489 55.1632 61.5594 54.7266L67.484 60.5473C65.3268 61.002 61.3224 62.7664 62.562 66.186C63.584 69.0054 66.299 70.0058 73.0439 66.186L79.7889 72.8252C80.0015 73.3405 80.2993 74.5714 79.7889 75.3717L76.5987 78.7367C75.5657 78.373 73.4085 78.1001 71.9502 79.3734C71.1299 80.0896 70.0361 81.2833 70.7653 84.5574ZM75.6562 71.4941C75.8808 71.7182 75.8808 72.0816 75.6562 72.3057L64.5638 83.3734C64.3392 83.5976 63.9751 83.5976 63.7505 83.3734C63.5259 83.1493 63.5259 82.7859 63.7505 82.5618L74.8428 71.4941C75.0674 71.27 75.4316 71.27 75.6562 71.4941ZM74.0045 70.7685C74.2291 70.5443 74.2291 70.181 74.0045 69.9569C73.7799 69.7327 73.4157 69.7327 73.1911 69.9568L62.0987 81.0246C61.8741 81.2487 61.8741 81.6121 62.0987 81.8362C62.3233 82.0603 62.6875 82.0603 62.9121 81.8362L74.0045 70.7685ZM72.5461 68.3198C72.7707 68.5439 72.7707 68.9073 72.5461 69.1314L61.4537 80.1991C61.2291 80.4232 60.865 80.4232 60.6404 80.1991C60.4157 79.975 60.4157 79.6116 60.6404 79.3875L71.7327 68.3198C71.9573 68.0957 72.3215 68.0957 72.5461 68.3198ZM58.3692 55.727C58.3692 56.2293 58.7773 56.6365 59.2807 56.6365C59.7841 56.6365 60.1922 56.2293 60.1922 55.727C60.1922 55.2247 59.7841 54.8176 59.2807 54.8176C58.7773 54.8176 58.3692 55.2247 58.3692 55.727ZM57.64 58.2736C57.1366 58.2736 56.7286 57.8664 56.7286 57.3641C56.7286 56.8618 57.1366 56.4546 57.64 56.4546C58.1434 56.4546 58.5515 56.8618 58.5515 57.3641C58.5515 57.8664 58.1434 58.2736 57.64 58.2736ZM55.0879 59.0011C55.0879 59.5034 55.496 59.9106 55.9994 59.9106C56.5028 59.9106 56.9109 59.5034 56.9109 59.0011C56.9109 58.4989 56.5028 58.0917 55.9994 58.0917C55.496 58.0917 55.0879 58.4989 55.0879 59.0011ZM54.3587 61.5477C53.8553 61.5477 53.4472 61.1405 53.4472 60.6382C53.4472 60.1359 53.8553 59.7287 54.3587 59.7287C54.8621 59.7287 55.2702 60.1359 55.2702 60.6382C55.2702 61.1405 54.8621 61.5477 54.3587 61.5477ZM51.8066 62.2753C51.8066 62.7775 52.2147 63.1847 52.7181 63.1847C53.2215 63.1847 53.6295 62.7775 53.6295 62.2753C53.6295 61.773 53.2215 61.3658 52.7181 61.3658C52.2147 61.3658 51.8066 61.773 51.8066 62.2753ZM51.0774 64.8218C50.574 64.8218 50.1659 64.4146 50.1659 63.9123C50.1659 63.41 50.574 63.0028 51.0774 63.0028C51.5808 63.0028 51.9889 63.41 51.9889 63.9123C51.9889 64.4146 51.5808 64.8218 51.0774 64.8218ZM48.5253 65.5494C48.5253 66.0517 48.9334 66.4588 49.4368 66.4588C49.9402 66.4588 50.3482 66.0517 50.3482 65.5494C50.3482 65.0471 49.9402 64.6399 49.4368 64.6399C48.9334 64.6399 48.5253 65.0471 48.5253 65.5494ZM47.7961 67.914C47.2927 67.914 46.8846 67.5068 46.8846 67.0045C46.8846 66.5022 47.2927 66.095 47.7961 66.095C48.2995 66.095 48.7076 66.5022 48.7076 67.0045C48.7076 67.5068 48.2995 67.914 47.7961 67.914Z" fill="#19648F"/>
<path d="M76.781 79.8281C76.4468 79.5553 75.5232 79.046 74.5023 79.1915C73.4693 79.2218 71.3851 80.0464 71.3121 83.1022H81.8853C82.4625 83.1325 83.7629 82.8112 84.3462 81.2833V67.1864L76.0518 59.4559C75.7784 59.1224 74.8304 58.5828 73.2262 59.0921L64.1115 63.0028C63.6558 63.4879 62.9266 64.8764 63.6558 66.5498C63.9596 67.1864 64.9865 68.3505 66.6636 67.914L73.4997 65.0946L80.518 72.3704C80.8522 73.0071 81.3201 74.5714 80.518 75.7355L76.781 79.8281Z" fill="#19648F"/>
<path d="M91 68.9144C91 67.3573 89.7349 66.095 88.1744 66.095C86.6139 66.095 85.3489 67.3573 85.3489 68.9144V80.1919C85.3489 81.749 86.6139 83.0113 88.1744 83.0113C89.7349 83.0113 91 81.749 91 80.1919V68.9144Z" fill="#19648F"/>
</svg>
