<svg width="130" height="130" viewBox="0 0 130 130" fill="none" xmlns="http://www.w3.org/2000/svg">
<circle cx="66.4211" cy="66.5789" r="58.4211" fill="#C2EAFC"/>
<circle cx="113.947" cy="11.3158" r="6.31579" fill="#F0D0B4"/>
<circle cx="11.3158" cy="91.8422" r="6.31579" fill="#AAE5FF"/>
<circle r="3.15789" transform="matrix(1 0 0 -1 14.4737 69.7369)" fill="white"/>
<circle r="2.36842" transform="matrix(1 0 0 -1 108.421 40.5263)" fill="white"/>
<circle cx="120.263" cy="101.316" r="3.15789" fill="#76FD8C"/>
<circle cx="104.474" cy="8.1579" r="1.57895" fill="#76FD8C"/>
<circle cx="119.474" cy="26.3158" r="2.36842" fill="#1BB934"/>
<path fill-rule="evenodd" clip-rule="evenodd" d="M98.896 120.706C98.7663 120.603 98.6175 120.527 98.4582 120.481C98.2989 120.436 98.1322 120.423 97.9677 120.442C97.8031 120.461 97.6439 120.513 97.4991 120.593C97.3543 120.674 97.2268 120.782 97.1238 120.912C97.0208 121.042 96.9444 121.191 96.8989 121.351C96.8534 121.51 96.8398 121.677 96.8587 121.841C96.8777 122.006 96.9288 122.165 97.0093 122.31C97.0898 122.455 97.198 122.582 97.3278 122.685C97.5899 122.893 97.9238 122.987 98.2562 122.949C98.5885 122.91 98.8921 122.741 99.1001 122.478C99.308 122.216 99.4034 121.882 99.3651 121.549C99.3268 121.217 99.1581 120.913 98.896 120.706Z" fill="#BFC7D2"/>
<path d="M22.7246 11.4067L23.383 11.9287C23.5576 12.0672 23.67 12.2694 23.6954 12.491C23.7208 12.7125 23.6572 12.9352 23.5186 13.1101C23.3799 13.285 23.1776 13.3977 22.9561 13.4235C22.7346 13.4492 22.512 13.3859 22.3374 13.2475L21.679 12.7255L21.1562 13.3849C21.0176 13.5598 20.8152 13.6725 20.5937 13.6983C20.3722 13.724 20.1497 13.6607 19.9751 13.5223C19.8005 13.3839 19.6881 13.1816 19.6627 12.9601C19.6372 12.7385 19.7009 12.5158 19.8395 12.3409L20.3623 11.6815L19.7039 11.1595C19.5293 11.0211 19.417 10.8189 19.3915 10.5973C19.3661 10.3758 19.4297 10.153 19.5684 9.97816C19.707 9.80328 19.9094 9.69056 20.1309 9.66479C20.3524 9.63902 20.5749 9.70232 20.7495 9.84076L21.4079 10.3628L21.9307 9.70337C22.0694 9.52849 22.2717 9.41576 22.4932 9.39C22.7147 9.36423 22.9373 9.42753 23.1119 9.56597C23.2865 9.70441 23.3989 9.90665 23.4243 10.1282C23.4497 10.3498 23.3861 10.5725 23.2474 10.7473L22.7246 11.4067Z" fill="#BFC7D2"/>
<path d="M11.7246 25.4067L12.383 25.9287C12.5576 26.0672 12.67 26.2694 12.6954 26.491C12.7208 26.7125 12.6572 26.9352 12.5186 27.1101C12.3799 27.285 12.1776 27.3977 11.9561 27.4235C11.7346 27.4492 11.512 27.3859 11.3374 27.2475L10.679 26.7255L10.1562 27.3849C10.0176 27.5598 9.81525 27.6725 9.59374 27.6983C9.37222 27.724 9.1497 27.6607 8.97509 27.5223C8.80048 27.3839 8.68809 27.1816 8.66267 26.9601C8.63725 26.7385 8.70087 26.5158 8.83952 26.3409C8.83952 26.3409 9.40029 26.008 9.36232 25.6815C9.32441 25.3556 8.70395 25.1595 8.70395 25.1595C8.52934 25.0211 8.41697 24.8189 8.39154 24.5973C8.36612 24.3758 8.42973 24.153 8.56838 23.9782C8.70704 23.8033 8.90938 23.6906 9.13089 23.6648C9.3524 23.639 9.57494 23.7023 9.74955 23.8408L10.4079 24.3628L10.9307 23.7034C11.0694 23.5285 11.2717 23.4158 11.4932 23.39C11.7147 23.3642 11.9373 23.4275 12.1119 23.566C12.2865 23.7044 12.3989 23.9066 12.4243 24.1282C12.4497 24.3498 12.3861 24.5725 12.2474 24.7473L11.7246 25.4067Z" fill="#BFC7D2"/>
<circle cx="73.5" cy="55.5" r="28.5" fill="#D8F1FD"/>
<path d="M80.9351 92.4678H46.5092C43.4508 92.4678 40.9713 89.9885 40.9713 86.9299V51.7092L55.0832 37.5322H80.9353C83.9937 37.5322 86.4732 40.0115 86.4732 43.0701V86.9299C86.473 89.9883 83.9937 92.4678 80.9351 92.4678Z" fill="#F4EFED"/>
<path d="M43.1864 86.9299V51.7092L55.083 39.7473V37.5322L40.9713 51.7092V86.9299C40.9713 89.9883 43.4508 92.4678 46.5092 92.4678H48.7243C45.6659 92.4678 43.1864 89.9883 43.1864 86.9299Z" fill="white"/>
<path d="M80.9351 37.5322H78.72C81.7783 37.5322 84.2578 40.0115 84.2578 43.0701V86.9299C84.2578 89.9883 81.7786 92.4678 78.72 92.4678H80.9351C83.9934 92.4678 86.4729 89.9885 86.4729 86.9299V43.0701C86.4729 40.0117 83.9937 37.5322 80.9351 37.5322Z" fill="#D6D1CF"/>
<path d="M80.9351 92.9209H46.5092C43.2057 92.9209 40.5182 90.2334 40.5182 86.9299V51.7092C40.5182 51.5893 40.5655 51.4744 40.6503 51.3895L54.7619 37.2126C54.8469 37.1271 54.9625 37.0791 55.083 37.0791H80.9349C84.2384 37.0791 86.9259 39.7666 86.9259 43.0701V86.9299C86.9261 90.2334 84.2386 92.9209 80.9351 92.9209ZM41.4244 51.8963V86.9299C41.4244 89.7336 43.7055 92.0146 46.5092 92.0146H80.9351C83.7388 92.0146 86.0199 89.7336 86.0199 86.9299V43.0701C86.0199 40.2664 83.7388 37.9854 80.9351 37.9854H55.2715L41.4244 51.8963Z" fill="#690589"/>
<path d="M42.7434 60.1291C42.4933 60.1291 42.2903 59.9261 42.2903 59.676V57.018C42.2903 56.7678 42.4933 56.5648 42.7434 56.5648C42.9935 56.5648 43.1965 56.7678 43.1965 57.018V59.676C43.1965 59.9261 42.9935 60.1291 42.7434 60.1291Z" fill="#690589"/>
<path d="M72.5799 84.9919L64.5868 87.1594C63.7609 87.3833 63.004 86.6263 63.2278 85.8005L65.3954 77.8076L88.734 54.4692C89.599 53.6041 91.0017 53.6041 91.8667 54.4692L95.9183 58.5208C96.7833 59.3858 96.7833 60.7884 95.9183 61.6534L72.5799 84.9919Z" fill="#FCC24C"/>
<path d="M72.5799 84.9919L65.3956 77.8076L63.2281 85.8005C63.0042 86.6263 63.7612 87.3832 64.587 87.1594L72.5799 84.9919Z" fill="#F4EFED"/>
<path d="M64.5098 87.0824L66.6773 79.0895L90.0157 55.7508C90.8808 54.8858 92.2834 54.8858 93.1484 55.7508L95.9184 58.5208L91.8668 54.4692C91.0017 53.6041 89.5991 53.6041 88.7341 54.4692L65.3956 77.8076L63.2281 85.8005C63.0129 86.5939 63.7037 87.3212 64.4905 87.1787C64.4964 87.1467 64.5009 87.1148 64.5098 87.0824Z" fill="#FCE06A"/>
<path d="M64.5098 87.0824L66.6773 79.0895L65.3956 77.8078L63.2281 85.8007C63.0129 86.5941 63.7037 87.3214 64.4905 87.1789C64.4964 87.1467 64.5009 87.1148 64.5098 87.0824Z" fill="white"/>
<path d="M95.9183 61.6534C96.7833 60.7884 96.7833 59.3858 95.9183 58.5208L94.6367 57.2391C95.5017 58.1041 95.5017 59.5068 94.6367 60.3718L71.2982 83.7102L63.3051 85.8777C63.2727 85.8866 63.2408 85.8911 63.2086 85.897C63.0661 86.6838 63.7934 87.3744 64.5868 87.1594L72.5799 84.9919L95.9183 61.6534Z" fill="#DEA42E"/>
<path d="M68.9877 81.8528C68.8717 81.8528 68.7557 81.8087 68.6674 81.7201C68.4904 81.5431 68.4904 81.2563 68.6674 81.0794L88.7277 61.0191C88.9044 60.8421 89.1917 60.8421 89.3684 61.0191C89.5453 61.196 89.5453 61.4828 89.3684 61.6598L69.3081 81.7201C69.2197 81.8087 69.1037 81.8528 68.9877 81.8528Z" fill="#690589"/>
<path d="M64.2895 87.6526C63.8833 87.6526 63.4923 87.4929 63.1934 87.1941C62.7929 86.7937 62.6424 86.2285 62.7906 85.682L64.9581 77.6891C64.9787 77.6127 65.0191 77.5432 65.075 77.4872L88.4137 54.1488C88.9175 53.6447 89.5877 53.3671 90.3003 53.3671C91.013 53.3671 91.6832 53.6447 92.1871 54.1488L96.2385 58.2004C96.7426 58.7043 97.0201 59.3744 97.0201 60.0872C97.0201 60.8 96.7426 61.4699 96.2385 61.9738L72.9003 85.3122C72.8443 85.3682 72.7747 85.4085 72.6984 85.4291L64.7053 87.5967C64.5671 87.6343 64.4275 87.6526 64.2895 87.6526ZM65.8014 78.0427L63.6653 85.9192C63.6033 86.1485 63.6662 86.3855 63.8344 86.5533C64.002 86.721 64.2388 86.7842 64.4683 86.7224L72.345 84.5863L95.598 61.3333C95.9308 61.0005 96.1141 60.558 96.1141 60.0874C96.1141 59.6169 95.9308 59.1744 95.598 58.8413L91.5464 54.7897C91.2135 54.4569 90.7711 54.2736 90.3003 54.2736C89.8297 54.2736 89.3872 54.4569 89.0544 54.7897L65.8014 78.0427ZM72.5799 84.9919H72.5822H72.5799Z" fill="#690589"/>
<path d="M85.4562 57.7473L92.6405 64.9316L95.9184 61.6537C96.7834 60.7886 96.7834 59.386 95.9184 58.521L91.8668 54.4694C91.0017 53.6043 89.5991 53.6043 88.7341 54.4694L85.4562 57.7473Z" fill="#FF4397"/>
<path d="M93.1484 55.7508L95.9184 58.5208L91.8668 54.4692C91.0017 53.6041 89.5991 53.6041 88.7341 54.4692L85.4562 57.7471L86.7378 59.0287L90.0157 55.7508C90.8808 54.8858 92.2834 54.8858 93.1484 55.7508Z" fill="#FF61B5"/>
<path d="M95.9183 58.5208L94.6367 57.2391C95.5017 58.1041 95.5017 59.5068 94.6367 60.3718L91.3588 63.6497L92.6404 64.9314L95.9183 61.6534C96.7834 60.7884 96.7834 59.3858 95.9183 58.5208Z" fill="#E12579"/>
<path d="M92.6404 65.3845C92.5244 65.3845 92.4084 65.3403 92.3201 65.2517L85.1358 58.0676C84.9588 57.8907 84.9588 57.6039 85.1358 57.4269L88.4137 54.149C88.9175 53.6449 89.5877 53.3674 90.3003 53.3674C91.013 53.3674 91.6832 53.6449 92.1871 54.149L96.2387 58.2006C96.7428 58.7045 97.0203 59.3747 97.0203 60.0874C97.0203 60.8002 96.7428 61.4702 96.2387 61.974L92.9608 65.2519C92.8724 65.3403 92.7562 65.3845 92.6404 65.3845ZM86.0971 57.7473L92.6404 64.2906L95.598 61.3331C95.9308 61.0003 96.1141 60.5578 96.1141 60.0872C96.1141 59.6166 95.9308 59.1742 95.598 58.8411L91.5463 54.7895C91.2135 54.4567 90.771 54.2734 90.3003 54.2734C89.8297 54.2734 89.3872 54.4567 89.0544 54.7895L86.0971 57.7473Z" fill="#690589"/>
<path d="M65.3956 77.8076L71.2982 83.7102L63.3051 85.8777C63.2727 85.8866 63.2408 85.8911 63.2086 85.897C63.0661 86.6838 63.7934 87.3744 64.5868 87.1594L72.5799 84.9919L65.3956 77.8076Z" fill="#D6D1CF"/>
<path d="M64.2897 87.6526C63.8833 87.6526 63.4925 87.4929 63.1934 87.1941C62.7931 86.7937 62.6424 86.2284 62.7908 85.682L64.9583 77.6891C65.0007 77.5332 65.1228 77.4113 65.2791 77.3699C65.4348 77.3284 65.6018 77.373 65.7162 77.4874L72.9005 84.6717C73.0147 84.7859 73.0595 84.9524 73.0181 85.1088C72.9766 85.2651 72.8547 85.3872 72.6988 85.4296L64.7059 87.5971C64.5673 87.6343 64.4275 87.6526 64.2897 87.6526ZM65.6283 78.681L63.6653 85.9192C63.6033 86.1485 63.6662 86.3855 63.8344 86.5533C64.0022 86.7212 64.2388 86.7842 64.4685 86.7224L71.7067 84.7594L65.6283 78.681Z" fill="#690589"/>
<path d="M64.2897 87.6526C63.8833 87.6526 63.4925 87.4929 63.1934 87.1941C62.7931 86.7937 62.6424 86.2284 62.7908 85.682L63.8357 81.8288C63.8781 81.673 64.0002 81.5511 64.1565 81.5096C64.3124 81.4677 64.4792 81.5128 64.5936 81.6272L68.7607 85.7944C68.8749 85.9085 68.9198 86.0751 68.8783 86.2314C68.8369 86.3877 68.715 86.5098 68.5591 86.5522L64.7059 87.5971C64.5673 87.6343 64.4275 87.6526 64.2897 87.6526ZM64.5057 82.8207L63.6653 85.9192C63.6033 86.1485 63.6662 86.3855 63.8344 86.5533C64.0022 86.7212 64.2388 86.7842 64.4685 86.7224L67.567 85.882L64.5057 82.8207Z" fill="#690589"/>
<path d="M64.273 81.9473L63.2281 85.8007C63.0042 86.6265 63.7612 87.3835 64.587 87.1596L68.4404 86.1147L64.273 81.9473Z" fill="#690589"/>
<path d="M40.9062 51.7092H49.5453C52.6037 51.7092 55.0832 49.2299 55.0832 46.1713V37.5322L40.9062 51.7092Z" fill="#8852A8"/>
<path d="M55.0832 37.5322L40.9062 51.7092H43.1214L55.0832 39.7476V37.5322Z" fill="#A670C6"/>
<path d="M49.5453 52.1623H40.9063C40.723 52.1623 40.5578 52.052 40.4876 51.8825C40.4173 51.7132 40.4561 51.5184 40.5859 51.3888L54.7628 37.2119C54.8922 37.0821 55.0875 37.0433 55.2565 37.1136C55.426 37.1838 55.5363 37.349 55.5363 37.5322V46.1713C55.5363 49.4748 52.8486 52.1623 49.5453 52.1623ZM42.0003 51.256H49.5453C52.349 51.256 54.6301 48.975 54.6301 46.1713V38.6263L42.0003 51.256Z" fill="#690589"/>
<path d="M77.7884 59.2507H49.6561C49.406 59.2507 49.203 59.0477 49.203 58.7976C49.203 58.5475 49.406 58.3445 49.6561 58.3445H77.7884C78.0385 58.3445 78.2415 58.5475 78.2415 58.7976C78.2415 59.0477 78.0385 59.2507 77.7884 59.2507Z" fill="#690589"/>
<path d="M71.2536 68.5543H49.7667C49.5165 68.5543 49.3135 68.3513 49.3135 68.1012C49.3135 67.8511 49.5165 67.6481 49.7667 67.6481H71.2534C71.5035 67.6481 71.7065 67.8511 71.7065 68.1012C71.7065 68.3513 71.5037 68.5543 71.2536 68.5543Z" fill="#690589"/>
<path d="M63.2791 77.8579H49.8774C49.6273 77.8579 49.4243 77.6549 49.4243 77.4047C49.4243 77.1546 49.6273 76.9516 49.8774 76.9516H63.2791C63.5292 76.9516 63.7322 77.1546 63.7322 77.4047C63.7322 77.6549 63.5294 77.8579 63.2791 77.8579Z" fill="#690589"/>
<path d="M60.621 87.1614H49.9885C49.7383 87.1614 49.5353 86.9584 49.5353 86.7083C49.5353 86.4582 49.7383 86.2552 49.9885 86.2552H60.621C60.8712 86.2552 61.0742 86.4582 61.0742 86.7083C61.0742 86.9584 60.8712 87.1614 60.621 87.1614Z" fill="#690589"/>
</svg>
