<svg width="130" height="130" viewBox="0 0 130 130" fill="none" xmlns="http://www.w3.org/2000/svg">
<circle cx="66.4211" cy="66.5789" r="58.4211" fill="#C2EAFC"/>
<circle cx="113.947" cy="11.3158" r="6.31579" fill="#F0D0B4"/>
<circle cx="11.3158" cy="91.8422" r="6.31579" fill="#AAE5FF"/>
<circle r="3.15789" transform="matrix(1 0 0 -1 14.4737 69.7369)" fill="white"/>
<circle r="2.36842" transform="matrix(1 0 0 -1 108.421 40.5263)" fill="white"/>
<circle cx="120.263" cy="101.316" r="3.15789" fill="#76FD8C"/>
<circle cx="104.474" cy="8.1579" r="1.57895" fill="#76FD8C"/>
<circle cx="119.474" cy="26.3158" r="2.36842" fill="#1BB934"/>
<path fill-rule="evenodd" clip-rule="evenodd" d="M98.896 120.706C98.7663 120.603 98.6175 120.527 98.4582 120.481C98.2989 120.436 98.1322 120.423 97.9677 120.442C97.8031 120.461 97.6439 120.513 97.4991 120.593C97.3543 120.674 97.2268 120.782 97.1238 120.912C97.0208 121.042 96.9444 121.191 96.8989 121.351C96.8534 121.51 96.8398 121.677 96.8587 121.841C96.8777 122.006 96.9288 122.165 97.0093 122.31C97.0898 122.455 97.198 122.582 97.3278 122.685C97.5899 122.893 97.9238 122.987 98.2562 122.949C98.5885 122.91 98.8921 122.741 99.1001 122.478C99.308 122.216 99.4034 121.882 99.3651 121.549C99.3268 121.217 99.1581 120.913 98.896 120.706Z" fill="#BFC7D2"/>
<path d="M22.7246 11.4067L23.383 11.9287C23.5576 12.0672 23.67 12.2694 23.6954 12.491C23.7208 12.7125 23.6572 12.9352 23.5186 13.1101C23.3799 13.285 23.1776 13.3977 22.9561 13.4235C22.7346 13.4492 22.512 13.3859 22.3374 13.2475L21.679 12.7255L21.1562 13.3849C21.0176 13.5598 20.8152 13.6725 20.5937 13.6983C20.3722 13.724 20.1497 13.6607 19.9751 13.5223C19.8005 13.3839 19.6881 13.1816 19.6627 12.9601C19.6372 12.7385 19.7009 12.5158 19.8395 12.3409L20.3623 11.6815L19.7039 11.1595C19.5293 11.0211 19.417 10.8189 19.3915 10.5973C19.3661 10.3758 19.4297 10.153 19.5684 9.97816C19.707 9.80328 19.9094 9.69056 20.1309 9.66479C20.3524 9.63902 20.5749 9.70232 20.7495 9.84076L21.4079 10.3628L21.9307 9.70337C22.0694 9.52849 22.2717 9.41576 22.4932 9.39C22.7147 9.36423 22.9373 9.42753 23.1119 9.56597C23.2865 9.70441 23.3989 9.90665 23.4243 10.1282C23.4497 10.3498 23.3861 10.5725 23.2474 10.7473L22.7246 11.4067Z" fill="#BFC7D2"/>
<path d="M11.7246 25.4067L12.383 25.9287C12.5576 26.0672 12.67 26.2694 12.6954 26.491C12.7208 26.7125 12.6572 26.9352 12.5186 27.1101C12.3799 27.285 12.1776 27.3977 11.9561 27.4235C11.7346 27.4492 11.512 27.3859 11.3374 27.2475L10.679 26.7255L10.1562 27.3849C10.0176 27.5598 9.81525 27.6725 9.59374 27.6983C9.37222 27.724 9.1497 27.6607 8.97509 27.5223C8.80048 27.3839 8.68809 27.1816 8.66267 26.9601C8.63725 26.7385 8.70087 26.5158 8.83952 26.3409C8.83952 26.3409 9.40029 26.008 9.36232 25.6815C9.32441 25.3556 8.70395 25.1595 8.70395 25.1595C8.52934 25.0211 8.41697 24.8189 8.39154 24.5973C8.36612 24.3758 8.42973 24.153 8.56838 23.9782C8.70704 23.8033 8.90938 23.6906 9.13089 23.6648C9.3524 23.639 9.57494 23.7023 9.74955 23.8408L10.4079 24.3628L10.9307 23.7034C11.0694 23.5285 11.2717 23.4158 11.4932 23.39C11.7147 23.3642 11.9373 23.4275 12.1119 23.566C12.2865 23.7044 12.3989 23.9066 12.4243 24.1282C12.4497 24.3498 12.3861 24.5725 12.2474 24.7473L11.7246 25.4067Z" fill="#BFC7D2"/>
<circle cx="73.5" cy="55.5" r="28.5" fill="#D8F1FD"/>
<path d="M45.8984 63.8477H40.6719V78.0625H37.1562V63.8477H32V61H45.8984V63.8477Z" fill="black"/>
<path d="M54.2305 71.8164H51.4297V78.0625H47.9141V61H54.2539C56.2695 61 57.8242 61.4492 58.918 62.3477C60.0117 63.2461 60.5586 64.5156 60.5586 66.1562C60.5586 67.3203 60.3047 68.293 59.7969 69.0742C59.2969 69.8477 58.5352 70.4648 57.5117 70.9258L61.2031 77.8984V78.0625H57.4297L54.2305 71.8164ZM51.4297 68.9688H54.2656C55.1484 68.9688 55.832 68.7461 56.3164 68.3008C56.8008 67.8477 57.043 67.2266 57.043 66.4375C57.043 65.6328 56.8125 65 56.3516 64.5391C55.8984 64.0781 55.1992 63.8477 54.2539 63.8477H51.4297V68.9688Z" fill="black"/>
<path d="M66.9805 78.0625H63.4648V61H66.9805V78.0625Z" fill="black"/>
<path d="M80.0938 74.5469H73.9297L72.7578 78.0625H69.0195L75.3711 61H78.6289L85.0156 78.0625H81.2773L80.0938 74.5469ZM74.8789 71.6992H79.1445L77 65.3125L74.8789 71.6992Z" fill="black"/>
<path d="M90.125 75.2383H97.5898V78.0625H86.6094V61H90.125V75.2383Z" fill="black"/>
</svg>
