<svg width="130" height="130" viewBox="0 0 130 130" fill="none" xmlns="http://www.w3.org/2000/svg">
<path d="M66.5788 125C98.8439 125 125 98.844 125 66.5789C125 34.3138 98.8439 8.15778 66.5788 8.15778C34.3137 8.15778 8.15771 34.3138 8.15771 66.5789C8.15771 98.844 34.3137 125 66.5788 125Z" fill="#CEECD3"/>
<path d="M116.931 12.6316C120.419 12.6316 123.247 9.8039 123.247 6.31579C123.247 2.82768 120.419 0 116.931 0C113.443 0 110.615 2.82768 110.615 6.31579C110.615 9.8039 113.443 12.6316 116.931 12.6316Z" fill="#76FD8C"/>
<path d="M11.3158 98.1579C14.8039 98.1579 17.6316 95.3302 17.6316 91.8421C17.6316 88.354 14.8039 85.5263 11.3158 85.5263C7.82768 85.5263 5 88.354 5 91.8421C5 95.3302 7.82768 98.1579 11.3158 98.1579Z" fill="#76FD8C"/>
<path d="M14.4738 66.579C16.2179 66.579 17.6317 67.9928 17.6317 69.7369C17.6317 71.4809 16.2179 72.8948 14.4738 72.8948C12.7298 72.8948 11.3159 71.4809 11.3159 69.7369C11.3159 67.9928 12.7298 66.579 14.4738 66.579Z" fill="white"/>
<path d="M108.421 38.1579C109.729 38.1579 110.789 39.2183 110.789 40.5263C110.789 41.8343 109.729 42.8947 108.421 42.8947C107.113 42.8947 106.052 41.8343 106.052 40.5263C106.052 39.2183 107.113 38.1579 108.421 38.1579Z" fill="white"/>
<path d="M120.263 104.474C122.007 104.474 123.421 103.06 123.421 101.316C123.421 99.5719 122.007 98.1581 120.263 98.1581C118.519 98.1581 117.105 99.5719 117.105 101.316C117.105 103.06 118.519 104.474 120.263 104.474Z" fill="#76FD8C"/>
<path d="M107.458 4.73688C108.33 4.73688 109.037 4.02996 109.037 3.15793C109.037 2.2859 108.33 1.57898 107.458 1.57898C106.586 1.57898 105.879 2.2859 105.879 3.15793C105.879 4.02996 106.586 4.73688 107.458 4.73688Z" fill="#76FD8C"/>
<path d="M122.458 23.6842C123.766 23.6842 124.826 22.6238 124.826 21.3158C124.826 20.0078 123.766 18.9474 122.458 18.9474C121.15 18.9474 120.089 20.0078 120.089 21.3158C120.089 22.6238 121.15 23.6842 122.458 23.6842Z" fill="#88AE45"/>
<path d="M80.5 87C96.2401 87 109 74.2401 109 58.5C109 42.7599 96.2401 30 80.5 30C64.7599 30 52 42.7599 52 58.5C52 74.2401 64.7599 87 80.5 87Z" fill="#DFF3E3"/>
<path d="M108.409 96.9238V80.993H104.184V69.2398H100.118V74.4728H96.7501V72.7857V62.4157H91.2421V73.4414L89.5925 73.5093V62.3918H87.6695V57.6545H86.517V54.4723H82.0093V57.6545H80.8567V62.3918H78.9337V68.4163L78.0452 68.4882L77.7781 50.6465H71.8444V60.1371L69.7568 60.205V45.3736H69.0423V42.2434H62.7794V45.3736H62.0648V65.362H60.7445V59.1296H59.6479V56.0834H58.0542V47.1845H55.746V56.0834H54.1523V59.1296H53.0526V69.6755H52.2852L51.6794 69.6635V57.4466L35.4163 57.6465V85.1586H34.0432V81.5527H29.0975V88.4847H27.6684V85.9381H24.537V90.3236V91.0991H21.4055V96.9238H108.409Z" fill="#E6EBF7"/>
<path d="M40.4131 96.755C41.2518 96.0366 41.7614 95.2742 41.629 94.5118C41.3963 93.1594 39.4741 94.0262 39.4019 93.0511C39.2734 91.3496 46.609 91.7469 46.3683 89.5679C46.1315 87.4371 40.7382 90.9242 40.5134 89.3833C40.373 88.4323 48.5272 88.5125 48.6917 86.3496C48.8563 84.1866 42.7928 86.2773 41.5969 85.6433C40.4011 85.0093 53.0899 81.1569 51.8218 78.3278C50.7865 76.0204 42.3273 81.4177 40.9348 80.876C39.5423 80.3343 46.3 75.7676 48.3908 71.5862C50.5497 67.2643 48.784 65.0894 45.365 68.5244C41.946 71.9594 36.3159 78.5245 36.0872 76.5461C35.8545 74.5718 39.6988 67.2643 36.5768 67.8101C31.0831 68.7732 30.6297 77.8623 28.9282 84.9651C28.7476 85.7155 26.9097 76.8591 24.6825 79.5317C23.5348 80.9041 25.6617 91.0165 26.9859 96.7509H40.4131V96.755Z" fill="#96D9C9"/>
<path d="M66.7619 56.281C68.3687 56.281 69.6712 54.9785 69.6712 53.3717C69.6712 51.7649 68.3687 50.4623 66.7619 50.4623C65.1551 50.4623 63.8525 51.7649 63.8525 53.3717C63.8525 54.9785 65.1551 56.281 66.7619 56.281Z" fill="white"/>
<path d="M54.6752 31.963C54.6712 31.963 54.6712 31.963 54.6672 31.959C54.5909 31.9309 54.5147 31.9068 54.4344 31.8827C54.4063 31.8747 54.3822 31.8667 54.3541 31.8587C54.3261 31.8506 54.298 31.8426 54.2699 31.8386C54.2418 31.8306 54.2137 31.8266 54.1816 31.8185C54.1535 31.8145 54.1254 31.8065 54.0973 31.8025C54.0652 31.7985 54.0331 31.7904 54.005 31.7864C53.9769 31.7824 53.9529 31.7784 53.9248 31.7744C53.8927 31.7704 53.8565 31.7664 53.8204 31.7624C53.7964 31.7583 53.7723 31.7583 53.7442 31.7543C53.7041 31.7503 53.6639 31.7463 53.6278 31.7463C53.6077 31.7463 53.5877 31.7423 53.5636 31.7423C53.5034 31.7383 53.4432 31.7383 53.379 31.7383H25.2405C25.1763 31.7383 25.1081 31.7383 25.0439 31.7423C24.9155 31.7503 24.7871 31.7624 24.6627 31.7824C24.5985 31.7904 24.5383 31.8025 24.4741 31.8145C22.8689 32.1436 21.6329 33.4919 21.4644 35.1573C21.4524 35.2857 21.4443 35.4141 21.4443 35.5465V82.5373V93.2597C21.4443 94.909 22.4877 96.3095 23.9484 96.8392C23.9564 96.8432 23.9604 96.8432 23.9685 96.8472C24.0407 96.8713 24.1129 96.8954 24.1892 96.9194C24.2173 96.9275 24.2413 96.9355 24.2694 96.9435C24.2975 96.9515 24.3256 96.9596 24.3537 96.9636C24.3818 96.9716 24.4099 96.9756 24.442 96.9836C24.4701 96.9876 24.4982 96.9957 24.5262 96.9997C24.5583 97.0037 24.5905 97.0117 24.6185 97.0157C24.6466 97.0197 24.6707 97.0238 24.6988 97.0278C24.7309 97.0318 24.767 97.0358 24.8031 97.0398C24.8272 97.0438 24.8513 97.0438 24.8794 97.0478C24.9195 97.0519 24.9596 97.0559 24.9958 97.0559C25.0158 97.0559 25.0359 97.0599 25.06 97.0599C25.1202 97.0639 25.1803 97.0639 25.2446 97.0639H53.387C53.5195 97.0639 53.6479 97.0559 53.7763 97.0438C55.562 96.8632 56.9826 95.4387 57.1632 93.6449C57.1752 93.5165 57.1832 93.3881 57.1832 93.2557V46.2649V35.5465C57.1792 33.8972 56.1359 32.4967 54.6752 31.963Z" fill="#E25A44"/>
<path d="M55.4498 36.9269H23.2864V91.8752H55.4498V36.9269Z" fill="#EAFCFC"/>
<path d="M55.4498 60.0731L46.1679 59.3107L45.9031 53.8692L43.6238 53.7729V50.065L55.4498 55.1453V54.106L51.5252 52.4246L50.7828 36.9349H49.8237L50.546 52.0073L43.6197 49.0377V48.9334H43.375L41.7979 48.2592L41.7899 36.9389H40.8348L40.8428 47.8459L31.244 43.7207V36.9269H29.3298V42.898L23.2864 40.3057V41.3451L29.3298 43.9374V49.9888L23.2864 47.1677V48.2231L29.3298 51.0442V54.6197L23.8723 61.5459L23.2864 61.5579V62.513L28.0898 62.4167V68.9376L33.1059 71.7225L27.845 74.038L23.2864 70.7875V71.9633L27.5922 75.0332L27.5962 75.0291L26.5569 91.8752H28.4751L29.1211 81.4056L37.2071 84.3631L36.2802 91.8752H37.2432L38.1261 84.7002L46.0195 87.5854L44.639 91.8752H45.6423L46.9184 87.9145L55.4498 91.0325V90.0132L47.2153 87.0036L49.5468 79.7643L46.5612 78.107C47.5965 76.851 49.8357 74.1383 52.0709 71.4095C53.4955 69.6719 54.595 68.3196 55.4498 67.2642V65.7393C54.3904 67.0556 53.026 68.7329 51.5573 70.5267L46.5572 67.3284L46.2161 60.2778L55.4498 61.0322V60.0731ZM44.0772 55.7112L44.6029 66.5299L38.8364 61.5258V55.4945L44.0772 55.7112ZM31.244 44.76L42.6647 49.6597V53.7368L31.244 53.2633V44.76V44.76ZM25.1122 61.5258L30.1484 55.1333L37.8813 55.4543V61.273L25.1122 61.5258ZM29.0489 68.3758V62.4046L38.1863 62.2241L43.7442 67.0515L34.2095 71.241L29.0489 68.3758ZM48.3911 80.2178L46.3124 86.6745L29.1773 80.4104L29.4863 75.4063L35.2047 72.8903L48.3911 80.2178ZM50.9473 71.2691C49.1897 73.4119 47.3357 75.6672 45.7105 77.6335L36.3082 72.4087L46.0395 68.131L50.9473 71.2691Z" fill="white"/>
<path d="M46.513 87.6015L27.7446 80.896L28.0737 74.7804L44.5346 67.505L38.0257 61.9231V54.8685L29.9477 54.6277V48.1991H30.6299V53.9616L38.7079 54.2064V61.6101L45.8027 67.6896L28.7358 75.2378L28.4549 80.4225L46.7417 86.9595L46.513 87.6015Z" fill="#C0DDE3"/>
<path d="M28.5191 45.9199L30.2687 49.395L32.1066 45.964C32.6524 44.704 31.7776 43.2714 30.4092 43.2112C30.3891 43.2112 30.3691 43.2112 30.349 43.2112C30.3289 43.2112 30.3089 43.2112 30.2888 43.2112C28.9164 43.2353 28.0095 44.6478 28.5191 45.9199ZM29.414 45.1976C29.422 44.6959 29.8313 44.2947 30.3329 44.3027C30.8346 44.3107 31.2358 44.72 31.2278 45.2216C31.2198 45.7232 30.8105 46.1245 30.3089 46.1165C29.8073 46.1085 29.41 45.6992 29.414 45.1976Z" fill="#183658"/>
<path d="M44.8116 84.1265L46.5612 87.6016L48.3991 84.1706C48.9449 82.9106 48.0701 81.478 46.7017 81.4178C46.6816 81.4178 46.6615 81.4178 46.6415 81.4178C46.6214 81.4178 46.6013 81.4178 46.5813 81.4178C45.2089 81.4419 44.302 82.8544 44.8116 84.1265ZM45.7105 83.4042C45.7185 82.9025 46.1278 82.5013 46.6294 82.5093C47.131 82.5173 47.5323 82.9266 47.5243 83.4282C47.5163 83.9298 47.107 84.3311 46.6054 84.3231C46.1037 84.3191 45.7025 83.9058 45.7105 83.4042Z" fill="#184655"/>
<path d="M46.1637 35.2014H32.5159C32.4958 35.2014 32.4797 35.1854 32.4797 35.1653V34.5473C32.4797 34.5273 32.4958 34.5112 32.5159 34.5112H46.1637C46.1838 34.5112 46.1998 34.5273 46.1998 34.5473V35.1653C46.1958 35.1854 46.1798 35.2014 46.1637 35.2014Z" fill="white"/>
<path opacity="0.3" d="M39.2938 96.1048C40.1625 96.1048 40.8668 95.3969 40.8668 94.5237C40.8668 93.6505 40.1625 92.9426 39.2938 92.9426C38.425 92.9426 37.7207 93.6505 37.7207 94.5237C37.7207 95.3969 38.425 96.1048 39.2938 96.1048Z" fill="#DAEEF7"/>
<path opacity="0.2" d="M55.3414 89.5718H23.2864V91.8792H55.3414V89.5718Z" fill="#3CB4C5"/>
<path opacity="0.2" d="M55.4498 36.9269H23.2864V39.8442H55.4498V36.9269Z" fill="#3CB4C5"/>
<path d="M99.4552 61.8589H87.573C87.1636 61.8589 86.8306 62.192 86.8306 62.6053V67.5251C86.8306 67.9384 87.1636 68.2715 87.573 68.2715H96.927C97.3042 68.8012 97.9904 69.7522 98.0506 69.7522C98.1068 69.7522 97.9985 68.8573 97.9222 68.2715H99.4552C99.8645 68.2715 100.198 67.9384 100.198 67.5251V62.6013C100.198 62.192 99.8645 61.8589 99.4552 61.8589Z" fill="#F7CC7F"/>
<path d="M91.8828 63.9335H88.4598C88.4036 63.9335 88.3555 63.8854 88.3555 63.8292V63.7168C88.3555 63.6606 88.4036 63.6125 88.4598 63.6125H91.8828C91.939 63.6125 91.9871 63.6606 91.9871 63.7168V63.8292C91.9871 63.8854 91.939 63.9335 91.8828 63.9335Z" fill="white"/>
<path d="M90.703 65.3501H88.4598C88.4036 65.3501 88.3555 65.302 88.3555 65.2458V65.1335C88.3555 65.0773 88.4036 65.0291 88.4598 65.0291H90.703C90.7592 65.0291 90.8074 65.0773 90.8074 65.1335V65.2458C90.8074 65.302 90.7632 65.3501 90.703 65.3501Z" fill="white"/>
<path d="M94.0178 65.3501H91.5699C91.5137 65.3501 91.4656 65.302 91.4656 65.2458V65.1335C91.4656 65.0773 91.5137 65.0291 91.5699 65.0291H94.0178C94.074 65.0291 94.1221 65.0773 94.1221 65.1335V65.2458C94.1261 65.302 94.078 65.3501 94.0178 65.3501Z" fill="white"/>
<path d="M98.6204 65.3501H94.9928C94.9366 65.3501 94.8884 65.302 94.8884 65.2458V65.1335C94.8884 65.0773 94.9366 65.0291 94.9928 65.0291H98.6204C98.6766 65.0291 98.7248 65.0773 98.7248 65.1335V65.2458C98.7248 65.302 98.6806 65.3501 98.6204 65.3501Z" fill="white"/>
<path d="M98.6206 63.9335H92.8741C92.8179 63.9335 92.7698 63.8854 92.7698 63.8292V63.7168C92.7698 63.6606 92.8179 63.6125 92.8741 63.6125H98.6206C98.6768 63.6125 98.7249 63.6606 98.7249 63.7168V63.8292C98.7249 63.8854 98.6808 63.9335 98.6206 63.9335Z" fill="white"/>
<path d="M93.1148 66.7948H88.4598C88.4036 66.7948 88.3555 66.7467 88.3555 66.6905V66.5781C88.3555 66.522 88.4036 66.4738 88.4598 66.4738H93.1148C93.171 66.4738 93.2191 66.522 93.2191 66.5781V66.6905C93.2191 66.7467 93.175 66.7948 93.1148 66.7948Z" fill="white"/>
<path d="M98.6204 66.7948H93.9654C93.9092 66.7948 93.8611 66.7467 93.8611 66.6905V66.5781C93.8611 66.522 93.9092 66.4738 93.9654 66.4738H98.6204C98.6766 66.4738 98.7247 66.522 98.7247 66.5781V66.6905C98.7247 66.7467 98.6806 66.7948 98.6204 66.7948Z" fill="white"/>
<path d="M37.6484 89.2909C37.6484 89.2909 52.8373 91.811 53.0179 91.7027C53.1984 91.5943 55.1688 83.1071 55.1688 83.1071C55.1688 83.1071 42.6084 80.8478 42.4077 80.8478C42.2031 80.8478 39.4743 83.0349 39.4382 83.1793C39.3981 83.3278 37.6484 89.2909 37.6484 89.2909Z" fill="#183658"/>
<path d="M83.9814 91.4498C84.3465 91.4859 102.738 91.0926 102.738 91.0926L101.353 86.863C101.353 86.863 98.805 83.0067 97.4567 83.0789C96.1084 83.1471 88.0946 81.851 86.7101 82.81C85.3257 83.7691 84.0897 83.0026 83.4316 85.298C82.7775 87.5934 82.2638 87.8502 82.7735 89.2306C83.2871 90.6111 83.9814 91.4498 83.9814 91.4498Z" fill="#183658"/>
<path d="M45.3212 97.0679C48.7785 97.0679 51.5813 94.2633 51.5813 90.8038C51.5813 87.3442 48.7785 84.5397 45.3212 84.5397C41.8638 84.5397 39.061 87.3442 39.061 90.8038C39.061 94.2633 41.8638 97.0679 45.3212 97.0679Z" fill="#1A1A1A"/>
<path d="M45.321 95.1618C47.7257 95.1618 49.675 93.2107 49.675 90.8038C49.675 88.397 47.7257 86.4459 45.321 86.4459C42.9164 86.4459 40.967 88.397 40.967 90.8038C40.967 93.2107 42.9164 95.1618 45.321 95.1618Z" fill="#9E9DA2"/>
<path d="M45.3211 93.7173C46.9301 93.7173 48.2344 92.413 48.2344 90.804C48.2344 89.195 46.9301 87.8906 45.3211 87.8906C43.7121 87.8906 42.4077 89.195 42.4077 90.804C42.4077 92.413 43.7121 93.7173 45.3211 93.7173Z" fill="#D8D9DD"/>
<path d="M93.5201 97.0679C96.9775 97.0679 99.7803 94.2633 99.7803 90.8038C99.7803 87.3442 96.9775 84.5397 93.5201 84.5397C90.0628 84.5397 87.26 87.3442 87.26 90.8038C87.26 94.2633 90.0628 97.0679 93.5201 97.0679Z" fill="#1A1A1A"/>
<path d="M93.52 95.1618C95.9247 95.1618 97.874 93.2107 97.874 90.8038C97.874 88.397 95.9247 86.4459 93.52 86.4459C91.1154 86.4459 89.166 88.397 89.166 90.8038C89.166 93.2107 91.1154 95.1618 93.52 95.1618Z" fill="#9E9DA2"/>
<path d="M93.5201 93.7173C95.1291 93.7173 96.4334 92.413 96.4334 90.804C96.4334 89.195 95.1291 87.8906 93.5201 87.8906C91.911 87.8906 90.6067 89.195 90.6067 90.804C90.6067 92.413 91.911 93.7173 93.5201 93.7173Z" fill="#D8D9DD"/>
<path d="M107.894 84.8447C107.365 81.3535 105.655 80.6232 100.595 79.6079C95.0089 78.4923 87.9181 74.8487 87.9181 74.8487C87.9181 74.8487 75.8273 68.9257 72.8617 68.2435C69.8962 67.5613 62.6168 67.7579 56.4971 67.8061C50.3774 67.8542 46.7859 69.5557 43.6759 71.9835C40.5659 74.4113 35.1766 76.2572 35.1766 76.2572L34.1974 76.4337C33.1902 76.6143 32.4558 77.4891 32.4558 78.5124V87.1722C32.4558 88.1513 33.1179 89.0101 34.065 89.2589L37.6044 90.1939C37.8933 90.242 38.1622 90.0374 38.1943 89.7485C38.5835 86.2051 41.6454 83.5125 45.2971 83.5165C49.1816 83.5205 52.3638 86.7107 52.3638 90.5952C52.3638 91.0366 52.3237 91.47 52.2434 91.8873C52.1632 92.3207 52.4962 92.718 52.9337 92.718H85.5064C86.1404 92.718 86.63 92.1602 86.5457 91.5342C86.5056 91.2332 86.4855 90.9242 86.4815 90.6112C86.4695 86.7749 89.5714 83.5967 93.4078 83.5165C97.3846 83.4362 100.631 86.6345 100.631 90.5912C100.631 90.852 100.615 91.1128 100.591 91.3657C100.511 92.088 101.068 92.718 101.795 92.718H106.478C107.329 92.718 108.019 92.0278 108.019 91.177V86.6425C108.023 86.0406 107.983 85.4386 107.894 84.8447Z" fill="#F7CC7F"/>
<path d="M32.6645 79.5356H36.5209C36.8499 79.5356 37.0746 79.8727 36.9462 80.1777L36.5128 81.213C36.0995 82.2002 35.1364 82.8382 34.065 82.8382H32.6604C32.3835 82.8382 32.1628 82.6135 32.1628 82.3406V80.0332C32.1669 79.7564 32.3876 79.5356 32.6645 79.5356Z" fill="#CF283C"/>
<path d="M101.758 81.1367C103.881 81.4617 106.329 83.4721 106.329 83.4721C106.915 84.1022 106.43 85.1214 105.575 85.0653L101.433 84.8044C100.575 84.7482 99.8403 84.1624 99.5995 83.3317C99.1942 81.9473 99.5353 80.7956 101.758 81.1367Z" fill="#F3FCFF"/>
<path d="M32.4798 87.4931C32.215 87.4851 32.0264 87.7539 32.1227 87.9987C32.3996 88.697 32.9935 89.2467 33.7519 89.4474L37.7167 90.4947C38.0377 90.5509 38.3387 90.3222 38.3748 89.9931C38.447 89.323 38.6075 88.6769 38.8443 88.071C38.9246 87.8663 38.7721 87.6456 38.5554 87.6376L32.4798 87.4931Z" fill="#EAB054"/>
<path d="M100.667 89.1263C100.366 89.1183 100.133 89.3832 100.173 89.6801C100.218 90.0132 100.238 90.3503 100.238 90.6954C100.238 90.9843 100.222 91.2732 100.19 91.5541C100.101 92.3527 100.719 93.0549 101.526 93.0549H106.723C107.666 93.0549 108.432 92.2885 108.432 91.3455V90.0011C108.432 89.6199 108.127 89.3069 107.746 89.2989L100.667 89.1263Z" fill="#EAB054"/>
<path opacity="0.5" d="M87.926 76.855C87.8578 76.8189 80.9717 73.0387 76.405 70.924C71.8865 68.8292 66.8382 69.054 66.6216 69.062C66.0437 69.0499 53.9689 68.7851 50.2569 69.9448C46.5169 71.1085 41.6493 76.4176 41.4446 76.6423L41.3884 76.7065L42.6966 82.8502L42.8371 82.8422C46.6453 82.6255 49.5587 83.6408 51.2682 85.7716C52.5563 87.3848 52.7169 89.0862 52.7169 89.1023L52.7289 89.2467L66.461 89.5999L66.6216 89.6039L66.7901 89.6079L85.9196 89.9811L85.9236 89.8166C86.0199 83.6006 87.9862 77.1078 88.0063 77.0436L88.0464 76.9152L87.926 76.855ZM53.0258 88.9297C52.9616 88.4682 52.6687 87.0116 51.533 85.583C50.3091 84.0461 47.8291 82.2683 42.9575 82.5091L41.7416 76.8028C42.3034 76.1969 46.9102 71.3293 50.3533 70.2578C53.7963 69.1864 64.9843 69.3589 66.457 69.387V89.2748L53.0258 88.9297ZM85.5986 89.652L66.7901 89.2869V69.387C67.6769 69.3629 72.1915 69.3349 76.2686 71.2249C80.4982 73.1832 86.7262 76.5741 87.6532 77.0797C87.3763 78.0147 85.7149 83.9217 85.5986 89.652Z" fill="#FEB546"/>
<path opacity="0.5" d="M32.1228 87.9988C32.3997 88.6971 32.9936 89.2468 33.752 89.4475L37.7168 90.4948C38.0378 90.551 38.3388 90.3223 38.3749 89.9932C38.403 89.7324 38.4431 89.4796 38.4993 89.2268L32.1228 87.9988Z" fill="#FEB546"/>
<path opacity="0.5" d="M100.23 91.0645C100.222 91.229 100.21 91.3936 100.193 91.5581C100.105 92.3567 100.723 93.0589 101.53 93.0589H106.726C107.67 93.0589 108.436 92.2925 108.436 91.3494V91.0685H100.23V91.0645Z" fill="#FEB546"/>
<path d="M86.7905 91.0646C86.7905 90.7115 86.8146 90.3623 86.8627 90.0172C86.9229 89.6079 86.6179 89.2347 86.2006 89.2267L52.3237 88.4C51.9545 88.392 51.6896 88.7451 51.79 89.0983C51.9665 89.7203 52.0588 90.3704 52.0588 91.0445C52.0588 91.49 52.0187 91.9274 51.9384 92.3527C51.8582 92.7941 52.1912 93.2075 52.6407 93.2075H85.7913C86.4414 93.2075 86.9349 92.6336 86.8467 91.9875C86.8146 91.6866 86.7905 91.3776 86.7905 91.0646Z" fill="#EAB054"/>
<path opacity="0.5" d="M86.7905 91.0646C86.7905 91.0606 86.7905 91.0526 86.7905 91.0486H52.0589C52.0589 91.494 52.0187 91.9314 51.9385 92.3568C51.8582 92.7982 52.1913 93.2115 52.6407 93.2115H85.7913C86.4414 93.2115 86.935 92.6377 86.8467 91.9916C86.8146 91.6866 86.7905 91.3776 86.7905 91.0646Z" fill="#FEB546"/>
<path d="M49.0531 79.319H44.8276C44.7272 79.319 44.647 79.2387 44.647 79.1384V78.7612C44.647 78.6609 44.7272 78.5806 44.8276 78.5806H49.0531C49.1535 78.5806 49.2337 78.6609 49.2337 78.7612V79.1384C49.2337 79.2387 49.1535 79.319 49.0531 79.319Z" fill="#EAB054"/>
<path d="M72.352 79.6881H68.1264C68.0261 79.6881 67.9458 79.6078 67.9458 79.5075V79.1303C67.9458 79.03 68.0261 78.9497 68.1264 78.9497H72.352C72.4523 78.9497 72.5325 79.03 72.5325 79.1303V79.5075C72.5325 79.6078 72.4523 79.6881 72.352 79.6881Z" fill="#EAB054"/>
<path d="M45.4535 77.4328L64.1736 77.6094C64.1736 77.6094 65.3213 77.5773 65.4738 76.5018C65.6303 75.4224 65.6183 70.8036 65.6183 70.8036C65.6183 70.8036 65.4819 69.8766 64.595 69.8645C64.0573 69.8565 59.5307 69.5355 55.1326 70.0692C51.545 70.5066 48.2224 72.1439 45.7063 74.6639L44.378 75.9922C44.378 75.9962 43.4791 77.4168 45.4535 77.4328Z" fill="#183658"/>
<path d="M67.7012 71.3935V76.2371C67.7012 76.8671 68.1827 77.3847 68.7927 77.4088L83.504 77.9987C83.8411 78.0107 84.1741 77.8583 84.3668 77.5733C84.6316 77.1841 84.6597 76.542 83.3435 75.6873C81.0521 74.1945 75.2173 70.9641 73.0624 70.6551C71.69 70.4545 69.8922 70.3702 68.7686 70.3341C68.1827 70.31 67.7012 70.7916 67.7012 71.3935Z" fill="#183658"/>
<path d="M98.805 72.1118L98.7087 72.2001C98.6605 72.2442 98.5843 72.2442 98.5401 72.1961L96.8266 70.306C96.7825 70.2578 96.7905 70.1856 96.8386 70.1415L96.935 70.0532C96.9831 70.009 97.0594 70.009 97.1035 70.0572L98.817 71.9473C98.8611 71.9954 98.8571 72.0677 98.805 72.1118Z" fill="#183658"/>
<path d="M104.616 70.5788C104.387 70.3902 102.617 71.1727 102.637 71.4416C102.661 71.7145 101.401 74.3429 101.401 74.3429L99.2264 72.6013C99.2064 72.5371 99.0017 71.8629 98.9897 71.7425C98.9776 71.6141 98.6125 71.3934 98.4399 71.4255C98.2673 71.4576 98.5844 71.6743 98.6084 71.7145C98.6646 71.8228 98.4479 71.8629 98.4479 71.8629C98.4479 71.8629 97.8179 71.5178 97.8059 71.3132C97.7938 71.1085 97.6614 70.6831 97.529 70.7714C97.4608 70.8156 97.4607 71.1206 97.4808 71.265C97.4407 71.1005 97.3845 70.9199 97.3283 70.8998C97.228 70.8677 97.1758 70.9962 97.1959 71.0604C97.216 71.1246 97.3765 71.8148 97.4286 71.895C97.4768 71.9713 98.4921 72.7899 98.6365 72.9705C98.6365 72.9705 101.45 76.1968 101.65 76.2811C101.827 76.3533 102.453 75.2418 103.043 74.5034C103.633 73.765 105.33 71.1607 104.616 70.5788Z" fill="#F7A491"/>
<path d="M110.29 94.2988C110.29 94.2988 110.675 94.676 110.687 94.8165C110.695 94.9569 110.723 96.4417 110.563 96.5822C110.402 96.7226 109.941 96.8189 110.089 96.9754C110.202 97.0918 111.068 97.0677 111.642 97.0356C111.811 97.0276 112.02 95.6833 112.088 95.4866C112.184 95.2017 112.417 94.5556 112.333 94.355C112.288 94.2587 112.084 94.0581 111.799 93.8694C111.498 93.6728 111.205 93.2354 111.205 93.2354L110.29 94.2988Z" fill="#F48C7F"/>
<path d="M106.285 95.1818C106.285 95.1818 106.63 96.1609 106.63 96.165C106.654 96.3215 106.758 96.7027 106.758 96.8472C106.758 97.3769 104.375 96.3977 104.908 96.161C104.957 96.1409 105.109 95.9683 105.125 95.7878C105.149 95.5109 104.925 95.1617 104.925 95.1617L106.285 95.1818Z" fill="#F7A491"/>
<path d="M102.545 76.9232C102.545 76.9232 102.372 78.6808 102.372 78.7089C102.372 81.55 101.811 87.1038 101.919 87.6415C102.18 88.9457 104.985 95.5951 104.985 95.5951L106.502 95.4145L104.527 87.4529L105.254 84.2467L106.281 77.9103L102.545 76.9232Z" fill="#355389"/>
<path d="M107.633 78.4802L107.922 80.1456L108.701 86.9995L111.666 93.701C111.666 93.701 111.249 94.6762 110.635 94.8126L105.92 87.9345L102.99 79.1303L103.095 77.176L107.633 78.4802Z" fill="#466EB6"/>
<path d="M101.943 72.7418L104.046 72.9585C104.046 72.9585 104.142 71.2289 104.142 70.4063C104.142 69.4071 104.058 68.1149 103.938 68.143C103.6 68.2193 103.143 68.4079 102.874 68.7811C101.931 70.0732 101.943 72.7418 101.943 72.7418Z" fill="#3C8F7C"/>
<path d="M102.974 70.2256C102.93 70.5306 102.124 78.8252 102.124 78.8252C105.952 80.6792 108.063 79.1543 108.063 79.1543C108.063 79.1543 107.938 73.3316 108.087 72.537C108.187 72.0114 108.311 68.5282 107.97 68.4279C107.537 68.3035 107.035 68.171 106.494 68.1149C106.028 68.0667 104.23 68.0386 103.905 68.147C103.905 68.147 103.159 68.9415 102.974 70.2256Z" fill="#50BFA5"/>
<path d="M111.775 93.8655C111.775 93.8655 110.884 96.3816 110.535 96.5019C110.442 96.534 109.997 96.6143 109.913 96.8149C109.888 96.8751 109.913 97.0718 109.913 97.0718H111.771C111.771 97.0718 112.007 95.9642 112.1 95.4746C112.1 95.4746 112.589 94.2828 112.537 94.1745C112.481 94.0701 111.775 93.8655 111.775 93.8655Z" fill="#50BFA5"/>
<path d="M106.895 97.0197L106.622 96.153C106.622 96.153 106.048 96.3977 105.763 96.3576C105.478 96.3175 104.917 96.153 104.917 96.153C103.773 96.5302 102.834 96.7148 103.006 97.0197H106.895Z" fill="#50BFA5"/>
<path d="M101.646 76.2771C101.638 76.2731 101.606 76.249 101.59 76.233C101.658 75.4224 101.646 74.6319 101.393 74.367C101.401 74.355 101.454 74.2346 101.514 74.1142C101.807 74.3429 101.947 74.9489 101.895 75.936C101.891 76.0043 101.871 76.0564 101.855 76.1407C101.767 76.233 101.686 76.2972 101.646 76.2771Z" fill="#F7A491"/>
<path d="M111.851 78.9136C111.855 78.8976 111.855 78.8775 111.851 78.8615C111.795 78.2876 111.321 73.4641 111.241 73.2595C111.169 73.0749 109.038 70.0171 109.038 70.0171L107.99 71.4497L110.041 74.1945C110.085 74.367 110.828 77.6255 110.828 77.6255C110.828 77.6255 110.98 78.2194 111.048 78.5725C111.016 78.6568 110.988 78.7371 110.96 78.8053C110.892 78.9457 110.812 79.0621 110.739 79.1624C110.647 79.2868 110.495 79.5557 110.478 79.6279C110.458 79.7122 110.418 79.8848 110.394 79.9891C110.37 80.0934 110.342 80.2178 110.338 80.274C110.334 80.3101 110.298 80.3783 110.27 80.4265C110.23 80.4987 110.298 80.587 110.378 80.5589C110.454 80.5348 110.511 80.4385 110.547 80.3783C110.647 80.2098 110.703 79.8968 110.727 79.9128C110.751 79.9289 110.84 80.4546 110.856 80.5148C110.872 80.575 110.976 81.1849 111.036 81.2973C111.096 81.4096 111.177 81.3896 111.197 81.3214C111.217 81.2612 111.133 80.4064 111.133 80.4064C111.133 80.4064 111.121 80.2981 111.169 80.3302C111.217 80.3663 111.293 81.1408 111.329 81.2572C111.361 81.3695 111.438 81.4297 111.502 81.3414C111.578 81.2291 111.446 80.4064 111.446 80.4064C111.446 80.4064 111.43 80.3021 111.474 80.3141C111.518 80.3262 111.574 80.9883 111.606 81.0445C111.638 81.1007 111.726 81.1207 111.767 81.0284C111.815 80.9161 111.69 80.1817 111.69 80.1817C111.69 80.1817 111.698 80.1215 111.722 80.1416C111.751 80.1616 111.839 80.7234 111.895 80.7756C111.943 80.8198 111.983 80.7756 111.983 80.7756C112.088 80.7034 111.927 80.1697 111.931 79.9048C111.931 79.64 111.811 79.339 111.847 79.026C111.843 78.9899 111.847 78.9417 111.851 78.9136Z" fill="#F8A492"/>
<path d="M110.703 71.9472L108.881 73.1751C108.881 73.1751 107.854 71.6422 107.304 71.0964C106.614 70.4143 107.557 68.3195 107.999 68.4399C108.994 68.7048 110.703 71.9472 110.703 71.9472Z" fill="#3C8F7C"/>
<path d="M106.361 66.3211L106.634 68.1229C106.634 68.1229 105.639 70.2658 105.045 70.0812C104.548 69.9247 104.853 68.0266 104.853 68.0266C104.853 68.0266 105.125 67.0073 105.041 66.4977C104.961 65.9881 106.361 66.3211 106.361 66.3211Z" fill="#F7A491"/>
<path d="M105.041 66.4977C104.961 65.9881 106.357 66.3211 106.357 66.3211L106.381 66.4696C106.341 66.5699 106.289 66.6542 106.229 66.7224C105.916 67.0595 105.426 67.2642 105.005 67.2762C105.049 67.0033 105.077 66.7104 105.041 66.4977Z" fill="#F47458"/>
<path d="M106.59 63.773C106.63 63.7569 106.907 65.8236 106.381 66.3934C105.856 66.9632 104.828 67.1478 104.463 66.6984C104.058 66.2048 104.078 63.9817 104.897 63.3998C105.711 62.8139 106.59 63.773 106.59 63.773Z" fill="#F7A491"/>
<path d="M105.205 62.2962C105.84 62.4246 106.249 62.8139 106.397 62.9784C106.686 63.0105 107.075 63.171 107.477 63.8412C107.974 64.6638 107.605 65.5787 107.027 66.0242C106.449 66.4696 106.458 66.9873 106.458 66.9873L106.365 66.7184C106.297 66.5177 106.269 66.301 106.293 66.0884C106.305 65.96 106.333 65.8235 106.385 65.7112C106.526 65.4102 106.088 65.2136 105.964 64.9648C105.868 64.7721 105.864 64.3347 105.715 64.0177L105.539 63.777C105.539 63.777 105.129 63.4559 104.728 63.5482C104.335 63.6405 104.391 62.1277 105.205 62.2962Z" fill="#184655"/>
<path d="M105.996 65.334C105.992 65.5868 106.105 65.7915 106.253 65.7955C106.397 65.7995 106.518 65.5948 106.522 65.342C106.526 65.0892 106.414 64.8846 106.265 64.8806C106.121 64.8806 106 65.0812 105.996 65.334Z" fill="#F7A491"/>
<path d="M105.141 65.916L104.347 65.8759C104.347 65.8759 104.351 66.1808 104.7 66.2089C105.125 66.241 105.141 65.916 105.141 65.916Z" fill="white"/>
<path d="M62.1471 55.6068L66.6255 64.4993L71.3286 55.7232C72.721 52.5048 70.4859 48.833 66.9826 48.6886C66.9304 48.6846 66.8783 48.6846 66.8261 48.6846C66.7739 48.6846 66.7218 48.6846 66.6696 48.6846C63.1623 48.7408 60.8388 52.3564 62.1471 55.6068ZM64.4384 53.7609C64.4545 52.4767 65.5059 51.4535 66.79 51.4695C68.0741 51.4856 69.0974 52.5369 69.0813 53.8211C69.0653 55.1052 68.0139 56.1285 66.7298 56.1124C65.4497 56.0964 64.4224 55.045 64.4384 53.7609Z" fill="#F47458"/>
<path d="M112.591 98.2705H20.4555C20.2364 98.2705 20.0586 98.0021 20.0586 97.6714V97.5228C20.0586 97.1921 20.2364 96.9237 20.4555 96.9237H112.591C112.81 96.9237 112.988 97.1921 112.988 97.5228V97.6714C112.988 98.0021 112.81 98.2705 112.591 98.2705Z" fill="#183658"/>
</svg>
