<svg width="130" height="130" viewBox="0 0 130 130" fill="none" xmlns="http://www.w3.org/2000/svg">
<circle cx="66.5789" cy="66.5789" r="58.4211" fill="#CEECD3"/>
<circle cx="113.947" cy="11.3158" r="6.31579" fill="#76FD8C"/>
<circle cx="11.3158" cy="91.8422" r="6.31579" fill="#1BB934"/>
<circle r="3.15789" transform="matrix(1 0 0 -1 14.4737 69.7369)" fill="white"/>
<circle r="2.36842" transform="matrix(1 0 0 -1 108.421 40.5263)" fill="white"/>
<circle cx="120.263" cy="101.316" r="3.15789" fill="#76FD8C"/>
<circle cx="104.474" cy="8.1579" r="1.57895" fill="#76FD8C"/>
<circle cx="119.474" cy="26.3158" r="2.36842" fill="#1BB934"/>
<circle cx="80.4999" cy="58.5" r="28.5" fill="#DFF3E3"/>
<path fill-rule="evenodd" clip-rule="evenodd" d="M98.896 120.706C98.7663 120.603 98.6175 120.527 98.4582 120.481C98.2989 120.436 98.1322 120.423 97.9677 120.442C97.8031 120.461 97.6439 120.513 97.4991 120.593C97.3543 120.674 97.2268 120.782 97.1238 120.912C97.0208 121.042 96.9444 121.191 96.8989 121.351C96.8534 121.51 96.8398 121.677 96.8587 121.841C96.8777 122.006 96.9288 122.165 97.0093 122.31C97.0898 122.455 97.198 122.582 97.3278 122.685C97.5899 122.893 97.9238 122.987 98.2562 122.949C98.5885 122.91 98.8921 122.741 99.1001 122.478C99.308 122.216 99.4034 121.882 99.3651 121.549C99.3268 121.217 99.1581 120.913 98.896 120.706Z" fill="#BFC7D2"/>
<path d="M22.7246 11.4067L23.383 11.9287C23.5576 12.0672 23.67 12.2694 23.6954 12.491C23.7208 12.7125 23.6572 12.9352 23.5186 13.1101C23.3799 13.285 23.1776 13.3977 22.9561 13.4235C22.7346 13.4492 22.512 13.3859 22.3374 13.2475L21.679 12.7255L21.1562 13.3849C21.0176 13.5598 20.8152 13.6725 20.5937 13.6983C20.3722 13.724 20.1497 13.6607 19.9751 13.5223C19.8005 13.3839 19.6881 13.1816 19.6627 12.9601C19.6372 12.7385 19.7009 12.5158 19.8395 12.3409L20.3623 11.6815L19.7039 11.1595C19.5293 11.0211 19.417 10.8189 19.3915 10.5973C19.3661 10.3758 19.4297 10.153 19.5684 9.97816C19.707 9.80328 19.9094 9.69056 20.1309 9.66479C20.3524 9.63902 20.5749 9.70232 20.7495 9.84076L21.4079 10.3628L21.9307 9.70337C22.0694 9.52849 22.2717 9.41576 22.4932 9.39C22.7147 9.36423 22.9373 9.42753 23.1119 9.56597C23.2865 9.70441 23.3989 9.90665 23.4243 10.1282C23.4497 10.3498 23.3861 10.5725 23.2474 10.7473L22.7246 11.4067Z" fill="#BFC7D2"/>
<path d="M11.7246 25.4067L12.383 25.9287C12.5576 26.0672 12.67 26.2694 12.6954 26.491C12.7208 26.7125 12.6572 26.9352 12.5186 27.1101C12.3799 27.285 12.1776 27.3977 11.9561 27.4235C11.7346 27.4492 11.512 27.3859 11.3374 27.2475L10.679 26.7255L10.1562 27.3849C10.0176 27.5598 9.81525 27.6725 9.59374 27.6983C9.37222 27.724 9.1497 27.6607 8.97509 27.5223C8.80048 27.3839 8.68809 27.1816 8.66267 26.9601C8.63725 26.7385 8.70087 26.5158 8.83952 26.3409C8.83952 26.3409 9.40029 26.008 9.36232 25.6815C9.32441 25.3556 8.70395 25.1595 8.70395 25.1595C8.52934 25.0211 8.41697 24.8189 8.39154 24.5973C8.36612 24.3758 8.42973 24.153 8.56838 23.9782C8.70704 23.8033 8.90938 23.6906 9.13089 23.6648C9.3524 23.639 9.57494 23.7023 9.74955 23.8408L10.4079 24.3628L10.9307 23.7034C11.0694 23.5285 11.2717 23.4158 11.4932 23.39C11.7147 23.3642 11.9373 23.4275 12.1119 23.566C12.2865 23.7044 12.3989 23.9066 12.4243 24.1282C12.4497 24.3498 12.3861 24.5725 12.2474 24.7473L11.7246 25.4067Z" fill="#BFC7D2"/>
<path d="M86.3672 100.553H92.1484C94.7027 100.553 96.7734 98.4824 96.7734 95.9281V51.125C96.7734 48.5707 94.7027 46.5 92.1484 46.5H84.7773H88.203H36.0703C33.516 46.5 31.4453 48.5707 31.4453 51.125C31.4453 53.6793 33.516 55.75 36.0703 55.75H84.7773L86.3672 100.553Z" fill="#1BB934"/>
<path d="M88.9688 59.7487V95.9297C88.9688 98.484 86.8981 100.555 84.3438 100.555H36.0703C33.516 100.555 31.4453 98.484 31.4453 95.9297V55.75H84.97C87.1784 55.75 88.9688 57.5403 88.9688 59.7487Z" fill="#FDCE82"/>
<path d="M96.7734 67.6191C96.7734 70.3092 94.5926 72.4901 91.9024 72.4901H74.5156C70.3648 72.4901 67 75.8549 67 80.0057C67 84.1565 70.3648 87.5213 74.5156 87.5213H91.2812C94.3145 87.5213 96.7734 85.0624 96.7734 82.0291V67.6191Z" fill="#FED79A"/>
<path d="M71.7696 49.5547C74.7218 49.5547 77.115 47.1615 77.115 44.2092C77.115 41.257 74.7218 38.8637 71.7696 38.8637C68.8173 38.8637 66.4241 41.257 66.4241 44.2092C66.4241 47.1615 68.8173 49.5547 71.7696 49.5547Z" fill="#FDCF84"/>
<path d="M57.75 40.1363C60.7022 40.1363 63.0955 37.743 63.0955 34.7908C63.0955 31.8386 60.7022 29.4453 57.75 29.4453C54.7977 29.4453 52.4045 31.8386 52.4045 34.7908C52.4045 37.743 54.7977 40.1363 57.75 40.1363Z" fill="#FDCF84"/>
<path d="M92.1484 45.0547H83.6934C82.8951 45.0547 82.248 45.7018 82.248 46.5C82.248 47.2982 82.8951 47.9453 83.6934 47.9453H92.1484C93.9017 47.9453 95.3281 49.3717 95.3281 51.125V67.619C95.3281 69.5079 93.7913 71.0447 91.9024 71.0447H90.4141V60.375C90.4141 57.0278 87.6909 54.3047 84.3437 54.3047H63.0254V49.8965C63.0254 49.0982 62.3783 48.4512 61.5801 48.4512C60.7818 48.4512 60.1348 49.0982 60.1348 49.8965V54.3047H36.0703C34.317 54.3047 32.8906 52.8783 32.8906 51.125C32.8906 49.3717 34.317 47.9453 36.0703 47.9453H45.6342C46.4325 47.9453 47.0795 47.2982 47.0795 46.5C47.0795 45.7018 46.4325 45.0547 45.6342 45.0547H36.0703C32.7231 45.0547 30 47.7778 30 51.125C30 51.2052 30.003 51.2849 30.0061 51.3643C30.0029 51.4042 30 51.4441 30 51.4847V95.9297C30 99.2769 32.7231 102 36.0703 102L92.1484 101.998C95.4956 101.998 98.2187 99.2751 98.2187 95.9279V51.125C98.2187 47.7779 95.4956 45.0547 92.1484 45.0547ZM95.3281 72.9216V82.0292C95.3281 84.2607 93.5127 86.0761 91.2812 86.0761H74.5156C71.1684 86.0761 68.4453 83.353 68.4453 80.0058C68.4453 76.6586 71.1684 73.9355 74.5156 73.9355H91.9024C93.1646 73.9355 94.3405 73.5619 95.3281 72.9216ZM32.8906 95.9297V56.2933C33.8161 56.8646 34.9051 57.1953 36.0703 57.1953H84.3437C86.0971 57.1953 87.5234 58.6217 87.5234 60.375V71.0447H74.5156C69.5745 71.0447 65.5547 75.0646 65.5547 80.0057C65.5547 84.9468 69.5745 88.9666 74.5156 88.9666H87.5234V95.9297C87.5234 97.6606 86.133 99.0719 84.4105 99.1076H84.3437C84.3325 99.1076 84.3215 99.1091 84.3102 99.1094H36.0703C34.317 99.1094 32.8906 97.683 32.8906 95.9297ZM92.1484 99.1078H89.513C90.0838 98.1828 90.4141 97.0943 90.4141 95.9298V88.9667H91.2812C92.7907 88.9667 94.1881 88.4807 95.3281 87.6589V95.9281C95.3281 97.6814 93.9017 99.1078 92.1484 99.1078Z" fill="black"/>
<path d="M71.7695 51.0004C75.514 51.0004 78.5603 47.9541 78.5603 44.2096C78.5603 40.4651 75.514 37.4188 71.7695 37.4188C68.025 37.4188 64.9787 40.4651 64.9787 44.2096C64.9787 47.9541 68.0251 51.0004 71.7695 51.0004ZM71.7695 40.3094C73.92 40.3094 75.6697 42.059 75.6697 44.2096C75.6697 46.3602 73.9201 48.1098 71.7695 48.1098C69.6189 48.1098 67.8693 46.3602 67.8693 44.2096C67.8693 42.059 69.619 40.3094 71.7695 40.3094Z" fill="black"/>
<path d="M57.75 41.5816C61.4945 41.5816 64.5408 38.5353 64.5408 34.7908C64.5408 31.0463 61.4945 28 57.75 28C54.0055 28 50.9592 31.0463 50.9592 34.7908C50.9592 38.5353 54.0057 41.5816 57.75 41.5816ZM57.75 30.8906C59.9005 30.8906 61.6502 32.6402 61.6502 34.7908C61.6502 36.9414 59.9007 38.691 57.75 38.691C55.5994 38.691 53.8499 36.9414 53.8499 34.7908C53.8499 32.6402 55.5995 30.8906 57.75 30.8906Z" fill="black"/>
<path d="M77.887 33.2984H78.707V34.1186C78.707 34.9168 79.3541 35.5639 80.1523 35.5639C80.9506 35.5639 81.5977 34.9168 81.5977 34.1186V33.2984H82.4177C83.216 33.2984 83.863 32.6513 83.863 31.8531C83.863 31.0548 83.216 30.4077 82.4177 30.4077H81.5977V29.5877C81.5977 28.7894 80.9506 28.1424 80.1523 28.1424C79.3541 28.1424 78.707 28.7894 78.707 29.5877V30.4077H77.887C77.0887 30.4077 76.4417 31.0548 76.4417 31.8531C76.4417 32.6513 77.0887 33.2984 77.887 33.2984Z" fill="black"/>
<path d="M51.6316 43.5732V49.4267C51.6316 50.225 52.2787 50.872 53.0769 50.872C53.8751 50.872 54.5222 50.225 54.5222 49.4267V43.5732C54.5222 42.775 53.8751 42.1279 53.0769 42.1279C52.2787 42.1279 51.6316 42.7751 51.6316 43.5732Z" fill="black"/>
<path d="M73.9491 80.1859C73.9491 80.5661 74.1023 80.939 74.3711 81.2077C74.6414 81.478 75.0128 81.6312 75.393 81.6312C75.7745 81.6312 76.146 81.478 76.4162 81.2077C76.6851 80.939 76.8397 80.5661 76.8397 80.1859C76.8397 79.8058 76.6851 79.4329 76.4162 79.1642C76.146 78.8954 75.7745 78.7406 75.393 78.7406C75.0128 78.7406 74.6414 78.8952 74.3711 79.1642C74.1023 79.4329 73.9491 79.8058 73.9491 80.1859Z" fill="black"/>
<path d="M39.5873 65.5781C38.789 65.5781 38.142 66.2253 38.142 67.0234V78.9231C38.142 79.7212 38.789 80.3684 39.5873 80.3684C40.3855 80.3684 41.0326 79.7212 41.0326 78.9231V67.0234C41.0326 66.2253 40.3855 65.5781 39.5873 65.5781Z" fill="black"/>
<path d="M39.5868 82.4651C39.2067 82.4651 38.8338 82.6198 38.565 82.8886C38.2961 83.1575 38.1415 83.5303 38.1415 83.9105C38.1415 84.2906 38.2961 84.6635 38.565 84.9323C38.8338 85.201 39.2067 85.3558 39.5868 85.3558C39.9684 85.3558 40.3398 85.2011 40.6086 84.9323C40.8789 84.6635 41.0321 84.2906 41.0321 83.9105C41.0321 83.5303 40.8789 83.1575 40.6086 82.8886C40.3398 82.6199 39.9684 82.4651 39.5868 82.4651Z" fill="black"/>
</svg>
