<svg width="130" height="130" viewBox="0 0 130 130" fill="none" xmlns="http://www.w3.org/2000/svg">
<circle cx="66.4211" cy="66.5789" r="58.4211" fill="#C2EAFC"/>
<circle cx="113.947" cy="11.3158" r="6.31579" fill="#F0D0B4"/>
<circle cx="11.3158" cy="91.8422" r="6.31579" fill="#AAE5FF"/>
<circle r="3.15789" transform="matrix(1 0 0 -1 14.4737 69.7369)" fill="white"/>
<circle r="2.36842" transform="matrix(1 0 0 -1 108.421 40.5263)" fill="white"/>
<circle cx="120.263" cy="101.316" r="3.15789" fill="#76FD8C"/>
<circle cx="104.474" cy="8.1579" r="1.57895" fill="#76FD8C"/>
<circle cx="119.474" cy="26.3158" r="2.36842" fill="#1BB934"/>
<path fill-rule="evenodd" clip-rule="evenodd" d="M98.896 120.706C98.7663 120.603 98.6175 120.527 98.4582 120.481C98.2989 120.436 98.1322 120.423 97.9677 120.442C97.8031 120.461 97.6439 120.513 97.4991 120.593C97.3543 120.674 97.2268 120.782 97.1238 120.912C97.0208 121.042 96.9444 121.191 96.8989 121.351C96.8534 121.51 96.8398 121.677 96.8587 121.841C96.8777 122.006 96.9288 122.165 97.0093 122.31C97.0898 122.455 97.198 122.582 97.3278 122.685C97.5899 122.893 97.9238 122.987 98.2562 122.949C98.5885 122.91 98.8921 122.741 99.1001 122.478C99.308 122.216 99.4034 121.882 99.3651 121.549C99.3268 121.217 99.1581 120.913 98.896 120.706Z" fill="#BFC7D2"/>
<path d="M22.7246 11.4067L23.383 11.9287C23.5576 12.0672 23.67 12.2694 23.6954 12.491C23.7208 12.7125 23.6572 12.9352 23.5186 13.1101C23.3799 13.285 23.1776 13.3977 22.9561 13.4235C22.7346 13.4492 22.512 13.3859 22.3374 13.2475L21.679 12.7255L21.1562 13.3849C21.0176 13.5598 20.8152 13.6725 20.5937 13.6983C20.3722 13.724 20.1497 13.6607 19.9751 13.5223C19.8005 13.3839 19.6881 13.1816 19.6627 12.9601C19.6372 12.7385 19.7009 12.5158 19.8395 12.3409L20.3623 11.6815L19.7039 11.1595C19.5293 11.0211 19.417 10.8189 19.3915 10.5973C19.3661 10.3758 19.4297 10.153 19.5684 9.97816C19.707 9.80328 19.9094 9.69056 20.1309 9.66479C20.3524 9.63902 20.5749 9.70232 20.7495 9.84076L21.4079 10.3628L21.9307 9.70337C22.0694 9.52849 22.2717 9.41576 22.4932 9.39C22.7147 9.36423 22.9373 9.42753 23.1119 9.56597C23.2865 9.70441 23.3989 9.90665 23.4243 10.1282C23.4497 10.3498 23.3861 10.5725 23.2474 10.7473L22.7246 11.4067Z" fill="#BFC7D2"/>
<path d="M11.7246 25.4067L12.383 25.9287C12.5576 26.0672 12.67 26.2694 12.6954 26.491C12.7208 26.7125 12.6572 26.9352 12.5186 27.1101C12.3799 27.285 12.1776 27.3977 11.9561 27.4235C11.7346 27.4492 11.512 27.3859 11.3374 27.2475L10.679 26.7255L10.1562 27.3849C10.0176 27.5598 9.81525 27.6725 9.59374 27.6983C9.37222 27.724 9.1497 27.6607 8.97509 27.5223C8.80048 27.3839 8.68809 27.1816 8.66267 26.9601C8.63725 26.7385 8.70087 26.5158 8.83952 26.3409C8.83952 26.3409 9.40029 26.008 9.36232 25.6815C9.32441 25.3556 8.70395 25.1595 8.70395 25.1595C8.52934 25.0211 8.41697 24.8189 8.39154 24.5973C8.36612 24.3758 8.42973 24.153 8.56838 23.9782C8.70704 23.8033 8.90938 23.6906 9.13089 23.6648C9.3524 23.639 9.57494 23.7023 9.74955 23.8408L10.4079 24.3628L10.9307 23.7034C11.0694 23.5285 11.2717 23.4158 11.4932 23.39C11.7147 23.3642 11.9373 23.4275 12.1119 23.566C12.2865 23.7044 12.3989 23.9066 12.4243 24.1282C12.4497 24.3498 12.3861 24.5725 12.2474 24.7473L11.7246 25.4067Z" fill="#BFC7D2"/>
<circle cx="73.5" cy="55.5" r="28.5" fill="#D8F1FD"/>
<path d="M30.7149 65.4669L32.3091 63.8727L35.6908 53.7273H45.8362V77.4L31.1818 77.4005C30.5593 77.4005 30.0546 76.8958 30.0546 76.2733V67.0612C30.0546 66.4633 30.2921 65.8898 30.7149 65.4669Z" fill="#DBD9DC"/>
<path d="M32.309 63.8728L34.1879 58.2364H41.3272V63.8728C41.3272 64.4954 40.8225 65.0001 40.2 65.0001H31.1818L32.309 63.8728Z" fill="#5D5360"/>
<path d="M34.1879 58.2366H41.3272V61.6183H33.0607L34.1879 58.2366Z" fill="#4B3F4E"/>
<path d="M98.8181 46.9639H46.9636C46.3411 46.9639 45.8364 47.4686 45.8364 48.0912V74.0184H98.8181C99.4406 74.0184 99.9453 73.5137 99.9453 72.8911V48.091C99.9453 47.4685 99.4406 46.9639 98.8181 46.9639Z" fill="#96C3F0"/>
<path d="M45.8364 74.0182H98.8181C99.4406 74.0182 99.9453 73.5135 99.9453 72.891V69.5092H45.8364V74.0182Z" fill="#7DA5D7"/>
<path d="M41.3272 78.5274H95.4362C96.0587 78.5274 96.5634 78.0227 96.5634 77.4001V74.0184H41.3272V78.5274Z" fill="#6F6571"/>
<path d="M41.3271 83.0353C38.8371 83.0353 36.8186 81.0168 36.8186 78.5268C36.8186 76.0369 38.8371 74.0184 41.3271 74.0184C43.817 74.0184 45.8355 76.0369 45.8355 78.5268C45.8355 81.0168 43.817 83.0353 41.3271 83.0353Z" fill="#4B3F4E"/>
<path d="M78.5267 83.0353C76.0367 83.0353 74.0182 81.0168 74.0182 78.5268C74.0182 76.0369 76.0367 74.0184 78.5267 74.0184C81.0166 74.0184 83.0351 76.0369 83.0351 78.5268C83.0351 81.0168 81.0166 83.0353 78.5267 83.0353Z" fill="#4B3F4E"/>
<path d="M87.545 83.0353C85.055 83.0353 83.0365 81.0168 83.0365 78.5268C83.0365 76.0369 85.055 74.0184 87.545 74.0184C90.0349 74.0184 92.0534 76.0369 92.0534 78.5268C92.0534 81.0168 90.0349 83.0353 87.545 83.0353Z" fill="#4B3F4E"/>
<path d="M87.534 77.4723H87.5454C88.1279 77.4723 88.5944 77.9445 88.5944 78.527C88.5944 79.1094 88.1165 79.5816 87.534 79.5816C86.9516 79.5816 86.4794 79.1094 86.4794 78.527C86.4794 77.9445 86.9516 77.4723 87.534 77.4723Z" fill="black"/>
<path d="M78.5159 77.4723H78.5271C79.1096 77.4723 79.5762 77.9445 79.5762 78.527C79.5762 79.1094 79.0983 79.5816 78.5159 79.5816C77.9334 79.5816 77.4612 79.1094 77.4612 78.527C77.4612 77.9445 77.9334 77.4723 78.5159 77.4723Z" fill="black"/>
<path d="M41.316 77.4723H41.3272C41.9097 77.4723 42.3763 77.9445 42.3763 78.527C42.3763 79.1094 41.8984 79.5816 41.316 79.5816C40.7335 79.5816 40.2613 79.1094 40.2613 78.527C40.2613 77.9445 40.7335 77.4723 41.316 77.4723Z" fill="black"/>
<path d="M29.9692 64.7211L31.3872 63.303L34.2441 54.7325C33.8178 54.597 33.5089 54.1984 33.5089 53.7274C33.5089 53.1449 33.9811 52.6727 34.5636 52.6727H44.7815V48.0913C44.7815 46.8881 45.7603 45.9093 46.9635 45.9093H98.8181C100.021 45.9095 101 46.8884 101 48.0913V72.8911C101 74.0943 100.021 75.0731 98.8181 75.0731H97.6182V77.3996C97.6182 78.6027 96.6395 79.5815 95.4363 79.5815H93.0076C92.5131 82.1465 90.2526 84.0905 87.5454 84.0905C85.6917 84.0905 84.0479 83.1784 83.0364 81.7803C82.0247 83.1784 80.381 84.0905 78.5272 84.0905C75.8201 84.0905 73.5594 82.1465 73.0651 79.5815H46.7895C46.2951 82.1465 44.0345 84.0905 41.3273 84.0905C38.2595 84.0905 35.7636 81.5945 35.7636 78.5268C35.7636 78.5026 35.7652 78.4789 35.7655 78.4548H31.1819C29.9787 78.4548 29 77.4761 29 76.2729V67.0608C28.9999 66.177 29.3441 65.346 29.9692 64.7211ZM93.0076 77.4723H95.4363C95.4764 77.4723 95.5089 77.4398 95.5089 77.3997V75.0732H91.9025C92.4482 75.7603 92.8353 76.5782 93.0076 77.4723ZM87.5454 81.9815C89.4502 81.9815 90.9997 80.4319 90.9997 78.5272C90.9997 76.6298 89.4617 75.0851 87.5669 75.0733H87.5236C85.6288 75.085 84.0908 76.6296 84.0908 78.5272C84.0909 80.4317 85.6406 81.9815 87.5454 81.9815ZM78.5271 81.9815C80.4319 81.9815 81.9816 80.4319 81.9816 78.5272C81.9816 76.6298 80.4435 75.0851 78.5488 75.0733H78.5054C76.6107 75.085 75.0726 76.6296 75.0726 78.5272C75.0728 80.4317 76.6223 81.9815 78.5271 81.9815ZM46.7894 77.4723H73.0649C73.2372 76.5782 73.6243 75.7601 74.1701 75.0731H53.7273C53.1448 75.0731 52.6726 74.6008 52.6726 74.0184C52.6726 73.4359 53.1448 72.9637 53.7273 72.9637H98.8181C98.8581 72.9637 98.8906 72.9312 98.8906 72.8911V48.0913C98.8906 48.0512 98.8581 48.0187 98.8181 48.0187H46.9636C46.9235 48.0187 46.891 48.0512 46.891 48.0913V72.9638H49.2177C49.8002 72.9638 50.2724 73.436 50.2724 74.0185C50.2724 74.601 49.8002 75.0732 49.2177 75.0732H45.6843C46.2301 75.7603 46.6171 76.5782 46.7894 77.4723ZM33.3966 63.9452H40.2C40.24 63.9452 40.2725 63.9128 40.2725 63.8727V59.291H34.948L33.3966 63.9452ZM41.3272 81.9815C43.232 81.9815 44.7815 80.4319 44.7815 78.5272C44.7815 76.6298 43.2435 75.0851 41.3487 75.0733H41.3271C41.3247 75.0733 41.3223 75.0731 41.3198 75.0729C39.4184 75.0768 37.8726 76.6249 37.8726 78.5271C37.8729 80.4317 39.4224 81.9815 41.3272 81.9815ZM31.1092 69.5821H32.3091C32.8915 69.5821 33.3637 70.0543 33.3637 70.6367C33.3637 71.2192 32.8915 71.6914 32.3091 71.6914H31.1092V76.2731C31.1092 76.3132 31.1417 76.3457 31.1818 76.3457H36.2094C37.0595 74.3591 39.0332 72.9634 41.3272 72.9634C41.3345 72.9634 41.3416 72.964 41.3489 72.964H44.7815V54.8549V54.8544C44.7815 54.8143 44.749 54.7818 44.709 54.7818H36.451L35.6512 57.1814H41.3272C41.9097 57.1814 42.3819 57.6537 42.3819 58.2361V63.8725C42.3819 65.0757 41.4031 66.0545 40.2 66.0545H31.6187L31.4607 66.2125C31.2341 66.4392 31.1092 66.7404 31.1092 67.0609V69.5821Z" fill="black"/>
<path d="M95.4363 70.5641H50.3455C49.763 70.5641 49.2908 70.0918 49.2908 69.5094C49.2908 68.9269 49.763 68.4547 50.3455 68.4547H95.4363C96.0187 68.4547 96.491 68.9269 96.491 69.5094C96.491 70.0918 96.0187 70.5641 95.4363 70.5641Z" fill="black"/>
<rect x="29" y="84" width="72" height="3" fill="black"/>
<path d="M81 60.5C81 65.1944 77.1944 69 72.5 69C67.8056 69 64 65.1944 64 60.5C64 55.8056 67.8056 52 72.5 52C77.1944 52 81 55.8056 81 60.5Z" fill="white"/>
<path d="M78.5 60.5C78.5 63.8137 75.8137 66.5 72.5 66.5C69.1863 66.5 66.5 63.8137 66.5 60.5C66.5 57.1863 69.1863 54.5 72.5 54.5C75.8137 54.5 78.5 57.1863 78.5 60.5Z" fill="white" stroke="black" stroke-width="3"/>
<rect x="70" y="68" width="5" height="16" fill="white"/>
<rect x="71" y="67" width="3" height="17" fill="#050505"/>
<circle cx="72.5" cy="60.5" r="1.5" fill="black"/>
<path d="M72 60L75.5 57.5L73 61L72 60Z" fill="black"/>
</svg>
