<svg width="120" height="120" viewBox="0 0 120 120" fill="none" xmlns="http://www.w3.org/2000/svg">
<circle cx="61.4211" cy="61.4211" r="58.4211" fill="#E6EDB7"/>
<circle cx="108.947" cy="6.31579" r="6.31579" fill="#F1BC19"/>
<circle cx="6.31579" cy="86.8421" r="6.31579" fill="#F1BC19"/>
<circle r="3.15789" transform="matrix(1 0 0 -1 9.47368 64.7369)" fill="white"/>
<circle r="2.36842" transform="matrix(1 0 0 -1 103.421 35.5263)" fill="white"/>
<circle cx="115.263" cy="96.3158" r="3.15789" fill="#F1BC19"/>
<circle cx="99.4737" cy="3.1579" r="1.57895" fill="#F1BC19"/>
<circle cx="114.474" cy="21.3158" r="2.36842" fill="#88AE45"/>
<circle cx="75.5" cy="53.5" r="28.5" fill="#F8FECF"/>
<path d="M65.1182 30.1005C65.1035 29.42 64.3976 28.8923 63.6706 29.0188L29.1345 31.8056C27.998 31.8974 27.1833 32.7789 27.2714 33.823C28.0447 42.968 33.0669 82.6929 33.0669 82.6929C33.0945 83.2794 65.1411 84.1277 65.1411 84.1277C65.7746 84.1351 66.2708 83.6808 66.2582 83.1047L65.1182 30.1005Z" fill="url(#paint0_linear_809_203)"/>
<path d="M66.2617 76.0068C66.3109 76.8152 67.0037 77.4322 67.8125 77.3872L93.2694 75.977C94.0811 75.9319 94.7028 75.2374 94.6577 74.4257L92.5456 36.2974C92.5008 35.4872 91.8087 34.866 90.9983 34.9088L65.3338 36.2614C64.5175 36.3045 63.8924 37.0047 63.9418 37.8208L66.2617 76.0068Z" fill="url(#paint1_linear_809_203)"/>
<path opacity="0.6" d="M68.4108 39.1393C68.1149 39.1557 67.8883 39.4088 67.9047 39.7048L67.9151 39.8934C67.9316 40.1892 68.1846 40.4159 68.4807 40.3996L89.5423 39.2328C89.8381 39.2163 90.0648 38.9633 90.0483 38.6672L90.038 38.4787C90.0215 38.1829 89.7685 37.9562 89.4724 37.9724L68.4108 39.1393Z" fill="white"/>
<path opacity="0.6" d="M69.3617 49.177C69.1018 49.1949 68.9079 49.4492 68.9286 49.745L68.9416 49.9333C68.9621 50.2289 69.1892 50.4541 69.4491 50.4361L87.9384 49.1536C88.1983 49.1356 88.3922 48.8814 88.3715 48.5856L88.3585 48.3973C88.3381 48.1017 88.1109 47.8765 87.851 47.8945L69.3617 49.177Z" fill="white"/>
<path opacity="0.6" d="M69.3967 53.1406C69.1368 53.1586 68.9429 53.4128 68.9635 53.7087L68.9766 53.8969C68.997 54.1925 69.2242 54.4177 69.4841 54.3997L87.9736 53.1172C88.2332 53.0993 88.4274 52.845 88.4068 52.5492L88.3937 52.3609C88.3733 52.0654 88.1459 51.8402 87.8862 51.8581L69.3967 53.1406Z" fill="white"/>
<path opacity="0.6" d="M69.7656 56.9283C69.506 56.9463 69.3118 57.2005 69.3325 57.4964L69.3455 57.6846C69.3659 57.9802 69.5931 58.2054 69.853 58.1874L88.3423 56.9049C88.6019 56.887 88.7961 56.6327 88.7754 56.3369L88.7624 56.1486C88.742 55.8531 88.5146 55.6279 88.2549 55.6458L69.7656 56.9283Z" fill="white"/>
<path opacity="0.6" d="M70.2812 60.8351C70.0216 60.8531 69.8274 61.1073 69.8481 61.4031L69.8611 61.5914C69.8815 61.887 70.109 62.1122 70.3686 62.0942L88.8579 60.8117C89.1177 60.7938 89.3117 60.5395 89.291 60.2437L89.278 60.0554C89.2575 59.7598 89.0304 59.5346 88.7705 59.5526L70.2812 60.8351Z" fill="white"/>
<path opacity="0.6" d="M70.3858 41.945C70.4166 42.2245 70.658 42.433 70.9391 42.4227L89.3772 41.738C89.6772 41.7269 89.9095 41.4717 89.893 41.1719L89.8906 41.1281C89.8743 40.8355 89.6265 40.61 89.3336 40.6216L70.898 41.3501C70.5874 41.3624 70.3519 41.6356 70.3858 41.945Z" fill="white"/>
<path opacity="0.61" d="M70.2286 74.5685C70.2337 74.5682 70.2389 74.568 70.2441 74.5675L90.9762 73.1693C91.317 73.1462 91.6281 72.9914 91.8521 72.7332C92.076 72.4751 92.1853 72.1453 92.16 71.8044L90.067 43.6906C90.0419 43.3512 89.8859 43.0424 89.6282 42.8204C89.3705 42.5984 89.038 42.4903 88.7023 42.5157L68.015 44.066C67.3163 44.1184 66.7894 44.7295 66.8403 45.4284L68.8885 73.3901C68.9389 74.0812 69.5385 74.6066 70.2286 74.5685ZM67.2627 45.3977C67.2284 44.9313 67.5801 44.5235 68.0465 44.4885L88.7338 42.9383C88.9583 42.9208 89.1795 42.9934 89.3516 43.1415C89.5236 43.2897 89.6275 43.496 89.6444 43.7224L89.7606 45.2818L67.3825 46.5214C67.3697 46.5222 67.3574 46.5241 67.3456 46.5271L67.2627 45.3977ZM69.3111 73.3593L67.3761 46.9435C67.386 46.9442 67.3958 46.9447 67.4061 46.9442L89.7921 45.7041L91.7374 71.8359C91.7544 72.0633 91.6813 72.2833 91.5321 72.4556C91.3827 72.6279 91.175 72.7313 90.9474 72.7465L70.2153 74.1447C70.2118 74.1449 70.2084 74.1452 70.2049 74.1454C69.7447 74.171 69.3445 73.8203 69.3111 73.3593Z" fill="white"/>
<path d="M59.1126 78.3254C59.1785 79.1612 59.9073 79.7866 60.7433 79.725L87.0615 77.7884C87.9007 77.7266 88.531 76.9961 88.4692 76.1569L85.5685 36.7384C85.507 35.9009 84.779 35.2711 83.9412 35.3304L57.4075 37.2114C56.5633 37.2712 55.9296 38.0076 55.9963 38.8513L59.1126 78.3254Z" fill="url(#paint2_linear_809_203)"/>
<path opacity="0.35" d="M57.6103 40.724C57.5348 39.8614 58.1825 39.1046 59.0464 39.0465L82.5896 37.4595C83.4406 37.4022 84.1773 38.0448 84.2358 38.8959L86.6751 74.2874C86.7329 75.1254 86.1107 75.8564 85.2742 75.9332L62.44 78.033C61.5873 78.1115 60.8332 77.4817 60.7583 76.6285L57.6103 40.724Z" fill="white"/>
<path opacity="0.6" d="M60.6454 40.1318C60.3395 40.1542 60.1096 40.4205 60.1323 40.7264L60.1465 40.9213C60.1692 41.2273 60.4352 41.4569 60.7411 41.4345L82.5152 39.8323C82.8211 39.8097 83.0508 39.5436 83.0284 39.2377L83.0141 39.0428C82.9917 38.7369 82.7254 38.507 82.4195 38.5296L60.6454 40.1318Z" fill="white"/>
<path opacity="0.6" d="M62.742 42.9983C62.7789 43.287 63.0329 43.4982 63.3236 43.4822L82.3917 42.4278C82.7021 42.4106 82.9378 42.1423 82.915 41.8325L82.9117 41.7872C82.8894 41.4847 82.6287 41.2561 82.3258 41.2735L63.2611 42.3729C62.9394 42.3916 62.7012 42.6788 62.742 42.9983Z" fill="white"/>
<path opacity="0.61" d="M63.1907 76.7623C63.1959 76.7618 63.2013 76.7616 63.2067 76.7611L84.6353 74.9253C84.9877 74.8951 85.3067 74.729 85.5336 74.4577C85.7605 74.1865 85.8676 73.8429 85.8348 73.4908L83.1419 44.4361C83.1094 44.0854 82.9423 43.7684 82.6713 43.5437C82.4003 43.3187 82.0545 43.2132 81.7075 43.2456L60.3279 45.2379C59.6058 45.3051 59.072 45.9477 59.1377 46.6701L61.7817 75.5682C61.8472 76.2824 62.4774 76.8148 63.1907 76.7623ZM59.5745 46.6302C59.5305 46.1481 59.8866 45.7196 60.3687 45.6745L81.7484 43.6823C81.9802 43.6599 82.2108 43.731 82.3915 43.8811C82.5721 44.0312 82.6838 44.2427 82.7052 44.4767L82.8546 46.0883L59.7195 47.7906C59.7065 47.7916 59.6937 47.7938 59.6814 47.797L59.5745 46.6302ZM62.2185 75.5283L59.7207 48.2277C59.7308 48.2285 59.7412 48.2287 59.7517 48.228L82.895 46.5249L85.3982 73.5314C85.4201 73.7664 85.3487 73.9955 85.1974 74.1764C85.046 74.3576 84.8329 74.4683 84.5979 74.4885L63.1693 76.3243C63.1658 76.3245 63.1621 76.3247 63.1587 76.325C62.6827 76.3602 62.2621 76.0048 62.2185 75.5283Z" fill="white"/>
<path d="M47.8347 37.5811C51.695 38.11 64.9698 39.7526 75.9566 38.9859C76.4577 38.951 76.8903 39.3226 76.9144 39.8109L78.8957 79.9237C78.9227 80.4737 78.4891 80.9418 77.9243 80.9716C73.304 81.215 54.276 82.15 47.4946 81.425C47.0818 81.3809 46.7702 81.0408 46.7698 80.6367L46.7338 38.5141C46.7336 37.9417 47.2529 37.5014 47.8347 37.5811Z" fill="url(#paint3_linear_809_203)"/>
<path opacity="0.35" d="M48.2432 38.6234C51.9581 39.1324 64.7333 40.7131 75.3061 39.9753C75.7882 39.9416 76.2047 40.2992 76.228 40.7692L78.1344 79.3716C78.1605 79.901 77.7431 80.3514 77.1997 80.3799C72.7534 80.6142 54.4421 81.514 47.9159 80.816C47.5187 80.7735 47.2187 80.4464 47.2184 80.0573L47.184 39.5207C47.1835 38.9704 47.6831 38.5466 48.2432 38.6234Z" fill="white"/>
<g opacity="0.6">
<path opacity="0.6" d="M73.776 43.3475C74.0165 43.3488 74.2102 43.2247 74.2065 43.0721C74.2028 42.9196 74.0029 42.7901 73.7625 42.7849L63.7733 42.5624C63.5328 42.557 63.3957 42.7204 63.4686 42.9252C63.5414 43.13 63.7979 43.2986 64.0383 43.2998L73.776 43.3475Z" fill="white"/>
</g>
<g opacity="0.6">
<path opacity="0.6" d="M63.7649 44.1049C63.5244 44.0994 63.3873 44.2626 63.4602 44.4676C63.533 44.6724 63.7895 44.841 64.0299 44.8422L73.7677 44.8902C74.0081 44.8914 74.2018 44.7674 74.1981 44.6148C74.1944 44.4622 73.9946 44.3328 73.7541 44.3276L63.7649 44.1049Z" fill="white"/>
</g>
<g opacity="0.6">
<path opacity="0.6" d="M63.7567 45.6696C63.5163 45.6642 63.3792 45.8276 63.4521 46.0324C63.5249 46.2372 63.7813 46.4058 64.0218 46.407L73.7595 46.455C74 46.4562 74.1937 46.3322 74.19 46.1796C74.1863 46.027 73.9864 45.8975 73.746 45.8924L63.7567 45.6696Z" fill="white"/>
</g>
<g opacity="0.6">
<path opacity="0.6" d="M74.7339 49.6906C74.9744 49.6919 75.1634 49.5678 75.1538 49.4152C75.1442 49.2626 74.9397 49.1351 74.6992 49.1322L51.0113 48.8339C50.7708 48.831 50.6977 48.9813 50.8491 49.1684L50.9032 49.2351C51.0546 49.4221 51.375 49.5759 51.6157 49.5772L74.7339 49.6906Z" fill="white"/>
</g>
<g opacity="0.6">
<path opacity="0.6" d="M51.0034 50.376C50.7629 50.3731 50.6898 50.5235 50.8412 50.7105L50.8954 50.7775C51.0467 50.9643 51.3672 51.1183 51.6079 51.1196L74.726 51.2333C74.9665 51.2345 75.1555 51.1105 75.1459 50.9579C75.1363 50.805 74.9318 50.6778 74.6913 50.6746L51.0034 50.376Z" fill="white"/>
</g>
<path d="M55.001 58.0851C54.9981 58.0851 54.9951 58.0853 54.9924 58.0853L51.8092 58.1402C51.3504 58.1481 50.9633 57.8508 50.9087 57.4486L50.5557 54.8565C50.5348 54.7022 50.5798 54.5482 50.6825 54.4224C50.7972 54.2819 50.9741 54.191 51.1681 54.1728C51.4361 54.148 51.805 54.1074 52.2108 54.0628C53.0946 53.9659 54.0961 53.8558 54.6855 53.833C54.6899 53.833 54.6941 53.8327 54.6986 53.8325C55.1204 53.8211 55.4905 54.0621 55.6013 54.4214C55.7842 55.0148 55.8014 56.1452 55.8036 57.3497C55.8043 57.7452 55.445 58.0735 55.001 58.0851ZM51.1929 54.4251C51.0689 54.4367 50.9569 54.493 50.8858 54.5802C50.8274 54.6515 50.8016 54.7382 50.8132 54.8236L51.1658 57.4156C51.2033 57.6903 51.4777 57.8931 51.8043 57.8877L54.9875 57.8328C54.9895 57.8328 54.9917 57.8326 54.9936 57.8326C55.2978 57.8244 55.544 57.6093 55.5437 57.3507C55.5415 56.1656 55.5252 55.0554 55.3525 54.4945C55.2759 54.2462 54.9939 54.0677 54.6958 54.0862C54.1158 54.1086 53.0754 54.223 52.2396 54.3146C51.8326 54.3591 51.4622 54.3998 51.1929 54.4251Z" fill="white"/>
<path opacity="0.6" d="M51.5421 54.6766C52.2094 54.6143 53.6585 54.432 54.3473 54.4054C54.6392 54.3941 54.9001 54.559 54.9757 54.8036C55.1221 55.2789 55.1312 56.2335 55.1329 57.1149C55.1334 57.3787 54.8905 57.596 54.5866 57.6012L52.0427 57.645C51.7299 57.6504 51.4644 57.4496 51.4277 57.1801L51.1459 55.1088C51.1166 54.8949 51.2948 54.6997 51.5421 54.6766Z" fill="white"/>
<g opacity="0.6">
<path opacity="0.6" d="M57.8948 55.3128C57.6544 55.3136 57.5143 55.5028 57.5837 55.7329L57.7944 56.4324C57.8638 56.6628 58.1173 56.8459 58.3575 56.8395L74.0293 56.4225C74.2697 56.4161 74.4565 56.2143 74.4442 55.9741L74.4299 55.6926C74.4179 55.4524 74.2111 55.2565 73.9704 55.2574L57.8948 55.3128Z" fill="white"/>
</g>
<path d="M51.6891 55.0807C51.9217 54.9395 52.2278 55.0118 52.3679 55.2412L53.0262 56.3199C53.0922 56.4279 53.2563 56.4166 53.306 56.3007L54.7682 52.8851C54.841 52.7148 55.1002 52.7648 55.1024 52.9494C55.1155 53.9818 54.8893 55.9512 53.2413 57.6383C53.2413 57.6383 52.298 57.31 51.501 55.7228C51.3859 55.4937 51.4668 55.2158 51.6891 55.0807Z" fill="url(#paint4_linear_809_203)"/>
<path d="M55.1873 64.7249C55.1844 64.7249 55.1814 64.7252 55.1785 64.7252L51.9952 64.7801C51.5365 64.7879 51.1493 64.4906 51.0947 64.0885L50.742 61.4967C50.7211 61.3424 50.7661 61.1883 50.8688 61.0625C50.9835 60.922 51.1604 60.8309 51.3544 60.813C51.6224 60.7881 51.9913 60.7475 52.3971 60.703C53.2807 60.606 54.2824 60.496 54.8718 60.4731C54.8762 60.4731 54.8804 60.4728 54.8848 60.4726C55.3067 60.4613 55.6768 60.7022 55.7876 61.0615C55.9705 61.6549 55.9877 62.7853 55.9899 63.9898C55.9906 64.3851 55.6316 64.7131 55.1873 64.7249ZM51.3795 61.0647C51.2554 61.0763 51.1434 61.1327 51.0723 61.2198C51.014 61.2912 50.9881 61.3778 50.9997 61.4634L51.3524 64.0553C51.3898 64.3299 51.6642 64.5327 51.9908 64.5271L55.174 64.4722C55.176 64.4722 55.1782 64.4722 55.1804 64.4719C55.4846 64.4638 55.7307 64.2487 55.7302 63.99C55.728 62.805 55.7118 61.6945 55.539 61.1339C55.4622 60.8853 55.1807 60.7103 54.8824 60.7256C54.3023 60.748 53.262 60.8622 52.4262 60.954C52.0189 60.999 51.6485 61.0394 51.3795 61.0647Z" fill="white"/>
<path opacity="0.6" d="M51.7284 61.3165C52.3957 61.2543 53.8448 61.0719 54.5336 61.0453C54.8255 61.034 55.0864 61.1989 55.162 61.4435C55.3084 61.9188 55.3175 62.8734 55.3192 63.7548C55.3197 64.0188 55.0768 64.2359 54.7729 64.2411L52.229 64.2849C51.9162 64.2903 51.6507 64.0897 51.614 63.82L51.3322 61.7487C51.3029 61.5348 51.4811 61.3397 51.7284 61.3165Z" fill="white"/>
<g opacity="0.6">
<path opacity="0.6" d="M58.0811 61.9527C57.8407 61.9535 57.7006 62.1427 57.77 62.3729L57.9807 63.0723C58.0501 63.3027 58.3036 63.4858 58.5441 63.4794L74.2158 63.0625C74.4563 63.0561 74.6431 62.8543 74.6308 62.6141L74.6165 62.3325C74.6044 62.0923 74.3977 61.8964 74.157 61.8974L58.0811 61.9527Z" fill="white"/>
</g>
<path d="M51.8754 61.7204C52.1077 61.5791 52.4141 61.6515 52.5542 61.8809L53.2125 62.9596C53.2785 63.0676 53.4426 63.0563 53.4923 62.9404L54.9545 59.5248C55.0274 59.3545 55.2865 59.4045 55.289 59.589C55.302 60.6215 55.0758 62.5909 53.4279 64.278C53.4279 64.278 52.4845 63.9497 51.6876 62.3625C51.5724 62.1334 51.6531 61.8555 51.8754 61.7204Z" fill="url(#paint5_linear_809_203)"/>
<path d="M55.0684 71.1086C55.0657 71.1086 55.0628 71.1089 55.0601 71.1089L51.8768 71.1638C51.4181 71.1719 51.031 70.8746 50.9763 70.4722L50.6236 67.8804C50.6027 67.726 50.6478 67.572 50.7504 67.4462C50.8651 67.3057 51.042 67.2149 51.236 67.1964C51.5037 67.1716 51.8722 67.1312 52.2775 67.0866C53.118 66.9944 54.1637 66.8797 54.7534 66.8568C55.1721 66.8437 55.5572 67.082 55.6692 67.4452C55.8521 68.0386 55.8693 69.169 55.8715 70.3735C55.872 70.7685 55.5124 71.0968 55.0684 71.1086ZM51.2606 67.4484C51.1365 67.46 51.0246 67.5166 50.9534 67.6037C50.8951 67.6753 50.8693 67.7617 50.8808 67.8471L51.2335 70.439C51.2709 70.7136 51.5453 70.9167 51.8719 70.9108L55.0552 70.8561C55.3549 70.8428 55.6116 70.6344 55.6114 70.374C55.6092 69.1889 55.5929 68.0787 55.4201 67.5178C55.3436 67.2695 55.0618 67.0975 54.7635 67.1095C54.1832 67.1319 53.1426 67.2461 52.3063 67.3379C51.8995 67.3825 51.5293 67.4231 51.2606 67.4484Z" fill="white"/>
<path opacity="0.6" d="M51.6098 67.7002C52.277 67.638 53.7261 67.4556 54.415 67.429C54.7069 67.4177 54.9678 67.5826 55.0433 67.8272C55.1898 68.3025 55.1989 69.2571 55.2006 70.1385C55.2011 70.4025 54.9582 70.6196 54.6542 70.6248L52.1104 70.6686C51.7976 70.674 51.5321 70.4734 51.4954 70.2037L51.2136 68.1324C51.1843 67.9183 51.3622 67.7231 51.6098 67.7002Z" fill="white"/>
<g opacity="0.6">
<path opacity="0.6" d="M57.9623 68.3364C57.7218 68.3372 57.5818 68.5264 57.6512 68.7565L57.8618 69.456C57.9312 69.6863 58.1847 69.8695 58.4252 69.8631L74.0969 69.4461C74.3374 69.4397 74.5242 69.2379 74.5119 68.9977L74.4976 68.7162C74.4856 68.476 74.2788 68.2801 74.0381 68.281L57.9623 68.3364Z" fill="white"/>
</g>
<path d="M51.7567 68.1041C51.9893 67.9628 52.2955 68.0352 52.4355 68.2645L53.0939 69.3432C53.1598 69.4513 53.324 69.44 53.3735 69.324L54.8356 65.9085C54.9085 65.7382 55.1676 65.7881 55.1699 65.9727C55.1829 67.0052 54.9567 68.9746 53.3087 70.6617C53.3087 70.6617 52.3654 70.3334 51.5685 68.7462C51.4535 68.517 51.5343 68.2392 51.7567 68.1041Z" fill="url(#paint6_linear_809_203)"/>
<path d="M54.8917 77.6931C54.8888 77.6931 54.8858 77.6934 54.8829 77.6934L51.6997 77.7483C51.2409 77.7561 50.8538 77.4588 50.7991 77.0567L50.4464 74.4646C50.4255 74.3105 50.4706 74.1562 50.5732 74.0305C50.6879 73.8899 50.8648 73.7989 51.0588 73.7809C51.3268 73.7561 51.6955 73.7154 52.1016 73.6709C52.9851 73.5739 53.9868 73.4639 54.5765 73.441C55.0089 73.4351 55.3803 73.6665 55.4923 74.0295C55.6751 74.6229 55.6923 75.7533 55.6946 76.9577C55.6951 77.3532 55.3357 77.6813 54.8917 77.6931ZM51.0836 74.0329C50.9596 74.0445 50.8476 74.1011 50.7765 74.188C50.7182 74.2596 50.6923 74.346 50.7039 74.4314L51.0566 77.0235C51.094 77.2981 51.3684 77.5009 51.695 77.4952L54.8782 77.4404C54.8802 77.4404 54.8824 77.4404 54.8844 77.4401C55.1886 77.432 55.4347 77.2169 55.4342 76.9582C55.432 75.7732 55.4157 74.6627 55.2429 74.1018C55.1664 73.8535 54.8846 73.6847 54.5863 73.6935C54.0062 73.7159 52.9659 73.8304 52.1301 73.9219C51.723 73.9672 51.3526 74.0078 51.0836 74.0329Z" fill="white"/>
<path opacity="0.6" d="M51.4329 74.2847C52.1001 74.2225 53.5492 74.0401 54.2381 74.0135C54.53 74.0022 54.7908 74.1671 54.8664 74.4117C55.0128 74.887 55.022 75.8416 55.0237 76.723C55.0242 76.987 54.7813 77.2041 54.4773 77.2093L51.9335 77.2531C51.6207 77.2585 51.3551 77.0577 51.3184 76.7882L51.0366 74.7169C51.0073 74.503 51.1855 74.3079 51.4329 74.2847Z" fill="white"/>
<g opacity="0.6">
<path opacity="0.6" d="M57.7853 74.9209C57.5449 74.9217 57.4048 75.1109 57.4742 75.341L57.6849 76.0405C57.7543 76.2708 58.0078 76.454 58.248 76.4476L73.9198 76.0306C74.1602 76.0242 74.347 75.8224 74.3347 75.5822L74.3204 75.3007C74.3084 75.0605 74.1016 74.8646 73.8609 74.8655L57.7853 74.9209Z" fill="white"/>
</g>
<path d="M51.5798 74.6889C51.8121 74.5476 52.1185 74.6202 52.2586 74.8493L52.9169 75.928C52.9829 76.0361 53.1471 76.0248 53.1965 75.9088L54.6587 72.4933C54.7315 72.323 54.9907 72.3729 54.9929 72.5575C55.0059 73.59 54.7798 75.5594 53.1318 77.2467C53.1318 77.2467 52.1884 76.9184 51.3915 75.3312C51.2766 75.1018 51.3573 74.824 51.5798 74.6889Z" fill="url(#paint7_linear_809_203)"/>
<path d="M26 82.0122L26.3621 32.1238C26.365 31.7167 26.6975 31.3891 27.1046 31.3921L62.9133 31.652C63.5965 31.6569 64.1463 32.2149 64.1414 32.8981L63.787 81.7176C63.7816 82.4547 63.1799 83.0478 62.4428 83.0424L26.7603 82.7835C26.3372 82.7803 25.9968 82.435 26 82.0122Z" fill="url(#paint8_linear_809_203)"/>
<path d="M62.6084 59.6889C62.5235 59.6889 62.4538 59.6205 62.4526 59.5354L62.3807 54.6843C62.3795 54.5981 62.4482 54.5275 62.5343 54.526C62.5351 54.526 62.5358 54.526 62.5368 54.526C62.6219 54.526 62.6913 54.5944 62.6926 54.6796L62.7644 59.5307C62.7657 59.6168 62.697 59.6875 62.6109 59.6889C62.6099 59.6889 62.6091 59.6889 62.6084 59.6889Z" fill="white"/>
<path d="M62.5156 53.4173C62.4304 53.4173 62.361 53.3488 62.3598 53.2637L62.2193 43.7649C62.218 43.6788 62.2867 43.6082 62.3728 43.6067C62.3736 43.6067 62.3746 43.6067 62.3753 43.6067C62.4605 43.6067 62.5299 43.6751 62.5311 43.7603L62.6716 53.259C62.6729 53.3451 62.6042 53.4158 62.5181 53.4173C62.5171 53.4173 62.5163 53.4173 62.5156 53.4173Z" fill="white"/>
<path d="M62.3239 40.456C62.2387 40.456 62.1693 40.3875 62.1681 40.3024L62.0864 34.7894C62.075 34.0322 61.3429 33.4097 60.4539 33.4019L55.4236 33.3576C55.3375 33.3568 55.2683 33.2864 55.269 33.2003C55.2698 33.1141 55.3411 33.046 55.4263 33.0457L60.4566 33.09C61.5134 33.0994 62.3842 33.8596 62.3979 34.7848L62.4797 40.2975C62.4809 40.3836 62.4122 40.4542 62.3261 40.4557C62.3253 40.456 62.3246 40.456 62.3239 40.456Z" fill="white"/>
<path d="M31.3387 52.1178C31.3759 50.6596 32.5882 49.5075 34.0464 49.5447L56.5006 50.1171C57.7393 50.1486 58.736 51.1456 58.7675 52.3843L59.595 84.981C59.6196 85.9505 58.8367 86.7476 57.867 86.7405L32.1196 86.5522C31.2085 86.5456 30.48 85.7927 30.5031 84.8819L31.3387 52.1178Z" fill="url(#paint9_linear_809_203)"/>
<path d="M35.895 86.0986C35.8948 86.0986 35.8945 86.0986 35.8943 86.0986L33.0155 85.9879C32.0507 85.9507 31.2858 85.1354 31.3104 84.1701L31.4212 79.8225C31.4221 79.7863 31.4522 79.7575 31.4886 79.7585C31.5248 79.7595 31.5536 79.7895 31.5526 79.8259L31.4418 84.1735C31.4189 85.0672 32.1272 85.8223 33.0206 85.8567L35.8994 85.9675C35.9356 85.9689 35.9639 85.9995 35.9627 86.0356C35.961 86.0716 35.9309 86.0996 35.895 86.0986Z" fill="white"/>
<path d="M31.5193 78.5432C31.4832 78.5422 31.4544 78.5122 31.4554 78.4758L31.4733 77.7717C31.4743 77.7355 31.5043 77.7067 31.5408 77.7077C31.5769 77.7087 31.6057 77.7389 31.6047 77.7751L31.5868 78.4792C31.586 78.5154 31.5558 78.5442 31.5193 78.5432C31.5193 78.5432 31.5196 78.5432 31.5193 78.5432Z" fill="white"/>
<path d="M33.2328 50.0253C33.2419 49.5587 33.6615 49.208 34.1222 49.2826C37.178 49.7765 47.6895 51.3315 56.4245 50.8845C56.823 50.8641 57.1602 51.1742 57.1712 51.5729L58.0755 84.3168C58.0878 84.7657 57.7358 85.1405 57.2869 85.1555C53.6149 85.2791 38.4932 85.7329 33.1216 85.0315C32.7947 84.9889 32.5528 84.7063 32.5592 84.3768L33.2328 50.0253Z" fill="url(#paint10_linear_809_203)"/>
<path opacity="0.6" d="M33.5729 50.854C33.5818 50.4048 33.9854 50.0674 34.4289 50.1393C37.3695 50.6148 47.4852 52.1109 55.8912 51.6809C56.2747 51.6612 56.5993 51.9598 56.6099 52.3435L57.4801 83.8543C57.4919 84.2865 57.153 84.6471 56.7211 84.6616C53.1872 84.7805 38.6352 85.2173 33.4659 84.5422C33.1513 84.5011 32.9185 84.2294 32.9247 83.9122L33.5729 50.854Z" fill="white"/>
<path opacity="0.78" d="M36.2427 53.3496L36.3843 60.1042C36.3889 60.3289 36.5656 60.5117 36.7901 60.5238C38.0386 60.591 41.9297 60.7851 44.1309 60.7266C44.38 60.7199 44.5818 60.5238 44.5963 60.2752C44.6704 59.0112 44.8562 55.3308 44.6072 53.7842C44.567 53.5344 44.3578 53.3466 44.1053 53.3314L36.7269 52.8849C36.4603 52.8687 36.2373 53.0833 36.2427 53.3496Z" fill="white"/>
<path d="M40.4309 57.3209C41.2321 57.3209 41.8817 56.6713 41.8817 55.87C41.8817 55.0688 41.2321 54.4192 40.4309 54.4192C39.6296 54.4192 38.98 55.0688 38.98 55.87C38.98 56.6713 39.6296 57.3209 40.4309 57.3209Z" fill="url(#paint11_linear_809_203)"/>
<path d="M38.1194 60.0719L42.7397 60.1898C43.0229 60.1969 43.2006 59.8886 43.0542 59.6459C42.6774 59.0217 41.8792 58.0986 40.4562 58.1033C39.0846 58.1074 38.2515 58.9016 37.8282 59.4758C37.6486 59.7192 37.8169 60.064 38.1194 60.0719Z" fill="url(#paint12_linear_809_203)"/>
<g opacity="0.6">
<path opacity="0.6" d="M54.6346 54.4061C54.8177 54.4108 54.967 54.3126 54.9668 54.1881C54.9663 54.0636 54.8162 53.955 54.6331 53.9471L46.6782 53.6023C46.4951 53.5945 46.39 53.7256 46.4444 53.8937C46.4988 54.0621 46.6932 54.2034 46.8763 54.208L54.6346 54.4061Z" fill="white"/>
</g>
<g opacity="0.6">
<path opacity="0.6" d="M46.646 54.8602C46.4629 54.8523 46.3578 54.9835 46.4122 55.1516C46.4665 55.32 46.661 55.4612 46.8441 55.4659L54.6023 55.6638C54.7854 55.6684 54.9348 55.5702 54.9346 55.4457C54.9343 55.3212 54.7839 55.2126 54.6008 55.2048L46.646 54.8602Z" fill="white"/>
</g>
<g opacity="0.6">
<path opacity="0.6" d="M46.6135 56.1363C46.4304 56.1284 46.3253 56.2596 46.3797 56.4277C46.4341 56.5961 46.6285 56.7373 46.8116 56.742L54.5698 56.9399C54.7529 56.9446 54.9023 56.8464 54.9021 56.7218C54.9016 56.5973 54.7514 56.4888 54.5683 56.4809L46.6135 56.1363Z" fill="white"/>
</g>
<g opacity="0.6">
<path opacity="0.6" d="M55.1996 63.1134C55.3827 63.1181 55.5284 63.0199 55.5235 62.8951C55.5183 62.7703 55.3645 62.6635 55.1814 62.6574L36.3528 62.0288C36.1697 62.0226 36.1101 62.1373 36.2206 62.2835L36.2863 62.3706C36.3968 62.5168 36.637 62.6404 36.8201 62.6448L55.1996 63.1134Z" fill="white"/>
</g>
<g opacity="0.6">
<path opacity="0.6" d="M36.3205 63.2864C36.1374 63.2803 36.0779 63.3949 36.1884 63.5411L36.2541 63.6283C36.3646 63.7745 36.6048 63.898 36.7879 63.9024L55.1674 64.371C55.3505 64.3757 55.4962 64.2775 55.4913 64.1527C55.4863 64.028 55.3323 63.9211 55.1492 63.915L36.3205 63.2864Z" fill="white"/>
</g>
<path d="M38.6059 68.2092C38.6047 68.2092 38.6032 68.2092 38.602 68.2092L37.001 68.153C36.7702 68.1449 36.5836 67.981 36.5671 67.7718L36.4606 66.4248C36.4542 66.3446 36.481 66.2661 36.5361 66.2038C36.5976 66.1342 36.6892 66.0918 36.7872 66.0877C36.9223 66.082 37.1125 66.0704 37.3141 66.0586C37.7608 66.032 38.2668 66.0018 38.5636 66.0057C38.7787 66.0089 38.9616 66.1435 39.0081 66.334C39.0839 66.6453 39.0615 67.2291 39.0297 67.8508C39.0196 68.0551 38.8296 68.2151 38.6059 68.2092ZM36.7928 66.2188C36.7303 66.2215 36.6725 66.2476 36.6346 66.2907C36.6033 66.3259 36.588 66.3697 36.5915 66.4142L36.6981 67.7612C36.7094 67.9037 36.8415 68.0157 37.0057 68.0214L38.6064 68.0775C38.6074 68.0775 38.6084 68.0775 38.6094 68.0775C38.7625 68.0817 38.8919 67.9773 38.8988 67.8437C38.9301 67.2321 38.9522 66.6586 38.8806 66.3645C38.8493 66.2358 38.7179 66.1408 38.567 66.1366C38.5653 66.1366 38.5638 66.1366 38.5621 66.1366C38.27 66.1329 37.7445 66.1642 37.3222 66.1893C37.1201 66.2016 36.9292 66.2132 36.7928 66.2188Z" fill="white"/>
<g opacity="0.6">
<path opacity="0.6" d="M40.2492 66.8533C40.0661 66.8482 39.9507 66.9897 39.993 67.1681L40.0302 67.3254C40.0723 67.5036 40.2569 67.6517 40.44 67.6544L54.826 67.8705C55.0091 67.8732 55.1595 67.741 55.1602 67.5766C55.1607 67.4122 55.0116 67.2734 54.8282 67.2683L40.2492 66.8533Z" fill="white"/>
</g>
<path d="M37.0242 66.57C37.1448 66.5033 37.2969 66.5489 37.3608 66.6709L37.6623 67.2451C37.6926 67.3025 37.7753 67.3012 37.8034 67.2427L38.6313 65.5187C38.6726 65.4328 38.8013 65.4652 38.7974 65.5607C38.7757 66.0941 38.6084 67.1044 37.7344 67.9315C37.7344 67.9315 37.2693 67.7369 36.9122 66.8966C36.8607 66.7753 36.9087 66.634 37.0242 66.57Z" fill="url(#paint13_linear_809_203)"/>
<path d="M38.5186 71.641C38.5173 71.641 38.5159 71.641 38.5146 71.641L36.9137 71.5849C36.6828 71.5768 36.4963 71.4129 36.4798 71.2037L36.3732 69.8567C36.3668 69.7764 36.3936 69.6979 36.4488 69.6357C36.5103 69.566 36.6018 69.5239 36.6998 69.5195C36.8349 69.5138 37.0254 69.5023 37.227 69.4904C37.6734 69.4639 38.1797 69.4336 38.4765 69.4375C38.6913 69.441 38.8744 69.5753 38.921 69.7658C38.9968 70.0772 38.9744 70.661 38.9426 71.2827C38.932 71.4869 38.7423 71.6469 38.5186 71.641ZM36.7055 69.6507C36.6429 69.6534 36.5853 69.6795 36.5472 69.7225C36.5159 69.7577 36.5007 69.8018 36.5041 69.8461L36.6107 71.1931C36.622 71.3356 36.7542 71.4476 36.9183 71.4532L38.5193 71.5093C38.5203 71.5093 38.5213 71.5093 38.5223 71.5093C38.6753 71.5135 38.8048 71.4092 38.8117 71.2758C38.8429 70.6642 38.8651 70.0907 38.7935 69.7966C38.7622 69.6679 38.6308 69.5729 38.4799 69.5687C38.4782 69.5687 38.4767 69.5687 38.475 69.5687C38.1831 69.565 37.6574 69.5963 37.2351 69.6214C37.0325 69.6337 36.8416 69.645 36.7055 69.6507Z" fill="white"/>
<path opacity="0.6" d="M36.874 69.7895C37.211 69.7749 37.9439 69.7196 38.2909 69.724C38.4378 69.726 38.5646 69.818 38.5956 69.9462C38.6561 70.1953 38.6347 70.6883 38.6116 71.1433C38.6047 71.2797 38.4767 71.3853 38.3239 71.3798L37.0446 71.3348C36.8873 71.3294 36.7593 71.2186 36.7483 71.0786L36.6631 70.0021C36.6543 69.8909 36.749 69.7949 36.874 69.7895Z" fill="white"/>
<g opacity="0.6">
<path opacity="0.6" d="M40.1616 70.2854C39.9785 70.2802 39.8631 70.4217 39.9054 70.6002L39.9426 70.7574C39.9847 70.9356 40.1692 71.0838 40.3523 71.0865L54.7384 71.3026C54.9215 71.3053 55.0719 71.1731 55.0726 71.0087C55.0731 70.8443 54.924 70.7055 54.7406 70.7003L40.1616 70.2854Z" fill="white"/>
</g>
<path d="M38.4309 75.0728C38.4297 75.0728 38.4282 75.0728 38.427 75.0728L36.8263 75.0167C36.5954 75.0085 36.4089 74.8446 36.3924 74.6354L36.2858 73.2885C36.2794 73.2082 36.3062 73.1297 36.3614 73.0674C36.4229 72.9978 36.5145 72.9557 36.6124 72.9515C36.7473 72.9456 36.9373 72.9343 37.1386 72.9225C37.5634 72.8971 38.092 72.8656 38.3891 72.8696C38.604 72.8713 38.7873 73.0074 38.8336 73.1979C38.9091 73.509 38.887 74.093 38.8552 74.7147C38.8447 74.9187 38.6547 75.0787 38.4309 75.0728ZM38.3921 73.0007C38.3903 73.0007 38.3889 73.0007 38.3871 73.0007C38.095 72.9968 37.5688 73.0283 37.1462 73.0534C36.9444 73.0655 36.7539 73.0768 36.6178 73.0827C36.5553 73.0854 36.4977 73.1115 36.4596 73.1546C36.4283 73.1898 36.4131 73.2336 36.4165 73.2781L36.5231 74.6253C36.5344 74.7678 36.6666 74.8798 36.8307 74.8855L38.4314 74.9416C38.4324 74.9416 38.4334 74.9416 38.4344 74.9416C38.5875 74.9458 38.7169 74.8414 38.7238 74.708C38.7551 74.0962 38.7772 73.5228 38.7056 73.2289C38.6743 73.0999 38.5429 73.0047 38.3921 73.0007Z" fill="white"/>
<path opacity="0.6" d="M36.7864 73.2215C37.1233 73.207 37.8563 73.1516 38.2033 73.156C38.3502 73.158 38.477 73.2501 38.508 73.3783C38.5685 73.6274 38.5471 74.1206 38.524 74.5754C38.5171 74.7117 38.3891 74.8173 38.2363 74.8119L36.957 74.7671C36.7997 74.7617 36.6717 74.6509 36.6606 74.5109L36.5755 73.4344C36.5666 73.3227 36.6616 73.2267 36.7864 73.2215Z" fill="white"/>
<g opacity="0.6">
<path opacity="0.6" d="M40.0742 73.7172C39.8911 73.712 39.7757 73.8535 39.818 74.032L39.8552 74.1892C39.8973 74.3674 40.0819 74.5156 40.265 74.5183L54.651 74.7344C54.8341 74.7371 54.9845 74.6049 54.9853 74.4405C54.9858 74.2761 54.8366 74.1373 54.6535 74.1321L40.0742 73.7172Z" fill="white"/>
</g>
<path d="M38.3436 78.5048C38.3423 78.5048 38.3409 78.5048 38.3396 78.5048L36.7389 78.4487C36.5081 78.4406 36.3215 78.2767 36.305 78.0675L36.1985 76.7203C36.1921 76.64 36.2189 76.5615 36.274 76.4993C36.3355 76.4296 36.4271 76.3875 36.525 76.3833C36.6599 76.3774 36.8499 76.3661 37.051 76.3543C37.4758 76.3289 38.0044 76.2974 38.3015 76.3014C38.5149 76.3041 38.6995 76.4392 38.746 76.6297C38.8218 76.9408 38.7994 77.5248 38.7676 78.1465C38.757 78.3505 38.5673 78.5107 38.3436 78.5048ZM38.3047 76.4328C38.303 76.4328 38.3015 76.4328 38.2998 76.4328C38.0074 76.4289 37.4814 76.4604 37.0586 76.4855C36.8568 76.4975 36.6663 76.5089 36.5305 76.5148C36.4679 76.5175 36.4104 76.5436 36.3722 76.5866C36.341 76.6218 36.3257 76.6659 36.3291 76.7102L36.4357 78.0574C36.447 78.1999 36.5792 78.3116 36.7433 78.3175L38.3441 78.3736C38.3451 78.3736 38.346 78.3736 38.347 78.3736C38.5001 78.3778 38.6296 78.2735 38.6365 78.1401C38.6677 77.5283 38.6899 76.9548 38.6182 76.661C38.5867 76.5317 38.4556 76.4367 38.3047 76.4328Z" fill="white"/>
<path opacity="0.6" d="M36.699 76.6533C37.036 76.6388 37.7689 76.5834 38.1159 76.5879C38.2628 76.5898 38.3896 76.6819 38.4206 76.8101C38.4811 77.0592 38.4597 77.5521 38.4366 78.0072C38.4297 78.1435 38.3017 78.2491 38.1489 78.2437L36.8696 78.1989C36.7123 78.1935 36.5844 78.0827 36.5733 77.9427L36.4881 76.8662C36.4793 76.7547 36.574 76.6587 36.699 76.6533Z" fill="white"/>
<g opacity="0.6">
<path opacity="0.6" d="M39.9866 77.149C39.8035 77.1438 39.6881 77.2853 39.7304 77.4637L39.7676 77.621C39.8097 77.7992 39.9943 77.9474 40.1774 77.9501L54.5634 78.1662C54.7465 78.1689 54.8969 78.0367 54.8976 77.8723C54.8981 77.7079 54.749 77.5691 54.5656 77.5639L39.9866 77.149Z" fill="white"/>
</g>
<path d="M46.7791 45.4277C45.9824 44.8427 45.2768 44.836 44.7767 44.9697C44.3204 45.0918 44.0158 45.5215 44.0468 45.9928L44.2013 48.335L46.7432 48.6262C46.7434 48.6264 48.3417 46.5748 46.7791 45.4277ZM45.6108 47.2844C45.2599 47.2755 44.9827 46.9839 44.9918 46.6329C45.0007 46.2819 45.2923 46.0048 45.6433 46.0139C45.9943 46.0228 46.2714 46.3144 46.2623 46.6654C46.2532 47.0161 45.9615 47.2935 45.6108 47.2844Z" fill="url(#paint14_linear_809_203)"/>
<path d="M44.4809 47.3629C44.4474 47.3619 44.4194 47.3355 44.4172 47.3016L44.3925 46.9285C44.3901 46.8923 44.4177 46.861 44.4538 46.8586C44.49 46.8561 44.5213 46.8837 44.5237 46.9199L44.5483 47.293C44.5508 47.3291 44.5232 47.3604 44.4871 47.3629C44.4848 47.3629 44.4829 47.3631 44.4809 47.3629ZM44.4327 46.6319C44.3992 46.6309 44.3711 46.6046 44.3689 46.5706L44.3502 46.2873C44.3204 45.8362 44.6143 45.4245 45.0487 45.3083C45.3556 45.2261 45.6701 45.2212 45.9829 45.2938C46.0184 45.3019 46.0403 45.3373 46.0322 45.3725C46.024 45.408 45.9883 45.4299 45.9534 45.4218C45.6615 45.3541 45.3689 45.3588 45.0829 45.4353C44.7088 45.5355 44.4558 45.8901 44.4816 46.2787L44.5003 46.562C44.5028 46.5982 44.4752 46.6294 44.4391 46.6319C44.4366 46.6319 44.4346 46.6319 44.4327 46.6319Z" fill="white"/>
<path d="M40.6858 49.7568L40.7159 48.5819C40.7262 48.1763 41.0708 47.86 41.4756 47.8844L49.569 48.3685C49.9281 48.3899 50.2121 48.6811 50.2244 49.0409L50.2633 50.1715L40.6858 49.7568Z" fill="url(#paint15_linear_809_203)"/>
<path d="M43.3948 48.3806C43.3586 48.3796 43.3298 48.3496 43.3308 48.3131C43.3318 48.2767 43.3618 48.2481 43.3983 48.2491L43.7468 48.258C43.7829 48.259 43.8117 48.2892 43.8108 48.3254C43.8098 48.3616 43.7797 48.3904 43.7433 48.3894L43.3948 48.3806Z" fill="white"/>
<path d="M41.1335 49.4034C41.0973 49.4024 41.0685 49.3724 41.0695 49.336L41.0816 48.8607C41.0909 48.4911 41.3993 48.1982 41.769 48.2076L43.0498 48.2403C43.0859 48.2413 43.1147 48.2713 43.1138 48.3077C43.1128 48.3439 43.0827 48.3727 43.0463 48.3717L41.7655 48.339C41.4685 48.3313 41.2206 48.5669 41.213 48.8639L41.201 49.3392C41.2 49.3756 41.1699 49.4042 41.1335 49.4034Z" fill="white"/>
<path d="M38.1585 49.2621L52.3238 49.6229C52.8332 49.636 53.2593 50.0135 53.3334 50.5175L53.3437 50.5872C53.4249 51.1395 52.9888 51.6315 52.4309 51.6172L37.8981 51.2468C37.5641 51.2382 37.3052 50.9524 37.3298 50.6192L37.3776 49.9695C37.4076 49.5631 37.7512 49.2518 38.1585 49.2621Z" fill="url(#paint16_linear_809_203)"/>
<path d="M68.4772 90.6389C69.1166 90.6943 70.2261 90.7839 71.101 90.8225C71.627 90.8457 71.9297 90.7942 72.1039 90.7243C72.1037 90.744 72.103 90.7625 72.1022 90.7797C72.098 90.8718 72.0232 90.9453 71.9304 90.9505C70.2775 91.0428 68.963 90.9825 68.4949 90.954C68.3982 90.948 68.3404 90.843 68.3901 90.7605C68.4147 90.7194 68.4447 90.6788 68.4772 90.6389Z" fill="url(#paint17_linear_809_203)"/>
<path d="M71.101 90.8225C70.2263 90.7842 69.1166 90.6943 68.4772 90.6389C69.1058 89.8676 71.101 89.3478 71.101 89.3478H71.6646C72.0523 89.9065 72.1084 90.4384 72.1042 90.7241C71.9294 90.794 71.6267 90.8457 71.101 90.8225Z" fill="url(#paint18_linear_809_203)"/>
<path d="M71.7594 88.4281L71.7067 89.4716C71.7011 89.5846 71.6164 89.6796 71.5032 89.6958C71.3907 89.7118 71.2398 89.7141 71.0799 89.6609C70.9814 89.6282 70.9086 89.5452 70.8904 89.4441L70.7082 88.4283H71.7594V88.4281Z" fill="url(#paint19_linear_809_203)"/>
<path d="M79.0783 90.8147C79.3557 90.7761 79.4809 90.6321 79.5336 90.478C79.5338 90.4795 79.5343 90.4807 79.5346 90.4822C79.5754 90.6447 79.4809 90.813 79.2917 90.893C79.0633 90.9897 78.8132 91.0062 78.6193 90.9983C78.4111 90.9897 78.2201 90.9036 78.1152 90.7657L78.1138 90.7638C78.3227 90.8669 78.6158 90.8792 79.0783 90.8147Z" fill="url(#paint20_linear_809_203)"/>
<path d="M77.7712 88.4212H78.2359C78.9437 88.4067 79.3882 89.8996 79.5336 90.478C79.481 90.6321 79.3557 90.776 79.0783 90.8147C78.6159 90.8792 78.3227 90.8671 78.1138 90.7637C77.7313 90.2604 77.5418 89.5236 77.4508 89.0934C77.3471 88.6041 77.7712 88.4212 77.7712 88.4212Z" fill="url(#paint21_linear_809_203)"/>
<path d="M78.176 87.4528L78.434 88.4791C78.4657 88.6048 78.4054 88.735 78.289 88.7948C78.1445 88.8689 77.9415 88.9467 77.7547 88.9243C77.6668 88.9137 77.5937 88.8519 77.5649 88.769L77.1862 87.6893L78.176 87.4528Z" fill="url(#paint22_linear_809_203)"/>
<path d="M78.4839 87.7493C78.163 88.0341 77.1188 88.0717 77.1188 88.0717C73.3572 79.0436 71.8185 77.7611 71.8185 77.7611C72.3616 81.1688 71.9061 88.7126 71.9061 88.7126C71.2854 88.9866 70.485 88.7126 70.485 88.7126C70.4346 83.134 69.5771 78.2688 68.5641 74.4331C71.1065 74.376 72.4584 73.506 72.8999 73.1568C75.0192 76.5736 78.4839 87.7493 78.4839 87.7493Z" fill="url(#paint23_linear_809_203)"/>
<path d="M72.2543 62.7747C72.7355 65.1751 72.5629 69.471 72.4497 71.4306C72.418 71.9814 72.8024 72.7448 73.1133 73.2658C73.162 73.3475 73.132 73.4521 73.0473 73.4957C72.527 73.7632 70.7643 74.5919 68.7216 74.695C68.5853 74.7019 68.4637 74.6091 68.4285 74.4774C66.9132 68.8193 65.153 65.2036 65.153 65.2036C67.096 62.1006 72.2543 62.7747 72.2543 62.7747Z" fill="url(#paint24_linear_809_203)"/>
<path d="M71.5618 77.5474C71.5832 77.5474 71.6048 77.5418 71.6243 77.5297C71.6811 77.495 71.6991 77.4209 71.6644 77.3643C71.6442 77.3311 71.1576 76.5445 70.1729 76.0695C70.1131 76.0407 70.041 76.0656 70.012 76.1256C69.9832 76.1855 70.0083 76.2576 70.0681 76.2864C70.9861 76.7294 71.4537 77.482 71.4584 77.4896C71.4815 77.5268 71.5211 77.5474 71.5618 77.5474Z" fill="url(#paint25_linear_809_203)"/>
<path d="M75.2727 69.6634C75.1181 70.7815 74.6613 72.0013 73.7477 73.2968L73.4005 73.0138C73.4005 73.0138 73.8014 71.3872 73.5735 69.5414C74.1371 69.4314 74.8026 69.5446 75.2727 69.6634Z" fill="url(#paint26_linear_809_203)"/>
<path d="M71.7168 65.7365L72.2543 62.7747C72.2543 62.7747 75.8456 65.5199 75.2726 69.6635C74.8026 69.5446 74.1371 69.4314 73.5735 69.5411C73.4093 68.2116 72.9188 66.7679 71.7168 65.7365Z" fill="url(#paint27_linear_809_203)"/>
<path d="M65.1527 65.2036L66.5388 68.189C66.3146 69.9913 65.3464 70.7707 64.3024 71.0695C64.2374 70.248 64.0297 69.5845 63.837 69.1255C65.1709 67.7482 65.1527 65.2036 65.1527 65.2036Z" fill="url(#paint28_linear_809_203)"/>
<path d="M63.8372 69.1255C64.0299 69.5845 64.2377 70.2482 64.3026 71.0695C61.5174 72.1502 60.7805 70.0543 60.7805 70.0543L61.2954 69.9635C62.4578 70.086 63.2697 69.7112 63.8372 69.1255Z" fill="url(#paint29_linear_809_203)"/>
<path d="M66.43 61.5181L67.0992 63.9782C67.1743 64.2546 67.4733 64.403 67.7394 64.2967C68.0263 64.182 68.3906 64.0255 68.7039 63.8562C69.0386 63.6755 69.1432 63.2451 68.9313 62.9293L67.54 60.8548L66.43 61.5181Z" fill="url(#paint30_linear_809_203)"/>
<path d="M59.5039 68.4083L76.6519 74.6495C77.371 74.9111 77.7148 75.7301 77.3981 76.4269L77.3461 76.5413C77.0658 77.1578 76.3373 77.4281 75.7228 77.1438L59.0725 69.4412L59.5039 68.4083Z" fill="url(#paint31_linear_809_203)"/>
<path opacity="0.29" d="M51.6221 72.9663C56.2973 72.9663 60.0872 69.2448 60.0872 64.6541C60.0872 60.0633 56.2973 56.3418 51.6221 56.3418C46.947 56.3418 43.1571 60.0633 43.1571 64.6541C43.1571 69.2448 46.947 72.9663 51.6221 72.9663Z" fill="url(#paint32_linear_809_203)"/>
<path d="M42.2029 64.6541C42.2029 69.7624 46.42 73.9035 51.6222 73.9035C56.8243 73.9035 61.0414 69.7624 61.0414 64.6541C61.0414 59.5457 56.8243 55.4046 51.6222 55.4046C46.42 55.4046 42.2029 59.5457 42.2029 64.6541ZM43.5865 64.6541C43.5865 60.2961 47.1842 56.7634 51.6222 56.7634C56.0601 56.7634 59.6578 60.2961 59.6578 64.6541C59.6578 69.012 56.0601 72.5447 51.6222 72.5447C47.1842 72.5447 43.5865 69.0117 43.5865 64.6541Z" fill="url(#paint33_linear_809_203)"/>
<path d="M60.3252 65.7894C60.323 65.7894 60.3208 65.7891 60.3183 65.7889C60.2893 65.7852 60.2688 65.7586 60.2725 65.7296C60.3001 65.514 60.3195 65.2937 60.3304 65.0754C60.3318 65.0461 60.3572 65.0232 60.3857 65.0252C60.415 65.0267 60.4374 65.0515 60.4359 65.0806C60.4251 65.3016 60.4054 65.5246 60.3774 65.7429C60.3742 65.7699 60.3515 65.7894 60.3252 65.7894ZM60.2605 63.203C60.2354 63.203 60.213 63.185 60.2085 63.1594C60.1034 62.5727 59.9346 61.9955 59.7072 61.444C59.7072 61.444 59.7072 61.4438 59.707 61.4435C58.3669 58.1933 55.1935 56.0933 51.6219 56.0933C49.9562 56.0933 48.3373 56.5559 46.9396 57.4314C46.9147 57.4469 46.8822 57.4395 46.8667 57.4146C46.8512 57.3898 46.8586 57.3573 46.8835 57.3418C48.2981 56.456 49.9365 55.9877 51.6219 55.9877C55.2366 55.9877 58.4486 58.1136 59.8049 61.4039V61.4041C60.035 61.9626 60.2058 62.5468 60.3124 63.1409C60.3176 63.1697 60.2984 63.1973 60.2696 63.2025C60.2666 63.2027 60.2637 63.203 60.2605 63.203Z" fill="white"/>
<path d="M64.9659 59.6489C64.9598 59.6912 65.5241 62.4563 65.5241 62.4563L67.096 62.1006L66.9506 59.4005C66.9506 59.4003 65.0678 58.9418 64.9659 59.6489Z" fill="url(#paint34_linear_809_203)"/>
<path d="M66.5969 60.002L66.7847 61.4174C66.7871 61.4356 66.7871 61.4536 66.7844 61.4716C66.7687 61.5826 66.686 61.9603 66.3047 61.8523C65.9587 61.7543 65.6415 61.6699 65.4224 61.7371C65.324 61.7671 65.2647 61.8668 65.2854 61.9677C65.3368 62.219 65.4628 62.7828 65.6471 63.2561C65.6845 63.3521 65.7896 63.4026 65.8886 63.3738C66.1866 63.2869 66.8103 63.0861 67.2742 62.8067C67.3369 62.7688 67.3746 62.7006 67.3714 62.6273C67.3564 62.2699 67.3145 61.1839 67.3497 60.8794C67.3827 60.5937 67.7334 60.4224 67.8858 60.3611C67.9357 60.3409 67.9749 60.3015 67.9948 60.2516C68.0654 60.0749 68.1626 59.6656 67.647 59.4977C67.5392 59.4625 67.4822 59.3464 67.5205 59.2396C67.5968 59.0269 67.6291 58.7025 67.2301 58.5236C66.8245 58.342 66.5218 58.5581 66.3584 58.7338C66.2922 58.8049 66.1861 58.8158 66.1042 58.7638C66.0574 58.7343 65.9974 58.7247 65.9245 58.77C65.8266 58.831 65.6969 58.7894 65.6464 58.6856C65.5492 58.4862 65.3513 58.2728 64.9543 58.3408C64.25 58.4614 64.1702 59.242 64.356 59.6993C64.5418 60.1568 65.2981 59.9826 65.6777 59.752C65.9661 59.5765 66.3402 59.7603 66.5031 59.8585C66.5548 59.8893 66.589 59.9422 66.5969 60.002Z" fill="url(#paint35_linear_809_203)"/>
<path d="M67.4133 61.3953C67.4133 61.3953 67.1236 60.5843 67.4211 60.3857C67.7187 60.1871 68.1592 60.2902 68.0623 60.8777C67.9417 61.6084 67.4133 61.3953 67.4133 61.3953Z" fill="url(#paint36_linear_809_203)"/>
<path d="M73.5437 72.9646L71.9226 72.8324L71.2204 73.4794C71.2204 73.4794 71.3865 73.7091 71.9058 73.5771C72.4251 73.4452 73.1364 73.4127 73.1364 73.4127C73.1364 73.4127 73.8533 73.7359 73.8619 73.1312L73.5437 72.9646Z" fill="url(#paint37_linear_809_203)"/>
<path d="M60.987 70.438C60.8467 70.5475 60.3665 70.3188 60.0727 70.1608C59.9294 70.0838 59.86 69.9162 59.9093 69.7612C59.9799 69.5382 60.0978 69.2502 60.243 69.2138C60.4837 69.1535 61.5646 69.9866 60.987 70.438Z" fill="url(#paint38_linear_809_203)"/>
<path d="M76.3134 76.8933C76.2915 76.8933 76.2711 76.8795 76.2635 76.8576C76.2539 76.83 76.2686 76.7997 76.2962 76.7904C76.7845 76.6216 77.0402 76.3476 77.0565 75.9765C77.0727 75.6007 76.835 75.2512 76.465 75.107L74.4061 74.3042C74.3788 74.2936 74.3655 74.2628 74.376 74.2357C74.3866 74.2084 74.4174 74.1951 74.4445 74.2057L76.5034 75.0085C76.9157 75.1692 77.1803 75.5601 77.162 75.9812C77.1438 76.4 76.8642 76.706 76.3309 76.8906C76.325 76.8923 76.3191 76.8933 76.3134 76.8933Z" fill="white"/>
<path d="M73.7908 74.0603C73.7844 74.0603 73.7777 74.059 73.7716 74.0566L73.5048 73.9525C73.4775 73.9419 73.4642 73.9111 73.4748 73.8841C73.4854 73.8567 73.5161 73.8432 73.5432 73.854L73.81 73.9581C73.8373 73.9687 73.8506 73.9995 73.84 74.0266C73.8319 74.0475 73.8119 74.0603 73.7908 74.0603Z" fill="white"/>
<defs>
<linearGradient id="paint0_linear_809_203" x1="85.7441" y1="-1.94281" x2="39.7949" y2="69.0385" gradientUnits="userSpaceOnUse">
<stop stop-color="#FDF53F"/>
<stop offset="1" stop-color="#D93C65"/>
</linearGradient>
<linearGradient id="paint1_linear_809_203" x1="92.6735" y1="21.4877" x2="48.7414" y2="135.251" gradientUnits="userSpaceOnUse">
<stop stop-color="#53D8FF"/>
<stop offset="1" stop-color="#3840F7"/>
</linearGradient>
<linearGradient id="paint2_linear_809_203" x1="57.3301" y1="80.4519" x2="104.308" y2="8.09886" gradientUnits="userSpaceOnUse">
<stop stop-color="#53D8FF"/>
<stop offset="1" stop-color="#3840F7"/>
</linearGradient>
<linearGradient id="paint3_linear_809_203" x1="46.2573" y1="79.3052" x2="102.322" y2="11.4097" gradientUnits="userSpaceOnUse">
<stop stop-color="#53D8FF"/>
<stop offset="1" stop-color="#3840F7"/>
</linearGradient>
<linearGradient id="paint4_linear_809_203" x1="60.5093" y1="41.9121" x2="45.3519" y2="69.4748" gradientUnits="userSpaceOnUse">
<stop stop-color="#A737D5"/>
<stop offset="1" stop-color="#EF497A"/>
</linearGradient>
<linearGradient id="paint5_linear_809_203" x1="63.4706" y1="43.5058" x2="48.3131" y2="71.0687" gradientUnits="userSpaceOnUse">
<stop stop-color="#A737D5"/>
<stop offset="1" stop-color="#EF497A"/>
</linearGradient>
<linearGradient id="paint6_linear_809_203" x1="65.8149" y1="49.8116" x2="45.6647" y2="79.5847" gradientUnits="userSpaceOnUse">
<stop stop-color="#A737D5"/>
<stop offset="1" stop-color="#EF497A"/>
</linearGradient>
<linearGradient id="paint7_linear_809_203" x1="68.7247" y1="46.3822" x2="53.5672" y2="73.945" gradientUnits="userSpaceOnUse">
<stop stop-color="#A737D5"/>
<stop offset="1" stop-color="#EF497A"/>
</linearGradient>
<linearGradient id="paint8_linear_809_203" x1="71.8701" y1="19.4552" x2="8.87805" y2="107.75" gradientUnits="userSpaceOnUse">
<stop stop-color="#FDF53F"/>
<stop offset="1" stop-color="#D93C65"/>
</linearGradient>
<linearGradient id="paint9_linear_809_203" x1="59.5563" y1="50.8833" x2="22.7705" y2="96.7263" gradientUnits="userSpaceOnUse">
<stop stop-color="#2B3582"/>
<stop offset="1" stop-color="#150E42"/>
</linearGradient>
<linearGradient id="paint10_linear_809_203" x1="53.4747" y1="50.3705" x2="35.4375" y2="89.174" gradientUnits="userSpaceOnUse">
<stop stop-color="#53EAC9"/>
<stop offset="0.9964" stop-color="#45AED8"/>
</linearGradient>
<linearGradient id="paint11_linear_809_203" x1="42.2341" y1="53.328" x2="30.8755" y2="69.3404" gradientUnits="userSpaceOnUse">
<stop stop-color="#FDF53F"/>
<stop offset="1" stop-color="#D93C65"/>
</linearGradient>
<linearGradient id="paint12_linear_809_203" x1="44.0709" y1="54.6309" x2="32.7123" y2="70.6434" gradientUnits="userSpaceOnUse">
<stop stop-color="#FDF53F"/>
<stop offset="1" stop-color="#D93C65"/>
</linearGradient>
<linearGradient id="paint13_linear_809_203" x1="41.8952" y1="60.0505" x2="33.3629" y2="73.7972" gradientUnits="userSpaceOnUse">
<stop stop-color="#A737D5"/>
<stop offset="1" stop-color="#EF497A"/>
</linearGradient>
<linearGradient id="paint14_linear_809_203" x1="49.3699" y1="42.1399" x2="38.6953" y2="55.4629" gradientUnits="userSpaceOnUse">
<stop stop-color="#2B3582"/>
<stop offset="1" stop-color="#150E42"/>
</linearGradient>
<linearGradient id="paint15_linear_809_203" x1="50.481" y1="43.0299" x2="39.8061" y2="56.3531" gradientUnits="userSpaceOnUse">
<stop stop-color="#2B3582"/>
<stop offset="1" stop-color="#150E42"/>
</linearGradient>
<linearGradient id="paint16_linear_809_203" x1="49.1583" y1="43.8277" x2="41.6928" y2="56.7407" gradientUnits="userSpaceOnUse">
<stop stop-color="#53D8FF"/>
<stop offset="1" stop-color="#3840F7"/>
</linearGradient>
<linearGradient id="paint17_linear_809_203" x1="72.1039" y1="90.8194" x2="68.3718" y2="90.8194" gradientUnits="userSpaceOnUse">
<stop stop-color="#53D8FF"/>
<stop offset="1" stop-color="#3840F7"/>
</linearGradient>
<linearGradient id="paint18_linear_809_203" x1="72.1041" y1="90.088" x2="68.4772" y2="90.088" gradientUnits="userSpaceOnUse">
<stop stop-color="#2B3582"/>
<stop offset="1" stop-color="#150E42"/>
</linearGradient>
<linearGradient id="paint19_linear_809_203" x1="71.7593" y1="89.0668" x2="70.7081" y2="89.0668" gradientUnits="userSpaceOnUse">
<stop stop-color="#F9B776"/>
<stop offset="1" stop-color="#F47960"/>
</linearGradient>
<linearGradient id="paint20_linear_809_203" x1="79.5441" y1="90.739" x2="78.1139" y2="90.739" gradientUnits="userSpaceOnUse">
<stop stop-color="#53D8FF"/>
<stop offset="1" stop-color="#3840F7"/>
</linearGradient>
<linearGradient id="paint21_linear_809_203" x1="79.5337" y1="89.6378" x2="77.4344" y2="89.6378" gradientUnits="userSpaceOnUse">
<stop stop-color="#2B3582"/>
<stop offset="1" stop-color="#150E42"/>
</linearGradient>
<linearGradient id="paint22_linear_809_203" x1="78.4425" y1="88.1905" x2="77.1862" y2="88.1905" gradientUnits="userSpaceOnUse">
<stop stop-color="#F9B776"/>
<stop offset="1" stop-color="#F47960"/>
</linearGradient>
<linearGradient id="paint23_linear_809_203" x1="81.3527" y1="91.8645" x2="64.8486" y2="73.192" gradientUnits="userSpaceOnUse">
<stop stop-color="#2B3582"/>
<stop offset="1" stop-color="#150E42"/>
</linearGradient>
<linearGradient id="paint24_linear_809_203" x1="-103.116" y1="229.631" x2="-125.872" y2="250.823" gradientUnits="userSpaceOnUse">
<stop stop-color="#CB236D"/>
<stop offset="1" stop-color="#4C246D"/>
</linearGradient>
<linearGradient id="paint25_linear_809_203" x1="74.2088" y1="83.5378" x2="73.6068" y2="82.3338" gradientUnits="userSpaceOnUse">
<stop stop-color="#53D8FF"/>
<stop offset="1" stop-color="#3840F7"/>
</linearGradient>
<linearGradient id="paint26_linear_809_203" x1="72.6866" y1="69.8776" x2="77.159" y2="73.838" gradientUnits="userSpaceOnUse">
<stop stop-color="#F9B776"/>
<stop offset="1" stop-color="#F47960"/>
</linearGradient>
<linearGradient id="paint27_linear_809_203" x1="-102.462" y1="230.33" x2="-125.218" y2="251.521" gradientUnits="userSpaceOnUse">
<stop stop-color="#CB236D"/>
<stop offset="1" stop-color="#4C246D"/>
</linearGradient>
<linearGradient id="paint28_linear_809_203" x1="-105.587" y1="226.978" x2="-128.344" y2="248.17" gradientUnits="userSpaceOnUse">
<stop stop-color="#CB236D"/>
<stop offset="1" stop-color="#4C246D"/>
</linearGradient>
<linearGradient id="paint29_linear_809_203" x1="64.3026" y1="70.2523" x2="60.7805" y2="70.2523" gradientUnits="userSpaceOnUse">
<stop stop-color="#F9B776"/>
<stop offset="1" stop-color="#F47960"/>
</linearGradient>
<linearGradient id="paint30_linear_809_203" x1="67.7263" y1="60.8397" x2="67.7647" y2="67.4172" gradientUnits="userSpaceOnUse">
<stop stop-color="#F9B776"/>
<stop offset="1" stop-color="#F47960"/>
</linearGradient>
<linearGradient id="paint31_linear_809_203" x1="77.5161" y1="72.8324" x2="59.0721" y2="72.8324" gradientUnits="userSpaceOnUse">
<stop stop-color="#2B3582"/>
<stop offset="1" stop-color="#150E42"/>
</linearGradient>
<linearGradient id="paint32_linear_809_203" x1="60.0871" y1="64.654" x2="43.1571" y2="64.654" gradientUnits="userSpaceOnUse">
<stop stop-color="#B37CFF"/>
<stop offset="1" stop-color="#F895E7"/>
</linearGradient>
<linearGradient id="paint33_linear_809_203" x1="61.0413" y1="64.654" x2="42.2028" y2="64.654" gradientUnits="userSpaceOnUse">
<stop stop-color="#2B3582"/>
<stop offset="1" stop-color="#150E42"/>
</linearGradient>
<linearGradient id="paint34_linear_809_203" x1="65.592" y1="59.7582" x2="68.1847" y2="64.4597" gradientUnits="userSpaceOnUse">
<stop stop-color="#F9B776"/>
<stop offset="1" stop-color="#F47960"/>
</linearGradient>
<linearGradient id="paint35_linear_809_203" x1="67.8916" y1="61.1339" x2="64.064" y2="60.5816" gradientUnits="userSpaceOnUse">
<stop stop-color="#2B3582"/>
<stop offset="1" stop-color="#150E42"/>
</linearGradient>
<linearGradient id="paint36_linear_809_203" x1="69.8008" y1="63.7924" x2="67.6111" y2="60.7846" gradientUnits="userSpaceOnUse">
<stop stop-color="#F9B776"/>
<stop offset="1" stop-color="#F47960"/>
</linearGradient>
<linearGradient id="paint37_linear_809_203" x1="70.9205" y1="71.8721" x2="75.3929" y2="75.8325" gradientUnits="userSpaceOnUse">
<stop stop-color="#F9B776"/>
<stop offset="1" stop-color="#F47960"/>
</linearGradient>
<linearGradient id="paint38_linear_809_203" x1="61.1547" y1="69.8386" x2="59.8933" y2="69.8386" gradientUnits="userSpaceOnUse">
<stop stop-color="#F9B776"/>
<stop offset="1" stop-color="#F47960"/>
</linearGradient>
</defs>
</svg>
