<svg width="421" height="293" viewBox="0 0 421 293" fill="none" xmlns="http://www.w3.org/2000/svg">
<path opacity="0.5" d="M380.175 288.121C395.52 264.727 419 218.872 420.826 189.956C423.525 147.212 394.279 154.515 372.925 132.328C363.612 122.651 390.464 91.0704 350.765 65.7805C326.135 50.0901 291.466 81.3812 271.035 42.2492C250.096 2.14568 169.507 -11.8865 104.013 10.9613C4.18825 45.7854 106.591 79.8739 41.6516 107.428C2.79871 123.913 21.2391 159.792 25.1216 171.461C28.5031 181.624 47.6075 193.649 19.7832 219.946C-3.38216 241.839 14.7714 276.969 21.5007 288.121H380.175V288.121Z" fill="#B0CFF4"/>
<path d="M1.62879 288.104H413.616C414.515 288.104 415.244 289.2 415.244 290.552C415.244 291.904 414.515 293 413.616 293H1.62879C0.729355 293 0 291.904 0 290.552C0 289.2 0.729355 288.104 1.62879 288.104Z" fill="#55AD98"/>
<path d="M350.351 253.241L238.378 193.997L236.935 196.724L348.908 255.968L350.351 253.241Z" fill="#9BC1F9"/>
<path d="M301.297 286.782L298.944 286.761C299.255 263.964 299.528 229.343 299.009 227.401C299.011 227.407 299.044 227.526 299.166 227.662L301.076 226.556C301.384 226.901 301.57 227.109 301.635 236.804C301.668 241.793 301.655 248.682 301.597 257.281C301.499 271.918 301.299 286.635 301.297 286.782Z" fill="#13375B"/>
<path d="M320.893 224.407L319.629 223.337C324.258 217.868 326.804 207.446 326.991 193.198C327.133 182.337 325.842 173.019 325.829 172.926L327.47 172.696C327.483 172.79 328.789 182.214 328.647 193.198C328.564 199.665 328.002 205.408 326.979 210.266C325.684 216.408 323.637 221.166 320.893 224.407Z" fill="#184655"/>
<path d="M308.845 146.372C309.53 146.372 335.034 143.602 335.49 147.025C335.947 150.448 336.859 177.147 332.296 178.06C327.733 178.972 305.601 174.865 305.601 174.865L308.845 146.372Z" fill="#B75742"/>
<path d="M276.168 226.208C277.153 226.011 273.658 229.631 276.168 230.772C278.678 231.913 316.553 231.229 319.519 229.859C322.485 228.49 326.135 226.208 324.767 223.242C323.398 220.275 300.057 216.396 300.057 216.396L278.906 222.101C278.906 222.101 275.028 226.436 276.168 226.208Z" fill="#466EB6"/>
<path d="M315.687 284.18H284.751C284.258 284.18 283.858 284.58 283.858 285.074V286.772C283.858 286.858 283.928 286.928 284.014 286.928H316.424C316.51 286.928 316.58 286.858 316.58 286.772V285.074C316.58 284.58 316.18 284.18 315.687 284.18Z" fill="#346384"/>
<path d="M303.159 281.873H297.448C297.06 281.873 296.745 282.188 296.745 282.576V284.851C296.745 285.24 297.06 285.554 297.448 285.554H303.159C303.547 285.554 303.862 285.24 303.862 284.851V282.576C303.861 282.188 303.547 281.873 303.159 281.873Z" fill="#346384"/>
<path d="M285.395 217.02C286.148 216.643 306.335 202.485 306.335 202.485L281.628 200.065C281.628 200.065 242.999 205.352 237.364 210.05C236.958 210.388 236.584 210.713 236.24 211.024C233.477 213.524 233.001 217.69 235.097 220.772C238.905 226.369 236.52 225.786 242.994 234.981C250.651 245.856 268.592 267.425 268.592 267.425C270.763 270.09 273.721 273.803 273.752 274.289C273.801 275.058 273.459 283.452 272.582 284.221C271.706 284.99 269.131 285.535 269.959 286.4C270.584 287.054 275.398 286.914 278.588 286.739C279.52 286.687 280.687 279.256 281.056 278.164C281.592 276.578 282.894 273.005 282.408 271.899C282.17 271.361 281.035 270.253 279.435 269.22C278.414 268.56 275.642 265.002 273.62 262.306C273.619 262.303 255.211 227.846 253.31 226.499C251.409 225.151 243.956 216.643 243.956 216.643C243.956 216.643 256.388 221.353 256.953 221.353C257.518 221.353 284.641 217.397 285.395 217.02Z" fill="#F48C7F"/>
<path d="M279.331 269.168C279.331 269.168 274.382 283.104 272.445 283.777C271.931 283.956 269.462 284.409 268.997 285.501C268.856 285.83 268.997 286.928 268.997 286.928H279.312C279.312 286.928 280.617 280.788 281.133 278.09C281.133 278.09 283.863 271.498 283.56 270.899C283.256 270.299 279.331 269.168 279.331 269.168Z" fill="#0E2E35"/>
<path d="M308.845 202.703C308.845 202.703 287.467 200.631 280.121 202.703C272.775 204.775 243.203 213.817 241.131 216.078C239.059 218.338 212.312 272.161 212.299 272.187C210.835 275.024 209.368 277.731 208.778 278.387C207.969 279.286 207.029 280.184 206.093 280.755C205.724 280.98 204.7 281.63 204.419 281.766C200.107 283.847 199.018 284.502 197.668 285.493C196.844 286.098 196.168 286.755 197.19 286.738L215.966 286.437C215.966 286.437 216.794 286.099 217.518 284.748C218.242 283.396 216.98 281.518 216.696 280.082C216.5 279.085 217.208 277.288 218.175 275.424C218.175 275.424 243.956 245.089 244.521 242.829C245.086 240.568 250.172 226.628 250.172 226.628C262.604 226.628 300.369 227.287 306.726 221.353C313.083 215.419 308.845 202.703 308.845 202.703Z" fill="#F7A491"/>
<path d="M224.936 280.753C229.901 282.025 233.572 281.16 235.625 280.334C236.154 281.832 236.856 283.711 236.484 284.795C236.028 286.121 235.379 286.421 234.806 286.436C230.27 286.555 218.192 286.717 214.734 286.762C214.251 286.768 213.985 286.205 214.295 285.835C215.153 284.813 224.566 280.979 224.936 280.753Z" fill="#0E2E35"/>
<path d="M281.628 200.065C281.628 200.065 242.999 205.352 237.363 210.05C237.294 210.108 237.226 210.165 237.158 210.222C237.87 210.113 238.286 210.05 238.286 210.05C238.286 210.05 247.178 209.485 254.384 220.51C255.785 221.01 256.801 221.353 256.953 221.353C257.518 221.353 284.641 217.397 285.395 217.02C286.148 216.643 306.335 202.485 306.335 202.485L281.628 200.065Z" fill="#B75742"/>
<path d="M308.845 202.703C308.845 202.703 287.467 200.631 280.121 202.703C274.682 204.237 257.064 209.591 247.439 213.186C250.843 215.52 254.608 219.584 257.629 226.648C273.628 226.673 301.362 226.361 306.726 221.353C313.083 215.419 308.845 202.703 308.845 202.703Z" fill="#B75742"/>
<path d="M245.43 179.826L267.982 174.836C267.982 174.836 276.138 164.355 283.971 155.335C286.276 157.617 287.557 161.123 289.878 163.382L272.661 182.429C272.04 183.116 271.158 183.51 270.232 183.512L246.33 183.592L238.15 184.244V179.008L245.43 179.826Z" fill="#F48C7F"/>
<path d="M287.72 152.155C283.776 151.109 267.982 174.836 267.982 174.836C267.982 174.836 270.121 175.83 273.93 181.025L280.015 174.293L280.025 174.304C280.025 174.304 292.119 162.881 294.416 158.903C296.713 154.926 291.664 153.202 287.72 152.155Z" fill="#F7CC7F"/>
<path d="M279.048 124.67C279.144 124.478 279.202 124.373 279.202 124.373L279.194 124.292C279.477 123.589 279.788 122.891 280.129 122.198C282.392 117.611 287.989 115.008 293.094 115.002C294.758 115 296.271 115.221 297.661 115.623C299.751 116.562 304.861 119.814 306.19 129.5C306.673 133.022 305.926 136.383 304.344 139.223C305.719 140.087 307.526 141.838 308.835 145.372C311.239 151.866 323.262 153.309 324.464 161.966C325.667 170.624 313.163 186.256 299.938 176.155C289.871 168.466 291.507 153.812 292.863 147.251C289.723 147.684 286.348 147.091 283.106 145.132C278.979 142.638 277.305 139.274 276.856 135.981C276.961 132.132 277.626 128.336 279.048 124.67Z" fill="#184655"/>
<path d="M295.447 149.29C295.447 149.29 303.459 147.708 307.115 150.762C310.77 153.817 306.331 180.977 306.335 185.479C306.339 189.982 308.845 202.703 308.845 202.703C308.845 202.703 284.564 206.953 280.707 200.194C280.707 200.194 279.609 174.443 279.773 171.205C279.936 167.967 280.972 158.356 284.531 153.305C285.529 151.889 295.447 149.29 295.447 149.29Z" fill="#F4E6D0"/>
<path d="M291.135 147.138C299.33 147.138 305.167 139.719 305.412 139.403C305.656 139.088 305.598 138.635 305.283 138.391C304.968 138.147 304.515 138.205 304.271 138.519C304.215 138.591 298.614 145.695 291.135 145.695C290.737 145.695 290.414 146.018 290.414 146.417C290.414 146.815 290.737 147.138 291.135 147.138Z" fill="#B75742"/>
<path d="M295.498 136.895C295.498 136.895 295.54 137.135 295.616 137.542C295.979 139.498 297.378 145.986 298.324 147.769C299.466 149.925 294.413 156.799 289.549 155.96C288.101 155.71 290.773 149.643 290.644 149.001C290.398 147.771 290.065 146.093 289.724 144.372C289.532 143.402 289.337 142.417 289.154 141.493C288.634 138.864 288.21 136.714 288.21 136.714L295.498 136.895Z" fill="#F7A491"/>
<path d="M295.616 137.542C295.54 137.135 295.498 136.895 295.498 136.895L288.21 136.714C288.21 136.714 288.634 138.864 289.154 141.492C289.336 142.412 289.53 143.39 289.721 144.356C290.846 144.191 292.022 143.645 293.201 142.615C294.486 141.492 295.328 140.142 295.837 138.702C295.747 138.242 295.672 137.846 295.616 137.542Z" fill="#F47458"/>
<path d="M266.333 264.681C266.333 264.681 273.703 273.52 273.752 274.289C273.801 275.058 273.459 283.452 272.582 284.221C271.706 284.99 269.131 285.535 269.959 286.4C270.584 287.054 275.398 286.914 278.588 286.739C279.52 286.687 280.687 279.256 281.056 278.164C281.592 276.578 282.894 273.005 282.408 271.899C282.17 271.361 281.035 270.253 279.435 269.22C277.753 268.133 271.317 259.177 271.317 259.177L266.333 264.681Z" fill="#F48C7F"/>
<path d="M279.331 269.168C279.331 269.168 274.382 283.104 272.445 283.777C271.931 283.956 269.462 284.409 268.997 285.501C268.856 285.83 268.997 286.928 268.997 286.928H279.312C279.312 286.928 280.617 280.788 281.133 278.09C281.133 278.09 283.863 271.498 283.56 270.899C283.256 270.299 279.331 269.168 279.331 269.168Z" fill="#184655"/>
<path d="M241.026 268.926C241.026 268.926 235.007 277.401 235.537 280.082C235.82 281.518 237.083 283.396 236.358 284.748C235.634 286.099 234.806 286.436 234.806 286.436L216.031 286.738C215.008 286.755 215.684 286.098 216.509 285.493C217.858 284.502 218.948 283.847 223.259 281.766C223.54 281.63 224.564 280.98 224.933 280.755C225.869 280.184 226.81 279.286 227.619 278.387C228.967 276.889 234.895 264.681 234.895 264.681L241.026 268.926Z" fill="#F7A491"/>
<path d="M224.936 280.753C229.901 282.025 233.572 281.16 235.625 280.334C236.154 281.832 236.856 283.711 236.484 284.795C236.028 286.121 235.379 286.421 234.806 286.436C230.27 286.555 218.192 286.717 214.734 286.762C214.251 286.768 213.985 286.205 214.295 285.835C215.153 284.813 224.566 280.979 224.936 280.753Z" fill="#184655"/>
<path d="M259.705 179.826L282.257 174.836C282.257 174.836 290.413 164.355 298.246 155.335C300.551 157.617 301.832 161.123 304.154 163.382L286.936 182.429C286.315 183.116 285.433 183.51 284.507 183.512L260.605 183.592L252.426 184.244V179.008L259.705 179.826Z" fill="#F7A491"/>
<path d="M213.374 154.151H250.568C251.552 154.151 252.439 154.746 252.812 155.656L264.264 183.592H284.77C285.343 183.592 285.807 184.057 285.807 184.63C285.807 185.203 285.343 185.667 284.77 185.667H226.41C224.805 185.667 223.35 184.725 222.693 183.262L211.162 157.57C210.441 155.965 211.615 154.151 213.374 154.151Z" fill="#50BFA5"/>
<path d="M233.399 170.418C233.651 171.673 234.745 172.512 235.844 172.292C236.943 172.073 237.63 170.877 237.378 169.623C237.127 168.368 236.033 167.529 234.934 167.749C233.835 167.968 233.148 169.163 233.399 170.418Z" fill="white"/>
<path d="M289.192 119.139C289.192 119.139 293.124 118.697 295.589 121.797C298.053 124.897 300.71 134.483 294.587 139.695C288.465 144.907 282.416 139.008 281.519 132.752C280.621 126.497 280.273 118.913 289.192 119.139Z" fill="#F7A491"/>
<path d="M279.707 132.66C280.438 134.041 281.665 134.806 282.447 134.369C283.229 133.931 283.271 132.456 282.541 131.074C281.81 129.693 280.583 128.928 279.801 129.365C279.018 129.804 278.976 131.278 279.707 132.66Z" fill="#F7A491"/>
<path d="M288.752 118.114C288.752 118.114 294.005 127.23 297.763 127.651C301.521 128.073 302.014 132.916 302.014 132.916C302.014 132.916 300.671 121.754 296.951 119.602C293.23 117.45 288.752 118.114 288.752 118.114Z" fill="#184655"/>
<path d="M296.778 129.942C296.472 131.561 297.087 133.045 298.151 133.258C299.215 133.471 300.325 132.33 300.63 130.711C300.936 129.093 300.321 127.608 299.258 127.396C298.194 127.183 297.083 128.323 296.778 129.942Z" fill="#F7A491"/>
<path d="M292.266 135.336L286.671 136.532C286.671 136.532 287.254 138.63 289.73 138.176C292.748 137.621 292.266 135.336 292.266 135.336Z" fill="white"/>
<path d="M305.024 149.485C301.08 148.439 288.21 167.358 288.21 167.36C284.707 171.689 282.258 174.836 282.258 174.836C282.258 174.836 284.396 175.83 288.206 181.025L294.291 174.293L294.301 174.304C294.301 174.304 306.394 162.881 308.692 158.903C310.989 154.926 308.968 150.532 305.024 149.485Z" fill="#F7CC7F"/>
<path d="M222.977 288.107H133.198L110.01 189.227H222.977V288.107Z" fill="#325E9E"/>
<path d="M351.032 189.227H221.648V288.108H351.032V189.227Z" fill="#466EB6"/>
<path d="M353.549 185.648H97.3449V189.226H353.549V185.648Z" fill="#13375B"/>
<path d="M243.946 47.6429H163.591C160.815 47.6429 158.565 49.8933 158.565 52.6694V85.8347C158.565 88.6107 160.815 90.8612 163.591 90.8612H226.854C229.415 94.4344 234.057 100.833 234.467 100.833C234.85 100.833 234.112 94.7896 233.591 90.8612H243.946C246.721 90.8612 248.972 88.6108 248.972 85.8347V52.6694C248.971 49.8933 246.721 47.6429 243.946 47.6429Z" fill="#9BC1F9"/>
<path d="M192.52 60.5858H169.803C169.292 60.5858 168.879 60.172 168.879 59.6615V59.3207C168.879 58.8102 169.292 58.3962 169.803 58.3962H192.52C193.031 58.3962 193.445 58.8102 193.445 59.3207V59.6615C193.445 60.172 193.031 60.5858 192.52 60.5858Z" fill="white"/>
<path d="M184.548 67.7374H169.803C169.292 67.7374 168.879 67.3237 168.879 66.8132V66.4723C168.879 65.9618 169.292 65.5481 169.803 65.5481H184.548C185.059 65.5481 185.472 65.9618 185.472 66.4723V66.813C185.472 67.3235 185.059 67.7374 184.548 67.7374Z" fill="white"/>
<path d="M206.973 67.7374H188.401C187.89 67.7374 187.477 67.3237 187.477 66.8132V66.4723C187.477 65.9618 187.89 65.5481 188.401 65.5481H206.973C207.483 65.5481 207.897 65.9618 207.897 66.4723V66.8132C207.897 67.3237 207.483 67.7374 206.973 67.7374Z" fill="white"/>
<path d="M238.098 67.7374H211.408C210.897 67.7374 210.483 67.3235 210.483 66.8129V66.4723C210.483 65.9618 210.897 65.5481 211.408 65.5481H238.098C238.609 65.5481 239.023 65.9618 239.023 66.4723V66.813C239.023 67.3235 238.609 67.7374 238.098 67.7374Z" fill="white"/>
<path d="M238.219 60.5858H198.864C198.354 60.5858 197.94 60.172 197.94 59.6615V59.3207C197.94 58.8102 198.354 58.3962 198.864 58.3962H238.219C238.729 58.3962 239.143 58.8102 239.143 59.3207V59.6614C239.143 60.172 238.729 60.5858 238.219 60.5858Z" fill="white"/>
<path d="M238.219 81.7449H169.803C169.293 81.7449 168.879 81.331 168.879 80.8205V80.4796C168.879 79.9691 169.293 79.5552 169.803 79.5552H238.219C238.729 79.5552 239.143 79.9691 239.143 80.4796V80.8205C239.143 81.331 238.729 81.7449 238.219 81.7449Z" fill="white"/>
<path d="M204.253 74.8236H169.803C169.293 74.8236 168.879 74.4097 168.879 73.8992V73.5583C168.879 73.0479 169.293 72.6341 169.803 72.6341H204.253C204.763 72.6341 205.177 73.0479 205.177 73.5583V73.8992C205.177 74.4099 204.763 74.8236 204.253 74.8236Z" fill="white"/>
<path d="M238.219 74.8236H207.902C207.392 74.8236 206.978 74.4097 206.978 73.8991V73.5584C206.978 73.0479 207.391 72.6339 207.902 72.6339H238.219C238.729 72.6339 239.143 73.0479 239.143 73.5584V73.8992C239.143 74.4099 238.729 74.8236 238.219 74.8236Z" fill="white"/>
<path opacity="0.5" d="M351.032 221.364H221.648V237.03H351.032V221.364Z" fill="#13375B"/>
<path opacity="0.5" d="M351.032 242.025H221.648V245.48H351.032V242.025Z" fill="#13375B"/>
<path d="M84.1774 130.944C97.5412 136.56 101.843 124.289 101.508 124.614C101.762 124.336 103.774 123.439 105.059 122.795C110.415 120.114 113.652 113.879 113.531 107.605C121.215 102.827 123.217 92.71 117.946 87.1183C119.568 80.9006 115.29 74.0754 109.852 70.924C105.735 63.5936 95.3488 66.7306 89.7502 72.4808C86.9122 75.3958 85.2693 79.6672 85.3133 83.9247C78.7257 86.7096 75.2789 94.1274 76.7771 101.609C67.8892 109.082 70.5407 125.214 84.1774 130.944Z" fill="#184655"/>
<path d="M70.4483 173.868L68.1669 173.281C68.21 173.105 72.5438 155.521 77.1624 138.021C79.8767 127.736 82.1574 119.49 83.9413 113.511C87.4578 101.724 88.2407 101.397 88.9316 101.108L89.8232 103.334C89.9914 103.264 90.0732 103.171 90.074 103.17C89.5117 103.819 87.3225 108.678 79.1547 139.708C74.6483 156.827 70.4899 173.7 70.4483 173.868Z" fill="#B75742"/>
<path d="M147.567 173.358C147.567 173.358 146.541 172.538 146.221 172.24C145.845 171.889 144.802 170.752 144.802 170.752C144.802 170.752 141.35 166.621 141.675 166.39C142.001 166.158 142.987 166.536 143.289 166.716C143.591 166.896 143.962 167.077 144.264 167.257C144.566 167.437 144.949 167.361 145.199 166.999C145.448 166.638 144.399 165.658 143.97 165.392C142.63 164.562 138.604 163.068 138.185 162.892C137.689 162.683 133.018 154.411 131.194 151.705L131.195 151.704C128.339 147.185 125.63 142.396 125.33 141.916L119.185 119.846L110.246 118.958C110.246 118.958 116.723 143.548 117.186 144.74C117.407 145.308 124.834 155.267 124.838 155.265C128.803 159.938 132.309 164.045 132.96 164.854C132.96 164.854 134.259 167.796 134.976 169.719C135.693 171.642 137.123 173.122 137.407 173.631C137.449 173.707 138.333 175.512 140.151 177.178C141.719 178.613 140.886 176.518 140.886 176.518C140.886 176.518 138.457 173.326 138.74 173.173C138.958 173.055 140.182 174.878 141.9 176.485C142.342 176.898 142.779 177.304 143.184 177.674C144.247 178.644 145.143 178.255 144.192 177.058C143.856 176.635 143.281 175.948 142.803 175.516C142.285 175.051 141.96 174.452 141.585 173.993C140.841 173.081 140.286 172.426 140.34 172.415C140.41 172.401 140.389 172.113 140.872 172.537C141.452 173.046 142.446 174.406 143.357 175.088C143.873 175.474 144.903 176.348 144.903 176.348C144.903 176.348 146.727 177.58 146.822 177.492C147.339 177.02 146.284 175.759 145.514 175.328C145.165 174.797 144.055 173.908 144.055 173.908C144.055 173.908 142.213 171.597 142.534 171.325C142.798 171.101 148.27 175.764 148.754 175.253C149.15 174.836 147.567 173.358 147.567 173.358Z" fill="#F7A491"/>
<path d="M137.737 166.794C137.737 166.794 140.485 167.843 141.64 166.426C141.64 166.426 141.291 167.478 140.185 167.672C139.079 167.864 137.737 166.794 137.737 166.794Z" fill="#F47458"/>
<path d="M99.4416 179.602L104.505 226.43C104.505 226.43 102.03 236.333 102.329 239.146C102.627 241.96 107.833 278.865 107.833 278.865L107.598 280.893L107.471 286.897L126.93 287.049C126.93 287.049 122.829 285.148 117.092 281.391C116.668 281.114 115.69 280.228 115.453 278.461C113.921 267.086 116.952 229.143 116.952 229.143L119.339 179.754L99.4416 179.602Z" fill="#F7A491"/>
<path d="M88.3705 188.475C87.2793 188.761 85.5997 228.951 84.6959 230.732C78.9663 242.025 77.6047 276.359 77.6047 276.359L75.241 281.166L75.7835 285.799C75.7835 285.799 80.0594 288.336 83.0595 286.624L82.5955 281.986L82.241 275.789L96.6963 233.014L104.606 189.383L88.3705 188.475Z" fill="#F7A491"/>
<path d="M125.408 210.258L126.095 182.528C126.214 174.691 123.69 167.172 120.591 160.036L114.032 148.617C111.919 149.311 110.755 142.843 108.534 143.101C106.86 143.295 105.713 143.695 104.158 143.79C101.227 143.97 99.4477 149.895 96.3093 149.524C96.2945 149.712 94.3454 150.459 94.298 150.592C92.797 154.783 88.9654 159.267 86.9201 171.711C84.5984 185.837 84.6081 210.113 84.8982 211.771C107.096 212.783 112.387 213.586 125.408 210.258Z" fill="#20414D"/>
<path d="M107.378 288.441H127.466C128.209 288.372 128.39 287.744 128.132 287.356C127.602 286.559 125.258 285.974 122.624 284.704C118.004 285.208 108.338 281.689 107.608 280.58C107.187 282.801 106.965 288.346 107.378 288.441Z" fill="#184655"/>
<path d="M75.2531 281.154C75.2531 281.154 77.0373 286.398 78.9663 286.246C80.8953 286.095 82.5832 281.96 82.5832 281.96C82.5832 281.96 83.3065 285.44 82.9689 287.356C82.6314 289.272 79.8824 291.238 78.0016 290.381C76.1211 289.524 73.565 285.086 75.2531 281.154Z" fill="#184655"/>
<path d="M112.594 130.672C112.594 130.672 115.393 130.314 118.073 129.347C119.683 128.767 122.36 127.497 122.36 127.497C122.36 127.497 120.856 114.433 117.07 106.522C115.506 103.252 113.924 101.674 111.717 101.296C111.7 101.293 112.594 130.672 112.594 130.672Z" fill="#B75742"/>
<path d="M117.457 115.889C116.889 113.769 115.622 110.982 114.899 109.061C113.672 105.797 113.307 102.749 112.225 101.443C111.641 100.74 104.146 100.845 103.226 100.752C102.846 100.711 101.346 100.81 99.8951 100.901L99.8983 100.897C99.0477 100.996 90.6029 101.677 89.3776 102.221C83.2939 108.319 80.3512 116.529 75.7778 125.498C75.7778 125.498 79.2039 127.513 81.9353 128.784C83.1217 129.336 85.3959 130.218 85.3959 130.218L90.6679 121.138C90.726 121.092 90.9997 120.792 91.0789 120.987C91.2005 121.289 95.0504 149.589 95.0504 149.589C95.0504 149.589 110.657 150.9 114.32 149.1C114.32 149.1 114.997 130.207 116.345 124.662C116.843 122.624 118.371 119.303 117.457 115.889Z" fill="#F47458"/>
<path d="M98.8687 92.2151C98.8687 92.2151 100.039 98.8054 99.8048 101.405C99.5706 104.005 100.697 112.383 105.751 112.411C110.806 112.438 107.371 103.712 106.895 101.164C106.419 98.6168 105.646 88.7779 105.646 88.7779L98.8687 92.2151Z" fill="#F7A491"/>
<path d="M99.3609 95.3684C101.87 97.4748 104.631 98.1314 106.437 97.5779C106.039 93.7828 105.646 88.7779 105.646 88.7779L98.8687 92.2151C98.8687 92.2151 99.1162 93.6099 99.3609 95.3684Z" fill="#F47458"/>
<path d="M102.685 74.5884C102.685 74.5884 98.7547 75.0151 97.0275 78.5749C95.3002 82.1347 96.1563 92.839 102.659 95.9099C107.799 98.3369 112.622 92.4198 112.668 86.1064C112.707 80.7915 111.332 72.4232 102.685 74.5884Z" fill="#F7A491"/>
<path d="M104.187 71.9921C103.497 79.6157 98.3026 83.5493 95.9881 84.4129C92.8032 80.9529 94.0467 76.5721 96.6578 74.5239C99.2692 72.4757 104.187 71.9921 104.187 71.9921Z" fill="#184655"/>
<path d="M98.0455 86.7757C98.6963 88.2876 98.4206 89.8691 97.4297 90.3082C96.4389 90.7473 95.1078 89.8778 94.457 88.366C93.8061 86.8543 94.0818 85.2728 95.0727 84.8337C96.0635 84.3944 97.3944 85.2639 98.0455 86.7757Z" fill="#F7A491"/>
<path d="M103.219 91.0516L108.935 90.9975C108.935 90.9975 108.824 93.1701 106.311 93.2667C103.247 93.3842 103.219 91.0516 103.219 91.0516Z" fill="white"/>
<path d="M92.9817 173.763V182.755C92.9817 187.43 89.6895 191.22 85.629 191.22H78.0652V170.258H89.937C90.7498 170.258 91.4874 170.625 92.0329 171.223C92.6174 171.859 92.9817 172.762 92.9817 173.763Z" fill="#B75742"/>
<path d="M92.0331 171.223H91.983C90.4226 171.223 89.1577 172.679 89.1577 174.475V181.09C89.1577 186.684 85.2182 191.22 80.3587 191.22H75.7538C70.8942 191.22 66.955 186.684 66.955 181.09V174.508C66.955 172.161 68.6076 170.258 70.6464 170.258H89.937C90.7498 170.258 91.4874 170.625 92.0331 171.223Z" fill="#F47458"/>
<path d="M93.0027 173.58L90.6501 173.569C90.6508 173.402 90.7246 156.715 90.501 139.699C90.3699 129.713 90.1633 121.57 89.8873 115.498C89.4159 105.124 88.84 103.264 88.6754 102.962C88.6467 102.402 88.9318 101.108 88.9318 101.108C89.3502 100.933 89.826 100.984 90.205 101.245C90.8114 101.663 91.1875 102.464 91.5603 105.681C91.7911 107.673 91.9981 110.5 92.1758 114.084C92.4735 120.09 92.6966 128.326 92.839 138.564C93.0803 155.983 93.0035 173.406 93.0027 173.58Z" fill="#B75742"/>
<path d="M104.812 157.6C105.112 157.664 107.184 157.786 107.184 157.786C107.184 157.786 110.223 155.946 110.657 156.817C110.79 157.078 107.509 158.947 107.509 158.947C107.509 158.947 104.337 159.052 103.579 159.029C102.167 158.994 99.1982 158.593 94.7824 155.307C90.9629 153.356 71.7671 142.156 71.4836 140.025C71.3157 138.765 74.2381 132.192 77.0681 126.241C78.3181 126.938 80.2568 128 81.935 128.784C82.7278 129.15 84.0067 129.667 84.7649 129.969C82.9304 133.51 81.1942 137.157 81.4198 137.912C81.6166 138.574 98.0115 151.086 98.0115 151.086L101.287 150.639C101.287 150.639 107.063 151.324 107.196 152.015C107.335 152.7 104.759 152.52 104.418 152.625C104.227 152.683 103.845 152.816 103.521 153.031C104.47 153.484 105.975 154.21 106.819 154.245C108.758 154.314 111.004 154.03 111.247 154.308C111.53 154.634 108.585 155.528 106.507 155.655C105.656 155.702 105.141 155.441 104.771 155.51C104.267 155.615 105.153 156.021 106.571 155.934C107.381 155.882 108.793 155.435 109.684 155.307C111.148 155.098 111.97 155.214 112.092 155.342C112.294 155.551 107.936 156.95 107.936 156.95C107.936 156.95 105.101 157.322 104.452 157.287C104.453 157.287 104.059 157.449 104.812 157.6Z" fill="#F8A492"/>
</svg>
