<svg width="291" height="87" viewBox="0 0 291 87" fill="none" xmlns="http://www.w3.org/2000/svg">
<path d="M279.234 85.323H10.9219C5.48438 85.323 1.07812 80.9168 1.07812 75.4793V11.9167C1.07812 6.47925 5.48438 2.073 10.9219 2.073H279.234C284.672 2.073 289.078 6.47925 289.078 11.9167V75.4793C289.078 80.9168 284.672 85.323 279.234 85.323Z" fill="black"/>
<path d="M10.9167 3.15112C6.08333 3.15112 2.15104 7.08341 2.15104 11.9167V75.4793C2.15104 80.3126 6.08333 84.2449 10.9167 84.2449H279.234C284.068 84.2449 288 80.3126 288 75.4793V11.9167C288 7.08341 284.068 3.15112 279.234 3.15112H10.9167ZM279.234 86.4011H10.9167C4.89583 86.4011 0 81.5001 0 75.4793V11.9167C0 5.89591 4.89583 0.994873 10.9167 0.994873H279.234C285.255 0.994873 290.151 5.89591 290.151 11.9167V75.4793C290.151 81.5001 285.255 86.4011 279.234 86.4011Z" fill="#A7A9AB"/>
<path d="M100.614 23.349L99.5103 19.8907C99.2394 19.0365 99.0103 18.0834 98.8019 17.2709H98.7603C98.5571 18.0834 98.3436 19.0574 98.0988 19.8907L97.0155 23.349H100.614ZM96.5988 25.2813L95.3905 29.2605H92.7446L97.2446 15.2292H100.51L105.068 29.2605H102.323L101.052 25.2813" fill="white"/>
<path d="M108.896 19.125L110.542 24.2604C110.833 25.1563 111.036 25.9688 111.224 26.8021H111.286C111.474 25.9688 111.703 25.1771 111.974 24.2604L113.599 19.125H116.281L112.411 29.2604H109.896L106.125 19.125" fill="white"/>
<path d="M124.005 24.3022C122.193 24.2814 120.464 24.6564 120.464 26.1981C120.464 27.1981 121.11 27.6564 121.922 27.6564C122.958 27.6564 123.693 26.9897 123.938 26.2606C124.005 26.0731 124.005 25.8856 124.005 25.6981V24.3022ZM126.5 26.8231C126.5 27.7397 126.542 28.6356 126.667 29.2554H124.354L124.172 28.1356H124.104C123.505 28.922 122.443 29.4845 121.11 29.4845C119.068 29.4845 117.927 28.0106 117.927 26.4689C117.927 23.9272 120.193 22.62 123.938 22.6408V22.4741C123.938 21.8075 123.672 20.7033 121.88 20.7033C120.88 20.7033 119.839 21.0158 119.151 21.4533L118.651 19.7866C119.401 19.3283 120.714 18.896 122.318 18.896C125.563 18.896 126.5 20.9533 126.5 23.1825" fill="white"/>
<path d="M130.12 19.1252H132.677V29.2606H130.12V19.1252ZM131.386 17.6668C130.537 17.6668 129.974 17.0418 129.974 16.2918C129.974 15.5002 130.552 14.896 131.412 14.896C132.281 14.896 132.823 15.5002 132.844 16.2918C132.844 17.0418 132.281 17.6668 131.412 17.6668" fill="white"/>
<path d="M136.359 29.2606H138.922V14.4585H136.359V29.2606Z" fill="white"/>
<path d="M147.995 24.3022C146.182 24.2814 144.453 24.6564 144.453 26.1981C144.453 27.1981 145.099 27.6564 145.911 27.6564C146.953 27.6564 147.682 26.9897 147.932 26.2606C147.995 26.0731 147.995 25.8856 147.995 25.6981V24.3022ZM150.489 26.8231C150.489 27.7397 150.531 28.6356 150.656 29.2554H148.349L148.161 28.1356H148.099C147.495 28.922 146.432 29.4845 145.099 29.4845C143.062 29.4845 141.917 28.0106 141.917 26.4689C141.917 23.9272 144.187 22.62 147.932 22.6408V22.4741C147.932 21.8075 147.661 20.7033 145.87 20.7033C144.87 20.7033 143.828 21.0158 143.146 21.4533L142.646 19.7866C143.396 19.3283 144.703 18.896 146.307 18.896C149.552 18.896 150.489 20.9533 150.489 23.1825" fill="white"/>
<path d="M156.672 25.0731C156.672 25.2814 156.693 25.4897 156.734 25.6772C157.005 26.7189 157.901 27.4689 159 27.4689C160.604 27.4689 161.583 26.1981 161.583 24.1408C161.583 22.3491 160.729 20.8908 159.021 20.8908C157.979 20.8908 157.026 21.6408 156.755 22.7658C156.713 22.9533 156.672 23.1825 156.672 23.4325V25.0731ZM154.109 14.4585H156.672V20.5158H156.713C157.338 19.5366 158.437 18.896 159.958 18.896C162.437 18.896 164.203 20.9533 164.182 24.0366C164.182 27.6772 161.875 29.4897 159.583 29.4897C158.271 29.4897 157.109 28.9897 156.38 27.7397H156.338L156.213 29.2606H154.026C154.068 28.5731 154.109 27.4481 154.109 26.4272" fill="white"/>
<path d="M167.198 29.2606H169.755V14.4585H167.198V29.2606Z" fill="white"/>
<path d="M179.724 23.12C179.745 22.1825 179.328 20.6408 177.625 20.6408C176.042 20.6408 175.375 22.0783 175.271 23.12H179.724ZM175.271 24.9064C175.333 26.7397 176.771 27.5314 178.396 27.5314C179.578 27.5314 180.411 27.3439 181.203 27.0731L181.578 28.8179C180.703 29.1981 179.495 29.4637 178.042 29.4637C174.75 29.4637 172.812 27.4481 172.812 24.3491C172.812 21.5366 174.521 18.896 177.771 18.896C181.057 18.896 182.141 21.5991 182.141 23.8283C182.141 24.3075 182.099 24.6825 182.057 24.9064" fill="white"/>
<path d="M194.854 27.6356C196.307 27.6356 197.328 26.2189 197.328 24.1616C197.328 22.5783 196.62 20.745 194.875 20.745C193.063 20.745 192.333 22.5158 192.333 24.2033C192.333 26.1564 193.313 27.6356 194.828 27.6356H194.854ZM194.771 29.4897C191.917 29.4897 189.693 27.5314 189.693 24.2658C189.693 20.9325 191.875 18.896 194.938 18.896C197.953 18.896 199.974 21.0158 199.974 24.0991C199.974 27.8231 197.349 29.4897 194.792 29.4897" fill="white"/>
<path d="M202.984 22.1408C202.984 20.9741 202.948 19.995 202.906 19.12H205.13L205.255 20.6408H205.318C205.776 19.8491 206.88 18.896 208.568 18.896C210.333 18.896 212.167 20.0366 212.167 23.245V29.2554H209.604V23.5366C209.604 22.0783 209.063 20.9741 207.672 20.9741C206.651 20.9741 205.943 21.7033 205.672 22.4741C205.589 22.6825 205.547 22.995 205.547 23.2866V29.2554H202.984" fill="white"/>
<path d="M223.964 16.521V19.12H226.396V21.0366H223.964V25.4897C223.964 26.7397 224.297 27.3647 225.271 27.3647C225.729 27.3647 225.979 27.3439 226.271 27.2606L226.313 29.1929C225.938 29.3439 225.25 29.4637 224.458 29.4637C223.505 29.4637 222.735 29.1512 222.255 28.6356C221.693 28.0522 221.443 27.1147 221.443 25.7814V21.0366H220.005V19.12H221.443V17.2293" fill="white"/>
<path d="M229.245 14.4585H231.807V20.495H231.849C232.161 20.0158 232.599 19.62 233.12 19.3491C233.64 19.0627 234.239 18.896 234.885 18.896C236.614 18.896 238.422 20.0366 238.422 23.2866V29.2606H235.864V23.5575C235.864 22.0991 235.323 20.9741 233.906 20.9741C232.911 20.9741 232.203 21.6408 231.911 22.4116C231.828 22.6408 231.807 22.9116 231.807 23.1825V29.2606H229.245" fill="white"/>
<path d="M248.328 23.12C248.349 22.1825 247.932 20.6408 246.224 20.6408C244.64 20.6408 243.979 22.0783 243.875 23.12H248.328ZM243.875 24.9064C243.937 26.7397 245.37 27.5314 246.995 27.5314C248.182 27.5314 249.015 27.3439 249.802 27.0731L250.182 28.8179C249.307 29.1981 248.099 29.4637 246.64 29.4637C243.354 29.4637 241.417 27.4481 241.417 24.3491C241.417 21.5366 243.125 18.896 246.37 18.896C249.656 18.896 250.739 21.5991 250.739 23.8283C250.739 24.3075 250.698 24.6825 250.656 24.9064" fill="white"/>
<path d="M64.7554 42.8647C64.6877 35.922 70.4377 32.5418 70.7033 32.3855C67.4481 27.6355 62.4012 26.9897 60.6252 26.9376C56.3908 26.4949 52.2814 29.4793 50.1252 29.4793C47.922 29.4793 44.5939 26.9845 41.0158 27.0574C36.4012 27.1303 32.0887 29.8022 29.7241 33.9428C24.8491 42.396 28.4845 54.8126 33.1616 61.646C35.5054 64.9897 38.2345 68.7293 41.8127 68.5939C45.3127 68.448 46.6199 66.3647 50.8439 66.3647C55.0314 66.3647 56.2606 68.5939 59.9116 68.5105C63.6668 68.448 66.0314 65.1512 68.2866 61.771C70.995 57.9376 72.0783 54.1616 72.12 53.9689C72.0314 53.9376 64.8283 51.1876 64.7554 42.8647Z" fill="white"/>
<path d="M57.8593 22.448C59.7395 20.0938 61.0364 16.8855 60.6718 13.6355C57.9478 13.7605 54.5416 15.5209 52.578 17.823C50.8437 19.8542 49.2864 23.1824 49.6926 26.3074C52.7551 26.5365 55.8957 24.7657 57.8593 22.448Z" fill="white"/>
<path d="M106.995 56.12L104.578 48.6564C104.323 47.896 103.844 46.0991 103.135 43.2762H103.052C102.771 44.4897 102.313 46.2866 101.693 48.6564L99.3177 56.12H106.995ZM115.349 68.0418H110.469L107.797 59.646H98.5156L95.9688 68.0418H91.2188L100.427 39.4585H106.104" fill="white"/>
<path d="M134.349 57.6512C134.349 55.6408 133.896 53.9897 132.989 52.6877C132 51.3335 130.672 50.6512 129.005 50.6512C127.875 50.6512 126.844 51.0314 125.932 51.7762C125.015 52.5314 124.411 53.5106 124.125 54.7293C123.984 55.2918 123.917 55.7554 123.917 56.12V59.5575C123.917 61.0575 124.375 62.3231 125.292 63.3543C126.213 64.3908 127.406 64.9012 128.875 64.9012C130.604 64.9012 131.948 64.2397 132.901 62.9064C133.87 61.5783 134.349 59.8283 134.349 57.6512ZM139.015 57.4793C139.015 60.9845 138.068 63.7606 136.172 65.7918C134.474 67.6043 132.364 68.5054 129.854 68.5054C127.135 68.5054 125.187 67.5262 124 65.5783H123.917V76.4377H119.333V54.2137C119.333 52.0106 119.281 49.7502 119.167 47.4272H123.193L123.448 50.6981H123.536C125.062 48.2345 127.38 47.0054 130.489 47.0054C132.917 47.0054 134.953 47.9689 136.573 49.8908C138.198 51.8179 139.015 54.3439 139.015 57.4793Z" fill="white"/>
<path d="M158.052 57.6512C158.052 55.6408 157.599 53.9897 156.693 52.6877C155.703 51.3335 154.375 50.6512 152.708 50.6512C151.578 50.6512 150.552 51.0314 149.635 51.7762C148.714 52.5314 148.12 53.5106 147.839 54.7293C147.693 55.2918 147.625 55.7554 147.625 56.12V59.5575C147.625 61.0575 148.078 62.3231 148.995 63.3543C149.917 64.3908 151.109 64.9012 152.583 64.9012C154.307 64.9012 155.651 64.2397 156.609 62.9064C157.568 61.5783 158.052 59.8283 158.052 57.6512ZM162.714 57.4793C162.714 60.9845 161.771 63.7606 159.875 65.7918C158.177 67.6043 156.073 68.5054 153.557 68.5054C150.844 68.5054 148.896 67.5262 147.703 65.5783H147.625V76.4377H143.042V54.2137C143.042 52.0106 142.984 49.7502 142.875 47.4272H146.901L147.156 50.6981H147.245C148.766 48.2345 151.083 47.0054 154.193 47.0054C156.625 47.0054 158.651 47.9689 160.281 49.8908C161.906 51.8179 162.714 54.3439 162.714 57.4793Z" fill="white"/>
<path d="M189.224 60.026C189.224 62.4531 188.38 64.4323 186.682 65.9635C184.818 67.6302 182.229 68.4635 178.901 68.4635C175.823 68.4635 173.354 67.8698 171.484 66.6823L172.547 62.8698C174.563 64.0833 176.766 64.6875 179.172 64.6875C180.896 64.6875 182.24 64.3021 183.203 63.526C184.161 62.7448 184.641 61.7031 184.641 60.401C184.641 59.2448 184.25 58.2604 183.458 57.4688C182.667 56.6771 181.349 55.9427 179.51 55.2604C174.505 53.3906 172.005 50.6563 172.005 47.0625C172.005 44.7135 172.88 42.7865 174.635 41.2865C176.385 39.7865 178.719 39.0312 181.63 39.0312C184.234 39.0312 186.396 39.4896 188.12 40.3906L186.974 44.125C185.365 43.25 183.542 42.8073 181.505 42.8073C179.891 42.8073 178.635 43.2031 177.734 43.9948C176.974 44.7031 176.589 45.5677 176.589 46.5833C176.589 47.7135 177.021 48.6458 177.901 49.3802C178.661 50.0573 180.047 50.7917 182.057 51.5885C184.516 52.5781 186.323 53.7344 187.484 55.0625C188.641 56.3906 189.224 58.0469 189.224 60.026Z" fill="white"/>
<path d="M204.359 50.8646H199.312V60.8698C199.312 63.4167 200.203 64.6875 201.989 64.6875C202.802 64.6875 203.484 64.6198 204.021 64.4792L204.146 67.9531C203.25 68.2969 202.057 68.4635 200.588 68.4635C198.781 68.4635 197.364 67.9115 196.344 66.8125C195.328 65.7083 194.818 63.8542 194.818 61.2552V50.8646H191.807V47.4271H194.818V43.6563L199.312 42.2969V47.4271H204.359" fill="white"/>
<path d="M222.385 57.7137C222.385 55.8127 221.974 54.1877 221.151 52.8231C220.198 51.1772 218.823 50.3543 217.042 50.3543C215.203 50.3543 213.802 51.1772 212.844 52.8231C212.021 54.1877 211.62 55.8439 211.62 57.8022C211.62 59.7033 212.021 61.3283 212.844 62.6877C213.833 64.3335 215.219 65.1564 217.005 65.1564C218.75 65.1564 220.125 64.3231 221.115 62.646C221.964 61.2606 222.385 59.6147 222.385 57.7137ZM227.135 57.5679C227.135 60.7345 226.234 63.3335 224.422 65.37C222.526 67.4637 220.01 68.5054 216.875 68.5054C213.844 68.5054 211.437 67.5002 209.641 65.495C207.849 63.4897 206.953 60.9585 206.953 57.9064C206.953 54.7085 207.875 52.0939 209.729 50.0627C211.578 48.021 214.073 47.0054 217.208 47.0054C220.234 47.0054 222.672 48.0106 224.505 50.0158C226.26 51.9741 227.135 54.4845 227.135 57.5679Z" fill="white"/>
<path d="M242.021 51.4585C241.568 51.3752 241.088 51.3335 240.578 51.3335C238.969 51.3335 237.719 51.9429 236.844 53.1564C236.083 54.2345 235.703 55.5887 235.703 57.2241V68.0418H231.125L231.161 53.922C231.161 51.5418 231.104 49.3804 230.995 47.4272H234.984L235.151 51.3752H235.271C235.755 50.021 236.521 48.9272 237.562 48.1095C238.583 47.3752 239.687 47.0054 240.875 47.0054C241.297 47.0054 241.682 47.0366 242.021 47.0887" fill="white"/>
<path d="M258.13 55.573C258.161 54.2188 257.864 53.0417 257.245 52.0522C256.453 50.7813 255.229 50.1407 253.594 50.1407C252.099 50.1407 250.88 50.7657 249.948 52.0105C249.187 53.0001 248.729 54.1876 248.599 55.573H258.13ZM262.495 56.7605C262.495 57.5834 262.443 58.2709 262.333 58.8386H248.599C248.646 60.8751 249.312 62.4324 250.588 63.5053C251.745 64.4688 253.245 64.9428 255.083 64.9428C257.114 64.9428 258.969 64.6199 260.64 63.9688L261.359 67.1511C259.406 67.9949 257.104 68.4272 254.443 68.4272C251.25 68.4272 248.739 67.4845 246.917 65.599C245.099 63.724 244.182 61.198 244.182 58.0313C244.182 54.922 245.026 52.3334 246.729 50.2709C248.505 48.0626 250.911 46.9636 253.932 46.9636C256.901 46.9636 259.156 48.0626 260.682 50.2709C261.896 52.0209 262.495 54.1876 262.495 56.7605Z" fill="white"/>
</svg>
