<svg width="154" height="133" viewBox="0 0 154 133" fill="none" xmlns="http://www.w3.org/2000/svg">
<path d="M24.517 49V31.5455H31.5057C32.7898 31.5455 33.8608 31.7358 34.7188 32.1165C35.5767 32.4972 36.2216 33.0256 36.6534 33.7017C37.0852 34.3722 37.3011 35.1449 37.3011 36.0199C37.3011 36.7017 37.1648 37.3011 36.892 37.8182C36.6193 38.3295 36.2443 38.75 35.767 39.0795C35.2955 39.4034 34.7557 39.6335 34.1477 39.7699V39.9403C34.8125 39.9687 35.4347 40.1562 36.0142 40.5028C36.5994 40.8494 37.0739 41.3352 37.4375 41.9602C37.8011 42.5795 37.983 43.3182 37.983 44.1761C37.983 45.1023 37.7528 45.929 37.2926 46.6562C36.8381 47.3778 36.1648 47.9489 35.2727 48.3693C34.3807 48.7898 33.2813 49 31.9744 49H24.517ZM28.2074 45.983H31.2159C32.2443 45.983 32.9943 45.7869 33.4659 45.3949C33.9375 44.9972 34.1733 44.4687 34.1733 43.8097C34.1733 43.3267 34.0568 42.9006 33.8239 42.5312C33.5909 42.1619 33.2585 41.8722 32.8267 41.6619C32.4006 41.4517 31.892 41.3466 31.3011 41.3466H28.2074V45.983ZM28.2074 38.8494H30.9432C31.4489 38.8494 31.8977 38.7614 32.2898 38.5852C32.6875 38.4034 33 38.1477 33.2273 37.8182C33.4602 37.4886 33.5767 37.0938 33.5767 36.6335C33.5767 36.0028 33.3523 35.4943 32.9034 35.108C32.4602 34.7216 31.8295 34.5284 31.0114 34.5284H28.2074V38.8494ZM44.0746 31.5455V49H40.3842V31.5455H44.0746ZM47.1108 49V31.5455H50.8011V45.9574H58.2841V49H47.1108ZM60.728 49V31.5455H64.4183V45.9574H71.9013V49H60.728ZM83.8139 36.5653C83.7457 35.8778 83.4531 35.3437 82.9361 34.9631C82.419 34.5824 81.7173 34.392 80.831 34.392C80.2287 34.392 79.7202 34.4773 79.3054 34.6477C78.8906 34.8125 78.5724 35.0426 78.3509 35.3381C78.1349 35.6335 78.027 35.9688 78.027 36.3438C78.0156 36.6562 78.081 36.929 78.223 37.1619C78.3707 37.3949 78.5724 37.5966 78.8281 37.767C79.0838 37.9318 79.3793 38.0767 79.7145 38.2017C80.0497 38.321 80.4077 38.4233 80.7884 38.5085L82.3565 38.8835C83.1179 39.054 83.8168 39.2812 84.4531 39.5653C85.0895 39.8494 85.6406 40.1989 86.1065 40.6136C86.5724 41.0284 86.9332 41.517 87.1889 42.0795C87.4503 42.642 87.5838 43.2869 87.5895 44.0142C87.5838 45.0824 87.3111 46.0085 86.7713 46.7926C86.2372 47.571 85.4645 48.1761 84.4531 48.608C83.4474 49.0341 82.2344 49.2472 80.8139 49.2472C79.4048 49.2472 78.1776 49.0312 77.1321 48.5994C76.0923 48.1676 75.2798 47.5284 74.6946 46.6818C74.1151 45.8295 73.8111 44.7756 73.7827 43.5199H77.3537C77.3935 44.1051 77.5611 44.5937 77.8565 44.9858C78.1577 45.3722 78.5582 45.6648 79.0582 45.8636C79.5639 46.0568 80.1349 46.1534 80.7713 46.1534C81.3963 46.1534 81.9389 46.0625 82.3991 45.8807C82.8651 45.6989 83.2259 45.446 83.4815 45.1222C83.7372 44.7983 83.8651 44.4261 83.8651 44.0057C83.8651 43.6136 83.7486 43.2841 83.5156 43.017C83.2884 42.75 82.9531 42.5227 82.5099 42.3352C82.0724 42.1477 81.5355 41.9773 80.8991 41.8239L78.9986 41.3466C77.527 40.9886 76.3651 40.429 75.5128 39.6676C74.6605 38.9062 74.2372 37.8807 74.2429 36.5909C74.2372 35.5341 74.5185 34.6108 75.0866 33.821C75.6605 33.0312 76.4474 32.4148 77.4474 31.9716C78.4474 31.5284 79.5838 31.3068 80.8565 31.3068C82.152 31.3068 83.2827 31.5284 84.2486 31.9716C85.2202 32.4148 85.9759 33.0312 86.5156 33.821C87.0554 34.6108 87.3338 35.5256 87.3509 36.5653H83.8139Z" fill="#ED1C24"/>
<path d="M13 6C13 2.68628 15.6863 0 19 0H147C150.314 0 153 2.68628 153 6V70.6953C150.982 67.829 148.629 65.2146 146 62.9084V9C146 7.34314 144.657 6 143 6H22C20.3431 6 19 7.34314 19 9V13H134C137.314 13 140 15.6863 140 19V58.4827C137.788 57.1239 135.448 55.9553 133 54.9995V22C133 20.3431 131.657 19 130 19H19V60H91.6954C89.5767 61.4919 87.5956 63.1663 85.775 65H19V73H79.4827C78.4987 74.6017 77.6143 76.2712 76.8383 78H19V81C19 82.6569 20.3431 84 22 84H74.6562C74.0158 86.2644 73.5521 88.603 73.2809 91H19C15.6863 91 13 88.3137 13 85V19H9C7.34314 19 6 20.3431 6 22V94C6 95.6569 7.34314 97 9 97H73.0112C73.0643 99.385 73.3073 101.723 73.7255 104H6C2.68628 104 0 101.314 0 98V19C0 15.6863 2.68628 13 6 13H13V6Z" fill="#325B81"/>
<path fill-rule="evenodd" clip-rule="evenodd" d="M118.5 133C138.106 133 154 117.106 154 97.5C154 77.8939 138.106 62 118.5 62C98.8939 62 83 77.8939 83 97.5C83 117.106 98.8939 133 118.5 133ZM118.5 126C134.24 126 147 113.24 147 97.5C147 81.7599 134.24 69 118.5 69C102.76 69 90 81.7599 90 97.5C90 113.24 102.76 126 118.5 126Z" fill="url(#paint0_linear_22_1226)"/>
<path d="M115.169 115.645L99.6062 99.624C99.3172 99.3266 99.1728 99.1778 99.1625 98.9911C99.1522 98.8043 99.2795 98.6406 99.5341 98.3133L105.305 90.8942C105.629 90.4774 105.791 90.269 106.016 90.255C106.241 90.241 106.428 90.4277 106.801 90.801L114.157 98.1572C114.548 98.548 114.743 98.7435 114.976 98.7231C115.208 98.7028 115.367 98.4764 115.684 98.0235L128.397 79.8615C128.68 79.4572 128.821 79.255 129.034 79.2231C129.246 79.1911 129.441 79.3426 129.83 79.6456L137.239 85.4079C137.599 85.6879 137.779 85.8278 137.807 86.0276C137.836 86.2274 137.703 86.4124 137.436 86.7822L116.698 115.533C116.374 115.981 116.212 116.206 115.98 116.223C115.747 116.24 115.554 116.041 115.169 115.645Z" fill="#ED1C24"/>
<rect x="100" y="31" width="26" height="17" fill="#325B81"/>
<defs>
<linearGradient id="paint0_linear_22_1226" x1="118.5" y1="61" x2="118.5" y2="134" gradientUnits="userSpaceOnUse">
<stop stop-color="#ED1C24"/>
<stop offset="1" stop-color="#ED1C24"/>
</linearGradient>
</defs>
</svg>
