<svg width="740" height="179" viewBox="0 0 740 179" fill="none" xmlns="http://www.w3.org/2000/svg">
<rect width="740" height="179" rx="89.5" fill="#E11D26"/>
<circle cx="89.5" cy="89.5" r="79.5" fill="white"/>
<path d="M90.1119 74.4073L46.2662 82.5938V136.685L90.1119 128.448V74.4073Z" fill="#53AE93"/>
<path d="M133.807 82.5938L89.9615 74.4073V128.448L133.807 136.685V82.5938Z" fill="#61C1A1"/>
<path d="M90.0619 144.922L46.2162 136.685V82.644L90.0619 90.8306V144.922Z" fill="#6BCAAC"/>
<path d="M133.757 136.685L89.9111 144.922V90.8306L133.757 82.644V136.685Z" fill="#428E71"/>
<path d="M71.8808 141.507L59.9275 139.247L59.8771 85.2055L71.9309 87.4656L71.8808 141.507Z" fill="#FF002D"/>
<path d="M119.192 139.397L107.239 141.657L107.088 87.7167L119.142 85.4566L119.192 139.397Z" fill="#9E1A2B"/>
<path d="M45.1914 74.4895L44.0473 87.147L89.911 97.4531L89.6979 83.5412L45.1914 74.4895Z" fill="#6BCAAC"/>
<path d="M135.193 74.8628L135.506 87.7199L89.9109 97.453L89.6979 83.5411L135.193 74.8628Z" fill="#428E71"/>
<path d="M45.1913 74.4894L89.6978 83.5411L135.193 74.8628L89.2815 66.8671L45.1913 74.4894Z" fill="#53AE93"/>
<path d="M59.877 77.4207L107.566 69.8143L118.516 71.9644L71.9308 79.9319L59.877 77.4207Z" fill="#B2354E"/>
<path d="M59.8769 77.4208L59.8769 90.7302L71.9307 93.4925L71.9307 79.932" fill="#FF002D"/>
<path d="M77.9576 69.3849L66.1566 71.3539L107.088 80.1831L119.141 77.923L77.9576 69.3849Z" fill="#B2354E"/>
<path d="M135.685 63.1601C132.173 66.8295 113.903 79.954 95.267 76.9569C95.267 76.9569 123.574 54.9842 135.483 61.6033C136.036 61.9544 136.137 62.7077 135.685 63.1601Z" fill="#9E1A2B"/>
<path d="M91.1895 66.2627L89.3898 75.8571L95.2168 76.9569C95.2168 76.9569 125.382 55.1333 135.684 61.8543L122.308 42.8813C121.503 41.777 120.147 41.3262 118.842 41.6789C113.619 43.14 100.465 48.0232 92.8931 61.6406C92.0907 63.0476 91.4894 64.6553 91.1895 66.2627Z" fill="#E55A77"/>
<path d="M45.0229 54.1489C47.7388 58.4658 63.9255 75.0256 82.7603 75.8629C82.7603 75.8629 58.5284 48.6124 45.5239 52.6919C44.9213 52.8431 44.6709 53.5967 45.0229 54.1489Z" fill="#9E1A2B"/>
<path d="M88.0253 66.1148L87.8832 75.9588L82.7603 75.8629C82.7603 75.8629 56.6197 48.4131 45.2227 52.8428L62.1344 37.0074C63.1381 36.1025 64.5944 35.9003 65.8003 36.5019C70.6743 39.0089 82.8854 46.6323 87.5194 61.9466C87.9224 63.3023 88.0743 64.7085 88.0253 66.1148Z" fill="#E55A77"/>
<path d="M122.308 42.8813C122.308 42.8813 112.182 64.9385 95.2669 76.9569L89.9908 73.948L120.499 41.6272C120.499 41.6775 121.353 41.5763 122.308 42.8813Z" fill="#FF002D"/>
<path d="M61.8835 37.2085C61.8835 37.2085 68.2322 60.6074 82.9105 75.3103L88.6343 73.2461L63.8917 36.3529C63.8917 36.3027 63.0376 36.0523 61.8835 37.2085Z" fill="#FF002D"/>
<path d="M107.088 80.1831L107.088 93.7436L119.141 91.2324L119.141 77.923L107.088 80.1831Z" fill="#9E1A2B"/>
<path d="M123.108 39.3146C119.348 46.5502 103.096 70.7725 92.6017 73.0919C92.6017 73.0919 109.25 42.742 122.454 37.9591C123.308 37.7073 123.61 38.3599 123.108 39.3146Z" fill="#9E1A2B"/>
<path d="M91.3402 66.2626L90.2918 73.4958L92.6018 73.092C92.6018 73.092 110.805 41.4348 122.856 37.9588L107.485 34.8584C106.882 34.7584 105.929 35.5126 105.076 36.6685C102.016 41.0909 95.5458 51.1414 92.1406 62.6457C91.7901 63.8514 91.4898 65.0571 91.3402 66.2626Z" fill="#FF002D"/>
<path d="M94.5025 64.2007C95.3536 61.1362 97.9103 55.6596 97.9103 55.6596C96.7059 56.8158 93.7983 62.9457 93.7983 62.9457C93.0419 59.5311 95.9488 52.5474 95.9488 52.5474C93.442 57.6222 91.3893 65.007 91.3893 65.007L93.4491 65.6581L94.2529 65.9085L95.1571 66.1588C94.9551 64.8532 97.6121 59.276 97.6121 59.276C97.6121 59.276 95.8555 60.734 94.5025 64.2007Z" fill="url(#paint0_linear_1011_384)"/>
<path d="M63.2871 34.3947C65.554 42.2277 76.7274 69.1883 86.5751 73.499C86.5751 73.499 76.2 40.4606 64.1901 33.1886C63.4364 32.7874 62.9849 33.3905 63.2871 34.3947Z" fill="#9E1A2B"/>
<path d="M89.1811 67.068L88.7857 74.3509L86.5751 73.499C86.5751 73.499 74.943 38.8545 63.7882 33.0885L79.4581 33.0748C80.111 33.0742 80.8652 34.0278 81.4691 35.3331C83.6331 40.3034 88.0123 51.3991 89.0774 63.3013C89.2292 64.607 89.2303 65.8626 89.1811 67.068Z" fill="#FF002D"/>
<path d="M85.2129 66.2177C85.2129 66.2177 81.5349 52.9617 79.5226 49.0962C79.5226 49.0962 84.7034 57.9312 86.2648 63.0024L84.8534 57.1777C84.8534 57.1777 89.0271 63 88.3256 64.8589C87.624 66.6174 85.2129 66.2177 85.2129 66.2177Z" fill="url(#paint1_linear_1011_384)"/>
<path d="M83.2125 76.1137L81.5512 71.5949C80.4437 68.6327 82.8517 65.5167 86.0161 65.8152L94.153 66.5615C97.3174 66.8601 99.0784 70.4245 97.4234 73.138L95.0662 76.9571L83.2125 76.1137Z" fill="#B2354E"/>
<path d="M86.0251 76.312C86.0251 76.312 82.6081 74.2056 82.5045 70.69C82.5045 70.69 85.2215 76.2123 88.0342 76.4107C88.0342 76.4107 84.8156 71.592 86.4207 69.1296C86.4207 69.1296 88.183 74.3012 89.2385 75.1541C89.2385 75.1541 91.4478 74.5494 92.3505 73.0419C92.3505 73.0419 92.854 74.498 91.9004 75.202C91.9004 75.202 94.9642 75.35 96.4176 71.7828C96.4176 71.7828 96.5708 74.6956 92.404 76.7585L86.0251 76.312Z" fill="#9E1A2B"/>
<path d="M199 88.098C199 85.236 199.507 82.44 200.521 79.71C201.58 76.936 203.101 74.4262 205.085 72.1806C207.069 69.891 209.494 68.0857 212.361 66.7647C215.227 65.3997 218.49 64.7172 222.149 64.7172C226.471 64.7172 230.197 65.6639 233.327 67.5573C236.502 69.4506 238.861 71.9164 240.404 74.9546L233.393 79.7761C232.6 78.0148 231.564 76.6278 230.285 75.6151C229.006 74.5583 227.639 73.8318 226.184 73.4355C224.729 72.9952 223.296 72.775 221.885 72.775C219.592 72.775 217.586 73.2374 215.866 74.162C214.19 75.0867 212.779 76.2976 211.633 77.7946C210.487 79.2917 209.627 80.9649 209.053 82.8142C208.524 84.6636 208.26 86.5129 208.26 88.3622C208.26 90.4317 208.59 92.4352 209.252 94.3725C209.913 96.2659 210.839 97.9611 212.03 99.4582C213.264 100.911 214.72 102.078 216.395 102.959C218.115 103.795 219.989 104.214 222.017 104.214C223.472 104.214 224.949 103.971 226.449 103.487C227.948 103.003 229.337 102.232 230.615 101.175C231.894 100.119 232.886 98.7537 233.592 97.0805L241.066 101.374C240.14 103.707 238.619 105.689 236.502 107.318C234.43 108.947 232.093 110.18 229.491 111.017C226.89 111.853 224.31 112.271 221.753 112.271C218.401 112.271 215.337 111.589 212.559 110.224C209.781 108.815 207.378 106.966 205.35 104.676C203.365 102.342 201.8 99.7444 200.654 96.8824C199.551 93.9763 199 91.0482 199 88.098Z" fill="white"/>
<path d="M246.261 63.6605H255.124V100.779C255.124 102.364 255.388 103.443 255.918 104.015C256.447 104.544 257.174 104.808 258.1 104.808C258.806 104.808 259.533 104.72 260.283 104.544C261.032 104.368 261.694 104.148 262.267 103.883L263.458 110.62C262.267 111.193 260.878 111.633 259.291 111.941C257.703 112.249 256.27 112.404 254.992 112.404C252.214 112.404 250.053 111.677 248.51 110.224C247.011 108.727 246.261 106.613 246.261 103.883V63.6605Z" fill="white"/>
<path d="M264.938 101.638C264.938 99.3922 265.555 97.4327 266.79 95.7595C268.069 94.0423 269.833 92.7214 272.081 91.7967C274.33 90.872 276.91 90.4097 279.82 90.4097C281.275 90.4097 282.752 90.5198 284.251 90.7399C285.751 90.9601 287.051 91.3123 288.154 91.7967V89.9474C288.154 87.7458 287.492 86.0506 286.169 84.8617C284.891 83.6729 282.973 83.0784 280.415 83.0784C278.519 83.0784 276.711 83.4087 274.992 84.0691C273.272 84.7296 271.464 85.6983 269.568 86.9752L266.724 81.1631C269.017 79.666 271.354 78.5432 273.735 77.7946C276.16 77.0461 278.695 76.6718 281.341 76.6718C286.28 76.6718 290.116 77.9047 292.85 80.3705C295.628 82.8363 297.017 86.3588 297.017 90.9381V101.968C297.017 102.893 297.171 103.553 297.48 103.949C297.832 104.346 298.383 104.588 299.133 104.676V111.875C298.339 112.007 297.612 112.117 296.95 112.205C296.333 112.293 295.804 112.337 295.363 112.337C293.599 112.337 292.254 111.941 291.328 111.149C290.447 110.356 289.895 109.387 289.675 108.243L289.476 106.459C287.977 108.397 286.103 109.894 283.854 110.95C281.606 112.007 279.313 112.536 276.976 112.536C274.683 112.536 272.61 112.073 270.759 111.149C268.951 110.18 267.518 108.881 266.459 107.252C265.445 105.579 264.938 103.707 264.938 101.638ZM286.5 103.421C286.985 102.893 287.382 102.364 287.691 101.836C287.999 101.308 288.154 100.823 288.154 100.383V96.8824C287.095 96.442 285.949 96.1118 284.714 95.8916C283.48 95.6274 282.311 95.4954 281.209 95.4954C278.916 95.4954 277.02 96.0017 275.521 97.0144C274.066 97.9831 273.338 99.2821 273.338 100.911C273.338 101.792 273.581 102.628 274.066 103.421C274.551 104.214 275.256 104.852 276.182 105.336C277.108 105.821 278.21 106.063 279.489 106.063C280.812 106.063 282.113 105.821 283.391 105.336C284.67 104.808 285.706 104.17 286.5 103.421Z" fill="white"/>
<path d="M305.299 111.875V77.2663H314.162V111.875H305.299ZM305.299 72.4448V63.6605H314.162V72.4448H305.299Z" fill="white"/>
<path d="M375.996 111.875H367.133V92.4572C367.133 89.7272 366.648 87.7238 365.678 86.4469C364.752 85.1259 363.451 84.4654 361.775 84.4654C360.056 84.4654 358.402 85.1479 356.815 86.5129C355.272 87.8338 354.169 89.5731 353.508 91.7306V111.875H344.645V92.4572C344.645 89.6832 344.16 87.6577 343.19 86.3808C342.264 85.1039 340.963 84.4654 339.287 84.4654C337.568 84.4654 335.914 85.1259 334.327 86.4469C332.784 87.7678 331.681 89.507 331.02 91.6646V111.875H322.157V77.2663H330.16V83.6729C331.483 81.4272 333.247 79.71 335.451 78.5212C337.656 77.2883 340.191 76.6718 343.058 76.6718C345.924 76.6718 348.15 77.3763 349.738 78.7853C351.369 80.1944 352.405 81.9336 352.846 84.0031C354.257 81.6254 356.043 79.8201 358.204 78.5872C360.409 77.3103 362.878 76.6718 365.612 76.6718C367.772 76.6718 369.514 77.0681 370.837 77.8607C372.204 78.6092 373.262 79.644 374.012 80.9649C374.761 82.2418 375.268 83.6949 375.533 85.324C375.841 86.9532 375.996 88.6044 375.996 90.2776V111.875Z" fill="white"/>
<path d="M398.52 118.612C399.314 118.788 400.042 118.942 400.703 119.074C401.409 119.206 402.004 119.272 402.489 119.272C403.327 119.272 404.01 119.052 404.539 118.612C405.113 118.216 405.664 117.467 406.193 116.366C406.722 115.31 407.273 113.813 407.846 111.875L394.155 77.2663H403.349L412.675 102.827L420.876 77.2663H429.342L414.791 118.744C414.262 120.285 413.446 121.672 412.344 122.905C411.286 124.182 409.941 125.173 408.309 125.877C406.722 126.626 404.936 127 402.952 127C402.246 127 401.541 126.934 400.835 126.802C400.13 126.714 399.358 126.538 398.52 126.273V118.612Z" fill="white"/>
<path d="M449.001 112.536C446.179 112.536 443.644 112.073 441.395 111.149C439.146 110.18 437.228 108.859 435.641 107.186C434.097 105.513 432.907 103.597 432.069 101.44C431.231 99.2821 430.812 97.0144 430.812 94.6367C430.812 92.215 431.231 89.9254 432.069 87.7678C432.907 85.6102 434.097 83.6949 435.641 82.0217C437.228 80.3485 439.146 79.0495 441.395 78.1249C443.644 77.1562 446.179 76.6718 449.001 76.6718C451.823 76.6718 454.337 77.1562 456.541 78.1249C458.79 79.0495 460.708 80.3485 462.296 82.0217C463.883 83.6949 465.073 85.6102 465.867 87.7678C466.705 89.9254 467.124 92.215 467.124 94.6367C467.124 97.0144 466.705 99.2821 465.867 101.44C465.073 103.597 463.883 105.513 462.296 107.186C460.752 108.859 458.856 110.18 456.607 111.149C454.359 112.073 451.823 112.536 449.001 112.536ZM439.94 94.6367C439.94 96.6622 440.337 98.4675 441.13 100.053C441.924 101.594 443.004 102.805 444.371 103.685C445.738 104.566 447.282 105.006 449.001 105.006C450.677 105.006 452.198 104.566 453.565 103.685C454.932 102.761 456.012 101.528 456.806 99.9866C457.644 98.4014 458.062 96.5961 458.062 94.5707C458.062 92.5893 457.644 90.806 456.806 89.2208C456.012 87.6357 454.932 86.4028 453.565 85.5222C452.198 84.6416 450.677 84.2012 449.001 84.2012C447.282 84.2012 445.738 84.6636 444.371 85.5882C443.004 86.4689 441.924 87.7018 441.13 89.2869C440.337 90.828 439.94 92.6113 439.94 94.6367Z" fill="white"/>
<path d="M472.775 98.9298V77.2663H481.638V97.0144C481.638 99.6563 482.123 101.66 483.093 103.025C484.063 104.346 485.496 105.006 487.392 105.006C488.539 105.006 489.663 104.786 490.766 104.346C491.912 103.861 492.948 103.157 493.874 102.232C494.844 101.308 495.66 100.141 496.322 98.7317V77.2663H505.184V101.968C505.184 102.893 505.339 103.553 505.647 103.949C506 104.346 506.551 104.588 507.301 104.676V111.875C506.419 112.007 505.67 112.095 505.052 112.139C504.479 112.227 503.95 112.271 503.465 112.271C501.877 112.271 500.577 111.919 499.562 111.215C498.592 110.466 498.019 109.453 497.843 108.176L497.644 105.402C496.101 107.736 494.117 109.519 491.692 110.752C489.267 111.941 486.599 112.536 483.689 112.536C480.117 112.536 477.405 111.391 475.553 109.101C473.701 106.767 472.775 103.377 472.775 98.9298Z" fill="white"/>
<path d="M534.628 84.9278C531.938 84.9278 529.535 85.4561 527.419 86.5129C525.302 87.5256 523.781 89.0007 522.855 90.9381V111.875H513.992V77.2663H522.127V84.6636C523.362 82.2859 524.927 80.4145 526.823 79.0495C528.72 77.6846 530.726 76.936 532.842 76.8039C533.327 76.8039 533.702 76.8039 533.967 76.8039C534.231 76.8039 534.452 76.8259 534.628 76.87V84.9278Z" fill="white"/>
<path d="M567.533 112.073C565.24 112.073 563.123 111.633 561.183 110.752C559.287 109.828 557.634 108.551 556.223 106.922C554.856 105.292 553.798 103.421 553.048 101.308C552.298 99.194 551.924 96.9484 551.924 94.5707C551.924 92.0609 552.32 89.7272 553.114 87.5697C553.908 85.4121 555.01 83.5187 556.421 81.8896C557.876 80.2164 559.574 78.9395 561.514 78.0588C563.498 77.1342 565.681 76.6718 568.062 76.6718C570.752 76.6718 573.111 77.2883 575.139 78.5212C577.167 79.71 578.843 81.3172 580.166 83.3426V77.2663H587.904V110.224C587.904 113.658 587.067 116.587 585.391 119.008C583.759 121.474 581.489 123.345 578.578 124.622C575.668 125.943 572.361 126.604 568.657 126.604C564.909 126.604 561.734 125.965 559.133 124.688C556.531 123.455 554.305 121.694 552.453 119.405L557.281 114.715C558.604 116.344 560.257 117.621 562.242 118.546C564.27 119.471 566.408 119.933 568.657 119.933C570.553 119.933 572.273 119.581 573.816 118.876C575.404 118.216 576.66 117.159 577.586 115.706C578.556 114.297 579.041 112.47 579.041 110.224V105.865C577.895 107.846 576.263 109.387 574.147 110.488C572.075 111.545 569.87 112.073 567.533 112.073ZM570.509 105.006C571.479 105.006 572.405 104.852 573.287 104.544C574.169 104.236 574.985 103.817 575.734 103.289C576.484 102.761 577.145 102.144 577.719 101.44C578.292 100.691 578.733 99.9425 579.041 99.194V90.9381C578.512 89.5731 577.763 88.3842 576.793 87.3715C575.867 86.3588 574.808 85.5882 573.618 85.0599C572.471 84.4874 571.259 84.2012 569.98 84.2012C568.613 84.2012 567.379 84.4874 566.276 85.0599C565.174 85.6323 564.226 86.4469 563.432 87.5036C562.638 88.5163 562.021 89.6612 561.58 90.9381C561.183 92.171 560.985 93.4699 560.985 94.8349C560.985 96.2439 561.227 97.5648 561.712 98.7977C562.197 100.031 562.859 101.109 563.697 102.034C564.579 102.959 565.593 103.685 566.739 104.214C567.93 104.742 569.186 105.006 570.509 105.006Z" fill="white"/>
<path d="M595.893 111.875V77.2663H604.756V111.875H595.893ZM595.893 72.4448V63.6605H604.756V72.4448H595.893Z" fill="white"/>
<path d="M614.868 111.875V85.8524H610.304V79.1156H614.868V77.0021C614.868 74.14 615.331 71.6742 616.257 69.6047C617.227 67.4912 618.572 65.8621 620.292 64.7172C622.056 63.5724 624.106 63 626.443 63C627.854 63 629.265 63.1761 630.676 63.5284C632.131 63.8806 633.564 64.387 634.975 65.0475L633.189 71.7183C632.528 71.366 631.756 71.0798 630.874 70.8596C629.993 70.5955 629.155 70.4634 628.361 70.4634C626.862 70.4634 625.715 70.9917 624.922 72.0485C624.128 73.1053 623.731 74.6464 623.731 76.6718V79.1156H632.197V85.8524H623.731V111.875H614.868Z" fill="white"/>
<path d="M658 110.092C657.25 110.4 656.346 110.752 655.288 111.149C654.23 111.545 653.084 111.853 651.849 112.073C650.658 112.337 649.446 112.47 648.211 112.47C646.58 112.47 645.08 112.183 643.714 111.611C642.347 111.039 641.244 110.136 640.406 108.903C639.613 107.626 639.216 105.975 639.216 103.949V84.0691H634.652V77.2663H639.216V66.0382H648.079V77.2663H655.354V84.0691H648.079V100.977C648.123 102.166 648.454 103.025 649.071 103.553C649.688 104.082 650.46 104.346 651.386 104.346C652.312 104.346 653.216 104.192 654.098 103.883C654.98 103.575 655.685 103.311 656.214 103.091L658 110.092Z" fill="white"/>
<defs>
<linearGradient id="paint0_linear_1011_384" x1="97.8195" y1="51.8482" x2="93.1242" y2="66.3755" gradientUnits="userSpaceOnUse">
<stop offset="0.0854079" stop-color="#B2354E" stop-opacity="0.8617"/>
<stop offset="1" stop-color="#B2354E" stop-opacity="0"/>
</linearGradient>
<linearGradient id="paint1_linear_1011_384" x1="80.2362" y1="47.5932" x2="86.5629" y2="64.2441" gradientUnits="userSpaceOnUse">
<stop offset="0.0854079" stop-color="#B2354E" stop-opacity="0.8617"/>
<stop offset="1" stop-color="#B2354E" stop-opacity="0"/>
</linearGradient>
</defs>
</svg>
