<svg width="92" height="112" viewBox="0 0 92 112" fill="none" xmlns="http://www.w3.org/2000/svg">
<path d="M46.1119 41.4073L2.26624 49.5938V103.685L46.1119 95.4485V41.4073Z" fill="#53AE93"/>
<path d="M89.8072 49.5938L45.9615 41.4073V95.4485L89.8072 103.685V49.5938Z" fill="#61C1A1"/>
<path d="M46.0619 111.922L2.21619 103.685V49.644L46.0619 57.8306V111.922Z" fill="#6BCAAC"/>
<path d="M89.7568 103.685L45.9111 111.922V57.8306L89.7568 49.644V103.685Z" fill="#428E71"/>
<path d="M27.8808 108.507L15.9275 106.247L15.8771 52.2055L27.9309 54.4656L27.8808 108.507Z" fill="#FF002D"/>
<path d="M75.1919 106.397L63.2386 108.657L63.0878 54.7167L75.1416 52.4566L75.1919 106.397Z" fill="#9E1A2B"/>
<path d="M1.19141 41.4895L0.0473215 54.147L45.911 64.4531L45.6979 50.5412L1.19141 41.4895Z" fill="#6BCAAC"/>
<path d="M91.1934 41.8628L91.506 54.7199L45.9109 64.453L45.6979 50.5411L91.1934 41.8628Z" fill="#428E71"/>
<path d="M1.19132 41.4894L45.6978 50.5411L91.1933 41.8628L45.2815 33.8671L1.19132 41.4894Z" fill="#53AE93"/>
<path d="M15.877 44.4207L63.5656 36.8143L74.5164 38.9644L27.9308 46.9319L15.877 44.4207Z" fill="#B2354E"/>
<path d="M15.8769 44.4208L15.8769 57.7302L27.9307 60.4925L27.9307 46.932" fill="#FF002D"/>
<path d="M33.9576 36.3849L22.1566 38.3539L63.0876 47.1831L75.1414 44.923L33.9576 36.3849Z" fill="#B2354E"/>
<path d="M91.6854 30.1601C88.173 33.8295 69.9028 46.954 51.267 43.9569C51.267 43.9569 79.5743 21.9842 91.4832 28.6033C92.036 28.9544 92.1371 29.7077 91.6854 30.1601Z" fill="#9E1A2B"/>
<path d="M47.1895 33.2627L45.3898 42.8571L51.2168 43.9569C51.2168 43.9569 81.3824 22.1333 91.6843 28.8543L78.308 9.88126C77.5035 8.77703 76.147 8.32621 74.8415 8.67892C69.6195 10.14 56.465 15.0232 48.8931 28.6406C48.0907 30.0476 47.4894 31.6553 47.1895 33.2627Z" fill="#E55A77"/>
<path d="M1.02292 21.1489C3.7388 25.4658 19.9255 42.0256 38.7603 42.8629C38.7603 42.8629 14.5284 15.6124 1.52389 19.6919C0.921332 19.8431 0.67087 20.5967 1.02292 21.1489Z" fill="#9E1A2B"/>
<path d="M44.0253 33.1148L43.8832 42.9588L38.7603 42.8629C38.7603 42.8629 12.6197 15.4131 1.2227 19.8428L18.1344 4.00739C19.1381 3.10248 20.5944 2.90031 21.8003 3.50195C26.6743 6.00889 38.8854 13.6323 43.5194 28.9466C43.9224 30.3023 44.0743 31.7085 44.0253 33.1148Z" fill="#E55A77"/>
<path d="M78.308 9.88125C78.308 9.88125 68.182 31.9385 51.2669 43.9569L45.9908 40.948L76.4988 8.62723C76.4988 8.67745 77.3526 8.57626 78.308 9.88125Z" fill="#FF002D"/>
<path d="M17.8835 4.20851C17.8835 4.20851 24.2322 27.6074 38.9105 42.3103L44.6343 40.2461L19.8917 3.35294C19.8917 3.30272 19.0376 3.05235 17.8835 4.20851Z" fill="#FF002D"/>
<path d="M63.0877 47.1831L63.0877 60.7436L75.1415 58.2324L75.1414 44.923L63.0877 47.1831Z" fill="#9E1A2B"/>
<path d="M79.1084 6.31462C75.3479 13.5502 59.0965 37.7725 48.6017 40.0919C48.6017 40.0919 65.2496 9.74198 78.4543 4.95914C79.3079 4.70727 79.6098 5.35992 79.1084 6.31462Z" fill="#9E1A2B"/>
<path d="M47.3402 33.2626L46.2918 40.4958L48.6018 40.092C48.6018 40.092 66.8055 8.43483 78.8562 4.95882L63.4849 1.85837C62.8822 1.75844 61.9286 2.51264 61.0758 3.66855C58.016 8.09095 51.5458 18.1414 48.1406 29.6457C47.7901 30.8514 47.4898 32.0571 47.3402 33.2626Z" fill="#FF002D"/>
<path d="M50.5025 31.2007C51.3536 28.1362 53.9103 22.6596 53.9103 22.6596C52.7059 23.8158 49.7983 29.9457 49.7983 29.9457C49.0419 26.5311 51.9488 19.5474 51.9488 19.5474C49.442 24.6222 47.3893 32.007 47.3893 32.007L49.4491 32.6581L50.2529 32.9085L51.1571 33.1588C50.9551 31.8532 53.6121 26.276 53.6121 26.276C53.6121 26.276 51.8555 27.734 50.5025 31.2007Z" fill="url(#paint0_linear_1010_170)"/>
<path d="M19.2871 1.39475C21.554 9.22773 32.7274 36.1883 42.5751 40.499C42.5751 40.499 32.2 7.46058 20.1901 0.18858C19.4364 -0.212554 18.9849 0.390527 19.2871 1.39475Z" fill="#9E1A2B"/>
<path d="M45.1811 34.068L44.7857 41.3509L42.5751 40.499C42.5751 40.499 30.943 5.8545 19.7882 0.0884705L35.4581 0.0747689C36.111 0.074198 36.8652 1.0278 37.4691 2.3331C39.6331 7.3034 44.0123 18.3991 45.0774 30.3013C45.2292 31.607 45.2303 32.8626 45.1811 34.068Z" fill="#FF002D"/>
<path d="M41.2129 33.2177C41.2129 33.2177 37.5349 19.9617 35.5226 16.0962C35.5226 16.0962 40.7034 24.9312 42.2648 30.0024L40.8534 24.1777C40.8534 24.1777 45.0271 30 44.3256 31.8589C43.624 33.6174 41.2129 33.2177 41.2129 33.2177Z" fill="url(#paint1_linear_1010_170)"/>
<path d="M39.2125 43.1137L37.5512 38.5949C36.4437 35.6327 38.8517 32.5167 42.0161 32.8152L50.153 33.5615C53.3174 33.8601 55.0784 37.4245 53.4234 40.138L51.0662 43.9571L39.2125 43.1137Z" fill="#B2354E"/>
<path d="M42.0251 43.312C42.0251 43.312 38.6081 41.2056 38.5045 37.69C38.5045 37.69 41.2215 43.2123 44.0342 43.4107C44.0342 43.4107 40.8156 38.592 42.4207 36.1296C42.4207 36.1296 44.183 41.3012 45.2385 42.1541C45.2385 42.1541 47.4478 41.5494 48.3505 40.0419C48.3505 40.0419 48.854 41.498 47.9004 42.202C47.9004 42.202 50.9642 42.35 52.4176 38.7828C52.4176 38.7828 52.5708 41.6956 48.404 43.7585L42.0251 43.312Z" fill="#9E1A2B"/>
<defs>
<linearGradient id="paint0_linear_1010_170" x1="53.8195" y1="18.8482" x2="49.1242" y2="33.3755" gradientUnits="userSpaceOnUse">
<stop offset="0.0854079" stop-color="#B2354E" stop-opacity="0.8617"/>
<stop offset="1" stop-color="#B2354E" stop-opacity="0"/>
</linearGradient>
<linearGradient id="paint1_linear_1010_170" x1="36.2362" y1="14.5932" x2="42.5629" y2="31.2441" gradientUnits="userSpaceOnUse">
<stop offset="0.0854079" stop-color="#B2354E" stop-opacity="0.8617"/>
<stop offset="1" stop-color="#B2354E" stop-opacity="0"/>
</linearGradient>
</defs>
</svg>
