<svg width="80" height="80" viewBox="0 0 80 80" fill="none" xmlns="http://www.w3.org/2000/svg">
<circle cx="40" cy="40" r="40" fill="#7BB9FF"/>
<circle cx="40" cy="40" r="40" fill="url(#paint0_linear)"/>
<path d="M15.5169 44.1C15.5638 44.124 15.6146 44.1408 15.6668 44.15C15.7218 44.1591 15.7775 44.1649 15.8335 44.1668C16.054 44.1633 16.2654 44.0771 16.4252 43.9249C16.5003 43.8452 16.5599 43.7521 16.5999 43.6499C16.7258 43.3394 16.6571 42.9834 16.4252 42.7416C16.3455 42.6664 16.252 42.6069 16.1502 42.5665C16.0498 42.5238 15.9423 42.5013 15.8335 42.5001C15.6127 42.5032 15.4017 42.5894 15.2419 42.7416C14.9195 43.0704 14.9195 43.5965 15.2419 43.9249L15.3666 44.0249C15.4132 44.0565 15.4635 44.0817 15.5169 44.1V44.1Z" fill="white"/>
<path d="M22.5001 20.8335C22.9601 20.8335 23.3332 20.4604 23.3332 19.9999C23.3332 19.5399 22.9601 19.1668 22.5001 19.1668H20.8335C20.373 19.1668 19.9999 19.5399 19.9999 19.9999C19.9999 20.4604 20.373 20.8335 20.8335 20.8335H22.5001Z" fill="white"/>
<path d="M27.5 20.8335C27.9604 20.8335 28.3335 20.4604 28.3335 19.9999C28.3335 19.5399 27.9604 19.1668 27.5 19.1668H25.8334C25.3733 19.1668 25.0002 19.5399 25.0002 19.9999C25.0002 20.4604 25.3733 20.8335 25.8334 20.8335H27.5Z" fill="white"/>
<path d="M34.1666 20.8335C34.627 20.8335 35.0001 20.4604 35.0001 19.9999C35.0001 19.5399 34.627 19.1668 34.1666 19.1668H30.8333C30.3732 19.1668 30.0002 19.5399 30.0002 19.9999C30.0002 20.4604 30.3732 20.8335 30.8333 20.8335H34.1666Z" fill="white"/>
<path d="M55.8333 20.8335C56.2937 20.8335 56.6668 20.4604 56.6668 19.9999C56.6668 19.5399 56.2937 19.1668 55.8333 19.1668H37.5002C37.0398 19.1668 36.6667 19.5399 36.6667 19.9999C36.6667 20.4604 37.0398 20.8335 37.5002 20.8335H55.8333Z" fill="white"/>
<path d="M61.6667 26.6669H60.8332V19.1668C60.8305 16.8665 58.9667 15.0027 56.6668 15H19.1668C16.8665 15.0027 15.0027 16.8665 15 19.1668V40C15 40.4604 15.3731 40.8335 15.8335 40.8335C16.2936 40.8335 16.6666 40.4604 16.6666 40V19.1668C16.6666 17.7859 17.7859 16.6666 19.1668 16.6666H56.6668C58.0473 16.6666 59.1666 17.7859 59.1666 19.1668V26.6669H56.6668V24.9251C56.6443 24.026 55.8993 23.3141 55.0002 23.3332H20.8334C19.9343 23.3141 19.1889 24.026 19.1668 24.9251V48.4084C19.1889 49.3075 19.9343 50.0193 20.8334 49.9998H36.6667V52.5H19.1668C17.7859 52.5 16.6666 51.3808 16.6666 49.9998V46.6666C16.6666 46.2065 16.2936 45.8334 15.8335 45.8334C15.3731 45.8334 15 46.2065 15 46.6666V49.9998C15.0027 52.3001 16.8665 54.164 19.1668 54.1666H36.6667V61.6667C36.6667 63.5077 38.159 65 40 65H61.6667C63.5077 65 65 63.5077 65 61.6667V30.0002C65 28.1592 63.5077 26.6669 61.6667 26.6669V26.6669ZM55.0002 26.6669H40C38.8098 26.6646 37.7097 27.3009 37.1176 28.3335H28.3335V24.9998L55.0002 25.0052V26.6669ZM28.3335 35.0001H36.6667V38.3334H28.3335V35.0001ZM26.6669 38.3334H20.8334V35.0001H26.6669V38.3334ZM36.6667 33.3334H28.3335V30.0002H36.6667V33.3334ZM26.6669 33.3334H20.8334V30.0002H26.6669V33.3334ZM20.8334 40H26.6669V43.3333H20.8334V40ZM28.3335 40H36.6667V43.3333H28.3335V40ZM26.6669 24.9998V28.3335H20.8334V24.9998H26.6669ZM20.8334 44.9999H26.6669V48.329H20.8334V44.9999ZM28.3335 48.3332V44.9999H36.6667V48.3332H28.3335ZM63.3334 61.6667C63.3334 62.5872 62.5872 63.3334 61.6667 63.3334H40C39.0795 63.3334 38.3334 62.5872 38.3334 61.6667V30.0002C38.3326 29.8071 38.3681 29.6156 38.4383 29.436C38.6698 28.7726 39.2973 28.3293 40 28.3335H61.6667C62.5872 28.3335 63.3334 29.0797 63.3334 30.0002V61.6667Z" fill="white"/>
<path d="M60.0424 30.0001H41.6258C40.7286 30.0001 40.0011 30.7268 40 31.624V37.541C40 38.4382 40.7271 39.1657 41.6243 39.1668H60.0409C60.9381 39.1668 61.666 38.4398 61.6667 37.5425V31.6259C61.6667 30.7287 60.9396 30.0009 60.0424 30.0001ZM60.0001 37.4998L41.6666 37.5425L41.6243 31.6668L60.0001 31.624V37.4998Z" fill="white"/>
<path d="M44.9999 40.8335H41.6666C40.7462 40.8335 40 41.5797 40 42.5001V44.9999C40 45.9204 40.7462 46.6665 41.6666 46.6665H44.9999C45.9204 46.6665 46.6666 45.9204 46.6666 44.9999V42.5001C46.6666 41.5797 45.9204 40.8335 44.9999 40.8335V40.8335ZM41.6666 44.9999V42.5001H44.9999V44.9999H41.6666Z" fill="white"/>
<path d="M44.9999 48.3332H41.6666C40.7462 48.3332 40 49.0793 40 49.9998V52.5C40 53.4205 40.7462 54.1666 41.6666 54.1666H44.9999C45.9204 54.1666 46.6666 53.4205 46.6666 52.5V49.9998C46.6666 49.0793 45.9204 48.3332 44.9999 48.3332V48.3332ZM41.6666 52.5V49.9998H44.9999V52.5H41.6666Z" fill="white"/>
<path d="M44.9999 55.8333H41.6666C40.7462 55.8333 40 56.5794 40 57.4999V60.0001C40 60.9206 40.7462 61.6667 41.6666 61.6667H44.9999C45.9204 61.6667 46.6666 60.9206 46.6666 60.0001V57.4999C46.6666 56.5794 45.9204 55.8333 44.9999 55.8333V55.8333ZM41.6666 60.0001V57.4999H44.9999V60.0001H41.6666Z" fill="white"/>
<path d="M52.5 40.8335H49.1667C48.2462 40.8335 47.5001 41.5797 47.5001 42.5001V44.9999C47.5001 45.9204 48.2462 46.6665 49.1667 46.6665H52.5C53.4205 46.6665 54.1667 45.9204 54.1667 44.9999V42.5001C54.1667 41.5797 53.4205 40.8335 52.5 40.8335V40.8335ZM49.1667 44.9999V42.5001H52.5V44.9999H49.1667Z" fill="white"/>
<path d="M52.5 48.3332H49.1667C48.2462 48.3332 47.5001 49.0793 47.5001 49.9998V52.5C47.5001 53.4205 48.2462 54.1666 49.1667 54.1666H52.5C53.4205 54.1666 54.1667 53.4205 54.1667 52.5V49.9998C54.1667 49.0793 53.4205 48.3332 52.5 48.3332ZM49.1667 52.5V49.9998H52.5V52.5H49.1667Z" fill="white"/>
<path d="M52.5 55.8333H49.1667C48.2462 55.8333 47.5001 56.5794 47.5001 57.4999V60.0001C47.5001 60.9206 48.2462 61.6667 49.1667 61.6667H52.5C53.4205 61.6667 54.1667 60.9206 54.1667 60.0001V57.4999C54.1667 56.5794 53.4205 55.8333 52.5 55.8333ZM49.1667 60.0001V57.4999H52.5V60.0001H49.1667Z" fill="white"/>
<path d="M60.0001 40.8335H56.6668C55.7463 40.8335 55.0002 41.5797 55.0002 42.5001V44.9999C55.0002 45.9204 55.7463 46.6665 56.6668 46.6665H60.0001C60.9206 46.6665 61.6667 45.9204 61.6667 44.9999V42.5001C61.6667 41.5797 60.9206 40.8335 60.0001 40.8335V40.8335ZM56.6668 44.9999V42.5001H60.0001V44.9999H56.6668Z" fill="white"/>
<path d="M60.0001 48.3332H56.6668C55.7463 48.3332 55.0002 49.0793 55.0002 49.9998V52.5C55.0002 53.4205 55.7463 54.1666 56.6668 54.1666H60.0001C60.9206 54.1666 61.6667 53.4205 61.6667 52.5V49.9998C61.6667 49.0793 60.9206 48.3332 60.0001 48.3332ZM56.6668 52.5V49.9998H60.0001V52.5H56.6668Z" fill="white"/>
<path d="M60.0001 55.8333H56.6668C55.7463 55.8333 55.0002 56.5794 55.0002 57.4999V60.0001C55.0002 60.9206 55.7463 61.6667 56.6668 61.6667H60.0001C60.9206 61.6667 61.6667 60.9206 61.6667 60.0001V57.4999C61.6667 56.5794 60.9206 55.8333 60.0001 55.8333ZM56.6668 60.0001V57.4999H60.0001V60.0001H56.6668Z" fill="white"/>
<path d="M44.1668 35.0001H44.9999C45.4604 35.0001 45.8334 34.627 45.8334 34.1666C45.8334 33.7065 45.4604 33.3334 44.9999 33.3334H44.1668C43.7064 33.3334 43.3333 33.7065 43.3333 34.1666C43.3333 34.627 43.7064 35.0001 44.1668 35.0001V35.0001Z" fill="white"/>
<path d="M48.3332 35.0001H55.8333C56.2937 35.0001 56.6668 34.627 56.6668 34.1666C56.6668 33.7065 56.2937 33.3334 55.8333 33.3334H48.3332C47.8732 33.3334 47.5001 33.7065 47.5001 34.1666C47.5001 34.627 47.8732 35.0001 48.3332 35.0001V35.0001Z" fill="white"/>
<defs>
<linearGradient id="paint0_linear" x1="42" y1="-2.5" x2="40" y2="94.5" gradientUnits="userSpaceOnUse">
<stop stop-color="#0077FD"/>
<stop offset="0.765625" stop-color="#C1DEFF" stop-opacity="0.469017"/>
<stop offset="1" stop-color="white" stop-opacity="0"/>
</linearGradient>
</defs>
</svg>
