<svg width="80" height="80" viewBox="0 0 80 80" fill="none" xmlns="http://www.w3.org/2000/svg">
<circle cx="40" cy="40" r="40" fill="#7BB9FF"/>
<circle cx="40" cy="40" r="40" fill="url(#paint0_linear)"/>
<path d="M28.8751 44.3727C28.8751 44.726 28.5884 45.0086 28.2401 45.0086C27.8873 45.0086 27.6051 44.7216 27.6051 44.3727V28.7978H14.27V60.1861H16.4705C16.8232 60.1861 17.1055 60.4732 17.1055 60.822C17.1055 61.1753 16.8188 61.4579 16.4705 61.4579H13.635C13.2822 61.4579 13 61.1709 13 60.822V28.4577C13 28.2016 13.1058 27.9676 13.2734 27.7953C13.441 27.6275 13.6747 27.5216 13.9349 27.5216H27.6051V15.1172C27.6051 14.8125 27.7285 14.5299 27.9314 14.3312V14.3268C28.1342 14.1236 28.4121 14 28.7207 14H51.3648C51.6735 14 51.9513 14.1236 52.1541 14.3268L52.2026 14.3798C52.3746 14.5785 52.4849 14.8346 52.4849 15.1172V27.5216H66.2521C66.5078 27.5216 66.7416 27.6275 66.9091 27.7953L66.9135 27.7998C67.0811 27.9676 67.1869 28.2016 67.1869 28.4577V60.822C67.1869 61.1753 66.9003 61.4579 66.5519 61.4579H62.5214C62.1687 61.4579 61.8864 61.1709 61.8864 60.822C61.8864 60.4687 62.1731 60.1861 62.5214 60.1861H65.9169V28.7978H52.4804V44.1872C52.4804 44.5405 52.1938 44.8231 51.8454 44.8231C51.4927 44.8231 51.2104 44.5361 51.2104 44.1872V15.2718H28.8751V44.3727ZM55.8407 44.2667H62.8522C62.9095 44.2667 62.958 44.3021 62.958 44.3418V46.4173C62.958 46.4614 62.9095 46.4968 62.8522 46.4968H55.8407C55.7833 46.4968 55.7348 46.4614 55.7348 46.4173V44.3418C55.7348 44.3021 55.7833 44.2667 55.8407 44.2667ZM17.2819 44.2667H24.2934C24.3507 44.2667 24.3992 44.3021 24.3992 44.3418V46.4173C24.3992 46.4614 24.3507 46.4968 24.2934 46.4968H17.2819C17.2245 46.4968 17.176 46.4614 17.176 46.4173V44.3418C17.176 44.3021 17.2245 44.2667 17.2819 44.2667ZM31.7238 17.7403H48.3662C48.644 17.7403 48.8733 17.9699 48.8733 18.2481V23.6841C48.8733 23.9623 48.644 24.1919 48.3662 24.1919H31.7238C31.446 24.1919 31.2167 23.9623 31.2167 23.6841V18.2481C31.2122 17.9699 31.4416 17.7403 31.7238 17.7403ZM55.9509 60.376C55.4879 59.4443 54.9014 58.6538 54.2135 57.9119C55.5011 58.4109 56.8196 58.9055 57.7942 59.5193C59.5669 60.6321 59.6992 61.979 59.8447 63.9132H51.0561C51.0561 63.8999 51.0561 63.8823 51.0561 63.869L50.8929 62.4868L51.5235 63.0344L54.6104 60.3451L55.9509 60.376ZM24.5006 58.1945L25.6163 61.48L26.1763 59.5282L25.9029 59.2279C25.7794 59.0468 25.753 58.8878 25.8191 58.751C25.9691 58.4551 26.2777 58.5125 26.5644 58.5125C26.8642 58.5125 27.2391 58.4551 27.3317 58.8349C27.3625 58.9629 27.3229 59.0954 27.2347 59.2323L26.9613 59.5326L27.5213 61.4844L28.5311 58.199C28.6766 58.3314 28.8839 58.4418 29.122 58.539C29.0382 58.7156 28.9633 58.8967 28.8971 59.091C28.7252 59.59 28.6149 60.142 28.5664 60.7558H28.5708C28.5708 60.769 28.5708 60.7867 28.5664 60.7999L28.3239 63.9176H20.2496C19.7645 63.8823 19.5176 63.6305 19.4779 63.1978L19.6455 61.4756C19.694 60.8618 19.866 60.3804 20.1438 60.0095C20.329 59.7666 20.5583 59.5856 20.8097 59.4443C21.6122 58.9806 23.773 58.8525 24.5006 58.1945ZM23.9538 53.5357C23.8436 53.5446 23.7642 53.5711 23.7025 53.6064C23.6672 53.6285 23.6451 53.6594 23.6275 53.6947C23.6098 53.7345 23.601 53.7875 23.601 53.8449C23.6054 54.0259 23.7025 54.2688 23.8921 54.547L23.8965 54.5514L24.5183 55.545C24.7652 55.9424 25.0298 56.3443 25.3473 56.6401C25.6516 56.9183 26.0264 57.1082 26.5159 57.1126C27.0494 57.1126 27.4375 56.9183 27.755 56.6225C28.0857 56.3134 28.3503 55.8806 28.6105 55.4523L29.3116 54.2953C29.4528 53.9729 29.4969 53.7786 29.4528 53.6859C29.4263 53.6285 29.3072 53.6152 29.1176 53.6285C28.9941 53.655 28.8707 53.6329 28.734 53.5622L29.0823 52.5113C27.7991 52.4936 26.9172 52.2728 25.8809 51.606C25.5413 51.3896 25.4355 51.1379 25.0959 51.16C24.8358 51.2086 24.6197 51.3278 24.4477 51.5133C24.2801 51.6899 24.1567 51.9328 24.0773 52.2463L24.2845 53.5093C24.1743 53.5755 24.0641 53.5799 23.9538 53.5357ZM29.5145 53.2222C29.6644 53.2664 29.7747 53.3547 29.8452 53.4872C29.9511 53.7036 29.9114 54.0215 29.7129 54.4719C29.7085 54.4808 29.7041 54.4896 29.6997 54.4984L28.9897 55.6686C28.7163 56.1235 28.4341 56.5783 28.0593 56.9316C27.6668 57.2981 27.1861 57.541 26.5247 57.541C25.9073 57.541 25.4443 57.3025 25.0651 56.9537C24.6991 56.6181 24.4212 56.1897 24.1611 55.7702L23.5393 54.7766C23.3056 54.4278 23.1865 54.1098 23.1777 53.8493C23.1733 53.7212 23.1953 53.6064 23.2438 53.5048C23.2923 53.3989 23.3717 53.3061 23.4731 53.2399C23.5217 53.2046 23.579 53.1781 23.6451 53.156C23.6054 52.6261 23.5922 51.9681 23.6187 51.4117C23.6319 51.2748 23.6584 51.1423 23.6936 51.0054C23.8524 50.4358 24.2537 49.9765 24.7476 49.663C24.924 49.5526 25.1136 49.4599 25.3164 49.3848C26.5159 48.952 28.1034 49.1861 28.9545 50.109C29.3028 50.4843 29.5189 50.9833 29.563 51.6413L29.5145 53.2222ZM35.7896 48.824C35.6485 48.8416 35.5426 48.8769 35.4632 48.9255C35.4103 48.9609 35.375 49.005 35.353 49.0536C35.3265 49.1154 35.3133 49.1905 35.3133 49.2744C35.3221 49.5438 35.4677 49.9059 35.7455 50.321L35.7499 50.3298L36.6803 51.8135C37.0507 52.4053 37.4388 53.0058 37.9195 53.4474C38.3781 53.8669 38.9293 54.1496 39.6613 54.1496C40.4551 54.1496 41.0372 53.8581 41.5046 53.4165C41.9985 52.9528 42.3954 52.3125 42.779 51.6722L43.8241 49.95C44.0358 49.4687 44.0975 49.1772 44.0314 49.0448C43.9873 48.9564 43.8065 48.9344 43.4978 48.9653C43.4757 48.9653 43.4493 48.9653 43.4272 48.9653C43.2994 48.9653 43.1627 48.9344 43.0083 48.8637L43.4802 47.2916C41.5619 47.2696 40.2522 46.9339 38.7 45.9404C38.1885 45.6136 38.0385 45.2426 37.527 45.278C37.1434 45.353 36.817 45.5253 36.5613 45.8035C36.3143 46.0684 36.1291 46.4305 36.0056 46.8986L36.3364 48.8019C36.1468 48.8902 35.9615 48.899 35.7896 48.824ZM36.6539 55.7702L38.3208 60.6763L39.1586 57.7662L38.7485 57.3158C38.5633 57.0464 38.5236 56.8079 38.625 56.6048C38.8455 56.1632 39.3085 56.2471 39.7363 56.2471C40.1861 56.2471 40.7417 56.1632 40.8828 56.724C40.9313 56.9139 40.8696 57.1082 40.7373 57.3158L40.3272 57.7662L41.165 60.6763L42.6732 55.7702C43.7624 56.7505 46.5626 56.9493 47.762 57.6161C48.0883 57.7971 48.3838 58.0223 48.6351 58.3094C48.6396 58.2784 48.6484 58.2431 48.666 58.2166C48.7983 57.9561 49.0717 58.0047 49.3275 58.0047C49.5965 58.0047 49.9272 57.9561 50.011 58.2917C50.0374 58.4021 50.0022 58.5213 49.9272 58.645L49.6847 58.9143L50.183 60.6454L49.5436 61.1532L49.7552 63.9308C49.6935 64.58 49.3275 64.9509 48.6043 65.0083H30.7272C30.004 64.9509 29.638 64.58 29.5762 63.9308L29.8276 60.6586C29.8981 59.7445 30.1539 59.0203 30.5728 58.4683C30.8462 58.1062 31.1902 57.8369 31.5694 57.6249C32.7645 56.9493 35.5647 56.7505 36.6539 55.7702ZM44.1328 48.3515C44.3577 48.4177 44.5253 48.5458 44.6267 48.7489C44.7854 49.0713 44.7237 49.5438 44.4283 50.2194C44.4238 50.2326 44.415 50.2459 44.4106 50.2591L43.3479 52.0078C42.9378 52.6879 42.5188 53.3635 41.9588 53.889C41.3723 54.4366 40.6535 54.8031 39.6701 54.7987C38.7485 54.7987 38.0562 54.4454 37.4873 53.9244C36.9405 53.4254 36.5304 52.785 36.1335 52.158L35.2031 50.6742C34.8547 50.1576 34.6783 49.6807 34.6651 49.2876C34.6607 49.0977 34.6915 48.9255 34.7621 48.7754C34.8371 48.6164 34.9517 48.4795 35.1061 48.378C35.181 48.325 35.2692 48.2852 35.3618 48.2499C35.3045 47.455 35.2869 46.4747 35.3221 45.6489C35.3442 45.4458 35.3795 45.2471 35.4368 45.0439C35.6749 44.1917 36.2702 43.5072 37.0111 43.0391C37.2712 42.8713 37.5579 42.7344 37.8577 42.6284C39.6437 41.9793 42.0161 42.3326 43.2861 43.7103C43.8021 44.2711 44.1284 45.013 44.1989 45.9934L44.1328 48.3515ZM47.3651 56.4503L48.1854 56.4282L48.8689 56.4105C48.0751 53.9597 48.3397 51.7076 50.2535 49.791C50.5798 50.842 51.3075 51.712 52.5466 52.3523C53.1375 52.7939 53.7108 53.3238 54.2664 53.9376C54.3634 53.5313 53.9886 53.0412 53.5344 52.5333C53.9533 52.7409 54.3414 53.0323 54.6148 53.5932C54.9323 54.2423 54.9279 54.7899 54.822 55.4964C54.7735 55.8232 54.6941 56.1323 54.5795 56.4105H55.7128C56.9078 53.8493 56.1494 50.0472 53.7064 48.4354C52.9567 47.9408 52.4187 47.9584 51.5368 47.9584C50.5313 47.9584 50.0154 47.9893 49.1511 48.5634C47.8811 49.4069 47.0961 50.8641 46.7698 52.8866C46.7037 53.8979 46.6596 55.6421 47.3651 56.4503ZM55.8407 39.7316H62.8522C62.9095 39.7316 62.958 39.7669 62.958 39.8111V41.8865C62.958 41.9307 62.9095 41.966 62.8522 41.966H55.8407C55.7833 41.966 55.7348 41.9307 55.7348 41.8865V39.8111C55.7348 39.7669 55.7833 39.7316 55.8407 39.7316ZM55.8407 35.192H62.8522C62.9095 35.192 62.958 35.2273 62.958 35.2715V37.347C62.958 37.3911 62.9095 37.4265 62.8522 37.4265H55.8407C55.7833 37.4265 55.7348 37.3911 55.7348 37.347V35.2715C55.7348 35.2273 55.7833 35.192 55.8407 35.192ZM17.2819 39.7316H24.2934C24.3507 39.7316 24.3992 39.7669 24.3992 39.8111V41.8865C24.3992 41.9307 24.3507 41.966 24.2934 41.966H17.2819C17.2245 41.966 17.176 41.9307 17.176 41.8865V39.8111C17.176 39.7669 17.2245 39.7316 17.2819 39.7316ZM17.2819 35.192H24.2934C24.3507 35.192 24.3992 35.2273 24.3992 35.2715V37.347C24.3992 37.3911 24.3507 37.4265 24.2934 37.4265H17.2819C17.2245 37.4265 17.176 37.3911 17.176 37.347V35.2715C17.176 35.2273 17.2245 35.192 17.2819 35.192ZM44.6046 35.6733H48.3485C48.4058 35.6733 48.4544 35.7219 48.4544 35.7793V39.5284C48.4544 39.5859 48.4058 39.6344 48.3485 39.6344H44.6046C44.5473 39.6344 44.4988 39.5859 44.4988 39.5284V35.7793C44.4988 35.7219 44.5473 35.6733 44.6046 35.6733ZM38.1708 35.6733H41.9147C41.972 35.6733 42.0205 35.7219 42.0205 35.7793V39.5284C42.0205 39.5859 41.972 39.6344 41.9147 39.6344H38.1708C38.1135 39.6344 38.065 39.5859 38.065 39.5284V35.7793C38.065 35.7219 38.1135 35.6733 38.1708 35.6733ZM31.737 35.6733H35.4809C35.5382 35.6733 35.5867 35.7219 35.5867 35.7793V39.5284C35.5867 39.5859 35.5382 39.6344 35.4809 39.6344H31.737C31.6797 39.6344 31.6312 39.5859 31.6312 39.5284V35.7793C31.6312 35.7219 31.6797 35.6733 31.737 35.6733ZM44.6046 28.4003H48.3485C48.4058 28.4003 48.4544 28.4489 48.4544 28.5063V32.2554C48.4544 32.3128 48.4058 32.3614 48.3485 32.3614H44.6046C44.5473 32.3614 44.4988 32.3128 44.4988 32.2554V28.5063C44.4988 28.4445 44.5473 28.4003 44.6046 28.4003ZM38.1708 28.4003H41.9147C41.972 28.4003 42.0205 28.4489 42.0205 28.5063V32.2554C42.0205 32.3128 41.972 32.3614 41.9147 32.3614H38.1708C38.1135 32.3614 38.065 32.3128 38.065 32.2554V28.5063C38.065 28.4445 38.1135 28.4003 38.1708 28.4003ZM31.737 28.4003H35.4809C35.5382 28.4003 35.5867 28.4489 35.5867 28.5063V32.2554C35.5867 32.3128 35.5382 32.3614 35.4809 32.3614H31.737C31.6797 32.3614 31.6312 32.3128 31.6312 32.2554V28.5063C31.6312 28.4445 31.6797 28.4003 31.737 28.4003Z" fill="white"/>
<defs>
<linearGradient id="paint0_linear" x1="42" y1="-2.5" x2="40" y2="94.5" gradientUnits="userSpaceOnUse">
<stop stop-color="#0077FD"/>
<stop offset="0.765625" stop-color="#C1DEFF" stop-opacity="0.469017"/>
<stop offset="1" stop-color="white" stop-opacity="0"/>
</linearGradient>
</defs>
</svg>
