<svg width="343" height="351" viewBox="0 0 343 351" fill="none" xmlns="http://www.w3.org/2000/svg">
<path opacity="0.3922" d="M342.908 81.3864L202.036 0V104.668L342.908 186.054V81.3864Z" fill="#C4C3EC"/>
<path d="M342.908 81.3864L202.036 0V16.4746L342.908 97.861V81.3864Z" fill="#B7B6E3"/>
<g opacity="0.9">
<path d="M308.775 99.6367L331.07 112.461V106.049L308.775 93.2244V99.6367Z" fill="#B7B6E3"/>
<path d="M218.411 41.0385L226.303 45.5764V51.9887L218.411 47.4507V41.0385Z" fill="#B7B6E3"/>
<path d="M257.082 69.7457L273.261 79.1174V72.7052L257.082 63.4321V69.7457Z" fill="#B7B6E3"/>
<path d="M227.389 52.5806L248.105 64.6159V58.2036L227.389 46.1683V52.5806Z" fill="#B7B6E3"/>
<path d="M249.289 65.3064L255.701 68.9565V62.5442L249.289 58.8942V65.3064Z" fill="#2559B4"/>
<path d="M274.543 79.808L307.591 98.9461V92.5339L274.543 73.4944V79.808Z" fill="#F3D249"/>
<path d="M208.349 104.471L239.325 122.425V116.013L208.349 98.0583V104.471Z" fill="#B7B6E3"/>
<path d="M270.203 140.182L286.283 149.455V143.141L270.203 133.868V140.182Z" fill="#B7B6E3"/>
<path d="M240.41 123.017L261.226 135.052V128.64L240.41 116.605V123.017Z" fill="#B7B6E3"/>
<path d="M262.409 135.644L268.822 139.393V132.98L262.409 129.33V135.644Z" fill="#2559B4"/>
<path d="M287.664 150.244L320.712 169.382V162.97L287.664 143.832V150.244Z" fill="#05D4F5"/>
<path d="M311.537 92.2379L339.357 108.318V101.906L311.537 85.8257V92.2379Z" fill="#05D4F5"/>
<path d="M278.884 73.3957L309.268 90.9554V84.5432L278.884 66.9835V73.3957Z" fill="#B7B6E3"/>
<path d="M211.605 34.5276L241.989 52.0873V45.675L211.605 28.1153V34.5276Z" fill="#B7B6E3"/>
<path d="M255.405 59.782L277.306 72.5079V66.0956L255.405 53.4684V59.782Z" fill="#2559B4"/>
<path d="M243.37 52.8765L254.221 59.0915V52.7778L243.37 46.4642V52.8765Z" fill="#05D4F5"/>
<path d="M311.537 145.904L339.357 161.984V155.571L311.537 139.491V145.904Z" fill="#05D4F5"/>
<path d="M207.363 79.808L233.702 95.0001V101.412L207.363 86.2203V79.808Z" fill="#B7B6E3"/>
<path d="M258.365 115.223L277.996 126.47V120.156L258.365 108.811V115.223Z" fill="#B7B6E3"/>
<path d="M249.289 109.995L255.701 113.645V107.233L249.289 103.583V109.995Z" fill="#2559B4"/>
<path d="M279.575 127.456L309.959 145.016V138.603L279.575 121.044V127.456Z" fill="#F3D249"/>
<path d="M236.366 102.892L247.217 109.206V102.793L236.366 96.5785V102.892Z" fill="#05D4F5"/>
<path d="M311.537 119.169L339.357 135.151V128.837L311.537 112.757V119.169Z" fill="#05D4F5"/>
<path d="M275.234 98.1569L309.959 118.282V111.869L275.234 91.8433V98.1569Z" fill="#B7B6E3"/>
<path d="M211.605 61.4591L241.989 79.0188V72.7052L211.605 55.0468V61.4591Z" fill="#B7B6E3"/>
<path d="M255.405 86.8121L273.656 97.2691V90.9555L255.405 80.3999V86.8121Z" fill="#05D4F5"/>
<path d="M243.37 79.808L254.221 86.1216V79.7093L243.37 73.4944V79.808Z" fill="#B7B6E3"/>
<path d="M300.587 103.879L331.07 121.438V115.026L300.587 97.4664V103.879Z" fill="#2559B4"/>
<path d="M246.921 72.9025L277.306 90.4622V84.0499L246.921 66.4902V72.9025Z" fill="#F3D249"/>
<path d="M278.983 91.3501L298.614 102.695V96.2826L278.983 85.0364V91.3501Z" fill="#B7B6E3"/>
<path d="M227.981 61.9523L238.832 68.1673V61.8537L227.981 55.5401V61.9523Z" fill="#2559B4"/>
<path d="M300.587 148.764L331.07 166.324V160.011L300.587 142.352V148.764Z" fill="#B7B6E3"/>
<path d="M243.37 115.717L272.472 132.487V126.174L243.37 109.403V115.717Z" fill="#B7B6E3"/>
<path d="M273.656 133.178L299.601 148.173V141.859L273.656 126.864V133.178Z" fill="#2559B4"/>
<path d="M227.981 106.838L242.581 115.223V108.91L227.981 100.426V106.838Z" fill="#F5D622"/>
<path d="M318.147 131.994L331.07 139.393V132.98L318.147 125.582V131.994Z" fill="#F3D249"/>
<path d="M256.984 96.6772L287.861 114.533V108.121L256.984 90.2649V96.6772Z" fill="#B7B6E3"/>
<path d="M289.045 115.223L316.766 131.106V124.792L289.045 108.811V115.223Z" fill="#B7B6E3"/>
<path d="M243.765 89.0811L254.616 95.2961V88.8838L243.765 82.6689V89.0811Z" fill="#05D4F5"/>
<path d="M301.87 131.501L321.304 142.747V136.433L301.87 125.187V131.501Z" fill="#F3D249"/>
<path d="M247.513 100.13L300.39 130.711V124.299L247.513 93.8163V100.13Z" fill="#B7B6E3"/>
<path d="M229.658 89.8703L246.231 99.4394V93.0271L229.658 83.4581V89.8703Z" fill="#F3D249"/>
</g>
<g opacity="0.3922">
<path d="M32.9491 57.2171L32.8505 84.5432L66.9835 104.273L67.0821 76.9471L32.9491 57.2171Z" fill="#C4C3EC"/>
</g>
<path d="M34.9221 69.7457L43.5047 71.2254V75.7633L39.2627 74.4809L43.5047 78.3282V82.8661L34.9221 74.2836V69.7457Z" fill="#05D4F5"/>
<path d="M50.9034 70.1403L55.4413 72.8038L48.9304 91.4487L44.3925 88.7852L50.9034 70.1403Z" fill="#05D4F5"/>
<path d="M56.4278 85.727L60.6698 86.8122L56.4278 83.2608V78.7229L65.0104 87.1081V91.646L56.4278 90.2649V85.727Z" fill="#05D4F5"/>
<g opacity="0.3922">
<path d="M48.3386 30.2856L48.2399 58.3023L73.0998 72.7052L73.1984 44.6885L48.3386 30.2856Z" fill="#C4C3EC"/>
</g>
<path d="M59.3874 45.5764L61.9523 47.1548L62.6428 43.2088L65.5037 44.8858L64.8131 48.8318L66.3915 49.7197V52.6792L64.3199 51.4954L63.8266 54.3562L66.4902 55.836V58.7955L63.432 57.0198L62.7415 60.9658L59.8806 59.2888L60.5712 55.3427L58.0063 53.863L57.3157 57.809L54.4549 56.1319L55.1454 52.1859L53.567 51.2981V48.3386L55.6387 49.5224L56.1319 46.6615L53.567 45.1818V42.2223L56.6252 43.998L57.3157 40.052L60.1766 41.729L59.3874 45.5764ZM58.4009 51.1008L60.9658 52.5805L61.459 49.7197L58.8941 48.2399L58.4009 51.1008Z" fill="#05D4F5"/>
<path d="M121.734 205.686L77.6377 231.137L15.4881 195.327L59.5847 169.777L121.734 205.686Z" fill="#D8D5EE"/>
<path d="M113.152 221.766L80.3012 252.446L5.52438 225.81L38.3749 195.13L113.152 221.766Z" fill="#E4E3EE"/>
<path d="M31.864 249.585V254.221L31.7654 257.773L31.864 253.136V249.585Z" fill="#848487"/>
<path d="M7.69469 258.365V263.001L3.74869 260.732V256.096L7.69469 258.365Z" fill="#919DD6"/>
<path d="M48.0426 256.392V261.028L43.702 263.593V258.858L48.0426 256.392Z" fill="#B7B6E3"/>
<path d="M35.6127 264.382V269.019C35.6127 267.539 34.6262 266.06 32.6532 264.876C28.7072 262.607 22.2949 262.607 18.2503 264.876C16.2773 266.06 15.2908 267.539 15.2908 269.019V264.382C15.2908 262.903 16.2773 261.423 18.2503 260.239C22.1963 257.97 28.6086 257.97 32.6532 260.239C34.6262 261.423 35.6127 262.903 35.6127 264.382Z" fill="#C4C3EC"/>
<path d="M5.42576 267.441V272.077H0V267.441H5.42576Z" fill="#919DD6"/>
<path d="M51.1008 267.934L51.0021 272.57H45.1818V267.835L51.1008 267.934Z" fill="#919DD6"/>
<path d="M51.1994 261.226V265.862L51.0021 272.57L51.1008 267.934L51.1994 261.226Z" fill="#858588"/>
<path d="M7.1028 270.006V274.642C6.41225 273.853 5.82035 272.965 5.42575 272.077V267.441C5.82035 268.328 6.41225 269.118 7.1028 270.006Z" fill="#C4C3EC"/>
<path d="M45.1818 267.835V272.472C44.7872 273.261 44.1953 274.05 43.5047 274.741V270.104C44.1953 269.414 44.7872 268.624 45.1818 267.835Z" fill="#C4C3EC"/>
<path d="M19.4341 275.826V280.462C17.9543 280.166 16.4746 279.871 15.0935 279.377V274.741C16.4746 275.234 17.9543 275.629 19.4341 275.826Z" fill="#C4C3EC"/>
<path d="M35.3168 274.839V279.476C33.9357 279.871 32.4559 280.265 30.9762 280.462V275.826C32.4559 275.629 33.9357 275.333 35.3168 274.839Z" fill="#C4C3EC"/>
<path d="M11.2461 276.911V281.646L3.15683 276.911V272.274L11.2461 276.911Z" fill="#919DD6"/>
<path d="M15.0935 274.741V279.476L11.2462 281.646V276.911L15.0935 274.741Z" fill="#B7B6E3"/>
<path d="M47.4507 272.472V277.108L39.2628 281.844L39.3614 277.207L47.4507 272.472Z" fill="#B7B6E3"/>
<path d="M39.3614 277.207L39.2627 281.844L35.3167 279.575V274.839L39.3614 277.207Z" fill="#919DD6"/>
<path d="M39.3614 277.207L35.3167 274.938C33.9356 275.333 32.4559 275.727 30.9761 275.925V279.081H19.4341V275.925C17.9543 275.629 16.4746 275.333 15.0935 274.839L11.3448 277.01L3.25544 272.274L7.20145 270.006C6.51089 269.216 5.91899 268.328 5.52439 267.441H0.0986328L0.197285 260.831H5.91899C6.41225 260.042 7.00414 259.154 7.79335 258.463L3.84734 256.194L12.0353 251.459L16.2773 253.926C17.5597 253.531 18.9408 253.235 20.4206 253.038L20.5192 249.684H32.0613L31.9626 253.235C33.3437 253.531 34.6262 253.827 35.9086 254.221L40.1506 251.755L48.2399 256.49L43.8993 258.957C44.5899 259.746 45.0831 260.535 45.4777 261.324H51.3967L51.2981 267.934H45.3791C44.9845 268.723 44.3926 269.512 43.702 270.203L47.7467 272.472L39.3614 277.207ZM18.2503 268.624C22.1963 270.893 28.6085 270.893 32.6532 268.624C36.5992 266.355 36.5992 262.607 32.6532 260.338C28.7072 258.069 22.2949 258.069 18.2503 260.338C14.3043 262.607 14.3043 266.257 18.2503 268.624Z" fill="#DAD9E8"/>
<path d="M30.9761 278.983V283.718H19.4341V279.081L30.9761 278.983Z" fill="#919DD6"/>
<path d="M53.1724 284.704V288.059L50.4102 286.381V283.027L53.1724 284.704Z" fill="#919DD6"/>
<path d="M82.1756 283.323V286.677L79.0188 288.453V285.099L82.1756 283.323Z" fill="#B7B6E3"/>
<path d="M73.1984 289.045V292.399C73.1984 291.314 72.5079 290.229 71.0281 289.44C68.1673 287.763 63.5307 287.763 60.6698 289.44C59.2887 290.229 58.4995 291.314 58.4995 292.399V289.045C58.4995 287.96 59.1901 286.875 60.6698 286.086C63.5307 284.408 68.1673 284.408 71.0281 286.086C72.5079 286.875 73.1984 287.96 73.1984 289.045Z" fill="#C4C3EC"/>
<path d="M51.594 291.215V294.569H47.648V291.215H51.594Z" fill="#919DD6"/>
<path d="M84.3459 291.511V294.865H80.1039V291.511H84.3459Z" fill="#919DD6"/>
<path d="M84.4445 286.776V290.13L84.3459 294.865V291.511L84.4445 286.776Z" fill="#858588"/>
<path d="M52.7778 293.09V296.444C52.2846 295.852 51.89 295.26 51.594 294.569V291.215C51.89 291.807 52.2846 292.498 52.7778 293.09Z" fill="#C4C3EC"/>
<path d="M80.1039 291.511V294.865C79.808 295.457 79.4134 295.95 78.9201 296.542V293.188C79.4134 292.695 79.808 292.103 80.1039 291.511Z" fill="#C4C3EC"/>
<path d="M61.6563 297.233V300.587C60.5712 300.39 59.486 300.094 58.4995 299.798V296.444C59.486 296.838 60.5712 297.036 61.6563 297.233Z" fill="#C4C3EC"/>
<path d="M73.0011 296.542V299.897C72.0146 300.192 70.9295 300.488 69.8443 300.587V297.233C71.0281 297.134 72.0146 296.838 73.0011 296.542Z" fill="#C4C3EC"/>
<path d="M55.7373 298.022V301.376L49.917 298.022V294.668L55.7373 298.022Z" fill="#919DD6"/>
<path d="M58.4995 296.444V299.798L55.7373 301.376V298.022L58.4995 296.444Z" fill="#B7B6E3"/>
<path d="M81.781 294.865V298.219L75.862 301.574V298.219L81.781 294.865Z" fill="#B7B6E3"/>
<path d="M75.862 298.219V301.574L73.0011 299.897V296.542L75.862 298.219Z" fill="#919DD6"/>
<path d="M75.862 298.219L73.0011 296.542C72.0146 296.838 70.9295 297.134 69.8443 297.233V299.502H61.5577V297.233C60.4725 297.036 59.3874 296.838 58.4009 296.444L55.6387 298.022L49.8183 294.668L52.6792 293.09C52.1859 292.498 51.7913 291.906 51.4954 291.215H47.648L47.7467 286.48H51.89C52.1859 285.888 52.6792 285.296 53.2711 284.704L50.4102 283.027L56.3292 279.673L59.3874 281.449C60.3739 281.153 61.3604 280.956 62.3469 280.758V278.292H70.6335V280.857C71.62 281.054 72.5079 281.252 73.4944 281.548L76.5525 279.772L82.3729 283.126L79.2161 284.902C79.7093 285.395 80.1039 285.987 80.3999 286.579H84.6418L84.5432 291.314H80.3012C80.0053 291.906 79.6107 292.399 79.1174 292.991L81.9783 294.668L75.862 298.219ZM60.7685 292.005C63.6293 293.682 68.2659 293.682 71.0281 292.005C73.889 290.327 73.889 287.664 71.0281 286.086C68.1672 284.408 63.5307 284.408 60.6698 286.086C57.9076 287.763 57.9076 290.426 60.7685 292.005Z" fill="#DAD9E8"/>
<path d="M69.943 299.601V302.955H61.6564V299.601H69.943Z" fill="#919DD6"/>
<path d="M34.4289 287.763V291.018L34.3303 292.892L34.4289 289.736V287.763Z" fill="#848487"/>
<path d="M21.4071 292.498V295.753L19.2368 294.471V291.314L21.4071 292.498Z" fill="#919DD6"/>
<path d="M43.1101 291.511V294.668L40.7425 295.951V292.794L43.1101 291.511Z" fill="#B7B6E3"/>
<path d="M20.2233 297.43L20.1247 300.587H17.2638V297.43H20.2233Z" fill="#919DD6"/>
<path d="M44.6885 297.628V300.883L41.5317 300.784V297.628H44.6885Z" fill="#919DD6"/>
<path d="M44.7872 294.076V297.233L44.6885 300.883V297.628L44.7872 294.076Z" fill="#858588"/>
<path d="M21.1112 298.811V301.968C20.7165 301.574 20.4206 301.08 20.2233 300.587V297.43C20.4206 297.924 20.7165 298.318 21.1112 298.811Z" fill="#C4C3EC"/>
<path d="M41.5317 297.628V300.784C41.3344 301.179 41.0385 301.574 40.6439 301.968V298.811C41.0385 298.515 41.3344 298.121 41.5317 297.628Z" fill="#C4C3EC"/>
<path d="M27.7207 301.968V305.125C26.9315 305.026 26.1423 304.829 25.3531 304.533V301.376C26.1423 301.574 26.9315 301.771 27.7207 301.968Z" fill="#C4C3EC"/>
<path d="M36.3032 301.376V304.533C35.514 304.73 34.8235 304.928 33.9356 305.125V301.968C34.7248 301.87 35.514 301.672 36.3032 301.376Z" fill="#C4C3EC"/>
<path d="M25.3531 301.376V304.533L23.2814 305.717L23.3801 302.56L25.3531 301.376Z" fill="#B7B6E3"/>
<path d="M23.3801 302.56L23.2815 305.717L18.9409 303.152V299.995L23.3801 302.56Z" fill="#919DD6"/>
<path d="M42.8141 300.094V303.349L38.3749 305.816V302.659L42.8141 300.094Z" fill="#B7B6E3"/>
<path d="M38.3749 302.659V305.816L36.2046 304.632L36.3033 301.376L38.3749 302.659Z" fill="#919DD6"/>
<path d="M38.7695 288.946L43.1101 291.511L40.7425 292.794C41.1371 293.188 41.4331 293.583 41.6304 294.076H44.7872L44.6885 297.628H41.5317C41.3344 298.022 41.0385 298.417 40.6439 298.811L42.8142 300.094L38.3749 302.659L36.2046 301.376C35.4154 301.574 34.7248 301.771 33.837 301.968V303.645H27.622V301.968C26.8328 301.87 26.0436 301.672 25.2544 301.376L23.1828 302.56L18.8422 299.995L20.9138 298.811C20.5192 298.417 20.2233 297.924 20.026 297.43H17.0665V293.879H20.1246C20.4206 293.386 20.7165 292.991 21.1111 292.596L18.9408 291.314L23.3801 288.749L25.649 290.032C26.3396 289.834 27.1288 289.637 27.8193 289.538V287.763H34.0343V289.637C34.7248 289.736 35.5141 289.933 36.106 290.13L38.7695 288.946Z" fill="#DAD9E8"/>
<path d="M33.9356 303.645V306.802H27.7207V303.645H33.9356Z" fill="#919DD6"/>
<path d="M115.223 157.84V163.562L115.125 167.409V161.688L115.223 157.84Z" fill="#848487"/>
<path d="M88.9825 167.409V173.032L84.7405 170.566V164.844L88.9825 167.409Z" fill="#919DD6"/>
<path d="M132.783 165.239V170.961L128.048 173.624V168.001L132.783 165.239Z" fill="#B7B6E3"/>
<path d="M122.03 174.019V179.741C122.03 177.669 120.649 175.499 117.887 173.92C112.264 170.665 103.188 170.665 97.565 173.92C94.8028 175.499 93.3231 177.669 93.3231 179.839V174.118C93.3231 171.947 94.7042 169.876 97.565 168.199C103.188 164.943 112.264 164.943 117.887 168.199C120.649 169.777 122.03 171.849 122.03 174.019Z" fill="#C4C3EC"/>
<path d="M86.5162 177.176V182.897H80.6958V177.176H86.5162Z" fill="#919DD6"/>
<path d="M136.039 177.669L135.94 183.391H129.528L129.626 177.669H136.039Z" fill="#919DD6"/>
<path d="M136.137 170.467V176.189L135.94 183.391L136.039 177.669L136.137 170.467Z" fill="#858588"/>
<path d="M88.3906 179.938V185.66C87.6014 184.772 87.0095 183.884 86.5162 182.897V177.176C87.0095 178.162 87.6014 179.05 88.3906 179.938Z" fill="#C4C3EC"/>
<path d="M129.626 177.669V183.391C129.133 184.279 128.541 185.068 127.851 185.857V180.135C128.541 179.346 129.133 178.557 129.626 177.669Z" fill="#C4C3EC"/>
<path d="M101.708 186.35V192.072C100.031 191.776 98.4529 191.381 96.9731 190.888V185.166C98.5515 185.66 100.13 186.054 101.708 186.35Z" fill="#C4C3EC"/>
<path d="M118.972 185.265V190.987C117.492 191.48 115.914 191.875 114.237 192.072V186.35C115.815 186.153 117.394 185.758 118.972 185.265Z" fill="#C4C3EC"/>
<path d="M92.9285 187.534L92.8298 193.256L84.05 188.126L84.1486 182.404L92.9285 187.534Z" fill="#919DD6"/>
<path d="M96.9731 185.166V190.888L92.8298 193.256L92.9284 187.534L96.9731 185.166Z" fill="#B7B6E3"/>
<path d="M132.093 182.7V188.323L123.214 193.453L123.313 187.731L132.093 182.7Z" fill="#B7B6E3"/>
<path d="M123.313 187.731L123.214 193.453L118.873 190.987L118.972 185.265L123.313 187.731Z" fill="#919DD6"/>
<path d="M123.313 187.731L118.972 185.265C117.492 185.758 115.914 186.153 114.237 186.35V189.803H101.708V186.35C100.031 186.054 98.4529 185.66 96.9731 185.166L92.8298 187.534L84.0499 182.404L88.2919 179.938C87.5027 179.05 86.9108 178.162 86.4175 177.176H80.4985L80.5972 169.974H86.8121C87.3054 169.086 87.9959 168.199 88.8838 167.409L84.6418 164.943L93.5204 159.813L98.0583 162.477C99.538 162.082 101.018 161.688 102.498 161.49L102.596 157.84H115.125L115.026 161.688C116.506 161.984 117.887 162.28 119.268 162.773L123.905 160.109L132.684 165.239L127.949 167.903C128.64 168.692 129.232 169.58 129.626 170.467H136.039L135.94 177.669H129.528C129.034 178.557 128.443 179.346 127.752 180.135L132.093 182.601L123.313 187.731ZM97.4664 179.938C103.089 183.193 112.165 183.193 117.788 179.938C123.411 176.682 123.411 171.454 117.788 168.199C112.165 164.943 103.089 164.943 97.4664 168.199C91.8433 171.454 91.8433 176.682 97.4664 179.938Z" fill="#DAD9E8"/>
<path d="M114.237 189.803V195.525H101.708V189.803H114.237Z" fill="#919DD6"/>
<path d="M124.102 199.273L122.425 199.175L122.622 198.977L124.299 199.175L124.102 199.273Z" fill="#E4E3EE"/>
<path d="M124.299 199.175L122.622 198.977C123.115 198.681 123.609 198.484 124.102 198.287L125.582 198.583C125.088 198.78 124.694 198.977 124.299 199.175Z" fill="#E4E3EE"/>
<path d="M125.582 198.583L124.102 198.287C127.653 196.708 132.389 196.215 136.828 196.906C156.755 200.26 173.723 206.08 187.337 213.874L185.66 214.071C172.44 206.376 155.177 200.852 136.236 197.399C132.487 196.807 128.541 197.202 125.582 198.583Z" fill="#E4E3EE"/>
<path d="M217.03 244.85V248.401C217.03 250.571 215.551 252.643 212.887 254.221V250.67C215.649 249.19 217.03 247.02 217.03 244.85Z" fill="#B7B6E3"/>
<path d="M185.66 214.071L187.337 213.874C193.453 217.425 198.78 221.272 203.417 225.613H201.444C196.807 221.47 191.579 217.524 185.66 214.071Z" fill="#E4E3EE"/>
<path d="M201.345 225.712H203.318C208.744 230.743 213.183 236.366 216.34 242.482C217.918 245.442 216.537 248.598 212.788 250.769L211.111 248.993C214.17 247.217 215.353 244.554 214.071 242.088C211.013 236.267 206.672 230.743 201.345 225.712Z" fill="#E4E3EE"/>
<path d="M212.887 250.67V254.221L212.591 254.419V250.867L212.887 250.67Z" fill="#B7B6E3"/>
<path d="M211.21 248.894L212.887 250.67L212.591 250.867L210.914 249.092L211.21 248.894Z" fill="#E4E3EE"/>
<path d="M185.66 214.071C198.681 221.568 208.25 231.335 214.268 241.989C215.551 244.455 214.465 247.119 211.309 248.894L211.013 249.092C206.179 251.953 198.583 251.657 194.144 249.092C193.058 248.5 192.171 247.711 191.579 246.823C185.561 238.339 177.077 231.236 166.521 225.218C155.769 219.003 143.437 214.071 128.245 210.618C126.667 210.224 125.384 209.73 124.299 209.138C119.761 206.573 119.367 202.134 124.201 199.372L124.398 199.273C127.456 197.498 131.994 196.807 136.236 197.498C155.177 200.852 172.342 206.475 185.66 214.071Z" fill="#EBEBF1"/>
<path d="M212.591 250.867V254.419C206.771 257.773 197.794 257.477 192.368 254.419C191.085 253.728 190 252.742 189.211 251.755C183.193 243.666 175.005 236.563 164.647 230.545C154.19 224.528 141.563 219.694 127.16 216.241C125.286 215.847 123.707 215.156 122.425 214.465C119.663 212.887 118.183 210.717 118.183 208.546V204.995C118.183 207.165 119.663 209.336 122.425 210.914C123.707 211.703 125.286 212.295 127.16 212.69C141.563 216.143 154.19 220.976 164.647 226.994C174.907 232.913 183.193 240.016 189.211 248.204C190 249.289 191.085 250.177 192.368 250.867C197.794 254.024 206.771 254.221 212.591 250.867Z" fill="#B7B6E3"/>
<path d="M210.914 249.092L212.591 250.867C211.407 251.558 210.223 252.051 208.842 252.446L207.757 250.374C208.941 250.078 210.026 249.684 210.914 249.092Z" fill="#E4E3EE"/>
<path d="M207.856 250.473L208.941 252.544C203.614 254.123 197.202 253.531 192.861 251.163L194.439 249.388C197.991 251.262 203.417 251.755 207.856 250.473Z" fill="#E4E3EE"/>
<path d="M194.439 249.289L192.861 251.065C192.762 250.966 192.565 250.867 192.466 250.867C191.184 250.177 190.099 249.19 189.31 248.204C183.292 240.115 175.104 233.012 164.746 226.994C163.562 226.303 162.28 225.613 161.096 225.021L162.674 223.245C163.957 223.936 165.14 224.626 166.423 225.317C176.88 231.335 185.462 238.437 191.48 246.921C192.171 247.809 193.058 248.598 194.045 249.19C194.144 249.19 194.242 249.289 194.439 249.289Z" fill="#E4E3EE"/>
<path d="M162.674 223.147L161.096 224.922C151.428 219.793 140.083 215.649 127.259 212.591C125.582 212.197 124.201 211.703 122.918 211.013L124.496 209.237C125.483 209.73 126.765 210.224 128.147 210.519C141.563 213.676 152.809 217.918 162.674 223.147Z" fill="#E4E3EE"/>
<path d="M124.595 209.336L123.017 211.111C122.819 211.013 122.721 210.914 122.622 210.914C117.295 207.856 116.703 202.529 122.523 199.175L124.201 199.372C119.367 202.233 119.761 206.573 124.299 209.138C124.299 209.138 124.398 209.237 124.595 209.336Z" fill="#E4E3EE"/>
<path d="M191.875 224.232L196.117 221.766L185.462 161.096L181.122 163.562L191.875 224.232Z" fill="#042F8F"/>
<path d="M181.122 163.562L185.462 161.096L154.979 143.536L150.639 146.002L181.122 163.562Z" fill="#02196A"/>
<path d="M150.639 146.002L161.392 206.771L191.875 224.232L181.122 163.562L150.639 146.002Z" fill="#042F8F"/>
<path d="M79.808 10.2596L85.0364 7.20147C85.8256 6.70822 86.9108 6.80687 88.1932 7.49742L82.9648 10.5556C81.781 9.86503 80.6958 9.76637 79.808 10.2596Z" fill="#DAD9E8"/>
<path d="M79.808 10.2596L85.0364 7.20147C85.8256 6.70822 86.9108 6.80687 88.1932 7.49742L82.9648 10.5556C81.781 9.86503 80.6958 9.76637 79.808 10.2596Z" fill="#DAD9E8"/>
<path d="M278.983 248.401L273.754 251.459C274.543 250.966 275.037 249.98 275.037 248.598L280.265 245.54C280.265 246.921 279.772 247.908 278.983 248.401Z" fill="#B7B6E3"/>
<path d="M275.037 248.5L280.265 245.442C280.265 246.823 279.772 247.809 278.983 248.302L273.754 251.361C274.543 250.867 275.037 249.98 275.037 248.5Z" fill="#B7B6E3"/>
<path d="M275.333 126.667L280.561 123.707L280.265 245.54L275.037 248.5L275.333 126.667Z" fill="#B7B6E3"/>
<path d="M82.9648 10.5556L88.1932 7.59607L276.22 116.111L270.992 119.071L82.9648 10.5556Z" fill="#DAD9E8"/>
<path d="M270.992 119.071L276.22 116.013C278.687 117.394 280.66 120.846 280.66 123.609L275.431 126.667C275.333 123.905 273.36 120.551 270.992 119.071Z" fill="#DAD9E8"/>
<path d="M270.992 119.071L276.22 116.013C278.687 117.394 280.66 120.846 280.66 123.609L275.431 126.667C275.333 123.905 273.36 120.551 270.992 119.071Z" fill="#DAD9E8"/>
<path d="M270.992 119.071C273.458 120.452 275.431 123.905 275.431 126.667L275.037 248.5C275.037 251.262 273.064 252.446 270.597 251.065L82.6688 142.55C80.2026 141.168 78.2296 137.716 78.2296 134.953L78.6242 13.1205C78.6242 10.3583 80.5972 9.17448 83.0634 10.6542L270.992 119.071Z" fill="#EBEBF1"/>
<path d="M271.781 126.667L271.485 245.54V247.316L84.4445 139.393C83.1621 138.604 81.8796 136.433 81.8796 134.953L82.1756 14.3043L83.6553 15.1921L269.118 122.228C270.499 123.017 271.781 125.187 271.781 126.667Z" fill="#DAD9E8"/>
<path d="M271.781 126.667L271.485 245.54L86.0229 138.505C84.7405 137.716 83.458 135.545 83.458 134.066L83.6553 15.1921L269.118 122.228C270.499 123.017 271.781 125.187 271.781 126.667Z" fill="url(#paint0_linear_6_3)"/>
<g opacity="0.3">
<path d="M135.151 237.747L117.295 227.685L104.766 238.142L135.151 237.747Z" fill="#4A2680"/>
</g>
<path d="M92.2379 247.316L92.4352 248.302L159.419 286.579L159.123 285.592L92.2379 247.316Z" fill="#EBEBF1"/>
<path d="M159.123 285.592L159.419 286.579L185.561 265.566L185.265 263.001L159.123 285.592Z" fill="#B7B6E3"/>
<path d="M92.2379 247.316L159.123 285.592L185.265 263.001L118.38 224.824L92.2379 247.316Z" fill="#DAD9E8"/>
<path d="M115.914 227.487L116.111 228.178L119.663 230.151L119.465 229.46L115.914 227.487Z" fill="#C4C3EC"/>
<path d="M119.465 229.46L119.663 230.151L121.537 228.572L121.34 227.882L119.465 229.46Z" fill="#B7B6E3"/>
<path d="M115.914 227.487L119.465 229.46L121.34 227.882L117.788 225.81L115.914 227.487Z" fill="#EBEBF1"/>
<path d="M111.08 231.927L111.277 232.518L114.829 234.59L114.73 233.9L111.08 231.927Z" fill="#C4C3EC"/>
<path d="M114.73 233.9L114.829 234.59L118.38 231.631L118.183 230.94L114.73 233.9Z" fill="#B7B6E3"/>
<path d="M111.08 231.927L114.73 233.9L118.183 230.94L114.631 228.868L111.08 231.927Z" fill="#EBEBF1"/>
<path d="M120.452 230.052L120.55 230.743L124.102 232.716L124.003 232.025L120.452 230.052Z" fill="#C4C3EC"/>
<path d="M124.003 232.025L124.102 232.716L126.075 231.137L125.878 230.447L124.003 232.025Z" fill="#B7B6E3"/>
<path d="M120.452 230.052L124.003 232.025L125.878 230.447L122.326 228.375L120.452 230.052Z" fill="#EBEBF1"/>
<path d="M115.421 234.393L115.618 235.083L119.169 237.056L118.972 236.366L115.421 234.393Z" fill="#C4C3EC"/>
<path d="M118.972 236.366L119.169 237.056L122.622 234.097L122.524 233.406L118.972 236.366Z" fill="#B7B6E3"/>
<path d="M115.421 234.393L118.972 236.366L122.524 233.406L118.972 231.335L115.421 234.393Z" fill="#EBEBF1"/>
<path d="M124.891 232.617L125.088 233.308L128.64 235.281L128.442 234.689L124.891 232.617Z" fill="#C4C3EC"/>
<path d="M128.442 234.689L128.64 235.281L130.514 233.702L130.415 233.012L128.442 234.689Z" fill="#B7B6E3"/>
<path d="M124.891 232.617L128.442 234.689L130.415 233.012L126.765 230.94L124.891 232.617Z" fill="#EBEBF1"/>
<path d="M119.761 236.859L119.959 237.55L123.51 239.523L123.313 238.832L119.761 236.859Z" fill="#C4C3EC"/>
<path d="M123.313 238.832L123.51 239.523L126.963 236.563L126.864 235.873L123.313 238.832Z" fill="#B7B6E3"/>
<path d="M119.761 236.859L123.313 238.832L126.864 235.873L123.214 233.801L119.761 236.859Z" fill="#EBEBF1"/>
<path d="M129.429 235.182L129.626 235.873L133.178 237.944L132.98 237.254L129.429 235.182Z" fill="#C4C3EC"/>
<path d="M132.98 237.254L133.178 237.944L135.052 236.267L134.855 235.577L132.98 237.254Z" fill="#B7B6E3"/>
<path d="M129.429 235.182L132.98 237.254L134.855 235.577L131.303 233.505L129.429 235.182Z" fill="#EBEBF1"/>
<path d="M124.102 239.325L124.299 240.016L127.851 241.989L127.653 241.397L124.102 239.325Z" fill="#C4C3EC"/>
<path d="M127.653 241.397L127.851 241.989L131.303 239.029L131.205 238.339L127.653 241.397Z" fill="#B7B6E3"/>
<path d="M124.102 239.325L127.653 241.397L131.205 238.339L127.555 236.267L124.102 239.325Z" fill="#EBEBF1"/>
<path d="M128.443 241.792L128.64 242.482L132.191 244.455L131.994 243.863L128.443 241.792Z" fill="#C4C3EC"/>
<path d="M131.994 243.863L132.191 244.455L135.644 241.496L135.447 240.805L131.994 243.863Z" fill="#B7B6E3"/>
<path d="M128.443 241.792L131.994 243.863L135.447 240.805L131.895 238.832L128.443 241.792Z" fill="#EBEBF1"/>
<path d="M136.137 239.029L136.335 239.72L139.886 241.792L139.787 241.101L136.137 239.029Z" fill="#C4C3EC"/>
<path d="M139.787 241.101L139.886 241.792L141.859 240.115L141.662 239.424L139.787 241.101Z" fill="#B7B6E3"/>
<path d="M136.137 239.029L139.787 241.101L141.662 239.424L138.11 237.451L136.137 239.029Z" fill="#EBEBF1"/>
<path d="M132.783 244.258L132.98 244.948L136.532 247.02L136.335 246.329L132.783 244.258Z" fill="#C4C3EC"/>
<path d="M136.335 246.329L136.532 247.02L139.985 243.962L139.787 243.271L136.335 246.329Z" fill="#B7B6E3"/>
<path d="M132.783 244.258L136.335 246.329L139.787 243.271L136.236 241.298L132.783 244.258Z" fill="#EBEBF1"/>
<path d="M140.675 241.594L140.872 242.285L144.424 244.356L144.227 243.666L140.675 241.594Z" fill="#C4C3EC"/>
<path d="M144.227 243.666L144.424 244.356L146.298 242.679L146.2 241.989L144.227 243.666Z" fill="#B7B6E3"/>
<path d="M140.675 241.594L144.227 243.666L146.2 241.989L142.549 240.016L140.675 241.594Z" fill="#EBEBF1"/>
<path d="M137.124 246.724L137.321 247.415L140.872 249.486L140.675 248.796L137.124 246.724Z" fill="#C4C3EC"/>
<path d="M140.675 248.796L140.872 249.486L144.325 246.428L144.128 245.738L140.675 248.796Z" fill="#B7B6E3"/>
<path d="M137.124 246.724L140.675 248.796L144.128 245.738L140.577 243.765L137.124 246.724Z" fill="#EBEBF1"/>
<path d="M145.213 244.159L145.312 244.85L148.962 246.921L148.764 246.231L145.213 244.159Z" fill="#C4C3EC"/>
<path d="M148.764 246.231L148.962 246.921L150.836 245.244L150.639 244.554L148.764 246.231Z" fill="#B7B6E3"/>
<path d="M145.213 244.159L148.764 246.231L150.639 244.554L147.087 242.581L145.213 244.159Z" fill="#EBEBF1"/>
<path d="M141.464 249.19L141.563 249.881L145.213 251.953L145.016 251.262L141.464 249.19Z" fill="#C4C3EC"/>
<path d="M145.016 251.262L145.213 251.953L148.666 248.894L148.469 248.204L145.016 251.262Z" fill="#B7B6E3"/>
<path d="M141.464 249.19L145.016 251.262L148.469 248.204L144.917 246.231L141.464 249.19Z" fill="#EBEBF1"/>
<path d="M149.652 246.724L149.85 247.415L153.401 249.486L153.302 248.796L149.652 246.724Z" fill="#C4C3EC"/>
<path d="M153.302 248.796L153.401 249.486L155.374 247.809L155.177 247.217L153.302 248.796Z" fill="#B7B6E3"/>
<path d="M149.652 246.724L153.302 248.796L155.177 247.217L151.625 245.146L149.652 246.724Z" fill="#EBEBF1"/>
<path d="M145.805 251.657L145.904 252.347L149.554 254.419L149.356 253.728L145.805 251.657Z" fill="#C4C3EC"/>
<path d="M149.356 253.728L149.554 254.419L153.006 251.361L152.809 250.769L149.356 253.728Z" fill="#B7B6E3"/>
<path d="M145.805 251.657L149.356 253.728L152.809 250.769L149.258 248.697L145.805 251.657Z" fill="#EBEBF1"/>
<path d="M156.459 250.67L156.656 251.262L160.208 253.334L160.011 252.643L156.459 250.67Z" fill="#C4C3EC"/>
<path d="M160.011 252.643L160.208 253.334L162.082 251.755L161.885 251.065L160.011 252.643Z" fill="#B7B6E3"/>
<path d="M156.459 250.67L160.011 252.643L161.885 251.065L158.333 248.993L156.459 250.67Z" fill="#EBEBF1"/>
<path d="M150.047 254.123L150.244 254.813L153.796 256.885L153.697 256.194L150.047 254.123Z" fill="#C4C3EC"/>
<path d="M153.697 256.194L153.796 256.885L157.347 253.827L157.15 253.235L153.697 256.194Z" fill="#B7B6E3"/>
<path d="M150.047 254.123L153.697 256.194L157.15 253.235L153.598 251.163L150.047 254.123Z" fill="#EBEBF1"/>
<path d="M160.997 253.235L161.096 253.827L164.746 255.899L164.548 255.208L160.997 253.235Z" fill="#C4C3EC"/>
<path d="M164.548 255.208L164.746 255.899L166.62 254.32L166.423 253.63L164.548 255.208Z" fill="#B7B6E3"/>
<path d="M160.997 253.235L164.548 255.208L166.423 253.63L162.871 251.558L160.997 253.235Z" fill="#EBEBF1"/>
<path d="M154.388 256.589L154.585 257.28L158.136 259.351L158.038 258.661L154.388 256.589Z" fill="#C4C3EC"/>
<path d="M158.038 258.661L158.136 259.351L161.688 256.392L161.49 255.701L158.038 258.661Z" fill="#B7B6E3"/>
<path d="M154.388 256.589L158.038 258.661L161.49 255.701L157.939 253.63L154.388 256.589Z" fill="#EBEBF1"/>
<path d="M165.436 255.8L165.634 256.49L169.185 258.463L169.086 257.773L165.436 255.8Z" fill="#C4C3EC"/>
<path d="M169.086 257.773L169.185 258.463L171.059 256.885L170.961 256.194L169.086 257.773Z" fill="#B7B6E3"/>
<path d="M165.436 255.8L169.086 257.773L170.961 256.194L167.409 254.123L165.436 255.8Z" fill="#EBEBF1"/>
<path d="M158.728 259.055L158.925 259.746L162.477 261.818L162.378 261.127L158.728 259.055Z" fill="#C4C3EC"/>
<path d="M162.378 261.127L162.477 261.818L165.93 258.858L165.831 258.167L162.378 261.127Z" fill="#B7B6E3"/>
<path d="M158.728 259.055L162.378 261.127L165.831 258.167L162.28 256.096L158.728 259.055Z" fill="#EBEBF1"/>
<path d="M169.974 258.365L170.172 259.055L173.723 261.028L173.526 260.338L169.974 258.365Z" fill="#C4C3EC"/>
<path d="M173.526 260.338L173.723 261.028L175.597 259.45L175.4 258.759L173.526 260.338Z" fill="#B7B6E3"/>
<path d="M169.974 258.365L173.526 260.338L175.4 258.759L171.849 256.688L169.974 258.365Z" fill="#EBEBF1"/>
<path d="M163.069 261.62L163.266 262.212L166.817 264.284L166.62 263.593L163.069 261.62Z" fill="#C4C3EC"/>
<path d="M166.62 263.593L166.817 264.284L170.27 261.324L170.172 260.634L166.62 263.593Z" fill="#B7B6E3"/>
<path d="M163.069 261.62L166.62 263.593L170.172 260.634L166.521 258.562L163.069 261.62Z" fill="#EBEBF1"/>
<path d="M167.409 264.087L167.607 264.678L171.158 266.75L170.961 266.06L167.409 264.087Z" fill="#C4C3EC"/>
<path d="M170.961 266.06L171.158 266.75L174.611 263.791L174.512 263.1L170.961 266.06Z" fill="#B7B6E3"/>
<path d="M167.409 264.087L170.961 266.06L174.512 263.1L170.862 261.028L167.409 264.087Z" fill="#EBEBF1"/>
<path d="M176.781 262.212L176.88 262.903L180.53 264.974L180.333 264.284L176.781 262.212Z" fill="#C4C3EC"/>
<path d="M180.332 264.284L180.53 264.974L182.404 263.297L182.207 262.607L180.332 264.284Z" fill="#B7B6E3"/>
<path d="M176.781 262.212L180.333 264.284L182.207 262.607L178.655 260.535L176.781 262.212Z" fill="#EBEBF1"/>
<path d="M171.75 266.553L171.947 267.243L175.499 269.216L175.301 268.526L171.75 266.553Z" fill="#C4C3EC"/>
<path d="M175.301 268.526L175.499 269.216L178.951 266.257L178.754 265.566L175.301 268.526Z" fill="#B7B6E3"/>
<path d="M171.75 266.553L175.301 268.526L178.754 265.566L175.203 263.495L171.75 266.553Z" fill="#EBEBF1"/>
<path d="M110.587 237.55L110.685 238.142L112.856 239.424L112.658 238.733L110.587 237.55Z" fill="#C4C3EC"/>
<path d="M112.658 238.733L112.856 239.424L116.309 236.464L116.21 235.774L112.658 238.733Z" fill="#B7B6E3"/>
<path d="M102.793 239.029L102.991 239.72L106.542 241.792L106.345 241.101L102.793 239.029Z" fill="#C4C3EC"/>
<path d="M102.793 239.029L106.345 241.101L110.587 237.55L112.658 238.733L116.21 235.774L110.488 232.42L109.206 233.505L106.937 235.478L102.793 239.029Z" fill="#EBEBF1"/>
<path d="M106.345 241.101L106.542 241.792L110.685 238.142L110.587 237.55L106.345 241.101Z" fill="#B7B6E3"/>
<path d="M116.999 241.2L117.196 241.89L120.649 238.931L120.55 238.24L116.999 241.2Z" fill="#B7B6E3"/>
<path d="M113.448 239.128L113.645 239.819L117.196 241.89L116.999 241.2L113.448 239.128Z" fill="#C4C3EC"/>
<path d="M113.448 239.128L116.999 241.2L120.551 238.24L116.9 236.169L113.448 239.128Z" fill="#EBEBF1"/>
<path d="M107.134 241.496L107.331 242.186L110.883 244.258L110.685 243.567L107.134 241.496Z" fill="#C4C3EC"/>
<path d="M107.134 241.496L110.685 243.567L114.237 240.509L110.587 238.536L107.134 241.496Z" fill="#EBEBF1"/>
<path d="M110.685 243.567L110.883 244.258L114.336 241.2L114.237 240.509L110.685 243.567Z" fill="#B7B6E3"/>
<path d="M117.788 241.693L117.986 242.285L121.537 244.356L121.34 243.666L117.788 241.693Z" fill="#C4C3EC"/>
<path d="M121.34 243.666L121.537 244.356L124.99 241.397L124.891 240.706L121.34 243.666Z" fill="#B7B6E3"/>
<path d="M117.788 241.693L121.34 243.666L124.891 240.706L121.241 238.635L117.788 241.693Z" fill="#EBEBF1"/>
<path d="M122.129 244.159L122.326 244.751L125.878 246.823L125.68 246.132L122.129 244.159Z" fill="#C4C3EC"/>
<path d="M125.68 246.132L125.878 246.823L129.33 243.863L129.133 243.173L125.68 246.132Z" fill="#B7B6E3"/>
<path d="M122.129 244.159L125.68 246.132L129.133 243.173L125.582 241.101L122.129 244.159Z" fill="#EBEBF1"/>
<path d="M126.47 246.625L126.667 247.316L130.218 249.289L130.021 248.598L126.47 246.625Z" fill="#C4C3EC"/>
<path d="M130.021 248.598L130.218 249.289L133.671 246.329L133.474 245.639L130.021 248.598Z" fill="#B7B6E3"/>
<path d="M126.47 246.625L130.021 248.598L133.474 245.639L129.922 243.567L126.47 246.625Z" fill="#EBEBF1"/>
<path d="M130.81 249.092L131.007 249.782L134.559 251.755L134.361 251.065L130.81 249.092Z" fill="#C4C3EC"/>
<path d="M134.361 251.065L134.559 251.755L138.012 248.796L137.814 248.105L134.361 251.065Z" fill="#B7B6E3"/>
<path d="M130.81 249.092L134.362 251.065L137.814 248.105L134.263 246.034L130.81 249.092Z" fill="#EBEBF1"/>
<path d="M111.475 243.962L111.672 244.652L115.223 246.724L115.026 246.034L111.475 243.962Z" fill="#C4C3EC"/>
<path d="M115.026 246.034L115.223 246.724L118.676 243.666L118.577 243.074L115.026 246.034Z" fill="#B7B6E3"/>
<path d="M111.475 243.962L115.026 246.034L118.578 243.074L114.927 241.002L111.475 243.962Z" fill="#EBEBF1"/>
<path d="M115.815 246.428L116.013 247.119L119.564 249.19L119.367 248.5L115.815 246.428Z" fill="#C4C3EC"/>
<path d="M119.367 248.5L119.564 249.19L123.017 246.132L122.819 245.54L119.367 248.5Z" fill="#B7B6E3"/>
<path d="M115.815 246.428L119.367 248.5L122.819 245.54L119.268 243.469L115.815 246.428Z" fill="#EBEBF1"/>
<path d="M120.156 248.894L120.353 249.585L123.905 251.657L123.707 250.966L120.156 248.894Z" fill="#C4C3EC"/>
<path d="M123.707 250.966L123.905 251.657L127.357 248.697L127.16 248.007L123.707 250.966Z" fill="#B7B6E3"/>
<path d="M120.156 248.894L123.707 250.966L127.16 248.007L123.609 245.935L120.156 248.894Z" fill="#EBEBF1"/>
<path d="M124.496 251.361L124.595 252.051L128.245 254.123L128.048 253.432L124.496 251.361Z" fill="#C4C3EC"/>
<path d="M128.048 253.432L128.245 254.123L131.698 251.163L131.501 250.473L128.048 253.432Z" fill="#B7B6E3"/>
<path d="M124.496 251.361L128.048 253.432L131.501 250.473L127.949 248.401L124.496 251.361Z" fill="#EBEBF1"/>
<path d="M135.151 251.558L135.249 252.248L138.899 254.221L138.702 253.63L135.151 251.558Z" fill="#C4C3EC"/>
<path d="M138.702 253.63L138.899 254.221L142.352 251.262L142.155 250.571L138.702 253.63Z" fill="#B7B6E3"/>
<path d="M135.151 251.558L138.702 253.63L142.155 250.571L138.603 248.5L135.151 251.558Z" fill="#EBEBF1"/>
<path d="M128.837 253.827L128.936 254.517L132.586 256.589L132.388 255.899L128.837 253.827Z" fill="#C4C3EC"/>
<path d="M132.388 255.899L132.586 256.589L136.039 253.63L135.841 252.939L132.388 255.899Z" fill="#B7B6E3"/>
<path d="M128.837 253.827L132.388 255.899L135.841 252.939L132.29 250.867L128.837 253.827Z" fill="#EBEBF1"/>
<path d="M139.491 254.024L139.59 254.715L143.24 256.688L143.043 256.096L139.491 254.024Z" fill="#C4C3EC"/>
<path d="M143.043 256.096L143.24 256.688L146.693 253.728L146.496 253.038L143.043 256.096Z" fill="#B7B6E3"/>
<path d="M139.491 254.024L143.043 256.096L146.495 253.038L142.944 251.065L139.491 254.024Z" fill="#EBEBF1"/>
<path d="M133.178 256.392L133.276 256.984L136.926 259.055L136.729 258.365L133.178 256.392Z" fill="#C4C3EC"/>
<path d="M136.729 258.365L136.926 259.055L140.379 256.096L140.182 255.405L136.729 258.365Z" fill="#B7B6E3"/>
<path d="M133.178 256.392L136.729 258.365L140.182 255.405L136.63 253.334L133.178 256.392Z" fill="#EBEBF1"/>
<path d="M143.733 256.49L143.931 257.181L147.482 259.253L147.383 258.562L143.733 256.49Z" fill="#C4C3EC"/>
<path d="M147.383 258.562L147.482 259.253L151.033 256.194L150.836 255.504L147.383 258.562Z" fill="#B7B6E3"/>
<path d="M143.733 256.49L147.383 258.562L150.836 255.504L147.285 253.531L143.733 256.49Z" fill="#EBEBF1"/>
<path d="M137.42 258.858L137.617 259.549L141.168 261.522L141.07 260.831L137.42 258.858Z" fill="#C4C3EC"/>
<path d="M141.07 260.831L141.168 261.522L144.72 258.562L144.522 257.872L141.07 260.831Z" fill="#B7B6E3"/>
<path d="M137.42 258.858L141.07 260.831L144.522 257.872L140.971 255.8L137.42 258.858Z" fill="#EBEBF1"/>
<path d="M148.074 258.957L148.271 259.647L151.823 261.719L151.724 261.028L148.074 258.957Z" fill="#C4C3EC"/>
<path d="M151.724 261.028L151.823 261.719L155.374 258.661L155.177 257.97L151.724 261.028Z" fill="#B7B6E3"/>
<path d="M148.074 258.957L151.724 261.028L155.177 257.97L151.625 255.997L148.074 258.957Z" fill="#EBEBF1"/>
<path d="M141.76 261.324L141.958 262.015L145.509 263.988L145.41 263.297L141.76 261.324Z" fill="#C4C3EC"/>
<path d="M145.41 263.297L145.509 263.988L149.06 261.028L148.863 260.338L145.41 263.297Z" fill="#B7B6E3"/>
<path d="M141.76 261.324L145.41 263.297L148.863 260.338L145.312 258.266L141.76 261.324Z" fill="#EBEBF1"/>
<path d="M152.415 261.423L152.612 262.114L156.163 264.185L156.065 263.495L152.415 261.423Z" fill="#C4C3EC"/>
<path d="M156.065 263.495L156.163 264.185L159.616 261.127L159.517 260.436L156.065 263.495Z" fill="#B7B6E3"/>
<path d="M152.415 261.423L156.065 263.495L159.517 260.436L155.966 258.463L152.415 261.423Z" fill="#EBEBF1"/>
<path d="M146.101 263.791L146.298 264.481L149.85 266.454L149.751 265.764L146.101 263.791Z" fill="#C4C3EC"/>
<path d="M149.751 265.764L149.85 266.454L153.302 263.495L153.204 262.804L149.751 265.764Z" fill="#B7B6E3"/>
<path d="M146.101 263.791L149.751 265.764L153.204 262.804L149.652 260.732L146.101 263.791Z" fill="#EBEBF1"/>
<path d="M156.755 263.889L156.952 264.58L160.504 266.651L160.307 265.961L156.755 263.889Z" fill="#C4C3EC"/>
<path d="M160.307 265.961L160.504 266.651L163.957 263.593L163.858 263.001L160.307 265.961Z" fill="#B7B6E3"/>
<path d="M156.755 263.889L160.307 265.961L163.858 263.001L160.208 260.93L156.755 263.889Z" fill="#EBEBF1"/>
<path d="M150.441 266.257L150.639 266.947L154.19 268.92L153.993 268.328L150.441 266.257Z" fill="#C4C3EC"/>
<path d="M153.993 268.328L154.19 268.92L157.643 265.961L157.544 265.27L153.993 268.328Z" fill="#B7B6E3"/>
<path d="M150.442 266.257L153.993 268.328L157.544 265.27L153.894 263.297L150.442 266.257Z" fill="#EBEBF1"/>
<path d="M161.096 266.355L161.293 267.046L171.355 272.768L171.158 272.176L161.096 266.355Z" fill="#C4C3EC"/>
<path d="M171.158 272.176L171.355 272.768L174.808 269.808L174.611 269.118L171.158 272.176Z" fill="#B7B6E3"/>
<path d="M161.096 266.355L171.158 272.176L174.611 269.118L164.548 263.396L161.096 266.355Z" fill="#EBEBF1"/>
<path d="M154.782 268.723L154.979 269.414L158.531 271.485L158.334 270.795L154.782 268.723Z" fill="#C4C3EC"/>
<path d="M158.334 270.795L158.531 271.485L161.984 268.427L161.885 267.737L158.334 270.795Z" fill="#B7B6E3"/>
<path d="M154.782 268.723L158.334 270.795L161.885 267.737L158.235 265.764L154.782 268.723Z" fill="#EBEBF1"/>
<path d="M98.6502 242.581L98.8475 243.271L104.569 246.527L104.372 245.836L98.6502 242.581Z" fill="#C4C3EC"/>
<path d="M104.372 245.836L104.569 246.527L108.022 243.567L107.923 242.877L104.372 245.836Z" fill="#B7B6E3"/>
<path d="M98.6502 242.581L104.372 245.836L107.923 242.877L102.103 239.621L98.6502 242.581Z" fill="#EBEBF1"/>
<path d="M105.161 246.329L105.358 247.02L108.91 248.993L108.712 248.401L105.161 246.329Z" fill="#C4C3EC"/>
<path d="M108.712 248.401L108.91 248.993L112.363 246.034L112.264 245.343L108.712 248.401Z" fill="#B7B6E3"/>
<path d="M105.161 246.329L108.712 248.401L112.264 245.343L108.614 243.37L105.161 246.329Z" fill="#EBEBF1"/>
<path d="M109.502 248.796L109.699 249.486L113.25 251.558L113.053 250.867L109.502 248.796Z" fill="#C4C3EC"/>
<path d="M113.053 250.867L113.25 251.558L116.703 248.5L116.506 247.809L113.053 250.867Z" fill="#B7B6E3"/>
<path d="M109.502 248.796L113.053 250.867L116.506 247.809L112.954 245.836L109.502 248.796Z" fill="#EBEBF1"/>
<path d="M113.842 251.262L114.04 251.953L117.591 254.024L117.394 253.334L113.842 251.262Z" fill="#C4C3EC"/>
<path d="M117.394 253.334L117.591 254.024L121.044 250.966L120.846 250.275L117.394 253.334Z" fill="#B7B6E3"/>
<path d="M113.842 251.262L117.394 253.334L120.846 250.275L117.295 248.302L113.842 251.262Z" fill="#EBEBF1"/>
<path d="M118.183 253.728L118.38 254.419L121.932 256.49L121.734 255.8L118.183 253.728Z" fill="#C4C3EC"/>
<path d="M121.734 255.8L121.932 256.49L125.384 253.432L125.187 252.742L121.734 255.8Z" fill="#B7B6E3"/>
<path d="M118.183 253.728L121.734 255.8L125.187 252.742L121.636 250.769L118.183 253.728Z" fill="#EBEBF1"/>
<path d="M122.523 256.194L122.622 256.885L126.272 258.957L126.075 258.266L122.523 256.194Z" fill="#C4C3EC"/>
<path d="M126.075 258.266L126.272 258.957L129.725 255.899L129.528 255.307L126.075 258.266Z" fill="#B7B6E3"/>
<path d="M122.523 256.194L126.075 258.266L129.528 255.307L125.976 253.235L122.523 256.194Z" fill="#EBEBF1"/>
<path d="M126.864 258.661L126.963 259.351L130.613 261.423L130.416 260.732L126.864 258.661Z" fill="#C4C3EC"/>
<path d="M130.415 260.732L130.613 261.423L134.066 258.365L133.868 257.773L130.415 260.732Z" fill="#B7B6E3"/>
<path d="M126.864 258.661L130.416 260.732L133.868 257.773L130.317 255.701L126.864 258.661Z" fill="#EBEBF1"/>
<path d="M131.106 261.127L131.303 261.818L134.855 263.889L134.756 263.199L131.106 261.127Z" fill="#C4C3EC"/>
<path d="M134.756 263.199L134.855 263.889L138.406 260.93L138.209 260.239L134.756 263.199Z" fill="#B7B6E3"/>
<path d="M131.106 261.127L134.756 263.199L138.209 260.239L134.657 258.167L131.106 261.127Z" fill="#EBEBF1"/>
<path d="M135.447 263.593L135.644 264.284L139.195 266.355L139.097 265.665L135.447 263.593Z" fill="#C4C3EC"/>
<path d="M139.097 265.665L139.195 266.355L142.747 263.396L142.549 262.705L139.097 265.665Z" fill="#B7B6E3"/>
<path d="M135.447 263.593L139.097 265.665L142.549 262.705L138.998 260.634L135.447 263.593Z" fill="#EBEBF1"/>
<path d="M139.787 266.06L139.985 266.75L143.536 268.822L143.437 268.131L139.787 266.06Z" fill="#C4C3EC"/>
<path d="M143.437 268.131L143.536 268.822L146.989 265.862L146.89 265.172L143.437 268.131Z" fill="#B7B6E3"/>
<path d="M139.787 266.06L143.437 268.131L146.89 265.172L143.339 263.1L139.787 266.06Z" fill="#EBEBF1"/>
<path d="M144.128 268.624L144.325 269.216L147.877 271.288L147.679 270.597L144.128 268.624Z" fill="#C4C3EC"/>
<path d="M147.679 270.597L147.877 271.288L151.329 268.328L151.231 267.638L147.679 270.597Z" fill="#B7B6E3"/>
<path d="M144.128 268.624L147.679 270.597L151.231 267.638L147.581 265.566L144.128 268.624Z" fill="#EBEBF1"/>
<path d="M148.469 271.091L148.666 271.781L152.217 273.754L152.02 273.064L148.469 271.091Z" fill="#C4C3EC"/>
<path d="M152.02 273.064L152.217 273.754L155.67 270.795L155.571 270.104L152.02 273.064Z" fill="#B7B6E3"/>
<path d="M148.469 271.091L152.02 273.064L155.571 270.104L151.921 268.033L148.469 271.091Z" fill="#EBEBF1"/>
<path d="M94.5069 246.132L94.7042 246.823L102.596 251.361L102.399 250.67L94.5069 246.132Z" fill="#C4C3EC"/>
<path d="M102.399 250.67L102.596 251.361L106.049 248.401L105.95 247.711L102.399 250.67Z" fill="#B7B6E3"/>
<path d="M94.5069 246.132L102.399 250.67L105.95 247.711L97.9596 243.173L94.5069 246.132Z" fill="#EBEBF1"/>
<path d="M103.188 251.163L103.385 251.755L106.937 253.827L106.739 253.136L103.188 251.163Z" fill="#C4C3EC"/>
<path d="M106.739 253.136L106.937 253.827L110.39 250.867L110.192 250.177L106.739 253.136Z" fill="#B7B6E3"/>
<path d="M103.188 251.163L106.739 253.136L110.192 250.177L106.641 248.105L103.188 251.163Z" fill="#EBEBF1"/>
<path d="M107.529 253.63L107.726 254.32L111.277 256.293L111.08 255.603L107.529 253.63Z" fill="#C4C3EC"/>
<path d="M111.08 255.603L111.277 256.293L114.73 253.334L114.533 252.643L111.08 255.603Z" fill="#B7B6E3"/>
<path d="M107.529 253.63L111.08 255.603L114.533 252.643L110.981 250.571L107.529 253.63Z" fill="#EBEBF1"/>
<path d="M111.869 256.096L112.067 256.786L141.563 273.656L141.366 272.965L111.869 256.096Z" fill="#C4C3EC"/>
<path d="M141.366 272.965L141.563 273.656L145.016 270.597L144.917 270.006L141.366 272.965Z" fill="#B7B6E3"/>
<path d="M111.869 256.096L141.366 272.965L144.917 270.006L115.322 253.038L111.869 256.096Z" fill="#EBEBF1"/>
<path d="M142.155 273.36L142.352 274.05L145.904 276.122L145.706 275.431L142.155 273.36Z" fill="#C4C3EC"/>
<path d="M145.706 275.431L145.904 276.122L149.356 273.162L149.258 272.472L145.706 275.431Z" fill="#B7B6E3"/>
<path d="M142.155 273.36L145.706 275.431L149.258 272.472L145.608 270.4L142.155 273.36Z" fill="#EBEBF1"/>
<path d="M159.123 271.189L159.32 271.88L167.212 276.418L167.015 275.727L159.123 271.189Z" fill="#C4C3EC"/>
<path d="M167.015 275.727L167.212 276.418L170.665 273.36L170.467 272.669L167.015 275.727Z" fill="#B7B6E3"/>
<path d="M159.123 271.189L167.015 275.727L170.467 272.669L162.575 268.23L159.123 271.189Z" fill="#EBEBF1"/>
<path d="M152.809 273.557L153.006 274.247L156.558 276.221L156.361 275.53L152.809 273.557Z" fill="#C4C3EC"/>
<path d="M156.361 275.53L156.558 276.221L160.011 273.261L159.813 272.57L156.361 275.53Z" fill="#B7B6E3"/>
<path d="M152.809 273.557L156.361 275.53L159.813 272.57L156.262 270.499L152.809 273.557Z" fill="#EBEBF1"/>
<path d="M146.496 275.826L146.693 276.516L150.244 278.588L150.047 277.898L146.496 275.826Z" fill="#C4C3EC"/>
<path d="M150.047 277.898L150.244 278.588L153.697 275.629L153.5 274.938L150.047 277.898Z" fill="#B7B6E3"/>
<path d="M146.496 275.826L150.047 277.898L153.5 274.938L149.948 272.866L146.496 275.826Z" fill="#EBEBF1"/>
<path d="M157.15 276.023L157.347 276.714L163.069 279.969L162.871 279.279L157.15 276.023Z" fill="#C4C3EC"/>
<path d="M162.871 279.279L163.069 279.969L166.521 277.01L166.324 276.319L162.871 279.279Z" fill="#B7B6E3"/>
<path d="M157.15 276.023L162.871 279.279L166.324 276.319L160.602 272.965L157.15 276.023Z" fill="#EBEBF1"/>
<path d="M150.836 278.292L151.033 278.983L158.925 283.521L158.728 282.83L150.836 278.292Z" fill="#C4C3EC"/>
<path d="M158.728 282.83L158.925 283.521L162.378 280.561L162.181 279.871L158.728 282.83Z" fill="#B7B6E3"/>
<path d="M150.836 278.292L158.728 282.83L162.181 279.871L154.289 275.333L150.836 278.292Z" fill="#EBEBF1"/>
<path d="M229.263 127.16L226.402 125.483L165.831 330.478L168.692 332.155L229.263 127.16Z" fill="#DAD9E8"/>
<path d="M233.11 126.667L230.249 125.088L226.402 125.483L229.263 127.16L233.11 126.667Z" fill="#EBEBF1"/>
<path d="M229.263 127.16L168.692 332.155L172.638 331.761L233.11 126.667L229.263 127.16Z" fill="#919DD6"/>
<path d="M253.235 168.1L255.504 166.817V163.365L253.235 164.647V168.1Z" fill="#919DD6"/>
<path d="M253.235 164.647L255.504 163.365L225.514 146.101L223.245 147.383L253.235 164.647Z" fill="#919DD6"/>
<path d="M223.245 147.383L220.779 149.455L253.235 168.1V164.647L223.245 147.383Z" fill="#DAD9E8"/>
<path d="M245.738 192.861L248.007 191.48V188.126L245.738 189.408V192.861Z" fill="#919DD6"/>
<path d="M245.738 189.408L248.007 188.126L218.017 170.862L215.847 172.145L245.738 189.408Z" fill="#919DD6"/>
<path d="M215.847 172.145L213.38 174.118L245.738 192.861V189.408L215.847 172.145Z" fill="#DAD9E8"/>
<path d="M238.536 217.721L240.805 216.34V212.986L238.536 214.268V217.721Z" fill="#919DD6"/>
<path d="M238.536 214.268L240.805 212.986L210.815 195.623L208.546 197.004L238.536 214.268Z" fill="#919DD6"/>
<path d="M208.546 197.004L206.179 198.977L238.536 217.721V214.268L208.546 197.004Z" fill="#DAD9E8"/>
<path d="M231.039 242.383L233.308 241.101V237.648L231.039 239.029V242.383Z" fill="#919DD6"/>
<path d="M231.039 239.029L233.308 237.648L203.417 220.384L201.148 221.667L231.039 239.029Z" fill="#919DD6"/>
<path d="M201.148 221.667L198.681 223.739L231.039 242.383V239.029L201.148 221.667Z" fill="#DAD9E8"/>
<path d="M223.837 267.243L226.106 265.961V262.508L223.837 263.889V267.243Z" fill="#919DD6"/>
<path d="M223.837 263.889L226.106 262.508L196.117 245.244L193.946 246.527L223.837 263.889Z" fill="#919DD6"/>
<path d="M193.946 246.527L191.48 248.598L223.837 267.243V263.889L193.946 246.527Z" fill="#DAD9E8"/>
<path d="M223.837 267.243L226.106 265.961V262.508L223.837 263.889V267.243Z" fill="#919DD6"/>
<path d="M223.837 263.889L226.106 262.508L196.117 245.244L193.848 246.527L223.837 263.889Z" fill="#919DD6"/>
<path d="M216.636 292.103L218.905 290.821V287.368L216.636 288.65V292.103Z" fill="#919DD6"/>
<path d="M216.636 288.65L218.905 287.368L188.915 270.104L186.646 271.387L216.636 288.65Z" fill="#919DD6"/>
<path d="M186.646 271.387L184.279 273.36L216.636 292.103V288.65L186.646 271.387Z" fill="#DAD9E8"/>
<path d="M209.237 316.864L211.506 315.582V312.228L209.237 313.51V316.864Z" fill="#919DD6"/>
<path d="M209.237 313.51L211.506 312.228L181.615 294.865L179.346 296.246L209.237 313.51Z" fill="#919DD6"/>
<path d="M179.346 296.246L176.88 298.219L209.237 316.864V313.51L179.346 296.246Z" fill="#DAD9E8"/>
<path d="M201.937 341.626L204.206 340.343V336.989L201.937 338.271V341.626Z" fill="#919DD6"/>
<path d="M201.937 338.271L204.206 336.989L174.216 319.627L171.947 321.008L201.937 338.271Z" fill="#919DD6"/>
<path d="M171.947 321.008L169.58 322.981L201.937 341.626V338.271L171.947 321.008Z" fill="#DAD9E8"/>
<path d="M261.226 145.706L258.365 144.029L197.794 349.123L200.753 350.8L261.226 145.706Z" fill="#DAD9E8"/>
<path d="M265.073 145.312L262.212 143.635L258.365 144.029L261.226 145.706L265.073 145.312Z" fill="#EBEBF1"/>
<path d="M261.226 145.706L200.753 350.8L204.6 350.405L265.073 145.312L261.226 145.706Z" fill="#919DD6"/>
<path d="M194.538 309.071C194.834 308.479 195.229 308.676 195.623 308.676C196.215 308.578 196.807 308.282 197.202 307.887C197.794 307.493 198.386 306.901 198.977 306.506C200.457 305.322 202.233 304.336 204.009 303.744C204.798 303.448 205.784 303.251 206.672 303.448C207.363 303.547 207.955 303.744 208.547 304.138C209.04 304.434 209.336 304.829 209.533 305.322C209.73 305.816 209.632 306.407 209.632 306.901C209.632 307.394 209.533 307.789 209.336 308.282C209.04 309.17 208.251 309.86 207.56 310.452C206.771 311.143 205.883 311.833 204.798 312.228C204.009 312.524 203.022 312.622 202.332 313.116C201.838 313.412 201.345 313.806 200.95 314.201C200.654 314.497 200.359 314.99 199.964 315.187C199.076 315.681 198.09 315.976 197.004 315.878C195.031 315.779 193.552 314.398 193.749 312.425C193.848 311.735 194.045 311.044 194.242 310.255C194.341 309.663 194.44 309.268 194.538 309.071Z" fill="#01084E"/>
<path d="M177.669 324.164C177.965 323.573 178.36 323.869 178.754 323.77C179.346 323.671 179.938 323.375 180.431 323.079C181.023 322.685 181.615 322.191 182.207 321.698C183.785 320.514 185.462 319.627 187.337 319.133C188.52 318.739 189.803 318.541 190.987 319.035C191.677 319.331 192.171 319.824 192.565 320.416C192.96 321.008 192.861 321.698 192.861 322.389C192.861 322.882 192.762 323.277 192.565 323.77C192.171 324.658 191.48 325.25 190.691 325.842C189.803 326.532 188.915 327.124 187.929 327.519C187.041 327.815 186.153 327.913 185.364 328.209C184.87 328.505 184.377 328.801 183.884 329.196C183.588 329.492 183.292 329.985 182.799 330.182C181.911 330.577 180.826 330.873 179.839 330.774C177.866 330.577 176.485 329.196 176.682 327.124C176.781 326.433 176.978 325.743 177.274 325.052C177.472 324.756 177.57 324.46 177.669 324.164Z" fill="#01084E"/>
<path d="M188.126 273.557C188.126 272.965 188.027 272.57 187.238 272.373C185.068 271.683 182.897 270.992 180.727 270.499C179.445 270.203 178.064 270.006 176.781 269.907L173.92 267.342C173.526 269.808 173.328 272.373 173.624 274.938C174.216 280.364 175.696 292.991 176.091 299.009C176.387 303.053 176.387 307.197 176.387 311.241C176.387 315.286 176.683 319.232 176.978 323.277C177.077 324.164 177.176 325.151 177.768 325.743C178.458 326.433 179.346 326.828 180.333 326.927C181.812 327.124 183.292 326.532 184.279 325.546C184.969 324.855 184.87 323.573 184.969 322.783C185.068 321.994 185.068 321.205 185.166 320.416C185.265 318.147 185.265 315.878 185.364 313.609C185.462 311.241 185.561 308.775 185.758 306.407C185.857 304.829 185.956 303.251 186.153 301.672C186.252 300.784 186.35 299.897 186.35 299.107C186.646 296.641 187.041 294.273 187.238 291.807C187.633 287.171 187.929 282.534 188.126 277.898C188.126 276.714 188.225 275.53 188.225 274.445C188.126 273.952 188.126 273.754 188.126 273.557Z" fill="#11449B"/>
<path d="M189.31 260.732C187.139 260.634 184.575 265.27 183.193 266.553C181.911 267.737 180.629 268.822 179.346 270.006C178.754 270.499 178.162 271.189 177.472 271.584C176.88 271.88 176.189 271.88 175.597 272.176C175.104 272.373 173.427 270.4 173.328 270.893C173.23 271.683 174.315 274.839 175.597 275.826C181.516 280.068 189.014 281.35 194.735 285.888C197.103 287.763 199.076 290.229 201.246 292.3C201.542 292.596 201.838 292.794 202.134 292.991C202.726 293.287 203.417 293.287 204.107 293.188C206.475 292.892 205.784 291.61 206.574 289.144C207.165 287.269 210.125 287.269 209.829 285.296C209.434 282.435 207.165 280.462 205.883 278.983C200.95 273.458 196.314 267.737 191.381 262.212C190.888 261.62 190.395 261.127 189.606 260.831C189.606 260.831 189.408 260.732 189.31 260.732Z" fill="#336FD6"/>
<path d="M200.359 239.72C200.457 240.41 200.26 241.693 199.668 242.186C199.076 242.581 197.892 242.383 197.3 242.482C195.327 242.679 193.453 242.778 191.48 242.877C190.592 242.975 189.704 242.975 188.816 242.975C186.252 243.074 183.687 242.877 181.122 242.482C180.135 242.285 178.557 242.088 177.768 241.397C176.978 240.706 176.88 239.72 177.077 238.635C177.274 236.76 178.261 234.985 180.037 234.294C181.812 233.604 183.588 233.9 185.364 234.097C189.408 234.59 193.453 235.379 197.399 236.464C198.09 236.662 198.78 236.859 199.372 237.254C199.865 237.846 200.26 238.733 200.359 239.72Z" fill="white"/>
<path d="M199.668 237.55C199.668 237.451 199.668 237.451 199.668 237.352C199.668 236.267 199.668 235.083 198.977 234.097C198.484 233.308 197.399 232.814 196.61 232.321C193.946 230.644 191.085 229.164 188.126 228.079C183.588 226.402 178.951 223.147 174.118 225.81C173.624 226.106 173.131 226.402 172.736 226.797C170.27 229.263 170.566 233.11 170.961 236.267C171.454 240.312 172.638 244.258 173.328 248.302C173.427 249.092 173.624 249.98 173.723 250.867C174.118 253.827 173.822 256.786 174.216 259.647C174.512 262.113 173.822 265.073 173.427 267.539C173.23 269.118 173.032 270.795 173.92 272.077C174.808 273.458 176.682 274.05 178.261 274.346C184.279 275.727 190.789 276.812 196.61 274.642C197.695 274.247 198.78 273.656 199.175 272.669C199.471 271.979 199.372 271.288 199.273 270.499C198.484 262.311 198.287 254.123 199.076 245.935C199.273 243.37 199.668 240.41 199.668 237.55Z" fill="#F4413C"/>
<path d="M198.879 233.604C197.202 232.518 195.031 231.729 193.256 232.716C192.565 233.11 192.072 233.702 191.579 234.393C191.184 234.886 190.888 235.478 190.691 236.169C190.198 237.648 190.395 239.424 191.085 240.904C191.973 242.679 193.256 243.469 194.933 244.258C196.314 244.948 197.695 245.639 199.076 246.428C201.838 247.908 204.502 249.486 207.363 250.571C209.04 251.163 210.914 251.657 212.394 250.67C213.38 250.078 214.071 248.796 214.17 247.415C214.367 244.159 212.197 243.567 211.901 243.37C202.134 236.168 198.681 233.406 198.879 233.604Z" fill="#F5554F"/>
<path d="M222.259 236.958C222.358 236.76 222.358 236.563 222.456 236.366C222.949 235.281 223.64 234.294 224.331 233.406C225.021 232.617 225.81 231.631 226.797 231.433C227.685 231.236 228.474 230.94 229.362 231.532C229.559 231.631 229.658 231.828 229.756 232.124C229.756 232.321 229.658 232.518 229.658 232.617C229.756 233.012 230.348 233.209 230.545 233.505C230.644 233.702 230.841 233.9 230.743 234.097C230.644 234.294 230.447 234.294 230.447 234.491C230.447 234.689 230.743 234.787 230.743 235.083C230.743 235.182 230.644 235.281 230.644 235.379C230.644 235.478 230.743 235.675 230.743 235.774C230.743 235.971 230.743 236.169 230.743 236.366C230.743 236.464 230.743 236.464 230.644 236.563C230.644 236.563 230.545 236.662 230.447 236.662C229.954 236.76 229.362 236.662 228.868 236.76C228.474 236.76 228.079 237.056 227.783 237.352C227.487 237.648 227.29 237.944 226.994 238.24C226.698 238.635 226.304 238.931 225.909 239.227C225.514 239.424 224.824 239.917 224.626 240.016L222.259 236.958Z" fill="#F5BFA6"/>
<path d="M225.218 236.662C225.613 237.155 226.205 238.339 226.008 239.128C225.81 239.72 224.922 240.312 224.528 240.706C223.245 241.989 222.062 243.173 220.779 244.356C220.187 244.948 219.595 245.442 219.003 246.034C217.228 247.612 215.452 248.894 213.479 249.98C212.69 250.374 211.506 251.163 210.618 251.065C209.73 250.966 209.138 250.177 208.645 249.19C207.856 247.513 207.461 245.54 208.251 243.863C209.04 242.285 210.421 241.496 211.802 240.706C214.86 238.832 218.017 237.155 221.272 235.774C221.864 235.478 222.456 235.281 223.048 235.281C223.837 235.379 224.626 235.873 225.218 236.662Z" fill="#F5554F"/>
<path d="M189.31 224.232C189.507 223.048 190.395 223.344 189.902 222.259C189.507 221.371 188.915 220.483 188.126 219.891C187.337 219.299 186.35 218.905 185.364 219.003C184.969 219.003 184.772 219.201 184.476 219.201C183.489 219.201 182.601 219.003 181.615 219.201C180.628 219.299 179.839 219.398 179.839 220.483C179.839 221.864 179.938 223.245 179.445 224.626C179.247 225.416 178.853 226.106 178.754 226.895C178.655 228.474 179.741 229.855 181.122 230.545C182.799 231.335 184.772 231.335 186.547 231.039C187.435 230.94 188.718 230.743 189.31 229.855C189.704 229.164 189.507 228.375 189.408 227.685C189.211 226.402 189.112 225.317 189.31 224.232Z" fill="#F5BFA6"/>
<path d="M193.354 208.842C193.946 209.533 194.341 210.322 194.538 211.21C194.834 213.282 194.045 215.353 194.439 217.326C194.834 219.299 194.045 223.739 190.198 224.922C188.225 225.514 184.377 224.824 183.095 224.232C181.418 223.443 180.333 221.864 179.346 220.286C171.257 207.461 187.83 202.134 193.354 208.842Z" fill="#F5BFA6"/>
<path d="M176.978 206.278C177.373 205.883 177.866 205.488 178.458 205.291C178.655 205.192 178.853 205.094 178.951 204.995C179.05 204.896 179.05 204.699 179.149 204.6C179.445 204.009 179.938 203.614 180.53 203.318C182.7 202.134 185.265 202.036 187.731 202.43C188.52 202.529 189.408 202.726 190.099 203.022C190.987 203.417 191.776 204.009 192.466 204.6C193.453 205.488 194.439 206.573 194.933 207.856C195.13 208.448 195.229 209.04 195.426 209.632C195.623 210.125 195.426 210.815 194.933 211.111C194.735 211.21 194.538 211.309 194.341 211.506C193.552 212.098 193.354 213.38 193.058 214.17C192.861 214.761 192.368 215.057 192.269 215.649C192.171 216.241 192.171 216.932 191.973 217.524C191.875 217.82 191.677 218.116 191.381 218.116C191.283 218.116 191.184 218.116 190.987 218.017C190.691 217.82 190.493 217.425 190.395 217.03C190.296 216.636 190.198 216.241 190 215.847C190 215.748 189.902 215.748 189.902 215.748H189.803C189.408 215.847 189.112 216.143 188.915 216.537C188.718 216.932 188.52 217.425 188.422 217.918C188.225 218.707 188.225 219.299 188.126 219.99C188.027 220.779 187.83 221.568 187.337 222.062C186.153 223.344 183.884 223.245 182.404 222.949C181.812 222.851 181.319 222.653 180.826 222.456C179.642 221.864 178.853 220.779 178.064 219.694C177.373 218.707 176.682 217.721 176.288 216.537C176.091 215.847 175.992 215.255 175.893 214.564C175.203 211.802 175.005 208.349 176.978 206.278Z" fill="#01084E"/>
<path d="M188.915 214.465C187.435 214.17 186.745 215.945 187.534 217.622C187.731 218.116 188.225 218.51 188.619 219.003C190.987 221.766 192.072 219.299 191.381 218.411C189.606 216.143 190.888 214.86 188.915 214.465Z" fill="#F5BFA6"/>
<path d="M189.014 217.425C188.816 217.228 187.238 215.945 188.521 215.452C188.915 215.353 189.211 215.649 189.211 216.044C189.211 216.241 189.112 216.438 189.112 216.636C189.112 216.734 189.112 216.833 189.211 216.932C189.31 217.228 189.803 217.524 189.704 217.918C189.507 218.116 189.112 217.524 189.014 217.425Z" fill="#E9A27F"/>
<path d="M209.138 288.848C209.138 288.946 209.04 289.045 209.04 289.144C207.56 293.09 206.475 297.134 205.094 301.179C204.206 303.843 202.233 311.143 199.273 311.143C197.794 311.143 194.933 310.551 194.637 309.17C193.354 303.941 197.892 288.749 199.175 284.507C199.471 283.422 199.471 283.817 199.767 282.83C199.964 281.942 200.063 280.66 200.654 279.871C201.74 278.489 203.811 280.166 204.798 280.956C206.278 282.041 208.251 283.027 209.336 284.507C210.421 285.79 209.73 287.368 209.138 288.848Z" fill="#336FD6"/>
<path d="M84.4446 257.872L84.3459 261.324L73.0011 254.813V251.361L84.4446 257.872Z" fill="#919DD6"/>
<path d="M85.2337 259.055V262.508C85.2337 262.113 84.9378 261.62 84.3459 261.324V257.872C84.9378 258.168 85.2337 258.661 85.2337 259.055Z" fill="#919DD6"/>
<path d="M85.2337 259.055V262.508C85.2337 262.113 84.9378 261.62 84.3459 261.324V257.872C84.9378 258.168 85.2337 258.661 85.2337 259.055Z" fill="#919DD6"/>
<path d="M94.7042 261.226V264.678C94.7042 265.961 94.3096 267.243 93.4217 268.427V264.974C94.2109 263.692 94.7042 262.508 94.7042 261.226Z" fill="#919DD6"/>
<path d="M94.7042 261.226V264.678C94.7042 265.961 94.3096 267.243 93.4217 268.427V264.974C94.2109 263.692 94.7042 262.508 94.7042 261.226Z" fill="#919DD6"/>
<path d="M59.782 264.58V261.127C59.782 263.692 61.4591 266.355 64.9118 268.328C70.0416 271.288 77.539 272.077 83.8526 270.597V274.05C77.539 275.53 70.0416 274.741 64.9118 271.781C61.4591 269.808 59.782 267.145 59.782 264.58Z" fill="#919DD6"/>
<path d="M83.8526 270.499V273.952C82.8661 274.149 81.9783 274.346 80.9918 274.445V270.992C81.8796 270.893 82.8661 270.696 83.8526 270.499Z" fill="#919DD6"/>
<path d="M80.8931 270.992V274.445C75.2701 275.135 69.2524 274.247 64.9118 271.683C61.4591 269.71 59.782 267.046 59.782 264.481V261.028C59.782 263.593 61.4591 266.257 64.9118 268.23C69.2524 270.795 75.3687 271.683 80.8931 270.992Z" fill="#919DD6"/>
<path d="M153.993 298.515V301.968C152.908 301.376 151.132 301.376 149.948 301.968V298.515C151.132 297.923 152.908 297.923 153.993 298.515Z" fill="#919DD6"/>
<path d="M153.993 298.515V301.968C153.302 301.574 152.316 301.376 151.428 301.574V298.121C152.316 297.924 153.302 298.121 153.993 298.515Z" fill="#919DD6"/>
<path d="M151.428 298.121V301.574C150.935 301.672 150.442 301.771 150.047 301.968V298.515C150.442 298.318 150.935 298.121 151.428 298.121Z" fill="#919DD6"/>
<path d="M132.389 298.614V302.067L83.8527 273.952V270.499L132.389 298.614Z" fill="#919DD6"/>
<path d="M150.047 298.515L149.948 301.968L142.451 306.407V302.856L150.047 298.515Z" fill="#919DD6"/>
<path d="M141.662 307.493V304.04C141.662 303.645 141.958 303.251 142.451 302.856V306.309C141.958 306.703 141.662 307.098 141.662 307.493Z" fill="#919DD6"/>
<path d="M142.451 302.856V306.309C142.254 306.407 142.056 306.605 141.958 306.703V303.251C142.056 303.152 142.254 303.053 142.451 302.856Z" fill="#919DD6"/>
<path d="M141.958 303.349V306.802C141.76 306.999 141.662 307.295 141.662 307.493V304.04C141.662 303.744 141.76 303.547 141.958 303.349Z" fill="#919DD6"/>
<path d="M166.226 302.165V305.618C166.226 306.605 165.93 307.591 165.436 308.578V305.125C165.93 304.138 166.226 303.152 166.226 302.165Z" fill="#919DD6"/>
<path d="M166.226 302.165V305.618C166.226 306.605 165.93 307.591 165.436 308.578V305.125C165.93 304.138 166.226 303.152 166.226 302.165Z" fill="#919DD6"/>
<path d="M165.436 305.125V308.578L153.993 301.968V298.515L165.436 305.125Z" fill="#919DD6"/>
<path d="M131.303 305.618V302.165C131.303 304.73 132.98 307.394 136.433 309.367C141.168 312.129 147.975 312.918 153.894 311.833V315.286C147.877 316.371 141.168 315.483 136.433 312.82C132.98 310.847 131.303 308.183 131.303 305.618Z" fill="#919DD6"/>
<path d="M153.993 311.833V315.286C153.5 315.385 153.006 315.483 152.513 315.483V312.03C153.006 312.03 153.5 311.932 153.993 311.833Z" fill="#919DD6"/>
<path d="M152.513 312.03V315.483C146.89 316.174 140.872 315.286 136.532 312.721C133.079 310.748 131.402 308.084 131.402 305.52V302.067C131.402 304.632 133.079 307.295 136.532 309.268C140.872 311.833 146.89 312.721 152.513 312.03Z" fill="#919DD6"/>
<path d="M161.096 295.063C165.831 297.825 167.311 301.771 165.535 305.224L154.092 298.614C153.006 298.022 151.231 298.022 150.047 298.614L142.549 302.955C141.464 303.547 141.464 304.632 142.549 305.322L153.993 311.932C147.975 313.017 141.267 312.129 136.532 309.466C131.501 306.605 130.12 302.363 132.487 298.713L83.8526 270.696C77.539 272.176 70.0416 271.387 64.9118 268.427C60.4725 265.862 58.8941 262.212 60.2752 258.858L71.62 265.369C72.3106 265.764 73.3957 265.961 74.3822 265.764L81.2877 264.678C82.2742 264.481 83.0634 264.087 83.3594 263.495L85.2337 259.45C85.5297 258.858 85.2337 258.266 84.4445 257.872L73.0998 251.361C78.8215 250.571 85.1351 251.459 89.5743 254.024C94.7041 256.984 95.9866 261.324 93.5203 264.974L141.958 292.892C148.173 291.314 155.867 292.005 161.096 295.063Z" fill="#B7B6E3"/>
<path d="M60.1766 233.406C60.2752 233.11 60.4725 232.913 61.0644 232.814C61.755 232.716 62.4455 232.716 63.2347 232.716C64.2212 232.617 65.1091 232.617 66.0956 232.518C66.0956 231.729 65.9969 230.94 65.8983 230.151C66.8848 230.348 67.4767 230.052 68.4632 229.756C69.647 229.362 70.7321 228.967 71.9159 228.572C72.4092 228.474 72.9024 228.277 73.4944 228.375C74.7768 228.671 75.4674 230.743 75.2701 231.927C75.1714 232.716 74.5795 233.406 73.9876 233.9C73.0011 234.689 71.7186 235.281 70.5348 235.379C69.2524 235.577 68.0686 235.971 67.0821 236.76C65.7996 237.846 64.8131 238.931 63.0374 239.029C61.2617 239.128 59.782 238.043 59.782 236.267C59.782 235.577 59.8806 234.985 59.9793 234.294C60.0779 233.9 60.1766 233.604 60.1766 233.406Z" fill="#919DD6"/>
<path d="M65.6023 235.577C65.6023 235.478 65.6023 235.281 65.6023 235.182C65.5037 233.702 66.0956 232.518 66.5888 231.236C66.7861 230.743 66.9834 230.25 67.378 229.855C68.3645 229.066 69.8443 229.756 70.4362 230.841C70.7322 231.335 70.8308 231.828 71.1268 232.42C71.62 233.406 72.6065 234.491 73.6917 234.59C75.2701 234.689 76.9471 234.097 78.5255 233.998C79.1174 233.998 79.808 233.9 80.3012 234.196C81.6823 234.689 81.9783 236.859 81.5837 238.142C81.2877 238.931 80.5972 239.424 79.9066 239.72C78.8215 240.213 77.4404 240.509 76.1579 240.41C74.8755 240.312 73.6917 240.41 72.5079 241.002C70.5348 241.989 68.1672 243.37 66.0956 241.496C65.5037 241.002 65.3064 240.213 65.2077 239.523C65.1091 238.142 65.6023 236.859 65.6023 235.577Z" fill="#C4C3EC"/>
<path d="M61.3604 176.189C62.3469 177.176 65.9969 175.4 66.0956 174.907C70.4362 171.553 69.9429 185.068 68.6605 190.395C67.9699 193.256 68.1672 196.314 67.7726 199.273C67.2794 202.529 66.5888 205.784 65.701 208.941C65.5037 209.632 65.3064 210.322 64.8131 210.815C63.8266 211.901 62.0509 211.802 60.6698 211.506C59.3874 211.309 58.0063 210.914 57.4144 209.829C57.0198 209.138 57.0198 208.349 57.0198 207.56C57.0198 205.488 57.0198 203.318 56.6252 201.345C56.2306 199.175 55.7373 197.004 55.3427 194.834C54.9481 192.96 54.5535 190.987 54.3562 189.112C53.9616 185.66 54.2576 182.108 54.8495 178.655C55.1454 176.88 54.5535 173.427 57.1184 173.032C59.2887 172.638 60.6698 175.499 61.3604 176.189Z" fill="#DB3029"/>
<path d="M66.1942 205.784L66.8848 202.726C66.6875 203.811 66.3915 204.798 66.1942 205.784Z" fill="#EA533E"/>
<path d="M65.1091 207.757C64.3199 206.771 62.5442 206.771 61.8536 207.067C61.3604 207.264 57.809 205.291 56.8225 204.502C56.9211 204.6 56.7238 205.39 56.7238 205.587C56.7238 205.982 56.7238 206.278 56.6252 206.672C56.6252 207.363 56.5265 208.053 56.5265 208.842C56.4279 210.224 56.4279 211.605 56.4279 212.986C56.4279 215.748 56.6252 218.411 56.9211 221.174C57.2171 223.936 57.7103 226.698 58.4009 229.362C58.6968 230.348 58.8941 231.433 59.2887 232.42C59.486 233.209 59.8806 234.196 60.5712 234.59C60.9658 234.787 61.459 234.886 61.8536 234.985C62.2482 235.083 62.7415 235.083 63.1361 234.985C63.6293 234.886 64.1226 234.689 64.4185 234.393C64.8131 233.998 65.0105 233.406 65.2078 232.913C65.5037 232.025 65.5037 231.039 65.5037 230.052C65.5037 225.514 65.2078 220.976 65.2078 216.438C65.2078 212.887 65.405 209.434 66.0956 205.982L65.1091 207.757Z" fill="#DB3029"/>
<path d="M68.0686 177.077C68.4632 176.88 70.6335 175.795 70.6335 175.203C70.6335 174.808 71.7186 174.512 71.9159 174.512C72.4092 174.512 72.9025 174.808 73.2971 175.104C74.2836 175.795 74.9741 176.88 75.4674 178.064C76.0593 179.642 76.2566 181.418 76.3552 183.095C76.6512 188.225 76.5525 193.256 75.9606 198.385C75.6647 200.95 75.2701 203.515 74.8755 205.982C74.6782 207.264 74.3822 208.546 74.0863 209.73C73.7903 210.914 73.593 211.309 72.5078 211.901C70.3375 213.282 66.4902 213.084 64.9118 210.618C63.2347 207.955 63.9253 203.91 63.432 200.95C62.6428 196.61 59.782 193.453 58.4995 189.408C57.513 186.449 57.7103 183.588 58.2036 180.53C58.4009 179.05 58.8941 175.597 60.3739 174.808C60.7685 174.611 63.432 174.019 65.6023 176.091C66.6875 177.274 66.4902 177.866 68.0686 177.077Z" fill="#F5554F"/>
<path d="M53.3697 165.239C53.2711 164.45 53.1724 163.759 53.0738 162.97C52.4819 159.32 51.3967 155.867 50.9035 152.217C50.5089 149.356 50.3116 145.904 52.5805 143.635C52.9751 143.24 53.3697 142.944 53.7643 142.747C58.1049 140.281 62.3469 143.24 66.3916 144.72C69.0551 145.706 71.62 146.989 74.0863 148.469C74.8755 148.962 75.7633 149.356 76.3552 150.244C76.9471 151.132 77.2431 152.119 77.3417 153.105C77.4404 154.289 77.1444 155.571 76.9471 156.755C75.7633 163.759 75.2701 170.862 76.0593 177.866C76.4539 180.924 76.7498 189.112 76.7498 189.112C75.7633 189.507 75.0728 190 70.2389 190C60.1766 190.198 54.6522 187.633 54.0603 187.139C53.4684 186.646 53.6657 185.364 53.6657 184.673C53.567 182.503 53.6657 180.333 53.6657 178.064C53.7643 173.822 53.863 169.481 53.3697 165.239Z" fill="#E4E3EE"/>
<path d="M73.889 211.703C73.6917 213.874 73.4944 216.143 73.3957 218.313C73.2971 220.089 73.1984 221.766 73.0998 223.541C73.0011 224.922 73.0011 226.205 72.9025 227.586C72.6065 234.985 73.3957 236.662 69.943 237.55C69.1538 237.747 68.3645 237.846 67.5753 237.648C65.3064 237.056 64.9118 235.083 64.6158 232.617C64.4185 231.236 64.4185 229.559 64.3199 228.178C64.3199 226.994 64.2212 225.81 64.2212 224.626C64.2212 223.048 64.2212 221.371 64.1226 219.793C64.1226 217.721 64.1226 215.551 64.0239 213.479C64.0239 210.815 63.728 208.053 63.728 205.291C63.728 204.896 63.9253 204.502 64.3199 204.305C64.7145 204.009 72.9025 206.968 73.6917 207.955C73.7903 207.955 74.0863 209.04 73.889 211.703Z" fill="#F5554F"/>
<path d="M67.378 141.168C67.5753 140.083 68.3645 140.379 67.9699 139.393C67.5753 138.603 67.0821 137.814 66.3915 137.222C65.701 136.63 64.8131 136.335 63.8266 136.433C63.5307 136.433 63.3334 136.63 63.0374 136.63C62.1496 136.63 61.3604 136.433 60.4725 136.63C59.5847 136.729 58.8941 136.828 58.8941 137.814C58.8941 139.097 58.9928 140.281 58.4995 141.563C58.3022 142.254 57.9076 142.845 57.9076 143.536C57.809 144.917 58.7955 146.2 60.0779 146.791C61.5577 147.482 63.3334 147.482 64.9118 147.186C65.701 147.087 66.8848 146.89 67.378 146.101C67.7726 145.509 67.5753 144.72 67.4767 144.128C67.378 143.043 67.2794 142.155 67.378 141.168Z" fill="#F5BFA6"/>
<path d="M65.6024 124.891L62.051 126.963C62.3469 126.864 62.6429 126.864 63.0375 127.061L66.5889 124.99C66.1943 124.792 65.7997 124.792 65.6024 124.891Z" fill="#1393F2"/>
<path d="M63.0375 127.061L66.5889 124.99C66.1943 124.792 65.8983 124.792 65.6024 124.891L62.051 126.963C62.2483 126.864 62.6429 126.864 63.0375 127.061Z" fill="#78819C"/>
<path d="M71.0281 127.357C71.5214 127.949 71.916 128.64 72.1133 129.528C72.4092 131.402 71.62 133.276 72.0146 135.052C72.4092 136.828 71.62 140.872 68.1673 141.859C66.3916 142.352 62.9388 141.76 61.8537 141.267C60.3739 140.576 59.3874 139.097 58.4996 137.716C51.1994 126.075 66.0956 121.34 71.0281 127.357Z" fill="#F5BFA6"/>
<path d="M55.1454 132.487C55.1454 132.783 55.2441 133.178 55.3427 133.474C55.4414 133.77 55.4414 133.967 55.54 134.263C55.6387 134.46 55.7373 134.657 55.7373 134.855C56.1319 135.644 56.5265 136.335 57.0198 137.025C57.7103 138.012 58.4009 138.998 59.486 139.491C59.9793 139.689 60.4725 139.787 60.9658 139.985C62.3469 140.281 64.4186 140.379 65.4051 139.195C65.8983 138.702 66.0956 138.012 66.1943 137.321C66.2929 136.63 66.2929 136.137 66.4902 135.447C66.4902 135.249 66.5889 135.151 66.5889 134.953C66.6875 134.657 66.7862 134.46 66.8848 134.164C67.0821 133.77 67.4767 133.474 67.8713 133.276C68.5619 133.079 69.4497 133.474 70.0416 133.079C70.3376 132.882 70.5349 132.487 70.6335 132.093C70.7322 131.698 70.9295 131.303 71.0281 130.909C71.2254 130.416 71.4227 129.922 71.7187 129.528C71.916 129.33 72.1133 129.133 72.2119 128.837C72.4092 128.541 72.6065 128.245 72.6065 127.851C72.7052 126.174 71.3241 124.497 70.1403 123.411C69.5484 122.819 68.8578 122.326 68.0686 121.932C67.3781 121.636 66.5889 121.537 65.8983 121.34C63.728 121.044 61.3604 121.044 59.3874 122.129C58.8941 122.425 58.4009 122.819 58.1049 123.313C58.0063 123.411 58.0063 123.51 57.9076 123.707C57.809 123.806 57.6117 123.905 57.513 124.003C57.0198 124.201 56.5265 124.595 56.2306 124.891C54.5535 126.864 54.7508 130.021 55.1454 132.487Z" fill="#02196A"/>
<path d="M67.0821 132.586C65.701 132.487 65.3064 134.164 66.1943 135.545C66.4902 135.94 66.9835 136.335 67.2794 136.63C69.7457 138.801 70.4362 136.532 69.647 135.743C67.8713 133.967 68.8578 132.684 67.0821 132.586Z" fill="#F5BFA6"/>
<path d="M67.4767 135.151C67.2794 134.953 65.701 134.066 66.8848 133.375C67.1808 133.178 67.4767 133.474 67.5754 133.77C67.5754 133.967 67.5754 134.066 67.5754 134.263C67.5754 134.362 67.674 134.46 67.674 134.559C67.7727 134.756 68.2659 135.052 68.1673 135.348C67.97 135.743 67.5754 135.249 67.4767 135.151Z" fill="#E9A27F"/>
<path d="M132.882 95.7893L129.922 94.1123L138.899 80.6958L141.859 82.4716L132.882 95.7893Z" fill="#B7B6E3"/>
<path d="M130.218 97.1704L127.259 95.3947C127.949 95.7893 129.133 95.2961 129.922 94.0136L132.882 95.7893C132.093 97.0718 130.909 97.565 130.218 97.1704Z" fill="#B7B6E3"/>
<path d="M130.218 97.1704L127.259 95.3947C127.555 95.592 127.949 95.592 128.443 95.3947L131.402 97.1704C130.909 97.3677 130.514 97.3677 130.218 97.1704Z" fill="#B7B6E3"/>
<path d="M131.303 97.1704L128.344 95.3947C128.64 95.296 128.837 95.0987 129.133 94.9014L132.093 96.6771C131.895 96.9731 131.599 97.0718 131.303 97.1704Z" fill="#B7B6E3"/>
<path d="M132.093 96.7758L129.133 95.0001C129.429 94.8028 129.725 94.5069 129.922 94.1123L132.882 95.8879C132.684 96.1839 132.389 96.4799 132.093 96.7758Z" fill="#B7B6E3"/>
<path d="M73.2971 168.79L70.3376 167.015L114.73 101.215L117.69 102.991L73.2971 168.79Z" fill="#B7B6E3"/>
<path d="M72.9025 177.274L69.943 175.499C69.8443 175.4 69.7457 175.301 69.5484 175.203C67.8713 173.723 68.1673 170.073 70.3376 166.916L73.2971 168.692C71.2254 171.75 70.8308 175.499 72.5079 176.978C72.7052 177.077 72.8038 177.176 72.9025 177.274Z" fill="#B7B6E3"/>
<path d="M72.9025 177.274L69.943 175.499C69.8443 175.4 69.7457 175.301 69.5484 175.203C68.9565 174.709 68.6605 173.92 68.5619 173.032L71.5214 174.808C71.62 175.696 72.0146 176.485 72.5079 176.978C72.7052 177.077 72.8038 177.176 72.9025 177.274Z" fill="#B7B6E3"/>
<path d="M71.5214 174.808L68.5619 173.032C68.4632 172.342 68.5619 171.651 68.6605 170.862L71.62 172.638C71.5214 173.427 71.5214 174.118 71.5214 174.808Z" fill="#B7B6E3"/>
<path d="M71.7187 172.638L68.7592 170.862C69.0551 169.58 69.5484 168.199 70.4362 167.015L73.3957 168.79C72.5079 170.073 71.916 171.355 71.7187 172.638Z" fill="#B7B6E3"/>
<path d="M121.833 85.3324L118.873 83.5567C122.622 78.0323 127.555 74.6782 131.599 74.3822L134.559 76.1579C130.514 76.4539 125.582 79.808 121.833 85.3324Z" fill="#B7B6E3"/>
<path d="M121.833 85.3324L118.873 83.5567C120.353 81.3864 122.03 79.512 123.806 78.0323L126.765 79.808C124.99 81.1891 123.313 83.0634 121.833 85.3324Z" fill="#B7B6E3"/>
<path d="M126.765 79.808L123.806 78.0323C125.384 76.7498 126.963 75.7633 128.541 75.1714L131.501 76.9471C129.922 77.539 128.344 78.5255 126.765 79.808Z" fill="#B7B6E3"/>
<path d="M131.501 76.9471L128.541 75.1714C129.626 74.7768 130.711 74.4809 131.698 74.3822L134.657 76.1579C133.572 76.2566 132.487 76.4539 131.501 76.9471Z" fill="#B7B6E3"/>
<path d="M117.69 102.991L114.73 101.215C113.25 96.5785 114.73 89.673 118.873 83.5567L121.833 85.3324C117.69 91.3501 116.309 98.3542 117.69 102.991Z" fill="#B7B6E3"/>
<path d="M117.69 102.991L114.73 101.215C114.533 100.525 114.336 99.834 114.237 99.0448L117.196 100.82C117.394 101.61 117.492 102.3 117.69 102.991Z" fill="#B7B6E3"/>
<path d="M117.295 100.82L114.336 99.0448C114.138 97.3677 114.237 95.4934 114.631 93.5204L117.591 95.2961C117.196 97.2691 117.098 99.1434 117.295 100.82Z" fill="#B7B6E3"/>
<path d="M117.591 95.2961L114.631 93.5204C115.322 90.2649 116.703 86.8121 118.873 83.5567L121.833 85.3324C119.663 88.4892 118.183 92.0406 117.591 95.2961Z" fill="#B7B6E3"/>
<path d="M121.833 85.3324C125.582 79.808 130.514 76.4539 134.559 76.1579L125.582 89.4757C124.694 90.7582 124.595 92.3366 125.286 92.9285L130.021 97.0718C130.711 97.6637 131.994 97.0718 132.882 95.7893L141.859 82.4716C142.747 87.0095 141.168 93.3231 137.42 98.8475C133.474 104.668 128.147 108.121 123.905 108.022L79.3147 174.118C77.2431 177.176 74.1849 178.557 72.5079 177.077C70.8308 175.597 71.1268 171.947 73.2971 168.79L117.69 102.991C116.309 98.3542 117.69 91.3501 121.833 85.3324Z" fill="#919DD6"/>
<path d="M100.031 143.043C99.7353 143.141 99.3407 143.24 99.3407 142.845C99.3407 142.254 99.6367 141.662 99.538 141.07C99.538 140.872 99.3407 140.576 99.1434 140.576C98.8475 140.576 98.7488 140.872 98.6502 141.07C98.4529 141.662 98.2556 142.254 97.861 142.747C97.565 143.141 97.2691 143.437 96.9731 143.832C96.6772 144.227 96.3812 144.522 96.1839 145.016C95.9866 145.41 96.0853 145.805 96.1839 146.2C96.2826 146.594 96.0853 146.89 96.0853 147.285C96.0853 147.778 96.0853 148.37 96.2826 148.863C96.3812 149.258 96.4799 149.751 96.7758 149.948C97.1704 150.146 97.565 149.85 97.861 149.652C98.2556 149.258 98.4529 148.764 98.7488 148.271C98.9461 148.074 98.9461 147.877 99.1434 147.581C99.3407 147.383 99.6367 147.186 99.834 147.087C100.426 146.791 100.919 146.298 101.412 145.805C101.906 145.213 102.202 144.72 102.3 144.029C102.399 143.536 102.399 143.043 102.399 142.648C102.399 142.155 102.399 141.563 102.103 141.168C101.708 140.576 101.61 141.267 101.412 141.563C101.116 142.056 100.722 142.648 100.229 143.043C100.13 143.043 100.13 143.043 100.031 143.043Z" fill="#F5BFA6"/>
<path d="M97.6637 147.285C97.269 146.989 96.8745 146.791 96.4799 146.693C95.4933 146.594 94.7041 146.989 94.0136 147.581C91.8433 149.455 90.1662 152.415 87.3054 153.302C86.1216 153.697 84.7405 153.105 83.6553 152.513C82.1756 151.724 80.6958 151.132 79.2161 150.343C78.2296 149.85 77.2431 149.258 76.2566 148.962C74.8755 148.469 73.3957 148.173 72.1133 148.863C70.9295 149.554 70.1403 150.737 69.8443 152.217C69.5484 153.697 69.943 155.275 71.0281 156.361C72.0146 157.347 73.3957 157.84 74.6782 158.235C76.1579 158.728 77.539 159.221 79.0188 159.715C79.808 160.011 80.4985 160.208 81.2877 160.405C81.9783 160.602 82.6688 160.701 83.3594 160.8C84.9378 161.194 86.8121 160.898 88.3905 160.405C89.4757 160.109 90.3635 159.517 91.1527 158.827C93.915 156.558 96.1839 153.993 97.9596 150.935C98.2556 150.343 98.7488 149.652 98.7488 149.06C98.6502 148.567 98.2556 147.778 97.6637 147.285Z" fill="#EBEBF1"/>
<path d="M146.594 47.3521L135.743 11.9367L146.594 47.3521Z" fill="#1393F2"/>
<path d="M147.599 47.0889L136.738 11.621L134.663 12.2565L145.524 47.7243L147.599 47.0889Z" fill="#171C29"/>
<path d="M159.517 158.629C149.554 152.513 147.285 144.227 146.397 140.675C147.186 144.029 149.85 147.383 154.289 150.146C165.535 156.952 184.279 157.15 196.018 150.54C201.049 147.679 204.009 144.128 204.896 140.379C204.107 143.339 203.022 147.778 198.583 152.809C196.906 154.782 193.256 158.334 187.337 160.701C178.36 164.351 167.508 163.562 159.517 158.629Z" fill="#919DD6"/>
<path d="M196.215 77.9336C207.264 84.5432 206.869 95.0988 195.327 101.511C183.785 107.923 165.634 107.726 154.683 101.116C143.635 94.5069 144.029 83.9513 155.571 77.539C167.015 71.1268 185.265 71.3241 196.215 77.9336Z" fill="#E4E3EE"/>
<path d="M146.397 140.576L137.518 101.807C138.505 106.345 141.958 110.685 147.877 114.237C162.576 123.017 186.843 123.313 202.134 114.829C208.744 111.179 212.493 106.444 213.578 101.61L204.896 140.478C204.107 144.227 201.148 147.778 196.018 150.639C184.279 157.15 165.535 157.051 154.289 150.244C149.751 147.482 147.186 144.128 146.397 140.576Z" fill="#B7B6E3"/>
<path d="M150.836 76.9471C165.831 68.8578 187.041 69.0551 201.246 77.539C199.964 76.7498 198.188 76.8485 196.215 77.9336C185.166 71.3241 167.015 71.1268 155.571 77.539C144.128 83.9513 143.733 94.5069 154.683 101.116C165.634 107.726 183.884 107.923 195.327 101.511C206.771 95.0988 207.165 84.5432 196.215 77.9336C198.188 76.8485 199.964 76.7498 201.246 77.539C204.206 79.512 208.744 82.3729 211.901 88.4892C214.86 94.2109 213.972 99.3407 213.578 101.511C212.492 106.444 208.645 111.179 202.036 114.829C186.745 123.313 162.477 123.115 147.778 114.237C141.958 110.685 138.505 106.345 137.42 101.807C137.025 99.834 136.729 97.9596 137.025 95.0988C137.42 91.4487 138.899 88.6865 138.998 88.5879C140.182 86.6148 143.043 81.1891 150.836 76.9471Z" fill="#DAD9E8"/>
<path d="M191.48 30.0883C199.964 35.1195 199.668 43.3074 190.789 48.1413C182.01 53.0738 168.001 52.8765 159.616 47.8453C151.132 42.8142 151.428 34.6262 160.307 29.7924C168.988 24.8598 182.996 25.0571 191.48 30.0883Z" fill="#EBEBF1"/>
<path d="M148.468 90.6595C134.855 82.2743 131.895 71.1268 131.797 63.2348C131.797 69.5484 135.841 75.862 144.029 80.6958C160.8 90.7582 188.52 91.0541 205.982 81.2877C214.959 76.2566 219.497 69.5484 219.497 62.9388C219.299 67.0821 219.102 69.1538 217.425 73.7903C216.142 77.4404 213.775 80.4985 212.591 82.0769C211.999 82.8661 206.672 89.673 196.215 93.7177C178.162 100.919 159.221 97.3677 148.468 90.6595Z" fill="#B7B6E3"/>
<path d="M149.652 28.5099C157.643 24.1693 166.521 21.999 176.189 22.1963C186.153 22.2949 195.031 24.6626 202.627 29.2005C199.767 27.5234 195.821 27.622 191.381 30.0883C182.897 25.0571 168.988 24.8598 160.208 29.7924C151.428 34.7249 151.132 42.8142 159.517 47.8453C168.001 52.8765 181.911 53.0738 190.691 48.1413C199.471 43.2088 199.767 35.1195 191.381 30.0883C195.821 27.622 199.767 27.4248 202.627 29.2005C206.672 31.7654 218.905 39.756 219.299 56.6252C219.299 63.3334 214.761 70.0416 205.784 74.9741C188.323 84.7405 160.602 84.4445 143.832 74.3822C135.743 69.4497 131.698 63.1361 131.599 56.9212C131.698 54.4549 131.797 51.6927 132.882 48.3386C134.164 44.2939 135.249 42.6169 137.025 39.756C138.603 37.3884 143.043 32.16 149.652 28.5099Z" fill="#E4E3EE"/>
<path d="M184.18 81.5837C169.974 83.2607 154.683 80.7945 143.931 74.3822C135.841 69.5484 131.797 63.2348 131.698 57.0198C131.698 52.9752 133.375 49.2264 136.137 46.1683C136.236 51.7913 139.787 57.4144 147.087 61.755C156.755 67.5754 170.467 69.7457 183.193 68.2659C183.785 72.8038 184.18 77.539 184.18 81.5837Z" fill="#042F8F"/>
<path d="M131.797 63.3334V56.9212C131.797 63.2348 135.841 69.5484 144.029 74.3822C160.8 84.4445 188.52 84.7405 205.982 74.9741C214.959 69.943 219.497 63.2348 219.497 56.6252V63.0375C219.497 69.7457 214.959 76.4539 205.982 81.3864C188.52 91.1528 160.8 90.8568 144.029 80.7945C135.841 75.862 131.797 69.5484 131.797 63.3334Z" fill="#DAD9E8"/>
<path d="M138.899 63.4321C138.012 65.8983 136.532 65.997 135.545 63.8267C133.868 60.078 135.545 55.6387 137.814 56.2306C138.209 56.3293 138.406 56.6252 138.603 56.8225C139.985 58.8942 139.195 62.4456 138.899 63.4321Z" fill="#05D4F5"/>
<path d="M163.661 74.4809C162.97 78.1309 158.432 78.7228 156.065 75.4674C153.598 72.1133 156.262 68.1673 159.715 68.5619C159.813 68.5619 160.011 68.6605 160.109 68.6605C163.167 69.5484 164.055 72.6065 163.661 74.4809Z" fill="#05D4F5"/>
<path d="M204.6 58.7955C204.6 56.6252 203.121 55.7374 201.246 56.8225C199.372 57.9077 197.892 60.5712 197.892 62.7415C197.892 64.9118 199.372 65.7997 201.246 64.7145C203.121 63.5307 204.6 60.9658 204.6 58.7955Z" fill="#1393F2"/>
<path d="M201.641 60.7685L226.402 42.2223L201.641 60.7685Z" fill="#1393F2"/>
<path d="M201.641 61.8537C201.345 61.8537 200.95 61.755 200.753 61.459C200.358 60.9658 200.457 60.2752 200.95 59.9793L225.712 41.4331C226.205 41.0385 226.895 41.1371 227.191 41.6304C227.586 42.1236 227.487 42.8142 226.994 43.1101L202.233 61.6563C202.134 61.755 201.937 61.8537 201.641 61.8537Z" fill="#171C29"/>
<path d="M226.994 46.5629C230.154 46.5629 232.716 44.0012 232.716 40.8412C232.716 37.6812 230.154 35.1195 226.994 35.1195C223.834 35.1195 221.272 37.6812 221.272 40.8412C221.272 44.0012 223.834 46.5629 226.994 46.5629Z" fill="#1393F2"/>
<path d="M135.249 17.6584C138.409 17.6584 140.971 15.0967 140.971 11.9367C140.971 8.77666 138.409 6.21497 135.249 6.21497C132.089 6.21497 129.528 8.77666 129.528 11.9367C129.528 15.0967 132.089 17.6584 135.249 17.6584Z" fill="#1393F2"/>
<path d="M209.73 99.7353L213.874 102.202C212.098 101.215 209.632 101.314 206.869 102.892L202.726 100.426C205.488 98.8475 207.955 98.7488 209.73 99.7353Z" fill="#EBEBF1"/>
<path d="M206.968 102.892L202.825 100.426C205.587 98.8475 207.955 98.7488 209.829 99.7353L213.972 102.202C212.098 101.215 209.632 101.314 206.968 102.892Z" fill="#EBEBF1"/>
<path d="M207.955 106.937C211.703 104.766 214.663 106.542 214.663 110.784C214.663 115.026 211.703 120.255 207.955 122.326C204.206 124.497 201.246 122.721 201.246 118.479C201.246 114.336 204.206 109.107 207.955 106.937Z" fill="#05D4F5"/>
<path d="M200.063 126.075L195.919 123.609C194.144 122.622 193.058 120.452 193.058 117.295C193.058 111.08 197.399 103.484 202.825 100.426L206.968 102.892C201.542 106.049 197.202 113.546 197.202 119.761C197.202 122.819 198.287 124.99 200.063 126.075Z" fill="#EBEBF1"/>
<path d="M200.063 126.075L195.919 123.609C194.341 122.721 193.354 120.846 193.157 118.38L197.3 120.846C197.498 123.313 198.484 125.088 200.063 126.075Z" fill="#EBEBF1"/>
<path d="M197.202 120.748L193.058 118.282C193.058 117.986 193.058 117.591 193.058 117.295C193.058 111.968 196.314 105.556 200.654 101.906L204.798 104.372C200.457 108.022 197.202 114.336 197.202 119.761C197.202 120.156 197.202 120.452 197.202 120.748Z" fill="#EBEBF1"/>
<path d="M204.798 104.372L200.654 101.906C201.345 101.314 202.036 100.82 202.825 100.426L206.968 102.892C206.179 103.287 205.488 103.78 204.798 104.372Z" fill="#EBEBF1"/>
<path d="M207.955 106.937L206.968 102.892C212.394 99.7353 216.734 102.3 216.734 108.515C216.734 114.73 212.394 122.326 206.968 125.384C201.542 128.541 197.202 125.976 197.202 119.761C197.202 113.546 201.542 105.95 206.968 102.892L207.955 106.937C204.304 109.107 201.246 114.237 201.246 118.479C201.246 122.721 204.304 124.497 207.955 122.326C211.703 120.156 214.663 115.026 214.663 110.784C214.663 106.542 211.605 104.865 207.955 106.937Z" fill="#EBEBF1"/>
<path d="M207.955 106.937L206.968 102.892C212.394 99.7353 216.734 102.3 216.734 108.515C216.734 114.73 212.394 122.326 206.968 125.384C201.542 128.541 197.202 125.976 197.202 119.761C197.202 113.546 201.542 105.95 206.968 102.892L207.955 106.937C204.304 109.107 201.246 114.237 201.246 118.479C201.246 122.721 204.304 124.497 207.955 122.326C211.703 120.156 214.663 115.026 214.663 110.784C214.663 106.542 211.605 104.865 207.955 106.937Z" fill="#C4C3EC"/>
<path d="M293.583 303.349V308.676L259.351 328.604V323.277L293.583 303.349Z" fill="#919DD6"/>
<path d="M259.351 323.277V328.604L224.922 308.676V303.349L259.351 323.277Z" fill="#B7B6E3"/>
<path d="M293.287 303.349L259.154 323.277L224.725 303.349L258.858 283.521L293.287 303.349Z" fill="#D8D5EE"/>
<path d="M294.175 296.246V301.574L259.943 321.501V316.174L294.175 296.246Z" fill="#B7B6E3"/>
<path d="M259.943 316.174V321.501L225.514 301.574V296.246L259.943 316.174Z" fill="#B7B6E3"/>
<path d="M293.977 296.246L259.746 316.174L225.317 296.246L259.549 276.418L293.977 296.246Z" fill="#D8D5EE"/>
<path d="M300.587 292.202V297.529L266.355 317.456V312.129L300.587 292.202Z" fill="#919DD6"/>
<path d="M266.355 312.129V317.456L231.926 297.529V292.202L266.355 312.129Z" fill="#B7B6E3"/>
<path d="M300.587 292.202L266.355 312.129L231.927 292.202L266.158 272.373L300.587 292.202Z" fill="#D8D5EE"/>
<path d="M300.587 285.395V290.722L266.355 310.649V305.322L300.587 285.395Z" fill="#919DD6"/>
<path d="M266.355 305.322V310.649L231.926 290.722V285.395L266.355 305.322Z" fill="#B7B6E3"/>
<path d="M300.587 285.395L266.355 305.322L231.927 285.395L266.158 265.566L300.587 285.395Z" fill="#D8D5EE"/>
<path d="M300.587 277.7V283.027L266.355 302.955V297.628L300.587 277.7Z" fill="#919DD6"/>
<path d="M266.355 297.628V302.955L231.926 283.027V277.7L266.355 297.628Z" fill="#B7B6E3"/>
<path d="M300.587 277.7L266.355 297.628L231.927 277.7L266.158 257.872L300.587 277.7Z" fill="#E4E3EE"/>
<defs>
<linearGradient id="paint0_linear_6_3" x1="200.85" y1="51.5073" x2="167.234" y2="165.284" gradientUnits="userSpaceOnUse">
<stop stop-color="#4BAAE3"/>
<stop offset="0.1911" stop-color="#46A1E2"/>
<stop offset="0.4999" stop-color="#3789E1"/>
<stop offset="0.8858" stop-color="#2063DE"/>
<stop offset="1" stop-color="#1856DD"/>
</linearGradient>
</defs>
</svg>
