<svg width="256" height="256" viewBox="0 0 256 256" fill="none" xmlns="http://www.w3.org/2000/svg">
<path d="M104.667 94.6667H98V101.333H104.667V94.6667Z" fill="#1E6BFF"/>
<path d="M104.667 108H98V114.667H104.667V108Z" fill="#1E6BFF"/>
<path d="M104.667 121.333H98V128H104.667V121.333Z" fill="#1E6BFF"/>
<path d="M104.667 134.667H98V141.333H104.667V134.667Z" fill="#1E6BFF"/>
<path d="M118 94.6667H111.333V101.333H118V94.6667Z" fill="#1E6BFF"/>
<path d="M118 108H111.333V114.667H118V108Z" fill="#1E6BFF"/>
<path d="M118 121.333H111.333V128H118V121.333Z" fill="#1E6BFF"/>
<path d="M118 134.667H111.333V141.333H118V134.667Z" fill="#1E6BFF"/>
<path d="M131.333 94.6667H124.667V101.333H131.333V94.6667Z" fill="#1E6BFF"/>
<path d="M131.333 108H124.667V114.667H131.333V108Z" fill="#1E6BFF"/>
<path d="M131.333 121.333H124.667V128H131.333V121.333Z" fill="#1E6BFF"/>
<path d="M131.333 134.667H124.667V141.333H131.333V134.667Z" fill="#1E6BFF"/>
<path d="M144.667 94.6667H138V101.333H144.667V94.6667Z" fill="#1E6BFF"/>
<path d="M118 81.3333H111.333V88H118V81.3333Z" fill="#1E6BFF"/>
<path d="M131.333 81.3333H124.667V88H131.333V81.3333Z" fill="#1E6BFF"/>
<path d="M144.667 81.3333H138V88H144.667V81.3333Z" fill="#1E6BFF"/>
<path d="M144.667 108H138V114.667H144.667V108Z" fill="#1E6BFF"/>
<path d="M144.667 121.333H138V128H144.667V121.333Z" fill="#1E6BFF"/>
<path d="M144.667 134.667H138V141.333H144.667V134.667Z" fill="#1E6BFF"/>
<path d="M158 94.6667H151.333V101.333H158V94.6667Z" fill="#1E6BFF"/>
<path d="M158 108H151.333V114.667H158V108Z" fill="#1E6BFF"/>
<path d="M158 121.333H151.333V128H158V121.333Z" fill="#1E6BFF"/>
<path d="M158 134.667H151.333V141.333H158V134.667Z" fill="#1E6BFF"/>
<path d="M224.67 78C224.669 78 224.668 78 224.667 78H174.667V31.3333C174.668 29.4933 173.177 28.0013 171.337 28C171.336 28 171.335 28 171.333 28H84.6667C82.8267 27.9988 81.3346 29.4896 81.3333 31.3296C81.3333 31.3308 81.3333 31.3321 81.3333 31.3333V78H31.3333C29.4933 77.9987 28.0013 79.4896 28 81.3296C28 81.3308 28 81.3321 28 81.3333V201.333C27.9988 203.173 29.4896 204.665 31.3296 204.667C31.3308 204.667 31.3321 204.667 31.3333 204.667H38.3013C38.1079 205.767 38.0071 206.882 38 208V224.667C37.9988 226.507 39.4896 227.999 41.3296 228C41.3308 228 41.3321 228 41.3333 228H214.667C216.507 228.001 217.999 226.51 218 224.67C218 224.669 218 224.668 218 224.667V208C217.993 206.882 217.892 205.767 217.699 204.667H224.667C226.507 204.668 227.999 203.177 228 201.337C228 201.336 228 201.335 228 201.333V81.3333C228.001 79.4933 226.51 78.0012 224.67 78ZM171.333 171.333C171.333 175.015 168.349 178 164.667 178C160.985 178 158 175.015 158 171.333C158 167.651 160.985 164.667 164.667 164.667C168.347 164.671 171.329 167.653 171.333 171.333ZM91.3333 164.667C95.0154 164.667 98 167.651 98 171.333C98 175.015 95.0154 178 91.3333 178C87.6512 178 84.6667 175.015 84.6667 171.333C84.6712 167.653 87.6533 164.671 91.3333 164.667ZM71.3333 221.333H44.6667V208C44.6667 200.636 50.6362 194.667 58 194.667C65.3637 194.667 71.3333 200.636 71.3333 208V221.333ZM51.3333 181.333C51.3333 177.651 54.3179 174.667 58 174.667C61.6821 174.667 64.6667 177.651 64.6667 181.333C64.6667 185.015 61.6821 188 58 188C54.32 187.995 51.3379 185.013 51.3333 181.333ZM71.8383 193.594C70.5812 192.381 69.1717 191.338 67.645 190.49C72.7292 185.163 72.5329 176.723 67.2062 171.639C61.8796 166.554 53.4396 166.751 48.355 172.078C43.4371 177.23 43.4371 185.337 48.355 190.49C45.1733 192.255 42.53 194.851 40.7058 198H34.6667V84.6667H81.3333V162.607C76.7558 167.743 76.9104 175.54 81.6883 180.49C76.6883 183.255 73.1054 188.022 71.8383 193.594ZM104.667 221.333H78V198C78 190.636 83.9696 184.667 91.3333 184.667C98.6971 184.667 104.667 190.636 104.667 198V221.333ZM144.667 221.333H111.333V198C111.333 188.795 118.795 181.333 128 181.333C137.205 181.333 144.667 188.795 144.667 198V221.333ZM118 164.667C118 159.144 122.477 154.667 128 154.667C133.523 154.667 138 159.144 138 164.667C138 170.19 133.523 174.667 128 174.667C122.48 174.661 118.006 170.187 118 164.667ZM148.301 186.54C146.069 182.605 142.748 179.398 138.737 177.306C145.778 171.376 146.677 160.862 140.748 153.821C134.818 146.781 124.303 145.881 117.263 151.81C110.222 157.74 109.322 168.255 115.252 175.295C115.864 176.022 116.536 176.694 117.263 177.306C113.252 179.398 109.931 182.605 107.699 186.54C105.947 184.04 103.648 181.971 100.978 180.49C106.089 175.262 105.994 166.881 100.765 161.77C97.3992 158.48 92.5387 157.225 88 158.473V34.6667H168V158.473C166.914 158.174 165.793 158.015 164.667 158C157.322 157.98 151.353 163.918 151.333 171.263C151.324 174.7 152.646 178.007 155.022 180.49C152.352 181.971 150.053 184.04 148.301 186.54ZM178 208V221.333H151.333V198C151.333 190.636 157.303 184.667 164.667 184.667C172.03 184.667 178 190.636 178 198V208ZM211.333 221.333H184.667V208C184.667 200.636 190.636 194.667 198 194.667C205.364 194.667 211.333 200.636 211.333 208V221.333ZM191.333 181.333C191.333 177.651 194.318 174.667 198 174.667C201.682 174.667 204.667 177.651 204.667 181.333C204.667 185.015 201.682 188 198 188C194.32 187.995 191.338 185.013 191.333 181.333ZM221.333 198H215.294C213.47 194.851 210.827 192.256 207.645 190.49C212.729 185.163 212.533 176.723 207.206 171.639C201.88 166.555 193.44 166.751 188.355 172.078C183.437 177.23 183.437 185.337 188.355 190.49C186.828 191.337 185.418 192.381 184.162 193.593C182.895 188.022 179.312 183.255 174.312 180.49C179.09 175.539 179.245 167.742 174.667 162.606V84.6667H221.334V198H221.333Z" fill="#1E6BFF"/>
<path d="M191.333 104.667H184.667V158H191.333V104.667Z" fill="#1E6BFF"/>
<path d="M211.333 104.667H204.667V158H211.333V104.667Z" fill="#1E6BFF"/>
<path d="M51.3333 104.667H44.6667V158H51.3333V104.667Z" fill="#1E6BFF"/>
<path d="M71.3333 104.667H64.6667V158H71.3333V104.667Z" fill="#1E6BFF"/>
<path d="M148.004 41.3333C148.003 41.3333 148.001 41.3333 148 41.3333H108C106.16 41.3321 104.668 42.8229 104.667 44.6629C104.667 44.6642 104.667 44.6654 104.667 44.6667V71.3333C104.665 73.1733 106.156 74.6654 107.996 74.6667C107.997 74.6667 107.999 74.6667 108 74.6667H148C149.84 74.6679 151.332 73.1771 151.333 71.3371C151.333 71.3358 151.333 71.3346 151.333 71.3333V44.6667C151.335 42.8267 149.844 41.3346 148.004 41.3333ZM144.667 68H111.333V48H144.667V68Z" fill="#1E6BFF"/>
</svg>
