<svg width="80" height="80" viewBox="0 0 80 80" fill="none" xmlns="http://www.w3.org/2000/svg">
<circle cx="40" cy="40" r="40" fill="#7BB9FF"/>
<circle cx="40" cy="40" r="40" fill="url(#paint0_linear_711_2)"/>
<path d="M34 44.5C32.8692 46.04 31.2737 47 29.5 47C27.7263 47 26.1308 46.04 25 44.5C26.1308 42.96 27.7263 42 29.5 42C31.2737 42 32.8692 42.96 34 44.5Z" fill="white"/>
<path d="M29.5 35C28.837 35 28.2011 35.3161 27.7322 35.8787C27.2634 36.4413 27 37.2044 27 38C27 38.7956 27.2634 39.5587 27.7322 40.1213C28.2011 40.6839 28.837 41 29.5 41C30.163 41 30.7989 40.6839 31.2678 40.1213C31.7366 39.5587 32 38.7956 32 38C32 37.2044 31.7366 36.4413 31.2678 35.8787C30.7989 35.3161 30.163 35 29.5 35Z" fill="white"/>
<path d="M62 37.4615C62 36.062 60.8424 34.9231 59.42 34.9231V33.2308C60.8424 33.2308 62 32.0918 62 30.6923C62 29.2928 60.8424 28.1538 59.42 28.1538V23.9231C59.42 21.5902 57.491 19.6923 55.12 19.6923H54.26C54.26 18.759 53.4886 18 52.54 18H49.1C48.1514 18 47.38 18.759 47.38 19.6923H32.76C30.389 19.6923 28.46 21.5902 28.46 23.9231V29.8893C23.171 30.3217 19 34.6862 19 40C19 45.3138 23.171 49.6783 28.46 50.1107V56.0769C28.46 58.4098 30.389 60.3077 32.76 60.3077H47.38C47.38 61.241 48.1514 62 49.1 62H52.54C53.4886 62 54.26 61.241 54.26 60.3077H55.12C57.491 60.3077 59.42 58.4098 59.42 56.0769V53.5385C60.8424 53.5385 62 52.3995 62 51C62 49.6005 60.8424 48.4615 59.42 48.4615V46.7692C60.8424 46.7692 62 45.6303 62 44.2308C62 42.8312 60.8424 41.6923 59.42 41.6923V40C60.8424 40 62 38.8611 62 37.4615ZM32.76 21.3846H47.38V29H37.06C36.1114 29 35.34 29.759 35.34 30.6923V31.7695C33.8625 30.7202 32.0969 30.0458 30.18 29.8893V23.9231C30.18 22.5235 31.3376 21.3846 32.76 21.3846ZM37.06 33.3061V30.6923H47.38V35.7692H38.6897C38.2683 34.8689 37.7179 34.0414 37.06 33.3061ZM20.72 40C20.72 35.3343 24.578 31.5385 29.32 31.5385C34.062 31.5385 37.92 35.3343 37.92 40C37.92 44.6657 34.062 48.4615 29.32 48.4615C24.578 48.4615 20.72 44.6657 20.72 40ZM32.76 58.6154C31.3376 58.6154 30.18 57.4765 30.18 56.0769V50.1107C35.469 49.6783 39.64 45.3138 39.64 40C39.64 39.1217 39.5144 38.2747 39.3003 37.4615H47.38V39.1538H41.36V40.8462H47.38V42.5385H41.36V44.2308H47.38V45.9231H41.36V47.6154H47.38V49.3077H38.78V51H47.38V58.6154H32.76ZM60.28 37.4615C60.28 37.9286 59.8947 38.3077 59.42 38.3077V36.6154C59.8947 36.6154 60.28 36.9945 60.28 37.4615ZM60.28 30.6923C60.28 31.1594 59.8947 31.5385 59.42 31.5385V29.8462C59.8947 29.8462 60.28 30.2252 60.28 30.6923ZM49.1 60.3077V19.6923H52.54L52.5417 60.3077H49.1ZM60.28 51C60.28 51.4671 59.8947 51.8462 59.42 51.8462V50.1538C59.8947 50.1538 60.28 50.5329 60.28 51ZM60.28 44.2308C60.28 44.6978 59.8947 45.0769 59.42 45.0769V43.3846C59.8947 43.3846 60.28 43.7637 60.28 44.2308ZM57.7 43.3846V48.4615H55.98V50.1538H57.7V56.0769C57.7 57.4765 56.5424 58.6154 55.12 58.6154H54.26V21.3846H55.12C56.5424 21.3846 57.7 22.5235 57.7 23.9231V28.1538H55.98V29.8462H57.7V34.9231H55.98V36.6154H57.7V41.6923H55.98V43.3846H57.7Z" fill="white"/>
<defs>
<linearGradient id="paint0_linear_711_2" x1="42" y1="-2.5" x2="40" y2="94.5" gradientUnits="userSpaceOnUse">
<stop stop-color="#0077FD"/>
<stop offset="0.765625" stop-color="#C1DEFF" stop-opacity="0.469017"/>
<stop offset="1" stop-color="white" stop-opacity="0"/>
</linearGradient>
</defs>
</svg>
