<svg width="90" height="72" viewBox="0 0 90 72" fill="none" xmlns="http://www.w3.org/2000/svg">
<path d="M14.1896 40.957C9.79309 41.6897 1 40.5173 1 29.9656C1 19.4139 7.83907 17.753 11.2586 18.2415C10.5259 12.6237 14.1896 2.12076 26.6465 7.98285C32.2643 1.63227 46.431 -5.93955 53.0258 13.1121M22.9827 27.0345V16.0432H83.8016V51.2155M43.5 62.2069H88.9309V54.8793H39.1034C39.1034 54.8793 39.1034 40.5882 39.1034 31.4311H17.8534C17.8534 44.8193 17.8534 53.1114 17.8534 65.1379M39.1034 60.0086V65.1379M33.9741 54.8793H26.6465M26.6465 60.0086H33.9741M17.8534 65.1379C17.8534 66.9924 17.8534 68.9356 17.8534 71H39.1034V65.1379M17.8534 65.1379H39.1034M18.5862 35.0949H38.3707M44.2327 32.1638H51.5603M44.2327 36.5604H51.5603M44.2327 41.6897H51.5603M44.2327 46.819H51.5603M29.5776 22.638H77.9396V25.569H29.5776V24.1035V22.638Z" stroke="black" stroke-width="2"/>
<path d="M25.181 54.8793H23.7155M25.181 60.0086H23.7155" stroke="#F87F2E"/>
<circle cx="69.1465" cy="38.7587" r="8.82758" stroke="#F0BC5E" stroke-width="3"/>
<circle cx="28.1121" cy="46.0862" r="4.43103" stroke="#F0BC5E" stroke-width="3"/>
</svg>
