<svg width="80" height="80" viewBox="0 0 80 80" fill="none" xmlns="http://www.w3.org/2000/svg">
<circle cx="40" cy="40" r="40" fill="#7BB9FF"/>
<circle cx="40" cy="40" r="40" fill="url(#paint0_linear)"/>
<path d="M48.276 28.6245H24.0345C23.6232 28.6245 23.2898 28.9579 23.2898 29.3692C23.2898 29.7805 23.6232 30.1138 24.0345 30.1138H48.2761C48.6874 30.1138 49.0208 29.7805 49.0208 29.3692C49.0208 28.9579 48.6873 28.6245 48.276 28.6245Z" fill="white"/>
<path d="M24.0345 24.9483H36.1552C36.5665 24.9483 36.8999 24.6149 36.8999 24.2036C36.8999 23.7923 36.5665 23.4589 36.1552 23.4589H24.0345C23.6232 23.4589 23.2898 23.7923 23.2898 24.2036C23.2898 24.615 23.6232 24.9483 24.0345 24.9483V24.9483Z" fill="white"/>
<path d="M48.276 33.2013H24.0345C23.6232 33.2013 23.2898 33.5347 23.2898 33.946C23.2898 34.3573 23.6232 34.6907 24.0345 34.6907H48.2761C48.6874 34.6907 49.0208 34.3573 49.0208 33.946C49.0207 33.5347 48.6873 33.2013 48.276 33.2013Z" fill="white"/>
<path d="M29.5566 60.4468H21.7986C20.5253 60.4468 19.4893 59.4108 19.4893 58.1375V18.7986C19.4893 17.5253 20.5253 16.4893 21.7986 16.4893H44.1485C44.2207 16.4893 44.2918 16.4959 44.3621 16.5054V21.1496C44.3621 23.2443 46.0662 24.9483 48.1607 24.9483H52.8048C52.8144 25.0187 52.821 25.0897 52.821 25.1619V37.8429C52.821 38.2542 53.1543 38.5876 53.5656 38.5876C53.9769 38.5876 54.3103 38.2542 54.3103 37.8429V25.162C54.3103 24.3452 53.9922 23.5772 53.4146 22.9995L46.3109 15.8958C45.7333 15.3182 44.9653 15 44.1485 15H21.7986C19.704 15 18 16.7041 18 18.7986V58.1375C18 60.232 19.7041 61.936 21.7986 61.936H29.5566C29.9679 61.936 30.3012 61.6027 30.3012 61.1914C30.3012 60.7801 29.9679 60.4468 29.5566 60.4468V60.4468ZM51.7679 23.459H48.1608C46.8875 23.459 45.8514 22.423 45.8514 21.1496V17.5425L51.7679 23.459Z" fill="white"/>
<path d="M62.7112 51.4557L56.4016 40.8056C55.9418 40.0291 54.941 39.7724 54.1641 40.2326L52.6294 41.1419C51.4381 41.8477 50.9346 43.2758 51.3436 44.5414C50.8265 44.7288 50.2596 44.7258 49.7376 44.524C48.5258 44.1428 47.6046 43.3759 46.0831 43.7607C43.4996 44.4185 43.5781 44.3855 43.3444 44.4656C41.8317 43.6044 40.9224 43.3481 39.3166 43.9693L37.8852 44.5227C37.2225 44.7787 36.4922 44.718 35.8798 44.3552L35.4892 44.1249C35.6798 42.9828 35.1733 41.7775 34.1008 41.1421C34.1008 41.1421 34.1008 41.1421 34.1007 41.142L32.566 40.2328C31.7913 39.774 30.7876 40.0309 30.3287 40.8056L24.0189 51.4558C23.559 52.2321 23.8149 53.2332 24.5916 53.6932L26.1262 54.6024C26.5906 54.8776 27.101 55.0084 27.6052 55.0084C28.1675 55.0084 28.7218 54.8454 29.1958 54.5386L29.5157 54.7273L28.8404 55.6678C28.0357 56.7888 28.2914 58.3476 29.4125 59.1524C29.931 59.5245 30.5823 59.6945 31.2559 59.5887C31.3628 60.2134 31.7051 60.7981 32.2594 61.1962C32.7799 61.5699 33.4283 61.7401 34.1031 61.6338C34.2102 62.258 34.5523 62.8422 35.1063 63.24C35.8508 63.7744 36.7764 63.8362 37.5476 63.5067C37.7164 63.9451 38.0098 64.341 38.419 64.6348C39.4875 65.4018 40.9595 65.2017 41.7898 64.2081L43.5843 65.2711C44.771 65.9744 46.3022 65.5836 47.0058 64.3955C47.1858 64.0917 47.2974 63.7607 47.3382 63.4205L47.3423 63.423C48.5272 64.1248 50.0619 63.7319 50.7638 62.5472C50.9671 62.204 51.0785 61.8318 51.1056 61.4588C52.1501 61.7214 53.2883 61.2827 53.8647 60.3098C54.0539 59.9907 54.1635 59.6459 54.1996 59.299C55.319 59.7383 56.6273 59.3137 57.2595 58.2467C57.5995 57.6728 57.6957 57.0009 57.5303 56.3546C57.4357 55.9848 57.2617 55.6491 57.0228 55.3657L58.0119 54.7878C58.8486 55.1313 59.8035 55.0763 60.6037 54.6023L62.1382 53.6931C62.9149 53.2334 63.1714 52.2325 62.7112 51.4557V51.4557ZM26.8854 53.3212L25.3507 52.4119C25.2825 52.3714 25.2599 52.2831 25.3002 52.2148L31.61 41.5644C31.6506 41.4959 31.7393 41.4736 31.8071 41.514L33.3417 42.4231C34.0236 42.8272 34.2369 43.7017 33.8403 44.3712L28.8335 52.8225C28.4338 53.4972 27.56 53.7207 26.8854 53.3212V53.3212ZM30.281 57.9425C29.8288 57.6178 29.7254 56.9888 30.0502 56.5364L31.0428 55.1538C31.359 54.7134 31.989 54.5928 32.4489 54.923C32.9002 55.2469 33.0037 55.8776 32.6798 56.329L31.6872 57.7115C31.3632 58.1631 30.7321 58.2663 30.281 57.9425V57.9425ZM33.1279 59.9864C32.6766 59.6623 32.5731 59.0314 32.8971 58.5802L33.8896 57.1977C33.8896 57.1977 33.8896 57.1977 33.8896 57.1976C33.8896 57.1976 33.8896 57.1975 33.8897 57.1975L34.9851 55.6718C35.1421 55.4532 35.3747 55.3086 35.6403 55.2651C35.6954 55.256 35.7507 55.2516 35.8056 55.2516C36.0146 55.2516 36.218 55.3166 36.3912 55.4409C36.6097 55.5979 36.7542 55.8305 36.7977 56.096C36.8413 56.3617 36.7789 56.6283 36.6219 56.8469L34.5339 59.7555C34.2094 60.2078 33.5803 60.3113 33.1279 59.9864V59.9864ZM35.9748 62.0301C35.5237 61.7062 35.4201 61.0759 35.7435 60.6246C35.7436 60.6244 35.7438 60.6242 35.7439 60.624L37.8319 57.7156C38.1557 57.2644 38.7869 57.1607 39.238 57.4846C39.6893 57.8086 39.7929 58.4394 39.4689 58.8908L38.5412 60.1831C38.5412 60.1831 38.5412 60.1831 38.5411 60.1832L37.3809 61.7993C37.0569 62.2506 36.4263 62.3543 35.9748 62.0301V62.0301ZM39.2875 63.425C38.8365 63.1011 38.7328 62.471 39.056 62.0196L39.7509 61.0517C40.0748 60.6003 40.7059 60.4971 41.157 60.8209C41.6083 61.1448 41.7119 61.7756 41.3879 62.227L40.6935 63.194C40.3697 63.6454 39.7387 63.7491 39.2875 63.425V63.425ZM55.9784 57.4877C55.6951 57.9659 55.0758 58.1245 54.5975 57.8413C53.7875 57.3615 48.5629 54.2662 48.0059 53.9361C47.6519 53.7265 47.1953 53.8433 46.9857 54.1972C46.776 54.551 46.8928 55.0078 47.2467 55.2174L52.2299 58.1697L52.23 58.1698C52.7085 58.4532 52.868 59.0706 52.5836 59.5509C52.3001 60.0293 51.6805 60.1876 51.2024 59.9046C49.3593 58.8126 47.8627 57.926 46.2165 56.9507C45.8624 56.7411 45.4058 56.8578 45.1962 57.2117C44.9866 57.5655 45.1034 58.0223 45.4572 58.2319L49.129 60.4072L49.1298 60.4077C49.6085 60.6919 49.7665 61.3091 49.4827 61.7884C49.1992 62.2668 48.5798 62.4253 48.1014 62.142L46.1308 60.9746C46.1306 60.9745 46.1303 60.9744 46.1301 60.9742C46.1299 60.9741 46.1297 60.974 46.1295 60.9739L44.6915 60.1219C44.3376 59.9122 43.8809 60.0289 43.6713 60.3829C43.4617 60.7367 43.5784 61.1935 43.9323 61.4031L45.3706 62.2553C45.3708 62.2554 45.371 62.2555 45.3712 62.2556C45.8496 62.539 46.0092 63.1563 45.7248 63.6366C45.4413 64.1151 44.8219 64.2736 44.3435 63.9902L42.6656 62.9963C43.3849 61.8864 43.1113 60.3907 42.0256 59.6114C41.7068 59.3826 41.3517 59.2402 40.9886 59.179C41.3738 58.149 41.0417 56.9466 40.1065 56.2753C39.5528 55.8776 38.8899 55.7403 38.2642 55.8384C38.1529 55.1873 37.7969 54.6171 37.2597 54.2316C36.2495 53.5066 34.8766 53.6459 34.0286 54.5038C33.8563 54.2011 33.6184 53.9296 33.3174 53.7136C32.478 53.1111 31.388 53.1055 30.5569 53.6129L30.2157 53.4115L34.8992 45.5061L35.1221 45.6376C36.1068 46.2209 37.3085 46.3425 38.4221 45.9119L39.8536 45.3585C40.6727 45.0419 41.1244 45.0213 41.9346 45.4036C41.4045 45.9992 41.0898 46.7811 41.0898 47.6239V50.9256C41.0898 51.8026 41.8028 52.5165 42.679 52.5171H42.6812C43.5601 52.5171 44.3867 52.1749 45.0085 51.5535C45.3709 51.1913 45.6385 50.7594 45.7988 50.288C46.7603 50.8574 54.7041 55.5614 55.6251 56.1071C55.8567 56.2443 56.0211 56.4635 56.0878 56.7243C56.1545 56.9849 56.1157 57.2561 55.9784 57.4877V57.4877ZM61.3794 52.4119L59.8447 53.3212C59.17 53.7206 58.2962 53.4969 57.8968 52.8226L55.5501 48.8614C55.3404 48.5076 54.8834 48.3908 54.5298 48.6002C54.176 48.8098 54.0591 49.2666 54.2686 49.6204L56.6154 53.5817C56.6596 53.6562 56.7075 53.7271 56.7571 53.7962L56.1047 54.1774C55.9728 54.2555 55.846 54.3415 55.7247 54.4349L45.6081 48.444C45.1125 48.1506 44.4841 48.5083 44.4841 49.0847C44.4763 49.1291 44.561 49.8946 43.9556 50.4998C43.6151 50.84 43.1625 51.0274 42.6811 51.0274C42.6807 51.0274 42.6803 51.0274 42.6799 51.0274C42.6243 51.0274 42.579 50.9816 42.579 50.9252V47.6235C42.579 46.7609 43.1724 46.0333 43.9749 45.8301L46.4482 45.2042C47.3456 44.9774 47.8529 45.4566 49.1966 45.9114C50.1295 46.2722 51.1438 46.25 52.0441 45.8655L52.4935 46.6242C52.7032 46.9783 53.16 47.0949 53.5138 46.8854C53.8676 46.6758 53.9845 46.219 53.775 45.8652L52.8897 44.371C52.4892 43.6949 52.7123 42.8237 53.3883 42.423L54.9229 41.5139C54.99 41.474 55.0786 41.4944 55.1202 41.5644L61.4298 52.2146C61.4705 52.2834 61.4481 52.3712 61.3794 52.4119V52.4119Z" fill="white"/>
<defs>
<linearGradient id="paint0_linear" x1="42" y1="-2.5" x2="40" y2="94.5" gradientUnits="userSpaceOnUse">
<stop stop-color="#0077FD"/>
<stop offset="0.765625" stop-color="#C1DEFF" stop-opacity="0.469017"/>
<stop offset="1" stop-color="white" stop-opacity="0"/>
</linearGradient>
</defs>
</svg>
