<svg width="464" height="463" viewBox="0 0 464 463" fill="none" xmlns="http://www.w3.org/2000/svg">
<path d="M395.53 234.31C485.95 286.51 485.95 371.15 395.53 423.36C305.11 475.57 158.51 475.56 68.09 423.36C-22.33 371.16 -22.33 286.52 68.09 234.31C158.51 182.1 305.11 182.1 395.53 234.31Z" fill="#F0F0F0"/>
<path d="M305.9 364.07C305.97 361.98 305.25 359.62 304.05 357.57C303.8 357.15 303.54 356.74 303.26 356.35C303.25 356.33 303.23 356.31 303.22 356.29C302.95 355.92 302.66 355.56 302.35 355.23C302.32 355.2 302.3 355.17 302.27 355.14C301.97 354.82 301.66 354.51 301.33 354.23C301.3 354.21 301.27 354.18 301.24 354.16C300.91 353.88 300.56 353.62 300.21 353.4C300.01 353.27 299.81 353.16 299.61 353.06C299.52 353.01 299.43 352.98 299.34 352.94C299.24 352.89 299.13 352.84 299.03 352.8C298.88 352.74 298.73 352.7 298.59 352.66C298.55 352.65 298.51 352.63 298.47 352.62C298.3 352.58 298.12 352.54 297.96 352.52C297.95 352.52 297.94 352.52 297.93 352.51C297.22 352.42 296.57 352.52 296.02 352.8H296.01C290.72 355.45 260.24 374.85 246.21 383.59L239.26 387.81C239.06 387.92 238.89 388.09 238.75 388.3C238.73 388.32 238.71 388.35 238.7 388.38C238.64 388.47 238.59 388.57 238.54 388.68C238.51 388.75 238.49 388.82 238.47 388.89C238.44 388.98 238.41 389.06 238.39 389.16C238.38 389.22 238.37 389.28 238.36 389.34C238.04 389.51 237.65 389.72 237.21 389.97L236.18 390.53C233.98 388.41 231.33 386.43 228.25 384.65C218.63 379.1 205.89 376.04 192.37 376.04C178.85 376.04 166.11 379.1 156.49 384.65C146.53 390.4 141.04 398.17 141.04 406.52C141.04 414.87 146.53 422.64 156.49 428.39C166.11 433.94 178.85 437 192.37 437C205.89 437 218.63 433.94 228.25 428.39C238.21 422.64 243.7 414.87 243.7 406.52C243.7 402.75 242.57 399.11 240.44 395.71L241.36 395.21C242.11 395.63 242.81 395.68 243.33 395.4L243.37 395.38C248.13 392.76 294.53 372.98 304.02 367.9C304.02 367.9 304.02 367.9 304.03 367.9C305.12 367.32 305.83 365.99 305.9 364.07ZM223.85 420.81C215.55 425.6 204.36 428.24 192.36 428.24C180.36 428.24 169.17 425.6 160.87 420.81C153.74 416.69 149.81 411.62 149.81 406.54C149.81 401.45 153.74 396.38 160.87 392.27C169.17 387.48 180.36 384.84 192.36 384.84C204.36 384.84 215.55 387.48 223.85 392.27C230.98 396.39 234.91 401.46 234.91 406.54C234.91 411.62 230.98 416.69 223.85 420.81Z" fill="#E0E0E0"/>
<path d="M312.98 246.6L265.91 219.37C263.52 217.99 259.64 217.99 257.25 219.37L18.1699 357.41C15.7799 358.79 15.7799 361.03 18.1699 362.41L65.2399 389.64C67.6299 391.02 71.5099 391.02 73.8999 389.64L163.5 337.91L177.27 345.92C184.56 350.13 196.39 350.13 203.68 345.92L244.74 322.39C252.03 318.18 252.03 311.36 244.74 307.15L230.98 299.15L312.99 251.61C315.38 250.22 315.38 247.98 312.98 246.6Z" fill="#E0E0E0"/>
<path d="M424.58 330.02C442.6 340.43 442.6 357.3 424.58 367.7C406.56 378.11 377.33 378.11 359.31 367.7C341.29 357.29 341.29 340.42 359.31 330.02C377.33 319.62 406.55 319.61 424.58 330.02Z" fill="#E0E0E0"/>
<path d="M418.16 318.77C418.17 312.52 416.92 301.01 422.21 290.21C426.04 282.39 432.9 274.78 439.27 275.54C445.21 276.24 445.75 285.37 440.07 291.62C434.39 297.87 427.16 306.51 425.59 320.33L421.5 330.58L418.16 318.77Z" fill="#27DEBF"/>
<g opacity="0.2">
<path opacity="0.2" d="M418.16 318.77C418.17 312.52 416.92 301.01 422.21 290.21C426.04 282.39 432.9 274.78 439.27 275.54C445.21 276.24 445.75 285.37 440.07 291.62C434.39 297.87 427.16 306.51 425.59 320.33L421.5 330.58L418.16 318.77Z" fill="black"/>
</g>
<path d="M420.29 323.16C420.5 323.12 420.66 322.93 420.65 322.72C419.93 304.96 425.71 290.21 437.37 280.08C437.55 279.92 437.57 279.65 437.41 279.47C437.25 279.29 436.98 279.27 436.8 279.43C424.94 289.74 419.05 304.73 419.78 322.76C419.79 323 419.99 323.19 420.23 323.18C420.25 323.16 420.27 323.16 420.29 323.16Z" fill="white"/>
<path d="M417.03 341.1C417.03 341.1 421.33 344 428.02 344.16C434.7 344.32 437.17 340.8 437.17 340.8C437.17 340.8 433.77 335.01 429.82 333.78C429.82 333.78 436.29 334.22 441.8 336.92C441.8 336.92 445.8 336.44 446.58 330.13C446.58 330.13 443.72 326.78 435.51 325.86C435.51 325.86 440.18 324 447.39 324.84C447.94 324.98 449.11 316.79 449.3 313.06C449.49 309.33 448.03 309.56 445.09 309.19C442.15 308.82 432.43 309.63 430.86 311.43C429.29 313.23 429.11 318.68 429.11 318.68C429.11 318.68 427.01 315.89 427.05 313.14C427.05 313.14 424.07 312.56 421.03 314.09C417.99 315.63 417.02 316.86 416.86 319.19C416.71 321.52 416.51 325.01 417.45 327.72C417.45 327.72 414.68 323.26 414.82 319.37C414.82 319.37 413.3 321.88 411.99 325.28C410.69 328.7 412.24 336.93 417.03 341.1Z" fill="#27DEBF"/>
<path d="M417.14 341.52C417.28 341.48 417.39 341.38 417.44 341.24C421.24 329.57 439.15 314.21 445.99 311.9C446.22 311.82 446.34 311.58 446.26 311.35C446.18 311.12 445.95 310.99 445.71 311.08C438.74 313.43 420.49 329.09 416.61 340.97C416.54 341.2 416.66 341.44 416.89 341.52C416.98 341.54 417.06 341.54 417.14 341.52Z" fill="white"/>
<path d="M203.68 341.95L239.05 321.5C242.7 319.39 244.52 316.64 244.52 313.88C244.52 311.12 244.53 308.96 244.53 308.96L211.24 290.07C209.3 288.95 207.72 286.22 207.72 283.97V240.36L145.93 276.06V319.67C145.93 321.92 147.51 324.65 149.45 325.77L177.26 341.96C184.56 346.16 196.39 346.16 203.68 341.95Z" fill="#37474F"/>
<path d="M160.78 327.38V332.28L149.46 325.75C147.53 324.63 145.94 321.91 145.94 319.65V276.04L157.71 269.25C157.95 272.24 158.22 275.33 158.46 278.34L150.21 283.12V317.19C150.21 319.45 151.78 322.17 153.73 323.29L160.78 327.38Z" fill="#263238"/>
<path d="M150.21 317.21C150.21 319.46 151.79 322.19 153.73 323.31L177.27 337.03C184.56 341.24 196.39 341.24 203.68 337.03L239.07 316.58C246.36 312.37 246.36 305.55 239.07 301.34L215.51 287.61C213.56 286.49 211.99 283.76 211.99 281.51V247.43L150.2 283.13V317.21H150.21Z" fill="#455A64"/>
<path opacity="0.15" d="M222.69 291.75L215.52 287.6C213.57 286.48 212 283.75 212 281.5V247.42L150.21 283.12V317.2C150.21 319.45 151.79 322.18 153.73 323.3L160.78 327.37L222.69 291.75Z" fill="black"/>
<path d="M244.53 308.95C244.53 308.95 244.53 311.1 244.53 313.87C244.53 316.63 242.7 319.38 239.06 321.49L203.68 341.93C200.18 343.96 195.65 344.98 191.08 345.06V340.16C195.65 340.1 200.19 339.04 203.68 337.03L239.06 316.57C242.7 314.48 244.53 311.72 244.53 308.95Z" fill="#37474F"/>
<path d="M51 364.26C53.28 365.58 57.1 365.51 59.53 364.1C89.91 346.56 268.11 243.68 298.48 226.15C300.91 224.75 302.88 221.33 302.88 218.53V9.37C302.88 6.56 301.03 3.22 298.75 1.9C296.47 0.580003 292.65 0.650003 290.22 2.06L51.27 140.02C48.84 141.42 46.87 144.84 46.87 147.64V356.79C46.87 359.6 48.72 362.94 51 364.26Z" fill="#455A64"/>
<path d="M59.53 364.09L298.48 226.14C300.91 224.74 302.88 221.32 302.88 218.52V9.37C302.88 6.56 300.91 5.43 298.48 6.83L59.53 144.78C57.1 146.18 55.13 149.6 55.13 152.4V361.55C55.13 364.36 57.1 365.5 59.53 364.09Z" fill="#37474F"/>
<path d="M63.39 333.92V155.14C63.39 153.46 64.57 151.41 66.03 150.57L291.98 20.12C293.44 19.28 294.62 19.96 294.62 21.65L294.63 200.43C294.63 202.11 293.45 204.16 291.99 205L66.03 335.45C64.57 336.29 63.39 335.61 63.39 333.92Z" fill="#27DEBF"/>
<path opacity="0.7" d="M63.39 333.92V155.14C63.39 153.46 64.57 151.41 66.03 150.57L291.98 20.12C293.44 19.28 294.62 19.96 294.62 21.65L294.63 200.43C294.63 202.11 293.45 204.16 291.99 205L66.03 335.45C64.57 336.29 63.39 335.61 63.39 333.92Z" fill="white"/>
<path d="M178.55 286.65C178.07 286.65 177.62 286.54 177.23 286.31C176.29 285.77 175.77 284.66 175.77 283.2C175.77 280.36 177.69 277.03 180.15 275.61C181.42 274.88 182.63 274.78 183.57 275.32C184.51 275.86 185.03 276.97 185.03 278.43C185.03 281.27 183.11 284.6 180.65 286.02C179.92 286.44 179.21 286.65 178.55 286.65ZM182.24 275.98C181.76 275.98 181.22 276.15 180.65 276.48C178.51 277.71 176.77 280.73 176.77 283.2C176.77 284.29 177.11 285.08 177.73 285.44C178.35 285.8 179.21 285.69 180.15 285.15C182.29 283.91 184.03 280.9 184.03 278.43C184.03 277.34 183.69 276.55 183.07 276.19C182.83 276.05 182.55 275.98 182.24 275.98Z" fill="#27DEBF"/>
<path d="M333.87 53.76L101.16 187.96V359.47C101.16 361.75 103.63 363.19 105.61 362.05L109.76 359.65L329.53 232.93C331.92 231.55 333.87 228.19 333.87 225.42V53.76Z" fill="#F0F0F0"/>
<path d="M332.87 55.49V225.42C332.87 227.82 331.11 230.86 329.03 232.07L109.25 358.79L105.1 361.18C104.79 361.36 104.47 361.45 104.13 361.45C103.63 361.45 103.12 361.25 102.75 360.89C102.36 360.52 102.15 360.02 102.15 359.47V188.53L332.87 55.49ZM333.87 53.76L101.16 187.96V359.47C101.16 361.2 102.58 362.45 104.14 362.45C104.63 362.45 105.14 362.32 105.61 362.05L109.76 359.65L329.53 232.93C331.92 231.55 333.87 228.19 333.87 225.42V53.76Z" fill="#E0E0E0"/>
<path opacity="0.8" d="M328.35 50.58L95.62 184.76L101.16 187.96L333.87 53.76L328.35 50.58Z" fill="#455A64"/>
<path d="M102.72 362.09C102.72 362.09 101.16 361.33 101.16 359.47V192.9C101.16 191.53 101.16 187.96 101.16 187.96L95.63 184.76L95.62 355.33C95.62 355.54 95.63 355.75 95.66 355.96C95.86 357.37 96.69 358.62 97.92 359.32L102.49 361.96L102.72 362.09Z" fill="#EBEBEB"/>
<path d="M95.62 184.84V173.27C95.62 171.89 96.59 170.21 97.78 169.51L326.19 37.83C327.38 37.13 329.32 37.13 330.51 37.82L331.7 38.51C332.9 39.2 333.87 40.88 333.87 42.26V53.85L101.16 188.03L95.62 184.84Z" fill="#27DEBF"/>
<path opacity="0.3" d="M95.62 184.84V173.27C95.62 171.89 96.59 170.21 97.78 169.51L326.19 37.83C327.38 37.13 329.32 37.13 330.51 37.82L331.7 38.51C332.9 39.2 333.87 40.88 333.87 42.26V53.85L101.16 188.03L95.62 184.84Z" fill="black"/>
<path d="M101.16 176.46C101.16 175.08 102.13 173.4 103.32 172.7L331.71 41.02C332.9 40.32 333.87 40.88 333.87 42.26V53.85L101.16 188.03V176.46Z" fill="#27DEBF"/>
<path opacity="0.4" d="M101.16 176.46C101.16 175.08 102.13 173.4 103.32 172.7L331.71 41.02C332.9 40.32 333.87 40.88 333.87 42.26V53.85L101.16 188.03V176.46Z" fill="black"/>
<path d="M101.79 174.32C101.4 175 101.16 175.77 101.16 176.46V188.03L95.63 184.84V173.26C95.63 172.57 95.87 171.81 96.26 171.13L101.79 174.32Z" fill="#27DEBF"/>
<path opacity="0.5" d="M101.79 174.32C101.4 175 101.16 175.77 101.16 176.46V188.03L95.63 184.84V173.26C95.63 172.57 95.87 171.81 96.26 171.13L101.79 174.32Z" fill="black"/>
<path d="M323.71 53.33C323.71 54.62 324.62 55.15 325.74 54.5C326.86 53.85 327.77 52.28 327.77 50.98C327.77 49.68 326.86 49.16 325.74 49.81C324.62 50.46 323.71 52.03 323.71 53.33Z" fill="#FAFAFA"/>
<path d="M315.59 58.02C315.59 59.31 316.5 59.84 317.62 59.19C318.74 58.54 319.65 56.97 319.65 55.67C319.65 54.37 318.74 53.85 317.62 54.5C316.5 55.15 315.59 56.72 315.59 58.02Z" fill="#FAFAFA"/>
<path d="M307.46 62.71C307.46 64 308.37 64.53 309.49 63.88C310.61 63.23 311.52 61.66 311.52 60.36C311.52 59.06 310.61 58.54 309.49 59.19C308.37 59.84 307.46 61.41 307.46 62.71Z" fill="#FAFAFA"/>
<path d="M101.16 188.04V359.48C101.16 361.76 103.63 363.2 105.61 362.06L109.76 359.66L160.61 330.34V153.75L101.16 188.04Z" fill="#FAFAFA"/>
<path d="M164.67 156.65V323.16L328.99 228.29V61.78L164.67 156.65Z" fill="#FAFAFA"/>
<path d="M147 173.87L109.07 195.79C108.37 196.2 107.8 197.18 107.8 197.99V201.94C107.8 202.75 108.37 203.08 109.07 202.67L147 180.75C147.7 180.34 148.27 179.36 148.27 178.55V174.6C148.27 173.79 147.7 173.47 147 173.87Z" fill="#27DEBF"/>
<path opacity="0.8" d="M147 173.87L109.07 195.79C108.37 196.2 107.8 197.18 107.8 197.99V201.94C107.8 202.75 108.37 203.08 109.07 202.67L147 180.75C147.7 180.34 148.27 179.36 148.27 178.55V174.6C148.27 173.79 147.7 173.47 147 173.87Z" fill="#FAFAFA"/>
<path d="M155.44 175.44L154.32 174.36C154.54 173.8 154.68 173.18 154.68 172.57C154.68 171.66 154.37 170.96 153.84 170.65C153.44 170.42 152.95 170.44 152.48 170.71C151.49 171.28 150.72 172.87 150.72 174.34C150.72 175.25 151.03 175.95 151.56 176.26C151.75 176.37 151.95 176.42 152.16 176.42C152.41 176.42 152.67 176.35 152.92 176.2C153.29 175.99 153.63 175.63 153.91 175.18L154.83 176.06C154.91 176.14 155.02 176.18 155.13 176.18C155.25 176.18 155.36 176.13 155.45 176.05C155.63 175.89 155.62 175.61 155.44 175.44ZM152.49 175.45C152.3 175.56 152.13 175.58 152.01 175.51C151.83 175.4 151.61 175.04 151.61 174.35C151.61 173.21 152.21 171.89 152.93 171.48C153.05 171.41 153.15 171.38 153.25 171.38C153.31 171.38 153.36 171.39 153.41 171.42C153.59 171.53 153.81 171.89 153.81 172.58C153.8 173.72 153.2 175.03 152.49 175.45Z" fill="#455A64"/>
<path d="M108.73 214.26L107.88 214.75C107.83 214.78 107.79 214.75 107.79 214.68V212.38C107.79 212.31 107.83 212.24 107.88 212.21L108.73 211.72C108.78 211.69 108.82 211.72 108.82 211.79V214.09C108.82 214.15 108.78 214.23 108.73 214.26Z" fill="#455A64"/>
<path d="M110 213.52L109.15 214.01C109.1 214.04 109.06 214.01 109.06 213.94V211.64C109.06 211.57 109.1 211.5 109.15 211.47L110 210.98C110.05 210.95 110.09 210.98 110.09 211.05V213.35C110.09 213.41 110.05 213.49 110 213.52Z" fill="#455A64"/>
<path d="M111.28 212.79L110.43 213.28C110.38 213.31 110.34 213.28 110.34 213.21V210.91C110.34 210.84 110.38 210.77 110.43 210.74L111.28 210.25C111.33 210.22 111.37 210.25 111.37 210.32V212.62C111.37 212.68 111.33 212.76 111.28 212.79Z" fill="#455A64"/>
<path d="M108.73 217.23L107.88 217.72C107.83 217.75 107.79 217.72 107.79 217.65V215.35C107.79 215.28 107.83 215.21 107.88 215.18L108.73 214.69C108.78 214.66 108.82 214.69 108.82 214.76V217.06C108.82 217.12 108.78 217.2 108.73 217.23Z" fill="#455A64"/>
<path d="M110 216.49L109.15 216.98C109.1 217.01 109.06 216.98 109.06 216.91V214.61C109.06 214.54 109.1 214.47 109.15 214.44L110 213.95C110.05 213.92 110.09 213.95 110.09 214.02V216.32C110.09 216.38 110.05 216.46 110 216.49Z" fill="#455A64"/>
<path d="M111.28 215.75L110.43 216.24C110.38 216.27 110.34 216.24 110.34 216.17V213.87C110.34 213.8 110.38 213.73 110.43 213.7L111.28 213.21C111.33 213.18 111.37 213.21 111.37 213.28V215.58C111.37 215.65 111.33 215.73 111.28 215.75Z" fill="#455A64"/>
<path d="M108.86 225.07L107.81 224.43C107.77 224.41 107.77 224.31 107.81 224.24L108.86 222.39C108.91 222.3 108.98 222.31 108.98 222.41V224.89C108.99 225.01 108.91 225.1 108.86 225.07Z" fill="#455A64"/>
<path d="M108.42 223.66L109.8 222.86V223.52L108.42 224.32C108.3 224.39 108.21 224.3 108.21 224.12C108.21 223.94 108.31 223.73 108.42 223.66Z" fill="#455A64"/>
<path d="M110.06 222.72L110.53 222.45V223.1L110.06 223.37V222.72Z" fill="#455A64"/>
<path d="M111.8 222.04V224.45C111.8 224.63 111.7 224.83 111.59 224.9C111.47 224.97 111.38 224.88 111.38 224.69V222.61L110.8 222.95V222.29L111.6 221.83C111.7 221.77 111.8 221.86 111.8 222.04Z" fill="#455A64"/>
<path d="M109.27 230.48C108.29 231.15 107.63 233.01 107.82 234.38C107.99 235.64 108.74 235.59 108.82 236.17C108.83 236.23 108.87 236.26 108.92 236.23L109.85 235.7C109.9 235.67 109.94 235.6 109.95 235.53C110.05 234.76 111 233.83 111.01 231.97C111 230.53 110.21 229.83 109.27 230.48Z" fill="#455A64"/>
<path d="M109.83 237.2L108.93 237.72C108.87 237.76 108.82 237.72 108.82 237.64V236.81C108.82 236.73 108.87 236.63 108.93 236.6L109.83 236.08C109.89 236.04 109.94 236.08 109.94 236.16V236.99C109.94 237.07 109.89 237.16 109.83 237.2Z" fill="#455A64"/>
<path d="M109.49 211.02C108.66 211.7 107.99 213.12 107.86 214.47C107.78 215.26 107.88 215.9 108.1 216.36L107.8 217.93C107.78 218.06 107.85 218.13 107.92 218.05L108.83 217.06C109.21 217.18 109.66 217.07 110.15 216.67C110.98 215.98 111.65 214.57 111.78 213.21C111.98 211.02 110.84 209.92 109.49 211.02ZM109.81 216.18C108.98 216.66 108.3 216.01 108.3 214.72C108.3 213.44 108.98 212 109.81 211.52C110.64 211.04 111.32 211.69 111.32 212.98C111.33 214.26 110.65 215.7 109.81 216.18Z" fill="#455A64"/>
<path d="M109.49 241.37C108.66 242.05 107.99 243.47 107.86 244.82C107.78 245.61 107.88 246.25 108.1 246.71L107.8 248.28C107.78 248.41 107.85 248.48 107.92 248.4L108.83 247.41C109.21 247.53 109.66 247.42 110.15 247.02C110.98 246.33 111.65 244.92 111.78 243.56C111.98 241.37 110.84 240.26 109.49 241.37ZM109.81 246.53C108.98 247.01 108.3 246.36 108.3 245.07C108.3 243.79 108.98 242.35 109.81 241.87C110.64 241.39 111.32 242.04 111.32 243.33C111.33 244.61 110.65 246.05 109.81 246.53Z" fill="#455A64"/>
<path d="M110.77 252.49C110.77 253.17 110.41 253.93 109.97 254.18C109.53 254.43 109.17 254.09 109.17 253.41C109.17 252.73 109.53 251.97 109.97 251.72C110.41 251.47 110.77 251.81 110.77 252.49Z" fill="#455A64"/>
<path d="M112.14 252.73C112.14 253.18 111.9 253.69 111.61 253.86C111.32 254.03 111.08 253.8 111.08 253.35C111.08 252.9 111.32 252.39 111.61 252.22C111.9 252.05 112.14 252.28 112.14 252.73Z" fill="#455A64"/>
<path d="M110.91 257.34L109.02 258.43V256.04C109.02 255.54 109.33 254.95 109.7 254.74L110.22 254.44C110.6 254.22 110.9 254.45 110.9 254.96V257.34H110.91Z" fill="#455A64"/>
<path d="M111.69 254.14L111.17 254.44V257.19L112.15 256.62V254.48C112.15 254.15 111.94 253.99 111.69 254.14Z" fill="#455A64"/>
<path d="M107.8 255.24C107.8 255.69 108.04 255.92 108.33 255.75C108.62 255.58 108.86 255.08 108.86 254.62C108.86 254.16 108.62 253.94 108.33 254.11C108.04 254.28 107.8 254.79 107.8 255.24Z" fill="#455A64"/>
<path d="M108.25 256.12L108.77 255.82V258.57L107.79 259.13V257C107.79 256.66 107.99 256.27 108.25 256.12Z" fill="#455A64"/>
<path d="M117.01 208.86L139.22 196.04C139.82 195.69 140.3 195.94 140.3 196.59C140.3 197.24 139.82 198.04 139.22 198.39L117.01 211.21C116.41 211.56 115.93 211.31 115.93 210.66C115.93 210.01 116.41 209.21 117.01 208.86Z" fill="#E0E0E0"/>
<path d="M117.01 219.31L139.22 206.49C139.82 206.14 140.3 206.39 140.3 207.04C140.3 207.69 139.82 208.49 139.22 208.84L117.01 221.66C116.41 222.01 115.93 221.76 115.93 221.11C115.93 220.46 116.41 219.66 117.01 219.31Z" fill="#E0E0E0"/>
<path d="M117.01 229.77L139.22 216.95C139.82 216.61 140.3 216.85 140.3 217.5C140.3 218.15 139.82 218.95 139.22 219.3L117.01 232.12C116.41 232.47 115.93 232.22 115.93 231.57C115.93 230.92 116.41 230.11 117.01 229.77Z" fill="#E0E0E0"/>
<path d="M117.01 240.22L139.22 227.4C139.82 227.05 140.3 227.3 140.3 227.95C140.3 228.6 139.82 229.4 139.22 229.75L117.01 242.57C116.41 242.92 115.93 242.67 115.93 242.02C115.93 241.37 116.41 240.56 117.01 240.22Z" fill="#E0E0E0"/>
<path d="M117.01 250.67L139.22 237.85C139.82 237.5 140.3 237.75 140.3 238.4C140.3 239.05 139.82 239.85 139.22 240.2L117.01 253.02C116.41 253.37 115.93 253.12 115.93 252.47C115.93 251.82 116.41 251.02 117.01 250.67Z" fill="#E0E0E0"/>
<path d="M121.07 259.21L143.28 246.39C143.88 246.04 144.36 246.29 144.36 246.94C144.36 247.59 143.88 248.39 143.28 248.74L121.07 261.56C120.47 261.91 119.99 261.66 119.99 261.01C119.99 260.36 120.47 259.55 121.07 259.21Z" fill="#455A64"/>
<path d="M121.07 266.27L143.28 253.45C143.88 253.1 144.36 253.35 144.36 254C144.36 254.65 143.88 255.45 143.28 255.8L121.07 268.62C120.47 268.96 119.99 268.72 119.99 268.07C119.99 267.42 120.47 266.61 121.07 266.27Z" fill="#E0E0E0"/>
<path d="M121.07 273.33L143.28 260.51C143.88 260.17 144.36 260.41 144.36 261.06C144.36 261.71 143.88 262.51 143.28 262.86L121.07 275.68C120.47 276.03 119.99 275.78 119.99 275.13C119.99 274.48 120.47 273.67 121.07 273.33Z" fill="#E0E0E0"/>
<path d="M125.39 277.82L147.6 265C148.2 264.65 148.68 264.9 148.68 265.55C148.68 266.2 148.2 267 147.6 267.35L125.39 280.17C124.79 280.52 124.31 280.27 124.31 279.62C124.31 278.97 124.8 278.16 125.39 277.82Z" fill="#E0E0E0"/>
<path d="M120.2 283.89L122 280.71C122.07 280.59 122.07 280.43 122 280.39L120.2 279.29C120.11 279.24 119.99 279.41 119.99 279.57V283.85C119.99 284.02 120.12 284.05 120.2 283.89Z" fill="#455A64"/>
<path d="M125.39 284.85L147.6 272.03C148.2 271.68 148.68 271.93 148.68 272.58C148.68 273.23 148.2 274.03 147.6 274.38L125.39 287.2C124.79 287.54 124.31 287.3 124.31 286.65C124.31 286 124.8 285.2 125.39 284.85Z" fill="#E0E0E0"/>
<path d="M120.2 290.93L122 287.75C122.07 287.63 122.07 287.47 122 287.43L120.2 286.33C120.11 286.28 119.99 286.45 119.99 286.61V290.89C119.99 291.06 120.12 291.08 120.2 290.93Z" fill="#455A64"/>
<path d="M125.39 291.89L147.6 279.07C148.2 278.72 148.68 278.97 148.68 279.62C148.68 280.27 148.2 281.07 147.6 281.42L125.39 294.24C124.79 294.59 124.31 294.34 124.31 293.69C124.31 293.04 124.8 292.24 125.39 291.89Z" fill="#E0E0E0"/>
<path d="M120.2 297.97L122 294.79C122.07 294.67 122.07 294.51 122 294.47L120.2 293.37C120.11 293.32 119.99 293.49 119.99 293.66V297.94C119.99 298.1 120.12 298.12 120.2 297.97Z" fill="#455A64"/>
<path d="M125.39 298.93L147.6 286.11C148.2 285.76 148.68 286.01 148.68 286.66C148.68 287.31 148.2 288.11 147.6 288.46L125.39 301.28C124.79 301.63 124.31 301.38 124.31 300.73C124.31 300.08 124.8 299.27 125.39 298.93Z" fill="#E0E0E0"/>
<path d="M120.2 305L122 301.82C122.07 301.7 122.07 301.54 122 301.5L120.2 300.4C120.11 300.35 119.99 300.52 119.99 300.68V304.96C119.99 305.13 120.12 305.16 120.2 305Z" fill="#455A64"/>
<path d="M125.39 305.96L147.6 293.14C148.2 292.8 148.68 293.04 148.68 293.69C148.68 294.34 148.2 295.14 147.6 295.49L125.39 308.31C124.79 308.66 124.31 308.41 124.31 307.76C124.31 307.11 124.8 306.31 125.39 305.96Z" fill="#E0E0E0"/>
<path d="M120.2 312.04L122 308.86C122.07 308.74 122.07 308.58 122 308.54L120.2 307.44C120.11 307.39 119.99 307.56 119.99 307.72V312C119.99 312.17 120.12 312.19 120.2 312.04Z" fill="#455A64"/>
<path d="M125.39 313L147.6 300.18C148.2 299.83 148.68 300.08 148.68 300.73C148.68 301.38 148.2 302.18 147.6 302.53L125.39 315.35C124.79 315.7 124.31 315.45 124.31 314.8C124.31 314.15 124.8 313.35 125.39 313Z" fill="#E0E0E0"/>
<path d="M120.2 319.08L122 315.9C122.07 315.78 122.07 315.62 122 315.58L120.2 314.48C120.11 314.43 119.99 314.6 119.99 314.76V319.04C119.99 319.21 120.12 319.23 120.2 319.08Z" fill="#455A64"/>
<path d="M125.39 320.04L147.6 307.22C148.2 306.87 148.68 307.12 148.68 307.77C148.68 308.42 148.2 309.22 147.6 309.57L125.39 322.39C124.79 322.74 124.31 322.49 124.31 321.84C124.31 321.19 124.8 320.38 125.39 320.04Z" fill="#E0E0E0"/>
<path d="M120.2 326.11L122 322.93C122.07 322.81 122.07 322.65 122 322.61L120.2 321.51C120.11 321.46 119.99 321.63 119.99 321.8V326.08C119.99 326.24 120.12 326.27 120.2 326.11Z" fill="#455A64"/>
<path d="M125.39 327.07L147.6 314.25C148.2 313.91 148.68 314.15 148.68 314.8C148.68 315.45 148.2 316.25 147.6 316.6L125.39 329.42C124.79 329.77 124.31 329.52 124.31 328.87C124.31 328.22 124.8 327.42 125.39 327.07Z" fill="#E0E0E0"/>
<path d="M120.2 333.15L122 329.97C122.07 329.85 122.07 329.69 122 329.65L120.2 328.55C120.11 328.5 119.99 328.67 119.99 328.83V333.11C119.99 333.28 120.12 333.3 120.2 333.15Z" fill="#455A64"/>
<path d="M169.82 179.48L242.81 137.34C243.41 136.99 243.89 136.15 243.89 135.46V116.85C243.89 116.16 243.41 115.88 242.81 116.22L169.82 158.35C169.22 158.7 168.74 159.53 168.74 160.23V178.85C168.73 179.55 169.22 179.83 169.82 179.48Z" fill="#F0F0F0"/>
<path d="M176.18 166.35C176.18 166.34 176.18 166.33 176.19 166.31L176.67 164.31L176.01 164.69C175.99 164.7 175.98 164.7 175.97 164.69C175.96 164.68 175.95 164.66 175.95 164.63V164.27C175.95 164.24 175.96 164.22 175.97 164.19C175.98 164.16 176 164.15 176.01 164.14L177.07 163.53C177.09 163.52 177.1 163.52 177.11 163.53C177.12 163.54 177.13 163.56 177.13 163.59V163.91C177.13 163.95 177.12 164.01 177.09 164.1L176.61 166.1C176.6 166.12 176.6 166.15 176.59 166.17C176.58 166.19 176.57 166.21 176.55 166.22L176.24 166.4C176.23 166.41 176.21 166.41 176.2 166.4C176.19 166.39 176.18 166.37 176.18 166.35Z" fill="#455A64"/>
<path d="M177.95 162.99C178.06 162.93 178.16 162.9 178.24 162.9C178.32 162.9 178.39 162.93 178.44 162.99C178.49 163.04 178.53 163.12 178.56 163.22C178.59 163.32 178.6 163.43 178.6 163.55C178.6 163.65 178.6 163.75 178.6 163.86C178.6 163.97 178.6 164.07 178.6 164.16C178.6 164.29 178.58 164.41 178.56 164.54C178.53 164.67 178.49 164.79 178.44 164.9C178.39 165.01 178.32 165.12 178.24 165.22C178.16 165.32 178.06 165.4 177.95 165.46C177.84 165.52 177.74 165.55 177.66 165.55C177.58 165.55 177.51 165.52 177.46 165.46C177.41 165.41 177.37 165.33 177.34 165.23C177.31 165.13 177.3 165.02 177.29 164.9C177.29 164.81 177.29 164.71 177.29 164.6C177.29 164.49 177.29 164.39 177.29 164.29C177.29 164.16 177.31 164.04 177.34 163.91C177.37 163.78 177.4 163.66 177.46 163.55C177.51 163.44 177.58 163.33 177.66 163.23C177.75 163.13 177.84 163.05 177.95 162.99ZM178.19 164.37C178.2 164.17 178.2 163.98 178.19 163.8C178.19 163.74 178.18 163.7 178.17 163.65C178.16 163.61 178.15 163.57 178.13 163.55C178.11 163.53 178.09 163.51 178.06 163.51C178.03 163.51 177.99 163.52 177.95 163.54C177.91 163.57 177.87 163.6 177.84 163.63C177.81 163.67 177.79 163.71 177.77 163.76C177.75 163.81 177.74 163.85 177.73 163.91C177.72 163.96 177.72 164.02 177.72 164.08C177.71 164.27 177.71 164.46 177.72 164.65C177.72 164.71 177.73 164.76 177.73 164.8C177.74 164.84 177.75 164.88 177.77 164.9C177.79 164.92 177.81 164.94 177.84 164.94C177.87 164.94 177.91 164.93 177.95 164.91C177.99 164.88 178.03 164.85 178.06 164.82C178.09 164.78 178.11 164.74 178.13 164.69C178.15 164.64 178.16 164.59 178.17 164.54C178.18 164.48 178.19 164.42 178.19 164.37Z" fill="#455A64"/>
<path d="M179.49 162.6C179.49 162.69 179.49 162.78 179.49 162.86C179.49 162.93 179.48 163 179.46 163.06C179.44 163.12 179.42 163.19 179.4 163.25C179.37 163.31 179.33 163.37 179.29 163.42C179.25 163.47 179.2 163.51 179.14 163.55C179.08 163.59 179.03 163.6 178.99 163.6C178.95 163.6 178.91 163.58 178.88 163.56C178.85 163.53 178.83 163.49 178.82 163.44C178.8 163.39 178.8 163.33 178.79 163.27C178.79 163.23 178.79 163.19 178.79 163.14C178.79 163.1 178.79 163.06 178.79 163.01C178.79 162.94 178.8 162.87 178.82 162.8C178.83 162.73 178.86 162.67 178.88 162.61C178.91 162.55 178.94 162.49 178.99 162.44C179.03 162.39 179.08 162.35 179.14 162.32C179.2 162.29 179.25 162.27 179.29 162.27C179.33 162.27 179.37 162.28 179.4 162.31C179.43 162.34 179.45 162.38 179.47 162.43C179.48 162.48 179.48 162.53 179.49 162.6ZM180.04 161.88C180.05 161.85 180.06 161.83 180.07 161.81C180.08 161.79 180.1 161.78 180.12 161.77L180.3 161.67C180.32 161.66 180.33 161.66 180.34 161.67C180.35 161.68 180.35 161.69 180.35 161.71C180.35 161.71 180.35 161.72 180.35 161.73C180.35 161.74 180.35 161.75 180.34 161.75L179.24 164.6C179.23 164.63 179.22 164.65 179.21 164.67C179.2 164.69 179.18 164.7 179.16 164.71L178.98 164.81C178.96 164.82 178.95 164.82 178.94 164.81C178.93 164.8 178.93 164.79 178.93 164.77C178.93 164.77 178.93 164.76 178.93 164.75C178.93 164.74 178.93 164.73 178.94 164.73L180.04 161.88ZM179.05 163.1C179.05 163.16 179.06 163.2 179.07 163.22C179.08 163.24 179.11 163.24 179.14 163.23C179.17 163.21 179.2 163.18 179.21 163.15C179.22 163.11 179.23 163.06 179.23 163C179.23 162.92 179.23 162.85 179.23 162.77C179.23 162.71 179.22 162.67 179.21 162.65C179.2 162.63 179.18 162.63 179.14 162.65C179.11 162.67 179.09 162.7 179.07 162.73C179.06 162.77 179.05 162.82 179.05 162.88C179.04 162.95 179.04 163.03 179.05 163.1ZM180.52 163.2C180.52 163.29 180.52 163.37 180.52 163.46C180.52 163.53 180.51 163.6 180.49 163.66C180.48 163.73 180.45 163.79 180.43 163.85C180.4 163.91 180.37 163.97 180.32 164.02C180.28 164.07 180.23 164.11 180.17 164.14C180.11 164.17 180.06 164.19 180.02 164.19C179.98 164.19 179.94 164.18 179.91 164.15C179.88 164.12 179.86 164.08 179.85 164.03C179.84 163.98 179.83 163.92 179.82 163.86C179.82 163.82 179.82 163.77 179.82 163.73C179.82 163.69 179.82 163.65 179.82 163.59C179.82 163.52 179.83 163.45 179.85 163.39C179.87 163.32 179.89 163.26 179.91 163.2C179.94 163.14 179.97 163.08 180.02 163.03C180.07 162.98 180.11 162.94 180.17 162.9C180.23 162.87 180.28 162.85 180.32 162.85C180.36 162.85 180.4 162.86 180.43 162.89C180.46 162.92 180.48 162.96 180.49 163.01C180.5 163.08 180.51 163.14 180.52 163.2ZM180.08 163.7C180.08 163.76 180.09 163.8 180.1 163.82C180.11 163.84 180.13 163.84 180.17 163.82C180.2 163.8 180.22 163.77 180.24 163.74C180.25 163.7 180.26 163.65 180.26 163.59C180.26 163.51 180.26 163.44 180.26 163.36C180.26 163.3 180.25 163.26 180.24 163.24C180.23 163.22 180.2 163.22 180.17 163.23C180.14 163.25 180.11 163.28 180.1 163.31C180.09 163.35 180.08 163.4 180.08 163.46C180.07 163.55 180.07 163.63 180.08 163.7Z" fill="#455A64"/>
<path d="M176.17 160.62L175.44 159.49C174.64 160.86 174.02 162.49 173.71 164.16L174.89 164.07C175.12 162.83 175.58 161.63 176.17 160.62Z" fill="#455A64"/>
<path d="M178.24 158.38V156.46C177.19 157.06 176.23 158.14 175.44 159.48L176.17 160.61C176.75 159.63 177.46 158.83 178.24 158.38Z" fill="#455A64"/>
<path d="M174.72 165.84C174.72 165.26 174.78 164.66 174.89 164.07L173.71 164.16C173.56 164.96 173.48 165.77 173.48 166.56C173.48 167.35 173.56 168.07 173.71 168.69L174.89 167.41C174.78 166.95 174.72 166.42 174.72 165.84Z" fill="#455A64"/>
<path d="M182.77 158.92C182.46 157.61 181.84 156.69 181.04 156.25C180.25 155.82 179.29 155.86 178.24 156.46V158.38C179.01 157.93 179.73 157.91 180.31 158.23C180.9 158.55 181.36 159.23 181.59 160.2C181.7 160.66 181.76 161.19 181.76 161.78C181.76 162.37 181.7 162.96 181.59 163.55C181.36 164.78 180.9 165.99 180.31 167C179.73 167.99 179.02 168.79 178.24 169.23C177.47 169.68 176.75 169.7 176.17 169.38C175.58 169.06 175.12 168.38 174.89 167.41L173.71 168.69C174.02 170 174.64 170.92 175.44 171.36C176.23 171.79 177.19 171.75 178.24 171.15C179.29 170.55 180.25 169.47 181.04 168.13C181.84 166.76 182.46 165.13 182.77 163.46C182.92 162.66 183 161.85 183 161.06C183 160.27 182.92 159.55 182.77 158.92Z" fill="#27DEBF"/>
<path d="M190.13 153.68L212.34 140.86C212.94 140.51 213.42 140.76 213.42 141.41C213.42 142.06 212.94 142.86 212.34 143.21L190.13 156.03C189.53 156.37 189.05 156.13 189.05 155.48C189.04 154.83 189.53 154.02 190.13 153.68Z" fill="#455A64"/>
<path d="M190.13 158.41L228.59 136.21C229.19 135.86 229.67 136.11 229.67 136.76C229.67 137.41 229.19 138.21 228.59 138.56L190.13 160.76C189.53 161.11 189.05 160.86 189.05 160.21C189.04 159.56 189.53 158.75 190.13 158.41Z" fill="#E0E0E0"/>
<path d="M249.02 133.75L322.01 91.61C322.61 91.26 323.09 90.43 323.09 89.73V71.13C323.09 70.44 322.61 70.16 322.01 70.5L249.02 112.63C248.42 112.97 247.94 113.81 247.94 114.51V133.12C247.94 133.81 248.42 134.09 249.02 133.75Z" fill="#F0F0F0"/>
<path d="M255.74 118.91C255.74 118.78 255.76 118.65 255.79 118.52C255.83 118.39 255.87 118.28 255.94 118.17C256 118.06 256.07 117.97 256.15 117.88C256.23 117.8 256.31 117.73 256.39 117.68C256.47 117.63 256.55 117.61 256.63 117.6C256.71 117.59 256.78 117.61 256.84 117.65C256.9 117.69 256.95 117.75 256.99 117.83C257.03 117.91 257.04 118.02 257.04 118.15C257.04 118.22 257.04 118.28 257.02 118.34C257.01 118.4 257 118.46 256.98 118.52C256.97 118.58 256.95 118.63 256.93 118.69C256.91 118.74 256.89 118.8 256.87 118.85L256.45 119.99C256.44 120.01 256.43 120.02 256.43 120.05C256.42 120.07 256.41 120.09 256.39 120.1L256.04 120.3C256.03 120.31 256.02 120.31 256.01 120.3C256 120.29 256 120.27 256 120.25C256 120.24 256 120.23 256 120.22C256 120.21 256 120.2 256.01 120.2L256.29 119.42C256.22 119.45 256.15 119.46 256.08 119.45C256.01 119.44 255.96 119.42 255.91 119.38C255.86 119.34 255.82 119.28 255.79 119.2C255.76 119.12 255.74 119.03 255.74 118.91ZM256.63 118.4C256.63 118.36 256.62 118.32 256.61 118.29C256.6 118.26 256.58 118.24 256.56 118.23C256.54 118.22 256.51 118.21 256.48 118.21C256.45 118.21 256.42 118.22 256.39 118.24C256.36 118.26 256.33 118.28 256.3 118.31C256.27 118.34 256.25 118.38 256.22 118.42C256.2 118.46 256.18 118.5 256.17 118.55C256.16 118.59 256.15 118.64 256.15 118.69C256.15 118.74 256.16 118.77 256.17 118.8C256.18 118.83 256.2 118.85 256.22 118.86C256.24 118.87 256.27 118.88 256.3 118.88C256.33 118.88 256.36 118.87 256.39 118.85C256.42 118.83 256.45 118.81 256.48 118.78C256.51 118.75 256.53 118.71 256.56 118.67C256.58 118.63 256.6 118.59 256.61 118.54C256.63 118.49 256.63 118.44 256.63 118.4Z" fill="#455A64"/>
<path d="M257.88 116.83C257.99 116.77 258.09 116.74 258.17 116.74C258.25 116.74 258.32 116.77 258.37 116.83C258.42 116.88 258.46 116.96 258.49 117.06C258.52 117.16 258.53 117.27 258.53 117.39C258.53 117.49 258.53 117.59 258.53 117.7C258.53 117.81 258.53 117.91 258.53 118C258.52 118.13 258.51 118.25 258.49 118.38C258.46 118.51 258.42 118.63 258.37 118.74C258.32 118.85 258.25 118.96 258.17 119.06C258.09 119.16 257.99 119.24 257.88 119.3C257.77 119.36 257.67 119.39 257.59 119.39C257.51 119.39 257.45 119.36 257.39 119.3C257.34 119.25 257.3 119.17 257.27 119.07C257.24 118.97 257.23 118.86 257.22 118.74C257.22 118.65 257.22 118.55 257.22 118.44C257.22 118.33 257.22 118.23 257.22 118.13C257.23 118 257.24 117.88 257.27 117.75C257.3 117.62 257.34 117.5 257.39 117.39C257.44 117.27 257.51 117.17 257.59 117.07C257.67 116.97 257.77 116.89 257.88 116.83ZM258.11 118.21C258.12 118.01 258.12 117.82 258.11 117.64C258.11 117.58 258.1 117.54 258.09 117.49C258.08 117.45 258.07 117.41 258.05 117.39C258.03 117.36 258.01 117.35 257.98 117.35C257.95 117.35 257.91 117.36 257.87 117.38C257.82 117.41 257.79 117.44 257.76 117.47C257.73 117.5 257.71 117.55 257.69 117.6C257.67 117.65 257.66 117.69 257.65 117.75C257.64 117.8 257.64 117.86 257.64 117.92C257.63 118.11 257.63 118.3 257.64 118.49C257.64 118.55 257.65 118.6 257.65 118.64C257.66 118.68 257.67 118.72 257.69 118.74C257.71 118.76 257.73 118.78 257.76 118.78C257.79 118.78 257.83 118.77 257.87 118.75C257.91 118.72 257.95 118.69 257.98 118.66C258.01 118.62 258.03 118.58 258.05 118.53C258.07 118.48 258.08 118.43 258.09 118.38C258.1 118.33 258.11 118.26 258.11 118.21Z" fill="#455A64"/>
<path d="M259.41 116.44C259.41 116.53 259.41 116.62 259.41 116.7C259.41 116.77 259.4 116.84 259.38 116.9C259.37 116.97 259.34 117.03 259.32 117.09C259.29 117.15 259.25 117.21 259.21 117.26C259.17 117.31 259.12 117.35 259.06 117.38C259 117.41 258.95 117.43 258.91 117.43C258.87 117.43 258.83 117.41 258.8 117.39C258.77 117.36 258.75 117.32 258.74 117.27C258.72 117.22 258.72 117.16 258.71 117.1C258.71 117.06 258.71 117.01 258.71 116.97C258.71 116.93 258.71 116.89 258.71 116.84C258.71 116.77 258.72 116.7 258.74 116.63C258.75 116.56 258.78 116.5 258.8 116.44C258.83 116.38 258.86 116.32 258.91 116.27C258.95 116.22 259 116.18 259.06 116.15C259.12 116.12 259.17 116.1 259.21 116.1C259.25 116.1 259.29 116.11 259.32 116.14C259.35 116.17 259.37 116.21 259.39 116.26C259.4 116.32 259.41 116.38 259.41 116.44ZM259.97 115.72C259.98 115.69 259.99 115.67 260 115.65C260.01 115.63 260.03 115.62 260.05 115.6L260.23 115.5C260.25 115.49 260.26 115.49 260.27 115.5C260.28 115.51 260.28 115.52 260.28 115.54C260.28 115.54 260.28 115.55 260.28 115.56C260.28 115.57 260.28 115.58 260.27 115.58L259.17 118.43C259.16 118.46 259.15 118.48 259.14 118.5C259.13 118.52 259.11 118.53 259.09 118.54L258.91 118.65C258.89 118.66 258.88 118.66 258.87 118.65C258.86 118.64 258.85 118.63 258.85 118.61C258.85 118.61 258.85 118.6 258.85 118.59C258.85 118.58 258.85 118.57 258.86 118.57L259.97 115.72ZM258.97 116.94C258.97 117 258.98 117.04 258.99 117.06C259 117.08 259.03 117.08 259.06 117.07C259.09 117.05 259.11 117.02 259.13 116.99C259.14 116.95 259.15 116.9 259.15 116.84C259.15 116.76 259.15 116.69 259.15 116.61C259.15 116.55 259.14 116.51 259.13 116.49C259.12 116.47 259.1 116.47 259.06 116.48C259.03 116.5 259.01 116.53 258.99 116.56C258.97 116.59 258.97 116.65 258.97 116.71C258.97 116.79 258.97 116.87 258.97 116.94ZM260.44 117.04C260.44 117.13 260.44 117.22 260.44 117.3C260.44 117.37 260.43 117.44 260.41 117.5C260.4 117.57 260.37 117.63 260.35 117.69C260.32 117.75 260.29 117.81 260.24 117.86C260.2 117.91 260.15 117.95 260.09 117.98C260.03 118.01 259.98 118.03 259.94 118.03C259.9 118.03 259.86 118.02 259.83 117.99C259.8 117.96 259.78 117.92 259.77 117.87C259.76 117.82 259.75 117.76 259.74 117.7C259.74 117.66 259.73 117.61 259.73 117.57C259.73 117.53 259.73 117.48 259.74 117.44C259.74 117.37 259.75 117.3 259.77 117.23C259.78 117.16 259.81 117.1 259.83 117.04C259.86 116.98 259.89 116.92 259.94 116.87C259.98 116.82 260.03 116.78 260.09 116.74C260.15 116.71 260.2 116.69 260.24 116.69C260.28 116.69 260.32 116.7 260.35 116.73C260.38 116.76 260.4 116.8 260.41 116.85C260.43 116.92 260.44 116.98 260.44 117.04ZM260 117.54C260 117.6 260.01 117.64 260.02 117.66C260.03 117.68 260.05 117.68 260.09 117.66C260.12 117.64 260.14 117.61 260.16 117.58C260.17 117.54 260.18 117.49 260.18 117.43C260.18 117.35 260.18 117.28 260.18 117.2C260.18 117.14 260.17 117.1 260.16 117.08C260.15 117.06 260.12 117.06 260.09 117.07C260.06 117.09 260.03 117.12 260.02 117.15C260.01 117.19 260 117.24 260 117.3C260 117.39 260 117.47 260 117.54Z" fill="#455A64"/>
<path d="M258.1 112.26V110.34C257.05 110.94 256.09 112.02 255.3 113.36L256.03 114.49C256.61 113.51 257.33 112.71 258.1 112.26Z" fill="#455A64"/>
<path d="M262.63 112.8C262.32 111.49 261.7 110.57 260.9 110.13C260.11 109.7 259.15 109.74 258.1 110.34V112.26C258.87 111.81 259.59 111.79 260.17 112.11C260.76 112.43 261.22 113.11 261.45 114.08C261.56 114.54 261.62 115.07 261.62 115.65C261.62 116.23 261.56 116.83 261.45 117.42C261.22 118.65 260.77 119.85 260.17 120.86C259.59 121.84 258.87 122.65 258.1 123.1C257.33 123.55 256.61 123.57 256.03 123.25C255.44 122.93 254.98 122.25 254.75 121.28C254.64 120.82 254.58 120.29 254.58 119.7C254.58 119.11 254.64 118.52 254.75 117.93C254.98 116.7 255.44 115.49 256.03 114.48L255.3 113.35C254.5 114.72 253.88 116.35 253.57 118.02C253.42 118.82 253.34 119.63 253.34 120.42C253.34 121.21 253.42 121.93 253.57 122.55C253.88 123.86 254.5 124.78 255.3 125.22C256.09 125.65 257.05 125.61 258.1 125.01C259.15 124.41 260.11 123.33 260.9 121.99C261.7 120.62 262.32 118.99 262.63 117.32C262.78 116.52 262.86 115.71 262.86 114.92C262.86 114.13 262.78 113.43 262.63 112.8Z" fill="#27DEBF"/>
<path d="M269.97 107.56L292.18 94.74C292.78 94.39 293.26 94.64 293.26 95.29C293.26 95.94 292.78 96.74 292.18 97.09L269.97 109.91C269.37 110.26 268.89 110.01 268.89 109.36C268.89 108.71 269.37 107.9 269.97 107.56Z" fill="#455A64"/>
<path d="M269.97 112.28L308.43 90.08C309.03 89.73 309.51 89.98 309.51 90.63C309.51 91.28 309.03 92.08 308.43 92.43L269.97 114.63C269.37 114.98 268.89 114.73 268.89 114.08C268.89 113.43 269.37 112.63 269.97 112.28Z" fill="#E0E0E0"/>
<path d="M177.25 184.59L192.83 175.57C193.43 175.22 193.91 175.47 193.91 176.12C193.91 176.77 193.43 177.57 192.83 177.92L177.25 186.94C176.65 187.29 176.17 187.04 176.17 186.39C176.17 185.74 176.65 184.93 177.25 184.59Z" fill="#455A64"/>
<path d="M322.09 106.79V225.76C322.09 226.09 321.8 226.6 321.51 226.77L169.74 314.39V195.42C169.74 195.09 170.03 194.58 170.32 194.41L172.22 193.31C173.12 192.79 173.8 191.61 173.8 190.57V183.69C173.8 183.36 174.09 182.85 174.38 182.68L196.17 170.1V176.5C196.17 177.66 196.97 178.27 197.77 178.27C198.1 178.27 198.43 178.18 198.75 177.99L322.09 106.79ZM322.49 105.53C322.34 105.53 322.18 105.58 322.01 105.68L198.25 177.13C198.08 177.23 197.91 177.28 197.77 177.28C197.42 177.28 197.17 177 197.17 176.51V169.63C197.17 169.14 196.93 168.86 196.57 168.86C196.42 168.86 196.26 168.91 196.09 169.01L173.88 181.83C173.28 182.18 172.8 183.01 172.8 183.71V190.59C172.8 191.28 172.32 192.12 171.72 192.47L169.82 193.57C169.22 193.92 168.74 194.76 168.74 195.45V314.9C168.74 315.39 168.98 315.67 169.34 315.67C169.49 315.67 169.65 315.62 169.82 315.52L322.01 227.65C322.61 227.3 323.09 226.47 323.09 225.77V106.3C323.09 105.81 322.85 105.53 322.49 105.53Z" fill="#E0E0E0"/>
<path d="M178.52 200.61C178.33 200.61 178.15 200.56 177.99 200.47C177.63 200.26 177.42 199.85 177.42 199.34V194.8C177.42 193.94 178.01 192.92 178.75 192.49L190.82 185.53C191.26 185.27 191.73 185.25 192.09 185.45C192.45 185.66 192.66 186.07 192.66 186.58V191.12C192.66 191.98 192.07 193 191.33 193.43L179.26 200.39C179.01 200.54 178.76 200.61 178.52 200.61ZM179.26 193.37C178.82 193.63 178.43 194.3 178.43 194.81V199.35C178.43 199.52 178.48 199.61 178.5 199.62C178.52 199.63 178.62 199.63 178.77 199.54L190.84 192.58C191.28 192.32 191.67 191.65 191.67 191.14V186.6C191.67 186.43 191.62 186.34 191.6 186.33C191.58 186.32 191.48 186.32 191.33 186.41L179.26 193.37Z" fill="#E0E0E0"/>
<path d="M179.97 195.23L187.84 190.67C188.24 190.44 188.56 190.6 188.56 191.03C188.56 191.46 188.24 192 187.84 192.23L179.97 196.79C179.57 197.02 179.25 196.86 179.25 196.43C179.25 196 179.57 195.46 179.97 195.23Z" fill="#E0E0E0"/>
<path d="M189.67 189.92L190.32 190.85C190.34 190.89 190.39 190.86 190.42 190.79L191.07 189.11C191.1 189.03 191.07 188.95 191.02 188.98L189.72 189.73C189.67 189.77 189.64 189.88 189.67 189.92Z" fill="#455A64"/>
<path d="M176.86 244.56C177.44 244.23 177.9 244.5 177.9 245.16C177.9 245.83 177.43 246.64 176.86 246.97C176.28 247.3 175.82 247.03 175.82 246.37C175.81 245.7 176.28 244.89 176.86 244.56Z" fill="#27DEBF"/>
<path d="M184.98 235.18C185.56 234.85 186.02 235.12 186.02 235.78C186.02 236.45 185.55 237.26 184.98 237.59C184.4 237.92 183.94 237.65 183.94 236.99C183.94 236.32 184.41 235.51 184.98 235.18Z" fill="#27DEBF"/>
<path d="M193.11 230.49C193.69 230.16 194.15 230.43 194.15 231.09C194.15 231.76 193.68 232.57 193.11 232.9C192.53 233.23 192.07 232.96 192.07 232.3C192.06 231.63 192.53 230.82 193.11 230.49Z" fill="#27DEBF"/>
<path d="M201.23 227.86C201.81 227.53 202.27 227.8 202.27 228.46C202.27 229.13 201.8 229.94 201.23 230.27C200.65 230.6 200.19 230.33 200.19 229.67C200.19 229 200.65 228.19 201.23 227.86Z" fill="#27DEBF"/>
<path d="M209.36 219.41C209.94 219.08 210.4 219.35 210.4 220.01C210.4 220.68 209.93 221.49 209.36 221.82C208.78 222.15 208.32 221.88 208.32 221.22C208.32 220.56 208.79 219.75 209.36 219.41Z" fill="#27DEBF"/>
<path d="M217.48 216.42C218.06 216.09 218.52 216.36 218.52 217.02C218.52 217.68 218.05 218.5 217.48 218.83C216.9 219.16 216.44 218.89 216.44 218.23C216.44 217.56 216.9 216.75 217.48 216.42Z" fill="#27DEBF"/>
<path d="M225.6 207.04C226.18 206.71 226.64 206.98 226.64 207.64C226.64 208.31 226.17 209.12 225.6 209.45C225.02 209.78 224.56 209.51 224.56 208.85C224.56 208.18 225.03 207.37 225.6 207.04Z" fill="#27DEBF"/>
<path d="M233.73 204.69C234.31 204.36 234.77 204.63 234.77 205.29C234.77 205.96 234.3 206.77 233.73 207.1C233.15 207.43 232.69 207.16 232.69 206.5C232.68 205.83 233.15 205.03 233.73 204.69Z" fill="#27DEBF"/>
<path d="M241.85 178.89C242.43 178.56 242.89 178.83 242.89 179.49C242.89 180.15 242.42 180.97 241.85 181.3C241.27 181.63 240.81 181.36 240.81 180.7C240.81 180.04 241.27 179.23 241.85 178.89Z" fill="#27DEBF"/>
<path d="M249.98 192.97C250.56 192.64 251.02 192.91 251.02 193.57C251.02 194.23 250.55 195.05 249.98 195.38C249.4 195.71 248.94 195.44 248.94 194.78C248.93 194.11 249.4 193.3 249.98 192.97Z" fill="#27DEBF"/>
<path d="M258.1 192.97C258.68 192.64 259.14 192.91 259.14 193.57C259.14 194.23 258.67 195.05 258.1 195.38C257.52 195.71 257.06 195.44 257.06 194.78C257.06 194.11 257.52 193.3 258.1 192.97Z" fill="#27DEBF"/>
<path d="M266.22 192.97C266.8 192.64 267.26 192.91 267.26 193.57C267.26 194.24 266.79 195.05 266.22 195.38C265.64 195.71 265.18 195.44 265.18 194.78C265.18 194.12 265.65 193.3 266.22 192.97Z" fill="#27DEBF"/>
<path d="M274.35 178.9C274.93 178.57 275.39 178.84 275.39 179.5C275.39 180.17 274.92 180.98 274.35 181.31C273.77 181.64 273.31 181.37 273.31 180.71C273.3 180.04 273.77 179.23 274.35 178.9Z" fill="#27DEBF"/>
<path d="M282.47 176.2C283.05 175.87 283.51 176.14 283.51 176.8C283.51 177.47 283.04 178.28 282.47 178.61C281.89 178.94 281.43 178.67 281.43 178.01C281.43 177.35 281.89 176.53 282.47 176.2Z" fill="#27DEBF"/>
<path d="M290.62 164.82C291.2 164.49 291.66 164.76 291.66 165.42C291.66 166.08 291.19 166.9 290.62 167.23C290.04 167.56 289.58 167.29 289.58 166.63C289.58 165.97 290.05 165.16 290.62 164.82Z" fill="#27DEBF"/>
<path d="M298.72 164.82C299.3 164.49 299.76 164.76 299.76 165.42C299.76 166.08 299.29 166.9 298.72 167.23C298.14 167.56 297.68 167.29 297.68 166.63C297.68 165.97 298.14 165.16 298.72 164.82Z" fill="#27DEBF"/>
<path d="M306.84 164.82C307.42 164.49 307.88 164.76 307.88 165.42C307.88 166.08 307.41 166.9 306.84 167.23C306.26 167.56 305.8 167.29 305.8 166.63C305.8 165.97 306.27 165.16 306.84 164.82Z" fill="#27DEBF"/>
<path d="M314.97 160.13C315.55 159.8 316.01 160.07 316.01 160.73C316.01 161.4 315.54 162.21 314.97 162.54C314.39 162.87 313.93 162.6 313.93 161.94C313.93 161.28 314.39 160.47 314.97 160.13Z" fill="#27DEBF"/>
<path d="M176.84 246.03C176.78 246.03 176.72 246.01 176.68 245.97C176.58 245.88 176.56 245.72 176.66 245.62L184.86 236.19C184.88 236.17 184.9 236.15 184.92 236.14L192.99 231.48L201.1 228.85L209.18 220.45C209.21 220.42 209.24 220.4 209.27 220.39L217.33 217.42L225.41 208.09C225.44 208.05 225.48 208.03 225.53 208.01L233.52 205.7L241.6 180.03C241.63 179.94 241.71 179.87 241.81 179.86C241.9 179.85 242 179.9 242.05 179.98L250.1 193.93L258.1 193.92L266.06 193.93L274.11 179.98C274.14 179.93 274.19 179.89 274.25 179.87L282.3 177.2L290.38 165.89C290.43 165.82 290.5 165.79 290.58 165.79H306.76L314.83 161.13C314.95 161.06 315.1 161.1 315.17 161.22C315.24 161.34 315.2 161.49 315.08 161.56L306.95 166.25C306.91 166.27 306.87 166.28 306.82 166.28H290.7L282.65 177.55C282.62 177.59 282.58 177.63 282.53 177.64L274.49 180.31L266.41 194.3C266.36 194.38 266.28 194.43 266.19 194.43L258.09 194.42L249.95 194.43C249.86 194.43 249.78 194.38 249.73 194.3L241.89 180.72L233.94 205.97C233.92 206.05 233.85 206.11 233.77 206.14L225.72 208.46L217.64 217.79C217.61 217.82 217.58 217.85 217.54 217.86L209.47 220.83L201.39 229.24C201.36 229.27 201.33 229.29 201.29 229.3L193.17 231.93L185.19 236.54L177.01 245.94C176.98 246 176.91 246.03 176.84 246.03Z" fill="#27DEBF"/>
<path d="M176.86 250.96C176.69 250.96 176.52 250.87 176.43 250.71C176.29 250.47 176.37 250.17 176.61 250.03L314.72 170.29C314.96 170.15 315.26 170.23 315.4 170.47C315.54 170.71 315.46 171.01 315.22 171.15L177.11 250.89C177.03 250.94 176.94 250.96 176.86 250.96Z" fill="#E0E0E0"/>
<path d="M176.86 239.87C177.44 239.54 177.9 239.81 177.9 240.47C177.9 241.13 177.43 241.95 176.86 242.28C176.29 242.61 175.82 242.34 175.82 241.68C175.81 241.01 176.28 240.2 176.86 239.87Z" fill="#27DEBF"/>
<path d="M184.98 225.8C185.56 225.47 186.02 225.74 186.02 226.4C186.02 227.06 185.55 227.88 184.98 228.21C184.4 228.54 183.94 228.27 183.94 227.61C183.94 226.94 184.41 226.13 184.98 225.8Z" fill="#27DEBF"/>
<path d="M193.11 224.04C193.69 223.71 194.15 223.98 194.15 224.64C194.15 225.31 193.68 226.12 193.11 226.45C192.53 226.78 192.07 226.51 192.07 225.85C192.06 225.19 192.53 224.38 193.11 224.04Z" fill="#27DEBF"/>
<path d="M201.23 207.04C201.81 206.71 202.27 206.98 202.27 207.64C202.27 208.31 201.8 209.12 201.23 209.45C200.65 209.78 200.19 209.51 200.19 208.85C200.19 208.18 200.65 207.37 201.23 207.04Z" fill="#27DEBF"/>
<path d="M209.36 211.73C209.94 211.4 210.4 211.67 210.4 212.33C210.4 213 209.93 213.8 209.36 214.14C208.78 214.47 208.32 214.2 208.32 213.54C208.32 212.87 208.79 212.06 209.36 211.73Z" fill="#27DEBF"/>
<path d="M217.48 209.38C218.06 209.05 218.52 209.32 218.52 209.98C218.52 210.65 218.05 211.46 217.48 211.79C216.9 212.12 216.44 211.85 216.44 211.19C216.44 210.53 216.9 209.72 217.48 209.38Z" fill="#27DEBF"/>
<path d="M225.6 202.35C226.18 202.02 226.64 202.29 226.64 202.95C226.64 203.61 226.17 204.43 225.6 204.76C225.03 205.09 224.56 204.82 224.56 204.16C224.56 203.49 225.03 202.68 225.6 202.35Z" fill="#27DEBF"/>
<path d="M233.73 192.97C234.31 192.64 234.77 192.91 234.77 193.57C234.77 194.23 234.3 195.05 233.73 195.38C233.15 195.71 232.69 195.44 232.69 194.78C232.68 194.11 233.15 193.3 233.73 192.97Z" fill="#27DEBF"/>
<path d="M241.85 190.62C242.43 190.29 242.89 190.56 242.89 191.22C242.89 191.89 242.42 192.7 241.85 193.03C241.27 193.36 240.81 193.09 240.81 192.43C240.81 191.76 241.27 190.95 241.85 190.62Z" fill="#27DEBF"/>
<path d="M249.97 183.59C250.55 183.26 251.01 183.53 251.01 184.19C251.01 184.85 250.54 185.67 249.97 186C249.39 186.33 248.93 186.06 248.93 185.4C248.93 184.73 249.4 183.92 249.97 183.59Z" fill="#27DEBF"/>
<path d="M258.1 183.59C258.68 183.26 259.14 183.53 259.14 184.19C259.14 184.86 258.67 185.67 258.1 186C257.52 186.33 257.06 186.06 257.06 185.4C257.05 184.73 257.52 183.92 258.1 183.59Z" fill="#27DEBF"/>
<path d="M266.22 164.82C266.8 164.49 267.26 164.76 267.26 165.42C267.26 166.09 266.79 166.9 266.22 167.23C265.64 167.56 265.18 167.29 265.18 166.63C265.18 165.97 265.65 165.16 266.22 164.82Z" fill="#27DEBF"/>
<path d="M274.35 174.14C274.93 173.81 275.39 174.08 275.39 174.74C275.39 175.41 274.92 176.22 274.35 176.55C273.77 176.88 273.31 176.61 273.31 175.95C273.31 175.29 273.77 174.47 274.35 174.14Z" fill="#27DEBF"/>
<path d="M282.47 164.82C283.05 164.49 283.51 164.76 283.51 165.42C283.51 166.09 283.04 166.9 282.47 167.23C281.89 167.56 281.43 167.29 281.43 166.63C281.43 165.97 281.89 165.16 282.47 164.82Z" fill="#27DEBF"/>
<path d="M290.6 160.13C291.18 159.8 291.64 160.07 291.64 160.73C291.64 161.4 291.17 162.21 290.6 162.54C290.02 162.87 289.56 162.6 289.56 161.94C289.56 161.28 290.02 160.47 290.6 160.13Z" fill="#27DEBF"/>
<path d="M298.72 160.13C299.3 159.8 299.76 160.07 299.76 160.73C299.76 161.4 299.29 162.21 298.72 162.54C298.14 162.87 297.68 162.6 297.68 161.94C297.68 161.28 298.14 160.47 298.72 160.13Z" fill="#27DEBF"/>
<path d="M306.84 155.44C307.42 155.11 307.88 155.38 307.88 156.04C307.88 156.7 307.41 157.52 306.84 157.85C306.26 158.18 305.8 157.91 305.8 157.25C305.8 156.58 306.27 155.78 306.84 155.44Z" fill="#27DEBF"/>
<path d="M314.97 155.44C315.55 155.11 316.01 155.38 316.01 156.04C316.01 156.7 315.54 157.52 314.97 157.85C314.39 158.18 313.93 157.91 313.93 157.25C313.92 156.58 314.39 155.78 314.97 155.44Z" fill="#27DEBF"/>
<path d="M176.86 241.33C176.82 241.33 176.77 241.32 176.73 241.3C176.61 241.23 176.57 241.08 176.64 240.96L184.82 226.85C184.86 226.79 184.91 226.75 184.98 226.73L192.93 225.03L201 208.13C201.03 208.07 201.08 208.02 201.15 208C201.22 207.98 201.29 207.99 201.35 208.02L209.39 212.66L217.35 210.35L225.42 203.36L233.53 194C233.56 193.96 233.6 193.94 233.65 193.92L241.72 191.59L249.8 184.59C249.85 184.55 249.9 184.53 249.97 184.53H257.93L265.99 165.92C266.02 165.84 266.1 165.79 266.18 165.77C266.26 165.76 266.35 165.79 266.41 165.85L274.34 175.01L282.27 165.85C282.29 165.83 282.31 165.81 282.33 165.8L290.48 161.09C290.52 161.07 290.56 161.06 290.61 161.06H298.67L306.71 156.42C306.75 156.4 306.79 156.39 306.84 156.39H314.97C315.11 156.39 315.22 156.5 315.22 156.64C315.22 156.78 315.11 156.89 314.97 156.89H306.91L298.87 161.53C298.83 161.55 298.79 161.56 298.74 161.56H290.68L282.62 166.21L274.52 175.56C274.42 175.67 274.24 175.67 274.14 175.56L266.28 166.48L258.31 184.88C258.27 184.97 258.18 185.03 258.08 185.03H250.05L242 192C241.97 192.02 241.94 192.04 241.9 192.05L233.85 194.37L225.76 203.7L217.62 210.75C217.59 210.77 217.56 210.79 217.53 210.8L209.41 213.15C209.34 213.17 209.27 213.16 209.22 213.13L201.32 208.57L193.31 225.33C193.28 225.4 193.21 225.45 193.14 225.47L185.18 227.17L177.05 241.18C177.03 241.28 176.94 241.33 176.86 241.33Z" fill="#27DEBF"/>
<g opacity="0.3">
<g opacity="0.3">
<g opacity="0.3">
<path opacity="0.3" d="M176.86 239.87C177.44 239.54 177.9 239.81 177.9 240.47C177.9 241.13 177.43 241.95 176.86 242.28C176.29 242.61 175.82 242.34 175.82 241.68C175.81 241.01 176.28 240.2 176.86 239.87Z" fill="black"/>
</g>
<g opacity="0.3">
<path opacity="0.3" d="M184.98 225.8C185.56 225.47 186.02 225.74 186.02 226.4C186.02 227.06 185.55 227.88 184.98 228.21C184.4 228.54 183.94 228.27 183.94 227.61C183.94 226.94 184.41 226.13 184.98 225.8Z" fill="black"/>
</g>
<g opacity="0.3">
<path opacity="0.3" d="M193.11 224.04C193.69 223.71 194.15 223.98 194.15 224.64C194.15 225.31 193.68 226.12 193.11 226.45C192.53 226.78 192.07 226.51 192.07 225.85C192.06 225.19 192.53 224.38 193.11 224.04Z" fill="black"/>
</g>
<g opacity="0.3">
<path opacity="0.3" d="M201.23 207.04C201.81 206.71 202.27 206.98 202.27 207.64C202.27 208.31 201.8 209.12 201.23 209.45C200.65 209.78 200.19 209.51 200.19 208.85C200.19 208.18 200.65 207.37 201.23 207.04Z" fill="black"/>
</g>
<g opacity="0.3">
<path opacity="0.3" d="M209.36 211.73C209.94 211.4 210.4 211.67 210.4 212.33C210.4 213 209.93 213.8 209.36 214.14C208.78 214.47 208.32 214.2 208.32 213.54C208.32 212.87 208.79 212.06 209.36 211.73Z" fill="black"/>
</g>
<g opacity="0.3">
<path opacity="0.3" d="M217.48 209.38C218.06 209.05 218.52 209.32 218.52 209.98C218.52 210.65 218.05 211.46 217.48 211.79C216.9 212.12 216.44 211.85 216.44 211.19C216.44 210.53 216.9 209.72 217.48 209.38Z" fill="black"/>
</g>
<g opacity="0.3">
<path opacity="0.3" d="M225.6 202.35C226.18 202.02 226.64 202.29 226.64 202.95C226.64 203.61 226.17 204.43 225.6 204.76C225.03 205.09 224.56 204.82 224.56 204.16C224.56 203.49 225.03 202.68 225.6 202.35Z" fill="black"/>
</g>
<g opacity="0.3">
<path opacity="0.3" d="M233.73 192.97C234.31 192.64 234.77 192.91 234.77 193.57C234.77 194.23 234.3 195.05 233.73 195.38C233.15 195.71 232.69 195.44 232.69 194.78C232.68 194.11 233.15 193.3 233.73 192.97Z" fill="black"/>
</g>
<g opacity="0.3">
<path opacity="0.3" d="M241.85 190.62C242.43 190.29 242.89 190.56 242.89 191.22C242.89 191.89 242.42 192.7 241.85 193.03C241.27 193.36 240.81 193.09 240.81 192.43C240.81 191.76 241.27 190.95 241.85 190.62Z" fill="black"/>
</g>
<g opacity="0.3">
<path opacity="0.3" d="M249.97 183.59C250.55 183.26 251.01 183.53 251.01 184.19C251.01 184.85 250.54 185.67 249.97 186C249.39 186.33 248.93 186.06 248.93 185.4C248.93 184.73 249.4 183.92 249.97 183.59Z" fill="black"/>
</g>
<g opacity="0.3">
<path opacity="0.3" d="M258.1 183.59C258.68 183.26 259.14 183.53 259.14 184.19C259.14 184.86 258.67 185.67 258.1 186C257.52 186.33 257.06 186.06 257.06 185.4C257.05 184.73 257.52 183.92 258.1 183.59Z" fill="black"/>
</g>
<g opacity="0.3">
<path opacity="0.3" d="M266.22 164.82C266.8 164.49 267.26 164.76 267.26 165.42C267.26 166.09 266.79 166.9 266.22 167.23C265.64 167.56 265.18 167.29 265.18 166.63C265.18 165.97 265.65 165.16 266.22 164.82Z" fill="black"/>
</g>
<g opacity="0.3">
<path opacity="0.3" d="M274.35 174.14C274.93 173.81 275.39 174.08 275.39 174.74C275.39 175.41 274.92 176.22 274.35 176.55C273.77 176.88 273.31 176.61 273.31 175.95C273.31 175.29 273.77 174.47 274.35 174.14Z" fill="black"/>
</g>
<g opacity="0.3">
<path opacity="0.3" d="M282.47 164.82C283.05 164.49 283.51 164.76 283.51 165.42C283.51 166.09 283.04 166.9 282.47 167.23C281.89 167.56 281.43 167.29 281.43 166.63C281.43 165.97 281.89 165.16 282.47 164.82Z" fill="black"/>
</g>
<g opacity="0.3">
<path opacity="0.3" d="M290.6 160.13C291.18 159.8 291.64 160.07 291.64 160.73C291.64 161.4 291.17 162.21 290.6 162.54C290.02 162.87 289.56 162.6 289.56 161.94C289.56 161.28 290.02 160.47 290.6 160.13Z" fill="black"/>
</g>
<g opacity="0.3">
<path opacity="0.3" d="M298.72 160.13C299.3 159.8 299.76 160.07 299.76 160.73C299.76 161.4 299.29 162.21 298.72 162.54C298.14 162.87 297.68 162.6 297.68 161.94C297.68 161.28 298.14 160.47 298.72 160.13Z" fill="black"/>
</g>
<g opacity="0.3">
<path opacity="0.3" d="M306.84 155.44C307.42 155.11 307.88 155.38 307.88 156.04C307.88 156.7 307.41 157.52 306.84 157.85C306.26 158.18 305.8 157.91 305.8 157.25C305.8 156.58 306.27 155.78 306.84 155.44Z" fill="black"/>
</g>
<g opacity="0.3">
<path opacity="0.3" d="M314.97 155.44C315.55 155.11 316.01 155.38 316.01 156.04C316.01 156.7 315.54 157.52 314.97 157.85C314.39 158.18 313.93 157.91 313.93 157.25C313.92 156.58 314.39 155.78 314.97 155.44Z" fill="black"/>
</g>
</g>
<g opacity="0.3">
<path opacity="0.3" d="M176.86 241.33C176.82 241.33 176.77 241.32 176.73 241.3C176.61 241.23 176.57 241.08 176.64 240.96L184.82 226.85C184.86 226.79 184.91 226.75 184.98 226.73L192.93 225.03L201 208.13C201.03 208.07 201.08 208.02 201.15 208C201.22 207.98 201.29 207.99 201.35 208.02L209.39 212.66L217.35 210.35L225.42 203.36L233.53 194C233.56 193.96 233.6 193.94 233.65 193.92L241.72 191.59L249.8 184.59C249.85 184.55 249.9 184.53 249.97 184.53H257.93L265.99 165.92C266.02 165.84 266.1 165.79 266.18 165.77C266.26 165.76 266.35 165.79 266.41 165.85L274.34 175.01L282.27 165.85C282.29 165.83 282.31 165.81 282.33 165.8L290.48 161.09C290.52 161.07 290.56 161.06 290.61 161.06H298.67L306.71 156.42C306.75 156.4 306.79 156.39 306.84 156.39H314.97C315.11 156.39 315.22 156.5 315.22 156.64C315.22 156.78 315.11 156.89 314.97 156.89H306.91L298.87 161.53C298.83 161.55 298.79 161.56 298.74 161.56H290.68L282.62 166.21L274.52 175.56C274.42 175.67 274.24 175.67 274.14 175.56L266.28 166.48L258.31 184.88C258.27 184.97 258.18 185.03 258.08 185.03H250.05L242 192C241.97 192.02 241.94 192.04 241.9 192.05L233.85 194.37L225.76 203.7L217.62 210.75C217.59 210.77 217.56 210.79 217.53 210.8L209.41 213.15C209.34 213.17 209.27 213.16 209.22 213.13L201.32 208.57L193.31 225.33C193.28 225.4 193.21 225.45 193.14 225.47L185.18 227.17L177.05 241.18C177.03 241.28 176.94 241.33 176.86 241.33Z" fill="black"/>
</g>
</g>
<path d="M181.11 205.07L188.98 200.51C189.38 200.28 189.7 200.44 189.7 200.87C189.7 201.3 189.38 201.84 188.98 202.07L181.11 206.63C180.71 206.86 180.39 206.7 180.39 206.27C180.39 205.83 180.72 205.3 181.11 205.07Z" fill="#E0E0E0"/>
<path d="M176.86 207.04C177.44 206.71 177.9 206.98 177.9 207.64C177.9 208.31 177.43 209.12 176.86 209.45C176.28 209.78 175.82 209.51 175.82 208.85C175.82 208.19 176.28 207.37 176.86 207.04Z" fill="#27DEBF"/>
<path opacity="0.3" d="M176.86 207.04C177.44 206.71 177.9 206.98 177.9 207.64C177.9 208.31 177.43 209.12 176.86 209.45C176.28 209.78 175.82 209.51 175.82 208.85C175.82 208.19 176.28 207.37 176.86 207.04Z" fill="black"/>
<path d="M181.11 209.74L188.98 205.18C189.38 204.95 189.7 205.11 189.7 205.55C189.7 205.98 189.38 206.52 188.98 206.75L181.11 211.31C180.71 211.54 180.39 211.38 180.39 210.95C180.39 210.52 180.72 209.97 181.11 209.74Z" fill="#E0E0E0"/>
<path d="M176.86 211.73C177.44 211.4 177.9 211.67 177.9 212.33C177.9 212.99 177.43 213.81 176.86 214.14C176.28 214.47 175.82 214.2 175.82 213.54C175.81 212.87 176.28 212.06 176.86 211.73Z" fill="#27DEBF"/>
<path d="M176.86 274.23C176.8 274.23 176.73 274.21 176.69 274.16C176.59 274.06 176.59 273.91 176.68 273.81L180.8 269.57L184.85 269.06L188.94 263.78L193.03 264.34L197 260.75L201.06 258.32L205.2 252.59L209.31 253.88L213.26 250.35C213.36 250.26 213.52 250.27 213.61 250.37C213.7 250.47 213.69 250.63 213.59 250.72L209.43 254.44L205.4 253.17L201.37 258.72L197.31 261.15L193.2 264.87L189.17 264.32L185.13 269.54L181.05 270.06L177.05 274.17C176.99 274.2 176.92 274.23 176.86 274.23Z" fill="#27DEBF"/>
<path d="M178.47 260.51C178.5 260.48 178.53 260.45 178.57 260.42C178.61 260.39 178.65 260.36 178.68 260.34C178.9 260.21 179.11 260.15 179.29 260.15C179.48 260.15 179.64 260.22 179.78 260.33C179.92 260.45 180.02 260.62 180.1 260.84C180.18 261.06 180.22 261.33 180.22 261.64C180.22 261.95 180.18 262.26 180.1 262.58C180.02 262.89 179.92 263.19 179.78 263.47C179.64 263.75 179.48 264 179.29 264.22C179.1 264.44 178.9 264.62 178.68 264.74C178.46 264.87 178.25 264.93 178.06 264.93C177.87 264.93 177.71 264.86 177.57 264.74C177.43 264.62 177.33 264.45 177.25 264.23C177.17 264.01 177.13 263.74 177.13 263.43C177.13 263.25 177.14 263.08 177.17 262.91C177.2 262.74 177.23 262.58 177.27 262.42C177.31 262.26 177.36 262.11 177.41 261.95C177.46 261.8 177.51 261.65 177.56 261.51L178.64 258.43C178.66 258.39 178.68 258.34 178.71 258.28C178.73 258.22 178.77 258.18 178.83 258.14L179.17 257.94C179.21 257.92 179.23 257.92 179.26 257.95C179.29 257.98 179.29 258.02 179.29 258.07C179.29 258.1 179.29 258.13 179.28 258.15C179.27 258.17 179.27 258.19 179.26 258.21L178.47 260.51ZM177.7 263.11C177.7 263.29 177.72 263.45 177.77 263.59C177.82 263.73 177.88 263.84 177.96 263.92C178.04 264 178.14 264.04 178.27 264.05C178.4 264.06 178.53 264.02 178.68 263.93C178.83 263.84 178.97 263.73 179.09 263.58C179.21 263.43 179.31 263.27 179.4 263.1C179.48 262.92 179.55 262.74 179.59 262.55C179.63 262.36 179.66 262.17 179.66 261.99C179.66 261.81 179.64 261.65 179.59 261.51C179.54 261.37 179.48 261.26 179.4 261.18C179.32 261.1 179.21 261.06 179.09 261.05C178.97 261.04 178.83 261.08 178.68 261.17C178.53 261.26 178.39 261.37 178.27 261.52C178.15 261.67 178.05 261.83 177.96 262C177.88 262.18 177.81 262.36 177.77 262.55C177.73 262.74 177.7 262.93 177.7 263.11Z" fill="#455A64"/>
<path d="M181.23 261.64C181.25 261.73 181.28 261.81 181.31 261.88C181.35 261.96 181.4 262.01 181.47 262.05C181.54 262.09 181.64 262.09 181.75 262.08C181.87 262.06 182.02 262 182.21 261.89C182.33 261.82 182.45 261.73 182.56 261.62C182.67 261.51 182.77 261.38 182.85 261.24C182.93 261.09 183 260.94 183.05 260.76C183.1 260.59 183.12 260.4 183.12 260.2C183.12 260 183.1 259.85 183.05 259.74C183 259.63 182.94 259.56 182.86 259.52C182.78 259.48 182.68 259.48 182.57 259.51C182.46 259.54 182.34 259.59 182.21 259.66L181.72 259.95C181.68 259.98 181.64 259.97 181.61 259.94C181.58 259.91 181.56 259.86 181.56 259.79V259.46C181.56 259.4 181.57 259.35 181.59 259.29C181.61 259.23 181.63 259.18 181.65 259.13L182.72 256.74L181.01 257.73C180.97 257.76 180.93 257.75 180.9 257.72C180.87 257.69 180.85 257.64 180.85 257.57V257.24C180.85 257.17 180.87 257.11 180.9 257.04C180.93 256.97 180.97 256.93 181.01 256.9L183.35 255.55C183.39 255.52 183.43 255.53 183.46 255.56C183.49 255.59 183.51 255.64 183.51 255.71V256.04C183.51 256.1 183.5 256.15 183.48 256.22C183.46 256.28 183.43 256.35 183.4 256.42L182.35 258.78C182.55 258.67 182.73 258.61 182.89 258.61C183.06 258.6 183.19 258.65 183.31 258.74C183.43 258.83 183.52 258.98 183.58 259.17C183.65 259.36 183.68 259.6 183.68 259.89C183.68 260.2 183.64 260.5 183.56 260.8C183.48 261.09 183.37 261.36 183.24 261.61C183.11 261.86 182.95 262.07 182.77 262.27C182.59 262.47 182.4 262.62 182.2 262.74C181.93 262.89 181.71 262.98 181.51 262.99C181.32 263.01 181.16 262.97 181.03 262.89C180.9 262.81 180.81 262.69 180.75 262.53C180.69 262.37 180.66 262.2 180.65 262C180.65 261.94 180.66 261.89 180.69 261.83C180.72 261.78 180.75 261.74 180.78 261.72L181.05 261.56C181.09 261.53 181.13 261.53 181.15 261.56C181.2 261.56 181.22 261.6 181.23 261.64Z" fill="#455A64"/>
<path d="M184.77 259.6C184.79 259.69 184.82 259.77 184.85 259.85C184.89 259.93 184.94 259.98 185.01 260.02C185.08 260.06 185.18 260.06 185.29 260.04C185.41 260.02 185.56 259.96 185.75 259.85C185.87 259.78 185.99 259.69 186.1 259.58C186.21 259.47 186.31 259.34 186.39 259.2C186.47 259.06 186.54 258.89 186.59 258.72C186.64 258.55 186.66 258.36 186.66 258.16C186.66 257.96 186.64 257.81 186.59 257.7C186.54 257.59 186.48 257.52 186.4 257.48C186.32 257.44 186.22 257.44 186.11 257.47C186 257.5 185.88 257.55 185.75 257.62L185.26 257.91C185.22 257.93 185.18 257.93 185.15 257.9C185.12 257.87 185.1 257.82 185.1 257.75V257.42C185.1 257.37 185.11 257.31 185.13 257.25C185.15 257.19 185.17 257.14 185.19 257.09L186.26 254.7L184.55 255.69C184.51 255.72 184.47 255.71 184.44 255.68C184.41 255.65 184.39 255.6 184.39 255.53V255.2C184.39 255.13 184.41 255.07 184.44 255C184.47 254.93 184.51 254.89 184.55 254.86L186.89 253.51C186.93 253.48 186.97 253.49 187 253.52C187.03 253.55 187.05 253.6 187.05 253.67V254C187.05 254.06 187.04 254.11 187.02 254.18C187 254.24 186.97 254.31 186.94 254.38L185.89 256.74C186.09 256.63 186.27 256.57 186.43 256.57C186.6 256.56 186.74 256.61 186.85 256.7C186.96 256.79 187.06 256.94 187.12 257.13C187.19 257.32 187.22 257.56 187.22 257.85C187.22 258.16 187.18 258.46 187.1 258.76C187.02 259.05 186.91 259.32 186.78 259.57C186.65 259.82 186.49 260.03 186.31 260.23C186.13 260.43 185.94 260.58 185.74 260.7C185.47 260.85 185.24 260.94 185.05 260.95C184.86 260.97 184.7 260.93 184.57 260.85C184.45 260.77 184.35 260.65 184.29 260.49C184.23 260.33 184.2 260.16 184.19 259.96C184.19 259.9 184.2 259.85 184.23 259.79C184.26 259.74 184.29 259.7 184.32 259.68L184.59 259.52C184.63 259.49 184.67 259.5 184.69 259.52C184.74 259.52 184.76 259.56 184.77 259.6Z" fill="#455A64"/>
<path d="M177.59 277.46L212.69 257.12C213.09 256.89 213.41 257.05 213.41 257.48C213.41 257.91 213.09 258.45 212.69 258.68L177.59 279.02C177.19 279.25 176.87 279.09 176.87 278.65C176.87 278.21 177.2 277.69 177.59 277.46Z" fill="#E0E0E0"/>
<path d="M177.59 253.99L185.46 249.43C185.86 249.2 186.18 249.36 186.18 249.8C186.18 250.24 185.86 250.77 185.46 251L177.59 255.56C177.19 255.79 176.87 255.63 176.87 255.19C176.87 254.75 177.2 254.22 177.59 253.99Z" fill="#E0E0E0"/>
<path d="M176.86 302.35C176.8 302.35 176.73 302.33 176.69 302.28C176.59 302.18 176.59 302.03 176.68 301.93L180.8 297.69L184.87 297.17L188.97 293.58L192.92 292.5L197.04 284.29L201.17 286.31L205.16 282.8L205.23 282.79L209.19 282.04L213.19 275.13C213.26 275.01 213.41 274.97 213.53 275.04C213.65 275.11 213.69 275.26 213.62 275.38L209.51 282.49L205.39 283.27L201.25 286.91L197.26 284.96L193.26 292.93L189.15 294.05L185.07 297.65L181.02 298.16L177.02 302.27C176.99 302.32 176.92 302.35 176.86 302.35Z" fill="#27DEBF"/>
<g opacity="0.3">
<path opacity="0.3" d="M176.86 302.35C176.8 302.35 176.73 302.33 176.69 302.28C176.59 302.18 176.59 302.03 176.68 301.93L180.8 297.69L184.87 297.17L188.97 293.58L192.92 292.5L197.04 284.29L201.17 286.31L205.16 282.8L205.23 282.79L209.19 282.04L213.19 275.13C213.26 275.01 213.41 274.97 213.53 275.04C213.65 275.11 213.69 275.26 213.62 275.38L209.51 282.49L205.39 283.27L201.25 286.91L197.26 284.96L193.26 292.93L189.15 294.05L185.07 297.65L181.02 298.16L177.02 302.27C176.99 302.32 176.92 302.35 176.86 302.35Z" fill="black"/>
</g>
<path d="M178.93 292.38C178.93 292.45 178.91 292.51 178.88 292.58C178.85 292.65 178.81 292.69 178.77 292.72L178.53 292.86C178.49 292.89 178.45 292.88 178.42 292.85C178.39 292.82 178.37 292.77 178.37 292.7V287.66L177.41 289.34C177.37 289.41 177.33 289.45 177.29 289.46C177.25 289.47 177.21 289.46 177.18 289.43L177.04 289.23C177.01 289.19 177 289.14 177.01 289.06C177.02 288.99 177.04 288.92 177.07 288.86L178.34 286.62C178.37 286.57 178.4 286.53 178.44 286.5C178.47 286.48 178.5 286.46 178.53 286.44L178.77 286.3C178.81 286.27 178.85 286.28 178.88 286.31C178.91 286.34 178.93 286.39 178.93 286.46V292.38V292.38Z" fill="#455A64"/>
<path d="M181.53 287.76C181.65 287.53 181.74 287.31 181.8 287.1C181.86 286.89 181.89 286.65 181.89 286.38C181.89 286.06 181.83 285.82 181.71 285.67C181.59 285.53 181.39 285.53 181.13 285.68C180.99 285.76 180.87 285.86 180.78 285.97C180.68 286.09 180.6 286.22 180.54 286.36C180.48 286.5 180.42 286.66 180.39 286.82C180.35 286.98 180.32 287.14 180.3 287.3C180.29 287.37 180.27 287.44 180.24 287.49C180.21 287.54 180.18 287.58 180.15 287.6L179.88 287.76C179.84 287.78 179.81 287.78 179.79 287.75C179.76 287.72 179.75 287.68 179.75 287.63C179.75 287.4 179.79 287.15 179.85 286.88C179.91 286.61 180 286.35 180.12 286.09C180.24 285.83 180.38 285.59 180.56 285.37C180.73 285.15 180.93 284.97 181.15 284.85C181.37 284.72 181.56 284.67 181.73 284.67C181.9 284.68 182.04 284.74 182.15 284.85C182.26 284.96 182.35 285.12 182.4 285.33C182.46 285.54 182.49 285.77 182.49 286.04C182.49 286.24 182.48 286.42 182.46 286.59C182.44 286.76 182.41 286.93 182.36 287.1C182.31 287.27 182.26 287.44 182.18 287.62C182.11 287.79 182.02 287.98 181.92 288.18L180.59 290.85L182.41 289.8C182.45 289.77 182.49 289.78 182.52 289.81C182.55 289.84 182.57 289.89 182.57 289.96V290.29C182.57 290.36 182.55 290.42 182.52 290.49C182.49 290.56 182.45 290.6 182.41 290.63L179.85 292.11C179.81 292.14 179.77 292.13 179.74 292.1C179.71 292.07 179.69 292.02 179.69 291.95V291.62C179.69 291.55 179.7 291.49 179.72 291.43C179.74 291.37 179.77 291.29 179.82 291.2L181.53 287.76Z" fill="#455A64"/>
<path d="M186.23 284.45C186.23 284.72 186.24 284.98 186.24 285.22C186.24 285.46 186.24 285.72 186.23 286C186.23 286.36 186.19 286.71 186.13 287.05C186.07 287.39 185.98 287.71 185.85 288.01C185.73 288.31 185.57 288.57 185.38 288.81C185.19 289.05 184.97 289.24 184.71 289.39C184.45 289.54 184.22 289.61 184.04 289.59C183.85 289.57 183.7 289.48 183.57 289.33C183.45 289.18 183.35 288.96 183.29 288.69C183.23 288.42 183.2 288.11 183.19 287.75C183.19 287.48 183.18 287.22 183.18 286.98C183.18 286.74 183.18 286.48 183.19 286.2C183.19 285.84 183.23 285.49 183.29 285.15C183.35 284.81 183.44 284.49 183.57 284.19C183.69 283.89 183.85 283.62 184.04 283.39C184.23 283.15 184.45 282.95 184.71 282.8C184.97 282.65 185.2 282.59 185.38 282.61C185.57 282.63 185.72 282.72 185.85 282.88C185.98 283.04 186.06 283.25 186.13 283.52C186.2 283.78 186.23 284.09 186.23 284.45ZM183.76 287.42C183.77 287.99 183.85 288.37 184.01 288.55C184.17 288.73 184.41 288.73 184.71 288.55C185.02 288.37 185.25 288.1 185.41 287.73C185.57 287.36 185.66 286.89 185.66 286.3C185.66 286.02 185.67 285.76 185.67 285.52C185.67 285.28 185.67 285.02 185.66 284.75C185.65 284.17 185.57 283.79 185.41 283.61C185.25 283.43 185.02 283.42 184.71 283.6C184.4 283.78 184.17 284.05 184.01 284.42C183.85 284.79 183.76 285.27 183.76 285.85C183.76 286.13 183.75 286.39 183.75 286.63C183.75 286.87 183.76 287.15 183.76 287.42Z" fill="#455A64"/>
<path d="M177.59 305.57L212.69 285.23C213.09 285 213.41 285.16 213.41 285.6C213.41 286.04 213.09 286.57 212.69 286.8L177.59 307.14C177.19 307.37 176.87 307.21 176.87 306.78C176.87 306.35 177.2 305.8 177.59 305.57Z" fill="#E0E0E0"/>
<path d="M177.59 282.11L185.46 277.55C185.86 277.32 186.18 277.48 186.18 277.91C186.18 278.34 185.86 278.88 185.46 279.11L177.59 283.67C177.19 283.9 176.87 283.74 176.87 283.31C176.87 282.88 177.2 282.34 177.59 282.11Z" fill="#E0E0E0"/>
<path d="M225.6 246.03C225.53 246.03 225.45 246 225.4 245.94C225.31 245.83 225.33 245.67 225.44 245.59L229.5 242.35L233.59 237.68L237.74 237.08L241.7 236.19L245.8 231.35L249.84 232.06L253.89 225.65L258 225.72L261.98 222.16C262.08 222.07 262.24 222.08 262.33 222.18C262.42 222.28 262.41 222.44 262.31 222.53L258.18 226.22L254.15 226.15L250.07 232.61L245.98 231.89L241.96 236.64L237.82 237.57L233.83 238.15L229.83 242.72L225.74 245.99C225.71 246.01 225.66 246.03 225.6 246.03Z" fill="#27DEBF"/>
<path d="M227.21 232.31C227.24 232.28 227.27 232.25 227.31 232.22C227.35 232.19 227.39 232.16 227.42 232.14C227.64 232.01 227.85 231.95 228.03 231.95C228.22 231.95 228.38 232.02 228.52 232.13C228.66 232.25 228.76 232.42 228.84 232.64C228.92 232.86 228.96 233.13 228.96 233.44C228.96 233.75 228.92 234.06 228.84 234.38C228.76 234.69 228.66 234.99 228.52 235.27C228.38 235.55 228.22 235.8 228.03 236.02C227.84 236.24 227.64 236.42 227.42 236.54C227.2 236.67 226.99 236.73 226.8 236.73C226.61 236.73 226.45 236.66 226.31 236.54C226.17 236.42 226.07 236.25 225.99 236.02C225.91 235.8 225.87 235.53 225.87 235.22C225.87 235.04 225.88 234.87 225.91 234.7C225.94 234.53 225.97 234.37 226.01 234.21C226.05 234.05 226.1 233.9 226.15 233.74C226.2 233.59 226.25 233.44 226.3 233.3L227.38 230.22C227.4 230.18 227.42 230.13 227.45 230.07C227.47 230.01 227.51 229.97 227.57 229.93L227.91 229.73C227.95 229.71 227.97 229.71 228 229.74C228.02 229.77 228.03 229.81 228.03 229.86C228.03 229.89 228.03 229.92 228.02 229.94C228.01 229.96 228.01 229.98 228 230L227.21 232.31ZM226.45 234.91C226.45 235.09 226.47 235.25 226.52 235.39C226.57 235.53 226.63 235.64 226.71 235.72C226.79 235.8 226.89 235.84 227.02 235.85C227.15 235.86 227.28 235.82 227.43 235.73C227.58 235.64 227.72 235.53 227.84 235.38C227.96 235.23 228.06 235.07 228.15 234.9C228.23 234.72 228.3 234.54 228.34 234.35C228.38 234.16 228.41 233.97 228.41 233.79C228.41 233.61 228.39 233.45 228.34 233.31C228.29 233.17 228.23 233.06 228.15 232.98C228.07 232.9 227.96 232.86 227.84 232.85C227.72 232.84 227.58 232.88 227.43 232.97C227.28 233.06 227.14 233.17 227.02 233.32C226.9 233.47 226.8 233.63 226.71 233.8C226.63 233.98 226.56 234.16 226.52 234.35C226.47 234.54 226.45 234.73 226.45 234.91Z" fill="#455A64"/>
<path d="M231.33 230.84C231.45 230.61 231.54 230.39 231.6 230.18C231.66 229.97 231.69 229.73 231.69 229.46C231.69 229.14 231.63 228.9 231.51 228.75C231.39 228.61 231.19 228.61 230.93 228.76C230.79 228.84 230.67 228.94 230.58 229.05C230.48 229.17 230.4 229.3 230.34 229.44C230.27 229.58 230.22 229.74 230.18 229.9C230.14 230.06 230.11 230.22 230.09 230.38C230.08 230.45 230.06 230.52 230.03 230.57C230 230.62 229.97 230.66 229.94 230.68L229.67 230.84C229.63 230.86 229.6 230.86 229.58 230.83C229.55 230.8 229.54 230.76 229.54 230.71C229.54 230.48 229.58 230.23 229.64 229.96C229.7 229.69 229.8 229.43 229.91 229.17C230.03 228.91 230.17 228.67 230.35 228.45C230.52 228.23 230.72 228.05 230.94 227.93C231.16 227.8 231.35 227.75 231.52 227.75C231.69 227.76 231.82 227.82 231.94 227.93C232.05 228.04 232.14 228.2 232.19 228.41C232.25 228.62 232.28 228.85 232.28 229.12C232.28 229.32 232.27 229.5 232.25 229.67C232.23 229.84 232.2 230.01 232.15 230.18C232.11 230.35 232.05 230.52 231.97 230.7C231.9 230.87 231.81 231.06 231.71 231.26L230.38 233.93L232.2 232.88C232.24 232.85 232.28 232.86 232.31 232.89C232.34 232.92 232.36 232.97 232.36 233.04V233.37C232.36 233.44 232.34 233.5 232.31 233.57C232.28 233.64 232.24 233.68 232.2 233.71L229.64 235.19C229.6 235.22 229.56 235.21 229.53 235.18C229.5 235.15 229.48 235.1 229.48 235.03V234.7C229.48 234.63 229.49 234.57 229.51 234.51C229.53 234.45 229.56 234.37 229.61 234.28L231.33 230.84Z" fill="#455A64"/>
<path d="M235.37 225.46C235.41 225.43 235.45 225.44 235.48 225.47C235.51 225.5 235.53 225.55 235.53 225.62V225.95C235.53 226 235.52 226.07 235.51 226.13C235.5 226.2 235.48 226.27 235.46 226.35L234.14 232.36C234.12 232.42 234.1 232.49 234.08 232.55C234.05 232.61 234.02 232.65 233.97 232.68L233.7 232.84C233.66 232.86 233.63 232.86 233.6 232.83C233.57 232.8 233.56 232.76 233.56 232.7C233.56 232.69 233.56 232.67 233.56 232.66C233.56 232.64 233.57 232.62 233.58 232.58L234.91 226.56L232.96 227.69C232.92 227.72 232.88 227.71 232.85 227.68C232.82 227.65 232.8 227.6 232.8 227.53V227.2C232.8 227.13 232.82 227.07 232.85 227C232.88 226.93 232.92 226.89 232.96 226.86L235.37 225.46Z" fill="#455A64"/>
<path d="M226.34 249.26L261.44 228.92C261.84 228.69 262.16 228.85 262.16 229.28C262.16 229.71 261.84 230.25 261.44 230.48L226.34 250.82C225.94 251.05 225.62 250.89 225.62 250.45C225.62 250.01 225.94 249.49 226.34 249.26Z" fill="#E0E0E0"/>
<path d="M226.34 225.79L234.21 221.23C234.61 221 234.93 221.16 234.93 221.6C234.93 222.03 234.61 222.57 234.21 222.8L226.34 227.36C225.94 227.59 225.62 227.43 225.62 226.99C225.62 226.55 225.94 226.02 226.34 225.79Z" fill="#E0E0E0"/>
<path d="M225.6 274.14C225.56 274.14 225.51 274.13 225.47 274.1C225.35 274.03 225.32 273.87 225.39 273.76L229.54 266.95L233.72 267.72L237.65 266.65L241.71 261.69L245.75 260.67L249.86 253.35L254.06 254.57L258 253.82L262 250.26C262.1 250.17 262.26 250.18 262.35 250.28C262.44 250.38 262.43 250.54 262.33 250.63L258.23 254.28L258.16 254.29L254.03 255.07L250.1 253.93L246.08 261.09L241.99 262.12L237.93 267.07L237.85 267.09L233.73 268.22L233.67 268.21L229.78 267.49L225.81 274C225.77 274.1 225.69 274.14 225.6 274.14Z" fill="#27DEBF"/>
<g opacity="0.3">
<path opacity="0.3" d="M225.6 274.14C225.56 274.14 225.51 274.13 225.47 274.1C225.35 274.03 225.32 273.87 225.39 273.76L229.54 266.95L233.72 267.72L237.65 266.65L241.71 261.69L245.75 260.67L249.86 253.35L254.06 254.57L258 253.82L262 250.26C262.1 250.17 262.26 250.18 262.35 250.28C262.44 250.38 262.43 250.54 262.33 250.63L258.23 254.28L258.16 254.29L254.03 255.07L250.1 253.93L246.08 261.09L241.99 262.12L237.93 267.07L237.85 267.09L233.73 268.22L233.67 268.21L229.78 267.49L225.81 274C225.77 274.1 225.69 274.14 225.6 274.14Z" fill="black"/>
</g>
<path d="M227.48 262.35C227.46 262.37 227.43 262.39 227.4 262.41C227.36 262.43 227.34 262.45 227.32 262.46C227.13 262.57 226.94 262.63 226.77 262.64C226.6 262.65 226.43 262.6 226.29 262.5C226.15 262.4 226.04 262.24 225.95 262.02C225.86 261.8 225.82 261.52 225.82 261.17C225.82 260.86 225.86 260.55 225.94 260.24C226.02 259.93 226.13 259.64 226.26 259.37C226.4 259.1 226.56 258.86 226.74 258.64C226.92 258.43 227.11 258.26 227.31 258.14C227.54 258.01 227.75 257.94 227.93 257.95C228.11 257.96 228.27 258.01 228.4 258.13C228.53 258.25 228.63 258.42 228.7 258.64C228.77 258.86 228.8 259.13 228.8 259.44C228.8 259.59 228.79 259.76 228.75 259.93C228.72 260.1 228.68 260.28 228.63 260.45C228.58 260.62 228.53 260.79 228.47 260.96C228.41 261.13 228.36 261.28 228.32 261.42L227.24 264.5C227.22 264.54 227.2 264.59 227.17 264.65C227.15 264.71 227.11 264.76 227.05 264.79L226.71 264.99C226.67 265.01 226.65 265.01 226.62 264.98C226.6 264.95 226.59 264.91 226.59 264.86C226.59 264.83 226.59 264.8 226.6 264.78C226.61 264.76 226.61 264.74 226.62 264.72L227.48 262.35ZM228.25 259.76C228.25 259.57 228.23 259.41 228.18 259.27C228.13 259.13 228.07 259.03 227.99 258.95C227.91 258.87 227.81 258.84 227.7 258.84C227.59 258.84 227.46 258.88 227.33 258.96C227.19 259.04 227.07 259.15 226.95 259.28C226.84 259.41 226.74 259.56 226.66 259.73C226.58 259.89 226.52 260.07 226.47 260.26C226.42 260.45 226.4 260.64 226.4 260.83C226.4 261.03 226.42 261.19 226.47 261.33C226.51 261.47 226.58 261.57 226.66 261.64C226.74 261.71 226.84 261.75 226.95 261.75C227.06 261.75 227.19 261.71 227.33 261.63C227.46 261.55 227.59 261.45 227.7 261.31C227.82 261.18 227.91 261.03 227.99 260.86C228.07 260.69 228.13 260.52 228.18 260.33C228.23 260.15 228.25 259.96 228.25 259.76Z" fill="#455A64"/>
<path d="M229.79 261.66C229.81 261.75 229.84 261.83 229.87 261.91C229.9 261.99 229.96 262.04 230.03 262.08C230.1 262.12 230.2 262.12 230.31 262.1C230.43 262.08 230.58 262.02 230.77 261.91C230.89 261.84 231.01 261.75 231.12 261.64C231.23 261.53 231.33 261.4 231.41 261.26C231.49 261.11 231.56 260.95 231.61 260.78C231.66 260.61 231.69 260.42 231.69 260.22C231.69 260.02 231.67 259.87 231.62 259.76C231.57 259.65 231.51 259.58 231.43 259.54C231.35 259.5 231.25 259.5 231.14 259.53C231.03 259.56 230.91 259.61 230.78 259.68L230.29 259.97C230.25 260 230.21 259.99 230.18 259.96C230.15 259.93 230.13 259.88 230.13 259.81V259.48C230.13 259.42 230.14 259.37 230.16 259.31C230.18 259.25 230.2 259.2 230.22 259.15L231.29 256.76L229.58 257.75C229.54 257.78 229.5 257.77 229.47 257.74C229.44 257.71 229.42 257.66 229.42 257.59V257.26C229.42 257.19 229.44 257.13 229.47 257.06C229.5 256.99 229.54 256.95 229.58 256.92L231.92 255.57C231.96 255.55 232 255.55 232.03 255.58C232.06 255.61 232.08 255.66 232.08 255.73V256.06C232.08 256.11 232.07 256.17 232.05 256.24C232.03 256.3 232 256.37 231.97 256.44L230.92 258.8C231.12 258.69 231.3 258.63 231.46 258.63C231.63 258.62 231.77 258.67 231.88 258.76C232 258.85 232.09 259 232.15 259.19C232.21 259.38 232.25 259.62 232.25 259.91C232.25 260.22 232.21 260.52 232.13 260.82C232.05 261.12 231.94 261.38 231.81 261.63C231.68 261.87 231.52 262.09 231.34 262.29C231.16 262.49 230.97 262.64 230.77 262.76C230.5 262.91 230.27 263 230.08 263.01C229.89 263.03 229.73 262.99 229.6 262.91C229.48 262.83 229.38 262.71 229.32 262.55C229.26 262.39 229.23 262.22 229.22 262.02C229.22 261.96 229.23 261.91 229.26 261.85C229.29 261.8 229.32 261.76 229.35 261.74L229.62 261.58C229.66 261.55 229.7 261.55 229.72 261.58C229.77 261.58 229.79 261.62 229.79 261.66Z" fill="#455A64"/>
<path d="M226.34 277.37L261.44 257.03C261.84 256.8 262.16 256.96 262.16 257.39C262.16 257.82 261.84 258.36 261.44 258.59L226.34 278.93C225.94 279.16 225.62 279 225.62 278.57C225.62 278.14 225.94 277.6 226.34 277.37Z" fill="#E0E0E0"/>
<path d="M226.34 253.91L234.21 249.35C234.61 249.12 234.93 249.28 234.93 249.71C234.93 250.14 234.61 250.68 234.21 250.91L226.34 255.47C225.94 255.7 225.62 255.54 225.62 255.11C225.62 254.67 225.94 254.14 226.34 253.91Z" fill="#E0E0E0"/>
<path d="M278.41 200.38C280.14 199.38 281.74 199.33 283.04 200.03L278.41 212.51V200.38Z" fill="#27DEBF"/>
<path d="M273.78 205.38C275.08 203.17 276.68 201.38 278.41 200.38V212.52L273.78 205.38Z" fill="#27DEBF"/>
<path d="M270.91 213.1C271.43 210.34 272.45 207.64 273.78 205.38L278.41 212.52L270.91 213.1Z" fill="#27DEBF"/>
<path opacity="0.3" d="M273.78 205.38C272.45 207.64 271.43 210.34 270.91 213.1L278.41 212.52V200.38C276.68 201.38 275.08 203.17 273.78 205.38Z" fill="black"/>
<path d="M283.04 200.04C284.37 200.76 285.39 202.28 285.91 204.45L278.41 212.53L283.04 200.04Z" fill="#27DEBF"/>
<path d="M270.91 220.6C270.66 219.56 270.52 218.38 270.52 217.07C270.52 215.76 270.66 214.42 270.91 213.1L278.41 212.52L270.91 220.6Z" fill="#27DEBF"/>
<path d="M285.91 211.94C285.39 214.7 284.37 217.4 283.04 219.66L278.41 212.52L285.91 211.94Z" fill="#27DEBF"/>
<path d="M278.41 224.66C276.68 225.66 275.08 225.71 273.78 225L278.41 212.52V224.66Z" fill="#27DEBF"/>
<path d="M270.91 220.6L278.41 212.52L273.78 225C272.45 224.28 271.43 222.76 270.91 220.6Z" fill="#27DEBF"/>
<path d="M285.91 204.44C286.16 205.48 286.3 206.66 286.3 207.97C286.3 209.28 286.16 210.62 285.91 211.94L278.41 212.52L285.91 204.44Z" fill="#27DEBF"/>
<path d="M283.04 219.66C281.74 221.87 280.14 223.66 278.41 224.66V212.52L283.04 219.66Z" fill="#27DEBF"/>
<path d="M274.48 230.85L282.35 226.29C282.75 226.06 283.07 226.22 283.07 226.66C283.07 227.1 282.75 227.63 282.35 227.86L274.48 232.42C274.08 232.65 273.76 232.49 273.76 232.06C273.76 231.62 274.08 231.08 274.48 230.85Z" fill="#455A64"/>
<path d="M272.74 236.56L284.07 229.98C284.47 229.75 284.79 229.91 284.79 230.34C284.79 230.77 284.47 231.31 284.07 231.54L272.74 238.12C272.34 238.35 272.02 238.19 272.02 237.76C272.02 237.33 272.34 236.79 272.74 236.56Z" fill="#E0E0E0"/>
<path d="M272.74 241.26L284.07 234.68C284.47 234.45 284.79 234.61 284.79 235.04C284.79 235.47 284.47 236.01 284.07 236.24L272.74 242.82C272.34 243.05 272.02 242.89 272.02 242.46C272.02 242.03 272.34 241.49 272.74 241.26Z" fill="#E0E0E0"/>
<path d="M272.74 245.96L284.07 239.38C284.47 239.15 284.79 239.31 284.79 239.74C284.79 240.17 284.47 240.71 284.07 240.94L272.74 247.52C272.34 247.75 272.02 247.59 272.02 247.16C272.02 246.73 272.34 246.19 272.74 245.96Z" fill="#E0E0E0"/>
<path d="M306.84 183.9C308.57 182.9 310.17 182.85 311.47 183.55L306.84 196.03V183.9Z" fill="#27DEBF"/>
<path d="M302.21 188.9C303.51 186.69 305.11 184.9 306.84 183.9V196.04L302.21 188.9Z" fill="#27DEBF"/>
<path d="M299.35 196.62C299.87 193.86 300.89 191.16 302.22 188.9L306.85 196.04L299.35 196.62Z" fill="#27DEBF"/>
<path d="M311.47 183.56C312.8 184.28 313.82 185.8 314.34 187.97L306.84 196.05L311.47 183.56Z" fill="#27DEBF"/>
<path d="M299.35 204.12C299.1 203.08 298.96 201.9 298.96 200.59C298.96 199.28 299.1 197.94 299.35 196.62L306.85 196.04L299.35 204.12Z" fill="#27DEBF"/>
<path d="M314.34 195.46C313.82 198.22 312.8 200.92 311.47 203.18L306.84 196.04L314.34 195.46Z" fill="#27DEBF"/>
<path d="M306.84 208.18C305.11 209.18 303.51 209.23 302.21 208.52L306.84 196.04V208.18Z" fill="#27DEBF"/>
<path d="M299.35 204.12L306.85 196.04L302.22 208.52C300.88 207.8 299.87 206.28 299.35 204.12Z" fill="#27DEBF"/>
<path opacity="0.3" d="M302.21 188.9C300.88 191.16 299.86 193.86 299.34 196.62C299.09 197.95 298.95 199.28 298.95 200.59C298.95 201.9 299.09 203.08 299.34 204.12C299.86 206.28 300.88 207.8 302.21 208.53L306.84 196.05V183.9C305.11 184.9 303.51 186.69 302.21 188.9Z" fill="black"/>
<path d="M314.34 187.96C314.59 189 314.73 190.18 314.73 191.49C314.73 192.8 314.59 194.14 314.34 195.46L306.84 196.04L314.34 187.96Z" fill="#27DEBF"/>
<path d="M311.47 203.18C310.17 205.39 308.57 207.18 306.84 208.18V196.04L311.47 203.18Z" fill="#27DEBF"/>
<path d="M302.91 214.43L310.78 209.87C311.18 209.64 311.5 209.8 311.5 210.24C311.5 210.67 311.18 211.21 310.78 211.44L302.91 216C302.51 216.23 302.19 216.07 302.19 215.64C302.19 215.21 302.51 214.66 302.91 214.43Z" fill="#455A64"/>
<path d="M301.18 220.14L312.51 213.56C312.91 213.33 313.23 213.49 313.23 213.92C313.23 214.35 312.91 214.89 312.51 215.12L301.17 221.7C300.77 221.93 300.45 221.77 300.45 221.34C300.45 220.91 300.78 220.37 301.18 220.14Z" fill="#E0E0E0"/>
<path d="M301.18 224.84L312.51 218.26C312.91 218.03 313.23 218.19 313.23 218.62C313.23 219.05 312.91 219.59 312.51 219.82L301.17 226.4C300.77 226.63 300.45 226.47 300.45 226.03C300.45 225.59 300.78 225.07 301.18 224.84Z" fill="#E0E0E0"/>
<path d="M301.18 229.54L312.51 222.96C312.91 222.73 313.23 222.89 313.23 223.32C313.23 223.75 312.91 224.29 312.51 224.52L301.17 231.1C300.77 231.33 300.45 231.17 300.45 230.73C300.45 230.29 300.78 229.77 301.18 229.54Z" fill="#E0E0E0"/>
<path d="M306.69 346.68C306.82 342.83 304.27 338.06 301 336.02C299.39 335.01 297.9 334.87 296.79 335.44C290.1 338.8 243.08 368.95 240.08 370.43L240.04 370.45C239.48 370.75 239.12 371.42 239.09 372.39C239.03 374.33 240.31 376.74 241.96 377.76C242.79 378.27 243.55 378.34 244.11 378.04L244.15 378.02C248.91 375.4 295.31 355.62 304.8 350.54C304.8 350.54 304.8 350.54 304.81 350.54C305.91 349.93 306.63 348.6 306.69 346.68Z" fill="#27DEBF"/>
<path opacity="0.1" d="M304.84 340.18C303.83 338.46 302.5 336.95 301 336.02C299.39 335.02 297.91 334.87 296.8 335.43C296.58 335.55 296.51 335.59 296.66 335.5C290.55 338.62 255.56 360.95 243.79 368.2C243.76 368.22 243.74 368.23 243.71 368.25C243.55 368.35 243.39 368.45 243.23 368.54C243.18 368.57 243.13 368.6 243.09 368.63C243 368.69 242.91 368.74 242.82 368.79C242.71 368.85 242.61 368.92 242.5 368.98C242.49 368.98 242.48 368.99 242.48 368.99C241.23 369.75 240.4 370.25 240.07 370.41L240.03 370.43C239.93 370.48 239.84 370.56 239.75 370.64C239.36 371 239.1 371.57 239.07 372.37C239.06 372.59 239.08 372.82 239.1 373.04C239.11 373.13 239.13 373.21 239.14 373.3C239.16 373.44 239.19 373.57 239.22 373.71C239.25 373.82 239.27 373.93 239.31 374.04C239.35 374.17 239.39 374.3 239.44 374.43C239.47 374.53 239.51 374.62 239.54 374.72C239.55 374.74 239.55 374.75 239.56 374.77L304.84 340.18Z" fill="black"/>
<path d="M241.94 377.75C240.3 376.73 239.02 374.33 239.09 372.4C239.16 370.47 240.54 369.73 242.18 370.75C243.82 371.77 245.1 374.17 245.03 376.1C244.96 378.04 243.58 378.77 241.94 377.75Z" fill="#27DEBF"/>
<path d="M227.89 379.05C227.84 380.53 228.82 382.37 230.08 383.16C230.71 383.55 231.28 383.61 231.71 383.38H231.72L243.09 377.33C243.09 377.33 243.09 377.33 243.1 377.33C243.53 377.1 243.8 376.59 243.83 375.85C243.88 374.37 242.9 372.53 241.64 371.74C241.01 371.35 240.43 371.29 240 371.52L228.63 377.57C228.2 377.79 227.92 378.3 227.89 379.05Z" fill="#37474F"/>
<path d="M228.63 377.56C228.2 377.79 227.92 378.3 227.89 379.05C227.87 379.61 228 380.22 228.23 380.8L242.9 372.98C242.55 372.46 242.11 372.02 241.64 371.73C241.01 371.34 240.43 371.28 240 371.51L228.63 377.56Z" fill="#263238"/>
<path d="M242.48 389.14C242.48 381.85 237.66 374.56 228.03 369C208.77 357.88 177.54 357.88 158.28 369C148.65 374.56 143.83 381.85 143.83 389.14V402.56C143.83 409.85 148.65 417.14 158.28 422.7C177.54 433.82 208.77 433.82 228.03 422.7C237.66 417.14 242.48 409.85 242.48 402.56V389.14ZM160.67 373.14C169.27 368.17 180.81 365.44 193.16 365.44C205.51 365.44 217.05 368.17 225.65 373.14C233.43 377.63 237.71 383.31 237.71 389.15C237.71 394.98 233.43 400.66 225.65 405.15C217.05 410.12 205.51 412.85 193.16 412.85C180.81 412.85 169.27 410.12 160.67 405.15C152.89 400.66 148.61 394.98 148.61 389.15C148.6 383.31 152.89 377.63 160.67 373.14Z" fill="#27DEBF"/>
<path opacity="0.3" d="M158.28 409.28C177.54 420.4 208.77 420.4 228.03 409.28C247.29 398.16 247.29 380.13 228.03 369.01C208.77 357.89 177.54 357.89 158.28 369.01C139.02 380.13 139.02 398.16 158.28 409.28ZM148.6 389.14C148.6 383.31 152.88 377.62 160.66 373.13C169.26 368.16 180.8 365.43 193.15 365.43C205.5 365.43 217.04 368.16 225.64 373.13C233.42 377.62 237.7 383.3 237.7 389.14C237.7 394.97 233.42 400.65 225.64 405.14C217.04 410.11 205.5 412.84 193.15 412.84C180.8 412.84 169.26 410.11 160.66 405.14C152.88 400.66 148.6 394.97 148.6 389.14Z" fill="white"/>
<path d="M148.6 389.14C148.6 391.43 149.26 393.68 150.53 395.86C152.49 392.47 155.93 389.3 160.67 386.57C169.27 381.6 180.81 378.86 193.16 378.86C205.5 378.86 217.05 381.6 225.64 386.57C230.38 389.3 233.82 392.48 235.79 395.86C237.05 393.69 237.71 391.43 237.71 389.14C237.71 383.31 233.43 377.63 225.64 373.13C217.04 368.17 205.5 365.43 193.16 365.43C180.81 365.43 169.26 368.17 160.67 373.13C152.88 377.63 148.6 383.31 148.6 389.14Z" fill="#27DEBF"/>
<path opacity="0.1" d="M148.6 389.14C148.6 391.43 149.26 393.68 150.53 395.86C152.49 392.47 155.93 389.3 160.67 386.57C169.27 381.6 180.81 378.86 193.16 378.86C205.5 378.86 217.05 381.6 225.64 386.57C230.38 389.3 233.82 392.48 235.79 395.86C237.05 393.69 237.71 391.43 237.71 389.14C237.71 383.31 233.43 377.63 225.64 373.13C217.04 368.17 205.5 365.43 193.16 365.43C180.81 365.43 169.26 368.17 160.67 373.13C152.88 377.63 148.6 383.31 148.6 389.14Z" fill="black"/>
<path opacity="0.4" d="M160.66 379.21C169.26 374.24 180.8 371.51 193.15 371.51C205.5 371.51 217.04 374.24 225.64 379.21C232.06 382.92 236.09 387.43 237.3 392.18C236.08 396.92 232.05 401.44 225.64 405.15C217.04 410.12 205.5 412.85 193.15 412.85C180.8 412.85 169.26 410.12 160.66 405.15C154.24 401.44 150.21 396.93 149 392.18C150.21 387.44 154.24 382.92 160.66 379.21Z" fill="white"/>
<path opacity="0.1" d="M181.53 416.83V430.24C173.01 429.06 164.93 426.55 158.28 422.7C148.65 417.14 143.83 409.85 143.83 402.56V389.14C143.83 387.67 144.03 386.2 144.42 384.74H144.43C142.09 393.41 146.71 402.59 158.28 409.28C164.93 413.12 173.01 415.63 181.53 416.83Z" fill="black"/>
<path d="M416.61 334.86C417.19 335.1 417.32 336.22 417.36 338.45C417.39 340.14 417.68 343.09 415.69 343.64C413.7 344.19 410.81 343.82 409.58 342.2C408.04 340.18 407.02 338.41 404.81 335.94C402.9 333.8 400.83 331.79 400.1 328.82C399.45 326.14 400.07 325 401.9 324.27C404.42 323.26 408.27 326.83 410.21 327.42C411.9 327.92 416.03 334.62 416.61 334.86Z" fill="#263238"/>
<path d="M416.66 332.8L416.6 335.54C416.6 335.54 413.7 337.66 409.68 335.57C409.57 335.3 409.05 331.64 409.05 331.64L416.66 332.8Z" fill="#FFA8A7"/>
<path d="M394.09 350.14C394.09 350.14 394.82 352.54 395.2 354.63C395.5 356.29 395.92 359.07 395.31 360.3C394.7 361.53 392.42 362.28 388.92 362.18C386.65 362.11 383.08 363.57 380.63 364.87C378.1 366.21 372.88 366.65 370.24 366.28C367.13 365.84 363.94 363.96 363.47 362.66C362.99 361.36 363.69 360.03 371.11 357.07C371.18 357.04 381.4 353.97 385.05 350.13L394.09 350.14Z" fill="#263238"/>
<path d="M394.16 347.18C394.16 347.18 394.1 349.21 394.09 350.37C394.07 351.53 392.66 353.23 389.12 353.02C386.63 352.87 384.9 352.17 385.05 350.11L385.12 347.15L394.16 347.18Z" fill="#FFA8A7"/>
<path d="M419.26 296.51C418.21 287.54 416.35 282.18 416.35 282.18C416.35 282.18 417.6 269.9 418.34 258.25C419.13 245.66 419.86 239.18 417.39 221C417.39 221 378.8 217.53 377.75 232.08C376.7 246.63 378.19 283.75 378.53 290.16C378.87 296.57 379.84 302.25 380.93 312.65C382 322.91 385.12 347.16 385.12 347.16C389.71 349.77 394.17 347.18 394.17 347.18C394.17 347.18 397.69 318.13 397.55 310.74C397.39 301.72 395.11 294.56 395.11 294.56C395.11 294.56 396.15 282.57 397.07 272.14C397.99 261.71 398.82 256.71 399.08 252.17L399.96 251.76C399.96 251.76 400.45 269.8 400.78 276.21C401.12 282.62 402 288.78 403.58 300.7C404.95 311.04 409.24 332.96 409.24 332.96C413.83 335.58 416.66 332.8 416.66 332.8C416.66 332.8 420.31 305.48 419.26 296.51Z" fill="#37474F"/>
<path d="M399.07 252.17C399.07 252.17 409.04 247.53 414.08 243.26C414.08 243.26 409.35 249.61 403.27 252.34C403.27 252.34 400.63 274.68 400.65 274.23L399.91 252.15L399.07 252.17Z" fill="#263238"/>
<path d="M392.16 169.15L393.66 182.47L406.24 181.84L404.84 166.29L392.16 169.15Z" fill="#FFA8A7"/>
<path d="M410.99 174.25C415.67 174.03 418.05 174.74 420.16 178.78C422.26 182.82 423.09 194.89 423.82 201.12C424.55 207.35 424.74 211.74 422.17 212.38C419.61 213.02 409.63 213.3 409.63 213.3L410.99 174.25Z" fill="#37474F"/>
<path d="M418.89 181.15C418.21 177.42 413.31 173.5 408.72 174.25C407.65 174.42 406.62 174.6 405.6 174.78C405.05 177.02 398.91 178.42 393.04 177.04C391.27 177.5 385.45 178.59 383.98 179.08C379.76 180.48 378.02 184.63 377.37 198.39C377.37 198.39 377.71 229.54 377.54 235.74C387.95 240.13 398.88 240.25 404.95 239.07C417.58 236.61 419.22 231.42 419.22 231.42L417.34 217.17C417.34 217.18 420.43 189.59 418.89 181.15Z" fill="#455A64"/>
<path d="M392.65 173.54L392.74 174.38C392.74 174.38 396.38 175.29 400.47 174.38C404.56 173.47 405.38 172.32 405.38 172.32L405.3 171.37C405.3 171.37 406.32 170.99 406.85 172.56C407.39 174.13 407.44 174.47 407.44 174.47C407.44 174.47 407.91 177.33 403.1 178.79C396.18 180.89 391.13 177.48 391.13 177.48L389.25 177.88C389.25 177.88 390.88 174.12 391.37 173.36C391.86 172.6 392.55 172.71 392.55 172.71L392.65 173.54Z" fill="#37474F"/>
<path d="M354.24 159.25L329.29 172.28L341.69 206.17L364.97 193.13L354.24 159.25Z" fill="#455A64"/>
<path d="M353.1 162.57L332.16 173.5L343.14 202.64L362.67 191.7L353.1 162.57Z" fill="#F5F5F5"/>
<path opacity="0.15" d="M348.68 165.72C348.68 165.72 348.5 165.26 348.27 164.68C348.05 164.11 346.3 164.45 344.38 165.44L340.69 167.34C338.77 168.33 337.39 169.6 337.61 170.18L338.02 171.22L348.68 165.72Z" fill="black"/>
<path d="M348.27 161.57C348.13 161.21 347.37 161.27 346.58 161.7L345.14 162.48C345.14 162.48 344.25 160.24 340.93 161.79C337.61 163.34 338.37 165.94 338.37 165.94C338.37 165.94 337.68 166.32 336.84 166.78C335.99 167.25 335.39 167.92 335.49 168.28L335.68 168.94L348.53 162.23C348.53 162.24 348.41 161.93 348.27 161.57Z" fill="#27DEBF"/>
<path d="M346.89 163.07C345.69 163.66 345.22 163.94 345.57 164.82C345.96 165.83 346.33 166.55 346.33 166.55L340.65 169.52C340.65 169.52 340.18 168.24 339.97 167.74C339.76 167.24 339.35 167.01 338.44 167.48L338.1 167.12L347.07 162.55L346.89 163.07Z" fill="#27DEBF"/>
<path opacity="0.3" d="M346.89 163.07C345.69 163.66 345.22 163.94 345.57 164.82C345.96 165.83 346.33 166.55 346.33 166.55L340.65 169.52C340.65 169.52 340.18 168.24 339.97 167.74C339.76 167.24 339.35 167.01 338.44 167.48L338.1 167.12L347.07 162.55L346.89 163.07Z" fill="black"/>
<path d="M348.92 165.77C348.92 165.77 348.74 165.31 348.51 164.73C348.29 164.16 346.54 164.5 344.62 165.49L340.93 167.39C339.01 168.38 337.63 169.65 337.85 170.23L338.26 171.27L348.92 165.77Z" fill="#27DEBF"/>
<path d="M383.98 179.09C378.22 179.59 375.77 180.64 371.44 188.44C366.75 196.9 357.73 212.22 356.58 214.15C354.99 216.84 354.69 220.93 356.06 223.4C357.34 225.71 361.41 226.76 366.03 221.55C371.52 215.35 381.73 200.21 381.73 200.21C381.73 200.21 390.41 188.77 383.98 179.09Z" fill="#FFA8A7"/>
<path d="M358.46 225.17C354.04 224.63 343.73 210.64 340.8 206.07C337.59 201.07 334.6 198.66 331.87 196.64C327.2 193.19 327.88 187.88 329.92 183.02C330.63 181.34 333.02 182.43 333.02 182.43L333.86 184.74L335.32 188.74C336.31 189.66 336.87 189.96 336.94 189.68C337.07 189.16 336.21 187.02 336.23 184.78C336.25 182.09 338.14 183.86 338.7 184.8C339.26 185.74 339.92 187.28 340.69 189.25C341.63 191.66 341.24 194.1 342.39 195.75C343.54 197.39 358.92 212.13 358.92 212.13L358.46 225.17Z" fill="#FFA8A7"/>
<path d="M385.09 178.79C381.6 178.7 377.41 179.26 374.16 183.48C370.91 187.7 357.91 210.65 357.91 210.65L350.61 204.11C350.61 204.11 346.02 206.76 345 212.04C345 212.04 348.52 217.62 351.61 221.01C354.69 224.39 358.13 226.74 360.95 225.7C363.77 224.66 366.65 222.43 372.72 213.97C378.79 205.51 385.42 195.54 385.42 195.54C385.42 195.54 389.61 185.79 385.09 178.79Z" fill="#37474F"/>
<path d="M383.29 152.84C383.29 152.84 380.15 157.61 380.51 158.07C380.87 158.54 383.18 158.96 383.18 158.96L383.29 152.84Z" fill="#F28F8F"/>
<path d="M384.76 155.9C382.7 155.9 381.02 154.22 381.02 152.16C381.02 150.1 382.7 148.42 384.76 148.42C386.82 148.42 388.5 150.1 388.5 152.16C388.51 154.22 386.83 155.9 384.76 155.9ZM384.76 149.25C383.16 149.25 381.85 150.56 381.85 152.16C381.85 153.76 383.16 155.07 384.76 155.07C386.37 155.07 387.67 153.76 387.67 152.16C387.67 150.55 386.37 149.25 384.76 149.25Z" fill="#263238"/>
<path d="M392.02 139.65C385.66 140.99 383.83 143.79 383.23 153.88C382.6 164.43 383.68 167.75 385.07 169.17C386.01 170.13 391.21 170.3 393.83 169.58C397.11 168.67 404.53 166.05 408.01 160.74C412.1 154.49 413.17 146.03 408.8 142.56C402.63 137.67 394.6 139.1 392.02 139.65Z" fill="#FFA8A7"/>
<path d="M392.24 169.88L391.95 167.94C391.95 167.94 388.89 169.7 385.43 169.42C386.64 170.01 389.8 170.18 392.24 169.88Z" fill="#F28F8F"/>
<path d="M381.37 151.37L392.67 152.84L392.22 153.63L381.37 152.22V151.37Z" fill="#263238"/>
<path d="M382.14 143.73C382.62 143.8 383.11 143.77 383.58 143.64C383.16 144.54 383.56 145.69 384.35 146.29C385.15 146.89 386.25 146.97 387.2 146.67C386.86 147.26 386.74 147.97 386.89 148.64C387.19 150.02 388.75 151.22 390.18 151.02C390.25 152.5 390.27 153.94 391.84 154.62C391.84 154.62 392.84 150.72 396.13 151.21C399.44 151.7 399.89 155.92 397.8 158.48C395.73 161.03 393.8 160.07 393.77 160.06C393.96 160.16 394.03 161.4 394.1 161.64C394.31 162.37 394.59 163.1 394.94 163.77C395.65 165.14 396.67 166.34 397.92 167.26C399.64 168.53 401.74 169.43 403.88 168.92C405.74 168.47 407.44 167.19 408.23 165.42C408.43 164.98 408.59 164.49 408.94 164.16C409.37 163.75 410 163.65 410.56 163.46C411.86 163.02 412.94 161.99 413.45 160.72C413.96 159.45 413.88 157.96 413.25 156.74C414.81 156.34 416.09 155.02 416.44 153.45C416.78 151.88 416.17 150.14 414.92 149.12C416.78 147.98 417.75 145.55 417.17 143.44C416.67 141.63 415.17 140.34 413.41 139.84C412.13 139.47 412.62 139.27 412.22 138.01C411.95 137.15 411.44 136.37 410.74 135.8C409.54 134.82 407.84 134.5 406.36 134.99C406.07 133.35 404.77 132.02 403.19 131.57C402.47 131.37 401.68 131.29 400.95 131.48C400.42 131.62 399.34 132.11 399.14 132.61C398.47 131.95 398.25 131.08 397.44 130.49C396.61 129.88 395.59 129.53 394.55 129.53C392.84 129.54 391.17 130.52 390.34 132.01C389.19 130.82 387.55 130.07 385.9 130.14C384.25 130.21 382.62 131.15 381.85 132.61C381.08 134.07 381.26 136.02 382.39 137.23C381.37 137.66 380.43 138.37 379.93 139.36C379.39 140.43 379.46 141.77 380.28 142.68C380.67 143.12 380.93 143.41 381.52 143.6C381.73 143.65 381.94 143.7 382.14 143.73Z" fill="#263238"/>
<path d="M391.78 156.83L391.9 152.42C390.68 152.39 389.67 153.35 389.63 154.57C389.6 155.78 390.56 156.8 391.78 156.83Z" fill="#263238"/>
</svg>
