<svg width="80" height="80" viewBox="0 0 80 80" fill="none" xmlns="http://www.w3.org/2000/svg">
<circle cx="40" cy="40" r="40" fill="#7BB9FF"/>
<circle cx="40" cy="40" r="40" fill="url(#paint0_linear)"/>
<path d="M56.9344 28.3115L56.7621 60.0163C56.7531 61.6668 55.4126 63 53.7622 63H26C24.3431 63 23 61.6569 23 60V20C23 18.3431 24.3431 17 26 17H46.5656M56.9344 28.3115H49.0164C47.6967 28.3115 46.7164 27.7082 46.5656 26.0492C46.4148 24.3902 46.5027 19.3251 46.5656 17M56.9344 28.3115L46.5656 17" stroke="white" stroke-width="2"/>
<path d="M28.3759 35.4754V31.7071H29.1749V35.4754H28.3759Z" fill="white"/>
<path d="M33.4664 35.4754H32.4509L30.8116 32.6247H30.7884C30.821 33.1282 30.8374 33.4873 30.8374 33.7021V35.4754H30.1234V31.7071H31.1312L32.7679 34.5295H32.7859C32.7602 34.0398 32.7473 33.6935 32.7473 33.4908V31.7071H33.4664V35.4754Z" fill="white"/>
<path d="M36.5671 31.7071H37.3739L36.0928 35.4754H35.2217L33.9432 31.7071H34.75L35.4588 33.9496C35.4983 34.0819 35.5387 34.2365 35.5799 34.4135C35.6229 34.5888 35.6495 34.7108 35.6598 34.7795C35.6787 34.6214 35.7432 34.3448 35.8531 33.9496L36.5671 31.7071Z" fill="white"/>
<path d="M41.271 33.5861C41.271 34.2099 41.1164 34.6893 40.8071 35.0244C40.4978 35.3594 40.0544 35.527 39.4771 35.527C38.8997 35.527 38.4564 35.3594 38.1471 35.0244C37.8378 34.6893 37.6832 34.2082 37.6832 33.581C37.6832 32.9538 37.8378 32.4752 38.1471 32.1453C38.4581 31.8137 38.9032 31.6479 39.4822 31.6479C40.0613 31.6479 40.5038 31.8145 40.8096 32.1479C41.1172 32.4812 41.271 32.9607 41.271 33.5861ZM38.5208 33.5861C38.5208 34.0071 38.6007 34.3241 38.7605 34.5372C38.9203 34.7503 39.1592 34.8568 39.4771 34.8568C40.1146 34.8568 40.4333 34.4333 40.4333 33.5861C40.4333 32.7373 40.1163 32.3128 39.4822 32.3128C39.1643 32.3128 38.9246 32.4202 38.7631 32.635C38.6016 32.8481 38.5208 33.1651 38.5208 33.5861Z" fill="white"/>
<path d="M42.052 35.4754V31.7071H42.851V35.4754H42.052Z" fill="white"/>
<path d="M45.4001 32.318C45.0994 32.318 44.8666 32.4314 44.7016 32.6582C44.5367 32.8833 44.4542 33.1978 44.4542 33.6016C44.4542 34.4419 44.7695 34.862 45.4001 34.862C45.6648 34.862 45.9852 34.7958 46.3615 34.6635V35.3337C46.0522 35.4625 45.7069 35.527 45.3254 35.527C44.7772 35.527 44.358 35.3612 44.0676 35.0295C43.7772 34.6962 43.632 34.2185 43.632 33.5964C43.632 33.2047 43.7033 32.8619 43.8459 32.568C43.9885 32.2725 44.193 32.0465 44.4594 31.8901C44.7274 31.7321 45.041 31.653 45.4001 31.653C45.7661 31.653 46.1339 31.7415 46.5033 31.9185L46.2456 32.568C46.1047 32.501 45.9629 32.4426 45.8203 32.3928C45.6776 32.3429 45.5376 32.318 45.4001 32.318Z" fill="white"/>
<path d="M49.336 35.4754H47.1657V31.7071H49.336V32.3618H47.9647V33.1892H49.2406V33.8439H47.9647V34.8156H49.336V35.4754Z" fill="white"/>
<path d="M27.9017 39.2459H40.1558H52.4099" stroke="white" stroke-width="2"/>
<path d="M27.9017 43.0164H40.1558H52.4099" stroke="white" stroke-width="2"/>
<path d="M27.9017 46.7869H40.1558H52.4099" stroke="white" stroke-width="2"/>
<path d="M27.9017 52.4426H34.3115H40.7213" stroke="white" stroke-width="2"/>
<path d="M27.9017 57.3443H34.3115H40.7213" stroke="white" stroke-width="2"/>
<path d="M50.9164 52.4897C51.0384 52.4897 51.1373 52.3908 51.1373 52.2688V51.5324C51.1373 51.4104 51.0384 51.3115 50.9164 51.3115H45.4668C45.3448 51.3115 45.2459 51.4104 45.2459 51.5324V52.3562C45.2459 52.4782 45.3448 52.5772 45.4668 52.5772H47.0369C47.5397 52.5772 47.9254 52.7605 48.1594 53.0789H45.4668C45.3448 53.0789 45.2459 53.1778 45.2459 53.2998V54.0362C45.2459 54.1582 45.3448 54.2572 45.4668 54.2572H48.3897C48.2752 54.9215 47.7828 55.3366 47.0133 55.3366H45.4668C45.3448 55.3366 45.2459 55.4355 45.2459 55.5575V56.5335C45.2459 56.5952 45.2717 56.654 45.317 56.6959L48.3557 59.5008C48.3965 59.5385 48.45 59.5594 48.5055 59.5594H50.0256C50.2267 59.5594 50.3232 59.3126 50.1754 59.1761L47.3976 56.612C48.806 56.5689 49.812 55.629 49.9441 54.2572H50.9164C51.0384 54.2572 51.1373 54.1582 51.1373 54.0362V53.2998C51.1373 53.1778 51.0384 53.0789 50.9164 53.0789H49.8359C49.7717 52.8664 49.6834 52.6693 49.5735 52.4897H50.9164Z" fill="white"/>
<defs>
<linearGradient id="paint0_linear" x1="42" y1="-2.5" x2="40" y2="94.5" gradientUnits="userSpaceOnUse">
<stop stop-color="#0077FD"/>
<stop offset="0.765625" stop-color="#C1DEFF" stop-opacity="0.469017"/>
<stop offset="1" stop-color="white" stop-opacity="0"/>
</linearGradient>
</defs>
</svg>
