<svg width="507" height="401" viewBox="0 0 507 401" fill="none" xmlns="http://www.w3.org/2000/svg">
<path d="M421.69 129.577L412.916 138.342" stroke="white" stroke-width="2" stroke-miterlimit="10" stroke-linecap="round" stroke-linejoin="round"/>
<path d="M421.69 138.342L412.916 129.577" stroke="white" stroke-width="2" stroke-miterlimit="10" stroke-linecap="round" stroke-linejoin="round"/>
<path d="M53.9321 194.564L45.1584 203.33" stroke="white" stroke-width="2" stroke-miterlimit="10" stroke-linecap="round" stroke-linejoin="round"/>
<path d="M53.9321 203.33L45.1584 194.564" stroke="white" stroke-width="2" stroke-miterlimit="10" stroke-linecap="round" stroke-linejoin="round"/>
<path d="M121.134 127.321C124.288 127.321 126.844 124.767 126.844 121.617C126.844 118.467 124.288 115.913 121.134 115.913C117.981 115.913 115.425 118.467 115.425 121.617C115.425 124.767 117.981 127.321 121.134 127.321Z" stroke="white" stroke-width="2" stroke-miterlimit="10" stroke-linecap="round" stroke-linejoin="round"/>
<path opacity="0.9091" d="M322.246 393.094C395.329 393.094 454.575 386.691 454.575 378.792C454.575 370.894 395.329 364.49 322.246 364.49C249.164 364.49 189.918 370.894 189.918 378.792C189.918 386.691 249.164 393.094 322.246 393.094Z" fill="url(#paint0_radial)"/>
<path opacity="0.9091" d="M322.246 393.094C395.329 393.094 454.575 386.691 454.575 378.792C454.575 370.894 395.329 364.49 322.246 364.49C249.164 364.49 189.918 370.894 189.918 378.792C189.918 386.691 249.164 393.094 322.246 393.094Z" fill="url(#paint1_radial)"/>
<path opacity="0.9091" d="M374.672 381.731C447.755 381.731 507 375.328 507 367.428C507 359.528 447.755 353.125 374.672 353.125C301.589 353.125 242.344 359.528 242.344 367.428C242.344 375.328 301.589 381.731 374.672 381.731Z" fill="url(#paint2_radial)"/>
<path opacity="0.9091" d="M374.672 381.731C447.755 381.731 507 375.328 507 367.428C507 359.528 447.755 353.125 374.672 353.125C301.589 353.125 242.344 359.528 242.344 367.428C242.344 375.328 301.589 381.731 374.672 381.731Z" fill="url(#paint3_radial)"/>
<path opacity="0.9091" d="M132.328 401C205.411 401 264.656 394.596 264.656 386.697C264.656 378.797 205.411 372.393 132.328 372.393C59.2453 372.393 0 378.797 0 386.697C0 394.596 59.2453 401 132.328 401Z" fill="url(#paint4_radial)"/>
<path opacity="0.9091" d="M132.328 401C205.411 401 264.656 394.596 264.656 386.697C264.656 378.797 205.411 372.393 132.328 372.393C59.2453 372.393 0 378.797 0 386.697C0 394.596 59.2453 401 132.328 401Z" fill="url(#paint5_radial)"/>
<path opacity="0.9091" d="M214.781 376.296C301.053 376.296 370.99 369.893 370.99 361.994C370.99 354.095 301.053 347.692 214.781 347.692C128.508 347.692 58.5708 354.095 58.5708 361.994C58.5708 369.893 128.508 376.296 214.781 376.296Z" fill="url(#paint6_radial)"/>
<path opacity="0.9091" d="M214.781 376.296C301.053 376.296 370.99 369.893 370.99 361.994C370.99 354.095 301.053 347.692 214.781 347.692C128.508 347.692 58.5708 354.095 58.5708 361.994C58.5708 369.893 128.508 376.296 214.781 376.296Z" fill="url(#paint7_radial)"/>
<path opacity="0.9091" d="M214.781 376.296C301.053 376.296 370.99 369.893 370.99 361.994C370.99 354.095 301.053 347.692 214.781 347.692C128.508 347.692 58.5708 354.095 58.5708 361.994C58.5708 369.893 128.508 376.296 214.781 376.296Z" fill="url(#paint8_radial)"/>
<path opacity="0.9091" d="M214.781 385.237C301.053 385.237 370.99 376.831 370.99 366.463C370.99 356.094 301.053 347.689 214.781 347.689C128.508 347.689 58.5708 356.094 58.5708 366.463C58.5708 376.831 128.508 385.237 214.781 385.237Z" fill="url(#paint9_radial)"/>
<path d="M327.163 26.4979V337.724C327.163 346.766 319.815 354.107 310.765 354.107H186.005C176.953 354.107 169.606 346.766 169.606 337.724V26.4979C169.606 17.4558 176.953 10.1147 186.005 10.1147H310.765C319.815 10.1147 327.163 17.4543 327.163 26.4979Z" fill="white"/>
<path d="M297.704 19.6503H296.492V24.5574H297.704V19.6503Z" fill="#2A2A30"/>
<path d="M295.686 20.7359H294.474V24.5574H295.686V20.7359Z" fill="#2A2A30"/>
<path d="M293.667 22.1031H292.456V24.556H293.667V22.1031Z" fill="#2A2A30"/>
<path d="M291.65 23.1989H290.438V24.556H291.65V23.1989Z" fill="#2A2A30"/>
<path d="M303.087 24.556C303.508 24.556 303.849 24.2148 303.849 23.794C303.849 23.3732 303.508 23.032 303.087 23.032C302.665 23.032 302.324 23.3732 302.324 23.794C302.324 24.2148 302.665 24.556 303.087 24.556Z" fill="#2A2A30"/>
<path d="M304.529 22.7896C304.436 22.7896 304.343 22.7533 304.275 22.6793C303.666 22.0218 302.536 22.0189 301.891 22.6837C301.757 22.8201 301.541 22.8245 301.403 22.6924C301.265 22.5603 301.262 22.3426 301.394 22.2047C302.302 21.2628 303.907 21.2729 304.78 22.2091C304.911 22.3484 304.901 22.5676 304.761 22.6967C304.696 22.7591 304.612 22.7896 304.529 22.7896Z" fill="#2A2A30"/>
<path d="M305.163 21.6866C305.081 21.6866 305.001 21.6576 304.936 21.6009C303.916 20.7098 302.243 20.7214 301.236 21.6009C301.093 21.7272 300.874 21.7142 300.749 21.569C300.623 21.4253 300.637 21.2076 300.781 21.0828C302.038 19.9812 304.118 19.9696 305.389 21.0828C305.533 21.2076 305.548 21.4253 305.421 21.569C305.354 21.6459 305.26 21.6866 305.163 21.6866Z" fill="#2A2A30"/>
<path d="M305.84 20.5284C305.764 20.5284 305.69 20.5037 305.627 20.4558C304.18 19.3237 302.009 19.3252 300.56 20.4558C300.409 20.5734 300.192 20.5472 300.075 20.3963C299.957 20.2453 299.983 20.0291 300.134 19.913C301.827 18.5893 304.359 18.5893 306.053 19.913C306.204 20.0305 306.229 20.2468 306.113 20.3963C306.045 20.4819 305.941 20.5284 305.84 20.5284Z" fill="#2A2A30"/>
<path d="M183.356 18.3261V21.466H182.63V18.9092H182.002V18.3261H183.356ZM185.247 21.5198C184.987 21.5198 184.755 21.4555 184.552 21.3269C184.349 21.1983 184.189 21.0129 184.072 20.7707C183.958 20.5255 183.902 20.2339 183.902 19.896C183.902 19.5581 183.958 19.2681 184.072 19.0258C184.189 18.7806 184.349 18.5937 184.552 18.4652C184.755 18.3366 184.987 18.2723 185.247 18.2723C185.507 18.2723 185.739 18.3366 185.943 18.4652C186.146 18.5937 186.304 18.7806 186.418 19.0258C186.535 19.2681 186.593 19.5581 186.593 19.896C186.593 20.2339 186.535 20.5255 186.418 20.7707C186.304 21.0129 186.146 21.1983 185.943 21.3269C185.739 21.4555 185.507 21.5198 185.247 21.5198ZM185.247 20.9053C185.439 20.9053 185.588 20.823 185.696 20.6586C185.807 20.4941 185.862 20.2399 185.862 19.896C185.862 19.5521 185.807 19.298 185.696 19.1335C185.588 18.969 185.439 18.8868 185.247 18.8868C185.059 18.8868 184.909 18.969 184.799 19.1335C184.691 19.298 184.637 19.5521 184.637 19.896C184.637 20.2399 184.691 20.4941 184.799 20.6586C184.909 20.823 185.059 20.9053 185.247 20.9053ZM187.359 19.8915C187.236 19.8915 187.133 19.8497 187.049 19.7659C186.965 19.6822 186.924 19.5776 186.924 19.452C186.924 19.3234 186.965 19.2202 187.049 19.1425C187.133 19.0617 187.236 19.0214 187.359 19.0214C187.481 19.0214 187.584 19.0617 187.668 19.1425C187.752 19.2202 187.794 19.3234 187.794 19.452C187.794 19.5776 187.752 19.6822 187.668 19.7659C187.584 19.8497 187.481 19.8915 187.359 19.8915ZM187.359 21.5018C187.236 21.5018 187.133 21.46 187.049 21.3762C186.965 21.2925 186.924 21.1878 186.924 21.0623C186.924 20.9337 186.965 20.8305 187.049 20.7528C187.133 20.672 187.236 20.6316 187.359 20.6316C187.481 20.6316 187.584 20.672 187.668 20.7528C187.752 20.8305 187.794 20.9337 187.794 21.0623C187.794 21.1878 187.752 21.2925 187.668 21.3762C187.584 21.46 187.481 21.5018 187.359 21.5018ZM189.331 18.3261V21.466H188.604V18.9092H187.976V18.3261H189.331ZM192.222 20.8739V21.466H189.85V20.995L191.061 19.8512C191.189 19.7286 191.276 19.6239 191.321 19.5372C191.366 19.4475 191.388 19.3593 191.388 19.2725C191.388 19.1469 191.345 19.0513 191.258 18.9855C191.174 18.9167 191.05 18.8823 190.886 18.8823C190.748 18.8823 190.624 18.9092 190.513 18.963C190.403 19.0139 190.31 19.0916 190.235 19.1963L189.706 18.8554C189.829 18.673 189.998 18.5309 190.213 18.4293C190.428 18.3246 190.675 18.2723 190.953 18.2723C191.186 18.2723 191.39 18.3111 191.563 18.3889C191.739 18.4637 191.876 18.5713 191.971 18.7119C192.07 18.8494 192.119 19.0124 192.119 19.2008C192.119 19.3712 192.083 19.5312 192.012 19.6807C191.94 19.8302 191.801 20.0007 191.594 20.1921L190.872 20.8739H192.222Z" fill="#2A2A30"/>
<path d="M316.54 24.4297H310.191C309.491 24.4297 308.92 23.8593 308.92 23.1597V21.2671C308.92 20.5661 309.491 19.9972 310.191 19.9972H316.54C317.24 19.9972 317.811 20.5661 317.811 21.2671V23.1597C317.811 23.8608 317.241 24.4297 316.54 24.4297ZM310.191 20.3426C309.68 20.3426 309.264 20.7577 309.264 21.2686V23.1612C309.264 23.6706 309.68 24.0857 310.191 24.0857H316.54C317.051 24.0857 317.467 23.6706 317.467 23.1612V21.2686C317.467 20.7577 317.051 20.3426 316.54 20.3426H310.191Z" fill="#2A2A30"/>
<path d="M315.536 23.7809C316.001 23.7809 316.378 23.4036 316.378 22.9391V21.4877C316.378 21.0233 316.001 20.6459 315.536 20.6459H310.667C310.202 20.6459 309.825 21.0218 309.825 21.4877V22.9391C309.825 23.4036 310.202 23.7809 310.667 23.7809H315.536Z" fill="#2A2A30"/>
<path d="M318.59 23.2947H317.467V21.1336H318.59V23.2947ZM317.811 22.9493H318.245V21.479H317.811V22.9493Z" fill="#2A2A30"/>
<path opacity="0.4" d="M323.913 251.693H171.335V282.654H323.913V251.693Z" fill="url(#paint10_linear)"/>
<path d="M284.507 261.289V268.735H282.783V262.672H281.294V261.289H284.507ZM288.354 264.086C289.403 264.086 290.176 264.296 290.673 264.714C291.176 265.133 291.428 265.693 291.428 266.395C291.428 266.849 291.315 267.264 291.088 267.64C290.861 268.009 290.513 268.306 290.045 268.533C289.584 268.753 289.013 268.863 288.332 268.863C287.808 268.863 287.29 268.796 286.779 268.661C286.276 268.519 285.847 268.321 285.492 268.065L286.173 266.746C286.456 266.959 286.783 267.126 287.152 267.246C287.52 267.36 287.9 267.416 288.29 267.416C288.722 267.416 289.063 267.331 289.311 267.161C289.559 266.991 289.683 266.753 289.683 266.448C289.683 266.129 289.552 265.888 289.29 265.725C289.035 265.562 288.588 265.48 287.949 265.48H286.045L286.428 261.289H290.971V262.672H287.864L287.747 264.086H288.354ZM298.202 266.555C298.202 267.136 297.989 267.636 297.564 268.055C297.138 268.466 296.525 268.721 295.723 268.821V270.012H294.659V268.852C294.135 268.824 293.635 268.732 293.159 268.576C292.684 268.42 292.301 268.228 292.01 268.001L292.596 266.704C292.865 266.902 293.181 267.069 293.542 267.204C293.904 267.338 294.276 267.423 294.659 267.459V265.682C294.156 265.562 293.73 265.427 293.383 265.278C293.035 265.129 292.744 264.913 292.51 264.629C292.276 264.338 292.159 263.955 292.159 263.48C292.159 262.891 292.372 262.388 292.798 261.969C293.23 261.544 293.851 261.285 294.659 261.193V260.012H295.723V261.172C296.596 261.242 297.315 261.459 297.883 261.82L297.351 263.129C296.819 262.824 296.276 262.64 295.723 262.576V264.384C296.22 264.498 296.638 264.629 296.979 264.778C297.326 264.92 297.617 265.136 297.851 265.427C298.085 265.711 298.202 266.086 298.202 266.555ZM293.872 263.395C293.872 263.572 293.94 263.718 294.074 263.831C294.209 263.945 294.404 264.04 294.659 264.118V262.608C294.39 262.672 294.191 262.774 294.064 262.916C293.936 263.051 293.872 263.211 293.872 263.395ZM295.723 267.416C295.979 267.36 296.17 267.267 296.298 267.14C296.425 267.012 296.489 266.86 296.489 266.682C296.489 266.505 296.422 266.36 296.287 266.246C296.159 266.133 295.971 266.033 295.723 265.948V267.416Z" fill="#7A4CC5"/>
<path d="M302.101 306.86H184.614V310.988H302.101V306.86Z" fill="#D9DCDD"/>
<path d="M273.581 328.251H184.614V332.38H273.581V328.251Z" fill="#D9DCDD"/>
<path d="M302.1 328.251H278.275V332.38H302.1V328.251Z" fill="#D9DCDD"/>
<path d="M251.624 296.165H184.614V300.293H251.624V296.165Z" fill="#D9DCDD"/>
<path d="M272.561 296.165H254.614V300.293H272.561V296.165Z" fill="#D9DCDD"/>
<path d="M302.1 296.165H275.552V300.293H302.1V296.165Z" fill="#D9DCDD"/>
<path d="M229.53 317.556H184.614V321.683H229.53V317.556Z" fill="#D9DCDD"/>
<path d="M302.1 317.556H235.654V321.683H302.1V317.556Z" fill="#D9DCDD"/>
<path d="M212.792 255.38H180.014V278.031H212.792V255.38Z" fill="url(#paint11_linear)"/>
<path d="M194.676 265.367H190.924V271.317H194.676V265.367Z" fill="#FDFCFF"/>
<path d="M195.295 265.367C195.295 265.367 196.632 263.696 198.38 259.908C198.641 259.342 199.984 259.827 199.294 262.227C198.762 264.078 198.554 264.406 198.554 264.406H202.336C202.58 264.406 202.791 264.567 202.846 264.805C203.119 265.989 203.686 269.513 201.235 271.22C201.143 271.284 201.028 271.316 200.918 271.316H195.297V265.367H195.295Z" fill="#FDFCFF"/>
<path d="M141.703 241.51H95.7517V341.804H141.703V241.51Z" fill="url(#paint12_linear)"/>
<g opacity="0.6">
<path opacity="0.6" d="M84.3325 341.802H95.7517V241.51L84.3325 245.301V341.802Z" fill="#A08652"/>
</g>
<path d="M201.612 265.195H164.035V289.406H201.612V265.195Z" fill="url(#paint13_linear)"/>
<g opacity="0.6">
<path opacity="0.6" d="M154.698 289.406H164.035V265.195L154.698 266.111V289.406Z" fill="#A08652"/>
</g>
<path d="M84.3325 341.802H95.7517V241.51L84.3325 245.301V341.802Z" fill="url(#paint14_linear)"/>
<path d="M154.698 289.406H164.035V265.195L154.698 266.111V289.406Z" fill="url(#paint15_linear)"/>
<g opacity="0.6">
<path opacity="0.6" d="M84.3325 341.802H95.7517V241.51L84.3325 245.301V341.802Z" fill="#A08652"/>
</g>
<path d="M84.3325 341.802H95.7517V241.51L84.3325 245.301V341.802Z" fill="url(#paint16_linear)"/>
<path d="M154.698 289.406H164.035V265.195L154.698 266.111V289.406Z" fill="url(#paint17_linear)"/>
<path d="M221.666 287.277H134.643V342.425H221.666V287.277Z" fill="url(#paint18_linear)"/>
<path d="M113.017 342.425H134.642V287.277L113.017 289.362V342.425Z" fill="url(#paint19_linear)"/>
<path d="M79.605 345.463C78.2277 345.463 76.9608 344.559 76.5628 343.168L45.7627 235.605H25.1078C23.3586 235.605 21.9407 234.187 21.9407 232.439C21.9407 230.693 23.3586 229.275 25.1078 229.275H48.1526C49.5662 229.275 50.8084 230.211 51.1978 231.57L82.6515 341.428C83.1339 343.107 82.1605 344.859 80.4781 345.338C80.1875 345.425 79.8955 345.463 79.605 345.463Z" fill="url(#paint20_linear)"/>
<path d="M234.472 287.746H63.4148V290.911H234.472V287.746Z" fill="url(#paint21_linear)"/>
<path d="M193.552 344.599L190.459 343.917L208.653 261.489L211.746 262.171L193.552 344.599Z" fill="url(#paint22_linear)"/>
<path d="M106.371 344.621L86.9636 262.193L90.0465 261.468L109.453 343.897L106.371 344.621Z" fill="url(#paint23_linear)"/>
<path d="M131.638 261.831H128.471V344.258H131.638V261.831Z" fill="url(#paint24_linear)"/>
<path d="M171.261 261.831H168.094V344.258H171.261V261.831Z" fill="url(#paint25_linear)"/>
<path d="M227.698 315.59H71.0029V318.754H227.698V315.59Z" fill="url(#paint26_linear)"/>
<path d="M192.006 377.414H73.7008C63.6777 377.414 55.5229 369.267 55.5229 359.254C55.5229 349.241 63.6762 341.094 73.7008 341.094H89.9565C91.7042 341.094 93.1236 342.512 93.1236 344.258C93.1236 346.006 91.7042 347.424 89.9565 347.424H73.7008C67.1703 347.424 61.8587 352.73 61.8587 359.254C61.8587 365.776 67.1703 371.083 73.7008 371.083H192.006C193.755 371.083 195.175 372.501 195.175 374.248C195.175 375.996 193.755 377.414 192.006 377.414Z" fill="url(#paint27_linear)"/>
<path d="M95.7518 391.885C105.055 391.885 112.597 384.351 112.597 375.057C112.597 365.762 105.055 358.228 95.7518 358.228C86.4483 358.228 78.9062 365.762 78.9062 375.057C78.9062 384.351 86.4483 391.885 95.7518 391.885Z" fill="url(#paint28_linear)"/>
<path d="M95.7518 381.676C99.4114 381.676 102.378 378.713 102.378 375.057C102.378 371.401 99.4114 368.437 95.7518 368.437C92.0922 368.437 89.1255 371.401 89.1255 375.057C89.1255 378.713 92.0922 381.676 95.7518 381.676Z" fill="white"/>
<path d="M163.404 391.885C172.708 391.885 180.25 384.351 180.25 375.057C180.25 365.762 172.708 358.228 163.404 358.228C154.101 358.228 146.559 365.762 146.559 375.057C146.559 384.351 154.101 391.885 163.404 391.885Z" fill="url(#paint29_linear)"/>
<path d="M163.404 391.885C172.708 391.885 180.25 384.351 180.25 375.057C180.25 365.762 172.708 358.228 163.404 358.228C154.101 358.228 146.559 365.762 146.559 375.057C146.559 384.351 154.101 391.885 163.404 391.885Z" fill="url(#paint30_linear)"/>
<path d="M163.404 381.676C167.064 381.676 170.031 378.713 170.031 375.057C170.031 371.401 167.064 368.437 163.404 368.437C159.745 368.437 156.778 371.401 156.778 375.057C156.778 378.713 159.745 381.676 163.404 381.676Z" fill="white"/>
<path d="M223.541 347.422H80.0148C78.5997 347.422 77.3561 346.483 76.9682 345.123L53.5195 262.696C53.2464 261.741 53.4397 260.715 54.0368 259.923C54.6353 259.13 55.5724 258.666 56.5647 258.666H242.136C243.097 258.666 244.007 259.104 244.609 259.854C245.21 260.605 245.436 261.587 245.226 262.525L226.629 344.953C226.303 346.396 225.02 347.422 223.541 347.422ZM82.4062 341.094H221.006L238.176 264.994H60.7561L82.4062 341.094Z" fill="url(#paint31_linear)"/>
<path d="M420.516 260.433C419.511 260.433 418.697 259.621 418.697 258.616V242.774C418.697 233.293 410.977 225.577 401.484 225.577C391.991 225.577 384.268 233.291 384.268 242.774V257.422C384.268 258.425 383.454 259.237 382.45 259.237C381.445 259.237 380.631 258.425 380.631 257.422V242.774C380.631 231.29 389.985 221.944 401.484 221.944C412.98 221.944 422.335 231.288 422.335 242.774V258.616C422.335 259.621 421.52 260.433 420.516 260.433Z" fill="#7A82EF"/>
<path d="M446.219 367.361V367.379L411.706 367.361L342.714 367.325H342.659L342.949 363.328L343.514 355.425L343.786 351.374L344.35 343.49L344.64 339.44L345.205 331.537L345.496 327.505L346.06 319.602L346.35 315.569L346.897 307.666L347.187 303.634L347.751 295.731L348.041 291.698L348.605 283.796L348.897 279.762L349.459 271.86L349.532 270.843L349.733 267.828L351.188 247.481L351.351 245.156H438.219L438.364 247.481L439.019 257.31L439.237 260.615L439.711 267.828L439.963 271.86L440.492 279.762L440.745 283.796L441.274 291.698L441.53 295.731L442.056 303.634L442.311 307.666L442.82 315.569L443.093 319.602L443.601 327.505L443.875 331.537L444.383 339.44L444.656 343.49L445.165 351.374L445.346 353.972L445.365 354.281L445.438 355.425L445.948 363.328L446.219 367.361Z" fill="#DD61A3"/>
<path d="M355.824 251.314L351.114 259.962L350.495 267.828L350.187 271.86L349.57 279.762L349.26 283.796L348.641 291.698L348.315 295.731L347.697 303.634L347.388 307.666L346.769 315.569L346.459 319.602L345.84 327.505L345.515 331.537L344.896 339.44L344.587 343.49L343.968 351.374L343.658 355.425L343.041 363.328L342.714 367.325L343.005 363.328L343.568 355.425L343.84 351.374L344.405 343.49L344.696 339.44L345.24 331.537L345.531 327.505L346.096 319.602L346.369 315.569L346.931 307.666L347.222 303.634L347.768 295.731H347.787L348.06 291.698L348.623 283.796L348.913 279.762L349.459 271.86L349.532 270.843L349.751 267.828L351.188 247.481L351.351 245.156L353.042 247.481L355.824 251.314Z" fill="#DD61A3"/>
<path d="M355.818 251.314V264.245L351.104 259.934L355.818 251.314Z" fill="#BF5A4D"/>
<path d="M446.401 367.361H446.383L446.311 366.434L446.274 365.744L446.074 363.328L445.457 355.425L445.365 354.281L445.346 353.972L445.147 351.374L444.511 343.49L444.201 339.44L443.584 331.537L443.255 327.505L442.637 319.602L442.327 315.569L441.711 307.666L441.383 303.634L440.764 295.731L440.454 291.698L439.837 283.796L439.51 279.762L438.891 271.86L438.582 267.828L437.963 259.979L436.218 256.419L433.726 251.332L434.437 250.352L436.527 247.481L438.201 245.174L438.364 247.481L439.019 257.31L439.237 260.615L439.273 261.287L439.728 267.828L439.982 271.86L440.528 279.762L440.783 283.796L441.328 291.698L441.583 295.731L442.128 303.634L442.382 307.666L442.927 315.569L443.183 319.602L443.728 327.505L443.983 331.537L444.528 339.44L444.801 343.49L445.329 351.374L445.6 355.425L446.129 363.328L446.401 367.361Z" fill="#DD61A3"/>
<path d="M433.728 249.355V258.143L437.96 255.226L433.728 249.355Z" fill="#BF5A4D"/>
<path d="M446.384 367.361V367.379H342.714V367.325L343.005 363.328L343.549 355.425L343.84 351.374L344.405 343.49L344.696 339.44L345.24 331.537L345.531 327.505L346.096 319.602L346.369 315.569L346.931 307.666L347.222 303.634L347.768 295.731H347.787L348.06 291.698L348.623 283.796L348.897 279.762H348.913L349.459 271.86L349.532 270.843L349.751 267.828L351.188 247.481H438.364L439.019 257.31L439.237 260.615L439.273 261.287L439.728 267.828L440.001 271.86L440.529 279.762L440.802 283.796L441.328 291.698L441.583 295.731L442.128 303.634L442.382 307.666L442.911 315.569L443.183 319.602L443.71 327.505L443.983 331.537L444.511 339.44L444.784 343.49L445.31 351.374L445.585 355.425L446.11 363.328L446.275 365.744L446.311 366.434L446.384 367.361Z" fill="url(#paint32_linear)"/>
<path d="M374.816 264.312C376.815 264.312 378.436 262.692 378.436 260.695C378.436 258.697 376.815 257.078 374.816 257.078C372.816 257.078 371.195 258.697 371.195 260.695C371.195 262.692 372.816 264.312 374.816 264.312Z" fill="#DD61A3"/>
<path d="M412.88 264.776C414.879 264.776 416.499 263.157 416.499 261.161C416.499 259.164 414.879 257.545 412.88 257.545C410.881 257.545 409.261 259.164 409.261 261.161C409.261 263.157 410.881 264.776 412.88 264.776Z" fill="#DD61A3"/>
<path d="M412.881 263.708C411.877 263.708 411.062 262.895 411.062 261.892V246.049C411.062 236.567 403.341 228.851 393.848 228.851C384.355 228.851 376.633 236.565 376.633 246.049V260.695C376.633 261.698 375.82 262.512 374.816 262.512C373.81 262.512 372.997 261.698 372.997 260.695V246.049C372.997 234.563 382.35 225.217 393.848 225.217C405.345 225.217 414.7 234.561 414.7 246.049V261.892C414.7 262.895 413.885 263.708 412.881 263.708Z" fill="#7A82EF"/>
<g opacity="0.25">
<path opacity="0.25" d="M440.001 271.86H349.459L349.532 270.843L349.732 267.828H439.728L440.001 271.86Z" fill="#FDFCFF"/>
</g>
<g opacity="0.25">
<path opacity="0.25" d="M440.802 283.796H348.605L348.897 279.762H440.529L440.802 283.796Z" fill="#FDFCFF"/>
</g>
<g opacity="0.25">
<path opacity="0.25" d="M441.583 295.731H347.751L348.042 291.698H441.328L441.583 295.731Z" fill="#FDFCFF"/>
</g>
<g opacity="0.25">
<path opacity="0.25" d="M442.382 307.666H346.897L347.187 303.634H442.128L442.382 307.666Z" fill="#FDFCFF"/>
</g>
<g opacity="0.25">
<path opacity="0.25" d="M443.183 319.602H346.06L346.35 315.569H442.927L443.183 319.602Z" fill="#FDFCFF"/>
</g>
<g opacity="0.25">
<path opacity="0.25" d="M443.983 331.537H345.205L345.496 327.505H443.728L443.983 331.537Z" fill="#FDFCFF"/>
</g>
<g opacity="0.25">
<path opacity="0.25" d="M444.802 343.49H344.35L344.64 339.44H444.528L444.802 343.49Z" fill="#FDFCFF"/>
</g>
<g opacity="0.25">
<path opacity="0.25" d="M445.6 355.425H343.514L343.786 351.374H445.329L445.6 355.425Z" fill="#FDFCFF"/>
</g>
<g opacity="0.25">
<path opacity="0.25" d="M446.401 367.361H342.714V367.325H342.659L342.949 363.328H446.129L446.401 367.361Z" fill="#FDFCFF"/>
</g>
<path opacity="0.5" d="M360.874 374.4C387.305 374.4 408.732 351.777 408.732 323.871C408.732 295.964 387.305 273.341 360.874 273.341C334.443 273.341 313.017 295.964 313.017 323.871C313.017 351.777 334.443 374.4 360.874 374.4Z" fill="url(#paint33_radial)"/>
<path d="M346.07 311.603C345.066 311.603 344.251 310.789 344.251 309.786V293.944C344.251 284.461 336.529 276.746 327.037 276.746C317.544 276.746 309.822 284.46 309.822 293.944V308.589C309.822 309.592 309.008 310.406 308.005 310.406C306.999 310.406 306.186 309.592 306.186 308.589V293.944C306.186 282.457 315.539 273.113 327.037 273.113C338.534 273.113 347.889 282.457 347.889 293.944V309.786C347.889 310.789 347.075 311.603 346.07 311.603Z" fill="#443E91"/>
<path d="M366.128 293.78L374.126 376.85L270.571 376.813L279.254 293.78" fill="#7A82EF"/>
<path d="M279.255 293.78L283.728 297.959L279.022 303.833L270.615 376.855L279.255 293.78Z" fill="#7A82EF"/>
<path d="M283.728 297.959V306.747L279.013 303.818L283.728 297.959Z" fill="#BF5A4D"/>
<path d="M366.11 293.794L361.639 297.972L365.869 303.843L374.31 376.891L366.11 293.794Z" fill="#7A82EF"/>
<path d="M361.639 297.972V306.76L365.869 303.843L361.639 297.972Z" fill="#BF5A4D"/>
<path d="M374.302 376.85H270.615L279.022 296.106H366.346L374.302 376.85Z" fill="url(#paint34_linear)"/>
<g opacity="0.25">
<path opacity="0.25" d="M372.153 382.804V288.297L373.216 288.374L376.37 288.582V382.52L372.153 382.804Z" fill="#FDFCFF"/>
</g>
<g opacity="0.25">
<path opacity="0.25" d="M359.67 383.641V287.406L363.887 287.709V383.356L359.67 383.641Z" fill="#FDFCFF"/>
</g>
<g opacity="0.25">
<path opacity="0.25" d="M347.186 384.456V286.515L351.403 286.818V384.19L347.186 384.456Z" fill="#FDFCFF"/>
</g>
<g opacity="0.25">
<path opacity="0.25" d="M334.703 385.292V285.621L338.922 285.924V385.026L334.703 385.292Z" fill="#FDFCFF"/>
</g>
<g opacity="0.25">
<path opacity="0.25" d="M322.219 386.126V284.748L326.438 285.052V385.861L322.219 386.126Z" fill="#FDFCFF"/>
</g>
<g opacity="0.25">
<path opacity="0.25" d="M309.738 386.962V283.857L313.955 284.161V386.697L309.738 386.962Z" fill="#FDFCFF"/>
</g>
<g opacity="0.25">
<path opacity="0.25" d="M297.235 387.817V282.963L301.471 283.267V387.531L297.235 387.817Z" fill="#FDFCFF"/>
</g>
<g opacity="0.25">
<path opacity="0.25" d="M284.75 388.652V282.091L288.988 282.375V388.366L284.75 388.652Z" fill="#FDFCFF"/>
</g>
<g opacity="0.25">
<path opacity="0.25" d="M272.269 389.486V281.256H272.307V281.2L276.487 281.503V389.202L272.269 389.486Z" fill="#FDFCFF"/>
</g>
<path d="M302.725 312.929C304.724 312.929 306.345 311.309 306.345 309.312C306.345 307.314 304.724 305.695 302.725 305.695C300.725 305.695 299.104 307.314 299.104 309.312C299.104 311.309 300.725 312.929 302.725 312.929Z" fill="#7A82EF"/>
<path d="M340.791 313.393C342.789 313.393 344.41 311.774 344.41 309.778C344.41 307.781 342.789 306.162 340.791 306.162C338.792 306.162 337.172 307.781 337.172 309.778C337.172 311.774 338.792 313.393 340.791 313.393Z" fill="#7A82EF"/>
<path d="M340.616 311.603C339.612 311.603 338.797 310.789 338.797 309.786V293.944C338.797 284.461 331.075 276.746 321.583 276.746C312.09 276.746 304.368 284.46 304.368 293.944V308.589C304.368 309.592 303.555 310.406 302.551 310.406C301.545 310.406 300.732 309.592 300.732 308.589V293.944C300.732 282.457 310.085 273.113 321.583 273.113C333.08 273.113 342.435 282.457 342.435 293.944V309.786C342.435 310.789 341.622 311.603 340.616 311.603Z" fill="#7A82EF"/>
<path d="M275.845 243.39H219.109C212.559 243.39 207.251 238.086 207.251 231.544C207.251 225.001 212.559 219.697 219.109 219.697H275.845C282.394 219.697 287.703 225.001 287.703 231.544C287.703 238.085 282.393 243.39 275.845 243.39Z" fill="url(#paint35_linear)"/>
<path d="M218.382 226.308H220.871C221.466 226.308 221.99 226.422 222.444 226.652C222.904 226.876 223.258 227.195 223.509 227.607C223.765 228.019 223.892 228.499 223.892 229.047C223.892 229.595 223.765 230.075 223.509 230.487C223.258 230.9 222.904 231.221 222.444 231.45C221.99 231.675 221.466 231.787 220.871 231.787H218.382V226.308ZM220.808 230.746C221.356 230.746 221.792 230.594 222.116 230.292C222.444 229.984 222.609 229.569 222.609 229.047C222.609 228.525 222.444 228.113 222.116 227.81C221.792 227.502 221.356 227.349 220.808 227.349H219.65V230.746H220.808ZM229.091 230.769V231.787H224.849V226.308H228.989V227.325H226.109V228.515H228.653V229.501H226.109V230.769H229.091ZM230.1 226.308H231.368V230.754H234.116V231.787H230.1V226.308ZM234.824 226.308H236.092V231.787H234.824V226.308ZM242.63 226.308L240.258 231.787H239.006L236.642 226.308H238.012L239.679 230.221L241.37 226.308H242.63ZM247.33 230.769V231.787H243.087V226.308H247.228V227.325H244.348V228.515H246.892V229.501H244.348V230.769H247.33ZM251.83 231.787L250.773 230.26H250.711H249.607V231.787H248.339V226.308H250.711C251.196 226.308 251.616 226.388 251.971 226.55C252.331 226.712 252.607 226.942 252.8 227.239C252.994 227.536 253.09 227.889 253.09 228.296C253.09 228.703 252.991 229.055 252.793 229.352C252.6 229.645 252.323 229.869 251.963 230.026L253.192 231.787H251.83ZM251.806 228.296C251.806 227.988 251.707 227.753 251.509 227.591C251.311 227.424 251.021 227.341 250.64 227.341H249.607V229.251H250.64C251.021 229.251 251.311 229.167 251.509 229C251.707 228.833 251.806 228.598 251.806 228.296ZM256.648 229.846V231.787H255.38V229.83L253.259 226.308H254.605L256.069 228.742L257.533 226.308H258.777L256.648 229.846Z" fill="white"/>
<path d="M436.674 201.342H370.065C362.377 201.342 356.144 195.115 356.144 187.435C356.144 179.752 362.377 173.526 370.065 173.526H436.674C444.363 173.526 450.595 179.752 450.595 187.435C450.595 195.115 444.363 201.342 436.674 201.342Z" fill="url(#paint36_linear)"/>
<path d="M375.636 183.975C376.004 184.091 376.292 184.287 376.5 184.563C376.709 184.833 376.813 185.167 376.813 185.565C376.813 186.128 376.592 186.563 376.151 186.87C375.716 187.17 375.079 187.32 374.24 187.32H370.913V180.887H374.056C374.84 180.887 375.44 181.037 375.857 181.337C376.28 181.638 376.491 182.045 376.491 182.56C376.491 182.872 376.415 183.151 376.261 183.396C376.114 183.641 375.906 183.834 375.636 183.975ZM372.393 182.008V183.525H373.872C374.24 183.525 374.518 183.46 374.708 183.332C374.898 183.203 374.993 183.013 374.993 182.762C374.993 182.511 374.898 182.324 374.708 182.201C374.518 182.073 374.24 182.008 373.872 182.008H372.393ZM374.129 186.199C374.521 186.199 374.816 186.134 375.012 186.006C375.214 185.877 375.315 185.678 375.315 185.409C375.315 184.876 374.92 184.609 374.129 184.609H372.393V186.199H374.129ZM380.798 187.43C379.879 187.43 379.162 187.176 378.647 186.667C378.139 186.159 377.885 185.433 377.885 184.49V180.887H379.373V184.434C379.373 185.586 379.851 186.162 380.807 186.162C381.273 186.162 381.628 186.024 381.873 185.749C382.118 185.467 382.241 185.029 382.241 184.434V180.887H383.711V184.49C383.711 185.433 383.454 186.159 382.939 186.667C382.431 187.176 381.717 187.43 380.798 187.43ZM388.18 185.041V187.32H386.691V185.023L384.201 180.887H385.782L387.5 183.745L389.218 180.887H390.68L388.18 185.041ZM399.805 180.887V187.32H398.583L395.375 183.414V187.32H393.905V180.887H395.136L398.334 184.793V180.887H399.805ZM404.442 187.43C403.774 187.43 403.171 187.286 402.632 186.998C402.099 186.71 401.679 186.315 401.373 185.813C401.072 185.304 400.922 184.735 400.922 184.104C400.922 183.473 401.072 182.906 401.373 182.403C401.679 181.895 402.099 181.497 402.632 181.209C403.171 180.921 403.774 180.777 404.442 180.777C405.11 180.777 405.71 180.921 406.243 181.209C406.776 181.497 407.196 181.895 407.502 182.403C407.809 182.906 407.962 183.473 407.962 184.104C407.962 184.735 407.809 185.304 407.502 185.813C407.196 186.315 406.776 186.71 406.243 186.998C405.71 187.286 405.11 187.43 404.442 187.43ZM404.442 186.162C404.822 186.162 405.165 186.076 405.471 185.905C405.778 185.727 406.017 185.482 406.188 185.17C406.366 184.857 406.455 184.502 406.455 184.104C406.455 183.705 406.366 183.35 406.188 183.038C406.017 182.725 405.778 182.483 405.471 182.312C405.165 182.134 404.822 182.045 404.442 182.045C404.062 182.045 403.719 182.134 403.413 182.312C403.106 182.483 402.864 182.725 402.687 183.038C402.515 183.35 402.43 183.705 402.43 184.104C402.43 184.502 402.515 184.857 402.687 185.17C402.864 185.482 403.106 185.727 403.413 185.905C403.719 186.076 404.062 186.162 404.442 186.162ZM418.588 180.887L416.483 187.32H414.884L413.469 182.964L412.008 187.32H410.418L408.305 180.887H409.848L411.3 185.409L412.817 180.887H414.195L415.665 185.445L417.163 180.887H418.588Z" fill="white"/>
<path d="M106.61 207.761C119.669 207.761 130.255 197.186 130.255 184.14C130.255 171.094 119.669 160.519 106.61 160.519C93.5515 160.519 82.9653 171.094 82.9653 184.14C82.9653 197.186 93.5515 207.761 106.61 207.761Z" fill="url(#paint37_linear)"/>
<path d="M100.335 180.186H91.5444V194.127H100.335V180.186Z" fill="white"/>
<path d="M101.861 180.186C101.861 180.186 104.99 176.272 109.087 167.395C109.699 166.07 112.849 167.207 111.23 172.829C109.982 177.166 109.5 177.935 109.5 177.935H118.358C118.93 177.935 119.421 178.314 119.551 178.871C120.193 181.648 121.518 189.903 115.775 193.901C115.561 194.05 115.293 194.127 115.032 194.127H101.863V180.186H101.861Z" fill="white"/>
<path d="M373.084 152.282C383.407 152.282 391.775 143.922 391.775 133.61C391.775 123.298 383.407 114.938 373.084 114.938C362.761 114.938 354.393 123.298 354.393 133.61C354.393 143.922 362.761 152.282 373.084 152.282Z" fill="url(#paint38_linear)"/>
<path d="M381.063 132.62C378.442 136.735 373.082 141.272 373.082 141.272C373.082 141.272 367.745 136.736 365.122 132.62C364.069 130.983 364.467 129.416 365.122 128.247C365.965 126.797 367.581 125.839 369.243 125.955C372.356 126.166 373.082 129.276 373.082 129.276C373.082 129.276 373.807 126.166 376.921 125.955C378.606 125.838 380.22 126.797 381.041 128.247C381.696 129.417 382.093 130.985 381.063 132.62Z" fill="white"/>
<path d="M248.231 198.178C281.288 198.178 308.086 196.801 308.086 195.102C308.086 193.404 281.288 192.027 248.231 192.027C215.174 192.027 188.375 193.404 188.375 195.102C188.375 196.801 215.174 198.178 248.231 198.178Z" fill="url(#paint39_radial)"/>
<path d="M289.106 121.05H208.927V194.211H289.106V121.05Z" fill="url(#paint40_linear)"/>
<path d="M260.593 160.284H237.548C234.514 160.284 232.056 157.828 232.056 154.797V156.08C232.056 159.109 234.514 161.568 237.548 161.568H260.593C263.626 161.568 266.086 159.111 266.086 156.08V154.797C266.086 157.828 263.625 160.284 260.593 160.284Z" fill="#898989"/>
<path opacity="0.2" d="M232.055 154.797V156.08C232.055 159.109 234.513 161.568 237.546 161.568H260.591C263.625 161.568 266.084 159.111 266.084 156.08V154.797H232.055Z" fill="url(#paint41_linear)"/>
<path opacity="0.5" d="M259.587 146.061L258.505 143.136L257.253 146.061L255.948 143.136L254.597 146.061L253.249 143.136L251.854 146.061L250.406 143.136L249.069 146.061L247.847 143.136L246.58 146.061L245.293 143.136L243.881 146.061L242.634 143.136L241.307 146.061L239.915 143.136L238.552 146.061V121.112H259.587V146.061Z" fill="#F2F2F2"/>
<g opacity="0.5">
<g opacity="0.5">
<path opacity="0.5" d="M229.366 171.854H217.553V183.654H229.366V171.854Z" stroke="#996B41" stroke-width="0.5114" stroke-miterlimit="10"/>
</g>
<g opacity="0.5">
<g opacity="0.5">
<g opacity="0.5">
<path opacity="0.5" d="M222.14 175.14H220.875V180.535H222.14V175.14Z" fill="#996B41"/>
<path opacity="0.5" d="M221.507 174.234L220.29 175.568H222.723L221.507 174.234L220.29 175.568H222.723L221.507 174.234Z" fill="#996B41"/>
</g>
<g opacity="0.5">
<path opacity="0.5" d="M226.041 175.14H224.776V180.535H226.041V175.14Z" fill="#996B41"/>
<path opacity="0.5" d="M225.409 174.234L224.192 175.568H226.627L225.409 174.234L224.192 175.568H226.627L225.409 174.234Z" fill="#996B41"/>
</g>
</g>
<path opacity="0.5" d="M227.814 181.072H219.103V181.811H227.814V181.072Z" fill="#996B41"/>
</g>
</g>
<g opacity="0.5">
<g opacity="0.5">
<path opacity="0.5" d="M245.672 171.922H233.859V183.722H245.672V171.922Z" stroke="#996B41" stroke-width="0.5114" stroke-miterlimit="10"/>
</g>
<g opacity="0.5">
<path opacity="0.5" d="M239.767 179.404C238.841 179.404 238.012 178.731 237.904 177.809L237.436 173.834H242.098L241.631 177.809C241.522 178.731 240.692 179.404 239.767 179.404Z" fill="#996B41"/>
<path opacity="0.5" d="M240.279 181.229H239.252L239.653 178.591H239.878L240.279 181.229Z" fill="#996B41"/>
<path opacity="0.5" d="M241.604 181.811H237.927L239.252 181.229H240.279L241.604 181.811Z" fill="#996B41"/>
</g>
</g>
<g opacity="0.5">
<g opacity="0.5">
<path opacity="0.5" d="M261.98 171.937H250.167V183.738H261.98V171.937Z" stroke="#996B41" stroke-width="0.5114" stroke-miterlimit="10"/>
</g>
<g opacity="0.5">
<g opacity="0.5">
<path opacity="0.5" d="M260.032 178.632C259.699 176.744 258.059 175.308 256.073 175.308C254.087 175.308 252.448 176.744 252.114 178.632H260.032Z" fill="#996B41"/>
<g opacity="0.5">
<path opacity="0.5" d="M256.297 177.986V181.362" stroke="#996B41" stroke-width="0.3887" stroke-miterlimit="10" stroke-linecap="round" stroke-linejoin="round"/>
<path opacity="0.5" d="M256.297 181.362C256.297 181.812 255.934 182.175 255.483 182.175C255.034 182.175 254.67 181.812 254.67 181.362" stroke="#996B41" stroke-width="0.3887" stroke-miterlimit="10" stroke-linecap="round" stroke-linejoin="round"/>
</g>
</g>
<path opacity="0.5" d="M254.236 174.726C254.236 174.951 254.055 175.134 253.83 175.134C253.604 175.134 253.423 174.951 253.423 174.726C253.423 174.503 253.83 173.584 253.83 173.584C253.83 173.584 254.236 174.503 254.236 174.726Z" fill="#996B41"/>
<path opacity="0.5" d="M258.796 174.899C258.796 175.124 258.614 175.307 258.389 175.307C258.164 175.307 257.982 175.124 257.982 174.899C257.982 174.676 258.389 173.757 258.389 173.757C258.389 173.757 258.796 174.676 258.796 174.899Z" fill="#996B41"/>
<path opacity="0.5" d="M256.481 174.125C256.481 174.349 256.298 174.532 256.073 174.532C255.848 174.532 255.666 174.349 255.666 174.125C255.666 173.9 256.073 172.983 256.073 172.983C256.073 172.983 256.481 173.9 256.481 174.125Z" fill="#996B41"/>
</g>
</g>
<path opacity="0.4" d="M341.964 79.8885L165.399 236.021V59.1366L341.964 79.8885Z" fill="url(#paint42_linear)"/>
<path opacity="0.4" d="M341.964 79.8885L165.399 236.021V59.1366L341.964 79.8885Z" fill="url(#paint43_linear)"/>
<path d="M122.256 70.575H72.8391L159.652 12.1248H184.448L122.256 70.575Z" fill="url(#paint44_linear)"/>
<path d="M171.672 70.575H122.256L184.448 12.1248H209.247L171.672 70.575Z" fill="url(#paint45_linear)"/>
<path d="M221.09 70.575H171.672L209.247 12.1248H234.044L221.09 70.575Z" fill="url(#paint46_linear)"/>
<path d="M273.094 70.575H221.09L234.044 12.1248H258.841L273.094 70.575Z" fill="url(#paint47_linear)"/>
<path d="M322.511 70.575H273.094L258.841 12.1248H283.639L322.511 70.575Z" fill="url(#paint48_linear)"/>
<path d="M421.346 70.575H371.928L308.436 12.1248H333.234L421.346 70.575Z" fill="url(#paint49_linear)"/>
<path d="M371.928 70.575H322.511L283.639 12.1248H308.436L371.928 70.575Z" fill="url(#paint50_linear)"/>
<path d="M122.256 70.575H72.8391V78.2688C72.8391 90.202 82.5222 99.877 94.4689 99.877H100.626C112.573 99.877 122.256 90.202 122.256 78.2688V70.575V70.575Z" fill="url(#paint51_linear)"/>
<path d="M171.672 70.575H122.254V78.2688C122.254 90.202 131.939 99.877 143.885 99.877H150.042C161.989 99.877 171.672 90.202 171.672 78.2688V70.575Z" fill="url(#paint52_linear)"/>
<path d="M221.09 70.575H171.672V78.2688C171.672 90.202 181.357 99.877 193.302 99.877H199.461C211.406 99.877 221.09 90.202 221.09 78.2688V70.575V70.575Z" fill="url(#paint53_linear)"/>
<path d="M273.094 70.575H221.09V77.1367C221.09 89.6941 231.282 99.8755 243.852 99.8755H250.333C262.903 99.8755 273.094 89.6941 273.094 77.1367V70.575Z" fill="url(#paint54_linear)"/>
<path d="M322.511 70.575H273.094V78.2688C273.094 90.202 282.777 99.877 294.724 99.877H300.881C312.828 99.877 322.511 90.202 322.511 78.2688V70.575V70.575Z" fill="url(#paint55_linear)"/>
<path d="M421.345 70.575H371.927V78.2688C371.927 90.202 381.612 99.877 393.557 99.877H399.716C411.661 99.877 421.345 90.202 421.345 78.2688V70.575V70.575Z" fill="url(#paint56_linear)"/>
<path d="M371.927 70.575H322.509V78.2688C322.509 90.202 332.194 99.877 344.141 99.877H350.298C362.244 99.877 371.927 90.202 371.927 78.2688V70.575V70.575Z" fill="url(#paint57_linear)"/>
<path d="M333.2 12.1132H159.628V8.48188C159.628 3.79681 163.43 0 168.12 0H324.709C329.399 0 333.2 3.79681 333.2 8.48188V12.1132V12.1132Z" fill="url(#paint58_linear)"/>
<path opacity="0.4" d="M317.699 104.716H177.857V210.697H317.699V104.716Z" fill="url(#paint59_linear)"/>
<defs>
<radialGradient id="paint0_radial" cx="0" cy="0" r="1" gradientUnits="userSpaceOnUse" gradientTransform="translate(322.246 378.792) scale(180.439 27.0389)">
<stop offset="5.4e-07" stop-color="#B0B0AF" stop-opacity="0.7"/>
<stop offset="0.1058" stop-color="#C0C0BF" stop-opacity="0.6259"/>
<stop offset="0.3285" stop-color="#DBDBDB" stop-opacity="0.4701"/>
<stop offset="0.5523" stop-color="#EFEFEF" stop-opacity="0.3134"/>
<stop offset="0.7761" stop-color="#FBFBFB" stop-opacity="0.1567"/>
<stop offset="1" stop-color="white" stop-opacity="0"/>
</radialGradient>
<radialGradient id="paint1_radial" cx="0" cy="0" r="1" gradientUnits="userSpaceOnUse" gradientTransform="translate(322.246 378.792) scale(180.439 27.0389)">
<stop offset="5.4e-07" stop-color="#B0B0AF" stop-opacity="0.7"/>
<stop offset="0.1058" stop-color="#C0C0BF" stop-opacity="0.6259"/>
<stop offset="0.3285" stop-color="#DBDBDB" stop-opacity="0.4701"/>
<stop offset="0.5523" stop-color="#EFEFEF" stop-opacity="0.3134"/>
<stop offset="0.7761" stop-color="#FBFBFB" stop-opacity="0.1567"/>
<stop offset="1" stop-color="white" stop-opacity="0"/>
</radialGradient>
<radialGradient id="paint2_radial" cx="0" cy="0" r="1" gradientUnits="userSpaceOnUse" gradientTransform="translate(374.673 367.429) scale(180.437 27.0386)">
<stop offset="5.4e-07" stop-color="#B0B0AF" stop-opacity="0.7"/>
<stop offset="0.1058" stop-color="#C0C0BF" stop-opacity="0.6259"/>
<stop offset="0.3285" stop-color="#DBDBDB" stop-opacity="0.4701"/>
<stop offset="0.5523" stop-color="#EFEFEF" stop-opacity="0.3134"/>
<stop offset="0.7761" stop-color="#FBFBFB" stop-opacity="0.1567"/>
<stop offset="1" stop-color="white" stop-opacity="0"/>
</radialGradient>
<radialGradient id="paint3_radial" cx="0" cy="0" r="1" gradientUnits="userSpaceOnUse" gradientTransform="translate(374.673 367.429) scale(180.437 27.0386)">
<stop offset="5.4e-07" stop-color="#B0B0AF" stop-opacity="0.7"/>
<stop offset="0.1058" stop-color="#C0C0BF" stop-opacity="0.6259"/>
<stop offset="0.3285" stop-color="#DBDBDB" stop-opacity="0.4701"/>
<stop offset="0.5523" stop-color="#EFEFEF" stop-opacity="0.3134"/>
<stop offset="0.7761" stop-color="#FBFBFB" stop-opacity="0.1567"/>
<stop offset="1" stop-color="white" stop-opacity="0"/>
</radialGradient>
<radialGradient id="paint4_radial" cx="0" cy="0" r="1" gradientUnits="userSpaceOnUse" gradientTransform="translate(132.327 386.697) scale(180.439 27.0389)">
<stop offset="5.4e-07" stop-color="#B0B0AF" stop-opacity="0.7"/>
<stop offset="0.1058" stop-color="#C0C0BF" stop-opacity="0.6259"/>
<stop offset="0.3285" stop-color="#DBDBDB" stop-opacity="0.4701"/>
<stop offset="0.5523" stop-color="#EFEFEF" stop-opacity="0.3134"/>
<stop offset="0.7761" stop-color="#FBFBFB" stop-opacity="0.1567"/>
<stop offset="1" stop-color="white" stop-opacity="0"/>
</radialGradient>
<radialGradient id="paint5_radial" cx="0" cy="0" r="1" gradientUnits="userSpaceOnUse" gradientTransform="translate(132.327 386.697) scale(180.439 27.0389)">
<stop offset="5.4e-07" stop-color="#B0B0AF" stop-opacity="0.7"/>
<stop offset="0.1058" stop-color="#C0C0BF" stop-opacity="0.6259"/>
<stop offset="0.3285" stop-color="#DBDBDB" stop-opacity="0.4701"/>
<stop offset="0.5523" stop-color="#EFEFEF" stop-opacity="0.3134"/>
<stop offset="0.7761" stop-color="#FBFBFB" stop-opacity="0.1567"/>
<stop offset="1" stop-color="white" stop-opacity="0"/>
</radialGradient>
<radialGradient id="paint6_radial" cx="0" cy="0" r="1" gradientUnits="userSpaceOnUse" gradientTransform="translate(214.779 361.992) scale(213.004 27.0383)">
<stop offset="5.4e-07" stop-color="#B0B0AF" stop-opacity="0.7"/>
<stop offset="0.1058" stop-color="#C0C0BF" stop-opacity="0.6259"/>
<stop offset="0.3285" stop-color="#DBDBDB" stop-opacity="0.4701"/>
<stop offset="0.5523" stop-color="#EFEFEF" stop-opacity="0.3134"/>
<stop offset="0.7761" stop-color="#FBFBFB" stop-opacity="0.1567"/>
<stop offset="1" stop-color="white" stop-opacity="0"/>
</radialGradient>
<radialGradient id="paint7_radial" cx="0" cy="0" r="1" gradientUnits="userSpaceOnUse" gradientTransform="translate(214.779 361.992) scale(213.004 27.0383)">
<stop offset="5.4e-07" stop-color="#B0B0AF" stop-opacity="0.7"/>
<stop offset="0.1058" stop-color="#C0C0BF" stop-opacity="0.6259"/>
<stop offset="0.3285" stop-color="#DBDBDB" stop-opacity="0.4701"/>
<stop offset="0.5523" stop-color="#EFEFEF" stop-opacity="0.3134"/>
<stop offset="0.7761" stop-color="#FBFBFB" stop-opacity="0.1567"/>
<stop offset="1" stop-color="white" stop-opacity="0"/>
</radialGradient>
<radialGradient id="paint8_radial" cx="0" cy="0" r="1" gradientUnits="userSpaceOnUse" gradientTransform="translate(214.779 361.992) scale(213.004 27.0383)">
<stop offset="5.4e-07" stop-color="#B0B0AF" stop-opacity="0.7"/>
<stop offset="0.1058" stop-color="#C0C0BF" stop-opacity="0.6259"/>
<stop offset="0.3285" stop-color="#DBDBDB" stop-opacity="0.4701"/>
<stop offset="0.5523" stop-color="#EFEFEF" stop-opacity="0.3134"/>
<stop offset="0.7761" stop-color="#FBFBFB" stop-opacity="0.1567"/>
<stop offset="1" stop-color="white" stop-opacity="0"/>
</radialGradient>
<radialGradient id="paint9_radial" cx="0" cy="0" r="1" gradientUnits="userSpaceOnUse" gradientTransform="translate(214.779 366.475) scale(213.001 35.4919)">
<stop offset="5.4e-07" stop-color="#B0B0AF" stop-opacity="0.7"/>
<stop offset="0.1058" stop-color="#C0C0BF" stop-opacity="0.6259"/>
<stop offset="0.3285" stop-color="#DBDBDB" stop-opacity="0.4701"/>
<stop offset="0.5523" stop-color="#EFEFEF" stop-opacity="0.3134"/>
<stop offset="0.7761" stop-color="#FBFBFB" stop-opacity="0.1567"/>
<stop offset="1" stop-color="white" stop-opacity="0"/>
</radialGradient>
<linearGradient id="paint10_linear" x1="171.335" y1="267.174" x2="323.912" y2="267.174" gradientUnits="userSpaceOnUse">
<stop offset="0.0019" stop-color="white" stop-opacity="0.4"/>
<stop offset="0.3235" stop-color="#D7C9ED" stop-opacity="0.5933"/>
<stop offset="1" stop-color="#7A4CC5"/>
</linearGradient>
<linearGradient id="paint11_linear" x1="180.014" y1="266.705" x2="212.791" y2="266.705" gradientUnits="userSpaceOnUse">
<stop offset="6.8e-07" stop-color="#DF59A5"/>
<stop offset="1" stop-color="#A426F2"/>
</linearGradient>
<linearGradient id="paint12_linear" x1="118.727" y1="248.496" x2="118.727" y2="330.505" gradientUnits="userSpaceOnUse">
<stop offset="6.8e-07" stop-color="#DF59A5"/>
<stop offset="1" stop-color="#A426F2"/>
</linearGradient>
<linearGradient id="paint13_linear" x1="182.823" y1="248.495" x2="182.823" y2="330.506" gradientUnits="userSpaceOnUse">
<stop offset="6.8e-07" stop-color="#DF59A5"/>
<stop offset="1" stop-color="#A426F2"/>
</linearGradient>
<linearGradient id="paint14_linear" x1="84.3328" y1="291.656" x2="95.7512" y2="291.656" gradientUnits="userSpaceOnUse">
<stop offset="5e-08" stop-color="#F1C88D"/>
<stop offset="0.2682" stop-color="#EEC58A"/>
<stop offset="0.468" stop-color="#E6BB82"/>
<stop offset="0.6457" stop-color="#D7AB73"/>
<stop offset="0.8106" stop-color="#C2955F"/>
<stop offset="0.9652" stop-color="#A87845"/>
<stop offset="1" stop-color="#A1703E"/>
</linearGradient>
<linearGradient id="paint15_linear" x1="154.697" y1="277.301" x2="164.034" y2="277.301" gradientUnits="userSpaceOnUse">
<stop offset="5e-08" stop-color="#F1C88D"/>
<stop offset="0.2682" stop-color="#EEC58A"/>
<stop offset="0.468" stop-color="#E6BB82"/>
<stop offset="0.6457" stop-color="#D7AB73"/>
<stop offset="0.8106" stop-color="#C2955F"/>
<stop offset="0.9652" stop-color="#A87845"/>
<stop offset="1" stop-color="#A1703E"/>
</linearGradient>
<linearGradient id="paint16_linear" x1="64.0712" y1="233.992" x2="131.717" y2="384.493" gradientUnits="userSpaceOnUse">
<stop offset="4.1e-07" stop-color="#28067E"/>
<stop offset="0.1606" stop-color="#2D0A83"/>
<stop offset="0.3497" stop-color="#3A1691"/>
<stop offset="0.5532" stop-color="#502AA9"/>
<stop offset="0.7667" stop-color="#6E46CA"/>
<stop offset="0.9861" stop-color="#956AF4"/>
<stop offset="1" stop-color="#986CF7"/>
</linearGradient>
<linearGradient id="paint17_linear" x1="127.102" y1="205.659" x2="194.748" y2="356.16" gradientUnits="userSpaceOnUse">
<stop offset="4.1e-07" stop-color="#28067E"/>
<stop offset="0.1606" stop-color="#2D0A83"/>
<stop offset="0.3497" stop-color="#3A1691"/>
<stop offset="0.5532" stop-color="#502AA9"/>
<stop offset="0.7667" stop-color="#6E46CA"/>
<stop offset="0.9861" stop-color="#956AF4"/>
<stop offset="1" stop-color="#986CF7"/>
</linearGradient>
<linearGradient id="paint18_linear" x1="178.155" y1="294.076" x2="178.155" y2="340.379" gradientUnits="userSpaceOnUse">
<stop offset="6.8e-07" stop-color="#DF59A5"/>
<stop offset="1" stop-color="#A426F2"/>
</linearGradient>
<linearGradient id="paint19_linear" x1="113.237" y1="254.101" x2="133.23" y2="368.984" gradientUnits="userSpaceOnUse">
<stop offset="4.1e-07" stop-color="#28067E"/>
<stop offset="0.1606" stop-color="#2D0A83"/>
<stop offset="0.3497" stop-color="#3A1691"/>
<stop offset="0.5532" stop-color="#502AA9"/>
<stop offset="0.7667" stop-color="#6E46CA"/>
<stop offset="0.9861" stop-color="#956AF4"/>
<stop offset="1" stop-color="#986CF7"/>
</linearGradient>
<linearGradient id="paint20_linear" x1="40.3947" y1="224.128" x2="67.0506" y2="365.322" gradientUnits="userSpaceOnUse">
<stop offset="4.1e-07" stop-color="#28067E"/>
<stop offset="0.1606" stop-color="#2D0A83"/>
<stop offset="0.3497" stop-color="#3A1691"/>
<stop offset="0.5532" stop-color="#502AA9"/>
<stop offset="0.7667" stop-color="#6E46CA"/>
<stop offset="0.9861" stop-color="#956AF4"/>
<stop offset="1" stop-color="#986CF7"/>
</linearGradient>
<linearGradient id="paint21_linear" x1="120.181" y1="221.235" x2="164.249" y2="325.767" gradientUnits="userSpaceOnUse">
<stop offset="4.1e-07" stop-color="#28067E"/>
<stop offset="0.1606" stop-color="#2D0A83"/>
<stop offset="0.3497" stop-color="#3A1691"/>
<stop offset="0.5532" stop-color="#502AA9"/>
<stop offset="0.7667" stop-color="#6E46CA"/>
<stop offset="0.9861" stop-color="#956AF4"/>
<stop offset="1" stop-color="#986CF7"/>
</linearGradient>
<linearGradient id="paint22_linear" x1="159.538" y1="204.642" x2="203.605" y2="309.173" gradientUnits="userSpaceOnUse">
<stop offset="4.1e-07" stop-color="#28067E"/>
<stop offset="0.1606" stop-color="#2D0A83"/>
<stop offset="0.3497" stop-color="#3A1691"/>
<stop offset="0.5532" stop-color="#502AA9"/>
<stop offset="0.7667" stop-color="#6E46CA"/>
<stop offset="0.9861" stop-color="#956AF4"/>
<stop offset="1" stop-color="#986CF7"/>
</linearGradient>
<linearGradient id="paint23_linear" x1="72.1966" y1="241.462" x2="116.264" y2="345.994" gradientUnits="userSpaceOnUse">
<stop offset="4.1e-07" stop-color="#28067E"/>
<stop offset="0.1606" stop-color="#2D0A83"/>
<stop offset="0.3497" stop-color="#3A1691"/>
<stop offset="0.5532" stop-color="#502AA9"/>
<stop offset="0.7667" stop-color="#6E46CA"/>
<stop offset="0.9861" stop-color="#956AF4"/>
<stop offset="1" stop-color="#986CF7"/>
</linearGradient>
<linearGradient id="paint24_linear" x1="99.2301" y1="230.068" x2="143.296" y2="334.597" gradientUnits="userSpaceOnUse">
<stop offset="4.1e-07" stop-color="#28067E"/>
<stop offset="0.1606" stop-color="#2D0A83"/>
<stop offset="0.3497" stop-color="#3A1691"/>
<stop offset="0.5532" stop-color="#502AA9"/>
<stop offset="0.7667" stop-color="#6E46CA"/>
<stop offset="0.9861" stop-color="#956AF4"/>
<stop offset="1" stop-color="#986CF7"/>
</linearGradient>
<linearGradient id="paint25_linear" x1="132.862" y1="215.891" x2="176.928" y2="320.419" gradientUnits="userSpaceOnUse">
<stop offset="4.1e-07" stop-color="#28067E"/>
<stop offset="0.1606" stop-color="#2D0A83"/>
<stop offset="0.3497" stop-color="#3A1691"/>
<stop offset="0.5532" stop-color="#502AA9"/>
<stop offset="0.7667" stop-color="#6E46CA"/>
<stop offset="0.9861" stop-color="#956AF4"/>
<stop offset="1" stop-color="#986CF7"/>
</linearGradient>
<linearGradient id="paint26_linear" x1="110.543" y1="225.297" x2="154.611" y2="329.829" gradientUnits="userSpaceOnUse">
<stop offset="4.1e-07" stop-color="#28067E"/>
<stop offset="0.1606" stop-color="#2D0A83"/>
<stop offset="0.3497" stop-color="#3A1691"/>
<stop offset="0.5532" stop-color="#502AA9"/>
<stop offset="0.7667" stop-color="#6E46CA"/>
<stop offset="0.9861" stop-color="#956AF4"/>
<stop offset="1" stop-color="#986CF7"/>
</linearGradient>
<linearGradient id="paint27_linear" x1="96.2407" y1="213.584" x2="122.897" y2="354.778" gradientUnits="userSpaceOnUse">
<stop offset="4.1e-07" stop-color="#28067E"/>
<stop offset="0.1606" stop-color="#2D0A83"/>
<stop offset="0.3497" stop-color="#3A1691"/>
<stop offset="0.5532" stop-color="#502AA9"/>
<stop offset="0.7667" stop-color="#6E46CA"/>
<stop offset="0.9861" stop-color="#956AF4"/>
<stop offset="1" stop-color="#986CF7"/>
</linearGradient>
<linearGradient id="paint28_linear" x1="91.7687" y1="373.847" x2="279.437" y2="431.02" gradientUnits="userSpaceOnUse">
<stop offset="4.1e-07" stop-color="#28067E"/>
<stop offset="0.1606" stop-color="#2D0A83"/>
<stop offset="0.3497" stop-color="#3A1691"/>
<stop offset="0.5532" stop-color="#502AA9"/>
<stop offset="0.7667" stop-color="#6E46CA"/>
<stop offset="0.9861" stop-color="#956AF4"/>
<stop offset="1" stop-color="#986CF7"/>
</linearGradient>
<linearGradient id="paint29_linear" x1="146.558" y1="375.057" x2="180.249" y2="375.057" gradientUnits="userSpaceOnUse">
<stop offset="4.1e-07" stop-color="white"/>
<stop offset="0.1438" stop-color="#FCFAFF" stop-opacity="0.8562"/>
<stop offset="0.313" stop-color="#F2ECFE" stop-opacity="0.687"/>
<stop offset="0.4951" stop-color="#E1D4FD" stop-opacity="0.5049"/>
<stop offset="0.6863" stop-color="#CAB3FB" stop-opacity="0.3137"/>
<stop offset="0.8825" stop-color="#AC89F9" stop-opacity="0.1175"/>
<stop offset="1" stop-color="#986CF7" stop-opacity="0"/>
</linearGradient>
<linearGradient id="paint30_linear" x1="97.5046" y1="355.021" x2="285.165" y2="412.192" gradientUnits="userSpaceOnUse">
<stop offset="4.1e-07" stop-color="#28067E"/>
<stop offset="0.1606" stop-color="#2D0A83"/>
<stop offset="0.3497" stop-color="#3A1691"/>
<stop offset="0.5532" stop-color="#502AA9"/>
<stop offset="0.7667" stop-color="#6E46CA"/>
<stop offset="0.9861" stop-color="#956AF4"/>
<stop offset="1" stop-color="#986CF7"/>
</linearGradient>
<linearGradient id="paint31_linear" x1="125.561" y1="218.965" x2="169.628" y2="323.497" gradientUnits="userSpaceOnUse">
<stop offset="4.1e-07" stop-color="#28067E"/>
<stop offset="0.1606" stop-color="#2D0A83"/>
<stop offset="0.3497" stop-color="#3A1691"/>
<stop offset="0.5532" stop-color="#502AA9"/>
<stop offset="0.7667" stop-color="#6E46CA"/>
<stop offset="0.9861" stop-color="#956AF4"/>
<stop offset="1" stop-color="#986CF7"/>
</linearGradient>
<linearGradient id="paint32_linear" x1="389.953" y1="233.665" x2="394.173" y2="356.683" gradientUnits="userSpaceOnUse">
<stop offset="6.8e-07" stop-color="#DF59A5"/>
<stop offset="1" stop-color="#A426F2"/>
</linearGradient>
<radialGradient id="paint33_radial" cx="0" cy="0" r="1" gradientUnits="userSpaceOnUse" gradientTransform="translate(360.871 323.87) scale(81.4492 81.3681)">
<stop stop-color="#1D214B"/>
<stop offset="0.0493" stop-color="#32365C" stop-opacity="0.9507"/>
<stop offset="0.188" stop-color="#686A87" stop-opacity="0.812"/>
<stop offset="0.3282" stop-color="#9698AB" stop-opacity="0.6718"/>
<stop offset="0.4673" stop-color="#BCBDCA" stop-opacity="0.5327"/>
<stop offset="0.6047" stop-color="#D9DAE1" stop-opacity="0.3953"/>
<stop offset="0.7403" stop-color="#EEEFF2" stop-opacity="0.2597"/>
<stop offset="0.8731" stop-color="#FBFBFC" stop-opacity="0.1269"/>
<stop offset="1" stop-color="white" stop-opacity="0"/>
</radialGradient>
<linearGradient id="paint34_linear" x1="318.451" y1="282.79" x2="322.675" y2="382.142" gradientUnits="userSpaceOnUse">
<stop offset="4.1e-07" stop-color="#28067E"/>
<stop offset="0.1606" stop-color="#2D0A83"/>
<stop offset="0.3497" stop-color="#3A1691"/>
<stop offset="0.5532" stop-color="#502AA9"/>
<stop offset="0.7667" stop-color="#6E46CA"/>
<stop offset="0.9861" stop-color="#956AF4"/>
<stop offset="1" stop-color="#986CF7"/>
</linearGradient>
<linearGradient id="paint35_linear" x1="207.25" y1="231.543" x2="287.702" y2="231.543" gradientUnits="userSpaceOnUse">
<stop offset="6.8e-07" stop-color="#DF59A5"/>
<stop offset="1" stop-color="#A426F2"/>
</linearGradient>
<linearGradient id="paint36_linear" x1="356.144" y1="187.435" x2="450.595" y2="187.435" gradientUnits="userSpaceOnUse">
<stop offset="6.8e-07" stop-color="#DF59A5"/>
<stop offset="1" stop-color="#A426F2"/>
</linearGradient>
<linearGradient id="paint37_linear" x1="82.965" y1="184.141" x2="130.256" y2="184.141" gradientUnits="userSpaceOnUse">
<stop offset="6.8e-07" stop-color="#DF59A5"/>
<stop offset="1" stop-color="#A426F2"/>
</linearGradient>
<linearGradient id="paint38_linear" x1="354.393" y1="133.609" x2="391.775" y2="133.609" gradientUnits="userSpaceOnUse">
<stop offset="6.8e-07" stop-color="#DF59A5"/>
<stop offset="1" stop-color="#A426F2"/>
</linearGradient>
<radialGradient id="paint39_radial" cx="0" cy="0" r="1" gradientUnits="userSpaceOnUse" gradientTransform="translate(248.231 195.078) scale(81.6175 5.80948)">
<stop offset="8.2e-07" stop-color="#B8B8FF" stop-opacity="0.7"/>
<stop offset="0.0659" stop-color="#C8C8FF" stop-opacity="0.7311"/>
<stop offset="0.1903" stop-color="#E0E0FF" stop-opacity="0.7899"/>
<stop offset="0.3218" stop-color="#F1F1FF" stop-opacity="0.852"/>
<stop offset="0.4638" stop-color="#FCFCFF" stop-opacity="0.9191"/>
<stop offset="0.6352" stop-color="white"/>
<stop offset="0.6721" stop-color="white"/>
<stop offset="1" stop-color="white"/>
</radialGradient>
<linearGradient id="paint40_linear" x1="249.016" y1="125.882" x2="249.016" y2="192.918" gradientUnits="userSpaceOnUse">
<stop offset="5e-08" stop-color="#F1C88D"/>
<stop offset="0.2682" stop-color="#EEC58A"/>
<stop offset="0.468" stop-color="#E6BB82"/>
<stop offset="0.6457" stop-color="#D7AB73"/>
<stop offset="0.8106" stop-color="#C2955F"/>
<stop offset="0.9652" stop-color="#A87845"/>
<stop offset="1" stop-color="#A1703E"/>
</linearGradient>
<linearGradient id="paint41_linear" x1="249.07" y1="154.154" x2="249.07" y2="160" gradientUnits="userSpaceOnUse">
<stop offset="5e-08" stop-color="#F9C792" stop-opacity="0"/>
<stop offset="0.2481" stop-color="#E6B582" stop-opacity="0.2481"/>
<stop offset="0.7502" stop-color="#B48558" stop-opacity="0.7502"/>
<stop offset="1" stop-color="#996B41"/>
</linearGradient>
<linearGradient id="paint42_linear" x1="248.643" y1="192.221" x2="252.592" y2="95.873" gradientUnits="userSpaceOnUse">
<stop offset="0.0019" stop-color="white" stop-opacity="0.4"/>
<stop offset="0.3235" stop-color="#D7C9ED" stop-opacity="0.5933"/>
<stop offset="1" stop-color="#7A4CC5"/>
</linearGradient>
<linearGradient id="paint43_linear" x1="248.643" y1="192.221" x2="252.592" y2="95.873" gradientUnits="userSpaceOnUse">
<stop offset="0.0019" stop-color="white" stop-opacity="0.4"/>
<stop offset="0.3235" stop-color="#D7C9ED" stop-opacity="0.5933"/>
<stop offset="1" stop-color="#7A4CC5"/>
</linearGradient>
<linearGradient id="paint44_linear" x1="129.078" y1="54.4608" x2="122.415" y2="-147.871" gradientUnits="userSpaceOnUse">
<stop offset="4.1e-07" stop-color="#28067E"/>
<stop offset="0.1606" stop-color="#2D0A83"/>
<stop offset="0.3497" stop-color="#3A1691"/>
<stop offset="0.5532" stop-color="#502AA9"/>
<stop offset="0.7667" stop-color="#6E46CA"/>
<stop offset="0.9861" stop-color="#956AF4"/>
<stop offset="1" stop-color="#986CF7"/>
</linearGradient>
<linearGradient id="paint45_linear" x1="-1.35527" y1="-27.2334" x2="231.529" y2="68.5373" gradientUnits="userSpaceOnUse">
<stop offset="6.8e-07" stop-color="#DF59A5"/>
<stop offset="1" stop-color="#A426F2"/>
</linearGradient>
<linearGradient id="paint46_linear" x1="203.211" y1="52.0195" x2="196.547" y2="-150.315" gradientUnits="userSpaceOnUse">
<stop offset="4.1e-07" stop-color="#28067E"/>
<stop offset="0.1606" stop-color="#2D0A83"/>
<stop offset="0.3497" stop-color="#3A1691"/>
<stop offset="0.5532" stop-color="#502AA9"/>
<stop offset="0.7667" stop-color="#6E46CA"/>
<stop offset="0.9861" stop-color="#956AF4"/>
<stop offset="1" stop-color="#986CF7"/>
</linearGradient>
<linearGradient id="paint47_linear" x1="9.35685" y1="-53.2966" x2="242.245" y2="42.4756" gradientUnits="userSpaceOnUse">
<stop offset="6.8e-07" stop-color="#DF59A5"/>
<stop offset="1" stop-color="#A426F2"/>
</linearGradient>
<linearGradient id="paint48_linear" x1="290.933" y1="49.1293" x2="284.269" y2="-153.201" gradientUnits="userSpaceOnUse">
<stop offset="4.1e-07" stop-color="#28067E"/>
<stop offset="0.1606" stop-color="#2D0A83"/>
<stop offset="0.3497" stop-color="#3A1691"/>
<stop offset="0.5532" stop-color="#502AA9"/>
<stop offset="0.7667" stop-color="#6E46CA"/>
<stop offset="0.9861" stop-color="#956AF4"/>
<stop offset="1" stop-color="#986CF7"/>
</linearGradient>
<linearGradient id="paint49_linear" x1="365.067" y1="46.6887" x2="358.403" y2="-155.645" gradientUnits="userSpaceOnUse">
<stop offset="4.1e-07" stop-color="#28067E"/>
<stop offset="0.1606" stop-color="#2D0A83"/>
<stop offset="0.3497" stop-color="#3A1691"/>
<stop offset="0.5532" stop-color="#502AA9"/>
<stop offset="0.7667" stop-color="#6E46CA"/>
<stop offset="0.9861" stop-color="#956AF4"/>
<stop offset="1" stop-color="#986CF7"/>
</linearGradient>
<linearGradient id="paint50_linear" x1="20.266" y1="-79.8084" x2="253.148" y2="15.961" gradientUnits="userSpaceOnUse">
<stop offset="6.8e-07" stop-color="#DF59A5"/>
<stop offset="1" stop-color="#A426F2"/>
</linearGradient>
<linearGradient id="paint51_linear" x1="-107.608" y1="-11.2887" x2="389.279" y2="213.647" gradientUnits="userSpaceOnUse">
<stop offset="4.1e-07" stop-color="#28067E"/>
<stop offset="0.1606" stop-color="#2D0A83"/>
<stop offset="0.3497" stop-color="#3A1691"/>
<stop offset="0.5532" stop-color="#502AA9"/>
<stop offset="0.7667" stop-color="#6E46CA"/>
<stop offset="0.9861" stop-color="#956AF4"/>
<stop offset="1" stop-color="#986CF7"/>
</linearGradient>
<linearGradient id="paint52_linear" x1="92.0707" y1="55.7315" x2="599.329" y2="292.539" gradientUnits="userSpaceOnUse">
<stop offset="6.8e-07" stop-color="#DF59A5"/>
<stop offset="1" stop-color="#A426F2"/>
</linearGradient>
<linearGradient id="paint53_linear" x1="-90.8324" y1="-48.3634" x2="406.068" y2="176.578" gradientUnits="userSpaceOnUse">
<stop offset="4.1e-07" stop-color="#28067E"/>
<stop offset="0.1606" stop-color="#2D0A83"/>
<stop offset="0.3497" stop-color="#3A1691"/>
<stop offset="0.5532" stop-color="#502AA9"/>
<stop offset="0.7667" stop-color="#6E46CA"/>
<stop offset="0.9861" stop-color="#956AF4"/>
<stop offset="1" stop-color="#986CF7"/>
</linearGradient>
<linearGradient id="paint54_linear" x1="110.038" y1="17.2478" x2="617.297" y2="254.055" gradientUnits="userSpaceOnUse">
<stop offset="6.8e-07" stop-color="#DF59A5"/>
<stop offset="1" stop-color="#A426F2"/>
</linearGradient>
<linearGradient id="paint55_linear" x1="-73.6055" y1="-86.4005" x2="423.282" y2="138.535" gradientUnits="userSpaceOnUse">
<stop offset="4.1e-07" stop-color="#28067E"/>
<stop offset="0.1606" stop-color="#2D0A83"/>
<stop offset="0.3497" stop-color="#3A1691"/>
<stop offset="0.5532" stop-color="#502AA9"/>
<stop offset="0.7667" stop-color="#6E46CA"/>
<stop offset="0.9861" stop-color="#956AF4"/>
<stop offset="1" stop-color="#986CF7"/>
</linearGradient>
<linearGradient id="paint56_linear" x1="-56.8369" y1="-123.477" x2="440.064" y2="101.464" gradientUnits="userSpaceOnUse">
<stop offset="4.1e-07" stop-color="#28067E"/>
<stop offset="0.1606" stop-color="#2D0A83"/>
<stop offset="0.3497" stop-color="#3A1691"/>
<stop offset="0.5532" stop-color="#502AA9"/>
<stop offset="0.7667" stop-color="#6E46CA"/>
<stop offset="0.9861" stop-color="#956AF4"/>
<stop offset="1" stop-color="#986CF7"/>
</linearGradient>
<linearGradient id="paint57_linear" x1="127.845" y1="-20.8999" x2="635.104" y2="215.908" gradientUnits="userSpaceOnUse">
<stop offset="6.8e-07" stop-color="#DF59A5"/>
<stop offset="1" stop-color="#A426F2"/>
</linearGradient>
<linearGradient id="paint58_linear" x1="246.438" y1="11.6357" x2="246.265" y2="1.24281" gradientUnits="userSpaceOnUse">
<stop offset="4.1e-07" stop-color="#28067E"/>
<stop offset="0.1606" stop-color="#2D0A83"/>
<stop offset="0.3497" stop-color="#3A1691"/>
<stop offset="0.5532" stop-color="#502AA9"/>
<stop offset="0.7667" stop-color="#6E46CA"/>
<stop offset="0.9861" stop-color="#956AF4"/>
<stop offset="1" stop-color="#986CF7"/>
</linearGradient>
<linearGradient id="paint59_linear" x1="246.308" y1="114.943" x2="249.269" y2="201.285" gradientUnits="userSpaceOnUse">
<stop offset="0.0019" stop-color="white" stop-opacity="0.4"/>
<stop offset="0.3235" stop-color="#D7C9ED" stop-opacity="0.5933"/>
<stop offset="1" stop-color="#7A4CC5"/>
</linearGradient>
</defs>
</svg>
