<svg width="80" height="80" viewBox="0 0 80 80" fill="none" xmlns="http://www.w3.org/2000/svg">
<circle cx="40" cy="40" r="40" fill="#7BB9FF"/>
<circle cx="40" cy="40" r="40" fill="url(#paint0_linear)"/>
<path fill-rule="evenodd" clip-rule="evenodd" d="M29.4907 60C32.7763 60 35.4398 57.3484 35.4398 54.0774C35.4398 50.8064 32.7763 48.1548 29.4907 48.1548C26.205 48.1548 23.5415 50.8064 23.5415 54.0774C23.5415 57.3484 26.205 60 29.4907 60ZM29.5711 56.9587C31.1251 56.9587 32.3849 55.7045 32.3849 54.1574C32.3849 52.6103 31.1251 51.3562 29.5711 51.3562C28.0171 51.3562 26.7573 52.6103 26.7573 54.1574C26.7573 55.7045 28.0171 56.9587 29.5711 56.9587Z" fill="white"/>
<path fill-rule="evenodd" clip-rule="evenodd" d="M58.915 60C62.2006 60 64.8641 57.3484 64.8641 54.0774C64.8641 50.8064 62.2006 48.1548 58.915 48.1548C55.6293 48.1548 52.9658 50.8064 52.9658 54.0774C52.9658 57.3484 55.6293 60 58.915 60ZM58.9954 56.9587C60.5494 56.9587 61.8092 55.7045 61.8092 54.1574C61.8092 52.6103 60.5494 51.3562 58.9954 51.3562C57.4414 51.3562 56.1816 52.6103 56.1816 54.1574C56.1816 55.7045 57.4414 56.9587 58.9954 56.9587Z" fill="white"/>
<path d="M68.4819 48.2348H65.0249C67.4689 50.6038 67.6511 53.7039 67.4368 54.9578H68.4819C69.7039 54.7657 69.9558 53.864 69.929 53.4371C69.9826 52.45 70.0576 50.2677 69.929 49.4353C69.8003 48.603 68.9106 48.2882 68.4819 48.2348Z" fill="white"/>
<path d="M39.1832 29.5865C39.2368 29.4265 39.426 29.2281 39.751 28.9913V30.3569C39.751 30.6904 39.7309 30.8971 39.6907 30.9772C39.6538 31.0539 39.5718 31.0922 39.4445 31.0922C39.3105 31.0922 39.22 31.0422 39.1731 30.9421C39.1296 30.8421 39.1078 30.6203 39.1078 30.2768C39.1078 29.9767 39.1329 29.7466 39.1832 29.5865Z" fill="white"/>
<path d="M31.7015 39.721V37.9202C31.9192 37.9236 32.065 37.9386 32.1386 37.9652C32.2157 37.9919 32.2777 38.057 32.3246 38.1603C32.3715 38.2604 32.3949 38.4371 32.3949 38.6906C32.3949 39.1708 32.3664 39.4626 32.3095 39.566C32.2525 39.666 32.1202 39.716 31.9125 39.716C31.8623 39.716 31.7919 39.7177 31.7015 39.721Z" fill="white"/>
<path d="M31.7015 43.2476V40.9816C32.0164 40.9916 32.2107 41.0333 32.2844 41.1066C32.3581 41.18 32.3949 41.3901 32.3949 41.7369V42.4922C32.3949 42.8191 32.353 43.0241 32.2693 43.1075C32.1889 43.1909 31.9996 43.2376 31.7015 43.2476Z" fill="white"/>
<path fill-rule="evenodd" clip-rule="evenodd" d="M16.9492 43.5127H21.2101C22.014 43.3526 22.3356 42.9525 22.3356 42.0721C22.3356 41.3678 21.7996 41.085 21.5316 41.0316H14.5373C14.2694 40.9783 13.7334 40.7275 13.7334 40.1512C13.7334 39.3189 14.2694 39.1108 14.5373 39.1108H23.1395C23.4879 39.1108 24.2007 38.8546 24.265 37.8302C24.3294 36.8057 23.5415 36.4963 23.1395 36.4696H16.3864C16.1452 36.523 15.6629 36.4536 15.6629 35.7493C15.6629 35.045 16.1452 35.029 16.3864 35.109H21.5316C21.88 35.0556 22.5768 34.7248 22.5768 33.8284C22.5768 32.932 21.88 32.5479 21.5316 32.4678H11.8843C11.5896 32.5479 11 32.4838 11 31.5874C11 30.691 11.5896 30.627 11.8843 30.707H19.361C19.7362 30.6537 20.4865 30.3069 20.4865 29.3464C20.4865 28.386 19.629 28.0926 19.2002 28.0659H14.2962C14.0282 28.0926 13.5726 28.0659 13.5726 27.2655C13.5726 26.4652 14.0818 26.4385 14.2962 26.4652C16.1452 26.4918 20.1006 26.5292 21.1297 26.4652C22.1587 26.4011 22.3088 25.6915 22.2552 25.3447C22.3838 24.3202 21.5584 23.9574 21.1297 23.904H16.7884C16.5311 21.2789 18.0747 20.8894 18.8786 21.0228C27.856 21.0494 46.2448 21.0868 47.9813 21.0228C49.7179 20.9587 50.152 22.3834 50.152 23.1037V44.9533C49.959 46.362 48.5709 46.6608 47.9009 46.6341H34.0731C30.7931 44.6492 26.4893 45.8071 24.7474 46.6341H19.2806C16.515 46.6341 16.574 44.5532 16.9492 43.5127ZM24.3605 24.0491H27.8878V25.6698H26.4759V27.2055H27.7974V28.7462H26.4759V30.527H28.0285V32.1477H24.3605V24.0491ZM36.9573 25.5097L36.1483 32.1477H33.9425C33.8219 31.3373 33.6829 30.2702 33.5254 28.9463C33.4719 29.5265 33.3965 30.1134 33.2993 30.707L33.0732 32.1477H30.8674L30.0082 25.5097H31.7568C31.7702 25.6832 31.9176 26.9487 32.1989 29.3064C32.219 29.0663 32.3698 27.8008 32.6512 25.5097H34.3344L34.7464 29.3064C34.8101 28.1993 34.9642 26.9337 35.2087 25.5097H36.9573ZM37.2035 28.0809H39.1078V27.3856C39.1078 27.0154 39.1246 26.787 39.1581 26.7003C39.1916 26.6102 39.277 26.5652 39.4143 26.5652C39.5349 26.5652 39.6203 26.6186 39.6706 26.7253C39.7242 26.8287 39.751 27.0538 39.751 27.4006C39.751 27.6774 39.7275 27.8608 39.6806 27.9508C39.6337 28.0409 39.277 28.2159 38.6104 28.4761C37.9873 28.7162 37.5971 28.9263 37.4396 29.1063C37.2822 29.2864 37.2035 29.6249 37.2035 30.1218V30.667C37.2035 31.3373 37.3509 31.7725 37.6457 31.9726C37.9438 32.1694 38.2704 32.2677 38.6255 32.2677C38.8968 32.2677 39.1296 32.2094 39.3239 32.0927C39.5215 31.9726 39.6823 31.7942 39.8062 31.5574V32.1477H41.7809V28.8162C41.7809 27.7191 41.7458 26.9954 41.6754 26.6452C41.6051 26.2918 41.3957 25.995 41.0473 25.7548C40.699 25.5114 40.1814 25.3897 39.4947 25.3897C38.9219 25.3897 38.4563 25.4964 38.0979 25.7098C37.7394 25.9233 37.4999 26.17 37.3793 26.4502C37.2621 26.7269 37.2035 27.1221 37.2035 27.6357V28.0809ZM46.7302 25.5097L46.1473 30.3119C46.0569 31.0722 45.9799 31.5908 45.9162 31.8676C45.8559 32.1443 45.7537 32.3728 45.6097 32.5529C45.4657 32.7329 45.2647 32.8647 45.0067 32.948C44.7522 33.0347 44.3435 33.0781 43.7807 33.0781H42.5497V32.0176C42.8646 32.0176 43.0672 32.0026 43.1577 31.9726C43.2481 31.9393 43.2933 31.8676 43.2933 31.7575C43.2933 31.7041 43.2515 31.4724 43.1677 31.0622L42.0573 25.5097H43.9013L44.5646 29.9867L44.8862 25.5097H46.7302ZM31.6965 36.5346H29.5861V44.6332H32.0331C32.884 44.6332 33.4467 44.5848 33.7214 44.4881C33.9961 44.3914 34.1954 44.2113 34.3193 43.9479C34.4466 43.6844 34.5103 43.2793 34.5103 42.7324V41.982C34.5103 41.4551 34.4232 41.065 34.249 40.8115C34.0748 40.5547 33.7432 40.3713 33.2541 40.2613C33.6929 40.1612 33.986 40.0178 34.1334 39.8311C34.2842 39.6443 34.3595 39.3142 34.3595 38.8406C34.3595 38.1403 34.254 37.6334 34.043 37.32C33.832 37.0032 33.5539 36.7931 33.2089 36.6897C32.8672 36.5863 32.3631 36.5346 31.6965 36.5346ZM37.304 36.5346V37.5901H35.2137V36.5346H37.304ZM37.304 37.9953V44.6332H35.2137V37.9953H37.304ZM40.1278 44.6332V36.5346H38.0376V44.6332H40.1278ZM42.9517 36.5346V44.6332H40.8614V36.5346H42.9517Z" fill="white"/>
<path fill-rule="evenodd" clip-rule="evenodd" d="M35.681 48.1548C36.5922 48.9018 38.334 50.956 38.1732 54.9578H50.3932C50.2056 52.0231 51.6312 46.0418 58.8346 45.5936C59.3705 45.5936 60.9891 45.7697 63.1758 46.474H68.3211V43.8328C68.2943 43.6461 68.112 43.2886 67.5975 43.3526H66.5524C66.2576 43.2726 65.6841 42.9365 65.7485 42.2321C65.7753 41.9387 65.9896 41.3197 66.6328 41.1917H68.3211C68.4015 40.8449 68.514 40.0712 68.3211 39.751L62.1307 28.4661C61.8895 28.1993 61.2464 27.6497 60.6032 27.5857H53.5285C52.6978 27.639 51.0846 28.2259 51.2775 30.1468V48.0747L35.681 48.1548ZM54.8952 37.9102H62.8543C63.1758 37.9369 63.6582 37.6701 63.2562 37.1099L60.2816 32.0676C60.0673 31.6675 59.3973 30.8831 58.4326 30.9472C57.4678 31.0112 55.994 30.9738 55.3776 30.9472C55.1096 30.9472 54.5576 31.0592 54.4933 31.5074C54.4289 31.9556 54.4665 35.4291 54.4933 37.1099C54.4665 37.3233 54.5093 37.7822 54.8952 37.9102Z" fill="white"/>
<path d="M23.3807 48.3148C22.4964 48.9818 20.7759 51.2121 20.9689 54.7977H18.2355C17.8067 54.771 16.8849 54.4776 16.6276 53.5171V49.3553C16.6544 49.0085 16.9331 48.3148 17.8335 48.3148H23.3807Z" fill="white"/>
<defs>
<linearGradient id="paint0_linear" x1="42" y1="-2.5" x2="40" y2="94.5" gradientUnits="userSpaceOnUse">
<stop stop-color="#0077FD"/>
<stop offset="0.765625" stop-color="#C1DEFF" stop-opacity="0.469017"/>
<stop offset="1" stop-color="white" stop-opacity="0"/>
</linearGradient>
</defs>
</svg>
