<svg width="80" height="80" viewBox="0 0 80 80" fill="none" xmlns="http://www.w3.org/2000/svg">
<circle cx="40" cy="40" r="40" fill="#7BB9FF"/>
<circle cx="40" cy="40" r="40" fill="url(#paint0_linear)"/>
<path d="M37.623 47.3185H36.007V48.9345H34.3911V53.7823H37.623V55.3982H34.3911V57.0141H36.007V58.63H37.623V57.0141H39.2389V52.1663H36.007V50.5504H39.2389V48.9345H37.623V47.3185Z" fill="white"/>
<path d="M55.3982 61.8619V44.0867H18.2319V61.8619H55.3982ZM51.4731 60.246C51.7672 59.1156 52.6519 58.2301 53.7823 57.9368V60.246H51.4731ZM53.7823 48.0118C52.6519 47.7177 51.7664 46.833 51.4731 45.7026H53.7823V48.0118ZM49.8152 45.7026C50.1569 47.7282 51.7567 49.3272 53.7823 49.6697V56.2797C51.7567 56.6214 50.1578 58.2212 49.8152 60.2468H41.9084C44.199 58.6365 45.7026 55.9799 45.7026 52.9743C45.7026 49.9687 44.199 47.3121 41.9092 45.7026H49.8152ZM36.815 60.246C32.8051 60.246 29.5434 56.9842 29.5434 52.9743C29.5434 48.9644 32.8051 45.7026 36.815 45.7026C40.825 45.7026 44.0867 48.9644 44.0867 52.9743C44.0867 56.9842 40.825 60.246 36.815 60.246V60.246ZM22.157 45.7026C21.8637 46.833 20.9781 47.7185 19.8478 48.0118V45.7026H22.157ZM19.8478 57.9368C20.9781 58.2301 21.8637 59.1156 22.157 60.246H19.8478V57.9368ZM23.8149 60.246C23.4731 58.2204 21.8734 56.6214 19.8478 56.2789V49.6697C21.8734 49.328 23.4723 47.7282 23.8149 45.7026H31.7216C29.4311 47.3121 27.9274 49.9687 27.9274 52.9743C27.9274 55.9799 29.4311 58.6365 31.7208 60.246H23.8149Z" fill="white"/>
<path d="M63.4778 15H34.3911C33.4999 15 32.7752 15.7247 32.7752 16.6159V37.623H26.3115V32.7752H23.0796C21.2973 32.7752 19.8478 34.2247 19.8478 36.0071V40.8548H15V65.0938H58.63V61.8619H61.8619V44.0867H63.4778C64.369 44.0867 65.0938 43.362 65.0938 42.4708V16.6159C65.0938 15.7247 64.369 15 63.4778 15ZM46.5106 16.6159H51.3584V20.3212L50.5504 19.5133L48.9345 21.1292L47.3185 19.5133L46.5106 20.3212V16.6159ZM34.3911 16.6159H44.8947V24.2221L47.3185 21.7982L48.9345 23.4141L50.5504 21.7982L52.9743 24.2221V16.6159H63.4778V27.9274H50.5504V37.623H34.3911V16.6159ZM23.0796 34.3911H24.6956V37.623H23.0796C22.1885 37.623 21.4637 36.8982 21.4637 36.0071C21.4637 35.1159 22.1885 34.3911 23.0796 34.3911ZM57.0141 63.4778H16.6159V42.4708H57.0141V63.4778ZM60.246 60.246H58.63V40.8548H21.4637V38.7897C21.9412 39.0676 22.4882 39.2389 23.0796 39.2389H60.246V60.246ZM61.8619 42.4708V37.623H52.1663V29.5433H63.4778V42.4708H61.8619Z" fill="white"/>
<path d="M53.7822 34.3911H61.8619V36.007H53.7822V34.3911Z" fill="white"/>
<path d="M53.7822 31.1593H55.3982V32.7752H53.7822V31.1593Z" fill="white"/>
<path d="M57.0141 31.1593H61.8619V32.7752H57.0141V31.1593Z" fill="white"/>
<defs>
<linearGradient id="paint0_linear" x1="42" y1="-2.5" x2="40" y2="94.5" gradientUnits="userSpaceOnUse">
<stop stop-color="#0077FD"/>
<stop offset="0.765625" stop-color="#C1DEFF" stop-opacity="0.469017"/>
<stop offset="1" stop-color="white" stop-opacity="0"/>
</linearGradient>
</defs>
</svg>
