<svg width="56" height="56" viewBox="0 0 56 56" fill="none" xmlns="http://www.w3.org/2000/svg">
<path d="M27.5388 51.8494V49.28H11.4635C8.82823 49.28 6.65412 47.1059 6.65412 44.4706V11.3976C6.65412 8.76235 8.82823 6.58824 11.4635 6.58824H44.5365C47.1718 6.58824 49.3459 8.76235 49.3459 11.3976V27.4729H51.9153C53.3647 27.4729 54.6824 27.6706 56 28.1318V11.4635C56 5.13882 50.8612 0 44.5365 0H11.4635C5.13882 0 0 5.13882 0 11.4635V44.5365C0 50.8612 5.13882 56 11.4635 56H28.1318C27.7365 54.6165 27.5388 53.2329 27.5388 51.8494Z" fill="#232323"/>
<path d="M51.9152 55.9342H35.3788C33.1388 55.9342 31.2941 54.0895 31.2941 51.8495V35.313C31.2941 33.073 33.1388 31.2283 35.3788 31.2283H51.9152C54.1552 31.2283 56 33.073 56 35.313V51.8495C56 54.0895 54.1552 55.9342 51.9152 55.9342Z" fill="#28A8E0"/>
</svg>
