<svg width="78" height="78" viewBox="0 0 78 78" fill="none" xmlns="http://www.w3.org/2000/svg">
<path d="M68.1245 54.7284L56.7486 60.0498C55.178 57.1574 52.1651 55.3167 48.8494 55.224L38.3479 54.9383C36.6851 54.8913 35.0535 54.4743 33.575 53.7182L32.5064 53.1699C27.0351 50.3463 20.5137 50.3534 15.048 53.1882L15.1147 50.7914C15.1367 49.9974 14.5049 49.3361 13.7029 49.3144L2.18737 49.0006C1.3854 48.9788 0.71815 49.6043 0.696169 50.3983L0.000556622 75.4172C-0.0214249 76.2112 0.610369 76.8725 1.41234 76.8943L12.9279 77.2081H12.9676C13.7547 77.2081 14.3985 76.5882 14.4198 75.8097L14.4531 74.6127L17.4448 73.0268C18.619 72.4013 19.9918 72.2525 21.2745 72.6119L39.1392 77.576C39.1704 77.5851 39.2016 77.5921 39.2335 77.5991C40.5247 77.8666 41.8408 78.0007 43.1597 78C45.9535 78.0014 48.7147 77.4054 51.2539 76.2512C51.3163 76.2232 51.3766 76.1902 51.434 76.153L77.3362 59.5654C77.9814 59.1519 78.1899 58.313 77.812 57.6503C75.8889 54.2721 71.6238 52.9853 68.1245 54.7284V54.7284ZM2.94397 74.0595L3.55945 51.9147L12.1713 52.1492L11.5558 74.2947L2.94397 74.0595ZM49.9456 73.6832C46.7909 75.0929 43.2675 75.4818 39.8766 74.7959L22.0602 69.8445C20.0549 69.2836 17.9085 69.516 16.0741 70.4925L14.5453 71.3033L14.9544 56.5797C19.7989 53.3896 26.0119 53.0618 31.1712 55.7232L32.2398 56.2715C34.1075 57.2262 36.1674 57.7528 38.2684 57.8131L48.7707 58.0989C51.7205 58.1831 54.2257 60.2625 54.8241 63.124L39.181 62.6965C38.3791 62.6747 37.7118 63.3009 37.6891 64.0942C37.6671 64.8882 38.2996 65.5495 39.1009 65.5713L56.3643 66.0416H56.4047C57.1911 66.0409 57.8342 65.421 57.8555 64.6432C57.8732 64.0184 57.8264 63.3929 57.7151 62.7779L69.3831 57.3196C69.3944 57.3147 69.4058 57.3091 69.4171 57.3035C71.0721 56.4744 73.0732 56.7517 74.4346 57.9992L49.9456 73.6832Z" fill="#FFC107"/>
<path d="M46.4548 0C32.1194 0 20.4548 11.6645 20.4548 26C20.4548 40.3355 32.1194 52 46.4548 52C60.7903 52 72.4548 40.3355 72.4548 26C72.4548 11.6645 60.7903 0 46.4548 0Z" fill="#FFC107"/>
<path d="M51.7707 37.8182C51.428 37.8182 51.0805 37.7189 50.7732 37.5085L37.7732 28.6449C37.1327 28.2076 36.8491 27.4016 37.0783 26.6595C37.3076 25.9149 37.9954 25.4091 38.7731 25.4091H44.0912C46.3722 25.4091 48.2276 23.5536 48.2276 21.2727C48.2276 18.9918 46.3722 17.1364 44.0912 17.1364H38.7731C37.7945 17.1364 37.0003 16.3422 37.0003 15.3636C37.0003 14.3851 37.7945 13.5909 38.7731 13.5909H44.0912C48.3269 13.5909 51.7731 17.0371 51.7731 21.2727C51.7731 25.3689 48.5491 28.7276 44.5049 28.9451L52.7729 34.5824C53.5812 35.1307 53.7892 36.2345 53.2385 37.0429C52.8958 37.5464 52.338 37.8182 51.7707 37.8182Z" fill="#FAFAFA"/>
<path d="M54.1371 17.1364H38.7735C37.7949 17.1364 37.0007 16.3422 37.0007 15.3636C37.0007 14.3851 37.7949 13.5909 38.7735 13.5909H54.1371C55.1156 13.5909 55.9098 14.3851 55.9098 15.3636C55.9098 16.3422 55.1156 17.1364 54.1371 17.1364Z" fill="#FAFAFA"/>
<path d="M54.1367 23.6364H38.7731C37.7945 23.6364 37.0004 22.8422 37.0004 21.8636C37.0004 20.8851 37.7945 20.0909 38.7731 20.0909H54.1367C55.1153 20.0909 55.9095 20.8851 55.9095 21.8636C55.9095 22.8422 55.1153 23.6364 54.1367 23.6364Z" fill="#FAFAFA"/>
<path d="M46.4548 28.5835C45.8356 28.7844 45.1808 28.9096 44.5048 28.9451L46.4548 30.2758V28.5835ZM46.4548 0C32.1194 0 20.4548 11.6645 20.4548 26C20.4548 40.3355 32.1194 52 46.4548 52V34.5635L37.7732 28.6449C37.1327 28.2076 36.849 27.4016 37.0783 26.6595C37.3076 25.9149 37.9954 25.4091 38.773 25.4091H44.0912C44.9681 25.4091 45.7836 25.1349 46.4548 24.6645V23.6364H38.773C37.7945 23.6364 37.0003 22.8422 37.0003 21.8636C37.0003 20.8851 37.7945 20.0909 38.773 20.0909H46.4548V17.8809C45.7836 17.4129 44.9681 17.1364 44.0912 17.1364H38.773C37.7945 17.1364 37.0003 16.3422 37.0003 15.3636C37.0003 14.3851 37.7945 13.5909 38.773 13.5909H46.4548V0Z" fill="#DEA806"/>
<path d="M46.4548 24.6646C45.7835 25.1326 44.9681 25.4091 44.0912 25.4091H38.773C37.9954 25.4091 37.3075 25.9149 37.0783 26.6595C36.849 27.4017 37.1303 28.2077 37.7732 28.6449L46.4548 34.5635V30.2735L44.5048 28.9427C45.1808 28.9073 45.8355 28.782 46.4548 28.5811V24.6646ZM37.0003 15.3636C37.0003 16.3422 37.7944 17.1364 38.773 17.1364H44.0912C44.9681 17.1364 45.7835 17.4106 46.4548 17.8809V17.1364H38.773C37.7944 17.1364 37.0003 16.3422 37.0003 15.3636Z" fill="#DADADA"/>
<path d="M46.4548 13.5909H38.773C37.7944 13.5909 37.0002 14.3851 37.0002 15.3636C37.0002 16.3422 37.7944 17.1364 38.773 17.1364H46.4548V13.5909Z" fill="#DADADA"/>
<path d="M46.4548 20.0909H38.773C37.7944 20.0909 37.0002 20.8851 37.0002 21.8636C37.0002 22.8422 37.7944 23.6364 38.773 23.6364H46.4548V20.0909Z" fill="#DADADA"/>
</svg>
