<svg width="470" height="438" viewBox="0 0 470 438" fill="none" xmlns="http://www.w3.org/2000/svg">
<path d="M59.2159 212.094V227.33H191.66V213.017L59.2159 212.094Z" fill="#2F55D3"/>
<path d="M125.437 247.081C162.011 247.081 191.66 238.237 191.66 227.33C191.66 216.423 162.011 207.579 125.437 207.579C88.8631 207.579 59.214 216.423 59.214 227.33C59.214 238.237 88.8631 247.081 125.437 247.081Z" fill="#2F55D3"/>
<path d="M342.632 297.932L331.958 253.728L328.003 254.686L338.677 298.889L342.632 297.932Z" fill="#2F55D3"/>
<path d="M336.947 176.357C336.947 176.357 332.89 180.87 332.528 184.873C332.327 187.065 336.797 191.043 338.52 190.772C340.247 190.499 339.883 186.406 339.883 186.406H345.334L345.485 191.74C345.485 191.74 348.117 190.679 349.088 189.678C350.058 188.68 350.602 186.406 350.602 186.406V182.679L336.947 176.357Z" fill="#919191"/>
<path d="M368.155 168.87L390.312 156.639L398.503 155.594L419.415 176.198L391.608 185.975L389.38 182.754L368.155 183.624V168.87Z" fill="#5577E8"/>
<path d="M348.968 179.052L368.118 167.526L377.717 184.541L350.374 186.215L348.968 179.052Z" fill="#2F55D3"/>
<path d="M350.526 259.72C350.526 259.72 348.264 254.969 344.715 253.871L345.139 260.465L350.526 259.72Z" fill="#9E9E9E"/>
<path d="M344.364 436.238C311.675 436.472 274.382 436.607 234.795 436.607C105.543 436.607 0.763062 435.189 0.763062 433.441C0.763062 431.693 105.543 430.273 234.795 430.273C364.047 430.273 468.826 431.691 468.826 433.441C468.828 434.651 418.404 435.706 344.364 436.238Z" fill="#7A99FF" fill-opacity="0.5"/>
<path d="M428.463 267.771L424.467 346.427L446.657 433.441H437.723L403.872 347.246L386.395 267.771H428.463Z" fill="#2F55D3"/>
<path d="M370.832 433.441H380.761L384.621 346.317L428.463 267.771H386.395L364.928 346.317L370.832 433.441Z" fill="#2F55D3"/>
<path d="M380.728 433.422C380.728 433.422 364.824 430.289 358.74 433.422C358.74 433.422 359.637 435.871 380.728 433.422Z" fill="#263238"/>
<path d="M446.398 433.422C446.398 433.422 430.494 430.289 424.41 433.422C424.412 433.422 425.307 435.871 446.398 433.422Z" fill="#263238"/>
<path d="M417.667 157.757L393.195 162.009L381.536 196.896L387.508 248.45L383.41 271.772H429.714C429.714 271.772 430.127 209.849 429.617 202.58C427.45 171.684 424.51 176.956 417.667 157.757Z" fill="#4B6CDA"/>
<path d="M346.744 311.312C343.963 312.396 341.605 312.671 337.958 311.312V184.789C341.314 183.75 343.295 183.787 346.744 184.789V311.312Z" fill="#2F55D3"/>
<path d="M410.847 145.351C411.468 156.492 416.062 160.017 416.062 160.017L397.939 165.894C397.939 165.894 397.691 157.535 396.7 150.336C399.183 149.423 405.759 146.974 410.847 145.351Z" fill="#FFA329"/>
<g opacity="0.3">
<path opacity="0.3" d="M381.536 196.894L398.914 241.369L389.374 266.671L429.712 271.77H383.408L387.506 248.448L381.536 196.894Z" fill="#0097A7"/>
</g>
<path opacity="0.3" d="M418.391 159.731L415.673 150.839L389.374 163.054L391.05 168.428L386.021 183.473C395.329 181.191 412.648 170.044 420.436 164.814C419.797 163.335 419.118 161.675 418.391 159.731Z" fill="#0097A7"/>
<path d="M423.614 185.321L414.695 227.905L410.227 237.406L356.73 267.771L352.262 259.412L390.151 222.681L396.829 181.475C397.746 175.811 402.245 171.233 408.204 169.901C417.663 167.786 425.999 177.516 423.614 185.321Z" fill="#5577E8"/>
<path d="M350.526 259.72L368.142 239.973L380.344 255.421L354.146 268.912L350.526 259.72Z" fill="#2F55D3"/>
<path d="M383.53 125.5C384.745 137.192 387.115 152.226 391.311 153.208C398.237 154.828 412.084 148.804 412.731 142.126C414.534 123.597 413.913 110.364 405.219 106.947C402.755 105.978 381.028 101.408 383.53 125.5Z" fill="#FFB74D"/>
<path d="M418.396 159.75L415.673 150.839L389.374 163.054L391.329 169.321L418.396 159.75Z" fill="#5577E8"/>
<path d="M412.733 142.126C415.189 138.614 427.541 117.529 417.669 107.662C405.822 97.1341 382.643 105.053 381.835 111.611C381.451 114.748 384.409 116.451 387.514 116.137C393.099 115.575 401.836 112.686 402.894 116.398C403.95 120.112 406.536 133.229 406.536 133.229L411.411 132.598L412.733 142.126Z" fill="#5D4037"/>
<path d="M379.646 120.218L399.862 118.125C399.862 118.125 407.856 153.161 396.698 155.622C381.536 158.961 379.646 120.218 379.646 120.218Z" fill="#3479CB"/>
<path d="M420.933 127.366L399.862 130.553V125.59L421.771 122.237C422.013 124.164 421.83 125.382 420.933 127.366Z" fill="#3479CB"/>
<path d="M417.667 131.797C417.667 135.23 414.609 138.009 412.322 138.009C410.035 138.009 409.386 135.23 409.386 131.797C409.386 128.367 411.24 125.588 413.527 125.588C415.814 125.588 417.667 128.369 417.667 131.797Z" fill="#FFB74D"/>
<path d="M415.673 131.797C415.673 133.578 414.09 135.018 412.904 135.018C411.718 135.018 411.38 133.578 411.38 131.797C411.38 130.021 412.343 128.578 413.529 128.578C414.715 128.578 415.673 130.021 415.673 131.797Z" fill="#FFA329"/>
<g opacity="0.1">
<path opacity="0.1" d="M399.86 118.123L394.175 118.712C395.272 123.125 402.015 151.831 392.936 155.551C394.09 155.869 395.339 155.92 396.698 155.62C407.854 153.161 399.86 118.123 399.86 118.123Z" fill="#3479CB"/>
</g>
<path d="M418.318 108.98C418.318 108.98 419.814 97.5069 399.056 101.28C399.056 101.28 389.374 103.775 383.882 102.5C383.882 102.5 385.135 105.189 387.253 105.556C387.253 105.556 379.691 106.966 376.342 106.735C376.342 106.735 378.265 109.92 380.81 110.826C380.81 110.826 380.315 112.307 377.127 112.607C382.297 118.138 386.735 117.69 402.312 114.047C413.486 111.433 418.318 108.98 418.318 108.98Z" fill="#5D4037"/>
<path d="M409.386 124.84C409.386 124.84 405.596 99.6806 395.425 102.05C395.425 102.05 398.536 99.8699 403.885 100.632C403.885 100.632 411.38 103.019 414.76 123.946L409.386 124.84Z" fill="#4B6CDA"/>
<path d="M396.324 125.588C396.324 125.588 397.565 130.815 397.628 135.285L380.81 136.974C380.81 136.974 379.63 133.081 379.197 127.45L396.324 125.588Z" fill="#5577E8"/>
<path d="M394.155 127.022C394.155 127.022 395.067 130.565 395.119 134.313L381.707 135.725C381.707 135.725 380.482 132.152 380.482 128.578L394.155 127.022Z" fill="#4B6CDA"/>
<g opacity="0.1">
<path opacity="0.1" d="M397.628 126.395L396.324 125.588C396.324 125.588 397.565 130.815 397.628 135.285L381.701 136.884C381.931 137.86 382.096 138.406 382.096 138.406L398.914 136.717C398.851 132.25 397.628 126.395 397.628 126.395Z" fill="#5577E8"/>
</g>
<g opacity="0.3">
<path opacity="0.3" d="M415.73 234.522L424.412 181.509L414.695 227.905L410.227 237.406L387.144 250.507L385.74 258.51L411.262 244.021L415.73 234.522Z" fill="#0097A7"/>
</g>
<path opacity="0.2" d="M385.646 271.77L381.99 284.769H419.216L426.573 271.77H385.646Z" fill="#2F55D3"/>
<path d="M337.958 260.009C337.958 260.009 330.329 264.77 331.539 266.726C332.892 268.912 339.399 264.077 339.399 264.077L337.958 260.009Z" fill="#9E9E9E"/>
<path d="M339.311 264.012C339.311 264.012 331.68 268.773 332.89 270.729C334.243 272.917 340.752 268.08 340.752 268.08L339.311 264.012Z" fill="#9E9E9E"/>
<path d="M340.911 267.897C340.911 267.897 333.281 272.66 334.489 274.614C335.842 276.802 342.351 271.965 342.351 271.965L340.911 267.897Z" fill="#9E9E9E"/>
<path d="M342.394 271.815C342.394 271.815 336.034 276.512 337.228 278.142C338.563 279.968 343.936 275.282 343.936 275.282L342.394 271.815Z" fill="#9E9E9E"/>
<path d="M350.526 259.72C350.526 259.72 337.513 257.697 337.287 261.081C337.063 264.462 339.139 275.382 343.531 275.606C347.924 275.83 354.144 268.912 354.144 268.912L350.526 259.72Z" fill="#BDBDBD"/>
<path d="M349.525 178.704C349.525 178.704 339.704 174.856 337.704 175.768C335.706 176.677 334.907 181.859 338.4 181.859C343.428 181.859 350.162 183.194 350.162 183.194C350.162 183.194 351.011 180.729 349.525 178.704Z" fill="#9E9E9E"/>
<path d="M341.562 245.724H237.722V250.53H341.562V245.724Z" fill="#2F55D3"/>
<path d="M22.3751 262.158C22.3751 264.966 24.6496 267.243 27.4534 267.243H239.287C242.093 267.243 244.368 264.966 244.368 262.158V261.834C244.368 259.025 242.093 256.747 239.287 256.747H27.4534C24.6496 256.747 22.3751 259.025 22.3751 261.834V262.158Z" fill="#466ED7"/>
<path d="M331.407 238.488H324.219V257.766H331.407V238.488Z" fill="#2F55D3"/>
<path d="M342.746 197.465L338.791 196.506L328.099 240.706L332.054 241.666L342.746 197.465Z" fill="#2F55D3"/>
<path d="M238.129 312.628C238.129 316.476 235.014 319.593 231.171 319.593H230.894C227.051 319.593 223.938 316.476 223.938 312.628V231.887C223.938 227.886 227.177 224.643 231.171 224.643C235.014 224.643 238.129 227.762 238.129 231.608V312.628Z" fill="#2F55D3"/>
<path d="M236.86 289.373V227.617C235.602 225.823 233.527 224.643 231.171 224.643C228.693 224.643 226.51 225.894 225.205 227.797V289.373C225.205 292.533 227.763 295.096 230.919 295.096H231.146C234.302 295.096 236.86 292.533 236.86 289.373Z" fill="#466ED7"/>
<path d="M224.363 291.574C224.363 294.381 222.088 296.658 219.282 296.658H219.079C216.275 296.658 214 294.381 214 291.574V232.621C214 229.699 216.365 227.33 219.282 227.33C222.088 227.33 224.363 229.608 224.363 232.417V291.574Z" fill="#2F55D3"/>
<path d="M223.437 274.593V229.502C222.518 228.19 221.004 227.33 219.283 227.33C217.474 227.33 215.879 228.243 214.926 229.634V274.593C214.926 276.9 216.794 278.77 219.097 278.77H219.264C221.569 278.77 223.437 276.9 223.437 274.593Z" fill="#466ED7"/>
<path d="M69.507 246.594H60.9496V278.77H69.507V246.594Z" fill="#2F55D3"/>
<path d="M189.07 246.594H180.51V278.77H189.07V246.594Z" fill="#2F55D3"/>
<path d="M47.6122 60.7617H36.3507V282.681H47.6122V60.7617Z" fill="#2F55D3"/>
<path d="M214.521 60.7617H203.26V282.681H214.521V60.7617Z" fill="#2F55D3"/>
<path d="M131.968 53.546V3.02522C131.968 3.02522 130.216 0.104492 125.264 0.104492C120.312 0.104492 118.904 3.02522 118.904 3.02522V53.546H131.968Z" fill="#2F55D3"/>
<path d="M214.521 63.2432H36.3507V81.7369H214.521V63.2432Z" fill="#2F55D3"/>
<path d="M131.726 36.6288H119.146C107.63 36.6288 98.2932 45.3768 98.2932 56.1658V87.1497H109.87V60.8168C109.87 54.147 114.426 48.7359 121.547 48.7359H129.323C136.442 48.7359 140.998 54.1449 140.998 60.8168V87.1497H152.575V56.1658C152.579 45.3768 143.242 36.6288 131.726 36.6288Z" fill="#2F55D3"/>
<path d="M104.084 76.1204C106.086 76.1204 107.709 74.4949 107.709 72.49C107.709 70.485 106.086 68.8597 104.084 68.8597C102.081 68.8597 100.458 70.485 100.458 72.49C100.458 74.4949 102.081 76.1204 104.084 76.1204Z" fill="#466ED7"/>
<path d="M41.9827 69.5544C43.3176 69.5544 44.4001 68.4708 44.4001 67.134C44.4001 65.7974 43.3176 64.714 41.9827 64.714C40.6478 64.714 39.5656 65.7974 39.5656 67.134C39.5656 68.4708 40.6478 69.5544 41.9827 69.5544Z" fill="#466ED7"/>
<path d="M41.9827 79.2821C43.3176 79.2821 44.4001 78.1985 44.4001 76.8619C44.4001 75.5252 43.3176 74.4417 41.9827 74.4417C40.6478 74.4417 39.5656 75.5252 39.5656 76.8619C39.5656 78.1985 40.6478 79.2821 41.9827 79.2821Z" fill="#466ED7"/>
<path d="M208.89 69.5544C210.224 69.5544 211.307 68.4708 211.307 67.134C211.307 65.7974 210.224 64.714 208.89 64.714C207.555 64.714 206.472 65.7974 206.472 67.134C206.472 68.4708 207.555 69.5544 208.89 69.5544Z" fill="#466ED7"/>
<path d="M208.89 79.2821C210.224 79.2821 211.307 78.1985 211.307 76.8619C211.307 75.5252 210.224 74.4417 208.89 74.4417C207.555 74.4417 206.472 75.5252 206.472 76.8619C206.472 78.1985 207.555 79.2821 208.89 79.2821Z" fill="#466ED7"/>
<path d="M146.723 76.1224C148.727 76.1224 150.351 74.4961 150.351 72.49C150.351 70.484 148.727 68.8577 146.723 68.8577C144.72 68.8577 143.096 70.484 143.096 72.49C143.096 74.4961 144.72 76.1224 146.723 76.1224Z" fill="#466ED7"/>
<path d="M131.968 49.0092C135.606 49.7691 138.335 52.0915 139.797 55.2227V38.1508C137.384 37.2015 134.742 36.6718 131.968 36.6433V49.0092Z" fill="#2F55D3"/>
<path d="M124.762 3.02515H120.2V51.2338H124.762V3.02515Z" fill="#466ED7"/>
<path d="M41.9826 85.3468H37.9298V278.77H41.9826V85.3468Z" fill="#466ED7"/>
<path d="M208.892 85.3468H204.837V278.77H208.892V85.3468Z" fill="#466ED7"/>
<path d="M69.1266 228.491V324.862C69.1266 337.35 94.3377 347.473 125.439 347.473C156.538 347.473 181.752 337.35 181.752 324.862V228.491H69.1266Z" fill="#466ED7"/>
<path d="M125.437 243.726C156.538 243.726 181.75 236.852 181.75 228.371C181.75 219.89 156.538 213.017 125.437 213.017C94.3365 213.017 69.1245 219.89 69.1245 228.371C69.1245 236.852 94.3365 243.726 125.437 243.726Z" fill="#2F55D3"/>
<path d="M125.437 234.813C162.011 234.813 191.66 225.513 191.66 214.039C191.66 202.566 162.011 193.266 125.437 193.266C88.8631 193.266 59.214 202.566 59.214 214.039C59.214 225.513 88.8631 234.813 125.437 234.813Z" fill="#466ED7"/>
<path d="M125.437 247.081C101.65 247.081 80.8013 243.339 69.1245 237.722V254.898C80.7992 260.514 101.648 264.257 125.437 264.257C149.222 264.257 170.073 260.514 181.75 254.898V237.722C170.073 243.339 149.224 247.081 125.437 247.081Z" fill="#2F55D3"/>
<path d="M145.936 246.113V324.862C145.936 334.836 129.848 343.292 107.53 346.297C113.158 347.055 119.177 347.471 125.439 347.471C156.538 347.471 181.752 337.348 181.752 324.86V237.722C173.585 241.648 160.937 244.657 145.936 246.113Z" fill="#2F55D3"/>
<path d="M111.64 225.177L126.69 235.607L141.486 225.177H111.64Z" fill="#2F55D3"/>
<path opacity="0.3" d="M173.725 209.594C171.056 201.657 159.898 176.506 125.608 176.506C91.4323 176.506 79.9977 201.484 77.2041 209.509C76.7158 210.307 76.4473 211.128 76.4473 211.966C76.4473 219.758 98.3806 226.075 125.439 226.075C152.496 226.075 174.429 219.758 174.429 211.966C174.427 211.157 174.179 210.366 173.725 209.594Z" fill="#466ED7"/>
<g opacity="0.6">
<path opacity="0.6" d="M125.437 226.075C152.495 226.075 174.429 219.758 174.429 211.965C174.429 204.173 152.495 197.856 125.437 197.856C98.3796 197.856 76.4452 204.173 76.4452 211.965C76.4452 219.758 98.3796 226.075 125.437 226.075Z" fill="#FFFCE6"/>
</g>
<path d="M125.508 204.297C101.516 204.297 82.0609 210.637 81.9734 218.472C82.36 218.686 82.7647 218.898 83.1879 219.106C83.7067 211.609 102.45 205.583 125.51 205.583C148.504 205.583 167.2 211.572 167.827 219.037C168.25 218.825 168.655 218.613 169.043 218.397C168.826 210.599 149.421 204.297 125.508 204.297Z" fill="#FF9700"/>
<g opacity="0.6">
<path opacity="0.6" d="M84.7098 217.955H166.164C166.164 217.955 159.424 191.881 125.577 191.881C91.7314 191.881 84.7098 217.955 84.7098 217.955Z" fill="#FFFCE6"/>
</g>
<path d="M125.437 205.528C102.081 205.528 83.1492 211.422 83.1492 218.69C83.1492 218.829 83.1695 218.967 83.1838 219.104C91.6967 223.274 107.426 226.075 125.439 226.075C143.45 226.075 159.181 223.274 167.694 219.104C167.708 218.967 167.729 218.829 167.729 218.69C167.727 211.42 148.793 205.528 125.437 205.528Z" fill="#FFFCE6"/>
<path d="M125.437 205.528C102.081 205.528 83.1492 211.422 83.1492 218.69C83.1492 218.829 83.1695 218.967 83.1838 219.104C83.5439 219.281 83.9327 219.45 84.3193 219.621C84.3173 219.587 84.3109 219.554 84.3109 219.52C84.3109 212.448 102.724 206.718 125.439 206.718C148.152 206.718 166.565 212.448 166.565 219.52C166.565 219.554 166.559 219.587 166.557 219.621C166.942 219.45 167.334 219.281 167.694 219.104C167.708 218.967 167.729 218.829 167.729 218.69C167.727 211.42 148.793 205.528 125.437 205.528Z" fill="#FFF5AE"/>
<path d="M113.498 225.014L126.674 234.147L139.626 225.014H113.498Z" fill="#FFFCE6"/>
<g opacity="0.6">
<path opacity="0.6" d="M125.437 198.467C152.14 198.467 173.837 204.621 174.401 212.269C174.409 212.167 174.427 212.067 174.427 211.965C174.427 204.175 152.494 197.858 125.437 197.858C98.3785 197.858 76.4452 204.175 76.4452 211.965C76.4452 212.069 76.4655 212.169 76.4716 212.269C77.0352 204.619 98.7326 198.467 125.437 198.467Z" fill="#FFFCE6"/>
</g>
<path d="M75.428 195.931L60.9496 185.201L77.4627 192.4L75.428 195.931Z" fill="#466ED7"/>
<path d="M85.7272 182.485L80.3315 174.882L88.4495 179.458L85.7272 182.485Z" fill="#466ED7"/>
<path d="M98.9179 173.564L89.0682 150.128L102.531 171.688L98.9179 173.564Z" fill="#466ED7"/>
<path d="M115.484 167.342L115.639 154.361L119.51 166.752L115.484 167.342Z" fill="#466ED7"/>
<path d="M133.401 166.668L139.462 145.565L137.401 167.426L133.401 166.668Z" fill="#466ED7"/>
<path d="M150.63 170.329L156.421 160.703L154.439 171.763L150.63 170.329Z" fill="#466ED7"/>
<path d="M164.075 179.185L182.368 164.592L166.877 182.139L164.075 179.185Z" fill="#466ED7"/>
<path d="M173.003 193.407L187.099 188.542L174.842 197.041L173.003 193.407Z" fill="#466ED7"/>
<path d="M125.639 222.37C140.492 222.37 152.532 219.805 152.532 216.643C152.532 213.481 140.492 210.916 125.639 210.916C110.785 210.916 98.7448 213.481 98.7448 216.643C98.7448 219.805 110.785 222.37 125.639 222.37Z" fill="white"/>
</svg>
