<svg width="98" height="78" viewBox="0 0 98 78" fill="none" xmlns="http://www.w3.org/2000/svg">
<path d="M96.3667 74.7331H93.1C92.1979 74.7331 91.4667 75.4643 91.4667 76.3665C91.4667 77.2687 92.1979 78 93.1 78H96.3667C97.2688 78 98 77.2687 98 76.3665C98 75.4643 97.2688 74.7331 96.3667 74.7331Z" fill="#6A56A6"/>
<path d="M13.0667 46.9636H35.9335C37.7369 46.9619 39.1983 45.5002 39.2002 43.6966V19.1941C39.1985 17.3905 37.7369 15.929 35.9335 15.9271H13.0667C11.2633 15.9288 9.8019 17.3905 9.79999 19.1941V43.6966C9.80171 45.5002 11.2633 46.9619 13.0667 46.9636ZM27.7667 43.6968H21.2335V40.4297C21.2346 39.5281 21.9652 38.7974 22.8667 38.7963H26.1335C27.035 38.7974 27.7656 39.5281 27.7667 40.4297V43.6968V43.6968ZM13.0667 19.1943H35.9335L35.9358 43.6968H31.0335V40.4297C31.0306 37.7245 28.8384 35.5321 26.1335 35.5292H22.8667C20.1618 35.5321 17.9696 37.7245 17.9667 40.4297V43.6968H13.0667V19.1943Z" fill="#6A56A6"/>
<path d="M34.2999 50.2307H14.7C12.8965 50.2324 11.4351 51.6941 11.4332 53.4977V68.1992C11.435 70.0028 12.8965 71.4643 14.7 71.4663H34.2999C36.1034 71.4645 37.5648 70.0028 37.5667 68.1992V53.4977C37.5648 51.6941 36.1034 50.2324 34.2999 50.2307ZM14.7 68.1992V53.4977H34.2999L34.3022 68.1992H14.7Z" fill="#6A56A6"/>
<path d="M29.4 56.7646H19.6C18.6979 56.7646 17.9667 57.496 17.9667 58.398C17.9667 59.3002 18.6979 60.0314 19.6 60.0314H29.4C30.3021 60.0314 31.0333 59.3 31.0333 58.398C31.0333 57.496 30.3021 56.7646 29.4 56.7646Z" fill="#6A56A6"/>
<path d="M29.4 61.6651H19.6C18.6979 61.6651 17.9667 62.3963 17.9667 63.2985C17.9667 64.2007 18.6979 64.9319 19.6 64.9319H29.4C30.3021 64.9319 31.0333 64.2007 31.0333 63.2985C31.0333 62.3963 30.3021 61.6651 29.4 61.6651Z" fill="#6A56A6"/>
<path d="M98 6.51867C98.0011 4.39078 96.9632 2.39632 95.2198 1.17656C93.4765 -0.0432037 91.2472 -0.334553 89.2489 0.396309C89.228 0.404349 89.2053 0.406454 89.185 0.41526C88.3081 0.735898 87.5113 1.2426 86.8491 1.90053L78.8791 9.8713L78.8781 9.87225L69.0791 19.6723L69.0781 19.6732L59.2791 29.4733L59.2781 29.4742L45.8391 42.9146C45.8041 42.9341 45.7681 42.9519 45.7335 42.972V12.3593C47.6856 11.6715 48.9937 9.82956 49 7.75968V2.85919C49 1.957 48.2688 1.22576 47.3667 1.22576H1.63327C0.731172 1.22576 0 1.95719 0 2.85919V7.75968C0.00631641 9.82956 1.31458 11.6715 3.26673 12.3591V74.7331H1.63327C0.731172 74.7331 0 75.4644 0 76.3666C0 77.2688 0.731172 78 1.63327 78H86.5665C87.4686 78 88.1998 77.2688 88.1998 76.3666C88.1998 75.4644 87.4684 74.7331 86.5665 74.7331H55.5333V51.6911L61.5876 45.6361L61.5886 45.6351L71.3876 35.8351L71.3886 35.8341L81.1876 26.0341L81.1886 26.0332L90.9876 16.2331L90.9886 16.2322L96.0842 11.136C97.306 9.9092 97.9943 8.24992 98 6.51867ZM42.4667 74.7331H6.53327V12.6602H42.4665V74.7331H42.4667ZM44.1 9.39331H4.9C3.99848 9.39216 3.26788 8.66149 3.26673 7.75987V4.49281H45.7335V7.75987C45.7321 8.66149 45.0015 9.39216 44.1 9.39331ZM52.2667 74.7331H45.7335V48.5972C45.7335 46.7929 47.196 45.3302 49.0002 45.3302C50.8044 45.3302 52.2669 46.7929 52.2669 48.5972V74.7331H52.2667ZM58.8 43.8043L55.3819 47.2228C54.8796 44.9425 53.1983 43.1041 50.9721 42.4006L58.7998 34.5721V43.8043H58.8ZM68.6 34.0033L62.0667 40.5373V31.305L68.6 24.7711V34.0033ZM78.4 24.2024L71.8667 30.7363V21.504L78.4 14.9701V24.2024ZM88.2 14.4014L81.6667 20.9353V11.703L88.2 5.16912V14.4014ZM93.7747 8.82611L91.4667 11.1343V3.25563C92.3325 3.2541 93.163 3.59771 93.7747 4.21046C94.3884 4.82168 94.7333 5.65209 94.7333 6.51829C94.7333 7.38449 94.3884 8.21489 93.7747 8.82611Z" fill="#6A56A6"/>
<path d="M50.5026 49.6093C50.4666 49.5053 50.4168 49.4068 50.355 49.3158C50.2905 49.2337 50.225 49.1524 50.1596 49.071C49.69 48.6068 48.9872 48.4713 48.3787 48.7272C48.1789 48.8063 47.9961 48.923 47.8403 49.071C47.775 49.1524 47.7096 49.2337 47.6441 49.3158C47.5823 49.4068 47.5327 49.5055 47.4965 49.6093C47.4494 49.7019 47.4167 49.8011 47.3993 49.9035C47.3802 50.0115 47.3692 50.121 47.3668 50.2307C47.3691 50.4441 47.4133 50.6549 47.4967 50.8513C47.576 51.0513 47.6925 51.2343 47.8403 51.3905C47.9992 51.5345 48.1812 51.6505 48.3787 51.7335C48.5753 51.8174 48.7864 51.8618 49 51.8643C49.1093 51.8612 49.2184 51.8503 49.3262 51.8315C49.4286 51.8134 49.5277 51.7802 49.6204 51.7333C49.7245 51.6974 49.8236 51.6478 49.9148 51.5858C49.9961 51.5211 50.0775 51.4558 50.1596 51.3903C50.3069 51.2339 50.4233 51.0509 50.5026 50.8511C50.5862 50.6547 50.6306 50.4439 50.6333 50.2305C50.6304 50.1208 50.6195 50.0115 50.6006 49.9035C50.5826 49.8013 50.5495 49.7021 50.5026 49.6093Z" fill="#6A56A6"/>
</svg>
