<svg width="63" height="70" viewBox="0 0 63 70" fill="none" xmlns="http://www.w3.org/2000/svg">
<path d="M49.7944 38.4902C49.5317 37.7292 49.219 36.9872 48.863 36.2747L51.4857 32.6723L43.6892 25.0258L40.0163 27.5981C39.2887 27.2489 38.5322 26.9422 37.7574 26.6846L37.1897 23.3377V14.5031H46.2897L31.5 0L16.7125 14.5031H25.8125V23.3355L25.2449 26.6824C24.4689 26.9401 23.7125 27.2467 22.986 27.5959L19.313 25.0237L11.5165 32.6702L14.1392 36.2725C13.7832 36.9861 13.4705 37.7281 13.2078 38.488L8.75 39.2163V44.625H20.125C20.125 38.4635 25.2176 33.4688 31.5 33.4688C37.7824 33.4688 42.875 38.4635 42.875 44.625H54.25V39.2163L49.7944 38.4902Z" fill="#F0BC5E"/>
<path d="M30.625 24.5H32.375V27.125H30.625V24.5Z" fill="black"/>
<path d="M18.375 33.25L19.6873 31.5L21 33.25L19.6873 35L18.375 33.25Z" fill="black"/>
<path d="M42 33.25L43.3123 31.5L44.625 33.25L43.3123 35L42 33.25Z" fill="black"/>
<path d="M57.375 16.625H37.125V18.8963H57.375C59.2355 18.8963 60.75 20.4251 60.75 22.3032V54.1011H58.5V23.4388C58.5 22.1862 57.4909 21.1676 56.25 21.1676H37.125V23.4388H56.25V43.8803H43.8179C43.2471 37.5229 37.944 32.5239 31.5 32.5239C28.6529 32.5239 25.8717 33.5254 23.6689 35.3447L25.0955 37.1031C26.8956 35.6153 29.1714 34.7952 31.5 34.7952C36.7031 34.7952 40.9971 38.7777 41.5585 43.8803H21.4459C21.6628 41.934 22.4258 40.0736 23.6613 38.5498L21.9205 37.1109C20.356 39.04 19.4041 41.4094 19.1788 43.8803H6.75V23.4388H25.875V21.1676H6.75C5.50909 21.1676 4.5 22.1862 4.5 23.4388V54.1011H2.25V22.3032C2.25 20.4251 3.76447 18.8963 5.625 18.8963H25.875V16.625H5.625C2.52356 16.625 0 19.1724 0 22.3032V57.508C0 60.6387 2.52356 63.1862 5.625 63.1862H15.75V67.7287H11.25V70H51.75V67.7287H47.25V63.1862H57.375C60.4764 63.1862 63 60.6387 63 57.508V22.3032C63 19.1724 60.4764 16.625 57.375 16.625ZM6.75 46.1516H56.25V54.1011H6.75V46.1516ZM45 67.7287H18V63.1862H45V67.7287ZM60.75 57.508C60.75 59.3861 59.2355 60.9149 57.375 60.9149H5.625C3.76447 60.9149 2.25 59.3861 2.25 57.508V56.3723H60.75V57.508Z" fill="black"/>
<path d="M51.625 49.875H54.25V51.625H51.625V49.875Z" fill="black"/>
<path d="M47.25 49.875H49.875V51.625H47.25V49.875Z" fill="black"/>
<path d="M42.875 49.875H44.625V51.625H42.875V49.875Z" fill="black"/>
<path d="M30.625 12.25H32.375V22.75H30.625V12.25Z" fill="black"/>
</svg>
