<svg width="98" height="78" viewBox="0 0 98 78" fill="none" xmlns="http://www.w3.org/2000/svg">
<path d="M1.63325 74.7331H4.89999C5.80209 74.7331 6.53326 75.4643 6.53326 76.3665C6.53326 77.2687 5.80209 78 4.89999 78H1.63325C0.731156 78 -1.5211e-05 77.2687 -1.5211e-05 76.3665C-1.5211e-05 75.4643 0.731156 74.7331 1.63325 74.7331Z" fill="#6A56A6"/>
<path d="M84.9333 46.9636H62.0665C60.2631 46.9619 58.8017 45.5002 58.7998 43.6966V19.1941C58.8015 17.3905 60.2631 15.929 62.0665 15.9271H84.9333C86.7367 15.9288 88.1981 17.3905 88.2 19.1941V43.6966C88.1983 45.5002 86.7367 46.9619 84.9333 46.9636ZM70.2333 43.6968H76.7665V40.4297C76.7654 39.5281 76.0348 38.7974 75.1333 38.7963H71.8665C70.965 38.7974 70.2344 39.5281 70.2333 40.4297V43.6968V43.6968ZM84.9333 19.1943H62.0665L62.0642 43.6968H66.9665V40.4297C66.9694 37.7245 69.1616 35.5321 71.8665 35.5292H75.1333C77.8382 35.5321 80.0304 37.7245 80.0333 40.4297V43.6968H84.9333V19.1943Z" fill="#6A56A6"/>
<path d="M63.7001 50.2307H83.3C85.1035 50.2324 86.5649 51.6941 86.5668 53.4977V68.1992C86.565 70.0028 85.1035 71.4643 83.3 71.4663H63.7001C61.8966 71.4645 60.4352 70.0028 60.4333 68.1992V53.4977C60.4352 51.6941 61.8966 50.2324 63.7001 50.2307ZM83.3 68.1992V53.4977H63.7001L63.6978 68.1992H83.3Z" fill="#6A56A6"/>
<path d="M68.6 56.7646H78.4C79.3021 56.7646 80.0333 57.496 80.0333 58.398C80.0333 59.3002 79.3021 60.0314 78.4 60.0314H68.6C67.6979 60.0314 66.9667 59.3 66.9667 58.398C66.9667 57.496 67.6979 56.7646 68.6 56.7646Z" fill="#6A56A6"/>
<path d="M68.6 61.6651H78.4C79.3021 61.6651 80.0333 62.3963 80.0333 63.2985C80.0333 64.2007 79.3021 64.9319 78.4 64.9319H68.6C67.6979 64.9319 66.9667 64.2007 66.9667 63.2985C66.9667 62.3963 67.6979 61.6651 68.6 61.6651Z" fill="#6A56A6"/>
<path d="M0 6.51867C-0.00114844 4.39078 1.03685 2.39632 2.78017 1.17656C4.5235 -0.0432037 6.75281 -0.334553 8.75109 0.396309C8.77196 0.404349 8.79473 0.406454 8.81502 0.41526C9.69185 0.735898 10.4887 1.2426 11.1509 1.90053L19.1209 9.8713L19.1219 9.87225L28.9209 19.6723L28.9219 19.6732L38.7209 29.4733L38.7219 29.4742L52.1609 42.9146C52.1959 42.9341 52.2319 42.9519 52.2665 42.972V12.3593C50.3144 11.6715 49.0063 9.82956 49 7.75968V2.85919C49 1.957 49.7312 1.22576 50.6333 1.22576H96.3667C97.2688 1.22576 98 1.95719 98 2.85919V7.75968C97.9937 9.82956 96.6854 11.6715 94.7333 12.3591V74.7331H96.3667C97.2688 74.7331 98 75.4644 98 76.3666C98 77.2688 97.2688 78 96.3667 78H11.4335C10.5314 78 9.80019 77.2688 9.80019 76.3666C9.80019 75.4644 10.5316 74.7331 11.4335 74.7331H42.4667V51.6911L36.4124 45.6361L36.4114 45.6351L26.6124 35.8351L26.6114 35.8341L16.8124 26.0341L16.8114 26.0332L7.01236 16.2331L7.0114 16.2322L1.91579 11.136C0.69404 9.9092 0.00574219 8.24992 0 6.51867ZM55.5333 74.7331H91.4667V12.6602H55.5335V74.7331H55.5333ZM53.9 9.39331H93.1C94.0015 9.39216 94.7321 8.66149 94.7333 7.75987V4.49281H52.2665V7.75987C52.2679 8.66149 52.9985 9.39216 53.9 9.39331ZM45.7333 74.7331H52.2665V48.5972C52.2665 46.7929 50.804 45.3302 48.9998 45.3302C47.1956 45.3302 45.7331 46.7929 45.7331 48.5972V74.7331H45.7333ZM39.2 43.8043L42.6181 47.2228C43.1204 44.9425 44.8017 43.1041 47.0279 42.4006L39.2002 34.5721V43.8043H39.2ZM29.4 34.0033L35.9333 40.5373V31.305L29.4 24.7711V34.0033ZM19.6 24.2024L26.1333 30.7363V21.504L19.6 14.9701V24.2024ZM9.8 14.4014L16.3333 20.9353V11.703L9.8 5.16912V14.4014ZM4.2253 8.82611L6.53327 11.1343V3.25563C5.66754 3.2541 4.83703 3.59771 4.2253 4.21046C3.61165 4.82168 3.26673 5.65209 3.26673 6.51829C3.26673 7.38449 3.61165 8.21489 4.2253 8.82611Z" fill="#6A56A6"/>
<path d="M47.4974 49.6093C47.5334 49.5053 47.5832 49.4068 47.645 49.3158C47.7095 49.2337 47.775 49.1524 47.8404 49.071C48.31 48.6068 49.0128 48.4713 49.6213 48.7272C49.8211 48.8063 50.0039 48.923 50.1597 49.071C50.225 49.1524 50.2904 49.2337 50.3559 49.3158C50.4177 49.4068 50.4673 49.5055 50.5035 49.6093C50.5506 49.7019 50.5833 49.8011 50.6007 49.9035C50.6198 50.0115 50.6308 50.121 50.6332 50.2307C50.6309 50.4441 50.5867 50.6549 50.5033 50.8513C50.424 51.0513 50.3075 51.2343 50.1597 51.3905C50.0008 51.5345 49.8188 51.6505 49.6213 51.7335C49.4247 51.8174 49.2136 51.8618 49 51.8643C48.8907 51.8612 48.7816 51.8503 48.6738 51.8315C48.5714 51.8134 48.4723 51.7802 48.3796 51.7333C48.2755 51.6974 48.1764 51.6478 48.0852 51.5858C48.0039 51.5211 47.9225 51.4558 47.8404 51.3903C47.6931 51.2339 47.5767 51.0509 47.4974 50.8511C47.4138 50.6547 47.3694 50.4439 47.3667 50.2305C47.3696 50.1208 47.3805 50.0115 47.3994 49.9035C47.4174 49.8013 47.4505 49.7021 47.4974 49.6093Z" fill="#6A56A6"/>
</svg>
