<svg width="200" height="255" viewBox="0 0 200 255" fill="none" xmlns="http://www.w3.org/2000/svg">
<path d="M198 208V83L200 82V61L76.5991 93.979V254.5L198 208Z" fill="#D9A72A"/>
<path d="M200 61L79.7993 99.279L7.00024 53.5L119.099 35.579L133.999 40.479L153.999 47.079L200 61Z" fill="#F0C04A"/>
<path d="M155 224.5C155 172 155 130 155 75C134.5 59.5 134 59 118.999 48.179L96.0002 57.5C114.5 73 114.5 73.5 128 83.5C128 137.5 128 178 128 234.5L155 224.5Z" fill="#8FB73A"/>
<path d="M153.999 47.079C145.699 48.879 137.299 50.079 129.099 51.779C123.399 52.879 117.199 53.479 111.699 55.279C102.199 58.279 92.4991 55.179 82.7991 54.479C98.9991 47.179 116.299 42.479 133.999 40.579L153.999 47.079Z" fill="#8FB73A"/>
<path d="M7.00024 53.5V88L8.99927 89V215.5L76.5993 254.5L80.0002 99L7.00024 53.5Z" fill="#BA8D1E"/>
<path d="M78.0002 52.5C61.5002 55.1 44.2002 62.5 28.0002 66.5C37.5002 73 41.8012 74.921 45.0002 77C63.5002 70 70.2012 67.821 96.5002 58C92.0002 54.5 81.0002 52.5 78.0002 52.5Z" fill="#6A872A"/>
<path d="M29.0699 168.31C29.6573 187.167 28.8142 208.626 29.5002 227.5C37.0002 231.5 41.5002 234.5 49.0002 238.5C47.703 237.167 46.6653 223.584 46.6356 220.739C46.4954 213.719 46.4538 206.716 46.3135 199.696C46.1318 185.673 45.9334 171.748 45.7516 157.724C45.6022 144.112 45.3543 130.483 45.2049 116.871C45.0647 109.851 45.0231 102.847 44.8829 95.8271C44.7731 91.043 45.0002 77 45.0002 77C45.0002 77 33.0002 69.5 28 66.5C27.5297 75 27.7038 80.3711 27.4806 88.9524C27.274 97.4352 27.5935 105.803 27.6172 114.122C27.6957 132.387 28.5142 150.472 29.0699 168.31Z" fill="#6A872A"/>
<path d="M129.299 12.679C128.099 20.679 126.799 28.679 125.599 36.679Z" fill="#E6369F"/>
<path d="M108.499 3.77901C106.699 6.37901 105.699 9.37901 104.799 12.379C100.399 26.979 97.2991 42.079 95.7991 57.279C97.6991 58.379 100.199 57.679 101.699 56.079C103.199 54.579 103.999 52.379 104.699 50.379C109.899 35.879 114.999 21.479 120.199 6.97901C123.199 -1.42099 112.499 -1.92099 108.499 3.77901Z" fill="#6A872A"/>
<path d="M135.099 18.679C136.199 13.779 135.299 5.57901 130.299 2.67901C128.199 1.47901 124.399 1.07901 121.899 0.57901C120.299 0.27901 112.799 0.979007 111.999 0.279007C120.699 8.17901 115.199 21.979 112.199 31.279C109.199 40.579 103.799 48.479 100.099 57.379C106.199 59.879 117.899 47.979 121.499 44.079C128.299 36.979 133.099 28.179 135.099 18.679Z" fill="#8FB73A"/>
<path d="M62.1991 20.579C60.8991 15.879 65.5991 14.379 69.2991 15.079C75.5991 16.279 81.3991 20.579 85.6991 25.179C90.9991 30.879 94.6991 37.679 97.7991 44.779C99.4991 48.679 100.899 53.379 98.6991 56.979C92.3991 54.279 88.3991 48.279 84.7991 42.479C81.1991 36.679 77.3991 30.479 71.3991 27.379C69.5991 26.479 67.6991 25.879 65.9991 24.879C64.2991 23.879 62.6991 22.479 62.1991 20.579Z" fill="#6A872A"/>
<path d="M52.6993 28.679C60.8993 42.279 81.4993 60.479 98.6993 55.979C95.0993 50.479 87.7993 47.779 82.9993 43.279C76.9993 37.679 69.8993 30.879 67.9993 22.679C67.3993 19.879 67.7993 16.579 69.7993 14.479C65.3993 14.379 60.8993 15.079 56.7993 16.779C54.1993 17.779 51.4993 19.479 50.8993 22.179C50.3993 24.479 51.4993 26.779 52.6993 28.679Z" fill="#8FB73A"/>
<path d="M78.5004 52C81.6004 52.4 84.7004 53.3 87.8004 53.9C91.2004 54.6 94.7004 56 98.1004 56.5C98.9004 56.6 98.7004 58.9 97.9004 58.8C84.1016 58.921 84.1004 55.6 78.2004 53C77.7004 52.9 77.9004 52 78.5004 52Z" fill="#6A872A"/>
<path d="M116.599 116.879L111.499 115.179L106.899 117.879L106.999 112.579L102.999 109.079L108.099 107.479L110.199 102.579L113.299 106.879L118.599 107.379L115.399 111.679L116.599 116.879Z" fill="#FFD878"/>
<path d="M133.199 161.979L128.199 160.279L123.599 162.979V157.679L119.599 154.079L124.699 152.579L126.799 147.679L129.899 151.979L135.199 152.479L131.999 156.779L133.199 161.979Z" fill="#FFD878"/>
<path d="M127.899 227.779L122.899 226.079L118.299 228.779L118.399 223.479L114.399 219.979L119.399 218.379L121.499 213.479L124.599 217.879L129.899 218.379L126.799 222.579L127.899 227.779Z" fill="#FFD878"/>
<path d="M110.299 181.179L105.199 179.479L100.699 182.179V176.879L96.6992 173.379L101.799 171.779L103.899 166.879L106.999 171.279L112.299 171.679L109.099 175.979L110.299 181.179Z" fill="#FFD878"/>
<path d="M69.5992 111.679L65.8992 109.279L61.9992 111.379L62.5992 106.179L59.8992 102.179L64.0992 101.179L66.2992 96.679L68.1992 101.379L72.1992 102.579L69.2992 106.379L69.5992 111.679Z" fill="#D9A72A"/>
<path d="M50.6994 206.879L46.9994 204.579L43.0994 206.679L43.7994 201.379L41.0994 197.379L45.1994 196.479L47.3994 191.879L49.2994 196.579L53.3994 197.779L50.3994 201.579L50.6994 206.879Z" fill="#D9A72A"/>
<path d="M73.7991 171.379L70.0991 169.079L66.1991 171.179L66.7991 165.879L64.0991 161.879L68.2991 160.979L70.4991 156.379L72.3991 161.079L76.4991 162.279L73.4991 166.079L73.7991 171.379Z" fill="#D9A72A"/>
<path d="M40.3992 146.979L36.5992 144.679L32.7992 146.779L33.3992 141.479L30.6992 137.479L34.7992 136.579L36.9992 131.979L38.9992 136.679L42.9992 137.879L40.0992 141.679L40.3992 146.979Z" fill="#D9A72A"/>
<path d="M74.0991 139.779L72.4991 138.679L70.6991 139.579L70.9991 137.279L69.7991 135.579L71.6991 135.179L72.5991 133.079L73.4991 135.179L75.2991 135.679L73.9991 137.379L74.0991 139.779Z" fill="#D9A72A"/>
<path d="M65.9993 147.579L64.3993 146.479L62.6993 147.379L62.9993 145.079L61.7993 143.379L63.5993 142.979L64.5993 140.879L65.3993 142.979L67.1993 143.479L65.8993 145.179L65.9993 147.579Z" fill="#D9A72A"/>
<path d="M82.3992 208.379L80.7992 207.279L79.0992 208.279L79.3992 205.879L78.1992 204.179L79.9992 203.779L80.9992 201.679L81.7992 203.779L83.5992 204.279L82.2992 205.979L82.3992 208.379Z" fill="#D9A72A"/>
<path d="M82.3992 186.279L80.7992 185.279L79.0992 186.179L79.3992 183.879L78.1992 182.079L79.9992 181.679L80.9992 179.679L81.7992 181.779L83.5992 182.279L82.2992 183.979L82.3992 186.279Z" fill="#D9A72A"/>
<path d="M40.2993 168.079L38.5993 166.979L36.8993 167.879L37.1993 165.579L35.9993 163.879L37.7993 163.479L38.7993 161.379L39.5993 163.479L41.3993 163.979L40.0993 165.679L40.2993 168.079Z" fill="#D9A72A"/>
<path d="M26.1992 89.579L24.4992 88.579L22.7992 89.479L23.0992 87.179L21.8992 85.379L23.6992 84.979L24.6992 82.979L25.4992 85.079L27.2992 85.579L25.9992 87.279L26.1992 89.579Z" fill="#D9A72A"/>
<path d="M59.2993 121.179L57.6993 120.179L55.9993 121.079L56.1993 118.779L54.9993 116.979L56.8993 116.579L57.7993 114.579L58.6993 116.679L60.4993 117.179L59.1993 118.879L59.2993 121.179Z" fill="#D9A72A"/>
<path d="M27.5993 113.479L25.8993 112.479L24.1993 113.379L24.4993 111.079L23.2993 109.279L25.0993 108.879L26.0993 106.879L26.8993 108.979L28.6993 109.479L27.3993 111.179L27.5993 113.479Z" fill="#D9A72A"/>
<path d="M97.0993 81.479L91.9993 81.679L87.9993 84.779L87.2993 81.179L82.9993 79.879L87.6993 77.379L89.0993 73.479L92.5993 75.579L97.7993 74.579L95.2993 78.279L97.0993 81.479Z" fill="#FFD878"/>
<path d="M153.399 55.279L149.999 55.379L147.299 57.479L146.799 55.079L143.999 54.179L147.099 52.479L147.999 49.879L150.399 51.379L153.799 50.579L152.199 53.179L153.399 55.279Z" fill="#FFD878"/>
<path d="M46.7992 56.679L43.3992 56.779L40.6992 58.779L40.1992 56.379L37.3992 55.479L40.4992 53.879L41.3992 51.279L43.7992 52.679L47.1992 51.979L45.5992 54.479L46.7992 56.679Z" fill="#FFD878"/>
<path d="M169.699 61.879L167.699 61.979L166.099 63.179L165.899 61.679L164.099 61.179L165.999 60.179L166.599 58.679L167.999 59.479L169.999 59.079L168.999 60.579L169.699 61.879Z" fill="#FFD878"/>
<path d="M93.5993 65.379L91.5993 65.479L89.9993 66.679L89.6993 65.279L87.9993 64.679L89.8993 63.679L90.3993 62.179L91.7993 62.979L93.8993 62.579L92.8993 64.079L93.5993 65.379Z" fill="#FFD878"/>
<path d="M169.799 116.879L164.699 115.179L160.199 117.879V112.579L156.199 109.079L161.299 107.479L163.399 102.579L166.499 106.879L171.799 107.379L168.599 111.679L169.799 116.879Z" fill="#FFD878"/>
<path d="M179.699 161.979L174.699 160.279L170.099 162.979L170.199 157.679L166.199 154.079L171.199 152.579L173.399 147.679L176.399 151.979L181.699 152.479L178.599 156.779L179.699 161.979Z" fill="#FFD878"/>
<path d="M169.699 198.579L164.599 196.879L159.999 199.579L160.099 194.279L156.099 190.679L161.199 189.079L163.299 184.279L166.399 188.579L171.699 189.079L168.499 193.379L169.699 198.579Z" fill="#FFD878"/>
<path d="M165.999 88.679L164.299 88.079L162.599 88.979L162.699 87.079L161.199 85.879L162.999 85.279L163.799 83.579L164.899 85.079L166.799 85.279L165.599 86.779L165.999 88.679Z" fill="#FFD878"/>
<path d="M119.899 194.679L118.099 194.079L116.499 195.079V193.179L115.099 191.979L116.899 191.379L117.699 189.679L118.799 191.179L120.599 191.379L119.499 192.879L119.899 194.679Z" fill="#FFD878"/>
<path d="M185.299 122.479L183.599 121.879L181.899 122.779V120.879L180.499 119.679L182.299 119.079L183.099 117.379L184.199 118.879L186.099 119.079L184.899 120.579L185.299 122.479Z" fill="#FFD878"/>
<path d="M182.599 91.379L180.799 90.779L179.199 91.679V89.779L177.799 88.579L179.599 87.979L180.299 86.279L181.399 87.779L183.299 87.979L182.199 89.479L182.599 91.379Z" fill="#FFD878"/>
<path d="M168.799 138.779L166.999 138.179L165.399 139.179V137.279L163.999 135.979L165.799 135.479L166.499 133.679L167.599 135.279L169.499 135.379L168.399 136.979L168.799 138.779Z" fill="#FFD878"/>
<path d="M170.499 212.579L168.799 211.979L167.099 212.979V211.079L165.699 209.779L167.499 209.279L168.299 207.479L169.399 209.079L171.299 209.179L170.099 210.679L170.499 212.579Z" fill="#FFD878"/>
<path d="M111.899 136.379L110.099 135.779L108.499 136.779V134.879L107.099 133.579L108.899 133.079L109.699 131.279L110.699 132.879L112.599 132.979L111.499 134.579L111.899 136.379Z" fill="#FFD878"/>
<path d="M100.699 131.279L98.8992 130.679L97.2992 131.579V129.679L95.8992 128.479L97.6992 127.879L98.3992 126.179L99.4992 127.679L101.399 127.879L100.299 129.379L100.699 131.279Z" fill="#FFD878"/>
<path d="M132.199 22.479C131.999 21.779 130.999 21.279 130.399 21.779C127.999 23.579 127.499 26.279 126.199 28.879C124.399 32.479 122.299 35.979 119.799 39.179C117.499 42.179 114.899 44.979 112.099 47.579C109.299 50.179 105.899 52.179 103.399 55.079C102.699 55.879 103.399 57.079 104.399 56.879C111.699 54.979 118.199 47.579 122.699 41.879C125.099 38.879 127.199 35.779 128.999 32.479C130.699 29.379 132.999 25.879 132.199 22.479Z" fill="#AED164"/>
<path d="M127.899 12.679C127.099 12.679 126.299 13.379 126.299 14.279C126.299 14.379 126.299 14.479 126.299 14.579C126.399 15.379 126.899 16.179 127.799 16.079C128.699 16.079 129.199 15.379 129.299 14.579C129.299 14.479 129.299 14.379 129.299 14.279C129.499 13.479 128.699 12.679 127.899 12.679Z" fill="#AED164"/>
</svg>
