<svg width="80" height="80" viewBox="0 0 80 80" fill="none" xmlns="http://www.w3.org/2000/svg">
<circle cx="40" cy="40" r="40" fill="#7BB9FF"/>
<circle cx="40" cy="40" r="40" fill="url(#paint0_linear)"/>
<path d="M16.5 18C16.3674 18 16.2402 18.0527 16.1464 18.1464C16.0527 18.2402 16 18.3674 16 18.5V60H14.5C14.3674 60 14.2402 60.0527 14.1464 60.1464C14.0527 60.2402 14 60.3674 14 60.5C14 60.6326 14.0527 60.7598 14.1464 60.8536C14.2402 60.9473 14.3674 61 14.5 61H16V62.5C16 62.6326 16.0527 62.7598 16.1464 62.8536C16.2402 62.9473 16.3674 63 16.5 63C16.6326 63 16.7598 62.9473 16.8536 62.8536C16.9473 62.7598 17 62.6326 17 62.5V61H65.5C65.6326 61 65.7598 60.9473 65.8536 60.8536C65.9473 60.7598 66 60.6326 66 60.5C66 60.3674 65.9473 60.2402 65.8536 60.1464C65.7598 60.0527 65.6326 60 65.5 60H60.996C60.996 59.994 61 59.988 61 59.982V28.982C61 28.8494 60.9473 28.7222 60.8536 28.6284C60.7598 28.5347 60.6326 28.482 60.5 28.482C60.3674 28.482 60.2402 28.5347 60.1464 28.6284C60.0527 28.7222 60 28.8494 60 28.982V59.982C60 59.988 60.004 59.994 60.004 60H56.996L56.998 59.982V31.982C56.998 31.8494 56.9453 31.7222 56.8516 31.6284C56.7578 31.5347 56.6306 31.482 56.498 31.482C56.3654 31.482 56.2382 31.5347 56.1444 31.6284C56.0507 31.7222 55.998 31.8494 55.998 31.982V59.982C55.998 59.988 56.002 59.994 56.002 60H52.994C52.994 59.994 52.998 59.988 52.998 59.982V34.982C52.998 34.8494 52.9453 34.7222 52.8516 34.6284C52.7578 34.5347 52.6306 34.482 52.498 34.482C52.3654 34.482 52.2382 34.5347 52.1444 34.6284C52.0507 34.7222 51.998 34.8494 51.998 34.982V59.982C51.998 59.988 52.002 59.994 52.002 60H48.994L48.996 59.982V37.982C48.996 37.8494 48.9433 37.7222 48.8496 37.6284C48.7558 37.5347 48.6286 37.482 48.496 37.482C48.3634 37.482 48.2362 37.5347 48.1424 37.6284C48.0487 37.7222 47.996 37.8494 47.996 37.982V59.982C47.996 59.988 48 59.994 48 60H44.992C44.992 59.994 44.996 59.988 44.996 59.982V40.982C44.996 40.8494 44.9433 40.7222 44.8496 40.6284C44.7558 40.5347 44.6286 40.482 44.496 40.482C44.3634 40.482 44.2362 40.5347 44.1424 40.6284C44.0487 40.7222 43.996 40.8494 43.996 40.982V59.982L43.998 60H40.992L40.994 59.982V40.982C40.994 40.8494 40.9413 40.7222 40.8476 40.6284C40.7538 40.5347 40.6266 40.482 40.494 40.482C40.3614 40.482 40.2342 40.5347 40.1404 40.6284C40.0467 40.7222 39.994 40.8494 39.994 40.982V59.982C39.994 59.988 39.998 59.994 39.998 60H36.99C36.99 59.994 36.994 59.988 36.994 59.982V38.982C36.994 38.8494 36.9413 38.7222 36.8476 38.6284C36.7538 38.5347 36.6266 38.482 36.494 38.482C36.3614 38.482 36.2342 38.5347 36.1404 38.6284C36.0467 38.7222 35.994 38.8494 35.994 38.982V59.982L35.996 60H32.99L32.992 59.982V41.982C32.992 41.8494 32.9393 41.7222 32.8456 41.6284C32.7518 41.5347 32.6246 41.482 32.492 41.482C32.3594 41.482 32.2322 41.5347 32.1384 41.6284C32.0447 41.7222 31.992 41.8494 31.992 41.982V59.982C31.992 59.988 31.996 59.994 31.996 60H28.988C28.988 59.994 28.992 59.988 28.992 59.982V44.982C28.992 44.8494 28.9393 44.7222 28.8456 44.6284C28.7518 44.5347 28.6246 44.482 28.492 44.482C28.3594 44.482 28.2322 44.5347 28.1384 44.6284C28.0447 44.7222 27.992 44.8494 27.992 44.982V59.982L27.994 60H24.988L24.99 59.982V47.982C24.99 47.8494 24.9373 47.7222 24.8436 47.6284C24.7498 47.5347 24.6226 47.482 24.49 47.482C24.3574 47.482 24.2302 47.5347 24.1364 47.6284C24.0427 47.7222 23.99 47.8494 23.99 47.982V59.982C23.99 59.988 23.994 59.994 23.994 60H20.986C20.986 59.994 20.99 59.988 20.99 59.982V51C20.99 50.8674 20.9373 50.7402 20.8436 50.6464C20.7498 50.5527 20.6226 50.5 20.49 50.5C20.4249 50.5003 20.3605 50.5134 20.3005 50.5388C20.2405 50.5641 20.1861 50.6011 20.1405 50.6476C20.095 50.6941 20.0591 50.7492 20.0349 50.8097C20.0108 50.8702 19.9989 50.9349 20 51V59.982C20 59.988 20.004 59.994 20.004 60H17V50.797L38.166 35.303L41.969 39.891C42.0503 39.9889 42.166 40.0522 42.2924 40.0678C42.4187 40.0834 42.5463 40.0502 42.649 39.975L61.783 25.937L61.513 28.006C61.501 28.1352 61.5395 28.264 61.6205 28.3653C61.7015 28.4667 61.8186 28.5326 61.9473 28.5494C62.0759 28.5661 62.2061 28.5322 62.3103 28.4549C62.4145 28.3777 62.4846 28.263 62.506 28.135L62.912 25.014C62.9287 24.8825 62.8927 24.7497 62.8117 24.6448C62.7307 24.5398 62.6114 24.4712 62.48 24.454L59.361 24.047C59.2959 24.0385 59.2297 24.043 59.1663 24.0601C59.1029 24.0772 59.0434 24.1066 58.9914 24.1467C58.9393 24.1867 58.8957 24.2367 58.8629 24.2936C58.8302 24.3505 58.809 24.4134 58.8005 24.4785C58.792 24.5436 58.7965 24.6098 58.8136 24.6732C58.8307 24.7366 58.8601 24.7961 58.9002 24.8481C58.9402 24.9002 58.9902 24.9438 59.0471 24.9766C59.104 25.0093 59.1669 25.0305 59.232 25.039L61.004 25.269L42.438 38.891L38.635 34.301C38.5538 34.2028 38.4381 34.1395 38.3117 34.1238C38.1853 34.1082 38.0576 34.1416 37.955 34.217L17 49.557V18.5C17 18.3674 16.9473 18.2402 16.8536 18.1464C16.7598 18.0527 16.6326 18 16.5 18ZM33.367 27.305C33.2357 27.2845 33.1016 27.3169 32.994 27.395L31.379 28.568H31.377L31.375 28.57L29.758 29.744C29.6509 29.8217 29.579 29.9387 29.558 30.0694C29.537 30.2 29.5686 30.3336 29.646 30.441L30.234 31.254C30.2727 31.3073 30.3214 31.3524 30.3776 31.3868C30.4337 31.4212 30.4961 31.4442 30.5612 31.4544C30.6262 31.4646 30.6926 31.4619 30.7566 31.4464C30.8206 31.4309 30.8809 31.4029 30.934 31.364C30.9873 31.3253 31.0324 31.2766 31.0668 31.2204C31.1012 31.1643 31.1242 31.1019 31.1344 31.0368C31.1446 30.9718 31.1419 30.9054 31.1264 30.8414C31.1109 30.7774 31.0829 30.7171 31.044 30.664L30.75 30.262L31.559 29.674L34.791 34.123C34.8293 34.1763 34.8778 34.2215 34.9337 34.2559C34.9895 34.2903 35.0517 34.3133 35.1165 34.3236C35.1814 34.3338 35.2476 34.3311 35.3113 34.3155C35.3751 34.3 35.4352 34.2719 35.488 34.233C35.5954 34.1553 35.6675 34.0381 35.6885 33.9072C35.7095 33.7763 35.6777 33.6424 35.6 33.535L32.367 29.084L33.177 28.496L33.471 28.9C33.508 28.9568 33.5562 29.0055 33.6126 29.0431C33.669 29.0807 33.7325 29.1064 33.7992 29.1187C33.8658 29.131 33.9343 29.1296 34.0004 29.1146C34.0665 29.0996 34.1289 29.0714 34.1838 29.0315C34.2386 28.9917 34.2848 28.9411 34.3195 28.8828C34.3542 28.8246 34.3766 28.7599 34.3856 28.6927C34.3945 28.6255 34.3896 28.5572 34.3713 28.4919C34.353 28.4266 34.3216 28.3658 34.279 28.313L33.691 27.503C33.6528 27.4502 33.6044 27.4055 33.5488 27.3716C33.4932 27.3376 33.4314 27.3149 33.367 27.305V27.305ZM27.701 31.418C27.6364 31.4079 27.5705 31.4106 27.507 31.4261C27.4435 31.4415 27.3837 31.4694 27.331 31.508L24.094 33.859C23.9865 33.9371 23.9143 34.0546 23.8933 34.1859C23.8723 34.3171 23.9042 34.4513 23.982 34.559L25.746 36.984C25.7908 37.0434 25.8482 37.0922 25.914 37.127C25.935 37.139 25.957 37.142 25.98 37.15C26.0239 37.1671 26.07 37.1779 26.117 37.182C26.129 37.182 26.14 37.189 26.152 37.189C26.163 37.189 26.175 37.179 26.186 37.179C26.2788 37.1767 26.369 37.1479 26.446 37.096L29.277 35.037L30.453 36.657L28.027 38.42L27.732 38.016C27.6945 37.9602 27.6461 37.9125 27.5898 37.8759C27.5334 37.8392 27.4703 37.8143 27.4041 37.8025C27.3379 37.7908 27.27 37.7926 27.2045 37.8078C27.139 37.8229 27.0772 37.8511 27.0228 37.8906C26.9685 37.9302 26.9226 37.9803 26.8881 38.038C26.8535 38.0957 26.831 38.1597 26.8218 38.2263C26.8125 38.2929 26.8168 38.3607 26.8344 38.4256C26.852 38.4905 26.8824 38.5512 26.924 38.604L27.512 39.412C27.5901 39.5193 27.7075 39.5912 27.8385 39.612C27.9696 39.6329 28.1035 39.6008 28.211 39.523L31.445 37.172C31.4985 37.1335 31.5438 37.0848 31.5784 37.0287C31.6129 36.9727 31.6361 36.9103 31.6465 36.8453C31.6569 36.7802 31.6544 36.7138 31.639 36.6497C31.6236 36.5857 31.5958 36.5253 31.557 36.472L29.795 34.049L29.793 34.047C29.7146 33.9399 29.597 33.8681 29.4659 33.8473C29.3347 33.8265 29.2007 33.8584 29.093 33.936L26.262 35.992L25.088 34.375L27.514 32.611L27.807 33.016C27.8445 33.0718 27.8929 33.1195 27.9492 33.1561C28.0056 33.1928 28.0687 33.2177 28.1349 33.2295C28.2011 33.2412 28.269 33.2394 28.3345 33.2242C28.4 33.2091 28.4618 33.1809 28.5162 33.1414C28.5705 33.1018 28.6164 33.0517 28.6509 32.994C28.6855 32.9363 28.708 32.8723 28.7172 32.8057C28.7265 32.7391 28.7222 32.6713 28.7046 32.6064C28.687 32.5415 28.6566 32.4808 28.615 32.428L28.029 31.618C27.9504 31.5106 27.8325 31.4386 27.701 31.418V31.418ZM22.041 35.529C21.976 35.5187 21.9095 35.5214 21.8455 35.5368C21.7815 35.5522 21.7212 35.5802 21.668 35.619L18.432 37.971C18.3786 38.0096 18.3334 38.0583 18.2989 38.1144C18.2644 38.1705 18.2414 38.2329 18.231 38.2979C18.2207 38.363 18.2234 38.4294 18.2388 38.4934C18.2542 38.5575 18.2822 38.6178 18.321 38.671L21.258 42.715L21.26 42.717L21.848 43.525C21.8863 43.5782 21.9348 43.6234 21.9906 43.6579C22.0464 43.6923 22.1085 43.7154 22.1732 43.7258C22.238 43.7362 22.3042 43.7338 22.368 43.7185C22.4318 43.7033 22.4919 43.6756 22.545 43.637L25.781 41.285C25.8881 41.2073 25.96 41.0903 25.981 40.9596C26.002 40.829 25.9704 40.6954 25.893 40.588L24.129 38.158C24.0904 38.1046 24.0417 38.0594 23.9855 38.0249C23.9294 37.9904 23.867 37.9674 23.8019 37.9572C23.7368 37.947 23.6704 37.9497 23.6064 37.9653C23.5424 37.9809 23.4821 38.009 23.429 38.048L21.812 39.225C21.7562 39.2625 21.7085 39.3109 21.6719 39.3672C21.6352 39.4236 21.6103 39.4867 21.5985 39.5529C21.5868 39.6191 21.5886 39.687 21.6038 39.7525C21.6189 39.818 21.6471 39.8798 21.6866 39.9342C21.7262 39.9885 21.7763 40.0344 21.834 40.0689C21.8917 40.1035 21.9557 40.126 22.0223 40.1352C22.0889 40.1445 22.1567 40.1402 22.2216 40.1226C22.2865 40.105 22.3472 40.0746 22.4 40.033L23.613 39.15L24.789 40.77L23.693 41.564L22.361 42.531L19.424 38.486L21.852 36.723L22.145 37.127C22.1825 37.1828 22.2309 37.2305 22.2872 37.2671C22.3436 37.3038 22.4067 37.3287 22.4729 37.3405C22.5391 37.3522 22.607 37.3504 22.6725 37.3352C22.738 37.3201 22.7998 37.2919 22.8542 37.2524C22.9085 37.2128 22.9544 37.1627 22.9889 37.105C23.0235 37.0473 23.046 36.9833 23.0552 36.9167C23.0645 36.8501 23.0602 36.7823 23.0426 36.7174C23.025 36.6525 22.9946 36.5918 22.953 36.539L22.365 35.73C22.3269 35.6769 22.2787 35.6319 22.223 35.5975C22.1674 35.5632 22.1056 35.5402 22.041 35.53V35.529Z" fill="url(#paint1_linear)"/>
<defs>
<linearGradient id="paint0_linear" x1="42" y1="-2.5" x2="40" y2="94.5" gradientUnits="userSpaceOnUse">
<stop stop-color="#0077FD"/>
<stop offset="0.765625" stop-color="#C1DEFF" stop-opacity="0.469017"/>
<stop offset="1" stop-color="white" stop-opacity="0"/>
</linearGradient>
<linearGradient id="paint1_linear" x1="14" y1="40.5" x2="61" y2="40.5" gradientUnits="userSpaceOnUse">
<stop stop-color="white"/>
<stop offset="1" stop-color="white"/>
</linearGradient>
</defs>
</svg>
