<svg width="199" height="143" viewBox="0 0 199 143" fill="none" xmlns="http://www.w3.org/2000/svg">
<path d="M165.3 0.299805H33.2V132.4H165.3V0.299805Z" fill="#93CDC1"/>
<path d="M165.3 0.299805H33.2V61.8998H165.3V0.299805Z" fill="#5AA193"/>
<path fill-rule="evenodd" clip-rule="evenodd" d="M187.1 115.2H182.3V132.3C184 133.5 185.6 133.6 187.1 132.3V115.2Z" fill="#DEC48C"/>
<path d="M184.7 121.7C192.321 121.7 198.5 111.716 198.5 99.3996C198.5 87.0836 192.321 77.0996 184.7 77.0996C177.078 77.0996 170.9 87.0836 170.9 99.3996C170.9 111.716 177.078 121.7 184.7 121.7Z" fill="#C2E06E"/>
<path fill-rule="evenodd" clip-rule="evenodd" d="M16.1999 115.2H11.3999V132.3C13.0999 133.5 14.6999 133.6 16.1999 132.3V115.2Z" fill="#DEC48C"/>
<path d="M13.8 121.7C21.4215 121.7 27.6 111.716 27.6 99.3996C27.6 87.0836 21.4215 77.0996 13.8 77.0996C6.17846 77.0996 0 87.0836 0 99.3996C0 111.716 6.17846 121.7 13.8 121.7Z" fill="#C2E06E"/>
<path d="M198.5 132.4H0V143H198.5V132.4Z" fill="#5AA193"/>
<path fill-rule="evenodd" clip-rule="evenodd" d="M123.5 23.2V39.4H107.4V55.6H91.2V39.4H75V23.2H91.2V7H107.4V23.2H123.5Z" fill="#FB726C"/>
<path d="M119.5 78.1997H79V132.4H119.5V78.1997Z" fill="#C1EBE3"/>
<path d="M81.8 78.1997H79V132.4H81.8V78.1997Z" fill="white"/>
<path d="M119.5 78.1997H116.7V132.4H119.5V78.1997Z" fill="white"/>
<path d="M118.1 78.1997H80.3999V80.9997H118.1V78.1997Z" fill="white"/>
<path d="M117.9 103.9H80.6001V106.7H117.9V103.9Z" fill="white"/>
<path d="M159.5 78.1997H125.9V106.4H159.5V78.1997Z" fill="white"/>
<path d="M156.7 80.4995H128.7V104H156.7V80.4995Z" fill="#C1EBE3"/>
<path d="M158.2 90.8999H127.3V93.6999H158.2V90.8999Z" fill="white"/>
<path d="M72.7999 78.1997H39.2V106.4H72.7999V78.1997Z" fill="white"/>
<path d="M70.1 80.4995H42V104H70.1V80.4995Z" fill="#C1EBE3"/>
<path d="M71.4 90.8999H40.5V93.6999H71.4V90.8999Z" fill="white"/>
</svg>
