<svg width="452" height="371" viewBox="0 0 452 371" fill="none" xmlns="http://www.w3.org/2000/svg">
<path d="M408.915 30.219C408.132 27.189 406.932 24.328 405.38 21.698L408.979 16.286L403.987 11.294L398.995 6.302L393.584 9.9C390.953 8.349 388.092 7.148 385.063 6.365L383.782 0H376.722H369.662L368.381 6.365C365.351 7.148 362.489 8.349 359.86 9.9L354.448 6.302L349.456 11.294L344.464 16.286L348.063 21.698C346.512 24.328 345.311 27.19 344.529 30.219L338.163 31.5V38.56V45.62L344.529 46.901C345.311 49.931 346.512 52.792 348.063 55.422L344.464 60.834L349.456 65.826L354.448 70.818L359.86 67.22C362.49 68.771 365.351 69.971 368.381 70.755L369.662 77.12H376.722H383.782L385.063 70.755C388.092 69.972 390.954 68.771 393.584 67.22L398.995 70.818L403.987 65.826L408.979 60.834L405.38 55.422C406.932 52.792 408.132 49.93 408.915 46.901L415.28 45.62V38.56V31.5L408.915 30.219ZM376.721 63.298C363.059 63.298 351.983 52.223 351.983 38.561C351.983 24.898 363.059 13.823 376.721 13.823C390.383 13.823 401.458 24.898 401.458 38.561C401.458 52.222 390.383 63.298 376.721 63.298Z" fill="url(#paint0_linear)"/>
<path d="M418.547 90.257C418.188 88.868 417.638 87.556 416.926 86.35L418.576 83.869L416.287 81.58L413.999 79.291L411.518 80.941C410.312 80.23 409 79.679 407.612 79.32L407.024 76.402H403.788H400.552L399.964 79.32C398.575 79.679 397.264 80.23 396.058 80.941L393.578 79.291L391.289 81.58L389.001 83.869L390.65 86.35C389.939 87.556 389.388 88.868 389.03 90.257L386.111 90.844V94.08V97.317L389.03 97.904C389.388 99.293 389.939 100.605 390.65 101.811L389.001 104.291L391.289 106.58L393.578 108.869L396.058 107.22C397.264 107.931 398.576 108.482 399.964 108.84L400.552 111.758H403.788H407.024L407.612 108.84C409.001 108.482 410.312 107.931 411.518 107.22L413.999 108.869L416.287 106.58L418.576 104.291L416.926 101.811C417.638 100.605 418.188 99.293 418.547 97.904L421.465 97.317V94.08V90.844L418.547 90.257ZM403.787 105.421C397.523 105.421 392.446 100.344 392.446 94.08C392.446 87.817 397.523 82.739 403.787 82.739C410.051 82.739 415.128 87.817 415.128 94.08C415.128 100.344 410.051 105.421 403.787 105.421Z" fill="url(#paint1_linear)"/>
<path d="M248.139 209.686H213.41V315.172H248.139V209.686Z" fill="#AEBECC"/>
<path d="M96.0825 260.5H365.467C373.891 260.5 380.72 253.671 380.72 245.247V64.196C380.72 55.772 373.891 48.943 365.467 48.943H96.0825C87.6575 48.943 80.8295 55.772 80.8295 64.196V245.247C80.8295 253.671 87.6575 260.5 96.0825 260.5Z" fill="#F0F0F0"/>
<path d="M368.975 26.426H92.5745V227.347H368.975V26.426Z" fill="white"/>
<path d="M368.975 26.426H92.5745V50.694H368.975V26.426Z" fill="url(#paint2_linear)"/>
<path d="M230.775 252.19C236.117 252.19 240.448 247.859 240.448 242.517C240.448 237.175 236.117 232.844 230.775 232.844C225.432 232.844 221.102 237.175 221.102 242.517C221.102 247.859 225.432 252.19 230.775 252.19Z" fill="#757575"/>
<path d="M178.138 75.145H268.276C270.211 75.145 271.778 73.577 271.778 71.644V71.456C271.778 69.522 270.211 67.954 268.276 67.954H178.138C176.204 67.954 174.636 69.522 174.636 71.456V71.644C174.636 73.577 176.204 75.145 178.138 75.145Z" fill="#DFE1E8"/>
<path d="M178.138 88.115H268.276C270.211 88.115 271.778 86.547 271.778 84.613V84.425C271.778 82.491 270.211 80.923 268.276 80.923H178.138C176.204 80.923 174.636 82.491 174.636 84.425V84.613C174.636 86.547 176.204 88.115 178.138 88.115Z" fill="#DFE1E8"/>
<path d="M178.138 101.084H268.276C270.211 101.084 271.778 99.516 271.778 97.582V97.394C271.778 95.46 270.211 93.893 268.276 93.893H178.138C176.204 93.893 174.636 95.461 174.636 97.394V97.582C174.636 99.516 176.204 101.084 178.138 101.084Z" fill="#DFE1E8"/>
<path d="M224.648 213.21H121.039C112.4 213.21 105.371 206.182 105.371 197.541V134.518C105.371 125.879 112.4 118.85 121.039 118.85H224.647C233.287 118.85 240.315 125.879 240.315 134.518V197.541C240.316 206.181 233.287 213.21 224.648 213.21ZM121.039 120.813C113.482 120.813 107.335 126.96 107.335 134.517V197.54C107.335 205.098 113.482 211.245 121.039 211.245H224.647C232.204 211.245 238.351 205.098 238.351 197.54V134.517C238.351 126.96 232.204 120.813 224.647 120.813H121.039Z" fill="#DFE1E8"/>
<path d="M129.235 142.602H216.453C220.275 142.602 223.373 139.504 223.373 135.683V134.366C223.373 130.544 220.275 127.447 216.453 127.447H129.235C125.414 127.447 122.315 130.545 122.315 134.366V135.683C122.315 139.504 125.413 142.602 129.235 142.602Z" fill="#DFE1E8"/>
<path d="M308.897 311.19H152.654V319.153H308.897V311.19Z" fill="#F0F0F0"/>
<path d="M337.891 139.557C337.891 147.836 333.416 155.071 326.753 158.976C325.414 159.76 323.985 160.41 322.488 160.906C322.353 160.951 322.217 160.996 322.082 161.037C319.971 161.693 317.728 162.046 315.401 162.046C311.809 162.046 308.415 161.205 305.403 159.708C297.999 156.027 292.91 148.386 292.91 139.557C292.91 127.136 302.979 117.066 315.401 117.066C327.822 117.066 337.891 127.136 337.891 139.557Z" fill="#EEF0F7"/>
<path d="M310.029 137.182C310.029 137.182 308.493 127.244 316.723 127.428C324.953 127.612 324.843 132.525 324.697 137.403C324.551 142.28 321.397 141.913 324.954 148.697C328.511 155.481 321.874 155.481 321.874 155.481L316.724 148.404L310.029 137.182Z" fill="#3C4145"/>
<path d="M315.823 128.382C315.823 128.382 310.249 129.262 310.029 137.183C309.808 145.104 311.532 146.791 316.41 145.141C321.287 143.491 322.827 135.203 322.937 133.919C323.046 132.636 323.34 127.428 315.823 128.382Z" fill="#EEA886"/>
<path d="M325.612 155.932C325.628 158.305 324.359 159.892 322.489 160.906C322.354 160.951 322.218 160.996 322.083 161.037C319.972 161.693 317.729 162.046 315.402 162.046C311.81 162.046 308.416 161.205 305.404 159.708C304.726 158.355 305.709 156.436 307.703 153.488C309.073 151.462 310.416 149.395 312.714 148.389C316.105 147.849 319.693 147.817 322.221 149.245C324.235 150.386 325.577 152.453 325.612 155.932Z" fill="#E55353"/>
<path d="M308.795 153.369L306.232 157.408C306.238 157.386 306.409 156.775 306.698 155.003C306.754 154.667 306.812 154.289 306.876 153.865C306.895 153.74 306.922 153.615 306.957 153.492C308.054 150.963 311.475 149.082 311.599 149.019L308.795 153.369Z" fill="#E55353"/>
<path d="M326.753 158.976C325.414 159.76 323.985 160.41 322.488 160.906C322.353 160.951 322.217 160.996 322.082 161.037C321.514 159.57 321.019 158.3 320.913 157.971C320.882 157.876 320.809 157.697 320.709 157.457C320.247 156.333 319.212 153.836 319.199 151.883C319.191 150.623 319.607 149.59 320.875 149.297C321.374 149.182 321.821 149.174 322.22 149.247C323.635 149.504 324.461 150.775 324.922 151.902C324.93 151.922 324.937 151.94 324.943 151.959C325.328 152.918 325.448 153.756 325.448 153.756C325.448 153.756 325.47 153.844 325.511 154.004C325.591 154.318 325.743 154.915 325.941 155.697C326.166 156.594 326.45 157.735 326.753 158.976Z" fill="#EEA886"/>
<path d="M319.545 141.573C319.062 142.485 318.551 148.149 318.551 148.149C318.551 148.149 311.734 150.726 312.432 149.269C312.748 148.607 312.841 147.749 312.848 147.009C312.854 146.426 312.806 145.916 312.772 145.634C312.754 145.485 312.741 145.399 312.741 145.399C312.741 145.399 320.028 140.659 319.545 141.573Z" fill="#EEA886"/>
<path d="M313.549 134.066C313.549 134.066 316.409 138.723 319.013 140.557C321.617 142.39 320.296 143.857 320.296 143.857C320.296 143.857 327.089 129.555 320.631 128.565C314.172 127.575 310.212 127.502 310.028 137.183C310.029 137.182 312.962 133.992 313.549 134.066Z" fill="#3C4145"/>
<path d="M316.659 145.049C315.612 146.592 312.847 147.008 312.847 147.008C312.853 146.425 312.805 145.915 312.771 145.633C314.548 145.974 316.659 145.049 316.659 145.049Z" fill="#A77860"/>
<path d="M306.968 153.463C306.967 153.463 306.82 153.77 306.697 155.003L307.702 153.488C307.702 153.488 309.495 150.917 310.109 150.248C310.723 149.58 311.614 148.993 311.614 148.993C311.614 148.993 308.04 150.689 306.968 153.463Z" fill="#BD4444"/>
<path d="M320.534 157.297C320.534 157.297 324.909 155.581 326.204 155.481C326.204 155.481 325.324 148.455 321.025 149.199C316.728 149.944 320.534 157.297 320.534 157.297Z" fill="#E55353"/>
<path d="M312.713 148.39C312.713 148.39 309.501 153.329 310.588 153.761C311.676 154.193 317.562 153.185 320.065 148.493C320.065 148.493 316.324 146.574 312.713 148.39Z" fill="#EEA886"/>
<path d="M346.199 73.942C346.199 90.035 333.164 103.205 316.936 103.205C300.77 103.205 287.671 90.098 287.671 73.942C287.671 57.779 300.773 44.677 316.936 44.677C333.097 44.678 346.199 57.78 346.199 73.942Z" fill="#EEF0F7"/>
<path d="M335.996 90.09L333.838 97.834C329.986 100.563 325.445 102.385 320.528 102.987C319.663 103.094 318.784 103.162 317.896 103.191C317.577 103.202 317.256 103.206 316.935 103.206C315.988 103.206 315.051 103.161 314.128 103.073C313.096 102.975 312.079 102.823 311.083 102.62C306.649 101.721 302.58 99.819 299.121 97.161C298.707 94.6 298.263 91.767 297.872 89.116C300.022 88.315 306.868 85.988 311.188 84.527C311.249 84.506 311.309 84.486 311.368 84.467C311.463 84.434 311.556 84.402 311.649 84.372C311.904 84.286 312.149 84.203 312.381 84.124C312.618 84.044 312.843 83.969 313.053 83.896C313.939 83.599 314.562 83.389 314.785 83.314C314.787 83.313 314.787 83.313 314.787 83.313C314.846 83.293 314.876 83.283 314.876 83.283L314.926 83.286L320.736 83.722L321.711 83.794L322.015 83.817C322.015 83.817 322.06 83.827 322.148 83.85C322.498 83.939 323.516 84.206 324.864 84.618C324.864 84.618 324.868 84.619 324.87 84.619C328.312 85.67 333.893 87.67 335.996 90.09Z" fill="#D9C7C1"/>
<path d="M318.458 59.411C318.458 59.411 325.426 60.587 324.243 71.494C323.061 82.402 316.912 81.44 316.501 81.424C316.089 81.408 310.314 81.556 310.01 68.219C310.01 68.219 309.921 58.359 318.458 59.411Z" fill="#EEA987"/>
<path d="M321.511 78.262C321.511 78.262 321.271 82.751 321.695 83.728C322.119 84.705 316.101 87.796 312.361 84.275C312.361 84.275 313.118 79.368 312.882 77.635C312.648 75.903 321.511 78.262 321.511 78.262Z" fill="#EEA987"/>
<path d="M324.385 68.411C324.385 68.411 325.158 67.603 325.43 68.432C325.702 69.261 324.195 72.938 324.289 73.104C324.289 73.104 324.145 73.423 323.964 73.245C323.783 73.067 324.385 68.411 324.385 68.411Z" fill="#EEA987"/>
<path d="M310.09 68.117C310.09 68.117 309.351 67.278 309.046 68.096C308.74 68.913 309.855 72.585 309.993 72.812C309.993 72.812 310.233 73.188 310.422 73.018C310.611 72.848 310.09 68.117 310.09 68.117Z" fill="#EEA987"/>
<path d="M324.831 67.484C324.591 68.976 324.364 70.086 324.364 70.086L323.349 71.41C323.349 71.41 323.41 68.482 323.254 68.022C323.195 67.848 323.126 67.539 323.056 67.205C322.939 66.653 322.82 66.031 322.739 65.823C322.608 65.491 316.767 63.786 311.565 66.18C311.565 66.18 311.609 66.631 311.606 67.134C311.604 67.718 311.54 68.373 311.272 68.471C310.773 68.654 310.981 71.898 310.981 71.898L310.17 70.962C310.17 70.962 309.936 69.267 309.705 67.319C309.705 67.319 309.703 67.314 309.702 67.305C309.65 66.851 309.597 66.384 309.546 65.92C309.43 63.961 309.624 60.403 312.175 58.313C313.897 57.576 316.646 56.949 321.228 58.352C321.228 58.352 322.279 58.422 322.574 58.706C325.428 61.847 324.831 67.484 324.831 67.484Z" fill="#E8734D"/>
<path d="M313.36 79.966C313.36 79.966 314.472 81.51 317.056 81.452C319.639 81.393 320.761 80.047 320.761 80.047C320.761 80.047 319.537 82.605 317.043 82.578C314.549 82.551 313.36 79.966 313.36 79.966Z" fill="#C78D71"/>
<path d="M311.651 84.37C311.651 84.37 313.518 87.62 317.061 87.927C319.308 88.121 321.253 85.273 322.165 83.875C322.165 83.874 317.133 81.72 311.651 84.37Z" fill="#EEA987"/>
<path d="M321.519 82.846C321.519 82.846 320.095 84.712 317.061 86.709L318.948 89.617L322.166 83.875L321.519 82.846Z" fill="#EDDAD3"/>
<path d="M312.502 83.281C312.502 83.281 314.315 85.553 317.061 86.709L314.99 89.704L311.37 84.465L312.502 83.281Z" fill="#EDDAD3"/>
<path d="M317.061 86.709L318.678 89.17C318.678 89.17 316.98 90.13 315.401 89.109L317.061 86.709Z" fill="#5073AB"/>
<path d="M337.866 89.632C337.588 90.632 337.171 92.088 336.071 96.084C335.736 96.374 335.393 96.658 335.044 96.931C334.65 97.243 334.248 97.543 333.839 97.834C329.987 100.563 325.446 102.385 320.529 102.987C320.963 92.857 322.166 83.874 322.166 83.874C323.114 84.123 324.015 84.371 324.865 84.616C324.865 84.616 324.869 84.617 324.871 84.617C332.297 86.748 336.062 88.618 337.347 89.328C337.357 89.332 337.367 89.338 337.375 89.343C337.709 89.531 337.866 89.632 337.866 89.632Z" fill="#323657"/>
<path d="M311.084 102.619C306.65 101.72 302.581 99.818 299.122 97.16C298.078 96.359 297.092 95.491 296.167 94.559C295.987 94.377 295.81 94.193 295.636 94.008C295.123 91.833 294.782 90.413 294.761 90.32L294.76 90.316C294.76 90.316 298.38 87.937 311.19 84.519C311.19 84.519 311.19 84.522 311.19 84.526C311.19 84.819 311.198 93.036 311.084 102.619Z" fill="#323657"/>
<path d="M317.987 89.44C317.868 92.107 317.856 97.284 317.897 103.19C317.578 103.201 317.257 103.205 316.936 103.205C315.989 103.205 315.052 103.16 314.129 103.072C314.692 95.788 315.641 91.234 316.073 89.432C316.215 88.842 316.301 88.547 316.301 88.547L318.019 88.831C318.006 89.017 317.996 89.22 317.987 89.44Z" fill="#5073AB"/>
<path d="M339.341 92.768C338.339 93.958 337.246 95.067 336.07 96.083C335.735 96.373 335.392 96.657 335.043 96.93L337.865 89.631C338.552 90.212 339.107 92.197 339.341 92.768Z" fill="#323657"/>
<path d="M296.167 94.559C295.987 94.377 295.81 94.193 295.636 94.008C294.981 93.315 294.361 92.59 293.778 91.834C294.109 91.044 294.438 90.514 294.76 90.316L294.761 90.32L296.167 94.559Z" fill="#323657"/>
<path d="M140.245 43.145H107.415C105.595 43.145 104.119 41.669 104.119 39.849V37.271C104.119 35.451 105.595 33.975 107.415 33.975H140.245C142.065 33.975 143.541 35.451 143.541 37.271V39.849C143.541 41.669 142.066 43.145 140.245 43.145Z" fill="#F5F7FF"/>
<path d="M337.89 193.152C337.89 205.527 327.866 215.642 315.401 215.642C302.958 215.642 292.912 205.55 292.912 193.152C292.912 180.732 302.981 170.662 315.401 170.662C327.821 170.662 337.89 180.732 337.89 193.152Z" fill="#EEF0F7"/>
<path d="M315.401 202.119C314.776 202.119 314.268 201.611 314.268 200.986V185.318C314.268 184.693 314.776 184.185 315.401 184.185C316.027 184.185 316.534 184.693 316.534 185.318V200.986C316.533 201.611 316.027 202.119 315.401 202.119Z" fill="#949494"/>
<path d="M323.235 194.285H307.567C306.941 194.285 306.434 193.777 306.434 193.152C306.434 192.526 306.941 192.019 307.567 192.019H323.235C323.861 192.019 324.368 192.526 324.368 193.152C324.367 193.777 323.861 194.285 323.235 194.285Z" fill="#949494"/>
<path d="M267.364 140.925H255.098C252.66 140.925 250.685 138.949 250.685 136.511V124.245C250.685 121.807 252.661 119.831 255.098 119.831H267.364C269.802 119.831 271.778 121.807 271.778 124.245V136.511C271.778 138.949 269.802 140.925 267.364 140.925Z" fill="#FFBF55"/>
<path d="M260.563 135.024L255.231 130.376C254.793 129.995 254.749 129.331 255.129 128.894C255.51 128.456 256.174 128.411 256.611 128.792L260.382 132.079L265.759 126.081C266.147 125.649 266.811 125.613 267.242 126C267.673 126.387 267.71 127.051 267.323 127.483L260.563 135.024Z" fill="#F3F3F3"/>
<path d="M267.364 167.954H255.098C252.66 167.954 250.685 165.978 250.685 163.54V151.274C250.685 148.836 252.661 146.86 255.098 146.86H267.364C269.802 146.86 271.778 148.836 271.778 151.274V163.54C271.778 165.978 269.802 167.954 267.364 167.954Z" fill="#FFBF55"/>
<path d="M260.563 162.054L255.231 157.405C254.793 157.024 254.749 156.36 255.129 155.923C255.509 155.486 256.174 155.441 256.611 155.821L260.382 159.109L265.759 153.111C266.147 152.679 266.811 152.643 267.242 153.03C267.673 153.417 267.71 154.081 267.323 154.513L260.563 162.054Z" fill="#F3F3F3"/>
<path d="M267.364 194.984H255.098C252.66 194.984 250.685 193.007 250.685 190.57V178.305C250.685 175.867 252.661 173.891 255.098 173.891H267.364C269.802 173.891 271.778 175.867 271.778 178.305V190.57C271.778 193.008 269.802 194.984 267.364 194.984Z" fill="#FFBF55"/>
<path d="M165.813 325.663C165.813 325.663 164.741 328.074 163.836 329.03C162.931 329.986 159.468 331.694 159.449 334.533C159.428 337.611 165.287 336.757 167.578 336.644C169.869 336.531 170.043 334.887 171.007 333.144C171.972 331.402 172.945 331.697 173.125 330.29C173.306 328.885 172.387 325.738 172.387 325.738L165.813 325.663Z" fill="#131C24"/>
<path d="M165.713 324.773L165.545 326.232C165.545 326.232 169.149 327.441 172.555 326.359L172.366 324.364L165.713 324.773Z" fill="#4F4946"/>
<path d="M208.054 325.663C208.054 325.663 209.125 328.074 210.03 329.03C210.935 329.986 214.399 331.694 214.418 334.533C214.439 337.611 208.579 336.757 206.288 336.644C203.997 336.531 203.824 334.887 202.86 333.144C201.895 331.402 200.921 331.697 200.741 330.29C200.56 328.885 201.479 325.738 201.479 325.738L208.054 325.663Z" fill="#131C24"/>
<path d="M208.154 324.773L208.322 326.232C208.322 326.232 204.718 327.441 201.312 326.359L201.501 324.364L208.154 324.773Z" fill="#4F4946"/>
<path d="M206.258 285.923C206.258 289.718 209.803 324.364 209.803 324.364C209.396 325.629 200.699 325.474 199.343 324.843C197.986 324.21 194.043 289.875 193.792 286.049C193.542 282.223 187.879 248.945 186.689 249.071C185.499 249.197 179.863 284.859 178.913 287.769C177.964 290.677 173.656 325.172 173.656 325.172C170.672 326.816 163.577 324.758 163.577 324.758C163.577 324.758 165.064 289.343 165.234 288.274C165.486 286.691 165.222 282.426 165.913 272.961C166.531 264.494 168.762 246.06 170.176 236.076C170.227 235.721 170.275 235.38 170.322 235.053C170.599 233.111 170.807 231.683 170.907 230.998C170.95 230.702 170.973 230.544 170.973 230.544C171.354 230.381 171.753 230.23 172.168 230.091C182.104 226.762 201.017 226.975 201.017 226.975C201.017 226.975 201.278 230.373 201.299 230.539C201.324 230.739 201.364 231.054 201.415 231.461C201.525 232.341 201.69 233.652 201.88 235.174C201.88 235.185 201.882 235.195 201.883 235.206C201.889 235.252 201.894 235.299 201.9 235.345C202.568 240.76 203.514 248.687 203.425 249.511C203.289 250.776 206.258 282.128 206.258 285.923Z" fill="#293E4F"/>
<path d="M207.674 173.686L202.793 191.199C202.625 191.767 202.426 192.466 202.214 193.278L202.205 193.309C202.203 193.316 202.2 193.323 202.199 193.33C201.385 196.451 200.377 201.21 200.076 206.497C199.873 210.101 200.541 224.59 200.541 224.59C200.541 224.59 193.154 227.347 182.102 226.649C182.102 226.649 170.213 226.371 171.183 219.082C173.747 199.789 171.239 191.834 170.903 189.897C170.903 189.897 169.499 181.008 168.343 173.157C171.689 171.911 185.771 166.625 185.771 166.625L193.174 167.179C193.174 167.179 204.424 169.949 207.674 173.686Z" fill="#D9C7C1"/>
<path d="M189.485 141.867C189.485 141.867 196.711 143.086 195.485 154.399C194.259 165.712 187.881 164.714 187.454 164.698C187.027 164.682 181.039 164.834 180.723 151.002C180.722 151.003 180.63 140.776 189.485 141.867Z" fill="#EEA987"/>
<path d="M192.65 161.419C192.65 161.419 192.4 166.075 192.84 167.088C193.279 168.101 187.038 171.308 183.159 167.655C183.159 167.655 183.943 162.566 183.7 160.769C183.457 158.972 192.65 161.419 192.65 161.419Z" fill="#EEA987"/>
<path d="M195.631 151.202C195.631 151.202 196.433 150.364 196.714 151.224C196.995 152.084 195.434 155.897 195.531 156.07C195.531 156.07 195.383 156.401 195.194 156.216C195.006 156.031 195.631 151.202 195.631 151.202Z" fill="#EEA987"/>
<path d="M180.805 150.897C180.805 150.897 180.038 150.027 179.722 150.875C179.406 151.723 180.561 155.531 180.705 155.766C180.705 155.766 180.953 156.157 181.149 155.979C181.345 155.802 180.805 150.897 180.805 150.897Z" fill="#EEA987"/>
<path d="M196.093 150.241C195.844 151.789 195.61 152.939 195.61 152.939L194.558 154.313C194.558 154.313 194.62 151.276 194.459 150.799C194.397 150.618 194.326 150.298 194.253 149.951C194.132 149.379 194.009 148.733 193.924 148.517C193.788 148.173 187.731 146.404 182.335 148.888C182.335 148.888 182.381 149.355 182.377 149.877C182.376 150.483 182.309 151.162 182.031 151.264C181.513 151.453 181.729 154.818 181.729 154.818L180.888 153.847C180.888 153.847 180.645 152.089 180.406 150.069C180.406 150.069 180.405 150.064 180.403 150.055C180.349 149.584 180.294 149.099 180.241 148.618C180.121 146.586 180.322 142.896 182.968 140.728C184.754 139.963 189.633 139.194 192.358 140.769C192.358 140.769 193.817 141.676 194.123 141.97C197.082 145.228 196.093 150.241 196.093 150.241Z" fill="#E8734D"/>
<path d="M184.197 163.186C184.197 163.186 185.35 164.788 188.03 164.727C190.709 164.666 191.873 163.27 191.873 163.27C191.873 163.27 190.604 165.923 188.018 165.895C185.43 165.867 184.197 163.186 184.197 163.186Z" fill="#C78D71"/>
<path d="M182.423 167.754C182.423 167.754 184.36 171.125 188.034 171.443C190.365 171.644 192.364 168.683 193.31 167.233C193.311 167.233 188.11 165.006 182.423 167.754Z" fill="#EEA987"/>
<path d="M192.658 166.174C192.658 166.174 191.18 168.11 188.034 170.18L189.991 173.196L193.327 167.218L192.658 166.174Z" fill="#EDDAD3"/>
<path d="M183.307 166.625C183.307 166.625 185.187 168.981 188.035 170.18L185.887 173.286L182.155 167.982L183.307 166.625Z" fill="#EDDAD3"/>
<path d="M188.034 170.18L189.711 172.732C189.711 172.732 187.95 173.729 186.313 172.669L188.034 170.18Z" fill="#5073AB"/>
<path d="M170.778 227.961C170.778 227.961 179.844 231.306 200.349 228.156L200.077 224.443C200.077 224.443 188.191 227.949 171.14 224.946L170.778 227.961Z" fill="#1A2833"/>
<path d="M193.327 167.218C193.327 167.218 191.208 183.078 191.499 196.739C191.789 210.399 196.226 236.015 196.226 236.015C196.226 236.015 204.133 235.241 206.096 232.77C206.096 232.77 201.559 208.116 201.688 204.461C201.817 200.806 207.503 173.328 207.503 173.328C207.503 173.328 205.28 170.364 193.327 167.218Z" fill="#385369"/>
<path d="M181.982 168.047C181.982 168.047 181.962 183.078 181.672 196.738C181.381 210.398 179.582 235.829 179.582 235.829C179.582 235.829 170.306 234.508 168.343 232.037C168.343 232.037 171.613 208.115 171.484 204.461C171.355 200.807 167.291 173.597 167.291 173.597C167.291 173.597 168.696 171.592 181.982 168.047Z" fill="#385369"/>
<path d="M188.714 225.586H183.143V229.728H188.714V225.586Z" fill="#3E5E78"/>
<path d="M187.246 172.087C187.246 172.087 184.759 180.579 184.541 197.445C184.324 214.312 184.846 219.148 184.846 219.148L186.788 222.992L189.378 218.981C189.378 218.981 188.547 180.169 189.027 172.382L187.246 172.087Z" fill="#5073AB"/>
<path d="M197.633 195.823C197.633 195.823 201.317 193.97 201.827 193.644C202.337 193.318 208.489 192.407 209.264 192.431C210.039 192.456 210.074 193.074 209.854 193.293C209.635 193.513 203.487 194.522 203.381 194.669C203.276 194.816 203.9 194.762 203.9 194.762C203.9 194.762 210.528 194.66 210.991 195.105C211.455 195.548 210.923 195.968 210.654 196.08C210.654 196.08 211.258 196.773 210.56 197.059C209.864 197.344 208.92 197.527 208.92 197.527C208.92 197.527 209.795 197.978 209.219 198.38C208.643 198.783 201.622 200.957 201.622 200.957C201.622 200.957 199.01 195.964 197.633 195.823Z" fill="#EEA886"/>
<path d="M210.287 208.515C205.501 209.658 194.438 207.802 190.224 206.873C189.33 206.676 188.322 206.47 187.285 206.267H187.283C185.558 205.928 183.76 205.598 182.299 205.338H182.298C180.499 205.017 179.214 204.801 179.214 204.801C179.214 204.801 202.431 199.585 203.288 199.585C204.144 199.585 201.144 186.013 201.144 186.013C201.144 186.013 198.154 174.647 199.706 170.179C199.706 170.179 205.597 171.965 207.503 173.328C208.566 174.087 209.349 179.017 210.073 182.37C210.992 186.618 213.126 196.294 213.368 198.336C213.59 200.197 215.075 207.373 210.287 208.515Z" fill="#385369"/>
<path d="M174.763 170.235C174.763 170.235 167.632 172.671 167.29 173.597C165.848 177.515 165.177 181.797 164.711 183.513C164.142 185.61 162.852 191.882 162.519 193.927C162.096 196.535 161.284 205.775 161.638 207.199C162.084 208.998 166.325 208.867 168.611 208.511C170.896 208.153 202.662 200.424 202.662 200.424C202.662 200.424 200.849 194.515 200.758 193.992C200.758 193.992 176.273 196.791 173.154 197.456C171.372 197.836 170.987 197.981 170.987 197.981C170.987 197.981 176.386 175.817 174.763 170.235Z" fill="#385369"/>
<path d="M178.981 196.688C178.981 196.688 175.784 194.085 175.356 193.657C174.927 193.228 169.117 191.014 168.355 190.872C167.592 190.728 167.461 191.34 167.52 191.641C167.622 192.172 173.545 194.158 173.618 194.325C173.689 194.491 173.091 194.304 173.091 194.304C173.091 194.304 166.641 192.778 166.093 193.112C165.545 193.445 165.974 193.968 166.212 194.135C166.212 194.135 165.474 194.683 166.093 195.112C166.712 195.541 167.593 195.921 167.593 195.921C167.593 195.921 166.641 196.174 167.117 196.691C167.593 197.209 170.986 197.984 170.986 197.984C170.986 197.984 177.606 196.528 178.981 196.688Z" fill="#EEA886"/>
<path d="M198.054 201.542L187.284 206.268H187.282C185.557 205.929 183.759 205.599 182.298 205.339L198.054 201.542Z" fill="#263947"/>
<path d="M192.863 141.786C192.863 141.786 194.656 140.883 195.625 142.066C196.595 143.25 196.699 149.689 195.516 152.16C194.333 154.631 195.703 143.386 192.863 141.786Z" fill="#E8734D"/>
<path d="M124.617 205.614H121.411V351.359H124.617V205.614Z" fill="#706865"/>
<path d="M129.124 327.303H42.8675C37.5525 327.303 33.2435 322.994 33.2435 317.679V154.35C33.2435 149.035 37.5525 144.725 42.8675 144.725H129.124C134.439 144.725 138.749 149.034 138.749 154.35V317.679C138.749 322.995 134.44 327.303 129.124 327.303Z" fill="#BDAFAA"/>
<path d="M126.345 320.17H45.6485C40.3975 320.17 36.1395 315.912 36.1395 310.661V157.175C36.1395 151.924 40.3975 147.666 45.6485 147.666H126.345C131.597 147.666 135.854 151.923 135.854 157.175V310.661C135.854 315.912 131.597 320.17 126.345 320.17Z" fill="white"/>
<path d="M101.716 143.342H70.2765V150.442H101.716V143.342Z" fill="#706865"/>
<path d="M116.658 313.274H52.8315C47.6615 313.274 43.4545 309.068 43.4545 303.898V267.564C43.4545 262.394 47.6615 258.187 52.8315 258.187H116.658C121.829 258.187 126.035 262.394 126.035 267.564V303.898C126.035 309.068 121.829 313.274 116.658 313.274ZM52.8325 259.395C48.3285 259.395 44.6645 263.06 44.6645 267.564V303.898C44.6645 308.402 48.3295 312.066 52.8325 312.066H116.659C121.163 312.066 124.828 308.402 124.828 303.898V267.564C124.828 263.06 121.163 259.395 116.659 259.395H52.8325Z" fill="#B5DEFF"/>
<path d="M59.3915 225.389C59.3875 225.388 59.3825 225.387 59.3765 225.389C59.4385 225.416 59.4475 225.419 59.3915 225.389Z" fill="#323657"/>
<path d="M114.821 221.465C109.086 221.465 104.42 216.799 104.42 211.064C104.42 205.329 109.086 200.663 114.821 200.663C120.556 200.663 125.222 205.329 125.222 211.064C125.222 216.799 120.556 221.465 114.821 221.465ZM114.821 201.87C109.752 201.87 105.629 205.994 105.629 211.063C105.629 216.131 109.752 220.255 114.821 220.255C119.89 220.255 124.013 216.131 124.013 211.063C124.013 205.994 119.89 201.87 114.821 201.87Z" fill="#B5DEFF"/>
<path d="M114.821 245.431C109.086 245.431 104.42 240.765 104.42 235.031C104.42 229.295 109.086 224.629 114.821 224.629C120.556 224.629 125.222 229.295 125.222 235.031C125.222 240.765 120.556 245.431 114.821 245.431ZM114.821 225.838C109.752 225.838 105.629 229.962 105.629 235.031C105.629 240.099 109.752 244.223 114.821 244.223C119.89 244.223 124.013 240.099 124.013 235.031C124.013 229.962 119.89 225.838 114.821 225.838Z" fill="#B5DEFF"/>
<path d="M67.9405 211.526C67.0825 211.526 66.2135 211.484 65.3575 211.403C64.4095 211.312 63.4665 211.173 62.5525 210.986C58.5775 210.179 54.7695 208.441 51.5395 205.96C50.5825 205.227 49.6675 204.42 48.8195 203.565C48.6445 203.388 48.4795 203.216 48.3285 203.055C47.7315 202.424 47.1565 201.75 46.6195 201.056C42.9415 196.303 40.9965 190.607 40.9965 184.582C40.9965 169.725 53.0835 157.638 67.9405 157.638V158.846C53.7505 158.846 42.2055 170.391 42.2055 184.581C42.2055 190.335 44.0625 195.776 47.5755 200.314C48.0885 200.979 48.6375 201.621 49.2095 202.225C49.3545 202.381 49.5115 202.544 49.6775 202.711C50.4875 203.528 51.3615 204.298 52.2755 204.998C55.3605 207.369 58.9975 209.029 62.7945 209.799C63.6665 209.978 64.5675 210.112 65.4725 210.197C66.2905 210.274 67.1215 210.314 67.9415 210.314C68.2405 210.314 68.5165 210.309 68.7865 210.3C69.5675 210.275 70.3465 210.215 71.1015 210.12C75.3005 209.607 79.3475 208.041 82.8055 205.591C83.1695 205.331 83.5265 205.064 83.8655 204.796C84.1595 204.566 84.4635 204.316 84.7695 204.05C85.7995 203.158 86.7675 202.178 87.6455 201.135C91.5345 196.51 93.6755 190.631 93.6755 184.579C93.6755 183.314 93.5825 182.044 93.4005 180.803L94.5965 180.627C94.7865 181.926 94.8845 183.256 94.8845 184.579C94.8845 190.915 92.6415 197.07 88.5705 201.912C87.6515 203.004 86.6385 204.031 85.5595 204.965C85.2395 205.241 84.9195 205.504 84.6125 205.745C84.2595 206.023 83.8865 206.304 83.5065 206.575C79.8835 209.142 75.6465 210.782 71.2505 211.32C70.4595 211.419 69.6435 211.481 68.8265 211.508C68.5425 211.521 68.2525 211.526 67.9405 211.526Z" fill="#B5DEFF"/>
<path d="M86.7375 198.849C86.6465 198.73 86.5585 198.632 86.4745 198.555C86.4485 198.52 86.4055 198.483 86.3365 198.444C86.3275 198.437 86.3195 198.434 86.3125 198.428L86.3105 198.431C81.2885 195.653 72.2245 193.39 72.2245 193.39C71.9615 192.786 71.9815 190.689 72.0205 189.436C72.9605 188.344 73.8125 186.637 74.2905 183.975C74.4425 184.088 74.5595 183.829 74.5595 183.829C74.4755 183.679 75.8305 180.37 75.5865 179.623C75.4485 179.202 75.1665 179.25 74.9475 179.372C74.9795 179.181 75.0125 178.98 75.0475 178.77C75.0475 178.77 75.5845 173.696 73.0165 170.87C72.7515 170.615 71.8055 170.552 71.8055 170.552C67.6815 169.289 65.2075 169.853 63.6585 170.516C61.3625 172.397 61.1875 175.599 61.2925 177.363C61.3385 177.78 61.3865 178.201 61.4335 178.61C61.4345 178.618 61.4355 178.623 61.4355 178.623C61.4545 178.784 61.4735 178.943 61.4925 179.099C61.2785 178.967 60.9965 178.905 60.8415 179.322C60.5665 180.058 61.5695 183.362 61.6945 183.566C61.6945 183.566 61.9105 183.905 62.0805 183.752V183.751C62.5545 186.654 63.4105 188.441 64.3075 189.543C64.2165 191.172 63.9255 193.209 63.8455 193.748C63.8455 193.748 63.8455 193.748 63.8445 193.749C61.7385 194.413 51.1785 197.223 47.9835 199.322C47.6935 199.5 47.3975 199.977 47.0995 200.688C47.6235 201.369 48.1815 202.021 48.7715 202.645C48.9285 202.812 49.0885 202.978 49.2505 203.141C50.0825 203.98 50.9705 204.762 51.9095 205.482C55.0225 207.875 58.6855 209.586 62.6755 210.396C63.5725 210.579 64.4875 210.715 65.4165 210.803C66.2475 210.882 67.0905 210.923 67.9425 210.923C68.2325 210.923 68.5205 210.919 68.8075 210.908C69.6065 210.883 70.3985 210.821 71.1775 210.725C75.6035 210.183 79.6905 208.544 83.1565 206.087C83.5245 205.824 83.8855 205.554 84.2415 205.274C84.5545 205.028 84.8635 204.773 85.1655 204.511C86.2235 203.596 87.2075 202.599 88.1085 201.528C87.6095 200.315 87.1445 199.382 86.7375 198.849Z" fill="#B5DEFF"/>
<path d="M400.502 257.609H369.293V259.461H400.502V257.609Z" fill="#E2D2CA"/>
<path d="M396.319 264.282H393.585V348.537H396.319V264.282Z" fill="#706865"/>
<path d="M374.177 257.083H352.484V259.729H374.177V257.083Z" fill="#CCBDB7"/>
<path d="M367.438 234.511H359.223V259.461H367.438V234.511Z" fill="#4667A8"/>
<path d="M411.698 259.492H291.502V264.282H411.698V259.492Z" fill="#B59074"/>
<path d="M434.767 230.497C434.767 230.497 436.081 248.932 432.479 251.139C430.222 252.521 421.225 257.183 421.493 258.057C421.76 258.931 426.573 265.835 426.573 265.835C426.573 265.835 443.854 254.455 444.412 250.868C444.956 247.364 443.561 223.875 441.186 222.793C439.407 221.982 438.467 222.652 436.225 224.318C433.078 226.653 434.767 230.497 434.767 230.497Z" fill="#323657"/>
<path d="M403.27 235.761L401.747 235.198C401.747 235.198 403.646 230.739 404.476 230.846C405.431 230.971 406.623 231.286 406.623 231.286L403.27 235.761Z" fill="#EAD8CF"/>
<path d="M402.922 236.529C403.116 236.384 406.159 230.547 406.159 230.547L412.661 231.43L409.147 238.345L402.922 236.529Z" fill="#DA9B5B"/>
<path d="M413.503 337.033C413.503 337.033 414.041 340.763 414.108 341.324C414.174 341.885 420.086 340.994 420.086 340.994L420.565 336.553C420.565 336.553 414.242 336.507 413.503 337.033Z" fill="#424773"/>
<path d="M414.045 340.849C414.045 340.849 412.172 343.097 410.36 344.077C408.549 345.056 405.703 345.444 404.631 346.459C403.858 347.19 401.815 350.343 409.338 350.278C416.861 350.215 420.488 350.723 421.294 349.515C422.101 348.307 420.128 340.597 420.128 340.597C420.128 340.597 418.348 341.238 414.045 340.849Z" fill="#292C47"/>
<path d="M375.632 337.069C375.632 337.069 376.169 340.798 376.236 341.359C376.303 341.92 382.215 341.029 382.215 341.029L382.694 336.589C382.694 336.589 376.371 336.543 375.632 337.069Z" fill="#424773"/>
<path d="M376.174 340.886C376.174 340.886 374.301 343.133 372.489 344.113C370.677 345.093 364.011 345.898 362.94 346.912C362.168 347.644 360.881 350.591 371.466 350.315C378.987 350.12 382.616 350.76 383.423 349.552C384.229 348.343 382.256 340.632 382.256 340.632C382.256 340.632 380.579 341.317 376.174 340.886Z" fill="#292C47"/>
<path d="M432.57 272.598C432.57 272.598 411.079 276.235 406.225 276.997C401.371 277.759 375.053 284.308 371.762 286.303C369.142 287.892 373.136 326.041 374.069 340.597H384.435L385.187 296.936C397.626 297.248 406.502 294.026 415.561 295.402C424.62 296.778 432.171 298.733 437.927 291.012C437.927 291.012 438.141 274.285 432.57 272.598Z" fill="#292C47"/>
<path d="M411.387 340.632L421.49 340.008L422.474 296.937C427.828 297.071 429.664 296.731 433.998 296.206L442.154 277.248C435.006 278.677 412.103 284.453 409.05 286.305C406.43 287.893 410.454 326.077 411.387 340.632Z" fill="#292C47"/>
<path d="M422.676 192.044C422.676 192.044 414.798 189.867 411.793 195.982C408.787 202.098 410.149 213.692 414.12 214.783C418.091 215.874 423.8 214.618 425.448 210.811C427.096 207.005 428.411 201.596 428.016 198.094C427.622 194.592 424.769 192.882 422.676 192.044Z" fill="#EEA886"/>
<path d="M416.179 213.562C416.179 213.562 416.266 218.213 415.753 219.205C415.239 220.197 426.723 219.948 426.723 219.948C426.723 219.948 424.913 214.363 425.94 209.604C426.955 204.894 416.179 213.562 416.179 213.562Z" fill="#EEA886"/>
<path d="M426.558 207.844C426.558 207.844 425.945 209.092 422.972 208.89C419.999 208.689 416.079 205.103 414.818 204.783C413.557 204.463 413.481 203.745 413.481 203.745L412.814 204.933L411.521 205.129C411.521 205.129 412.399 201.535 410.485 200.27C408.571 199.005 411.347 188.813 421.039 191.271C421.039 191.271 428.435 192.625 428.535 196.756C428.634 200.885 427.993 205.656 426.558 207.844Z" fill="#3A3F47"/>
<path d="M415.149 219.086C415.149 219.086 415.181 217.191 416.04 217.01C416.899 216.828 425.066 215.705 426.121 216.119L426.573 218.62C426.573 218.62 424.541 219.87 415.149 219.086Z" fill="#E2D2CA"/>
<path d="M412.785 202.897C413.006 201.344 414.771 199.56 415.782 201.979C416.793 204.398 415.099 207.919 413.966 207.731C412.831 207.543 412.487 205.004 412.785 202.897Z" fill="#EEA886"/>
<path d="M380.94 241.47C380.944 241.468 380.949 241.467 380.954 241.469C380.895 241.494 380.886 241.496 380.94 241.47Z" fill="#323657"/>
<path d="M424.974 193.153C424.974 193.153 434.579 192.702 426.651 207.696L424.974 193.153Z" fill="#3A3F47"/>
<path d="M446.376 345.741L445.661 347.752L415.47 338.397L416.917 334.327L446.376 345.741Z" fill="#918783"/>
<path d="M417.867 304.14H414.435V336.964H417.867V304.14Z" fill="#918783"/>
<path d="M426.27 302.397H406.031V304.331H426.27V302.397Z" fill="#5E5854"/>
<path d="M385.659 345.741L386.374 347.752L416.566 338.397L415.239 334.071L385.659 345.741Z" fill="#918783"/>
<path d="M406.931 347.536V349.874L416.566 338.397L415.239 334.071L406.931 347.536Z" fill="#918783"/>
<path d="M385.659 351.358C387.217 351.358 388.48 350.095 388.48 348.537C388.48 346.979 387.217 345.716 385.659 345.716C384.101 345.716 382.838 346.979 382.838 348.537C382.838 350.095 384.101 351.358 385.659 351.358Z" fill="#BFB2AC"/>
<path d="M409.513 351.358C411.071 351.358 412.334 350.095 412.334 348.537C412.334 346.979 411.071 345.716 409.513 345.716C407.955 345.716 406.692 346.979 406.692 348.537C406.692 350.095 407.955 351.358 409.513 351.358Z" fill="#BFB2AC"/>
<path d="M446.376 351.359C447.934 351.359 449.198 350.096 449.198 348.537C449.198 346.978 447.934 345.715 446.376 345.715C444.817 345.715 443.554 346.978 443.554 348.537C443.554 350.096 444.817 351.359 446.376 351.359Z" fill="#BFB2AC"/>
<path d="M395.66 302.397H436.375C438.372 302.397 439.992 300.777 439.992 298.78V298.686C439.992 296.689 438.372 295.07 436.375 295.07H395.66C393.662 295.07 392.043 296.689 392.043 298.686V298.78C392.043 300.777 393.662 302.397 395.66 302.397Z" fill="#E2D2CA"/>
<path d="M309.615 264.282H306.88V348.537H309.615V264.282Z" fill="#706865"/>
<path d="M331.471 246.529H395.191C397.183 246.529 398.798 244.914 398.798 242.922V200.096C398.798 198.104 397.183 196.489 395.191 196.489H331.471C329.478 196.489 327.863 198.104 327.863 200.096V242.922C327.863 244.914 329.478 246.529 331.471 246.529Z" fill="#5F8BE3"/>
<path d="M396.021 199.193H330.641V238.687H396.021V199.193Z" fill="#F5F7FF"/>
<path d="M396.021 199.193H330.641V202.336H396.021V199.193Z" fill="#CECFD6"/>
<path d="M335.291 236.256H338.707C339.94 236.256 340.94 235.256 340.94 234.023V206.934C340.94 205.701 339.94 204.701 338.707 204.701H335.291C334.058 204.701 333.058 205.701 333.058 206.934V234.023C333.058 235.256 334.058 236.256 335.291 236.256Z" fill="#CECFD6"/>
<path d="M380.998 207.623H392.965C393.631 207.623 394.171 207.084 394.171 206.418V205.906C394.171 205.24 393.631 204.7 392.965 204.7H380.998C380.332 204.7 379.792 205.24 379.792 205.906V206.418C379.792 207.084 380.332 207.623 380.998 207.623Z" fill="#CECFD6"/>
<path d="M382.283 237.061H391.681C393.056 237.061 394.171 235.946 394.171 234.57V212.073C394.171 210.698 393.056 209.582 391.681 209.582H382.283C380.908 209.582 379.793 210.698 379.793 212.073V234.57C379.792 235.946 380.908 237.061 382.283 237.061Z" fill="#CECFD6"/>
<path d="M363.33 244.764C364.593 244.764 365.618 243.74 365.618 242.476C365.618 241.212 364.593 240.188 363.33 240.188C362.066 240.188 361.042 241.212 361.042 242.476C361.042 243.74 362.066 244.764 363.33 244.764Z" fill="#59524F"/>
<path d="M348.646 259.556V258.665C348.646 258.665 349.898 253.126 358.753 253.126C367.608 253.126 367.429 259.556 367.429 259.556H348.646Z" fill="#314875"/>
<path d="M367.536 253.95C367.536 253.95 365.612 253.801 364.907 253.375C364.203 252.95 359.986 250.114 358.995 250.568C358.005 251.022 351.413 253.041 351.642 254.006C351.871 254.97 352.481 254.877 352.946 254.706C353.411 254.535 358.197 253.53 358.62 253.699C358.62 253.699 353.919 255.415 353.899 256.666C353.88 257.918 354.883 258.223 355.329 258.695C355.775 259.169 356.31 260.344 357.522 260.434C358.733 260.524 364.645 258.467 365.862 258.372C367.079 258.279 369.332 258.448 369.485 258.25C369.638 258.053 367.536 253.95 367.536 253.95Z" fill="#EEA886"/>
<path d="M402.559 221.711C408.693 220.633 415.149 219.086 415.149 219.086L426.573 218.62C426.573 218.62 437.057 220.928 441.186 222.793C441.578 222.97 441.58 232.147 442.654 234.553L439.231 241.775C439.231 241.775 437.253 256.081 436.843 262.444C436.655 265.364 437.375 290.671 437.375 290.671C437.375 290.671 436.349 291.178 428.553 292.037C420.756 292.896 401.277 291.726 401.154 290.807C401.031 289.885 404.926 256.518 405.099 254.79C405.364 252.138 404.333 239.883 404.333 239.883C402.863 241.857 399.119 250.767 395.216 255.007C392.919 257.5 381.55 259.029 379.407 259.101C374.742 259.257 366.232 260.186 365.983 259.732C365.785 259.46 365.242 252.178 365.775 252.001C366.242 251.846 382.045 250.936 386.092 248.788C387.573 248.001 392.001 238.347 392.001 238.347C392.001 238.347 399.175 223.231 402.559 221.711Z" fill="#323657"/>
<path d="M425.072 289.939H444.25C448.085 289.939 451.194 286.83 451.194 282.994V251.087C451.194 247.252 448.085 244.143 444.25 244.143H425.072C421.236 244.143 418.128 247.252 418.128 251.087V282.994C418.127 286.83 421.236 289.939 425.072 289.939Z" fill="#E2D2CA"/>
<path d="M423.987 300.573C428.861 300.573 432.815 298.935 435.74 295.707C442.35 288.409 441.162 275.58 441.108 275.037C441.008 274.026 440.105 273.287 439.096 273.389C438.085 273.49 437.347 274.39 437.447 275.4C437.461 275.546 438.514 287.174 433.006 293.245C430.778 295.701 427.828 296.895 423.987 296.895C422.97 296.895 422.147 297.718 422.147 298.734C422.147 299.75 422.97 300.573 423.987 300.573Z" fill="#E2D2CA"/>
<path d="M364.28 215.336C364.28 220.413 360.167 224.57 355.046 224.57C349.955 224.57 345.811 220.444 345.811 215.336C345.811 210.236 349.946 206.102 355.046 206.102C360.145 206.101 364.28 210.236 364.28 215.336Z" fill="#EEF0F7"/>
<path d="M361.06 220.431L360.378 222.874C359.163 223.735 357.731 224.311 356.179 224.5C355.906 224.534 355.628 224.556 355.348 224.564C355.247 224.568 355.147 224.569 355.045 224.569C354.746 224.569 354.45 224.555 354.159 224.527C353.833 224.496 353.513 224.448 353.198 224.384C351.799 224.1 350.514 223.5 349.424 222.66C349.293 221.852 349.153 220.959 349.029 220.122C349.708 219.87 351.868 219.135 353.231 218.674C353.25 218.667 353.269 218.661 353.288 218.655C353.318 218.644 353.348 218.634 353.377 218.625C353.457 218.598 353.534 218.571 353.608 218.547C353.682 218.522 353.754 218.497 353.82 218.475C354.099 218.381 354.296 218.315 354.367 218.291H354.368C354.386 218.284 354.395 218.281 354.395 218.281L354.411 218.282L356.244 218.42L356.552 218.442L356.648 218.449C356.648 218.449 356.663 218.453 356.69 218.46C356.8 218.488 357.122 218.572 357.547 218.702C357.547 218.702 357.548 218.703 357.549 218.703C358.635 219.036 360.396 219.668 361.06 220.431Z" fill="#D9C7C1"/>
<path d="M355.526 210.75C355.526 210.75 357.724 211.122 357.351 214.563C356.978 218.005 355.038 217.702 354.908 217.697C354.778 217.691 352.956 217.738 352.86 213.529C352.86 213.529 352.831 210.419 355.526 210.75Z" fill="#EEA987"/>
<path d="M356.489 216.699C356.489 216.699 356.414 218.115 356.547 218.424C356.682 218.733 354.782 219.708 353.602 218.597C353.602 218.597 353.841 217.049 353.767 216.502C353.693 215.955 356.489 216.699 356.489 216.699Z" fill="#EEA987"/>
<path d="M357.396 213.59C357.396 213.59 357.64 213.336 357.725 213.598C357.811 213.86 357.335 215.02 357.366 215.073C357.366 215.073 357.321 215.174 357.263 215.117C357.205 215.06 357.396 213.59 357.396 213.59Z" fill="#EEA987"/>
<path d="M352.885 213.498C352.885 213.498 352.652 213.232 352.555 213.491C352.459 213.749 352.811 214.907 352.855 214.978C352.855 214.978 352.93 215.097 352.99 215.043C353.05 214.989 352.885 213.498 352.885 213.498Z" fill="#EEA987"/>
<path d="M357.536 213.298C357.46 213.77 357.389 214.119 357.389 214.119L357.069 214.537C357.069 214.537 357.089 213.613 357.04 213.468C357.021 213.412 357 213.316 356.977 213.21C356.94 213.036 356.902 212.84 356.876 212.773C356.835 212.669 354.992 212.13 353.351 212.886C353.351 212.886 353.365 213.028 353.364 213.187C353.363 213.372 353.343 213.578 353.259 213.609C353.102 213.667 353.167 214.69 353.167 214.69L352.911 214.395C352.911 214.395 352.837 213.861 352.764 213.246C352.764 213.246 352.764 213.244 352.764 213.242C352.747 213.098 352.731 212.951 352.714 212.804C352.678 212.185 352.738 211.063 353.544 210.403C354.087 210.172 354.954 209.973 356.4 210.416C356.4 210.416 356.732 210.438 356.825 210.528C357.725 211.519 357.536 213.298 357.536 213.298Z" fill="#E8734D"/>
<path d="M353.916 217.236C353.916 217.236 354.268 217.723 355.083 217.706C355.897 217.686 356.252 217.262 356.252 217.262C356.252 217.262 355.866 218.07 355.079 218.061C354.292 218.053 353.916 217.236 353.916 217.236Z" fill="#C78D71"/>
<path d="M353.377 218.627C353.377 218.627 353.966 219.652 355.084 219.749C355.793 219.811 356.407 218.911 356.695 218.47C356.696 218.47 355.107 217.79 353.377 218.627Z" fill="#EEA987"/>
<path d="M356.492 218.145C356.492 218.145 356.043 218.734 355.085 219.365L355.681 220.282L356.697 218.469L356.492 218.145Z" fill="#EDDAD3"/>
<path d="M353.646 218.283C353.646 218.283 354.218 219 355.084 219.365L354.431 220.309L353.288 218.656L353.646 218.283Z" fill="#EDDAD3"/>
<path d="M355.084 219.365L355.595 220.14C355.595 220.14 355.059 220.444 354.561 220.121L355.084 219.365Z" fill="#5073AB"/>
<path d="M361.65 220.287C361.65 220.287 361.645 220.305 361.635 220.338C361.579 220.537 361.364 221.304 361.083 222.323C360.978 222.414 360.869 222.504 360.759 222.59C360.635 222.689 360.508 222.783 360.378 222.875C359.163 223.736 357.731 224.312 356.179 224.501C356.316 221.305 356.695 218.47 356.695 218.47C356.995 218.549 357.279 218.627 357.548 218.704C357.548 218.704 357.549 218.705 357.55 218.705C359.893 219.377 361.081 219.967 361.487 220.191C361.49 220.192 361.493 220.194 361.496 220.195C361.601 220.255 361.65 220.287 361.65 220.287Z" fill="#323657"/>
<path d="M353.199 224.386C351.8 224.102 350.515 223.502 349.425 222.662C349.095 222.41 348.784 222.136 348.492 221.842C348.435 221.785 348.379 221.727 348.324 221.668C348.162 220.981 348.054 220.533 348.048 220.504V220.503C348.048 220.503 349.191 219.752 353.233 218.674C353.233 218.674 353.233 218.674 353.233 218.676C353.232 218.768 353.234 221.361 353.199 224.386Z" fill="#323657"/>
<path d="M355.376 220.226C355.339 221.068 355.335 222.702 355.348 224.565C355.247 224.569 355.147 224.57 355.045 224.57C354.746 224.57 354.45 224.556 354.159 224.528C354.337 222.23 354.636 220.793 354.772 220.223C354.817 220.036 354.844 219.944 354.844 219.944L355.386 220.034C355.383 220.093 355.379 220.157 355.376 220.226Z" fill="#5073AB"/>
<path d="M362.116 221.276C361.8 221.652 361.455 222.002 361.084 222.323C360.979 222.414 360.87 222.504 360.76 222.59C360.764 222.579 361.291 221.042 361.651 220.287C361.894 220.45 362.004 221.004 362.116 221.276Z" fill="#323657"/>
<path d="M348.492 221.842C348.435 221.785 348.379 221.727 348.324 221.668C348.117 221.449 347.922 221.22 347.738 220.981C347.842 220.732 347.946 220.565 348.048 220.502V220.503L348.492 221.842Z" fill="#323657"/>
<path d="M286.443 332.711C286.443 332.711 285.239 330.744 283.589 329.977C281.939 329.21 278.558 331.887 278.261 333.376L274.341 339.096L275.083 339.606L277.176 336.552C275.751 339.981 273.715 344.085 275.146 346.149C277.065 348.919 281.418 351.718 282.568 351.234C283.718 350.75 283.488 342.696 283.488 342.696C282.246 335.586 286.443 332.711 286.443 332.711Z" fill="#1D3B54"/>
<path d="M286.443 332.711C286.443 332.711 285.014 335.458 284.28 337.591C283.547 339.724 283.409 345.629 282.946 346.039C282.483 346.448 278.837 344.608 278.349 342.4C277.863 340.192 279.341 335.778 280.749 333.458C282.157 331.138 283.589 329.977 283.589 329.977C283.589 329.977 286.075 330.46 286.443 332.711Z" fill="#DE9673"/>
<path d="M300.52 280.958C300.52 280.958 298.286 292.814 298.286 295.649C298.286 298.485 297.514 303.124 295.709 306.56C293.905 309.998 285.988 333.475 285.301 336.21C284.613 338.943 284.025 341.526 284.025 341.526C284.025 341.526 280.073 339.722 280.073 337.144C280.073 334.568 283.511 313.26 284.111 309.051C284.713 304.841 289.696 283.277 289.696 283.277L300.52 280.958Z" fill="#DE9673"/>
<path d="M287.89 280.185C287.89 280.185 288.663 290.065 288.578 292.642C288.493 295.219 287.289 301.062 287.289 302.609C287.289 304.155 287.288 336.197 288.57 340.063C289.852 343.928 284.969 341.269 284.969 341.269C284.969 341.269 276.464 320.194 276.464 311.401C276.464 302.609 277.494 298.227 276.893 292.642C276.292 287.057 273.619 279.706 273.619 279.706L287.89 280.185Z" fill="#EEA886"/>
<path d="M275.025 232.63C275.025 232.63 270.453 238.232 269.25 245.706C268.048 253.181 270.674 267.275 271.608 271.353C272.427 274.931 273.995 286.384 274.081 287.586C274.081 287.586 289.454 289.327 301.138 285.633C301.138 285.633 302.207 269.638 302.895 262.85C303.582 256.063 300.228 233.144 300.228 233.144L275.025 232.63Z" fill="#EB4747"/>
<path d="M292.603 349.81C287.096 345 288.57 340.063 288.57 340.063C288.57 340.063 286.369 339.281 284.582 339.727C282.794 340.173 281.836 344.437 282.551 345.798L283.108 352.801L284.016 352.728L283.719 348.991C284.782 352.599 285.791 357.129 288.233 357.843C291.509 358.802 296.721 358.235 297.319 357.12C297.914 356.006 292.603 349.81 292.603 349.81Z" fill="#1D3B54"/>
<path d="M295.834 180.279C295.834 180.279 294.472 188.389 295.648 191.112C296.824 193.836 289.395 187.927 289.395 187.927C289.395 187.927 292.479 178.993 295.834 180.279Z" fill="#754836"/>
<path d="M293.087 157.749C293.087 157.749 281.161 155.019 279.676 167.762C278.191 180.505 283.556 182.105 279.924 190.741C276.291 199.377 288.792 187.928 288.792 187.928L293.087 157.749Z" fill="#754836"/>
<path d="M292.059 157.563C295.121 157.501 301.858 159.23 302.675 167.362C302.675 167.362 302.368 169.539 301.79 171.241C301.212 172.942 302.606 178.046 302.198 178.284C301.79 178.522 300.123 178.794 300.123 178.794C300.123 178.794 298.184 184.272 296.244 184.17C294.304 184.068 287.001 182.344 283.734 175.369C280.467 168.394 279.697 157.813 292.059 157.563Z" fill="#EEA886"/>
<path d="M258.702 258.458C258.702 258.458 258.987 253.554 260.286 252.793C261.585 252.031 260.834 253.549 260.834 253.549C260.834 253.549 260.105 257.108 259.943 258.549C259.936 258.619 258.702 258.458 258.702 258.458Z" fill="#1D3B54"/>
<path d="M264.712 247.418C264.712 247.418 265.074 249.616 265.74 251.736C266.406 253.855 267.019 254.531 266.753 255.745C266.551 256.662 265.514 257.35 265.252 257.057C264.99 256.762 264.863 253.199 263.387 253.215C261.911 253.231 263.828 257.629 262.949 257.306C262.07 256.983 258.686 255.129 258.899 253.333C259.112 251.536 260.465 250.238 260.378 247.555C260.299 245.12 261.057 244.103 261.057 244.103L264.712 247.418Z" fill="#EEA886"/>
<path d="M263.533 253.065C263.533 253.065 265.5 253.568 265.383 260.219L263.156 259.848C263.156 259.848 263.197 256.171 262.532 254.167C262.532 254.168 262.645 252.866 263.533 253.065Z" fill="#1D3B54"/>
<path d="M271.698 261.72L254.357 256.802L254.408 278.158L271.665 288.502L271.698 261.72Z" fill="#EDDAD3"/>
<path d="M271.665 288.502L269.492 288.902L252.707 278.464L252.915 256.899L254.357 256.802L271.665 288.502Z" fill="#EDDAD3"/>
<path d="M293.708 187.522C293.708 187.522 298.331 189.419 299.156 189.998C299.981 190.577 301.633 197.262 302.045 197.84C302.458 198.418 306.445 203.375 305.894 207.395C305.461 210.552 303.676 212.224 302.52 213.461C301.365 214.699 300.294 221.365 299.932 222.356C299.57 223.347 300.722 236.349 300.722 236.349C300.722 236.349 287.159 241.627 275.025 232.63C275.025 232.63 277.448 223.924 277.448 222.356C277.448 220.788 275.88 209.727 271.67 203.206C267.46 196.685 272.413 189.751 275.632 188.927C278.852 188.101 285.042 185.79 285.042 185.79L293.708 187.522Z" fill="#EB4747"/>
<path d="M278.911 187.94C278.911 187.94 272.123 187.522 268.718 191.484C265.314 195.446 265.499 200.151 264.632 202.194C263.766 204.236 261.784 213.027 261.351 214.452C260.918 215.875 260.496 223.879 259.876 230.317C259.256 236.755 259.382 248.778 259.382 248.778L265.877 247.6C265.877 247.6 266.139 236.139 266.304 229.495C266.469 222.849 271.875 211.109 273.918 205.97C275.961 200.832 284.095 191.164 278.911 187.94Z" fill="#EB4747"/>
<path d="M298.483 189.623C298.483 189.623 301.468 189.812 302.892 192.784C304.316 195.756 304.861 198.227 305.232 198.97C305.603 199.713 310.754 209.499 311.064 211.666C311.374 213.832 310.878 217.795 308.154 218.848C305.43 219.9 295.649 220.024 295.649 220.024C295.649 220.024 298.125 214.993 295.835 212.392C295.835 212.392 302.934 211.11 304.613 210.94C306.385 210.761 296.234 191.851 298.483 189.623Z" fill="#EB4747"/>
<path d="M282.222 198.024L295.449 228.915L311.938 221.147L299.742 191.482L282.222 198.024Z" fill="#1D3B54"/>
<path d="M289.809 213.201C289.809 213.201 288.019 213.677 287.452 213.76C286.885 213.841 287.586 214.893 288.282 214.924C288.977 214.955 289.809 213.201 289.809 213.201Z" fill="#EEA886"/>
<path d="M291.011 221.991C291.011 221.991 291.842 221.95 292.197 221.755C292.197 221.755 292.815 221.35 293.271 221.089C293.417 221.007 293.545 220.938 293.632 220.902C293.998 220.753 294.845 220.536 295.623 219.931C296.399 219.327 298.929 216.917 298.929 216.917L297.257 214.396L295.965 212.39C295.965 212.39 290.529 212.538 289.74 213.018C289.663 213.065 289.589 213.115 289.522 213.166C288.893 213.637 288.623 214.251 288.321 214.534C288.211 214.639 287.185 215.759 287.247 216.208C287.333 216.832 287.645 217.229 288.034 217.415C288.034 217.415 288.256 218.629 288.888 219.167C288.888 219.167 289.056 220.293 290.034 220.737C290.035 220.739 290.334 221.863 291.011 221.991Z" fill="#EEA886"/>
<path d="M295.834 212.391C295.834 212.391 303.887 210.952 306.11 210.716C306.11 210.716 306.262 207.891 305.856 205.496C305.45 203.101 303.483 199.889 303.483 199.889L307.601 203.66C307.601 203.66 310.987 210.147 311.063 211.665C311.139 213.182 311.541 215.523 309.538 217.897C307.534 220.27 298.077 219.184 298.077 219.184C298.077 219.184 298.867 216.273 295.834 212.391Z" fill="#EB4747"/>
<path d="M293.357 182.878C293.357 182.878 293.096 183.646 292.794 184.788C292.639 185.372 292.472 186.052 292.323 186.778C291.914 188.786 291.641 191.136 292.12 192.721C292.12 192.721 287.787 194.086 284.568 187.927C284.568 187.927 286.207 181.434 284.426 177.419C282.647 173.407 293.357 182.878 293.357 182.878Z" fill="#EEA886"/>
<path d="M302.675 167.363C302.675 167.363 297.616 170.607 292.671 171.151C287.727 171.695 284.976 179.174 284.976 179.174C284.976 179.174 277.202 167.068 283.462 159.628C289.723 152.187 304.013 157.949 302.675 167.363Z" fill="#754836"/>
<path d="M290.63 170.866C290.63 169.911 289.609 168.451 288.01 169.71C286.411 170.969 288.384 175.562 289.677 175.154C290.97 174.746 290.63 171.853 290.63 170.866Z" fill="#EEA886"/>
<path d="M293.982 187.635C293.982 187.635 296.02 193.652 291.253 193.619C286.485 193.589 284.411 189.84 283.05 186.515C283.05 186.515 285.247 185.448 286.269 185.293C287.291 185.138 293.982 187.635 293.982 187.635Z" fill="#EEA886"/>
<path d="M265.386 259.93L263.151 260.22L263.153 259.177L265.386 259.93Z" fill="#1D3B54"/>
<path d="M259.962 258.392L258.727 258.538C258.727 258.538 258.723 258.166 258.734 258.043C258.744 257.919 259.919 258.314 259.962 258.392Z" fill="#1D3B54"/>
<path d="M288.57 340.063C288.57 340.063 289.196 343.136 289.976 345.285C290.756 347.432 294.41 352.17 294.306 352.788C294.202 353.406 290.158 354.28 288.368 352.851C286.578 351.421 284.93 347.002 284.561 344.278C284.192 341.554 284.387 339.795 284.387 339.795C284.387 339.795 286.847 338.523 288.57 340.063Z" fill="#EEA886"/>
<path d="M293.178 183.501C293.023 184.084 292.793 184.788 292.615 185.483C288.702 182.84 286.827 179.703 286.827 179.703C289.046 181.827 293.178 183.501 293.178 183.501Z" fill="#A77860"/>
<path d="M111.828 67.738H157.948C161.706 67.738 164.753 70.785 164.753 74.543V93.186C164.753 96.944 161.706 99.991 157.948 99.991H111.828C108.07 99.991 105.023 96.944 105.023 93.186V74.543C105.024 70.784 108.071 67.738 111.828 67.738Z" fill="#DFE1E8"/>
<path d="M74.2905 229.686C74.2865 229.685 74.2815 229.684 74.2755 229.685C74.3365 229.712 74.3455 229.715 74.2905 229.686Z" fill="#323657"/>
<path d="M45.8785 224.542H90.0005C91.2295 224.542 92.2255 223.546 92.2255 222.317V220.962C92.2255 219.733 91.2295 218.737 90.0005 218.737H45.8785C44.6495 218.737 43.6535 219.733 43.6535 220.962V222.317C43.6545 223.546 44.6505 224.542 45.8785 224.542Z" fill="#B5DEFF"/>
<path d="M45.8785 235.011H90.0005C91.2295 235.011 92.2255 234.015 92.2255 232.786V231.432C92.2255 230.203 91.2295 229.207 90.0005 229.207H45.8785C44.6495 229.207 43.6535 230.202 43.6535 231.432V232.786C43.6545 234.014 44.6505 235.011 45.8785 235.011Z" fill="#B5DEFF"/>
<path d="M45.8785 245.48H90.0005C91.2295 245.48 92.2255 244.484 92.2255 243.255V241.899C92.2255 240.671 91.2295 239.675 90.0005 239.675H45.8785C44.6495 239.675 43.6535 240.671 43.6535 241.899V243.255C43.6545 244.484 44.6505 245.48 45.8785 245.48Z" fill="#B5DEFF"/>
<path d="M120.09 196.355H109.551C107.263 196.355 105.407 194.5 105.407 192.21V159.633C105.407 157.344 107.262 155.488 109.551 155.488H120.09C122.378 155.488 124.235 157.343 124.235 159.633V192.21C124.235 194.5 122.378 196.355 120.09 196.355Z" fill="#B5DEFF"/>
<path d="M6.78252 269.503C6.78252 269.503 7.50553 270.688 7.59553 271.655C7.66753 272.421 8.31153 273.565 8.59053 274.197C8.86953 274.829 9.76653 277.69 9.79853 278.434C9.81153 278.738 9.13253 280.657 9.22853 281.27C9.32453 281.883 9.67553 283.099 9.12453 283.18C8.57353 283.261 7.94852 282.264 7.94852 282.264C7.94852 282.264 8.00053 282.829 7.53453 283.044C6.62753 283.464 6.14753 283.095 6.14753 283.095C6.14753 283.095 5.81352 283.716 5.39352 283.8C4.46752 283.985 4.01453 283.613 4.01453 283.613C4.01453 283.613 3.60653 283.961 2.96753 283.949C2.14953 283.933 1.80553 283.226 1.80553 283.226C1.80553 283.226 0.769529 283.436 0.469529 282.953C0.169529 282.469 0.220528 281.954 0.0965275 281.516C-0.0284725 281.078 0.0665309 277.121 1.40953 274.274C2.75253 271.427 1.06753 268.648 1.06753 268.648L6.78252 269.503Z" fill="#EEA886"/>
<path d="M8.09452 281.894C8.09452 281.894 8.18652 278.344 7.25252 277.589C6.31852 276.832 6.21152 278.114 6.21152 278.114C6.21152 278.114 6.33852 276.847 5.31752 276.676C4.29652 276.505 4.25352 278.009 4.25352 278.009C4.25352 278.009 4.08652 277.033 3.01452 277.234C1.94252 277.435 2.19752 278.68 2.19752 278.68C2.19752 278.68 1.17352 277.458 0.509523 278.631C-0.612477 280.612 0.468523 282.952 0.468523 282.952C0.468523 282.952 0.784521 283.488 1.80452 283.225C1.80452 283.225 2.48752 284.6 4.01352 283.612C4.01352 283.612 5.57652 284.472 6.14652 283.093C6.14852 283.095 7.87152 283.914 8.09452 281.894Z" fill="#DB9C7C"/>
<path d="M18.8215 218.379C18.8215 218.379 12.7455 238.628 10.6935 246.098C10.0495 248.441 8.49152 270.811 8.21652 271.711C7.94152 272.611 0.235519 273.846 0.235519 273.846C0.235519 273.846 1.16952 245.861 1.25652 244.334C1.34352 242.808 9.75852 211.555 12.2065 210.44C14.0395 209.605 15.0075 210.295 17.3185 212.011C20.5605 214.419 18.8215 218.379 18.8215 218.379Z" fill="#323657"/>
<path d="M92.6543 181.955L91.9782 180.921L78.0689 190.019L78.745 191.053L92.6543 181.955Z" fill="#4DA8F2"/>
<path d="M94.1355 186.145C94.1355 186.145 94.0025 186.931 93.7765 187.248C93.7765 187.248 93.3225 187.79 93.0215 188.195C92.9265 188.324 92.8475 188.439 92.8035 188.518C92.6195 188.849 92.3175 189.631 91.6545 190.303C90.9935 190.975 88.4135 193.112 88.4135 193.112L86.2035 191.236L83.9085 190.207C83.9085 190.207 85.1935 184.623 85.7375 183.925C85.7915 183.857 85.8465 183.792 85.9035 183.735C86.4225 183.189 87.0375 183.001 87.3415 182.746C87.4535 182.653 88.6345 181.802 89.0555 181.912C89.6395 182.063 89.9825 182.406 90.1165 182.797C90.1165 182.797 91.2475 183.145 91.6875 183.808C91.6875 183.808 92.7405 184.095 93.0535 185.076C93.0535 185.075 94.0885 185.487 94.1355 186.145Z" fill="#EFAA88"/>
<path d="M13.8915 356.635C13.8915 356.635 13.3375 360.479 13.2685 361.057C13.1995 361.633 7.10752 360.716 7.10752 360.716L6.61452 356.14C6.61452 356.139 13.1295 356.093 13.8915 356.635Z" fill="#424773"/>
<path d="M13.3335 360.567C13.3335 360.567 15.2635 362.883 17.1295 363.893C18.9965 364.902 21.9295 365.302 23.0335 366.347C23.8305 367.102 25.9355 370.349 18.1825 370.284C10.4305 370.219 6.69152 370.743 5.86152 369.498C5.03152 368.253 7.06352 360.307 7.06352 360.307C7.06352 360.307 8.89952 360.968 13.3335 360.567Z" fill="#292C47"/>
<path d="M57.5375 356.635C57.5375 356.635 56.9835 360.479 56.9145 361.057C56.8455 361.633 50.7535 360.716 50.7535 360.716L50.2605 356.14C50.2605 356.139 56.7765 356.093 57.5375 356.635Z" fill="#424773"/>
<path d="M56.9795 360.567C56.9795 360.567 58.9095 362.883 60.7765 363.893C62.6435 364.902 69.5125 365.732 70.6165 366.777C71.4135 367.532 72.7385 370.568 61.8295 370.284C54.0795 370.082 50.3385 370.743 49.5085 369.498C48.6785 368.253 50.7105 360.307 50.7105 360.307C50.7105 360.307 52.4395 361.012 56.9795 360.567Z" fill="#292C47"/>
<path d="M18.9355 257.86C18.9355 257.86 13.2115 266.954 13.6385 275.173C14.0655 283.394 11.5635 292.368 10.7035 300.955C9.74552 310.528 5.82252 333.191 5.67952 338.312C5.53752 343.433 6.28852 359.785 6.28852 359.785L14.1415 359.964C14.1415 359.964 20.7365 320.344 22.4445 316.301C24.1525 312.259 32.6225 283.437 32.9075 280.202C33.1925 276.97 18.9355 257.86 18.9355 257.86Z" fill="#292C47"/>
<path d="M49.0665 259.093C49.0665 259.093 53.3795 281.623 53.9495 286.654C54.5185 291.686 54.8985 311.002 55.1825 314.146C55.4665 317.29 57.8415 355.2 58.5995 359.965H48.5605C48.5605 359.965 40.8545 332.339 40.8545 319.267C40.8545 306.196 34.9005 290.85 31.0585 282.225C27.2155 273.601 18.4185 273.397 16.0565 257.395C16.0545 257.394 45.8675 254.017 49.0665 259.093Z" fill="#292C47"/>
<path d="M28.4865 181.405C28.4865 181.405 36.1695 178.535 39.7115 184.384C43.2535 190.232 42.9125 201.94 39.0405 203.379C35.1675 204.819 29.3505 204.066 27.3685 200.407C25.3865 196.748 23.5965 191.457 23.6815 187.922C23.7675 184.386 26.4695 182.426 28.4865 181.405Z" fill="#EEA886"/>
<path d="M38.2065 203.647C38.2065 203.647 37.8865 205.72 38.4145 206.743C38.9435 207.764 28.4615 207.791 28.4615 207.791C28.4615 207.791 27.6105 202.234 25.9975 197.537C24.3845 192.842 38.2065 203.647 38.2065 203.647Z" fill="#EEA886"/>
<path d="M25.9975 197.537C25.9975 197.537 26.7205 198.731 29.6735 198.268C32.6265 197.804 36.2295 193.876 37.4625 193.444C38.6955 193.013 38.7075 192.289 38.7075 192.289L39.4795 193.417L40.7895 193.5C40.7895 193.5 39.5955 189.985 41.3965 188.553C43.1985 187.119 39.5265 177.177 30.0565 180.487C30.0565 180.487 22.7825 182.492 23.0465 186.628C23.3105 190.765 24.3695 195.477 25.9975 197.537Z" fill="#D88A51"/>
<path d="M39.0365 206.62C39.0365 206.62 39.0035 204.668 38.1185 204.48C37.2335 204.293 28.3505 203.439 27.2645 203.866V206.14C27.2655 206.14 29.3585 207.428 39.0365 206.62Z" fill="#E2D2CA"/>
<path d="M38.5115 190.785C38.3455 190.091 36.5815 188.108 35.9065 190.231C35.2315 192.354 36.9275 195.21 37.8735 194.964C38.8195 194.72 38.9315 192.544 38.5115 190.785Z" fill="#EEA886"/>
<path d="M53.7295 209.576C47.6395 208.773 39.0375 206.619 39.0375 206.619L27.2655 206.14C27.2655 206.14 16.4615 208.519 12.2065 210.441C11.8025 210.624 11.8015 220.08 10.6935 222.559L14.2215 230.001C14.2215 230.001 16.2595 244.744 16.6825 251.301C16.8765 254.311 12.4795 279.525 12.4795 279.525C12.4795 279.525 17.1905 280.912 25.2255 281.797C33.2595 282.683 53.3335 281.478 53.4605 280.528C53.5875 279.579 49.5735 245.193 49.3955 243.412C49.1225 240.679 50.3375 226.156 50.3375 226.156C52.1925 224.717 68.4805 217.157 72.9225 213.217C74.1115 212.162 79.1305 207.276 80.5585 205.588C85.6105 199.614 89.7515 194.489 90.2555 193.385C90.8275 192.756 84.7665 189.46 84.2165 189.278C83.7355 189.117 76.9055 197.966 74.2775 200.813C73.1055 202.083 68.2335 205.627 68.2335 205.627C68.2335 205.627 57.5395 209.795 53.7295 209.576Z" fill="#323657"/>
<path d="M26.2985 182.095C26.2985 182.095 16.5025 182.862 25.9975 197.537L26.2985 182.095Z" fill="#D88A51"/>
<path d="M92.6525 181.945L93.4555 180.719L91.9765 180.912L92.6525 181.945Z" fill="#DFE1E8"/>
<defs>
<linearGradient id="paint0_linear" x1="338.16" y1="38.5603" x2="415.28" y2="38.5603" gradientUnits="userSpaceOnUse">
<stop stop-color="#FF9F55"/>
<stop offset="1" stop-color="#FFD255"/>
</linearGradient>
<linearGradient id="paint1_linear" x1="386.109" y1="94.0808" x2="421.465" y2="94.0808" gradientUnits="userSpaceOnUse">
<stop stop-color="#FF9F55"/>
<stop offset="1" stop-color="#FFD255"/>
</linearGradient>
<linearGradient id="paint2_linear" x1="92.574" y1="38.5603" x2="368.974" y2="38.5603" gradientUnits="userSpaceOnUse">
<stop stop-color="#FF9F55"/>
<stop offset="1" stop-color="#FFD255"/>
</linearGradient>
</defs>
</svg>
