<svg width="130" height="130" viewBox="0 0 130 130" fill="none" xmlns="http://www.w3.org/2000/svg">
<circle cx="66.5789" cy="66.5789" r="58.4211" fill="#C2EAFC"/>
<circle cx="113.947" cy="11.3158" r="6.31579" fill="#AAE5FF"/>
<circle cx="11.3158" cy="91.8422" r="6.31579" fill="#AAE5FF"/>
<circle r="3.15789" transform="matrix(1 0 0 -1 14.4737 69.7369)" fill="white"/>
<circle r="2.36842" transform="matrix(1 0 0 -1 108.421 40.5263)" fill="white"/>
<circle cx="120.263" cy="101.316" r="3.15789" fill="#FDD1A3"/>
<circle cx="104.474" cy="8.1579" r="1.57895" fill="#AAE5FF"/>
<circle cx="119.474" cy="26.3158" r="2.36842" fill="#E40C57"/>
<circle cx="75.5" cy="58.5" r="28.5" fill="#D8F1FD"/>
<path fill-rule="evenodd" clip-rule="evenodd" d="M98.896 120.706C98.7662 120.603 98.6175 120.527 98.4582 120.481C98.2989 120.436 98.1322 120.423 97.9676 120.442C97.803 120.461 97.6438 120.513 97.499 120.593C97.3542 120.674 97.2267 120.782 97.1237 120.912C97.0208 121.042 96.9443 121.191 96.8989 121.351C96.8534 121.51 96.8397 121.677 96.8587 121.841C96.8776 122.006 96.9288 122.165 97.0093 122.31C97.0897 122.455 97.198 122.582 97.3277 122.685C97.5898 122.893 97.9238 122.987 98.2561 122.949C98.5885 122.91 98.892 122.741 99.1 122.478C99.308 122.216 99.4033 121.882 99.365 121.549C99.3268 121.217 99.1581 120.913 98.896 120.706Z" fill="#BFC7D2"/>
<path d="M22.7247 11.4067L23.3831 11.9287C23.5577 12.0672 23.6701 12.2694 23.6955 12.491C23.7209 12.7125 23.6573 12.9352 23.5186 13.1101C23.38 13.285 23.1776 13.3977 22.9561 13.4235C22.7346 13.4492 22.5121 13.3859 22.3375 13.2475L21.6791 12.7255L21.1563 13.3849C21.0177 13.5598 20.8153 13.6725 20.5938 13.6983C20.3723 13.724 20.1498 13.6607 19.9751 13.5223C19.8005 13.3839 19.6882 13.1816 19.6627 12.9601C19.6373 12.7385 19.7009 12.5158 19.8396 12.3409L20.3624 11.6815L19.704 11.1595C19.5294 11.0211 19.417 10.8189 19.3916 10.5973C19.3662 10.3758 19.4298 10.153 19.5684 9.97816C19.7071 9.80328 19.9094 9.69056 20.131 9.66479C20.3525 9.63902 20.575 9.70232 20.7496 9.84076L21.408 10.3628L21.9308 9.70337C22.0694 9.52849 22.2718 9.41576 22.4933 9.39C22.7148 9.36423 22.9373 9.42753 23.1119 9.56597C23.2865 9.70441 23.3989 9.90665 23.4243 10.1282C23.4498 10.3498 23.3862 10.5725 23.2475 10.7473L22.7247 11.4067Z" fill="#BFC7D2"/>
<path d="M11.7247 25.4067L12.3831 25.9287C12.5577 26.0672 12.6701 26.2694 12.6955 26.491C12.7209 26.7125 12.6573 26.9352 12.5186 27.1101C12.38 27.285 12.1776 27.3977 11.9561 27.4235C11.7346 27.4492 11.5121 27.3859 11.3375 27.2475L10.6791 26.7255L10.1563 27.3849C10.0176 27.5598 9.81531 27.6725 9.5938 27.6983C9.37229 27.724 9.14976 27.6607 8.97515 27.5223C8.80054 27.3839 8.68815 27.1816 8.66273 26.9601C8.63731 26.7385 8.70093 26.5158 8.83958 26.3409C8.83958 26.3409 9.40035 26.008 9.36238 25.6815C9.32447 25.3556 8.70401 25.1595 8.70401 25.1595C8.5294 25.0211 8.41703 24.8189 8.3916 24.5973C8.36618 24.3758 8.42979 24.153 8.56844 23.9782C8.7071 23.8033 8.90944 23.6906 9.13095 23.6648C9.35247 23.639 9.575 23.7023 9.74961 23.8408L10.408 24.3628L10.9308 23.7034C11.0694 23.5285 11.2718 23.4158 11.4933 23.39C11.7148 23.3642 11.9373 23.4275 12.112 23.566C12.2866 23.7044 12.3989 23.9066 12.4243 24.1282C12.4498 24.3498 12.3862 24.5725 12.2475 24.7473L11.7247 25.4067Z" fill="#BFC7D2"/>
<path d="M53.2439 99V30H43.0698C43.0698 30 32.5898 40.48 28 45.1463V99H53.2439Z" fill="#F9F4F3"/>
<rect x="53.2439" y="30" width="25.2439" height="69" fill="#F0E6E1"/>
<path d="M33.2018 56.8503L36.4911 53.561L39.4745 56.6208L47.0477 49.0477L50.2605 52.2605L39.4745 63.0466L33.2018 56.8503Z" fill="#8CD96B"/>
<path d="M33.2018 70.8492L36.4911 67.5599L39.4745 70.6197L47.0477 63.0466L50.2605 66.2594L39.4745 77.0455L33.2018 70.8492Z" fill="#8CD96B"/>
<path d="M33.2018 84.3126L36.4911 81.0233L39.4745 84.0832L47.0477 76.51L50.2605 79.7228L39.4745 90.5089L33.2018 84.3126Z" fill="#8CD96B"/>
<path d="M42.9933 45.1463V30L28 45.1463H42.9933Z" fill="#F0E6E1"/>
<path d="M103.12 94.7162L85.6785 77.1984L88.8913 73.9856L106.333 91.4268L103.12 94.7162Z" fill="#3B4A51"/>
<ellipse cx="76.1164" cy="64.4235" rx="11.857" ry="11.9335" fill="#FFEA80"/>
<path d="M76.1165 76.51C82.6649 76.51 87.9734 71.1672 87.9734 64.5765C87.9734 57.9858 82.6649 52.643 76.1165 52.643V76.51Z" fill="#FFCC66"/>
<path fill-rule="evenodd" clip-rule="evenodd" d="M76.1164 80.6408C85.0307 80.6408 92.2572 73.4143 92.2572 64.5C92.2572 55.5857 85.0307 48.3592 76.1164 48.3592C67.2021 48.3592 59.9756 55.5857 59.9756 64.5C59.9756 73.4143 67.2021 80.6408 76.1164 80.6408ZM76.1164 76.051C82.4958 76.051 87.6674 70.8794 87.6674 64.5C87.6674 58.1206 82.4958 52.949 76.1164 52.949C69.7369 52.949 64.5654 58.1206 64.5654 64.5C64.5654 70.8794 69.7369 76.051 76.1164 76.051Z" fill="#443D66"/>
</svg>
