<svg width="80" height="80" viewBox="0 0 80 80" fill="none" xmlns="http://www.w3.org/2000/svg">
<circle cx="40" cy="40" r="40" fill="#7BB9FF"/>
<circle cx="40" cy="40" r="40" fill="url(#paint0_linear)"/>
<path d="M38.4667 21.6H43.8333V27.7333C43.8333 27.9367 43.9141 28.1317 44.0579 28.2754C44.2017 28.4192 44.3967 28.5 44.6 28.5H50.7333C50.9367 28.5 51.1317 28.4192 51.2755 28.2754C51.4192 28.1317 51.5 27.9367 51.5 27.7333V21.6H56.8667V29.2667H58.4V20.8333C58.4 20.63 58.3192 20.435 58.1755 20.2912C58.0317 20.1474 57.8367 20.0667 57.6333 20.0667H17.7667C17.5633 20.0667 17.3683 20.1474 17.2246 20.2912C17.0808 20.435 17 20.63 17 20.8333V60.7C17 60.9033 17.0808 61.0983 17.2246 61.2421C17.3683 61.3859 17.5633 61.4667 17.7667 61.4667H41.5333V59.9333H38.4667V41.5333H41.5333V40H38.4667V21.6ZM49.9667 26.9667H45.3667V21.6H49.9667V26.9667ZM25.4333 21.6H30.0333V26.9667H25.4333V21.6ZM23.9 21.6V27.7333C23.9 27.9367 23.9808 28.1317 24.1246 28.2754C24.2683 28.4192 24.4633 28.5 24.6667 28.5H30.8C31.0033 28.5 31.1983 28.4192 31.3421 28.2754C31.4859 28.1317 31.5667 27.9367 31.5667 27.7333V21.6H36.9333V40H18.5333V21.6H23.9ZM25.4333 41.5333H30.0333V46.9H25.4333V41.5333ZM36.9333 59.9333H18.5333V41.5333H23.9V47.6667C23.9 47.87 23.9808 48.065 24.1246 48.2088C24.2683 48.3525 24.4633 48.4333 24.6667 48.4333H30.8C31.0033 48.4333 31.1983 48.3525 31.3421 48.2088C31.4859 48.065 31.5667 47.87 31.5667 47.6667V41.5333H36.9333V59.9333Z" fill="white"/>
<path d="M33.8667 36.9333H35.4V38.4667H33.8667V36.9333Z" fill="white"/>
<path d="M30.8 36.9333H32.3334V38.4667H30.8V36.9333Z" fill="white"/>
<path d="M33.8667 56.8667H35.4V58.4H33.8667V56.8667Z" fill="white"/>
<path d="M30.8 56.8667H32.3334V58.4H30.8V56.8667Z" fill="white"/>
<path d="M23.9 17H46.9V18.5333H23.9V17Z" fill="white"/>
<path d="M48.4333 17H49.9667V18.5333H48.4333V17Z" fill="white"/>
<path d="M59.9333 30.8H46.1333C45.3203 30.801 44.5408 31.1243 43.9659 31.6993C43.391 32.2742 43.0676 33.0537 43.0667 33.8667V59.9334C43.0676 60.7464 43.391 61.5259 43.9659 62.1008C44.5408 62.6757 45.3203 62.9991 46.1333 63.0001H59.9333C60.7464 62.9991 61.5259 62.6757 62.1008 62.1008C62.6757 61.5259 62.9991 60.7464 63 59.9334V33.8667C62.9991 33.0537 62.6757 32.2742 62.1008 31.6993C61.5259 31.1243 60.7464 30.801 59.9333 30.8ZM61.4667 59.9334C61.4662 60.3399 61.3045 60.7296 61.017 61.0171C60.7296 61.3045 60.3398 61.4662 59.9333 61.4667H46.1333C45.7268 61.4662 45.3371 61.3045 45.0496 61.0171C44.7622 60.7296 44.6005 60.3399 44.6 59.9334V33.8667C44.6005 33.4602 44.7622 33.0705 45.0496 32.783C45.3371 32.4956 45.7268 32.3339 46.1333 32.3334H59.9333C60.3398 32.3339 60.7296 32.4956 61.017 32.783C61.3045 33.0705 61.4662 33.4602 61.4667 33.8667V59.9334Z" fill="white"/>
<path d="M50.7333 33.8667H52.2667V35.4H50.7333V33.8667Z" fill="white"/>
<path d="M53.8 33.8667H55.3334V35.4H53.8V33.8667Z" fill="white"/>
<path d="M52.2667 58.4H53.8001V59.9334H52.2667V58.4Z" fill="white"/>
<path d="M53.0334 44.2825L51.6468 42.8958L50.5625 43.9801L52.4912 45.9088C52.5624 45.98 52.647 46.0365 52.74 46.075C52.833 46.1136 52.9327 46.1334 53.0334 46.1334C53.1341 46.1334 53.2338 46.1136 53.3268 46.075C53.4198 46.0365 53.5043 45.98 53.5755 45.9088L59.7088 39.7755L58.6246 38.6912L53.0334 44.2825Z" fill="white"/>
<path d="M53.0334 49.2C54.4562 49.1984 55.8203 48.6325 56.8264 47.6264C57.8325 46.6203 58.3985 45.2562 58.4001 43.8333H56.8667C56.8663 44.6766 56.5877 45.4962 56.0741 46.165C55.5605 46.8338 54.8406 47.3145 54.026 47.5325C53.2114 47.7506 52.3476 47.6938 51.5686 47.371C50.7895 47.0482 50.1388 46.4774 49.7172 45.7471C49.2955 45.0168 49.1266 44.1678 49.2366 43.3317C49.3466 42.4956 49.7293 41.7192 50.3255 41.1228C50.9216 40.5264 51.6979 40.1433 52.5339 40.033C53.3699 39.9226 54.219 40.0911 54.9495 40.5124L55.7173 39.1851C55.0044 38.7737 54.2064 38.5318 53.3851 38.4781C52.5638 38.4244 51.7411 38.5603 50.9808 38.8754C50.2204 39.1904 49.5426 39.6761 48.9999 40.2949C48.4573 40.9138 48.0642 41.6491 47.8511 42.4441C47.6381 43.2392 47.6107 44.0725 47.7712 44.8798C47.9317 45.6871 48.2757 46.4466 48.7767 47.0997C49.2776 47.7528 49.9221 48.2818 50.6602 48.646C51.3983 49.0102 52.2103 49.1998 53.0334 49.2V49.2Z" fill="white"/>
<path d="M46.9 51.5H48.4334V53.0333H46.9V51.5Z" fill="white"/>
<path d="M49.9667 51.5H59.1667V53.0333H49.9667V51.5Z" fill="white"/>
<path d="M46.9 54.5667H59.1667V56.1H46.9V54.5667Z" fill="white"/>
<defs>
<linearGradient id="paint0_linear" x1="42" y1="-2.5" x2="40" y2="94.5" gradientUnits="userSpaceOnUse">
<stop stop-color="#0077FD"/>
<stop offset="0.765625" stop-color="#C1DEFF" stop-opacity="0.469017"/>
<stop offset="1" stop-color="white" stop-opacity="0"/>
</linearGradient>
</defs>
</svg>
