<svg width="39" height="42" viewBox="0 0 39 42" fill="none" xmlns="http://www.w3.org/2000/svg">
<path d="M3.82941 11.4545V38.1818H30.6353V42H3.82941C1.72324 42 0 40.2818 0 38.1818V11.4545H3.82941ZM34.4647 3.81818C36.5709 3.81818 38.2941 5.53636 38.2941 7.63636V30.5455C38.2941 32.6455 36.5709 34.3636 34.4647 34.3636H11.4882C9.38206 34.3636 7.65882 32.6455 7.65882 30.5455V7.63636C7.65882 5.53636 9.38206 3.81818 11.4882 3.81818H17.577C18.3812 1.60364 20.4874 0 22.9765 0C25.4656 0 27.5718 1.60364 28.3759 3.81818H34.4647ZM22.9765 3.81818C21.9234 3.81818 21.0618 4.67727 21.0618 5.72727C21.0618 6.77727 21.9234 7.63636 22.9765 7.63636C24.0296 7.63636 24.8912 6.77727 24.8912 5.72727C24.8912 4.67727 24.0296 3.81818 22.9765 3.81818ZM15.3176 11.4545V7.63636H11.4882V30.5455H34.4647V7.63636H30.6353V11.4545H15.3176ZM24.8912 26.7273H15.3176V22.9091H24.8912V26.7273ZM30.6353 19.0909H15.3176V15.2727H30.6353V19.0909Z" fill="black"/>
<path d="M13.0787 1.83529C13.3601 1.83529 13.5882 1.68122 13.5882 1.49118V0.344118C13.5882 0.154079 13.3601 0 13.0787 0H0.509559C0.228155 0 0 0.154079 0 0.344118V1.62733C0 1.81737 0.228155 1.97145 0.509559 1.97145H4.13082C5.29041 1.97145 6.18014 2.25701 6.71981 2.75294H0.509559C0.228155 2.75294 0 2.90702 0 3.09706V4.24412C0 4.43416 0.228155 4.58824 0.509559 4.58824H7.25089C6.9869 5.62305 5.85126 6.26959 4.07647 6.26959H0.509559C0.228155 6.26959 0 6.42367 0 6.61371V8.13391C0 8.22995 0.0594485 8.32162 0.163951 8.38678L7.17259 12.7558C7.26672 12.8145 7.39011 12.8471 7.5182 12.8471H11.0241C11.4879 12.8471 11.7105 12.4626 11.3697 12.2501L4.96272 8.25613C8.21112 8.18902 10.5315 6.72495 10.8362 4.58824H13.0787C13.3601 4.58824 13.5882 4.43416 13.5882 4.24412V3.09706C13.5882 2.90702 13.3601 2.75294 13.0787 2.75294H10.5865C10.4385 2.42199 10.2349 2.115 9.98132 1.83529H13.0787Z" fill="#FFAC2C"/>
</svg>
