<svg width="80" height="80" viewBox="0 0 80 80" fill="none" xmlns="http://www.w3.org/2000/svg">
<circle cx="40" cy="40" r="40" fill="#7BB9FF"/>
<circle cx="40" cy="40" r="40" fill="url(#paint0_linear_606_16)"/>
<path d="M56.9344 28.3115L56.7621 60.0163C56.7531 61.6668 55.4126 63 53.7622 63H26C24.3431 63 23 61.6569 23 60V20C23 18.3431 24.3431 17 26 17H46.5656M56.9344 28.3115H49.0164C47.6967 28.3115 46.7164 27.7082 46.5656 26.0492C46.4148 24.3902 46.5027 19.3251 46.5656 17M56.9344 28.3115L46.5656 17" stroke="white" stroke-width="2"/>
<path d="M28.3759 35.4754V31.7071H29.1749V35.4754H28.3759Z" fill="white"/>
<path d="M33.4664 35.4754H32.4509L30.8116 32.6247H30.7884C30.821 33.1282 30.8374 33.4873 30.8374 33.7021V35.4754H30.1234V31.7071H31.1312L32.7679 34.5295H32.7859C32.7602 34.0398 32.7473 33.6935 32.7473 33.4908V31.7071H33.4664V35.4754Z" fill="white"/>
<path d="M36.5671 31.7071H37.3739L36.0928 35.4754H35.2217L33.9432 31.7071H34.75L35.4588 33.9496C35.4983 34.0819 35.5387 34.2365 35.5799 34.4135C35.6229 34.5888 35.6495 34.7108 35.6598 34.7795C35.6787 34.6214 35.7432 34.3448 35.8531 33.9496L36.5671 31.7071Z" fill="white"/>
<path d="M41.271 33.5861C41.271 34.2099 41.1164 34.6893 40.8071 35.0244C40.4978 35.3594 40.0544 35.527 39.4771 35.527C38.8997 35.527 38.4564 35.3594 38.1471 35.0244C37.8378 34.6893 37.6832 34.2082 37.6832 33.581C37.6832 32.9538 37.8378 32.4752 38.1471 32.1453C38.4581 31.8137 38.9032 31.6479 39.4822 31.6479C40.0613 31.6479 40.5038 31.8145 40.8096 32.1479C41.1172 32.4812 41.271 32.9607 41.271 33.5861ZM38.5208 33.5861C38.5208 34.0071 38.6007 34.3241 38.7605 34.5372C38.9203 34.7503 39.1592 34.8568 39.4771 34.8568C40.1146 34.8568 40.4333 34.4333 40.4333 33.5861C40.4333 32.7373 40.1163 32.3128 39.4822 32.3128C39.1643 32.3128 38.9246 32.4202 38.7631 32.635C38.6016 32.8481 38.5208 33.1651 38.5208 33.5861Z" fill="white"/>
<path d="M42.052 35.4754V31.7071H42.851V35.4754H42.052Z" fill="white"/>
<path d="M45.4001 32.318C45.0994 32.318 44.8666 32.4314 44.7016 32.6582C44.5367 32.8833 44.4542 33.1978 44.4542 33.6016C44.4542 34.4419 44.7695 34.862 45.4001 34.862C45.6648 34.862 45.9852 34.7958 46.3615 34.6635V35.3337C46.0522 35.4625 45.7069 35.527 45.3254 35.527C44.7772 35.527 44.358 35.3612 44.0676 35.0295C43.7772 34.6962 43.632 34.2185 43.632 33.5964C43.632 33.2047 43.7033 32.8619 43.8459 32.568C43.9885 32.2725 44.193 32.0465 44.4594 31.8901C44.7274 31.7321 45.041 31.653 45.4001 31.653C45.7661 31.653 46.1339 31.7415 46.5033 31.9185L46.2456 32.568C46.1047 32.501 45.9629 32.4426 45.8203 32.3928C45.6776 32.3429 45.5376 32.318 45.4001 32.318Z" fill="white"/>
<path d="M49.336 35.4754H47.1657V31.7071H49.336V32.3618H47.9647V33.1892H49.2406V33.8439H47.9647V34.8156H49.336V35.4754Z" fill="white"/>
<path d="M27.9017 39.2459H40.1558H52.4099" stroke="white" stroke-width="2"/>
<path d="M27.9017 43.0164H40.1558H52.4099" stroke="white" stroke-width="2"/>
<path d="M27.9017 46.7869H40.1558H52.4099" stroke="white" stroke-width="2"/>
<path d="M28 52H31H34" stroke="white" stroke-width="2"/>
<path d="M28 57H31H34" stroke="white" stroke-width="2"/>
<path d="M52.8125 53C52.916 53 53 52.916 53 52.8125V52.1875C53 52.084 52.916 52 52.8125 52H48.1875C48.084 52 48 52.084 48 52.1875V52.8867C48 52.9902 48.084 53.0742 48.1875 53.0742H49.52C49.9467 53.0742 50.2741 53.2298 50.4727 53.5H48.1875C48.084 53.5 48 53.584 48 53.6875V54.3125C48 54.416 48.084 54.5 48.1875 54.5H50.6681C50.5709 55.0638 50.1531 55.4161 49.5 55.4161H48.1875C48.084 55.4161 48 55.5001 48 55.6036V56.4319C48 56.4843 48.0219 56.5342 48.0603 56.5697L50.6393 58.9503C50.6739 58.9822 50.7193 59 50.7664 59H52.0565C52.2272 59 52.3091 58.7905 52.1836 58.6747L49.8261 56.4985C51.0214 56.462 51.8752 55.6642 51.9873 54.5H52.8125C52.916 54.5 53 54.416 53 54.3125V53.6875C53 53.584 52.916 53.5 52.8125 53.5H51.8955C51.841 53.3197 51.7661 53.1524 51.6728 53H52.8125Z" fill="white"/>
<path d="M44.8288 57.1703C44.8288 56.9117 44.7666 56.7066 44.6424 56.5552C44.5208 56.4006 44.3127 56.2587 44.0182 56.1293C43.7237 56 43.4698 55.8722 43.2563 55.7461C43.0429 55.6167 42.8592 55.47 42.7052 55.306C42.5539 55.1388 42.435 54.9432 42.3485 54.7192C42.2648 54.4953 42.2229 54.2287 42.2229 53.9196C42.2229 53.3864 42.3688 52.9495 42.6606 52.6088C42.9524 52.2681 43.3401 52.0694 43.8237 52.0126V51H44.4721V52.0268C44.9504 52.1057 45.3246 52.3391 45.5947 52.7271C45.8649 53.112 46 53.612 46 54.2271H44.8288C44.8288 53.8486 44.7612 53.5662 44.6261 53.3801C44.4938 53.1909 44.3154 53.0962 44.0912 53.0962C43.8696 53.0962 43.6981 53.1703 43.5765 53.3186C43.4549 53.4637 43.3941 53.6656 43.3941 53.9243C43.3941 54.164 43.4536 54.3565 43.5724 54.5016C43.6913 54.6467 43.9115 54.795 44.233 54.9464C44.5572 55.0978 44.8234 55.2413 45.0314 55.377C45.2394 55.5095 45.4151 55.6609 45.5583 55.8312C45.7015 55.9984 45.8109 56.1909 45.8865 56.4085C45.9622 56.623 46 56.8738 46 57.1609C46 57.6972 45.8568 58.1325 45.5704 58.4669C45.284 58.8013 44.8896 58.9984 44.387 59.0584V60H43.7427V59.0631C43.1888 58.9937 42.7592 58.765 42.4539 58.377C42.1513 57.9858 42 57.4669 42 56.8202H43.1712C43.1712 57.1956 43.2469 57.4842 43.3982 57.6861C43.5522 57.8849 43.7724 57.9842 44.0588 57.9842C44.2965 57.9842 44.4843 57.9117 44.6221 57.7666C44.7599 57.6183 44.8288 57.4196 44.8288 57.1703Z" fill="white"/>
<path d="M38.7514 56.2664L38.774 56.9261C38.774 57.3153 38.6962 57.6253 38.5405 57.8563H41V59H37.0113V57.8563H37.3578C37.5386 57.7993 37.629 57.5162 37.629 57.0068L37.6102 56.2664H37V55.1464H37.58L37.5537 54.0692C37.5537 53.4301 37.7081 52.9254 38.0169 52.5553C38.3283 52.1851 38.7439 52 39.2637 52C39.796 52 40.2141 52.1788 40.5179 52.5363C40.8217 52.8906 40.9736 53.3715 40.9736 53.979H39.8927C39.8927 53.7101 39.8374 53.5044 39.7269 53.362C39.619 53.2197 39.4633 53.1485 39.2599 53.1485C39.0942 53.1485 38.9561 53.226 38.8456 53.381C38.7376 53.536 38.6836 53.7654 38.6836 54.0692L38.7175 55.1464H39.8814V56.2664H38.7514Z" fill="white"/>
<defs>
<linearGradient id="paint0_linear_606_16" x1="42" y1="-2.5" x2="40" y2="94.5" gradientUnits="userSpaceOnUse">
<stop stop-color="#0077FD"/>
<stop offset="0.765625" stop-color="#C1DEFF" stop-opacity="0.469017"/>
<stop offset="1" stop-color="white" stop-opacity="0"/>
</linearGradient>
</defs>
</svg>
