<svg width="323" height="308" viewBox="0 0 323 308" fill="none" xmlns="http://www.w3.org/2000/svg">
<path d="M317.809 139.393C310.555 91.8959 280.803 33.5453 222.025 27.4346C222.025 27.4346 177.402 22.0077 133.409 30.2336C107.3 35.1157 84.4063 49.6553 69.9201 70.5406C55.434 91.4258 50.5946 116.905 56.4702 141.187C60.2841 156.955 62.8587 173.279 62.1536 189.496C60.925 217.699 61.6301 244.033 89.0107 260.858C113.453 275.879 144.21 289.126 173.567 291.444C193.512 293.025 215.871 290.472 235.101 285.28C333.043 258.807 325.062 186.889 317.809 139.393Z" fill="#F4F7FA"/>
<path d="M183.876 240.838C175.554 243.146 169.069 233.553 174.314 226.694C175.938 224.568 177.487 222.271 178.908 219.793C189.474 201.418 184.015 189.346 193.533 156.079C199.548 135.045 203.971 120.42 216.673 115.27C226.629 111.232 240.496 113.476 247.247 121.338C252.856 127.866 254.202 139.04 253.55 146.593C253.016 152.757 251.125 156.838 253.732 160.823C256.392 164.893 260.612 164.06 263.261 167.254C268.635 173.728 260.74 188.566 259.469 190.959C245.282 217.635 214.151 230.081 200.499 235.347C195.905 237.131 190.339 239.054 183.876 240.838Z" fill="url(#paint0_linear_1_461)"/>
<g opacity="0.5">
<path d="M140.845 250.133L140.759 249.417C154.102 247.921 165.971 245.101 176.045 241.041C190.894 235.048 201.375 226.502 207.207 215.616C211.769 207.091 213.404 197.465 215.668 184.133C217.474 173.493 217.794 165.79 218.072 158.985C218.446 150.097 218.734 143.068 222.206 133.656C225.732 124.105 231.469 115.196 239.267 107.151L239.791 107.653C232.067 115.623 226.383 124.447 222.89 133.901C219.45 143.206 219.162 150.182 218.798 159.007C218.51 165.822 218.19 173.557 216.384 184.24C214.194 197.134 212.474 207.315 207.848 215.947C201.941 226.983 191.332 235.646 176.323 241.693C166.185 245.795 154.252 248.637 140.845 250.133Z" fill="white"/>
<path d="M217.271 176.794L216.95 176.537C216.886 176.484 210.733 171.623 205.626 162.703C200.915 154.466 196.151 140.974 200.21 123.496L200.915 123.656C196.909 140.91 201.61 154.21 206.257 162.34C210.626 169.989 215.765 174.604 217.079 175.704C227.623 158.334 240.773 149.125 249.982 144.446C260.035 139.339 267.705 138.388 267.78 138.378L267.866 139.093C267.791 139.104 260.227 140.044 250.281 145.108C241.105 149.776 227.965 158.996 217.485 176.441L217.271 176.794Z" fill="white"/>
<path d="M211.523 205.392L211.438 205.146C211.395 205.029 207.111 193.288 200.509 182.349C193.95 171.484 174.165 163.205 173.962 163.12L174.24 162.446C174.443 162.532 194.452 170.897 201.129 181.964C207.239 192.07 211.374 202.871 212.025 204.634C235.293 203.523 271.263 158.996 271.626 158.537L272.192 158.985C272.096 159.103 262.93 170.491 250.976 181.836C234.887 197.102 221.704 205.018 211.79 205.36L211.523 205.392Z" fill="white"/>
<path d="M194.196 240.785C186.141 240.785 180.981 240.112 180.906 240.101L180.19 240.005L180.692 239.492C188.662 231.341 190.435 221.086 185.98 209.003C182.647 199.965 176.868 193.256 176.814 193.192L177.359 192.722C177.423 192.786 183.277 199.591 186.653 208.757C191.055 220.69 189.345 231.288 181.707 239.471C184.324 239.749 193.886 240.603 206.374 239.556C219.888 238.424 239.716 234.76 257.364 223.778L291.667 202.444L292.052 203.053L257.749 224.387C239.972 235.443 220.027 239.129 206.417 240.272C201.909 240.646 197.764 240.785 194.196 240.785Z" fill="white"/>
</g>
<path d="M166.986 241.693C178.545 248.466 194.228 255.442 212.09 257.194C216.651 257.643 244.801 260.42 248.038 248.733C249.17 244.61 246.254 242.174 247.685 236.651C249.373 230.091 254.544 229.322 261.071 223.692C264.96 220.338 276.348 210.52 272.908 199.463C270.857 192.85 263.592 186.109 256.371 183.919C245.773 180.714 237.312 187.958 223.221 200.457C210.722 211.535 209.964 215.584 200.819 223.404C194.025 229.194 183.384 236.437 166.986 241.693Z" fill="url(#paint1_linear_1_461)"/>
<g opacity="0.5">
<path d="M172.926 241.843C165.704 241.843 158.621 240.828 151.709 238.787C138.313 234.845 126.027 227.367 115.195 216.588L115.707 216.075C126.444 226.769 138.633 234.183 151.912 238.093C169.603 243.306 188.448 241.768 207.913 233.531C228.189 224.953 244.064 211.236 253.817 201.258C260.558 194.346 265.334 185.148 268.004 173.909L268.71 174.08C266.007 185.447 261.167 194.763 254.341 201.76C244.545 211.791 228.595 225.572 208.201 234.204C196.161 239.289 184.367 241.843 172.926 241.843Z" fill="white"/>
<path d="M232.462 220.231L232.409 219.91C232.366 219.675 228.83 196.087 243.818 180.971L244.331 181.484C230.561 195.382 232.718 216.609 233.082 219.472C266.808 217.635 277.074 199.26 279.425 193.652C279.489 193.491 279.531 193.395 279.553 193.363L280.172 193.726L279.863 193.545L280.183 193.726C280.162 193.758 280.14 193.833 280.098 193.929C277.694 199.645 267.203 218.447 232.793 220.21L232.462 220.231Z" fill="white"/>
<path d="M241.767 247.398C241.724 247.398 241.692 247.398 241.649 247.398C234.064 247.376 222.1 245.037 208.169 234.012L208.019 233.894L208.03 233.702C208.041 233.521 209.622 215.445 222.26 196.91L234.983 178.247L235.582 178.653L222.858 197.316C211.043 214.665 208.981 231.587 208.778 233.563C216.384 239.556 228.221 246.629 241.66 246.671C241.703 246.671 241.735 246.671 241.778 246.671C249.769 246.671 254.587 244.139 254.629 244.107L254.971 244.748C254.768 244.855 249.939 247.398 241.767 247.398Z" fill="white"/>
</g>
<path d="M254.928 90.849C256.157 91.4686 257.695 90.9024 258.368 89.567C259.041 88.2423 258.593 86.6612 257.364 86.0309C257.3 85.9989 257.236 85.9668 257.172 85.9455C257.396 85.2084 257.567 84.4712 257.685 83.7341C257.759 83.7341 257.824 83.7341 257.898 83.7234C259.298 83.5952 260.409 82.3133 260.377 80.8497C260.345 79.3861 259.191 78.3071 257.792 78.4353C257.717 78.446 257.642 78.4567 257.578 78.4674C257.428 77.7409 257.236 77.0358 256.98 76.3521C257.044 76.3094 257.108 76.2774 257.172 76.2346C258.368 75.4014 258.753 73.7455 258.027 72.5383C257.3 71.3311 255.74 71.0427 254.544 71.876C254.48 71.9187 254.426 71.9614 254.373 72.0148C253.903 71.4914 253.379 71.0106 252.824 70.5619C252.867 70.4978 252.899 70.4338 252.941 70.359C253.614 69.0343 254.501 67.5814 253.262 66.9831C250.399 65.5837 249.181 66.7802 248.508 68.1049C248.476 68.169 248.444 68.2437 248.412 68.3185C247.728 68.1262 247.023 67.998 246.329 67.9232C246.329 67.8485 246.339 67.7737 246.339 67.6989C246.307 66.2353 246.745 65.4448 245.335 65.4234C242.269 65.3593 241.244 66.6947 241.265 68.1583C241.265 68.233 241.276 68.3078 241.276 68.3826C240.571 68.5856 239.887 68.842 239.214 69.1518C239.182 69.0877 239.15 69.0236 239.107 68.9595C238.381 67.7523 236.821 67.4639 235.624 68.2971C234.428 69.1304 234.043 70.7863 234.77 71.9935C234.802 72.0576 234.844 72.111 234.887 72.1644C234.353 72.6985 233.862 73.2648 233.402 73.8844C233.338 73.8523 233.285 73.8096 233.221 73.7775C231.992 73.1579 230.454 73.7241 229.781 75.0488C229.108 76.3735 229.556 77.9546 230.785 78.5849C230.849 78.6169 230.913 78.649 230.977 78.6703C230.753 79.4075 230.582 80.1446 230.464 80.8817C230.39 80.8817 230.326 80.8817 230.251 80.8924C228.851 81.0206 227.74 82.3026 227.772 83.7661C227.804 85.2297 228.958 86.3087 230.358 86.1805C230.432 86.1698 230.507 86.1591 230.571 86.1484C230.721 86.8749 230.913 87.58 231.169 88.2637C231.105 88.3064 231.041 88.3385 230.977 88.3812C229.781 89.2145 229.396 90.8703 230.123 92.0775C230.849 93.2847 233.242 93.8402 234.438 92.9963C234.503 92.9535 233.712 92.6437 233.776 92.601C234.246 93.1245 234.77 93.6052 235.325 94.0539C235.282 94.118 235.25 94.1821 235.208 94.2569C234.535 95.5815 234.983 97.1626 236.212 97.7822C237.44 98.4019 238.979 97.8357 239.652 96.511C239.684 96.4469 239.716 96.3721 239.748 96.2973C240.432 96.4896 241.137 96.6178 241.831 96.6926C241.831 96.7674 241.82 96.8421 241.82 96.9169C241.852 98.3805 243.006 99.4595 244.406 99.3313C245.805 99.2031 246.916 97.9211 246.884 96.4576C246.884 96.3828 246.874 96.308 246.874 96.2332C247.579 96.0302 248.262 95.7738 248.935 95.464C248.967 95.5281 248.999 95.5922 249.042 95.6563C249.769 96.8635 251.328 97.152 252.525 96.3187C253.721 95.4854 254.106 93.8295 253.379 92.6224C253.347 92.5583 253.305 92.5048 253.262 92.4514C253.796 91.9173 254.288 91.3511 254.747 90.7315C254.8 90.7849 254.864 90.8169 254.928 90.849ZM239.641 91.0413C235.186 88.7765 233.562 83.0397 236.009 78.2217C238.455 73.4036 244.053 71.3311 248.497 73.5852C252.952 75.85 254.576 81.5868 252.13 86.4048C249.683 91.2229 244.096 93.3061 239.641 91.0413Z" fill="url(#paint2_linear_1_461)"/>
<path d="M257.898 83.7341C259.298 83.6059 260.409 82.3239 260.377 80.8603C260.345 79.3968 259.191 78.3178 257.792 78.446C257.717 78.4567 257.642 78.4674 257.578 78.478C257.428 77.7516 257.236 77.0465 256.98 76.3628C257.044 76.3201 257.108 76.288 257.172 76.2453C258.368 75.412 259.853 73.3823 259.009 72.2605C257.407 70.1346 255.751 71.0534 254.555 71.8866C254.49 71.9294 254.437 71.9721 254.384 72.0255C253.914 71.502 253.39 71.0213 252.835 70.5726C252.877 70.5085 252.909 70.4444 252.952 70.3696C253.315 69.6432 253.347 68.8527 253.112 68.1689C251.959 70.1987 250.816 72.2498 249.694 74.301C253.241 76.9076 254.373 82.0355 252.151 86.4048C250.271 90.1118 246.532 92.195 242.878 91.928C242.718 92.3553 242.558 92.7719 242.376 93.1885C241.906 94.3209 241.361 95.432 240.827 96.543C241.169 96.6071 241.511 96.6605 241.842 96.6926C241.842 96.7674 241.831 96.8421 241.831 96.9169C241.863 98.3805 242.75 99.6197 245.282 99.4808C246.681 99.4061 246.927 97.9211 246.895 96.4575C246.895 96.3828 246.884 96.308 246.884 96.2332C247.589 96.0302 248.273 95.7738 248.946 95.464C248.978 95.5281 249.01 95.5922 249.053 95.6563C249.779 96.8635 252.29 97.3656 253.486 96.5323C254.683 95.6991 254.106 93.8188 253.379 92.6224C253.347 92.5583 253.305 92.5048 253.262 92.4514C253.796 91.9173 254.287 91.3511 254.747 90.7315C254.811 90.7635 254.864 90.8062 254.928 90.8383C256.157 91.4579 257.695 90.8917 258.368 89.5563C259.041 88.2316 258.593 86.6505 257.364 86.0309C257.3 85.9989 257.236 85.9668 257.172 85.9455C257.396 85.2083 257.567 84.4712 257.685 83.7341C257.759 83.7448 257.824 83.7341 257.898 83.7341Z" fill="url(#paint3_linear_1_461)"/>
<path d="M256.243 90.9985C257.471 91.6181 259.009 91.0519 259.682 89.7166C260.355 88.3919 259.907 86.8108 258.678 86.1912C258.614 86.1591 258.55 86.1271 258.486 86.1057C258.71 85.3686 258.881 84.6315 258.999 83.8943C259.074 83.8943 259.138 83.8943 259.212 83.8837C260.612 83.7555 261.723 82.4735 261.691 81.0099C261.659 79.5463 260.505 78.4674 259.106 78.5956C259.031 78.6062 258.956 78.6169 258.892 78.6276C258.742 77.9012 258.55 77.1961 258.294 76.5124C258.358 76.4696 258.422 76.4376 258.486 76.3949C259.682 75.5616 260.067 73.9057 259.341 72.6985C258.614 71.4914 257.054 71.2029 255.858 72.0362C255.794 72.0789 255.74 72.1217 255.687 72.1751C255.217 71.6516 254.693 71.1709 254.138 70.7222C254.181 70.6581 254.213 70.594 254.255 70.5192C254.928 69.1945 254.48 67.6134 253.251 66.9938C252.023 66.3742 250.484 66.9404 249.811 68.2651C249.779 68.3292 249.747 68.404 249.715 68.4788C249.031 68.2865 248.326 68.1583 247.632 68.0835C247.632 68.0087 247.643 67.9339 247.643 67.8591C247.611 66.3956 246.457 65.3166 245.057 65.4448C243.658 65.573 242.547 66.8549 242.579 68.3185C242.579 68.3933 242.59 68.4681 242.59 68.5429C241.885 68.7458 241.201 69.0022 240.528 69.312C240.496 69.2479 240.464 69.1838 240.421 69.1197C239.695 67.9126 238.135 67.6241 236.938 68.4574C235.742 69.2907 235.357 70.9465 236.084 72.1537C236.116 72.2178 236.158 72.2712 236.201 72.3246C235.667 72.8588 235.176 73.425 234.716 74.0446C234.652 74.0126 234.599 73.9698 234.535 73.9378C233.306 73.3182 231.768 73.8844 231.095 75.2197C230.422 76.5444 230.87 78.1255 232.099 78.7558C232.163 78.7879 232.227 78.8199 232.291 78.8413C232.067 79.5784 231.896 80.3155 231.778 81.0527C231.704 81.0527 231.64 81.0527 231.565 81.0633C230.165 81.1915 229.054 82.4735 229.086 83.9371C229.118 85.4006 230.272 86.4796 231.672 86.3514C231.746 86.3407 231.821 86.3301 231.885 86.3194C232.035 87.0458 232.227 87.7509 232.484 88.4346C232.419 88.4773 232.355 88.5094 232.291 88.5521C231.095 89.3854 230.71 91.0413 231.437 92.2485C232.163 93.4556 233.723 93.7441 234.919 92.9108C234.983 92.8681 235.037 92.8253 235.09 92.7719C235.56 93.2954 236.084 93.7761 236.639 94.2248C236.596 94.2889 236.564 94.353 236.522 94.4278C235.849 95.7525 236.297 97.3336 237.526 97.9639C238.754 98.5835 240.293 98.0173 240.966 96.6819C240.998 96.6178 241.03 96.543 241.062 96.4682C241.746 96.6605 242.451 96.7887 243.145 96.8635C243.145 96.9383 243.134 97.0131 243.134 97.0878C243.167 98.5514 244.32 99.6304 245.72 99.5022C247.119 99.374 248.23 98.0921 248.198 96.6285C248.198 96.5537 248.188 96.4789 248.188 96.4041C248.893 96.2012 249.576 95.9448 250.249 95.635C250.281 95.6991 250.313 95.7632 250.356 95.8273C251.083 97.0344 252.642 97.3229 253.839 96.4896C255.035 95.6563 255.42 94.0005 254.693 92.7933C254.661 92.7292 254.619 92.6758 254.576 92.6224C255.11 92.0882 255.602 91.522 256.061 90.9024C256.114 90.9344 256.178 90.9665 256.243 90.9985ZM240.955 91.1908C236.5 88.926 234.876 83.1893 237.323 78.3712C239.769 73.5532 245.367 71.4807 249.811 73.7348C254.266 75.9996 255.89 81.7364 253.444 86.5544C250.997 91.3724 245.41 93.4556 240.955 91.1908Z" fill="url(#paint4_linear_1_461)"/>
<path d="M222.132 65.7973C224.535 67.0152 227.548 65.8935 228.873 63.2975C230.197 60.7015 229.321 57.6035 226.918 56.3856C226.789 56.3215 226.661 56.2681 226.544 56.2147C226.992 54.7725 227.324 53.3303 227.548 51.8774C227.687 51.8774 227.826 51.8774 227.965 51.8667C230.699 51.621 232.879 49.0998 232.825 46.2474C232.772 43.3844 230.496 41.2585 227.762 41.5042C227.623 41.5148 227.473 41.5362 227.334 41.5683C227.046 40.1474 226.661 38.7693 226.159 37.4233C226.287 37.3485 226.415 37.2737 226.533 37.1882C228.873 35.543 229.631 32.3061 228.21 29.9451C226.789 27.5842 223.734 27.0073 221.395 28.6525C221.277 28.738 221.159 28.8234 221.053 28.9196C220.123 27.894 219.108 26.9432 218.008 26.0779C218.083 25.9497 218.158 25.8215 218.232 25.6933C219.557 23.0973 221.277 20.2557 218.863 19.0698C213.265 16.335 210.861 18.6746 209.536 21.2812C209.472 21.4201 209.408 21.5483 209.355 21.6872C208.009 21.3133 206.641 21.0462 205.274 20.9073C205.285 20.7578 205.285 20.6189 205.285 20.4693C205.231 17.6063 206.075 16.0572 203.33 16.0038C197.336 15.8863 195.307 18.493 195.371 21.356C195.371 21.5056 195.381 21.6551 195.403 21.794C194.025 22.1893 192.679 22.6914 191.365 23.2896C191.3 23.1614 191.236 23.0332 191.162 22.9157C189.741 20.5548 186.685 19.9779 184.346 21.6231C182.006 23.2683 181.248 26.5052 182.669 28.8662C182.743 28.9837 182.818 29.1012 182.904 29.208C181.867 30.2443 180.895 31.3767 179.998 32.5839C179.88 32.5091 179.763 32.445 179.635 32.3809C177.231 31.163 174.218 32.2847 172.894 34.8807C171.569 37.4767 172.445 40.5747 174.849 41.7926C174.977 41.8567 175.105 41.9101 175.223 41.9635C174.774 43.4057 174.443 44.8479 174.218 46.3008C174.079 46.3008 173.941 46.3008 173.802 46.3115C171.067 46.5572 168.888 49.0784 168.941 51.9308C168.994 54.7938 171.27 56.9197 174.005 56.674C174.144 56.6633 174.293 56.642 174.432 56.6099C174.72 58.0308 175.116 59.4089 175.607 60.7549C175.479 60.8297 175.351 60.9045 175.233 60.99C172.894 62.6352 172.135 65.8721 173.556 68.233C174.977 70.594 179.677 71.6837 182.017 70.0385C182.134 69.953 180.596 69.3441 180.714 69.2586C181.643 70.2842 182.658 71.235 183.758 72.1003C183.683 72.2285 183.609 72.3567 183.534 72.4849C182.209 75.0808 183.085 78.1789 185.489 79.3968C187.893 80.6146 190.905 79.4929 192.23 76.897C192.294 76.7581 192.358 76.6299 192.411 76.491C193.758 76.8649 195.125 77.132 196.492 77.2709C196.482 77.4204 196.482 77.5593 196.482 77.7089C196.535 80.5719 198.811 82.6978 201.545 82.4521C204.28 82.2064 206.46 79.6852 206.406 76.8329C206.406 76.6833 206.396 76.5337 206.374 76.3949C207.752 75.9996 209.098 75.4975 210.412 74.8992C210.476 75.0274 210.541 75.1556 210.615 75.2731C212.036 77.6341 215.092 78.211 217.431 76.5658C219.771 74.9206 220.529 71.6837 219.108 69.3227C219.034 69.2052 218.959 69.0877 218.873 68.9809C219.91 67.9446 220.882 66.8122 221.779 65.605C221.886 65.6691 222.003 65.7332 222.132 65.7973ZM192.187 66.1819C183.47 61.7591 180.286 50.5099 185.083 41.0662C189.88 31.6224 200.83 27.5628 209.547 31.9856C218.264 36.4084 221.448 47.6576 216.651 57.1014C211.865 66.5451 200.904 70.6047 192.187 66.1819Z" fill="url(#paint5_linear_1_461)"/>
<path d="M227.954 51.856C230.689 51.6103 232.868 49.0891 232.815 46.2367C232.761 43.3737 230.486 41.2478 227.751 41.4935C227.612 41.5042 227.462 41.5255 227.324 41.5576C227.035 40.1367 226.651 38.7586 226.148 37.4126C226.277 37.3378 226.405 37.263 226.522 37.1775C228.862 35.5324 231.768 31.569 230.112 29.3683C226.971 25.1912 223.723 27.0073 221.384 28.6418C221.266 28.7273 221.149 28.8128 221.042 28.9089C220.113 27.8833 219.098 26.9325 217.997 26.0672C218.072 25.939 218.147 25.8108 218.222 25.6826C218.937 24.2725 219.002 22.7021 218.531 21.3774C216.267 25.3621 214.034 29.3683 211.844 33.3851C218.799 38.4809 221.01 48.5229 216.662 57.0907C212.976 64.3444 205.648 68.4253 198.501 67.9126C198.18 68.7352 197.871 69.5684 197.529 70.391C196.599 72.6131 195.552 74.7924 194.495 76.9718C195.157 77.0999 195.819 77.1961 196.492 77.2602C196.482 77.4097 196.482 77.5486 196.482 77.6982C196.535 80.5612 198.276 82.9863 203.244 82.7299C205.99 82.5803 206.46 79.6746 206.406 76.8115C206.406 76.6619 206.396 76.5124 206.374 76.3735C207.752 75.9782 209.098 75.4761 210.412 74.8779C210.476 75.0061 210.541 75.1343 210.615 75.2518C212.036 77.6127 216.961 78.6063 219.301 76.9718C221.64 75.3266 220.519 71.6623 219.098 69.312C219.023 69.1945 218.948 69.077 218.863 68.9702C219.899 67.9339 220.871 66.8015 221.768 65.5943C221.886 65.6691 222.003 65.7332 222.132 65.7973C224.535 67.0152 227.548 65.8935 228.873 63.2975C230.197 60.7015 229.321 57.6035 226.918 56.3856C226.789 56.3215 226.661 56.2681 226.544 56.2147C226.992 54.7725 227.324 53.3303 227.548 51.8774C227.676 51.8774 227.815 51.8774 227.954 51.856Z" fill="url(#paint6_linear_1_461)"/>
<path d="M224.706 66.0965C227.11 67.3143 230.123 66.1926 231.447 63.5966C232.772 61.0007 231.896 57.9026 229.492 56.6847C229.364 56.6206 229.236 56.5672 229.118 56.5138C229.567 55.0716 229.898 53.6294 230.123 52.1765C230.261 52.1765 230.4 52.1765 230.539 52.1658C233.274 51.9201 235.453 49.3989 235.4 46.5466C235.347 43.6835 233.071 41.5576 230.336 41.8033C230.197 41.814 230.048 41.8353 229.909 41.8674C229.62 40.4466 229.225 39.0685 228.734 37.7224C228.862 37.6476 228.99 37.5728 229.108 37.4874C231.447 35.8422 232.206 32.6052 230.785 30.2443C229.364 27.8833 226.309 27.3065 223.969 28.9516C223.852 29.0371 223.734 29.1226 223.627 29.2187C222.698 28.1931 221.683 27.2424 220.583 26.377C220.657 26.2488 220.732 26.1206 220.807 25.9924C222.132 23.3965 221.256 20.2984 218.852 19.0805C216.448 17.8627 213.436 18.9844 212.111 21.5804C212.047 21.7192 211.983 21.8474 211.929 21.9863C210.583 21.6124 209.216 21.3453 207.848 21.2065C207.859 21.0569 207.859 20.918 207.859 20.7685C207.806 17.9054 205.53 15.7795 202.795 16.0252C200.061 16.2709 197.881 18.7921 197.935 21.6445C197.935 21.794 197.945 21.9436 197.967 22.0825C196.589 22.4777 195.243 22.9798 193.928 23.5781C193.864 23.4499 193.8 23.3217 193.726 23.2042C192.305 20.8432 189.249 20.2664 186.91 21.9115C184.57 23.5567 183.812 26.7937 185.233 29.1546C185.307 29.2721 185.382 29.3896 185.468 29.4965C184.431 30.5327 183.459 31.6651 182.562 32.8723C182.444 32.7975 182.327 32.7334 182.199 32.6693C179.795 31.4515 176.782 32.5732 175.458 35.1692C174.133 37.7651 175.009 40.8632 177.413 42.0811C177.541 42.1452 177.669 42.1986 177.786 42.252C177.338 43.6942 177.007 45.1364 176.782 46.5893C176.643 46.5893 176.505 46.5893 176.366 46.6C173.631 46.8457 171.451 49.3669 171.505 52.2192C171.558 55.0823 173.834 57.1975 176.569 56.9625C176.707 56.9518 176.857 56.9304 176.996 56.8984C177.284 58.3192 177.68 59.6973 178.171 61.0434C178.043 61.1182 177.915 61.193 177.797 61.2784C175.458 62.9236 174.699 66.1606 176.12 68.5215C177.541 70.8824 180.596 71.4593 182.936 69.8141C183.053 69.7287 183.171 69.6432 183.278 69.5471C184.207 70.5726 185.222 71.5234 186.322 72.3887C186.247 72.5169 186.173 72.6451 186.098 72.7733C184.773 75.3693 185.649 78.4674 188.053 79.6852C190.457 80.9031 193.469 79.7814 194.794 77.1854C194.858 77.0465 194.922 76.9183 194.975 76.7795C196.321 77.1534 197.689 77.4204 199.056 77.5593C199.046 77.7089 199.046 77.8478 199.046 77.9973C199.099 80.8604 201.375 82.9863 204.109 82.7406C206.844 82.4949 209.024 79.9737 208.97 77.1213C208.97 76.9718 208.959 76.8222 208.938 76.6833C210.316 76.288 211.662 75.7859 212.976 75.1877C213.04 75.3159 213.104 75.4441 213.179 75.5616C214.6 77.9225 217.655 78.4994 219.995 76.8542C222.335 75.2091 223.093 71.9721 221.672 69.6112C221.597 69.4937 221.523 69.3761 221.437 69.2693C222.473 68.2331 223.446 67.1007 224.343 65.8935C224.471 65.9576 224.589 66.0324 224.706 66.0965ZM194.772 66.4704C186.055 62.0476 182.872 50.7984 187.668 41.3546C192.465 31.9108 203.415 27.8513 212.132 32.2741C220.85 36.6968 224.033 47.946 219.237 57.3898C214.44 66.8336 203.49 70.9038 194.772 66.4704Z" fill="url(#paint7_linear_1_461)"/>
<path d="M319.55 273.774L34.976 271.317V278.592C34.976 280.569 36.2152 282.246 37.9031 282.545L118.368 296.881C119.318 297.052 120.29 297.095 121.252 297.02L316.452 280.675C318.193 280.526 319.539 278.849 319.539 276.819V273.774H319.55Z" fill="#BFC8D6"/>
<path d="M219.664 134.5V256.254C219.664 257.792 219.108 259.224 218.211 260.281C217.346 261.318 216.149 262.012 214.824 262.108L84.0644 271.755L35.3072 275.366H35.2965L34.9653 275.377L33.9077 275.441C30.6708 275.676 28 273.133 28 269.779V135.077C28 131.711 30.7135 128.902 33.9504 128.902H214.814C217.495 128.913 219.664 131.455 219.664 134.5Z" fill="#BFC8D6"/>
<path d="M222.559 134.5V256.254C222.559 258.604 221.256 260.698 219.439 261.617C219.407 261.628 219.375 261.649 219.354 261.66C219.183 261.745 219.001 261.82 218.82 261.884C218.777 261.895 218.734 261.916 218.702 261.927C218.67 261.937 218.638 261.948 218.606 261.948C218.478 261.991 218.339 262.023 218.211 262.044C218.051 262.076 217.88 262.098 217.719 262.108L216.801 262.172L86.6497 271.744H86.639L36.8348 275.419C36.3541 275.451 35.884 275.451 35.4354 275.366C35.3926 275.355 35.3499 275.366 35.3072 275.366H35.2965C35.1896 275.366 35.0401 275.302 34.9333 275.27C32.6044 274.639 30.8951 272.46 30.8951 269.779V135.077C30.8951 131.711 33.5979 128.902 36.8348 128.902H217.698C220.38 128.913 222.559 131.455 222.559 134.5Z" fill="white"/>
<path d="M212.079 253.53L43.6185 265.089C40.9798 265.27 38.8432 263.187 38.8432 260.452V142.533C38.8432 139.788 40.9798 137.555 43.6185 137.544L212.079 136.818C214.28 136.807 216.053 138.826 216.053 141.326V248.733C216.053 251.222 214.28 253.37 212.079 253.53Z" fill="#D8DEE8"/>
<path d="M133.666 132.684C133.666 133.934 132.736 134.948 131.582 134.959C130.429 134.959 129.499 133.944 129.499 132.694C129.499 131.444 130.429 130.419 131.582 130.419C132.736 130.419 133.666 131.423 133.666 132.684Z" fill="white"/>
<path opacity="0.48" d="M36.8455 275.419L216.801 262.172L217.72 262.108C218.948 262.023 220.059 261.414 220.903 260.495C207.955 259.79 199.911 255.186 194.719 250.442C184.303 240.903 186.109 231.501 174.87 225.231C160.854 217.411 149.84 227.324 139.199 217.539C132.747 211.61 135.92 207.187 127.982 198.331C119.19 188.524 113.475 191.814 104.64 182.99C93.4762 171.826 99.0634 163.141 89.438 155.129C77.7721 145.407 65.1876 154.402 54.0772 145.076C49.2912 141.048 46.6632 135.205 45.2851 128.987H36.8349C33.5979 128.987 30.9699 131.711 30.9699 135.077V269.768C30.9806 273.133 33.6086 275.665 36.8455 275.419Z" fill="white"/>
<path d="M226.234 261.371L34.976 275.387L118.368 290.237C119.318 290.408 120.29 290.45 121.252 290.375L319.55 273.774L229.279 261.467C228.264 261.328 227.249 261.296 226.234 261.371Z" fill="url(#paint8_linear_1_461)"/>
<path d="M62.8907 275.505L222.11 263.668L271.391 270.323L113.539 282.983L62.8907 275.505Z" fill="#D8DEE8"/>
<path opacity="0.3" d="M208.094 128.913V250.485C208.094 251.607 207.87 252.707 207.539 253.743C207.079 255.218 206.289 256.564 205.306 257.728C203.404 259.961 200.637 261.489 197.561 261.724L66.5977 271.605L58.8739 272.193C57.015 272.332 55.2417 272.076 53.6713 271.499C50.4984 270.345 48.1375 267.888 47.1974 264.758C46.9089 263.828 46.8128 262.835 46.8128 261.788V128.913H208.094Z" fill="#BFC8D6"/>
<path d="M200.499 54.89L61.7797 50.6168C55.0601 50.4031 49.5797 55.3066 49.5797 61.5562V259.213C49.5797 265.463 55.0601 270.121 61.7797 269.608L200.499 259.138C206.31 258.7 211 253.669 211 247.911V65.6478C211 59.8896 206.31 55.0716 200.499 54.89Z" fill="url(#paint9_linear_1_461)"/>
<path opacity="0.74" d="M53.4897 260.121V60.4772C53.4897 56.877 56.6412 54.0567 60.5191 54.1635L201.599 58.2765C204.953 58.3726 207.656 61.1502 207.656 64.4833V249.246C207.656 252.579 204.953 255.474 201.599 255.72L60.5191 266.114C56.6412 266.403 53.4897 263.721 53.4897 260.121Z" fill="white"/>
<path d="M200.499 54.89L61.7797 50.6168C55.0601 50.4031 49.5797 55.3066 49.5797 61.5562V69.6753L211 73.1366V65.6478C211 59.8896 206.31 55.0716 200.499 54.89Z" fill="url(#paint10_linear_1_461)"/>
<path d="M71.2448 61.022C71.2448 63.0518 69.4821 64.6436 67.3028 64.5901C65.1235 64.5367 63.3501 62.8488 63.3501 60.819C63.3501 58.7893 65.1235 57.1868 67.3028 57.2509C69.4821 57.3043 71.2448 58.9922 71.2448 61.022Z" fill="white"/>
<path d="M84.9725 61.3746C84.9725 63.383 83.2312 64.9747 81.0839 64.9213C78.9259 64.8679 77.1846 63.1907 77.1846 61.1716C77.1846 59.1525 78.9366 57.5607 81.0839 57.6248C83.2312 57.6889 84.9725 59.3662 84.9725 61.3746Z" fill="white"/>
<path d="M98.5185 61.7271C98.5185 63.7248 96.7986 65.3059 94.6833 65.2525C92.5574 65.1991 90.8268 63.5325 90.8268 61.5241C90.8268 59.5157 92.5574 57.9453 94.6833 57.9987C96.7986 58.0628 98.5185 59.7294 98.5185 61.7271Z" fill="white"/>
<path d="M128.399 110.965L71.2982 110.88C70.3688 110.88 69.6103 110.185 69.6103 109.331V105.698C69.6103 104.844 70.3688 104.16 71.2982 104.16L128.399 104.48C129.264 104.48 129.969 105.154 129.969 105.976V109.48C129.969 110.292 129.264 110.965 128.399 110.965Z" fill="white"/>
<path d="M73.5203 112.236L78.4238 130.237C78.7336 131.38 79.8447 132.16 81.1266 132.149L119.137 131.722C120.355 131.711 121.412 130.921 121.701 129.799L126.326 112.268L73.5203 112.236ZM87.6112 129.18C87.6112 129.895 86.9809 130.483 86.2117 130.483L84.8764 130.494C84.1072 130.504 83.4769 129.927 83.4769 129.212V115.26C83.4769 114.544 84.1072 113.967 84.8764 113.967H86.2117C86.9809 113.967 87.6112 114.544 87.6112 115.26V129.18ZM95.0252 129.116C95.0252 129.831 94.4056 130.408 93.6364 130.419L92.3117 130.43C91.5426 130.44 90.9229 129.863 90.9229 129.158V115.27C90.9229 114.555 91.5426 113.978 92.3117 113.978H93.6364C94.4056 113.978 95.0252 114.555 95.0252 115.26V129.116ZM102.375 129.041C102.375 129.746 101.756 130.333 100.997 130.333L99.683 130.344C98.9245 130.355 98.3049 129.778 98.3049 129.073V115.249C98.3049 114.544 98.9245 113.967 99.683 113.967H100.997C101.756 113.967 102.375 114.544 102.375 115.249V129.041ZM109.661 128.977C109.661 129.682 109.052 130.259 108.304 130.269L107.001 130.28C106.242 130.291 105.633 129.724 105.633 129.019V115.249C105.633 114.544 106.242 113.967 107.001 113.967H108.304C109.052 113.967 109.661 114.533 109.661 115.238V128.977ZM116.883 128.902C116.883 129.607 116.274 130.173 115.537 130.184L114.255 130.194C113.507 130.205 112.898 129.639 112.898 128.934V115.238C112.898 114.533 113.507 113.967 114.255 113.967H115.537C116.284 113.967 116.883 114.533 116.883 115.238V128.902Z" fill="white"/>
<path d="M79.9301 102.365C79.0648 103.06 77.7508 102.964 76.9923 102.162C76.2338 101.361 76.3193 100.143 77.1953 99.4488C78.0606 98.7544 79.3853 98.8506 80.1331 99.6625C80.8916 100.474 80.7954 101.682 79.9301 102.365Z" fill="#D8DEE8"/>
<path d="M98.2514 85.2618C97.963 84.952 97.3754 84.984 96.9268 85.3365L78.8511 99.6945C78.4024 100.058 78.2635 100.603 78.5627 100.912C78.8511 101.222 79.46 101.179 79.9087 100.827L97.963 86.4689C98.4117 86.1164 98.5399 85.5716 98.2514 85.2618Z" fill="white"/>
<path d="M120.269 102.643C121.092 103.327 122.342 103.252 123.057 102.483C123.773 101.714 123.688 100.528 122.865 99.8441C122.043 99.1604 120.793 99.2245 120.077 100.004C119.361 100.773 119.447 101.959 120.269 102.643Z" fill="#D8DEE8"/>
<path d="M102.439 85.3365C102.728 85.0374 103.315 85.0908 103.753 85.4541L121.295 100.047C121.722 100.41 121.85 100.934 121.572 101.233C121.295 101.532 120.718 101.489 120.291 101.126L102.728 86.533C102.279 86.1805 102.151 85.6357 102.439 85.3365Z" fill="white"/>
<path d="M194.89 93.7975L136.005 93.039V85.7104L194.89 86.736V93.7975Z" fill="white"/>
<path d="M194.89 106.158L136.005 105.869V98.5407L194.89 99.0963V106.158Z" fill="white"/>
<path d="M194.89 118.518L136.005 118.7V111.371L194.89 111.456V118.518Z" fill="white"/>
<path d="M194.89 130.878L136.005 131.53V124.201L194.89 123.817V130.878Z" fill="white"/>
<path d="M186.878 193.352C186.878 222.998 162.991 248.637 133.431 250.613C103.764 252.6 79.6524 230.027 79.6524 200.19C79.6524 170.352 103.775 144.713 133.431 142.907C162.991 141.113 186.878 163.707 186.878 193.352Z" fill="url(#paint11_linear_1_461)"/>
<path d="M136.71 145.343C149.626 145.343 161.623 150.257 170.511 159.167C179.432 168.119 184.346 180.255 184.346 193.353C184.346 207.048 179.036 220.295 169.39 230.626C159.743 240.967 146.913 247.163 133.26 248.082C132.117 248.156 130.952 248.199 129.809 248.199C116.904 248.199 104.907 243.296 96.0294 234.397C87.0984 225.455 82.1842 213.298 82.1842 200.19C82.1842 171.72 105.249 147.159 133.591 145.439C134.616 145.375 135.674 145.343 136.71 145.343ZM136.71 142.811C135.631 142.811 134.531 142.843 133.431 142.907C103.764 144.702 79.6524 170.352 79.6524 200.19C79.6524 228.799 101.841 250.731 129.82 250.731C131.016 250.731 132.223 250.688 133.441 250.614C163.001 248.637 186.888 223.009 186.888 193.353C186.878 164.808 164.732 142.811 136.71 142.811Z" fill="white"/>
<path d="M156.324 225.22C154.754 225.401 153.173 224.91 151.966 223.692L109.939 181.323C107.182 178.546 107.182 173.835 109.939 170.843C112.674 167.873 117.064 167.767 119.746 170.544L160.64 212.998C162.99 215.445 162.99 219.772 160.64 222.709C159.444 224.184 157.884 225.038 156.324 225.22Z" fill="white"/>
<path d="M114.864 230.038C113.09 230.241 111.295 229.728 109.928 228.446C107.172 225.85 107.172 221.139 109.928 217.966L151.955 169.551C154.369 166.773 158.247 166.666 160.619 169.284C162.969 171.88 162.969 176.217 160.619 178.994L119.724 227.324C118.4 228.916 116.637 229.835 114.864 230.038Z" fill="white"/>
<path d="M232.569 158.59C229.076 154.862 238.744 140.856 243.914 134.713C248.433 129.351 253.08 123.838 258.785 124.543C263.795 125.152 268.667 130.44 268.955 135.504C269.746 149.114 237.526 163.889 232.569 158.59Z" fill="url(#paint12_linear_1_461)"/>
<path d="M274.489 302.522C275.151 303.056 275.269 304.392 275.344 305.268C275.376 305.652 275.397 305.855 275.354 305.994C275.034 306.998 273.09 307.105 270.034 307.415C265.206 307.906 263.774 308.291 263.4 307.564C263.048 306.891 263.902 305.791 263.998 305.674C264.522 305.022 265.152 304.787 266.381 304.381C268.656 303.633 270.194 303.216 270.665 303.099C273.581 302.308 274.062 302.17 274.489 302.522Z" fill="url(#paint13_linear_1_461)"/>
<path d="M271.626 298.11L271.145 303.612C271.284 303.879 272.919 304.669 274.211 303.986L275.451 298.58L271.626 298.11Z" fill="url(#paint14_linear_1_461)"/>
<path d="M236.233 301.817C237.024 302.682 237.205 304.285 236.511 305.075C235.838 305.855 234.823 305.268 231.949 305.353C228.873 305.449 228.071 306.176 225.978 305.599C225.134 305.364 223.638 304.798 223.67 304.199C223.691 303.772 224.45 303.558 226.982 302.704C230.582 301.497 230.561 301.432 231.33 301.304C233.263 300.984 235.197 300.663 236.233 301.817Z" fill="url(#paint15_linear_1_461)"/>
<path d="M234.268 296.796L232.729 301.924C232.847 302.202 234.417 303.12 235.763 302.533L238.049 297.554L234.268 296.796Z" fill="url(#paint16_linear_1_461)"/>
<path d="M247.974 184.389C247.75 201.642 246.574 221.032 243.754 242.099C240.966 262.92 237.056 281.744 232.783 298.281C234.748 298.815 236.725 299.339 238.69 299.873C243.679 295.215 249.982 287.886 253.027 277.524C254.918 271.093 254.287 267.792 255.484 259.886C257.386 247.291 261.253 240.7 265.238 230.54C268.827 221.417 273.058 208.02 275.333 190.126C266.21 188.225 257.086 186.302 247.974 184.389Z" fill="url(#paint17_linear_1_461)"/>
<path d="M265.74 182.744C266.947 204.676 267.94 227.025 268.688 249.769C269.254 266.83 269.671 283.688 269.938 300.311C271.946 300.556 273.955 300.802 275.974 301.058C277.918 297.437 280.493 291.914 282.266 284.82C284.414 276.21 283.911 271.103 284.862 262.172C285.92 252.162 287.458 249.983 290.172 237.356C295.684 211.738 298.451 198.918 292.298 190.959C290.289 188.374 284.029 181.879 265.74 182.744Z" fill="url(#paint18_linear_1_461)"/>
<path d="M295.043 127.609C290.332 126.285 283.431 124.735 274.98 124.255C262.93 123.571 256.894 123.229 252.621 126.103C242.761 132.737 250.388 148.035 246.35 185.97C245.773 191.387 245.645 196.846 245.228 202.273C244.534 211.268 244.384 211.759 245.004 212.667C248.925 218.383 263.571 209.762 285.033 213.169C297.041 215.071 302.489 219.472 305.78 216.3C309.615 212.603 306.324 202.668 303.493 194.111C300.246 184.293 298.237 184.165 296.389 176.772C294.456 169.038 295.631 165.064 295.93 152.875C296.069 147.052 296.047 138.378 295.043 127.609Z" fill="url(#paint19_linear_1_461)"/>
<g opacity="0.3">
<path d="M265.868 198.833C271.476 198.395 275.119 201.568 279.959 199.089C286.593 195.703 288.729 185.159 288.313 177.691C287.672 166.356 281.198 163.365 282.309 156.037C282.907 152.073 285.738 146.807 295.898 141.433C296.037 145.963 296.005 149.819 295.93 152.875C295.631 165.064 294.466 169.038 296.389 176.772C298.237 184.165 300.246 184.293 303.493 194.111C306.324 202.668 309.615 212.603 305.78 216.3C302.489 219.472 297.041 215.071 285.033 213.169C266.541 210.232 253.123 216.225 247.247 214.28C254.352 202.561 260.793 199.228 265.868 198.833Z" fill="url(#paint20_linear_1_461)"/>
</g>
<path d="M287.394 128.389C291.4 125.099 299.455 128.827 301.602 129.821C313.61 135.376 324.389 150.343 321.719 166.153C321.323 168.525 319.464 179.625 310.063 184.998C301.592 189.848 290.14 188.598 280.974 181.729C279.724 180.618 278.463 179.507 277.213 178.396C275.985 177.061 274.745 175.725 273.517 174.401C275.45 172.788 278.752 170.459 283.377 168.974C289.477 167.008 293.911 170.534 296.742 167.852C298.697 166.004 298.697 162.724 298.216 160.748C297.244 156.752 293.718 155.631 290.781 152.789C283.869 146.112 282.597 132.331 287.394 128.389Z" fill="url(#paint21_linear_1_461)"/>
<path d="M229.834 180.02L283.516 179.219L269.244 186.11L229.695 183.524L229.834 180.02Z" fill="url(#paint22_linear_1_461)"/>
<path d="M285.418 180.65C285.418 181.655 284.787 182.552 283.847 182.894L266.69 189.624L266.616 184.966L283.527 179.229C284.467 178.952 285.418 179.657 285.418 180.65Z" fill="url(#paint23_linear_1_461)"/>
<path d="M277.149 177.477C277.48 177.403 275.547 173.546 274.03 173.995C272.513 174.444 265.077 178.749 264.404 180.522C263.731 182.296 263.731 182.296 263.731 182.296C263.731 182.296 266.968 182.552 268.977 181.879C270.985 181.184 274.468 178.065 277.149 177.477Z" fill="url(#paint24_linear_1_461)"/>
<path d="M265.184 152.244L268.966 186.708C269.094 187.893 267.428 189.667 266.242 189.613L210.722 186.205C209.814 186.163 209.045 185.49 208.895 184.592L201.93 151.315C201.727 150.108 203.896 148.858 205.124 148.89L263.304 150.524C264.276 150.535 265.077 151.272 265.184 152.244Z" fill="url(#paint25_linear_1_461)"/>
<path d="M263.913 153.248L267.695 187.712C267.823 188.898 266.861 189.923 265.665 189.87L209.44 187.21C208.532 187.167 207.774 186.494 207.613 185.597L201.866 152.159C201.663 150.952 202.614 149.851 203.842 149.883L262.022 151.518C263.005 151.539 263.806 152.276 263.913 153.248Z" fill="url(#paint26_linear_1_461)"/>
<path opacity="0.3" d="M230.902 179.123C235.817 177.039 234.075 173.076 239.876 168.13C247.525 161.603 255.324 164.434 258.048 159.38C258.903 157.81 259.309 155.353 257.824 151.39L262.033 151.507C263.005 151.539 263.806 152.276 263.913 153.238L267.695 187.701C267.823 188.887 266.861 189.912 265.665 189.859L209.44 187.199C208.532 187.156 207.774 186.483 207.613 185.586L206.823 180.971C208.532 180.02 210.562 179.155 212.944 178.674C221.202 177.007 225.251 181.526 230.902 179.123Z" fill="url(#paint27_linear_1_461)"/>
<path d="M205.904 182.381C205.808 182.103 206.011 181.815 206.299 181.804C207.485 181.74 210.241 181.719 211.769 182.648C213.745 183.855 216.299 186.067 214.151 187.178L212.143 188.214C212.047 188.257 211.951 188.278 211.844 188.257C211.128 188.096 208.126 187.434 207.795 187.263C207.496 187.124 206.353 183.727 205.904 182.381Z" fill="url(#paint28_linear_1_461)"/>
<path d="M274.083 111.093C274.051 114.672 274.457 117.503 274.831 119.447C275.258 121.669 275.579 122.246 275.974 122.716C276.572 123.421 277.48 124.009 282.597 125.28C285.386 125.975 285.738 125.953 285.802 126.231C286.101 127.577 278.506 132.182 270.654 131.07C265.846 130.397 261.477 127.652 261.744 126.21C262.011 124.757 266.819 125.537 268.239 122.919C269.233 121.093 268.122 118.507 266.797 116.36C268.079 113.956 272.801 113.486 274.083 111.093Z" fill="url(#paint29_linear_1_461)"/>
<path d="M265.163 112.503C264.03 110.997 263.956 108.369 265.27 106.703C266.391 105.271 268.165 105.068 269.222 104.951C272.288 104.598 276.166 105.88 277.512 108.7C278.314 110.378 276.583 113.849 276.316 114.48C276.006 115.185 275.451 115.431 274.938 115.965C274.222 116.702 273.111 117.888 271.295 119.853C271.156 119.276 270.942 118.55 270.6 117.77C270.472 117.471 269.938 116.296 269.148 115.324C267.534 113.379 266.242 113.935 265.163 112.503Z" fill="url(#paint30_linear_1_461)"/>
<path d="M273.891 118.197C273.891 118.197 271.872 121.509 267.855 121.242C264.255 121.007 263.731 112.941 266.028 111.232C266.797 110.666 268.325 110.42 269.575 110.773C270.312 110.976 270.558 111.286 271.776 111.595C272.897 111.884 273.207 111.766 273.549 112.044C273.966 112.397 274.275 113.273 273.57 115.623C274.254 114.928 275.077 114.661 275.664 114.939C275.76 114.982 276.006 115.153 276.145 115.409C276.647 116.339 275.803 117.514 273.891 118.197Z" fill="url(#paint31_linear_1_461)"/>
<path d="M273.709 111.574C273.538 111.702 274.062 112.354 274.104 113.262C274.179 115.035 272.385 117.172 270.547 117.354C269.457 117.46 269.158 116.809 267.364 116.616C266.252 116.499 265.323 116.638 264.746 116.766C264.18 118.721 264.714 120.665 266.017 121.563C267.417 122.535 269.212 121.947 269.959 121.701C270.462 121.541 272.064 121.007 272.908 119.544C273.784 118.005 272.929 117.086 273.923 116.04C274.425 115.516 275.098 115.292 275.739 114.277C275.91 113.999 276.027 113.753 276.102 113.593C275.183 112.61 273.955 111.382 273.709 111.574Z" fill="url(#paint32_linear_1_461)"/>
<path d="M266.05 117.492C266.05 117.492 266.829 117.898 268.165 117.824C268.229 117.824 268.304 117.834 268.314 117.877C268.346 118.005 267.481 118.571 266.69 118.358C266.124 118.197 265.686 117.663 265.761 117.535C265.804 117.46 265.932 117.471 266.05 117.492Z" fill="url(#paint33_linear_1_461)"/>
<path d="M58.0875 111.913H3.76699C2.21359 111.913 1 110.651 1 109.146V61.767C1 60.2136 2.26214 59 3.76699 59H58.0875C59.6409 59 60.8545 60.2621 60.8545 61.767V109.146C60.903 110.699 59.6409 111.913 58.0875 111.913Z" fill="#EDEDED"/>
<path d="M58.0875 111.913H3.76699C2.21359 111.913 1 110.651 1 109.146V61.767C1 60.2136 2.26214 59 3.76699 59H58.0875C59.6409 59 60.8545 60.2621 60.8545 61.767V109.146C60.903 110.699 59.6409 111.913 58.0875 111.913Z" stroke="#DED8D5" stroke-width="1.9678" stroke-miterlimit="10"/>
<path d="M44.8836 101.718H16.7282C14.9321 101.718 13.5243 100.262 13.5243 98.5146V71.2816C13.5243 69.4855 14.9806 68.0777 16.7282 68.0777H44.8836C46.6797 68.0777 48.0874 69.534 48.0874 71.2816V98.5146C48.136 100.311 46.6797 101.718 44.8836 101.718Z" fill="#FFB1A5"/>
<path d="M24.1068 78.2719C20.3204 82.0583 20.3204 88.3204 24.1068 92.1068C27.8933 95.8933 34.1554 95.8933 37.9418 92.1068C41.7282 88.3204 41.7282 82.0583 37.9418 78.2719C34.1554 74.4855 27.8933 74.4855 24.1068 78.2719ZM37.8933 79.6796H34.7865C34.4952 78.7088 34.0583 77.7379 33.5729 76.7185C35.3204 77.301 36.8253 78.3204 37.8933 79.6796ZM27.4078 84.6311C27.4078 83.369 27.5534 82.1068 27.8933 80.8447H34.1554C34.4467 82.1068 34.6408 83.369 34.6408 84.6311H27.4078ZM34.5923 85.7962C34.4952 87.0583 34.301 88.3204 33.9127 89.5826H28.136C27.7962 88.3204 27.5534 87.0583 27.4564 85.7962H34.5923ZM31.0001 76.3787C31.4855 76.3787 31.9224 76.4272 32.3593 76.4758C32.9418 77.5437 33.4272 78.6117 33.767 79.6796H28.1845C28.5243 78.6117 29.0098 77.5437 29.5923 76.4758C30.0777 76.4272 30.5632 76.3787 31.0001 76.3787ZM28.4272 76.767C27.9418 77.7379 27.5049 78.7088 27.2136 79.7282H24.1068C25.2233 78.3204 26.7282 77.301 28.4272 76.767ZM23.3301 80.8447H26.9224C26.6311 82.1068 26.4369 83.369 26.4369 84.6311H22.2136C22.3107 83.2719 22.6991 81.9612 23.3301 80.8447ZM23.3301 89.5826C22.6991 88.4661 22.2622 87.1554 22.2136 85.7962H26.4369C26.4855 87.0583 26.6797 88.3204 27.0195 89.5826H23.3301ZM24.1068 90.7476H27.3593C27.6991 91.7185 28.0874 92.7379 28.5729 93.7088C26.7767 93.1748 25.2233 92.1554 24.1068 90.7476ZM31.0001 94.0486C30.6117 94.0486 30.2234 94 29.835 93.9515C29.301 92.8835 28.8156 91.767 28.4758 90.6991H33.5243C33.136 91.767 32.6991 92.8835 32.1651 93.9515C31.7768 94 31.3884 94.0486 31.0001 94.0486ZM33.4758 93.7088C33.9612 92.7379 34.3496 91.7185 34.6894 90.7476H37.9418C36.7768 92.1554 35.2234 93.1748 33.4758 93.7088ZM38.67 89.5826H34.9806C35.3204 88.3204 35.5146 87.0583 35.5632 85.7962H39.7865C39.7379 87.1554 39.3496 88.4661 38.67 89.5826ZM39.835 84.6311H35.6117C35.6117 83.369 35.4175 82.1068 35.1263 80.8447H38.7185C39.3496 81.9612 39.7379 83.2719 39.835 84.6311Z" fill="white"/>
<path d="M316.931 97.7287H266.576C265.159 97.7287 264 96.5696 264 95.153V48.5757C264 47.1591 265.159 46 266.576 46H316.974C318.39 46 319.549 47.1591 319.549 48.5757V95.153C319.506 96.6125 318.347 97.7287 316.931 97.7287Z" fill="#EDEDED"/>
<path d="M316.931 97.7287H266.576C265.159 97.7287 264 96.5696 264 95.153V48.5757C264 47.1591 265.159 46 266.576 46H316.974C318.39 46 319.549 47.1591 319.549 48.5757V95.153C319.506 96.6125 318.347 97.7287 316.931 97.7287Z" stroke="#DED8D5" stroke-width="1.9678" stroke-miterlimit="10"/>
<path d="M278.724 84.2921H304.911C306.327 84.2921 307.486 83.1331 307.486 81.7164V60.2522C307.486 58.8356 306.327 57.6765 304.911 57.6765H278.724C277.308 57.6765 276.149 58.8356 276.149 60.2522V81.7164C276.149 83.1331 277.308 84.2921 278.724 84.2921Z" fill="#C98BD2"/>
<path d="M298.987 75.4059H286.709H284.52V65.7041H298.987V68.1081V75.4059Z" stroke="white" stroke-width="1.6466" stroke-miterlimit="10" stroke-linecap="round" stroke-linejoin="round"/>
<path d="M284.52 65.7041L291.732 71.4136L298.987 65.7041" stroke="white" stroke-width="1.6466" stroke-miterlimit="10" stroke-linecap="round" stroke-linejoin="round"/>
<path d="M126.774 46.1589H89.5392C85.9234 46.1589 83 43.2355 83 39.6197V5.00055C83 2.23101 85.231 0 88.0005 0H126.851C129.62 0 131.851 2.23101 131.851 5.00055V41.2353C131.775 43.9279 129.544 46.1589 126.774 46.1589Z" fill="#56DFED"/>
<path d="M118.773 26.5414L116.004 23.7718C115.542 23.2333 114.85 22.9256 114.234 22.9256C113.619 22.9256 112.926 23.2333 112.465 23.6949L110.849 25.3104C110.772 25.2335 110.618 25.2335 110.541 25.1566C110.311 25.0797 110.157 25.0027 110.08 24.9258C108.618 24.0026 107.233 22.7717 105.926 21.1561C105.31 20.3868 104.849 19.6945 104.618 19.1559C105.002 18.7713 105.387 18.3866 105.695 18.0789C105.849 17.925 106.003 17.7712 106.156 17.6173C106.695 17.0788 107.003 16.4633 107.003 15.7709C107.003 15.0786 106.695 14.4631 106.156 13.9246L104.772 12.5398C104.618 12.386 104.464 12.2321 104.31 12.0782C104.002 11.7705 103.695 11.4628 103.387 11.1551C102.925 10.6935 102.233 10.3857 101.617 10.3857C101.002 10.3857 100.387 10.6165 99.848 11.1551L98.0786 12.9245C97.4631 13.5399 97.0015 14.3862 96.9246 15.3863C96.8477 16.848 97.2323 18.2328 97.5401 19.1559C98.3094 21.4639 99.5403 23.4641 101.387 25.6182C103.618 28.2338 106.233 30.311 109.311 31.8496C110.465 32.3881 112.003 33.0036 113.773 33.1575C113.85 33.1575 114.003 33.1575 114.157 33.1575C115.311 33.1575 116.311 32.6959 117.158 31.8496C117.158 31.8496 117.158 31.8496 117.234 31.7727C117.465 31.465 117.773 31.1572 118.158 30.8495C118.388 30.6187 118.619 30.3879 118.773 30.2341C119.773 29.0032 119.773 27.5415 118.773 26.5414ZM117.619 29.0801C117.388 29.3109 117.235 29.4647 117.004 29.6955C116.619 30.0033 116.388 30.311 116.004 30.6956C115.542 31.1572 114.927 31.465 114.234 31.465C114.157 31.465 114.08 31.465 114.003 31.465C112.542 31.388 111.157 30.7726 110.157 30.311C107.31 28.9262 104.849 27.0029 102.771 24.5411C101.079 22.5409 99.9249 20.5407 99.1556 18.5405C98.694 17.3865 98.4632 16.3864 98.5402 15.4632C98.6171 14.9247 98.771 14.3862 99.2325 14.0015L100.925 12.309C101.079 12.1552 101.31 11.9244 101.617 11.9244C101.925 11.9244 102.079 12.0782 102.31 12.309C102.618 12.6168 102.925 12.9245 103.233 13.2322C103.387 13.3861 103.541 13.6169 103.695 13.6938L105.079 15.0786C105.233 15.2324 105.464 15.5402 105.464 15.7709C105.464 16.0787 105.233 16.3095 105.079 16.4633C104.925 16.6172 104.772 16.7711 104.618 16.9249C104.156 17.3865 103.771 17.7712 103.387 18.1558C103.387 18.1558 103.387 18.1558 103.31 18.2328C102.848 18.6943 102.925 19.1559 103.002 19.4637V19.5406C103.387 20.4638 103.925 21.2331 104.618 22.2332C106.003 24.0026 107.464 25.3104 109.157 26.3875C109.387 26.5414 109.618 26.6183 109.772 26.7721C110.003 26.8491 110.157 26.926 110.234 27.0029L110.311 27.0799C110.772 27.3107 111.311 27.2337 111.695 26.8491L113.465 25.0797C113.619 24.9258 113.85 24.695 114.157 24.695C114.388 24.695 114.619 24.9258 114.773 25.0797L117.542 27.8492C118.081 28.08 118.081 28.6185 117.619 29.0801Z" fill="white"/>
<defs>
<linearGradient id="paint0_linear_1_461" x1="180.506" y1="153.434" x2="245.68" y2="209.488" gradientUnits="userSpaceOnUse">
<stop stop-color="#FF9085"/>
<stop offset="1" stop-color="#FB6FBB"/>
</linearGradient>
<linearGradient id="paint1_linear_1_461" x1="238.274" y1="175.691" x2="212.788" y2="244.1" gradientUnits="userSpaceOnUse">
<stop stop-color="#AA80F9"/>
<stop offset="0.9964" stop-color="#6165D7"/>
</linearGradient>
<linearGradient id="paint2_linear_1_461" x1="284.514" y1="93.6072" x2="246.231" y2="82.7739" gradientUnits="userSpaceOnUse">
<stop stop-color="#311944"/>
<stop offset="1" stop-color="#A03976"/>
</linearGradient>
<linearGradient id="paint3_linear_1_461" x1="284.414" y1="93.9617" x2="246.131" y2="83.1284" gradientUnits="userSpaceOnUse">
<stop stop-color="#311944"/>
<stop offset="1" stop-color="#A03976"/>
</linearGradient>
<linearGradient id="paint4_linear_1_461" x1="245.228" y1="69.4144" x2="245.827" y2="117.757" gradientUnits="userSpaceOnUse">
<stop stop-color="#FF9085"/>
<stop offset="1" stop-color="#FB6FBB"/>
</linearGradient>
<linearGradient id="paint5_linear_1_461" x1="280.091" y1="71.2028" x2="205.099" y2="49.9818" gradientUnits="userSpaceOnUse">
<stop stop-color="#311944"/>
<stop offset="1" stop-color="#A03976"/>
</linearGradient>
<linearGradient id="paint6_linear_1_461" x1="279.894" y1="71.8973" x2="204.903" y2="50.6762" gradientUnits="userSpaceOnUse">
<stop stop-color="#311944"/>
<stop offset="1" stop-color="#A03976"/>
</linearGradient>
<linearGradient id="paint7_linear_1_461" x1="203.134" y1="23.8122" x2="204.307" y2="118.51" gradientUnits="userSpaceOnUse">
<stop stop-color="#FF9085"/>
<stop offset="1" stop-color="#FB6FBB"/>
</linearGradient>
<linearGradient id="paint8_linear_1_461" x1="101.452" y1="275.872" x2="386.022" y2="275.872" gradientUnits="userSpaceOnUse">
<stop offset="0.494" stop-color="#EBEFF2"/>
<stop offset="1" stop-color="white"/>
</linearGradient>
<linearGradient id="paint9_linear_1_461" x1="49.5757" y1="160.13" x2="210.996" y2="160.13" gradientUnits="userSpaceOnUse">
<stop offset="0.00359712" stop-color="#E38DDD"/>
<stop offset="1" stop-color="#9571F6"/>
</linearGradient>
<linearGradient id="paint10_linear_1_461" x1="131.143" y1="59.304" x2="117.356" y2="183.917" gradientUnits="userSpaceOnUse">
<stop stop-color="#40447E"/>
<stop offset="0.9964" stop-color="#3C3B6B"/>
</linearGradient>
<linearGradient id="paint11_linear_1_461" x1="79.6426" y1="196.769" x2="186.877" y2="196.769" gradientUnits="userSpaceOnUse">
<stop stop-color="#FF9085"/>
<stop offset="1" stop-color="#FB6FBB"/>
</linearGradient>
<linearGradient id="paint12_linear_1_461" x1="248.92" y1="153.351" x2="214.217" y2="319.777" gradientUnits="userSpaceOnUse">
<stop stop-color="#FFC444"/>
<stop offset="0.9964" stop-color="#F36F56"/>
</linearGradient>
<linearGradient id="paint13_linear_1_461" x1="263.384" y1="304.979" x2="275.4" y2="305.327" gradientUnits="userSpaceOnUse">
<stop stop-color="#444B8C"/>
<stop offset="0.9964" stop-color="#26264F"/>
</linearGradient>
<linearGradient id="paint14_linear_1_461" x1="271.142" y1="301.186" x2="275.451" y2="301.186" gradientUnits="userSpaceOnUse">
<stop stop-color="#FFC444"/>
<stop offset="0.9964" stop-color="#F36F56"/>
</linearGradient>
<linearGradient id="paint15_linear_1_461" x1="224.365" y1="301.671" x2="236.679" y2="305.056" gradientUnits="userSpaceOnUse">
<stop stop-color="#444B8C"/>
<stop offset="0.9964" stop-color="#26264F"/>
</linearGradient>
<linearGradient id="paint16_linear_1_461" x1="232.719" y1="299.763" x2="238.042" y2="299.763" gradientUnits="userSpaceOnUse">
<stop stop-color="#FFC444"/>
<stop offset="0.9964" stop-color="#F36F56"/>
</linearGradient>
<linearGradient id="paint17_linear_1_461" x1="228.56" y1="280.883" x2="262.623" y2="204.096" gradientUnits="userSpaceOnUse">
<stop stop-color="#40447E"/>
<stop offset="0.9964" stop-color="#3C3B6B"/>
</linearGradient>
<linearGradient id="paint18_linear_1_461" x1="245.289" y1="284.521" x2="288.502" y2="212.484" gradientUnits="userSpaceOnUse">
<stop stop-color="#40447E"/>
<stop offset="0.9964" stop-color="#3C3B6B"/>
</linearGradient>
<linearGradient id="paint19_linear_1_461" x1="280.429" y1="159.921" x2="245.726" y2="326.347" gradientUnits="userSpaceOnUse">
<stop stop-color="#FFC444"/>
<stop offset="0.9964" stop-color="#F36F56"/>
</linearGradient>
<linearGradient id="paint20_linear_1_461" x1="289.941" y1="265.1" x2="274.708" y2="192.742" gradientUnits="userSpaceOnUse">
<stop stop-color="#FFC444"/>
<stop offset="0.9964" stop-color="#F36F56"/>
</linearGradient>
<linearGradient id="paint21_linear_1_461" x1="302.928" y1="144.916" x2="275.478" y2="276.562" gradientUnits="userSpaceOnUse">
<stop stop-color="#FFC444"/>
<stop offset="0.9964" stop-color="#F36F56"/>
</linearGradient>
<linearGradient id="paint22_linear_1_461" x1="248.699" y1="202.222" x2="255.194" y2="183.819" gradientUnits="userSpaceOnUse">
<stop stop-color="#311944"/>
<stop offset="1" stop-color="#893976"/>
</linearGradient>
<linearGradient id="paint23_linear_1_461" x1="277.073" y1="175.559" x2="274.692" y2="192.013" gradientUnits="userSpaceOnUse">
<stop stop-color="#311944"/>
<stop offset="1" stop-color="#893976"/>
</linearGradient>
<linearGradient id="paint24_linear_1_461" x1="263.726" y1="178.142" x2="277.186" y2="178.142" gradientUnits="userSpaceOnUse">
<stop stop-color="#FFC444"/>
<stop offset="0.9964" stop-color="#F36F56"/>
</linearGradient>
<linearGradient id="paint25_linear_1_461" x1="229.885" y1="177" x2="242.548" y2="159.018" gradientUnits="userSpaceOnUse">
<stop stop-color="#444B8C"/>
<stop offset="0.9964" stop-color="#26264F"/>
</linearGradient>
<linearGradient id="paint26_linear_1_461" x1="254.175" y1="206.759" x2="226.462" y2="150.468" gradientUnits="userSpaceOnUse">
<stop stop-color="#311944"/>
<stop offset="1" stop-color="#893976"/>
</linearGradient>
<linearGradient id="paint27_linear_1_461" x1="267.712" y1="170.63" x2="206.831" y2="170.63" gradientUnits="userSpaceOnUse">
<stop stop-color="#311944"/>
<stop offset="1" stop-color="#893976"/>
</linearGradient>
<linearGradient id="paint28_linear_1_461" x1="205.885" y1="185.027" x2="214.966" y2="185.027" gradientUnits="userSpaceOnUse">
<stop stop-color="#FFC444"/>
<stop offset="0.9964" stop-color="#F36F56"/>
</linearGradient>
<linearGradient id="paint29_linear_1_461" x1="274.665" y1="111.126" x2="272.343" y2="150.594" gradientUnits="userSpaceOnUse">
<stop stop-color="#FFC444"/>
<stop offset="0.9964" stop-color="#F36F56"/>
</linearGradient>
<linearGradient id="paint30_linear_1_461" x1="278.53" y1="129.259" x2="269.525" y2="106.137" gradientUnits="userSpaceOnUse">
<stop stop-color="#311944"/>
<stop offset="1" stop-color="#6B3976"/>
</linearGradient>
<linearGradient id="paint31_linear_1_461" x1="264.639" y1="115.938" x2="276.285" y2="115.938" gradientUnits="userSpaceOnUse">
<stop stop-color="#FFC444"/>
<stop offset="0.9964" stop-color="#F36F56"/>
</linearGradient>
<linearGradient id="paint32_linear_1_461" x1="275.749" y1="130.354" x2="266.735" y2="107.209" gradientUnits="userSpaceOnUse">
<stop stop-color="#311944"/>
<stop offset="1" stop-color="#6B3976"/>
</linearGradient>
<linearGradient id="paint33_linear_1_461" x1="265.759" y1="117.939" x2="268.318" y2="117.939" gradientUnits="userSpaceOnUse">
<stop stop-color="#FFC444"/>
<stop offset="0.9964" stop-color="#F36F56"/>
</linearGradient>
</defs>
</svg>
