<svg width="80" height="80" viewBox="0 0 80 80" fill="none" xmlns="http://www.w3.org/2000/svg">
<circle cx="40" cy="40" r="40" fill="#7BB9FF"/>
<circle cx="40" cy="40" r="40" fill="url(#paint0_linear_711_14)"/>
<path d="M62 49.1849H29.5414V46.3299M62 49.1849V52.2594H60.2431M62 49.1849L61.9561 47.9111C61.9561 46.9009 61.6925 46.3299 60.8141 46.3299H56.3779M29.5414 46.3299V24.9397C29.436 22.1287 27.4185 21.6016 26.4229 21.6895H19V24.9397H26.4229C26.4229 31.938 26.4229 46.5847 26.4229 49.1849C26.4229 51.7851 28.5019 52.318 29.5414 52.2594H32.4402M29.5414 46.3299H33.7579M33.7579 46.3299H39.8192M33.7579 46.3299V35.8764M56.3779 46.3299V35.8764M56.3779 46.3299H39.8192M56.3779 35.8764V29.4198H50.5363M56.3779 35.8764H50.5363M50.5363 35.8764V29.4198M50.5363 35.8764V39.478L48.2962 39.0388L45.7048 39.478V35.8764M50.5363 29.4198H45.7048M50.5363 29.4198V21.6895M45.7048 29.4198V35.8764M45.7048 29.4198C45.7048 29.4198 42.0641 29.4198 39.7314 29.4198M45.7048 35.8764H39.8192M39.8192 35.8764C39.8192 35.8764 39.7657 31.9413 39.7314 29.4198M39.8192 35.8764V46.3299M39.8192 35.8764H33.7579M39.7314 29.4198L39.8192 18M39.7314 29.4198C38.447 29.4198 36.7662 29.4198 35.5148 29.4198M33.7579 35.8764V29.4198C33.7579 29.4198 34.4933 29.4198 35.5148 29.4198M39.8192 18H35.5148V21.6895M39.8192 18H50.5363V21.6895M35.5148 29.4198V21.6895M35.5148 21.6895H39.7314H50.5363M32.4402 52.2594V55.9928L35 55L36.8325 54.8069V52.2594M32.4402 52.2594H36.8325M36.8325 52.2594H55.5434M55.5434 52.2594V55.8172L58 55L60.2431 54.8069V52.2594M55.5434 52.2594H60.2431" stroke="white"/>
<rect x="43.6843" y="23.8856" width="3.07457" height="1.66905" fill="white"/>
<rect x="42.191" y="42.6844" width="1.58121" height="1.58121" fill="white"/>
<rect x="45.1777" y="42.6844" width="1.58121" height="1.58121" fill="white"/>
<path fill-rule="evenodd" clip-rule="evenodd" d="M34.0746 61.1491C35.7726 61.1491 37.1491 59.7726 37.1491 58.0746C37.1491 56.3765 35.7726 55 34.0746 55C32.3765 55 31 56.3765 31 58.0746C31 59.7726 32.3765 61.1491 34.0746 61.1491ZM34 60C35.1046 60 36 59.1046 36 58C36 56.8954 35.1046 56 34 56C32.8954 56 32 56.8954 32 58C32 59.1046 32.8954 60 34 60Z" fill="white"/>
<path fill-rule="evenodd" clip-rule="evenodd" d="M57.0746 61.1491C58.7726 61.1491 60.1491 59.7726 60.1491 58.0746C60.1491 56.3765 58.7726 55 57.0746 55C55.3765 55 54 56.3765 54 58.0746C54 59.7726 55.3765 61.1491 57.0746 61.1491ZM57 60C58.1046 60 59 59.1046 59 58C59 56.8954 58.1046 56 57 56C55.8954 56 55 56.8954 55 58C55 59.1046 55.8954 60 57 60Z" fill="white"/>
<defs>
<linearGradient id="paint0_linear_711_14" x1="42" y1="-2.5" x2="40" y2="94.5" gradientUnits="userSpaceOnUse">
<stop stop-color="#0077FD"/>
<stop offset="0.765625" stop-color="#C1DEFF" stop-opacity="0.469017"/>
<stop offset="1" stop-color="white" stop-opacity="0"/>
</linearGradient>
</defs>
</svg>
