<svg width="754" height="203" viewBox="0 0 754 203" fill="none" xmlns="http://www.w3.org/2000/svg">
<path d="M99.3739 187.099V177.827H41.3662C31.8567 177.827 24.0114 169.982 24.0114 160.472V41.1284C24.0114 31.619 31.8567 23.7737 41.3662 23.7737H160.71C170.219 23.7737 178.065 31.619 178.065 41.1284V99.1362H187.336C192.567 99.1362 197.321 99.8494 202.076 101.514V41.3662C202.076 18.5435 183.533 0 160.71 0H41.3662C18.5434 0 0 18.5435 0 41.3662V160.71C0 183.533 18.5434 202.076 41.3662 202.076H101.514C100.087 197.084 99.3739 192.091 99.3739 187.099Z" fill="#232323"/>
<path d="M187.336 201.838H127.665C119.581 201.838 112.925 195.182 112.925 187.099V127.427C112.925 119.344 119.581 112.687 127.665 112.687H187.336C195.419 112.687 202.076 119.344 202.076 127.427V187.099C202.076 195.182 195.419 201.838 187.336 201.838Z" fill="#28A8E0"/>
<path d="M358.182 101.6C360.206 101.6 361.218 102.568 361.218 104.504V117.044C361.218 118.98 360.206 119.948 358.182 119.948H300.498C297.066 119.948 294.206 120.256 291.918 120.872C289.718 121.4 287.914 122.368 286.506 123.776C285.186 125.096 284.262 126.944 283.734 129.32C283.206 131.608 282.942 134.468 282.942 137.9V139.22H357.522C359.458 139.22 360.426 140.188 360.426 142.124V152.552C360.426 154.488 359.458 155.456 357.522 155.456H282.942V157.7C282.942 161.132 283.206 164.036 283.734 166.412C284.262 168.7 285.186 170.548 286.506 171.956C287.914 173.276 289.718 174.244 291.918 174.86C294.206 175.388 297.066 175.652 300.498 175.652H358.182C360.206 175.652 361.218 176.62 361.218 178.556V191.096C361.218 193.032 360.206 194 358.182 194H300.102C293.414 194 287.738 193.384 283.074 192.152C278.41 190.92 274.582 188.94 271.59 186.212C268.686 183.396 266.53 179.788 265.122 175.388C263.802 170.9 263.142 165.488 263.142 159.152V136.448C263.142 130.112 263.802 124.744 265.122 120.344C266.53 115.944 268.686 112.38 271.59 109.652C274.582 106.836 278.41 104.812 283.074 103.58C287.738 102.26 293.414 101.6 300.102 101.6H358.182Z" fill="#232323"/>
<path d="M386.775 121.532C388.271 121.532 389.327 122.148 389.943 123.38L420.963 177.896C421.315 178.424 421.799 178.688 422.415 178.688H422.943C423.559 178.688 424.043 178.424 424.395 177.896L455.547 123.38C455.899 122.764 456.295 122.324 456.735 122.06C457.175 121.708 457.835 121.532 458.715 121.532H473.367C474.335 121.532 474.951 121.884 475.215 122.588C475.567 123.204 475.523 123.952 475.083 124.832L438.915 188.06C437.683 190.26 436.275 191.8 434.691 192.68C433.107 193.56 430.819 194 427.827 194H417.003C414.099 194 411.855 193.56 410.271 192.68C408.687 191.8 407.279 190.26 406.047 188.06L369.879 124.832C369.439 123.952 369.351 123.204 369.615 122.588C369.967 121.884 370.627 121.532 371.595 121.532H386.775Z" fill="#232323"/>
<path d="M545.49 121.532C549.978 121.532 553.674 121.928 556.578 122.72C559.57 123.424 561.902 124.656 563.574 126.416C565.334 128.088 566.566 130.332 567.27 133.148C567.974 135.876 568.326 139.22 568.326 143.18V155.72C568.326 158.536 567.71 160.516 566.478 161.66C565.246 162.716 563.354 163.244 560.802 163.244H494.142V166.412C494.142 170.548 495.11 173.54 497.046 175.388C499.07 177.236 502.942 178.16 508.662 178.16H563.706C565.29 178.16 566.082 178.952 566.082 180.536V191.624C566.082 193.208 565.29 194 563.706 194H506.814C500.83 194 495.814 193.516 491.766 192.548C487.806 191.58 484.594 190.04 482.13 187.928C479.754 185.728 478.038 182.956 476.982 179.612C475.926 176.18 475.398 172.088 475.398 167.336V148.328C475.398 143.576 475.926 139.528 476.982 136.184C478.038 132.752 479.754 129.98 482.13 127.868C484.594 125.668 487.806 124.084 491.766 123.116C495.814 122.06 500.83 121.532 506.814 121.532H545.49ZM494.142 151.496H547.602C549.098 151.496 549.846 150.748 549.846 149.252V143.708C549.846 140.98 549.274 139.044 548.13 137.9C546.986 136.756 544.874 136.184 541.794 136.184H508.662C502.942 136.184 499.07 137.108 497.046 138.956C495.11 140.716 494.142 143.708 494.142 147.932V151.496Z" fill="#232323"/>
<path d="M651.363 121.532C657.259 121.532 662.231 122.06 666.279 123.116C670.327 124.084 673.539 125.668 675.915 127.868C678.379 129.98 680.139 132.752 681.195 136.184C682.251 139.528 682.779 143.576 682.779 148.328V191.096C682.779 193.032 681.811 194 679.875 194H666.939C665.003 194 664.035 193.032 664.035 191.096V152.816C664.035 150.088 663.859 147.8 663.507 145.952C663.155 144.016 662.451 142.52 661.395 141.464C660.427 140.32 659.063 139.528 657.303 139.088C655.543 138.56 653.255 138.296 650.439 138.296H615.327C612.511 138.296 610.179 138.56 608.331 139.088C606.483 139.528 604.987 140.32 603.843 141.464C602.787 142.52 602.039 144.016 601.599 145.952C601.159 147.8 600.939 150.088 600.939 152.816V191.096C600.939 193.032 599.971 194 598.035 194H585.099C583.075 194 582.063 193.032 582.063 191.096V148.328C582.063 143.576 582.591 139.528 583.647 136.184C584.703 132.752 586.419 129.98 588.795 127.868C591.259 125.668 594.471 124.084 598.431 123.116C602.479 122.06 607.495 121.532 613.479 121.532H651.363Z" fill="#232323"/>
<path d="M707.963 121.532V104.108C707.963 102.172 708.931 101.204 710.867 101.204H723.935C725.871 101.204 726.839 102.172 726.839 104.108V121.532H749.939C751.523 121.532 752.315 122.324 752.315 123.908V134.732C752.315 136.316 751.523 137.108 749.939 137.108H726.839V167.732C726.839 171.428 727.587 174.156 729.083 175.916C730.579 177.588 733.527 178.424 737.927 178.424H750.731C752.315 178.424 753.107 179.216 753.107 180.8V191.624C753.107 193.208 752.315 194 750.731 194H734.759C729.479 194 725.123 193.516 721.691 192.548C718.259 191.58 715.487 190.04 713.375 187.928C711.351 185.816 709.943 183.088 709.151 179.744C708.359 176.4 707.963 172.396 707.963 167.732V137.108H695.423C693.839 137.108 693.047 136.316 693.047 134.732V123.908C693.047 122.324 693.839 121.532 695.423 121.532H707.963Z" fill="#232323"/>
</svg>
