<svg width="80" height="80" viewBox="0 0 80 80" fill="none" xmlns="http://www.w3.org/2000/svg">
<circle cx="40" cy="40" r="40" fill="#7BB9FF"/>
<circle cx="40" cy="40" r="40" fill="url(#paint0_linear)"/>
<path d="M61.0321 26.3269H46.4723C45.138 26.3269 43.9563 26.9895 43.2367 28.0021C42.517 26.9895 41.3354 26.3269 40.0012 26.3269H31.9384L23.5881 17.9766C23.588 17.9765 23.5879 17.9764 23.5878 17.9763C23.5877 17.9762 23.5876 17.9761 23.5874 17.976L21.2999 15.6885C20.8561 15.2445 20.2658 15 19.6381 15C19.0104 15 18.4201 15.2445 17.9763 15.6884L15.6885 17.9763C15.2445 18.4201 15 19.0103 15 19.638C15 20.2658 15.2445 20.8561 15.6884 21.2999L17.9758 23.5874C17.9759 23.5875 17.976 23.5877 17.9762 23.5878C17.9763 23.5879 17.9765 23.588 17.9766 23.5882L22.2833 27.8949C21.7631 28.58 21.4735 29.4216 21.4735 30.2948V43.39C21.4735 43.7946 21.8015 44.1225 22.206 44.1225C22.6104 44.1225 22.9384 43.7946 22.9384 43.39V30.2947C22.9384 29.8121 23.0787 29.3447 23.3341 28.9455L30.5308 36.1423C30.5481 36.1597 30.5663 36.176 30.5852 36.1914C30.6968 36.2823 30.8342 36.3388 30.9771 36.3532C31.0009 36.3556 31.0248 36.3567 31.0486 36.3567H35.3209L36.2504 37.2862C36.3934 37.4292 36.5809 37.5007 36.7683 37.5007C36.7856 37.5007 38.3835 37.4982 38.3835 37.4982C38.788 37.4982 39.1159 37.1704 39.1159 36.7658C39.1159 36.3612 38.788 36.0334 38.3835 36.0334H37.0692L36.3568 35.321V31.0489C36.3568 31.0249 36.3557 31.001 36.3533 30.9771C36.3389 30.8341 36.2825 30.6965 36.1914 30.5851C36.176 30.5662 36.1597 30.5481 36.1423 30.5308L33.4033 27.7918H40.0013C41.3814 27.7918 42.5043 28.9146 42.5044 30.2947V57.9563C41.8211 57.3991 40.9496 57.0643 40.0013 57.0643H22.9384V46.3196C22.9384 45.915 22.6104 45.5872 22.206 45.5872C21.8015 45.5872 21.4735 45.915 21.4735 46.3196V61.032C21.4735 63.2199 23.2536 65 25.4415 65H53.9888C54.3934 65 54.7212 64.6722 54.7212 64.2676C54.7212 63.863 54.3934 63.5352 53.9888 63.5352H43.9692L43.9693 61.7645H57.7967C58.2013 61.7645 58.5291 61.4366 58.5291 61.032C58.5291 60.6274 58.2013 60.2996 57.7967 60.2996H44.0789C44.3929 59.2757 45.347 58.529 46.4724 58.529H63.5352V61.032C63.5352 62.4123 62.4123 63.5352 61.0321 63.5352H56.9185C56.5139 63.5352 56.186 63.863 56.186 64.2676C56.186 64.6722 56.5139 65 56.9185 65H61.0321C63.22 65 65 63.22 65 61.032V30.2947C65 28.1068 63.22 26.3269 61.0321 26.3269V26.3269ZM16.7241 20.264C16.5569 20.0968 16.4648 19.8745 16.4648 19.638C16.4648 19.4016 16.5569 19.1793 16.7242 19.0121L19.0121 16.7241C19.1792 16.5569 19.4016 16.4648 19.6381 16.4648C19.8745 16.4648 20.0969 16.5569 20.2642 16.7242L22.034 18.4941L20.2646 20.2636C20.2644 20.2638 20.2643 20.2639 20.2641 20.2641C20.2639 20.2643 20.2638 20.2644 20.2636 20.2646L18.4941 22.034L16.7241 20.264ZM31.0486 34.5886L19.53 23.0698L20.782 21.8178L32.3007 33.3365L31.0486 34.5886ZM34.8919 34.8919H32.8169L34.8919 32.8169V34.8919ZM34.5886 31.0486L33.3365 32.3007L21.8179 20.7819L23.0699 19.53L31.1161 27.5761L31.1182 27.5781L34.5886 31.0486ZM42.5044 63.5352H25.4415C24.0613 63.5352 22.9384 62.4123 22.9384 61.032V58.529H40.0013C41.1267 58.529 42.0808 59.2757 42.3947 60.2996H28.677C28.2725 60.2996 27.9445 60.6274 27.9445 61.032C27.9445 61.4366 28.2725 61.7645 28.677 61.7645H42.5043V63.5352H42.5044ZM63.5352 57.0642H46.4723C45.5239 57.0642 44.6525 57.399 43.9691 57.9562L43.9692 30.2946C43.9692 28.9145 45.0921 27.7917 46.4723 27.7917H61.0321C62.4123 27.7917 63.5352 28.9146 63.5352 30.2947V57.0642Z" fill="white"/>
<path d="M51.3256 32.645H56.1788C56.5834 32.645 56.9113 32.3172 56.9113 31.9126C56.9113 31.508 56.5834 31.1802 56.1788 31.1802H51.3256C50.921 31.1802 50.5932 31.508 50.5932 31.9126C50.5932 32.3171 50.921 32.645 51.3256 32.645Z" fill="white"/>
<path d="M59.4143 36.0334H48.09C47.6854 36.0334 47.3576 36.3612 47.3576 36.7658C47.3576 37.1704 47.6854 37.4982 48.09 37.4982H59.4143C59.8189 37.4982 60.1468 37.1704 60.1468 36.7658C60.1468 36.3612 59.8188 36.0334 59.4143 36.0334Z" fill="white"/>
<path d="M59.4143 39.2688H48.09C47.6854 39.2688 47.3576 39.5967 47.3576 40.0013C47.3576 40.4058 47.6854 40.7337 48.09 40.7337H59.4143C59.8189 40.7337 60.1468 40.4058 60.1468 40.0013C60.1468 39.5967 59.8188 39.2688 59.4143 39.2688V39.2688Z" fill="white"/>
<path d="M59.4143 42.5044H48.09C47.6854 42.5044 47.3576 42.8323 47.3576 43.2368C47.3576 43.6414 47.6854 43.9692 48.09 43.9692H59.4143C59.8189 43.9692 60.1468 43.6414 60.1468 43.2368C60.1468 42.8322 59.8188 42.5044 59.4143 42.5044Z" fill="white"/>
<path d="M59.4143 45.7398H48.09C47.6854 45.7398 47.3576 46.0677 47.3576 46.4723C47.3576 46.8768 47.6854 47.2047 48.09 47.2047H59.4143C59.8189 47.2047 60.1468 46.8768 60.1468 46.4723C60.1468 46.0678 59.8188 45.7398 59.4143 45.7398Z" fill="white"/>
<path d="M59.4144 48.9754H49.7078C49.3032 48.9754 48.9754 49.3032 48.9754 49.7078C48.9754 50.1124 49.3032 50.4402 49.7078 50.4402H59.4144C59.819 50.4402 60.1468 50.1124 60.1468 49.7078C60.1468 49.3032 59.8189 48.9754 59.4144 48.9754Z" fill="white"/>
<defs>
<linearGradient id="paint0_linear" x1="42" y1="-2.5" x2="40" y2="94.5" gradientUnits="userSpaceOnUse">
<stop stop-color="#0077FD"/>
<stop offset="0.765625" stop-color="#C1DEFF" stop-opacity="0.469017"/>
<stop offset="1" stop-color="white" stop-opacity="0"/>
</linearGradient>
</defs>
</svg>
