<svg width="24" height="24" viewBox="0 0 24 24" fill="none" xmlns="http://www.w3.org/2000/svg">
<path d="M5.69492 2.89655C5.69492 4.49627 4.42006 5.7931 2.84746 5.7931C1.27485 5.7931 0 4.49627 0 2.89655C0 1.29683 1.27485 0 2.84746 0C4.42006 0 5.69492 1.29683 5.69492 2.89655Z" fill="#252525"/>
<path d="M14.6441 2.89655C14.6441 4.49627 13.3692 5.7931 11.7966 5.7931C10.224 5.7931 8.94915 4.49627 8.94915 2.89655C8.94915 1.29683 10.224 0 11.7966 0C13.3692 0 14.6441 1.29683 14.6441 2.89655Z" fill="#252525"/>
<path d="M24 2.89655C24 4.49627 22.7251 5.7931 21.1525 5.7931C19.5799 5.7931 18.3051 4.49627 18.3051 2.89655C18.3051 1.29683 19.5799 0 21.1525 0C22.7251 0 24 1.29683 24 2.89655Z" fill="#252525"/>
<path d="M5.69492 12C5.69492 13.5997 4.42006 14.8966 2.84746 14.8966C1.27485 14.8966 0 13.5997 0 12C0 10.4003 1.27485 9.10345 2.84746 9.10345C4.42006 9.10345 5.69492 10.4003 5.69492 12Z" fill="#252525"/>
<path d="M14.6441 12C14.6441 13.5997 13.3692 14.8966 11.7966 14.8966C10.224 14.8966 8.94915 13.5997 8.94915 12C8.94915 10.4003 10.224 9.10345 11.7966 9.10345C13.3692 9.10345 14.6441 10.4003 14.6441 12Z" fill="#252525"/>
<path d="M24 12C24 13.5997 22.7251 14.8966 21.1525 14.8966C19.5799 14.8966 18.3051 13.5997 18.3051 12C18.3051 10.4003 19.5799 9.10345 21.1525 9.10345C22.7251 9.10345 24 10.4003 24 12Z" fill="#252525"/>
<path d="M5.69492 21.1034C5.69492 22.7032 4.42006 24 2.84746 24C1.27485 24 0 22.7032 0 21.1034C0 19.5037 1.27485 18.2069 2.84746 18.2069C4.42006 18.2069 5.69492 19.5037 5.69492 21.1034Z" fill="#252525"/>
<path d="M14.6441 21.1034C14.6441 22.7032 13.3692 24 11.7966 24C10.224 24 8.94915 22.7032 8.94915 21.1034C8.94915 19.5037 10.224 18.2069 11.7966 18.2069C13.3692 18.2069 14.6441 19.5037 14.6441 21.1034Z" fill="#252525"/>
<path d="M24 21.1034C24 22.7032 22.7251 24 21.1525 24C19.5799 24 18.3051 22.7032 18.3051 21.1034C18.3051 19.5037 19.5799 18.2069 21.1525 18.2069C22.7251 18.2069 24 19.5037 24 21.1034Z" fill="#252525"/>
</svg>
