<svg width="350" height="472" viewBox="0 0 350 472" fill="none" xmlns="http://www.w3.org/2000/svg">
<path d="M21.0189 276.786L170.221 306.758L318.781 276.786L170.221 247.785L21.0189 276.786Z" fill="url(#paint0_linear_1002_2)"/>
<path d="M170.221 247.582V314.29L315.5 276.891L170.221 247.582Z" fill="url(#paint1_linear_1002_2)"/>
<path d="M21.0189 276.891L170.221 247.582L318.781 276.891" stroke="#E6E7E8" stroke-width="4" stroke-miterlimit="10" stroke-linecap="round" stroke-linejoin="round"/>
<path d="M171.244 63.2472C171.244 63.2472 161.581 52.6726 158.905 45.6934C155.667 37.2264 153.924 21.0437 151.619 12.2777C150.496 7.99687 145.836 -0.295052 134.882 1.36042C122.112 3.29301 106.936 5.74339 96.8282 8.45632C87.5663 10.9432 77.8887 26.4039 81.3018 40.129C86.0421 59.207 102.575 61.5479 112.69 65.0995C126.51 69.9492 171.244 63.2472 171.244 63.2472Z" fill="url(#paint2_linear_1002_2)"/>
<path d="M167.138 61.5698C167.138 61.5698 158.927 55.0864 155.047 45.2193C151.43 36.0303 152.429 11.9932 144.1 6.69867C139.426 3.7305 131.732 3.57735 125.657 11.1546C119.655 18.6443 118.284 28.1541 121.536 37.6056C124.957 47.5384 131.863 54.7729 138.222 58.04C152.21 65.2234 167.138 61.5698 167.138 61.5698Z" fill="url(#paint3_linear_1002_2)"/>
<path d="M137.478 4.79516C139.965 4.79516 142.27 5.52445 144.1 6.6913C152.429 11.9859 151.437 36.023 155.047 45.2119C158.927 55.0791 167.138 61.5624 167.138 61.5624C167.138 61.5624 163.346 62.4886 157.789 62.4886C152.327 62.4886 145.158 61.5915 138.215 58.0254C131.863 54.7582 124.957 47.5237 121.529 37.5909C118.276 28.1394 119.647 18.6296 125.649 11.1399C129.347 6.54544 133.628 4.79516 137.478 4.79516ZM137.478 1.14876C132.009 1.14876 126.802 3.89085 122.813 8.86455C116.132 17.1929 114.411 28.103 118.087 38.7869C121.442 48.5374 128.523 57.1502 136.552 61.278C142.751 64.4649 150.095 66.1423 157.789 66.1423C163.718 66.1423 167.838 65.1504 168.006 65.1067L175.255 63.3272L169.392 58.6963C169.326 58.638 161.887 52.6506 158.431 43.87C157.3 40.9894 156.622 35.9792 155.9 30.67C154.383 19.4829 152.822 7.90919 146.04 3.60644C143.517 2.00931 140.549 1.14876 137.478 1.14876Z" fill="#FF4B33"/>
<path d="M63.7191 43.0606C58.8767 45.8465 53.7426 52.5923 56.0617 64.042C58.2568 74.8792 70.3993 79.9622 77.0723 81.0926C90.5567 83.3753 131.017 72.0277 131.017 72.0277L151.24 66.6675C151.24 66.6675 133.949 62.6345 124.709 56.3773C116.76 51.0025 118.16 39.5309 108.271 37.1462C103.086 35.8991 91.2057 37.7588 82.9794 39.1444C74.6146 40.5592 67.0884 41.128 63.7191 43.0606Z" fill="url(#paint4_linear_1002_2)"/>
<path d="M153.661 66.1861C153.661 66.1861 131.389 65.5371 121.106 57.1212C114.812 51.9651 114.309 39.0715 104.908 39.0934C97.5573 39.1152 89.2144 53.8394 97.025 65.136C102.349 72.8299 109.824 75.7032 118.254 73.9894C127.144 72.1954 153.661 66.1861 153.661 66.1861Z" fill="url(#paint5_linear_1002_2)"/>
<path d="M179.164 63.2472C179.164 63.2472 188.827 52.6726 191.503 45.6934C194.741 37.2265 195.478 19.8988 197.782 11.1328C198.905 6.85192 203.566 -1.43999 214.519 0.215472C227.289 2.14807 242.509 4.4453 252.573 7.31137C260.274 9.49921 272.519 26.4039 269.106 40.129C264.366 59.207 247.833 61.548 237.718 65.0996C223.891 69.9493 179.164 63.2472 179.164 63.2472Z" fill="url(#paint6_linear_1002_2)"/>
<path d="M183.262 61.5698C183.262 61.5698 191.474 55.0865 195.354 45.2194C198.971 36.0304 197.972 11.9933 206.3 6.69875C210.975 3.73057 218.669 3.57743 224.744 11.1547C230.746 18.6444 232.117 28.1542 228.864 37.6057C225.444 47.5385 218.538 54.7729 212.178 58.0401C198.191 65.2235 183.262 61.5698 183.262 61.5698Z" fill="url(#paint7_linear_1002_2)"/>
<path d="M286.682 43.0606C291.524 45.8465 296.659 52.5923 294.339 64.042C292.144 74.8792 280.002 79.9622 273.329 81.0926C259.845 83.3753 219.384 72.0277 219.384 72.0277L199.161 66.6675C199.161 66.6675 216.452 62.6345 225.692 56.3773C233.642 51.0025 232.241 39.5309 242.13 37.1462C247.315 35.8991 259.195 37.7588 267.422 39.1444C275.787 40.5592 283.313 41.128 286.682 43.0606Z" fill="url(#paint8_linear_1002_2)"/>
<path d="M196.747 66.1861C196.747 66.1861 219.019 65.5371 229.302 57.1212C235.596 51.9651 236.099 39.0715 245.499 39.0934C252.851 39.1152 261.193 53.8394 253.383 65.136C248.059 72.8299 240.584 75.7032 232.154 73.9894C223.264 72.1954 196.747 66.1861 196.747 66.1861Z" fill="url(#paint9_linear_1002_2)"/>
<path d="M2 133.9L175.372 99.0769L348 133.9H2Z" fill="#818284"/>
<path d="M175.372 149.63V119.467L2 109.389V133.9L175.372 149.63Z" fill="url(#paint10_linear_1002_2)"/>
<path d="M348 133.9V109.389L175.372 119.467V149.63L348 133.9Z" fill="url(#paint11_linear_1002_2)"/>
<path d="M175.372 99.0768V56.1513L348 109.389V133.9L175.372 99.0768Z" fill="url(#paint12_linear_1002_2)"/>
<path d="M175.372 99.0768V56.1514L2 109.389V133.9L175.372 99.0768Z" fill="url(#paint13_linear_1002_2)"/>
<path d="M129.777 70.1533V108.236L148.41 104.495V64.4285L129.777 70.1533Z" fill="#D32027"/>
<path d="M90.9283 82.0844V116.04L108.818 112.444V76.5856L90.9283 82.0844Z" fill="#D32027"/>
<path d="M52.5685 93.8624V123.741L69.218 120.401V88.7501L52.5685 93.8624Z" fill="#D32027"/>
<path d="M17.1979 104.721V130.851L31.5137 127.971V100.324L17.1979 104.721Z" fill="#D32027"/>
<path d="M201.984 64.363V104.444L220.617 108.207V70.1097L201.984 64.363Z" fill="#EB2027"/>
<path d="M241.576 76.5711V112.437L259.465 116.04V82.0918L241.576 76.5711Z" fill="#EB2027"/>
<path d="M281.176 88.7866V120.423L297.826 123.777V93.9207L281.176 88.7866Z" fill="#EB2027"/>
<path d="M318.88 100.411V128.029L333.196 130.917V104.823L318.88 100.411Z" fill="#EB2027"/>
<path d="M2 133.9L175.372 99.0769L348 133.9" stroke="white" stroke-width="4" stroke-miterlimit="10" stroke-linecap="round" stroke-linejoin="round"/>
<path d="M175.372 56.1513V99.1789" stroke="white" stroke-width="4" stroke-miterlimit="10" stroke-linecap="round" stroke-linejoin="round"/>
<path d="M61.1448 177.941C61.1448 177.941 78.7934 144.963 77.1088 124.23C76.4816 116.507 72.3028 100.915 73.827 93.3156C74.8772 88.0575 93.5978 81.7054 104.821 78.0298C124.264 71.6705 137.099 67.1563 137.099 67.1563C137.099 67.1563 121.383 70.2922 106.185 74.2886C91.1255 78.2486 83.1472 79.3426 75.271 80.6334C66.7894 82.019 44.6995 81.2679 39.6164 88.2033C33.454 96.6119 48.5866 108.383 46.3404 125.2C44.8746 136.212 25.3298 169.452 25.3298 169.452L27.0582 171.611L54.1875 150.717L58.3954 176.738L61.1448 177.941Z" fill="#910029"/>
<path d="M58.4027 176.731C58.4027 176.731 75.3366 143.366 73.6592 122.625C73.0321 114.902 69.0356 99.9592 70.5525 92.3601C73.353 78.3506 107.454 73.9749 96.6754 76.666C77.6484 81.4209 67.7448 76.3013 65.7247 76.6295C57.2432 78.0151 43.54 78.3871 38.4569 85.3225C32.2945 93.7311 41.4251 107.157 39.1862 123.974C37.3338 137.853 25.3298 169.445 25.3298 169.445L49.4326 148.704L58.4027 176.731Z" fill="url(#paint14_linear_1002_2)"/>
<path d="M289.256 177.941C289.256 177.941 271.608 144.963 273.292 124.23C273.919 116.507 278.098 100.915 276.574 93.3156C275.524 88.0575 256.803 81.7054 245.58 78.0298C226.137 71.6705 213.302 67.1563 213.302 67.1563C213.302 67.1563 229.018 70.2922 244.216 74.2886C259.276 78.2486 267.254 79.3426 275.13 80.6334C283.612 82.019 305.702 81.2679 310.785 88.2033C316.947 96.6119 301.814 108.383 304.061 125.2C305.526 136.212 325.071 169.452 325.071 169.452L323.343 171.611L296.214 150.717L291.998 176.731L289.256 177.941Z" fill="#910029"/>
<path d="M291.998 176.731C291.998 176.731 275.064 143.366 276.742 122.625C277.369 114.902 281.365 99.9592 279.848 92.3601C277.048 78.3506 242.947 73.9749 253.726 76.666C272.753 81.4209 282.656 76.3013 284.676 76.6295C293.158 78.0151 306.861 78.3871 311.944 85.3225C318.106 93.7311 308.976 107.157 311.215 123.974C313.067 137.853 325.071 169.445 325.071 169.445L300.968 148.704L291.998 176.731Z" fill="url(#paint15_linear_1002_2)"/>
<path d="M270.242 171.623H269.869V141.336C269.869 131.293 259.352 123.153 246.378 123.153H103.991C91.0171 123.153 80.5001 131.293 80.5001 141.336V171.623H80.1275C78.4343 171.623 77.0602 172.685 77.0602 173.997V194.948C77.0602 196.259 78.4324 197.322 80.1275 197.322H80.5001V202.319H80.1275C78.4343 202.319 77.0602 203.382 77.0602 204.694V225.645C77.0602 226.956 78.4324 228.019 80.1275 228.019H80.5001V411.497C80.5001 421.54 91.0171 429.681 103.991 429.681H246.378C259.352 429.681 269.869 421.54 269.869 411.497V210.17H270.242C271.935 210.17 273.309 209.108 273.309 207.796V173.997C273.309 172.685 271.935 171.623 270.242 171.623Z" fill="#333343"/>
<path d="M243.952 425.18H106.414C95.8769 425.18 87.3353 418.569 87.3353 410.412V142.418C87.3353 134.261 95.8769 127.65 106.414 127.65H243.952C254.49 127.65 263.031 134.261 263.031 142.418V410.411C263.033 418.569 254.492 425.18 243.952 425.18Z" fill="white"/>
<path d="M130.902 237.638C130.231 238.855 129.379 239.999 128.347 241.029L117.691 251.652L109.665 243.65C117.151 244.239 123.405 241.371 128.431 235.042C128.643 235.376 129.604 236.357 130.899 237.638H130.902Z" fill="#2E3191"/>
<path d="M130.902 237.638C130.231 238.855 129.38 239.999 128.347 241.029L117.691 251.652C119.87 248.508 121.514 244.784 122.616 240.474C124.709 239.1 126.65 237.291 128.432 235.044C128.643 235.378 129.604 236.36 130.899 237.641L130.902 237.638Z" fill="white"/>
<path d="M109.665 243.65L115.786 237.548C116.391 237.704 117.025 237.79 117.678 237.79C121.776 237.79 125.098 234.479 125.098 230.394C125.098 229.849 125.038 229.316 124.926 228.806L125.55 227.937C127.471 232.675 128.432 235.042 128.432 235.042C123.405 241.371 117.151 244.239 109.665 243.65Z" fill="#1B75BB"/>
<path d="M123.732 234.668C124.591 233.462 125.097 231.987 125.097 230.391C125.097 230.012 125.067 229.641 125.013 229.281L125.749 228.427L128.432 235.039C126.646 237.286 124.708 239.095 122.616 240.468C123.084 238.638 123.456 236.704 123.732 234.665V234.668V234.668Z" fill="white"/>
<path d="M128.985 220.468C134.221 226.368 134.007 235.386 128.346 241.029L117.691 251.651C122.201 246.312 126.306 236.187 124.974 229.036C124.714 226.973 123.055 224.174 120.154 223.422C122.978 219.46 125.105 218.683 128.985 220.471V220.468Z" fill="#2E3191"/>
<path d="M128.985 220.468C133.198 225.215 133.88 231.982 131.038 237.385C130.074 233.515 127.933 230.258 124.606 227.616C123.933 225.853 122.423 224.011 120.153 223.42C120.774 222.547 121.363 221.829 121.944 221.258L123.817 219.927C125.284 219.284 126.877 219.497 128.985 220.468Z" fill="white"/>
<path d="M113.059 216.111C118.267 214.438 124.208 215.663 128.343 219.788C133.121 224.55 134.02 231.72 131.036 237.387C130.551 230.962 126.25 225.468 120.151 223.422C119.378 223.15 118.545 223.001 117.678 223.001C113.581 223.001 110.259 226.312 110.259 230.397C110.259 231.261 110.409 232.091 110.682 232.862L109.552 233.988C106.927 227.82 108.094 221.861 113.056 216.114L113.059 216.111Z" fill="#3D64C4"/>
<path d="M113.059 216.111C114.707 215.58 116.431 215.343 118.149 215.396C114.255 217.902 112.082 221.474 111.626 226.117C110.767 227.326 110.261 228.801 110.261 230.394C110.261 231.203 110.392 231.982 110.634 232.708L109.389 232.196L108.353 229.794C107.662 225.106 109.23 220.543 113.061 216.109L113.059 216.111Z" fill="white"/>
<path d="M105.008 238.518C101.257 232.704 101.935 224.873 107.039 219.787C109.98 216.855 113.837 215.387 117.694 215.387C111.653 218.64 108.695 225.593 110.47 232.139C110.528 232.384 110.601 232.624 110.684 232.861L105.007 238.521V238.518H105.008Z" fill="#6D94E2"/>
<path d="M143.015 227.085C144.667 225.413 146.991 224.358 149.521 224.358C152.076 224.358 154.373 225.412 156.051 227.085C157.677 228.758 158.736 231.049 158.736 233.596C158.736 236.144 157.677 238.435 156.051 240.107C154.373 241.806 152.076 242.835 149.521 242.835C146.991 242.835 144.667 241.806 143.015 240.107C141.389 238.435 140.33 236.144 140.33 233.596C140.33 231.048 141.389 228.758 143.015 227.085ZM154.193 228.938C152.979 227.729 151.301 226.982 149.521 226.982C147.739 226.982 146.087 227.729 144.9 228.938C143.712 230.122 142.964 231.769 142.964 233.596C142.964 235.423 143.712 237.07 144.9 238.254C146.087 239.463 147.739 240.209 149.521 240.209C151.301 240.209 152.979 239.463 154.193 238.254C155.354 237.07 156.103 235.449 156.103 233.596C156.103 231.744 155.354 230.122 154.193 228.938Z" fill="#231F20"/>
<path d="M161.439 242.604V224.563L163.452 224.589L172.255 237.277V224.589H174.837V242.604H172.771L164.046 230.019V242.604H161.439Z" fill="#231F20"/>
<path d="M180.438 240.004H188.827V242.603H177.805V224.615H188.802V227.214H180.438V232.283H188.621V234.908H180.438V240.004Z" fill="#231F20"/>
<path d="M201.114 229.247C200.753 227.626 198.997 226.931 197.423 226.957C196.21 226.983 194.867 227.394 194.145 228.321C193.783 228.784 193.654 229.376 193.706 229.993C193.834 231.847 195.874 232.078 197.81 232.258C200.288 232.567 203.36 233.21 204.056 236.093C204.134 236.479 204.186 236.916 204.186 237.278C204.186 240.752 200.726 242.758 197.474 242.758C194.687 242.758 191.305 241.111 190.969 237.895L190.943 237.406L193.576 237.354L193.602 237.74V237.637C193.783 239.31 195.822 240.184 197.5 240.184C199.436 240.184 201.552 239.105 201.552 237.251C201.552 237.071 201.527 236.865 201.475 236.633C201.166 235.269 199.307 235.038 197.5 234.857C194.686 234.574 191.382 233.957 191.098 230.2V230.226C190.995 229.016 191.305 227.806 192.079 226.802C193.292 225.233 195.461 224.409 197.552 224.409C200.339 224.409 203.231 225.85 203.696 229.144L201.114 229.247Z" fill="#231F20"/>
<path d="M210.8 242.68V227.214H205.328V224.588H218.854V227.214H213.407V242.68H210.8Z" fill="#231F20"/>
<path d="M221.299 227.085C222.951 225.413 225.275 224.358 227.804 224.358C230.36 224.358 232.658 225.412 234.336 227.085C235.961 228.758 237.02 231.049 237.02 233.596C237.02 236.144 235.962 238.435 234.336 240.107C232.658 241.806 230.359 242.835 227.804 242.835C225.274 242.835 222.951 241.806 221.299 240.107C219.673 238.435 218.615 236.144 218.615 233.596C218.615 231.048 219.673 228.758 221.299 227.085ZM232.477 228.938C231.263 227.729 229.585 226.982 227.805 226.982C226.024 226.982 224.371 227.729 223.184 228.938C221.996 230.122 221.248 231.769 221.248 233.596C221.248 235.423 221.996 237.07 223.184 238.254C224.372 239.463 226.024 240.209 227.805 240.209C229.586 240.209 231.263 239.463 232.477 238.254C233.638 237.07 234.387 235.449 234.387 233.596C234.387 231.744 233.638 230.122 232.477 228.938Z" fill="#231F20"/>
<path d="M245.644 224.589C249.542 224.589 251.504 227.6 251.504 230.61C251.504 233.622 249.542 236.607 245.644 236.607H241.668V242.604H239.035V224.589H245.644V224.589ZM245.644 234.034C247.837 234.034 248.922 232.335 248.922 230.636C248.922 228.912 247.837 227.214 245.644 227.214H241.668V234.034H245.644Z" fill="#231F20"/>
<path d="M170.221 306.757V471.103L21.0189 415.031V276.786L170.221 306.757Z" fill="url(#paint16_linear_1002_2)"/>
<path d="M170.221 306.757V471.103L318.781 415.031V276.786L170.221 306.757Z" fill="url(#paint17_linear_1002_2)"/>
<path d="M131.844 299.048V456.682L147.591 462.6V302.217L131.844 299.048Z" fill="#D41C24"/>
<path d="M99.0125 292.454V444.347L114.13 450.029V295.492L99.0125 292.454Z" fill="#D41C24"/>
<path d="M66.6 285.945V432.163L80.6673 437.451V288.773L66.6 285.945Z" fill="#D41C24"/>
<path d="M36.7069 279.942V420.93L48.8058 425.477V282.37L36.7069 279.942Z" fill="#D41C24"/>
<path d="M192.864 302.191V462.561L208.611 456.616V299.015L192.864 302.191Z" fill="#ED1C24"/>
<path d="M226.326 295.44V449.93L241.443 444.229V292.395L226.326 295.44Z" fill="#ED1C24"/>
<path d="M259.789 288.688V437.3L273.856 431.992V285.854L259.789 288.688Z" fill="#ED1C24"/>
<path d="M291.65 282.264V425.273L303.749 420.707V279.824L291.65 282.264Z" fill="#ED1C24"/>
<path d="M21.0189 276.786L170.221 306.757L318.781 276.786" stroke="white" stroke-width="4" stroke-miterlimit="10" stroke-linecap="round" stroke-linejoin="round"/>
<path d="M173.685 308.202L173.685 460.826" stroke="white" stroke-width="4" stroke-miterlimit="10" stroke-linecap="round" stroke-linejoin="round"/>
<defs>
<linearGradient id="paint0_linear_1002_2" x1="148.849" y1="353.491" x2="177.792" y2="248.029" gradientUnits="userSpaceOnUse">
<stop stop-color="#BCBEC0"/>
<stop offset="0.2667" stop-color="#E6E7E8"/>
<stop offset="0.6667" stop-color="#BCBEC0"/>
<stop offset="1" stop-color="#939598"/>
</linearGradient>
<linearGradient id="paint1_linear_1002_2" x1="232.86" y1="244.016" x2="262.992" y2="399.435" gradientUnits="userSpaceOnUse">
<stop stop-color="#BCBEC0"/>
<stop offset="0.3455" stop-color="#E6E7E8"/>
<stop offset="0.6667" stop-color="#BCBEC0"/>
<stop offset="1" stop-color="#939598"/>
</linearGradient>
<linearGradient id="paint2_linear_1002_2" x1="129.22" y1="5.16971" x2="125.003" y2="60.2677" gradientUnits="userSpaceOnUse">
<stop stop-color="#ED1C24"/>
<stop offset="0.5273" stop-color="#CD1F2A"/>
<stop offset="1" stop-color="#851E2D"/>
</linearGradient>
<linearGradient id="paint3_linear_1002_2" x1="128.075" y1="-29.8633" x2="148.868" y2="72.6372" gradientUnits="userSpaceOnUse">
<stop stop-color="#3F1E2D"/>
<stop offset="0.2179" stop-color="#5B1D2C"/>
<stop offset="0.5542" stop-color="#7F1B2C"/>
<stop offset="0.8269" stop-color="#961A2B"/>
<stop offset="1" stop-color="#9E1A2B"/>
</linearGradient>
<linearGradient id="paint4_linear_1002_2" x1="102.279" y1="36.1251" x2="103.965" y2="77.4327" gradientUnits="userSpaceOnUse">
<stop stop-color="#ED1C24"/>
<stop offset="0.5273" stop-color="#CD1F2A"/>
<stop offset="1" stop-color="#851E2D"/>
</linearGradient>
<linearGradient id="paint5_linear_1002_2" x1="89.3781" y1="47.396" x2="137.311" y2="71.4767" gradientUnits="userSpaceOnUse">
<stop stop-color="#691E2D"/>
<stop offset="0.0818" stop-color="#701D2D"/>
<stop offset="0.43" stop-color="#891C2C"/>
<stop offset="0.7463" stop-color="#991A2B"/>
<stop offset="1" stop-color="#9E1A2B"/>
</linearGradient>
<linearGradient id="paint6_linear_1002_2" x1="221.002" y1="4.0493" x2="225.296" y2="60.1544" gradientUnits="userSpaceOnUse">
<stop stop-color="#ED1C24"/>
<stop offset="0.5273" stop-color="#CD1F2A"/>
<stop offset="1" stop-color="#851E2D"/>
</linearGradient>
<linearGradient id="paint7_linear_1002_2" x1="231.411" y1="-74.6314" x2="210.618" y2="27.8679" gradientUnits="userSpaceOnUse">
<stop stop-color="#3F1E2D"/>
<stop offset="0.0892" stop-color="#4D1D2D"/>
<stop offset="0.3511" stop-color="#701C2C"/>
<stop offset="0.5978" stop-color="#891B2B"/>
<stop offset="0.821" stop-color="#991A2B"/>
<stop offset="1" stop-color="#9E1A2B"/>
</linearGradient>
<linearGradient id="paint8_linear_1002_2" x1="248.125" y1="36.1254" x2="246.439" y2="77.433" gradientUnits="userSpaceOnUse">
<stop stop-color="#ED1C24"/>
<stop offset="0.5273" stop-color="#CD1F2A"/>
<stop offset="1" stop-color="#851E2D"/>
</linearGradient>
<linearGradient id="paint9_linear_1002_2" x1="261.025" y1="47.3958" x2="213.093" y2="71.4765" gradientUnits="userSpaceOnUse">
<stop stop-color="#691E2D"/>
<stop offset="0.0818" stop-color="#701D2D"/>
<stop offset="0.43" stop-color="#891C2C"/>
<stop offset="0.7463" stop-color="#991A2B"/>
<stop offset="1" stop-color="#9E1A2B"/>
</linearGradient>
<linearGradient id="paint10_linear_1002_2" x1="-14.3493" y1="117.685" x2="182.547" y2="135.187" gradientUnits="userSpaceOnUse">
<stop stop-color="#929497"/>
<stop offset="0.7879" stop-color="#BCBDBF"/>
<stop offset="0.9939" stop-color="#A7A8AB"/>
</linearGradient>
<linearGradient id="paint11_linear_1002_2" x1="349.641" y1="118.366" x2="187.748" y2="133.68" gradientUnits="userSpaceOnUse">
<stop stop-color="#929497"/>
<stop offset="1" stop-color="#BCBDBF"/>
</linearGradient>
<linearGradient id="paint12_linear_1002_2" x1="175.373" y1="95.0279" x2="348.001" y2="95.0279" gradientUnits="userSpaceOnUse">
<stop stop-color="#F1F1F1"/>
<stop offset="0.497" stop-color="white"/>
<stop offset="1" stop-color="#E6E6E6"/>
</linearGradient>
<linearGradient id="paint13_linear_1002_2" x1="1.99759" y1="95.0279" x2="175.373" y2="95.0279" gradientUnits="userSpaceOnUse">
<stop stop-color="#D1D2D3"/>
<stop offset="0.497" stop-color="#E6E6E6"/>
<stop offset="1" stop-color="#BCBDBF"/>
</linearGradient>
<linearGradient id="paint14_linear_1002_2" x1="50.0736" y1="164.065" x2="69.2652" y2="75.4879" gradientUnits="userSpaceOnUse">
<stop stop-color="#ED1C24"/>
<stop offset="0.5273" stop-color="#CD1F2A"/>
<stop offset="1" stop-color="#851E2D"/>
</linearGradient>
<linearGradient id="paint15_linear_1002_2" x1="300.33" y1="164.065" x2="281.139" y2="75.4883" gradientUnits="userSpaceOnUse">
<stop stop-color="#ED1C24"/>
<stop offset="0.5273" stop-color="#CD1F2A"/>
<stop offset="1" stop-color="#851E2D"/>
</linearGradient>
<linearGradient id="paint16_linear_1002_2" x1="175.424" y1="316.868" x2="25.4842" y2="424.11" gradientUnits="userSpaceOnUse">
<stop stop-color="#D1D3D4"/>
<stop offset="0.497" stop-color="#E6E7E8"/>
<stop offset="1" stop-color="#BCBEC0"/>
</linearGradient>
<linearGradient id="paint17_linear_1002_2" x1="164.821" y1="316.312" x2="313.767" y2="424.05" gradientUnits="userSpaceOnUse">
<stop stop-color="#F1F2F2"/>
<stop offset="0.497" stop-color="white"/>
<stop offset="1" stop-color="#E6E7E8"/>
</linearGradient>
</defs>
</svg>
