<svg width="101" height="101" viewBox="0 0 101 101" fill="none" xmlns="http://www.w3.org/2000/svg">
<path d="M3 50.635C3 24.9203 23.0605 4 47.7217 4C66.6763 4 83.5076 16.5389 89.8207 34.8955L94.3955 34.9424C96.7509 34.9553 97.6093 36.6397 96.3156 38.6893L88.9821 54.4224C87.6792 56.4737 85.5743 56.4575 84.2973 54.3949L74.4741 38.5374C73.1925 36.4764 74.0769 34.7985 76.4323 34.8114L81.1385 34.8405C75.276 21.3641 62.2618 12.3765 47.7247 12.3765C27.4917 12.3765 11.033 29.5418 11.033 50.635C11.033 71.7282 27.4902 88.8999 47.7217 88.8999C58.2827 88.8999 68.3321 84.1475 75.3035 75.868C76.7653 74.1271 79.304 73.9541 80.9659 75.4817C82.6369 77.0108 82.805 79.657 81.3447 81.3947C72.8473 91.4895 60.5938 97.2716 47.7217 97.2716C23.0605 97.27 3 76.3546 3 50.635Z" fill="white"/>
<path d="M53.5351 51.1732C57.4027 48.4349 60.0682 42.9891 60.0682 38.0847C60.0682 31.1776 54.7892 25.5587 48.2546 25.5587C41.7215 25.5587 36.4151 31.1776 36.4151 38.0847C36.4151 42.9875 39.082 48.4333 42.9756 51.1732C33.6961 53.6577 26.8209 62.1814 26.8209 68.4872C26.8209 75.9552 69.6608 75.9552 69.6608 68.4872C69.6623 62.1814 62.7886 53.6577 53.5351 51.1732Z" fill="white"/>
<line x1="16.4645" y1="78.4645" x2="77.4645" y2="17.4645" stroke="#FFFDFD" stroke-width="10"/>
</svg>
