<svg width="80" height="80" viewBox="0 0 80 80" fill="none" xmlns="http://www.w3.org/2000/svg">
<circle cx="40" cy="40" r="40" fill="#7BB9FF"/>
<circle cx="40" cy="40" r="40" fill="url(#paint0_linear)"/>
<path d="M53.001 59H48.0009V55H46.0009V59H23.0002C22.4479 59 22.0002 59.4478 22.0002 60C22.0002 61.1046 21.1047 62 20.0001 62C18.8955 62 18.0001 61.1046 18.0001 60V18.4776L21.6292 19.9296C21.8674 20.0248 22.133 20.0248 22.3712 19.9296L27.0004 18.0776L31.6295 19.9296C31.8677 20.0248 32.1333 20.0248 32.3715 19.9296L37.0007 18.0776L41.6298 19.9296C41.868 20.0248 42.1336 20.0248 42.3718 19.9296L46.0009 18.4776V25.0006H48.0009V17.0006C48.0009 16.8734 47.9767 16.7474 47.9296 16.6293C47.7246 16.1164 47.1428 15.8667 46.6299 16.0717L42.0008 17.9237L37.3716 16.0717C37.1334 15.9765 36.8678 15.9765 36.6296 16.0717L32.0005 17.9237L27.3713 16.0717C27.1331 15.9765 26.8675 15.9765 26.6293 16.0717L22.0002 17.9237L17.371 16.0717C17.2529 16.0245 17.1269 16.0002 16.9997 16.0003C16.4474 16.0005 15.9998 16.4483 16 17.0006V60C16 62.2091 17.791 64 20.0001 64H50.0009C52.2101 64 54.0011 62.2091 54.0011 60C54.0011 59.4478 53.5533 59 53.001 59ZM50.0009 62H23.4633C23.6451 61.687 23.7831 61.3505 23.8732 61H51.732C51.3749 61.6185 50.7151 61.9996 50.0009 62Z" fill="white"/>
<path d="M62.9999 27.0005H31.9991V25.0006H29.9991V28.0006V52.0002V55.0002H31.9991V53.0002H62.9999C63.5522 53.0002 64 52.5525 64 52.0002V28.0006C63.9999 27.4483 63.5522 27.0005 62.9999 27.0005ZM61.9999 32.8992C60.0422 32.4998 58.5005 30.9581 58.1011 29.0006H61.9999V32.8992ZM31.9991 29.0005H56.0732C56.5151 32.0636 58.9367 34.4851 61.9999 34.9269V44.0657C58.3839 44.5206 55.5201 47.3842 55.0652 51.0001H31.9991V29.0005ZM57.0852 51.0002C57.5089 48.4896 59.4892 46.5094 61.9999 46.0857V51.0002H57.0852V51.0002Z" fill="white"/>
<path d="M55.9997 40.0004C55.9997 35.03 51.9701 31.0005 46.9994 31.0005C42.0288 31.0005 37.9992 35.03 37.9992 40.0004C37.9992 44.9709 42.0288 49.0003 46.9994 49.0003C51.9679 48.9948 55.9942 44.9686 55.9997 40.0004ZM46.9994 47.0003C43.1334 47.0003 39.9992 43.8663 39.9992 40.0003C39.9992 36.1343 43.1333 33.0004 46.9994 33.0004C50.8635 33.0054 53.9947 36.1364 53.9997 40.0003C53.9997 43.8663 50.8655 47.0003 46.9994 47.0003Z" fill="white"/>
<path d="M46.9995 37.0004C47.5518 37.0004 47.9995 37.4482 47.9995 38.0005H49.9995C49.9995 36.6944 49.1646 35.5838 47.9995 35.1719V34.0005H45.9995V35.1719C44.8344 35.5838 43.9995 36.6944 43.9995 38.0005C43.9995 39.6573 45.3427 41.0004 46.9996 41.0004C47.5519 41.0004 47.9996 41.4482 47.9996 42.0004C47.9996 42.5527 47.5519 43.0005 46.9996 43.0005C46.4473 43.0005 45.9995 42.5527 45.9995 42.0004H43.9994C43.9994 43.3065 44.8343 44.4171 45.9994 44.829V46.0004H47.9994V44.829C49.1645 44.4171 49.9995 43.3065 49.9995 42.0004C49.9995 40.3436 48.6563 39.0005 46.9994 39.0005C46.4471 39.0005 45.9993 38.5527 45.9993 38.0005C45.9994 37.4481 46.4472 37.0004 46.9995 37.0004Z" fill="white"/>
<path d="M21.9987 49.0003H19.9987V51.0002H21.9987V49.0003Z" fill="white"/>
<path d="M21.9987 53.0002H19.9987V55.0001H21.9987V53.0002Z" fill="white"/>
<path d="M25.9989 53.0002H23.9988V55.0001H25.9989V53.0002Z" fill="white"/>
<path d="M27.9989 25.0006H19.9987V27.0005H27.9989V25.0006Z" fill="white"/>
<path d="M27.9989 29.0005H19.9987V31.0004H27.9989V29.0005Z" fill="white"/>
<path d="M23.9989 33.0004H19.9987V35.0004H23.9989V33.0004Z" fill="white"/>
<defs>
<linearGradient id="paint0_linear" x1="42" y1="-2.5" x2="40" y2="94.5" gradientUnits="userSpaceOnUse">
<stop stop-color="#0077FD"/>
<stop offset="0.765625" stop-color="#C1DEFF" stop-opacity="0.469017"/>
<stop offset="1" stop-color="white" stop-opacity="0"/>
</linearGradient>
</defs>
</svg>
