<svg width="291" height="86" viewBox="0 0 291 86" fill="none" xmlns="http://www.w3.org/2000/svg">
<path d="M279.5 0H10.75C4.81294 0 0 4.81294 0 10.75V75.25C0 81.1871 4.81294 86 10.75 86H279.5C285.437 86 290.25 81.1871 290.25 75.25V10.75C290.25 4.81294 285.437 0 279.5 0Z" fill="black"/>
<path d="M279.5 1.72C281.895 1.72 284.192 2.67137 285.885 4.36483C287.579 6.05828 288.53 8.3551 288.53 10.75V75.25C288.53 77.6449 287.579 79.9417 285.885 81.6352C284.192 83.3286 281.895 84.28 279.5 84.28H10.75C8.3551 84.28 6.05828 83.3286 4.36483 81.6352C2.67137 79.9417 1.72 77.6449 1.72 75.25V10.75C1.72 8.3551 2.67137 6.05828 4.36483 4.36483C6.05828 2.67137 8.3551 1.72 10.75 1.72H279.5ZM279.5 0H10.75C7.89892 0 5.16462 1.13259 3.1486 3.1486C1.13259 5.16462 0 7.89892 0 10.75V75.25C0 78.1011 1.13259 80.8354 3.1486 82.8514C5.16462 84.8674 7.89892 86 10.75 86H279.5C282.351 86 285.085 84.8674 287.101 82.8514C289.117 80.8354 290.25 78.1011 290.25 75.25V10.75C290.25 7.89892 289.117 5.16462 287.101 3.1486C285.085 1.13259 282.351 0 279.5 0Z" fill="#A6A6A6"/>
<path d="M146.501 46.7628C144.696 46.7713 142.933 47.3144 141.436 48.3236C139.939 49.3328 138.775 50.7628 138.09 52.4332C137.405 54.1036 137.23 55.9395 137.587 57.7092C137.945 59.4788 138.819 61.1029 140.098 62.3765C141.378 63.6501 143.006 64.5161 144.777 64.8652C146.549 65.2144 148.384 65.0309 150.051 64.3381C151.718 63.6452 153.142 62.474 154.145 60.9723C155.147 59.4706 155.682 57.7057 155.682 55.9003C155.699 54.6919 155.473 53.4923 155.018 52.3729C154.562 51.2535 153.886 50.2373 153.029 49.3847C152.172 48.5322 151.153 47.8607 150.032 47.4102C148.91 46.9598 147.709 46.7396 146.501 46.7628V46.7628ZM146.501 61.4473C145.391 61.525 144.283 61.2668 143.321 60.7064C142.36 60.146 141.589 59.3092 141.109 58.3049C140.629 57.3006 140.463 56.1752 140.631 55.075C140.799 53.9748 141.295 52.9507 142.053 52.1357C142.811 51.3208 143.796 50.7528 144.882 50.5055C145.967 50.2582 147.101 50.3431 148.138 50.7491C149.174 51.1551 150.064 51.8635 150.693 52.7822C151.321 53.7008 151.658 54.7873 151.661 55.9003C151.696 56.6055 151.589 57.3106 151.347 57.9738C151.104 58.6371 150.732 59.2451 150.251 59.7621C149.77 60.2791 149.191 60.6945 148.547 60.984C147.902 61.2734 147.207 61.4309 146.501 61.4473ZM126.485 46.7628C124.678 46.7671 122.914 47.3066 121.414 48.3132C119.914 49.3198 118.746 50.7484 118.058 52.4184C117.37 54.0884 117.192 55.925 117.547 57.6961C117.902 59.4672 118.774 61.0933 120.053 62.3691C121.331 63.6448 122.959 64.5129 124.731 64.8638C126.503 65.2146 128.339 65.0324 130.008 64.3402C131.676 63.648 133.102 62.4768 134.105 60.9746C135.108 59.4724 135.644 57.7066 135.644 55.9003C135.661 54.6919 135.435 53.4923 134.98 52.3729C134.524 51.2535 133.848 50.2373 132.991 49.3847C132.134 48.5322 131.115 47.8607 129.994 47.4102C128.872 46.9598 127.671 46.7396 126.463 46.7628H126.485ZM126.485 61.4473C125.374 61.5293 124.264 61.275 123.3 60.7175C122.335 60.16 121.561 59.325 121.078 58.3214C120.595 57.3178 120.425 56.1919 120.591 55.0905C120.756 53.989 121.25 52.9629 122.007 52.1457C122.764 51.3286 123.749 50.7583 124.835 50.509C125.92 50.2598 127.056 50.3431 128.094 50.7482C129.131 51.1534 130.023 51.8615 130.652 52.7804C131.282 53.6993 131.62 54.7864 131.623 55.9003C131.658 56.6055 131.551 57.3106 131.309 57.9738C131.066 58.6371 130.694 59.2451 130.213 59.7621C129.732 60.2791 129.153 60.6945 128.509 60.984C127.864 61.2734 127.169 61.4309 126.463 61.4473H126.485ZM102.641 49.5793V53.4493H111.929C111.783 55.2721 111.026 56.9921 109.779 58.3298C108.85 59.2763 107.733 60.0178 106.5 60.5066C105.267 60.9954 103.945 61.2206 102.62 61.1678C99.8826 61.1678 97.2577 60.0805 95.3223 58.1451C93.3869 56.2098 92.2996 53.5848 92.2996 50.8478C92.2996 48.1108 93.3869 45.4858 95.3223 43.5505C97.2577 41.6151 99.8826 40.5278 102.62 40.5278C105.238 40.4851 107.766 41.4825 109.65 43.3013L112.381 40.5708C111.109 39.283 109.592 38.2636 107.919 37.573C106.246 36.8824 104.451 36.5346 102.641 36.5503C100.73 36.4759 98.8231 36.7881 97.0353 37.4683C95.2475 38.1484 93.6153 39.1825 92.2367 40.5085C90.8581 41.8345 89.7614 43.4251 89.0123 45.1851C88.2631 46.9451 87.877 48.8382 87.877 50.7511C87.877 52.6639 88.2631 54.557 89.0123 56.317C89.7614 58.077 90.8581 59.6676 92.2367 60.9936C93.6153 62.3196 95.2475 63.3537 97.0353 64.0338C98.8231 64.714 100.73 65.0262 102.641 64.9518C104.481 65.035 106.318 64.723 108.028 64.0369C109.737 63.3508 111.28 62.3065 112.553 60.9743C114.805 58.4995 116.008 55.2462 115.907 51.9013C115.914 51.0864 115.842 50.2728 115.692 49.4718L102.641 49.5793ZM200.058 52.5893C199.497 50.9397 198.448 49.4993 197.051 48.4588C195.653 47.4184 193.973 46.8269 192.232 46.7628C191.056 46.7605 189.892 46.9994 188.811 47.4649C187.731 47.9303 186.758 48.6122 185.952 49.4686C185.146 50.3251 184.524 51.3377 184.125 52.4439C183.726 53.5502 183.558 54.7265 183.632 55.9003C183.605 57.102 183.822 58.2966 184.268 59.4127C184.714 60.5289 185.38 61.5438 186.227 62.3967C187.074 63.2496 188.084 63.9231 189.197 64.3768C190.31 64.8306 191.503 65.0554 192.705 65.0378C194.209 65.0459 195.691 64.6809 197.019 63.9755C198.348 63.2701 199.48 62.2463 200.316 60.9958L197.198 58.8458C196.733 59.6215 196.074 60.2631 195.286 60.7078C194.499 61.1525 193.609 61.3851 192.705 61.3828C191.773 61.4183 190.853 61.1728 190.063 60.6781C189.273 60.1835 188.65 59.4626 188.276 58.6093L200.509 53.5568L200.058 52.5893ZM187.588 55.6423C187.544 54.9773 187.634 54.3103 187.851 53.6803C188.068 53.0503 188.409 52.4701 188.854 51.9735C189.298 51.477 189.838 51.0741 190.44 50.7885C191.042 50.5029 191.695 50.3403 192.361 50.3103C193.054 50.2646 193.746 50.4236 194.35 50.7676C194.954 51.1116 195.443 51.6255 195.758 52.2453L187.588 55.6423ZM177.655 64.5003H181.675V37.6253H177.655V64.5003ZM171.076 48.8053H170.925C170.319 48.1278 169.577 47.5861 168.747 47.2156C167.917 46.845 167.018 46.6541 166.109 46.6553C163.76 46.7692 161.544 47.7828 159.921 49.486C158.299 51.1891 157.394 53.4512 157.394 55.8036C157.394 58.1559 158.299 60.418 159.921 62.1211C161.544 63.8243 163.76 64.8379 166.109 64.9518C167.02 64.9671 167.924 64.7826 168.756 64.4111C169.588 64.0396 170.328 63.4903 170.925 62.8018H171.054V64.1133C171.054 67.6178 169.184 69.4883 166.174 69.4883C165.171 69.4648 164.198 69.1436 163.379 68.5654C162.56 67.9873 161.931 67.1784 161.573 66.2418L158.068 67.7038C158.728 69.3085 159.852 70.6795 161.296 71.641C162.74 72.6025 164.439 73.1107 166.174 73.1003C170.882 73.1003 174.774 70.3268 174.774 63.5758V47.3003H171.076V48.8053ZM166.475 61.4473C165.088 61.3251 163.797 60.6878 162.857 59.661C161.916 58.6343 161.395 57.2925 161.395 55.9003C161.395 54.5081 161.916 53.1663 162.857 52.1396C163.797 51.1128 165.088 50.4755 166.475 50.3533C167.162 50.3886 167.836 50.5611 168.456 50.8608C169.076 51.1604 169.629 51.5811 170.084 52.098C170.539 52.6149 170.886 53.2177 171.104 53.8707C171.322 54.5237 171.408 55.2138 171.355 55.9003C171.414 56.5898 171.332 57.284 171.115 57.941C170.897 58.598 170.549 59.204 170.091 59.7225C169.633 60.2411 169.074 60.6613 168.449 60.9577C167.823 61.2542 167.145 61.4207 166.453 61.4473H166.475ZM218.892 37.6253H209.281V64.5003H213.302V54.3093H218.913C220.059 54.3916 221.209 54.237 222.293 53.8551C223.376 53.4731 224.37 52.8721 225.21 52.0894C226.051 51.3067 226.722 50.3592 227.181 49.3059C227.639 48.2526 227.876 47.1161 227.876 45.9673C227.876 44.8185 227.639 43.682 227.181 42.6287C226.722 41.5754 226.051 40.6279 225.21 39.8452C224.37 39.0625 223.376 38.4615 222.293 38.0795C221.209 37.6976 220.059 37.543 218.913 37.6253H218.892ZM218.892 50.5253H213.28V41.3663H218.978C220.201 41.3663 221.374 41.8522 222.239 42.7171C223.103 43.5819 223.589 44.7549 223.589 45.9781C223.589 47.2012 223.103 48.3742 222.239 49.2391C221.374 50.1039 220.201 50.5898 218.978 50.5898L218.892 50.5253ZM243.681 46.6553C242.217 46.5678 240.76 46.9099 239.488 47.6394C238.216 48.369 237.185 49.4542 236.522 50.7618L240.091 52.2453C240.443 51.5968 240.975 51.0645 241.624 50.7133C242.273 50.3621 243.01 50.2072 243.746 50.2673C244.256 50.2077 244.773 50.2503 245.267 50.3927C245.761 50.5351 246.221 50.7744 246.621 51.0966C247.022 51.4188 247.354 51.8175 247.598 52.2694C247.843 52.7214 247.995 53.2175 248.046 53.7288V54.0083C246.754 53.3246 245.314 52.9701 243.853 52.9763C240.005 52.9763 236.113 55.1263 236.113 59.0178C236.151 59.8476 236.355 60.6613 236.713 61.4109C237.071 62.1604 237.575 62.8306 238.197 63.3819C238.818 63.9331 239.544 64.3541 240.331 64.6201C241.118 64.886 241.95 64.9915 242.778 64.9303C243.791 65.003 244.804 64.8018 245.712 64.3479C246.62 63.8939 247.389 63.2039 247.938 62.3503H248.067V64.5003H251.937V54.1588C251.937 49.4503 248.368 46.7198 243.789 46.7198L243.681 46.6553ZM243.187 61.3828C241.875 61.3828 240.048 60.7163 240.048 59.1038C240.048 56.9538 242.327 56.2443 244.348 56.2443C245.625 56.2128 246.887 56.5246 248.003 57.1473C247.868 58.3113 247.318 59.3875 246.452 60.1777C245.587 60.9679 244.466 61.4188 243.294 61.4473L243.187 61.3828ZM266.041 47.3003L261.44 58.9533H261.311L256.538 47.3003H252.238L259.398 63.5973L255.313 72.6488H259.505L270.513 47.3003H266.041ZM229.9 64.5003H233.92V37.6253H229.9V64.5003Z" fill="white"/>
<path d="M22.4464 16.2111C21.7457 17.0519 21.3919 18.1284 21.4574 19.221V66.779C21.3919 67.8717 21.7457 68.9482 22.4464 69.789L22.5969 69.9395L49.2354 43.3225V42.699L22.5969 16.0605L22.4464 16.2111Z" fill="url(#paint0_linear_1607_84)"/>
<path d="M58.0499 52.2019L49.2349 43.3224V42.6989L58.0499 33.7979L58.2434 33.9054L68.7999 39.9039C71.8099 41.6024 71.8099 44.3974 68.7999 46.1174L58.2864 52.0944L58.0499 52.2019Z" fill="url(#paint1_linear_1607_84)"/>
<path d="M58.3078 52.073L49.2348 43L22.4458 69.789C23.0593 70.3283 23.842 70.6364 24.6585 70.6599C25.4751 70.6835 26.2742 70.4211 26.9178 69.918L58.3293 52.073" fill="url(#paint2_linear_1607_84)"/>
<path d="M58.3083 33.927L26.8968 16.082C26.2532 15.579 25.4541 15.3165 24.6375 15.3401C23.821 15.3636 23.0383 15.6717 22.4248 16.211L49.2353 43L58.3083 33.927Z" fill="url(#paint3_linear_1607_84)"/>
<path opacity="0.2" d="M58.0498 51.8792L26.8963 69.6167C26.2756 70.0807 25.5213 70.3315 24.7463 70.3315C23.9713 70.3315 23.217 70.0807 22.5963 69.6167L22.4458 69.7672L22.5963 69.9176C23.2156 70.3851 23.9704 70.6379 24.7463 70.6379C25.5222 70.6379 26.277 70.3851 26.8963 69.9176L58.3078 52.0727L58.0498 51.8792Z" fill="black"/>
<path opacity="0.12" d="M22.4464 69.488C21.7457 68.6471 21.3919 67.5706 21.4574 66.478V66.8005C21.3919 67.8931 21.7457 68.9696 22.4464 69.8105L22.5969 69.66L22.4464 69.488ZM68.8004 45.795L58.0504 51.8795L58.2439 52.073L68.8004 46.096C69.3994 45.8146 69.9136 45.3802 70.2911 44.8366C70.6685 44.2931 70.896 43.6595 70.9504 43C70.8295 43.5992 70.5728 44.1627 70.2001 44.6473C69.8274 45.1318 69.3486 45.5244 68.8004 45.795Z" fill="black"/>
<path opacity="0.25" d="M26.897 16.3827L68.8005 40.2047C69.3487 40.4753 69.8275 40.8679 70.2002 41.3525C70.573 41.837 70.8296 42.4005 70.9505 42.9997C70.8961 42.3402 70.6687 41.7067 70.2912 41.1631C69.9137 40.6195 69.3995 40.1851 68.8005 39.9037L26.897 16.0817C23.887 14.3832 21.436 15.8022 21.436 19.2422V19.5647C21.5005 16.1032 23.9085 14.6842 26.897 16.3827V16.3827Z" fill="white"/>
<path d="M97.8182 19.1407C97.7287 18.8297 97.603 18.5548 97.4411 18.3162C97.2792 18.0733 97.081 17.8687 96.8466 17.7025C96.6165 17.5321 96.3523 17.4021 96.054 17.3126C95.76 17.2231 95.434 17.1784 95.076 17.1784C94.407 17.1784 93.8189 17.3446 93.3118 17.677C92.809 18.0093 92.4169 18.493 92.1357 19.128C91.8544 19.7586 91.7138 20.5299 91.7138 21.4419C91.7138 22.3538 91.8523 23.1294 92.1293 23.7686C92.4063 24.4078 92.7983 24.8957 93.3054 25.2324C93.8125 25.5647 94.4113 25.7309 95.1016 25.7309C95.728 25.7309 96.2628 25.6201 96.706 25.3985C97.1535 25.1727 97.4944 24.8552 97.7287 24.4461C97.9674 24.037 98.0867 23.5534 98.0867 22.9951L98.6492 23.0782H95.2742V20.9944H100.752V22.6436C100.752 23.7941 100.509 24.7828 100.023 25.6095C99.5377 26.4319 98.8687 27.0669 98.0164 27.5143C97.1641 27.9575 96.1883 28.1791 95.0888 28.1791C93.8616 28.1791 92.7834 27.9085 91.8544 27.3673C90.9255 26.8218 90.201 26.0484 89.6812 25.047C89.1655 24.0413 88.9077 22.8481 88.9077 21.4674C88.9077 20.4064 89.0611 19.4603 89.3679 18.6294C89.679 17.7941 90.1137 17.0868 90.6719 16.5072C91.2302 15.9277 91.88 15.4866 92.6215 15.1841C93.363 14.8815 94.1662 14.7302 95.0313 14.7302C95.7728 14.7302 96.4631 14.8389 97.1023 15.0562C97.7415 15.2693 98.3083 15.5718 98.8026 15.9639C99.3012 16.3559 99.7081 16.8226 100.023 17.3637C100.339 17.9007 100.541 18.493 100.631 19.1407H97.8182Z" fill="white"/>
<path d="M102.831 28.0001V14.9092H111.652V17.1912H105.599V20.3105H111.198V22.5924H105.599V25.7182H111.678V28.0001H102.831Z" fill="white"/>
<path d="M113.354 17.1912V14.9092H124.106V17.1912H120.098V28.0001H117.362V17.1912H113.354Z" fill="white"/>
<path d="M132.81 14.9092V28.0001H130.042V14.9092H132.81Z" fill="white"/>
<path d="M134.588 17.1912V14.9092H145.34V17.1912H141.332V28.0001H138.596V17.1912H134.588Z" fill="white"/>
<path d="M163.306 21.4547C163.306 22.8822 163.036 24.0967 162.495 25.0981C161.958 26.0995 161.225 26.8645 160.296 27.3929C159.371 27.917 158.331 28.1791 157.176 28.1791C156.013 28.1791 154.969 27.9149 154.044 27.3865C153.12 26.8581 152.389 26.0932 151.852 25.0917C151.315 24.0903 151.046 22.878 151.046 21.4547C151.046 20.0271 151.315 18.8126 151.852 17.8112C152.389 16.8098 153.12 16.047 154.044 15.5228C154.969 14.9944 156.013 14.7302 157.176 14.7302C158.331 14.7302 159.371 14.9944 160.296 15.5228C161.225 16.047 161.958 16.8098 162.495 17.8112C163.036 18.8126 163.306 20.0271 163.306 21.4547ZM160.5 21.4547C160.5 20.5299 160.362 19.7501 160.085 19.1152C159.812 18.4802 159.426 17.9987 158.928 17.6706C158.429 17.3424 157.845 17.1784 157.176 17.1784C156.507 17.1784 155.924 17.3424 155.425 17.6706C154.926 17.9987 154.539 18.4802 154.262 19.1152C153.989 19.7501 153.852 20.5299 153.852 21.4547C153.852 22.3794 153.989 23.1592 154.262 23.7941C154.539 24.4291 154.926 24.9106 155.425 25.2387C155.924 25.5669 156.507 25.7309 157.176 25.7309C157.845 25.7309 158.429 25.5669 158.928 25.2387C159.426 24.9106 159.812 24.4291 160.085 23.7941C160.362 23.1592 160.5 22.3794 160.5 21.4547Z" fill="white"/>
<path d="M176.306 14.9092V28.0001H173.916L168.22 19.7608H168.124V28.0001H165.357V14.9092H167.786L173.436 23.1422H173.551V14.9092H176.306Z" fill="white"/>
<defs>
<linearGradient id="paint0_linear_1607_84" x1="46.8704" y1="18.7265" x2="10.7934" y2="54.8036" gradientUnits="userSpaceOnUse">
<stop stop-color="#00A0FF"/>
<stop offset="0.01" stop-color="#00A1FF"/>
<stop offset="0.26" stop-color="#00BEFF"/>
<stop offset="0.51" stop-color="#00D2FF"/>
<stop offset="0.76" stop-color="#00DFFF"/>
<stop offset="1" stop-color="#00E3FF"/>
</linearGradient>
<linearGradient id="paint1_linear_1607_84" x1="72.7344" y1="42.9999" x2="20.7259" y2="42.9999" gradientUnits="userSpaceOnUse">
<stop stop-color="#FFE000"/>
<stop offset="0.41" stop-color="#FFBD00"/>
<stop offset="0.78" stop-color="#FFA500"/>
<stop offset="1" stop-color="#FF9C00"/>
</linearGradient>
<linearGradient id="paint2_linear_1607_84" x1="53.3843" y1="47.945" x2="4.45031" y2="96.8575" gradientUnits="userSpaceOnUse">
<stop stop-color="#FF3A44"/>
<stop offset="1" stop-color="#C31162"/>
</linearGradient>
<linearGradient id="paint3_linear_1607_84" x1="15.6953" y1="0.387031" x2="37.5393" y2="22.231" gradientUnits="userSpaceOnUse">
<stop stop-color="#32A071"/>
<stop offset="0.07" stop-color="#2DA771"/>
<stop offset="0.48" stop-color="#15CF74"/>
<stop offset="0.8" stop-color="#06E775"/>
<stop offset="1" stop-color="#00F076"/>
</linearGradient>
</defs>
</svg>
