<svg width="80" height="80" viewBox="0 0 80 80" fill="none" xmlns="http://www.w3.org/2000/svg">
<circle cx="40" cy="40" r="40" fill="#7BB9FF"/>
<circle cx="40" cy="40" r="40" fill="url(#paint0_linear)"/>
<path d="M29.4731 36.8889H50.4408C50.9233 36.8889 51.3145 36.4992 51.3145 36.0185C51.3145 35.5379 50.9233 35.1482 50.4408 35.1482H29.4731C28.9906 35.1482 28.5995 35.5379 28.5995 36.0185C28.5995 36.4992 28.9906 36.8889 29.4731 36.8889Z" fill="white"/>
<path d="M29.4731 33.4074H50.4408C50.9233 33.4074 51.3145 33.0177 51.3145 32.537C51.3145 32.0564 50.9233 31.6667 50.4408 31.6667H29.4731C28.9906 31.6667 28.5995 32.0564 28.5995 32.537C28.5995 33.0177 28.9906 33.4074 29.4731 33.4074Z" fill="white"/>
<path d="M36.4623 29.926H50.4408C50.9233 29.926 51.3144 29.5362 51.3144 29.0556C51.3144 28.5749 50.9233 28.1852 50.4408 28.1852H36.4623C35.9798 28.1852 35.5887 28.5749 35.5887 29.0556C35.5887 29.5362 35.9798 29.926 36.4623 29.926Z" fill="white"/>
<path d="M51.3145 39.5C51.3145 39.0193 50.9233 38.6296 50.4408 38.6296H29.4731C28.9906 38.6296 28.5995 39.0193 28.5995 39.5C28.5995 39.9806 28.9906 40.3703 29.4731 40.3703H50.4408C50.9233 40.3703 51.3145 39.9806 51.3145 39.5Z" fill="white"/>
<path d="M38.2097 49.0741C37.7271 49.0741 37.336 49.4638 37.336 49.9445C37.336 50.4251 37.7271 50.8148 38.2097 50.8148H43.4516C43.9341 50.8148 44.3252 50.4251 44.3252 49.9445C44.3252 49.4638 43.9341 49.0741 43.4516 49.0741H38.2097Z" fill="white"/>
<path d="M46.0725 45.5926H38.2097C37.7271 45.5926 37.336 45.9823 37.336 46.463C37.336 46.9436 37.7271 47.3333 38.2097 47.3333H46.0725C46.555 47.3333 46.9462 46.9436 46.9462 46.463C46.9462 45.9823 46.555 45.5926 46.0725 45.5926Z" fill="white"/>
<path d="M46.9462 42.9815C46.9462 42.5008 46.555 42.1111 46.0725 42.1111H36.4623C35.9798 42.1111 35.5887 42.5008 35.5887 42.9815C35.5887 43.4621 35.9798 43.8519 36.4623 43.8519H46.0725C46.555 43.8519 46.9462 43.4621 46.9462 42.9815Z" fill="white"/>
<path d="M44.3252 53.4259C44.3252 52.9453 43.9341 52.5555 43.4516 52.5555H38.2097C37.7271 52.5555 37.336 52.9453 37.336 53.4259C37.336 53.9066 37.7271 54.2963 38.2097 54.2963H43.4516C43.9341 54.2963 44.3252 53.9066 44.3252 53.4259Z" fill="white"/>
<path d="M67.0401 40.3704H66.5284L66.9327 39.9675C67.5562 39.3464 67.9138 38.4876 67.9138 37.6113C67.9138 36.7221 67.5654 35.8853 66.9327 35.255C66.3002 34.6249 65.4602 34.2778 64.5677 34.2778C63.6881 34.2778 62.826 34.634 62.2026 35.255L60.3068 37.1438L58.3036 39.1394V20.3519C58.3036 19.8712 57.9125 19.4815 57.43 19.4815C47.7851 19.4815 39.7812 19.3829 30.0061 19.3016L26.5962 16.2549C26.4324 16.0917 26.2102 16 25.9785 16H16.3683H12.8737C12.3912 16 12 16.3897 12 16.8704V25.5741C12 26.0547 12.3912 26.4444 12.8737 26.4444H16.3683H18.6274L21.3246 29.1315C21.4154 29.2219 21.5116 29.3021 21.6102 29.3769V41.2407H17.2419C16.952 41.2407 16.681 41.384 16.5185 41.6231C16.356 41.8623 16.3231 42.1663 16.4308 42.4343L17.6988 45.5926H17.6001C16.5873 45.5926 15.5947 46.0027 14.8769 46.7178C14.159 47.433 13.7473 48.4218 13.7473 49.4308V60.0284L12.2559 61.5142C12.0061 61.7631 11.9313 62.1375 12.0665 62.4627C12.2018 62.7879 12.5203 63 12.8737 63H25.1048H37.336H57.43C57.9125 63 58.3036 62.6103 58.3036 62.1296V53.7865L61.2865 50.8148H63.5455H67.0401C67.5227 50.8148 67.9138 50.4251 67.9138 49.9444V41.2407C67.9138 40.7601 67.5227 40.3704 67.0401 40.3704ZM15.4946 24.7037H13.7473V17.7407H15.4946V24.7037ZM63.4381 36.486C63.7363 36.1889 64.148 36.0185 64.5677 36.0185C64.9935 36.0185 65.3946 36.1845 65.6972 36.486C65.9999 36.7874 66.1665 37.1871 66.1665 37.6113C66.1665 38.0293 65.9954 38.4394 65.6972 38.7365L64.4192 40.0098L62.1601 37.7593L63.4381 36.486ZM60.9246 38.9901L63.1836 41.2407L50.4408 53.9358L48.1817 51.6852L60.9246 38.9901ZM47.4827 53.4506L48.6687 54.6322L47.1862 54.9275L47.4827 53.4506ZM50.4407 46.9728V44.2123L52.5499 42.1111H55.3208L50.4407 46.9728ZM19.607 24.9586C19.4432 24.7954 19.2209 24.7037 18.9893 24.7037H17.2419V17.7407H25.6166L27.3639 19.4815H22.4839C22.0013 19.4815 21.6102 19.8712 21.6102 20.3519V23.8333C21.6102 24.0642 21.7022 24.2855 21.8661 24.4488L23.9455 26.5203C24.1297 26.7038 24.2312 26.9489 24.2312 27.2104C24.2312 27.468 24.127 27.7195 23.9454 27.9004C23.7638 28.0814 23.5113 28.1852 23.2527 28.1852C23.1154 28.1852 22.9723 28.1539 22.8322 28.0919C22.7396 28.0518 22.6454 27.9855 22.56 27.9004L19.607 24.9586ZM24.6903 42.9815L24.5128 43.4254C23.7046 44.0049 23.0358 44.7438 22.5484 45.5926H19.5807L18.5324 42.9815H24.6903ZM28.5994 54.2963C25.709 54.2963 23.3575 51.9537 23.3575 49.0741C23.3575 47.1813 24.4387 45.3798 26.1074 44.4783C26.8699 44.0663 27.7324 43.8518 28.5994 43.8518C31.4898 43.8518 33.8413 46.1945 33.8413 49.0741C33.8413 51.9537 31.4898 54.2963 28.5994 54.2963ZM15.2387 61.0044C15.4026 60.8411 15.4946 60.6198 15.4946 60.3889V49.4308C15.4946 48.8801 15.7198 48.3399 16.1124 47.9488C16.505 47.5576 17.0473 47.3333 17.6001 47.3333H18.9893H19.501L18.3715 48.4586C18.0303 48.7986 18.0303 49.3496 18.3715 49.6896C18.5421 49.8594 18.7657 49.9444 18.9893 49.9444C19.2128 49.9444 19.4364 49.8594 19.607 49.6896L21.6102 47.6938L21.7266 47.8098C21.6505 48.2223 21.6102 48.644 21.6102 49.0741C21.6102 51.1522 22.53 53.0194 23.9839 54.2963H22.4839C22.0013 54.2963 21.6102 54.686 21.6102 55.1667V58.6482C21.6102 59.1288 22.0013 59.5185 22.4839 59.5185H24.2312V61.2593H14.9829L15.2387 61.0044ZM23.3575 57.7778V56.037H33.8413V57.7778H23.3575ZM36.4623 61.2593H25.9785V59.5185H36.4623V61.2593ZM38.2096 61.2593V58.6482C38.2096 58.1675 37.8185 57.7778 37.336 57.7778H35.5887V55.1667C35.5887 54.686 35.1975 54.2963 34.715 54.2963H33.215C34.6689 53.0194 35.5887 51.1522 35.5887 49.0741C35.5887 45.2346 32.4533 42.1111 28.5994 42.1111C27.9937 42.1111 27.3969 42.1882 26.8214 42.3384C26.8874 42.0954 26.8453 41.8337 26.7015 41.6226C26.539 41.3837 26.2681 41.2407 25.9785 41.2407H23.3575V29.9233C24.0392 29.8966 24.6988 29.6117 25.1809 29.1314C25.6878 28.6264 25.9785 27.9263 25.9785 27.2104C25.9785 26.4839 25.6952 25.8016 25.1809 25.2893L23.3575 23.4728V21.2222C34.4238 21.2222 45.49 21.2222 56.5563 21.2222V40.3704H52.188C51.9564 40.3704 51.7341 40.4621 51.5703 40.6252L48.9493 43.2364C48.7855 43.3997 48.6934 43.621 48.6934 43.8518V48.7135L46.3284 51.0697C46.2064 51.1912 46.1232 51.3461 46.0894 51.5145L45.2158 55.8663C45.1585 56.1517 45.2482 56.4467 45.4547 56.6525C45.6202 56.8173 45.8431 56.9074 46.0725 56.9074C46.1294 56.9074 46.1868 56.9019 46.2438 56.8905L50.6121 56.0201C50.7812 55.9865 50.9365 55.9036 51.0585 55.7821L54.809 52.0457L56.5563 53.7865V61.2593H38.2096ZM60.9246 49.0741C60.6929 49.0741 60.4706 49.1658 60.3068 49.329L57.43 52.1951L56.0446 50.8148L62.6719 44.2124V49.0741H60.9246ZM66.1665 49.0741H64.4192V42.4717L64.7811 42.1111H66.1665V49.0741Z" fill="white"/>
<path d="M53.9354 57.7778H42.5779C42.0954 57.7778 41.7043 58.1675 41.7043 58.6481C41.7043 59.1288 42.0954 59.5185 42.5779 59.5185H53.9354C54.4179 59.5185 54.8091 59.1288 54.8091 58.6481C54.8091 58.1675 54.4179 57.7778 53.9354 57.7778Z" fill="white"/>
<path d="M28.1626 47.3333H30.3468C30.8293 47.3333 31.2204 46.9436 31.2204 46.463C31.2204 45.9823 30.8293 45.5926 30.3468 45.5926H29.4731C29.4731 45.1119 29.082 44.7222 28.5995 44.7222C28.1169 44.7222 27.7258 45.1119 27.7258 45.5926V45.6365C26.7301 45.8386 25.9785 46.7177 25.9785 47.7685C25.9785 48.9684 26.9583 49.9445 28.1626 49.9445H29.0363C29.2772 49.9445 29.4731 50.1396 29.4731 50.3796C29.4731 50.6196 29.2772 50.8148 29.0363 50.8148H26.8522C26.3696 50.8148 25.9785 51.2045 25.9785 51.6852C25.9785 52.1659 26.3696 52.5556 26.8522 52.5556H27.7258C27.7258 53.0362 28.1169 53.4259 28.5995 53.4259C29.082 53.4259 29.4731 53.0362 29.4731 52.5556V52.5117C30.4688 52.3095 31.2204 51.4305 31.2204 50.3796C31.2204 49.1798 30.2406 48.2037 29.0363 48.2037H28.1626C27.9218 48.2037 27.7258 48.0085 27.7258 47.7685C27.7258 47.5285 27.9218 47.3333 28.1626 47.3333Z" fill="white"/>
<defs>
<linearGradient id="paint0_linear" x1="42" y1="-2.5" x2="40" y2="94.5" gradientUnits="userSpaceOnUse">
<stop stop-color="#0077FD"/>
<stop offset="0.765625" stop-color="#C1DEFF" stop-opacity="0.469017"/>
<stop offset="1" stop-color="white" stop-opacity="0"/>
</linearGradient>
</defs>
</svg>
