<svg width="80" height="80" viewBox="0 0 80 80" fill="none" xmlns="http://www.w3.org/2000/svg">
<circle cx="40" cy="40" r="40" fill="#7BB9FF"/>
<circle cx="40" cy="40" r="40" fill="url(#paint0_linear)"/>
<path d="M45.4348 37.5989C45.0064 37.1261 44.3099 37.1261 43.8815 37.5989L41.3638 40.377V14.2122C41.3638 13.5431 40.8716 13 40.2653 13C39.6589 13 39.1667 13.5431 39.1667 14.2122V43.3031C39.1667 43.7927 39.4348 44.2364 39.8456 44.4231C39.9819 44.4861 40.1246 44.5152 40.2653 44.5152C40.5508 44.5152 40.8321 44.3916 41.0408 44.1612L45.4348 39.3127C45.8632 38.8401 45.8632 38.0716 45.4348 37.5989Z" fill="white"/>
<path d="M41.0406 42.4474L36.6466 37.5989C36.2182 37.1262 35.5217 37.1262 35.0933 37.5989C34.6649 38.0717 34.6649 38.8402 35.0933 39.3129L39.4873 44.1614C39.7027 44.3965 39.9838 44.5154 40.265 44.5154C40.5463 44.5154 40.8274 44.3966 41.0406 44.1614C41.469 43.6886 41.469 42.9202 41.0406 42.4474Z" fill="white"/>
<path d="M64.2385 39.5867L56.3184 26.4763C54.8882 24.1103 52.4957 22.697 49.9208 22.697H44.6591C44.0527 22.697 43.5606 23.2401 43.5606 23.9092C43.5606 24.5783 44.0527 25.1213 44.6591 25.1213H49.9208C51.7596 25.1213 53.4689 26.1299 54.4904 27.8195L62.4105 40.9299C63.0147 41.9286 63.3333 43.0922 63.3333 44.2922V60.2728C63.3333 62.2777 61.8547 63.9092 60.0378 63.9092H20.4924C18.6755 63.9092 17.1969 62.2777 17.1969 60.2728V44.4716C17.1969 43.1746 17.5639 41.9358 18.291 40.8376L25.396 28.9394C26.8241 26.5467 29.2253 25.1212 31.8177 25.1212H35.8711C36.4775 25.1212 36.9697 24.5782 36.9697 23.9091C36.9697 23.24 36.4776 22.697 35.8712 22.697H31.8178C28.4828 22.697 25.3961 24.5321 23.5616 27.6061L16.4874 39.4558C15.5141 40.9225 15 42.6558 15 44.4716V60.2728C15 63.6134 17.465 66.3334 20.4924 66.3334H60.0378C63.0652 66.3334 65.5302 63.6134 65.5302 60.2728V44.2921C65.5303 42.6121 65.0843 40.9855 64.2385 39.5867Z" fill="white"/>
<path d="M63.3332 42.0911H57.8409C54.8135 42.0911 52.3485 44.8111 52.3485 48.1516C52.3485 50.1565 50.8699 51.788 49.053 51.788H31.4772C29.6603 51.788 28.1818 50.1565 28.1818 48.1516C28.1818 44.8111 25.7168 42.0911 22.6894 42.0911H17.1969C16.5905 42.0911 16.0984 42.6341 16.0984 43.3032C16.0984 43.9723 16.5905 44.5153 17.1969 44.5153H22.6893C24.5062 44.5153 25.9847 46.1467 25.9847 48.1516C25.9847 51.4922 28.4497 54.2122 31.4771 54.2122H49.0529C52.0804 54.2122 54.5454 51.4922 54.5454 48.1516C54.5454 46.1467 56.0239 44.5153 57.8409 44.5153H63.3332C63.9396 44.5153 64.4318 43.9722 64.4318 43.3031C64.4318 42.634 63.9396 42.0911 63.3332 42.0911Z" fill="white"/>
<defs>
<linearGradient id="paint0_linear" x1="42" y1="-2.5" x2="40" y2="94.5" gradientUnits="userSpaceOnUse">
<stop stop-color="#0077FD"/>
<stop offset="0.765625" stop-color="#C1DEFF" stop-opacity="0.469017"/>
<stop offset="1" stop-color="white" stop-opacity="0"/>
</linearGradient>
</defs>
</svg>
