<svg width="80" height="80" viewBox="0 0 80 80" fill="none" xmlns="http://www.w3.org/2000/svg">
<circle cx="40" cy="40" r="40" fill="#7BB9FF"/>
<circle cx="40" cy="40" r="40" fill="url(#paint0_linear)"/>
<path d="M60.9167 20.9H56.8333V19.2667C56.8333 18.4003 56.4892 17.5694 55.8765 16.9568C55.2639 16.3442 54.433 16 53.5667 16C52.7003 16 51.8694 16.3442 51.2568 16.9568C50.6442 17.5694 50.3 18.4003 50.3 19.2667V20.9H43.7667V19.2667C43.7667 18.4003 43.4225 17.5694 42.8099 16.9568C42.1973 16.3442 41.3664 16 40.5 16C39.6336 16 38.8027 16.3442 38.1901 16.9568C37.5775 17.5694 37.2333 18.4003 37.2333 19.2667V20.9H30.7V19.2667C30.7 18.4003 30.3558 17.5694 29.7432 16.9568C29.1306 16.3442 28.2997 16 27.4333 16C26.567 16 25.7361 16.3442 25.1235 16.9568C24.5108 17.5694 24.1667 18.4003 24.1667 19.2667V20.9H20.0833C19.0004 20.9 17.9618 21.3302 17.196 22.096C16.4302 22.8618 16 23.9004 16 24.9833V57.65C16 58.733 16.4302 59.7716 17.196 60.5374C17.9618 61.3031 19.0004 61.7333 20.0833 61.7333H42.95C43.1666 61.7333 43.3743 61.6473 43.5275 61.4941C43.6806 61.341 43.7667 61.1333 43.7667 60.9167C43.7667 60.7001 43.6806 60.4923 43.5275 60.3392C43.3743 60.186 43.1666 60.1 42.95 60.1H20.0833C19.4341 60.0981 18.8121 59.8393 18.3531 59.3803C17.894 58.9212 17.6353 58.2992 17.6333 57.65V32.3333H63.3667V46.2167C63.3667 46.4333 63.4527 46.641 63.6059 46.7941C63.759 46.9473 63.9667 47.0333 64.1833 47.0333C64.3999 47.0333 64.6076 46.9473 64.7608 46.7941C64.914 46.641 65 46.4333 65 46.2167V24.9833C65 23.9004 64.5698 22.8618 63.804 22.096C63.0382 21.3302 61.9996 20.9 60.9167 20.9ZM51.9333 19.2667C51.9333 18.8335 52.1054 18.418 52.4117 18.1117C52.718 17.8054 53.1335 17.6333 53.5667 17.6333C53.9999 17.6333 54.4153 17.8054 54.7216 18.1117C55.0279 18.418 55.2 18.8335 55.2 19.2667V24.1667C55.2 24.5999 55.0279 25.0153 54.7216 25.3216C54.4153 25.6279 53.9999 25.8 53.5667 25.8C53.1335 25.8 52.718 25.6279 52.4117 25.3216C52.1054 25.0153 51.9333 24.5999 51.9333 24.1667V19.2667ZM38.8667 19.2667C38.8667 18.8335 39.0387 18.418 39.3451 18.1117C39.6514 17.8054 40.0668 17.6333 40.5 17.6333C40.9332 17.6333 41.3486 17.8054 41.6549 18.1117C41.9613 18.418 42.1333 18.8335 42.1333 19.2667V24.1667C42.1333 24.5999 41.9613 25.0153 41.6549 25.3216C41.3486 25.6279 40.9332 25.8 40.5 25.8C40.0668 25.8 39.6514 25.6279 39.3451 25.3216C39.0387 25.0153 38.8667 24.5999 38.8667 24.1667V19.2667ZM25.8 19.2667C25.8 18.8335 25.9721 18.418 26.2784 18.1117C26.5847 17.8054 27.0001 17.6333 27.4333 17.6333C27.8665 17.6333 28.282 17.8054 28.5883 18.1117C28.8946 18.418 29.0667 18.8335 29.0667 19.2667V24.1667C29.0667 24.5999 28.8946 25.0153 28.5883 25.3216C28.282 25.6279 27.8665 25.8 27.4333 25.8C27.0001 25.8 26.5847 25.6279 26.2784 25.3216C25.9721 25.0153 25.8 24.5999 25.8 24.1667V19.2667ZM63.3667 30.7H17.6333V24.9833C17.6353 24.3341 17.894 23.7121 18.3531 23.2531C18.8121 22.794 19.4341 22.5353 20.0833 22.5333H24.1667V24.1667C24.1667 25.033 24.5108 25.8639 25.1235 26.4765C25.7361 27.0892 26.567 27.4333 27.4333 27.4333C28.2997 27.4333 29.1306 27.0892 29.7432 26.4765C30.3558 25.8639 30.7 25.033 30.7 24.1667V22.5333H37.2333V24.1667C37.2333 25.033 37.5775 25.8639 38.1901 26.4765C38.8027 27.0892 39.6336 27.4333 40.5 27.4333C41.3664 27.4333 42.1973 27.0892 42.8099 26.4765C43.4225 25.8639 43.7667 25.033 43.7667 24.1667V22.5333H50.3V24.1667C50.3 25.033 50.6442 25.8639 51.2568 26.4765C51.8694 27.0892 52.7003 27.4333 53.5667 27.4333C54.433 27.4333 55.2639 27.0892 55.8765 26.4765C56.4892 25.8639 56.8333 25.033 56.8333 24.1667V22.5333H60.9167C61.5659 22.5353 62.1879 22.794 62.6469 23.2531C63.106 23.7121 63.3647 24.3341 63.3667 24.9833V30.7Z" fill="white"/>
<path d="M38.8666 38.05C38.8666 37.6168 38.6946 37.2014 38.3883 36.895C38.0819 36.5887 37.6665 36.4167 37.2333 36.4167H33.9666C33.5335 36.4167 33.118 36.5887 32.8117 36.895C32.5054 37.2014 32.3333 37.6168 32.3333 38.05V40.5C32.3333 40.9332 32.5054 41.3486 32.8117 41.6549C33.118 41.9612 33.5335 42.1333 33.9666 42.1333H37.2333C37.6665 42.1333 38.0819 41.9612 38.3883 41.6549C38.6946 41.3486 38.8666 40.9332 38.8666 40.5V38.05ZM33.9666 40.5V38.05H37.2333V40.5H33.9666Z" fill="white"/>
<path d="M29.0667 38.05C29.0667 37.6168 28.8946 37.2014 28.5883 36.895C28.282 36.5887 27.8665 36.4167 27.4333 36.4167H24.1667C23.7335 36.4167 23.318 36.5887 23.0117 36.895C22.7054 37.2014 22.5333 37.6168 22.5333 38.05V40.5C22.5333 40.9332 22.7054 41.3486 23.0117 41.6549C23.318 41.9612 23.7335 42.1333 24.1667 42.1333H27.4333C27.8665 42.1333 28.282 41.9612 28.5883 41.6549C28.8946 41.3486 29.0667 40.9332 29.0667 40.5V38.05ZM24.1667 40.5V38.05H27.4333V40.5H24.1667Z" fill="white"/>
<path d="M56.8333 42.1333C57.2665 42.1333 57.682 41.9612 57.9883 41.6549C58.2946 41.3486 58.4667 40.9332 58.4667 40.5V38.05C58.4667 37.6168 58.2946 37.2014 57.9883 36.895C57.682 36.5887 57.2665 36.4167 56.8333 36.4167H53.5667C53.1335 36.4167 52.7181 36.5887 52.4117 36.895C52.1054 37.2014 51.9333 37.6168 51.9333 38.05V40.5C51.9333 40.9332 52.1054 41.3486 52.4117 41.6549C52.7181 41.9612 53.1335 42.1333 53.5667 42.1333H56.8333ZM53.5667 38.05H56.8333V40.5H53.5667V38.05Z" fill="white"/>
<path d="M38.8666 45.4C38.8666 44.9668 38.6946 44.5514 38.3883 44.2451C38.0819 43.9387 37.6665 43.7667 37.2333 43.7667H33.9666C33.5335 43.7667 33.118 43.9387 32.8117 44.2451C32.5054 44.5514 32.3333 44.9668 32.3333 45.4V47.85C32.3333 48.2832 32.5054 48.6986 32.8117 49.0049C33.118 49.3112 33.5335 49.4833 33.9666 49.4833H37.2333C37.6665 49.4833 38.0819 49.3112 38.3883 49.0049C38.6946 48.6986 38.8666 48.2832 38.8666 47.85V45.4ZM33.9666 47.85V45.4H37.2333V47.85H33.9666Z" fill="white"/>
<path d="M29.0667 45.4C29.0667 44.9668 28.8946 44.5514 28.5883 44.2451C28.282 43.9387 27.8665 43.7667 27.4333 43.7667H24.1667C23.7335 43.7667 23.318 43.9387 23.0117 44.2451C22.7054 44.5514 22.5333 44.9668 22.5333 45.4V47.85C22.5333 48.2832 22.7054 48.6986 23.0117 49.0049C23.318 49.3112 23.7335 49.4833 24.1667 49.4833H27.4333C27.8665 49.4833 28.282 49.3112 28.5883 49.0049C28.8946 48.6986 29.0667 48.2832 29.0667 47.85V45.4ZM24.1667 47.85V45.4H27.4333V47.85H24.1667Z" fill="white"/>
<path d="M37.2333 51.1167H33.9666C33.5335 51.1167 33.118 51.2888 32.8117 51.5951C32.5054 51.9014 32.3333 52.3168 32.3333 52.75V55.2C32.3333 55.6332 32.5054 56.0486 32.8117 56.3549C33.118 56.6613 33.5335 56.8333 33.9666 56.8333H37.2333C37.6665 56.8333 38.0819 56.6613 38.3883 56.3549C38.6946 56.0486 38.8666 55.6332 38.8666 55.2V52.75C38.8666 52.3168 38.6946 51.9014 38.3883 51.5951C38.0819 51.2888 37.6665 51.1167 37.2333 51.1167ZM33.9666 55.2V52.75H37.2333V55.2H33.9666Z" fill="white"/>
<path d="M43.7666 42.1333H47.0333C47.4665 42.1333 47.8819 41.9612 48.1882 41.6549C48.4946 41.3486 48.6666 40.9332 48.6666 40.5V38.05C48.6666 37.6168 48.4946 37.2014 48.1882 36.895C47.8819 36.5887 47.4665 36.4167 47.0333 36.4167H43.7666C43.3334 36.4167 42.918 36.5887 42.6117 36.895C42.3054 37.2014 42.1333 37.6168 42.1333 38.05V40.5C42.1333 40.9332 42.3054 41.3486 42.6117 41.6549C42.918 41.9612 43.3334 42.1333 43.7666 42.1333ZM43.7666 38.05H47.0333V40.5H43.7666V38.05Z" fill="white"/>
<path d="M42.1333 47.85C42.1333 48.2832 42.3054 48.6986 42.6117 49.0049C42.918 49.3112 43.3334 49.4833 43.7666 49.4833C43.9832 49.4833 44.191 49.3973 44.3441 49.2441C44.4973 49.091 44.5833 48.8833 44.5833 48.6667C44.5833 48.4501 44.4973 48.2423 44.3441 48.0892C44.191 47.936 43.9832 47.85 43.7666 47.85V45.4H47.0333C47.2499 45.4 47.4576 45.314 47.6108 45.1608C47.7639 45.0076 47.85 44.7999 47.85 44.5833C47.85 44.3667 47.7639 44.159 47.6108 44.0059C47.4576 43.8527 47.2499 43.7667 47.0333 43.7667H43.7666C43.3334 43.7667 42.918 43.9387 42.6117 44.2451C42.3054 44.5514 42.1333 44.9668 42.1333 45.4V47.85Z" fill="white"/>
<path d="M27.4333 51.1167H24.1667C23.7335 51.1167 23.318 51.2888 23.0117 51.5951C22.7054 51.9014 22.5333 52.3168 22.5333 52.75V55.2C22.5333 55.6332 22.7054 56.0486 23.0117 56.3549C23.318 56.6613 23.7335 56.8333 24.1667 56.8333H27.4333C27.8665 56.8333 28.282 56.6613 28.5883 56.3549C28.8946 56.0486 29.0667 55.6332 29.0667 55.2V52.75C29.0667 52.3168 28.8946 51.9014 28.5883 51.5951C28.282 51.2888 27.8665 51.1167 27.4333 51.1167V51.1167ZM24.1667 55.2V52.75H27.4333V55.2H24.1667Z" fill="white"/>
<path d="M54.3833 43.7667C52.2836 43.7667 50.2309 44.3893 48.485 45.5559C46.7391 46.7225 45.3784 48.3806 44.5748 50.3205C43.7713 52.2604 43.561 54.3951 43.9707 56.4545C44.3803 58.514 45.3915 60.4057 46.8762 61.8904C48.361 63.3752 50.2527 64.3863 52.3121 64.796C54.3716 65.2056 56.5062 64.9954 58.4462 64.1918C60.3861 63.3883 62.0442 62.0275 63.2108 60.2816C64.3773 58.5357 65 56.4831 65 54.3833C64.9968 51.5686 63.8772 48.8701 61.8869 46.8798C59.8966 44.8895 57.1981 43.7699 54.3833 43.7667V43.7667ZM54.3833 63.3667C52.6066 63.3667 50.8698 62.8398 49.3925 61.8527C47.9152 60.8656 46.7637 59.4626 46.0838 57.8211C45.4039 56.1796 45.226 54.3734 45.5726 52.6308C45.9192 50.8882 46.7748 49.2875 48.0312 48.0312C49.2875 46.7748 50.8882 45.9192 52.6308 45.5726C54.3734 45.226 56.1796 45.4039 57.8211 46.0838C59.4626 46.7637 60.8656 47.9152 61.8527 49.3925C62.8398 50.8698 63.3667 52.6066 63.3667 54.3833C63.3639 56.765 62.4165 59.0483 60.7324 60.7324C59.0483 62.4165 56.765 63.3638 54.3833 63.3667Z" fill="white"/>
<path d="M59.102 50.9599L52.75 57.3119L49.8631 54.4242C49.7091 54.2754 49.5028 54.1931 49.2886 54.195C49.0745 54.1968 48.8697 54.2827 48.7183 54.4341C48.5668 54.5855 48.481 54.7904 48.4791 55.0045C48.4772 55.2186 48.5596 55.4249 48.7083 55.5789L52.1726 59.0441C52.3258 59.1972 52.5334 59.2832 52.75 59.2832C52.9665 59.2832 53.1742 59.1972 53.3274 59.0441L60.2568 52.1146C60.4056 51.9606 60.4879 51.7543 60.486 51.5402C60.4842 51.3261 60.3983 51.1212 60.2468 50.9698C60.0954 50.8184 59.8906 50.7325 59.6765 50.7307C59.4623 50.7288 59.2561 50.8111 59.102 50.9599Z" fill="white"/>
<defs>
<linearGradient id="paint0_linear" x1="42" y1="-2.5" x2="40" y2="94.5" gradientUnits="userSpaceOnUse">
<stop stop-color="#0077FD"/>
<stop offset="0.765625" stop-color="#C1DEFF" stop-opacity="0.469017"/>
<stop offset="1" stop-color="white" stop-opacity="0"/>
</linearGradient>
</defs>
</svg>
