<svg width="80" height="80" viewBox="0 0 80 80" fill="none" xmlns="http://www.w3.org/2000/svg">
<circle cx="40" cy="40" r="40" fill="#7BB9FF"/>
<circle cx="40" cy="40" r="40" fill="url(#paint0_linear)"/>
<path d="M59.1247 14H21.7704C21.3448 14 21 14.3449 21 14.7704V51.3646C21 51.79 21.3448 52.135 21.7704 52.135C22.1959 52.135 22.5408 51.79 22.5408 51.3646V15.5408H58.3543V20.3839C58.3543 20.8094 58.6991 21.1543 59.1247 21.1543C59.5503 21.1543 59.8951 20.8094 59.8951 20.3839V14.7704C59.8951 14.3449 59.5503 14 59.1247 14V14Z" fill="white"/>
<path d="M59.1247 23.2087C58.6991 23.2087 58.3543 23.5536 58.3543 23.9791V65.0507H22.5408V54.9597C22.5408 54.5343 22.1959 54.1894 21.7704 54.1894C21.3448 54.1894 21 54.5343 21 54.9597V65.8211C21 66.2466 21.3448 66.5915 21.7704 66.5915H59.1247C59.5503 66.5915 59.8951 66.2466 59.8951 65.8211V23.9791C59.8951 23.5536 59.5503 23.2087 59.1247 23.2087V23.2087Z" fill="white"/>
<path d="M24.3204 30.0233C24.3204 33.3089 26.9934 35.9818 30.2789 35.9818C33.5644 35.9818 36.2373 33.3089 36.2373 30.0233C36.2373 26.7378 33.5644 24.0649 30.2789 24.0649C26.9934 24.0649 24.3204 26.7378 24.3204 30.0233V30.0233ZM30.2789 34.441C27.8429 34.441 25.8612 32.4593 25.8612 30.0233C25.8612 27.8502 27.4387 26.0399 29.5085 25.6743V30.0233C29.5085 30.4488 29.8533 30.7937 30.2789 30.7937H34.6279C34.2622 32.8635 32.452 34.441 30.2789 34.441ZM34.6279 29.2529H31.0493V25.6743C32.8686 25.9958 34.3064 27.4336 34.6279 29.2529Z" fill="white"/>
<path d="M25.5058 58.41C25.0802 58.41 24.7354 58.7549 24.7354 59.1804V62.5007C24.7354 62.9262 25.0802 63.2711 25.5058 63.2711H30.4864C30.9119 63.2711 31.2568 62.9262 31.2568 62.5007V59.1804C31.2568 58.7549 30.9119 58.41 30.4864 58.41H25.5058ZM29.716 61.7303H26.2762V59.9507H29.716V61.7303Z" fill="white"/>
<path d="M33.8068 63.2711H38.7873C39.2129 63.2711 39.5577 62.9261 39.5577 62.5007V54.1998C39.5577 53.7743 39.2129 53.4294 38.7873 53.4294H33.8068C33.3813 53.4294 33.0364 53.7743 33.0364 54.1998V62.5007C33.0364 62.9261 33.3813 63.2711 33.8068 63.2711ZM34.5772 54.9701H38.0169V61.7303H34.5772V54.9701Z" fill="white"/>
<path d="M42.1078 47.2037C41.6822 47.2037 41.3374 47.5486 41.3374 47.9741V62.5007C41.3374 62.9261 41.6822 63.2711 42.1078 63.2711H47.0883C47.5138 63.2711 47.8586 62.9261 47.8586 62.5007V47.9741C47.8586 47.5486 47.5138 47.2037 47.0883 47.2037H42.1078ZM46.3179 61.7303H42.8782V48.7444H46.3179V61.7303Z" fill="white"/>
<path d="M55.3888 47.3114C55.8144 47.3114 56.1592 46.9664 56.1592 46.541V43.8241C56.1592 43.3986 55.8144 43.0537 55.3888 43.0537H50.4091C49.9835 43.0537 49.6387 43.3986 49.6387 43.8241V62.5002C49.6387 62.9257 49.9835 63.2706 50.4091 63.2706H55.3887C55.8143 63.2706 56.1591 62.9257 56.1591 62.5002V50.1361C56.1591 49.7106 55.8143 49.3657 55.3887 49.3657C54.9631 49.3657 54.6183 49.7106 54.6183 50.1361V61.7298H51.1794V44.5945H54.6183V46.541C54.6184 46.9664 54.9632 47.3114 55.3888 47.3114V47.3114Z" fill="white"/>
<path d="M48.7485 17.3203H32.1467C31.7211 17.3203 31.3763 17.6652 31.3763 18.0907V21.411C31.3763 21.8365 31.7211 22.1814 32.1467 22.1814H48.7486C49.1742 22.1814 49.519 21.8365 49.519 21.411V18.0907C49.5189 17.6652 49.1741 17.3203 48.7485 17.3203ZM47.9781 20.6407H32.917V18.8611H47.9782V20.6407H47.9781Z" fill="white"/>
<path d="M55.8043 24.0649H40.4476C40.022 24.0649 39.6772 24.4098 39.6772 24.8353C39.6772 25.2607 40.022 25.6056 40.4476 25.6056H55.8043C56.2298 25.6056 56.5746 25.2607 56.5746 24.8353C56.5746 24.4098 56.2297 24.0649 55.8043 24.0649Z" fill="white"/>
<path d="M55.8043 27.5236H40.4476C40.022 27.5236 39.6772 27.8685 39.6772 28.2939C39.6772 28.7194 40.022 29.0643 40.4476 29.0643H55.8043C56.2298 29.0643 56.5746 28.7194 56.5746 28.2939C56.5746 27.8685 56.2297 27.5236 55.8043 27.5236Z" fill="white"/>
<path d="M56.5746 31.7527C56.5746 31.3272 56.2298 30.9823 55.8043 30.9823H40.4476C40.022 30.9823 39.6772 31.3272 39.6772 31.7527C39.6772 32.1781 40.022 32.5231 40.4476 32.5231H55.8043C56.2297 32.5231 56.5746 32.1781 56.5746 31.7527Z" fill="white"/>
<path d="M50.349 35.2114C50.349 34.786 50.0042 34.441 49.5786 34.441H40.4476C40.022 34.441 39.6772 34.786 39.6772 35.2114C39.6772 35.6369 40.022 35.9818 40.4476 35.9818H49.5786C50.0041 35.9818 50.349 35.6369 50.349 35.2114Z" fill="white"/>
<path d="M40.4475 39.5253H26.4397C26.0141 39.5253 25.6693 39.8703 25.6693 40.2957C25.6693 40.7212 26.0141 41.0661 26.4397 41.0661H40.4475C40.8731 41.0661 41.2179 40.7212 41.2179 40.2957C41.2179 39.8703 40.8731 39.5253 40.4475 39.5253Z" fill="white"/>
<path d="M41.2179 43.7544C41.2179 43.3289 40.8731 42.984 40.4475 42.984H26.4397C26.0141 42.984 25.6693 43.3289 25.6693 43.7544C25.6693 44.1798 26.0141 44.5248 26.4397 44.5248H40.4475C40.8731 44.5248 41.2179 44.1798 41.2179 43.7544Z" fill="white"/>
<path d="M34.9923 47.2131C34.9923 46.7877 34.6475 46.4427 34.2219 46.4427H26.4397C26.0141 46.4427 25.6693 46.7877 25.6693 47.2131C25.6693 47.6386 26.0141 47.9835 26.4397 47.9835H34.2219C34.6473 47.9835 34.9923 47.6386 34.9923 47.2131Z" fill="white"/>
<defs>
<linearGradient id="paint0_linear" x1="42" y1="-2.5" x2="40" y2="94.5" gradientUnits="userSpaceOnUse">
<stop stop-color="#0077FD"/>
<stop offset="0.765625" stop-color="#C1DEFF" stop-opacity="0.469017"/>
<stop offset="1" stop-color="white" stop-opacity="0"/>
</linearGradient>
</defs>
</svg>
