<svg width="101" height="101" viewBox="0 0 101 101" fill="none" xmlns="http://www.w3.org/2000/svg">
<path d="M3.37561 51.0763C3.37561 25.3616 23.4361 4.44128 48.0973 4.44128C67.0519 4.44128 83.8832 16.9802 90.1963 35.3368L94.7711 35.3836C97.1265 35.3966 97.985 37.0809 96.6912 39.1306L89.3577 54.8637C88.0548 56.9149 85.9499 56.8988 84.6729 54.8362L74.8497 38.9787C73.5681 36.9177 74.4525 35.2398 76.8079 35.2527L81.5141 35.2818C75.6516 21.8053 62.6374 12.8178 48.1004 12.8178C27.8673 12.8178 11.4087 29.983 11.4087 51.0763C11.4087 72.1695 27.8658 89.3412 48.0973 89.3412C58.6583 89.3412 68.7077 84.5888 75.6791 76.3093C77.1409 74.5684 79.6796 74.3954 81.3415 75.923C83.0125 77.4521 83.1806 80.0983 81.7203 81.836C73.2229 91.9308 60.9694 97.7129 48.0973 97.7129C23.4361 97.7113 3.37561 76.7958 3.37561 51.0763Z" fill="white"/>
<path d="M53.5351 51.1732C57.4027 48.4349 60.0682 42.9891 60.0682 38.0847C60.0682 31.1776 54.7892 25.5587 48.2546 25.5587C41.7215 25.5587 36.4151 31.1776 36.4151 38.0847C36.4151 42.9875 39.082 48.4333 42.9756 51.1732C33.6961 53.6577 26.8209 62.1814 26.8209 68.4872C26.8209 75.9552 69.6608 75.9552 69.6608 68.4872C69.6623 62.1814 62.7886 53.6577 53.5351 51.1732Z" fill="white"/>
</svg>
