<svg width="482" height="347" viewBox="0 0 482 347" fill="none" xmlns="http://www.w3.org/2000/svg">
<path d="M106.149 17.9533C108.905 1.69661 134.045 -5.64244 133.553 4.96804L248.799 5.6402C256.781 5.6867 263.254 12.8376 263.261 21.6202L263.5 323.447C263.507 332.546 256.922 339.985 248.787 340.055L131.138 341.059C130.409 342.586 129.041 343.976 126.888 345.136C113.396 345.422 106.925 338.787 104.561 331.286C103.791 329.273 103.372 327.047 103.391 324.702C103.862 320.773 105.297 21.7651 106.149 17.9533Z" fill="#408BFF"/>
<path d="M128.146 345.184L263.189 344.317C271.616 344.263 278.433 336.623 278.417 327.261L277.911 16.8589C277.896 7.83135 271.187 0.49836 262.924 0.471473L130.504 0.0429815C122.174 0.016095 115.363 7.33892 115.293 16.4074L112.893 328.245C112.82 337.65 119.651 345.238 128.146 345.184Z" fill="white"/>
<path d="M126.282 342.926C126.842 343.001 127.417 343.037 127.988 343.032L262.99 342.015C270.231 341.96 276.15 335.262 276.137 327.091L275.671 17.0294C275.659 9.1483 269.834 2.71661 262.731 2.68609L130.32 2.1125C130.113 2.11178 129.904 2.11614 129.698 2.12559C126.366 2.2794 123.252 3.79085 120.925 6.37777C118.546 9.02161 117.223 12.5253 117.194 16.2495L114.826 328.403C114.77 335.801 119.677 342.045 126.282 342.926Z" fill="black"/>
<path d="M121.838 17.8185L119.56 328.885L271.646 327.978L271.258 17.8185H121.838Z" fill="#005CEA"/>
<path d="M174.272 176.978H211.862C215.043 176.978 217.645 174.386 217.645 171.219C217.645 168.052 215.042 165.461 211.862 165.461H174.272C171.091 165.461 168.489 168.052 168.489 171.219C168.489 174.386 171.092 176.978 174.272 176.978Z" fill="#FF9F34"/>
<path d="M145.676 134.228H242.873C246.053 134.228 248.655 131.636 248.655 128.469C248.655 125.302 246.053 122.71 242.873 122.71H145.676C142.496 122.71 139.893 125.302 139.893 128.469C139.893 131.636 142.496 134.228 145.676 134.228Z" fill="white"/>
<path d="M145.676 152.775H242.873C246.053 152.775 248.655 150.184 248.655 147.017C248.655 143.849 246.053 141.258 242.873 141.258H145.676C142.496 141.258 139.893 143.849 139.893 147.017C139.893 150.184 142.496 152.775 145.676 152.775Z" fill="white"/>
<path d="M226.759 149.554C227.884 149.554 228.795 148.647 228.795 147.527C228.795 146.407 227.884 145.5 226.759 145.5C225.635 145.5 224.723 146.407 224.723 147.527C224.723 148.647 225.635 149.554 226.759 149.554Z" fill="#80B2FF"/>
<path d="M219.779 149.554C220.903 149.554 221.815 148.647 221.815 147.527C221.815 146.407 220.903 145.5 219.779 145.5C218.654 145.5 217.743 146.407 217.743 147.527C217.743 148.647 218.654 149.554 219.779 149.554Z" fill="#80B2FF"/>
<path d="M212.798 149.554C213.923 149.554 214.834 148.647 214.834 147.527C214.834 146.407 213.923 145.5 212.798 145.5C211.674 145.5 210.762 146.407 210.762 147.527C210.762 148.647 211.674 149.554 212.798 149.554Z" fill="#80B2FF"/>
<path d="M205.818 149.554C206.942 149.554 207.854 148.647 207.854 147.527C207.854 146.407 206.942 145.5 205.818 145.5C204.694 145.5 203.782 146.407 203.782 147.527C203.782 148.647 204.694 149.554 205.818 149.554Z" fill="#80B2FF"/>
<path d="M198.837 149.554C199.962 149.554 200.873 148.647 200.873 147.527C200.873 146.407 199.962 145.5 198.837 145.5C197.713 145.5 196.802 146.407 196.802 147.527C196.802 148.647 197.713 149.554 198.837 149.554Z" fill="#80B2FF"/>
<path d="M191.857 149.554C192.981 149.554 193.893 148.647 193.893 147.527C193.893 146.407 192.981 145.5 191.857 145.5C190.733 145.5 189.821 146.407 189.821 147.527C189.821 148.647 190.733 149.554 191.857 149.554Z" fill="#80B2FF"/>
<path d="M184.876 149.554C186.001 149.554 186.912 148.647 186.912 147.527C186.912 146.407 186.001 145.5 184.876 145.5C183.752 145.5 182.84 146.407 182.84 147.527C182.84 148.647 183.752 149.554 184.876 149.554Z" fill="#80B2FF"/>
<path d="M177.896 149.554C179.02 149.554 179.932 148.647 179.932 147.527C179.932 146.407 179.02 145.5 177.896 145.5C176.771 145.5 175.86 146.407 175.86 147.527C175.86 148.647 176.771 149.554 177.896 149.554Z" fill="#80B2FF"/>
<path d="M170.915 149.554C172.04 149.554 172.951 148.647 172.951 147.527C172.951 146.407 172.04 145.5 170.915 145.5C169.791 145.5 168.879 146.407 168.879 147.527C168.879 148.647 169.791 149.554 170.915 149.554Z" fill="#80B2FF"/>
<path d="M194.242 106.596C206.581 106.596 216.584 96.6346 216.584 84.3467C216.584 72.0588 206.581 62.0975 194.242 62.0975C181.902 62.0975 171.899 72.0588 171.899 84.3467C171.899 96.6346 181.902 106.596 194.242 106.596Z" fill="white"/>
<path d="M194.21 83.4515C192.029 83.4515 190.014 82.3935 188.728 80.7779C187.778 79.6084 187.218 78.1042 187.218 76.4329C187.218 72.5898 190.35 69.4146 194.21 69.4146C198.125 69.4146 201.257 72.5898 201.257 76.4329C201.257 78.1042 200.699 79.6082 199.747 80.7779C198.461 82.3935 196.448 83.4515 194.21 83.4515Z" fill="#005CEA"/>
<path d="M181.826 95.9574C181.826 100.386 206.663 100.386 206.663 95.9574L206.655 90.7961C205.673 83.7402 183.844 83.4438 181.821 90.7961L181.826 95.9574Z" fill="#005CEA"/>
<path d="M237.692 145.955V150.038C237.692 150.744 242.948 150.744 242.948 150.038V145.955H242.603V145.646C242.603 144.397 241.582 143.38 240.327 143.38C239.072 143.38 238.052 144.397 238.052 145.646V145.955H237.692V145.955ZM241.792 145.955H238.847V145.646C238.847 144.817 239.349 144.15 240.327 144.15C241.306 144.15 241.792 144.862 241.792 145.646V145.955ZM239.606 147.407C239.606 147.013 239.94 146.681 240.335 146.681C240.73 146.681 241.064 147.014 241.064 147.407C241.064 147.679 240.912 147.891 240.7 148.012V149.192C240.7 149.404 240.548 149.555 240.335 149.555C240.123 149.555 239.94 149.404 239.94 149.192V148.012C239.758 147.891 239.606 147.679 239.606 147.407Z" fill="#4D4D4D"/>
<path d="M240.322 128.051C239.861 128.051 239.436 127.828 239.165 127.487C238.965 127.24 238.846 126.923 238.846 126.57C238.846 125.759 239.507 125.089 240.322 125.089C241.148 125.089 241.809 125.759 241.809 126.57C241.809 126.923 241.691 127.24 241.49 127.487C241.219 127.828 240.794 128.051 240.322 128.051Z" fill="#4D4D4D"/>
<path d="M237.708 130.69C237.708 131.625 242.976 131.625 242.976 130.69L242.948 129.601C242.741 128.112 238.134 128.05 237.707 129.601L237.708 130.69Z" fill="#4D4D4D"/>
<path d="M206.276 130.159H227.576C228.51 130.159 229.273 129.399 229.273 128.469C229.273 127.539 228.51 126.779 227.576 126.779H206.276C205.343 126.779 204.579 127.539 204.579 128.469C204.579 129.398 205.343 130.159 206.276 130.159Z" fill="#80B2FF"/>
<path d="M178.183 130.159H199.483C200.416 130.159 201.18 129.399 201.18 128.469C201.18 127.539 200.417 126.779 199.483 126.779H178.183C177.25 126.779 176.486 127.539 176.486 128.469C176.486 129.398 177.25 130.159 178.183 130.159Z" fill="#80B2FF"/>
<path d="M223.081 239.372V282.322C223.081 287.095 160.481 287.095 160.481 282.322V239.372H223.081Z" fill="white"/>
<path d="M191.781 262.805C196.05 262.805 199.51 259.577 199.51 255.595C199.51 251.613 196.05 248.385 191.781 248.385C187.513 248.385 184.053 251.613 184.053 255.595C184.053 259.577 187.513 262.805 191.781 262.805Z" fill="#005CEA"/>
<path d="M191.679 277.309H191.883C193.576 277.309 194.949 275.942 194.949 274.256V257.817H188.613V274.256C188.613 275.942 189.986 277.309 191.679 277.309Z" fill="#005CEA"/>
<path d="M165.968 236.312H172.303V233.42C172.303 223.4 181.041 215.248 191.78 215.248C202.521 215.248 211.259 223.4 211.259 233.42V236.312H217.595V233.42C217.595 220.141 206.015 209.337 191.78 209.337C177.548 209.337 165.968 220.141 165.968 233.42V236.312Z" fill="white"/>
<path d="M0 183.892C0.000967644 183.651 0.00145238 183.544 0.00169429 183.52C0.00145238 183.565 0 183.892 0 183.892Z" fill="#D9FFFF"/>
<path d="M0 183.892C0.000967644 183.651 0.00145238 183.544 0.00169429 183.52C0.00145238 183.565 0 183.892 0 183.892Z" fill="#D9FFFF"/>
<path d="M144.522 184.535C144.522 184.535 144.524 184.208 144.524 184.163C144.524 184.188 144.523 184.294 144.522 184.535Z" fill="#D9FFFF"/>
<path d="M144.522 184.535C144.522 184.535 144.524 184.208 144.524 184.163C144.524 184.188 144.523 184.294 144.522 184.535Z" fill="#D9FFFF"/>
<path d="M72.5286 150.074C56.5304 167.139 31.003 181.124 3.68629 187.083C3.67802 188.9 3.63277 198.965 3.42456 245.359C3.14678 307.248 62.2942 337.491 71.477 342.133C80.3745 338.054 140.268 307.858 140.546 245.969C140.754 199.575 140.799 189.51 140.808 187.693C113.545 181.492 88.3728 167.28 72.5286 150.074Z" fill="white"/>
<path d="M72.385 156.786C55.8928 171.851 33.0445 183.693 7.9199 190.147L7.67203 245.348C7.55844 270.606 17.6352 293.456 37.6233 313.266C50.7563 326.282 64.5646 334.354 71.5712 337.984C71.8723 337.832 72.2031 337.66 72.5286 337.491V156.914C72.4811 156.871 72.4313 156.83 72.385 156.786Z" fill="#80B2FF"/>
<path d="M72.5286 156.914V337.491C79.8144 333.717 93.0574 325.915 105.74 313.569C125.904 293.939 136.186 271.179 136.299 245.92L136.547 190.718C111.552 184.061 88.8731 172.065 72.5286 156.914Z" fill="#4D93FF"/>
<path d="M122.869 212.245C103.742 215.182 77.696 232.554 61.2643 253.443C58.9596 243.594 48.6127 234.602 43.1996 232.636L26.7991 249.052C37.0393 253.647 48.2295 266.668 49.7128 279.997L66.0961 282.526C73.0034 268.939 90.8426 236.438 126.333 218.963C125.65 216.303 123.144 212.624 122.869 212.245Z" fill="#0046B3"/>
<path d="M392.774 107.399L439.162 107.091L479.061 106.68L479.234 112.708C465.366 118.042 454.482 119.654 440.671 120.676C426.679 125.303 408.154 128.362 393.824 129.366C381.225 129.963 380.175 107.996 392.774 107.399Z" fill="#F7A594"/>
<path d="M413.341 106.089C407.772 105.984 391.292 104.246 381.022 105.45C371.729 109.251 374.034 125.392 378.291 127.93C378.279 128.387 396.322 133.401 414.576 128.067C417.323 124.863 416.393 109.286 413.341 106.089Z" fill="#112E59"/>
<path d="M417.037 128.702C414.144 129.728 411.425 130.378 409.393 129.549C408.188 129.606 406.847 105.427 408.052 105.37L415.645 105.011C418.055 104.896 419.447 128.588 417.037 128.702Z" fill="#1D498C"/>
<path d="M474.452 106.792C475.803 100.57 477.959 91.72 480.581 91.5957C481.146 91.569 481.229 91.9319 481.2 93.5887C479.897 104.65 482.896 107.65 481.447 110.776C479.853 113.805 475.464 113.746 475.464 113.746C473.003 112.648 472.803 108.552 474.452 106.792Z" fill="#F7A594"/>
<path d="M477.578 105.451L480.312 97.417C480.312 97.417 482.095 97.728 481.72 99.8518C481.344 101.976 480.89 104.262 480.89 104.262C480.89 104.262 483.026 108.86 481.325 110.763C479.624 112.667 476.693 110.807 477.578 105.451Z" fill="#F7A594"/>
<path d="M481.701 110.424L481.494 110.358C482.425 107.457 480.809 104.344 480.793 104.313L480.775 104.279L480.783 104.241C480.788 104.218 481.242 101.932 481.613 99.8334C481.761 98.9929 481.584 98.3493 481.085 97.9206C480.817 97.69 480.526 97.5866 480.383 97.5461L477.682 105.486L477.475 105.416L480.238 97.2944L480.33 97.3104C480.35 97.3138 480.811 97.3974 481.228 97.7561C481.613 98.0877 482.03 98.7238 481.827 99.8709C481.482 101.826 481.064 103.943 481.004 104.246C481.181 104.603 482.607 107.606 481.701 110.424Z" fill="#D97B69"/>
<path d="M476.38 101.621L476.169 101.568C476.266 101.185 478.566 92.1913 480.544 91.493L480.617 91.6977C478.748 92.3577 476.404 101.528 476.38 101.621Z" fill="#D97B69"/>
<path d="M335 345.525H356.343C356.77 345.275 357.082 344.993 357.259 344.672C357.599 328.865 358.816 321.254 358.816 321.254L343.922 320.652L341.122 332.411C336.306 335.8 330.719 343.071 335 345.525Z" fill="#231F20"/>
<path d="M357.974 345.81H332.672C332.03 345.81 332.077 342.306 332.719 342.306L357.877 342.447C358.537 342.447 358.635 345.81 357.974 345.81Z" fill="#231F20"/>
<path d="M355.355 179.67C353.844 191.372 347.386 220.276 348.082 252.06C341.089 292.569 340.319 301.49 339.47 326.475L360.804 327.27C364.218 309.822 371.226 282.282 374.4 255.413C381.294 234.241 385.812 204.065 388.032 180.105C390.269 159.456 360.955 151.108 355.355 179.67Z" fill="#112E59"/>
<path d="M349.9 327.463L349.464 327.457C349.502 324.576 358.171 227.157 366.977 187.662L367.403 187.756C358.602 227.227 349.938 324.584 349.9 327.463Z" fill="#231F20"/>
<path d="M376.793 181.098C379.799 221.4 388.658 255.633 388.658 255.633C386.924 283.13 391.821 309.532 395.304 327.592L415.599 327.411C416.775 309.73 414.263 214.017 409.012 181.557C406.509 152.856 373.173 151.32 376.793 181.098Z" fill="#112E59"/>
<path d="M399.145 327.592C398.237 334.105 397.605 339.186 398.401 345.081L431.59 345.723C431.59 345.723 434.719 342.54 430.363 337.765C426.007 332.99 418.303 335.753 412.827 327.411L399.145 327.592Z" fill="#231F20"/>
<path d="M433.1 345.81H397.871C397.229 345.81 397.229 342.306 397.871 342.306L432.957 342.447C433.618 342.447 433.76 345.81 433.1 345.81Z" fill="#231F20"/>
<path d="M411.103 327.212L404.148 188.028L403.713 188.049L410.667 327.234L411.103 327.212Z" fill="#231F20"/>
<path d="M408.94 176.518L356.186 180.521C356.665 147.629 341.75 124.917 344.855 116.447C349.121 104.81 380.214 104.728 392.057 109.266C396.759 111.068 404.407 121.487 405.308 134.598C405.562 140.698 405.622 144.881 405.026 149.759C404.428 154.636 408.94 176.518 408.94 176.518Z" fill="#112E59"/>
<path d="M377.409 115.815C374.956 113.875 365.174 110.883 362.572 108.761L363.159 91.8517L372.778 90.9191C375.568 91.1495 378.357 91.8151 380.756 92.7586L382.921 103.893L383.398 106.307C384.488 108.684 382.33 111.549 377.409 115.815Z" fill="#F7A594"/>
<path d="M366.396 95.6802C367.905 97.9924 374.222 103.914 382.921 103.893L381.048 94.2596L366.396 95.6802Z" fill="#E6836F"/>
<path d="M387.684 73.4051C388.439 76.7366 389.993 84.0502 389.738 87.4188C389.352 92.5468 384.542 98.2346 380.347 98.9812C375.491 99.4738 368.945 98.0341 365.391 94.9933C363.413 92.6849 359.585 87.209 357.823 82.4154C354.148 72.4173 361.243 63.6496 370.243 61.6247C379.243 59.5997 385.333 63.0189 387.684 73.4051Z" fill="#F7A594"/>
<path d="M360.838 89.0206C358.961 85.731 361.455 84.3983 364.189 86.9522C363.722 84.47 360.88 77.1968 363.397 74.785C366.24 71.9866 378.751 73.2045 385.473 66.2257C385.473 66.2257 380.463 55.2872 364.019 61.747C345.448 71.5528 360.838 89.0206 360.838 89.0206Z" fill="#4D261C"/>
<path d="M363.165 85.893C364.587 87.6147 364.647 89.8991 363.299 90.9949C361.952 92.0907 359.707 91.5833 358.285 89.8616C356.864 88.1399 356.803 85.8555 358.151 84.7597C359.499 83.6636 361.744 84.1711 363.165 85.893Z" fill="#F7A594"/>
<path d="M385.627 66.6786C383.538 66.0418 358.651 75.8898 359.305 77.7304C359.305 77.7304 377.325 77.813 389.713 72.1961C396.475 69.1301 385.627 66.6786 385.627 66.6786Z" fill="#112E59"/>
<path d="M355.553 79.3138L385.784 66.6263L384.75 62.3622L352.725 75.5199C353.359 76.9849 354.454 78.5746 355.553 79.3138Z" fill="#1D498C"/>
<path d="M351.852 76.469C348.544 77.7239 346.773 75.7128 350.113 71.8854C355.266 65.9815 358.784 50.8805 366.436 48.1427C371.71 46.2558 375.7 52.4053 382.701 56.2249C385.876 57.9572 387.653 59.7693 386.464 61.897C382.847 64.5941 355.314 75.1549 351.852 76.469Z" fill="#112E59"/>
<path d="M372.842 53.8325C372.806 53.7353 372.787 53.6862 372.778 53.6634C372.028 53.7683 371.263 53.7632 370.544 53.6615C369.824 53.56 369.151 53.3614 368.584 53.0797C368.582 53.0823 368.581 53.085 368.58 53.0879C368.459 53.3788 368.305 53.6712 368.123 53.9589C367.88 54.3419 367.583 54.7144 367.249 55.0663C367.081 55.2434 366.906 55.4168 366.718 55.5806C366.438 55.8255 366.138 56.0536 365.821 56.259C365.843 56.3162 365.926 56.5364 366.201 57.265C366.256 57.4108 366.318 57.577 366.39 57.7661C366.425 57.8608 366.463 57.9611 366.504 58.0677C366.624 58.3872 366.765 58.7621 366.931 59.2013C367.152 59.787 367.459 60.2775 367.814 60.6878C367.933 60.8244 368.057 60.9523 368.185 61.072C368.569 61.4304 368.991 61.7143 369.413 61.9386C369.835 62.1629 370.258 62.3279 370.645 62.449C371.161 62.6105 371.614 62.6936 371.918 62.7358C372.069 62.7568 372.184 62.7675 372.25 62.7726C372.368 62.6457 372.688 62.3007 373.035 61.7916C373.174 61.5879 373.317 61.3578 373.454 61.1049C373.522 60.9785 373.589 60.8462 373.653 60.7086C374.162 59.6085 374.477 58.168 373.887 56.6059C373.226 54.8491 372.952 54.1239 372.842 53.8325Z" fill="#F7BD0C"/>
<path d="M372.677 57.0942C373.139 58.3344 372.498 59.7131 371.247 60.1738C369.995 60.6343 368.607 60.0023 368.146 58.7621C367.684 57.522 368.325 56.1432 369.576 55.6825C370.827 55.2218 372.216 55.854 372.677 57.0942Z" fill="white"/>
<path d="M377.188 111.139L378.778 114.457L379.022 110.932L381.166 116.599C380.632 115.659 378.815 114.833 378.815 114.833C378.815 114.833 376.836 115.738 375.876 117.89L377.188 111.139Z" fill="#231F20"/>
<path d="M362.688 104.693C365.062 107.742 372.786 109.831 377.188 111.139L375.876 117.89C370.586 116.111 363.747 114.092 360.681 107.789C359.988 106.074 360.816 105.121 362.688 104.693Z" fill="#1D498C"/>
<path d="M382.954 103.629C382.719 104.739 382.537 109.091 379.022 110.932L381.166 116.599C386.012 113.838 386.267 111.28 385.521 107.268C385.216 105.672 384.68 103.961 382.954 103.629Z" fill="#1D498C"/>
<path d="M387.15 179.531C387.04 179.531 386.945 179.449 386.933 179.337C386.391 174.325 385.951 168.347 385.486 162.018C384.218 144.775 382.781 125.232 378.613 114.914C378.568 114.803 378.622 114.676 378.734 114.632C378.845 114.587 378.972 114.641 379.017 114.752C383.211 125.133 384.65 144.712 385.921 161.986C386.386 168.312 386.826 174.286 387.366 179.291C387.38 179.41 387.293 179.517 387.173 179.53C387.165 179.531 387.157 179.531 387.15 179.531Z" fill="#231F20"/>
<path d="M356.196 175.133C366.508 177.885 406.942 176.833 408.551 175.605C411.01 175.055 411.565 183.861 410.137 185.984C407.955 189.229 356.015 188.711 354.371 186.378C352.728 184.044 353.283 174.356 356.196 175.133Z" fill="#231F20"/>
<path d="M396.14 127.496C396.128 127.396 396.122 127.345 396.12 127.321C395.387 127.245 394.665 127.063 394.01 126.799C393.355 126.536 392.765 126.191 392.296 125.793C392.294 125.795 392.292 125.798 392.291 125.8C392.108 126.047 391.894 126.287 391.655 126.516C391.335 126.821 390.967 127.104 390.568 127.359C390.368 127.487 390.162 127.61 389.946 127.721C389.624 127.887 389.287 128.033 388.94 128.153C388.947 128.212 388.973 128.439 389.061 129.192C389.079 129.342 389.099 129.514 389.122 129.709C389.133 129.807 389.145 129.91 389.158 130.02C389.196 130.35 389.242 130.737 389.295 131.19C389.366 131.795 389.54 132.33 389.779 132.8C389.859 132.957 389.946 133.107 390.038 133.249C390.317 133.678 390.648 134.044 390.994 134.354C391.34 134.664 391.701 134.919 392.038 135.123C392.487 135.396 392.895 135.58 393.172 135.69C393.31 135.746 393.416 135.782 393.477 135.802C393.619 135.71 394.001 135.459 394.449 135.059C394.628 134.898 394.818 134.715 395.006 134.507C395.101 134.404 395.195 134.295 395.287 134.179C396.027 133.259 396.663 131.972 396.475 130.359C396.263 128.545 396.175 127.797 396.14 127.496Z" fill="#F7BD0C"/>
<path d="M398.675 137.412L388.51 138.398L388.691 140.254L398.856 139.268L398.675 137.412Z" fill="#1D498C"/>
<path d="M387.452 209.291H384.33L384.394 209.024C385.795 203.122 385.987 188.764 385.989 188.619L386.425 188.624C386.424 188.767 386.237 202.756 384.88 208.857H387.095C387.383 207.411 389.325 197.239 388.835 188.987L389.271 188.961C389.8 197.879 387.511 209.007 387.488 209.118L387.452 209.291Z" fill="#231F20"/>
<path d="M336.5 142.656C336.5 142.656 332.394 165.796 336.579 173.956C340.904 182.389 380.836 184.224 380.836 184.224L382.267 172.257L354.749 165.304L360.725 147.582L336.5 142.656Z" fill="#F7A594"/>
<path d="M346.852 112.895C346.852 112.895 335.252 126.99 334.784 147.18C349.904 158.157 359.866 150.249 359.866 150.249C359.866 150.249 367.534 130.069 365.834 120.25C364.135 110.431 350.285 109.331 346.852 112.895Z" fill="#112E59"/>
<path d="M335.299 141.13C337.346 143.612 360.845 148.453 361.331 145.729C361.985 148.332 361.845 150.868 359.738 153.238C359.14 157.021 333.663 153.037 334.261 149.253C332.781 146.912 333.127 144.204 335.299 141.13Z" fill="#1D498C"/>
<path d="M361.331 145.946C361.294 145.946 361.255 145.936 361.221 145.916C361.117 145.855 361.083 145.722 361.144 145.618C362.84 142.757 364.262 138.892 365.047 135.013C365.071 134.895 365.186 134.819 365.304 134.843C365.422 134.867 365.498 134.981 365.475 135.099C364.681 139.024 363.24 142.938 361.519 145.839C361.479 145.908 361.406 145.946 361.331 145.946Z" fill="#231F20"/>
<path d="M364.151 144.182C364.153 144.044 364.154 143.983 364.154 143.969C364.154 143.994 364.151 144.182 364.151 144.182Z" fill="#D9FFFF"/>
<path d="M364.151 144.182C364.153 144.044 364.154 143.983 364.154 143.969C364.154 143.994 364.151 144.182 364.151 144.182Z" fill="#D9FFFF"/>
<path d="M447.038 145.091C447.038 145.091 447.04 144.903 447.04 144.878C447.04 144.892 447.039 144.953 447.038 145.091Z" fill="#D9FFFF"/>
<path d="M447.038 145.091C447.038 145.091 447.04 144.903 447.04 144.878C447.04 144.892 447.039 144.953 447.038 145.091Z" fill="#D9FFFF"/>
<path d="M405.913 122.255C396.186 132.449 380.717 140.753 364.2 144.227C364.188 145.318 364.12 151.368 363.809 179.25C363.394 216.444 398.985 234.854 404.511 237.679C409.899 235.263 446.182 217.352 446.598 180.157C446.908 152.275 446.976 146.226 446.988 145.134C430.553 141.3 415.411 132.659 405.913 122.255Z" fill="white"/>
<path d="M405.77 128.977C396.254 137.517 383.104 144.191 368.67 147.782L368.319 179.296C368.157 193.715 373.85 206.798 385.239 218.182C392.722 225.662 400.61 230.322 404.615 232.421C404.789 232.335 404.979 232.238 405.166 232.143L405.852 129.052C405.825 129.027 405.796 129.003 405.77 128.977Z" fill="#007880"/>
<path d="M405.852 129.052L405.166 232.143C409.359 230.016 416.984 225.611 424.305 218.61C435.944 207.479 441.928 194.524 442.088 180.104L442.44 148.59C428.13 144.696 415.168 137.762 405.852 129.052Z" fill="#008F99"/>
<path d="M388.806 174.365L388.644 198.78C388.626 201.498 422.112 201.717 422.131 198.999L422.293 174.584L388.806 174.365ZM407.157 187.451L407.111 194.37C407.105 195.292 406.344 196.052 405.414 196.046C404.469 196.04 403.717 195.27 403.723 194.348L403.769 187.413C402.339 186.763 401.341 185.319 401.352 183.663C401.367 181.398 403.238 179.583 405.523 179.598C407.808 179.613 409.64 181.452 409.625 183.718C409.614 185.389 408.611 186.82 407.157 187.451Z" fill="white"/>
<path d="M419.373 172.825L415.984 172.803L415.995 171.159C416.033 165.463 411.388 160.798 405.642 160.76C399.896 160.723 395.189 165.326 395.152 171.023L395.141 172.667L391.751 172.644L391.762 171C391.812 163.451 398.049 157.35 405.665 157.4C413.279 157.45 419.434 163.632 419.384 171.181L419.373 172.825Z" fill="white"/>
</svg>
