<svg width="199" height="142" viewBox="0 0 199 142" fill="none" xmlns="http://www.w3.org/2000/svg">
<path d="M159.7 5H27.6001V131H159.7V5Z" fill="#FB726C"/>
<path d="M198.5 131H0V141.6H198.5V131Z" fill="#EB5A52"/>
<path d="M159.7 15.8999H27.7V51.8999H159.7V15.8999Z" fill="#5AA193"/>
<path d="M159.691 0H27.5698V13H159.691V0Z" fill="#FCE6B7"/>
<path d="M159.7 62H27.6001V70.5H159.7V62Z" fill="#FCE6B7"/>
<path d="M151.5 76.7998H117.9V105H151.5V76.7998Z" fill="#FCE6B7"/>
<path d="M148.8 79.0996H120.7V102.6H148.8V79.0996Z" fill="#93CDC1"/>
<path d="M150.2 89.5H119.3V92.3H150.2V89.5Z" fill="#FCE6B7"/>
<path d="M69.2999 76.7998H35.7V105H69.2999V76.7998Z" fill="#FCE6B7"/>
<path d="M66.5 79.0996H38.5V102.6H66.5V79.0996Z" fill="#93CDC1"/>
<path d="M68.0001 89.5H37.1001V92.3H68.0001V89.5Z" fill="#FCE6B7"/>
<path d="M113.9 76.7998H73.3999V131H113.9V76.7998Z" fill="#93CDC1"/>
<path d="M76.1999 76.7998H73.3999V131H76.1999V76.7998Z" fill="#FCE6B7"/>
<path d="M113.9 76.7998H111.1V131H113.9V76.7998Z" fill="#FCE6B7"/>
<path d="M112.3 103.5H75V106.3H112.3V103.5Z" fill="#FCE6B7"/>
<path d="M112.5 76.7998H74.7998V79.5998H112.5V76.7998Z" fill="#FCE6B7"/>
<path fill-rule="evenodd" clip-rule="evenodd" d="M147.5 117.5C147.5 116 146.7 114.6 145.4 113.9V113.6C145.4 111.3 143.5 109.4 141.2 109.4C140.5 109.4 139.9 109.6 139.4 109.8C138.9 108 137.3 106.6 135.4 106.6C133.9 106.6 132.6 107.4 131.8 108.6C131.1 108.1 130.2 107.7 129.3 107.7C127 107.7 125.1 109.6 125.1 111.9C125.1 112.4 125.2 113 125.4 113.4C123.5 113.8 122.1 115.5 122.1 117.5C122.1 119.8 124 121.7 126.3 121.7H126.4C126.4 121.7 140.3 121.7 143.6 121.7C146.9 121.8 147.5 119.7 147.5 117.5Z" fill="#C2E06E"/>
<path fill-rule="evenodd" clip-rule="evenodd" d="M142.8 121.8C142.8 125.5 140.8 128.8 137.6 131H131.6C128.4 128.8 126.4 125.5 126.4 121.8H142.8Z" fill="#FCE6B7"/>
<path fill-rule="evenodd" clip-rule="evenodd" d="M65.2001 117.5C65.2001 116 64.4001 114.6 63.1001 113.9V113.6C63.1001 111.3 61.2001 109.4 58.9001 109.4C58.2001 109.4 57.6001 109.6 57.1001 109.8C56.6001 108 55.0001 106.6 53.1001 106.6C51.6001 106.6 50.3001 107.4 49.5001 108.6C48.8001 108.1 47.9001 107.7 47.0001 107.7C44.7001 107.7 42.8 109.6 42.8 111.9C42.8 112.4 42.9001 113 43.1001 113.4C41.2001 113.8 39.8 115.5 39.8 117.5C39.8 119.8 41.7001 121.7 44.0001 121.7H44.1001C44.1001 121.7 58 121.7 61.3 121.7C64.6 121.7 65.2001 119.7 65.2001 117.5Z" fill="#C2E06E"/>
<path fill-rule="evenodd" clip-rule="evenodd" d="M60.4 121.8C60.4 125.5 58.4 128.8 55.2 131H49.2C46 128.8 44 125.5 44 121.8H60.4Z" fill="#FCE6B7"/>
</svg>
