<svg width="960" height="960" viewBox="0 0 960 960" fill="none" xmlns="http://www.w3.org/2000/svg">
<path d="M960 0H0V960H960V0Z" fill="#2EABE3"/>
<path d="M262.827 566.187L50.7734 688.64L194.347 771.627L406.4 649.173L262.827 566.187Z" fill="#1D91D8"/>
<path d="M484.907 437.12L272.853 559.36L416.427 642.347L628.693 520.107L484.907 437.12Z" fill="#1D91D8"/>
<path d="M302.293 723.2C329.863 723.2 352.213 710.592 352.213 695.04C352.213 679.488 329.863 666.88 302.293 666.88C274.723 666.88 252.373 679.488 252.373 695.04C252.373 710.592 274.723 723.2 302.293 723.2Z" fill="#1D91D8"/>
<path d="M443.947 830.293C471.517 830.293 493.867 817.686 493.867 802.133C493.867 786.581 471.517 773.973 443.947 773.973C416.377 773.973 394.027 786.581 394.027 802.133C394.027 817.686 416.377 830.293 443.947 830.293Z" fill="#1D91D8"/>
<path d="M725.547 767.573C753.117 767.573 775.467 754.966 775.467 739.413C775.467 723.861 753.117 711.253 725.547 711.253C697.977 711.253 675.627 723.861 675.627 739.413C675.627 754.966 697.977 767.573 725.547 767.573Z" fill="#1D91D8"/>
<path d="M516.053 602.667C539.029 602.667 557.653 592.16 557.653 579.2C557.653 566.24 539.029 555.733 516.053 555.733C493.078 555.733 474.453 566.24 474.453 579.2C474.453 592.16 493.078 602.667 516.053 602.667Z" fill="#1D91D8"/>
<path d="M607.787 705.493C628.052 705.493 644.48 696.229 644.48 684.8C644.48 673.371 628.052 664.107 607.787 664.107C587.522 664.107 571.094 673.371 571.094 684.8C571.094 696.229 587.522 705.493 607.787 705.493Z" fill="#1D91D8"/>
<path d="M538.88 873.6C559.145 873.6 575.573 864.335 575.573 852.907C575.573 841.478 559.145 832.213 538.88 832.213C518.615 832.213 502.187 841.478 502.187 852.907C502.187 864.335 518.615 873.6 538.88 873.6Z" fill="#1D91D8"/>
<path d="M348.374 836.48C368.639 836.48 385.067 827.215 385.067 815.787C385.067 804.358 368.639 795.093 348.374 795.093C328.108 795.093 311.68 804.358 311.68 815.787C311.68 827.215 328.108 836.48 348.374 836.48Z" fill="#1D91D8"/>
<path d="M496.853 919.253C517.119 919.253 533.547 909.989 533.547 898.56C533.547 887.131 517.119 877.867 496.853 877.867C476.588 877.867 460.16 887.131 460.16 898.56C460.16 909.989 476.588 919.253 496.853 919.253Z" fill="#1D91D8"/>
<path d="M514.56 737.707C534.825 737.707 551.253 728.442 551.253 717.013C551.253 705.585 534.825 696.32 514.56 696.32C494.295 696.32 477.867 705.585 477.867 717.013C477.867 728.442 494.295 737.707 514.56 737.707Z" fill="#1D91D8"/>
<path d="M663.04 820.693C683.305 820.693 699.734 811.429 699.734 800C699.734 788.571 683.305 779.307 663.04 779.307C642.775 779.307 626.347 788.571 626.347 800C626.347 811.429 642.775 820.693 663.04 820.693Z" fill="#1D91D8"/>
<path d="M677.76 635.307C698.025 635.307 714.453 626.042 714.453 614.613C714.453 603.185 698.025 593.92 677.76 593.92C657.495 593.92 641.067 603.185 641.067 614.613C641.067 626.042 657.495 635.307 677.76 635.307Z" fill="#1D91D8"/>
<path d="M826.24 718.293C846.505 718.293 862.934 709.029 862.934 697.6C862.934 686.171 846.505 676.907 826.24 676.907C805.975 676.907 789.547 686.171 789.547 697.6C789.547 709.029 805.975 718.293 826.24 718.293Z" fill="#1D91D8"/>
<path d="M470.613 52.48V449.707L597.973 523.307V126.08L470.613 52.48Z" fill="#383C48"/>
<path d="M602.026 123.733L597.973 126.08V523.307L602.026 520.96V123.733Z" fill="#626877"/>
<path d="M474.666 50.3467L470.613 52.48L597.973 126.08L602.026 123.733L474.666 50.3467Z" fill="#F24A63"/>
<path d="M509.013 187.093V284.373L597.973 173.227L509.013 187.093Z" fill="#292B37"/>
<path d="M558.293 500.48L402.346 590.507V443.947L558.293 353.92V500.48Z" fill="#BDBDBD"/>
<path d="M558.293 359.04L402.346 449.067V443.947L558.293 353.92V359.04Z" fill="#E8E8E8"/>
<path d="M343.04 393.813L417.067 436.053L558.293 353.92L485.12 312.533L343.04 393.813Z" fill="white"/>
<path d="M482.133 253.013L522.24 273.707V268.16L487.253 250.027L482.133 253.013Z" fill="#62C2EC"/>
<path d="M491.307 247.68L522.24 263.68V252.587L501.333 241.92L491.307 247.68Z" fill="#62C2EC"/>
<path d="M366.506 319.787V406.187L522.24 316.16V284.16L472.533 258.56L366.506 319.787Z" fill="#62C2EC"/>
<path d="M508.586 237.653L505.386 239.573L522.24 248.32V244.693L508.586 237.653Z" fill="#62C2EC"/>
<path d="M522.24 207.573V169.6L487.68 189.653L522.24 207.573Z" fill="#2EABE3"/>
<path d="M450.347 211.2L505.387 239.573L508.587 237.653L453.547 209.28L450.347 211.2Z" fill="#2EABE3"/>
<path d="M427.093 224.64L482.133 253.013L487.253 250.027L432.213 221.653L427.093 224.64Z" fill="#2EABE3"/>
<path d="M417.493 230.187L366.506 259.627V319.787L472.533 258.56L417.493 230.187Z" fill="#2EABE3"/>
<path d="M436.266 219.307L491.306 247.68L501.333 241.92L446.293 213.547L436.266 219.307Z" fill="#2EABE3"/>
<path d="M472.533 258.56L522.24 284.16V273.707L482.133 253.013L472.533 258.56Z" fill="#6DD6FC"/>
<path d="M417.493 230.187L472.533 258.56L482.133 253.013L427.093 224.64L417.493 230.187Z" fill="#62C2EC"/>
<path d="M508.586 237.653L522.24 244.693V229.76L508.586 237.653Z" fill="#6DD6FC"/>
<path d="M453.547 209.28L508.587 237.653L522.24 229.76V207.573L487.68 189.653L453.547 209.28Z" fill="#62C2EC"/>
<path d="M487.253 250.027L522.24 268.16V263.68L491.307 247.68L487.253 250.027Z" fill="#6DD6FC"/>
<path d="M432.213 221.653L487.253 250.027L491.307 247.68L436.267 219.307L432.213 221.653Z" fill="#62C2EC"/>
<path d="M501.333 241.92L522.24 252.587V248.32L505.386 239.573L501.333 241.92Z" fill="#6DD6FC"/>
<path d="M446.293 213.547L501.333 241.92L505.387 239.573L450.347 211.2L446.293 213.547Z" fill="#62C2EC"/>
<path d="M597.973 173.227L418.133 276.907V229.76L597.973 126.08V173.227Z" fill="white"/>
<path d="M597.973 131.627L418.133 235.307L414.08 232.107L597.973 126.08V131.627Z" fill="#626877"/>
<path d="M471.893 399.36L496.853 384.853L458.026 362.453L433.066 376.96L471.893 399.36Z" fill="#E8E8E8"/>
<path d="M471.893 397.013L496.853 382.507L458.026 360.107L433.066 374.613L471.893 397.013Z" fill="#A8A8A8"/>
<path d="M471.893 394.453L496.853 380.16L458.026 357.547L433.066 372.053L471.893 394.453Z" fill="#E8E8E8"/>
<path d="M467.84 384.64L482.56 376.107L459.52 362.88L444.8 371.2L467.84 384.64Z" fill="#2EABE3"/>
<path d="M449.28 372.48L461.227 365.653L459.52 364.587L447.573 371.413L449.28 372.48Z" fill="white"/>
<path d="M467.2 382.72L479.146 375.68L477.44 374.613L465.493 381.44L467.2 382.72Z" fill="white"/>
<path d="M444.8 371.2V372.48L467.84 385.92V384.64L444.8 371.2Z" fill="#275FAD"/>
<path d="M482.56 376.107V377.387L467.84 385.92V384.64L482.56 376.107Z" fill="#275FAD"/>
<path d="M286.72 158.72V555.733L414.08 629.333V232.107L286.72 158.72Z" fill="#383C48"/>
<path d="M418.133 229.76L414.08 232.107V629.333L418.133 626.987V229.76Z" fill="#626877"/>
<path d="M474.666 50.3467L286.72 158.72L414.08 232.107L602.026 123.733L474.666 50.3467Z" fill="#4E5363"/>
<path d="M413.44 232.107L286.72 390.4V158.72L413.44 232.107Z" fill="#292B37"/>
<path d="M450.773 220.8L426.24 234.88V265.813L450.773 251.52V220.8Z" fill="#292B37"/>
<path d="M573.653 170.667L467.2 232.32V235.307L573.653 173.653V170.667Z" fill="#292B37"/>
<path d="M573.653 176.64L467.2 238.293V241.28L573.653 179.84V176.64Z" fill="#292B37"/>
<path d="M433.706 253.013C437.76 245.76 440.533 240.427 440.533 237.44C440.533 235.307 439.68 234.88 438.4 235.52C437.333 236.16 436.48 237.653 435.626 239.36L433.706 237.867C435.2 234.667 436.693 232.747 439.04 231.467C442.026 229.76 444.16 231.04 444.16 235.093C444.16 238.507 441.6 243.84 439.253 248.747C440.106 248.107 441.173 247.467 441.813 247.04L445.013 245.12V249.173L433.92 255.573V253.013H433.706Z" fill="white"/>
<path d="M462.506 334.507C462.506 335.36 463.146 335.787 463.786 335.36C464.426 334.933 465.066 333.867 465.066 333.013C465.066 332.16 464.426 331.733 463.786 332.16C462.933 332.587 462.506 333.653 462.506 334.507Z" fill="#2EABE3"/>
<path d="M455.893 338.133C455.893 338.987 456.533 339.413 457.173 338.987C457.813 338.56 458.453 337.493 458.453 336.64C458.453 335.787 457.813 335.36 457.173 335.787C456.533 336.213 455.893 337.28 455.893 338.133Z" fill="#2EABE3"/>
<path d="M452.48 333.867C452.48 334.72 453.12 335.147 453.76 334.72C454.4 334.293 455.04 333.227 455.04 332.373C455.04 331.52 454.4 331.093 453.76 331.52C452.906 331.947 452.48 333.013 452.48 333.867Z" fill="#2EABE3"/>
<path d="M459.52 329.813C459.52 330.667 460.16 331.093 460.8 330.667C461.44 330.24 462.08 329.173 462.08 328.32C462.08 327.467 461.44 327.04 460.8 327.467C460.16 327.893 459.52 328.96 459.52 329.813Z" fill="#2EABE3"/>
<path d="M466.346 325.973C466.346 326.827 466.986 327.253 467.626 326.827C468.266 326.4 468.906 325.333 468.906 324.48C468.906 323.627 468.266 323.2 467.626 323.627C466.986 323.84 466.346 324.907 466.346 325.973Z" fill="#2EABE3"/>
<path d="M462.506 322.347C462.506 323.2 463.146 323.627 463.786 323.2C464.426 322.773 465.066 321.707 465.066 320.853C465.066 320 464.426 319.573 463.786 320C462.933 320.213 462.506 321.28 462.506 322.347Z" fill="#2EABE3"/>
<path d="M455.893 325.973C455.893 326.827 456.533 327.253 457.173 326.827C457.813 326.4 458.453 325.333 458.453 324.48C458.453 323.627 457.813 323.2 457.173 323.627C456.533 323.84 455.893 324.907 455.893 325.973Z" fill="#2EABE3"/>
<path d="M588.373 305.92L562.773 291.2V247.68L588.373 262.613V305.92Z" fill="#E8E8E8"/>
<path d="M537.173 266.027V295.253L556.16 306.133V276.907L537.173 266.027Z" fill="#E8E8E8"/>
<path d="M586.667 263.893L564.48 250.88V253.44L586.667 266.24V263.893Z" fill="#A8A8A8"/>
<path d="M586.667 268.8L564.48 256V258.347L586.667 271.147V268.8Z" fill="#A8A8A8"/>
<path d="M586.667 273.92L564.48 261.12V289.707L586.667 302.507V273.92Z" fill="#A8A8A8"/>
<path d="M548.48 352.213C548.48 352.213 555.306 377.387 554.453 386.773C553.813 395.947 542.08 422.4 542.08 422.4C542.08 422.4 532.053 407.04 532.053 389.333C532.053 371.627 535.893 352.213 535.893 352.213H548.48Z" fill="#FFC3B1"/>
<path d="M542.507 369.707L554.667 365.227C554.667 365.227 551.253 349.867 548.693 343.68C546.773 338.987 544.853 334.293 538.88 333.013C534.187 332.16 530.987 335.36 530.347 338.987C529.28 345.173 542.507 369.707 542.507 369.707Z" fill="#EF3329"/>
<path d="M539.947 576.853C538.24 580.907 534.187 580.48 526.293 577.707C519.253 575.147 513.28 572.16 508.16 568.533C503.04 564.693 503.04 564.267 502.4 561.707C501.547 558.08 506.667 556.16 515.2 558.933C516.053 559.147 516.907 559.36 517.547 559.787C516.053 560 514.347 560.64 513.707 561.92C512.213 564.907 517.12 568.107 522.24 570.667C527.36 573.227 531.627 573.227 534.187 572.16C536.107 571.307 538.667 570.24 539.733 569.6C540.16 572.8 541.013 574.293 539.947 576.853Z" fill="#292B37"/>
<path d="M516.053 534.187C516.053 534.827 515.84 527.787 515.626 518.827C509.653 521.6 503.253 523.093 496.64 524.16C497.28 528.213 497.706 532.053 498.346 535.893C499.84 552.96 501.12 575.147 501.12 575.147C501.12 575.147 498.773 574.08 494.08 572.587C492.586 572.8 490.88 573.44 490.24 574.72C488.746 577.707 493.653 580.907 498.773 583.467C503.893 586.027 508.16 586.027 510.72 584.96C512.64 584.107 515.2 583.04 516.266 582.4C515.84 580.053 515.626 577.067 516.053 572.373C516.906 562.987 516.48 545.707 516.053 534.187Z" fill="#FFC3B1"/>
<path d="M540.373 520.747C540.587 518.613 540.8 516.267 541.013 513.707C534.827 515.627 528.427 516.48 522.24 515.84C522.667 522.667 522.88 529.067 523.093 532.693C523.947 545.493 524.373 561.92 524.373 561.92C524.373 561.92 522.027 560.853 517.333 559.36C515.84 559.573 514.133 560.213 513.493 561.493C512 564.48 516.907 567.68 522.027 570.24C527.147 572.8 531.413 572.8 533.973 571.733C535.893 570.88 538.453 569.813 539.52 569.173C539.093 566.827 538.88 563.84 539.307 559.147C540.16 551.467 539.947 528 540.373 520.747Z" fill="#FFC3B1"/>
<path d="M516.48 589.867C514.773 593.92 510.72 593.493 502.826 590.72C495.786 588.16 489.813 585.173 484.693 581.547C479.573 577.707 479.573 577.28 478.933 574.72C478.08 571.093 483.2 569.173 491.733 571.947C492.586 572.16 493.44 572.373 494.08 572.8C492.586 573.013 490.88 573.653 490.24 574.933C488.746 577.92 493.653 581.12 498.773 583.68C503.893 586.24 508.16 586.24 510.72 585.173C512.64 584.32 515.2 583.253 516.266 582.613C516.693 585.6 517.546 587.307 516.48 589.867Z" fill="#292B37"/>
<path d="M544.427 494.08C543.573 507.093 542.293 551.893 540.8 560.213C535.68 563.2 525.44 563.2 520.32 557.227C520.32 544.64 522.027 516.267 521.6 504.747C521.173 492.16 524.16 462.933 523.733 456.96C519.68 468.48 517.76 473.813 516.907 494.08C515.2 525.867 517.973 568.107 517.547 575.147C507.947 577.707 503.04 576.427 499.627 572.16C499.627 569.6 491.307 508.587 491.307 504.747C491.307 488.747 494.293 433.707 496.64 422.187C498.347 414.507 499.2 405.12 499.2 405.12L537.387 400.427C537.387 400.427 535.68 399.787 542.293 415.573C548.907 431.36 547.84 443.52 546.987 450.987C546.56 456.533 544.64 489.173 544.427 494.08Z" fill="#EF3329"/>
<path d="M513.707 287.573C511.787 288.853 503.467 288.64 501.547 305.067C499.627 319.573 503.893 320.853 506.88 322.133C508.587 322.773 514.347 324.693 514.347 324.693L513.707 339.413C513.707 339.413 520.96 342.187 527.787 339.413C534.613 336.64 534.613 336.64 534.613 336.64C534.613 336.64 531.84 331.947 532.267 324.053C532.907 314.027 536.32 299.947 533.76 294.613C529.493 285.013 519.04 283.733 513.707 287.573Z" fill="#FFC3B1"/>
<path d="M548.48 424.107C546.347 426.88 543.147 427.307 538.667 428.8C538.027 424.747 535.04 420.693 535.04 420.693C535.04 420.693 533.76 427.093 532.907 430.933C528.853 431.787 521.387 433.067 519.68 433.28C512 434.133 497.707 429.44 494.08 423.68C498.773 408.96 500.907 380.373 500.907 380.373C500.907 380.373 494.08 361.6 498.987 351.573C503.893 341.76 510.293 340.48 514.987 338.987C519.893 337.28 536.107 334.507 536.107 334.507C536.107 334.507 551.253 346.453 548.053 361.173C545.28 373.547 545.067 381.013 544.64 388.48C544 394.24 548.267 418.56 548.48 424.107Z" fill="#FF4A39"/>
<path d="M493.653 364.587C493.653 364.587 488.107 376.533 484.267 387.627C479.787 388.907 473.6 392.107 466.133 395.307C456.107 399.573 453.12 401.067 449.493 400C445.867 398.933 441.813 400 437.76 399.147C433.707 398.08 434.133 401.28 436.267 401.92C438.4 402.56 440.107 404.48 440.107 404.48C440.107 404.48 437.12 406.187 431.573 408.747C426.453 411.093 427.093 415.36 431.36 415.573C438.613 415.787 448.64 412.16 453.333 410.24C457.813 408.32 484.48 406.827 494.08 401.067C495.573 400.213 498.987 395.307 501.12 390.827C506.24 380.587 510.507 370.133 510.507 370.133L493.653 364.587Z" fill="#FFC3B1"/>
<path d="M504.533 344.107C507.52 343.467 513.28 345.813 515.2 352.64C518.187 362.88 514.347 367.573 512 372.693C511.147 374.4 507.947 380.16 507.947 380.16C505.387 380.373 501.12 380.587 495.787 377.387C490.88 374.613 489.813 370.56 489.813 370.56C489.813 370.56 491.733 363.307 493.653 356.907C495.36 351.36 498.56 345.6 504.533 344.107Z" fill="#EF3329"/>
<path d="M509.226 341.12C509.226 341.12 511.146 336.427 516.053 336C530.56 334.507 533.12 332.587 533.12 332.587C533.12 332.587 536.32 331.947 537.813 334.72C538.666 336.427 539.52 337.707 539.52 337.707C539.52 337.707 522.453 346.027 509.226 341.12Z" fill="#D69A55"/>
<path d="M500.053 299.093C500.053 299.093 504.106 301.867 508.8 303.787C507.306 330.027 501.973 335.36 512.64 341.76C515.84 343.68 522.24 346.027 523.52 356.907C525.44 373.547 535.68 376.747 535.68 376.747C535.68 376.747 546.56 366.293 546.773 341.333C546.773 328.107 545.92 294.187 540.8 288C532.693 278.187 523.946 277.973 515.413 281.387C508.8 279.68 501.76 282.667 500.053 299.093Z" fill="#292B37"/>
<path d="M250.453 182.4V579.413L377.813 653.013V255.787L250.453 182.4Z" fill="#383C48"/>
<path d="M381.867 253.653L377.813 255.787V653.013L381.867 650.667V253.653Z" fill="#626877"/>
<path d="M254.507 180.053L250.453 182.4L377.813 255.787L381.867 253.653L254.507 180.053Z" fill="#F24A63"/>
<path d="M289.28 316.8V413.653L377.813 302.933L289.28 316.8Z" fill="#292B37"/>
<path d="M338.133 630.187L182.4 720.213V573.653L338.133 483.84V630.187Z" fill="#BDBDBD"/>
<path d="M338.133 488.747L182.4 578.773V573.653L338.133 483.84V488.747Z" fill="#E8E8E8"/>
<path d="M123.094 523.52L196.907 565.76L338.133 483.84L264.96 442.453L123.094 523.52Z" fill="white"/>
<path d="M261.973 382.72L302.293 403.413V397.867L267.093 379.733L261.973 382.72Z" fill="#62C2EC"/>
<path d="M271.147 377.387L302.294 393.387V382.507L281.174 371.627L271.147 377.387Z" fill="#62C2EC"/>
<path d="M146.347 449.493V535.893L302.294 445.867V413.867L252.587 388.267L146.347 449.493Z" fill="#62C2EC"/>
<path d="M288.64 367.36L285.227 369.28L302.294 378.027V374.4L288.64 367.36Z" fill="#62C2EC"/>
<path d="M302.294 337.28V299.307L267.52 319.36L302.294 337.28Z" fill="#2EABE3"/>
<path d="M230.187 340.907L285.227 369.28L288.64 367.36L233.6 338.987L230.187 340.907Z" fill="#2EABE3"/>
<path d="M206.933 354.347L261.973 382.72L267.093 379.733L212.053 351.36L206.933 354.347Z" fill="#2EABE3"/>
<path d="M197.547 359.893L146.347 389.333V449.493L252.587 388.267L197.547 359.893Z" fill="#2EABE3"/>
<path d="M216.107 349.013L271.147 377.387L281.173 371.627L226.133 343.253L216.107 349.013Z" fill="#2EABE3"/>
<path d="M252.587 388.267L302.294 413.867V403.413L261.974 382.72L252.587 388.267Z" fill="#6DD6FC"/>
<path d="M197.547 359.893L252.587 388.267L261.974 382.72L206.934 354.347L197.547 359.893Z" fill="#62C2EC"/>
<path d="M288.64 367.36L302.293 374.4V359.467L288.64 367.36Z" fill="#6DD6FC"/>
<path d="M233.6 338.987L288.64 367.36L302.294 359.467V337.28L267.52 319.36L233.6 338.987Z" fill="#62C2EC"/>
<path d="M267.093 379.733L302.293 397.867V393.387L271.147 377.387L267.093 379.733Z" fill="#6DD6FC"/>
<path d="M212.053 351.36L267.093 379.733L271.147 377.387L216.107 349.013L212.053 351.36Z" fill="#62C2EC"/>
<path d="M281.173 371.627L302.293 382.507V378.027L285.227 369.28L281.173 371.627Z" fill="#6DD6FC"/>
<path d="M226.134 343.253L281.174 371.627L285.227 369.28L230.187 340.907L226.134 343.253Z" fill="#62C2EC"/>
<path d="M377.813 302.933L198.187 406.613V359.467L377.813 255.787V302.933Z" fill="white"/>
<path d="M377.813 261.333L198.187 365.013L193.92 361.813L377.813 255.787V261.333Z" fill="#626877"/>
<path d="M251.733 529.067L276.693 514.773L237.867 492.16L212.907 506.667L251.733 529.067Z" fill="#E8E8E8"/>
<path d="M224 523.947L238.72 515.413L215.68 502.187L200.96 510.72L224 523.947Z" fill="#2EABE3"/>
<path d="M205.44 512L217.387 505.173L215.68 503.893L203.947 510.72L205.44 512Z" fill="white"/>
<path d="M223.36 522.027L235.307 515.2L233.6 514.133L221.867 520.96L223.36 522.027Z" fill="white"/>
<path d="M200.96 510.72V512L224 525.227V523.947L200.96 510.72Z" fill="#275FAD"/>
<path d="M238.72 515.413V516.693L224 525.227V523.947L238.72 515.413Z" fill="#275FAD"/>
<path d="M285.44 697.6C285.44 697.6 271.147 691.2 264.32 690.987C257.28 690.773 256.64 698.88 264.32 705.28C272 711.68 277.973 712.533 284.16 715.093C289.92 717.44 291.84 717.653 296.32 714.667C302.293 710.827 297.6 700.373 297.6 700.373L285.44 697.6Z" fill="#383C48"/>
<path d="M328.747 673.493C328.747 673.493 317.44 668.8 310.4 668.587C303.36 668.373 300.8 674.347 308.48 680.747C316.16 687.147 321.067 688.64 327.254 691.2C333.014 693.547 334.934 693.76 339.414 690.773C345.6 686.933 340.694 676.48 340.694 676.48L328.747 673.493Z" fill="#383C48"/>
<path d="M294.827 463.787C294.827 463.787 307.84 449.92 321.707 461.013C334.507 471.253 346.88 490.453 343.68 500.053C340.48 509.653 329.6 515.627 329.6 515.627L294.827 463.787Z" fill="#136FBA"/>
<path d="M284.587 549.973C284.587 549.973 270.933 612.907 267.947 628.907C264.96 644.907 273.707 701.867 273.707 701.867C273.707 701.867 279.893 708.267 285.867 708.267C299.307 708.267 300.587 701.44 300.587 701.44L294.827 636.587C294.827 636.587 311.893 590.08 313.173 587.52C311.04 600.96 312.32 617.813 312.96 626.773C314.027 640.213 319.787 676.907 320.213 679.253C324.48 684.373 339.413 687.573 344.107 680.96C343.68 674.987 344.107 632.32 338.133 611.627C344.533 592.853 345.387 546.987 334.08 537.813C324.48 530.347 284.587 549.973 284.587 549.973Z" fill="#292B37"/>
<path d="M272.64 497.707C271.787 486.613 271.147 479.573 278.4 473.387C279.254 472.747 298.24 457.813 304.427 459.093C313.814 461.013 326.827 471.253 329.814 486.4C333.227 503.893 341.76 539.093 342.827 549.333C341.76 552.747 325.547 564.907 314.88 569.173C295.04 577.493 280.32 562.133 280.32 562.133C280.32 562.133 280.32 549.333 278.187 531.84C276.694 517.973 272.854 500.907 272.64 497.707Z" fill="#1D91D8"/>
<path d="M274.347 424.32C272.64 426.027 265.173 424.747 266.027 440.32C266.667 450.773 269.653 458.453 273.067 460.587C274.56 461.44 281.6 461.227 281.6 461.227L283.52 472.747C283.52 472.747 290.773 474.24 296.533 470.4C302.507 466.56 302.507 466.56 302.507 466.56C302.507 466.56 299.093 462.72 298.24 455.253C296.96 445.867 297.813 432 294.613 427.733C288.64 419.2 278.613 420.053 274.347 424.32Z" fill="#FFC3B1"/>
<path d="M305.92 462.933C305.92 462.933 303.574 468.053 297.387 471.467C291.2 474.667 285.227 475.52 278.4 473.6C277.547 469.333 282.454 466.56 282.454 466.56C282.454 466.56 292.267 467.627 296.96 462.293C303.574 454.613 305.92 462.933 305.92 462.933Z" fill="white"/>
<path d="M271.573 443.52C270.293 441.173 267.52 435.413 266.667 433.28C265.6 430.507 264.747 426.453 267.733 421.973C270.72 417.28 283.733 413.653 288.853 415.36C294.187 417.28 305.067 420.267 304.64 437.333C304.213 451.2 301.867 453.12 298.453 456.96C295.467 460.373 289.493 462.08 289.493 462.08C289.493 462.08 285.653 460.16 283.947 455.253C283.52 453.76 282.667 448.853 282.667 448.853C282.667 448.853 284.8 441.173 281.6 439.253C278.187 437.12 276.053 441.813 275.627 443.733C274.347 450.133 277.547 461.013 277.547 461.013C277.547 461.013 274.56 464 270.72 463.787C268.8 463.573 269.013 455.893 269.013 455.893C269.013 455.893 272.853 453.547 271.573 443.52Z" fill="#292B37"/>
<path d="M242.773 511.147C242.773 511.147 233.173 502.827 224.427 503.68C215.68 504.533 215.893 510.08 219.52 514.133C223.36 518.187 238.72 523.52 238.72 523.52L242.773 511.147Z" fill="#FFC3B1"/>
<path d="M277.333 475.733C282.667 479.573 284.16 490.667 284.16 506.027C284.16 522.667 275.2 536.32 267.733 538.24C259.413 540.373 240.64 528.427 233.387 523.947C231.893 515.413 237.44 510.08 241.493 509.867C246.613 509.653 259.84 515.627 259.84 515.627C259.84 515.627 264.96 488.747 269.013 482.56C273.28 476.16 275.2 474.027 277.333 475.733Z" fill="#136FBA"/>
<path d="M66.7734 288.427V685.44L193.92 759.04V361.813L66.7734 288.427Z" fill="#383C48"/>
<path d="M198.187 359.467L193.92 361.813V759.04L198.187 756.693V359.467Z" fill="#626877"/>
<path d="M254.507 180.053L66.7734 288.427L193.92 361.813L381.867 253.653L254.507 180.053Z" fill="#4E5363"/>
<path d="M193.28 361.813L66.7734 520.32V288.427L193.28 361.813Z" fill="#292B37"/>
<path d="M230.614 350.507L206.08 364.8V395.52L230.614 381.44V350.507Z" fill="#292B37"/>
<path d="M366.507 292.907L238.293 367.573V370.773L366.507 296.32V292.907Z" fill="#292B37"/>
<path d="M366.507 300.16L238.293 374.613V377.813L366.507 303.36V300.16Z" fill="#292B37"/>
<path d="M214.4 381.227L217.814 379.307V367.36L214.827 369.067V366.08C216.534 364.587 217.6 363.52 218.667 362.027L221.227 360.533V377.387L224.214 375.68V379.52L214.187 385.28V381.227H214.4Z" fill="white"/>
<path d="M242.347 464.427C242.347 465.28 242.987 465.707 243.627 465.28C244.267 464.853 244.907 463.787 244.907 462.933C244.907 462.08 244.267 461.653 243.627 462.08C242.987 462.293 242.347 463.36 242.347 464.427Z" fill="#2EABE3"/>
<path d="M235.947 468.053C235.947 468.907 236.587 469.333 237.227 468.907C237.867 468.48 238.507 467.413 238.507 466.56C238.507 465.707 237.867 465.28 237.227 465.707C236.373 465.92 235.947 466.987 235.947 468.053Z" fill="#2EABE3"/>
<path d="M232.32 463.787C232.32 464.64 232.96 465.067 233.6 464.64C234.24 464.213 234.88 463.147 234.88 462.293C234.88 461.44 234.24 461.013 233.6 461.44C232.96 461.653 232.32 462.72 232.32 463.787Z" fill="#2EABE3"/>
<path d="M239.36 459.733C239.36 460.587 240 461.013 240.64 460.587C241.28 460.16 241.92 459.093 241.92 458.24C241.92 457.387 241.28 456.96 240.64 457.387C240 457.6 239.36 458.667 239.36 459.733Z" fill="#2EABE3"/>
<path d="M246.187 455.68C246.187 456.533 246.827 456.96 247.467 456.533C248.107 456.107 248.747 455.04 248.747 454.187C248.747 453.333 248.107 452.907 247.467 453.333C246.827 453.76 246.187 454.827 246.187 455.68Z" fill="#2EABE3"/>
<path d="M242.347 452.053C242.347 452.907 242.987 453.333 243.627 452.907C244.267 452.48 244.907 451.413 244.907 450.56C244.907 449.707 244.267 449.28 243.627 449.707C242.987 450.133 242.347 451.2 242.347 452.053Z" fill="#2EABE3"/>
<path d="M235.947 455.68C235.947 456.533 236.587 456.96 237.227 456.533C237.867 456.107 238.507 455.04 238.507 454.187C238.507 453.333 237.867 452.907 237.227 453.333C236.373 453.76 235.947 454.827 235.947 455.68Z" fill="#2EABE3"/>
<path d="M368.214 435.84L342.827 421.12V377.6L368.214 392.32V435.84Z" fill="#E8E8E8"/>
<path d="M317.013 395.733V424.96L336 435.84V406.827L317.013 395.733Z" fill="#E8E8E8"/>
<path d="M366.507 393.6L344.32 380.8V383.147L366.507 395.947V393.6Z" fill="#A8A8A8"/>
<path d="M366.507 398.507L344.32 385.707V388.053L366.507 400.853V398.507Z" fill="#A8A8A8"/>
<path d="M366.507 403.627L344.32 390.827V419.413L366.507 432.213V403.627Z" fill="#A8A8A8"/>
<path d="M676.907 628.693C693.402 628.693 706.773 621.148 706.773 611.84C706.773 602.532 693.402 594.987 676.907 594.987C660.412 594.987 647.04 602.532 647.04 611.84C647.04 621.148 660.412 628.693 676.907 628.693Z" fill="#EA9611"/>
<path d="M706.987 606.72H647.253V611.84H706.987V606.72Z" fill="#EA9611"/>
<path d="M676.907 623.573C693.402 623.573 706.773 616.028 706.773 606.72C706.773 597.412 693.402 589.867 676.907 589.867C660.412 589.867 647.04 597.412 647.04 606.72C647.04 616.028 660.412 623.573 676.907 623.573Z" fill="#FFCA00"/>
<path d="M676.907 608C680.206 608 682.88 606.472 682.88 604.587C682.88 602.702 680.206 601.173 676.907 601.173C673.608 601.173 670.933 602.702 670.933 604.587C670.933 606.472 673.608 608 676.907 608Z" fill="#EA9611"/>
<path d="M683.093 595.413H671.147V604.8H683.093V595.413Z" fill="#EA9611"/>
<path d="M676.907 598.827C680.206 598.827 682.88 597.298 682.88 595.413C682.88 593.528 680.206 592 676.907 592C673.608 592 670.933 593.528 670.933 595.413C670.933 597.298 673.608 598.827 676.907 598.827Z" fill="#FFDC81"/>
<path d="M680.106 462.72H673.92V595.2H680.106V462.72Z" fill="#626A77"/>
<path d="M676.907 596.907C678.674 596.907 680.107 596.143 680.107 595.2C680.107 594.257 678.674 593.493 676.907 593.493C675.139 593.493 673.707 594.257 673.707 595.2C673.707 596.143 675.139 596.907 676.907 596.907Z" fill="#626A77"/>
<path d="M676.907 470.4C681.502 470.4 685.227 468.299 685.227 465.707C685.227 463.115 681.502 461.013 676.907 461.013C672.312 461.013 668.587 463.115 668.587 465.707C668.587 468.299 672.312 470.4 676.907 470.4Z" fill="#EA9611"/>
<path d="M685.44 450.56H668.587V465.707H685.44V450.56Z" fill="#EA9611"/>
<path d="M676.907 455.253C681.502 455.253 685.227 453.152 685.227 450.56C685.227 447.968 681.502 445.867 676.907 445.867C672.312 445.867 668.587 447.968 668.587 450.56C668.587 453.152 672.312 455.253 676.907 455.253Z" fill="#FFCA00"/>
<path d="M682.88 457.387V468.267C682.88 468.267 698.454 509.44 746.88 536.747C790.827 561.493 826.667 545.493 826.667 545.493L823.894 540.8C823.894 540.8 781.867 549.76 754.774 534.187C700.8 503.04 682.88 457.387 682.88 457.387Z" fill="#F2352C"/>
<path d="M825.6 712.107C842.095 712.107 855.467 704.561 855.467 695.253C855.467 685.945 842.095 678.4 825.6 678.4C809.105 678.4 795.733 685.945 795.733 695.253C795.733 704.561 809.105 712.107 825.6 712.107Z" fill="#EA9611"/>
<path d="M855.467 690.133H795.733V695.253H855.467V690.133Z" fill="#EA9611"/>
<path d="M825.6 706.987C842.095 706.987 855.467 699.441 855.467 690.133C855.467 680.826 842.095 673.28 825.6 673.28C809.105 673.28 795.733 680.826 795.733 690.133C795.733 699.441 809.105 706.987 825.6 706.987Z" fill="#FFCA00"/>
<path d="M825.6 691.627C828.899 691.627 831.573 690.098 831.573 688.213C831.573 686.328 828.899 684.8 825.6 684.8C822.301 684.8 819.627 686.328 819.627 688.213C819.627 690.098 822.301 691.627 825.6 691.627Z" fill="#EA9611"/>
<path d="M831.573 678.827H819.627V688.213H831.573V678.827Z" fill="#EA9611"/>
<path d="M825.6 682.24C828.899 682.24 831.573 680.712 831.573 678.827C831.573 676.942 828.899 675.413 825.6 675.413C822.301 675.413 819.627 676.942 819.627 678.827C819.627 680.712 822.301 682.24 825.6 682.24Z" fill="#FFDC81"/>
<path d="M828.587 546.133H822.4V678.613H828.587V546.133Z" fill="#626A77"/>
<path d="M825.6 680.32C827.367 680.32 828.8 679.556 828.8 678.613C828.8 677.671 827.367 676.907 825.6 676.907C823.833 676.907 822.4 677.671 822.4 678.613C822.4 679.556 823.833 680.32 825.6 680.32Z" fill="#626A77"/>
<path d="M825.6 553.813C830.195 553.813 833.92 551.712 833.92 549.12C833.92 546.528 830.195 544.427 825.6 544.427C821.005 544.427 817.28 546.528 817.28 549.12C817.28 551.712 821.005 553.813 825.6 553.813Z" fill="#EA9611"/>
<path d="M834.133 533.973H817.28V549.12H834.133V533.973Z" fill="#EA9611"/>
<path d="M825.6 538.667C830.195 538.667 833.92 536.565 833.92 533.973C833.92 531.381 830.195 529.28 825.6 529.28C821.005 529.28 817.28 531.381 817.28 533.973C817.28 536.565 821.005 538.667 825.6 538.667Z" fill="#FFCA00"/>
<path d="M596.053 498.56C595.627 522.24 593.707 556.8 593.707 556.8L589.44 557.013C589.44 557.013 590.72 527.36 591.36 504.96C592.853 502.827 594.347 500.48 596.053 498.56Z" fill="#292B37"/>
<path d="M578.133 509.867L603.947 494.933L600.533 454.613L574.72 469.333L578.133 509.867Z" fill="white"/>
<path d="M607.787 472.107C607.787 472.107 599.467 471.04 597.973 472.533C596.267 474.027 601.6 475.52 601.6 475.52L607.787 472.107Z" fill="#FFC3B1"/>
<path d="M592 467.84C592 466.987 591.573 466.56 590.933 466.987L578.987 473.813V499.84L590.933 493.013C591.573 492.587 592 491.733 592 490.88V467.84Z" fill="#368DCA"/>
<path d="M591.574 466.987L592.427 467.413L592 467.627L591.36 467.413L591.574 466.987Z" fill="#368DCA"/>
<path d="M592.853 468.48C592.853 467.627 592.427 467.2 591.787 467.627L579.84 474.453V500.48L591.787 493.653C592.427 493.227 592.853 492.373 592.853 491.52V468.48Z" fill="#2EABE3"/>
<path d="M590.72 491.093L581.973 496.213V495.36L590.72 490.24V491.093Z" fill="white"/>
<path d="M591.574 488.96L581.12 494.933V494.08L591.574 487.893V488.96Z" fill="white"/>
<path d="M591.574 470.827L581.12 476.8V475.947L591.574 469.973V470.827Z" fill="white"/>
<path d="M591.574 472.747L581.12 478.933V478.08L591.574 471.893V472.747Z" fill="white"/>
<path d="M578.987 499.84L579.84 500.48V474.453L578.987 473.813V499.84Z" fill="#275FAD"/>
<path d="M619.52 679.04C614.827 676.693 610.56 673.92 611.84 671.36C612.48 670.08 613.973 669.653 615.253 669.44C619.52 670.933 621.653 671.787 621.653 671.787C621.653 671.787 621.653 665.813 621.44 660.693C621.227 646.827 633.6 642.773 632.533 655.36C632.107 659.627 634.667 676.053 635.093 677.973C634.027 678.4 631.68 679.467 629.973 680.107C628.053 681.173 624.213 681.173 619.52 679.04Z" fill="#FFC3B1"/>
<path d="M635.52 684.8C634.027 688.427 630.4 688.213 623.36 685.44C616.96 683.093 611.84 680.533 607.147 677.12C602.667 673.707 602.667 673.28 602.027 671.147C601.173 667.947 605.867 666.24 613.547 668.587C614.4 668.8 615.04 669.013 615.68 669.227C614.187 669.44 612.693 670.08 612.267 671.147C610.773 673.707 615.253 676.48 619.947 678.827C624.64 681.173 628.267 681.173 630.613 680.107C632.32 679.253 634.453 678.4 635.733 677.973C635.733 681.173 636.373 682.453 635.52 684.8Z" fill="#292B37"/>
<path d="M597.12 692.053C592.427 689.707 588.16 686.933 589.44 684.373C590.08 683.093 591.573 682.667 592.853 682.453C597.12 683.947 599.253 684.8 599.253 684.8C599.253 684.8 599.253 679.68 599.04 672.213C598.613 653.867 612.907 660.693 611.84 673.28C611.413 677.547 612.267 689.067 612.693 691.2C611.627 691.627 609.28 692.693 607.573 693.333C605.653 694.187 601.813 694.187 597.12 692.053Z" fill="#FFC3B1"/>
<path d="M613.12 697.6C611.627 701.227 608 701.013 600.96 698.24C594.56 695.893 589.44 693.333 584.747 689.92C580.267 686.507 580.267 686.08 579.627 683.947C578.773 680.747 583.467 679.04 591.147 681.387C592 681.6 592.64 681.813 593.28 682.027C591.787 682.24 590.293 682.88 589.867 683.947C588.373 686.507 592.853 689.28 597.547 691.627C602.24 693.973 605.867 693.973 608.213 692.907C609.92 692.053 612.053 691.2 613.333 690.773C613.333 693.973 613.973 695.467 613.12 697.6Z" fill="#292B37"/>
<path d="M613.973 416.64C612.053 417.92 605.013 419.627 603.093 435.2C601.387 449.067 604.373 452.693 607.147 453.76C608.64 454.4 614.187 454.4 614.187 454.4L613.973 466.133C613.973 466.133 620.8 468.907 627.413 466.133C634.027 463.36 634.027 463.36 634.027 463.36C634.027 463.36 631.467 458.88 631.893 451.2C632.32 441.6 635.733 428.16 633.387 423.04C629.12 414.293 619.093 413.013 613.973 416.64Z" fill="#FFC3B1"/>
<path d="M637.653 456.107C637.653 456.107 618.88 461.44 614.187 463.147C609.707 464.64 606.08 467.84 601.387 477.227C596.693 486.613 600.107 501.12 600.107 501.12L600.32 527.147C600.32 527.147 611.413 538.88 619.947 539.733C631.893 540.8 637.653 529.92 637.653 529.92C637.653 529.92 648.32 501.12 645.973 485.333C643.627 470.827 637.653 456.107 637.653 456.107Z" fill="#FF4A39"/>
<path d="M602.454 429.867C602.88 435.2 607.36 436.907 611.2 440.96C615.04 445.013 615.467 450.56 616.747 454.187C618.027 457.813 616.32 474.24 622.294 486.4C628.694 499.413 636.8 502.4 636.8 502.4C636.8 502.4 646.827 483.413 647.68 461.653C648.534 436.907 641.707 414.933 625.92 411.52C609.28 408.107 601.6 418.987 602.454 429.867Z" fill="#292B37"/>
<path d="M585.173 512.64C585.173 512.64 600.32 469.547 607.787 468.907C611.627 468.48 616.533 478.507 616.107 487.253C615.68 498.56 597.12 525.44 588.587 528.64C583.893 530.56 585.173 512.64 585.173 512.64Z" fill="#FFC3B1"/>
<path d="M607.147 437.547C607.147 437.547 611.2 430.507 613.12 437.547C614.827 444.16 609.067 446.293 609.067 446.293L607.147 437.547Z" fill="#FFC3B1"/>
<path d="M638.507 531.627C638.507 531.627 643.627 552.107 640.427 567.68C637.013 585.173 632.32 598.613 633.173 609.707C634.027 620.8 635.733 644.267 633.6 667.093C625.28 668.587 621.44 665.6 621.44 665.6C621.44 665.6 612.48 598.613 613.333 594.987C613.973 591.36 610.773 535.467 610.773 535.467L638.507 531.627Z" fill="#136FBA"/>
<path d="M612.693 677.973C612.693 677.973 605.227 682.453 599.253 677.973C594.773 644.267 589.227 627.84 589.44 605.227C589.44 600.96 599.467 531.413 599.467 531.413L622.507 534.4C622.507 534.4 614.187 600.96 613.76 607.147C613.333 613.333 612.693 677.973 612.693 677.973Z" fill="#136FBA"/>
<path d="M638.507 531.627C638.507 531.627 624.64 539.947 614.4 537.6C602.453 535.04 599.467 531.2 599.467 531.2L600.107 526.933C600.107 526.933 610.347 532.693 619.307 532.48C629.12 532.267 638.293 526.933 638.293 526.933V531.627H638.507Z" fill="#275FAD"/>
<path d="M608.64 466.347C608.64 466.347 617.814 466.347 618.454 485.547C619.094 505.813 616.107 557.013 616.107 557.013L611.84 557.227C611.84 557.227 614.827 486.613 613.76 480.853C611.84 471.253 605.014 471.04 605.014 471.04L608.64 466.347Z" fill="#292B37"/>
<path d="M613.333 553.813C612.693 553.6 590.08 546.987 590.08 546.987C590.08 546.987 583.253 561.28 586.88 569.6C589.653 576.213 609.28 581.973 615.893 578.347C623.573 574.293 616.107 553.813 616.107 553.813H613.333Z" fill="#292B37"/>
<path d="M611.627 556.16C611.627 556.16 612.267 564.48 607.147 567.253C602.027 570.027 590.72 567.04 589.227 562.133C587.734 557.227 589.867 550.187 589.867 550.187L611.627 556.16Z" fill="#626A77"/>
<path d="M599.894 564.907L594.987 563.2C594.987 563.2 592.64 568.533 596.267 569.813C599.894 571.093 599.894 564.907 599.894 564.907Z" fill="white"/>
<path d="M576.853 488.107C576.853 488.107 578.774 486.613 579.627 484.48C580.48 482.347 582.4 484.267 581.333 486.613C580.267 488.96 580.054 496.213 580.694 498.133C581.334 500.053 589.867 518.613 589.867 518.613L587.52 528.64C587.52 528.64 585.813 529.067 583.04 527.147C580.907 525.653 578.987 522.453 577.067 517.12C573.867 508.373 572.8 492.587 572.587 488.747C572.16 484.907 576 478.933 576 478.933L576.853 488.107Z" fill="#FFC3B1"/>
<path d="M666.027 557.013L691.627 542.293L670.933 494.933L645.333 509.653L666.027 557.013Z" fill="white"/>
<path d="M667.947 557.44L693.333 542.72L672.64 495.36L647.253 510.08L667.947 557.44Z" fill="#E8E8E8"/>
<path d="M670.293 558.08L695.893 543.36L675.2 496L649.6 510.72L670.293 558.08Z" fill="white"/>
<path d="M764.373 525.013C765.867 527.787 770.987 543.573 772.693 559.36C773.547 566.613 772.48 583.253 769.92 599.253C769.28 603.733 770.133 606.933 768.853 610.133C767.787 612.907 759.68 606.72 759.68 606.72C759.68 606.72 751.573 570.24 752.213 555.733C752.853 541.227 753.067 529.067 753.067 529.067L764.373 525.013Z" fill="#FFC3B1"/>
<path d="M783.573 639.36L780.373 648.32L748.16 630.187V652.16L739.413 657.28V618.88C739.413 617.6 739.84 616.107 740.267 614.827L783.573 639.36Z" fill="#A84E11"/>
<path d="M743.893 610.133C744.96 609.493 746.027 609.493 746.88 609.92L785.92 632.32L783.573 639.147L740.48 614.4C741.333 612.48 742.4 610.987 743.893 610.133Z" fill="#B75818"/>
<path d="M779.093 679.68V641.28C779.093 638.08 781.013 634.24 783.573 632.96C786.133 631.68 788.053 632.96 788.053 636.373V674.773L779.093 679.68Z" fill="#99490D"/>
<path d="M739.413 622.08L779.093 644.693V679.68L739.413 657.067V622.08Z" fill="#7C3806"/>
<path d="M754.133 614.187C754.133 614.187 752.64 613.333 750.933 612.267C748.8 610.987 745.386 613.333 747.306 614.827C749.226 616.107 750.293 616.747 750.293 616.747L754.133 614.187Z" fill="#DBDBDB"/>
<path d="M774.613 625.92C774.613 625.92 772.693 614.827 772.266 613.12C771.84 611.413 766.72 608.853 763.093 606.933C759.466 605.013 754.773 603.733 752.64 607.147C750.293 610.56 750.293 616.533 750.293 616.533C750.293 616.533 751.786 615.68 752.426 615.253C753.706 614.4 754.133 614.187 754.133 614.187C754.133 614.187 754.773 611.627 755.413 609.92C755.84 609.067 756.48 608.853 757.333 609.067C760.106 609.92 767.786 613.76 768.213 616.107C768.853 619.093 770.773 628.693 770.773 628.693L774.613 625.92Z" fill="#7C3806"/>
<path d="M774.613 625.92C774.613 625.92 776.533 626.773 778.027 627.84C778.667 628.267 776.107 631.04 774.187 630.187C772.053 629.12 770.56 628.48 770.56 628.48L774.613 625.92Z" fill="white"/>
<path d="M765.867 604.8C766.933 605.44 767.147 607.147 766.293 608.64C764.8 611.627 765.867 613.333 765.867 613.333L767.573 614.827C767.573 614.827 765.653 616.32 763.093 615.467C760.747 614.4 758.613 610.56 758.613 610.56C758.613 610.56 761.813 602.453 765.867 604.8Z" fill="#FFC3B1"/>
<path d="M731.733 711.893C734.293 710.187 747.733 718.08 747.733 718.08L765.013 723.84V736.213C765.013 736.213 758.187 745.173 749.227 738.987C743.893 735.36 734.293 729.6 731.307 723.413C728.107 717.227 729.173 713.6 731.733 711.893Z" fill="#383C48"/>
<path d="M690.56 732.16C693.12 730.453 706.56 738.347 706.56 738.347L725.12 744.533L723.627 758.4C723.627 758.4 717.013 765.44 708.053 759.253C702.72 755.627 693.12 749.867 690.133 743.68C687.147 737.493 688 733.867 690.56 732.16Z" fill="#383C48"/>
<path d="M755.627 578.347C755.627 578.347 763.093 592.853 764.373 610.56C765.013 618.453 760.533 663.04 760.533 663.04C760.533 663.04 762.453 668.8 764.16 680.107C766.293 694.4 767.573 729.813 767.573 728.533C767.573 728.533 763.093 734.72 756.907 734.933C749.44 735.147 743.68 725.973 743.68 725.973C743.68 725.973 735.36 676.907 734.933 664.533C734.72 656.64 735.573 628.693 735.573 628.693C735.573 628.693 727.467 666.027 728.107 675.413C728.747 685.013 726.827 740.907 726.4 744.96C724.907 750.72 720.213 752.213 715.093 753.28C708.693 754.773 700.587 743.04 700.587 743.04C700.587 743.04 701.013 679.467 700.587 669.44C699.733 652.373 708.053 585.387 708.053 585.387L755.627 578.347Z" fill="#292B37"/>
<path d="M753.493 532.48C752.427 532.267 750.72 521.387 750.72 521.387L746.027 501.76C746.027 501.76 749.653 496 757.12 502.827C759.893 505.387 768.213 518.4 768.213 529.493C763.947 532.907 758.827 533.547 753.493 532.48Z" fill="#D2DCE6"/>
<path d="M726.4 460.8C731.52 457.387 741.12 458.453 745.387 467.2C747.733 472.107 744.533 485.333 743.893 494.507C743.467 501.973 746.027 506.24 746.027 506.24C746.027 506.24 746.027 506.24 739.627 508.8C733.227 511.36 726.613 508.8 726.613 508.8L726.827 497.493C726.827 497.493 720 496.427 718.72 495.36C715.733 492.8 714.24 484.693 715.52 474.453C717.44 459.52 724.48 462.08 726.4 460.8Z" fill="#FFC3B1"/>
<path d="M708.906 546.987C705.28 538.667 713.813 523.733 716.16 518.4C718.72 513.067 726.4 509.653 726.4 509.653L749.866 502.613C749.866 502.613 763.946 513.707 762.026 535.253C761.386 542.933 761.386 571.733 762.24 592.853C760.106 600.96 734.72 606.507 724.053 603.733C720.64 602.88 709.973 601.6 706.346 594.987C705.28 590.507 707.84 586.667 709.12 578.347C711.04 567.68 711.253 552.107 708.906 546.987Z" fill="white"/>
<path d="M670.293 542.08C679.68 546.133 694.613 551.253 694.613 551.253C694.613 551.253 711.253 519.04 716.8 518.613C720.64 518.187 722.56 525.227 722.133 533.76C721.92 540.373 715.093 552.107 708.48 560.64C708.48 560.64 701.867 571.093 699.093 570.667C696.32 570.24 681.813 562.56 677.333 559.573C673.28 556.8 670.72 554.667 666.667 552.107C667.52 549.76 669.013 543.573 670.293 542.08Z" fill="#FFC3B1"/>
<path d="M727.467 506.667C727.467 506.667 739.84 503.467 746.027 500.267C749.867 498.347 752 506.667 752 506.667C752 506.667 747.52 512.213 741.12 514.347C734.507 516.48 728.747 516.053 722.347 512.853C722.347 508.587 727.467 506.667 727.467 506.667Z" fill="#D2DCE6"/>
<path d="M695.893 542.293C700.8 531.84 709.76 516.693 718.506 513.92C722.56 512.64 726.827 522.453 725.547 532.267C724.693 538.453 721.066 547.84 716.8 554.667C709.12 554.667 699.733 549.547 695.893 542.293Z" fill="#D2DCE6"/>
<path d="M741.973 454.613C744.32 453.12 747.307 455.04 747.733 457.6C749.867 456.747 752.213 459.307 751.36 461.227C754.347 461.013 755.2 464.427 753.493 466.773C757.12 468.267 756.48 470.827 754.56 473.173C757.12 475.307 757.12 478.08 753.92 479.147C756.48 481.28 754.347 484.053 752.853 484.053C754.56 486.4 752.853 488.96 750.933 488.747C753.067 491.52 750.933 494.507 749.013 494.933C749.44 497.28 748.16 499.413 746.027 498.987C744.96 503.68 740.053 501.76 739.627 500.053C737.92 501.12 735.147 501.12 734.72 498.56C732.16 500.053 728.747 495.36 730.24 493.013C727.04 491.307 726.187 489.813 728.107 487.467C724.267 487.253 723.413 484.907 724.693 482.133C722.56 483.2 720.853 482.56 720 479.147C717.44 479.573 715.093 476.16 717.227 473.387C714.24 472.32 714.453 469.333 716.373 468.267C714.24 467.627 713.387 462.72 717.013 462.507C715.307 458.453 717.44 456.96 720.213 457.6C720.213 454.4 722.347 452.907 725.76 454.827C727.467 451.627 733.44 449.92 734.507 453.76C736.213 450.133 741.12 450.773 741.973 454.613Z" fill="#7D3C05"/>
<path d="M670.293 542.08C670.293 542.08 667.733 537.813 666.667 534.827C665.813 532.267 664.96 529.067 664.96 529.067C664.96 529.067 663.893 528.853 663.253 530.347C662.827 531.84 663.253 535.467 661.973 535.893C660.48 536.533 656 534.187 654.933 531.627C652.587 531.2 651.093 531.84 650.88 534.187C650.667 539.307 648.747 545.067 653.867 546.987C662.4 550.4 666.453 551.893 666.453 551.893L670.293 542.08Z" fill="#FFC3B1"/>
<path d="M514.133 730.453C530.628 730.453 544 722.908 544 713.6C544 704.292 530.628 696.747 514.133 696.747C497.638 696.747 484.267 704.292 484.267 713.6C484.267 722.908 497.638 730.453 514.133 730.453Z" fill="#EA9611"/>
<path d="M544 708.48H484.267V713.6H544V708.48Z" fill="#EA9611"/>
<path d="M514.133 725.333C530.628 725.333 544 717.788 544 708.48C544 699.172 530.628 691.627 514.133 691.627C497.638 691.627 484.267 699.172 484.267 708.48C484.267 717.788 497.638 725.333 514.133 725.333Z" fill="#FFCA00"/>
<path d="M514.133 709.76C517.432 709.76 520.107 708.232 520.107 706.347C520.107 704.461 517.432 702.933 514.133 702.933C510.834 702.933 508.16 704.461 508.16 706.347C508.16 708.232 510.834 709.76 514.133 709.76Z" fill="#EA9611"/>
<path d="M520.107 696.96H508.16V706.347H520.107V696.96Z" fill="#EA9611"/>
<path d="M514.133 700.373C517.432 700.373 520.107 698.845 520.107 696.96C520.107 695.075 517.432 693.547 514.133 693.547C510.834 693.547 508.16 695.075 508.16 696.96C508.16 698.845 510.834 700.373 514.133 700.373Z" fill="#FFDC81"/>
<path d="M517.12 564.48H510.933V696.96H517.12V564.48Z" fill="#626A77"/>
<path d="M514.133 698.667C515.901 698.667 517.333 697.903 517.333 696.96C517.333 696.017 515.901 695.253 514.133 695.253C512.366 695.253 510.933 696.017 510.933 696.96C510.933 697.903 512.366 698.667 514.133 698.667Z" fill="#626A77"/>
<path d="M514.133 571.947C518.728 571.947 522.453 569.845 522.453 567.253C522.453 564.661 518.728 562.56 514.133 562.56C509.538 562.56 505.813 564.661 505.813 567.253C505.813 569.845 509.538 571.947 514.133 571.947Z" fill="#EA9611"/>
<path d="M522.453 552.107H505.6V567.253H522.453V552.107Z" fill="#EA9611"/>
<path d="M514.133 556.8C518.728 556.8 522.453 554.699 522.453 552.107C522.453 549.515 518.728 547.413 514.133 547.413C509.538 547.413 505.813 549.515 505.813 552.107C505.813 554.699 509.538 556.8 514.133 556.8Z" fill="#FFCA00"/>
<path d="M519.893 558.933V569.813C519.893 569.813 535.467 610.987 583.893 638.293C627.84 663.04 663.68 647.04 663.68 647.04L660.906 642.347C660.906 642.347 618.88 651.307 591.787 635.733C537.813 604.587 519.893 558.933 519.893 558.933Z" fill="#F2352C"/>
<path d="M662.613 813.867C679.108 813.867 692.48 806.321 692.48 797.013C692.48 787.705 679.108 780.16 662.613 780.16C646.118 780.16 632.747 787.705 632.747 797.013C632.747 806.321 646.118 813.867 662.613 813.867Z" fill="#EA9611"/>
<path d="M692.48 791.893H632.747V797.013H692.48V791.893Z" fill="#EA9611"/>
<path d="M662.613 808.747C679.108 808.747 692.48 801.201 692.48 791.893C692.48 782.585 679.108 775.04 662.613 775.04C646.118 775.04 632.747 782.585 632.747 791.893C632.747 801.201 646.118 808.747 662.613 808.747Z" fill="#FFCA00"/>
<path d="M662.613 793.173C665.912 793.173 668.586 791.645 668.586 789.76C668.586 787.875 665.912 786.347 662.613 786.347C659.314 786.347 656.64 787.875 656.64 789.76C656.64 791.645 659.314 793.173 662.613 793.173Z" fill="#EA9611"/>
<path d="M668.586 780.587H656.64V789.973H668.586V780.587Z" fill="#EA9611"/>
<path d="M662.613 784C665.912 784 668.586 782.472 668.586 780.587C668.586 778.701 665.912 777.173 662.613 777.173C659.314 777.173 656.64 778.701 656.64 780.587C656.64 782.472 659.314 784 662.613 784Z" fill="#FFDC81"/>
<path d="M665.813 647.893H659.626V780.373H665.813V647.893Z" fill="#626A77"/>
<path d="M662.613 782.08C664.381 782.08 665.813 781.316 665.813 780.373C665.813 779.431 664.381 778.667 662.613 778.667C660.846 778.667 659.413 779.431 659.413 780.373C659.413 781.316 660.846 782.08 662.613 782.08Z" fill="#626A77"/>
<path d="M662.613 655.36C667.208 655.36 670.933 653.259 670.933 650.667C670.933 648.075 667.208 645.973 662.613 645.973C658.018 645.973 654.293 648.075 654.293 650.667C654.293 653.259 658.018 655.36 662.613 655.36Z" fill="#EA9611"/>
<path d="M671.147 635.52H654.293V650.667H671.147V635.52Z" fill="#EA9611"/>
<path d="M662.613 640.213C667.208 640.213 670.933 638.112 670.933 635.52C670.933 632.928 667.208 630.827 662.613 630.827C658.018 630.827 654.293 632.928 654.293 635.52C654.293 638.112 658.018 640.213 662.613 640.213Z" fill="#FFCA00"/>
<path d="M518.827 666.24L524.16 666.88L525.227 663.253L520.32 660.693L518.827 666.24Z" fill="#FFC3B1"/>
<path d="M497.494 690.347L523.52 675.413L523.307 624.853L497.494 639.787V690.347Z" fill="white"/>
<path d="M517.547 645.12C517.547 644.267 517.12 643.84 516.48 644.267L504.534 651.094V677.12L516.48 670.294C517.12 669.867 517.547 669.014 517.547 668.16V645.12Z" fill="#368DCA"/>
<path d="M517.12 644.053L517.974 644.693L517.547 644.907L516.907 644.48L517.12 644.053Z" fill="#368DCA"/>
<path d="M518.4 645.547C518.4 644.693 517.974 644.267 517.334 644.693L505.387 651.52V677.547L517.334 670.72C517.974 670.293 518.4 669.44 518.4 668.587V645.547Z" fill="#2EABE3"/>
<path d="M516.267 668.373L507.52 673.493V672.64L516.267 667.52V668.373Z" fill="white"/>
<path d="M517.12 666.027L506.667 672V671.147L517.12 665.173V666.027Z" fill="white"/>
<path d="M517.12 648.107L506.667 654.08V653.227L517.12 647.04V648.107Z" fill="white"/>
<path d="M517.12 650.027L506.667 656V655.147L517.12 649.173V650.027Z" fill="white"/>
<path d="M504.534 677.12L505.387 677.547V651.52L504.534 651.093V677.12Z" fill="#275FAD"/>
<path d="M525.227 658.773C525.227 658.773 517.547 654.293 516.693 654.08C515.84 653.867 513.92 654.08 515.84 656.213C517.76 658.347 517.76 658.347 519.467 660.693C520.747 662.4 523.307 663.893 523.307 663.893L525.227 658.773Z" fill="#FFC3B1"/>
<path d="M573.227 644.053C573.227 644.053 578.987 671.573 564.48 678.613C556.373 682.453 557.44 696.533 557.44 679.68C557.44 662.827 561.067 644.053 561.067 644.053H573.227Z" fill="#FFC3B1"/>
<path d="M564.907 850.56C563.2 854.4 559.36 854.187 551.68 851.413C544.854 848.853 539.307 846.08 534.4 842.667C529.494 839.04 529.494 838.613 528.854 836.267C528 832.853 532.907 830.933 541.227 833.493C542.08 833.707 542.72 833.92 543.574 834.133C542.08 834.347 540.374 834.987 539.734 836.267C538.24 839.04 542.934 842.027 547.84 844.587C552.747 847.147 556.8 847.147 559.36 845.867C561.067 845.013 563.627 843.947 564.694 843.52C565.334 846.72 565.974 848.213 564.907 850.56Z" fill="#292B37"/>
<path d="M520.747 850.56C521.387 849.28 523.093 848.64 524.587 848.427C529.067 849.92 531.413 850.987 531.413 850.987C531.413 850.987 530.133 829.653 528.853 813.44C526.72 799.147 524.373 781.653 524.373 772.48C524.373 771.627 524.16 763.307 524.16 762.027C526.507 763.093 541.013 765.013 545.92 764.8C545.92 765.44 545.067 772.907 544.853 781.867C544.853 795.733 545.493 812.8 545.28 811.733C545.707 822.827 545.92 839.467 545.28 848.213C544.853 852.693 545.067 855.68 545.493 857.813C544.213 858.24 541.867 859.307 540.16 860.16C537.6 861.227 533.547 861.227 528.64 858.88C523.733 856.533 519.253 853.333 520.747 850.56Z" fill="#FFC3B1"/>
<path d="M539.733 836.053C540.373 834.773 542.08 834.133 543.573 833.92C548.053 835.413 550.4 836.48 550.4 836.48C550.4 836.48 549.973 820.693 549.12 808.32C548.48 798.08 546.987 769.067 546.773 762.453C553.813 761.387 561.707 763.093 567.04 758.4C567.04 760.107 567.04 766.933 567.04 768.64C567.68 776.96 565.973 788.48 565.333 796.587C564.693 803.627 565.12 826.24 564.48 833.493C564.053 837.973 564.267 840.96 564.693 843.093C563.413 843.52 561.067 844.587 559.36 845.44C556.8 846.507 552.747 846.507 547.84 844.16C542.933 841.813 538.24 838.827 539.733 836.053Z" fill="#FFC3B1"/>
<path d="M545.92 865.067C544.214 868.907 540.374 868.693 532.694 865.92C525.867 863.36 520.32 860.587 515.414 857.173C510.507 853.547 510.507 853.12 509.867 850.773C509.014 847.36 513.92 845.44 522.24 848C523.094 848.213 523.734 848.427 524.587 848.64C523.094 848.853 521.387 849.493 520.747 850.773C519.254 853.547 523.947 856.533 528.854 859.093C533.76 861.653 537.814 861.653 540.374 860.373C542.08 859.52 544.64 858.453 545.707 858.027C546.347 861.227 546.987 862.72 545.92 865.067Z" fill="#292B37"/>
<path d="M568.107 761.173C546.987 775.253 528 766.72 522.24 763.947C522.027 751.573 521.814 721.707 524.587 708.053C526.08 700.587 529.707 690.133 529.707 690.133L563.84 688C563.84 688 571.307 697.6 572.8 711.04C574.08 722.773 572.587 729.173 571.734 736.213C571.094 741.76 568.32 756.48 568.107 761.173Z" fill="#292B37"/>
<path d="M543.573 580.267C541.653 581.547 534.614 583.253 532.48 599.04C530.774 612.907 533.76 616.533 536.533 617.813C538.027 618.453 543.573 618.453 543.573 618.453L543.36 630.187C543.36 630.187 550.187 632.96 556.8 630.187C563.413 627.413 563.414 627.413 563.414 627.413C563.414 627.413 560.854 622.933 561.28 615.253C561.92 605.653 565.12 592 562.773 587.093C558.72 577.707 548.693 576.64 543.573 580.267Z" fill="#FFC3B1"/>
<path d="M568.107 693.547C564.907 697.173 552.747 700.373 547.84 701.013C540.374 701.867 532.267 698.667 528.854 693.12C533.334 679.04 529.494 664.96 529.494 664.96C529.494 664.96 525.014 648.107 529.707 638.507C534.4 628.907 539.094 628.267 543.574 626.773C548.48 625.067 565.334 625.493 565.334 625.493C565.334 625.493 575.36 636.373 572.16 650.453C567.467 672 566.827 680.747 568.107 693.547Z" fill="#FFCA00"/>
<path d="M561.28 628.267C561.28 628.267 556.16 634.667 549.334 632.747C542.507 630.827 538.88 628.48 538.88 628.48C538.88 628.48 539.947 625.92 544.214 625.493C551.04 624.853 559.787 622.293 559.787 622.293L561.28 628.267Z" fill="#EA9611"/>
<path d="M563.84 625.707C564.053 624.213 567.04 624.427 571.733 629.12C576.427 633.813 576.213 642.987 574.507 648.32C573.44 651.52 565.547 657.067 565.547 657.067C565.547 657.067 563.413 629.973 563.84 625.707Z" fill="#EA9611"/>
<path d="M532.054 593.493C532.48 598.827 536.96 600.533 541.014 604.587C544.854 608.64 546.987 612.693 555.734 618.88C558.934 621.227 558.08 638.507 564.054 650.88C570.454 664.107 566.827 666.453 566.827 666.453C566.827 666.453 584.96 660.48 577.707 640.213C574.934 632.747 564.694 626.773 564.267 618.88C564.054 615.253 568.96 611.627 570.454 604.8C575.36 583.253 565.334 577.28 555.947 575.36C538.667 571.733 530.987 582.4 532.054 593.493Z" fill="#292B37"/>
<path d="M536.747 601.173C536.747 601.173 540.8 594.133 542.72 601.173C544.427 607.787 538.667 609.92 538.667 609.92L536.747 601.173Z" fill="#FFC3B1"/>
<path d="M542.933 659.2C542.933 659.2 536.747 679.68 533.12 691.2C530.56 699.733 523.947 711.893 525.014 722.347C526.08 732.16 525.654 737.707 525.014 740.693C522.454 751.36 516.48 742.827 515.414 735.147C514.347 727.68 516.907 705.92 518.187 695.467C519.893 678.613 525.227 653.44 525.227 653.44L542.933 659.2Z" fill="#FFC3B1"/>
<path d="M565.547 614.613C565.547 614.613 565.76 619.093 564.907 620.16C563.627 621.44 558.934 623.147 557.227 622.293C555.734 621.653 553.6 618.667 553.387 617.173C559.36 616.747 565.547 614.613 565.547 614.613Z" fill="#EA9611"/>
<path d="M533.12 631.893C536.32 630.613 542.08 630.613 545.494 637.653C550.4 648.32 546.987 654.293 545.28 660.053C544.64 661.973 542.08 666.88 542.08 666.88C542.08 666.88 535.254 666.453 530.56 664.32C525.867 662.187 522.454 660.267 522.454 660.267C522.454 660.267 519.894 637.227 533.12 631.893Z" fill="#EA9611"/>
<path d="M522.24 657.28V661.76C522.24 661.76 525.227 664.747 531.627 666.453C538.027 667.947 541.44 667.947 541.44 667.947L544 663.467C544 663.467 536.747 663.68 530.987 661.547C524.8 659.413 522.24 657.28 522.24 657.28Z" fill="#FFCA00"/>
<path d="M480.64 582.4C480.64 582.4 485.12 602.88 475.307 614.187C465.493 625.493 458.88 610.347 458.88 610.347L480.64 582.4Z" fill="#FFC3B1"/>
<path d="M410.24 618.027L436.053 603.307L432 554.667L405.973 569.6L410.24 618.027Z" fill="white"/>
<path d="M439.253 569.813C439.253 569.813 430.933 568.747 429.44 570.24C427.947 571.733 433.067 573.227 433.067 573.227L439.253 569.813Z" fill="#FFC3B1"/>
<path d="M424.106 570.454C424.106 569.6 423.68 569.174 423.04 569.6L411.093 576.427V602.454L423.04 595.627C423.68 595.2 424.106 594.347 424.106 593.494V570.454Z" fill="#368DCA"/>
<path d="M423.68 569.387L424.533 570.027L424.107 570.24L423.467 569.813L423.68 569.387Z" fill="#368DCA"/>
<path d="M424.96 570.88C424.96 570.027 424.533 569.6 423.893 570.027L411.947 576.853V602.88L423.893 596.053C424.533 595.627 424.96 594.773 424.96 593.92V570.88Z" fill="#2EABE3"/>
<path d="M422.827 593.707L414.08 598.827V597.973L422.827 592.853V593.707Z" fill="white"/>
<path d="M423.68 591.36L413.227 597.333V596.48L423.68 590.507V591.36Z" fill="white"/>
<path d="M423.68 573.44L413.227 579.413V578.56L423.68 572.373V573.44Z" fill="white"/>
<path d="M423.68 575.36L413.227 581.333V580.48L423.68 574.507V575.36Z" fill="white"/>
<path d="M411.093 602.453L411.946 602.88V576.853L411.093 576.427V602.453Z" fill="#275FAD"/>
<path d="M428.16 803.413C428.16 803.413 414.08 797.013 407.04 796.8C400 796.587 399.36 804.693 407.04 811.093C414.72 817.493 420.693 818.347 426.88 820.907C432.64 823.253 434.56 823.467 439.04 820.48C445.013 816.64 440.32 806.187 440.32 806.187L428.16 803.413Z" fill="#383C48"/>
<path d="M469.12 779.093C469.12 779.093 457.813 774.4 450.773 774.187C443.733 773.973 441.173 779.947 448.853 786.347C456.533 792.747 461.44 794.24 467.627 796.8C473.387 799.147 475.307 799.36 479.787 796.373C485.973 792.533 481.067 782.08 481.067 782.08L469.12 779.093Z" fill="#383C48"/>
<path d="M427.307 639.36C427.307 639.36 414.933 706.347 414.933 727.253C414.933 764.373 415.36 803.413 415.36 803.413C415.36 803.413 421.547 809.813 427.52 809.813C440.96 809.813 442.24 802.987 442.24 802.987C442.24 802.987 442.453 758.827 443.52 738.773C444.373 724.907 445.227 705.067 450.773 688.853C450.987 705.493 450.987 710.827 452.267 728.96C453.333 742.4 458.88 778.24 459.093 780.587C463.36 785.707 476.587 789.333 483.2 781.653C482.773 775.68 478.933 734.293 479.36 712.747C479.787 692.907 484.907 646.187 473.6 637.013C463.787 629.547 427.307 639.36 427.307 639.36Z" fill="#136FBA"/>
<path d="M465.493 592.64C472.747 594.56 479.787 589.013 484.48 584.32C480.427 576 475.947 567.04 473.387 564.053C467.2 556.587 457.813 561.28 457.813 561.28L464.427 582.187C464.427 582.187 465.707 589.227 465.493 592.64Z" fill="#D2DCE6"/>
<path d="M443.093 519.04C448 515.627 457.6 516.693 461.653 525.44C464 530.347 460.8 543.147 460.16 552.32C459.733 559.573 462.293 563.84 462.293 563.84C462.293 563.84 462.293 563.84 456.106 566.4C449.92 568.96 443.306 566.4 443.306 566.4L443.52 555.307C443.52 555.307 436.693 554.24 435.626 553.173C432.853 550.613 431.36 542.72 432.64 532.693C434.133 517.76 441.173 520.32 443.093 519.04Z" fill="#FFC3B1"/>
<path d="M427.093 604.587C423.467 596.693 429.227 580.48 431.787 575.36C434.347 570.24 443.093 564.907 443.093 564.907C443.093 564.907 455.893 566.4 460.8 560.213C464 561.92 474.88 567.04 478.293 593.28C479.36 600.533 478.507 613.973 478.08 632.533C477.867 645.12 480.64 650.027 481.493 657.92C473.387 666.24 453.333 672.213 443.093 669.44C436.907 667.733 426.667 663.04 422.613 657.92C421.76 650.24 434.773 620.8 427.093 604.587Z" fill="white"/>
<path d="M429.44 523.947C431.36 524.16 432.853 523.307 433.707 522.667C431.147 521.6 429.227 518.613 430.293 516.053C433.92 517.12 437.76 514.56 439.253 513.92C444.587 511.573 456.747 507.307 462.507 514.773C467.2 517.547 474.24 521.6 470.613 537.813C467.84 550.827 463.36 552.32 459.52 555.52C454.4 554.667 452.907 553.6 449.92 550.827C446.933 547.84 446.72 544 446.72 544C446.72 544 450.133 537.173 447.573 534.827C444.8 532.267 442.24 536.533 441.173 538.027C431.36 530.987 430.507 528 429.44 523.947Z" fill="#7D3C05"/>
<path d="M423.253 597.12C422.827 597.76 418.773 608.427 415.787 616.533C412.8 624.64 414.293 630.4 417.92 635.093C421.547 639.787 424.32 637.653 427.733 632.747C431.147 627.84 435.84 616.533 438.187 605.44C440.32 594.773 423.253 597.12 423.253 597.12Z" fill="#FFC3B1"/>
<path d="M432.213 606.933C435.627 606.72 438.827 605.227 441.387 603.093C442.453 597.76 443.307 593.707 443.733 591.787C445.013 582.187 440.96 567.68 434.133 570.027C427.52 572.373 422.613 586.027 419.2 599.893C420.907 604.8 427.093 607.147 432.213 606.933Z" fill="#D2DCE6"/>
<path d="M443.093 564.907L440.32 566.827C440.32 566.827 449.28 570.027 456.96 567.04C464 564.267 464.427 561.493 464.427 561.493L461.013 560.427C461.013 560.427 456.32 564.053 453.76 564.48C451.2 564.907 443.093 564.907 443.093 564.907Z" fill="#D2DCE6"/>
<path d="M408.107 592.427C408.107 592.427 410.24 590.72 411.093 588.373C411.947 586.027 414.293 587.947 413.013 590.933C411.733 593.707 411.733 601.813 412.373 603.733C413.013 605.867 422.613 626.56 422.613 626.56L421.333 637.867C421.333 637.867 413.013 637.867 408.32 624.853C404.693 615.04 403.627 597.547 403.2 593.067C402.773 588.587 407.04 582.187 407.04 582.187L408.107 592.427Z" fill="#FFC3B1"/>
<path d="M348.374 829.44C364.868 829.44 378.24 821.895 378.24 812.587C378.24 803.279 364.868 795.733 348.374 795.733C331.879 795.733 318.507 803.279 318.507 812.587C318.507 821.895 331.879 829.44 348.374 829.44Z" fill="#EA9611"/>
<path d="M378.24 807.68H318.507V812.8H378.24V807.68Z" fill="#EA9611"/>
<path d="M348.374 824.533C364.868 824.533 378.24 816.988 378.24 807.68C378.24 798.372 364.868 790.827 348.374 790.827C331.879 790.827 318.507 798.372 318.507 807.68C318.507 816.988 331.879 824.533 348.374 824.533Z" fill="#FFCA00"/>
<path d="M348.373 808.96C351.672 808.96 354.347 807.432 354.347 805.547C354.347 803.662 351.672 802.133 348.373 802.133C345.075 802.133 342.4 803.662 342.4 805.547C342.4 807.432 345.075 808.96 348.373 808.96Z" fill="#EA9611"/>
<path d="M354.347 796.16H342.4V805.547H354.347V796.16Z" fill="#EA9611"/>
<path d="M348.373 799.573C351.672 799.573 354.347 798.045 354.347 796.16C354.347 794.275 351.672 792.747 348.373 792.747C345.075 792.747 342.4 794.275 342.4 796.16C342.4 798.045 345.075 799.573 348.373 799.573Z" fill="#FFDC81"/>
<path d="M351.36 663.68H345.173V796.16H351.36V663.68Z" fill="#626A77"/>
<path d="M348.373 797.653C350.141 797.653 351.573 796.889 351.573 795.947C351.573 795.004 350.141 794.24 348.373 794.24C346.606 794.24 345.173 795.004 345.173 795.947C345.173 796.889 346.606 797.653 348.373 797.653Z" fill="#626A77"/>
<path d="M348.373 671.147C352.968 671.147 356.693 669.045 356.693 666.453C356.693 663.861 352.968 661.76 348.373 661.76C343.778 661.76 340.053 663.861 340.053 666.453C340.053 669.045 343.778 671.147 348.373 671.147Z" fill="#EA9611"/>
<path d="M356.693 651.307H339.84V666.453H356.693V651.307Z" fill="#EA9611"/>
<path d="M348.373 656C352.968 656 356.693 653.899 356.693 651.307C356.693 648.715 352.968 646.613 348.373 646.613C343.778 646.613 340.053 648.715 340.053 651.307C340.053 653.899 343.778 656 348.373 656Z" fill="#FFCA00"/>
<path d="M354.347 658.133V669.013C354.347 669.013 369.92 710.187 418.347 737.493C462.293 762.24 498.133 746.24 498.133 746.24L495.36 741.547C495.36 741.547 453.333 750.507 426.24 734.933C372.053 703.787 354.347 658.133 354.347 658.133Z" fill="#F2352C"/>
<path d="M496.853 912.853C513.348 912.853 526.72 905.308 526.72 896C526.72 886.692 513.348 879.147 496.853 879.147C480.358 879.147 466.987 886.692 466.987 896C466.987 905.308 480.358 912.853 496.853 912.853Z" fill="#EA9611"/>
<path d="M526.72 891.093H466.987V896.213H526.72V891.093Z" fill="#EA9611"/>
<path d="M496.853 907.947C513.348 907.947 526.72 900.401 526.72 891.093C526.72 881.786 513.348 874.24 496.853 874.24C480.358 874.24 466.987 881.786 466.987 891.093C466.987 900.401 480.358 907.947 496.853 907.947Z" fill="#FFCA00"/>
<path d="M496.853 892.373C500.152 892.373 502.827 890.845 502.827 888.96C502.827 887.075 500.152 885.547 496.853 885.547C493.554 885.547 490.88 887.075 490.88 888.96C490.88 890.845 493.554 892.373 496.853 892.373Z" fill="#EA9611"/>
<path d="M503.04 879.573H491.094V888.96H503.04V879.573Z" fill="#EA9611"/>
<path d="M496.853 882.987C500.152 882.987 502.827 881.458 502.827 879.573C502.827 877.688 500.152 876.16 496.853 876.16C493.554 876.16 490.88 877.688 490.88 879.573C490.88 881.458 493.554 882.987 496.853 882.987Z" fill="#FFDC81"/>
<path d="M500.053 747.093H493.866V879.573H500.053V747.093Z" fill="#626A77"/>
<path d="M496.853 881.067C498.621 881.067 500.053 880.303 500.053 879.36C500.053 878.417 498.621 877.653 496.853 877.653C495.086 877.653 493.653 878.417 493.653 879.36C493.653 880.303 495.086 881.067 496.853 881.067Z" fill="#626A77"/>
<path d="M496.853 754.56C501.448 754.56 505.173 752.459 505.173 749.867C505.173 747.275 501.448 745.173 496.853 745.173C492.258 745.173 488.533 747.275 488.533 749.867C488.533 752.459 492.258 754.56 496.853 754.56Z" fill="#EA9611"/>
<path d="M505.387 734.72H488.533V749.867H505.387V734.72Z" fill="#EA9611"/>
<path d="M496.853 739.413C501.448 739.413 505.173 737.312 505.173 734.72C505.173 732.128 501.448 730.027 496.853 730.027C492.258 730.027 488.533 732.128 488.533 734.72C488.533 737.312 492.258 739.413 496.853 739.413Z" fill="#FFCA00"/>
<path d="M247.97 355.074C248.002 355.622 247.912 356.211 247.701 356.843C247.489 357.47 247.139 358.083 246.648 358.682C246.162 359.278 245.519 359.808 244.72 360.272C244.32 360.505 243.967 360.688 243.66 360.823C243.358 360.956 243.074 361.052 242.809 361.111C242.544 361.165 242.266 361.197 241.978 361.208L241.837 358.778C242.329 358.778 242.821 358.711 243.313 358.577C243.805 358.439 244.247 358.256 244.639 358.029C244.875 357.892 245.065 357.748 245.209 357.598C245.357 357.445 245.464 357.293 245.53 357.14C245.595 356.983 245.623 356.831 245.615 356.684C245.605 356.509 245.542 356.393 245.427 356.336C245.316 356.272 245.141 356.241 244.901 356.242C244.661 356.243 244.346 356.255 243.955 356.278C243.621 356.291 243.316 356.282 243.042 356.252C242.771 356.218 242.535 356.139 242.333 356.013C242.136 355.881 241.978 355.685 241.859 355.425C241.741 355.166 241.669 354.82 241.644 354.387C241.606 353.738 241.713 353.115 241.963 352.518C242.217 351.913 242.586 351.357 243.069 350.848C243.556 350.337 244.125 349.892 244.777 349.514C245.349 349.182 245.867 348.957 246.331 348.839C246.8 348.72 247.221 348.649 247.596 348.626L246.993 351.153C246.605 351.173 246.226 351.232 245.856 351.328C245.485 351.419 245.144 351.556 244.832 351.737C244.628 351.855 244.462 351.983 244.333 352.119C244.208 352.249 244.117 352.38 244.059 352.514C244.004 352.646 243.981 352.773 243.988 352.898C243.997 353.054 244.057 353.164 244.168 353.228C244.283 353.29 244.469 353.322 244.726 353.326C244.986 353.322 245.338 353.31 245.784 353.289C246.224 353.262 246.602 353.29 246.917 353.373C247.231 353.452 247.477 353.626 247.654 353.895C247.834 354.156 247.94 354.549 247.97 355.074Z" fill="black"/>
<path d="M252.944 347.084C252.664 347.246 252.418 347.46 252.206 347.726C251.994 347.987 251.817 348.292 251.676 348.64C251.535 348.989 251.434 349.373 251.371 349.795C251.313 350.21 251.297 350.652 251.324 351.121C251.361 351.756 251.462 352.249 251.627 352.601C251.792 352.952 252.023 353.156 252.32 353.212C252.621 353.266 252.987 353.167 253.419 352.916C253.81 352.689 254.183 352.409 254.535 352.075C254.892 351.74 255.249 351.378 255.607 350.989L255.741 353.295C255.364 353.718 254.975 354.092 254.572 354.416C254.173 354.738 253.746 355.031 253.29 355.296C252.339 355.849 251.546 356.085 250.913 356.005C250.284 355.919 249.803 355.572 249.471 354.966C249.142 354.358 248.948 353.543 248.889 352.521C248.844 351.757 248.896 351.004 249.043 350.262C249.194 349.518 249.436 348.809 249.769 348.135C250.101 347.457 250.524 346.838 251.037 346.278C251.554 345.712 252.154 345.23 252.838 344.833C253.262 344.587 253.711 344.386 254.185 344.229C254.664 344.066 255.134 343.978 255.596 343.967L254.995 346.535C254.665 346.546 254.333 346.587 253.998 346.657C253.663 346.728 253.312 346.87 252.944 347.084Z" fill="black"/>
<path d="M264.995 348.357L262.614 349.739L262.376 345.625L259.623 347.223L259.862 351.338L257.48 352.72L256.895 342.627L259.276 341.245L259.493 344.987L262.246 343.388L262.029 339.646L264.41 338.264L264.995 348.357Z" fill="black"/>
<path d="M274.808 337.428C274.853 338.206 274.812 338.963 274.685 339.697C274.562 340.425 274.342 341.119 274.025 341.779C273.708 342.439 273.287 343.05 272.761 343.612C272.236 344.169 271.597 344.666 270.845 345.103C270.109 345.53 269.465 345.778 268.911 345.848C268.36 345.91 267.898 345.815 267.524 345.561C267.149 345.303 266.86 344.903 266.654 344.361C266.449 343.818 266.324 343.154 266.278 342.367C266.217 341.317 266.315 340.319 266.57 339.372C266.828 338.418 267.261 337.545 267.868 336.755C268.475 335.96 269.271 335.277 270.254 334.706C271.254 334.126 272.078 333.868 272.726 333.934C273.379 333.998 273.874 334.334 274.211 334.942C274.548 335.55 274.747 336.379 274.808 337.428ZM268.774 340.932C268.809 341.539 268.9 342.027 269.045 342.394C269.19 342.762 269.4 342.988 269.673 343.071C269.947 343.155 270.294 343.075 270.713 342.832C271.149 342.578 271.488 342.26 271.73 341.877C271.977 341.491 272.143 341.047 272.23 340.545C272.32 340.041 272.348 339.485 272.313 338.877C272.26 337.966 272.086 337.322 271.792 336.946C271.497 336.57 271.028 336.569 270.384 336.943C269.956 337.191 269.617 337.512 269.367 337.904C269.121 338.295 268.951 338.745 268.857 339.257C268.766 339.766 268.739 340.324 268.774 340.932Z" fill="black"/>
<path d="M284.596 331.745C284.641 332.523 284.6 333.279 284.473 334.014C284.35 334.742 284.13 335.436 283.813 336.096C283.496 336.756 283.075 337.367 282.549 337.929C282.024 338.486 281.385 338.983 280.633 339.419C279.898 339.847 279.253 340.095 278.699 340.164C278.149 340.227 277.686 340.131 277.312 339.878C276.937 339.62 276.648 339.219 276.443 338.677C276.238 338.135 276.112 337.47 276.066 336.683C276.006 335.634 276.103 334.636 276.358 333.688C276.616 332.734 277.049 331.862 277.657 331.072C278.263 330.277 279.059 329.594 280.042 329.023C281.042 328.442 281.866 328.185 282.515 328.251C283.167 328.314 283.662 328.65 283.999 329.259C284.336 329.867 284.535 330.696 284.596 331.745ZM278.562 335.248C278.598 335.856 278.688 336.343 278.833 336.711C278.978 337.079 279.188 337.304 279.461 337.388C279.735 337.472 280.082 337.392 280.501 337.148C280.937 336.895 281.276 336.577 281.519 336.194C281.765 335.808 281.931 335.364 282.018 334.862C282.108 334.357 282.136 333.801 282.101 333.194C282.048 332.282 281.874 331.639 281.58 331.263C281.285 330.887 280.816 330.886 280.172 331.259C279.744 331.508 279.405 331.828 279.155 332.221C278.909 332.611 278.739 333.062 278.645 333.573C278.555 334.083 278.527 334.641 278.562 335.248Z" fill="black"/>
<path d="M286.473 335.886L285.887 325.793L288.256 324.417L288.714 332.308L292.091 330.347L292.219 332.55L286.473 335.886Z" fill="black"/>
<path d="M299.99 321.928L303.775 319.731L304.091 325.171C303.649 325.613 303.14 326.061 302.563 326.515C301.986 326.964 301.377 327.375 300.737 327.746C299.894 328.236 299.143 328.477 298.485 328.468C297.828 328.46 297.299 328.175 296.898 327.613C296.497 327.047 296.263 326.174 296.194 324.996C296.133 323.938 296.256 322.922 296.563 321.949C296.87 320.971 297.353 320.075 298.013 319.259C298.676 318.436 299.505 317.736 300.501 317.158C301.049 316.84 301.572 316.598 302.071 316.432C302.569 316.266 303.006 316.169 303.381 316.142L302.755 318.718C302.429 318.721 302.093 318.778 301.748 318.888C301.403 318.994 301.035 319.16 300.643 319.387C300.119 319.692 299.705 320.072 299.401 320.53C299.101 320.985 298.892 321.482 298.774 322.021C298.657 322.555 298.614 323.097 298.645 323.644C298.682 324.27 298.788 324.755 298.966 325.1C299.146 325.437 299.391 325.633 299.7 325.686C300.013 325.733 300.381 325.634 300.805 325.387C300.945 325.306 301.114 325.196 301.313 325.057C301.515 324.916 301.668 324.799 301.77 324.706L301.678 323.125L300.113 324.034L299.99 321.928Z" fill="black"/>
<path d="M311.285 321.479L310.743 319.838L307.895 321.492L307.56 323.641L304.958 325.153L307.23 313.357L310.391 311.522L313.876 319.974L311.285 321.479ZM310.122 317.887L309.648 316.449C309.597 316.293 309.525 316.071 309.429 315.784C309.334 315.492 309.238 315.191 309.141 314.881C309.049 314.564 308.976 314.302 308.922 314.095C308.9 314.346 308.864 314.661 308.816 315.041C308.771 315.414 308.723 315.788 308.67 316.161C308.621 316.532 308.577 316.843 308.538 317.094L308.257 318.97L310.122 317.887Z" fill="black"/>
<path d="M318.698 317.174L316.329 318.55L315.873 310.687L313.732 311.93L313.602 309.7L320.247 305.842L320.377 308.072L318.242 309.311L318.698 317.174Z" fill="black"/>
<path d="M327.293 312.184L322.087 315.207L321.501 305.114L326.707 302.091L326.834 304.28L323.997 305.927L324.089 307.515L326.716 305.989L326.843 308.178L324.216 309.703L324.327 311.608L327.164 309.961L327.293 312.184Z" fill="black"/>
<path d="M334.468 297.585C335.579 296.939 336.427 296.735 337.011 296.971C337.599 297.206 337.923 297.836 337.983 298.862C338.009 299.322 337.977 299.798 337.886 300.289C337.798 300.777 337.634 301.262 337.394 301.745C337.157 302.225 336.83 302.685 336.414 303.127C336.001 303.567 335.483 303.967 334.859 304.329L334.193 304.716L334.388 308.064L332.019 309.44L331.433 299.347L334.468 297.585ZM334.542 299.818L333.93 300.174L334.064 302.493L334.532 302.221C334.736 302.103 334.924 301.954 335.095 301.773C335.266 301.588 335.399 301.376 335.492 301.136C335.59 300.889 335.629 300.614 335.612 300.31C335.593 299.993 335.496 299.783 335.321 299.68C335.145 299.573 334.886 299.619 334.542 299.818Z" fill="black"/>
<path d="M345.16 301.81L344.618 300.169L341.769 301.823L341.435 303.972L338.832 305.484L341.105 293.688L344.266 291.853L347.75 300.305L345.16 301.81ZM343.996 298.218L343.522 296.78C343.472 296.624 343.399 296.402 343.304 296.115C343.208 295.823 343.112 295.522 343.016 295.212C342.923 294.895 342.85 294.633 342.797 294.426C342.774 294.677 342.739 294.992 342.69 295.372C342.646 295.745 342.597 296.118 342.545 296.492C342.496 296.862 342.452 297.173 342.413 297.425L342.131 299.301L343.996 298.218Z" fill="black"/>
<path d="M354.26 293.357C354.292 293.905 354.202 294.494 353.991 295.126C353.779 295.753 353.428 296.366 352.938 296.965C352.452 297.561 351.809 298.091 351.009 298.556C350.609 298.788 350.256 298.972 349.95 299.107C349.648 299.239 349.364 299.335 349.099 299.394C348.833 299.448 348.556 299.481 348.267 299.491L348.126 297.061C348.618 297.061 349.11 296.994 349.603 296.861C350.095 296.722 350.537 296.539 350.929 296.312C351.164 296.175 351.355 296.031 351.499 295.881C351.647 295.728 351.754 295.576 351.819 295.424C351.885 295.267 351.913 295.115 351.904 294.967C351.894 294.793 351.832 294.677 351.717 294.62C351.606 294.556 351.43 294.524 351.191 294.526C350.951 294.527 350.636 294.539 350.244 294.561C349.91 294.574 349.606 294.566 349.331 294.535C349.061 294.502 348.825 294.422 348.623 294.297C348.425 294.164 348.267 293.968 348.149 293.709C348.03 293.449 347.959 293.103 347.934 292.67C347.896 292.021 348.002 291.398 348.253 290.801C348.507 290.197 348.876 289.64 349.359 289.131C349.846 288.62 350.415 288.175 351.067 287.797C351.639 287.465 352.157 287.24 352.621 287.123C353.089 287.003 353.511 286.932 353.886 286.909L353.282 289.436C352.895 289.457 352.516 289.515 352.145 289.611C351.775 289.703 351.433 289.839 351.121 290.02C350.917 290.139 350.751 290.266 350.623 290.402C350.498 290.532 350.407 290.664 350.348 290.797C350.294 290.929 350.27 291.057 350.277 291.181C350.287 291.337 350.347 291.448 350.458 291.512C350.573 291.573 350.759 291.606 351.015 291.609C351.275 291.605 351.628 291.593 352.073 291.573C352.514 291.545 352.892 291.573 353.206 291.657C353.521 291.736 353.767 291.909 353.944 292.178C354.124 292.439 354.229 292.832 354.26 293.357Z" fill="black"/>
<path d="M361.349 289.241C361.381 289.788 361.291 290.378 361.08 291.01C360.868 291.637 360.517 292.25 360.027 292.849C359.541 293.445 358.898 293.975 358.098 294.439C357.699 294.672 357.345 294.855 357.039 294.99C356.737 295.123 356.453 295.219 356.188 295.278C355.922 295.332 355.645 295.364 355.357 295.375L355.216 292.945C355.707 292.945 356.199 292.878 356.692 292.744C357.184 292.606 357.626 292.423 358.018 292.196C358.254 292.059 358.444 291.915 358.588 291.765C358.736 291.612 358.843 291.46 358.909 291.307C358.974 291.15 359.002 290.998 358.994 290.851C358.984 290.676 358.921 290.56 358.806 290.503C358.695 290.439 358.52 290.408 358.28 290.409C358.04 290.41 357.725 290.422 357.333 290.445C356.999 290.458 356.695 290.449 356.42 290.418C356.15 290.385 355.914 290.306 355.712 290.18C355.514 290.048 355.356 289.852 355.238 289.592C355.12 289.333 355.048 288.987 355.023 288.554C354.985 287.905 355.092 287.282 355.342 286.685C355.596 286.08 355.965 285.524 356.448 285.015C356.935 284.504 357.504 284.059 358.156 283.681C358.728 283.349 359.246 283.124 359.71 283.006C360.179 282.887 360.6 282.816 360.975 282.793L360.371 285.32C359.984 285.34 359.605 285.399 359.235 285.495C358.864 285.586 358.522 285.723 358.211 285.904C358.007 286.022 357.84 286.15 357.712 286.286C357.587 286.416 357.496 286.547 357.437 286.681C357.383 286.813 357.359 286.94 357.367 287.065C357.376 287.221 357.436 287.331 357.547 287.395C357.662 287.457 357.848 287.489 358.104 287.493C358.365 287.489 358.717 287.477 359.162 287.456C359.603 287.429 359.981 287.457 360.296 287.54C360.61 287.619 360.856 287.793 361.033 288.062C361.213 288.323 361.319 288.716 361.349 289.241Z" fill="black"/>
<path d="M472.63 219.59C472.703 220.051 472.67 220.546 472.531 221.077C472.392 221.604 472.126 222.118 471.734 222.619C471.346 223.119 470.811 223.562 470.131 223.949C469.79 224.143 469.488 224.296 469.224 224.408C468.963 224.518 468.716 224.598 468.483 224.646C468.249 224.69 468.003 224.716 467.745 224.724L467.423 222.679C467.864 222.681 468.3 222.627 468.732 222.517C469.162 222.403 469.544 222.251 469.878 222.061C470.078 221.947 470.237 221.827 470.355 221.701C470.476 221.573 470.559 221.445 470.606 221.317C470.652 221.186 470.665 221.058 470.646 220.934C470.622 220.787 470.557 220.689 470.449 220.641C470.344 220.586 470.184 220.559 469.969 220.559C469.754 220.559 469.472 220.568 469.122 220.585C468.824 220.595 468.55 220.586 468.301 220.559C468.055 220.529 467.837 220.462 467.646 220.355C467.458 220.243 467.3 220.077 467.173 219.858C467.046 219.639 466.953 219.348 466.896 218.984C466.81 218.438 466.855 217.914 467.032 217.412C467.212 216.905 467.498 216.438 467.891 216.012C468.287 215.584 468.762 215.213 469.316 214.897C469.803 214.62 470.25 214.434 470.657 214.337C471.068 214.238 471.441 214.18 471.776 214.163L471.437 216.286C471.091 216.302 470.756 216.349 470.431 216.428C470.105 216.504 469.81 216.617 469.544 216.768C469.371 216.867 469.232 216.973 469.128 217.087C469.026 217.196 468.954 217.306 468.913 217.419C468.875 217.529 468.864 217.636 468.88 217.741C468.901 217.873 468.964 217.966 469.069 218.02C469.177 218.072 469.347 218.1 469.577 218.104C469.81 218.102 470.126 218.094 470.524 218.078C470.917 218.057 471.259 218.082 471.548 218.154C471.837 218.222 472.071 218.369 472.251 218.596C472.435 218.817 472.561 219.148 472.63 219.59Z" fill="black"/>
<path d="M476.452 212.889C476.214 213.024 476.01 213.204 475.841 213.426C475.672 213.645 475.538 213.901 475.44 214.193C475.341 214.485 475.281 214.809 475.259 215.163C475.239 215.512 475.261 215.884 475.323 216.279C475.407 216.813 475.538 217.229 475.714 217.525C475.891 217.821 476.114 217.994 476.385 218.042C476.659 218.089 476.98 218.008 477.348 217.799C477.681 217.609 477.993 217.375 478.282 217.096C478.576 216.815 478.867 216.512 479.157 216.187L479.463 218.128C479.159 218.482 478.839 218.795 478.504 219.066C478.172 219.335 477.812 219.58 477.424 219.8C476.614 220.261 475.922 220.456 475.347 220.386C474.776 220.311 474.316 220.017 473.969 219.506C473.624 218.992 473.385 218.306 473.249 217.446C473.148 216.803 473.133 216.17 473.206 215.546C473.282 214.921 473.442 214.325 473.686 213.76C473.93 213.19 474.26 212.671 474.676 212.203C475.094 211.729 475.594 211.326 476.176 210.995C476.537 210.79 476.924 210.622 477.337 210.493C477.753 210.357 478.168 210.286 478.582 210.278L478.249 212.436C477.954 212.444 477.659 212.477 477.364 212.535C477.069 212.593 476.765 212.711 476.452 212.889Z" fill="black"/>
<path d="M487.373 214.014L485.347 215.166L484.801 211.703L482.459 213.036L483.004 216.499L480.978 217.652L479.64 209.157L481.666 208.004L482.162 211.153L484.505 209.821L484.009 206.672L486.035 205.519L487.373 214.014Z" fill="black"/>
<path d="M495.302 204.862C495.405 205.517 495.429 206.153 495.375 206.771C495.323 207.383 495.181 207.966 494.949 208.52C494.718 209.073 494.389 209.586 493.962 210.056C493.535 210.523 493.002 210.938 492.362 211.302C491.736 211.658 491.177 211.864 490.686 211.92C490.197 211.97 489.774 211.888 489.418 211.673C489.061 211.454 488.768 211.116 488.541 210.659C488.313 210.202 488.147 209.642 488.043 208.979C487.904 208.096 487.91 207.257 488.063 206.461C488.218 205.659 488.537 204.927 489.018 204.265C489.499 203.599 490.158 203.028 490.995 202.552C491.846 202.068 492.565 201.855 493.152 201.913C493.743 201.969 494.215 202.254 494.566 202.768C494.918 203.281 495.163 203.979 495.302 204.862ZM490.168 207.783C490.248 208.294 490.368 208.705 490.528 209.015C490.689 209.325 490.895 209.516 491.147 209.587C491.399 209.659 491.704 209.593 492.061 209.39C492.432 209.179 492.711 208.913 492.898 208.592C493.088 208.268 493.201 207.895 493.239 207.473C493.279 207.049 493.259 206.581 493.179 206.07C493.058 205.303 492.85 204.761 492.555 204.443C492.261 204.125 491.84 204.122 491.292 204.434C490.928 204.641 490.649 204.909 490.456 205.239C490.267 205.566 490.15 205.944 490.107 206.374C490.067 206.802 490.087 207.272 490.168 207.783Z" fill="black"/>
<path d="M503.631 200.124C503.734 200.778 503.759 201.415 503.704 202.032C503.652 202.644 503.51 203.227 503.279 203.781C503.047 204.335 502.718 204.847 502.292 205.318C501.865 205.784 501.331 206.199 500.692 206.563C500.066 206.919 499.507 207.126 499.015 207.182C498.526 207.232 498.103 207.149 497.747 206.934C497.39 206.715 497.098 206.377 496.87 205.92C496.642 205.463 496.476 204.903 496.372 204.241C496.233 203.358 496.24 202.518 496.392 201.722C496.548 200.921 496.866 200.189 497.348 199.526C497.828 198.86 498.487 198.289 499.324 197.813C500.175 197.329 500.894 197.116 501.482 197.175C502.073 197.231 502.544 197.516 502.895 198.029C503.247 198.542 503.492 199.241 503.631 200.124ZM498.497 203.045C498.577 203.556 498.698 203.967 498.858 204.277C499.018 204.586 499.224 204.777 499.476 204.849C499.728 204.921 500.033 204.855 500.39 204.652C500.761 204.441 501.04 204.175 501.227 203.853C501.417 203.53 501.53 203.157 501.568 202.735C501.608 202.311 501.589 201.843 501.508 201.332C501.387 200.565 501.179 200.022 500.885 199.705C500.59 199.387 500.169 199.384 499.621 199.696C499.257 199.903 498.978 200.171 498.786 200.5C498.596 200.827 498.48 201.206 498.436 201.636C498.396 202.064 498.416 202.533 498.497 203.045Z" fill="black"/>
<path d="M505.649 203.616L504.311 195.122L506.327 193.975L507.373 200.616L510.247 198.981L510.539 200.835L505.649 203.616Z" fill="black"/>
<path d="M516.661 191.933L519.881 190.101L520.602 194.679C520.242 195.049 519.82 195.424 519.339 195.803C518.857 196.179 518.344 196.521 517.799 196.831C517.081 197.239 516.427 197.439 515.836 197.429C515.245 197.419 514.747 197.177 514.342 196.702C513.937 196.224 513.656 195.489 513.5 194.497C513.36 193.606 513.388 192.752 513.586 191.935C513.783 191.114 514.144 190.361 514.671 189.678C515.2 188.989 515.888 188.403 516.735 187.921C517.201 187.656 517.651 187.455 518.086 187.317C518.52 187.18 518.904 187.101 519.238 187.079L518.884 189.243C518.591 189.245 518.295 189.292 517.994 189.383C517.693 189.47 517.375 189.608 517.042 189.798C516.596 190.051 516.255 190.37 516.019 190.753C515.786 191.135 515.639 191.552 515.577 192.005C515.514 192.454 515.519 192.909 515.591 193.37C515.674 193.897 515.809 194.306 515.996 194.596C516.185 194.881 516.421 195.047 516.702 195.093C516.987 195.134 517.31 195.052 517.67 194.847C517.789 194.779 517.932 194.687 518.099 194.571C518.27 194.453 518.397 194.355 518.481 194.278L518.272 192.947L516.94 193.705L516.661 191.933Z" fill="black"/>
<path d="M526.763 191.605L526.145 190.222L523.721 191.601L523.594 193.408L521.379 194.668L522.47 184.753L525.16 183.223L528.968 190.35L526.763 191.605ZM525.43 188.577L524.889 187.366C524.831 187.234 524.748 187.047 524.639 186.805C524.53 186.559 524.42 186.305 524.308 186.044C524.199 185.776 524.113 185.556 524.048 185.381C524.048 185.592 524.042 185.858 524.029 186.177C524.019 186.491 524.005 186.805 523.988 187.119C523.974 187.43 523.96 187.692 523.945 187.903L523.843 189.48L525.43 188.577Z" fill="black"/>
<path d="M533.072 188.016L531.056 189.163L530.013 182.545L528.191 183.582L527.896 181.705L533.55 178.488L533.846 180.364L532.029 181.398L533.072 188.016Z" fill="black"/>
<path d="M540.385 183.855L535.955 186.375L534.617 177.881L539.047 175.361L539.337 177.203L536.923 178.576L537.134 179.912L539.369 178.641L539.659 180.482L537.424 181.754L537.676 183.358L540.09 181.984L540.385 183.855Z" fill="black"/>
<path d="M545.651 171.604C546.597 171.066 547.342 170.897 547.885 171.099C548.432 171.299 548.773 171.83 548.909 172.694C548.97 173.081 548.98 173.481 548.937 173.894C548.898 174.304 548.79 174.712 548.613 175.117C548.439 175.519 548.183 175.906 547.844 176.276C547.509 176.643 547.076 176.978 546.546 177.28L545.979 177.603L546.423 180.42L544.407 181.567L543.069 173.073L545.651 171.604ZM545.897 173.483L545.377 173.779L545.684 175.732L546.082 175.505C546.256 175.406 546.412 175.282 546.552 175.131C546.69 174.976 546.792 174.798 546.857 174.596C546.924 174.389 546.938 174.158 546.898 173.902C546.855 173.635 546.752 173.457 546.586 173.37C546.419 173.279 546.19 173.317 545.897 173.483Z" fill="black"/>
<path d="M555.589 175.206L554.971 173.823L552.547 175.202L552.42 177.009L550.205 178.269L551.296 168.355L553.985 166.825L557.794 173.952L555.589 175.206ZM554.256 172.178L553.715 170.967C553.657 170.835 553.574 170.648 553.465 170.406C553.356 170.16 553.245 169.907 553.134 169.645C553.025 169.378 552.938 169.157 552.874 168.983C552.874 169.194 552.867 169.459 552.855 169.779C552.845 170.092 552.831 170.406 552.814 170.72C552.8 171.032 552.785 171.293 552.77 171.504L552.669 173.081L554.256 172.178Z" fill="black"/>
<path d="M563.078 168.134C563.151 168.595 563.118 169.091 562.979 169.622C562.839 170.149 562.574 170.663 562.182 171.164C561.793 171.664 561.259 172.107 560.578 172.494C560.238 172.688 559.936 172.841 559.672 172.953C559.411 173.063 559.164 173.142 558.931 173.191C558.697 173.235 558.451 173.261 558.192 173.269L557.87 171.224C558.312 171.226 558.748 171.172 559.179 171.062C559.61 170.947 559.992 170.795 560.325 170.606C560.526 170.492 560.685 170.372 560.803 170.246C560.923 170.118 561.007 169.99 561.054 169.862C561.1 169.731 561.113 169.603 561.093 169.479C561.07 169.332 561.005 169.234 560.897 169.185C560.792 169.131 560.632 169.104 560.417 169.104C560.202 169.104 559.92 169.113 559.57 169.13C559.271 169.139 558.998 169.131 558.749 169.103C558.503 169.074 558.285 169.006 558.094 168.9C557.905 168.788 557.748 168.622 557.621 168.403C557.493 168.184 557.401 167.893 557.344 167.529C557.258 166.982 557.303 166.459 557.48 165.957C557.66 165.45 557.946 164.983 558.338 164.557C558.734 164.129 559.21 163.757 559.764 163.442C560.251 163.165 560.698 162.978 561.105 162.882C561.516 162.783 561.889 162.725 562.223 162.708L561.885 164.831C561.539 164.847 561.203 164.894 560.879 164.973C560.553 165.049 560.258 165.162 559.992 165.313C559.819 165.412 559.68 165.518 559.575 165.632C559.474 165.741 559.402 165.851 559.361 165.963C559.322 166.074 559.312 166.181 559.328 166.286C559.349 166.418 559.412 166.51 559.517 166.565C559.625 166.617 559.794 166.645 560.025 166.649C560.258 166.647 560.574 166.639 560.972 166.623C561.365 166.602 561.706 166.627 561.996 166.699C562.284 166.767 562.519 166.914 562.699 167.141C562.882 167.362 563.009 167.693 563.078 168.134Z" fill="black"/>
<path d="M569.111 164.703C569.183 165.164 569.15 165.659 569.011 166.19C568.872 166.717 568.606 167.231 568.214 167.732C567.826 168.232 567.291 168.675 566.611 169.062C566.271 169.256 565.969 169.409 565.705 169.521C565.444 169.631 565.197 169.711 564.963 169.759C564.729 169.803 564.483 169.829 564.225 169.837L563.903 167.792C564.344 167.794 564.781 167.74 565.212 167.63C565.643 167.516 566.025 167.364 566.358 167.174C566.559 167.06 566.718 166.94 566.835 166.814C566.956 166.686 567.04 166.558 567.086 166.43C567.132 166.299 567.145 166.171 567.126 166.047C567.103 165.9 567.037 165.802 566.93 165.754C566.825 165.699 566.665 165.672 566.45 165.672C566.235 165.672 565.952 165.681 565.603 165.698C565.304 165.708 565.03 165.699 564.781 165.672C564.536 165.642 564.317 165.575 564.126 165.468C563.938 165.356 563.78 165.19 563.653 164.971C563.526 164.752 563.434 164.461 563.376 164.097C563.29 163.551 563.336 163.027 563.513 162.525C563.692 162.018 563.978 161.551 564.371 161.125C564.767 160.697 565.242 160.326 565.797 160.01C566.283 159.733 566.73 159.547 567.138 159.45C567.549 159.351 567.921 159.293 568.256 159.276L567.918 161.399C567.571 161.415 567.236 161.462 566.911 161.541C566.586 161.617 566.29 161.73 566.025 161.881C565.851 161.98 565.712 162.086 565.608 162.2C565.506 162.309 565.435 162.419 565.393 162.531C565.355 162.642 565.344 162.749 565.361 162.854C565.381 162.986 565.444 163.079 565.549 163.133C565.657 163.185 565.827 163.213 566.057 163.217C566.291 163.215 566.606 163.207 567.004 163.191C567.398 163.17 567.739 163.195 568.028 163.267C568.317 163.335 568.552 163.482 568.732 163.709C568.915 163.93 569.041 164.261 569.111 164.703Z" fill="black"/>
<path d="M756.628 180.797C756.628 181.727 756.393 182.609 755.924 183.445C755.456 184.273 754.725 184.945 753.733 185.461C752.749 185.977 751.475 186.234 749.913 186.234C749.131 186.234 748.444 186.199 747.85 186.129C747.264 186.059 746.717 185.945 746.21 185.789C745.702 185.625 745.174 185.414 744.628 185.156V181.031C745.557 181.5 746.495 181.859 747.44 182.109C748.385 182.352 749.241 182.473 750.006 182.473C750.467 182.473 750.842 182.418 751.131 182.309C751.428 182.199 751.647 182.051 751.788 181.863C751.928 181.668 751.999 181.445 751.999 181.195C751.999 180.898 751.893 180.648 751.682 180.445C751.479 180.234 751.151 180.016 750.698 179.789C750.245 179.562 749.647 179.281 748.905 178.945C748.272 178.648 747.698 178.344 747.182 178.031C746.674 177.719 746.237 177.363 745.87 176.965C745.51 176.559 745.233 176.086 745.038 175.547C744.842 175.008 744.745 174.371 744.745 173.637C744.745 172.535 745.014 171.613 745.553 170.871C746.1 170.121 746.858 169.559 747.827 169.184C748.803 168.809 749.928 168.621 751.202 168.621C752.319 168.621 753.323 168.746 754.213 168.996C755.112 169.246 755.917 169.531 756.628 169.852L755.21 173.426C754.475 173.09 753.753 172.824 753.042 172.629C752.331 172.426 751.67 172.324 751.061 172.324C750.663 172.324 750.335 172.375 750.077 172.477C749.827 172.57 749.639 172.699 749.514 172.863C749.397 173.027 749.338 173.215 749.338 173.426C749.338 173.691 749.44 173.93 749.643 174.141C749.854 174.352 750.202 174.582 750.686 174.832C751.178 175.074 751.846 175.391 752.69 175.781C753.526 176.156 754.237 176.562 754.823 177C755.409 177.43 755.854 177.949 756.159 178.559C756.471 179.16 756.628 179.906 756.628 180.797ZM766.905 172.418C766.358 172.418 765.87 172.535 765.44 172.77C765.01 172.996 764.643 173.328 764.338 173.766C764.034 174.203 763.799 174.738 763.635 175.371C763.479 175.996 763.401 176.707 763.401 177.504C763.401 178.582 763.538 179.488 763.811 180.223C764.085 180.957 764.499 181.512 765.053 181.887C765.616 182.262 766.319 182.449 767.163 182.449C767.928 182.449 768.663 182.344 769.366 182.133C770.077 181.922 770.792 181.668 771.51 181.371V185.285C770.753 185.621 769.975 185.863 769.178 186.012C768.389 186.16 767.549 186.234 766.659 186.234C764.799 186.234 763.276 185.867 762.088 185.133C760.909 184.391 760.038 183.363 759.475 182.051C758.92 180.738 758.643 179.215 758.643 177.48C758.643 176.184 758.823 174.996 759.182 173.918C759.549 172.84 760.085 171.906 760.788 171.117C761.491 170.32 762.358 169.707 763.389 169.277C764.428 168.84 765.616 168.621 766.952 168.621C767.78 168.621 768.651 168.719 769.565 168.914C770.487 169.102 771.385 169.406 772.26 169.828L770.842 173.473C770.217 173.176 769.585 172.926 768.944 172.723C768.303 172.52 767.624 172.418 766.905 172.418ZM789.545 186H784.893V179.016H779.514V186H774.862V168.867H779.514V175.219H784.893V168.867H789.545V186ZM809.292 177.41C809.292 178.73 809.131 179.934 808.811 181.02C808.499 182.098 808.006 183.027 807.335 183.809C806.663 184.59 805.799 185.191 804.745 185.613C803.69 186.027 802.428 186.234 800.96 186.234C799.522 186.234 798.276 186.027 797.221 185.613C796.174 185.191 795.311 184.594 794.631 183.82C793.952 183.039 793.448 182.105 793.12 181.02C792.792 179.934 792.628 178.723 792.628 177.387C792.628 175.605 792.92 174.059 793.506 172.746C794.1 171.426 795.014 170.406 796.249 169.688C797.483 168.961 799.061 168.598 800.983 168.598C802.936 168.598 804.522 168.961 805.741 169.688C806.967 170.414 807.866 171.438 808.436 172.758C809.006 174.078 809.292 175.629 809.292 177.41ZM797.503 177.41C797.503 178.441 797.62 179.328 797.854 180.07C798.088 180.812 798.46 181.383 798.967 181.781C799.475 182.18 800.139 182.379 800.96 182.379C801.811 182.379 802.487 182.18 802.987 181.781C803.495 181.383 803.858 180.812 804.077 180.07C804.303 179.328 804.417 178.441 804.417 177.41C804.417 175.863 804.159 174.641 803.643 173.742C803.128 172.844 802.241 172.395 800.983 172.395C800.147 172.395 799.471 172.598 798.956 173.004C798.448 173.41 798.077 173.988 797.842 174.738C797.616 175.488 797.503 176.379 797.503 177.41ZM828.417 177.41C828.417 178.73 828.256 179.934 827.936 181.02C827.624 182.098 827.131 183.027 826.46 183.809C825.788 184.59 824.924 185.191 823.87 185.613C822.815 186.027 821.553 186.234 820.085 186.234C818.647 186.234 817.401 186.027 816.346 185.613C815.299 185.191 814.436 184.594 813.756 183.82C813.077 183.039 812.573 182.105 812.245 181.02C811.917 179.934 811.753 178.723 811.753 177.387C811.753 175.605 812.045 174.059 812.631 172.746C813.225 171.426 814.139 170.406 815.374 169.688C816.608 168.961 818.186 168.598 820.108 168.598C822.061 168.598 823.647 168.961 824.866 169.688C826.092 170.414 826.991 171.438 827.561 172.758C828.131 174.078 828.417 175.629 828.417 177.41ZM816.628 177.41C816.628 178.441 816.745 179.328 816.979 180.07C817.213 180.812 817.585 181.383 818.092 181.781C818.6 182.18 819.264 182.379 820.085 182.379C820.936 182.379 821.612 182.18 822.112 181.781C822.62 181.383 822.983 180.812 823.202 180.07C823.428 179.328 823.542 178.441 823.542 177.41C823.542 175.863 823.284 174.641 822.768 173.742C822.253 172.844 821.366 172.395 820.108 172.395C819.272 172.395 818.596 172.598 818.081 173.004C817.573 173.41 817.202 173.988 816.967 174.738C816.741 175.488 816.628 176.379 816.628 177.41ZM831.51 186V168.867H836.139V182.262H842.737V186H831.51ZM737.784 208.969H745.178V218.203C744.295 218.508 743.284 218.758 742.143 218.953C741.003 219.141 739.807 219.234 738.557 219.234C736.909 219.234 735.463 218.914 734.221 218.273C732.979 217.633 732.01 216.66 731.315 215.355C730.62 214.043 730.272 212.387 730.272 210.387C730.272 208.59 730.616 207.039 731.303 205.734C731.991 204.422 733.003 203.41 734.338 202.699C735.682 201.98 737.327 201.621 739.272 201.621C740.342 201.621 741.358 201.723 742.319 201.926C743.28 202.129 744.116 202.387 744.827 202.699L743.362 206.332C742.745 206.027 742.104 205.801 741.44 205.652C740.776 205.496 740.061 205.418 739.295 205.418C738.272 205.418 737.448 205.648 736.823 206.109C736.206 206.57 735.756 207.188 735.475 207.961C735.194 208.727 735.053 209.574 735.053 210.504C735.053 211.566 735.202 212.465 735.499 213.199C735.803 213.926 736.245 214.48 736.823 214.863C737.409 215.238 738.116 215.426 738.944 215.426C739.217 215.426 739.549 215.406 739.94 215.367C740.338 215.328 740.639 215.281 740.842 215.227V212.543H737.784V208.969ZM759.182 219L758.338 215.789H752.772L751.905 219H746.819L752.409 201.797H758.585L764.245 219H759.182ZM757.378 211.992L756.639 209.18C756.561 208.875 756.448 208.441 756.299 207.879C756.151 207.309 756.003 206.723 755.854 206.121C755.713 205.512 755.604 205.012 755.526 204.621C755.456 205.012 755.354 205.496 755.221 206.074C755.096 206.645 754.963 207.211 754.823 207.773C754.69 208.336 754.573 208.805 754.471 209.18L753.733 211.992H757.378ZM773.667 219H769.038V205.652H764.854V201.867H777.838V205.652H773.667V219ZM790.46 219H780.288V201.867H790.46V205.582H784.917V208.277H790.049V211.992H784.917V215.227H790.46V219ZM805.624 201.867C807.795 201.867 809.42 202.34 810.499 203.285C811.585 204.23 812.128 205.574 812.128 207.316C812.128 208.098 812.014 208.848 811.788 209.566C811.569 210.285 811.206 210.926 810.698 211.488C810.198 212.051 809.53 212.496 808.694 212.824C807.866 213.152 806.842 213.316 805.624 213.316H804.323V219H799.694V201.867H805.624ZM805.518 205.605H804.323V209.543H805.237C805.635 209.543 806.006 209.477 806.35 209.344C806.694 209.203 806.967 208.98 807.17 208.676C807.381 208.363 807.487 207.949 807.487 207.434C807.487 206.895 807.327 206.457 807.006 206.121C806.686 205.777 806.19 205.605 805.518 205.605ZM825.37 219L824.526 215.789H818.96L818.092 219H813.006L818.596 201.797H824.772L830.432 219H825.37ZM823.565 211.992L822.827 209.18C822.749 208.875 822.635 208.441 822.487 207.879C822.338 207.309 822.19 206.723 822.042 206.121C821.901 205.512 821.792 205.012 821.713 204.621C821.643 205.012 821.542 205.496 821.409 206.074C821.284 206.645 821.151 207.211 821.01 207.773C820.878 208.336 820.76 208.805 820.659 209.18L819.92 211.992H823.565ZM843.499 213.797C843.499 214.727 843.264 215.609 842.795 216.445C842.327 217.273 841.596 217.945 840.604 218.461C839.62 218.977 838.346 219.234 836.784 219.234C836.003 219.234 835.315 219.199 834.721 219.129C834.135 219.059 833.588 218.945 833.081 218.789C832.573 218.625 832.045 218.414 831.499 218.156V214.031C832.428 214.5 833.366 214.859 834.311 215.109C835.256 215.352 836.112 215.473 836.878 215.473C837.338 215.473 837.713 215.418 838.003 215.309C838.299 215.199 838.518 215.051 838.659 214.863C838.799 214.668 838.87 214.445 838.87 214.195C838.87 213.898 838.764 213.648 838.553 213.445C838.35 213.234 838.022 213.016 837.569 212.789C837.116 212.562 836.518 212.281 835.776 211.945C835.143 211.648 834.569 211.344 834.053 211.031C833.545 210.719 833.108 210.363 832.741 209.965C832.381 209.559 832.104 209.086 831.909 208.547C831.713 208.008 831.616 207.371 831.616 206.637C831.616 205.535 831.885 204.613 832.424 203.871C832.971 203.121 833.729 202.559 834.698 202.184C835.674 201.809 836.799 201.621 838.073 201.621C839.19 201.621 840.194 201.746 841.085 201.996C841.983 202.246 842.788 202.531 843.499 202.852L842.081 206.426C841.346 206.09 840.624 205.824 839.913 205.629C839.202 205.426 838.542 205.324 837.932 205.324C837.534 205.324 837.206 205.375 836.948 205.477C836.698 205.57 836.51 205.699 836.385 205.863C836.268 206.027 836.21 206.215 836.21 206.426C836.21 206.691 836.311 206.93 836.514 207.141C836.725 207.352 837.073 207.582 837.557 207.832C838.049 208.074 838.717 208.391 839.561 208.781C840.397 209.156 841.108 209.562 841.694 210C842.28 210.43 842.725 210.949 843.03 211.559C843.342 212.16 843.499 212.906 843.499 213.797ZM857.35 213.797C857.35 214.727 857.116 215.609 856.647 216.445C856.178 217.273 855.448 217.945 854.456 218.461C853.471 218.977 852.198 219.234 850.635 219.234C849.854 219.234 849.167 219.199 848.573 219.129C847.987 219.059 847.44 218.945 846.932 218.789C846.424 218.625 845.897 218.414 845.35 218.156V214.031C846.28 214.5 847.217 214.859 848.163 215.109C849.108 215.352 849.963 215.473 850.729 215.473C851.19 215.473 851.565 215.418 851.854 215.309C852.151 215.199 852.37 215.051 852.51 214.863C852.651 214.668 852.721 214.445 852.721 214.195C852.721 213.898 852.616 213.648 852.405 213.445C852.202 213.234 851.874 213.016 851.42 212.789C850.967 212.562 850.37 212.281 849.628 211.945C848.995 211.648 848.42 211.344 847.905 211.031C847.397 210.719 846.96 210.363 846.592 209.965C846.233 209.559 845.956 209.086 845.76 208.547C845.565 208.008 845.467 207.371 845.467 206.637C845.467 205.535 845.737 204.613 846.276 203.871C846.823 203.121 847.581 202.559 848.549 202.184C849.526 201.809 850.651 201.621 851.924 201.621C853.042 201.621 854.045 201.746 854.936 201.996C855.835 202.246 856.639 202.531 857.35 202.852L855.932 206.426C855.198 206.09 854.475 205.824 853.764 205.629C853.053 205.426 852.393 205.324 851.784 205.324C851.385 205.324 851.057 205.375 850.799 205.477C850.549 205.57 850.362 205.699 850.237 205.863C850.12 206.027 850.061 206.215 850.061 206.426C850.061 206.691 850.163 206.93 850.366 207.141C850.577 207.352 850.924 207.582 851.409 207.832C851.901 208.074 852.569 208.391 853.413 208.781C854.249 209.156 854.96 209.562 855.545 210C856.131 210.43 856.577 210.949 856.881 211.559C857.194 212.16 857.35 212.906 857.35 213.797Z" fill="white"/>
</svg>
