<svg width="643" height="408" viewBox="0 0 643 408" fill="none" xmlns="http://www.w3.org/2000/svg">
<path d="M440.796 329.152C437.99 330.629 435.073 331.891 432.063 332.922C416.663 338.178 393.734 337.76 380.992 326.348C360.277 307.804 384.178 286.196 400.476 275.731C410.774 269.119 420.803 261.607 432.536 258.134C444.268 254.67 458.483 256.23 466.401 265.581C475.207 275.981 473.142 292.102 466.54 304.034C460.65 314.676 451.547 323.488 440.796 329.152Z" fill="#DBE0FC"/>
<path d="M114.357 270.93C109.31 254.68 108.236 237.52 112.514 220.768C121.062 187.302 145.444 166.901 173.911 150.131C205.1 131.754 242.281 125.709 271.21 102.346C298.741 80.1153 316.067 46.8442 344.673 26.0253C373.825 4.8072 417.321 -4.21863 448.815 17.0738C468.966 30.6961 481.829 54.0314 484.311 78.2767C486.644 101.12 477.078 128.402 460.761 144.912C447.074 158.757 426.461 165.926 407.986 170.281C371.111 178.982 319.966 176.874 305.381 218.586C300.63 232.171 301.723 246.982 300.797 261.338C299.241 285.239 291.546 309.197 276.183 327.546C260.82 345.895 237.28 357.966 213.434 356.564C198.173 355.663 183.625 349.497 170.586 341.502C144.565 325.559 123.266 299.651 114.357 270.93Z" fill="#DBE0FC"/>
<path fill-rule="evenodd" clip-rule="evenodd" d="M429.313 100.953C428.693 100.665 428.211 100.089 427.933 99.4484C426.979 97.2384 427.294 94.7034 427.776 92.3448C427.822 92.1312 427.868 91.9176 428.007 91.7505C429.091 90.4876 430.415 89.6797 431.36 88.2312C431.98 87.284 432.434 86.2347 432.749 85.1482C433.008 84.2661 432.86 82.3904 433.341 81.6939C434.749 79.6789 435.953 83.8297 436.073 84.7954C436.184 85.7333 435.851 86.6433 435.74 87.5719C435.656 88.2497 435.499 88.9183 435.379 89.6055C435.545 89.7262 435.73 89.6612 435.916 89.6612C437.99 89.6612 440.074 89.6519 442.148 89.6426C443.028 89.6426 443.454 89.8933 443.574 90.469C443.722 91.1933 443.342 91.9362 442.676 92.2798C442.518 92.3633 442.24 92.2891 442.222 92.5305C442.203 92.7812 442.49 92.7534 442.639 92.8555C443.389 93.3662 443.259 94.4341 442.389 95.0562C442.176 95.2048 441.777 95.1398 441.768 95.4462C441.768 95.6877 442.148 95.6877 442.315 95.8641C442.926 96.4677 442.629 97.5913 441.722 98.0463C441.602 98.102 441.463 98.1113 441.361 98.1856C441.259 98.2598 441.157 98.3341 441.361 98.4734C442.259 99.1141 442.25 100.015 441.342 100.674C441.25 100.739 441.166 100.804 441.074 100.869C440.75 101.111 440.361 101.111 439.981 101.111C436.721 101.129 433.462 101.138 430.202 101.148C429.878 101.148 429.582 101.083 429.313 100.953Z" fill="#D89CC7"/>
<path fill-rule="evenodd" clip-rule="evenodd" d="M422.21 96.4677C422.201 94.8984 422.201 93.3291 422.192 91.769C422.192 91.4533 422.21 91.2955 422.47 91.2955C423.747 91.314 425.035 91.314 426.313 91.2862C426.563 91.2862 426.6 91.4069 426.6 91.7412C426.6 94.8984 426.609 98.0462 426.637 101.203C426.637 101.603 426.563 101.714 426.294 101.714C425.053 101.696 423.803 101.696 422.562 101.733C422.257 101.742 422.21 101.575 422.21 101.176C422.229 99.6063 422.21 98.037 422.21 96.4677Z" fill="#D89CC7"/>
<path fill-rule="evenodd" clip-rule="evenodd" d="M191.941 84.1732C191.441 83.9411 191.052 83.4768 190.83 82.9568C190.061 81.1739 190.311 79.1217 190.709 77.2181C190.746 77.051 190.783 76.8746 190.895 76.7353C191.765 75.7138 192.839 75.0638 193.608 73.8938C194.108 73.1324 194.469 72.2781 194.728 71.4052C194.932 70.6995 194.812 69.1766 195.21 68.6102C196.349 66.9759 197.321 70.3373 197.414 71.1173C197.506 71.8695 197.238 72.6124 197.145 73.3552C197.08 73.9031 196.951 74.4417 196.849 74.9988C196.979 75.0917 197.136 75.0453 197.284 75.0453C198.96 75.0453 200.646 75.036 202.322 75.0267C203.026 75.0267 203.378 75.231 203.479 75.6953C203.6 76.2803 203.294 76.8746 202.757 77.1531C202.627 77.2181 202.405 77.1624 202.387 77.3574C202.368 77.5617 202.609 77.5339 202.72 77.6174C203.331 78.0353 203.22 78.8989 202.516 79.4003C202.35 79.521 202.016 79.4653 202.016 79.716C202.016 79.911 202.322 79.911 202.461 80.0503C202.952 80.5332 202.711 81.4432 201.979 81.8146C201.887 81.8611 201.766 81.8703 201.683 81.9261C201.6 81.9818 201.516 82.0468 201.683 82.1582C202.414 82.6782 202.396 83.4025 201.664 83.9318C201.59 83.9875 201.516 84.0339 201.442 84.0897C201.174 84.2847 200.859 84.2847 200.562 84.2847C197.932 84.3032 195.293 84.3032 192.663 84.3125C192.395 84.3311 192.154 84.2754 191.941 84.1732Z" fill="#D89CC7"/>
<path fill-rule="evenodd" clip-rule="evenodd" d="M186.199 80.5518C186.199 79.2889 186.199 78.0167 186.181 76.7539C186.181 76.4939 186.199 76.3731 186.412 76.3731C187.45 76.3917 188.487 76.3824 189.515 76.3638C189.718 76.3638 189.746 76.466 189.746 76.7353C189.746 79.2796 189.755 81.8332 189.774 84.3775C189.774 84.7025 189.718 84.7954 189.496 84.7861C188.496 84.7768 187.487 84.7768 186.487 84.7954C186.237 84.8047 186.199 84.6747 186.199 84.3497C186.209 83.0868 186.199 81.8146 186.199 80.5518Z" fill="#D89CC7"/>
<path fill-rule="evenodd" clip-rule="evenodd" d="M313.817 266.528C313.206 266.25 312.743 265.683 312.465 265.052C311.53 262.888 311.835 260.391 312.317 258.078C312.363 257.874 312.41 257.651 312.549 257.493C313.613 256.249 314.91 255.46 315.836 254.039C316.438 253.11 316.882 252.08 317.197 251.012C317.447 250.148 317.299 248.31 317.781 247.623C319.16 245.645 320.346 249.712 320.457 250.668C320.568 251.588 320.244 252.479 320.133 253.389C320.049 254.058 319.901 254.708 319.772 255.385C319.929 255.506 320.124 255.441 320.299 255.441C322.337 255.441 324.374 255.432 326.421 255.423C327.282 255.423 327.699 255.664 327.819 256.24C327.967 256.955 327.597 257.679 326.939 258.013C326.791 258.088 326.513 258.023 326.495 258.264C326.476 258.506 326.763 258.487 326.902 258.58C327.643 259.081 327.504 260.131 326.652 260.743C326.448 260.892 326.05 260.827 326.041 261.124C326.041 261.366 326.411 261.356 326.578 261.533C327.18 262.118 326.884 263.223 325.995 263.668C325.883 263.724 325.735 263.733 325.633 263.808C325.532 263.873 325.43 263.956 325.633 264.096C326.522 264.727 326.504 265.609 325.615 266.25C325.532 266.315 325.439 266.38 325.346 266.445C325.022 266.686 324.643 266.677 324.272 266.686C321.077 266.705 317.873 266.714 314.678 266.723C314.364 266.723 314.077 266.649 313.817 266.528Z" fill="#D89CC7"/>
<path fill-rule="evenodd" clip-rule="evenodd" d="M306.835 262.127C306.826 260.586 306.826 259.053 306.816 257.512C306.816 257.196 306.835 257.048 307.094 257.048C308.354 257.066 309.613 257.057 310.863 257.038C311.113 257.038 311.15 257.159 311.15 257.484C311.15 260.576 311.159 263.678 311.178 266.77C311.178 267.16 311.113 267.271 310.845 267.271C309.622 267.253 308.4 267.253 307.187 267.29C306.881 267.299 306.844 267.141 306.844 266.742C306.853 265.21 306.844 263.668 306.835 262.127Z" fill="#D89CC7"/>
<path fill-rule="evenodd" clip-rule="evenodd" d="M292.213 244.698C291.648 244.438 291.213 243.908 290.962 243.323C290.092 241.308 290.379 238.996 290.824 236.851C290.861 236.656 290.907 236.461 291.037 236.312C292.018 235.161 293.231 234.427 294.093 233.109C294.657 232.245 295.065 231.289 295.352 230.304C295.583 229.506 295.454 227.797 295.889 227.157C297.167 225.318 298.269 229.097 298.371 229.979C298.473 230.834 298.167 231.66 298.065 232.505C297.991 233.127 297.852 233.731 297.732 234.362C297.88 234.474 298.056 234.418 298.213 234.418C300.103 234.418 302.001 234.409 303.89 234.399C304.686 234.399 305.075 234.622 305.196 235.152C305.335 235.811 304.992 236.489 304.381 236.805C304.242 236.879 303.983 236.814 303.964 237.037C303.946 237.26 304.214 237.241 304.344 237.334C305.029 237.798 304.909 238.773 304.112 239.34C303.918 239.47 303.557 239.414 303.547 239.692C303.547 239.915 303.89 239.915 304.047 240.073C304.603 240.621 304.335 241.642 303.51 242.06C303.409 242.116 303.27 242.125 303.177 242.19C303.084 242.255 302.992 242.33 303.177 242.45C304.001 243.035 303.983 243.852 303.158 244.456C303.075 244.512 302.992 244.577 302.908 244.633C302.612 244.855 302.251 244.855 301.908 244.855C298.936 244.874 295.972 244.883 293 244.883C292.722 244.874 292.453 244.818 292.213 244.698Z" fill="#D89CC7"/>
<path fill-rule="evenodd" clip-rule="evenodd" d="M285.73 240.612C285.73 239.182 285.721 237.752 285.712 236.331C285.712 236.043 285.73 235.894 285.971 235.904C287.138 235.922 288.305 235.913 289.472 235.894C289.703 235.894 289.74 236.006 289.74 236.312C289.74 239.182 289.749 242.06 289.768 244.93C289.768 245.292 289.703 245.394 289.462 245.394C288.333 245.375 287.194 245.375 286.064 245.412C285.786 245.422 285.74 245.273 285.749 244.902C285.749 243.472 285.74 242.042 285.73 240.612Z" fill="#D89CC7"/>
<path d="M340.765 27.7339L343.988 32.2747" stroke="black" stroke-width="0.5" stroke-miterlimit="10" stroke-linecap="round"/>
<path d="M346.849 36.2954L384.317 89.0018" stroke="black" stroke-width="0.5" stroke-miterlimit="10" stroke-linecap="round" stroke-dasharray="12.77 5.32"/>
<path d="M385.752 91.0169L388.975 95.5577L385.141 99.5877" stroke="black" stroke-width="0.5" stroke-miterlimit="10" stroke-linecap="round"/>
<path d="M381.955 102.94L318.605 169.686" stroke="black" stroke-width="0.5" stroke-miterlimit="10" stroke-linecap="round" stroke-dasharray="11.97 4.99"/>
<path d="M317.012 171.367L313.187 175.397" stroke="black" stroke-width="0.5" stroke-miterlimit="10" stroke-linecap="round"/>
<path d="M388.975 95.5577L383.418 95.3069" stroke="black" stroke-width="0.5" stroke-miterlimit="10" stroke-linecap="round"/>
<path d="M378.927 95.1027L292.555 91.2212L191.321 47.6613" stroke="black" stroke-width="0.5" stroke-miterlimit="10" stroke-linecap="round" stroke-dasharray="11.66 4.86"/>
<path d="M189.255 46.7699L184.153 44.5691" stroke="black" stroke-width="0.5" stroke-miterlimit="10" stroke-linecap="round"/>
<path d="M105.967 144.132L111.311 142.609" stroke="black" stroke-width="0.5" stroke-miterlimit="10" stroke-linecap="round"/>
<path d="M115.95 141.29L287.286 92.4469" stroke="black" stroke-width="0.5" stroke-miterlimit="10" stroke-linecap="round" stroke-dasharray="12.51 5.21"/>
<path d="M289.61 91.7876L294.954 90.2647L295.991 95.7341" stroke="black" stroke-width="0.5" stroke-miterlimit="10" stroke-linecap="round"/>
<path d="M296.787 99.9127L309.835 168.804" stroke="black" stroke-width="0.5" stroke-miterlimit="10" stroke-linecap="round" stroke-dasharray="10.98 4.58"/>
<path d="M310.224 170.884L311.261 176.363" stroke="black" stroke-width="0.5" stroke-miterlimit="10" stroke-linecap="round"/>
<path d="M255.866 252.117L258.458 257.048" stroke="black" stroke-width="0.5" stroke-miterlimit="10" stroke-linecap="round"/>
<path d="M260.764 261.421L298.88 333.739" stroke="black" stroke-width="0.5" stroke-miterlimit="10" stroke-linecap="round" stroke-dasharray="12.81 5.34"/>
<path d="M300.038 335.931L302.631 340.862" stroke="black" stroke-width="0.5" stroke-miterlimit="10" stroke-linecap="round"/>
<path d="M344.367 21.9674L349.414 24.2889" stroke="black" stroke-width="0.5" stroke-miterlimit="10" stroke-linecap="round"/>
<path d="M353.674 26.2482L467.41 78.546" stroke="black" stroke-width="0.5" stroke-miterlimit="10" stroke-linecap="round" stroke-dasharray="12.15 5.06"/>
<path d="M469.54 79.521L474.596 81.8425L474.633 87.414" stroke="black" stroke-width="0.5" stroke-miterlimit="10" stroke-linecap="round"/>
<path d="M474.661 91.9919L475.265 182.937" stroke="black" stroke-width="0.5" stroke-miterlimit="10" stroke-linecap="round" stroke-dasharray="11.81 4.92"/>
<path d="M475.282 185.222L475.319 190.793L469.762 190.607" stroke="black" stroke-width="0.5" stroke-miterlimit="10" stroke-linecap="round"/>
<path d="M465.327 190.459L316.938 185.454" stroke="black" stroke-width="0.5" stroke-miterlimit="10" stroke-linecap="round" stroke-dasharray="11.49 4.79"/>
<path d="M314.715 185.38L309.168 185.194L305.242 189.14" stroke="black" stroke-width="0.5" stroke-miterlimit="10" stroke-linecap="round"/>
<path d="M302.131 192.279L255.782 238.894L192.145 260.446" stroke="black" stroke-width="0.5" stroke-miterlimit="10" stroke-linecap="round" stroke-dasharray="11.44 4.76"/>
<path d="M190.052 261.152L184.792 262.935" stroke="black" stroke-width="0.5" stroke-miterlimit="10" stroke-linecap="round"/>
<path d="M183.514 270.633L188.394 273.298" stroke="black" stroke-width="0.5" stroke-miterlimit="10" stroke-linecap="round"/>
<path d="M192.247 275.387L295.102 331.381" stroke="black" stroke-width="0.5" stroke-miterlimit="10" stroke-linecap="round" stroke-dasharray="11.36 4.73"/>
<path d="M297.028 332.43L301.908 335.086L306.205 331.548" stroke="black" stroke-width="0.5" stroke-miterlimit="10" stroke-linecap="round"/>
<path d="M309.789 328.595L466.355 199.42" stroke="black" stroke-width="0.5" stroke-miterlimit="10" stroke-linecap="round" stroke-dasharray="12.02 5.01"/>
<path d="M468.142 197.934L472.439 194.396" stroke="black" stroke-width="0.5" stroke-miterlimit="10" stroke-linecap="round"/>
<path d="M305.511 187.181L300.075 186.03" stroke="black" stroke-width="0.5" stroke-miterlimit="10" stroke-linecap="round"/>
<path d="M295.463 185.045L109.625 145.543" stroke="black" stroke-width="0.5" stroke-miterlimit="10" stroke-linecap="round" stroke-dasharray="12.22 5.09"/>
<path d="M107.319 145.051L101.884 143.89L105.365 139.554" stroke="black" stroke-width="0.5" stroke-miterlimit="10" stroke-linecap="round"/>
<path d="M108.31 135.886L176.8 50.5028" stroke="black" stroke-width="0.5" stroke-miterlimit="10" stroke-linecap="round" stroke-dasharray="12.16 5.06"/>
<path d="M178.273 48.6735L181.755 44.3277L187.283 43.752" stroke="black" stroke-width="0.5" stroke-miterlimit="10" stroke-linecap="round"/>
<path d="M191.96 43.2598L332.894 28.5604" stroke="black" stroke-width="0.5" stroke-miterlimit="10" stroke-linecap="round" stroke-dasharray="12.2 5.08"/>
<path d="M335.237 28.3096L340.765 27.7339L335.764 30.1668" stroke="black" stroke-width="0.5" stroke-miterlimit="10" stroke-linecap="round"/>
<path d="M331.681 32.1633L111.246 139.582" stroke="black" stroke-width="0.5" stroke-miterlimit="10" stroke-linecap="round" stroke-dasharray="11.78 4.91"/>
<path d="M109.199 140.575L104.208 143.008" stroke="black" stroke-width="0.5" stroke-miterlimit="10" stroke-linecap="round"/>
<path d="M182.894 266.891C186.31 266.891 189.079 264.113 189.079 260.688C189.079 257.262 186.31 254.485 182.894 254.485C179.477 254.485 176.708 257.262 176.708 260.688C176.708 264.113 179.477 266.891 182.894 266.891Z" fill="#9CABFC"/>
<path d="M195.025 275.536C193.145 270.651 188.422 267.179 182.894 267.179C177.356 267.179 172.633 270.651 170.762 275.536H195.025Z" fill="#9CABFC"/>
<path d="M475.374 186.039C479.813 186.039 483.412 182.43 483.412 177.979C483.412 173.527 479.813 169.919 475.374 169.919C470.935 169.919 467.336 173.527 467.336 177.979C467.336 182.43 470.935 186.039 475.374 186.039Z" fill="#9CABFC"/>
<path d="M491.145 197.284C488.709 190.932 482.57 186.42 475.374 186.42C468.179 186.42 462.039 190.932 459.604 197.284H491.145Z" fill="#9CABFC"/>
<path d="M309.909 180.895C314.349 180.895 317.947 177.286 317.947 172.834C317.947 168.383 314.349 164.774 309.909 164.774C305.47 164.774 301.871 168.383 301.871 172.834C301.871 177.286 305.47 180.895 309.909 180.895Z" fill="#9CABFC"/>
<path d="M325.68 192.14C323.244 185.788 317.105 181.275 309.909 181.275C302.714 181.275 296.574 185.788 294.139 192.14H325.68Z" fill="#9CABFC"/>
<path d="M475.735 75.816C480.681 75.816 484.69 71.7958 484.69 66.8366C484.69 61.8774 480.681 57.8572 475.735 57.8572C470.79 57.8572 466.781 61.8774 466.781 66.8366C466.781 71.7958 470.79 75.816 475.735 75.816Z" fill="#9CABFC"/>
<path d="M493.302 88.3426C490.589 81.2668 483.746 76.2431 475.735 76.2431C467.725 76.2431 460.882 81.2668 458.168 88.3426H493.302Z" fill="#9CABFC"/>
<path d="M293.454 85.4361C298.399 85.4361 302.408 81.4159 302.408 76.4567C302.408 71.4975 298.399 67.4773 293.454 67.4773C288.508 67.4773 284.499 71.4975 284.499 76.4567C284.499 81.4159 288.508 85.4361 293.454 85.4361Z" fill="#9CABFC"/>
<path d="M311.03 97.9627C308.317 90.8869 301.473 85.8633 293.463 85.8633C285.453 85.8633 278.609 90.8869 275.896 97.9627H311.03Z" fill="#9CABFC"/>
<path d="M184.329 38.8119C189.075 38.8119 192.923 34.9539 192.923 30.1947C192.923 25.4355 189.075 21.5774 184.329 21.5774C179.583 21.5774 175.735 25.4355 175.735 30.1947C175.735 34.9539 179.583 38.8119 184.329 38.8119Z" fill="#9CABFC"/>
<path d="M201.183 50.8185C198.581 44.0306 192.015 39.2112 184.338 39.2112C176.661 39.2112 170.096 44.0306 167.493 50.8185H201.183Z" fill="#9CABFC"/>
<path d="M105.217 150.112C109.825 150.112 113.561 146.495 113.561 142.033C113.561 137.572 109.825 133.955 105.217 133.955C100.609 133.955 96.8737 137.572 96.8737 142.033C96.8737 146.495 100.609 150.112 105.217 150.112Z" fill="#9CABFC"/>
<path d="M121.571 161.366C119.043 155.006 112.672 150.483 105.217 150.483C97.7626 150.483 91.3915 154.996 88.8634 161.366H121.571Z" fill="#9CABFC"/>
<path d="M255.143 245.979C259.439 245.979 262.922 242.487 262.922 238.179C262.922 233.871 259.439 230.379 255.143 230.379C250.847 230.379 247.364 233.871 247.364 238.179C247.364 242.487 250.847 245.979 255.143 245.979Z" fill="#9CABFC"/>
<path d="M270.404 256.853C268.043 250.705 262.107 246.341 255.143 246.341C248.179 246.341 242.243 250.705 239.882 256.853H270.404Z" fill="#9CABFC"/>
<path d="M342.506 20.0453C347.354 20.0453 351.285 16.104 351.285 11.2423C351.285 6.38053 347.354 2.43931 342.506 2.43931C337.657 2.43931 333.727 6.38053 333.727 11.2423C333.727 16.104 337.657 20.0453 342.506 20.0453Z" fill="#9CABFC"/>
<path d="M359.712 32.3118C357.054 25.3846 350.349 20.4631 342.506 20.4631C334.653 20.4631 327.958 25.3846 325.3 32.3118H359.712Z" fill="#9CABFC"/>
<path d="M300.816 347.037C305.787 347.037 309.817 342.996 309.817 338.011C309.817 333.026 305.787 328.985 300.816 328.985C295.844 328.985 291.814 333.026 291.814 338.011C291.814 342.996 295.844 347.037 300.816 347.037Z" fill="#9CABFC"/>
<path d="M318.457 359.619C315.725 352.515 308.854 347.464 300.806 347.464C292.759 347.464 285.888 352.506 283.156 359.619H318.457Z" fill="#9CABFC"/>
<path d="M388.076 97.0527C392.516 97.0527 396.114 93.4441 396.114 88.9926C396.114 84.5411 392.516 80.9325 388.076 80.9325C383.637 80.9325 380.038 84.5411 380.038 88.9926C380.038 93.4441 383.637 97.0527 388.076 97.0527Z" fill="#9CABFC"/>
<path d="M403.847 108.298C401.411 101.946 395.272 97.4334 388.076 97.4334C380.881 97.4334 374.741 101.946 372.306 108.298H403.847Z" fill="#9CABFC"/>
<path d="M424.386 139.118C432.135 139.118 438.416 132.819 438.416 125.049C438.416 117.28 432.135 110.981 424.386 110.981C416.638 110.981 410.357 117.28 410.357 125.049C410.357 132.819 416.638 139.118 424.386 139.118Z" stroke="black" stroke-width="0.5" stroke-miterlimit="10" stroke-linecap="round"/>
<path d="M426.702 119.924C425.368 120.332 424.386 122.217 424.386 122.217C424.386 122.217 423.396 120.342 422.053 119.961C418.173 118.856 416.441 122.357 417.923 125.597C419.358 128.717 424.405 132.478 424.405 132.478C424.405 132.478 429.433 128.634 430.85 125.495C432.323 122.227 430.582 118.744 426.702 119.924Z" fill="#D47172" stroke="black" stroke-width="0.5" stroke-miterlimit="10"/>
<path d="M332.162 82.9382C339.174 82.9382 344.858 77.2384 344.858 70.2073C344.858 63.1763 339.174 57.4765 332.162 57.4765C325.15 57.4765 319.466 63.1763 319.466 70.2073C319.466 77.2384 325.15 82.9382 332.162 82.9382Z" stroke="black" stroke-width="0.5" stroke-miterlimit="10" stroke-linecap="round"/>
<path d="M334.477 64.998C333.144 65.3973 332.171 67.2823 332.171 67.2823C332.171 67.2823 331.18 65.4159 329.856 65.0351C325.995 63.9301 324.272 67.4216 325.745 70.6438C327.171 73.7545 332.19 77.4874 332.19 77.4874C332.19 77.4874 337.2 73.6617 338.607 70.5323C340.07 67.3009 338.33 63.8373 334.477 64.998Z" fill="#D47172" stroke="black" stroke-width="0.5" stroke-miterlimit="10"/>
<path d="M162.298 317.071C169.31 317.071 174.994 311.371 174.994 304.34C174.994 297.309 169.31 291.61 162.298 291.61C155.287 291.61 149.602 297.309 149.602 304.34C149.602 311.371 155.287 317.071 162.298 317.071Z" stroke="black" stroke-width="0.5" stroke-miterlimit="10" stroke-linecap="round"/>
<path d="M165.002 298.091C163.447 298.565 162.298 300.765 162.298 300.765C162.298 300.765 161.141 298.574 159.585 298.137C155.066 296.847 153.047 300.933 154.779 304.703C156.446 308.343 162.326 312.716 162.326 312.716C162.326 312.716 168.188 308.24 169.836 304.573C171.55 300.784 169.512 296.726 165.002 298.091Z" fill="#D47172" stroke="black" stroke-width="0.5" stroke-miterlimit="10"/>
<path d="M341.608 155.173C355.447 155.173 366.666 143.923 366.666 130.045C366.666 116.168 355.447 104.918 341.608 104.918C327.768 104.918 316.549 116.168 316.549 130.045C316.549 143.923 327.768 155.173 341.608 155.173Z" fill="#5F76E8" stroke="black" stroke-width="0.5" stroke-miterlimit="10"/>
<path d="M340.996 123.081C340.941 124.678 340.978 126.294 340.978 128.03H347.201C346.932 130.082 346.71 131.986 346.405 133.871C346.386 134.057 345.914 134.289 345.645 134.307C344.145 134.345 342.645 134.326 341.015 134.326V155.154C338.718 155.117 336.514 154.755 334.412 154.123V134.363H328.967V128.086H334.292C334.31 127.612 334.347 127.232 334.347 126.87C334.384 125.217 334.329 123.554 334.477 121.92C334.82 118.327 337.024 115.792 340.57 115.299C342.774 114.993 345.071 115.244 347.386 115.244V120.954C346.571 120.954 345.738 120.936 344.914 120.954C344.191 120.973 343.432 120.936 342.728 121.103C341.737 121.335 341.033 122.013 340.996 123.081Z" fill="white"/>
<path d="M363.518 137.557C362.24 140.789 360.212 143.733 357.647 146.082Z" fill="#5F76E8"/>
<path d="M363.518 137.557C362.24 140.789 360.212 143.733 357.647 146.082" stroke="black" stroke-width="0.5" stroke-miterlimit="10"/>
<path d="M356.341 147.41C355.322 148.199 354.294 148.988 353.276 149.778Z" fill="#5F76E8"/>
<path d="M356.341 147.41C355.322 148.199 354.294 148.988 353.276 149.778" stroke="black" stroke-width="0.5" stroke-miterlimit="10"/>
<path d="M357.952 143.593C357.61 144.123 357.156 144.568 356.628 144.912Z" fill="#5F76E8"/>
<path d="M357.952 143.593C357.61 144.123 357.156 144.568 356.628 144.912" stroke="black" stroke-width="0.5" stroke-miterlimit="10"/>
<path d="M362.916 131.531C362.721 133.741 362.231 135.923 361.453 137.994Z" fill="#5F76E8"/>
<path d="M362.916 131.531C362.721 133.741 362.231 135.923 361.453 137.994" stroke="black" stroke-width="0.5" stroke-miterlimit="10"/>
<path d="M472.337 154.476C485.783 154.476 496.682 143.546 496.682 130.064C496.682 116.581 485.783 105.651 472.337 105.651C458.891 105.651 447.991 116.581 447.991 130.064C447.991 143.546 458.891 154.476 472.337 154.476Z" fill="#D47172" stroke="black" stroke-width="0.5" stroke-miterlimit="10"/>
<path d="M486.848 122.022C486.829 118.057 484.366 115.494 480.449 115.457C475.032 115.401 469.605 115.401 464.188 115.457C460.354 115.494 457.872 118.039 457.817 121.883C457.779 124.594 457.807 127.306 457.807 130.017C457.807 132.673 457.789 135.329 457.807 137.985C457.844 142.033 460.308 144.624 464.299 144.661C469.661 144.717 475.022 144.726 480.384 144.661C484.301 144.615 486.82 142.033 486.839 138.115C486.876 132.757 486.876 127.389 486.848 122.022ZM484.255 138.17C484.227 140.678 482.884 142.061 480.384 142.08C475.022 142.117 469.661 142.117 464.299 142.08C461.789 142.07 460.428 140.687 460.419 138.189C460.391 132.766 460.391 127.343 460.419 121.92C460.428 119.432 461.817 118.011 464.29 117.992C469.651 117.955 475.013 117.955 480.375 117.992C482.857 118.011 484.236 119.432 484.264 121.911C484.292 124.622 484.273 127.334 484.273 130.045C484.264 132.747 484.292 135.459 484.255 138.17Z" fill="white"/>
<path d="M472.346 122.431C468.216 122.422 464.817 125.792 464.78 129.952C464.743 134.168 467.994 137.567 472.152 137.65C476.411 137.734 479.847 134.4 479.884 130.157C479.93 125.894 476.559 122.44 472.346 122.431ZM472.253 135.097C469.549 135.041 467.308 132.775 467.281 130.092C467.253 127.315 469.531 125.04 472.337 125.04C475.133 125.04 477.421 127.324 477.393 130.092C477.374 132.84 474.995 135.152 472.253 135.097Z" fill="white"/>
<path d="M482.19 122.245C482.107 123.313 481.431 123.87 480.384 123.814C479.236 123.759 478.652 123.053 478.736 121.92C478.81 120.852 479.504 120.36 480.569 120.304C481.644 120.49 482.283 121.103 482.19 122.245Z" fill="white"/>
<path d="M482.736 150.697C486.811 148.292 490.163 144.67 492.247 140.418" stroke="black" stroke-width="0.5" stroke-miterlimit="10"/>
<path d="M492.737 138.681C493.201 137.827 493.525 136.907 493.701 135.951" stroke="black" stroke-width="0.5" stroke-miterlimit="10"/>
<path d="M491.135 137.715C490.793 138.867 490.246 139.953 489.543 140.919" stroke="black" stroke-width="0.5" stroke-miterlimit="10"/>
<path d="M494.053 126.656C494.405 128.123 494.433 129.665 494.155 131.15" stroke="black" stroke-width="0.5" stroke-miterlimit="10"/>
<path d="M452.269 121.354C450.251 125.263 449.695 129.906 450.732 134.187" stroke="black" stroke-width="0.5" stroke-miterlimit="10"/>
<path d="M234.224 324.955C247.654 324.955 258.542 314.038 258.542 300.57C258.542 287.103 247.654 276.186 234.224 276.186C220.794 276.186 209.906 287.103 209.906 300.57C209.906 314.038 220.794 324.955 234.224 324.955Z" fill="#A8DCA4" stroke="black" stroke-width="0.5" stroke-miterlimit="10"/>
<path d="M243.595 310.311C243.318 310.785 242.827 311.045 242.327 311.045C242.077 311.045 241.817 310.98 241.586 310.84C237.715 308.575 233.242 308.213 230.177 308.305C226.779 308.408 224.288 309.085 224.26 309.085C223.473 309.299 222.667 308.835 222.454 308.055C222.241 307.265 222.695 306.458 223.482 306.244C223.593 306.216 226.279 305.483 230.01 305.362C232.205 305.288 234.326 305.445 236.298 305.817C238.799 306.29 241.077 307.126 243.077 308.296C243.771 308.705 244.003 309.605 243.595 310.311Z" fill="white"/>
<path d="M246.327 304.61C246.003 305.167 245.42 305.473 244.818 305.473C244.522 305.473 244.216 305.399 243.938 305.232C239.354 302.548 234.057 302.112 230.427 302.223C226.399 302.344 223.445 303.143 223.417 303.152C222.491 303.403 221.528 302.855 221.278 301.926C221.028 300.998 221.565 300.032 222.491 299.781C222.621 299.744 225.806 298.88 230.223 298.732C232.826 298.648 235.335 298.825 237.669 299.27C240.632 299.837 243.336 300.821 245.698 302.214C246.54 302.706 246.818 303.774 246.327 304.61Z" fill="white"/>
<path d="M248.013 299.428C247.642 299.428 247.272 299.335 246.939 299.131C236.039 292.742 221.908 296.54 221.759 296.577C220.62 296.893 219.444 296.225 219.13 295.082C218.815 293.94 219.481 292.761 220.62 292.445C220.787 292.399 224.686 291.34 230.103 291.164C233.298 291.062 236.372 291.284 239.243 291.823C242.873 292.51 246.188 293.727 249.096 295.426C250.115 296.02 250.457 297.339 249.865 298.36C249.467 299.047 248.754 299.428 248.013 299.428Z" fill="white"/>
<path d="M218.935 285.156C218.018 286.289 217.101 287.422 216.185 288.554" stroke="black" stroke-width="0.5" stroke-miterlimit="10"/>
<path d="M213.833 292.148C211.258 297.785 211.564 304.647 214.62 310.033" stroke="black" stroke-width="0.5" stroke-miterlimit="10"/>
<path d="M217.185 314.703C218.352 316.208 219.648 317.61 221.065 318.882" stroke="black" stroke-width="0.5" stroke-miterlimit="10"/>
<path d="M337.44 329.319C350.748 329.319 361.536 318.502 361.536 305.158C361.536 291.813 350.748 280.996 337.44 280.996C324.133 280.996 313.345 291.813 313.345 305.158C313.345 318.502 324.133 329.319 337.44 329.319Z" fill="#D47172" stroke="black" stroke-width="0.5" stroke-miterlimit="10"/>
<path d="M337.44 291.591C329.967 291.591 323.892 297.682 323.892 305.167C323.892 312.651 329.967 318.743 337.44 318.743C344.914 318.743 350.988 312.651 350.988 305.167C350.988 297.673 344.914 291.591 337.44 291.591ZM346.358 297.989C347.905 299.911 348.84 302.335 348.886 304.981C348.368 304.879 346.192 304.47 343.589 304.47C342.747 304.47 341.867 304.508 340.978 304.619C340.904 304.433 340.83 304.257 340.746 304.071C340.515 303.533 340.265 302.994 340.015 302.465C344.025 300.812 345.96 298.509 346.358 297.989ZM337.44 293.708C340.33 293.708 342.969 294.785 344.988 296.559C344.673 296.995 342.941 299.168 339.08 300.626C337.292 297.348 335.338 294.637 334.866 294.005C335.69 293.81 336.551 293.708 337.44 293.708ZM332.523 294.822C332.921 295.37 334.875 298.11 336.709 301.36C331.782 302.66 327.411 302.743 326.365 302.743H326.254C327.004 299.242 329.365 296.336 332.523 294.822ZM325.985 305.176C325.985 305.083 325.985 304.99 325.985 304.898C326.05 304.898 326.152 304.898 326.282 304.898C327.698 304.898 332.634 304.777 337.718 303.273C338.024 303.876 338.32 304.489 338.589 305.102C338.459 305.139 338.339 305.176 338.209 305.213C332.486 307.07 329.338 311.973 328.856 312.772C327.078 310.748 325.985 308.092 325.985 305.176ZM337.44 316.644C334.81 316.644 332.394 315.753 330.458 314.258C330.782 313.617 333.162 309.327 339.431 307.135H339.441C341.015 311.24 341.682 314.685 341.867 315.753C340.506 316.328 339.005 316.644 337.44 316.644ZM343.923 314.62C343.765 313.738 343.154 310.506 341.728 306.569C342.524 306.448 343.302 306.393 344.034 306.393C346.423 306.393 348.303 306.922 348.738 307.052C348.22 310.181 346.432 312.893 343.923 314.62Z" fill="white"/>
<path d="M344.312 326.06C346.627 325.651 348.821 324.584 350.562 322.996" stroke="black" stroke-width="0.5" stroke-miterlimit="10"/>
<path d="M329.023 324.741C332.292 326.924 337.811 327.592 341.635 326.71" stroke="black" stroke-width="0.5" stroke-miterlimit="10"/>
<path d="M330.504 284.497C328.245 284.84 326.106 285.917 324.476 287.524" stroke="black" stroke-width="0.5" stroke-miterlimit="10"/>
<path d="M352.257 321.51C352.609 321.222 352.924 320.878 353.183 320.507" stroke="black" stroke-width="0.5" stroke-miterlimit="10"/>
<path d="M260.32 50.5864C273.975 50.5864 285.045 39.4861 285.045 25.7932C285.045 12.1003 273.975 1 260.32 1C246.664 1 235.595 12.1003 235.595 25.7932C235.595 39.4861 246.664 50.5864 260.32 50.5864Z" fill="#D89CC7" stroke="black" stroke-width="0.5" stroke-miterlimit="10"/>
<path d="M273.164 22.9331C272.914 22.961 272.655 22.9703 272.405 22.9703C269.617 22.9703 267.015 21.5588 265.496 19.2281V31.9868C265.496 37.1962 261.283 41.412 256.097 41.412C250.902 41.412 246.698 37.1869 246.698 31.9868C246.698 26.7868 250.911 22.5617 256.097 22.5617C256.292 22.5617 256.486 22.5803 256.68 22.5896V27.2325C256.486 27.2139 256.301 27.1768 256.097 27.1768C253.449 27.1768 251.3 29.3311 251.3 31.9868C251.3 34.6426 253.449 36.7969 256.097 36.7969C258.746 36.7969 261.088 34.6983 261.088 32.0425L261.135 10.3787H265.57C265.987 14.3623 269.191 17.4824 273.183 17.7702L273.164 22.9331Z" fill="white"/>
<path d="M267.385 47.2528C271.645 45.8599 275.405 42.9998 277.887 39.2577" stroke="black" stroke-width="0.5" stroke-miterlimit="10"/>
<path d="M279.878 36.1655C280.767 34.3919 281.48 32.5347 281.989 30.6125" stroke="black" stroke-width="0.5" stroke-miterlimit="10"/>
<path d="M241.66 14.9566C238.928 19.1724 237.91 24.4746 238.901 29.4054" stroke="black" stroke-width="0.5" stroke-miterlimit="10"/>
<path d="M239.669 32.7854C239.706 34.0297 240.012 35.2555 240.54 36.379" stroke="black" stroke-width="0.5" stroke-miterlimit="10"/>
<path d="M240.854 24.846C240.864 26.211 241.003 27.5854 241.263 28.9318" stroke="black" stroke-width="0.5" stroke-miterlimit="10"/>
<path d="M413.098 72.4545C427.955 72.4545 439.999 60.3772 439.999 45.4792C439.999 30.5811 427.955 18.5038 413.098 18.5038C398.241 18.5038 386.197 30.5811 386.197 45.4792C386.197 60.3772 398.241 72.4545 413.098 72.4545Z" fill="#A8DCA4" stroke="black" stroke-width="0.5" stroke-miterlimit="10"/>
<path d="M402.55 31.3368C402.587 31.3461 402.624 31.3647 402.661 31.374C403.486 31.439 404.199 31.7547 404.782 32.3397C405.31 32.8597 405.634 33.4911 405.745 34.2247C405.93 35.469 405.541 36.5276 404.606 37.3633C404.152 37.7719 403.606 38.0133 403.004 38.1248C402.689 38.1805 402.374 38.1991 402.069 38.1619C400.633 38.0319 399.494 37.0198 399.133 35.7476C399.068 35.5155 399.022 35.2833 399.013 35.0419C399.013 34.9954 399.022 34.9397 398.957 34.9212C398.957 34.819 398.957 34.7261 398.957 34.624C399.013 34.6054 399.004 34.5497 399.013 34.5033C399.022 34.4104 399.031 34.3083 399.041 34.2154C399.152 33.5469 399.42 32.9618 399.874 32.4604C400.485 31.7918 401.245 31.439 402.143 31.374C402.18 31.374 402.217 31.3554 402.254 31.3368C402.356 31.3368 402.458 31.3368 402.55 31.3368Z" fill="white"/>
<path d="M414.644 43.232C414.672 43.1948 414.7 43.1577 414.728 43.1205C415.015 42.6934 415.339 42.3034 415.719 41.9598C416.506 41.2355 417.423 40.7434 418.46 40.4834C418.96 40.3626 419.469 40.3069 419.978 40.2791C420.33 40.2605 420.673 40.2698 421.016 40.2884C422.016 40.3626 422.997 40.5576 423.905 41.0127C424.84 41.4769 425.553 42.1734 426.072 43.0834C426.396 43.6591 426.618 44.272 426.785 44.9034C426.905 45.3399 426.989 45.7763 427.053 46.222C427.081 46.4449 427.1 46.6677 427.109 46.8906C427.137 47.3085 427.155 47.7263 427.183 48.1349C427.183 48.1442 427.183 48.1627 427.183 48.172C427.192 48.5713 427.211 48.9613 427.211 49.3606C427.22 50.6885 427.229 52.0164 427.229 53.3442C427.229 55.35 427.229 57.3557 427.229 59.3708C427.229 59.5936 427.22 59.6029 426.998 59.6029C426.146 59.6029 425.303 59.6029 424.451 59.6029C423.664 59.6029 422.868 59.6029 422.081 59.6029C421.951 59.6029 421.831 59.6122 421.701 59.6215C421.682 59.6215 421.664 59.6215 421.636 59.6215C421.358 59.6029 421.349 59.5379 421.349 59.3336C421.349 57.6714 421.349 56.0093 421.349 54.3378C421.349 52.685 421.349 51.0321 421.34 49.3792C421.34 48.757 421.284 48.1349 421.099 47.5313C420.988 47.1784 420.858 46.8349 420.645 46.5284C420.284 45.9992 419.775 45.6741 419.154 45.5441C418.923 45.4977 418.691 45.4606 418.451 45.4699C418.2 45.4791 417.941 45.4699 417.691 45.4977C416.58 45.637 415.765 46.1849 415.311 47.2249C415.117 47.6706 415.006 48.1442 414.932 48.627C414.857 49.1378 414.839 49.6578 414.839 50.1778C414.839 53.205 414.839 56.2321 414.839 59.2593C414.839 59.3336 414.839 59.3986 414.839 59.4636C414.83 59.5565 414.793 59.5936 414.7 59.6029C414.644 59.6029 414.598 59.6029 414.543 59.6029C413.58 59.6029 412.616 59.6029 411.653 59.6029C411.042 59.6029 410.44 59.6029 409.829 59.6029C409.653 59.6029 409.468 59.6122 409.292 59.6215C409.264 59.6215 409.246 59.6215 409.218 59.6215C408.977 59.5936 408.959 59.5379 408.968 59.3615C408.968 59.2686 408.968 59.185 408.968 59.0922C408.968 55.1086 408.968 51.1156 408.968 47.132C408.968 45.117 408.968 43.1113 408.968 41.0962C408.968 41.0405 408.968 40.9848 408.968 40.9384C408.977 40.8084 409.023 40.7619 409.153 40.7527C409.19 40.7527 409.218 40.7527 409.255 40.7527C410.94 40.7527 412.635 40.7527 414.32 40.7527C414.357 40.7527 414.385 40.7527 414.422 40.7527C414.552 40.7619 414.598 40.7991 414.598 40.9384C414.598 41.1705 414.589 41.3934 414.589 41.6255C414.589 41.9598 414.589 42.2941 414.598 42.6284C414.598 42.7862 414.598 42.9441 414.598 43.1113C414.598 43.1577 414.598 43.1948 414.598 43.2413C414.626 43.2227 414.635 43.232 414.644 43.232Z" fill="white"/>
<path d="M399.459 50.1592C399.459 47.1042 399.459 44.0584 399.459 41.0034C399.459 40.9476 399.459 40.9012 399.468 40.8455C399.477 40.7805 399.514 40.7434 399.579 40.7434C399.625 40.7434 399.672 40.7434 399.718 40.7434C401.496 40.7434 403.283 40.7434 405.061 40.7434C405.071 40.7434 405.089 40.7434 405.098 40.7434C405.302 40.7434 405.358 40.7991 405.358 41.0127C405.358 41.6998 405.358 42.3962 405.358 43.0834C405.358 48.4785 405.358 53.8828 405.358 59.2779C405.358 59.3429 405.358 59.4079 405.348 59.4729C405.339 59.5472 405.293 59.6029 405.209 59.6029C405.071 59.6122 404.932 59.6122 404.793 59.6122C404.737 59.6122 404.691 59.6029 404.635 59.6029C403.135 59.6029 401.644 59.6029 400.144 59.6029C400.024 59.6029 399.913 59.6122 399.792 59.6215C399.764 59.6215 399.746 59.6215 399.718 59.6215C399.524 59.6029 399.459 59.575 399.459 59.3522C399.459 56.2879 399.459 53.2235 399.459 50.1592Z" fill="white"/>
<path d="M418.562 69.4831C422.636 68.7866 426.507 66.9016 429.563 64.1066" stroke="black" stroke-width="0.5" stroke-miterlimit="10"/>
<path d="M430.721 62.7044C431.628 61.7387 432.536 60.7822 433.443 59.8165" stroke="black" stroke-width="0.5" stroke-miterlimit="10"/>
<path d="M394.086 29.814C393.114 31.0118 392.253 32.3026 391.54 33.6676" stroke="black" stroke-width="0.5" stroke-miterlimit="10"/>
<path d="M390.058 37.1776C388.4 40.9198 387.873 45.1634 388.558 49.2121" stroke="black" stroke-width="0.5" stroke-miterlimit="10"/>
<path d="M142.055 112.922C156.375 112.922 167.984 101.281 167.984 86.9218C167.984 72.5622 156.375 60.9215 142.055 60.9215C127.735 60.9215 116.126 72.5622 116.126 86.9218C116.126 101.281 127.735 112.922 142.055 112.922Z" fill="#5F76E8" stroke="black" stroke-width="0.5" stroke-miterlimit="10"/>
<path d="M127.896 99.1234C131.341 99.1884 134.443 98.3527 137.24 96.2355C133.378 95.0562 131.832 93.8769 131.276 91.6762C132.147 91.6298 133.008 91.5926 133.869 91.5462C130.822 90.3762 129.026 88.3147 128.794 84.9625C129.73 85.2132 130.591 85.4361 131.461 85.6682C128.665 82.1396 128.1 79.4003 129.767 76.8467C133.378 80.9882 137.879 83.3375 143.472 83.7182C143.444 83.2818 143.426 82.9475 143.407 82.6225C143.296 79.7253 144.509 77.5431 147.074 76.271C149.639 74.9988 152.13 75.3424 154.353 77.1531C154.844 77.5524 155.261 77.6639 155.825 77.4503C156.863 77.0603 157.909 76.6796 159.057 76.2617C158.576 77.6546 157.677 78.6946 156.511 79.5303C156.538 79.5953 156.557 79.6603 156.585 79.716C157.65 79.4375 158.724 79.1682 159.789 78.8896C159.835 78.936 159.872 78.9732 159.918 79.0196C159.094 79.8553 158.298 80.7282 157.418 81.5082C156.955 81.9168 156.724 82.2882 156.724 82.9382C156.751 92.744 149.371 100.906 139.657 101.779C135.74 102.132 131.998 101.426 128.535 99.5041C128.313 99.3927 128.109 99.2534 127.896 99.1234Z" fill="white"/>
<path d="M164.021 95.7527C162.335 100.098 159.27 103.887 155.381 106.441" stroke="black" stroke-width="0.5" stroke-miterlimit="10"/>
<path d="M156.187 104.017C155.325 104.574 154.455 105.131 153.594 105.688" stroke="black" stroke-width="0.5" stroke-miterlimit="10"/>
<path d="M165.058 82.4739C165.708 84.9347 165.662 87.5718 164.919 89.9954" stroke="black" stroke-width="0.5" stroke-miterlimit="10"/>
<path d="M130.683 66.3444C127.868 67.3287 125.377 69.2416 123.71 71.7209" stroke="black" stroke-width="0.5" stroke-miterlimit="10"/>
<path d="M362.999 264.421C362.907 266.083 363.61 267.643 364.833 269.11C366.796 271.469 368.759 273.827 370.722 276.186C376.047 282.584 376.316 292.278 382.696 297.859C385.984 300.728 390.104 302.409 394.17 303.988C398.235 305.566 402.384 307.126 405.819 309.819C406.468 310.33 407.199 310.906 408.005 310.776C409.033 310.608 409.524 309.438 409.792 308.426C411.098 303.477 411.153 298.695 410.996 293.625C410.866 289.502 411.579 285.518 411.098 281.312C410.051 272.156 406.236 263.464 401.3 255.766C398.68 251.68 395.661 247.762 391.929 244.633C387.799 241.16 383.965 239.256 378.464 239.386C375.751 239.451 372.954 240.203 370.898 241.977C367.361 245.041 366.796 250.213 365.805 254.801C365.231 257.447 364.435 260.047 363.425 262.563C363.166 263.195 363.027 263.817 362.999 264.421Z" fill="white" stroke="#222221" stroke-width="0.5" stroke-miterlimit="10"/>
<path d="M418.173 268.636C417.21 270.122 416.311 271.496 415.478 272.722C408.329 283.308 398.837 297.618 408.764 308.603C424.433 325.939 454.9 335.012 477.18 337.788C482.199 338.41 487.367 338.791 491.969 340.89C495.312 342.422 498.192 344.79 501.026 347.139C510.758 355.227 522.158 363.036 530.279 372.759C538.262 382.304 547.004 390.188 557.959 396.577C575.276 406.67 597.13 410.747 615.54 402.845C630.236 396.54 641.756 381.171 641.997 364.884C642.293 345.505 621.642 336.126 607.02 327.704C592.843 319.541 578.489 311.695 564.052 304.006C552.097 297.636 538.623 292.362 528.483 283.373C513.259 269.881 497.127 254.132 478.578 245.31C473.596 242.942 468.457 240.946 463.271 239.089C460.058 237.937 456.761 236.814 453.344 236.693C439.185 236.173 426.294 256.166 418.173 268.636Z" fill="white" stroke="#222221" stroke-width="0.5" stroke-miterlimit="10"/>
<path d="M343.719 211.194C339.839 212.113 336.283 215.744 336.904 219.691C337.265 221.975 338.932 223.888 340.895 225.095C342.867 226.302 345.127 226.915 347.358 227.509C350.84 228.438 354.322 229.376 357.795 230.304C360.805 231.112 363.907 231.92 366.991 231.53C370.083 231.14 373.195 229.237 374.065 226.237C374.427 224.993 374.38 223.665 374.121 222.402C372.899 216.45 368.667 214.667 363.435 214.184C356.86 213.599 350.47 209.597 343.719 211.194Z" fill="white" stroke="#222221" stroke-width="0.5" stroke-miterlimit="10"/>
<path d="M417.497 317.034L471.179 301.072C476.967 299.354 479.597 293.569 477.06 288.155L415.561 156.853C413.024 151.44 406.282 148.45 400.504 150.168L346.821 166.13C341.034 167.848 338.404 173.633 340.941 179.047L402.439 310.348C404.967 315.762 411.709 318.752 417.497 317.034Z" fill="black"/>
<path d="M416.765 312.828L474.106 295.77C477.449 294.776 478.967 291.433 477.504 288.304L414.228 153.195C412.765 150.066 408.866 148.338 405.523 149.332L348.183 166.39C344.84 167.384 343.321 170.727 344.784 173.856L408.06 308.965C409.533 312.094 413.431 313.821 416.765 312.828Z" fill="white"/>
<path d="M374.528 164.969L384.27 162.072C384.669 161.951 384.854 161.552 384.678 161.181C384.502 160.809 384.039 160.596 383.631 160.716L373.89 163.614C373.491 163.734 373.306 164.134 373.482 164.505C373.658 164.876 374.13 165.081 374.528 164.969Z" fill="black"/>
<path d="M390.142 160.317C390.54 160.196 390.725 159.797 390.549 159.426C390.373 159.054 389.91 158.841 389.503 158.961C389.104 159.082 388.919 159.481 389.095 159.853C389.28 160.234 389.743 160.438 390.142 160.317Z" fill="black"/>
<path d="M367.833 232.208C368.62 231.976 368.982 231.187 368.63 230.453L366.129 225.123C365.787 224.389 364.87 223.981 364.083 224.213C363.296 224.445 362.934 225.234 363.286 225.968L365.787 231.298C366.129 232.041 367.046 232.44 367.833 232.208Z" fill="#A8DCA4"/>
<path d="M356.035 207.016C356.823 206.783 357.184 205.994 356.832 205.261L349.229 189.029C348.886 188.295 347.97 187.887 347.183 188.119C346.395 188.351 346.034 189.14 346.386 189.874L353.989 206.106C354.332 206.848 355.248 207.248 356.035 207.016Z" fill="#A8DCA4"/>
<path d="M355.258 207.248C356.045 207.016 356.406 206.226 356.054 205.493L348.451 189.261C348.109 188.527 347.192 188.119 346.405 188.351C345.617 188.583 345.256 189.372 345.608 190.106L353.211 206.338C353.554 207.071 354.47 207.48 355.258 207.248Z" fill="black"/>
<path d="M367.055 232.44C367.842 232.208 368.204 231.419 367.852 230.685L365.351 225.355C365.009 224.622 364.092 224.213 363.305 224.445C362.518 224.677 362.157 225.467 362.508 226.2L365.009 231.53C365.351 232.264 366.277 232.672 367.055 232.44Z" fill="black"/>
<path d="M372.26 241.652C373.047 241.42 373.408 240.63 373.056 239.897L370.556 234.567C370.213 233.833 369.296 233.424 368.509 233.657C367.722 233.889 367.361 234.678 367.713 235.412L370.213 240.742C370.556 241.485 371.473 241.893 372.26 241.652Z" fill="#AFB3BC"/>
<path d="M371.482 241.884C372.269 241.652 372.63 240.862 372.278 240.129L369.778 234.799C369.435 234.065 368.518 233.657 367.731 233.889C366.944 234.121 366.583 234.91 366.935 235.644L369.435 240.974C369.778 241.717 370.695 242.125 371.482 241.884Z" fill="black"/>
<path d="M406.986 306.458L476.43 285.806L416.015 156.826L346.581 177.477L406.986 306.458Z" fill="#D89CC7" stroke="black" stroke-width="0.5" stroke-miterlimit="10"/>
<path d="M406.866 308.417L344.33 174.896C342.46 170.912 344.414 166.631 348.673 165.359L404.31 148.812C408.57 147.54 413.561 149.759 415.432 153.743L477.967 287.264C479.838 291.247 477.884 295.528 473.624 296.8L417.988 313.348C413.719 314.62 408.727 312.41 406.866 308.417ZM349.396 166.919C346.043 167.913 344.515 171.274 345.988 174.404L408.523 307.925C409.987 311.054 413.904 312.8 417.256 311.797L472.893 295.25C476.245 294.256 477.773 290.895 476.3 287.765L413.765 154.244C412.302 151.115 408.385 149.369 405.032 150.372L349.396 166.919Z" fill="#A8DCA4"/>
<path d="M408.07 308.5L345.256 174.394C343.664 170.996 345.321 167.346 348.96 166.269L404.829 149.648C408.459 148.571 412.709 150.456 414.302 153.854L477.115 287.96C478.708 291.359 477.05 295.008 473.411 296.085L417.543 312.707C413.913 313.793 409.662 311.899 408.07 308.5ZM349.238 166.854C345.951 167.829 344.441 171.135 345.886 174.209L408.699 308.315C410.144 311.398 413.987 313.106 417.284 312.122L473.152 295.5C476.439 294.525 477.949 291.22 476.504 288.137L413.691 154.049C412.246 150.966 408.403 149.258 405.106 150.242L349.238 166.854Z" fill="#A8DCA4"/>
<path d="M473.559 282.342L406.958 302.706L350.053 182.455L416.654 162.091L473.559 282.342Z" fill="#F9F9F9"/>
<path d="M401.467 277.356C401.124 277.569 401.069 278.126 401.069 278.126C401.069 278.126 400.569 277.746 400.134 277.764C398.883 277.82 398.791 278.841 399.596 279.51C400.374 280.16 402.263 280.652 402.263 280.652C402.263 280.652 403.264 279.269 403.31 278.368C403.356 277.439 402.449 276.734 401.467 277.356Z" fill="#D89CC7"/>
<path d="M461.641 256.323L394.012 276.891L366.546 217.843L433.943 197.163L461.641 256.323Z" fill="#D89CC7" stroke="black" stroke-width="0.5" stroke-miterlimit="10"/>
<path opacity="0.2" d="M374.945 210.201C375.742 211.881 374.853 213.711 372.954 214.296C371.065 214.871 368.88 213.98 368.083 212.299C367.287 210.618 368.176 208.789 370.074 208.204C371.973 207.628 374.149 208.52 374.945 210.201Z" fill="#DBE0FC"/>
<path d="M430.285 187.432L361.406 208.483L353.6 191.991L422.479 170.931L430.285 187.432Z" fill="white" stroke="#C2C2C2" stroke-width="0.25" stroke-miterlimit="10"/>
<path d="M388.002 190.877C389.271 193.551 387.854 196.467 384.835 197.386C381.826 198.305 378.353 196.885 377.084 194.21C375.816 191.536 377.232 188.62 380.251 187.701C383.27 186.782 386.743 188.202 388.002 190.877Z" fill="#DBE0FC"/>
<path d="M402.791 186.355C404.06 189.029 402.634 191.945 399.624 192.864C396.615 193.783 393.142 192.363 391.873 189.688C390.605 187.014 392.021 184.098 395.04 183.179C398.059 182.26 401.532 183.68 402.791 186.355Z" fill="#DBE0FC"/>
<path d="M417.58 181.832C418.849 184.507 417.432 187.422 414.413 188.342C411.403 189.261 407.931 187.84 406.662 185.166C405.393 182.492 406.81 179.576 409.829 178.657C412.848 177.737 416.321 179.158 417.58 181.832Z" fill="#DBE0FC"/>
<path d="M432.369 177.31C433.638 179.984 432.212 182.9 429.202 183.82C426.192 184.739 422.72 183.318 421.451 180.644C420.182 177.969 421.608 175.054 424.618 174.134C427.637 173.215 431.11 174.636 432.369 177.31Z" fill="#DBE0FC"/>
<path d="M373.815 195.213C375.223 198.185 373.649 201.416 370.296 202.447C366.953 203.468 363.101 201.89 361.694 198.928C360.286 195.956 361.86 192.725 365.213 191.694C368.565 190.663 372.417 192.242 373.815 195.213Z" fill="#DBE0FC"/>
<path d="M375.732 197.878C376.084 198.621 375.686 199.429 374.853 199.689C374.019 199.949 373.056 199.55 372.704 198.807C372.352 198.064 372.741 197.256 373.584 196.996C374.417 196.736 375.38 197.135 375.732 197.878Z" fill="#5F76E8"/>
<path d="M424.72 289.019C425.164 289.966 424.664 290.997 423.599 291.331C422.534 291.656 421.303 291.155 420.849 290.207C420.404 289.26 420.905 288.229 421.969 287.895C423.044 287.57 424.275 288.072 424.72 289.019Z" stroke="#2D2D2D" stroke-width="0.5" stroke-miterlimit="10"/>
<path d="M426.276 291.637L424.562 290.737" stroke="#2D2D2D" stroke-width="0.5" stroke-miterlimit="10"/>
<path d="M408.422 292.037L407.116 294.377L408.403 297.088L409.838 296.652L409.162 295.231C409.005 294.897 409.209 294.516 409.635 294.386C410.051 294.256 410.524 294.423 410.681 294.767L411.357 296.187L412.616 295.807L411.329 293.095L408.422 292.037Z" stroke="#2D2D2D" stroke-width="0.5" stroke-miterlimit="10"/>
<path d="M436.231 284.58L437.462 287.171" stroke="black" stroke-width="0.5" stroke-miterlimit="10"/>
<path d="M435.388 286.326L438.305 285.434" stroke="black" stroke-width="0.5" stroke-miterlimit="10"/>
<path d="M438.277 287.969L437.499 288.211C436.342 288.564 435.008 288.016 434.517 286.994L434.193 286.298C433.702 285.267 434.249 284.153 435.406 283.8L436.184 283.559C437.342 283.206 438.675 283.754 439.166 284.775L439.49 285.472C439.981 286.493 439.435 287.607 438.277 287.969Z" stroke="#2D2D2D" stroke-width="0.5" stroke-miterlimit="10"/>
<path d="M450.464 279.501C450.038 279.77 449.955 280.476 449.955 280.476C449.955 280.476 449.316 279.993 448.769 280.021C447.186 280.095 447.075 281.386 448.093 282.24C449.075 283.067 451.473 283.689 451.473 283.689C451.473 283.689 452.751 281.943 452.797 280.801C452.862 279.612 451.714 278.721 450.464 279.501Z" stroke="#2D2D2D" stroke-width="0.5" stroke-miterlimit="10"/>
<path d="M465.03 276.251C465.327 276.873 464.993 277.551 464.299 277.764C463.595 277.978 462.789 277.644 462.502 277.031C462.215 276.418 462.539 275.731 463.234 275.517C463.928 275.304 464.734 275.638 465.03 276.251Z" fill="#2D2D2D"/>
<path d="M467.494 278.804L467.318 278.424C466.975 277.709 466.049 277.328 465.244 277.569L463.521 278.099C462.716 278.349 462.336 279.129 462.669 279.844L462.845 280.225L467.494 278.804Z" fill="#2D2D2D"/>
<path d="M359.008 183.717L358.721 183.587C358.545 183.504 358.332 183.495 358.147 183.55L357.989 183.597L357.582 183.717L357.415 183.764C357.23 183.82 357.091 183.94 357.026 184.098L356.924 184.349C356.86 184.507 356.711 184.627 356.536 184.683L356.276 184.767C355.915 184.878 355.748 185.222 355.897 185.547L356.962 187.803C357.11 188.119 357.526 188.295 357.888 188.184L361.481 187.088C361.842 186.977 362.008 186.633 361.86 186.308L360.795 184.052C360.647 183.736 360.23 183.56 359.869 183.671L359.582 183.755C359.397 183.81 359.193 183.801 359.008 183.717Z" stroke="#2D2D2D" stroke-width="0.5" stroke-miterlimit="10"/>
<path d="M359.99 185.584C360.249 186.132 359.962 186.726 359.341 186.912C358.73 187.097 358.017 186.81 357.758 186.262C357.499 185.714 357.786 185.12 358.406 184.934C359.027 184.748 359.73 185.045 359.99 185.584Z" stroke="#2D2D2D" stroke-width="0.5" stroke-miterlimit="10"/>
<path d="M409.514 168.108L414.45 166.594L413.367 170.968L411.978 169.009L409.514 168.108Z" stroke="#2D2D2D" stroke-width="0.5" stroke-miterlimit="10"/>
<path d="M411.978 169.009L414.45 166.594" stroke="#2D2D2D" stroke-width="0.5" stroke-miterlimit="10"/>
<path d="M406.866 308.417L344.33 174.896C342.46 170.912 344.414 166.631 348.673 165.359L404.31 148.812C408.57 147.54 413.561 149.759 415.432 153.743L477.967 287.264C479.838 291.247 477.884 295.528 473.624 296.8L417.988 313.348C413.719 314.62 408.727 312.41 406.866 308.417ZM349.396 166.919C346.043 167.913 344.515 171.274 345.988 174.404L408.523 307.925C409.987 311.054 413.904 312.8 417.256 311.797L472.893 295.25C476.245 294.256 477.773 290.895 476.3 287.765L413.765 154.244C412.302 151.115 408.385 149.369 405.032 150.372L349.396 166.919Z" stroke="black" stroke-width="0.5" stroke-miterlimit="10"/>
<path d="M524.241 279.612C512.471 268.98 508.74 251.634 498.414 239.581C497.516 238.532 496.562 237.547 495.664 236.489C492.904 233.248 489.274 230.899 485.755 228.512C473.152 219.969 461.261 210.368 450.242 199.838C447.186 196.913 445.019 192.688 441.342 190.45C439.37 189.252 436.712 188.899 434.814 190.199C433.851 190.858 433.175 191.861 432.638 192.901C430.897 196.318 430.545 200.413 431.665 204.072C432.591 207.108 434.443 209.755 436.314 212.318C443.63 222.393 460.595 230.611 462.067 244.01" fill="white"/>
<path d="M524.241 279.612C512.471 268.98 508.74 251.634 498.414 239.581C497.516 238.532 496.562 237.547 495.664 236.489C492.904 233.248 489.274 230.899 485.755 228.512C473.152 219.969 461.261 210.368 450.242 199.838C447.186 196.913 445.019 192.688 441.342 190.45C439.37 189.252 436.712 188.899 434.814 190.199C433.851 190.858 433.175 191.861 432.638 192.901C430.897 196.318 430.545 200.413 431.665 204.072C432.591 207.108 434.443 209.755 436.314 212.318C443.63 222.393 460.595 230.611 462.067 244.01" stroke="#222221" stroke-width="0.5" stroke-miterlimit="10"/>
<path d="M386.484 288.378C386.632 288.285 386.771 288.192 386.91 288.099C390.28 285.806 393.54 282.639 393.957 278.572C394.151 276.687 393.688 274.765 392.864 273.066C392.392 272.081 391.771 271.144 390.901 270.494C389.345 269.333 387.187 269.259 385.335 269.834C382.224 270.791 380.214 273.131 377.621 274.895C375.288 276.474 372.815 278.247 371.926 280.922C371.01 283.707 372.176 286.948 374.454 288.796C378.047 291.693 382.909 290.634 386.484 288.378Z" fill="white" stroke="#222221" stroke-width="0.5" stroke-miterlimit="10"/>
<path d="M362.203 234.019C362.907 232.57 363.768 231.029 365.277 230.472C366.907 229.877 368.722 230.667 370.102 231.707C372.371 233.415 374.112 235.894 374.686 238.68C375.649 243.286 372.454 249.638 370.315 253.593C369.667 254.791 368.898 256.017 367.685 256.62C365.648 257.623 363.166 256.49 361.499 254.93C359.082 252.674 357.1 248.858 357.573 245.45C358.091 241.698 360.545 237.436 362.203 234.019Z" fill="white" stroke="#222221" stroke-width="0.5" stroke-miterlimit="10"/>
<path d="M380.9 265.47C385.697 258.487 385.391 246.573 377.103 243.342C375.779 242.831 374.26 242.617 372.973 243.193C370.463 244.317 370.019 247.604 368.843 250.093C367.639 252.646 365.907 254.847 364.574 257.326C363.777 258.812 363.036 260.344 362.703 262.006C362.379 263.659 362.499 265.461 363.37 266.9" fill="white"/>
<path d="M380.9 265.47C385.697 258.487 385.391 246.573 377.103 243.342C375.779 242.831 374.26 242.617 372.973 243.193C370.463 244.317 370.019 247.604 368.843 250.093C367.639 252.646 365.907 254.847 364.574 257.326C363.777 258.812 363.036 260.344 362.703 262.006C362.379 263.659 362.499 265.461 363.37 266.9" stroke="#222221" stroke-width="0.5" stroke-miterlimit="10"/>
<path d="M477.995 295.788C480.153 298.723 482.653 301.415 485.413 303.783" stroke="#222221" stroke-width="0.5" stroke-miterlimit="10"/>
<path d="M371.926 244.047C371.741 245.561 372.287 247.149 373.352 248.226C374.39 249.275 375.417 249.721 374.779 251.188C374.149 252.655 372.945 254.085 371.797 255.163C371.63 255.321 371.454 255.478 371.232 255.553C371.01 255.618 370.778 255.599 370.556 255.543C369.991 255.413 369.463 255.116 369.046 254.708C368.426 254.095 368.083 253.25 367.583 252.544" stroke="#222221" stroke-width="0.5" stroke-miterlimit="10"/>
<path d="M363.972 231.335C363.416 233.016 363.74 234.539 364.37 236.127C365.101 237.984 363.629 239.052 362.49 240.593C362.277 240.881 362.008 241.197 361.657 241.178C361.462 241.169 361.277 241.067 361.129 240.937C360.406 240.37 359.999 239.432 360.054 238.522" stroke="#222221" stroke-width="0.5" stroke-miterlimit="10"/>
<path d="M385.132 270.159C385.159 272.481 385.66 273.771 386.41 275.963C386.447 276.065 386.484 276.186 386.437 276.288C386.4 276.371 386.326 276.418 386.252 276.464C384.632 277.56 382.103 279.083 380.844 276.826C380.251 275.768 379.853 274.607 379.687 273.409" stroke="#222221" stroke-width="0.5" stroke-miterlimit="10"/>
<path d="M444.63 217.267C443.963 217.629 443.556 218.419 443.639 219.171" stroke="#222221" stroke-width="0.5" stroke-miterlimit="10"/>
<path d="M441.963 218.419C443.639 217.546 444.871 215.865 445.195 213.989" stroke="#222221" stroke-width="0.5" stroke-miterlimit="10"/>
<path d="M497.284 243.639C500.137 246.815 502.581 250.343 504.554 254.132" stroke="#222221" stroke-width="0.5" stroke-miterlimit="10"/>
<path d="M505.452 255.924C506.61 258.311 507.776 260.688 508.943 263.074" stroke="#222221" stroke-width="0.5" stroke-miterlimit="10"/>
<path d="M502.813 254.438C503.183 255.135 503.563 255.831 503.933 256.518" stroke="#222221" stroke-width="0.5" stroke-miterlimit="10"/>
<path d="M433.564 195.752C432.749 199.095 433.128 202.725 434.601 205.836" stroke="#222221" stroke-width="0.5" stroke-miterlimit="10"/>
<path d="M435.332 207.303C435.721 208.306 436.212 209.272 436.786 210.182" stroke="#222221" stroke-width="0.5" stroke-miterlimit="10"/>
<path d="M435.814 204.908C436.138 205.66 436.453 206.403 436.777 207.155" stroke="#222221" stroke-width="0.5" stroke-miterlimit="10"/>
<path d="M393.059 276.418C392.79 279.445 391.114 282.324 388.614 284.042" stroke="#222221" stroke-width="0.5" stroke-miterlimit="10"/>
<path d="M411.515 307.191C414.237 306.337 416.95 305.492 419.673 304.638" stroke="#222221" stroke-width="0.5" stroke-miterlimit="10"/>
<path d="M422.229 303.811C422.868 303.598 423.507 303.384 424.146 303.17" stroke="#222221" stroke-width="0.5" stroke-miterlimit="10"/>
<path d="M419.191 306.393C419.83 306.281 420.469 306.179 421.108 306.068" stroke="#222221" stroke-width="0.5" stroke-miterlimit="10"/>
<path d="M438.36 261.31C439.398 260.688 440.546 260.27 441.731 260.075" stroke="#222221" stroke-width="0.5" stroke-miterlimit="10"/>
<path d="M455.326 256.203C451.807 257.168 448.288 258.134 444.778 259.1" stroke="#222221" stroke-width="0.5" stroke-miterlimit="10"/>
<path d="M348.451 169.241C346.988 170.773 346.886 173.41 348.229 175.044" stroke="#222221" stroke-width="0.5" stroke-miterlimit="10"/>
<path d="M356.36 222.541C355.721 223.34 355.082 224.148 354.443 224.947" stroke="#222221" stroke-width="0.5" stroke-miterlimit="10"/>
<path d="M353.628 227.147C354.498 226.553 355.295 225.847 355.989 225.058" stroke="#222221" stroke-width="0.5" stroke-miterlimit="10"/>
<path d="M380.585 265.702C378.909 265.665 377.223 265.637 375.547 265.6" stroke="#222221" stroke-width="0.5" stroke-miterlimit="10"/>
<path d="M382.057 253.547C382.418 255.153 382.224 256.871 381.52 258.357" stroke="#222221" stroke-width="0.5" stroke-miterlimit="10"/>
<path d="M453.01 328.595C454.687 329.078 456.372 329.561 458.048 330.034" stroke="#222221" stroke-width="0.5" stroke-miterlimit="10"/>
<path d="M423.47 246.573C422.108 248.254 420.812 250.093 420.405 252.21C419.988 254.336 420.673 256.806 422.525 257.911C425.146 259.471 428.591 257.596 430.35 255.107C432.119 252.609 432.962 249.535 434.869 247.149C436.629 244.939 439.185 243.481 441.018 241.327C442.852 239.172 443.787 235.718 441.889 233.62C440.666 232.264 438.601 231.939 436.823 232.338C431.1 233.647 426.979 242.237 423.47 246.573Z" fill="#A8DCA4" stroke="black" stroke-width="0.5" stroke-miterlimit="10"/>
<path d="M420.905 238.829C420.849 237.919 420.988 237 421.627 235.922C422.497 234.455 423.979 233.378 425.637 233.007C426.729 232.756 429.563 233.174 429.758 231.781C429.896 230.787 428.369 229.905 427.655 229.627C424.97 228.549 421.858 228.02 419.053 227.287C410.051 224.937 400.856 220.136 392.04 225.689C389.215 227.472 382.289 233.898 389.28 235.802C391.466 236.396 393.753 235.625 395.985 235.189C398.772 234.65 402.921 234.251 405.736 235.031C409.329 236.034 412.598 240.203 415.348 242.59C416.274 243.397 417.265 244.233 418.469 244.465C419.673 244.698 421.136 244.085 421.386 242.877C421.432 242.636 421.432 242.395 421.414 242.135C421.284 240.9 420.969 239.878 420.905 238.829Z" fill="white" stroke="#222221" stroke-width="0.5" stroke-miterlimit="10"/>
<path d="M446.695 245.347C444.713 243.917 440.342 244.085 438.314 242.896C434.656 240.751 434.036 235.802 429.341 235.337C427.702 235.179 425.813 235.811 425.183 237.343C424.618 238.727 425.257 240.277 425.896 241.633C428.406 246.991 438.49 261.913 445.991 255.079C448.399 252.888 449.028 248.978 447.426 246.137C447.25 245.83 447 245.57 446.695 245.347Z" fill="white" stroke="#222221" stroke-width="0.5" stroke-miterlimit="10"/>
<path d="M406.292 253.946C402.652 259.778 394.124 258.385 392.197 251.81C390.355 245.524 396.846 237.863 402.171 235.709C407.903 233.397 412.459 229.413 413.311 222.736C413.478 221.409 413.478 220.034 413.959 218.79C414.395 217.657 415.209 216.701 416.089 215.856C418.034 213.999 420.488 212.559 423.164 212.383C425.84 212.206 428.702 213.544 429.822 215.986C431.304 219.217 429.341 223.117 426.563 225.327C423.785 227.547 420.303 228.661 417.256 230.481C410.292 234.641 409.885 241.55 408.412 248.625C408.023 250.52 407.301 252.321 406.292 253.946Z" fill="#D47172" stroke="black" stroke-width="0.5" stroke-miterlimit="10"/>
<path d="M377.168 226.655C377.612 227.398 378.325 227.992 379.288 228.243C385.437 229.84 385.984 219.533 379.714 220.647C376.964 221.139 375.779 224.334 377.168 226.655Z" fill="white" stroke="#222221" stroke-width="0.5" stroke-miterlimit="10"/>
<path d="M267.117 165.545C258.949 168.981 250.522 172.157 241.706 172.927C237.363 173.308 231.853 172.277 230.724 168.052C229.973 165.257 231.622 162.397 233.437 160.15C241.012 150.771 252.319 145.376 263.237 140.297C269.358 137.446 287.407 134.15 290.592 143.343C294.241 153.854 273.905 162.685 267.117 165.545Z" fill="white"/>
<path d="M267.117 165.545C258.949 168.981 250.522 172.157 241.706 172.927C237.363 173.308 231.853 172.277 230.724 168.052C229.973 165.257 231.622 162.397 233.437 160.15C241.012 150.771 252.319 145.376 263.237 140.297C269.358 137.446 287.407 134.15 290.592 143.343C294.241 153.854 273.905 162.685 267.117 165.545Z" stroke="black" stroke-width="0.5" stroke-miterlimit="10" stroke-linecap="round"/>
<path d="M259.801 170.643C260.431 171.878 260.82 173.224 260.857 174.682C260.968 179.009 259.968 183.225 258.94 187.404C257.894 191.657 256.532 197.628 251.8 198.983C249.485 199.643 247.105 200.079 244.707 200.283C241.919 200.515 238.938 200.385 236.595 198.863C234.243 197.34 232.872 194.025 234.28 191.61C235.187 190.06 236.928 189.242 238.28 188.054C241.308 185.398 242.169 181.117 243.197 177.217C244.503 172.203 248.17 169.631 251.495 166.093C251.791 165.786 252.087 165.461 252.467 165.276C253.588 164.709 254.93 165.396 255.921 166.167C257.523 167.402 258.912 168.897 259.801 170.643Z" fill="white"/>
<path d="M147.797 142.646C150.167 137.883 154.27 134.419 158.779 131.772C163.928 128.745 169.142 126.006 174.698 123.722C176.763 122.877 178.995 122.069 181.171 122.552C183.375 123.044 185.088 124.78 186.357 126.656C187.959 129.024 189.042 131.689 189.848 134.419C190.645 137.112 190.746 140.185 191.682 142.785C193.802 148.663 195.247 154.003 194.404 160.382C194.117 162.509 193.617 164.626 192.719 166.576C191.098 170.077 188.274 172.853 185.468 175.49C182.949 177.849 180.347 180.207 177.235 181.684C174.43 183.021 171.318 183.587 168.225 183.866C157.965 184.795 147.195 182.436 139.046 176.122C134.638 172.704 136.656 166.659 138.573 162.527C141.657 155.906 144.537 149.193 147.797 142.646Z" fill="white"/>
<path d="M129.268 275.016C126.619 277.439 124.119 280.03 121.832 282.853C119.748 285.425 117.859 288.155 115.72 290.672C112.571 294.386 109.034 297.812 105.283 300.858C101.736 303.737 99.301 308.185 96.4488 311.778C89.8554 320.089 82.6508 327.899 74.9091 335.132C73.0107 336.906 71.0568 338.661 68.788 339.924C66.3895 341.261 63.704 342.013 60.9907 342.468C56.8513 343.164 52.6008 343.192 48.4521 342.542C39.1547 341.094 30.6999 336.386 22.6989 331.418C18.4021 328.753 14.1516 325.976 10.3548 322.643C7.98412 320.563 5.76162 318.241 4.27996 315.446C2.62234 312.326 1.1592 307.535 1.45554 303.95C1.72409 300.682 3.78916 296.875 5.0671 293.847C8.2249 286.335 12.4754 279.296 17.6798 273.029C30.2091 257.948 47.4057 248.05 63.4725 237.287C79.0022 226.878 94.1522 216.134 107.811 203.385C113.747 197.85 119.804 193.635 122.748 185.621C124.211 181.656 124.823 177.412 126.258 173.438C127.916 168.869 130.62 164.765 133.296 160.707C135.509 157.364 137.713 154.012 139.926 150.669C143.64 145.051 147.455 139.322 152.789 135.227C153.836 134.419 155.049 133.648 156.577 134.549C157.327 134.995 157.845 135.747 158.105 136.573C159.54 141.272 158.623 148.784 158.243 153.696C157.78 159.788 156.762 165.842 156.632 171.962C156.512 177.524 157.493 181.953 159.318 187.06C161.281 192.558 161.799 198.603 163.152 204.267C165.096 212.429 168.671 219.31 175.347 224.492C181.663 229.394 189.729 224.454 196.591 222.625C198.934 222.003 202.369 221.761 204.314 220.266C206.166 218.846 207.87 215.93 209.25 214.045C211.407 211.101 217.899 202.224 222.251 207.248C222.872 207.963 223.252 208.836 223.483 209.746C224.465 213.692 227.669 223.173 224.428 227.082C223.316 228.419 221.825 229.367 220.362 230.295C211.445 235.932 201.684 240.11 192.238 244.902C186.219 247.957 179.681 249.73 173.162 251.374C166.782 252.98 159.633 254.076 153.993 257.512C145.353 262.768 136.713 268.209 129.268 275.016Z" fill="white"/>
<path d="M243.077 196.736C244.327 201.593 243.586 206.718 242.836 211.677C242.531 213.72 242.179 215.856 240.901 217.481C239.854 218.818 238.289 219.644 236.697 220.248C232.761 221.734 228.399 222.049 224.297 221.13C221.445 220.489 218.379 218.874 217.759 216.014C217.37 214.184 218.083 212.327 218.778 210.6C219.954 207.684 221.13 204.778 222.306 201.862C224.371 196.755 227.418 189.874 233.122 187.84C238.086 186.067 242.049 192.734 243.077 196.736Z" fill="white"/>
<path d="M170.235 245.635L124.525 213.469C119.599 210.006 118.941 203.7 123.044 199.383L222.723 94.787C226.834 90.4783 234.15 89.7912 239.076 93.2548L284.786 125.421C289.712 128.885 290.37 135.19 286.267 139.508L186.588 244.112C182.486 248.421 175.161 249.108 170.235 245.635Z" fill="black"/>
<path d="M172.253 241.893L123.433 207.536C120.59 205.53 120.201 201.89 122.581 199.392L225.149 91.7598C227.519 89.2712 231.761 88.8719 234.604 90.8776L283.425 125.235C286.267 127.241 286.656 130.881 284.277 133.379L181.708 241.011C179.328 243.5 175.096 243.899 172.253 241.893Z" fill="white"/>
<path d="M258.968 115.513L250.67 109.672C250.328 109.431 250.282 108.994 250.569 108.697C250.856 108.4 251.356 108.354 251.698 108.595L259.996 114.436C260.338 114.677 260.385 115.114 260.098 115.411C259.811 115.699 259.301 115.745 258.968 115.513Z" fill="black"/>
<path d="M245.67 106.153C245.327 105.911 245.281 105.475 245.568 105.178C245.855 104.881 246.355 104.834 246.698 105.076C247.04 105.317 247.087 105.753 246.8 106.051C246.513 106.348 246.013 106.394 245.67 106.153Z" fill="black"/>
<path d="M244.022 181.219C243.355 180.746 243.262 179.892 243.818 179.307L247.865 175.063C248.42 174.478 249.42 174.385 250.087 174.859C250.754 175.332 250.846 176.187 250.291 176.772L246.244 181.015C245.688 181.6 244.698 181.693 244.022 181.219Z" fill="#5F76E8"/>
<path d="M263.144 161.153C262.477 160.679 262.385 159.825 262.94 159.24L275.266 146.314C275.822 145.729 276.822 145.636 277.489 146.11C278.155 146.583 278.248 147.438 277.692 148.023L265.376 160.949C264.811 161.534 263.82 161.626 263.144 161.153Z" fill="#5F76E8"/>
<path d="M263.811 161.617C263.144 161.144 263.052 160.289 263.607 159.704L275.924 146.778C276.479 146.193 277.479 146.1 278.146 146.574C278.813 147.048 278.905 147.902 278.35 148.487L266.024 161.413C265.478 161.998 264.478 162.091 263.811 161.617Z" fill="black"/>
<path d="M244.688 181.693C244.022 181.219 243.929 180.365 244.485 179.78L248.531 175.537C249.087 174.952 250.087 174.859 250.754 175.332C251.421 175.806 251.513 176.66 250.958 177.245L246.911 181.489C246.346 182.065 245.355 182.157 244.688 181.693Z" fill="black"/>
<path d="M236.854 188.75C236.187 188.277 236.095 187.422 236.65 186.837L240.697 182.594C241.253 182.009 242.253 181.916 242.919 182.39C243.586 182.863 243.679 183.717 243.123 184.302L239.076 188.546C238.521 189.131 237.521 189.224 236.854 188.75Z" fill="#AFB3BC"/>
<path d="M237.511 189.215C236.845 188.741 236.752 187.887 237.308 187.302L241.355 183.058C241.91 182.473 242.91 182.38 243.577 182.854C244.244 183.327 244.336 184.182 243.781 184.767L239.734 189.01C239.178 189.595 238.178 189.688 237.511 189.215Z" fill="black"/>
<path d="M183.514 238.977L124.386 197.368L222.306 94.6105L281.434 136.23L183.514 238.977Z" fill="#D89CC7"/>
<path d="M170.939 242.005L123.563 208.659C119.933 206.106 119.442 201.444 122.471 198.268L223.835 91.8991C226.863 88.7233 232.28 88.2126 235.911 90.7662L283.287 124.112C286.917 126.665 287.408 131.327 284.379 134.502L183.015 240.872C179.987 244.057 174.57 244.558 170.939 242.005ZM234.734 92.0012C231.882 89.9955 227.632 90.3948 225.252 92.8926L123.887 199.262C121.507 201.76 121.896 205.418 124.749 207.424L172.125 240.77C174.977 242.775 179.228 242.376 181.607 239.878L282.972 133.509C285.352 131.011 284.963 127.352 282.111 125.347L234.734 92.0012Z" fill="#5F76E8"/>
<path d="M171.559 241.531L123.988 208.046C120.895 205.864 120.478 201.89 123.062 199.188L224.871 92.354C227.455 89.6426 232.066 89.2154 235.159 91.3883L282.739 124.873C285.832 127.055 286.249 131.03 283.665 133.732L181.847 240.575C179.263 243.277 174.652 243.713 171.559 241.531ZM234.706 91.8526C231.9 89.884 227.723 90.274 225.39 92.7255L123.581 199.559C121.247 202.01 121.617 205.613 124.423 207.582L172.003 241.067C174.809 243.035 178.986 242.645 181.329 240.194L283.137 133.36C285.471 130.909 285.101 127.306 282.295 125.337L234.706 91.8526Z" fill="black"/>
<path d="M259.005 153.798C255.458 157.308 249.346 157.847 245.364 155.006C241.382 152.164 241.03 147.01 244.586 143.5C248.142 139.99 254.245 139.452 258.227 142.293C262.209 145.135 262.552 150.288 259.005 153.798Z" fill="#A8DCA4" stroke="black" stroke-width="0.5" stroke-miterlimit="10"/>
<path d="M252.004 153.176C251.8 153.241 251.587 153.204 251.43 153.102C251.356 153.046 251.3 152.981 251.263 152.888C250.717 151.477 249.485 150.437 248.55 149.815C247.513 149.118 246.596 148.766 246.587 148.766C246.3 148.654 246.179 148.366 246.318 148.116C246.457 147.865 246.809 147.753 247.105 147.865C247.142 147.883 248.133 148.255 249.272 149.016C249.948 149.462 250.532 149.954 251.013 150.465C251.634 151.115 252.087 151.821 252.365 152.545C252.476 152.786 252.31 153.074 252.004 153.176Z" fill="white"/>
<path d="M254.319 152.266C254.078 152.341 253.819 152.303 253.643 152.173C253.55 152.108 253.486 152.025 253.449 151.923C252.8 150.251 251.337 149.016 250.235 148.273C249.004 147.456 247.92 147.038 247.911 147.029C247.568 146.899 247.429 146.555 247.596 146.258C247.763 145.961 248.179 145.831 248.522 145.952C248.568 145.97 249.744 146.416 251.087 147.317C251.884 147.846 252.578 148.422 253.152 149.035C253.884 149.806 254.421 150.641 254.764 151.505C254.884 151.811 254.68 152.155 254.319 152.266Z" fill="white"/>
<path d="M256.19 151.273C256.079 151.198 255.995 151.096 255.949 150.966C254.402 146.992 249.207 144.986 249.152 144.968C248.735 144.81 248.559 144.383 248.763 144.02C248.967 143.658 249.485 143.491 249.902 143.649C249.957 143.668 251.402 144.225 253.05 145.32C254.023 145.97 254.875 146.676 255.588 147.428C256.486 148.375 257.144 149.397 257.56 150.456C257.708 150.827 257.458 151.245 257.014 151.384C256.718 151.477 256.403 151.431 256.19 151.273Z" fill="white"/>
<path d="M207.795 143.816C204.248 147.326 198.145 147.865 194.163 145.014C190.181 142.173 189.83 137.019 193.376 133.518C196.923 130.008 203.026 129.47 207.008 132.32C210.99 135.162 211.342 140.315 207.795 143.816Z" fill="#D47172" stroke="black" stroke-width="0.5" stroke-miterlimit="10"/>
<path d="M204.192 135.106C201.951 133.509 198.516 133.806 196.525 135.775C194.534 137.743 194.738 140.64 196.969 142.238C199.21 143.835 202.646 143.538 204.637 141.569C206.628 139.6 206.424 136.703 204.192 135.106ZM205.156 138.69C205.109 139.526 204.748 140.362 204.054 141.068C203.924 140.928 203.387 140.353 202.609 139.805C202.359 139.628 202.081 139.452 201.785 139.285C201.813 139.22 201.84 139.155 201.859 139.09C201.933 138.895 202.007 138.7 202.072 138.514C203.711 138.932 204.896 138.746 205.156 138.69ZM203.628 135.663C204.489 136.285 204.998 137.13 205.128 138.022C204.915 138.068 203.822 138.272 202.276 137.827C202.609 136.582 202.748 135.45 202.776 135.19C203.072 135.31 203.359 135.468 203.628 135.663ZM201.859 134.902C201.831 135.134 201.692 136.267 201.377 137.52C199.562 136.805 198.229 135.895 197.914 135.672L197.877 135.645C199.034 134.883 200.507 134.623 201.859 134.902ZM197.145 136.23C197.173 136.202 197.192 136.183 197.219 136.155C197.238 136.174 197.266 136.192 197.312 136.22C197.738 136.527 199.247 137.548 201.164 138.235C201.1 138.458 201.016 138.681 200.942 138.904C200.896 138.885 200.849 138.867 200.794 138.858C198.59 138.124 196.34 138.737 195.988 138.848C195.997 137.929 196.377 136.991 197.145 136.23ZM197.525 141.69C196.738 141.133 196.247 140.38 196.071 139.573C196.34 139.47 198.192 138.858 200.646 139.619C200.646 139.619 200.646 139.619 200.655 139.619C200.035 141.03 199.322 142.08 199.09 142.405C198.525 142.256 197.997 142.024 197.525 141.69ZM200.007 142.544C200.192 142.275 200.868 141.3 201.488 139.963C201.757 140.102 202.007 140.25 202.22 140.408C202.933 140.919 203.359 141.458 203.452 141.588C202.47 142.293 201.22 142.628 200.007 142.544Z" fill="white"/>
<path d="M223.408 128.383C219.861 131.893 213.749 132.432 209.767 129.59C205.785 126.749 205.433 121.595 208.989 118.085C212.545 114.575 218.648 114.036 222.63 116.878C226.612 119.719 226.955 124.873 223.408 128.383Z" fill="#A8DCA4" stroke="black" stroke-width="0.5" stroke-miterlimit="10"/>
<path d="M243.577 169.046C239.928 172.658 233.742 173.271 229.751 170.429C225.769 167.588 225.501 162.351 229.149 158.748C232.798 155.136 238.984 154.523 242.975 157.364C246.957 160.206 247.226 165.443 243.577 169.046Z" fill="#5F76E8" stroke="black" stroke-width="0.5" stroke-miterlimit="10"/>
<path d="M240.91 140.882C237.363 144.392 231.251 144.93 227.269 142.089C223.287 139.248 222.936 134.094 226.492 130.584C230.048 127.074 236.15 126.535 240.132 129.377C244.114 132.218 244.466 137.372 240.91 140.882Z" fill="#D47172" stroke="black" stroke-width="0.5" stroke-miterlimit="10"/>
<path d="M240.123 136.703C241.16 135.663 241.104 134.475 239.956 133.639C238.363 132.478 236.761 131.327 235.141 130.203C233.992 129.405 232.585 129.544 231.557 130.528C230.835 131.225 230.122 131.94 229.409 132.645C228.714 133.332 228.001 134.029 227.316 134.716C226.26 135.775 226.306 136.972 227.482 137.827C229.057 138.978 230.64 140.111 232.251 141.225C233.428 142.043 234.854 141.903 235.891 140.882C237.298 139.508 238.715 138.105 240.123 136.703ZM235.104 140.362C234.437 141.012 233.668 141.086 232.927 140.557C231.335 139.433 229.742 138.3 228.158 137.158C227.418 136.62 227.381 135.979 228.029 135.32C229.446 133.899 230.881 132.487 232.316 131.085C232.974 130.445 233.761 130.361 234.502 130.881C236.104 132.005 237.687 133.137 239.271 134.28C240.002 134.809 240.039 135.468 239.391 136.118C238.687 136.833 237.965 137.53 237.252 138.235C236.53 138.95 235.826 139.665 235.104 140.362Z" fill="white"/>
<path d="M235.724 133.741C234.502 132.868 232.613 133.026 231.501 134.103C230.381 135.19 230.446 136.768 231.659 137.669C232.9 138.588 234.789 138.449 235.928 137.353C237.058 136.248 236.965 134.642 235.724 133.741ZM232.353 137.028C231.566 136.443 231.501 135.375 232.196 134.67C232.918 133.945 234.196 133.834 235.02 134.419C235.845 135.013 235.928 136.09 235.187 136.805C234.465 137.52 233.15 137.623 232.353 137.028Z" fill="white"/>
<path d="M238.687 135.784C238.382 136.044 238.03 136.044 237.734 135.812C237.41 135.552 237.419 135.245 237.743 134.967C238.049 134.707 238.382 134.725 238.715 134.93C238.984 135.208 239.012 135.505 238.687 135.784Z" fill="white"/>
<path d="M225.306 156.315C221.759 159.825 215.648 160.364 211.666 157.522C207.684 154.681 207.332 149.527 210.888 146.017C214.434 142.507 220.546 141.968 224.528 144.81C228.51 147.651 228.853 152.805 225.306 156.315Z" fill="#D89CC7" stroke="black" stroke-width="0.5" stroke-miterlimit="10"/>
<path d="M222.584 153.102C222.5 153.056 222.426 153.009 222.352 152.953C221.537 152.368 221.148 151.468 221.306 150.558L218 153.826C216.648 155.163 214.323 155.368 212.814 154.291C211.304 153.213 211.166 151.254 212.518 149.917C213.87 148.58 216.194 148.376 217.703 149.462C217.759 149.499 217.815 149.546 217.861 149.592L216.657 150.781C216.611 150.734 216.564 150.688 216.5 150.641C215.731 150.093 214.536 150.196 213.851 150.873C213.166 151.551 213.231 152.554 213.999 153.111C214.768 153.659 215.999 153.613 216.685 152.935L222.315 147.391L223.612 148.311C222.704 149.416 222.824 150.883 223.917 151.793L222.584 153.102Z" fill="white"/>
<path d="M227.306 185.584C223.76 189.094 217.648 189.632 213.666 186.791C209.684 183.95 209.332 178.796 212.888 175.286C216.444 171.776 222.547 171.237 226.529 174.079C230.511 176.92 230.853 182.074 227.306 185.584Z" fill="#D89CC7" stroke="black" stroke-width="0.5" stroke-miterlimit="10"/>
<path d="M176.096 175.602C172.55 179.112 166.447 179.65 162.465 176.799C158.483 173.958 158.131 168.804 161.678 165.304C165.225 161.794 171.327 161.255 175.309 164.106C179.291 166.947 179.643 172.101 176.096 175.602Z" fill="#A8DCA4" stroke="black" stroke-width="0.5" stroke-miterlimit="10"/>
<path d="M191.709 160.168C188.163 163.679 182.051 164.217 178.069 161.376C174.087 158.534 173.735 153.381 177.291 149.871C180.847 146.36 186.95 145.822 190.932 148.663C194.904 151.505 195.256 156.658 191.709 160.168Z" fill="#5F76E8" stroke="black" stroke-width="0.5" stroke-miterlimit="10"/>
<path d="M186.107 153.13C185.681 153.52 185.283 153.938 184.838 154.374L186.626 155.656C186.024 156.12 185.468 156.556 184.903 156.974C184.848 157.021 184.653 156.974 184.57 156.928C184.125 156.631 183.699 156.315 183.236 155.981L177.911 161.246C177.263 160.763 176.717 160.224 176.272 159.63L181.329 154.634L179.764 153.511L181.375 151.923L182.912 153.018C183.042 152.898 183.144 152.814 183.236 152.721C183.671 152.313 184.079 151.876 184.542 151.496C185.561 150.66 186.838 150.465 187.987 151.068C188.7 151.44 189.293 151.978 189.959 152.452L188.496 153.901C188.265 153.733 188.024 153.557 187.783 153.39C187.57 153.251 187.357 153.083 187.116 152.981C186.764 152.842 186.385 152.87 186.107 153.13Z" fill="white"/>
<path d="M211.879 200.831C208.23 204.443 202.044 205.056 198.062 202.215C194.08 199.373 193.812 194.136 197.46 190.533C201.109 186.93 207.295 186.308 211.286 189.15C215.259 192 215.527 197.228 211.879 200.831Z" fill="#5F76E8" stroke="black" stroke-width="0.5" stroke-miterlimit="10"/>
<path d="M197.627 195.947C198.571 196.643 199.646 197.052 200.961 197.08C200.183 196.021 200.053 195.418 200.461 194.749C200.711 194.907 200.961 195.074 201.211 195.232C200.664 194.331 200.683 193.458 201.47 192.567C201.664 192.817 201.85 193.04 202.035 193.273C202.155 191.833 202.692 191.025 203.804 190.719C203.757 192.474 204.415 193.96 205.869 195.167C205.97 195.055 206.054 194.963 206.128 194.879C206.832 194.127 207.721 193.82 208.767 194.006C209.804 194.192 210.406 194.777 210.564 195.678C210.601 195.873 210.684 195.984 210.897 196.049C211.286 196.16 211.675 196.272 212.101 196.393C211.61 196.643 211.101 196.727 210.564 196.708C210.554 196.727 210.545 196.745 210.536 196.773C210.906 196.913 211.267 197.061 211.638 197.2C211.638 197.219 211.638 197.238 211.638 197.256C211.193 197.303 210.749 197.368 210.314 197.386C210.082 197.395 209.925 197.442 209.758 197.609C207.276 200.079 203.146 200.664 200.22 198.955C199.044 198.268 198.182 197.349 197.701 196.17C197.673 196.095 197.655 196.021 197.627 195.947Z" fill="white"/>
<path d="M209.212 172.667C205.665 176.177 199.553 176.716 195.571 173.874C191.589 171.033 191.237 165.879 194.793 162.369C198.349 158.859 204.452 158.321 208.434 161.162C212.416 164.004 212.768 169.157 209.212 172.667Z" fill="white" stroke="#222221" stroke-width="0.5" stroke-miterlimit="10"/>
<path opacity="0.5" d="M177.504 227.556L137.277 199.271C135.351 197.915 135.091 195.26 136.721 193.542C138.147 192.038 140.527 191.787 142.213 192.975L182.44 221.26C184.366 222.616 184.625 225.272 182.995 226.989C181.579 228.494 179.199 228.744 177.504 227.556Z" fill="white"/>
<path d="M256.514 166.901C256.125 166.631 255.717 166.371 255.319 166.111C252.06 164.013 248.726 162.035 245.336 160.159C242.771 158.748 239.947 156.055 236.743 157.095C234.687 157.754 233.465 159.927 233.066 162.054C232.344 165.935 233.798 169.993 236.224 173.104C238.734 176.317 242.503 178.146 245.744 180.477C245.818 180.532 245.901 180.597 245.938 180.681C245.985 180.811 245.92 180.95 245.864 181.071C245.198 182.352 242.512 186.392 241.679 187.571C240.679 188.973 243.17 187.747 245.068 187.172C246.744 186.661 247.8 186.782 249.476 187.079C251.597 187.45 255.051 186.355 256.829 185.222C257.829 184.59 258.755 183.773 259.246 182.687C260.968 178.898 261.913 172.352 258.94 168.971C258.227 168.164 257.394 167.504 256.514 166.901Z" fill="white"/>
<path d="M222.871 184.247C220.426 183.597 217.981 182.937 215.536 182.287C214.546 182.018 213.481 181.758 212.499 182.083C211.425 182.436 210.684 183.439 210.23 184.479C208.647 188.137 209.98 192.548 212.573 195.566C215.166 198.584 218.815 200.469 222.445 202.094C226.195 203.775 231.131 205.725 231.64 207.638C232.039 209.142 234.298 206.041 235.4 204.954C238.78 201.63 245.522 193.468 240.002 189.215C237.113 186.995 231.631 186.587 228.186 185.667C226.408 185.194 224.639 184.72 222.871 184.247Z" fill="white"/>
<path d="M211.175 204.239C209.73 203.97 208.267 203.747 206.822 203.533C202.313 202.856 195.599 203.793 195.571 209.848C195.562 212.048 196.849 214.091 198.525 215.503C200.201 216.914 202.248 217.806 204.267 218.669C206.804 219.765 210.703 220.554 212.425 222.811C214.536 225.578 214.74 229.608 219.194 229.859C221.537 229.989 223.732 228.382 224.862 226.321C226.001 224.259 226.251 221.826 226.223 219.477C226.186 216.014 225.584 212.485 223.945 209.439C222.223 206.254 214.444 204.852 211.175 204.239Z" fill="white"/>
<path d="M193.663 188.193C190.117 191.703 184.014 192.242 180.032 189.391C176.05 186.55 175.698 181.396 179.245 177.895C182.792 174.394 188.894 173.847 192.876 176.697C196.858 179.539 197.21 184.683 193.663 188.193Z" fill="#D47172" stroke="black" stroke-width="0.5" stroke-miterlimit="10"/>
<path d="M190.061 179.474C187.82 177.877 184.384 178.174 182.394 180.142C180.403 182.111 180.606 185.008 182.838 186.605C185.07 188.202 188.515 187.905 190.506 185.937C192.497 183.968 192.302 181.071 190.061 179.474ZM191.024 183.067C190.978 183.903 190.617 184.739 189.922 185.445C189.793 185.305 189.255 184.739 188.478 184.182C188.228 184.005 187.95 183.82 187.653 183.662C187.681 183.597 187.709 183.532 187.727 183.467C187.802 183.272 187.876 183.077 187.931 182.882C189.58 183.309 190.774 183.114 191.024 183.067ZM189.496 180.031C190.357 180.644 190.867 181.498 190.996 182.39C190.783 182.436 189.691 182.64 188.144 182.195C188.478 180.95 188.616 179.817 188.644 179.557C188.941 179.687 189.228 179.845 189.496 180.031ZM187.727 179.269C187.7 179.502 187.561 180.634 187.246 181.888C185.431 181.173 184.097 180.263 183.783 180.04L183.746 180.012C184.903 179.26 186.385 178.991 187.727 179.269ZM183.023 180.597C183.051 180.569 183.079 180.551 183.097 180.523C183.116 180.542 183.144 180.56 183.19 180.588C183.616 180.894 185.125 181.916 187.042 182.603C186.977 182.826 186.894 183.049 186.82 183.272C186.774 183.253 186.727 183.235 186.672 183.216C184.468 182.482 182.218 183.095 181.866 183.207C181.866 182.297 182.245 181.368 183.023 180.597ZM183.403 186.057C182.616 185.5 182.125 184.739 181.949 183.94C182.218 183.838 184.07 183.225 186.524 183.987C185.903 185.398 185.19 186.447 184.959 186.772C184.403 186.633 183.866 186.392 183.403 186.057ZM185.875 186.912C186.061 186.642 186.737 185.667 187.357 184.33C187.626 184.47 187.876 184.618 188.089 184.776C188.802 185.287 189.228 185.825 189.32 185.955C188.348 186.661 187.089 186.995 185.875 186.912Z" fill="white"/>
<path d="M171.448 147.363C169.79 148.673 168.197 150.047 166.669 151.505C166.188 151.96 165.567 152.461 164.947 152.238C164.549 152.099 164.299 151.7 164.095 151.319C162.234 147.902 160.882 144.215 160.067 140.418C159.418 137.39 157.881 132.552 160.863 130.5C164.197 128.216 168.484 126.674 172.161 125.003C176.254 123.137 180.477 121.79 184.634 120.119C188.403 118.605 192.561 119.682 196.553 120.044C199.757 120.342 202.989 120.629 206.174 120.174C210.11 119.608 214.916 118.457 217.287 122.747C218.555 125.04 218.398 127.956 217.287 130.333C216.175 132.71 214.212 134.605 212.036 136.062C206.554 139.73 199.433 140.845 193.099 139.006C191.848 138.644 190.598 138.17 189.302 138.17C186.903 138.17 183.412 139.86 181.217 140.919C177.745 142.609 174.457 144.986 171.448 147.363Z" fill="white"/>
<path d="M222.602 202.094C225.177 203.375 227.223 203.951 230.038 204.555" stroke="black" stroke-width="0.5" stroke-miterlimit="10"/>
<path d="M210.693 183.652C210.128 184.655 210.777 186.122 211.462 187.042C212.156 187.961 213.184 188.555 214.231 189.038C214.249 189.047 214.268 189.057 214.286 189.066C217.185 190.385 220.658 188.815 221.611 185.77C221.75 185.333 221.871 184.897 221.991 184.451" stroke="black" stroke-width="0.5" stroke-miterlimit="10"/>
<path d="M209.906 204.88C209.999 207.081 208.6 209.272 206.563 210.108C204.526 210.943 201.998 210.358 200.525 208.715" stroke="black" stroke-width="0.5" stroke-miterlimit="10"/>
<path d="M247.003 161.608C246.679 163.233 245.123 164.44 243.475 164.644C241.827 164.849 240.169 164.18 238.882 163.149C237.595 162.119 236.613 160.735 235.743 159.333" stroke="black" stroke-width="0.5" stroke-miterlimit="10"/>
<path d="M242.244 178.137C244.216 179.474 246.3 180.644 248.457 181.647" stroke="black" stroke-width="0.5" stroke-miterlimit="10"/>
<path d="M216.342 121.428C214.314 121.994 212.268 122.57 210.165 122.579C208.063 122.589 205.869 121.957 204.415 120.434" stroke="black" stroke-width="0.5" stroke-miterlimit="10"/>
<path d="M243.707 200.348C244.04 200.33 244.373 200.311 244.698 200.283C247.096 200.079 249.476 199.643 251.791 198.983C256.523 197.628 257.884 191.657 258.931 187.404C259.959 183.225 260.959 179.019 260.848 174.682C260.838 174.478 260.811 174.283 260.792 174.079C260.783 173.93 260.774 173.782 260.755 173.642C260.755 173.624 260.755 173.605 260.746 173.587C260.542 171.822 259.986 170.179 258.912 168.962C258.579 168.581 258.208 168.229 257.82 167.904C254.125 164.784 249.55 162.499 245.309 160.159C242.744 158.748 239.919 156.055 236.715 157.095C234.659 157.754 233.437 159.927 233.039 162.054C232.316 165.935 233.77 169.993 236.196 173.104C237.984 175.397 240.41 176.985 242.836 178.545" stroke="black" stroke-width="0.5" stroke-miterlimit="10" stroke-linecap="round"/>
<path d="M242.827 211.686C243.753 205.548 244.253 198.278 242.077 192.344C241.151 189.837 238.975 187.877 236.289 187.487C233.576 186.661 230.436 186.28 228.177 185.677C226.408 185.203 224.639 184.73 222.871 184.265C220.426 183.615 217.981 182.956 215.536 182.306C214.546 182.037 213.481 181.777 212.499 182.102C211.425 182.455 210.684 183.457 210.23 184.497C208.647 188.156 209.98 192.567 212.573 195.585C215.12 198.556 218.685 200.423 222.26 202.02C221.102 204.88 219.944 207.749 218.787 210.609C218.083 212.336 217.379 214.203 217.768 216.023C218.389 218.892 221.445 220.508 224.306 221.139C228.408 222.059 232.77 221.743 236.706 220.257C238.289 219.654 239.854 218.827 240.91 217.49C242.169 215.865 242.521 213.729 242.827 211.686Z" stroke="black" stroke-width="0.5" stroke-miterlimit="10" stroke-linecap="round"/>
<path d="M211.175 204.239C208.267 203.701 205.313 203.376 202.387 202.958C201.331 202.809 200.229 202.651 199.21 202.976C197.858 203.403 196.858 204.62 196.34 205.948C194.96 209.476 195.59 213.033 198.525 215.503C200.201 216.914 202.248 217.806 204.267 218.669C206.804 219.765 210.703 220.554 212.425 222.811C214.536 225.578 214.74 229.608 219.194 229.859C221.537 229.989 223.732 228.382 224.862 226.321C226.001 224.259 226.251 221.826 226.223 219.477C226.186 216.014 225.584 212.485 223.945 209.439C222.222 206.254 214.444 204.852 211.175 204.239Z" fill="white"/>
<path d="M224.862 226.33C226.001 224.269 226.251 221.836 226.223 219.486C226.186 216.023 225.584 212.494 223.945 209.448C222.222 206.254 214.444 204.852 211.175 204.248C207.952 203.654 204.665 203.069 201.396 202.772C200.766 202.716 200.118 202.67 199.497 202.828C198.46 203.088 197.618 203.868 197.053 204.787C196.173 206.226 195.562 208.167 195.553 209.857C195.543 212.058 196.83 214.101 198.507 215.512C200.183 216.924 202.229 217.815 204.248 218.679" stroke="black" stroke-width="0.5" stroke-miterlimit="10" stroke-linecap="round"/>
<path d="M223.619 227.649C222.508 228.986 221.86 229.432 220.388 230.36C211.47 235.997 201.709 240.175 192.264 244.967C182.151 250.083 170.168 252.052 159.436 255.58C149.166 258.951 141.035 265.553 132.942 272.796C115.319 288.564 100.956 307.507 85.4727 325.28C77.0179 334.993 67.1293 342.83 57.4059 343.294C40.2741 343.294 33.3288 339.116 12.0299 324.723C-1.39774 311.258 -1.49599 302.901 6.01054 290.83C11.4557 282.073 18.0491 270.401 26.3834 263.436C30.8412 259.711 39.6906 253.324 43.5151 250.436C50.5438 245.106 61.0266 239.516 68.0552 234.186C81.4921 223.999 95.5017 214.964 107.837 203.45C113.772 197.915 119.829 193.7 122.774 185.686C124.237 181.721 124.848 177.477 126.283 173.503C127.941 168.934 130.645 164.83 133.321 160.772C135.534 157.429 137.738 154.077 139.952 150.734C143.665 145.116 147.48 139.387 152.814 135.292" stroke="black" stroke-width="0.5" stroke-miterlimit="10" stroke-linecap="round"/>
<path d="M160.085 131.401C160.678 131.057 161.261 130.723 161.854 130.398C161.937 130.324 162.021 130.25 162.113 130.185C163.965 128.931 166.132 127.928 168.318 126.99C170.707 125.811 173.142 124.715 175.652 123.712C176.708 123.294 177.8 122.886 178.912 122.663C181.06 121.883 183.227 121.122 185.366 120.286C189.061 118.837 193.136 119.896 197.043 120.277C200.183 120.574 203.359 120.871 206.471 120.453C210.332 119.924 215.027 118.837 217.37 122.988C218.629 125.207 218.491 128.021 217.407 130.305C215.416 134.549 210.638 137.604 206.332 139.015C202.581 140.241 198.701 139.86 194.765 139.582C191.709 139.359 188.996 137.994 185.959 138.393" stroke="black" stroke-width="0.5" stroke-miterlimit="10" stroke-linecap="round"/>
<path d="M204.081 218.493C207.221 220.044 210.656 221.641 214.092 220.991" stroke="black" stroke-width="0.5" stroke-miterlimit="10"/>
<path d="M207.98 203.654C207.721 204.648 207.424 205.641 207.091 206.616C206.887 207.22 206.656 207.833 206.248 208.334C205.563 209.17 204.424 209.578 203.304 209.671C200.84 209.876 198.451 208.733 196.229 207.628" stroke="black" stroke-width="0.5" stroke-miterlimit="10"/>
<path d="M190.469 136.685C187.626 137.873 184.773 139.062 181.93 140.25" stroke="black" stroke-width="0.5" stroke-miterlimit="10" stroke-linecap="round"/>
<path d="M150.973 256.611C148.945 257.791 146.926 258.961 144.898 260.14" stroke="#222221" stroke-width="0.5" stroke-miterlimit="10"/>
<path d="M140.731 262.684C135.397 266.436 130.369 270.633 125.729 275.22" stroke="#222221" stroke-width="0.5" stroke-miterlimit="10"/>
<path d="M144.259 257.883C142.657 258.515 141.138 259.388 139.786 260.456" stroke="#222221" stroke-width="0.5" stroke-miterlimit="10"/>
<path d="M108.764 209.467C106.208 211.501 103.643 213.525 101.087 215.559" stroke="#222221" stroke-width="0.5" stroke-miterlimit="10"/>
<path d="M238.864 191.88C240.493 193.514 241.243 195.975 240.827 198.24" stroke="#222221" stroke-width="0.5" stroke-miterlimit="10"/>
<path d="M157.965 132.757C157.122 133.305 156.279 133.862 155.436 134.41" stroke="#222221" stroke-width="0.5" stroke-miterlimit="10"/>
<path d="M156.557 137.14C154.177 138.449 151.973 140.083 150.019 141.978" stroke="#222221" stroke-width="0.5" stroke-miterlimit="10"/>
<path d="M147.936 144.058C147.454 144.596 146.972 145.125 146.5 145.664" stroke="#222221" stroke-width="0.5" stroke-miterlimit="10"/>
<path d="M204.517 121.967C205.443 122.579 206.489 122.997 207.582 123.202" stroke="#222221" stroke-width="0.5" stroke-miterlimit="10"/>
<path d="M258.903 171.469C258.07 171.804 257.31 172.287 256.653 172.899" stroke="black" stroke-width="0.5" stroke-miterlimit="10" stroke-linecap="round"/>
<path d="M258.894 172.899C258.403 173.039 257.958 173.327 257.625 173.717" stroke="black" stroke-width="0.5" stroke-miterlimit="10" stroke-linecap="round"/>
<path d="M240.836 200.172C240.836 200.757 240.836 201.351 240.836 201.936" stroke="black" stroke-width="0.5" stroke-miterlimit="10" stroke-linecap="round"/>
<path d="M137.564 261.756C137.138 262.081 136.712 262.396 136.286 262.721" stroke="black" stroke-width="0.5" stroke-miterlimit="10" stroke-linecap="round"/>
<path d="M186.153 230.954C187.542 229.459 188.922 227.964 190.311 226.469" stroke="black" stroke-width="0.5" stroke-miterlimit="10" stroke-linecap="round"/>
<path d="M127.59 201.193C130.072 202.967 132.554 204.741 135.036 206.514" stroke="black" stroke-width="0.5" stroke-miterlimit="10" stroke-linecap="round"/>
<path d="M136.406 207.526C136.897 208.056 137.471 208.492 138.11 208.826" stroke="black" stroke-width="0.5" stroke-miterlimit="10" stroke-linecap="round"/>
<path d="M132.823 206.672C133.424 207.108 134.017 207.554 134.619 207.991" stroke="black" stroke-width="0.5" stroke-miterlimit="10" stroke-linecap="round"/>
<path d="M281.415 126.935C282.249 127.65 283.147 128.476 283.295 129.572C283.443 130.705 282.758 131.754 282.1 132.682" stroke="black" stroke-width="0.5" stroke-miterlimit="10" stroke-linecap="round"/>
</svg>
