<svg width="2459" height="2459" viewBox="0 0 2459 2459" fill="none" xmlns="http://www.w3.org/2000/svg">
<path d="M2189.58 1229.87C2189.58 1759.96 1759.95 2189.59 1229.86 2189.59C699.769 2189.59 270.137 1759.96 270.137 1229.87C270.137 699.782 699.769 270.15 1229.86 270.15C1759.95 270.15 2189.58 699.782 2189.58 1229.87Z" fill="#D6496F"/>
<path d="M889.129 332.466C1000.99 289.9 1122.66 267.721 1249.65 270.345C1376.65 272.969 1497.3 300.099 1607.26 347.216L1229.86 1229.87L889.129 332.466Z" fill="#AACAF7"/>
<path d="M1229.86 1229.87L2127.26 889.142C2169.83 1001.01 2192.01 1122.67 2189.38 1249.66C2186.76 1376.66 2159.63 1497.31 2112.51 1607.27L1229.86 1229.87Z" fill="#AACAF7"/>
<path d="M2127.26 889.141L1229.86 1229.87L1607.26 347.216C1846.35 449.54 2034.99 646.018 2127.26 889.141Z" fill="#FFD680"/>
<path d="M270.334 1210.08C272.958 1083.08 300.088 962.433 347.205 852.47L1229.86 1229.87L332.455 1570.6C289.888 1458.74 267.709 1337.07 270.334 1210.08Z" fill="white"/>
<path d="M1229.86 1229.87L347.205 852.471C449.477 613.304 645.932 424.794 889.129 332.468L1229.86 1229.87Z" fill="#C73D30"/>
<path d="M852.457 2112.53L1229.86 1229.87L1570.59 2127.28C1458.72 2169.84 1337.06 2192.02 1210.07 2189.4C1083.07 2186.77 962.495 2159.59 852.457 2112.53Z" fill="#AACAF7"/>
<path d="M1570.59 2127.28L1229.86 1229.87L2112.51 1607.27C2010.19 1846.37 1813.71 2035 1570.59 2127.28Z" fill="white"/>
<path d="M332.455 1570.6L1229.86 1229.87L852.458 2112.53C613.365 2010.2 424.73 1813.72 332.455 1570.6Z" fill="#FFD680"/>
<path fill-rule="evenodd" clip-rule="evenodd" d="M1294.52 1225.63C1296.39 1287.05 1347.99 1335.32 1409.75 1333.43C1475.46 1331.42 1592.74 1216.52 1592.74 1216.52C1592.74 1216.52 1468.66 1108.98 1402.95 1110.98C1341.19 1112.87 1292.64 1164.2 1294.52 1225.63Z" fill="black"/>
<path opacity="0.11" d="M1229.86 2025.81C1669.44 2025.81 2025.8 1669.46 2025.8 1229.87C2025.8 790.286 1669.44 433.931 1229.86 433.931C790.272 433.931 433.917 790.286 433.917 1229.87C433.917 1669.46 790.272 2025.81 1229.86 2025.81Z" fill="white"/>
<path d="M1229.86 1462.18C1358.16 1462.18 1462.16 1358.17 1462.16 1229.87C1462.16 1101.57 1358.16 997.565 1229.86 997.565C1101.56 997.565 997.551 1101.57 997.551 1229.87C997.551 1358.17 1101.56 1462.18 1229.86 1462.18Z" fill="white"/>
<path d="M1229.86 1427.2C1338.84 1427.2 1427.18 1338.85 1427.18 1229.87C1427.18 1120.89 1338.84 1032.54 1229.86 1032.54C1120.88 1032.54 1032.53 1120.89 1032.53 1229.87C1032.53 1338.85 1120.88 1427.2 1229.86 1427.2Z" fill="#DB7444"/>
<path d="M1160.92 1232.22C1160.92 1231.31 1160.78 1230.49 1160.5 1229.76C1160.24 1229.01 1159.75 1228.33 1159.03 1227.72C1158.3 1227.09 1157.28 1226.47 1155.97 1225.86C1154.65 1225.25 1152.96 1224.61 1150.87 1223.96C1148.55 1223.21 1146.35 1222.36 1144.26 1221.43C1142.2 1220.49 1140.37 1219.4 1138.78 1218.16C1137.21 1216.89 1135.96 1215.43 1135.05 1213.76C1134.16 1212.1 1133.71 1210.17 1133.71 1207.96C1133.71 1205.83 1134.18 1203.9 1135.12 1202.16C1136.06 1200.4 1137.37 1198.9 1139.06 1197.66C1140.74 1196.4 1142.74 1195.42 1145.03 1194.74C1147.35 1194.06 1149.9 1193.72 1152.66 1193.72C1156.44 1193.72 1159.73 1194.4 1162.54 1195.76C1165.35 1197.12 1167.53 1198.99 1169.08 1201.35C1170.65 1203.72 1171.44 1206.43 1171.44 1209.47H1160.96C1160.96 1207.97 1160.64 1206.66 1160.01 1205.54C1159.4 1204.39 1158.46 1203.49 1157.2 1202.83C1155.96 1202.17 1154.39 1201.84 1152.49 1201.84C1150.66 1201.84 1149.14 1202.13 1147.92 1202.69C1146.7 1203.23 1145.78 1203.97 1145.17 1204.9C1144.56 1205.82 1144.26 1206.85 1144.26 1208C1144.26 1208.86 1144.47 1209.65 1144.89 1210.35C1145.34 1211.06 1145.99 1211.71 1146.86 1212.32C1147.73 1212.93 1148.8 1213.51 1150.06 1214.04C1151.33 1214.58 1152.79 1215.11 1154.46 1215.63C1157.24 1216.47 1159.69 1217.42 1161.8 1218.47C1163.94 1219.53 1165.72 1220.71 1167.15 1222.02C1168.58 1223.34 1169.65 1224.83 1170.38 1226.49C1171.11 1228.15 1171.47 1230.04 1171.47 1232.15C1171.47 1234.38 1171.04 1236.37 1170.17 1238.13C1169.3 1239.88 1168.05 1241.37 1166.41 1242.59C1164.77 1243.81 1162.81 1244.74 1160.54 1245.37C1158.26 1246 1155.72 1246.32 1152.91 1246.32C1150.38 1246.32 1147.88 1245.99 1145.42 1245.33C1142.96 1244.65 1140.72 1243.63 1138.71 1242.27C1136.71 1240.92 1135.12 1239.18 1133.92 1237.07C1132.73 1234.96 1132.13 1232.47 1132.13 1229.58H1142.71C1142.71 1231.18 1142.96 1232.52 1143.45 1233.63C1143.94 1234.73 1144.64 1235.62 1145.53 1236.3C1146.44 1236.98 1147.52 1237.47 1148.76 1237.77C1150.03 1238.08 1151.41 1238.23 1152.91 1238.23C1154.74 1238.23 1156.24 1237.97 1157.41 1237.46C1158.6 1236.94 1159.48 1236.23 1160.05 1235.31C1160.63 1234.4 1160.92 1233.37 1160.92 1232.22ZM1198.58 1227.37H1185.53V1219.14H1198.58C1200.59 1219.14 1202.23 1218.81 1203.5 1218.16C1204.76 1217.48 1205.69 1216.54 1206.28 1215.34C1206.86 1214.15 1207.15 1212.8 1207.15 1211.3C1207.15 1209.78 1206.86 1208.36 1206.28 1207.05C1205.69 1205.74 1204.76 1204.68 1203.5 1203.88C1202.23 1203.09 1200.59 1202.69 1198.58 1202.69H1189.19V1245.61H1178.64V1194.43H1198.58C1202.58 1194.43 1206.02 1195.15 1208.88 1196.61C1211.76 1198.04 1213.96 1200.02 1215.49 1202.55C1217.01 1205.08 1217.77 1207.97 1217.77 1211.23C1217.77 1214.54 1217.01 1217.4 1215.49 1219.81C1213.96 1222.22 1211.76 1224.09 1208.88 1225.4C1206.02 1226.71 1202.58 1227.37 1198.58 1227.37ZM1236.26 1194.43V1245.61H1225.75V1194.43H1236.26ZM1287.8 1194.43V1245.61H1277.26L1256.69 1211.3V1245.61H1246.14V1194.43H1256.69L1277.29 1228.77V1194.43H1287.8Z" fill="white"/>
<path fill-rule="evenodd" clip-rule="evenodd" d="M1229.98 2257.13C1797.26 2257.13 2257.13 1797.25 2257.13 1229.97C2257.13 662.692 1797.26 202.82 1229.98 202.82C662.695 202.82 202.822 662.692 202.822 1229.97C202.822 1797.25 662.695 2257.13 1229.98 2257.13ZM1229.98 2188.65C1759.44 2188.65 2188.65 1759.44 2188.65 1229.97C2188.65 700.511 1759.44 271.297 1229.98 271.297C700.513 271.297 271.299 700.511 271.299 1229.97C271.299 1759.44 700.513 2188.65 1229.98 2188.65Z" fill="white"/>
</svg>
