<svg width="718" height="383" viewBox="0 0 718 383" fill="none" xmlns="http://www.w3.org/2000/svg">
<path d="M41.7349 380.903C41.7349 380.903 -41.8799 293.502 27.5942 198.879C89.2357 114.922 161.103 120.662 213.831 154.732C236.287 169.243 320.18 157.352 393.54 86.109C471.642 10.2633 680.55 47.519 644.307 204.489C624.127 291.887 714.262 294.38 666.905 381.086L41.7349 380.903Z" fill="#FCECDB"/>
<path d="M717.035 6.55316L601.614 44.7236L624.788 64.0357L524.915 168.585L437.372 93.4172L87.9282 379.744L91.0042 379.79H178.056L436.514 168.019L528.805 247.262L668.793 100.713H668.795L693.806 121.557L717.035 6.55316Z" fill="#699DEE"/>
<path d="M307.735 310.126L281.222 307.845C281.222 307.845 282.754 291.499 278.09 269.697C274.648 253.592 267.825 234.512 254.512 216.839C231.804 186.704 164.359 169.843 164.359 169.843V165.943L166.784 165.68C166.784 165.68 165.74 164.95 164.359 164.528V155.305C166.352 155.276 169.206 155.395 172.024 156.056C170.443 155.664 167.074 154.89 164.359 154.681V149.831C262.061 152.444 293.926 211.458 303.91 257.132C310.304 286.362 307.735 310.126 307.735 310.126Z" fill="#82B378"/>
<path d="M423.773 301.547L307.735 310.126C307.135 292.253 302.471 273.77 297.958 259.757C293.448 245.745 289.084 236.2 289.084 236.2C254.37 160.137 164.359 149.829 164.359 149.829L264.264 108.914C312.526 112.546 346.386 135.725 370.069 164.828C416.451 221.83 423.773 301.547 423.773 301.547Z" fill="#A8D29F"/>
<path opacity="0.5" d="M423.773 301.547L307.735 310.126L281.222 307.845C281.222 307.845 282.754 291.499 278.09 269.697C283.618 266.367 290.192 263.042 297.958 259.757C299.998 258.893 301.981 258.017 303.908 257.129C377.79 223.03 370.909 169.912 370.065 164.831C416.451 221.83 423.773 301.547 423.773 301.547Z" fill="#82B378"/>
<path d="M414.648 310.482L311.238 308.482L311.604 306.491C311.66 306.189 316.97 275.871 304.571 241.398C297.307 221.203 285.466 203.535 269.374 188.885C249.216 170.531 222.276 156.874 189.304 148.285L184.225 146.963L264.937 114.842L265.247 114.834C266.12 114.815 286.908 114.5 313.631 127.138C329.294 134.547 343.715 144.897 356.49 157.903C372.431 174.129 385.839 194.556 396.346 218.613C397.175 220.462 416.819 264.56 415.78 291.038L415.777 291.07L414.648 310.482ZM315.292 305.118L411.406 306.977L412.343 290.885C412.755 280.308 409.584 264.716 403.173 245.792C398.304 231.414 393.25 220.113 393.199 220.001C382.876 196.361 369.733 176.315 354.126 160.403C341.659 147.692 327.596 137.571 312.328 130.324C295.763 122.462 281.32 119.723 272.958 118.771C268.567 118.271 264.125 118.864 260.02 120.496L204.081 142.757C201.164 143.918 201.313 148.09 204.301 149.053C231.504 157.813 254.151 170.343 271.767 186.406C288.277 201.459 300.422 219.618 307.859 240.379C314.472 258.832 316.06 275.966 316.229 287.087C316.363 295.722 315.702 302.079 315.292 305.118Z" fill="#82B378"/>
<path d="M359.004 191.663C359.004 208.699 349.023 218.993 331.989 218.993C314.953 218.993 297.312 208.699 297.312 191.663C297.312 174.627 306.747 164.438 323.783 164.438C340.819 164.438 359.004 174.627 359.004 191.663Z" fill="#82B378"/>
<path d="M513.897 365.642V375.822C513.897 376.634 513.651 377.385 513.226 378.012C512.78 378.671 512.139 379.19 511.385 379.481C511.156 379.571 510.914 379.639 510.668 379.683C510.443 379.725 510.212 379.746 509.977 379.746H347.836C345.745 379.746 344.023 378.09 343.918 376.024C343.916 375.956 343.914 375.89 343.914 375.822V365.642C343.914 365.577 343.916 365.508 343.918 365.44C344.026 363.376 345.745 361.72 347.836 361.72H509.977C510.214 361.72 510.443 361.742 510.668 361.783C510.914 361.827 511.156 361.893 511.385 361.986C512.139 362.276 512.78 362.796 513.226 363.454C513.651 364.081 513.897 364.833 513.897 365.642Z" fill="#FFB93E"/>
<path d="M434.277 379.746H347.411C345.545 379.746 344.008 378.09 343.913 376.024C343.91 375.956 343.908 375.89 343.908 375.822V365.642C343.908 365.577 343.91 365.508 343.913 365.44C344.008 363.376 345.545 361.72 347.411 361.72H423.608C424.825 367.028 427.662 374.365 434.277 379.746Z" fill="#FFA412"/>
<path d="M494.165 361.72H492.323V379.746H494.165V361.72Z" fill="#FFA412"/>
<path d="M487.93 361.72H486.086V379.746H487.93V361.72Z" fill="#FFA412"/>
<path d="M480.449 361.72H478.607V379.746H480.449V361.72Z" fill="#FFA412"/>
<path d="M468.981 361.72H467.14V379.746H468.981V361.72Z" fill="#FFA412"/>
<path d="M456.855 361.72H455.014V379.746H456.855V361.72Z" fill="#FFA412"/>
<path d="M438.268 361.72H436.426V379.746H438.268V361.72Z" fill="#FFA412"/>
<path d="M420.866 361.72H419.022V379.746H420.866V361.72Z" fill="#FFA412"/>
<path d="M405.325 361.72H403.483V379.746H405.325V361.72Z" fill="#FFA412"/>
<path d="M500.105 361.72H498.263V379.746H500.105V361.72Z" fill="#FFA412"/>
<path d="M504.027 361.72H502.185V379.746H504.027V361.72Z" fill="#FFA412"/>
<path d="M507.813 361.72H505.971V379.746H507.813V361.72Z" fill="#FFA412"/>
<path d="M510.664 361.783V379.683C510.44 379.725 510.208 379.746 509.974 379.746H508.823V361.722H509.974C510.211 361.72 510.44 361.742 510.664 361.783Z" fill="#FFA412"/>
<path d="M513.223 363.454V378.015C512.777 378.673 512.135 379.193 511.382 379.483V361.986C512.135 362.276 512.777 362.793 513.223 363.454Z" fill="#FFA412"/>
<path d="M496.56 347.619V357.798C496.56 358.611 496.314 359.362 495.887 359.989C495.44 360.648 494.799 361.167 494.045 361.457C493.816 361.548 493.574 361.616 493.328 361.66C493.104 361.701 492.872 361.723 492.638 361.723H330.496C328.406 361.723 326.684 360.067 326.576 358.001C326.574 357.933 326.572 357.867 326.572 357.798V347.619C326.572 347.553 326.574 347.485 326.576 347.417C326.684 345.353 328.403 343.697 330.496 343.697H492.638C492.743 343.697 492.845 343.702 492.948 343.709C492.991 343.711 493.038 343.716 493.079 343.724C493.128 343.728 493.177 343.733 493.223 343.743C493.257 343.748 493.294 343.755 493.328 343.76C493.574 343.804 493.816 343.87 494.045 343.963C494.079 343.975 494.111 343.989 494.148 344.004C494.179 344.016 494.216 344.033 494.248 344.048C494.314 344.08 494.379 344.111 494.445 344.143C494.482 344.163 494.521 344.185 494.558 344.207C494.592 344.226 494.623 344.243 494.657 344.265C494.721 344.302 494.782 344.341 494.843 344.382C494.911 344.431 494.98 344.48 495.045 344.531C495.097 344.57 495.148 344.612 495.197 344.655C495.199 344.658 495.204 344.66 495.206 344.663C495.238 344.692 495.275 344.721 495.306 344.753C495.406 344.843 495.502 344.943 495.589 345.046C495.619 345.075 495.643 345.107 495.667 345.136C495.692 345.165 495.716 345.199 495.743 345.231C495.792 345.297 495.843 345.363 495.887 345.431C496.314 346.056 496.56 346.807 496.56 347.619Z" fill="#FFB93E"/>
<path d="M416.941 361.72H330.074C328.206 361.72 326.672 360.064 326.576 357.998C326.574 357.929 326.572 357.863 326.572 357.795V347.616C326.572 347.55 326.574 347.482 326.576 347.413C326.672 345.35 328.206 343.693 330.074 343.693H406.271C406.305 343.84 406.342 343.989 406.376 344.137C407.65 349.406 410.506 356.49 416.941 361.72Z" fill="#FFA412"/>
<path d="M476.828 343.696H474.987V361.722H476.828V343.696Z" fill="#FFA412"/>
<path d="M470.591 343.696H468.75V361.722H470.591V343.696Z" fill="#FFA412"/>
<path d="M463.112 343.696H461.271V361.722H463.112V343.696Z" fill="#FFA412"/>
<path d="M451.645 343.696H449.803V361.722H451.645V343.696Z" fill="#FFA412"/>
<path d="M439.522 343.696H437.68V361.722H439.522V343.696Z" fill="#FFA412"/>
<path d="M420.932 343.696H419.09V361.722H420.932V343.696Z" fill="#FFA412"/>
<path d="M403.53 343.696H401.688V361.722H403.53V343.696Z" fill="#FFA412"/>
<path d="M387.989 343.696H386.147V361.722H387.989V343.696Z" fill="#FFA412"/>
<path d="M482.771 343.696H480.927V361.722H482.771V343.696Z" fill="#FFA412"/>
<path d="M486.691 343.696H484.849V361.722H486.691V343.696Z" fill="#FFA412"/>
<path d="M490.479 343.696H488.637V361.722H490.479V343.696Z" fill="#FFA412"/>
<path d="M493.328 343.757V361.657C493.104 361.698 492.872 361.72 492.638 361.72H491.486V343.696H492.638C492.874 343.696 493.104 343.715 493.328 343.757Z" fill="#FFA412"/>
<path d="M495.889 345.428V359.988C495.443 360.647 494.801 361.166 494.048 361.457V343.962C494.799 344.25 495.441 344.769 495.889 345.428Z" fill="#FFA412"/>
<path d="M504.937 330.039V340.219C504.937 341.031 504.691 341.782 504.264 342.409C503.817 343.068 503.176 343.587 502.422 343.878C502.193 343.97 501.951 344.036 501.705 344.08C501.48 344.121 501.249 344.143 501.012 344.143H338.871C338.219 344.143 337.605 343.982 337.063 343.699C335.917 343.099 335.097 341.946 334.965 340.599C334.958 340.541 334.956 340.482 334.953 340.423C334.951 340.355 334.948 340.289 334.948 340.221V330.042C334.948 329.973 334.951 329.908 334.953 329.839C335.06 327.776 336.78 326.117 338.871 326.117H501.012C501.249 326.117 501.478 326.139 501.705 326.18C501.951 326.224 502.193 326.29 502.422 326.383C503.173 326.673 503.815 327.193 504.264 327.851C504.691 328.476 504.937 329.227 504.937 330.039Z" fill="#FFB93E"/>
<path d="M425.318 344.14H338.452C337.871 344.14 337.322 343.979 336.839 343.696C335.812 343.096 335.083 341.942 334.968 340.595C334.961 340.537 334.958 340.478 334.956 340.42C334.954 340.352 334.951 340.286 334.951 340.217V330.038C334.951 329.97 334.954 329.904 334.956 329.836C335.051 327.772 336.588 326.113 338.454 326.113H414.653C415.836 331.275 418.551 338.359 424.786 343.693C424.959 343.845 425.138 343.991 425.318 344.14Z" fill="#FFA412"/>
<path d="M485.207 326.113H483.366V344.14H485.207V326.113Z" fill="#FFA412"/>
<path d="M478.97 326.113H477.129V344.14H478.97V326.113Z" fill="#FFA412"/>
<path d="M471.489 326.113H469.647V344.14H471.489V326.113Z" fill="#FFA412"/>
<path d="M460.024 326.113H458.182V344.14H460.024V326.113Z" fill="#FFA412"/>
<path d="M447.898 326.113H446.057V344.14H447.898V326.113Z" fill="#FFA412"/>
<path d="M429.311 326.113H427.469V344.14H429.311V326.113Z" fill="#FFA412"/>
<path d="M411.906 326.113H410.064V344.14H411.906V326.113Z" fill="#FFA412"/>
<path d="M396.365 326.113H394.524V344.14H396.365V326.113Z" fill="#FFA412"/>
<path d="M491.145 326.113H489.303V344.14H491.145V326.113Z" fill="#FFA412"/>
<path d="M495.067 326.113H493.226V344.14H495.067V326.113Z" fill="#FFA412"/>
<path d="M498.856 326.113H497.014V344.14H498.856V326.113Z" fill="#FFA412"/>
<path d="M501.707 326.177V344.076C501.483 344.118 501.251 344.14 501.014 344.14H499.863V326.116H501.014C501.251 326.113 501.48 326.135 501.707 326.177Z" fill="#FFA412"/>
<path d="M504.266 327.848V342.408C503.82 343.067 503.178 343.586 502.424 343.876V326.379C503.178 326.669 503.82 327.187 504.266 327.848Z" fill="#FFA412"/>
<path d="M508.823 312.013V322.192C508.823 323.004 508.576 323.756 508.149 324.383C507.703 325.041 507.061 325.561 506.308 325.851C506.078 325.941 505.837 326.01 505.591 326.053C505.366 326.095 505.134 326.117 504.898 326.117H342.756C340.666 326.117 338.944 324.461 338.839 322.397C338.836 322.329 338.834 322.263 338.834 322.194V312.015C338.834 311.947 338.836 311.881 338.839 311.813C338.936 309.903 340.417 308.344 342.293 308.12C342.444 308.1 342.598 308.09 342.756 308.09H504.898C505.134 308.09 505.364 308.112 505.591 308.154C505.837 308.198 506.078 308.264 506.308 308.356C507.059 308.647 507.703 309.166 508.149 309.825C508.574 310.449 508.823 311.203 508.823 312.013Z" fill="#FFB93E"/>
<path d="M429.201 326.113H342.337C340.471 326.113 338.934 324.457 338.839 322.393C338.837 322.325 338.834 322.259 338.834 322.191V312.012C338.834 311.943 338.837 311.877 338.839 311.809C338.927 309.902 340.249 308.34 341.922 308.116C342.057 308.096 342.196 308.087 342.337 308.087H418.534C418.536 308.096 418.539 308.106 418.541 308.116C419.761 313.419 422.598 320.742 429.201 326.113Z" fill="#FFA412"/>
<path d="M489.094 308.089H487.25V326.116H489.094V308.089Z" fill="#FFA412"/>
<path d="M482.854 308.089H481.012V326.116H482.854V308.089Z" fill="#FFA412"/>
<path d="M475.372 308.089H473.531V326.116H475.372V308.089Z" fill="#FFA412"/>
<path d="M463.908 308.089H462.066V326.116H463.908V308.089Z" fill="#FFA412"/>
<path d="M451.782 308.089H449.94V326.116H451.782V308.089Z" fill="#FFA412"/>
<path d="M433.197 308.089H431.353V326.116H433.197V308.089Z" fill="#FFA412"/>
<path d="M415.79 308.089H413.948V326.116H415.79V308.089Z" fill="#FFA412"/>
<path d="M400.251 308.089H398.407V326.116H400.251V308.089Z" fill="#FFA412"/>
<path d="M495.028 308.089H493.187V326.116H495.028V308.089Z" fill="#FFA412"/>
<path d="M498.951 308.089H497.109V326.116H498.951V308.089Z" fill="#FFA412"/>
<path d="M502.742 308.089H500.897V326.116H502.742V308.089Z" fill="#FFA412"/>
<path d="M505.591 308.15V326.05C505.366 326.091 505.134 326.113 504.898 326.113H503.747V308.089H504.898C505.134 308.089 505.366 308.111 505.591 308.15Z" fill="#FFA412"/>
<path d="M508.149 309.821V324.381C507.703 325.04 507.062 325.56 506.308 325.85V308.353C507.062 308.643 507.703 309.162 508.149 309.821Z" fill="#FFA412"/>
<path d="M496.902 294.015V304.194C496.902 305.004 496.656 305.758 496.231 306.384C495.785 307.043 495.144 307.563 494.39 307.853C494.16 307.946 493.919 308.011 493.673 308.055C493.597 308.068 493.521 308.082 493.446 308.09C493.404 308.094 493.36 308.099 493.319 308.102C493.277 308.107 493.233 308.109 493.192 308.111C493.121 308.116 493.053 308.119 492.985 308.119H330.843C328.753 308.119 327.031 306.463 326.926 304.396C326.923 304.328 326.921 304.262 326.921 304.194V294.015C326.921 293.946 326.923 293.88 326.926 293.812C326.928 293.756 326.933 293.702 326.936 293.649C327.092 291.988 328.297 290.617 329.875 290.214C329.914 290.204 329.955 290.195 329.994 290.185C330.268 290.124 330.551 290.092 330.843 290.092H492.985C493.104 290.092 493.221 290.1 493.336 290.107C493.387 290.114 493.441 290.117 493.492 290.124H493.494C493.555 290.134 493.616 290.143 493.677 290.153C493.924 290.197 494.165 290.263 494.395 290.356C495.148 290.646 495.79 291.163 496.236 291.824C496.653 292.451 496.902 293.205 496.902 294.015Z" fill="#FFB93E"/>
<path d="M417.282 308.119H330.418C328.552 308.119 327.016 306.463 326.92 304.397C326.918 304.329 326.916 304.263 326.916 304.194V294.015C326.916 293.947 326.918 293.881 326.92 293.813C326.923 293.757 326.928 293.703 326.93 293.649C327.072 291.952 328.191 290.559 329.648 290.19C329.696 290.176 329.748 290.164 329.799 290.156C329.999 290.115 330.206 290.093 330.418 290.093H406.615C406.625 290.137 406.635 290.178 406.647 290.222C407.876 295.508 410.713 302.755 417.248 308.09C417.258 308.1 417.27 308.11 417.282 308.119Z" fill="#FFA412"/>
<path d="M477.17 290.092H475.328V308.116H477.17V290.092Z" fill="#FFA412"/>
<path d="M470.935 290.092H469.091V308.116H470.935V290.092Z" fill="#FFA412"/>
<path d="M463.454 290.092H461.61V308.116H463.454V290.092Z" fill="#FFA412"/>
<path d="M451.987 290.092H450.145V308.116H451.987V290.092Z" fill="#FFA412"/>
<path d="M439.861 290.092H438.019V308.116H439.861V290.092Z" fill="#FFA412"/>
<path d="M421.273 290.092H419.431V308.116H421.273V290.092Z" fill="#FFA412"/>
<path d="M403.869 290.092H402.027V308.116H403.869V290.092Z" fill="#FFA412"/>
<path d="M388.33 290.093H386.489V308.117H388.33V290.093Z" fill="#FFA412"/>
<path d="M483.107 290.092H481.266V308.116H483.107V290.092Z" fill="#FFA412"/>
<path d="M487.03 290.092H485.188V308.116H487.03V290.092Z" fill="#FFA412"/>
<path d="M490.818 290.092H488.976V308.116H490.818V290.092Z" fill="#FFA412"/>
<path d="M493.67 290.153V308.053C493.445 308.094 493.213 308.116 492.977 308.116H491.825V290.089H492.977C493.216 290.092 493.445 290.114 493.67 290.153Z" fill="#FFA412"/>
<path d="M496.228 291.824V306.384C495.782 307.043 495.14 307.562 494.387 307.853V290.355C495.14 290.646 495.782 291.165 496.228 291.824Z" fill="#FFA412"/>
<path d="M496.561 276.117V286.296C496.561 287.106 496.315 287.86 495.888 288.487C495.441 289.145 494.8 289.665 494.046 289.955C493.866 290.026 493.678 290.082 493.488 290.124H493.483C493.431 290.136 493.38 290.148 493.329 290.155C493.105 290.197 492.873 290.219 492.639 290.219H330.497C330.327 290.219 330.153 290.207 329.99 290.185C329.924 290.177 329.861 290.167 329.797 290.155C328.034 289.836 326.673 288.326 326.58 286.499C326.577 286.433 326.575 286.365 326.575 286.296V276.117C326.575 276.049 326.577 275.983 326.58 275.915C326.687 273.851 328.407 272.192 330.5 272.192H492.641C492.746 272.192 492.848 272.197 492.951 272.204C492.995 272.209 493.041 272.214 493.083 272.217C493.131 272.221 493.18 272.226 493.227 272.236C493.261 272.241 493.297 272.246 493.331 272.253C493.578 272.297 493.819 272.363 494.049 272.456C494.083 272.468 494.115 272.482 494.151 272.497C494.183 272.509 494.219 272.524 494.251 272.541C494.319 272.57 494.383 272.604 494.449 272.636C494.519 272.675 494.593 272.714 494.661 272.758C494.724 272.795 494.785 272.834 494.846 272.875C494.915 272.924 494.983 272.973 495.049 273.024C495.1 273.063 495.151 273.105 495.2 273.148C495.202 273.151 495.207 273.153 495.21 273.158C495.241 273.187 495.278 273.217 495.31 273.246C495.41 273.336 495.505 273.436 495.593 273.539C495.622 273.568 495.646 273.6 495.671 273.629C495.695 273.661 495.72 273.692 495.746 273.724C495.795 273.79 495.846 273.856 495.89 273.924C496.315 274.553 496.561 275.307 496.561 276.117Z" fill="#FFB93E"/>
<path d="M416.941 290.221H330.074C330.004 290.221 329.935 290.219 329.869 290.214C329.794 290.209 329.721 290.202 329.645 290.189C327.974 289.96 326.664 288.401 326.576 286.499C326.574 286.433 326.572 286.365 326.572 286.296V276.117C326.572 276.049 326.574 275.983 326.576 275.915C326.672 273.851 328.206 272.192 330.074 272.192H406.271C406.305 272.339 406.342 272.487 406.376 272.636C407.637 277.859 410.46 284.869 416.785 290.089C416.836 290.136 416.89 290.177 416.941 290.221Z" fill="#FFA412"/>
<path d="M476.828 272.195H474.987V290.219H476.828V272.195Z" fill="#FFA412"/>
<path d="M470.591 272.195H468.75V290.219H470.591V272.195Z" fill="#FFA412"/>
<path d="M463.112 272.195H461.271V290.219H463.112V272.195Z" fill="#FFA412"/>
<path d="M451.645 272.195H449.803V290.219H451.645V272.195Z" fill="#FFA412"/>
<path d="M439.522 272.195H437.68V290.219H439.522V272.195Z" fill="#FFA412"/>
<path d="M420.932 272.195H419.09V290.219H420.932V272.195Z" fill="#FFA412"/>
<path d="M403.53 272.195H401.688V290.219H403.53V272.195Z" fill="#FFA412"/>
<path d="M387.989 272.195H386.147V290.219H387.989V272.195Z" fill="#FFA412"/>
<path d="M482.771 272.195H480.927V290.219H482.771V272.195Z" fill="#FFA412"/>
<path d="M486.691 272.195H484.849V290.219H486.691V272.195Z" fill="#FFA412"/>
<path d="M490.479 272.195H488.637V290.219H490.479V272.195Z" fill="#FFA412"/>
<path d="M493.328 272.258V290.158C493.104 290.199 492.872 290.221 492.638 290.221H491.486V272.195H492.638C492.874 272.195 493.104 272.217 493.328 272.258Z" fill="#FFA412"/>
<path d="M495.889 273.927V288.487C495.443 289.145 494.801 289.665 494.048 289.955V272.458C494.799 272.751 495.441 273.268 495.889 273.927Z" fill="#FFA412"/>
<path d="M504.937 258.538V268.717C504.937 269.529 504.691 270.281 504.264 270.908C503.817 271.566 503.176 272.086 502.422 272.376C502.193 272.466 501.951 272.535 501.705 272.579C501.48 272.62 501.249 272.642 501.012 272.642H338.871C338.219 272.642 337.605 272.481 337.063 272.198C335.917 271.598 335.097 270.444 334.965 269.098C334.958 269.039 334.956 268.981 334.953 268.922C334.951 268.854 334.948 268.788 334.948 268.72V258.54C334.948 258.474 334.951 258.406 334.953 258.338C335.06 256.274 336.78 254.615 338.871 254.615H501.012C501.249 254.615 501.478 254.637 501.705 254.679C501.951 254.723 502.193 254.789 502.422 254.881C503.173 255.172 503.815 255.691 504.264 256.35C504.691 256.974 504.937 257.726 504.937 258.538Z" fill="#FFB93E"/>
<path d="M425.318 272.639H338.452C337.871 272.639 337.322 272.478 336.839 272.195C335.812 271.595 335.083 270.441 334.968 269.094C334.961 269.036 334.958 268.977 334.956 268.919C334.954 268.85 334.951 268.784 334.951 268.716V258.537C334.951 258.471 334.954 258.403 334.956 258.334C335.051 256.271 336.588 254.612 338.454 254.612H414.653C415.836 259.774 418.551 266.857 424.786 272.192C424.959 272.343 425.138 272.492 425.318 272.639Z" fill="#FFA412"/>
<path d="M485.207 254.614H483.366V272.639H485.207V254.614Z" fill="#FFA412"/>
<path d="M478.97 254.614H477.129V272.639H478.97V254.614Z" fill="#FFA412"/>
<path d="M471.489 254.614H469.647V272.639H471.489V254.614Z" fill="#FFA412"/>
<path d="M460.024 254.614H458.182V272.639H460.024V254.614Z" fill="#FFA412"/>
<path d="M447.898 254.614H446.057V272.639H447.898V254.614Z" fill="#FFA412"/>
<path d="M429.311 254.614H427.469V272.639H429.311V254.614Z" fill="#FFA412"/>
<path d="M411.906 254.614H410.064V272.639H411.906V254.614Z" fill="#FFA412"/>
<path d="M396.365 254.614H394.524V272.639H396.365V254.614Z" fill="#FFA412"/>
<path d="M491.145 254.614H489.303V272.639H491.145V254.614Z" fill="#FFA412"/>
<path d="M495.067 254.614H493.226V272.639H495.067V254.614Z" fill="#FFA412"/>
<path d="M498.856 254.614H497.014V272.639H498.856V254.614Z" fill="#FFA412"/>
<path d="M501.707 254.678V272.578C501.483 272.619 501.251 272.641 501.014 272.641H499.863V254.614H501.014C501.251 254.614 501.48 254.636 501.707 254.678Z" fill="#FFA412"/>
<path d="M504.266 256.346V270.907C503.82 271.565 503.178 272.085 502.424 272.375V254.878C503.178 255.168 503.82 255.688 504.266 256.346Z" fill="#FFA412"/>
<path d="M518.188 240.51V250.69C518.188 251.502 517.942 252.253 517.517 252.88C517.071 253.539 516.429 254.058 515.676 254.349C515.446 254.439 515.205 254.507 514.958 254.551C514.734 254.593 514.502 254.614 514.268 254.614H352.127C350.036 254.614 348.314 252.958 348.209 250.895C348.207 250.826 348.204 250.76 348.204 250.692V240.513C348.204 240.445 348.207 240.379 348.209 240.31C348.307 238.403 349.788 236.842 351.663 236.617C351.815 236.598 351.971 236.588 352.127 236.588H514.268C514.505 236.588 514.734 236.61 514.958 236.651C515.205 236.695 515.446 236.761 515.676 236.854C516.429 237.144 517.071 237.664 517.517 238.322C517.942 238.947 518.188 239.701 518.188 240.51Z" fill="#FFB93E"/>
<path d="M438.568 254.614H351.704C349.838 254.614 348.301 252.958 348.206 250.895C348.203 250.826 348.201 250.76 348.201 250.692V240.513C348.201 240.445 348.203 240.379 348.206 240.31C348.294 238.403 349.616 236.842 351.289 236.617C351.423 236.598 351.562 236.588 351.704 236.588H427.901C427.903 236.598 427.906 236.607 427.908 236.617C429.128 241.92 431.965 249.243 438.568 254.614Z" fill="#FFA412"/>
<path d="M498.458 236.588H496.616V254.612H498.458V236.588Z" fill="#FFA412"/>
<path d="M492.221 236.588H490.379V254.612H492.221V236.588Z" fill="#FFA412"/>
<path d="M484.739 236.588H482.897V254.612H484.739V236.588Z" fill="#FFA412"/>
<path d="M473.274 236.588H471.433V254.612H473.274V236.588Z" fill="#FFA412"/>
<path d="M461.149 236.588H459.307V254.612H461.149V236.588Z" fill="#FFA412"/>
<path d="M442.561 236.588H440.719V254.612H442.561V236.588Z" fill="#FFA412"/>
<path d="M425.157 236.588H423.315V254.612H425.157V236.588Z" fill="#FFA412"/>
<path d="M409.616 236.588H407.774V254.612H409.616V236.588Z" fill="#FFA412"/>
<path d="M504.398 236.588H502.554V254.612H504.398V236.588Z" fill="#FFA412"/>
<path d="M508.318 236.588H506.476V254.612H508.318V236.588Z" fill="#FFA412"/>
<path d="M512.106 236.588H510.264V254.612H512.106V236.588Z" fill="#FFA412"/>
<path d="M514.957 236.651V254.551C514.733 254.593 514.501 254.614 514.265 254.614H513.113V236.588H514.265C514.501 236.588 514.733 236.61 514.957 236.651Z" fill="#FFA412"/>
<path d="M517.516 238.32V252.88C517.07 253.539 516.428 254.058 515.675 254.349V236.851C516.428 237.144 517.07 237.661 517.516 238.32Z" fill="#FFA412"/>
<path d="M496.902 222.513V232.692C496.902 233.505 496.656 234.256 496.232 234.883C495.785 235.541 495.144 236.061 494.39 236.351C494.161 236.442 493.919 236.51 493.673 236.554C493.597 236.566 493.522 236.581 493.446 236.588C493.385 236.598 493.324 236.6 493.263 236.605C493.234 236.607 493.202 236.61 493.173 236.612C493.109 236.615 493.046 236.617 492.983 236.617H330.841C328.751 236.617 327.028 234.961 326.924 232.895C326.921 232.827 326.919 232.761 326.919 232.692V222.513C326.919 222.447 326.921 222.379 326.924 222.311C327.031 220.247 328.751 218.588 330.841 218.588H492.983C493.051 218.588 493.121 218.591 493.19 218.596C493.353 218.605 493.514 218.625 493.673 218.652C493.919 218.696 494.161 218.761 494.39 218.854C494.507 218.9 494.622 218.949 494.729 219.005C494.8 219.039 494.866 219.074 494.931 219.113C494.939 219.115 494.946 219.12 494.953 219.125C495.022 219.164 495.085 219.205 495.151 219.249C495.163 219.257 495.175 219.264 495.183 219.271C495.244 219.31 495.302 219.354 495.358 219.398C495.497 219.503 495.627 219.615 495.749 219.737C495.788 219.774 495.824 219.813 495.858 219.852C495.866 219.859 495.871 219.864 495.878 219.874C495.902 219.898 495.924 219.923 495.946 219.947C495.951 219.952 495.956 219.959 495.958 219.962C495.997 220.008 496.037 220.054 496.073 220.105C496.127 220.174 496.18 220.245 496.229 220.318C496.654 220.949 496.902 221.703 496.902 222.513Z" fill="#FFB93E"/>
<path d="M417.282 236.617H330.418C328.552 236.617 327.016 234.961 326.92 232.895C326.918 232.827 326.916 232.761 326.916 232.692V222.513C326.916 222.447 326.918 222.379 326.92 222.311C327.016 220.247 328.552 218.588 330.418 218.588H406.615C406.647 218.725 406.679 218.864 406.715 219.005C407.979 224.265 410.828 231.346 417.248 236.586C417.258 236.598 417.27 236.607 417.282 236.617Z" fill="#FFA412"/>
<path d="M477.17 218.591H475.328V236.617H477.17V218.591Z" fill="#FFA412"/>
<path d="M470.935 218.591H469.091V236.617H470.935V218.591Z" fill="#FFA412"/>
<path d="M463.454 218.591H461.61V236.617H463.454V218.591Z" fill="#FFA412"/>
<path d="M451.987 218.591H450.145V236.617H451.987V218.591Z" fill="#FFA412"/>
<path d="M439.861 218.591H438.019V236.617H439.861V218.591Z" fill="#FFA412"/>
<path d="M421.273 218.591H419.431V236.617H421.273V218.591Z" fill="#FFA412"/>
<path d="M403.869 218.591H402.027V236.617H403.869V218.591Z" fill="#FFA412"/>
<path d="M388.33 218.591H386.489V236.617H388.33V218.591Z" fill="#FFA412"/>
<path d="M483.107 218.591H481.266V236.617H483.107V218.591Z" fill="#FFA412"/>
<path d="M487.03 218.591H485.188V236.617H487.03V218.591Z" fill="#FFA412"/>
<path d="M490.818 218.591H488.976V236.617H490.818V218.591Z" fill="#FFA412"/>
<path d="M493.67 218.654V236.554C493.445 236.595 493.213 236.617 492.977 236.617H491.825V218.591H492.977C493.216 218.591 493.445 218.613 493.67 218.654Z" fill="#FFA412"/>
<path d="M496.228 220.325V234.885C495.782 235.544 495.14 236.063 494.387 236.354V218.857C495.14 219.147 495.782 219.664 496.228 220.325Z" fill="#FFA412"/>
<path d="M508.823 204.907V215.087C508.823 215.899 508.576 216.65 508.149 217.277C507.703 217.936 507.061 218.455 506.308 218.746C506.078 218.836 505.837 218.904 505.591 218.948C505.366 218.989 505.134 219.011 504.898 219.011H342.756C342.127 219.011 341.532 218.863 341.005 218.594C339.822 218.002 338.978 216.826 338.849 215.45C338.844 215.399 338.841 215.343 338.839 215.289C338.836 215.221 338.834 215.155 338.834 215.087V204.907C338.834 204.839 338.836 204.773 338.839 204.705C338.936 202.795 340.417 201.236 342.293 201.012C342.444 200.992 342.598 200.982 342.756 200.982H504.898C505.134 200.982 505.364 201.004 505.591 201.046C505.837 201.09 506.078 201.156 506.308 201.248C507.059 201.539 507.703 202.058 508.149 202.717C508.574 203.344 508.823 204.095 508.823 204.907Z" fill="#FFB93E"/>
<path d="M429.201 219.008H342.337C341.776 219.008 341.244 218.859 340.773 218.591C339.717 217.998 338.964 216.822 338.849 215.446C338.844 215.395 338.842 215.339 338.839 215.285C338.837 215.217 338.834 215.151 338.834 215.083V204.904C338.834 204.835 338.837 204.769 338.839 204.701C338.927 202.794 340.249 201.233 341.922 201.008C342.057 200.989 342.196 200.979 342.337 200.979H418.534C418.536 200.989 418.539 200.998 418.541 201.008C419.729 206.177 422.456 213.261 428.703 218.588C428.867 218.732 429.033 218.871 429.201 219.008Z" fill="#FFA412"/>
<path d="M489.094 200.984H487.25V219.008H489.094V200.984Z" fill="#FFA412"/>
<path d="M482.854 200.984H481.012V219.008H482.854V200.984Z" fill="#FFA412"/>
<path d="M475.372 200.984H473.531V219.008H475.372V200.984Z" fill="#FFA412"/>
<path d="M463.908 200.984H462.066V219.008H463.908V200.984Z" fill="#FFA412"/>
<path d="M451.782 200.984H449.94V219.008H451.782V200.984Z" fill="#FFA412"/>
<path d="M433.197 200.984H431.353V219.008H433.197V200.984Z" fill="#FFA412"/>
<path d="M415.79 200.984H413.948V219.008H415.79V200.984Z" fill="#FFA412"/>
<path d="M400.251 200.985H398.407V219.009H400.251V200.985Z" fill="#FFA412"/>
<path d="M495.028 200.984H493.187V219.008H495.028V200.984Z" fill="#FFA412"/>
<path d="M498.951 200.984H497.109V219.008H498.951V200.984Z" fill="#FFA412"/>
<path d="M502.742 200.984H500.897V219.008H502.742V200.984Z" fill="#FFA412"/>
<path d="M505.591 201.045V218.944C505.366 218.986 505.134 219.008 504.898 219.008H503.747V200.981H504.898C505.134 200.981 505.366 201.003 505.591 201.045Z" fill="#FFA412"/>
<path d="M508.149 202.713V217.273C507.703 217.932 507.062 218.452 506.308 218.742V201.245C507.062 201.537 507.703 202.055 508.149 202.713Z" fill="#FFA412"/>
<path d="M496.902 186.909V197.088C496.902 197.901 496.656 198.652 496.231 199.279C495.785 199.938 495.144 200.457 494.39 200.747C494.16 200.838 493.919 200.906 493.673 200.95C493.597 200.962 493.521 200.977 493.446 200.984C493.404 200.989 493.36 200.994 493.319 200.996C493.277 201.001 493.233 201.004 493.192 201.006C493.121 201.011 493.053 201.013 492.985 201.013H330.843C328.753 201.013 327.031 199.357 326.926 197.291C326.923 197.223 326.921 197.157 326.921 197.088V186.909C326.921 186.841 326.923 186.775 326.926 186.707C327.033 184.643 328.753 182.984 330.843 182.984H492.985C493.221 182.984 493.451 183.006 493.677 183.048C493.924 183.092 494.165 183.157 494.395 183.25C495.148 183.54 495.79 184.06 496.236 184.719C496.653 185.346 496.902 186.097 496.902 186.909Z" fill="#FFB93E"/>
<path d="M417.282 201.011H330.418C328.552 201.011 327.016 199.354 326.92 197.288C326.918 197.22 326.916 197.154 326.916 197.086V186.906C326.916 186.838 326.918 186.772 326.92 186.704C327.016 184.64 328.552 182.982 330.418 182.982H406.615C407.83 188.28 410.657 195.6 417.248 200.979C417.258 200.991 417.27 201.001 417.282 201.011Z" fill="#FFA412"/>
<path d="M477.17 182.984H475.328V201.01H477.17V182.984Z" fill="#FFA412"/>
<path d="M470.935 182.984H469.091V201.01H470.935V182.984Z" fill="#FFA412"/>
<path d="M463.454 182.984H461.61V201.01H463.454V182.984Z" fill="#FFA412"/>
<path d="M451.987 182.984H450.145V201.01H451.987V182.984Z" fill="#FFA412"/>
<path d="M439.861 182.984H438.019V201.01H439.861V182.984Z" fill="#FFA412"/>
<path d="M421.273 182.984H419.431V201.01H421.273V182.984Z" fill="#FFA412"/>
<path d="M403.869 182.984H402.027V201.01H403.869V182.984Z" fill="#FFA412"/>
<path d="M388.333 182.984H386.489V201.01H388.333V182.984Z" fill="#FFA412"/>
<path d="M483.107 182.984H481.266V201.01H483.107V182.984Z" fill="#FFA412"/>
<path d="M487.03 182.984H485.188V201.01H487.03V182.984Z" fill="#FFA412"/>
<path d="M490.818 182.984H488.976V201.01H490.818V182.984Z" fill="#FFA412"/>
<path d="M493.67 183.047V200.947C493.445 200.989 493.213 201.011 492.977 201.011H491.825V182.984H492.977C493.216 182.984 493.445 183.006 493.67 183.047Z" fill="#FFA412"/>
<path d="M496.228 184.718V199.279C495.782 199.937 495.14 200.457 494.387 200.747V183.25C495.14 183.54 495.782 184.057 496.228 184.718Z" fill="#FFA412"/>
<path d="M347.91 379.793C398.591 379.793 439.675 338.708 439.675 288.028C439.675 237.348 398.591 196.264 347.91 196.264C297.23 196.264 256.146 237.348 256.146 288.028C256.146 338.708 297.23 379.793 347.91 379.793Z" fill="#E2810E"/>
<path d="M339.907 379.793C390.587 379.793 431.672 338.708 431.672 288.028C431.672 237.348 390.587 196.264 339.907 196.264C289.227 196.264 248.143 237.348 248.143 288.028C248.143 338.708 289.227 379.793 339.907 379.793Z" fill="#FFB93E"/>
<path d="M339.907 372.719C317.575 372.719 296.58 364.023 280.788 348.231C264.996 332.438 256.3 311.443 256.3 289.111C256.3 266.779 264.996 245.784 280.788 229.992C296.58 214.2 317.575 205.504 339.907 205.504C362.239 205.504 383.234 214.2 399.026 229.992C414.819 245.784 423.515 266.779 423.515 289.111C423.515 311.443 414.819 332.438 399.026 348.231C383.234 364.023 362.239 372.719 339.907 372.719ZM339.907 210.492C318.907 210.492 299.163 218.671 284.315 233.519C269.465 248.37 261.288 268.111 261.288 289.111C261.288 310.111 269.465 329.855 284.315 344.703C299.166 359.554 318.907 367.73 339.907 367.73C360.907 367.73 380.651 359.551 395.499 344.703C410.35 329.855 418.526 310.111 418.526 289.111C418.526 268.111 410.347 248.367 395.499 233.519C380.649 218.669 360.907 210.492 339.907 210.492Z" fill="#FFA412"/>
<path d="M351.416 313.378C351.631 311.575 351.562 309.958 351.218 308.523C350.872 307.089 350.189 305.745 349.167 304.491C348.142 303.237 346.776 302.03 345.061 300.869C343.347 299.708 341.227 298.52 338.7 297.307C334.358 295.18 330.443 293.029 326.952 290.853C323.459 288.675 320.534 286.291 318.168 283.706C315.804 281.118 314.075 278.215 312.98 274.993C311.884 271.773 311.587 268.058 312.087 263.85C312.521 260.201 313.56 256.951 315.212 254.097C316.86 251.248 319.022 248.848 321.69 246.899C324.359 244.952 327.45 243.479 330.967 242.481C334.485 241.484 338.344 241.037 342.549 241.147L344.183 227.367L355.275 228.682L353.616 242.657C357.529 243.645 361.007 245.126 364.056 247.096C367.103 249.067 369.608 251.456 371.572 254.258C373.536 257.061 374.924 260.261 375.741 263.862C376.553 267.465 376.707 271.412 376.199 275.702L356.165 273.324C356.777 268.172 356.09 264.184 354.106 261.357C352.121 258.532 349.211 256.89 345.376 256.434C343.295 256.188 341.471 256.266 339.9 256.666C338.329 257.066 337 257.715 335.909 258.608C334.819 259.503 333.96 260.608 333.336 261.928C332.711 263.247 332.304 264.701 332.116 266.289C331.928 267.877 331.987 269.343 332.296 270.685C332.604 272.029 333.26 273.314 334.265 274.544C335.268 275.773 336.646 276.981 338.405 278.169C340.161 279.356 342.366 280.63 345.018 281.991C349.301 284.196 353.177 286.399 356.641 288.594C360.105 290.792 363.02 293.195 365.381 295.802C367.742 298.412 369.469 301.327 370.565 304.547C371.657 307.77 371.957 311.463 371.465 315.627C371.016 319.403 369.955 322.718 368.281 325.567C366.608 328.416 364.439 330.792 361.776 332.697C359.112 334.602 356.004 336.019 352.448 336.946C348.894 337.873 345.013 338.283 340.807 338.176L339.288 350.989L328.264 349.682L329.777 336.932C325.986 336.09 322.376 334.814 318.949 333.102C315.519 331.389 312.562 329.155 310.077 326.401C307.591 323.647 305.737 320.325 304.51 316.434C303.283 312.546 302.976 308.023 303.588 302.874L323.622 305.252C323.261 308.301 323.386 310.894 323.998 313.036C324.61 315.175 325.562 316.944 326.849 318.337C328.137 319.73 329.664 320.783 331.431 321.493C333.197 322.203 335.029 322.671 336.924 322.896C339.095 323.154 341.034 323.101 342.742 322.737C344.449 322.374 345.915 321.764 347.142 320.908C348.369 320.052 349.34 318.981 350.055 317.695C350.777 316.402 351.228 314.966 351.416 313.378Z" fill="#FFA412"/>
<path d="M613.891 317.746C613.891 317.746 603.936 306.133 613.277 298.756C613.277 298.756 620.099 294.627 625.663 294.961C625.663 294.961 617.78 308.179 620.331 309.494C622.88 310.809 628.054 294.131 628.054 294.131C628.054 294.131 643.58 292.626 648.576 295.027C648.576 295.027 635.301 305.889 638.097 306.535C640.892 307.182 655.23 296.52 655.23 296.52C655.23 296.52 669.683 298.978 668.913 307.794C668.142 316.61 663.163 319.332 660.975 319.098C658.787 318.864 645.983 313.975 645.705 315.768C645.427 317.561 653.133 323.423 658.528 323.696C658.528 323.696 648.339 334.931 641.568 331.69C634.796 328.448 634.218 323.306 629.998 321.379C625.778 319.452 622.173 319.456 623.917 321.423C625.659 323.389 633.299 325.299 635.713 329.57C638.126 333.839 640.292 336.719 633.286 335.666C626.281 334.612 614.891 329.484 614.394 323.615C613.891 317.746 613.891 317.746 613.891 317.746Z" fill="#82B378"/>
<path d="M661.812 308.033C661.812 308.033 622.561 306.521 613.891 317.746C613.891 317.746 611.974 323.489 606.076 328.716L605.156 331.221C605.156 331.221 611.957 324.05 614.391 323.615C614.391 323.615 610.586 309.709 661.812 308.033Z" fill="#82B378"/>
<path d="M606.076 328.716C606.076 328.716 597.65 334.946 597.065 346.079L598.594 346.216C598.594 346.216 601.285 334.705 606.149 330.202C611.013 325.701 606.076 328.716 606.076 328.716Z" fill="#82B378"/>
<path d="M579.085 303.14C579.085 303.14 594.921 294.273 587.532 282.237C587.532 282.237 581.619 274.846 575.284 272.946C575.284 272.946 578.663 290.894 575.284 291.316C571.906 291.738 572.962 271.046 572.962 271.046C572.962 271.046 556.282 263.023 549.737 263.657C549.737 263.657 560.082 281.181 556.706 280.759C553.328 280.337 541.714 262.601 541.714 262.601C541.714 262.601 524.612 259.432 521.866 269.568C519.121 279.703 523.554 284.769 526.088 285.404C528.623 286.038 544.881 285.826 544.459 287.938C544.037 290.05 533.057 293.429 526.932 291.526C526.932 291.526 533.689 308.206 542.558 307.362C551.428 306.518 554.172 301.027 559.66 300.605C565.151 300.183 569.162 301.662 566.417 303.14C563.673 304.618 554.382 303.625 549.947 307.394C545.512 311.163 541.924 313.487 550.157 315.175C558.392 316.863 573.172 315.81 576.128 309.475C579.085 303.14 579.085 303.14 579.085 303.14Z" fill="#A8D29F"/>
<path d="M529.676 272.736C529.676 272.736 574.018 287.094 579.085 303.142C579.085 303.142 578.872 310.321 583.307 318.556V321.723C583.307 321.723 578.663 310.953 576.128 309.475C576.128 309.475 586.054 295.539 529.676 272.736Z" fill="#82B378"/>
<path d="M583.307 318.554C583.307 318.554 590.144 328.938 586.246 341.578L584.488 341.105C584.488 341.105 586.195 327.182 582.617 320.181C579.041 313.18 583.307 318.554 583.307 318.554Z" fill="#82B378"/>
<path d="M604.278 290.909C604.278 290.909 583.402 279.22 593.145 263.355C593.145 263.355 600.938 253.612 609.288 251.109C609.288 251.109 604.834 274.768 609.288 275.324C613.742 275.88 612.35 248.604 612.35 248.604C612.35 248.604 634.338 238.027 642.965 238.861C642.965 238.861 629.327 261.964 633.781 261.406C638.236 260.849 653.542 237.469 653.542 237.469C653.542 237.469 676.086 233.292 679.706 246.653C683.324 260.013 677.479 266.692 674.14 267.528C670.8 268.362 649.369 268.084 649.925 270.868C650.481 273.651 664.956 278.105 673.025 275.6C673.025 275.6 664.119 297.588 652.43 296.476C640.741 295.363 637.121 288.126 629.886 287.57C622.648 287.013 617.36 288.96 620.98 290.909C624.597 292.858 636.845 291.548 642.69 296.517C648.534 301.486 653.267 304.547 642.412 306.774C631.557 309.001 612.074 307.609 608.176 299.259C604.278 290.909 604.278 290.909 604.278 290.909Z" fill="#A8D29F"/>
<path d="M669.408 250.831C669.408 250.831 610.957 269.758 604.278 290.912C604.278 290.912 604.556 300.374 598.711 311.229V315.405C598.711 315.405 604.834 301.21 608.176 299.261C608.176 299.259 595.094 280.891 669.408 250.831Z" fill="#82B378"/>
<path d="M598.712 311.229C598.712 311.229 589.698 324.918 594.838 341.579L597.158 340.957C597.158 340.957 594.906 322.603 599.624 313.375C604.337 304.142 598.712 311.229 598.712 311.229Z" fill="#82B378"/>
<path d="M603.576 377.71C626.159 377.71 644.466 359.403 644.466 336.819H562.685C562.685 359.403 580.992 377.71 603.576 377.71Z" fill="#F1A34F"/>
<path d="M613.637 377.398C611.974 377.605 610.278 377.71 608.556 377.71C585.973 377.71 567.668 359.403 567.668 336.819H577.826C577.826 357.683 593.45 374.897 613.637 377.398Z" fill="#FFB973"/>
<path d="M645.029 379.79H562.119C562.119 377.005 564.378 374.746 567.164 374.746H639.985C642.773 374.746 645.029 377.005 645.029 379.79Z" fill="#F1A34F"/>
<path d="M645.397 336.819H561.341V338.073H645.397V336.819Z" fill="#D86713"/>
<path d="M244.286 54.6223L244.301 57.1006C244.301 57.1006 243.625 64.8552 253.173 65.9871C262.72 67.1238 270.55 66.9725 270.292 60.9889C269.431 56.3566 267.891 49.1655 267.828 45.3309C267.804 43.9064 267.901 42.394 268.167 40.6889L249.665 40.3206L244.215 41.2109L244.286 54.6223Z" fill="#FFB27D"/>
<path d="M244.215 41.2109L244.286 54.6223C246.252 55.537 248.47 56.0932 250.955 56.0932C259.459 56.0932 264.954 49.8583 267.828 45.3334C267.804 43.9088 267.901 42.3964 268.167 40.6913L249.665 40.323L244.215 41.2109Z" fill="#E2915A"/>
<path d="M269.584 37.713C267.438 49.2656 252.531 48.8875 246.089 48.1606C244.276 47.9581 243.135 47.7264 243.135 47.7264C241.091 47.18 239.951 43.9601 239.42 39.7425C238.368 31.3951 239.695 19.1449 241.108 16.0104C243.23 11.2952 247.225 6.19458 262.239 9.87551C277.251 13.5589 272.338 22.9112 269.584 37.713Z" fill="#FFB27D"/>
<path d="M281.781 379.754H260.659C260.817 378.646 261.354 375.275 262.344 372.172C262.686 371.092 263.086 370.04 263.542 369.131C265.596 365.03 278.646 367.638 278.646 367.638C278.646 367.638 279.859 368.677 280.805 372.643C281.22 374.387 281.588 376.707 281.781 379.754Z" fill="#233862"/>
<path d="M217.949 373.087C217.89 375.961 217.529 378.681 216.488 379.754H174.707C175.239 378.241 176.741 375.968 181.032 375.273C185.906 374.485 193.504 372.138 197.939 367.447C199.52 365.781 200.698 363.815 201.213 361.52C203.179 352.768 217.466 364.201 217.466 364.201C217.466 364.201 218.041 368.809 217.949 373.087Z" fill="#233862"/>
<path d="M245.74 278.483C245.159 281.688 244.789 284.316 244.691 286.201C243.362 312.109 222.881 371.348 219.22 372.729C213.551 374.868 204.625 370.321 199.956 368.833C198.022 368.216 196.715 366.264 197.146 364.284C207.289 317.656 211.016 250.516 212.373 210.765C213.058 190.743 216.495 176.913 216.495 176.913C216.495 176.913 266.447 163.584 266.743 180.445C267.004 195.364 250.194 253.873 245.74 278.483Z" fill="#2B478B"/>
<path d="M245.74 278.483L212.37 210.768C213.056 190.746 216.493 176.915 216.493 176.915C216.493 176.915 266.445 163.587 266.74 180.447C267.003 195.364 250.194 253.873 245.74 278.483Z" fill="#233862"/>
<path d="M234.624 180.506L261.03 371.892C261.03 371.892 272.626 374.687 281.644 372.451C281.644 372.451 289.374 270.663 288.731 246.055C288.087 221.447 294.28 180.208 287.318 175.661C280.356 171.114 234.624 180.506 234.624 180.506Z" fill="#2B478B"/>
<path d="M236.5 5.01391C236.5 5.01391 243.108 4.50653 250.901 1.11588C257.227 -1.63323 265.208 1.39397 267.799 2.75999C267.728 2.34287 267.562 1.77206 267.167 1.20126C267.167 1.20126 268.33 2.02575 268.501 3.17954C268.621 3.26736 268.674 3.32835 268.643 3.3503C268.643 3.3503 269.962 3.10881 270.809 3.48934C270.809 3.48934 270.216 3.40396 270.004 3.78693C269.982 3.8284 269.948 3.86255 269.909 3.89182C279.776 8.66068 280.688 24.2552 277.512 27.863C273.692 32.205 269.111 41.9817 269.111 41.9817C269.111 41.9817 267.44 39.6717 268.135 35.8517C268.83 32.0318 265.53 32.0318 261.364 30.295C257.197 28.5582 260.668 23.6966 257.022 20.7451C253.375 17.7935 240.003 19.5303 240.178 17.2715C235.214 15.4615 236.5 5.52373 236.5 5.01391Z" fill="#233862"/>
<path d="M272.543 64.3162L266.464 194.763C266.464 194.763 215.722 195.593 217.171 184.111C218.62 172.629 235.461 68.3117 235.461 68.3117L272.543 64.3162Z" fill="#E9F3FE"/>
<path d="M290.66 138.257C287.64 147.314 293.333 177.703 295.36 187.997C295.807 190.175 296.102 191.461 296.102 191.461C289.074 202.894 263.337 202.745 263.337 202.745C258.388 180.869 255.814 146.028 255.814 146.028L275.56 59.4644L300.405 82.4305C300.405 82.4305 298.524 96.4371 296.197 110.69C294.37 121.972 292.292 133.456 290.66 138.257Z" fill="#22407A"/>
<path d="M248.43 39.6132C248.43 39.6132 247.947 41.1036 244.188 40.5596C244.188 40.5596 241.029 40.1035 241.266 38.4423C241.264 38.4398 244.437 37.5056 248.43 39.6132Z" fill="white"/>
<path d="M219.91 66.1749C219.91 66.1749 219.905 66.1969 219.898 66.2286C218.698 67.3921 184.823 100.279 178.261 113.163C171.58 126.231 208.796 152.261 208.796 152.261C208.796 152.261 211.192 153.207 212.853 152.836C211.099 167.285 209.128 180.615 210.297 186.306C212.407 196.59 221.92 200.045 221.92 199.254C221.92 199.003 224.371 161.752 227.289 142.513C233.765 99.8082 241.488 59.7278 241.488 59.7278C230.414 60.8791 219.91 66.1749 219.91 66.1749ZM199.742 118.806C199.693 118.754 199.693 118.657 199.693 118.608C199.693 116.727 206.869 112.568 214.641 107.67C214.741 107.57 214.79 107.521 214.79 107.521C214.795 107.519 214.8 107.514 214.804 107.512C214.665 111.514 214.683 115.442 214.919 119.098C215.361 125.88 214.868 133.983 214.046 142.235C210.345 136.456 200.464 120.933 199.742 118.806Z" fill="#22407A"/>
<path d="M273.98 59.3082C274.041 58.0641 268.145 56.342 268.145 56.342C268.145 56.342 261.395 65.6992 250.277 65.8626C250.277 65.8626 253.446 72.0292 257.18 73.627C257.18 73.627 273.614 66.7018 273.98 59.3082Z" fill="#D9E9F9"/>
<path d="M234.66 154.027C234.934 157.074 236.331 159.913 238.58 161.986L242.12 165.248C243.008 166.067 244.406 165.953 245.152 165.004L249.535 159.437C250.711 157.944 251.262 156.056 251.084 154.166C250.675 149.956 249.911 141.84 249.299 134.007C248.801 127.66 248.401 121.496 248.372 117.744C248.277 105.77 250.65 67.5823 250.65 67.5823L247.779 67.7312C247.779 67.7312 240.649 82.5549 236.917 102.723C235.995 107.687 235.285 112.973 234.931 118.445C234.934 118.447 233.436 140.257 234.66 154.027Z" fill="#C65447"/>
<path d="M234.66 154.027C234.934 157.074 236.331 159.913 238.58 161.986L242.12 165.248C243.008 166.067 244.406 165.953 245.152 165.004L249.535 159.437C250.711 157.944 251.262 156.056 251.084 154.166C250.675 149.956 249.911 141.84 249.299 134.007C241.366 125.094 238.151 112.778 236.917 102.726C235.995 107.69 235.285 112.976 234.931 118.447C234.934 118.447 233.436 140.257 234.66 154.027Z" fill="#BA4C43"/>
<path d="M250.277 65.6431C250.277 65.6431 244.386 62.1524 244.367 58.3666C244.367 58.3666 240.561 57.8909 238.9 59.7351C238.9 59.7351 237.502 66.2236 239.356 69.9924C239.356 69.9899 247.838 68.6995 250.277 65.6431Z" fill="#D9E9F9"/>
<path d="M254.275 65.082L246.286 63.1672C246.286 63.1672 245.242 63.2575 245.271 64.56C245.301 65.8602 247.52 69.6631 248.503 69.9655C249.491 70.2705 256.165 67.7141 254.275 65.082Z" fill="#BA4C43"/>
<path d="M273.05 58.6667C273.111 57.4226 269.121 54.8564 269.121 54.8564C269.121 54.8564 261.395 63.8843 250.277 64.0453C250.277 64.0453 253.446 70.2119 257.18 71.8097C257.18 71.8097 272.684 66.0578 273.05 58.6667Z" fill="#E9F3FE"/>
<path d="M250.277 64.0454C250.277 64.0454 244.32 60.8865 244.298 57.1006C244.298 57.1006 240.703 58.6838 239.039 60.5279C239.039 60.5279 237.502 64.6235 239.354 68.3922C239.356 68.3922 247.838 67.0994 250.277 64.0454Z" fill="#E9F3FE"/>
<path d="M206.426 154.381C206.426 151.056 209.35 148.387 212.636 148.885C213.548 149.024 214.373 149.399 214.944 150.158C217.205 153.168 219.359 161.93 215.349 162.34C213.717 162.506 211.621 161.362 210.006 160.135C208.367 158.888 206.423 156.937 206.423 154.878V154.381H206.426Z" fill="#FFB27D"/>
<path d="M295.36 187.994C288.084 180.423 275.514 165.526 275.961 153.3C276.553 136.176 296.202 110.688 296.202 110.688C294.37 121.972 292.292 133.454 290.66 138.254C287.64 147.311 293.331 177.7 295.36 187.994Z" fill="#233862"/>
<path d="M295.134 158.21C295.134 158.21 289.904 160.825 286.728 159.518C283.552 158.21 279.817 157.227 276.268 161.269C272.719 165.309 271.972 168.111 272.719 169.604C273.465 171.1 281.739 170.539 283.113 169.604C284.486 168.67 286.657 166.372 288.035 166.772C291.836 167.877 295.036 164.977 296.829 162.669C297.91 161.274 294.992 160.598 295.134 158.21Z" fill="#FFB27D"/>
<path d="M275.563 59.4644C275.563 59.4644 296.395 61.7695 301.308 70.8413C306.22 79.9131 331.767 116.678 330.931 131.956C330.094 147.236 296.083 164.367 296.083 164.367C296.083 164.367 288.55 161.184 288.438 157.759C288.325 154.334 311.95 133.866 310.518 130.046C309.087 126.226 283.071 96.0151 280.561 86.0529C278.051 76.0932 275.563 59.4644 275.563 59.4644Z" fill="#22407A"/>
<path d="M214.787 107.519C214.787 107.519 214.738 107.57 214.638 107.668C206.869 112.566 199.69 116.725 199.69 118.606C198.651 115.288 208.748 101.43 212.014 98.6105C215.331 95.7418 214.787 107.519 214.787 107.519Z" fill="#233862"/>
<path d="M269.121 54.8564C269.121 54.8564 253.307 121.094 255.824 146.045C255.824 146.045 261.639 119.381 275.631 97.542C275.631 97.542 270.526 93.0512 270.801 91.3949C270.801 91.3949 274.592 90.2704 278.271 91.029C278.271 91.029 277.863 62.4769 275.57 59.4619C273.277 56.442 269.121 54.8564 269.121 54.8564Z" fill="#233862"/>
<path d="M244.298 57.1006C244.513 57.2006 228.626 121.825 227.289 142.511C227.289 142.511 228.874 105.599 228.718 94.9588C228.718 94.9588 235.287 91.4828 235.287 90.2607C235.287 89.041 228.282 85.743 228.282 85.743C228.282 85.743 232.719 63.011 235.141 60.5059C237.561 58.0031 244.298 57.1006 244.298 57.1006Z" fill="#233862"/>
<path d="M427.259 182.999L470.567 182.947C476.204 182.94 480.809 178.325 480.802 172.688L480.78 153.92C480.773 148.282 476.158 143.677 470.52 143.684L427.213 143.735C421.578 143.743 416.97 148.358 416.977 153.995L416.999 172.763C417.007 178.4 421.622 183.006 427.259 182.999Z" fill="#233862"/>
<path d="M473.704 148.575V148.573C472.084 145.76 469.169 143.772 465.79 143.443H465.788C465.786 143.443 465.783 143.443 465.781 143.44C465.449 143.409 465.115 143.391 464.773 143.391L456.15 143.404L456.145 139.354C456.145 138.452 455.792 137.601 455.148 136.957C454.506 136.317 453.65 135.964 452.747 135.964L450.498 135.966L441.444 135.976L439.812 135.978C437.943 135.981 436.419 137.503 436.423 139.376L436.428 143.426L421.544 143.443C415.887 143.45 411.264 148.082 411.269 153.739L411.294 172.724C411.301 178.381 415.933 183.004 421.59 182.996L464.82 182.947C465.583 182.947 466.325 182.862 467.039 182.699H467.042C467.044 182.699 467.044 182.699 467.047 182.699C468.193 182.445 469.266 181.994 470.232 181.389C473.15 179.567 475.096 176.322 475.094 172.646L475.072 153.663C475.067 151.817 474.57 150.08 473.704 148.575ZM438.548 139.376C438.548 138.81 438.924 138.327 439.439 138.166C439.558 138.13 439.683 138.108 439.814 138.108L441.736 138.105L448.862 138.098L452.745 138.093C453.445 138.093 454.013 138.662 454.013 139.357L454.018 143.406L438.548 143.423V139.376Z" fill="#2B478B"/>
<rect x="23" y="380" width="660" height="3" fill="#233862"/>
</svg>
