<svg width="283" height="335" viewBox="0 0 283 335" fill="none" xmlns="http://www.w3.org/2000/svg">
<path d="M27.708 203.775C27.596 203.775 27.482 203.745 27.378 203.683L17.722 197.97C17.092 197.597 16.722 196.938 16.731 196.206C16.74 195.474 17.127 194.824 17.767 194.468L88.208 155.188C90.507 153.906 91.935 151.475 91.935 148.844V111.24C91.935 110.607 92.262 110.04 92.81 109.723C93.359 109.408 94.011 109.408 94.56 109.724L101.215 113.567C101.526 113.746 101.632 114.144 101.452 114.454C101.273 114.765 100.878 114.872 100.564 114.692L93.909 110.849C93.709 110.732 93.527 110.81 93.459 110.849C93.392 110.888 93.233 111.004 93.233 111.24V148.844C93.233 151.946 91.549 154.811 88.84 156.323L18.399 195.603C18.071 195.786 18.031 196.097 18.03 196.223C18.028 196.348 18.059 196.661 18.383 196.853L28.039 202.566C28.348 202.749 28.449 203.147 28.267 203.457C28.146 203.661 27.931 203.775 27.708 203.775Z" fill="#5793CE"/>
<path d="M32.481 208.88L35.1481 204.228L25.1111 198.473L22.444 203.125L32.481 208.88Z" fill="#5793CE"/>
<path d="M21.878 201.899C21.875 200.69 22.719 199.218 23.764 198.61C24.809 198.003 25.659 198.49 25.663 199.699C25.666 200.908 24.822 202.381 23.777 202.988C22.732 203.596 21.882 203.108 21.878 201.899Z" fill="#5793CE"/>
<path d="M45.6214 218.345L49.9432 210.809L34.2016 201.781L29.8798 209.317L45.6214 218.345Z" fill="#5793CE"/>
<path d="M33.49 203.282L30.094 201.335C28.688 202.342 27.586 204.264 27.427 205.986L30.824 207.933C32.229 206.926 33.331 205.005 33.49 203.282Z" fill="#396CAA"/>
<path d="M28.987 207.332C28.981 205.373 30.349 202.986 32.043 202.002C33.736 201.018 35.114 201.808 35.12 203.767C35.126 205.726 33.758 208.112 32.064 209.096C30.371 210.08 28.993 209.291 28.987 207.332Z" fill="#5793CE"/>
<path d="M25.044 200.658C24.552 200.375 24.551 199.916 25.041 199.631C25.531 199.346 26.328 199.344 26.82 199.625C27.312 199.908 27.313 200.367 26.823 200.652C26.333 200.937 25.536 200.939 25.044 200.658Z" fill="#D4ECFF"/>
<path d="M108.671 121.671L111.338 117.02L101.302 111.265L98.6344 115.915L108.671 121.671Z" fill="#5793CE"/>
<path d="M98.095 114.694C98.091 113.486 98.935 112.013 99.981 111.405C101.026 110.798 101.876 111.285 101.879 112.494C101.882 113.703 101.038 115.175 99.993 115.783C98.948 116.391 98.098 115.903 98.095 114.694Z" fill="#5793CE"/>
<path d="M121.856 131.135L126.178 123.598L110.436 114.572L106.115 122.109L121.856 131.135Z" fill="#5793CE"/>
<path d="M109.706 116.078L106.31 114.13C104.904 115.137 103.801 117.059 103.642 118.781L107.039 120.728C108.444 119.721 109.547 117.8 109.706 116.078Z" fill="#396CAA"/>
<path d="M105.203 120.127C105.197 118.168 106.565 115.782 108.26 114.798C109.953 113.814 111.33 114.603 111.336 116.562C111.342 118.521 109.974 120.907 108.28 121.891C106.587 122.876 105.209 122.086 105.203 120.127Z" fill="#5793CE"/>
<path d="M101.26 113.453C100.769 113.171 100.767 112.711 101.257 112.426C101.747 112.141 102.544 112.139 103.036 112.421C103.527 112.703 103.529 113.163 103.039 113.447C102.549 113.732 101.752 113.735 101.26 113.453Z" fill="#D4ECFF"/>
<path d="M140.109 137.492C139.884 137.492 139.666 137.376 139.546 137.168C139.366 136.857 139.473 136.46 139.783 136.28L164.061 122.263C166.104 121.083 167.374 118.885 167.374 116.527V79.909C167.374 79.187 167.747 78.542 168.372 78.181C168.997 77.82 169.742 77.823 170.367 78.184L209.603 100.927V70.363C209.603 70.004 209.894 69.714 210.252 69.714C210.61 69.714 210.901 70.004 210.901 70.363V102.053C210.901 102.285 210.777 102.5 210.576 102.616C210.375 102.731 210.129 102.731 209.926 102.615L169.714 79.307C169.401 79.126 169.124 79.246 169.02 79.306C168.916 79.367 168.672 79.545 168.672 79.908V116.526C168.672 119.347 167.154 121.976 164.711 123.387L140.433 137.404C140.331 137.465 140.219 137.492 140.109 137.492Z" fill="#5793CE"/>
<path d="M188.675 164.786C188.45 164.786 188.232 164.67 188.112 164.461C187.932 164.151 188.039 163.753 188.349 163.574L218.545 146.139C220.588 144.959 221.858 142.762 221.858 140.404V77.337C221.858 76.979 222.149 76.688 222.507 76.688C222.865 76.688 223.156 76.979 223.156 77.337V140.404C223.156 143.224 221.638 145.853 219.195 147.264L188.999 164.699C188.896 164.758 188.784 164.786 188.675 164.786Z" fill="#5793CE"/>
<path d="M242.818 195.104C242.577 195.104 242.341 194.979 242.213 194.754C242.021 194.421 242.135 193.993 242.469 193.802L269.849 177.992C271.884 176.817 273.144 174.628 273.136 172.278L273.046 142.839C273.039 140.502 271.776 138.325 269.751 137.159L234.412 116.807C234.196 116.682 234.062 116.452 234.062 116.202V84.309C234.062 83.924 234.375 83.612 234.76 83.612C235.145 83.612 235.458 83.925 235.458 84.309V115.8L270.447 135.95C272.902 137.365 274.432 140.003 274.441 142.836L274.531 172.275C274.539 175.124 273.012 177.778 270.545 179.202L243.165 195.011C243.057 195.074 242.937 195.104 242.818 195.104Z" fill="#5793CE"/>
<path d="M237.441 82.37H232.08V93.939H237.441V82.37Z" fill="#5793CE"/>
<path d="M236.656 95.034C235.609 95.638 233.912 95.638 232.865 95.034C231.818 94.43 231.818 93.45 232.865 92.845C233.912 92.24 235.609 92.241 236.656 92.845C237.703 93.449 237.703 94.43 236.656 95.034Z" fill="#5793CE"/>
<path d="M239.105 66.245H230.417V84.391H239.105V66.245Z" fill="#5793CE"/>
<path d="M232.08 84.273V88.188C233.653 88.907 235.868 88.907 237.441 88.188V84.273C235.868 83.555 233.653 83.555 232.08 84.273Z" fill="#396CAA"/>
<path d="M237.832 86.165C236.136 87.144 233.386 87.144 231.689 86.165C229.993 85.186 229.993 83.598 231.689 82.619C233.385 81.64 236.135 81.64 237.832 82.619C239.529 83.598 239.529 85.186 237.832 86.165Z" fill="#5793CE"/>
<path d="M225.187 75.396H219.826V86.965H225.187V75.396Z" fill="#5793CE"/>
<path d="M224.402 88.061C223.355 88.665 221.658 88.665 220.611 88.061C219.564 87.457 219.564 86.476 220.611 85.872C221.658 85.268 223.355 85.268 224.402 85.872C225.449 86.476 225.449 87.456 224.402 88.061Z" fill="#5793CE"/>
<path d="M226.851 59.271H218.163V77.417H226.851V59.271Z" fill="#5793CE"/>
<path d="M219.826 77.299V81.215C221.399 81.934 223.614 81.934 225.187 81.215V77.299C223.614 76.581 221.399 76.581 219.826 77.299Z" fill="#396CAA"/>
<path d="M225.578 79.191C223.882 80.17 221.132 80.17 219.435 79.191C217.738 78.212 217.739 76.624 219.435 75.644C221.131 74.664 223.881 74.665 225.578 75.644C227.275 76.624 227.275 78.211 225.578 79.191Z" fill="#5793CE"/>
<path d="M212.933 68.422H207.572V79.992H212.933V68.422Z" fill="#5793CE"/>
<path d="M212.148 81.086C211.101 81.69 209.404 81.69 208.357 81.086C207.31 80.482 207.31 79.502 208.357 78.897C209.404 78.292 211.101 78.293 212.148 78.897C213.195 79.501 213.195 80.482 212.148 81.086Z" fill="#5793CE"/>
<path d="M214.597 52.298H205.909V70.444H214.597V52.298Z" fill="#5793CE"/>
<path d="M207.572 70.326V74.242C209.145 74.961 211.36 74.961 212.933 74.242V70.326C211.36 69.607 209.146 69.607 207.572 70.326Z" fill="#396CAA"/>
<path d="M213.325 72.217C211.629 73.196 208.878 73.196 207.181 72.217C205.484 71.238 205.485 69.65 207.181 68.67C208.877 67.691 211.627 67.691 213.325 68.67C215.021 69.649 215.021 71.237 213.325 72.217Z" fill="#5793CE"/>
<path d="M267.813 98.421L279.461 91.561L268.367 77.715L265.45 82.479L267.813 98.421Z" fill="#5793CE"/>
<path d="M183.229 22.429L201.821 11.733C201.821 11.733 201.122 22.408 201.122 22.429C201.122 22.451 190.441 25.737 190.441 25.737L183.229 22.429Z" fill="#5793CE"/>
<path d="M271.05 63.604C269.635 62.787 268.284 62.31 267.028 62.113C265.154 52.262 258.299 41.8 250.126 37.081C247.668 35.662 245.33 34.903 243.209 34.74C242.094 22.8 233.791 9.22901 223.709 3.40901C218.442 0.368005 213.665 0.00900328 210.139 1.871L210.14 1.861L209.969 1.96C209.878 2.01 209.789 2.062 209.7 2.114L198.738 8.58901L202.381 11.466C199.11 12.896 197.044 16.563 197.044 21.984C197.044 31.981 204.063 44.137 212.72 49.136L271.051 90.788C277.553 94.542 282.822 91.499 282.822 83.992C282.822 76.485 277.552 67.357 271.05 63.604Z" fill="#5793CE"/>
<path d="M197.584 17.582L222.746 2.881C217.861 0.334001 213.447 0.122999 210.138 1.871L210.139 1.861L209.968 1.96C209.877 2.01 209.788 2.062 209.699 2.114L198.737 8.589L202.38 11.466C200.094 12.465 198.398 14.561 197.584 17.582Z" fill="#5793CE"/>
<path d="M244.051 60.83L262.41 50.057C259.262 44.611 254.926 39.853 250.125 37.081C249.49 36.714 248.863 36.393 248.245 36.113L224.894 49.77L244.051 60.83Z" fill="#5793CE"/>
<path d="M203.91 9.79199L212.091 14.515L227.074 5.68999C225.98 4.83999 224.856 4.07199 223.708 3.40899C221.894 2.36099 220.14 1.63899 218.473 1.20999L203.91 9.79199Z" fill="#D4ECFF"/>
<path d="M260.385 46.887L245.733 55.521L250.83 61.206L264.132 53.352C263.079 51.098 261.814 48.92 260.385 46.887Z" fill="#D4ECFF"/>
<path d="M259.54 70.383C258.125 69.566 256.774 69.09 255.518 68.892C253.644 59.04 246.789 48.579 238.616 43.86C236.158 42.441 233.82 41.682 231.699 41.519C230.584 29.579 222.281 16.009 212.199 10.188C201.357 3.92799 192.567 9.00199 192.567 21.521C192.567 21.946 192.58 22.375 192.599 22.805C184.67 19.127 178.476 23.271 178.476 32.662C178.476 42.659 185.495 54.815 194.152 59.814L259.541 97.566C266.043 101.319 271.313 98.276 271.313 90.77C271.313 83.264 266.042 74.137 259.54 70.383Z" fill="#D4ECFF"/>
<path d="M192.599 22.806C192.579 22.376 192.567 21.947 192.567 21.522C192.567 21.504 192.568 21.487 192.568 21.469C188.188 19.766 184.424 20.507 182.062 23.24C184.627 21.128 188.359 20.84 192.599 22.806Z" fill="white"/>
<path d="M260.498 69.45C259.082 68.634 257.731 68.157 256.476 67.959C254.601 58.108 247.747 47.646 239.573 42.927C237.115 41.508 234.777 40.749 232.657 40.586C231.541 28.646 223.238 15.076 213.157 9.25502C206.402 5.35502 200.445 5.85602 196.913 9.81402C200.511 6.73902 206.02 6.62002 212.199 10.188C222.281 16.009 230.584 29.579 231.699 41.519C233.82 41.682 236.158 42.441 238.616 43.86C246.79 48.579 253.644 59.04 255.518 68.892C256.775 69.089 258.125 69.566 259.54 70.383C266.042 74.136 271.312 83.264 271.312 90.771C271.312 93.48 270.618 95.597 269.435 97.033C271.198 95.675 272.269 93.213 272.269 89.838C272.27 82.332 266.999 73.204 260.498 69.45Z" fill="white"/>
<path d="M191.216 25.788L196.132 28.067L195.882 22.655C195.863 22.275 195.853 21.897 195.853 21.522C195.853 16.691 197.312 13.189 199.96 11.659C202.607 10.132 206.372 10.619 210.556 13.035C219.554 18.23 227.404 30.876 228.427 41.826L228.685 44.584L231.447 44.796C233.145 44.926 235.004 45.568 236.973 46.706C244.119 50.832 250.561 60.421 252.289 69.506L252.722 71.78L255.009 72.138C255.92 72.282 256.892 72.648 257.898 73.229C263.388 76.399 268.026 84.432 268.026 90.771C268.026 93.143 267.369 94.884 266.221 95.546C265.075 96.207 263.239 95.907 261.184 94.722L195.795 56.97C188.189 52.578 181.762 41.447 181.762 32.664C181.762 29.217 182.779 26.591 184.551 25.459C185.28 24.994 186.162 24.762 187.156 24.762C188.367 24.762 189.744 25.105 191.216 25.788Z" fill="#396CAA"/>
<path d="M223.851 66.77L225.575 65.903L223.878 64.617L223.851 66.77Z" fill="#5793CE"/>
<path d="M218.67 43.468L220.345 42.622L220.375 43.498L218.67 43.468Z" fill="#5793CE"/>
<path d="M228.771 61.322L230.52 60.444L227.155 57.245L228.771 61.322Z" fill="#5793CE"/>
<path d="M225.071 65.848L216.904 61.038C216.49 60.794 216.155 60.18 216.156 59.665L216.183 50.21L225.85 55.904L225.824 65.359C225.822 65.873 225.485 66.092 225.071 65.848Z" fill="#5793CE"/>
<path d="M220.327 42.632L211.507 48.308C211.132 48.549 211.435 49.447 212.003 49.782L221.012 55.088L230.02 60.394C230.588 60.728 230.895 60.189 230.523 59.509L221.764 43.48C221.386 42.786 220.708 42.387 220.327 42.632Z" fill="#5793CE"/>
<path d="M223.319 66.73L215.153 61.92C214.738 61.676 214.403 61.062 214.405 60.547L214.431 51.092L224.099 56.786L224.073 66.241C224.071 66.755 223.734 66.974 223.319 66.73Z" fill="#D4ECFF"/>
<path d="M218.575 43.514L209.755 49.19C209.381 49.431 209.684 50.329 210.252 50.664L219.26 55.97L228.269 61.276C228.837 61.61 229.144 61.071 228.772 60.391L220.013 44.362C219.635 43.668 218.957 43.269 218.575 43.514Z" fill="#D4ECFF"/>
<path d="M209.497 78.958C209.497 79.525 209.099 79.755 208.607 79.471C208.115 79.187 207.717 78.498 207.717 77.93C207.717 77.363 208.115 77.133 208.607 77.417C209.099 77.701 209.497 78.391 209.497 78.958Z" fill="#D4ECFF"/>
<path d="M137.257 205.637L161.775 191.481C163.28 190.613 163.091 189.095 161.354 188.092L137.68 174.424C135.943 173.42 133.314 173.312 131.809 174.18L107.291 188.335C105.786 189.204 105.975 190.722 107.713 191.725L131.387 205.393C133.124 206.396 135.752 206.505 137.257 205.637Z" fill="#B2D3EA"/>
<path d="M99.1579 177.554V166.961L122.911 166.947L131.122 162.207C133.006 161.119 136.297 161.255 138.473 162.512L146.133 166.935L169.908 166.921V177.816C169.962 178.552 169.551 179.263 168.645 179.786L137.944 197.512C136.059 198.6 132.768 198.463 130.592 197.207L100.947 180.092C99.6919 179.366 99.0869 178.428 99.1579 177.554Z" fill="#396CAA"/>
<path d="M134.532 161.478C135.911 161.512 137.343 161.859 138.472 162.512L146.132 166.935L169.907 166.921V177.816C169.961 178.552 169.55 179.263 168.644 179.786L137.943 197.512C137.038 198.034 135.806 198.272 134.531 198.241V161.478H134.532Z" fill="#396CAA"/>
<path d="M167.218 166.922L169.908 166.921V177.816C169.962 178.552 169.551 179.263 168.645 179.786L167.217 180.61V166.922H167.218Z" fill="#5793CE"/>
<path d="M137.471 197.742C135.846 198.438 133.495 198.4 131.595 197.676V185.305H137.471V197.742Z" fill="#5793CE"/>
<path d="M137.944 186.655L168.645 168.929C170.53 167.841 170.293 165.941 168.118 164.685L138.472 147.57C136.296 146.314 133.005 146.177 131.121 147.265L100.419 164.991C98.535 166.079 98.772 167.978 100.947 169.235L130.592 186.35C132.769 187.607 136.06 187.743 137.944 186.655Z" fill="#D4ECFF"/>
<path d="M137.392 183.465L163.121 168.611C164.7 167.699 164.502 166.107 162.679 165.054L137.836 150.711C136.013 149.658 133.254 149.544 131.675 150.456L105.947 165.31C104.368 166.222 104.566 167.814 106.389 168.867L131.232 183.21C133.055 184.263 135.813 184.377 137.392 183.465Z" fill="#5793CE"/>
<path d="M110.45 180.35C110.45 181.141 111.005 182.102 111.69 182.497C112.375 182.893 112.93 182.572 112.93 181.781C112.93 180.99 112.374 180.029 111.69 179.633C111.005 179.238 110.45 179.559 110.45 180.35Z" fill="#D4ECFF"/>
<path d="M106.461 178.046C106.461 178.836 107.016 179.798 107.7 180.193C108.386 180.589 108.94 180.268 108.94 179.477C108.94 178.687 108.385 177.725 107.7 177.33C107.016 176.935 106.461 177.255 106.461 178.046Z" fill="#D4ECFF"/>
<path d="M102.471 175.742C102.471 176.533 103.027 177.495 103.711 177.89C104.396 178.285 104.951 177.964 104.951 177.173C104.951 176.383 104.395 175.421 103.711 175.026C103.027 174.631 102.471 174.951 102.471 175.742Z" fill="#D4ECFF"/>
<path d="M99.1579 160.625V150.032L122.911 150.018L131.122 145.278C133.006 144.19 136.297 144.326 138.473 145.583L146.133 150.006L169.908 149.992V160.887C169.962 161.623 169.551 162.334 168.645 162.857L137.944 180.583C136.059 181.671 132.768 181.534 130.592 180.278L100.947 163.163C99.6919 162.438 99.0869 161.499 99.1579 160.625Z" fill="#396CAA"/>
<path d="M134.532 144.549C135.911 144.583 137.343 144.93 138.472 145.583L146.132 150.006L169.907 149.992V160.887C169.961 161.623 169.55 162.334 168.644 162.857L137.943 180.583C137.038 181.105 135.806 181.343 134.531 181.312V144.549H134.532Z" fill="#396CAA"/>
<path d="M167.218 149.994L169.908 149.992V160.887C169.962 161.623 169.551 162.334 168.645 162.857L167.217 163.682V149.994H167.218Z" fill="#5793CE"/>
<path d="M137.471 180.813C135.846 181.509 133.495 181.47 131.595 180.746V168.377H137.471V180.813Z" fill="#5793CE"/>
<path d="M137.944 169.727L168.645 152.001C170.53 150.913 170.293 149.013 168.118 147.757L138.472 130.642C136.296 129.386 133.005 129.249 131.121 130.337L100.419 148.063C98.535 149.151 98.772 151.051 100.947 152.307L130.592 169.422C132.769 170.678 136.06 170.814 137.944 169.727Z" fill="#D4ECFF"/>
<path d="M137.392 166.536L163.121 151.682C164.7 150.77 164.502 149.178 162.679 148.125L137.836 133.782C136.013 132.729 133.254 132.615 131.675 133.527L105.947 148.381C104.368 149.293 104.566 150.885 106.389 151.938L131.232 166.281C133.055 167.334 135.813 167.448 137.392 166.536Z" fill="#5793CE"/>
<path d="M110.45 163.42C110.45 164.211 111.005 165.172 111.69 165.568C112.375 165.964 112.93 165.643 112.93 164.852C112.93 164.061 112.374 163.1 111.69 162.704C111.005 162.31 110.45 162.63 110.45 163.42Z" fill="#D4ECFF"/>
<path d="M106.461 161.117C106.461 161.908 107.016 162.869 107.7 163.264C108.386 163.66 108.94 163.339 108.94 162.548C108.94 161.757 108.385 160.796 107.7 160.401C107.016 160.006 106.461 160.326 106.461 161.117Z" fill="#5793CE"/>
<path d="M102.471 158.813C102.471 159.604 103.027 160.565 103.711 160.961C104.395 161.357 104.951 161.036 104.951 160.245C104.951 159.454 104.395 158.493 103.711 158.098C103.027 157.703 102.471 158.022 102.471 158.813Z" fill="#5793CE"/>
<path d="M99.1579 143.696V133.103L122.911 133.09L131.122 128.35C133.006 127.262 136.297 127.398 138.473 128.655L146.133 133.078L169.908 133.064V143.959C169.962 144.695 169.551 145.406 168.645 145.929L137.944 163.655C136.059 164.743 132.768 164.607 130.592 163.35L100.947 146.235C99.6919 145.509 99.0869 144.57 99.1579 143.696Z" fill="#396CAA"/>
<path d="M134.532 127.621C135.911 127.655 137.343 128.002 138.472 128.655L146.132 133.078L169.907 133.064V143.959C169.961 144.695 169.55 145.406 168.644 145.929L137.943 163.655C137.038 164.177 135.806 164.415 134.531 164.384V127.621H134.532Z" fill="#396CAA"/>
<path d="M167.218 133.065L169.908 133.064V143.959C169.962 144.695 169.551 145.406 168.645 145.929L167.217 146.754V133.065H167.218Z" fill="#5793CE"/>
<path d="M137.471 163.885C135.846 164.581 133.495 164.543 131.595 163.818V151.448H137.471V163.885Z" fill="#5793CE"/>
<path d="M137.944 152.798L168.645 135.072C170.53 133.984 170.293 132.084 168.118 130.828L138.472 113.713C136.296 112.457 133.005 112.32 131.121 113.408L100.419 131.134C98.535 132.222 98.772 134.122 100.947 135.378L130.592 152.493C132.769 153.75 136.06 153.886 137.944 152.798Z" fill="#D4ECFF"/>
<path d="M100.948 133.293L130.593 150.408C132.769 151.665 136.06 151.801 137.945 150.713L168.646 132.987C169.067 132.744 169.375 132.46 169.586 132.153C170.233 133.195 169.94 134.325 168.646 135.072L137.945 152.798C136.06 153.886 132.769 153.75 130.593 152.493L100.948 135.378C99.2569 134.402 98.7439 133.038 99.4789 131.968C99.7749 132.443 100.267 132.899 100.948 133.293Z" fill="white"/>
<path d="M110.45 146.492C110.45 147.283 111.005 148.244 111.69 148.639C112.375 149.035 112.93 148.714 112.93 147.923C112.93 147.132 112.374 146.171 111.69 145.775C111.005 145.381 110.45 145.701 110.45 146.492Z" fill="#5793CE"/>
<path d="M106.461 144.188C106.461 144.979 107.016 145.94 107.7 146.335C108.386 146.731 108.94 146.41 108.94 145.619C108.94 144.828 108.385 143.867 107.7 143.472C107.016 143.077 106.461 143.397 106.461 144.188Z" fill="#D4ECFF"/>
<path d="M102.471 141.885C102.471 142.676 103.027 143.637 103.711 144.033C104.396 144.428 104.951 144.108 104.951 143.317C104.951 142.526 104.395 141.565 103.711 141.169C103.027 140.773 102.471 141.094 102.471 141.885Z" fill="#D4ECFF"/>
<path d="M136.129 141.809L150.496 133.514C151.377 133.005 151.267 132.116 150.249 131.528L136.376 123.519C135.358 122.931 133.818 122.868 132.937 123.376L118.57 131.67C117.688 132.179 117.799 133.068 118.817 133.656L132.689 141.665C133.707 142.254 135.247 142.317 136.129 141.809Z" fill="#5793CE"/>
<path d="M134.753 134.863L136.741 133.716C136.863 133.646 136.847 133.523 136.707 133.441L134.787 132.333C134.646 132.251 134.433 132.243 134.311 132.313L132.324 133.46C132.202 133.53 132.217 133.653 132.358 133.734L134.277 134.842C134.418 134.925 134.631 134.934 134.753 134.863Z" fill="#D4ECFF"/>
<path d="M150.496 133.514L150.455 133.537C150.388 133.489 150.326 133.44 150.249 133.395L136.376 125.386C135.358 124.798 133.818 124.734 132.937 125.243L118.611 133.514C117.798 132.932 117.756 132.14 118.57 131.67L132.937 123.376C133.819 122.867 135.359 122.931 136.376 123.519L150.249 131.528C151.267 132.115 151.377 133.005 150.496 133.514Z" fill="#396CAA"/>
<path d="M191.398 236.096L215.916 221.942C217.421 221.073 217.232 219.555 215.494 218.552L191.82 204.884C190.083 203.88 187.455 203.772 185.95 204.641L161.432 218.795C159.927 219.664 160.116 221.182 161.853 222.185L185.527 235.854C187.266 236.855 189.894 236.965 191.398 236.096Z" fill="#B2D3EA"/>
<path d="M153.299 208.014V197.42L177.053 197.407L185.263 192.667C187.148 191.579 190.439 191.715 192.615 192.972L200.275 197.395L224.049 197.381V208.276C224.104 209.012 223.693 209.723 222.787 210.246L192.085 227.972C190.201 229.06 186.91 228.923 184.734 227.667L155.088 210.552C153.834 209.826 153.229 208.888 153.299 208.014Z" fill="#396CAA"/>
<path d="M188.674 191.938C190.053 191.972 191.485 192.319 192.614 192.972L200.274 197.395L224.048 197.381V208.276C224.103 209.012 223.692 209.723 222.786 210.246L192.084 227.972C191.179 228.494 189.948 228.732 188.673 228.701V191.938H188.674Z" fill="#396CAA"/>
<path d="M221.358 197.383L224.048 197.381V208.276C224.103 209.012 223.692 209.723 222.786 210.246L221.357 211.071V197.383H221.358Z" fill="#5793CE"/>
<path d="M191.612 228.202C189.987 228.898 187.636 228.859 185.736 228.135V215.766H191.612V228.202Z" fill="#5793CE"/>
<path d="M192.085 217.115L222.787 199.389C224.671 198.301 224.434 196.402 222.259 195.145L192.614 178.03C190.438 176.773 187.147 176.637 185.262 177.725L154.561 195.451C152.676 196.539 152.913 198.439 155.088 199.695L184.734 216.81C186.91 218.066 190.201 218.203 192.085 217.115Z" fill="#D4ECFF"/>
<path d="M191.533 213.925L217.261 199.071C218.84 198.159 218.642 196.566 216.819 195.513L191.976 181.17C190.153 180.117 187.395 180.003 185.816 180.915L160.087 195.769C158.508 196.681 158.706 198.274 160.529 199.327L185.372 213.67C187.195 214.723 189.954 214.837 191.533 213.925Z" fill="#5793CE"/>
<path d="M164.592 210.81C164.592 211.6 165.147 212.562 165.831 212.957C166.517 213.353 167.071 213.032 167.071 212.241C167.071 211.45 166.516 210.488 165.831 210.094C165.146 209.698 164.592 210.019 164.592 210.81Z" fill="#D4ECFF"/>
<path d="M160.602 208.506C160.602 209.297 161.158 210.258 161.842 210.653C162.526 211.048 163.082 210.728 163.082 209.937C163.082 209.146 162.526 208.185 161.842 207.79C161.158 207.395 160.602 207.715 160.602 208.506Z" fill="#5793CE"/>
<path d="M156.612 206.202C156.612 206.993 157.167 207.955 157.851 208.349C158.537 208.745 159.091 208.424 159.091 207.634C159.091 206.843 158.536 205.881 157.851 205.486C157.167 205.091 156.612 205.412 156.612 206.202Z" fill="#D4ECFF"/>
<path d="M153.299 191.085V180.492L177.053 180.478L185.263 175.738C187.148 174.65 190.439 174.787 192.615 176.043L200.275 180.466L224.049 180.452V191.347C224.104 192.083 223.693 192.794 222.787 193.317L192.085 211.043C190.201 212.131 186.91 211.994 184.734 210.738L155.088 193.623C153.834 192.897 153.229 191.959 153.299 191.085Z" fill="#396CAA"/>
<path d="M188.674 175.01C190.053 175.043 191.485 175.391 192.614 176.043L200.274 180.466L224.048 180.452V191.347C224.103 192.083 223.692 192.794 222.786 193.317L192.084 211.043C191.179 211.565 189.948 211.803 188.673 211.772V175.01H188.674Z" fill="#396CAA"/>
<path d="M221.358 180.454L224.048 180.452V191.347C224.103 192.083 223.692 192.794 222.786 193.317L221.357 194.141V180.454H221.358Z" fill="#5793CE"/>
<path d="M191.612 211.273C189.987 211.969 187.636 211.931 185.736 211.207V198.836H191.612V211.273Z" fill="#5793CE"/>
<path d="M192.085 200.187L222.787 182.461C224.671 181.373 224.434 179.473 222.259 178.217L192.614 161.102C190.438 159.846 187.147 159.709 185.262 160.797L154.561 178.523C152.676 179.611 152.913 181.51 155.088 182.767L184.734 199.882C186.91 201.139 190.201 201.274 192.085 200.187Z" fill="#D4ECFF"/>
<path d="M191.533 196.996L217.261 182.142C218.84 181.23 218.642 179.637 216.819 178.585L191.976 164.241C190.153 163.188 187.395 163.074 185.816 163.986L160.087 178.84C158.508 179.751 158.706 181.344 160.529 182.397L185.372 196.74C187.195 197.794 189.954 197.908 191.533 196.996Z" fill="#5793CE"/>
<path d="M164.592 193.881C164.592 194.672 165.147 195.633 165.831 196.028C166.517 196.424 167.071 196.103 167.071 195.312C167.071 194.521 166.516 193.56 165.831 193.164C165.146 192.77 164.592 193.09 164.592 193.881Z" fill="#D4ECFF"/>
<path d="M160.602 191.577C160.602 192.368 161.158 193.329 161.842 193.724C162.526 194.119 163.082 193.799 163.082 193.008C163.082 192.218 162.526 191.256 161.842 190.861C161.158 190.466 160.602 190.786 160.602 191.577Z" fill="#D4ECFF"/>
<path d="M156.612 189.273C156.612 190.064 157.167 191.026 157.851 191.421C158.537 191.816 159.091 191.495 159.091 190.704C159.091 189.914 158.536 188.952 157.851 188.557C157.167 188.162 156.612 188.482 156.612 189.273Z" fill="#5793CE"/>
<path d="M153.299 174.156V163.563L177.053 163.55L185.263 158.81C187.148 157.722 190.439 157.858 192.615 159.115L200.275 163.538L224.049 163.524V174.419C224.104 175.155 223.693 175.866 222.787 176.389L192.085 194.115C190.201 195.203 186.91 195.066 184.734 193.81L155.088 176.695C153.834 175.969 153.229 175.03 153.299 174.156Z" fill="#396CAA"/>
<path d="M188.674 158.081C190.053 158.115 191.485 158.462 192.614 159.115L200.274 163.538L224.048 163.524V174.419C224.103 175.155 223.692 175.866 222.786 176.389L192.084 194.115C191.179 194.638 189.948 194.875 188.673 194.844V158.081H188.674Z" fill="#396CAA"/>
<path d="M221.358 163.525L224.048 163.523V174.418C224.103 175.154 223.692 175.865 222.786 176.388L221.357 177.213V163.525H221.358Z" fill="#5793CE"/>
<path d="M191.612 194.345C189.987 195.041 187.636 195.002 185.736 194.278V181.909H191.612V194.345Z" fill="#5793CE"/>
<path d="M192.085 183.258L222.787 165.532C224.671 164.444 224.434 162.544 222.259 161.288L192.614 144.173C190.438 142.917 187.147 142.78 185.262 143.868L154.561 161.594C152.676 162.682 152.913 164.582 155.088 165.838L184.734 182.953C186.91 184.209 190.201 184.346 192.085 183.258Z" fill="#D4ECFF"/>
<path d="M155.089 163.753L184.735 180.868C186.911 182.125 190.202 182.262 192.087 181.174L222.788 163.448C223.208 163.205 223.517 162.921 223.728 162.613C224.375 163.655 224.082 164.785 222.788 165.532L192.087 183.258C190.202 184.346 186.911 184.209 184.735 182.953L155.089 165.838C153.399 164.862 152.885 163.498 153.621 162.428C153.917 162.903 154.407 163.359 155.089 163.753Z" fill="white"/>
<path d="M164.592 176.952C164.592 177.742 165.147 178.704 165.831 179.099C166.517 179.495 167.071 179.174 167.071 178.383C167.071 177.592 166.516 176.63 165.831 176.236C165.146 175.841 164.592 176.161 164.592 176.952Z" fill="#5793CE"/>
<path d="M160.602 174.648C160.602 175.439 161.158 176.4 161.842 176.795C162.526 177.19 163.082 176.87 163.082 176.079C163.082 175.288 162.526 174.327 161.842 173.932C161.158 173.537 160.602 173.857 160.602 174.648Z" fill="#5793CE"/>
<path d="M156.612 172.345C156.612 173.136 157.167 174.098 157.851 174.492C158.537 174.888 159.091 174.567 159.091 173.777C159.091 172.986 158.536 172.024 157.851 171.629C157.167 171.233 156.612 171.555 156.612 172.345Z" fill="#D4ECFF"/>
<path d="M190.271 172.269L204.637 163.974C205.519 163.465 205.408 162.576 204.39 161.988L190.518 153.979C189.499 153.391 187.959 153.328 187.078 153.836L172.712 162.131C171.83 162.64 171.941 163.529 172.959 164.117L186.831 172.126C187.848 172.714 189.389 172.777 190.271 172.269Z" fill="#5793CE"/>
<path d="M188.895 165.323L190.883 164.176C191.004 164.106 190.989 163.983 190.848 163.901L188.929 162.793C188.788 162.711 188.575 162.703 188.453 162.773L186.465 163.92C186.343 163.99 186.359 164.113 186.499 164.194L188.419 165.302C188.56 165.385 188.772 165.394 188.895 165.323Z" fill="#D4ECFF"/>
<path d="M204.637 163.974L204.597 163.997C204.53 163.949 204.468 163.9 204.39 163.855L190.518 155.846C189.499 155.258 187.959 155.194 187.078 155.703L172.752 163.974C171.939 163.392 171.897 162.6 172.712 162.13L187.078 153.835C187.96 153.326 189.5 153.39 190.518 153.978L204.39 161.987C205.408 162.575 205.519 163.465 204.637 163.974Z" fill="#396CAA"/>
<path d="M194.813 202.712C194.813 203.279 195.211 203.509 195.703 203.226C196.194 202.942 196.593 202.252 196.593 201.686C196.593 201.119 196.195 200.889 195.703 201.172C195.211 201.455 194.813 202.145 194.813 202.712Z" fill="#D4ECFF"/>
<path d="M197.572 201.13C197.572 201.697 197.97 201.927 198.462 201.643C198.953 201.36 199.352 200.67 199.352 200.103C199.352 199.537 198.954 199.306 198.462 199.59C197.971 199.873 197.572 200.563 197.572 201.13Z" fill="#D4ECFF"/>
<path d="M194.813 206.041C194.813 206.608 195.211 206.839 195.703 206.555C196.194 206.272 196.593 205.582 196.593 205.015C196.593 204.448 196.195 204.218 195.703 204.501C195.212 204.785 194.813 205.475 194.813 206.041Z" fill="#D4ECFF"/>
<path d="M197.572 204.459C197.572 205.026 197.97 205.256 198.462 204.973C198.954 204.69 199.352 204 199.352 203.432C199.352 202.866 198.954 202.635 198.462 202.919C197.971 203.202 197.572 203.893 197.572 204.459Z" fill="#5793CE"/>
<path d="M245.539 266.557L270.058 252.401C271.562 251.533 271.373 250.015 269.636 249.012L245.962 235.344C244.225 234.34 241.596 234.232 240.091 235.1L215.573 249.256C214.068 250.124 214.258 251.642 215.995 252.645L239.669 266.313C241.406 267.316 244.035 267.425 245.539 266.557Z" fill="#B2D3EA"/>
<path d="M207.44 238.474V227.881L231.193 227.867L239.404 223.127C241.288 222.039 244.58 222.176 246.756 223.432L254.416 227.855L278.19 227.841V238.737C278.244 239.472 277.834 240.183 276.927 240.706L246.226 258.432C244.342 259.52 241.05 259.384 238.874 258.127L209.229 241.012C207.976 240.286 207.37 239.348 207.44 238.474Z" fill="#396CAA"/>
<path d="M242.814 222.398C244.194 222.431 245.625 222.779 246.755 223.431L254.415 227.854L278.189 227.84V238.736C278.243 239.471 277.833 240.182 276.926 240.705L246.225 258.431C245.32 258.953 244.088 259.192 242.813 259.16V222.398H242.814Z" fill="#396CAA"/>
<path d="M275.5 227.843L278.19 227.841V238.737C278.244 239.472 277.834 240.183 276.927 240.706L275.499 241.53V227.843H275.5Z" fill="#5793CE"/>
<path d="M245.754 258.662C244.129 259.359 241.777 259.32 239.877 258.596V246.226H245.754V258.662Z" fill="#5793CE"/>
<path d="M246.227 247.575L276.928 229.849C278.813 228.761 278.576 226.861 276.401 225.605L246.756 208.49C244.58 207.234 241.288 207.097 239.404 208.185L208.702 225.911C206.818 226.999 207.055 228.899 209.23 230.155L238.875 247.27C241.051 248.527 244.343 248.663 246.227 247.575Z" fill="#D4ECFF"/>
<path d="M245.674 244.385L271.403 229.531C272.982 228.619 272.784 227.027 270.961 225.974L246.118 211.63C244.295 210.577 241.537 210.463 239.958 211.375L214.229 226.229C212.65 227.14 212.848 228.733 214.671 229.786L239.514 244.129C241.337 245.183 244.095 245.297 245.674 244.385Z" fill="#5793CE"/>
<path d="M218.732 241.27C218.732 242.061 219.288 243.022 219.972 243.417C220.656 243.812 221.212 243.492 221.212 242.701C221.212 241.91 220.656 240.949 219.972 240.554C219.288 240.159 218.732 240.479 218.732 241.27Z" fill="#D4ECFF"/>
<path d="M214.743 238.966C214.743 239.757 215.298 240.719 215.982 241.113C216.668 241.509 217.222 241.188 217.222 240.398C217.222 239.607 216.667 238.645 215.982 238.25C215.298 237.854 214.743 238.175 214.743 238.966Z" fill="#5793CE"/>
<path d="M210.753 236.662C210.753 237.453 211.309 238.415 211.993 238.81C212.678 239.205 213.233 238.884 213.233 238.093C213.233 237.303 212.677 236.341 211.993 235.946C211.309 235.551 210.753 235.871 210.753 236.662Z" fill="#D4ECFF"/>
<path d="M207.44 221.545V210.952L231.193 210.938L239.404 206.198C241.288 205.11 244.58 205.247 246.756 206.503L254.416 210.926L278.19 210.912V221.807C278.244 222.543 277.834 223.254 276.927 223.777L246.226 241.503C244.342 242.591 241.05 242.454 238.874 241.198L209.229 224.083C207.976 223.357 207.37 222.419 207.44 221.545Z" fill="#396CAA"/>
<path d="M242.814 205.469C244.194 205.503 245.625 205.851 246.755 206.503L254.415 210.926L278.189 210.912V221.807C278.243 222.543 277.833 223.254 276.926 223.777L246.225 241.503C245.32 242.026 244.088 242.263 242.813 242.232V205.469H242.814Z" fill="#396CAA"/>
<path d="M275.5 210.914L278.19 210.912V221.807C278.244 222.543 277.834 223.254 276.927 223.777L275.499 224.602V210.914H275.5Z" fill="#5793CE"/>
<path d="M245.754 241.734C244.129 242.429 241.777 242.39 239.877 241.667V229.297H245.754V241.734Z" fill="#5793CE"/>
<path d="M246.227 230.646L276.928 212.92C278.813 211.832 278.576 209.933 276.401 208.676L246.756 191.561C244.58 190.304 241.288 190.168 239.404 191.256L208.702 208.982C206.818 210.07 207.055 211.97 209.23 213.226L238.875 230.341C241.051 231.598 244.343 231.734 246.227 230.646Z" fill="#D4ECFF"/>
<path d="M245.674 227.457L271.403 212.603C272.982 211.691 272.784 210.098 270.961 209.045L246.118 194.702C244.295 193.649 241.537 193.535 239.958 194.447L214.229 209.301C212.65 210.213 212.848 211.806 214.671 212.858L239.514 227.202C241.337 228.254 244.095 228.368 245.674 227.457Z" fill="#5793CE"/>
<path d="M218.732 224.341C218.732 225.131 219.288 226.093 219.972 226.488C220.656 226.883 221.212 226.563 221.212 225.772C221.212 224.982 220.656 224.019 219.972 223.625C219.288 223.229 218.732 223.55 218.732 224.341Z" fill="#5793CE"/>
<path d="M214.743 222.037C214.743 222.828 215.298 223.789 215.982 224.184C216.668 224.58 217.222 224.259 217.222 223.468C217.222 222.677 216.667 221.716 215.982 221.321C215.298 220.926 214.743 221.246 214.743 222.037Z" fill="#5793CE"/>
<path d="M210.753 219.733C210.753 220.524 211.309 221.486 211.993 221.88C212.678 222.276 213.233 221.955 213.233 221.165C213.233 220.374 212.677 219.412 211.993 219.017C211.309 218.622 210.753 218.943 210.753 219.733Z" fill="#D4ECFF"/>
<path d="M207.44 204.616V194.023L231.193 194.009L239.404 189.269C241.288 188.181 244.58 188.318 246.756 189.574L254.416 193.997L278.19 193.983V204.878C278.244 205.614 277.834 206.325 276.927 206.848L246.226 224.574C244.342 225.662 241.05 225.526 238.874 224.269L209.229 207.154C207.976 206.429 207.37 205.49 207.44 204.616Z" fill="#396CAA"/>
<path d="M242.814 188.541C244.194 188.574 245.625 188.922 246.755 189.574L254.415 193.997L278.189 193.983V204.878C278.243 205.614 277.833 206.325 276.926 206.848L246.225 224.574C245.32 225.096 244.088 225.334 242.813 225.303V188.541H242.814Z" fill="#396CAA"/>
<path d="M275.5 193.985L278.19 193.983V204.878C278.244 205.614 277.834 206.325 276.927 206.848L275.499 207.672V193.985H275.5Z" fill="#5793CE"/>
<path d="M245.754 224.805C244.129 225.501 241.777 225.463 239.877 224.739V212.369H245.754V224.805Z" fill="#5793CE"/>
<path d="M246.227 213.718L276.928 195.992C278.813 194.904 278.576 193.004 276.401 191.748L246.756 174.633C244.58 173.377 241.288 173.24 239.404 174.328L208.702 192.054C206.818 193.142 207.055 195.042 209.23 196.298L238.875 213.413C241.051 214.67 244.343 214.806 246.227 213.718Z" fill="#D4ECFF"/>
<path d="M209.23 194.213L238.875 211.328C241.051 212.585 244.343 212.722 246.227 211.634L276.928 193.908C277.349 193.665 277.657 193.381 277.868 193.073C278.515 194.115 278.222 195.246 276.928 195.992L246.227 213.718C244.343 214.806 241.051 214.67 238.875 213.413L209.23 196.298C207.54 195.322 207.026 193.958 207.762 192.888C208.058 193.363 208.549 193.819 209.23 194.213Z" fill="white"/>
<path d="M218.732 207.412C218.732 208.203 219.288 209.164 219.972 209.559C220.656 209.954 221.212 209.634 221.212 208.843C221.212 208.052 220.656 207.091 219.972 206.696C219.288 206.301 218.732 206.621 218.732 207.412Z" fill="#D4ECFF"/>
<path d="M214.743 205.108C214.743 205.899 215.298 206.861 215.982 207.255C216.668 207.651 217.222 207.33 217.222 206.539C217.222 205.749 216.667 204.787 215.982 204.392C215.298 203.997 214.743 204.317 214.743 205.108Z" fill="#D4ECFF"/>
<path d="M210.753 202.805C210.753 203.596 211.309 204.558 211.993 204.953C212.678 205.348 213.233 205.027 213.233 204.236C213.233 203.446 212.677 202.484 211.993 202.089C211.309 201.694 210.753 202.014 210.753 202.805Z" fill="#5793CE"/>
<path d="M244.411 202.729L258.778 194.434C259.66 193.925 259.549 193.036 258.531 192.448L244.659 184.439C243.64 183.851 242.1 183.788 241.219 184.296L226.852 192.591C225.97 193.1 226.081 193.988 227.099 194.577L240.971 202.586C241.989 203.174 243.529 203.237 244.411 202.729Z" fill="#5793CE"/>
<path d="M243.036 195.783L245.023 194.636C245.145 194.566 245.129 194.443 244.989 194.362L243.07 193.254C242.928 193.173 242.716 193.164 242.593 193.234L240.606 194.381C240.484 194.451 240.5 194.574 240.64 194.655L242.559 195.763C242.701 195.845 242.914 195.854 243.036 195.783Z" fill="#D4ECFF"/>
<path d="M258.778 194.434L258.737 194.457C258.671 194.409 258.608 194.36 258.531 194.315L244.659 186.306C243.64 185.718 242.1 185.654 241.219 186.163L226.893 194.434C226.08 193.853 226.038 193.06 226.852 192.59L241.219 184.295C242.101 183.786 243.641 183.85 244.659 184.438L258.531 192.447C259.549 193.035 259.66 193.925 258.778 194.434Z" fill="#396CAA"/>
<path d="M248.563 216.485C248.563 217.052 248.961 217.282 249.453 216.999C249.944 216.715 250.343 216.025 250.343 215.459C250.343 214.891 249.945 214.661 249.453 214.945C248.962 215.229 248.563 215.918 248.563 216.485Z" fill="#D4ECFF"/>
<path d="M251.322 214.902C251.322 215.469 251.72 215.7 252.212 215.416C252.703 215.133 253.102 214.443 253.102 213.876C253.102 213.309 252.704 213.079 252.212 213.362C251.721 213.646 251.322 214.336 251.322 214.902Z" fill="#D4ECFF"/>
<path d="M248.563 219.814C248.563 220.381 248.961 220.611 249.453 220.328C249.945 220.045 250.343 219.355 250.343 218.788C250.343 218.221 249.945 217.99 249.453 218.274C248.962 218.558 248.563 219.248 248.563 219.814Z" fill="#D4ECFF"/>
<path d="M251.322 218.232C251.322 218.798 251.72 219.029 252.212 218.746C252.703 218.462 253.102 217.772 253.102 217.205C253.102 216.639 252.704 216.408 252.212 216.692C251.721 216.976 251.322 217.665 251.322 218.232Z" fill="#5793CE"/>
<path d="M248.563 233.414C248.563 233.981 248.961 234.211 249.453 233.928C249.944 233.644 250.343 232.954 250.343 232.387C250.343 231.821 249.945 231.59 249.453 231.874C248.962 232.157 248.563 232.847 248.563 233.414Z" fill="#5793CE"/>
<path d="M251.322 231.832C251.322 232.398 251.72 232.629 252.212 232.345C252.703 232.062 253.102 231.372 253.102 230.805C253.102 230.238 252.704 230.008 252.212 230.291C251.721 230.575 251.322 231.265 251.322 231.832Z" fill="#D4ECFF"/>
<path d="M248.563 236.743C248.563 237.31 248.961 237.541 249.453 237.257C249.945 236.973 250.343 236.283 250.343 235.717C250.343 235.15 249.945 234.92 249.453 235.203C248.961 235.486 248.563 236.176 248.563 236.743Z" fill="#5793CE"/>
<path d="M251.322 235.161C251.322 235.728 251.72 235.958 252.212 235.675C252.703 235.391 253.102 234.701 253.102 234.134C253.102 233.568 252.704 233.337 252.212 233.621C251.721 233.904 251.322 234.594 251.322 235.161Z" fill="#D4ECFF"/>
<path d="M248.563 250.343C248.563 250.91 248.961 251.14 249.453 250.857C249.944 250.573 250.343 249.883 250.343 249.317C250.343 248.75 249.945 248.519 249.453 248.803C248.962 249.086 248.563 249.775 248.563 250.343Z" fill="#D4ECFF"/>
<path d="M251.322 248.761C251.322 249.328 251.72 249.558 252.212 249.274C252.703 248.991 253.102 248.301 253.102 247.734C253.102 247.167 252.704 246.937 252.212 247.22C251.721 247.504 251.322 248.193 251.322 248.761Z" fill="#5793CE"/>
<path d="M248.563 253.672C248.563 254.239 248.961 254.469 249.453 254.186C249.945 253.903 250.343 253.213 250.343 252.646C250.343 252.079 249.945 251.848 249.453 252.132C248.961 252.416 248.563 253.105 248.563 253.672Z" fill="#D4ECFF"/>
<path d="M251.322 252.09C251.322 252.657 251.72 252.887 252.212 252.604C252.703 252.32 253.102 251.63 253.102 251.063C253.102 250.497 252.704 250.266 252.212 250.55C251.721 250.833 251.322 251.522 251.322 252.09Z" fill="#D4ECFF"/>
<path d="M247.689 162.63L249.681 161.828L248.132 160.637L247.689 162.63Z" fill="#5793CE"/>
<path d="M246.693 141.051L248.628 140.267L248.492 141.079L246.693 141.051Z" fill="#5793CE"/>
<path d="M253.944 157.586L255.963 156.772L253.02 153.81L253.944 157.586Z" fill="#5793CE"/>
<path d="M249.157 161.777L241.442 157.323C241.05 157.096 240.814 156.527 240.915 156.051L242.764 147.295L251.898 152.568L250.049 161.324C249.948 161.801 249.549 162.003 249.157 161.777Z" fill="#5793CE"/>
<path d="M248.607 140.276L238.181 145.533C237.739 145.756 237.886 146.587 238.423 146.897L246.933 151.81L255.444 156.724C255.981 157.034 256.409 156.535 256.147 155.905L249.964 141.06C249.698 140.419 249.058 140.049 248.607 140.276Z" fill="#5793CE"/>
<path d="M247.135 162.594L239.42 158.14C239.027 157.913 238.792 157.344 238.893 156.869L240.742 148.112L249.875 153.385L248.026 162.141C247.926 162.617 247.526 162.82 247.135 162.594Z" fill="#D4ECFF"/>
<path d="M246.584 141.093L236.159 146.35C235.716 146.573 235.863 147.405 236.4 147.714L244.911 152.628L253.422 157.542C253.958 157.852 254.387 157.353 254.124 156.723L247.942 141.878C247.675 141.236 247.035 140.866 246.584 141.093Z" fill="#D4ECFF"/>
<path d="M194.152 131.919L196.145 131.117L194.596 129.926L194.152 131.919Z" fill="#5793CE"/>
<path d="M193.157 110.34L195.092 109.556L194.955 110.367L193.157 110.34Z" fill="#5793CE"/>
<path d="M200.408 126.875L202.426 126.062L199.483 123.099L200.408 126.875Z" fill="#5793CE"/>
<path d="M195.621 131.066L187.905 126.611C187.513 126.385 187.278 125.816 187.379 125.339L189.228 116.583L198.361 121.856L196.512 130.612C196.411 131.09 196.013 131.292 195.621 131.066Z" fill="#5793CE"/>
<path d="M195.07 109.565L184.645 114.821C184.202 115.044 184.349 115.875 184.886 116.186L193.397 121.099L201.908 126.013C202.444 126.323 202.873 125.824 202.61 125.194L196.428 110.349C196.161 109.708 195.521 109.338 195.07 109.565Z" fill="#5793CE"/>
<path d="M193.598 131.883L185.883 127.429C185.491 127.202 185.255 126.633 185.356 126.158L187.205 117.401L196.339 122.674L194.49 131.43C194.389 131.906 193.99 132.109 193.598 131.883Z" fill="#D4ECFF"/>
<path d="M193.048 110.382L182.622 115.639C182.18 115.862 182.327 116.694 182.864 117.003L191.374 121.917L199.885 126.831C200.422 127.141 200.85 126.642 200.588 126.012L194.405 111.167C194.139 110.525 193.498 110.155 193.048 110.382Z" fill="#D4ECFF"/>
<path d="M8.496 253.114L66.481 219.799C71.054 217.171 79.032 217.519 84.299 220.574L203.215 289.564C208.483 292.62 209.046 297.227 204.473 299.854L146.487 333.17C141.915 335.797 133.937 335.45 128.67 332.394L9.754 263.405C4.486 260.349 3.923 255.741 8.496 253.114Z" fill="#B2D3EA"/>
<path d="M148.799 322.158L208.178 288.042C210.778 286.549 212.084 284.558 212.151 282.461L212.153 282.462L212.204 272.24L210.296 275.529C209.383 274.459 208.142 273.439 206.57 272.528L86.995 203.157C80.221 199.226 69.961 198.779 64.079 202.158L4.70003 236.275C4.07003 236.636 3.52001 237.029 3.04101 237.444L0.765036 234.527L0.716025 244.136L0.718008 244.133C0.634008 246.779 2.52801 249.595 6.30901 251.788L125.883 321.159C132.657 325.091 142.917 325.538 148.799 322.158Z" fill="#396CAA"/>
<path d="M4.74098 228.678L64.12 194.562C70.002 191.183 80.262 191.63 87.036 195.56L206.611 264.932C213.385 268.863 214.11 274.788 208.228 278.167L148.849 312.284C142.967 315.663 132.707 315.216 125.932 311.285L6.35799 241.914C-0.417012 237.983 -1.14102 232.058 4.74098 228.678Z" fill="#D4ECFF"/>
<path d="M208.229 278.167L148.85 312.284C142.968 315.663 132.708 315.216 125.934 311.285L6.35904 241.914C3.07804 240.01 1.22903 237.639 0.850035 235.314C0.377035 238.156 2.24504 241.277 6.35904 243.664L125.934 313.035C132.708 316.966 142.968 317.413 148.85 314.034L208.229 279.917C211.262 278.175 212.524 275.755 212.121 273.281C211.814 275.119 210.538 276.84 208.229 278.167Z" fill="white"/>
<path d="M8.496 230.053L66.481 196.737C71.054 194.11 79.032 194.458 84.299 197.513L203.215 266.502C208.483 269.559 209.046 274.166 204.473 276.793L146.487 310.109C141.915 312.736 133.937 312.388 128.67 309.333L9.754 240.344C4.486 237.287 3.923 232.68 8.496 230.053Z" fill="white"/>
<path d="M221.788 85.596C221.788 86.163 221.391 86.393 220.898 86.109C220.408 85.826 220.009 85.136 220.009 84.569C220.009 84.002 220.407 83.772 220.898 84.055C221.391 84.339 221.788 85.029 221.788 85.596Z" fill="#D4ECFF"/>
<path d="M234.08 92.234C234.08 92.801 233.682 93.031 233.19 92.748C232.699 92.464 232.301 91.775 232.301 91.207C232.301 90.64 232.698 90.41 233.19 90.694C233.682 90.978 234.08 91.667 234.08 92.234Z" fill="#D4ECFF"/>
<path d="M101.915 242.172L80.449 229.779C79.653 229.319 79.754 228.517 80.673 227.986C81.592 227.456 82.983 227.398 83.778 227.857L105.244 240.251C106.039 240.711 105.939 241.514 105.02 242.044C104.102 242.574 102.711 242.632 101.915 242.172Z" fill="#B2D3EA"/>
<path d="M81.569 237.975L73.9119 233.554C73.1159 233.094 73.216 232.292 74.135 231.761C75.054 231.231 76.4449 231.173 77.2399 231.633L84.897 236.053C85.693 236.513 85.593 237.316 84.674 237.846C83.756 238.377 82.365 238.435 81.569 237.975Z" fill="#B2D3EA"/>
<path d="M94.42 245.394L86.763 240.973C85.967 240.514 86.067 239.711 86.986 239.18C87.905 238.65 89.296 238.592 90.091 239.052L97.748 243.473C98.544 243.932 98.444 244.735 97.524 245.266C96.605 245.796 95.216 245.854 94.42 245.394Z" fill="#396CAA"/>
<path d="M120.403 260.396L99.612 248.392C98.816 247.932 98.917 247.129 99.836 246.599C100.755 246.068 102.145 246.01 102.941 246.47L123.731 258.474C124.527 258.933 124.427 259.736 123.508 260.267C122.59 260.798 121.199 260.855 120.403 260.396Z" fill="#B2D3EA"/>
<path d="M94.194 252.813L67.374 237.329C66.578 236.87 66.678 236.067 67.598 235.536C68.517 235.006 69.907 234.948 70.702 235.407L97.522 250.892C98.318 251.351 98.218 252.154 97.299 252.684C96.381 253.215 94.99 253.272 94.194 252.813Z" fill="#B2D3EA"/>
<path d="M126.449 278.988L60.837 241.103C60.041 240.643 60.141 239.84 61.06 239.31C61.979 238.779 63.37 238.721 64.165 239.181L129.777 277.066C130.574 277.525 130.473 278.328 129.554 278.859C128.636 279.39 127.245 279.447 126.449 278.988Z" fill="#396CAA"/>
<path d="M145.596 267.391L107.841 245.594C107.045 245.135 107.146 244.332 108.065 243.801C108.984 243.271 110.374 243.213 111.17 243.672L148.924 265.47C149.72 265.929 149.619 266.733 148.7 267.262C147.781 267.793 146.392 267.851 145.596 267.391Z" fill="#B2D3EA"/>
<path d="M80.514 302.983L74.993 299.798C74.443 299.48 73.998 298.629 73.998 297.897C73.998 297.165 74.443 296.828 74.993 297.145L80.514 300.33C81.064 300.647 81.509 301.498 81.509 302.23C81.509 302.964 81.063 303.301 80.514 302.983Z" fill="#D4ECFF"/>
<path d="M89.201 308.014L83.68 304.829C83.13 304.512 82.685 303.661 82.685 302.928C82.685 302.196 83.13 301.86 83.68 302.176L89.201 305.362C89.751 305.679 90.196 306.53 90.196 307.262C90.196 307.994 89.751 308.331 89.201 308.014Z" fill="#D4ECFF"/>
<path d="M199.017 289.301C199.017 290.453 198.207 291.856 197.209 292.432C196.211 293.008 195.401 292.541 195.401 291.389C195.401 290.236 196.211 288.833 197.209 288.257C198.207 287.681 199.017 288.148 199.017 289.301Z" fill="#B2D3EA"/>
<path d="M152.331 139.049L154.319 137.902C154.44 137.832 154.425 137.709 154.285 137.628L152.365 136.52C152.224 136.439 152.011 136.43 151.889 136.5L149.901 137.647C149.779 137.717 149.795 137.84 149.935 137.922L151.855 139.03C151.996 139.111 152.209 139.12 152.331 139.049Z" fill="#396CAA"/>
<path d="M147.749 141.694L149.737 140.547C149.859 140.477 149.843 140.354 149.703 140.273L147.783 139.165C147.642 139.083 147.429 139.075 147.307 139.145L145.32 140.292C145.198 140.362 145.213 140.485 145.353 140.567L147.273 141.675C147.414 141.756 147.627 141.765 147.749 141.694Z" fill="#396CAA"/>
<path d="M143.167 144.34L145.155 143.193C145.277 143.123 145.261 143 145.121 142.918L143.201 141.81C143.06 141.728 142.847 141.72 142.725 141.79L140.738 142.938C140.616 143.008 140.631 143.131 140.772 143.212L142.691 144.32C142.832 144.401 143.045 144.41 143.167 144.34Z" fill="#396CAA"/>
<path d="M126.081 123.318L128.069 122.17C128.19 122.1 128.175 121.977 128.035 121.896L126.115 120.788C125.974 120.707 125.761 120.698 125.639 120.768L123.651 121.915C123.529 121.985 123.545 122.108 123.685 122.19L125.605 123.298C125.746 123.379 125.959 123.388 126.081 123.318Z" fill="#396CAA"/>
<path d="M121.499 125.963L123.487 124.816C123.609 124.746 123.593 124.623 123.453 124.542L121.533 123.434C121.392 123.353 121.179 123.344 121.057 123.414L119.07 124.561C118.948 124.631 118.963 124.754 119.103 124.835L121.023 125.943C121.164 126.025 121.377 126.033 121.499 125.963Z" fill="#396CAA"/>
<path d="M116.917 128.608L118.905 127.461C119.027 127.391 119.011 127.268 118.871 127.186L116.951 126.078C116.81 125.996 116.597 125.988 116.475 126.058L114.488 127.206C114.366 127.276 114.381 127.399 114.522 127.48L116.441 128.588C116.582 128.67 116.795 128.679 116.917 128.608Z" fill="#396CAA"/>
</svg>
