<svg width="963" height="631" viewBox="0 0 963 631" fill="none" xmlns="http://www.w3.org/2000/svg">
<path d="M441.96 525.12C413.77 525.2 385.57 525.88 357.43 529.01C346.82 530.19 336.43 532.79 325.8 533.83C304.56 535.92 283.69 539.82 262.37 541.62C245.2 543.07 227.96 543.92 210.84 545.76C194.79 547.48 177.02 547.09 161.1 544.24C149.31 542.13 137.47 540.95 125.87 537.56C112.9 533.77 98.8199 531.06 85.2999 531.16C66.0299 531.3 47.2699 531.31 28.8299 538C22.3599 540.35 14.4399 544.21 9.51993 549.14C-1.73007 560.42 -3.25006 588.57 7.97994 600.27C26.8999 619.96 67.2799 627.69 93.8099 628.06C122.87 628.46 151.11 626.3 180.21 625.03C207.25 623.85 234.23 622.17 261.32 622.23C316.65 622.35 371.98 622.23 427.21 618.53C479.1 615.06 531.12 616.25 583.12 616.25C636.45 616.25 689.41 616.67 742.35 623.76C765.42 626.85 788.92 627.93 812.1 630.09C832.86 632.03 852.81 630.05 873.49 628.26C890.85 626.76 908.11 622.3 923.88 614.76C936.37 608.79 958.63 590.25 962.46 576.01C973.2 536.07 811.16 537.04 786.28 537.13C758.45 537.23 730.4 538.15 702.59 537.09C690.89 536.64 679.37 534.36 667.95 531.85C656.58 529.35 645.12 529.99 633.59 528.94C585.5 524.57 537.3 525.21 489.05 525.21C473.38 525.21 457.67 525.07 441.96 525.12Z" fill="#F1F2F2"/>
<path d="M77.54 364.58L74.04 445.9L84.31 584.17L99.69 585.26L118.38 459.68L144.23 353.41L77.54 364.58Z" fill="#9EA6AD"/>
<path d="M99.14 591.74L81.92 598.87L74.2 589.96L83.1 582.24L99.74 583.42L99.14 591.74Z" fill="#1A3151"/>
<path d="M186.41 335.8L189.78 397.27L179.77 580.04L164.37 580.8L141.29 460.93L120.94 329.48L186.41 335.8Z" fill="#9EA6AD"/>
<path d="M164.79 587.29L181.85 594.79L189.76 586.04L181.02 578.13L164.37 578.97L164.79 587.29Z" fill="#1A3151"/>
<path d="M73.5102 159.87L120.03 146.77C120.03 146.77 146.86 145.12 175.35 204.69C191.2 237.83 203.51 292.18 211.32 333.89C211.21 340.05 209.14 367.28 180.9 367.5C132.41 367.88 105.99 364.52 86.0803 371.81C69.2103 378.58 66.6102 354.22 65.4202 335.5L62.7603 277.39L73.5102 159.87Z" fill="#145566"/>
<path d="M72.6802 99.3399C84.1802 94.6899 96.0702 90.2499 108.42 90.5899C111.13 90.6699 114.09 91.0999 115.89 93.1199C116.59 93.8999 117.05 94.86 117.49 95.82C122.41 106.52 129.05 122.5 123.41 134.08C122.34 136.29 120.71 138.17 118.89 139.79C116.46 141.95 113.65 143.61 110.64 144.75C111.76 147.43 113.11 150.01 114.69 152.44C112.65 157.02 99.9902 159.68 96.9602 156.13C96.2502 152.73 95.5402 149.34 94.8302 145.94C93.1702 145.58 91.5402 145.07 89.9802 144.38C83.9202 141.71 79.4102 136.87 76.2902 131.13C72.9002 124.88 68.6302 119.11 65.4102 112.7C64.2402 110.36 63.1602 107.65 64.0802 105.21C65.0602 102.61 67.9002 101.29 70.4802 100.24C71.2202 99.94 71.9502 99.6399 72.6802 99.3399Z" fill="#AA6755"/>
<path d="M113.51 99.02C106.97 96.22 97.8302 96.09 92.3502 97.43C75.7802 101.49 71.7201 114.85 73.4301 130.43C67.8101 125.34 57.8902 119.42 56.0802 111.95C54.6002 105.83 54.0301 97.25 56.5901 91.32C58.9901 85.77 66.8201 81.62 71.2601 77.89C75.4501 74.37 79.6302 70.85 83.8202 67.33C84.6902 66.6 85.5902 65.85 86.6602 65.47C87.9302 65.02 89.3202 65.13 90.6602 65.25C102.13 66.23 113.6 67.21 125.07 68.19C127.27 68.38 129.81 68.77 130.94 70.67C131.62 71.83 131.58 73.26 131.52 74.6C131.24 80.52 129.83 86.75 130.22 92.63C130.12 96.1 131.03 113.65 124.75 112.67C122.52 110.11 121.67 106.64 119.79 103.81C118.39 101.73 116.17 100.16 113.51 99.02Z" fill="#1A3151"/>
<path d="M120.03 146.77L138.45 149.13L213.74 205.3L221.29 226.74L199.26 282.39L187.87 265.29L194.5 225.79L171.49 214.81L133.64 157.78L120.03 146.77Z" fill="#145566"/>
<path d="M597.72 566.06L201.83 600.82L155.79 77.11L551.69 42.35L597.72 566.06Z" fill="#3ABABA"/>
<path d="M575.78 545.31L219.82 576.56L177.23 92.04L533.19 60.78L575.78 545.31Z" fill="#FCFCFC"/>
<path opacity="0.12" d="M432.303 67.0492L277.703 80.6284L278.966 95.0135L433.566 81.4343L432.303 67.0492Z" fill="black"/>
<path d="M396.77 26.33L394.37 26.54L394.23 24.94C392.9 9.84 377.64 -1.16 360.14 0.370003L337.09 2.39C319.59 3.93 306.48 17.42 307.81 32.52L307.95 34.12L305.55 34.33C288.05 35.87 274.94 49.36 276.27 64.46L278.96 95.01L433.55 81.44L430.86 50.89C429.53 35.79 414.27 24.8 396.77 26.33ZM371.58 29.18L330.85 32.76C326.69 33.13 322.98 30.05 322.62 25.92C322.26 21.79 325.37 18.12 329.53 17.75L370.26 14.17C374.42 13.8 378.13 16.88 378.49 21.01C378.85 25.14 375.74 28.81 371.58 29.18Z" fill="#E8EBED"/>
<g opacity="0.47">
<path opacity="0.47" d="M290.58 263.21C273.16 264.74 255.74 266.27 238.32 267.8C236.85 267.93 235.71 269.28 235.84 270.74C237.36 288.01 238.88 305.28 240.39 322.55C240.52 324.01 241.87 325.14 243.35 325.01C260.77 323.48 278.19 321.95 295.61 320.42C296.41 320.35 296.99 320.01 297.39 319.54C297.42 319.51 297.45 319.48 297.47 319.45C297.48 319.43 297.5 319.41 297.52 319.39C297.92 318.92 298.17 318.29 298.1 317.49C296.58 300.22 295.06 282.95 293.55 265.68C293.41 264.21 292.05 263.08 290.58 263.21ZM292.41 315.25C276.8 316.62 261.2 317.99 245.59 319.36C244.23 303.89 242.87 288.42 241.51 272.95C257.12 271.58 272.72 270.21 288.33 268.84C289.69 284.31 291.05 299.78 292.41 315.25Z" fill="#879195"/>
<path opacity="0.47" d="M299 359C281.58 360.53 264.16 362.06 246.74 363.59C245.27 363.72 244.13 365.07 244.26 366.53C245.78 383.8 247.3 401.07 248.81 418.34C248.94 419.8 250.29 420.93 251.77 420.8C269.19 419.27 286.61 417.74 304.03 416.21C304.83 416.14 305.41 415.8 305.81 415.33C305.84 415.3 305.87 415.27 305.89 415.24C305.9 415.22 305.92 415.2 305.94 415.18C306.35 414.71 306.59 414.08 306.52 413.28C305 396.01 303.48 378.74 301.97 361.47C301.83 360 300.47 358.87 299 359ZM300.83 411.04C285.22 412.41 269.62 413.78 254.01 415.15C252.65 399.68 251.29 384.21 249.93 368.74C265.54 367.37 281.14 366 296.75 364.63C298.11 380.1 299.47 395.57 300.83 411.04Z" fill="#879195"/>
<path opacity="0.47" d="M307.42 454.78C290 456.31 272.58 457.84 255.16 459.37C253.69 459.5 252.55 460.85 252.68 462.31C254.2 479.58 255.72 496.85 257.23 514.12C257.36 515.58 258.71 516.71 260.19 516.58C277.61 515.05 295.03 513.52 312.45 511.99C313.25 511.92 313.83 511.58 314.23 511.11C314.26 511.08 314.29 511.05 314.31 511.02C314.32 511 314.34 510.98 314.36 510.96C314.77 510.49 315.01 509.86 314.94 509.06C313.42 491.79 311.9 474.52 310.39 457.25C310.25 455.78 308.89 454.65 307.42 454.78ZM309.25 506.83C293.64 508.2 278.04 509.57 262.43 510.94C261.07 495.47 259.71 480 258.35 464.53C273.96 463.16 289.56 461.79 305.17 460.42C306.53 475.89 307.89 491.36 309.25 506.83Z" fill="#879195"/>
</g>
<path d="M257.64 285.85L269.3 280.83L277.02 292.15L330.81 246.1L337.59 246.83L275.63 306.94L257.64 285.85Z" fill="#3ABABA"/>
<path d="M261.92 384.45L273.58 379.43L281.3 390.75L335.08 344.7L341.87 345.43L279.91 405.54L261.92 384.45Z" fill="#3ABABA"/>
<path d="M268.8 475.21L280.46 470.18L288.18 481.5L341.96 435.45L348.75 436.19L286.79 496.29L268.8 475.21Z" fill="#3ABABA"/>
<path opacity="0.32" d="M529.48 482.6L345.11 498.79L342.84 472.88L527.2 456.69L529.48 482.6Z" fill="#879195"/>
<path opacity="0.32" d="M520.56 381.14L336.2 397.33L333.92 371.43L518.29 355.24L520.56 381.14Z" fill="#879195"/>
<path opacity="0.32" d="M509.399 253.779L325.022 269.973L327.297 295.874L511.674 279.68L509.399 253.779Z" fill="#879195"/>
<path d="M93.1901 189.14L86.6401 241.39L171.44 298.19L166.79 313.35L58.5101 271.93L48.8601 236.61L73.5101 159.87L93.1901 189.14Z" fill="#145566"/>
<path d="M167.78 310.1L174.49 315.88L191.37 316.97L191.21 307.62L179.14 303.25L177.9 298.37L171.44 298.19L167.78 310.1Z" fill="#AA6755"/>
<path d="M904.19 571.91L905.03 580.12L889.44 590L880.39 582.63L887.77 573.58L903.36 563.7L904.19 571.91Z" fill="#14263A"/>
<path d="M904.8 321.41L907.33 346.35L885.06 457.8L904.78 569.18L888.83 574.09L837.23 441.67L834.4 401.18L841.39 317.32L904.8 321.41Z" fill="#145566"/>
<path d="M783.86 329.9L783.35 435.26L804.11 570.96L819.38 570.86L828.18 445.46L848.23 319.99L783.86 329.9Z" fill="#145566"/>
<path d="M819.33 577.29L802.88 585.66L794.57 577.46L802.77 569.15L819.28 569.04L819.33 577.29Z" fill="#14263A"/>
<path d="M771 314.44C782.01 280.33 783.19 244.51 786.39 208.97C787.34 198.49 788.35 187.77 792.71 178.19C797.72 167.19 806.01 161.38 815.66 158.21C827.95 154.17 842.44 154.4 855.22 153.63C867.34 153.25 878.06 198.81 890.43 220.9C898.01 234.44 905.81 246.41 910.92 261.17C915.83 275.34 920.54 289.76 923.39 304.5C927.7 326.76 938.72 342.3 928.19 349.88C927.23 350.2 926.3 350.51 925.41 350.83C908.15 357.01 890.29 361.59 872.1 363.99C855.97 366.12 839.58 366.51 823.38 364.91C801.2 362.72 779.71 359.59 760.16 348.03C763.77 336.83 767.38 325.64 771 314.44Z" fill="#D1E7F5"/>
<path d="M694.96 245.43L770.96 222.73L796.75 171.29L810.98 197.6L794.57 245.43L711.39 261.9L694.96 245.43Z" fill="#D1E7F5"/>
<path d="M810.99 361.671L865.022 307.729L665.74 108.108L611.707 162.05L810.99 361.671Z" fill="#EBB044"/>
<path d="M665.73 108.09L590.55 86.81L611.7 162.03L665.73 108.09Z" fill="#EDEEEF"/>
<path d="M618.76 94.8L590.55 86.81L598.48 115.03L618.76 94.8Z" fill="#145566"/>
<path d="M845.06 381.43L885.18 341.39C889.02 337.55 889.03 331.33 885.19 327.48L865.01 307.72L810.98 361.66L831.16 381.42C834.99 385.26 841.22 385.27 845.06 381.43Z" fill="white"/>
<path d="M810.98 361.66L865.01 307.72L854.92 297.62L800.47 351.13L810.98 361.66Z" fill="#EDEDEF"/>
<path d="M861.14 119.72C854.24 98.88 823.82 91.62 816.74 115.84C814.61 123.12 813.34 130.84 814.78 138.29C816.22 145.73 820.77 152.88 827.72 155.93C827.76 155.95 827.8 155.96 827.84 155.98C827.57 157.91 827.3 159.84 827.03 161.78C826.97 162.2 826.92 162.65 827.16 163C827.43 163.4 827.95 163.5 828.43 163.57C830.74 163.91 833.04 164.26 835.35 164.6C836.49 164.77 837.68 164.94 838.79 164.59C841.2 163.82 842.2 160.93 842.31 158.4C842.33 157.8 842.33 157.18 842.32 156.57C855.96 151.9 865.66 133.35 861.14 119.72Z" fill="#EAC1A4"/>
<path d="M824.08 84.13C818.51 83.3 813.77 88.7 808.63 91.54C804.35 93.9 799.51 94.52 795.08 96.48C790.65 98.44 786.29 102.52 786.2 107.63C781.71 105.29 776.85 102.9 771.81 103.87C766.78 104.84 762.11 110.85 764.11 115.8C765.9 120.24 771.69 121.28 773.61 125.64C776.65 132.54 768.42 143.27 774.04 147.85C775.39 148.95 777.23 149.22 778.55 150.35C780.2 151.76 780.73 154.18 781.46 156.33C784.79 166.07 794.61 172.44 804.31 171.14C810.34 168.31 815.15 162.48 817.31 155.79C819.91 147.73 815.6 144.92 814.87 137.36C814.08 129.09 816.7 120.34 821.91 113.92C825.3 109.74 830.14 106.14 835.26 105.65C837.34 105.45 836.69 107.19 839.03 105.58C840.04 104.89 841.41 102.27 841.69 101.02C836.1 96.5 831.41 85.22 824.08 84.13Z" fill="#1A3151"/>
<path d="M884.33 94.85C887.2 95.65 890.32 95.5299 893.06 96.7299C897.17 98.5299 896.92 102.8 898.09 106.51C899.38 110.61 901.25 116.12 903.96 119.32C905.91 121.62 908.64 122.93 911.02 124.71C913.4 126.48 915.58 129.11 915.53 132.31C915.48 135.34 913.44 138.06 913.15 141.09C912.79 145.6 913.57 147.92 912.18 152.53C911.46 154.91 910.66 157.43 908.87 159.05C906.52 161.19 903.16 161.15 900.22 160.66C897.28 160.17 894.23 159.35 891.33 160.33C885.03 162.45 886.21 168.82 884.53 174.16C881.98 182.28 872.56 187.03 865.35 184.14C859.24 181.69 855.7 174.59 855.98 167.59C856.12 164.08 857.51 160.81 857.62 157.3C857.72 153.91 855.81 149.23 858.88 146.54C859.63 145.89 860.59 145.54 861.26 144.8C861.8 144.2 862.1 143.39 862.29 142.58C862.94 139.78 862.33 136.73 860.68 134.59C859.49 133.05 857.8 131.93 857.07 130.07C856.24 127.94 856.9 125.45 857.04 123.1C857.38 117.41 854.27 111.84 849.54 109.64C846.42 108.19 843.61 107.34 840.88 105.14C840.46 104.81 834.26 99.3199 834.1 100.51C834.38 98.4499 835.58 96.64 836.8 94.99C838.81 92.27 841.03 89.62 843.86 87.99C853 82.72 853.44 94.9699 860.77 93.3599C862.54 92.9699 863.87 91.35 865.46 90.38C868.47 88.55 872.16 89.2 875.24 90.57C878.27 91.91 881.09 93.94 884.33 94.85Z" fill="#1A3151"/>
<path d="M692.52 256.13L701.52 254.21L712.81 262.85L704.28 272.8L695.75 265.83L692.52 256.13Z" fill="#EAC1A4"/>
<path d="M791.69 284.97L785.64 291.44L768.98 294.33L768.13 285.01L779.66 279.37L780.37 274.38L786.78 273.52L791.69 284.97Z" fill="#EAC1A4"/>
<path d="M776.04 273.17L852.04 250.46L877.84 199.03L892.06 225.34L875.66 273.17L792.48 289.64L776.04 273.17Z" fill="#D1E7F5"/>
<path d="M272.48 143.91L219.91 148.92L220.96 159.98L240.37 158.13L245.23 209.05L258.98 207.74L254.12 156.82L273.53 154.96L272.48 143.91Z" fill="#1A3151"/>
<path d="M332.41 152.42C329.52 147.9 325.69 144.56 320.91 142.4C316.14 140.25 310.67 139.47 304.52 140.05C298.37 140.64 293.14 142.44 288.83 145.45C284.52 148.47 281.36 152.47 279.35 157.47C277.34 162.47 276.64 168.18 277.25 174.62C277.86 181.06 279.63 186.57 282.56 191.15C285.49 195.73 289.35 199.1 294.15 201.24C298.95 203.39 304.43 204.17 310.58 203.58C316.73 202.99 321.95 201.19 326.23 198.18C330.51 195.17 333.64 191.14 335.62 186.09C337.6 181.04 338.28 175.3 337.67 168.86C337.05 162.44 335.3 156.95 332.41 152.42ZM321.28 186.34C318.7 190.28 314.8 192.49 309.57 192.99C304.35 193.49 300.1 192.06 296.82 188.72C293.54 185.37 291.58 180.25 290.92 173.34C290.27 166.49 291.23 161.13 293.82 157.25C296.41 153.37 300.31 151.19 305.53 150.69C310.75 150.19 315 151.6 318.28 154.92C321.55 158.24 323.52 163.32 324.17 170.17C324.82 177.01 323.86 182.4 321.28 186.34Z" fill="#1A3151"/>
<path d="M423.77 143.89C420.74 139.49 416.68 136.31 411.57 134.34C406.46 132.37 400.52 131.71 393.73 132.35L369.79 134.63L375.7 196.61L399.64 194.33C406.49 193.68 412.23 191.88 416.87 188.95C421.51 186.02 424.88 182.11 427 177.22C429.11 172.34 429.85 166.64 429.24 160.14C428.62 153.7 426.8 148.29 423.77 143.89ZM397.73 183.44L388.24 184.35L384.42 144.31L393.91 143.4C407.14 142.14 414.39 148.15 415.66 161.44C416.93 174.84 410.96 182.18 397.73 183.44Z" fill="#1A3151"/>
<path d="M498.43 153.55C497.82 147.11 496.06 141.63 493.17 137.1C490.28 132.58 486.45 129.24 481.68 127.09C476.91 124.94 471.44 124.16 465.29 124.74C459.14 125.33 453.91 127.13 449.6 130.14C445.29 133.16 442.13 137.16 440.12 142.16C438.11 147.16 437.41 152.87 438.02 159.31C438.63 165.75 440.4 171.26 443.33 175.84C446.26 180.42 450.12 183.79 454.92 185.93C459.72 188.08 465.2 188.86 471.35 188.27C477.5 187.68 482.72 185.88 487 182.87C491.28 179.86 494.41 175.83 496.39 170.78C498.37 165.73 499.05 159.99 498.43 153.55ZM482.05 171.01C479.47 174.95 475.57 177.16 470.34 177.66C465.12 178.16 460.87 176.73 457.59 173.39C454.31 170.04 452.35 164.92 451.69 158.01C451.04 151.16 452 145.8 454.59 141.92C457.18 138.04 461.08 135.86 466.3 135.36C471.52 134.86 475.77 136.27 479.05 139.59C482.32 142.91 484.29 147.99 484.94 154.84C485.59 161.68 484.63 167.07 482.05 171.01Z" fill="#1A3151"/>
</svg>
