<svg width="963" height="631" viewBox="0 0 963 631" fill="none" xmlns="http://www.w3.org/2000/svg">
<g opacity="0.3">
<path d="M441.679 525.12C413.489 525.2 385.289 525.88 357.149 529.01C346.539 530.19 336.149 532.79 325.519 533.83C304.279 535.92 283.409 539.82 262.089 541.62C244.919 543.07 227.679 543.92 210.559 545.76C194.509 547.48 176.739 547.09 160.819 544.24C149.029 542.13 137.189 540.95 125.589 537.56C112.619 533.77 98.5389 531.06 85.0189 531.16C65.7489 531.3 46.9889 531.31 28.5489 538C22.0789 540.35 14.1589 544.21 9.23893 549.14C-2.01107 560.42 -3.53106 588.57 7.69893 600.27C26.6189 619.96 66.9989 627.69 93.5289 628.06C122.589 628.46 150.829 626.3 179.929 625.03C206.969 623.85 233.949 622.17 261.039 622.23C316.369 622.35 371.699 622.23 426.929 618.53C478.819 615.06 530.839 616.25 582.839 616.25C636.169 616.25 689.129 616.67 742.069 623.76C765.139 626.85 788.639 627.93 811.819 630.09C832.579 632.03 852.529 630.05 873.209 628.26C890.569 626.76 907.829 622.3 923.599 614.76C936.089 608.79 958.349 590.25 962.179 576.01C972.919 536.07 810.879 537.04 785.999 537.13C758.169 537.23 730.119 538.15 702.309 537.09C690.609 536.64 679.089 534.36 667.669 531.85C656.299 529.35 644.839 529.99 633.309 528.94C585.219 524.57 537.019 525.21 488.769 525.21C473.099 525.21 457.389 525.07 441.679 525.12Z" fill="#F1F2F2"/>
<path d="M77.2592 364.58L73.7592 445.9L84.0292 584.17L99.4092 585.26L118.099 459.68L143.949 353.41L77.2592 364.58Z" fill="#9EA6AD"/>
<path d="M98.8592 591.74L81.6392 598.87L73.9192 589.96L82.8192 582.24L99.4592 583.42L98.8592 591.74Z" fill="#1A3151"/>
<path d="M186.129 335.8L189.499 397.27L179.489 580.04L164.089 580.8L141.009 460.93L120.659 329.48L186.129 335.8Z" fill="#9EA6AD"/>
<path d="M164.509 587.29L181.569 594.79L189.479 586.04L180.739 578.13L164.089 578.97L164.509 587.29Z" fill="#1A3151"/>
<path d="M73.2291 159.87L119.749 146.77C119.749 146.77 146.579 145.12 175.069 204.69C190.919 237.83 203.229 292.18 211.039 333.89C210.929 340.05 208.859 367.28 180.619 367.5C132.129 367.88 105.709 364.52 85.7991 371.81C68.9291 378.58 66.3291 354.22 65.1391 335.5L62.4791 277.39L73.2291 159.87Z" fill="#145566"/>
<path d="M72.3991 99.3399C83.8991 94.6899 95.7891 90.2499 108.139 90.5899C110.849 90.6699 113.809 91.0999 115.609 93.1199C116.309 93.8999 116.769 94.86 117.209 95.82C122.129 106.52 128.769 122.5 123.129 134.08C122.059 136.29 120.429 138.17 118.609 139.79C116.179 141.95 113.369 143.61 110.359 144.75C111.479 147.43 112.829 150.01 114.409 152.44C112.369 157.02 99.7091 159.68 96.6791 156.13C95.9691 152.73 95.2591 149.34 94.5491 145.94C92.8891 145.58 91.2591 145.07 89.6991 144.38C83.6391 141.71 79.1291 136.87 76.0091 131.13C72.6191 124.88 68.3491 119.11 65.1291 112.7C63.9591 110.36 62.8791 107.65 63.7991 105.21C64.7791 102.61 67.6191 101.29 70.1991 100.24C70.9391 99.94 71.6691 99.6399 72.3991 99.3399Z" fill="#AA6755"/>
<path d="M113.229 99.02C106.689 96.22 97.5492 96.09 92.0692 97.43C75.4992 101.49 71.4391 114.85 73.1491 130.43C67.5291 125.34 57.6091 119.42 55.7991 111.95C54.3191 105.83 53.7491 97.25 56.3091 91.32C58.7091 85.77 66.5391 81.62 70.9791 77.89C75.1691 74.37 79.3492 70.85 83.5392 67.33C84.4092 66.6 85.3092 65.85 86.3792 65.47C87.6492 65.02 89.0392 65.13 90.3792 65.25C101.849 66.23 113.319 67.21 124.789 68.19C126.989 68.38 129.529 68.77 130.659 70.67C131.339 71.83 131.299 73.26 131.239 74.6C130.959 80.52 129.549 86.75 129.939 92.63C129.839 96.1 130.749 113.65 124.469 112.67C122.239 110.11 121.389 106.64 119.509 103.81C118.109 101.73 115.889 100.16 113.229 99.02Z" fill="#1A3151"/>
<path d="M119.749 146.77L138.169 149.13L213.459 205.3L221.009 226.74L198.979 282.39L187.589 265.29L194.219 225.79L171.209 214.81L133.359 157.78L119.749 146.77Z" fill="#145566"/>
<path d="M597.439 566.06L201.549 600.82L155.509 77.11L551.409 42.35L597.439 566.06Z" fill="#3ABABA"/>
<path d="M575.499 545.31L219.539 576.56L176.949 92.04L532.909 60.78L575.499 545.31Z" fill="#FCFCFC"/>
<path opacity="0.12" d="M432.022 67.0492L277.422 80.6284L278.685 95.0135L433.285 81.4343L432.022 67.0492Z" fill="black"/>
<path d="M396.489 26.33L394.089 26.54L393.949 24.94C392.619 9.84 377.359 -1.16 359.859 0.370003L336.809 2.39C319.309 3.93 306.199 17.42 307.529 32.52L307.669 34.12L305.269 34.33C287.769 35.87 274.659 49.36 275.989 64.46L278.679 95.01L433.269 81.44L430.579 50.89C429.249 35.79 413.989 24.8 396.489 26.33ZM371.299 29.18L330.569 32.76C326.409 33.13 322.699 30.05 322.339 25.92C321.979 21.79 325.089 18.12 329.249 17.75L369.979 14.17C374.139 13.8 377.849 16.88 378.209 21.01C378.569 25.14 375.459 28.81 371.299 29.18Z" fill="#E8EBED"/>
<g opacity="0.47">
<path opacity="0.47" d="M290.299 263.21C272.879 264.74 255.459 266.27 238.039 267.8C236.569 267.93 235.429 269.28 235.559 270.74C237.079 288.01 238.599 305.28 240.109 322.55C240.239 324.01 241.589 325.14 243.069 325.01C260.489 323.48 277.909 321.95 295.329 320.42C296.129 320.35 296.709 320.01 297.109 319.54C297.139 319.51 297.169 319.48 297.189 319.45C297.199 319.43 297.219 319.41 297.239 319.39C297.639 318.92 297.889 318.29 297.819 317.49C296.299 300.22 294.779 282.95 293.269 265.68C293.129 264.21 291.769 263.08 290.299 263.21ZM292.129 315.25C276.519 316.62 260.919 317.99 245.309 319.36C243.949 303.89 242.589 288.42 241.229 272.95C256.839 271.58 272.439 270.21 288.049 268.84C289.409 284.31 290.769 299.78 292.129 315.25Z" fill="#879195"/>
<path opacity="0.47" d="M298.719 359C281.299 360.53 263.879 362.06 246.459 363.59C244.989 363.72 243.849 365.07 243.979 366.53C245.499 383.8 247.019 401.07 248.529 418.34C248.659 419.8 250.009 420.93 251.489 420.8C268.909 419.27 286.329 417.74 303.749 416.21C304.549 416.14 305.129 415.8 305.529 415.33C305.559 415.3 305.589 415.27 305.609 415.24C305.619 415.22 305.639 415.2 305.659 415.18C306.069 414.71 306.309 414.08 306.239 413.28C304.719 396.01 303.199 378.74 301.689 361.47C301.549 360 300.189 358.87 298.719 359ZM300.549 411.04C284.939 412.41 269.339 413.78 253.729 415.15C252.369 399.68 251.009 384.21 249.649 368.74C265.259 367.37 280.859 366 296.469 364.63C297.829 380.1 299.189 395.57 300.549 411.04Z" fill="#879195"/>
<path opacity="0.47" d="M307.139 454.78C289.719 456.31 272.299 457.84 254.879 459.37C253.409 459.5 252.269 460.85 252.399 462.31C253.919 479.58 255.439 496.85 256.949 514.12C257.079 515.58 258.429 516.71 259.909 516.58C277.329 515.05 294.749 513.52 312.169 511.99C312.969 511.92 313.549 511.58 313.949 511.11C313.979 511.08 314.009 511.05 314.029 511.02C314.039 511 314.059 510.98 314.079 510.96C314.489 510.49 314.729 509.86 314.659 509.06C313.139 491.79 311.619 474.52 310.109 457.25C309.969 455.78 308.609 454.65 307.139 454.78ZM308.969 506.83C293.359 508.2 277.759 509.57 262.149 510.94C260.789 495.47 259.429 480 258.069 464.53C273.679 463.16 289.279 461.79 304.889 460.42C306.249 475.89 307.609 491.36 308.969 506.83Z" fill="#879195"/>
</g>
<path d="M257.359 285.85L269.019 280.83L276.739 292.15L330.529 246.1L337.309 246.83L275.349 306.94L257.359 285.85Z" fill="#3ABABA"/>
<path d="M261.639 384.45L273.299 379.43L281.019 390.75L334.799 344.7L341.589 345.43L279.629 405.54L261.639 384.45Z" fill="#3ABABA"/>
<path d="M268.519 475.21L280.179 470.18L287.899 481.5L341.679 435.45L348.469 436.19L286.509 496.29L268.519 475.21Z" fill="#3ABABA"/>
<path opacity="0.32" d="M529.199 482.6L344.829 498.79L342.559 472.88L526.919 456.69L529.199 482.6Z" fill="#879195"/>
<path opacity="0.32" d="M520.279 381.14L335.919 397.33L333.639 371.43L518.009 355.24L520.279 381.14Z" fill="#879195"/>
<path opacity="0.32" d="M509.118 253.779L324.741 269.973L327.016 295.874L511.393 279.68L509.118 253.779Z" fill="#879195"/>
<path d="M92.9091 189.14L86.3591 241.39L171.159 298.19L166.509 313.35L58.2291 271.93L48.5791 236.61L73.2291 159.87L92.9091 189.14Z" fill="#145566"/>
<path d="M167.499 310.1L174.209 315.88L191.089 316.97L190.929 307.62L178.859 303.25L177.619 298.37L171.159 298.19L167.499 310.1Z" fill="#AA6755"/>
<path d="M903.909 571.91L904.749 580.12L889.159 590L880.109 582.63L887.489 573.58L903.079 563.7L903.909 571.91Z" fill="#14263A"/>
<path d="M904.519 321.41L907.049 346.35L884.779 457.8L904.499 569.18L888.549 574.09L836.949 441.67L834.119 401.18L841.109 317.32L904.519 321.41Z" fill="#145566"/>
<path d="M783.579 329.9L783.069 435.26L803.829 570.96L819.099 570.86L827.899 445.46L847.949 319.99L783.579 329.9Z" fill="#145566"/>
<path d="M819.049 577.29L802.599 585.66L794.289 577.46L802.489 569.15L818.999 569.04L819.049 577.29Z" fill="#14263A"/>
<path d="M770.719 314.44C781.729 280.33 782.909 244.51 786.109 208.97C787.059 198.49 788.069 187.77 792.429 178.19C797.439 167.19 805.729 161.38 815.379 158.21C827.669 154.17 842.159 154.4 854.939 153.63C867.059 153.25 877.779 198.81 890.149 220.9C897.729 234.44 905.529 246.41 910.639 261.17C915.549 275.34 920.259 289.76 923.109 304.5C927.419 326.76 938.439 342.3 927.909 349.88C926.949 350.2 926.019 350.51 925.129 350.83C907.869 357.01 890.009 361.59 871.819 363.99C855.689 366.12 839.299 366.51 823.099 364.91C800.919 362.72 779.429 359.59 759.879 348.03C763.489 336.83 767.099 325.64 770.719 314.44Z" fill="#D1E7F5"/>
<path d="M694.679 245.43L770.679 222.73L796.469 171.29L810.699 197.6L794.289 245.43L711.109 261.9L694.679 245.43Z" fill="#D1E7F5"/>
<path d="M810.709 361.671L864.742 307.729L665.459 108.108L611.426 162.05L810.709 361.671Z" fill="#EBB044"/>
<path d="M665.449 108.09L590.269 86.81L611.419 162.03L665.449 108.09Z" fill="#EDEEEF"/>
<path d="M618.479 94.8L590.269 86.81L598.199 115.03L618.479 94.8Z" fill="#145566"/>
<path d="M844.779 381.43L884.899 341.39C888.739 337.55 888.749 331.33 884.909 327.48L864.729 307.72L810.699 361.66L830.879 381.42C834.709 385.26 840.939 385.27 844.779 381.43Z" fill="white"/>
<path d="M810.699 361.66L864.729 307.72L854.639 297.62L800.189 351.13L810.699 361.66Z" fill="#EDEDEF"/>
<path d="M860.859 119.72C853.959 98.88 823.539 91.62 816.459 115.84C814.329 123.12 813.059 130.84 814.499 138.29C815.939 145.73 820.489 152.88 827.439 155.93C827.479 155.95 827.519 155.96 827.559 155.98C827.289 157.91 827.019 159.84 826.749 161.78C826.689 162.2 826.639 162.65 826.879 163C827.149 163.4 827.669 163.5 828.149 163.57C830.459 163.91 832.759 164.26 835.069 164.6C836.209 164.77 837.399 164.94 838.509 164.59C840.919 163.82 841.919 160.93 842.029 158.4C842.049 157.8 842.049 157.18 842.039 156.57C855.679 151.9 865.379 133.35 860.859 119.72Z" fill="#EAC1A4"/>
<path d="M823.799 84.13C818.229 83.3 813.489 88.7 808.349 91.54C804.069 93.9 799.229 94.52 794.799 96.48C790.369 98.44 786.009 102.52 785.919 107.63C781.429 105.29 776.569 102.9 771.529 103.87C766.499 104.84 761.829 110.85 763.829 115.8C765.619 120.24 771.409 121.28 773.329 125.64C776.369 132.54 768.139 143.27 773.759 147.85C775.109 148.95 776.949 149.22 778.269 150.35C779.919 151.76 780.449 154.18 781.179 156.33C784.509 166.07 794.329 172.44 804.029 171.14C810.059 168.31 814.869 162.48 817.029 155.79C819.629 147.73 815.319 144.92 814.589 137.36C813.799 129.09 816.419 120.34 821.629 113.92C825.019 109.74 829.859 106.14 834.979 105.65C837.059 105.45 836.409 107.19 838.749 105.58C839.759 104.89 841.129 102.27 841.409 101.02C835.819 96.5 831.129 85.22 823.799 84.13Z" fill="#1A3151"/>
<path d="M884.049 94.85C886.919 95.65 890.039 95.5299 892.779 96.7299C896.889 98.5299 896.639 102.8 897.809 106.51C899.099 110.61 900.969 116.12 903.679 119.32C905.629 121.62 908.359 122.93 910.739 124.71C913.119 126.48 915.299 129.11 915.249 132.31C915.199 135.34 913.159 138.06 912.869 141.09C912.509 145.6 913.289 147.92 911.899 152.53C911.179 154.91 910.379 157.43 908.589 159.05C906.239 161.19 902.879 161.15 899.939 160.66C896.999 160.17 893.949 159.35 891.049 160.33C884.749 162.45 885.929 168.82 884.249 174.16C881.699 182.28 872.279 187.03 865.069 184.14C858.959 181.69 855.419 174.59 855.699 167.59C855.839 164.08 857.229 160.81 857.339 157.3C857.439 153.91 855.529 149.23 858.599 146.54C859.349 145.89 860.309 145.54 860.979 144.8C861.519 144.2 861.819 143.39 862.009 142.58C862.659 139.78 862.049 136.73 860.399 134.59C859.209 133.05 857.519 131.93 856.789 130.07C855.959 127.94 856.619 125.45 856.759 123.1C857.099 117.41 853.989 111.84 849.259 109.64C846.139 108.19 843.329 107.34 840.599 105.14C840.179 104.81 833.979 99.3199 833.819 100.51C834.099 98.4499 835.299 96.64 836.519 94.99C838.529 92.27 840.749 89.62 843.579 87.99C852.719 82.72 853.159 94.9699 860.489 93.3599C862.259 92.9699 863.589 91.35 865.179 90.38C868.189 88.55 871.879 89.2 874.959 90.57C877.989 91.91 880.809 93.94 884.049 94.85Z" fill="#1A3151"/>
<path d="M692.239 256.13L701.239 254.21L712.529 262.85L703.999 272.8L695.469 265.83L692.239 256.13Z" fill="#EAC1A4"/>
<path d="M791.409 284.97L785.359 291.44L768.699 294.33L767.849 285.01L779.379 279.37L780.089 274.38L786.499 273.52L791.409 284.97Z" fill="#EAC1A4"/>
<path d="M775.759 273.17L851.759 250.46L877.559 199.03L891.779 225.34L875.379 273.17L792.199 289.64L775.759 273.17Z" fill="#D1E7F5"/>
<path d="M272.199 143.91L219.629 148.92L220.679 159.98L240.089 158.13L244.949 209.05L258.699 207.74L253.839 156.82L273.249 154.96L272.199 143.91Z" fill="#1A3151"/>
<path d="M332.129 152.42C329.239 147.9 325.409 144.56 320.629 142.4C315.859 140.25 310.389 139.47 304.239 140.05C298.089 140.64 292.859 142.44 288.549 145.45C284.239 148.47 281.079 152.47 279.069 157.47C277.059 162.47 276.359 168.18 276.969 174.62C277.579 181.06 279.349 186.57 282.279 191.15C285.209 195.73 289.069 199.1 293.869 201.24C298.669 203.39 304.149 204.17 310.299 203.58C316.449 202.99 321.669 201.19 325.949 198.18C330.229 195.17 333.359 191.14 335.339 186.09C337.319 181.04 337.999 175.3 337.389 168.86C336.769 162.44 335.019 156.95 332.129 152.42ZM320.999 186.34C318.419 190.28 314.519 192.49 309.289 192.99C304.069 193.49 299.819 192.06 296.539 188.72C293.259 185.37 291.299 180.25 290.639 173.34C289.989 166.49 290.949 161.13 293.539 157.25C296.129 153.37 300.029 151.19 305.249 150.69C310.469 150.19 314.719 151.6 317.999 154.92C321.269 158.24 323.239 163.32 323.889 170.17C324.539 177.01 323.579 182.4 320.999 186.34Z" fill="#1A3151"/>
<path d="M423.489 143.89C420.459 139.49 416.399 136.31 411.289 134.34C406.179 132.37 400.239 131.71 393.449 132.35L369.509 134.63L375.419 196.61L399.359 194.33C406.209 193.68 411.949 191.88 416.589 188.95C421.229 186.02 424.599 182.11 426.719 177.22C428.829 172.34 429.569 166.64 428.959 160.14C428.339 153.7 426.519 148.29 423.489 143.89ZM397.449 183.44L387.959 184.35L384.139 144.31L393.629 143.4C406.859 142.14 414.109 148.15 415.379 161.44C416.649 174.84 410.679 182.18 397.449 183.44Z" fill="#1A3151"/>
<path d="M498.149 153.55C497.539 147.11 495.779 141.63 492.889 137.1C489.999 132.58 486.169 129.24 481.399 127.09C476.629 124.94 471.159 124.16 465.009 124.74C458.859 125.33 453.629 127.13 449.319 130.14C445.009 133.16 441.849 137.16 439.839 142.16C437.829 147.16 437.129 152.87 437.739 159.31C438.349 165.75 440.119 171.26 443.049 175.84C445.979 180.42 449.839 183.79 454.639 185.93C459.439 188.08 464.919 188.86 471.069 188.27C477.219 187.68 482.439 185.88 486.719 182.87C490.999 179.86 494.129 175.83 496.109 170.78C498.089 165.73 498.769 159.99 498.149 153.55ZM481.769 171.01C479.189 174.95 475.289 177.16 470.059 177.66C464.839 178.16 460.589 176.73 457.309 173.39C454.029 170.04 452.069 164.92 451.409 158.01C450.759 151.16 451.719 145.8 454.309 141.92C456.899 138.04 460.799 135.86 466.019 135.36C471.239 134.86 475.489 136.27 478.769 139.59C482.039 142.91 484.009 147.99 484.659 154.84C485.309 161.68 484.349 167.07 481.769 171.01Z" fill="#1A3151"/>
</g>
</svg>
