<svg width="61" height="60" viewBox="0 0 61 60" fill="none" xmlns="http://www.w3.org/2000/svg">
<path fill-rule="evenodd" clip-rule="evenodd" d="M6.16385 21.1172C4.5648 16.8339 5.67846 12.1794 8.62156 9.09549C11.5647 6.01154 15.9298 4.78365 20.213 6.43984C22.2704 1.86322 26.6483 -0.19332 30.55 0.0142474C34.6088 0.230174 38.1171 2.69909 39.8304 6.43984C45.3987 4.38384 50.5205 7.08635 52.6939 10.6945C54.9401 14.4235 54.9932 18.0903 53.8796 21.1172C58.4769 23.5443 59.9503 28.0104 60.0088 31.2542C60.0992 36.2705 56.935 40.0778 54.4507 41.3627C55.0457 45.1053 53.4338 49.346 50.3025 51.8996C47.7238 54.0026 43.5426 55.1263 39.859 53.5558C38.4883 56.7254 34.8989 60.0258 29.9789 59.9998C26.7526 59.9828 22.4974 58.4387 20.1845 53.5843C15.4728 55.3548 11.3666 53.5157 9.0765 51.3507C5.73554 48.3016 5.04834 43.5595 5.56424 41.3627C1.96626 39.2782 -0.00199259 35.569 1.51373e-06 31.1686C0.00146876 27.9366 1.79493 23.3445 6.16385 21.1172ZM26.6093 35.9373L37.5459 19.4895C38.0218 18.8518 39.3448 17.9019 40.8297 19.204C41.2104 19.5467 41.812 20.5347 41.1724 21.7454L28.808 40.3919C28.3797 41.0487 27.1118 42.0595 25.467 40.8488L18.1855 33.5387C17.8714 33.0628 17.5173 31.8368 18.6138 30.7403C19.1088 30.35 20.3614 29.8037 21.4122 30.7403L26.6093 35.9373Z" fill="#2FA94E"/>
</svg>
