<svg width="643" height="322" viewBox="0 0 643 322" fill="none" xmlns="http://www.w3.org/2000/svg">
<path d="M331.653 252.976C331.653 252.976 319.878 261.733 317.582 261.202C315.287 260.671 326.188 251.749 326.188 251.749C322.085 249.776 309.334 251.013 309.334 251.013C309.334 251.013 305.086 264.712 302.992 263.632C300.897 262.552 307.372 251.694 307.372 251.694C302.803 251.419 297.199 254.812 297.199 254.812C289.528 260.871 297.703 270.41 297.703 270.41C297.703 270.41 296.129 275.126 291.284 279.42C291.284 279.42 284.366 284.538 283.885 293.682L285.141 293.795C285.141 293.795 287.132 285.278 290.749 281.25C290.89 281.105 291.095 280.895 291.347 280.641C291.936 280.095 292.349 279.685 292.627 279.38C294.427 277.65 296.915 275.446 298.114 275.232C298.114 275.232 298.054 275.012 298.063 274.629C298.079 274.822 298.096 275.021 298.114 275.232C298.525 280.054 307.877 284.264 313.63 285.13C319.384 285.996 317.605 283.63 315.623 280.123C313.64 276.616 307.367 275.047 305.936 273.432C304.504 271.816 307.464 271.813 310.93 273.396C314.396 274.98 314.871 279.202 320.432 281.865C325.993 284.529 334.36 275.3 334.36 275.3C329.929 275.075 323.599 270.261 323.829 268.788C324.058 267.315 334.572 271.329 336.369 271.522C338.167 271.714 342.256 269.478 342.889 262.237C343.521 254.997 331.653 252.976 331.653 252.976Z" fill="#82B378"/>
<path d="M269.119 258.414C269.119 258.414 282.124 251.13 276.055 241.244C276.055 241.244 271.2 235.174 265.998 233.613C265.998 233.613 268.772 248.355 265.998 248.702C263.223 249.048 264.09 232.052 264.09 232.052C264.09 232.052 250.391 225.462 245.016 225.982C245.016 225.982 253.513 240.377 250.738 240.03C247.964 239.683 238.427 225.115 238.427 225.115C238.427 225.115 224.381 222.514 222.127 230.839C219.873 239.163 223.514 243.325 225.595 243.845C227.676 244.366 241.028 244.192 240.681 245.927C240.334 247.661 231.317 250.436 226.289 248.875C226.289 248.875 231.837 262.576 239.12 261.882C246.403 261.188 248.657 256.679 253.166 256.332C257.674 255.986 260.969 257.199 258.715 258.414C256.461 259.628 248.831 258.811 245.189 261.907C241.548 265.004 238.6 266.912 245.362 268.299C252.125 269.686 264.263 268.82 266.691 263.616C269.119 258.414 269.119 258.414 269.119 258.414Z" fill="#A8D29F"/>
<path d="M272.587 271.074C268.945 264.31 269.119 258.414 269.119 258.414C264.957 245.233 228.543 233.44 228.543 233.44C274.841 252.17 266.691 263.616 266.691 263.616C267.939 264.344 269.809 267.815 271.108 270.478C271.293 270.932 271.585 271.559 272.02 272.41C272.197 272.795 272.338 273.11 272.435 273.33C274.819 279.296 273.556 289.597 273.556 289.597L275.001 289.986C278.202 279.603 272.587 271.074 272.587 271.074Z" fill="#82B378"/>
<path d="M289.809 248.368C289.809 248.368 272.666 238.766 280.666 225.735C280.666 225.735 287.066 217.734 293.923 215.676C293.923 215.676 290.266 235.109 293.923 235.566C297.58 236.023 296.437 213.619 296.437 213.619C296.437 213.619 314.495 204.932 321.581 205.617C321.581 205.617 310.38 224.592 314.037 224.135C317.695 223.678 330.266 204.474 330.266 204.474C330.266 204.474 348.781 201.045 351.752 212.019C354.724 222.992 349.924 228.479 347.181 229.164C344.438 229.85 326.838 229.622 327.295 231.908C327.752 234.194 339.638 237.852 346.267 235.794C346.267 235.794 338.952 253.855 329.352 252.94C319.752 252.026 316.78 246.082 310.838 245.625C304.895 245.167 300.552 246.768 303.523 248.368C306.495 249.968 316.552 248.892 321.352 252.974C326.152 257.055 330.038 259.57 321.124 261.399C312.209 263.227 296.209 262.084 293.009 255.226C289.809 248.368 289.809 248.368 289.809 248.368Z" fill="#A8D29F"/>
<path d="M343.296 215.448C343.296 215.448 295.295 230.993 289.809 248.368C289.809 248.368 290.038 256.141 285.238 265.056C285.238 265.056 277.835 276.299 282.055 289.985L283.96 289.474C283.96 289.474 282.295 275.895 285.437 268.031C285.566 267.741 285.751 267.326 285.984 266.818C286.557 265.696 286.944 264.869 287.187 264.272C288.898 260.761 291.365 256.186 293.009 255.226C293.009 255.226 282.266 240.138 343.296 215.448Z" fill="#82B378"/>
<path d="M255.65 286.078C255.65 304.627 270.685 319.663 289.231 319.663C307.777 319.663 322.812 304.626 322.812 286.078H255.65Z" fill="#F1A34F"/>
<path d="M319.133 317.599H259.33C257.042 317.599 255.187 319.454 255.187 321.743H323.276C323.276 319.454 321.421 317.599 319.133 317.599Z" fill="#F1A34F"/>
<path d="M323.061 287.108H255.061C254.777 287.108 254.546 286.877 254.546 286.592C254.546 286.308 254.777 286.077 255.061 286.077H323.061C323.345 286.077 323.576 286.308 323.576 286.592C323.576 286.877 323.345 287.108 323.061 287.108Z" fill="#D86713"/>
<path d="M395.971 321.743H526.575C530.669 321.743 534.019 318.392 534.019 314.296V53.0773C534.019 48.9821 530.669 45.631 526.575 45.631H395.971C391.876 45.631 388.526 48.9821 388.526 53.0773V314.296C388.526 318.392 391.876 321.743 395.971 321.743Z" fill="#4A75CB"/>
<path d="M381.868 321.743H512.471C516.566 321.743 519.916 318.392 519.916 314.296V53.0773C519.916 48.9821 516.566 45.631 512.471 45.631H381.868C377.773 45.631 374.422 48.9821 374.422 53.0773V314.296C374.422 318.392 377.773 321.743 381.868 321.743Z" fill="#699FF0"/>
<path d="M425.847 59.0261H463.668C464.477 59.0261 465.139 58.3641 465.139 57.5545C465.139 56.745 464.477 56.0827 463.668 56.0827H425.847C425.038 56.0827 424.376 56.745 424.376 57.5545C424.376 58.3638 425.038 59.0261 425.847 59.0261Z" fill="#4A75CB"/>
<path d="M470.385 59.0261C471.194 59.0261 471.857 58.3641 471.857 57.5545C471.857 56.745 471.194 56.0827 470.385 56.0827C469.576 56.0827 468.914 56.745 468.914 57.5545C468.914 58.3638 469.576 59.0261 470.385 59.0261Z" fill="#4A75CB"/>
<path d="M445.368 315.979C450.609 315.979 454.858 311.729 454.858 306.487C454.858 301.244 450.609 296.994 445.368 296.994C440.126 296.994 435.877 301.244 435.877 306.487C435.877 311.729 440.126 315.979 445.368 315.979Z" fill="#4A75CB"/>
<path d="M507.805 67.5255H386.841V290.856H507.805V67.5255Z" fill="white"/>
<path d="M146.497 74.2205H263.577C267.248 74.2205 270.251 77.2241 270.251 80.8954V315.067C270.251 318.739 267.248 321.743 263.577 321.743H146.497C142.826 321.743 139.822 318.739 139.822 315.067V80.8954C139.822 77.2241 142.826 74.2205 146.497 74.2205Z" fill="#4A75CB"/>
<path d="M159.14 74.2205H276.22C279.891 74.2205 282.894 77.2241 282.894 80.8954V315.067C282.894 318.739 279.891 321.743 276.22 321.743H159.14C155.469 321.743 152.465 318.739 152.465 315.067V80.8954C152.465 77.2241 155.469 74.2205 159.14 74.2205Z" fill="#699FF0"/>
<path d="M277.954 94.0102H157.13V294.581H277.954V94.0102Z" fill="white"/>
<path d="M202.889 83.5893H236.794C237.52 83.5893 238.113 84.1831 238.113 84.9087C238.113 85.6343 237.519 86.2279 236.794 86.2279H202.889C202.163 86.2279 201.57 85.6341 201.57 84.9087C201.57 84.1831 202.163 83.5893 202.889 83.5893Z" fill="#4A75CB"/>
<path d="M196.867 83.5893C197.593 83.5893 198.186 84.1831 198.186 84.9087C198.186 85.6343 197.593 86.2279 196.867 86.2279C196.142 86.2279 195.548 85.6341 195.548 84.9087C195.548 84.1831 196.142 83.5893 196.867 83.5893Z" fill="#4A75CB"/>
<path d="M217.542 316.575C221.273 316.575 224.297 313.55 224.297 309.819C224.297 306.088 221.273 303.063 217.542 303.063C213.811 303.063 210.787 306.088 210.787 309.819C210.787 313.55 213.811 316.575 217.542 316.575Z" fill="#4A75CB"/>
<path d="M16.8937 321.581C16.8937 321.581 5.99024 321.977 4.37607 321.581C4.30789 321.278 2.29368 308.561 2.29368 308.561L0.616754 296.8C0.382249 295.157 2.34765 294.07 3.56744 295.196C4.16688 295.75 4.72267 296.553 5.10852 297.718C6.48068 301.86 10.5257 308.534 16.5272 310.275C22.8408 312.106 16.8937 321.581 16.8937 321.581Z" fill="#163560"/>
<path d="M73.7566 262.62L72.6845 263.001C72.6845 263.001 69.8767 258.251 64.1383 260.172C64.1383 260.172 61.8461 261.131 63.2059 262.386C64.5654 263.64 64.2292 262.991 66.1065 264.796C67.9836 266.601 70.5466 267.506 72.3121 266.897L74.2698 266.208L73.7566 262.62Z" fill="#E49963"/>
<path d="M122.112 302.395C122.112 302.395 82.1035 271.82 70.722 271.486C59.3405 271.152 22.4216 321.69 22.4216 321.69H36.2463C36.2463 321.69 60.6062 308.724 69.1758 296.402C70.0379 295.162 71.8814 295.219 72.6817 296.498C77.111 303.578 88.6934 320.943 96.1819 321.69C104.222 322.493 122.112 302.395 122.112 302.395Z" fill="#163560"/>
<path d="M118.282 219.198C118.282 219.198 118.534 221.201 118.859 223.674C119.292 226.887 119.87 230.876 120.249 232.122L132.286 235.172L133.171 226.418C133.171 226.418 130.157 220.371 130.175 211.815L118.282 219.198Z" fill="#FFB27D"/>
<path d="M128.751 237.42L111.646 258.376L105.665 265.704C105.665 265.704 94.9515 267.711 89.3275 268.2C85.2686 268.55 72.3124 266.897 72.3124 266.897L72.6845 263.001C72.6845 263.001 80.7249 259.581 84.5444 258.779C88.4411 257.963 98.2849 255.741 98.2849 255.741C102.007 254.387 116.151 236.1 116.151 236.1L128.751 237.42Z" fill="#82B378"/>
<path d="M139.911 312.252L104.93 309.396C104.93 309.396 104.833 308.695 104.671 307.518C104.621 307.154 104.592 306.773 104.582 306.376C104.502 302.881 105.876 298.169 106.467 293.538C106.858 290.48 106.908 287.458 105.973 284.844C104.896 281.828 104.4 276.102 104.182 270.659C103.906 263.843 104.065 257.474 104.061 257.428C103.711 253.087 104.743 248.266 106.472 243.683C109.885 234.645 116.247 229.528 119.237 226.493C119.237 226.493 122.888 227.395 132.378 224.547C132.66 224.463 133.474 225.657 133.836 226.353C133.836 226.353 137.943 231.551 139.631 244.226C141.142 255.571 139.911 312.252 139.911 312.252Z" fill="#A8D29F"/>
<path d="M131.158 249.427C131.09 251.018 117.014 295.831 118.739 299.137C127.086 315.129 106.044 307.924 104.902 303.8C105.293 300.743 106.908 287.458 105.973 284.843C104.896 281.828 104.4 276.102 104.182 270.659C104.534 268.673 105.359 266.623 106.472 264.641C111.703 263.823 131.682 237.089 131.158 249.427Z" fill="#82B378"/>
<path d="M61.1945 258.167L65.5331 255.187C65.5701 255.161 65.6091 255.142 65.6493 255.128L65.6527 255.126L66.4711 254.792L70.4632 267.4L66.9714 270.227L66.3441 270.5C66.3436 270.5 66.3431 270.5 66.3425 270.501L66.334 270.504L66.3335 270.503C66.0499 270.618 65.6894 270.436 65.5383 270.066L61.0192 258.989C60.8898 258.672 60.9636 258.325 61.1945 258.167Z" fill="#373480"/>
<path d="M71.3545 266.654L67.2142 270.121C66.9224 270.365 66.4676 270.186 66.2932 269.758L61.7741 258.681C61.6445 258.364 61.7183 258.017 61.9492 257.859L66.2878 254.879C66.5838 254.676 67.0066 254.862 67.1729 255.269L71.4934 265.859C71.6148 266.157 71.5577 266.484 71.3545 266.654Z" fill="#575B9F"/>
<path d="M70.6819 265.296L66.6044 268.71L62.506 258.665L66.779 255.73L70.6819 265.296Z" fill="#E2E7F2"/>
<path d="M69.0737 267.606C69.0169 267.404 69.0977 267.189 69.254 267.125C69.4102 267.061 69.5828 267.174 69.6396 267.375C69.6964 267.577 69.6156 267.792 69.4593 267.856C69.3033 267.92 69.1305 267.808 69.0737 267.606Z" fill="#373480"/>
<path d="M63.1243 258.851L66.5938 256.403L70.1915 265.029L66.6581 267.784L63.1243 258.851Z" fill="#CED4EA"/>
<path d="M64.0319 259.371L66.4626 257.655L68.9831 263.699L66.5076 265.629L64.0319 259.371Z" fill="#BCC5DD"/>
<path d="M73.2527 268.731L71.0523 268.659C71.0523 268.659 68.8591 264.111 63.8394 266.267C63.8394 266.267 61.8257 267.318 62.936 268.491C64.0463 269.664 63.7875 269.04 65.317 270.73C66.8467 272.421 69.0074 273.194 70.5523 272.513L72.2664 271.743L73.2527 268.731Z" fill="#E49963"/>
<path d="M127.907 226.57C127.907 226.57 119.318 230.198 114.858 237.949C111.886 243.115 106.768 251.902 103.683 257.189C102.041 260.005 99.2965 262.005 96.1131 262.705L85.691 264.999L71.0522 268.659C71.0522 268.659 70.7057 269.279 70.7901 270.294C70.9102 271.734 71.8524 272.024 71.8524 272.024C71.8524 272.024 85.5195 275.314 90.3848 275.68C102.372 276.581 108.054 275.01 109.815 274.362C110.208 274.217 110.56 274.008 110.885 273.744C112.72 272.252 119.764 266.35 123.471 260.711C127.079 255.226 137.026 240.971 137.026 240.971L127.907 226.57Z" fill="#A8D29F"/>
<path d="M140.151 298.716C140.151 298.716 143.6 321.69 133.023 321.69C122.445 321.69 16.601 321.69 16.601 321.69C16.601 321.69 13.3862 319.519 13.1604 315.382C12.9213 310.995 14.3071 309.441 14.3071 309.441C14.3071 309.441 55.984 307.99 64.4456 305.154C106.857 290.939 140.151 298.716 140.151 298.716Z" fill="#1C468A"/>
<path d="M118.282 219.198C118.282 219.198 118.534 221.201 118.859 223.674C129.981 220.43 130.175 211.815 130.175 211.815L118.282 219.198Z" fill="#E8945B"/>
<path d="M116.532 219.839C116.532 219.839 130.05 220.24 130.17 211.816C130.29 203.392 132.116 197.77 123.489 197.159C114.863 196.546 113.14 199.737 112.416 202.539C111.693 205.341 113.018 219.518 116.532 219.839Z" fill="#FFB27D"/>
<path d="M130.411 215.115C130.411 215.115 128.983 214.877 129.213 212.909C129.443 210.941 129.441 208.369 127.841 208.848C126.242 209.327 126.162 210.609 125.505 209.861C124.847 209.113 124.835 205.961 120.076 205.742C115.316 205.522 113.382 207.179 111.168 206.206C108.955 205.233 108.838 201.882 108.838 201.882C108.838 201.882 109.468 203.079 110.419 203.459C110.419 203.459 106.726 198.408 111.001 194.944C115.277 191.48 119.636 193.747 122.11 193.897C127.561 194.227 131.083 194.554 132.863 198.137C134.644 201.72 133.909 211.667 130.411 215.115Z" fill="#2B478B"/>
<path d="M470.468 18.2957L506.74 28.94L484.586 8.62775L482.559 13.8182L473.316 14.146L470.468 18.2957Z" fill="#82B378"/>
<path d="M506.74 28.94L478.219 8.58611L448.231 2.69464L506.74 28.94Z" fill="#A8D29F"/>
<path d="M484.586 8.62773L506.74 28.94L491.502 0L484.586 8.62773Z" fill="#A8D29F"/>
<path d="M572.022 73.3968C574.418 71.9309 578.243 73.6827 578.243 73.6827C576.92 71.8234 572.094 72.4312 572.094 72.4312C581.707 70.3857 583.714 76.5324 583.879 77.1079C590.852 70.8142 602.016 84.2299 602.016 84.2299L585.996 105.469C585.996 105.469 584.535 102.09 582.604 103.144C579.594 104.789 573.773 98.1341 575.633 89.3788C575.834 88.4324 576.076 87.5691 576.344 86.7748C575.719 87.0491 575.01 87.2692 574.347 87.2692C572.595 87.2692 569.95 82.8 569.592 81.2984C569.234 79.7969 569.627 74.8624 572.022 73.3968Z" fill="#233862"/>
<path d="M617.844 165.853C627.991 162.114 637.763 144.748 637.763 144.748L634.563 142.507C631.898 146.407 619.907 153.894 619.907 153.894C619.634 150.608 619.236 147.626 618.746 144.926C615.417 126.573 607.802 121.136 605.758 119.982C605.429 119.794 605.243 119.721 605.243 119.721C605.243 119.721 605.249 119.856 605.265 120.112C605.294 120.665 605.36 121.777 605.466 123.303C606.259 134.666 609.366 168.979 617.844 165.853Z" fill="#FFB27D"/>
<path d="M568.806 184.593C573.819 173.349 576.216 170.17 576.301 166.633C576.367 163.835 574.988 160.817 572.309 153.416C571.678 151.671 571.243 149.878 570.975 148.065C568.856 133.797 577.106 118.373 582.233 117.321C583.66 116.944 586.078 111.791 586.048 103.487L586.69 103.613L597.487 105.751C597.487 105.751 597.241 109.149 597.234 112.351C597.227 115.019 597.388 117.547 597.992 117.866C598.769 117.936 599.228 117.982 599.228 117.982C599.228 117.982 608.23 130.487 608.987 142.116C609.744 153.746 601.778 158.798 609.047 182.038C616.468 205.773 566.037 190.806 568.806 184.593Z" fill="#FFB27D"/>
<path d="M597.487 105.751C597.487 105.751 597.241 109.149 597.233 112.351C591.192 112.181 587.998 106.668 586.69 103.613L597.487 105.751Z" fill="#E8945B"/>
<path d="M585.575 102.437C585.575 102.437 582.409 97.4341 581.649 93.1555C581.106 90.1012 582.662 78.7791 594.037 80.4096C594.037 80.4096 597.341 80.7353 600.447 82.8332C602.917 84.5017 606.481 88.1032 602.496 97.9832L601.46 101.321L585.575 102.437Z" fill="#233862"/>
<path d="M599.504 108.783C599.504 108.783 585.21 109.019 585.2 100.113C585.19 91.2078 583.339 85.2407 592.465 84.7135C601.591 84.1865 603.368 87.5825 604.094 90.5543C604.82 93.5256 603.222 108.492 599.504 108.783Z" fill="#FFB27D"/>
<path d="M581.463 292.481C585.059 306.79 590.473 317.759 590.473 317.759L595.186 317.432C595.186 317.432 592.875 306.433 593.007 291.572C593.101 281.183 594.386 268.904 598.49 257.18C612.595 216.891 610.315 187.57 610.315 187.57L583.791 190.673L582.556 190.818C582.445 203.001 582.131 219.543 581.856 232.477C581.613 244.11 581.399 252.824 581.399 252.824C576.299 263.809 578.151 279.313 581.463 292.481Z" fill="#163560"/>
<path d="M566.246 290.197C567.771 306.475 574.486 317.002 574.486 317.002L576.737 318.64C576.737 318.64 578.869 307.171 580.377 293.526C581.814 280.557 583.784 266.833 586.012 262.644C594.857 246.031 597.52 183.317 597.52 183.317L570.628 181.984C567.923 186.531 566.744 193.99 566.464 202.47C565.757 223.874 570.787 251.783 571.539 255.819C571.539 255.822 571.539 255.824 571.541 255.829C571.6 256.141 571.51 256.448 571.364 256.731C566.015 267.324 565.241 279.443 566.246 290.197Z" fill="#1C468A"/>
<path d="M589.055 96.4877C583.049 98.0326 580.443 96.4228 580.443 96.4228C580.443 96.4228 585.051 92.7623 586.007 86.3726C586.007 86.3726 588.645 78.0437 598.859 84.3126C599.795 83.5095 601.463 82.9286 603.669 85.6023C606.983 89.6195 604.034 96.7209 604.034 96.7209C602.674 96.8798 602.353 92.2114 601.641 89.9437C601.116 88.275 599.396 86.5723 598.524 85.7885C598.236 86.844 595.355 96.8242 588.181 100.141C588.181 100.141 591.486 97.2078 593.917 93.1356C592.525 94.7157 590.888 96.0162 589.055 96.4877Z" fill="#233862"/>
<path d="M547.856 199.753C548.945 199.066 549.998 196.955 550.374 196.144C553.699 187.867 557.528 171.817 558.795 168.862C559.257 167.786 560.141 162.708 561.301 156.165C563.381 144.427 566.341 127.972 569.306 121.451C569.662 120.67 570.681 120.004 572.018 119.447C576.053 117.759 582.954 117.054 582.954 117.054L579.35 132.661L578.294 137.238C578.294 137.238 575.086 148.545 572.6 157.784C571.399 162.246 570.369 166.228 569.949 168.218C568.662 174.331 554.506 197.822 554.506 197.822L554.502 197.821L554.505 197.822C554.505 197.822 554.076 198.108 553.576 199.539C553.075 200.969 549.071 208.549 547.355 208.549C545.639 208.549 545.282 205.975 544.924 204.33C544.567 202.685 546.498 200.612 547.856 199.753Z" fill="#FFB27D"/>
<path d="M634.563 142.507C634.562 142.066 634.193 135.68 635.33 134.338C636.466 132.997 638.787 131.089 639.517 131.148C640.247 131.207 643.101 135 642.243 137.907C641.385 140.814 637.763 144.748 637.763 144.748L634.563 142.507Z" fill="#FFB27D"/>
<path d="M629.351 134.696L635.968 136.679C636.188 136.745 636.419 136.62 636.485 136.401L640.266 123.782C640.332 123.562 640.207 123.331 639.988 123.265L633.371 121.282C633.152 121.216 632.92 121.34 632.855 121.56L629.073 134.179C629.007 134.399 629.132 134.63 629.351 134.696Z" fill="#575B9F"/>
<path d="M631.071 135.211L637.072 137.01C637.462 137.127 637.872 136.906 637.989 136.516L641.586 124.513C641.703 124.123 641.482 123.713 641.092 123.596L635.091 121.797C634.701 121.68 634.291 121.901 634.174 122.291L630.577 134.295C630.46 134.684 630.682 135.094 631.071 135.211Z" fill="#373480"/>
<path d="M566.245 290.197C567.771 306.475 574.486 317.002 574.486 317.002L576.778 319.09C576.778 319.09 578.869 307.17 580.377 293.526C578.788 293.641 571.782 293.897 566.245 290.197Z" fill="#FFB27D"/>
<path d="M572.544 158.273C570.952 158.701 565.823 159.664 559.952 156.428C562.374 144.606 565.818 128.033 569.267 121.466C569.433 121.149 569.726 120.852 570.117 120.572C570.094 120.545 570.082 120.53 570.082 120.53C573.315 118.179 579.922 117.457 579.922 117.457C579.922 117.457 581.959 126.492 583.246 127.672C584.533 128.851 603.194 130.782 603.624 128.637C604.034 126.588 598.772 118.619 598.379 117.917C598.359 117.885 599.227 117.982 599.227 117.982C601.354 118.262 602.855 118.476 603.938 118.66C606.058 119.024 607.353 119.93 607.475 120.071C609.987 121.974 615.891 127.817 618.2 141.898C618.2 141.898 615.28 145.901 611.167 147.082C611.059 147.113 610.95 147.14 610.84 147.167C611.555 159.1 615.947 178.959 614.365 190.447C612.845 201.492 589.612 198.667 585.006 197.643C581.85 196.942 579.408 193.609 577.664 187.668C577.087 191.82 575.793 196.687 572.889 196.989C568.139 197.48 566.173 196.66 565.601 194.859C565.437 194.341 565.387 193.616 565.434 192.71C565.744 186.507 570.463 171.889 572.544 158.273Z" fill="#575B9F"/>
<path d="M581.463 292.481C585.059 306.79 590.473 317.759 590.473 317.759L595.186 317.432C595.186 317.432 592.875 306.433 593.007 291.572C591.408 292.378 588.107 293.196 581.463 292.481Z" fill="#D9935C"/>
<path d="M587.758 321.712H590.768C591.776 321.554 592.52 321.262 593.554 321.127C595.124 320.921 595.847 321.564 595.99 321.712C596.01 321.732 596.018 321.743 596.018 321.743H608.802C609.124 321.284 608.815 320.219 608.512 319.436C608.309 318.904 607.865 318.501 607.316 318.342C605.96 317.95 603.287 317.6 600.84 315.384C599.463 314.14 594.191 310.808 594.191 310.808L594.163 310.802C594.048 310.804 593.496 310.973 591.098 312.998C589.858 314.043 587.746 311.522 587.746 311.522C587.746 311.522 587.349 311.851 587.053 312.462C586.814 312.945 586.641 313.608 586.778 314.425C586.969 315.577 586.353 317.718 585.862 319.166C585.564 320.044 585.313 320.666 585.313 320.666C585.313 320.666 585.17 321.388 587.758 321.712Z" fill="#233862"/>
<path d="M587.052 312.462C587.771 312.968 589.287 313.966 590.294 314.096C591.651 314.275 594.191 310.808 594.191 310.808L594.163 310.802C594.047 310.804 593.496 310.973 591.098 312.998C589.858 314.043 587.745 311.522 587.745 311.522C587.745 311.522 587.348 311.85 587.052 312.462Z" fill="#466AA5"/>
<path d="M587.758 321.712H590.768C591.775 321.554 592.52 321.262 593.554 321.127C595.124 320.921 595.846 321.564 595.99 321.712C596.01 321.732 596.018 321.743 596.018 321.743H608.802C609.124 321.284 608.815 320.219 608.512 319.436C608.124 319.091 608.015 320.936 607.8 321.23C607.586 321.524 597.371 321.337 596.782 320.908C596.192 320.479 594.422 319.728 591.955 320.318C589.808 320.831 586.645 319.516 585.862 319.166C585.564 320.043 585.313 320.666 585.313 320.666C585.313 320.666 585.169 321.388 587.758 321.712Z" fill="#466AA5"/>
<path d="M571.7 321.712H574.709C575.717 321.554 576.462 321.262 577.495 321.127C579.066 320.921 579.788 321.564 579.933 321.712C579.952 321.731 579.96 321.743 579.96 321.743H592.744C593.066 321.284 592.757 320.219 592.454 319.436C592.251 318.904 591.807 318.501 591.257 318.342C589.902 317.95 587.229 317.6 584.782 315.384C583.405 314.14 578.133 310.808 578.133 310.808L578.105 310.802C577.989 310.804 577.438 310.973 575.04 312.998C573.8 314.043 571.688 311.522 571.688 311.522C571.688 311.522 571.291 311.851 570.994 312.462C570.756 312.945 570.582 313.608 570.72 314.425C570.91 315.577 570.295 317.718 569.804 319.166C569.506 320.044 569.255 320.666 569.255 320.666C569.255 320.666 569.111 321.388 571.7 321.712Z" fill="#233862"/>
<path d="M570.993 312.462C571.712 312.968 573.228 313.966 574.234 314.096C575.592 314.275 578.132 310.808 578.132 310.808L578.104 310.802C577.988 310.804 577.437 310.973 575.039 312.998C573.799 314.043 571.687 311.522 571.687 311.522C571.687 311.522 571.289 311.85 570.993 312.462Z" fill="#466AA5"/>
<path d="M571.699 321.712H574.708C575.716 321.554 576.461 321.262 577.495 321.127C579.065 320.921 579.787 321.564 579.932 321.712C579.951 321.732 579.959 321.743 579.959 321.743H592.743C593.065 321.284 592.756 320.219 592.453 319.436C592.065 319.091 591.955 320.936 591.741 321.23C591.527 321.524 581.313 321.337 580.723 320.908C580.133 320.479 578.363 319.728 575.896 320.318C573.749 320.831 570.586 319.516 569.803 319.166C569.505 320.043 569.254 320.666 569.254 320.666C569.254 320.666 569.11 321.388 571.699 321.712Z" fill="#466AA5"/>
<path d="M565.435 192.71C568.626 191.643 572.72 188.809 577.638 182.453C590.657 165.624 578.744 145.847 577.147 145.478C575.55 145.11 572.544 158.273 572.544 158.273C570.463 171.889 565.744 186.506 565.435 192.71Z" fill="#373480"/>
<path d="M640.088 131.58C640.088 131.58 638 129.685 636.295 131.477C634.589 133.269 636.94 136.471 638.66 137.234C640.381 137.996 640.952 138.428 640.952 138.428L640.088 131.58Z" fill="#FFB27D"/>
<path d="M596.712 103.496C596.712 103.496 596.959 104.546 599.569 104.384C599.569 104.384 601.761 104.249 601.694 103.095C601.694 103.095 599.569 102.274 596.712 103.496Z" fill="white"/>
<path d="M488.02 241.44L488.039 199.637C488.039 198.19 486.857 197.005 485.41 197.005L409.258 196.97C407.81 196.97 406.627 198.153 406.626 199.6L406.607 241.403C406.606 242.85 407.789 244.035 409.237 244.035L485.389 244.069C486.835 244.07 488.019 242.887 488.02 241.44Z" fill="#699FF0"/>
<path d="M488.035 203.986H406.622V213.299H488.035V203.986Z" fill="#365DA4"/>
<path d="M462.559 215.895H412.746V223.218H462.559V215.895Z" fill="#AFCDFB"/>
<path d="M422.901 236.372L422.902 231.035C422.903 229.937 422.013 229.047 420.916 229.046L414.73 229.043C413.632 229.043 412.741 229.932 412.741 231.03L412.738 236.368C412.738 237.465 413.627 238.355 414.725 238.357L420.912 238.359C422.009 238.36 422.9 237.47 422.901 236.372Z" fill="#AFCDFB"/>
<path opacity="0.2" d="M432.195 229.991L481.128 230.013C481.554 230.013 481.898 229.669 481.898 229.243L481.899 228.491C481.899 228.066 481.554 227.721 481.129 227.721L432.196 227.699C431.771 227.699 431.426 228.044 431.426 228.469V229.22C431.425 229.645 431.77 229.991 432.195 229.991Z" fill="#AFCDFB"/>
<path opacity="0.2" d="M432.183 234.29L481.133 234.312C481.554 234.313 481.894 233.972 481.895 233.551L481.895 232.834C481.895 232.414 481.555 232.073 481.134 232.073L432.184 232.05C431.764 232.051 431.423 232.391 431.422 232.811L431.423 233.529C431.422 233.949 431.763 234.29 432.183 234.29Z" fill="#AFCDFB"/>
<path opacity="0.2" d="M481.893 237.692L481.893 236.88C481.893 236.446 481.542 236.094 481.108 236.094L432.206 236.072C431.772 236.071 431.421 236.423 431.42 236.857L431.42 237.669C431.42 238.104 431.771 238.455 432.205 238.456L481.107 238.478C481.541 238.477 481.893 238.127 481.893 237.692Z" fill="#AFCDFB"/>
<path d="M252.39 214.04H182.694C180.117 214.04 178.027 211.95 178.027 209.372V166.242C178.027 163.664 180.117 161.574 182.694 161.574H252.39C254.967 161.574 257.057 163.664 257.057 166.242V209.372C257.057 211.95 254.967 214.04 252.39 214.04Z" fill="#4A75CB"/>
<path d="M245.054 146.328H181.39V178.845H245.054V146.328Z" fill="#82B378"/>
<path d="M244.715 145.844H181.051V178.361H244.715V145.844Z" fill="#82B378"/>
<path d="M244.263 145.424H180.599V177.941H244.263V145.424Z" fill="#82B378"/>
<path d="M243.827 145.026H180.163V177.542H243.827V145.026Z" fill="#A8D29F"/>
<path d="M182.654 147.465V175.104H241.336V147.465H182.654ZM239.113 172.962H184.877V149.606H239.113V172.962Z" fill="#82B378"/>
<path d="M182.654 147.465V153.751C183.105 153.881 183.581 153.955 184.074 153.955C186.903 153.955 189.196 151.661 189.196 148.832C189.196 148.358 189.127 147.901 189.006 147.465H182.654Z" fill="#82B378"/>
<path d="M241.337 147.438H235.052C234.922 147.889 234.848 148.365 234.848 148.858C234.848 151.688 237.141 153.981 239.97 153.981C240.444 153.981 240.901 153.912 241.337 153.792V147.438Z" fill="#82B378"/>
<path d="M241.337 175.104H235.052C234.922 174.652 234.848 174.176 234.848 173.683C234.848 170.854 237.141 168.56 239.97 168.56C240.444 168.56 240.901 168.63 241.337 168.75V175.104Z" fill="#82B378"/>
<path d="M182.654 175.077V168.791C183.105 168.66 183.581 168.587 184.074 168.587C186.903 168.587 189.196 170.88 189.196 173.71C189.196 174.184 189.127 174.641 189.006 175.076H182.654V175.077Z" fill="#82B378"/>
<path d="M211.995 168.172C215.799 168.172 218.883 165.088 218.883 161.284C218.883 157.48 215.799 154.396 211.995 154.396C208.192 154.396 205.108 157.48 205.108 161.284C205.108 165.088 208.192 168.172 211.995 168.172Z" fill="#82B378"/>
<path d="M236.453 177.963C243.678 177.963 249.535 172.105 249.535 164.878C249.535 157.652 243.678 151.794 236.453 151.794C229.227 151.794 223.37 157.652 223.37 164.878C223.37 172.105 229.227 177.963 236.453 177.963Z" fill="#E2810E"/>
<path d="M235.32 178.105C242.545 178.105 248.403 172.247 248.403 165.02C248.403 157.794 242.545 151.936 235.32 151.936C228.095 151.936 222.237 157.794 222.237 165.02C222.237 172.247 228.095 178.105 235.32 178.105Z" fill="#FFB93E"/>
<path d="M236.818 177.003C230.296 177.818 224.326 173.173 223.512 166.651C222.697 160.128 227.34 154.159 233.862 153.344C240.383 152.529 246.351 157.172 247.166 163.694C247.981 170.217 243.339 176.187 236.818 177.003ZM233.95 154.049C227.817 154.816 223.45 160.429 224.216 166.563C224.983 172.697 230.597 177.064 236.73 176.298C242.862 175.532 247.228 169.916 246.461 163.783C245.695 157.649 240.082 153.283 233.95 154.049Z" fill="#FFA412"/>
<path d="M237.397 168.403C237.395 168.144 237.357 167.917 237.283 167.72C237.209 167.523 237.088 167.345 236.921 167.186C236.754 167.027 236.539 166.88 236.277 166.746C236.014 166.612 235.692 166.481 235.314 166.354C234.662 166.13 234.07 165.895 233.538 165.649C233.005 165.402 232.549 165.117 232.169 164.793C231.789 164.468 231.493 164.088 231.281 163.652C231.069 163.215 230.962 162.695 230.958 162.091C230.954 161.567 231.044 161.089 231.228 160.656C231.411 160.223 231.674 159.846 232.017 159.523C232.36 159.201 232.771 158.937 233.251 158.734C233.731 158.531 234.269 158.4 234.866 158.34L234.854 156.361L236.446 156.352L236.459 158.358C237.03 158.429 237.548 158.576 238.014 158.802C238.48 159.027 238.877 159.32 239.204 159.682C239.531 160.044 239.785 160.472 239.963 160.967C240.142 161.463 240.234 162.018 240.238 162.635L237.361 162.653C237.357 161.913 237.189 161.361 236.859 160.996C236.528 160.631 236.087 160.451 235.536 160.454C235.238 160.455 234.98 160.499 234.766 160.584C234.551 160.668 234.374 160.783 234.236 160.929C234.097 161.074 233.995 161.246 233.93 161.444C233.865 161.642 233.833 161.854 233.835 162.083C233.836 162.311 233.87 162.517 233.938 162.702C234.005 162.886 234.121 163.057 234.284 163.213C234.448 163.369 234.664 163.515 234.934 163.652C235.204 163.789 235.538 163.931 235.937 164.076C236.582 164.313 237.169 164.556 237.698 164.805C238.227 165.055 238.682 165.343 239.062 165.67C239.442 165.998 239.738 166.38 239.95 166.816C240.162 167.253 240.269 167.77 240.273 168.368C240.277 168.91 240.185 169.398 239.999 169.83C239.812 170.263 239.547 170.638 239.204 170.954C238.861 171.271 238.447 171.526 237.96 171.72C237.474 171.914 236.932 172.041 236.335 172.1L236.346 173.94L234.764 173.95L234.753 172.12C234.202 172.068 233.668 171.951 233.153 171.769C232.637 171.587 232.18 171.323 231.78 170.978C231.379 170.632 231.058 170.195 230.816 169.666C230.574 169.137 230.45 168.503 230.446 167.763L233.322 167.746C233.325 168.183 233.388 168.548 233.513 168.84C233.637 169.132 233.803 169.365 234.01 169.54C234.217 169.714 234.451 169.836 234.714 169.905C234.976 169.975 235.244 170.008 235.516 170.007C235.827 170.005 236.101 169.963 236.336 169.881C236.571 169.8 236.768 169.688 236.926 169.544C237.084 169.402 237.203 169.233 237.281 169.038C237.36 168.843 237.398 168.632 237.397 168.403Z" fill="#FFA412"/>
<path d="M247.225 218.142H182.694C180.117 218.142 178.027 216.052 178.027 213.475V170.344C178.027 167.767 180.117 165.677 182.694 165.677H247.225C249.802 165.677 251.891 167.767 251.891 170.344V213.475C251.891 216.052 249.802 218.142 247.225 218.142Z" fill="#699FF0"/>
<path d="M254.087 199.077H231.166C227.207 199.077 223.999 195.868 223.999 191.909C223.999 187.951 227.207 184.741 231.166 184.741H254.087V199.077Z" fill="#4A75CB"/>
<path d="M231.166 197.528C234.268 197.528 236.783 195.012 236.783 191.91C236.783 188.807 234.268 186.291 231.166 186.291C228.063 186.291 225.548 188.807 225.548 191.91C225.548 195.012 228.063 197.528 231.166 197.528Z" fill="#E9F3FE"/>
<path d="M445.368 144.864C455.004 144.864 462.816 137.051 462.816 127.413C462.816 117.775 455.004 109.962 445.368 109.962C435.731 109.962 427.919 117.775 427.919 127.413C427.919 137.051 435.731 144.864 445.368 144.864Z" fill="#A8D29F"/>
<path d="M435.202 128.616L440.9 134.315C441.212 134.627 441.635 134.802 442.075 134.802H442.906C443.347 134.802 443.77 134.627 444.081 134.315L455.533 122.861C456.58 121.814 455.839 120.024 454.358 120.024H453.819C453.385 120.024 452.968 120.194 452.658 120.498L443.278 129.668C442.627 130.304 441.585 130.298 440.941 129.655L437.552 126.265C437.236 125.949 436.806 125.774 436.359 125.778C434.887 125.794 434.161 127.575 435.202 128.616Z" fill="white"/>
<path d="M114.871 133.939C114.38 134.002 113.893 134.063 113.411 134.122C112.859 134.188 112.358 133.795 112.291 133.243C112.224 132.694 112.613 132.194 113.162 132.124C113.164 132.124 113.167 132.124 113.169 132.123C114.037 132.018 114.921 131.906 115.819 131.786C115.821 131.785 115.823 131.785 115.825 131.785C116.373 131.715 116.876 132.101 116.95 132.65C117.023 133.201 116.636 133.707 116.085 133.781C115.678 133.835 115.273 133.888 114.871 133.939ZM118.74 133.411C118.196 133.481 117.696 133.101 117.617 132.557C117.537 132.006 117.919 131.497 118.469 131.417C119.339 131.291 120.221 131.158 121.115 131.02C121.673 130.932 122.179 131.312 122.264 131.861C122.349 132.41 121.972 132.925 121.423 133.009C120.522 133.148 119.633 133.282 118.757 133.408C118.751 133.409 118.746 133.41 118.74 133.411ZM110.752 134.424C110.744 134.425 110.737 134.426 110.73 134.427C109.817 134.524 108.913 134.613 108.043 134.691C107.49 134.741 107.001 134.333 106.951 133.779C106.901 133.225 107.314 132.742 107.863 132.687C108.722 132.609 109.615 132.521 110.517 132.425C111.07 132.366 111.565 132.767 111.624 133.319C111.682 133.865 111.293 134.355 110.752 134.424ZM124.049 132.591C123.514 132.66 123.016 132.292 122.929 131.755C122.84 131.207 123.211 130.689 123.76 130.6C124.63 130.457 125.511 130.309 126.401 130.157C126.941 130.063 127.469 130.431 127.563 130.979C127.657 131.527 127.289 132.047 126.741 132.141C125.846 132.295 124.96 132.443 124.085 132.586C124.072 132.588 124.061 132.59 124.049 132.591ZM105.406 134.902C105.387 134.904 105.368 134.907 105.348 134.908C104.421 134.972 103.512 135.026 102.645 135.066C102.09 135.091 101.619 134.662 101.593 134.107C101.568 133.551 101.997 133.082 102.552 133.055C103.403 133.016 104.296 132.963 105.207 132.899C105.761 132.861 106.242 133.279 106.281 133.833C106.319 134.368 105.931 134.834 105.406 134.902ZM129.343 131.684C128.815 131.752 128.321 131.393 128.226 130.863C128.128 130.315 128.492 129.793 129.039 129.695C129.91 129.539 130.788 129.379 131.675 129.214C132.223 129.111 132.747 129.474 132.848 130.02C132.95 130.567 132.589 131.092 132.043 131.193C131.151 131.359 130.268 131.52 129.394 131.676C129.377 131.679 129.36 131.682 129.343 131.684ZM100.046 135.144C100.009 135.148 99.9711 135.151 99.9332 135.152C98.9902 135.167 98.0744 135.165 97.211 135.146C96.6555 135.134 96.2149 134.674 96.227 134.118C96.2392 133.563 96.6984 133.121 97.2552 133.134C98.0928 133.153 98.9827 133.154 99.8998 133.139C100.456 133.13 100.914 133.573 100.922 134.129C100.931 134.647 100.547 135.079 100.046 135.144ZM134.625 130.704C134.102 130.772 133.611 130.42 133.51 129.896C133.406 129.35 133.763 128.822 134.309 128.718C135.178 128.551 136.056 128.38 136.939 128.206C137.489 128.097 138.014 128.453 138.121 128.998C138.229 129.544 137.874 130.073 137.329 130.18C136.442 130.355 135.561 130.527 134.688 130.694C134.667 130.698 134.646 130.702 134.625 130.704ZM139.894 129.664C139.376 129.731 138.887 129.386 138.781 128.866C138.671 128.321 139.023 127.79 139.568 127.68C140.437 127.503 141.313 127.324 142.193 127.141C142.742 127.027 143.27 127.377 143.384 127.921C143.496 128.466 143.147 128.998 142.603 129.111C141.719 129.295 140.84 129.475 139.968 129.653C139.943 129.657 139.919 129.661 139.894 129.664ZM145.153 128.572C144.639 128.638 144.152 128.299 144.042 127.783C143.927 127.239 144.274 126.704 144.817 126.589C145.686 126.405 146.56 126.217 147.439 126.027C147.978 125.909 148.518 126.254 148.635 126.797C148.753 127.341 148.408 127.876 147.865 127.994C146.983 128.185 146.106 128.373 145.235 128.558C145.208 128.564 145.18 128.568 145.153 128.572ZM94.6821 135.014C94.6162 135.022 94.5478 135.025 94.4788 135.019C93.5057 134.948 92.5832 134.847 91.7371 134.72C91.1875 134.638 90.8089 134.126 90.8915 133.576C90.9737 133.026 91.4856 132.647 92.0351 132.73C92.8314 132.849 93.7038 132.944 94.6274 133.012C95.1816 133.053 95.5974 133.535 95.5566 134.09C95.5209 134.575 95.1462 134.955 94.6821 135.014ZM150.402 127.435C149.891 127.5 149.406 127.166 149.293 126.654C149.173 126.11 149.516 125.573 150.059 125.454C150.927 125.262 151.799 125.067 152.676 124.87C153.22 124.748 153.757 125.09 153.878 125.632C154 126.174 153.659 126.713 153.117 126.834C152.238 127.032 151.363 127.227 150.493 127.419C150.462 127.426 150.432 127.431 150.402 127.435ZM155.642 126.258C155.134 126.323 154.651 125.993 154.534 125.483C154.41 124.941 154.749 124.402 155.291 124.278C156.158 124.08 157.03 123.88 157.905 123.677C158.447 123.551 158.987 123.888 159.112 124.43C159.238 124.971 158.901 125.512 158.359 125.638C157.482 125.841 156.609 126.042 155.739 126.241C155.707 126.248 155.674 126.253 155.642 126.258ZM160.874 125.045C160.369 125.11 159.887 124.783 159.768 124.277C159.641 123.735 159.976 123.194 160.517 123.066C161.384 122.863 162.254 122.657 163.127 122.449C163.669 122.32 164.21 122.654 164.339 123.195C164.468 123.735 164.134 124.278 163.594 124.407C162.718 124.615 161.846 124.822 160.978 125.026C160.943 125.034 160.908 125.04 160.874 125.045ZM89.3874 134.182C89.2593 134.199 89.126 134.191 88.9935 134.155C87.9633 133.872 87.0532 133.523 86.289 133.117C85.7983 132.857 85.6113 132.247 85.8716 131.756C86.1325 131.266 86.7415 131.079 87.2322 131.339C87.8662 131.676 88.6382 131.97 89.5263 132.214C90.0625 132.361 90.3773 132.915 90.2304 133.451C90.1196 133.854 89.7782 134.132 89.3874 134.182ZM166.098 123.8C165.595 123.865 165.115 123.542 164.993 123.038C164.863 122.497 165.195 121.954 165.735 121.824C166.602 121.614 167.471 121.404 168.343 121.191C168.881 121.058 169.427 121.39 169.559 121.93C169.69 122.47 169.359 123.015 168.82 123.146C167.946 123.359 167.076 123.571 166.208 123.78C166.171 123.789 166.134 123.796 166.098 123.8ZM171.315 122.527C170.815 122.591 170.335 122.271 170.212 121.77C170.079 121.23 170.408 120.685 170.948 120.552C171.814 120.338 172.681 120.122 173.552 119.905C174.09 119.772 174.637 120.099 174.771 120.639C174.906 121.178 174.578 121.724 174.038 121.858C173.167 122.076 172.297 122.291 171.43 122.505C171.391 122.515 171.353 122.522 171.315 122.527ZM176.526 121.227C176.028 121.291 175.55 120.974 175.424 120.475C175.288 119.936 175.615 119.389 176.154 119.253C177.019 119.035 177.886 118.815 178.755 118.594C179.294 118.457 179.841 118.783 179.978 119.322C180.115 119.86 179.789 120.408 179.25 120.545C178.381 120.766 177.512 120.986 176.645 121.205C176.606 121.215 176.566 121.222 176.526 121.227ZM181.73 119.904C181.234 119.967 180.757 119.652 180.629 119.155C180.491 118.617 180.815 118.068 181.354 117.93C182.218 117.708 183.085 117.485 183.952 117.26C184.49 117.121 185.039 117.445 185.178 117.982C185.317 118.521 184.994 119.069 184.456 119.209C183.588 119.434 182.72 119.657 181.854 119.88C181.813 119.89 181.772 119.898 181.73 119.904ZM186.921 118.559C186.427 118.623 185.95 118.31 185.821 117.815C185.681 117.277 186.003 116.727 186.541 116.587C187.404 116.362 188.267 116.135 189.132 115.908C189.67 115.768 190.219 116.088 190.361 116.625C190.502 117.163 190.181 117.713 189.644 117.854C188.778 118.082 187.913 118.309 187.049 118.534C187.006 118.546 186.964 118.554 186.921 118.559ZM84.8419 131.538C84.4889 131.583 84.1226 131.44 83.899 131.131C83.8396 131.049 83.783 130.966 83.7291 130.882C83.2334 130.106 82.8269 129.32 82.5214 128.545C82.3171 128.029 82.5707 127.444 83.0875 127.24C83.604 127.035 84.189 127.289 84.393 127.806C84.6513 128.46 84.9987 129.13 85.4253 129.798C85.4579 129.849 85.4922 129.899 85.5279 129.949C85.8543 130.399 85.7541 131.028 85.3042 131.354C85.1629 131.457 85.0038 131.517 84.8419 131.538ZM192.109 117.194C191.616 117.257 191.141 116.947 191.01 116.453C190.867 115.916 191.188 115.366 191.725 115.223C192.59 114.994 193.454 114.763 194.32 114.532C194.859 114.388 195.408 114.708 195.551 115.245C195.695 115.782 195.376 116.333 194.839 116.477C193.973 116.708 193.106 116.939 192.24 117.169C192.197 117.18 192.153 117.189 192.109 117.194ZM197.305 115.806C196.814 115.87 196.339 115.561 196.207 115.07C196.063 114.533 196.381 113.981 196.917 113.836C197.784 113.603 198.65 113.369 199.517 113.134C200.056 112.989 200.606 113.307 200.751 113.843C200.897 114.38 200.579 114.932 200.043 115.077C199.176 115.312 198.308 115.546 197.44 115.78C197.395 115.792 197.35 115.801 197.305 115.806ZM202.497 114.4C202.008 114.463 201.534 114.157 201.4 113.666C201.254 113.13 201.57 112.577 202.106 112.431C202.969 112.195 203.832 111.959 204.695 111.723C205.23 111.575 205.784 111.891 205.931 112.427C206.078 112.963 205.763 113.517 205.227 113.664C204.363 113.901 203.499 114.137 202.635 114.373C202.589 114.385 202.543 114.394 202.497 114.4ZM207.676 112.979C207.187 113.042 206.714 112.737 206.579 112.249C206.431 111.713 206.746 111.159 207.282 111.011C208.145 110.773 209.007 110.534 209.868 110.295C210.404 110.147 210.958 110.46 211.107 110.996C211.255 111.531 210.941 112.086 210.406 112.234C209.544 112.474 208.681 112.713 207.817 112.951C207.77 112.964 207.723 112.973 207.676 112.979ZM212.85 111.542C212.363 111.605 211.891 111.302 211.755 110.815C211.605 110.279 211.918 109.724 212.453 109.575C213.316 109.334 214.177 109.093 215.037 108.851C215.571 108.7 216.128 109.013 216.278 109.548C216.428 110.083 216.116 110.639 215.581 110.789C214.72 111.031 213.858 111.272 212.994 111.514C212.947 111.527 212.898 111.536 212.85 111.542ZM218.021 110.091C217.535 110.153 217.063 109.852 216.926 109.366C216.775 108.831 217.086 108.274 217.621 108.123C218.483 107.88 219.344 107.636 220.203 107.393C220.738 107.24 221.294 107.552 221.446 108.086C221.598 108.621 221.287 109.177 220.753 109.329C219.893 109.573 219.031 109.817 218.168 110.061C218.118 110.074 218.07 110.084 218.021 110.091ZM223.187 108.625C222.702 108.687 222.231 108.387 222.092 107.902C221.94 107.368 222.25 106.811 222.784 106.658C223.646 106.412 224.507 106.166 225.365 105.921C225.897 105.768 226.456 106.076 226.609 106.61C226.762 107.145 226.453 107.702 225.919 107.855C225.061 108.101 224.199 108.348 223.336 108.594C223.286 108.608 223.236 108.618 223.187 108.625ZM82.9514 126.576C82.939 126.577 82.9266 126.579 82.9142 126.58C82.3608 126.63 81.8711 126.223 81.821 125.669C81.7306 124.681 81.7985 123.687 82.0227 122.715C82.1474 122.174 82.6875 121.836 83.229 121.96C83.7704 122.085 84.1087 122.626 83.9837 123.167C83.8076 123.931 83.7541 124.711 83.8246 125.487C83.8742 126.027 83.486 126.507 82.9514 126.576ZM228.349 107.145C227.865 107.207 227.395 106.909 227.256 106.425C227.102 105.891 227.41 105.333 227.944 105.179C228.807 104.931 229.666 104.683 230.523 104.435C231.059 104.281 231.615 104.588 231.769 105.122C231.923 105.656 231.615 106.214 231.082 106.368C230.225 106.616 229.364 106.865 228.501 107.113C228.451 107.128 228.4 107.138 228.349 107.145ZM233.508 105.652C233.025 105.714 232.556 105.417 232.415 104.935C232.26 104.401 232.567 103.842 233.101 103.687C233.963 103.436 234.822 103.186 235.678 102.936C236.212 102.781 236.77 103.087 236.926 103.62C237.081 104.154 236.775 104.713 236.242 104.868C235.385 105.118 234.525 105.369 233.662 105.62C233.611 105.635 233.559 105.645 233.508 105.652ZM238.664 104.146C238.181 104.208 237.712 103.912 237.571 103.431C237.415 102.898 237.72 102.339 238.254 102.182C239.116 101.929 239.975 101.677 240.829 101.425C241.364 101.268 241.921 101.573 242.078 102.106C242.235 102.64 241.93 103.199 241.398 103.356C240.542 103.608 239.683 103.86 238.82 104.114C238.768 104.129 238.716 104.14 238.664 104.146ZM243.815 102.629C243.334 102.691 242.866 102.396 242.724 101.916C242.566 101.383 242.87 100.823 243.403 100.666C244.266 100.411 245.124 100.156 245.977 99.9027C246.51 99.7452 247.07 100.048 247.228 100.581C247.386 101.114 247.082 101.674 246.55 101.832C245.696 102.086 244.837 102.34 243.974 102.596C243.921 102.611 243.868 102.622 243.815 102.629ZM248.964 101.1C248.484 101.161 248.016 100.868 247.873 100.389C247.715 99.8565 248.018 99.296 248.55 99.1371C249.413 98.8799 250.27 98.6236 251.123 98.3687C251.654 98.209 252.216 98.512 252.375 99.0444C252.534 99.5768 252.232 100.138 251.699 100.297C250.847 100.552 249.988 100.809 249.125 101.066C249.072 101.082 249.018 101.093 248.964 101.1ZM84.0868 121.468C83.8838 121.494 83.6707 121.458 83.477 121.353C82.9894 121.086 82.8101 120.474 83.0767 119.987C83.5095 119.194 84.0578 118.401 84.7071 117.629C85.0645 117.203 85.6994 117.148 86.1247 117.505C86.5501 117.863 86.6054 118.498 86.2479 118.923C85.6849 119.594 85.212 120.276 84.8429 120.952C84.682 121.246 84.3959 121.428 84.0868 121.468ZM254.11 99.5595C253.63 99.6209 253.163 99.3288 253.019 98.8504C252.859 98.318 253.161 97.757 253.693 97.5968C254.557 97.3375 255.414 97.0795 256.264 96.823C256.796 96.6623 257.357 96.9637 257.518 97.4956C257.678 98.0282 257.377 98.5895 256.845 98.7499C255.994 99.0064 255.136 99.2647 254.272 99.5243C254.218 99.5411 254.164 99.5525 254.11 99.5595ZM259.252 98.0081C258.773 98.0693 258.307 97.7782 258.162 97.3013C258.001 96.7692 258.302 96.2077 258.834 96.0465C259.698 95.7848 260.554 95.525 261.403 95.2669C261.934 95.106 262.496 95.4056 262.658 95.9372C262.82 96.4688 262.52 97.0312 261.988 97.1929C261.139 97.4512 260.282 97.711 259.417 97.9729C259.362 97.9895 259.307 98.0011 259.252 98.0081ZM264.391 96.4456C263.914 96.5068 263.448 96.217 263.302 95.7406C263.14 95.2093 263.439 94.647 263.971 94.4848C264.836 94.221 265.692 93.9591 266.539 93.6998C267.069 93.5381 267.633 93.8362 267.796 94.3675C267.958 94.8993 267.66 95.4617 267.128 95.6242C266.281 95.8838 265.424 96.1457 264.559 96.4099C264.503 96.427 264.447 96.4386 264.391 96.4456ZM269.528 94.8727C269.052 94.9337 268.586 94.6452 268.44 94.1699C268.277 93.6385 268.575 93.0757 269.106 92.9122C269.972 92.6461 270.828 92.3824 271.673 92.1223C272.204 91.9588 272.767 92.2563 272.931 92.7874C273.094 93.3188 272.797 93.8819 272.266 94.0459C271.421 94.3065 270.564 94.57 269.697 94.8366C269.641 94.8534 269.584 94.8655 269.528 94.8727ZM87.4742 117.356C87.158 117.396 86.8275 117.286 86.5981 117.032C86.2262 116.619 86.259 115.982 86.672 115.61C87.3233 115.023 88.0503 114.433 88.8329 113.857C89.2807 113.527 89.9101 113.623 90.2399 114.07C90.5692 114.518 90.4739 115.148 90.0263 115.478C89.297 116.015 88.6216 116.562 88.0194 117.105C87.8613 117.247 87.6702 117.331 87.4742 117.356ZM274.662 93.2891C274.186 93.35 273.721 93.0625 273.574 92.588C273.41 92.0572 273.707 91.4938 274.238 91.329C275.106 91.0604 275.961 90.7953 276.803 90.5337C277.332 90.3697 277.897 90.6654 278.062 91.1962C278.227 91.7271 277.931 92.291 277.4 92.4558C276.558 92.7174 275.702 92.983 274.833 93.2519C274.776 93.2694 274.719 93.2818 274.662 93.2891ZM279.793 91.6948C279.318 91.7555 278.854 91.4693 278.706 90.9958C278.541 90.465 278.837 89.9011 279.368 89.7355C280.238 89.464 281.093 89.1972 281.931 88.935C282.463 88.7687 283.027 89.0642 283.192 89.595C283.358 90.1256 283.063 90.69 282.532 90.8561C281.693 91.1185 280.838 91.3858 279.966 91.6573C279.909 91.6749 279.851 91.6875 279.793 91.6948ZM284.922 90.0902C284.448 90.1509 283.984 89.8652 283.835 89.3933C283.669 88.863 283.964 88.2983 284.494 88.1317C285.369 87.8571 286.224 87.5882 287.057 87.3255C287.586 87.1581 288.152 87.4528 288.319 87.9829C288.486 88.5129 288.192 89.0781 287.662 89.245C286.828 89.508 285.973 89.7771 285.097 90.0522C285.039 90.0698 284.98 90.0827 284.922 90.0902ZM91.7802 114.156C91.4037 114.205 91.0155 114.037 90.8001 113.694C90.5041 113.223 90.6457 112.602 91.1165 112.306C91.8572 111.84 92.6529 111.372 93.4812 110.914C93.9677 110.645 94.5801 110.822 94.8487 111.308C95.1175 111.795 94.9406 112.407 94.4546 112.676C93.6589 113.115 92.8962 113.564 92.1873 114.01C92.0597 114.09 91.921 114.139 91.7802 114.156ZM290.049 88.4742C289.576 88.5347 289.112 88.2502 288.963 87.7791C288.796 87.2493 289.089 86.6839 289.619 86.5162C290.501 86.2375 291.355 85.9666 292.181 85.7044C292.711 85.5365 293.276 85.8291 293.445 86.3589C293.613 86.8887 293.32 87.4544 292.79 87.6228C291.964 87.8853 291.109 88.1562 290.226 88.4355C290.168 88.4538 290.108 88.4665 290.049 88.4742ZM295.175 86.8464C294.702 86.9068 294.239 86.6234 294.09 86.1533C293.921 85.6238 294.213 85.0576 294.743 84.8886C295.639 84.6029 296.493 84.3299 297.304 84.0706C297.834 83.9014 298.399 84.193 298.569 84.722C298.738 85.2513 298.447 85.818 297.917 85.9872C297.106 86.2473 296.251 86.5204 295.354 86.8063C295.294 86.8257 295.234 86.8389 295.175 86.8464ZM96.4786 111.549C96.0646 111.602 95.6447 111.392 95.4489 110.997C95.2025 110.498 95.4065 109.895 95.9045 109.648C96.6896 109.259 97.5189 108.868 98.3696 108.486C98.8763 108.257 99.4719 108.484 99.7 108.99C99.9283 109.497 99.702 110.093 99.1953 110.321C98.367 110.694 97.5602 111.074 96.797 111.452C96.6943 111.503 96.5865 111.535 96.4786 111.549ZM300.301 85.2051C299.829 85.2655 299.367 84.9837 299.216 84.5149C299.046 83.9859 299.337 83.4186 299.866 83.2489C300.801 82.948 301.657 82.6724 302.429 82.4226C302.958 82.2518 303.525 82.5417 303.696 83.0707C303.867 83.5997 303.577 84.1669 303.048 84.3377C302.274 84.5877 301.418 84.8641 300.481 85.165C300.422 85.1844 300.361 85.1976 300.301 85.2051ZM305.433 83.5462C304.963 83.6064 304.501 83.3261 304.349 82.8589C304.177 82.3301 304.467 81.7624 304.995 81.5906C306.578 81.076 307.422 80.7981 307.423 80.7978C307.949 80.6245 308.519 80.911 308.693 81.4392C308.867 81.9669 308.58 82.5357 308.052 82.7096C308.052 82.7096 307.206 82.988 305.617 83.5046C305.556 83.5248 305.494 83.5385 305.433 83.5462ZM101.379 109.338C100.939 109.394 100.499 109.153 100.322 108.723C100.11 108.21 100.354 107.621 100.868 107.409C101.68 107.074 102.528 106.736 103.391 106.406C103.911 106.208 104.493 106.468 104.691 106.987C104.889 107.506 104.629 108.087 104.11 108.286C103.264 108.61 102.432 108.941 101.636 109.269C101.552 109.304 101.465 109.327 101.379 109.338ZM106.401 107.413C105.942 107.472 105.488 107.206 105.326 106.752C105.14 106.229 105.413 105.653 105.936 105.467C106.767 105.171 107.629 104.873 108.499 104.583C109.027 104.406 109.596 104.692 109.772 105.219C109.948 105.746 109.663 106.316 109.136 106.492C108.278 106.778 107.429 107.071 106.612 107.362C106.542 107.387 106.471 107.404 106.401 107.413ZM111.503 105.709C111.029 105.769 110.565 105.483 110.416 105.011C110.25 104.481 110.545 103.916 111.075 103.749C111.917 103.485 112.788 103.22 113.664 102.961C114.197 102.804 114.757 103.108 114.914 103.641C115.072 104.174 114.768 104.734 114.235 104.891C113.368 105.147 112.508 105.409 111.677 105.67C111.619 105.689 111.561 105.702 111.503 105.709ZM116.662 104.182C116.174 104.244 115.702 103.941 115.566 103.454C115.416 102.918 115.729 102.363 116.264 102.214C117.123 101.974 118.001 101.735 118.874 101.505C119.412 101.363 119.962 101.683 120.104 102.22C120.246 102.758 119.926 103.308 119.389 103.45C118.524 103.679 117.655 103.915 116.805 104.152C116.758 104.166 116.709 104.175 116.662 104.182ZM121.865 102.806C121.366 102.87 120.887 102.551 120.762 102.052C120.627 101.513 120.954 100.966 121.494 100.831C122.358 100.615 123.242 100.399 124.121 100.191C124.662 100.064 125.204 100.397 125.332 100.938C125.461 101.479 125.126 102.021 124.585 102.15C123.714 102.356 122.838 102.569 121.982 102.784C121.943 102.793 121.904 102.801 121.865 102.806ZM127.105 101.564C126.595 101.629 126.111 101.297 125.996 100.785C125.874 100.243 126.216 99.7046 126.758 99.5835C127.64 99.3859 128.53 99.1924 129.403 99.0082C129.948 98.8925 130.481 99.2418 130.596 99.7852C130.71 100.329 130.362 100.863 129.818 100.978C128.953 101.16 128.071 101.352 127.198 101.547C127.167 101.554 127.136 101.56 127.105 101.564ZM132.379 100.453C131.858 100.52 131.368 100.171 131.265 99.6488C131.158 99.1036 131.513 98.5743 132.059 98.4673C133.739 98.137 134.707 97.9714 134.748 97.9644C135.288 97.8686 135.815 98.239 135.909 98.7871C136.002 99.3347 135.634 99.8547 135.086 99.9485C135.077 99.95 134.099 100.118 132.447 100.442C132.424 100.446 132.402 100.45 132.379 100.453Z" fill="#A8D29F"/>
<path d="M319.583 97.088L354.647 70.8152L320.417 77.2709L323.825 82.7568L317.711 91.563L319.583 97.088Z" fill="#82B378"/>
<path d="M354.647 70.8152L315.957 83.1515L289.666 106.892L354.647 70.8152Z" fill="#A8D29F"/>
<path d="M320.417 77.2709L354.647 70.8153L317.215 64.8613L320.417 77.2709Z" fill="#A8D29F"/>
<path d="M260.249 273.091H174.834C172.671 273.091 170.918 271.338 170.918 269.174V254.11C170.918 251.947 172.671 250.193 174.834 250.193H260.249C262.412 250.193 264.166 251.947 264.166 254.11V269.174C264.166 271.338 262.412 273.091 260.249 273.091Z" fill="#A8D29F"/>
<path d="M187.27 256.47C187.378 256.47 187.472 256.509 187.551 256.588C187.63 256.667 187.669 256.761 187.669 256.869V257.918C187.669 258.027 187.63 258.12 187.551 258.199C187.472 258.278 187.378 258.317 187.27 258.317H184.61V266.417C184.61 266.525 184.571 266.619 184.492 266.697C184.413 266.777 184.319 266.816 184.211 266.816H183.014C182.906 266.816 182.812 266.777 182.733 266.697C182.654 266.619 182.615 266.525 182.615 266.417V258.317H179.955C179.846 258.317 179.753 258.278 179.674 258.199C179.595 258.12 179.556 258.027 179.556 257.918V256.869C179.556 256.761 179.595 256.667 179.674 256.588C179.753 256.509 179.846 256.47 179.955 256.47H187.27Z" fill="white"/>
<path d="M193.358 256.469C194.59 256.469 195.526 256.755 196.166 257.327C196.807 257.898 197.127 258.691 197.127 259.706C197.127 260.426 196.962 261.039 196.632 261.546C196.302 262.054 195.816 262.431 195.176 262.677L197.215 266.328C197.245 266.387 197.26 266.441 197.26 266.49C197.26 266.579 197.227 266.656 197.164 266.72C197.099 266.784 197.023 266.816 196.935 266.816H195.678C195.481 266.816 195.336 266.769 195.242 266.675C195.149 266.582 195.082 266.496 195.043 266.417L193.107 262.973H191.142V266.417C191.142 266.525 191.102 266.619 191.023 266.697C190.944 266.776 190.851 266.816 190.743 266.816H189.546C189.437 266.816 189.344 266.776 189.265 266.697C189.186 266.619 189.147 266.525 189.147 266.417V256.868C189.147 256.76 189.186 256.667 189.265 256.588C189.344 256.509 189.437 256.469 189.546 256.469H193.358ZM191.142 261.125H193.285C193.846 261.125 194.294 261.027 194.629 260.829C194.964 260.632 195.132 260.258 195.132 259.706C195.132 259.154 194.964 258.785 194.629 258.597C194.294 258.41 193.846 258.317 193.285 258.317H191.142V261.125Z" fill="white"/>
<path d="M203.91 256.469C204.067 256.469 204.185 256.511 204.264 256.595C204.343 256.679 204.412 256.804 204.471 256.972L208.092 266.313C208.102 266.343 208.107 266.377 208.107 266.416C208.107 266.525 208.067 266.618 207.988 266.697C207.909 266.776 207.816 266.815 207.708 266.815H206.644C206.446 266.815 206.309 266.774 206.23 266.69C206.151 266.606 206.097 266.525 206.067 266.446L205.432 264.805H200.762L200.127 266.446C200.097 266.525 200.043 266.606 199.964 266.69C199.885 266.774 199.747 266.815 199.55 266.815H198.486C198.378 266.815 198.284 266.776 198.206 266.697C198.127 266.618 198.087 266.525 198.087 266.416C198.087 266.377 198.092 266.343 198.102 266.313L201.723 256.972C201.782 256.804 201.85 256.679 201.93 256.595C202.008 256.511 202.126 256.469 202.284 256.469H203.91ZM204.722 262.958L203.097 258.745L201.471 262.958H204.722Z" fill="white"/>
<path d="M216.16 266.816C215.993 266.816 215.865 266.771 215.776 266.683C215.688 266.594 215.623 266.525 215.584 266.475L211.446 260.327V266.416C211.446 266.525 211.407 266.618 211.328 266.697C211.249 266.776 211.156 266.815 211.047 266.815H209.85C209.742 266.815 209.648 266.776 209.57 266.697C209.491 266.618 209.451 266.525 209.451 266.416V256.868C209.451 256.76 209.491 256.666 209.57 256.587C209.648 256.509 209.742 256.469 209.85 256.469H210.885C211.052 256.469 211.181 256.514 211.269 256.602C211.358 256.691 211.422 256.76 211.461 256.809L215.599 262.958V256.868C215.599 256.76 215.638 256.667 215.717 256.588C215.796 256.509 215.89 256.469 215.998 256.469H217.195C217.303 256.469 217.397 256.509 217.476 256.588C217.555 256.667 217.594 256.76 217.594 256.868V266.417C217.594 266.525 217.555 266.619 217.476 266.697C217.397 266.776 217.304 266.816 217.195 266.816H216.16Z" fill="white"/>
<path d="M223.446 256.322C224.106 256.322 224.687 256.41 225.19 256.588C225.692 256.765 226.111 256.987 226.446 257.253C226.78 257.519 227.034 257.812 227.207 258.132C227.379 258.452 227.475 258.755 227.495 259.041C227.505 259.159 227.468 259.255 227.384 259.329C227.3 259.403 227.204 259.44 227.096 259.44H226.061C225.894 259.44 225.768 259.408 225.685 259.344C225.601 259.28 225.524 259.194 225.456 259.085C225.308 258.839 225.084 258.625 224.783 258.443C224.483 258.26 224.037 258.169 223.446 258.169C223.19 258.169 222.946 258.196 222.714 258.25C222.483 258.305 222.28 258.383 222.108 258.487C221.936 258.59 221.8 258.716 221.702 258.864C221.603 259.011 221.554 259.179 221.554 259.366C221.554 259.593 221.6 259.778 221.694 259.921C221.788 260.063 221.946 260.186 222.167 260.29C222.389 260.394 222.682 260.489 223.046 260.578C223.411 260.667 223.864 260.77 224.406 260.888C224.997 261.017 225.507 261.167 225.935 261.339C226.364 261.512 226.713 261.719 226.985 261.96C227.255 262.202 227.457 262.48 227.59 262.795C227.723 263.111 227.79 263.47 227.79 263.874C227.79 264.318 227.691 264.729 227.494 265.108C227.297 265.488 227.016 265.813 226.652 266.084C226.287 266.355 225.839 266.569 225.307 266.726C224.775 266.884 224.179 266.963 223.519 266.963C222.967 266.963 222.44 266.896 221.938 266.763C221.435 266.63 220.989 266.438 220.6 266.187C220.211 265.936 219.898 265.633 219.662 265.278C219.426 264.923 219.293 264.53 219.263 264.096C219.253 263.978 219.29 263.881 219.374 263.807C219.458 263.734 219.554 263.697 219.662 263.697H220.697C220.864 263.697 220.993 263.726 221.081 263.785C221.17 263.845 221.244 263.933 221.303 264.051C221.372 264.18 221.455 264.307 221.554 264.436C221.652 264.564 221.785 264.677 221.953 264.775C222.12 264.874 222.33 264.955 222.581 265.019C222.832 265.083 223.145 265.115 223.519 265.115C223.815 265.115 224.1 265.093 224.377 265.049C224.652 265.004 224.894 264.93 225.101 264.827C225.308 264.724 225.475 264.596 225.603 264.443C225.731 264.29 225.795 264.101 225.795 263.874C225.795 263.657 225.726 263.48 225.588 263.342C225.45 263.204 225.241 263.086 224.96 262.987C224.679 262.889 224.332 262.795 223.918 262.706C223.505 262.617 223.027 262.504 222.485 262.366C221.992 262.248 221.561 262.107 221.192 261.945C220.822 261.782 220.517 261.583 220.276 261.346C220.034 261.11 219.855 260.832 219.736 260.511C219.618 260.191 219.559 259.809 219.559 259.366C219.559 258.922 219.657 258.514 219.855 258.139C220.052 257.765 220.323 257.444 220.667 257.178C221.012 256.912 221.423 256.703 221.901 256.55C222.379 256.398 222.894 256.322 223.446 256.322Z" fill="white"/>
<path d="M236.184 256.469C236.292 256.469 236.386 256.509 236.465 256.588C236.544 256.667 236.583 256.76 236.583 256.868V257.918C236.583 258.026 236.544 258.12 236.465 258.198C236.386 258.278 236.293 258.317 236.184 258.317H231.47V261.184H235.889C235.997 261.184 236.091 261.224 236.169 261.303C236.248 261.382 236.288 261.475 236.288 261.583V262.633C236.288 262.741 236.248 262.835 236.169 262.914C236.09 262.993 235.997 263.032 235.889 263.032H231.47V266.417C231.47 266.525 231.431 266.619 231.352 266.698C231.273 266.777 231.18 266.816 231.071 266.816H229.874C229.766 266.816 229.672 266.777 229.593 266.698C229.514 266.619 229.475 266.525 229.475 266.417V256.869C229.475 256.76 229.514 256.667 229.593 256.588C229.672 256.509 229.766 256.47 229.874 256.47H236.184V256.469Z" fill="white"/>
<path d="M245.184 264.968C245.292 264.968 245.386 265.007 245.465 265.086C245.543 265.165 245.583 265.259 245.583 265.367V266.417C245.583 266.525 245.543 266.619 245.465 266.697C245.386 266.776 245.292 266.816 245.184 266.816H238.696C238.588 266.816 238.494 266.776 238.416 266.697C238.336 266.619 238.297 266.525 238.297 266.417V256.868C238.297 256.76 238.336 256.667 238.416 256.588C238.494 256.509 238.588 256.469 238.696 256.469H245.066C245.174 256.469 245.267 256.509 245.346 256.588C245.425 256.667 245.465 256.76 245.465 256.868V257.918C245.465 258.026 245.425 258.12 245.346 258.198C245.267 258.278 245.174 258.317 245.066 258.317H240.292V260.667H244.74C244.849 260.667 244.942 260.706 245.021 260.785C245.1 260.864 245.139 260.958 245.139 261.066V262.115C245.139 262.224 245.1 262.318 245.021 262.396C244.942 262.476 244.849 262.515 244.74 262.515H240.292V264.968H245.184V264.968Z" fill="white"/>
<path d="M251.627 256.469C252.858 256.469 253.794 256.755 254.435 257.327C255.075 257.898 255.395 258.691 255.395 259.706C255.395 260.426 255.23 261.039 254.9 261.546C254.57 262.054 254.085 262.431 253.444 262.677L255.484 266.328C255.513 266.387 255.528 266.441 255.528 266.49C255.528 266.579 255.496 266.656 255.432 266.72C255.368 266.784 255.292 266.816 255.203 266.816H253.947C253.75 266.816 253.604 266.769 253.511 266.675C253.417 266.582 253.351 266.496 253.311 266.417L251.376 262.973H249.41V266.417C249.41 266.525 249.371 266.619 249.292 266.697C249.213 266.776 249.12 266.816 249.011 266.816H247.814C247.706 266.816 247.612 266.776 247.533 266.697C247.454 266.619 247.415 266.525 247.415 266.417V256.868C247.415 256.76 247.454 256.667 247.533 256.588C247.612 256.509 247.706 256.469 247.814 256.469H251.627ZM249.41 261.125H251.553C252.114 261.125 252.563 261.027 252.898 260.829C253.232 260.632 253.4 260.258 253.4 259.706C253.4 259.154 253.232 258.785 252.898 258.597C252.563 258.41 252.114 258.317 251.553 258.317H249.41V261.125Z" fill="white"/>
</svg>
