<svg width="265" height="257" viewBox="0 0 265 257" fill="none" xmlns="http://www.w3.org/2000/svg">
<path d="M78.6689 201.973C78.1946 201.973 77.7338 201.591 77.4984 200.905L41.9502 98.5194L6.39526 200.905C6.05742 201.884 5.25203 202.256 4.61048 201.748C3.95869 201.243 3.70959 200.021 4.05426 199.042L40.7729 93.2675C41.237 91.9469 42.6669 91.9469 43.1207 93.2675L79.8565 199.042C80.1909 200.021 79.9452 201.243 79.2968 201.748C79.0921 201.908 78.8839 201.973 78.6689 201.973Z" fill="#D5DEFF"/>
<path d="M259.668 201.973C259.187 201.973 258.733 201.591 258.498 200.905L222.943 98.5194L187.388 200.905C187.057 201.884 186.245 202.256 185.603 201.748C184.958 201.243 184.702 200.021 185.047 199.042L221.773 93.2675C222.237 91.9469 223.666 91.9469 224.117 93.2675L260.849 199.042C261.194 200.021 260.941 201.243 260.293 201.748C260.088 201.908 259.88 201.973 259.668 201.973Z" fill="#D5DEFF"/>
<path d="M264.91 197.745H180.986V204.263H264.91V197.745Z" fill="#6585EF"/>
<path d="M131.726 71.2121V84.7427C118.015 85.0191 102.491 92.5164 90.1278 99.3346C81.228 104.242 70.7072 105.89 63.7423 105.211C53.4808 104.197 43.2808 99.1572 33.2241 92.8167V85.2546C43.2808 91.5814 51.7404 95.2976 63.1723 95.7105C73.3791 96.0756 81.6716 91.0251 90.1278 85.8006C102.249 78.3715 118.018 71.4885 131.726 71.2121Z" fill="#6585EF"/>
<path d="M33.5756 96.0011C37.835 96.0011 41.2879 92.5482 41.2879 88.2889C41.2879 84.0295 37.835 80.5765 33.5756 80.5765C29.3162 80.5765 25.8633 84.0295 25.8633 88.2889C25.8633 92.5482 29.3162 96.0011 33.5756 96.0011Z" fill="#2F55D3"/>
<path d="M131.727 71.2121V84.7427C145.445 85.0191 160.958 92.5164 173.322 99.3346C182.232 104.242 192.746 105.89 199.714 105.211C209.976 104.197 220.176 99.1572 230.232 92.8167V85.2546C220.176 91.5814 211.716 95.2976 200.284 95.7105C190.077 96.0756 181.782 91.0251 173.322 85.8006C161.214 78.3715 145.445 71.4885 131.727 71.2121Z" fill="#6585EF"/>
<path d="M230.659 96.0011C234.918 96.0011 238.371 92.5482 238.371 88.2889C238.371 84.0295 234.918 80.5765 230.659 80.5765C226.399 80.5765 222.947 84.0295 222.947 88.2889C222.947 92.5482 226.399 96.0011 230.659 96.0011Z" fill="#2F55D3"/>
<path d="M141.514 30.7368H121.939V233.072H141.514V30.7368Z" fill="#6585EF"/>
<path d="M148.332 80.4599C148.332 89.6328 140.893 97.0652 131.727 97.0652C122.561 97.0652 115.135 89.6328 115.135 80.4599C115.135 71.2973 122.561 63.8614 131.727 63.8614C140.893 63.8614 148.332 71.2973 148.332 80.4599Z" fill="#2F55D3"/>
<path d="M131.73 25.3482C138.729 25.3482 144.404 19.6737 144.404 12.674C144.404 5.67434 138.729 0 131.73 0C124.73 0 119.056 5.67434 119.056 12.674C119.056 19.6737 124.73 25.3482 131.73 25.3482Z" fill="#2F55D3"/>
<path d="M131.73 88.2307C136.021 88.2307 139.5 84.7518 139.5 80.4604C139.5 76.169 136.021 72.6901 131.73 72.6901C127.438 72.6901 123.959 76.169 123.959 80.4604C123.959 84.7518 127.438 88.2307 131.73 88.2307Z" fill="#5577E8"/>
<path d="M146.458 25.3412C146.458 28.3203 144.045 30.7364 141.063 30.7364H122.39C119.41 30.7364 116.994 28.3203 116.994 25.3412C116.994 22.3689 119.41 19.946 122.39 19.946H141.063C144.045 19.946 146.458 22.3689 146.458 25.3412Z" fill="#2F55D3"/>
<path d="M261.856 204.263C261.856 209.658 257.478 214.006 252.082 214.006H193.776C188.388 214.006 184.033 209.658 184.033 204.263H261.856Z" fill="#2F55D3"/>
<path d="M83.9377 197.758H0V204.256H83.9377V197.758Z" fill="#6585EF"/>
<path d="M80.8595 204.263C80.8595 209.658 76.4847 214.006 71.0895 214.006H12.7832C7.38806 214.006 3.04053 209.658 3.04053 204.263H80.8595Z" fill="#2F55D3"/>
<path d="M146.158 237.985V209.136H117.309V237.985L56.2178 245.199V257H117.309H131.727H146.158H207.232V245.199L146.158 237.985Z" fill="#5577E8"/>
<path d="M220.602 157.876C220.602 155.665 221.981 153.706 223.905 152.908H226.014V145.97H203.539V152.908H205.645C207.604 153.706 208.945 155.665 208.945 157.876C208.945 160.893 206.556 163.289 203.539 163.289H200.127V197.745H229.464V163.289H226.014C223.035 163.289 220.602 160.893 220.602 157.876Z" fill="#6585EF"/>
<path d="M237.958 165.746C237.958 163.975 239.067 162.402 240.606 161.757H242.292V156.194H224.264V161.757H225.953C227.526 162.398 228.601 163.975 228.601 165.746C228.601 168.169 226.68 170.09 224.264 170.09H221.524V197.745H245.063V170.09H242.289C239.91 170.09 237.958 168.169 237.958 165.746Z" fill="#A6BAFF"/>
<path d="M69.779 197.759H16.2673C18.9632 195.53 19.9256 192.909 21.8059 189.715C24.2321 185.641 26.8803 185.869 30.2348 182.986C33.579 180.607 38.4214 169.066 42.0046 169.066C45.1236 169.066 48.2768 174.328 49.6964 176.485C52.1227 181.065 53.8084 180.607 58.1252 183.491C63.1996 186.948 65.5441 193.141 69.779 197.759Z" fill="#A6BAFF"/>
<path d="M126.922 69.3218H136.538L131.733 33.4529L126.922 69.3218Z" fill="#2F55D3"/>
</svg>
